<?xml version="1.0" encoding="utf-8"?>
<!-- Generator: Adobe Illustrator 20.1.0, SVG Export Plug-In . SVG Version: 6.00 Build 0)  -->
<svg version="1.1" id="图层_1" xmlns="http://www.w3.org/2000/svg" xmlns:xlink="http://www.w3.org/1999/xlink" x="0px" y="0px"
	 viewBox="0 0 360 360" style="enable-background:new 0 0 360 360;" xml:space="preserve">
<style type="text/css">
	.st0{fill:#FFFFFF;}
</style>
<g>
	<path class="st0" d="M0.2,360.5c0-120.1,0-240.2,0-360.2c120.1,0,240.2,0,360.2,0c0,120.1,0,240.2,0,360.2
		C240.4,360.5,120.3,360.5,0.2,360.5z M172.4,43.6c0,0.4-0.1,0.6-0.1,0.8c0.4,14.7,1.1,29.5,1.1,44.2c0.1,65.5-0.1,131-0.2,196.5
		c0,7.4-0.4,14.8-0.6,22.2c-0.1,2.8,0,5.6,0,8.3c-0.1,0,0.1,0,0.2-0.1c6.3-3.7,12.7-7.4,19-11.2c0.3-0.2,0.5-0.7,0.5-1
		c0-2-0.1-3.9-0.2-5.9c-0.3-13.5-0.9-27-0.9-40.5c-0.1-63.3,0-126.5-0.1-189.8c0-0.8,0.2-1.3,0.8-1.8c3-2.3,5.9-4.7,8.9-7.1
		c0.7-0.5,1.3-1.1,2.1-1.7C192.8,52.2,182.7,47.9,172.4,43.6z"/>
	<path d="M172.4,43.6c10.3,4.3,20.4,8.6,30.7,13c-0.8,0.6-1.4,1.2-2.1,1.7c-3,2.4-5.9,4.8-8.9,7.1c-0.6,0.5-0.8,1-0.8,1.8
		c0,63.3,0,126.5,0.1,189.8c0,13.5,0.6,27,0.9,40.5c0,2,0.2,3.9,0.2,5.9c0,0.4-0.2,0.9-0.5,1c-6.3,3.8-12.7,7.5-19,11.2
		c-0.1,0.1-0.3,0.1-0.2,0.1c0-2.8-0.1-5.6,0-8.3c0.2-7.4,0.6-14.8,0.6-22.2c0.1-65.5,0.2-131,0.2-196.5c0-14.7-0.7-29.5-1.1-44.2
		C172.4,44.2,172.4,44,172.4,43.6z"/>
</g>
</svg>
