<?xml version="1.0" encoding="utf-8"?>
<!-- Generator: Adobe Illustrator 20.1.0, SVG Export Plug-In . SVG Version: 6.00 Build 0)  -->
<svg version="1.1" id="图层_1" xmlns="http://www.w3.org/2000/svg" xmlns:xlink="http://www.w3.org/1999/xlink" x="0px" y="0px"
	 viewBox="0 0 360 360" style="enable-background:new 0 0 360 360;" xml:space="preserve">
<style type="text/css">
	.st0{fill:#FFFFFF;}
</style>
<g>
	<path class="st0" d="M0.2,360.5c0-120.1,0-240.2,0-360.2c120.1,0,240.2,0,360.2,0c0,120.1,0,240.2,0,360.2
		C240.4,360.5,120.3,360.5,0.2,360.5z M173.6,44.7c0,0.6,0,1,0,1.4c0.4,14.1,1.1,28.1,1.1,42.2c0.1,60.3,0.1,120.6,0,180.9
		c0,2.9-0.5,5.9-1.2,8.7c-1,3.9-3.4,6.7-7.6,7.5c-1.7,0.3-3.5,0.4-5.3,0.3c-10.5-0.5-20.8-2.3-31.1-4.1c-2.2-0.4-4.4-0.8-6.6-1.2
		c-0.4,2.1-0.8,4-1.2,5.8c0.2,0.1,0.2,0.2,0.3,0.2c0.7,0.2,1.4,0.4,2.1,0.6c8.8,2.5,17.6,5.4,25.6,9.9c2.8,1.6,5.4,3.4,7.9,5.4
		c4.1,3.4,6.8,7.7,6.6,13.4c7.1-2.3,13.6-5.3,18.9-10.4c6.2-6,9.4-13.2,9.4-21.9c0-71.4,0-142.9,0-214.3c0-0.3,0-0.6,0-0.8
		c-0.1-0.8,0.2-1.4,0.9-1.9c1.7-1.1,3.4-2.3,5-3.5c1.9-1.3,3.8-2.7,5.9-4.1C194,54.1,183.9,49.5,173.6,44.7z"/>
	<path d="M173.6,44.7c10.3,4.8,20.4,9.4,30.7,14.2c-2,1.4-3.9,2.8-5.9,4.1c-1.7,1.2-3.3,2.4-5,3.5c-0.7,0.5-1.1,1-0.9,1.9
		c0,0.3,0,0.6,0,0.8c0,71.4,0,142.9,0,214.3c0,8.7-3.2,16-9.4,21.9c-5.3,5.1-11.9,8.1-18.9,10.4c0.2-5.7-2.5-10-6.6-13.4
		c-2.4-2-5.1-3.9-7.9-5.4c-8-4.6-16.8-7.4-25.6-9.9c-0.7-0.2-1.4-0.4-2.1-0.6c-0.1,0-0.1-0.1-0.3-0.2c0.4-1.9,0.8-3.8,1.2-5.8
		c2.3,0.4,4.4,0.8,6.6,1.2c10.3,1.8,20.6,3.7,31.1,4.1c1.7,0.1,3.5,0,5.3-0.3c4.2-0.8,6.6-3.6,7.6-7.5c0.7-2.8,1.2-5.8,1.2-8.7
		c0.1-60.3,0.1-120.6,0-180.9c0-14.1-0.7-28.1-1.1-42.2C173.6,45.8,173.6,45.4,173.6,44.7z"/>
</g>
</svg>
