<?xml version="1.0" encoding="utf-8"?>
<!-- Generator: Adobe Illustrator 20.1.0, SVG Export Plug-In . SVG Version: 6.00 Build 0)  -->
<svg version="1.1" id="图层_1" xmlns="http://www.w3.org/2000/svg" xmlns:xlink="http://www.w3.org/1999/xlink" x="0px" y="0px"
	 viewBox="0 0 360 360" style="enable-background:new 0 0 360 360;" xml:space="preserve">
<style type="text/css">
	.st0{fill:#FFFFFF;}
</style>
<g>
	<path class="st0" d="M0.2,360.5c0-120.1,0-240.2,0-360.2c120.1,0,240.2,0,360.2,0c0,120.1,0,240.2,0,360.2
		C240.4,360.5,120.3,360.5,0.2,360.5z M116,77.8c0,2,0,3.9,0,5.9c0.5,0,1,0,1.5,0c8.4-0.3,16.8-0.5,25.2-1
		c10.3-0.6,20.6-1.3,30.9-2.1c10.1-0.8,20.2-1.9,30.3-3c9.7-1.1,19.3-2.4,28.9-3.4c13.9-1.5,27.7-2.8,41.6-4.2
		c1.7-0.2,3.4-0.3,5.4-0.4c-6.8-7.2-13.4-14.2-20.1-21.2c-5.4,3.5-11,6-16.9,8.1c-20.8,7.4-42.4,11.4-64.1,14.6
		c-8.4,1.2-16.9,2.3-25.3,3.2c-8.5,1-16.9,1.7-25.4,2.6C123.9,77.2,120,77.5,116,77.8z"/>
	<path d="M116,77.8c4-0.3,8-0.7,11.9-1c8.5-0.8,16.9-1.6,25.4-2.6s16.9-2,25.3-3.2c21.8-3.2,43.3-7.2,64.1-14.6
		c5.8-2.1,11.5-4.6,16.9-8.1c6.6,7,13.2,14,20.1,21.2c-1.9,0.2-3.7,0.3-5.4,0.4c-13.9,1.4-27.8,2.7-41.6,4.2
		c-9.7,1-19.3,2.4-28.9,3.4c-10.1,1.1-20.2,2.1-30.3,3c-10.3,0.9-20.6,1.5-30.9,2.1c-8.4,0.5-16.8,0.7-25.2,1c-0.5,0-0.9,0-1.5,0
		C116,81.8,116,79.9,116,77.8z"/>
</g>
</svg>
