<?xml version="1.0" encoding="utf-8"?>
<!-- Generator: Adobe Illustrator 20.1.0, SVG Export Plug-In . SVG Version: 6.00 Build 0)  -->
<svg version="1.1" id="图层_1" xmlns="http://www.w3.org/2000/svg" xmlns:xlink="http://www.w3.org/1999/xlink" x="0px" y="0px"
	 viewBox="0 0 360 360" style="enable-background:new 0 0 360 360;" xml:space="preserve">
<style type="text/css">
	.st0{fill:#FFFFFF;}
</style>
<g>
	<path class="st0" d="M0.2,360.5c0-120.1,0-240.2,0-360.2c120.1,0,240.2,0,360.2,0c0,120.1,0,240.2,0,360.2
		C240.4,360.5,120.3,360.5,0.2,360.5z M53.4,313.5c0.4-0.2,0.7-0.4,1-0.6c20-12.4,38-27.2,53.2-45.3c8.9-10.5,16.7-21.8,22.9-34
		c8.7-17,14.4-35,18.2-53.6c2-9.7,3.5-19.4,5-29.2c1-7.2,1.8-14.4,2.2-21.6c0.6-10,0.8-20,1.2-29.9c0.4-10.7,0.8-21.5,1.2-32.2
		c0-0.6,0.3-1.2,0.7-1.6c2.6-2.7,5.3-5.3,8-8c0.2-0.2,0.4-0.5,0.7-0.8c-9.1-4.3-18-8.6-27-12.9c0,0.3-0.1,0.4-0.1,0.5
		c0,7.6,0.1,15.3,0.1,22.9c0,4.5-0.1,9-0.2,13.4c-0.2,12.3-0.5,24.5-0.8,36.8c-0.1,4.7,0,9.4-0.4,14.1c-0.5,7-1.2,13.9-2,20.9
		c-1.6,13.7-4,27.3-7.5,40.6c-3.9,15.2-9.2,29.9-16.5,43.8c-13.6,25.5-31.8,47.3-53.7,66.1c-2.8,2.4-5.6,4.7-8.5,7.1
		C51.8,311.2,52.6,312.3,53.4,313.5z"/>
	<path d="M53.4,313.5c-0.8-1.2-1.6-2.3-2.3-3.5c2.9-2.4,5.7-4.7,8.5-7.1c21.8-18.8,40.1-40.5,53.7-66.1
		c7.4-13.9,12.6-28.6,16.5-43.8c3.5-13.4,5.9-26.9,7.5-40.6c0.8-6.9,1.5-13.9,2-20.9c0.3-4.7,0.3-9.4,0.4-14.1
		c0.3-12.3,0.5-24.5,0.8-36.8c0.1-4.5,0.2-9,0.2-13.4c0-7.6,0-15.3-0.1-22.9c0-0.1,0-0.2,0.1-0.5c9,4.3,18,8.6,27,12.9
		c-0.3,0.3-0.5,0.6-0.7,0.8c-2.7,2.7-5.3,5.3-8,8c-0.4,0.4-0.7,1.1-0.7,1.6c-0.4,10.7-0.8,21.5-1.2,32.2c-0.4,10-0.6,20-1.2,29.9
		c-0.4,7.2-1.2,14.4-2.2,21.6c-1.4,9.8-3,19.5-5,29.2c-3.8,18.6-9.5,36.6-18.2,53.6c-6.3,12.3-14.1,23.5-22.9,34
		c-15.2,18-33.2,32.8-53.2,45.3C54.1,313.1,53.8,313.3,53.4,313.5z"/>
</g>
</svg>
