<?xml version="1.0" encoding="utf-8"?>
<!-- Generator: Adobe Illustrator 20.1.0, SVG Export Plug-In . SVG Version: 6.00 Build 0)  -->
<svg version="1.1" id="图层_1" xmlns="http://www.w3.org/2000/svg" xmlns:xlink="http://www.w3.org/1999/xlink" x="0px" y="0px"
	 viewBox="0 0 360 360" style="enable-background:new 0 0 360 360;" xml:space="preserve">
<style type="text/css">
	.st0{fill:#FFFFFF;}
</style>
<g>
	<path class="st0" d="M0.2,360.5c0-120.1,0-240.2,0-360.2c120.1,0,240.2,0,360.2,0c0,120.1,0,240.2,0,360.2
		C240.4,360.5,120.3,360.5,0.2,360.5z M77,101.4c3.6,3.6,6.9,6.9,10.3,10.2c0.2,0.2,0.9,0.3,1.3,0.2c9-2.4,18.2-3.3,27.5-3.3
		c41.9,0,83.8,0,125.7,0c0.4,0,0.9,0,1.3,0c0,0.4,0,0.7-0.1,1c-0.7,8.1-1.4,16.2-2,24.4c-0.9,10.2-1.7,20.4-2.5,30.6
		c0,0.5,0.2,1.2,0.6,1.5c4.6,4.2,9.3,8.4,14,12.6c0.2,0.2,0.4,0.3,0.8,0.6c0.1-0.9,0.1-1.7,0.2-2.4c0.9-10.3,1.9-20.6,2.8-30.9
		c0.9-10.3,1.8-20.6,2.7-30.9c0.1-1.2,0.6-2,1.6-2.7c3.1-2.3,6.1-4.7,9.3-7.2c-6.7-5.2-13.4-10.2-20.1-15.4
		c-2.9,3.6-5.7,7.1-8.5,10.6c-0.7,0.9-1.5,1.2-2.6,1.2c-53.4,0-106.9,0-160.3,0C78.3,101.4,77.8,101.4,77,101.4z"/>
	<path d="M77,101.4c0.9,0,1.4,0,1.9,0c53.4,0,106.9,0,160.3,0c1.1,0,1.9-0.3,2.6-1.2c2.7-3.5,5.6-7,8.5-10.6
		c6.7,5.1,13.4,10.2,20.1,15.4c-3.2,2.5-6.2,4.9-9.3,7.2c-1,0.7-1.4,1.5-1.6,2.7c-0.9,10.3-1.8,20.6-2.7,30.9
		c-0.9,10.3-1.9,20.6-2.8,30.9c-0.1,0.7-0.1,1.5-0.2,2.4c-0.4-0.3-0.6-0.4-0.8-0.6c-4.7-4.2-9.3-8.4-14-12.6c-0.4-0.3-0.6-1-0.6-1.5
		c0.8-10.2,1.7-20.4,2.5-30.6c0.7-8.1,1.4-16.2,2-24.4c0-0.3,0-0.6,0.1-1c-0.5,0-0.9,0-1.3,0c-41.9,0-83.8,0-125.7,0
		c-9.3,0-18.5,0.9-27.5,3.3c-0.4,0.1-1,0.1-1.3-0.2C83.9,108.3,80.6,105,77,101.4z"/>
</g>
</svg>
