<?xml version="1.0" encoding="utf-8"?>
<!-- Generator: Adobe Illustrator 20.1.0, SVG Export Plug-In . SVG Version: 6.00 Build 0)  -->
<svg version="1.1" id="图层_1" xmlns="http://www.w3.org/2000/svg" xmlns:xlink="http://www.w3.org/1999/xlink" x="0px" y="0px"
	 viewBox="0 0 360 360" style="enable-background:new 0 0 360 360;" xml:space="preserve">
<style type="text/css">
	.st0{fill:#FFFFFF;}
</style>
<g>
	<path class="st0" d="M0.2,360.5c0-120.1,0-240.2,0-360.2c120.1,0,240.2,0,360.2,0c0,120.1,0,240.2,0,360.2
		C240.4,360.5,120.3,360.5,0.2,360.5z M194.8,130.9c0.4-0.3,0.7-0.5,1-0.7c9.1-6.7,18.1-13.6,27.3-20.2
		c12.6-9.1,25.5-17.7,39.1-25.1c7-3.8,14-7.3,21.7-9.4c3.2-0.9,6.4-1.4,9.9-1.2c-7.2-8.8-14.2-17.3-21.2-25.9
		c-0.3,0.3-0.6,0.5-0.8,0.7c-3.6,3.3-7.3,6.5-10.8,9.9c-0.9,0.9-1.9,1.3-3.2,1.3c-61.6,0-123.3,0-184.9,0c-0.5,0-1,0-1.9,0
		c3.7,3.7,7,7,10.4,10.3c0.2,0.2,0.9,0.2,1.3,0.1c8.7-2.3,17.5-3.3,26.5-3.3c49.2,0,98.5,0,147.7,0c0.4,0,0.8,0,1.5,0
		c-22.9,20.2-45.6,40.1-68.3,60.1C191.7,128.6,193.2,129.7,194.8,130.9z"/>
	<path d="M194.8,130.9c-1.6-1.2-3.1-2.3-4.8-3.6c22.7-20,45.4-39.9,68.3-60.1c-0.8,0-1.1,0-1.5,0c-49.2,0-98.5,0-147.7,0
		c-8.9,0-17.8,1-26.5,3.3c-0.4,0.1-1,0.1-1.3-0.1C78,67.1,74.7,63.8,71,60.1c0.9,0,1.4,0,1.9,0c61.6,0,123.3,0,184.9,0
		c1.3,0,2.2-0.4,3.2-1.3c3.6-3.3,7.2-6.6,10.8-9.9c0.2-0.2,0.5-0.4,0.8-0.7c7,8.6,14,17.2,21.2,25.9c-3.6-0.2-6.8,0.3-9.9,1.2
		c-7.7,2.1-14.8,5.6-21.7,9.4c-13.6,7.4-26.5,16-39.1,25.1c-9.2,6.6-18.2,13.4-27.3,20.2C195.5,130.4,195.1,130.6,194.8,130.9z"/>
</g>
</svg>
