<?xml version="1.0" encoding="utf-8"?>
<!-- Generator: Adobe Illustrator 20.1.0, SVG Export Plug-In . SVG Version: 6.00 Build 0)  -->
<svg version="1.1" id="图层_1" xmlns="http://www.w3.org/2000/svg" xmlns:xlink="http://www.w3.org/1999/xlink" x="0px" y="0px"
	 viewBox="0 0 360 360" style="enable-background:new 0 0 360 360;" xml:space="preserve">
<style type="text/css">
	.st0{fill:#FFFFFF;}
</style>
<g>
	<path class="st0" d="M0.2,360.5c0-120.1,0-240.2,0-360.2c120.1,0,240.2,0,360.2,0c0,120.1,0,240.2,0,360.2
		C240.4,360.5,120.3,360.5,0.2,360.5z M51.2,76.6c0.2,0.3,0.2,0.4,0.3,0.5c3.2,3.3,6.5,6.5,9.8,9.7c0.3,0.3,1,0.3,1.4,0.2
		c8.7-2.3,17.6-3.3,26.6-3.3c48.1,0,96.1,0,144.2,0c26.7,0,53.4,0,80,0c0.4,0,0.9,0,1.3,0c-8.3-8.3-16.4-16.4-24.7-24.7
		c-0.2,0.2-0.6,0.5-0.9,0.8c-5.2,5.2-10.4,10.4-15.6,15.6c-0.8,0.8-1.5,1.1-2.6,1.1c-72.7,0-145.4,0-218.1,0
		C52.4,76.6,51.9,76.6,51.2,76.6z"/>
	<path d="M51.2,76.6c0.7,0,1.2,0,1.7,0c72.7,0,145.4,0,218.1,0c1.1,0,1.8-0.3,2.6-1.1c5.2-5.2,10.4-10.4,15.6-15.6
		c0.3-0.3,0.6-0.6,0.9-0.8c8.2,8.2,16.4,16.4,24.7,24.7c-0.4,0-0.9,0-1.3,0c-26.7,0-53.4,0-80,0c-48.1,0-96.1,0-144.2,0
		c-9,0-17.9,1-26.6,3.3c-0.4,0.1-1.1,0-1.4-0.2c-3.3-3.2-6.5-6.5-9.8-9.7C51.4,77,51.3,76.9,51.2,76.6z"/>
</g>
</svg>
