<?xml version="1.0" encoding="utf-8"?>
<!-- Generator: Adobe Illustrator 20.1.0, SVG Export Plug-In . SVG Version: 6.00 Build 0)  -->
<svg version="1.1" id="图层_1" xmlns="http://www.w3.org/2000/svg" xmlns:xlink="http://www.w3.org/1999/xlink" x="0px" y="0px"
	 viewBox="0 0 360 360" style="enable-background:new 0 0 360 360;" xml:space="preserve">
<style type="text/css">
	.st0{fill:#FFFFFF;}
</style>
<g>
	<path class="st0" d="M0.2,360.5c0-120.1,0-240.2,0-360.2c120.1,0,240.2,0,360.2,0c0,120.1,0,240.2,0,360.2
		C240.4,360.5,120.3,360.5,0.2,360.5z M250,165.1c-0.3,0.5-0.5,0.9-0.7,1.2c-12.5,20.4-24.9,40.9-36.1,62
		c-5.2,9.7-10.2,19.4-13.9,29.8c-2.7,7.7-4.8,15.6-4.2,23.9c0.3,4,1.3,7.8,3.5,11.2c3.4,5.2,8.5,7.7,14.3,8.9
		c4.4,0.9,8.8,0.8,13.3,0.7c18.6-0.1,37.3,0,55.9,0c5.7,0,11.4-0.8,16.9-2.4c6.5-1.9,12.3-5.1,16.3-10.7c1.3-1.7,2.2-3.7,3.2-5.4
		c-2.1-1-4-1.7-5.6-2.7c-4.6-2.9-6.9-7.4-8.2-12.5c-2-8-2.4-16.1-2.6-24.3c-0.1-3,0-6,0-9c-2.2,0-4.1,0-6,0c0,0.3-0.1,0.6-0.1,0.9
		c-0.3,5.5-0.4,11.1-0.9,16.6c-0.6,7.5-1.2,15-2.2,22.4c-1.1,8.5-8.4,13.1-15.4,13.1c-16.6,0-33.3,0-49.9,0c-2,0-4-0.2-6-0.5
		c-6.9-1.2-10.4-5.8-9.7-12.8c0.5-5.3,2.1-10.3,3.8-15.3c4.5-13,10.9-25.1,17.7-37c9.7-17,20.6-33.3,31.8-49.4
		c2.5-3.6,5.2-6.3,9.4-7.6c1.7-0.5,3.3-1.4,4.9-2.1c-5.9-5.9-11.8-11.8-17.7-17.7c-3.6,3.6-7.2,7.2-10.8,10.8
		c-0.6,0.7-1.3,0.9-2.2,0.9c-19.1,0-38.2,0-57.2,0c-0.5,0-0.9,0-1.4,0c0.1,0.2,0.1,0.3,0.2,0.4c2.1,2.1,4.4,4,6.2,6.3
		c2,2.5,4.1,2.9,7,2.1c3.2-0.8,6.4-1.5,9.7-1.6c11.8-0.2,23.6-0.1,35.4-0.1C249.1,165.1,249.5,165.1,250,165.1z"/>
	<path d="M250,165.1c-0.6,0-0.9,0-1.3,0c-11.8,0-23.6-0.1-35.4,0.1c-3.2,0.1-6.5,0.8-9.7,1.6c-2.9,0.8-5.1,0.4-7-2.1
		c-1.8-2.3-4.1-4.2-6.2-6.3c0,0-0.1-0.1-0.2-0.4c0.5,0,1,0,1.4,0c19.1,0,38.2,0,57.2,0c0.9,0,1.5-0.2,2.2-0.9
		c3.6-3.7,7.2-7.3,10.8-10.8c5.9,5.9,11.8,11.8,17.7,17.7c-1.6,0.7-3.2,1.6-4.9,2.1c-4.2,1.3-6.9,4.1-9.4,7.6
		c-11.1,16.1-22,32.4-31.8,49.4c-6.8,11.9-13.2,24-17.7,37c-1.7,5-3.3,10-3.8,15.3c-0.7,7,2.8,11.6,9.7,12.8c2,0.4,4,0.5,6,0.5
		c16.6,0,33.3,0,49.9,0c7,0,14.3-4.6,15.4-13.1c1-7.4,1.6-14.9,2.2-22.4c0.4-5.5,0.6-11.1,0.9-16.6c0-0.3,0.1-0.5,0.1-0.9
		c1.9,0,3.8,0,6,0c0,3-0.1,6,0,9c0.2,8.2,0.6,16.3,2.6,24.3c1.3,5.1,3.6,9.6,8.2,12.5c1.7,1.1,3.6,1.8,5.6,2.7c-1,1.7-2,3.7-3.2,5.4
		c-4.1,5.6-9.8,8.8-16.3,10.7c-5.5,1.6-11.2,2.4-16.9,2.4c-18.6,0-37.3,0-55.9,0c-4.4,0-8.9,0.2-13.3-0.7c-5.9-1.2-11-3.7-14.3-8.9
		c-2.2-3.4-3.2-7.2-3.5-11.2c-0.6-8.3,1.5-16.2,4.2-23.9c3.7-10.4,8.7-20.1,13.9-29.8c11.3-21.1,23.6-41.6,36.1-62
		C249.6,165.9,249.7,165.6,250,165.1z"/>
</g>
</svg>
