<?xml version="1.0" encoding="utf-8"?>
<!-- Generator: Adobe Illustrator 20.1.0, SVG Export Plug-In . SVG Version: 6.00 Build 0)  -->
<svg version="1.1" id="图层_1" xmlns="http://www.w3.org/2000/svg" xmlns:xlink="http://www.w3.org/1999/xlink" x="0px" y="0px"
	 viewBox="0 0 360 360" style="enable-background:new 0 0 360 360;" xml:space="preserve">
<style type="text/css">
	.st0{fill:#FFFFFF;}
</style>
<g>
	<path class="st0" d="M0.2,360.5c0-120.1,0-240.2,0-360.2c120.1,0,240.2,0,360.2,0c0,120.1,0,240.2,0,360.2
		C240.4,360.5,120.3,360.5,0.2,360.5z M214.7,141.6c-0.2,0.2-0.6,0.5-0.9,0.8c-3.7,3.6-7.3,7.3-10.9,11c-0.7,0.7-1.4,1-2.4,1
		c-34.8,0-69.5,0-104.3,0c-0.4,0-0.9,0-1.5,0c0.2,0.3,0.3,0.4,0.3,0.5c3.2,3.2,6.4,6.5,9.7,9.7c0.3,0.3,1,0.4,1.5,0.3
		c8.2-2.1,16.6-3.2,25.1-3.2c23.1-0.1,46.2,0,69.2,0c0.3,0,0.6,0.1,1.2,0.1c-0.5,0.4-0.8,0.6-1,0.8c-6.2,5.9-12.3,11.8-18.4,17.9
		c-12.9,12.8-25.6,25.8-37.7,39.5c-7.1,8.1-14.2,16.2-20.5,24.9c-5,7-9.3,14.4-11.6,22.9c-3.2,12-0.1,22,9.4,30
		c5.7,4.8,12.5,7,19.8,8.2c5.1,0.8,10.2,0.7,15.3,0.7c38.6,0,77.3,0,115.9,0c5.2,0,10.4-0.5,15.5-1.6c7.1-1.5,13.8-4.2,19.3-9.1
		c3-2.6,5.3-5.7,7-9.1c-2.2-0.9-4.4-1.6-6.3-2.7c-4.8-2.7-7.4-7.2-8.8-12.4c-1.7-6.2-2.3-12.5-2.6-18.8c-0.5-10.5-0.7-20.9-1-31.4
		c0-0.3-0.1-0.6-0.1-0.9c-2,0-3.9,0-5.8,0c-0.1,0.2-0.1,0.3-0.1,0.4c-0.8,10.6-1.5,21.1-2.5,31.7c-0.6,6.7-1.6,13.4-2.6,20.1
		c-0.7,4.3-2.1,8.4-4.4,12.1c-3.1,4.9-7.3,7.6-13.4,7.6c-36.8-0.1-73.5,0-110.3-0.1c-2.7,0-5.4-0.2-8-0.6
		c-5.5-0.9-10.6-2.6-14.5-6.8c-4-4.4-5.9-9.4-3.9-15.3c0.9-2.8,2-5.5,3.4-8c5-9.4,11.6-17.6,18.4-25.7c8.3-9.9,17.1-19.3,26.1-28.5
		c9.7-9.9,19.7-19.6,30.6-28.1c8.5-6.6,17.1-13,27.9-15.2C229.6,156.4,222.2,149.1,214.7,141.6z"/>
	<path d="M214.7,141.6c7.5,7.5,14.8,14.8,22.2,22.2c-10.8,2.2-19.4,8.6-27.9,15.2c-11,8.5-20.9,18.2-30.6,28.1
		c-9,9.2-17.8,18.6-26.1,28.5c-6.8,8.1-13.4,16.3-18.4,25.7c-1.4,2.6-2.5,5.3-3.4,8c-2,5.9-0.1,11,3.9,15.3c3.8,4.2,9,6,14.5,6.8
		c2.6,0.4,5.3,0.6,8,0.6c36.8,0,73.5,0,110.3,0.1c6.2,0,10.3-2.7,13.4-7.6c2.3-3.7,3.8-7.8,4.4-12.1c1-6.7,2-13.4,2.6-20.1
		c1-10.5,1.7-21.1,2.5-31.7c0-0.1,0.1-0.2,0.1-0.4c1.9,0,3.8,0,5.8,0c0,0.3,0.1,0.6,0.1,0.9c0.3,10.5,0.5,20.9,1,31.4
		c0.3,6.3,1,12.7,2.6,18.8c1.4,5.2,3.9,9.7,8.8,12.4c2,1.1,4.2,1.8,6.3,2.7c-1.7,3.4-4,6.5-7,9.1c-5.5,4.9-12.2,7.5-19.3,9.1
		c-5.1,1.1-10.3,1.6-15.5,1.6c-38.6,0-77.3,0-115.9,0c-5.1,0-10.2,0.1-15.3-0.7c-7.3-1.1-14.1-3.3-19.8-8.2c-9.5-8-12.6-18.1-9.4-30
		c2.2-8.4,6.6-15.8,11.6-22.9c6.3-8.8,13.3-16.9,20.5-24.9c12.1-13.6,24.7-26.7,37.7-39.5c6.1-6,12.3-11.9,18.4-17.9
		c0.2-0.2,0.5-0.4,1-0.8c-0.6-0.1-0.9-0.1-1.2-0.1c-23.1,0-46.2-0.1-69.2,0c-8.5,0-16.9,1.1-25.1,3.2c-0.4,0.1-1.2,0-1.5-0.3
		c-3.3-3.2-6.5-6.4-9.7-9.7c-0.1-0.1-0.1-0.2-0.3-0.5c0.6,0,1,0,1.5,0c34.8,0,69.5,0,104.3,0c1,0,1.7-0.3,2.4-1
		c3.6-3.7,7.3-7.3,10.9-11C214.1,142.1,214.5,141.8,214.7,141.6z"/>
</g>
</svg>
