<?xml version="1.0" encoding="utf-8"?>
<!-- Generator: Adobe Illustrator 20.1.0, SVG Export Plug-In . SVG Version: 6.00 Build 0)  -->
<svg version="1.1" id="图层_1" xmlns="http://www.w3.org/2000/svg" xmlns:xlink="http://www.w3.org/1999/xlink" x="0px" y="0px"
	 viewBox="0 0 360 360" style="enable-background:new 0 0 360 360;" xml:space="preserve">
<style type="text/css">
	.st0{fill:#FFFFFF;}
</style>
<g>
	<path class="st0" d="M0.2,360.5c0-120.1,0-240.2,0-360.2c120.1,0,240.2,0,360.2,0c0,120.1,0,240.2,0,360.2
		C240.4,360.5,120.3,360.5,0.2,360.5z M220.8,44.9c-0.1,0.2-0.1,0.3-0.1,0.4c0.2,5.6,0.4,11.2,0.5,16.8c0.2,12.8,0.6,25.7,0.6,38.5
		c0.1,56.8,0,113.6,0,170.4c0,0.5,0,1-0.1,1.6c-0.2,4.4-0.2,8.9,0.7,13.3c1.1,5.5,3.4,10.3,8,13.8c4.5,3.4,9.8,4.5,15.3,4.5
		c15,0.1,29.9,0.1,44.9,0c6.8-0.1,13.1-2,18.6-6.1c3.3-2.5,6-5.6,8.1-9.2c-0.2-0.1-0.2-0.2-0.3-0.3c-6.2-2.9-9.8-7.9-11.1-14.4
		c-1-4.8-1.5-9.6-1.9-14.5c-0.7-7.7-1.2-15.4-1.8-23.1c0-0.3-0.1-0.5-0.2-0.8c-1.6,0-3.1,0-4.6,0c-0.1,0.3-0.1,0.6-0.2,0.9
		c-0.5,6.4-0.9,12.8-1.5,19.1c-0.6,6.3-1.2,12.7-1.9,19c-0.4,3.7-1.5,7.2-3.5,10.4c-2,3.2-4.8,4.9-8.8,4.8c-8.2-0.1-16.3,0.1-24.5,0
		c-2.9,0-5.8-0.2-8.6-0.8c-6.4-1.3-9.9-5.3-10.2-11.7c-0.1-1.9,0.2-3.8,0.2-5.7c0-68.2,0-136.5,0-204.7c0-0.4-0.1-0.8,0-1.2
		c0.2-0.5,0.4-1.2,0.7-1.5c2.3-1.9,4.7-3.7,7-5.5c0.9-0.7,1.8-1.4,2.9-2.2C239.5,52.7,230.2,48.8,220.8,44.9z"/>
	<path d="M220.8,44.9c9.4,3.9,18.7,7.8,28.2,11.8c-1.1,0.8-2,1.5-2.9,2.2c-2.3,1.8-4.7,3.6-7,5.5c-0.4,0.3-0.6,1-0.7,1.5
		c-0.1,0.4,0,0.8,0,1.2c0,68.2,0,136.5,0,204.7c0,1.9-0.3,3.8-0.2,5.7c0.3,6.3,3.7,10.4,10.2,11.7c2.8,0.6,5.7,0.7,8.6,0.8
		c8.2,0.1,16.3-0.1,24.5,0c3.9,0,6.7-1.7,8.8-4.8c2-3.2,3.1-6.7,3.5-10.4c0.8-6.3,1.4-12.6,1.9-19c0.6-6.4,1-12.7,1.5-19.1
		c0-0.3,0.1-0.5,0.2-0.9c1.5,0,3,0,4.6,0c0.1,0.3,0.2,0.5,0.2,0.8c0.6,7.7,1.1,15.4,1.8,23.1c0.4,4.8,1,9.7,1.9,14.5
		c1.4,6.5,4.9,11.5,11.1,14.4c0.1,0,0.2,0.1,0.3,0.3c-2.1,3.6-4.7,6.7-8.1,9.2c-5.5,4.1-11.8,6-18.6,6.1c-15,0.1-29.9,0.1-44.9,0
		c-5.5,0-10.7-1.2-15.3-4.5c-4.6-3.4-6.9-8.3-8-13.8c-0.9-4.4-0.9-8.8-0.7-13.3c0-0.5,0.1-1,0.1-1.6c0-56.8,0-113.6,0-170.4
		c0-12.8-0.4-25.7-0.6-38.5c-0.1-5.6-0.3-11.2-0.5-16.8C220.7,45.2,220.8,45.1,220.8,44.9z"/>
</g>
</svg>
