<?xml version="1.0" encoding="utf-8"?>
<!-- Generator: Adobe Illustrator 20.1.0, SVG Export Plug-In . SVG Version: 6.00 Build 0)  -->
<svg version="1.1" id="图层_1" xmlns="http://www.w3.org/2000/svg" xmlns:xlink="http://www.w3.org/1999/xlink" x="0px" y="0px"
	 viewBox="0 0 360 360" style="enable-background:new 0 0 360 360;" xml:space="preserve">
<style type="text/css">
	.st0{fill:#FFFFFF;}
</style>
<g>
	<path class="st0" d="M0.2,360.5c0-120.1,0-240.2,0-360.2c120.1,0,240.2,0,360.2,0c0,120.1,0,240.2,0,360.2
		C240.4,360.5,120.3,360.5,0.2,360.5z M144.1,48.4c1.2,1.4,2.3,2.8,3.4,4.2c9.8,12.5,19.2,25.2,24.9,40.3c0.7,1.8,1.9,3.5,3.2,5
		c1.8,2.1,4,2.1,6.2,0.4c0.5-0.4,0.9-0.8,1.3-1.2c2.9-3.4,5.1-7.2,6.1-11.5c1.4-5.8,0.7-11.3-3.5-15.9c-1.5-1.7-3.2-3.2-4.9-4.6
		c-6.8-5.4-14.2-9.7-21.8-13.9c-4.1-2.2-8.2-4.4-12.4-6.6C145.7,46,144.9,47.2,144.1,48.4z"/>
	<path d="M144.1,48.4c0.8-1.2,1.6-2.4,2.4-3.6c4.2,2.2,8.3,4.3,12.4,6.6c7.6,4.1,15.1,8.4,21.8,13.9c1.7,1.4,3.4,2.9,4.9,4.6
		c4.1,4.6,4.9,10.1,3.5,15.9c-1,4.4-3.2,8.1-6.1,11.5c-0.4,0.5-0.8,0.9-1.3,1.2c-2.2,1.7-4.4,1.7-6.2-0.4c-1.3-1.5-2.5-3.2-3.2-5
		c-5.7-15.1-15.1-27.8-24.9-40.3C146.4,51.2,145.3,49.8,144.1,48.4z"/>
</g>
</svg>
