<?xml version="1.0" encoding="utf-8"?>
<!-- Generator: Adobe Illustrator 20.1.0, SVG Export Plug-In . SVG Version: 6.00 Build 0)  -->
<svg version="1.1" id="图层_1" xmlns="http://www.w3.org/2000/svg" xmlns:xlink="http://www.w3.org/1999/xlink" x="0px" y="0px"
	 viewBox="0 0 360 360" style="enable-background:new 0 0 360 360;" xml:space="preserve">
<style type="text/css">
	.st0{fill:#FFFFFF;}
</style>
<g>
	<path class="st0" d="M0.2,360.5c0-120.1,0-240.2,0-360.2c120.1,0,240.2,0,360.2,0c0,120.1,0,240.2,0,360.2
		C240.4,360.5,120.3,360.5,0.2,360.5z M207.8,238c5.4,3.8,10.8,7.5,16,11.2c12.1,8.7,23.7,18,34.2,28.6c7.2,7.2,13.8,14.9,20.1,22.8
		c1.8,2.2,3.9,4.2,5.9,6.3c0.7,0.7,1.7,1.2,2.6,1.6c2.6,1.1,5,0.6,6.9-1.6c2.4-2.8,3.4-6.2,4.5-9.7c1.4-4.3,0.6-8.2-1.5-12
		c-2-3.6-4.7-6.5-7.7-9.3c-6.5-6-13.8-10.8-21.3-15.2c-16.2-9.5-33.3-17.3-50.6-24.6c-2.3-1-4.6-1.9-6.9-2.9
		C209.3,234.9,208.5,236.4,207.8,238z M144.2,233.3c-0.2,0.2-0.3,0.4-0.4,0.5c-4.1,5.4-8.7,10.4-13.5,15.1
		c-8.7,8.4-17.8,16.3-27.4,23.6c-16.4,12.3-33.8,23.2-51.3,33.8c-1.3,0.8-2.6,1.6-4,2.4c0.4,1.6,0.8,3.2,1.2,4.7
		c0.5-0.2,0.8-0.3,1.1-0.5c9.9-4.7,19.8-9.3,29.6-14.2c24.4-12.3,47.9-26.2,70.8-41.2c0.7-0.4,1.5-0.7,2.3-0.8
		c2.3-0.3,4.7-0.4,7-0.6c1.8-0.2,3.7-0.3,5.8-0.5C158.2,248.1,151.2,240.8,144.2,233.3z"/>
	<path d="M207.8,238c0.8-1.6,1.5-3.1,2.4-4.7c2.3,1,4.6,1.9,6.9,2.9c17.3,7.4,34.3,15.1,50.6,24.6c7.6,4.4,14.9,9.2,21.3,15.2
		c3,2.7,5.7,5.7,7.7,9.3c2.1,3.8,2.9,7.7,1.5,12c-1.1,3.4-2.1,6.9-4.5,9.7c-1.9,2.2-4.3,2.7-6.9,1.6c-0.9-0.4-1.9-0.9-2.6-1.6
		c-2-2-4.1-4-5.9-6.3c-6.3-8-12.9-15.6-20.1-22.8c-10.5-10.6-22.1-19.9-34.2-28.6C218.5,245.5,213.2,241.8,207.8,238z"/>
	<path d="M144.2,233.3c7,7.4,14,14.8,21.2,22.4c-2.1,0.2-3.9,0.4-5.8,0.5c-2.3,0.2-4.7,0.3-7,0.6c-0.8,0.1-1.7,0.3-2.3,0.8
		c-22.9,15-46.4,28.9-70.8,41.2c-9.8,4.9-19.7,9.5-29.6,14.2c-0.3,0.2-0.7,0.3-1.1,0.5c-0.4-1.6-0.8-3.1-1.2-4.7
		c1.3-0.8,2.6-1.6,4-2.4c17.6-10.6,34.9-21.5,51.3-33.8c9.7-7.3,18.8-15.2,27.4-23.6c4.8-4.7,9.4-9.7,13.5-15.1
		C143.9,233.7,144,233.5,144.2,233.3z"/>
</g>
</svg>
