<?xml version="1.0" encoding="utf-8"?>
<!-- Generator: Adobe Illustrator 20.1.0, SVG Export Plug-In . SVG Version: 6.00 Build 0)  -->
<svg version="1.1" id="图层_1" xmlns="http://www.w3.org/2000/svg" xmlns:xlink="http://www.w3.org/1999/xlink" x="0px" y="0px"
	 viewBox="0 0 360 360" style="enable-background:new 0 0 360 360;" xml:space="preserve">
<style type="text/css">
	.st0{fill:#FFFFFF;}
</style>
<g>
	<path class="st0" d="M0.2,360.5c0-120.1,0-240.2,0-360.2c120.1,0,240.2,0,360.2,0c0,120.1,0,240.2,0,360.2
		C240.4,360.5,120.3,360.5,0.2,360.5z M118.2,48.2c3,4.1,6,7.8,8.7,11.8c6.4,9.3,12.1,19,14.7,30.2c0.1,0.3,0.5,0.6,0.8,0.6
		c2.4,0.1,4.7,0,7.1,0c0.3,0,0.7-0.2,0.9-0.4c2.9-3.9,5.4-8,6.7-12.8c1.2-4.4,0.9-8.6-2.1-12.2c-1.2-1.5-2.7-2.9-4.2-4.1
		c-8.7-6.8-18.5-11.5-28.4-16.2c-0.3-0.1-0.8,0-1,0.2C120.3,46.2,119.2,47.3,118.2,48.2z M244.4,56.7c-8.4-5.6-16.6-11.1-24.8-16.6
		c-6.5,17.2-13.4,34.1-21.2,50.7c1.8,0,3.3,0.1,4.9,0c0.6,0,1.4-0.4,1.8-0.8c8.9-9.5,17.7-19.1,26.5-28.7c0.6-0.7,1.6-1.2,2.4-1.5
		C237.3,58.7,240.7,57.8,244.4,56.7z"/>
	<path d="M118.2,48.2c1-1,2-2,3.1-2.9c0.2-0.2,0.7-0.3,1-0.2c9.9,4.7,19.8,9.4,28.4,16.2c1.5,1.2,2.9,2.6,4.2,4.1
		c3,3.6,3.3,7.9,2.1,12.2c-1.2,4.8-3.8,8.8-6.7,12.8c-0.2,0.2-0.6,0.4-0.9,0.4c-2.4,0-4.7,0-7.1,0c-0.3,0-0.7-0.4-0.8-0.6
		c-2.6-11.2-8.3-20.9-14.7-30.2C124.2,56.1,121.2,52.3,118.2,48.2z"/>
	<path d="M244.4,56.7c-3.7,1.1-7.1,2.1-10.4,3.2c-0.9,0.3-1.8,0.8-2.4,1.5c-8.9,9.5-17.7,19.1-26.5,28.7c-0.4,0.5-1.2,0.8-1.8,0.8
		c-1.5,0.1-3.1,0-4.9,0c7.9-16.7,14.8-33.5,21.2-50.7C227.8,45.6,235.9,51,244.4,56.7z"/>
</g>
</svg>
