<?xml version="1.0" encoding="utf-8"?>
<!-- Generator: Adobe Illustrator 20.1.0, SVG Export Plug-In . SVG Version: 6.00 Build 0)  -->
<svg version="1.1" id="图层_1" xmlns="http://www.w3.org/2000/svg" xmlns:xlink="http://www.w3.org/1999/xlink" x="0px" y="0px"
	 viewBox="0 0 360 360" style="enable-background:new 0 0 360 360;" xml:space="preserve">
<style type="text/css">
	.st0{fill:#FFFFFF;}
</style>
<g>
	<path class="st0" d="M0.2,360.5c0-120.1,0-240.2,0-360.2c120.1,0,240.2,0,360.2,0c0,120.1,0,240.2,0,360.2
		C240.4,360.5,120.3,360.5,0.2,360.5z M199.6,43.7c9.4,62.8,40.9,112.4,89.4,152.2c2.9-4.9,6.7-8.7,11.7-11.1
		c4.9-2.4,10.2-3.1,15.6-3.2c0-0.7-0.1-1.3,0-1.8c0.2-1.3-0.3-1.8-1.6-2.3c-21.4-7.1-39.9-19-55.2-35.6
		c-11.6-12.5-21-26.5-29.3-41.2C222.8,87.7,217,74.2,212.8,60c-0.2-0.7-0.1-1.1,0.5-1.6c1.9-1.2,3.8-2.5,5.7-3.8
		c1.3-0.9,2.6-1.8,4.1-2.8C215.2,49.1,207.4,46.4,199.6,43.7z M57.1,200.3c0.2-0.1,0.5-0.3,0.8-0.5c26.9-17.9,49.1-40.6,67.8-66.8
		c12.4-17.4,23-35.9,32.2-55.2c0.3-0.6,0.9-1.2,1.5-1.6c3-1.7,6.1-3.4,9.1-5c0.9-0.5,1.8-1,2.9-1.6c-9.1-6-18.1-11.8-27-17.6
		c-0.8,3.8-1.5,7.3-2.5,10.8c-0.9,3.5-2,7.1-3.2,10.5c-5.7,16.1-13.3,31.4-21.8,46.2c-15.4,26.7-35.4,49.8-57.2,71.3
		c-2,2-3.8,4.2-5.7,6.3C54.7,198,55.9,199.1,57.1,200.3z"/>
	<path d="M199.6,43.7c7.9,2.7,15.6,5.5,23.6,8.3c-1.5,1-2.8,1.9-4.1,2.8c-1.9,1.3-3.8,2.6-5.7,3.8c-0.7,0.4-0.8,0.8-0.5,1.6
		c4.2,14.2,10,27.7,17.3,40.6c8.3,14.8,17.8,28.8,29.3,41.2c15.4,16.6,33.8,28.4,55.2,35.6c1.2,0.4,1.8,1,1.6,2.3
		c-0.1,0.5,0,1.1,0,1.8c-5.4,0.1-10.7,0.9-15.6,3.2c-5,2.4-8.7,6.1-11.7,11.1C240.4,156.1,209,106.5,199.6,43.7z"/>
	<path d="M57.1,200.3c-1.2-1.2-2.4-2.3-3.3-3.1c1.9-2.1,3.7-4.3,5.7-6.3c21.9-21.5,41.9-44.6,57.2-71.3
		c8.5-14.8,16.1-30.1,21.8-46.2c1.2-3.5,2.3-7,3.2-10.5c0.9-3.5,1.6-7.1,2.5-10.8c8.9,5.8,17.9,11.7,27,17.6c-1.1,0.6-2,1.1-2.9,1.6
		c-3,1.7-6.1,3.3-9.1,5c-0.6,0.3-1.2,1-1.5,1.6c-9.2,19.3-19.7,37.8-32.2,55.2c-18.7,26.2-40.9,48.9-67.8,66.8
		C57.6,200,57.4,200.2,57.1,200.3z"/>
</g>
</svg>
