<?xml version="1.0" encoding="utf-8"?>
<!-- Generator: Adobe Illustrator 20.1.0, SVG Export Plug-In . SVG Version: 6.00 Build 0)  -->
<svg version="1.1" id="图层_1" xmlns="http://www.w3.org/2000/svg" xmlns:xlink="http://www.w3.org/1999/xlink" x="0px" y="0px"
	 viewBox="0 0 360 360" style="enable-background:new 0 0 360 360;" xml:space="preserve">
<style type="text/css">
	.st0{fill:#FFFFFF;}
</style>
<g>
	<path class="st0" d="M0.2,360.5c0-120.1,0-240.2,0-360.2c120.1,0,240.2,0,360.2,0c0,120.1,0,240.2,0,360.2
		C240.4,360.5,120.3,360.5,0.2,360.5z M128.9,42.5c-19.8,51-48.5,96.2-85,136.8c0.7,0.6,1.3,1.1,1.9,1.7c0.6,0.6,1.1,1.2,1.7,1.9
		c0.6-0.5,1-0.8,1.4-1.1c11-9.2,21.4-19.2,31.1-29.7c15.2-16.5,28.8-34.3,41.1-53c0.5-0.7,1-1.1,1.9-1.1c44.3,0,88.6,0,132.8,0
		c0.5,0,0.9,0,1.3,0c0,2.8,0,5.5,0,8.1c-0.1,10.5-0.3,20.9-0.5,31.4c-0.3,11.5-0.6,23.1-1,34.6c-0.4,13-1,26-2.5,39
		c-0.4,3.6-1.2,7.1-1.9,10.6c-0.2,1.3-1.1,2.2-2.2,3c-4.1,2.9-8.7,4.4-13.7,3.8c-8-0.9-16-2-24-3c-0.8-0.1-1.6-0.2-2.5-0.4
		c0,1.2,0.1,2.3,0,3.4c-0.1,1,0.3,1.4,1.3,1.7c5.8,1.6,11.5,3.6,16.7,6.8c6.2,3.8,10.9,8.8,12.6,16c0,0.1,0.1,0.2,0.2,0.3
		c6.5-2.9,12.7-6.2,18.2-10.8c4.6-3.8,7.9-8.5,9.2-14.4c1-4.2,1.9-8.4,2.6-12.7c1.6-11.3,1.8-22.8,2.2-34.2
		c0.2-7.1,0.4-14.3,0.6-21.5c0.3-11.6,0.6-23.2,0.9-34.8c0.2-7.1,0.3-14.2,0.4-21.3c0-0.8,0.3-1.4,1-1.9c2.5-1.8,5-3.7,7.5-5.6
		c0.3-0.3,0.7-0.5,0.8-0.7c-5.5-5.5-11-11-16.7-16.7c-0.2,0.3-0.4,0.7-0.7,1c-3.3,3.3-6.6,6.6-9.9,9.9c-0.6,0.6-1.2,0.9-2.1,0.9
		c-42.3,0-84.6,0-126.8,0c-0.4,0-0.8,0-1.4-0.1c0.3-0.5,0.5-0.9,0.7-1.3c2.7-4.2,5.3-8.5,8.2-12.7c5.2-7.4,10.1-15,17.8-20.2
		C144.5,51.9,136.7,47.2,128.9,42.5z"/>
	<path d="M128.9,42.5c7.8,4.7,15.6,9.4,23.4,14c-7.8,5.2-12.7,12.9-17.8,20.2c-2.9,4.1-5.5,8.4-8.2,12.7c-0.2,0.4-0.4,0.7-0.7,1.3
		c0.5,0,1,0.1,1.4,0.1c42.3,0,84.6,0,126.8,0c0.9,0,1.5-0.2,2.1-0.9c3.3-3.3,6.6-6.6,9.9-9.9c0.3-0.3,0.5-0.7,0.7-1
		c5.7,5.7,11.1,11.1,16.7,16.7c-0.2,0.1-0.5,0.4-0.8,0.7c-2.5,1.9-5,3.8-7.5,5.6c-0.7,0.5-0.9,1.1-1,1.9c-0.1,7.1-0.2,14.2-0.4,21.3
		c-0.3,11.6-0.6,23.2-0.9,34.8c-0.2,7.2-0.3,14.3-0.6,21.5c-0.4,11.4-0.5,22.9-2.2,34.2c-0.6,4.3-1.6,8.5-2.6,12.7
		c-1.4,5.8-4.7,10.5-9.2,14.4c-5.5,4.6-11.7,7.9-18.2,10.8c-0.1-0.1-0.2-0.2-0.2-0.3c-1.8-7.3-6.5-12.2-12.6-16
		c-5.2-3.2-10.8-5.3-16.7-6.8c-1-0.3-1.4-0.7-1.3-1.7c0.1-1.1,0-2.2,0-3.4c0.9,0.1,1.7,0.3,2.5,0.4c8,1,16,2.1,24,3
		c5,0.6,9.6-0.9,13.7-3.8c1.1-0.8,1.9-1.7,2.2-3c0.7-3.5,1.5-7,1.9-10.6c1.5-13,2.1-26,2.5-39c0.4-11.5,0.7-23.1,1-34.6
		c0.2-10.5,0.3-20.9,0.5-31.4c0-2.6,0-5.3,0-8.1c-0.3,0-0.8,0-1.3,0c-44.3,0-88.6,0-132.8,0c-0.9,0-1.4,0.3-1.9,1.1
		c-12.4,18.7-25.9,36.5-41.1,53c-9.7,10.6-20.1,20.5-31.1,29.7c-0.4,0.3-0.8,0.7-1.4,1.1c-0.6-0.6-1.1-1.3-1.7-1.9
		c-0.6-0.6-1.2-1.1-1.9-1.7C80.4,138.7,109.1,93.4,128.9,42.5z"/>
</g>
</svg>
