<?xml version="1.0" encoding="utf-8"?>
<!-- Generator: Adobe Illustrator 20.1.0, SVG Export Plug-In . SVG Version: 6.00 Build 0)  -->
<svg version="1.1" id="图层_1" xmlns="http://www.w3.org/2000/svg" xmlns:xlink="http://www.w3.org/1999/xlink" x="0px" y="0px"
	 viewBox="0 0 360 360" style="enable-background:new 0 0 360 360;" xml:space="preserve">
<style type="text/css">
	.st0{fill:#FFFFFF;}
</style>
<g>
	<path class="st0" d="M0.2,360.5c0-120.1,0-240.2,0-360.2c120.1,0,240.2,0,360.2,0c0,120.1,0,240.2,0,360.2
		C240.4,360.5,120.3,360.5,0.2,360.5z M119.6,42.6c-7,27.4-17.8,53.3-29.8,78.7c-12.1,25.4-27.1,49.1-43.5,72
		c1.3,0.8,2.4,1.6,3.7,2.4c3.6-3.8,7.1-7.4,10.5-11.1c21.3-23.2,39.3-48.7,54.7-76.2c0.5-0.8,0.9-1.2,1.9-1.2c52.5,0,105,0,157.4,0
		c0.4,0,0.9,0,1.4,0c0,0.5,0.1,0.8,0.1,1.2c-0.1,16.4-0.1,32.7-0.2,49.1c-0.1,11.4-0.3,22.8-0.5,34.2c-0.1,7.4-0.2,14.9-0.6,22.3
		c-0.6,13-1.3,25.9-2.2,38.9c-0.4,5-1.3,9.9-2.4,14.8c-1.1,4.7-3.3,9-6.9,12.4c-4.8,4.6-10.8,5.9-17.1,5.2
		c-12.9-1.5-25.7-3.4-38.5-5.1c-1.9-0.3-3.8-0.6-5.8-0.9c0,1.8,0,3.4,0,5c0,0.7,0.2,1,0.9,1.2c2.8,0.8,5.6,1.6,8.4,2.5
		c8,2.7,15.9,5.9,22.9,10.8c4.1,2.9,7.7,6.2,9.8,10.8c0.9,1.9,1.3,4.1,2,6.3c3.2-1.1,6.6-2.1,9.8-3.3c15.1-5.9,25.3-16.3,30.1-31.9
		c2.8-9.3,4.2-18.8,4.7-28.4c0.6-12.8,1.1-25.6,1.4-38.3c0.3-9.6,0.4-19.3,0.5-28.9c0.1-9,0.2-17.9,0.2-26.9c0.1-15,0.1-30.1,0-45.1
		c0-1.6,0.4-2.6,1.7-3.6c2.7-2.2,5.2-4.5,7.9-6.8c-7.1-5.2-14.2-10.2-21.3-15.4c-2.6,4-5.1,7.9-7.5,11.8c-0.6,0.9-1.1,1.2-2.2,1.2
		c-50.4,0-100.9,0-151.3,0c-0.4,0-0.9,0-1.4,0c0.1-0.3,0.2-0.5,0.3-0.7c6-11.7,12-23.3,18.1-35c0.2-0.5,0.8-0.9,1.3-1.1
		c3.4-1.3,6.7-2.5,10.1-3.7c0.6-0.2,1.2-0.5,1.9-0.8C139.8,53.4,129.7,48,119.6,42.6z"/>
	<path d="M119.6,42.6c10.1,5.4,20.2,10.9,30.5,16.4c-0.7,0.3-1.3,0.5-1.9,0.8c-3.4,1.2-6.8,2.4-10.1,3.7c-0.5,0.2-1,0.6-1.3,1.1
		c-6.1,11.7-12.1,23.3-18.1,35c-0.1,0.2-0.1,0.4-0.3,0.7c0.5,0,1,0,1.4,0c50.4,0,100.9,0,151.3,0c1.1,0,1.6-0.3,2.2-1.2
		c2.4-3.9,4.9-7.8,7.5-11.8c7.1,5.1,14.1,10.2,21.3,15.4c-2.7,2.3-5.2,4.7-7.9,6.8c-1.2,1-1.7,2.1-1.7,3.6c0,15,0,30.1,0,45.1
		c0,9-0.1,17.9-0.2,26.9c-0.1,9.6-0.2,19.3-0.5,28.9c-0.4,12.8-0.9,25.6-1.4,38.3c-0.4,9.6-1.8,19.1-4.7,28.4
		c-4.8,15.6-15,26.1-30.1,31.9c-3.3,1.3-6.6,2.3-9.8,3.3c-0.7-2.3-1.1-4.4-2-6.3c-2.1-4.6-5.7-8-9.8-10.8c-7-4.9-14.9-8.1-22.9-10.8
		c-2.8-0.9-5.6-1.8-8.4-2.5c-0.7-0.2-0.9-0.5-0.9-1.2c0-1.6,0-3.2,0-5c2,0.3,3.9,0.6,5.8,0.9c12.8,1.7,25.6,3.6,38.5,5.1
		c6.3,0.8,12.3-0.6,17.1-5.2c3.6-3.4,5.8-7.7,6.9-12.4c1.1-4.9,2-9.8,2.4-14.8c0.9-12.9,1.6-25.9,2.2-38.9
		c0.3-7.4,0.4-14.9,0.6-22.3c0.2-11.4,0.4-22.8,0.5-34.2c0.1-16.4,0.2-32.7,0.2-49.1c0-0.3,0-0.7-0.1-1.2c-0.5,0-0.9,0-1.4,0
		c-52.5,0-105,0-157.4,0c-1,0-1.5,0.4-1.9,1.2c-15.4,27.4-33.4,53-54.7,76.2c-3.4,3.7-7,7.4-10.5,11.1c-1.3-0.8-2.4-1.6-3.7-2.4
		c16.4-22.9,31.4-46.6,43.5-72C101.8,95.9,112.6,70,119.6,42.6z"/>
</g>
</svg>
