<?xml version="1.0" encoding="utf-8"?>
<!-- Generator: Adobe Illustrator 20.1.0, SVG Export Plug-In . SVG Version: 6.00 Build 0)  -->
<svg version="1.1" id="图层_1" xmlns="http://www.w3.org/2000/svg" xmlns:xlink="http://www.w3.org/1999/xlink" x="0px" y="0px"
	 viewBox="0 0 360 360" style="enable-background:new 0 0 360 360;" xml:space="preserve">
<style type="text/css">
	.st0{fill:#FFFFFF;}
</style>
<g>
	<path class="st0" d="M0.2,360.5c0-120.1,0-240.2,0-360.2c120.1,0,240.2,0,360.2,0c0,120.1,0,240.2,0,360.2
		C240.4,360.5,120.3,360.5,0.2,360.5z M295,192.1c-0.1,0.5-0.1,0.9-0.1,1.3c-0.8,11.2-1.5,22.3-2.3,33.5c-0.3,4.1-0.7,8.1-2.1,12
		c-1.7,4.4-4.6,7.6-10.7,7.5c-6.8-0.2-13.7,0-20.5,0c-6.2,0-12.5,0.1-18.7-0.1c-4.8-0.1-8.9-2-11.1-6.7c-1.3-2.7-1.6-5.5-1.6-8.4
		c0-21.2,0-42.3,0-63.5c0-1.1,0.4-1.6,1.2-2.2c17.3-11.1,34.1-23,49.9-36.3c8-6.7,16.1-13.3,26.3-16c-6.9-6.9-13.9-13.9-20.9-20.9
		c-15.4,24.9-33.9,47.4-56.4,66.9c0-0.9,0-1.3,0-1.8c0-26.6,0-53.2-0.1-79.8c0-2.3,0.5-3.9,2.4-5.3c2.5-1.9,4.7-4,7.2-6.2
		c-8.7-4.4-17.3-8.6-26-13c0.2,7.1,0.5,13.9,0.6,20.7c0.2,12.5,0.5,24.9,0.5,37.4c0.1,41.6,0,83.1,0.1,124.7c0,2.4,0.2,4.9,0.7,7.3
		c1.6,8,6.2,13.3,14.2,15.1c3,0.7,6.1,1,9.1,1c16.2,0.1,32.3,0.1,48.5,0c2.8,0,5.6-0.2,8.4-0.6c9.9-1.6,17.5-6.6,22.2-15.7
		c0.2-0.4,0.4-0.9,0.7-1.4c-7.9-2.7-11.8-8.5-13.2-16.3c-1.6-9.1-2.4-18.4-3-27.6c-0.1-1.9-0.2-3.7-0.3-5.6
		C298.1,192.1,296.6,192.1,295,192.1z"/>
	<path d="M295,192.1c1.6,0,3.1,0,4.7,0c0.1,1.9,0.2,3.8,0.3,5.6c0.6,9.3,1.4,18.5,3,27.6c1.4,7.8,5.3,13.5,13.2,16.3
		c-0.2,0.5-0.5,1-0.7,1.4c-4.7,9-12.2,14.1-22.2,15.7c-2.8,0.4-5.6,0.6-8.4,0.6c-16.2,0.1-32.3,0.1-48.5,0c-3.1,0-6.2-0.3-9.1-1
		c-8-1.9-12.6-7.2-14.2-15.1c-0.5-2.4-0.7-4.8-0.7-7.3c0-41.6,0-83.1-0.1-124.7c0-12.5-0.3-24.9-0.5-37.4
		c-0.1-6.8-0.4-13.7-0.6-20.7c8.7,4.4,17.3,8.6,26,13c-2.5,2.2-4.7,4.3-7.2,6.2c-1.9,1.4-2.4,3-2.4,5.3c0.1,26.6,0.1,53.2,0.1,79.8
		c0,0.5,0,0.9,0,1.8c22.5-19.5,41-42,56.4-66.9c7,7,14,14,20.9,20.9c-10.2,2.7-18.3,9.3-26.3,16c-15.8,13.3-32.6,25.2-49.9,36.3
		c-0.9,0.6-1.2,1.1-1.2,2.2c0,21.2,0,42.3,0,63.5c0,2.9,0.4,5.7,1.6,8.4c2.2,4.7,6.2,6.5,11.1,6.7c6.2,0.2,12.5,0.1,18.7,0.1
		c6.8,0,13.7-0.1,20.5,0c6.1,0.1,9-3.1,10.7-7.5c1.5-3.9,1.8-7.9,2.1-12c0.8-11.2,1.5-22.3,2.3-33.5
		C294.9,193,294.9,192.6,295,192.1z"/>
</g>
</svg>
