<?xml version="1.0" encoding="utf-8"?>
<!-- Generator: Adobe Illustrator 20.1.0, SVG Export Plug-In . SVG Version: 6.00 Build 0)  -->
<svg version="1.1" id="图层_1" xmlns="http://www.w3.org/2000/svg" xmlns:xlink="http://www.w3.org/1999/xlink" x="0px" y="0px"
	 viewBox="0 0 360 360" style="enable-background:new 0 0 360 360;" xml:space="preserve">
<style type="text/css">
	.st0{fill:#FFFFFF;}
</style>
<g>
	<path class="st0" d="M0.2,360.5c0-120.1,0-240.2,0-360.2c120.1,0,240.2,0,360.2,0c0,120.1,0,240.2,0,360.2
		C240.4,360.5,120.3,360.5,0.2,360.5z M290.2,106.1c-19.4,23.6-43.7,41-70.6,55.3c0-0.4-0.1-0.7-0.1-0.9c0-30.8,0-61.6,0-92.4
		c0-0.5,0.3-1.1,0.7-1.4c1.1-1,2.3-1.8,3.5-2.7c2.1-1.6,4.2-3.3,6.4-5c-9.5-4.8-18.9-9.4-28.3-14.2c0,0.3-0.1,0.4-0.1,0.5
		c0.3,11.3,0.7,22.6,0.9,33.9c0.2,10.4,0.3,20.7,0.3,31.1c0,56,0,112,0,168c0,2,0.2,4,0.5,6c1.4,7.8,5.7,13.2,13.4,15.7
		c3.4,1.1,7,1.7,10.6,1.7c18.7,0,37.4,0,56,0c4,0,7.9-0.5,11.7-1.5c7.1-1.9,13.5-4.8,18.6-10.3c1.9-2.1,3.5-4.4,4.6-7
		c-0.2-0.1-0.2-0.2-0.3-0.2c-0.3-0.2-0.6-0.3-0.8-0.5c-6.1-3.4-10.2-8.4-11.6-15.2c-1-4.9-1.7-9.9-2.1-14.8
		c-0.7-9.3-1.1-18.6-1.6-27.9c0-0.5-0.1-1-0.1-1.5c-2,0-3.9,0-5.8,0c0,0.4-0.1,0.7-0.1,1.1c-0.2,3.9-0.4,7.8-0.7,11.7
		c-0.7,9.6-1.4,19.1-2.1,28.7c-0.3,4.4-0.9,8.7-2.6,12.7c-2.6,6.4-7.1,9.3-13.9,9.3c-14,0-27.9,0-41.9,0c-1.3,0-2.6-0.1-3.8-0.3
		c-3.6-0.5-6.7-1.9-8.8-5c-1.9-2.8-2.6-6-2.6-9.3c0-34,0-67.9,0-101.9c0-1,0.3-1.4,1.2-1.9c15.1-7.2,30.3-14.4,45.3-21.8
		c14.4-7,28.4-14.8,44.2-19C303.6,120.2,296.9,113.2,290.2,106.1z"/>
	<path d="M290.2,106.1c6.7,7.1,13.3,14.1,20,21.2c-15.8,4.1-29.8,11.9-44.2,19c-15.1,7.4-30.2,14.6-45.3,21.8
		c-0.9,0.4-1.2,0.9-1.2,1.9c0,34,0,67.9,0,101.9c0,3.3,0.6,6.5,2.6,9.3c2.1,3.1,5.3,4.4,8.8,5c1.3,0.2,2.5,0.3,3.8,0.3
		c14,0,27.9,0,41.9,0c6.9,0,11.3-2.9,13.9-9.3c1.7-4.1,2.3-8.4,2.6-12.7c0.7-9.6,1.4-19.1,2.1-28.7c0.3-3.9,0.4-7.8,0.7-11.7
		c0-0.4,0.1-0.7,0.1-1.1c1.9,0,3.8,0,5.8,0c0,0.5,0.1,1,0.1,1.5c0.5,9.3,0.9,18.6,1.6,27.9c0.4,5,1.1,9.9,2.1,14.8
		c1.4,6.9,5.5,11.8,11.6,15.2c0.3,0.2,0.6,0.3,0.8,0.5c0.1,0,0.1,0.1,0.3,0.2c-1.1,2.6-2.7,4.9-4.6,7c-5.1,5.5-11.5,8.4-18.6,10.3
		c-3.8,1-7.7,1.5-11.7,1.5c-18.7-0.1-37.4,0-56,0c-3.6,0-7.2-0.5-10.6-1.7c-7.6-2.5-12-7.9-13.4-15.7c-0.3-2-0.5-4-0.5-6
		c0-56,0-112,0-168c0-10.4-0.1-20.7-0.3-31.1c-0.2-11.3-0.6-22.6-0.9-33.9c0-0.1,0-0.2,0.1-0.5c9.4,4.7,18.8,9.4,28.3,14.2
		c-2.2,1.7-4.3,3.4-6.4,5c-1.2,0.9-2.4,1.8-3.5,2.7c-0.4,0.3-0.7,0.9-0.7,1.4c0,30.8,0,61.6,0,92.4c0,0.2,0,0.5,0.1,0.9
		C246.6,147.1,270.8,129.7,290.2,106.1z"/>
</g>
</svg>
