<?xml version="1.0" encoding="utf-8"?>
<!-- Generator: Adobe Illustrator 20.1.0, SVG Export Plug-In . SVG Version: 6.00 Build 0)  -->
<svg version="1.1" id="图层_1" xmlns="http://www.w3.org/2000/svg" xmlns:xlink="http://www.w3.org/1999/xlink" x="0px" y="0px"
	 viewBox="0 0 360 360" style="enable-background:new 0 0 360 360;" xml:space="preserve">
<style type="text/css">
	.st0{fill:#FFFFFF;}
</style>
<g>
	<path class="st0" d="M0.2,360.5c0-120.1,0-240.2,0-360.2c120.1,0,240.2,0,360.2,0c0,120.1,0,240.2,0,360.2
		C240.4,360.5,120.3,360.5,0.2,360.5z M44,210.9c2.8,0.6,5.6,1.1,8.3,1.8c4.4,1.1,8.6,2.7,12.1,5.7c2.8,2.5,4.3,5.6,4.3,9.4
		c-0.1,10.4-1.8,20.5-4,30.6c-1.2,5.5-2.2,11-1.8,16.6c0.2,3.4,1.1,6.5,3.4,9.1c3.2,3.6,7.3,5.3,12,5.3c4.5,0,6.9-1.6,7.9-6.1
		c0.6-2.6,0.8-5.3,0.7-8c-0.4-5.9-1.1-11.9-1.7-17.8c-1.1-11-1.3-21.9-0.7-32.9c0.2-4.2,0.4-8.5,1.5-12.4c2.4-8.5,5.3-16.9,8.3-25.2
		c12.2-33.6,24.4-67.2,36.7-100.8c0.9-2.4,1.7-4.7,2.6-7.1c-2-0.8-3.9-1.6-5.9-2.4c-0.2,0.5-0.4,0.8-0.5,1.2
		c-11.5,27.7-22.9,55.4-34.6,83c-4.5,10.7-9.7,21.2-14.5,31.8c-1.6,3.5-4,6.5-7.1,8.9c-2.8,2.2-6,3.5-9.7,3.4c-5.3-0.1-10.6,0-16,0
		c-0.4,0-0.8,0-1.3,0.1C44,207.1,44,209,44,210.9z M59.5,57.8c2.7,5,5.5,9.9,8,14.9c4.3,8.5,7.6,17.4,9.4,26.8
		c0.8,3.9,1.4,7.8,2.3,11.6c0.5,1.9,1.5,3.8,2.6,5.5c1.4,2.2,3.5,2.5,5.8,1.3c0.5-0.3,1-0.6,1.4-0.9c7.2-5.3,10.7-16.7,7.7-25.1
		c-1.5-4.3-4-7.9-6.8-11.4c-5.6-7.1-12.2-13.3-19-19.3c-2.7-2.4-5.4-4.6-8-6.9C61.7,55.5,60.6,56.7,59.5,57.8z"/>
	<path d="M44,210.9c0-1.9,0-3.8,0-5.8c0.4,0,0.9-0.1,1.3-0.1c5.3,0,10.6-0.1,16,0c3.7,0.1,6.9-1.2,9.7-3.4c3.1-2.4,5.5-5.4,7.1-8.9
		c4.9-10.6,10-21.1,14.5-31.8c11.7-27.6,23.1-55.3,34.6-83c0.1-0.4,0.3-0.7,0.5-1.2c2,0.8,3.9,1.6,5.9,2.4c-0.9,2.4-1.8,4.8-2.6,7.1
		c-12.2,33.6-24.5,67.2-36.7,100.8c-3,8.3-5.9,16.7-8.3,25.2c-1.1,4-1.3,8.3-1.5,12.4c-0.6,11-0.4,22,0.7,32.9
		c0.6,5.9,1.3,11.8,1.7,17.8c0.2,2.6-0.1,5.4-0.7,8c-1,4.5-3.3,6.1-7.9,6.1c-4.8,0-8.8-1.7-12-5.3c-2.4-2.6-3.2-5.8-3.4-9.1
		c-0.4-5.6,0.6-11.1,1.8-16.6c2.2-10.1,4-20.2,4-30.6c0-3.8-1.4-6.9-4.3-9.4c-3.5-3-7.7-4.6-12.1-5.7C49.6,212,46.8,211.5,44,210.9z
		"/>
	<path d="M59.5,57.8c1.1-1.1,2.3-2.2,3.5-3.5c2.6,2.3,5.4,4.5,8,6.9c6.8,6,13.3,12.2,19,19.3c2.8,3.5,5.3,7.1,6.8,11.4
		c2.9,8.4-0.6,19.8-7.7,25.1c-0.4,0.3-0.9,0.6-1.4,0.9c-2.3,1.2-4.4,0.9-5.8-1.3c-1.1-1.7-2.1-3.6-2.6-5.5c-1-3.8-1.6-7.7-2.3-11.6
		c-1.8-9.4-5.1-18.3-9.4-26.8C65,67.7,62.2,62.8,59.5,57.8z"/>
</g>
</svg>
