<?xml version="1.0" encoding="utf-8"?>
<!-- Generator: Adobe Illustrator 20.1.0, SVG Export Plug-In . SVG Version: 6.00 Build 0)  -->
<svg version="1.1" id="图层_1" xmlns="http://www.w3.org/2000/svg" xmlns:xlink="http://www.w3.org/1999/xlink" x="0px" y="0px"
	 viewBox="0 0 360 360" style="enable-background:new 0 0 360 360;" xml:space="preserve">
<style type="text/css">
	.st0{fill:#FFFFFF;}
</style>
<g>
	<path class="st0" d="M0.2,360.5c0-120.1,0-240.2,0-360.2c120.1,0,240.2,0,360.2,0c0,120.1,0,240.2,0,360.2
		C240.4,360.5,120.3,360.5,0.2,360.5z M187.7,161.6c0.5,0.2,0.7,0.3,1,0.4c13.2,6.7,26.1,13.8,38.3,22.3
		c8.2,5.7,15.9,11.8,22.6,19.3c3.3,3.7,6.4,7.5,9.8,11.1c2.4,2.6,5.1,4.9,8.4,6.3c3.5,1.5,5.7,0.7,7.8-2.4
		c5.2-7.7,3.2-19.6-1.4-25.4c-3.4-4.2-7.7-7.4-12.3-10.2c-7.4-4.5-15.4-7.8-23.4-11c-16.1-6.3-32.6-11.3-49.2-15.9
		c-1.1-0.3-1.5-0.7-1.5-1.9c0.1-10.8,0-21.6,0-32.4c0-0.5,0-0.9,0-1.5c-5.7,0-11.2,0-16.7,0c-0.3,0-0.5,0-0.9,0.1
		c-0.2,64.8,0.5,129.5-1.3,194.4c6.4-3.8,12.5-7.4,18.7-10.9c1.1-0.6,1.5-1.3,1.4-2.6c-0.4-13.6-1.1-27.2-1.1-40.9
		c-0.2-32.4-0.1-64.7-0.1-97.1C187.7,162.8,187.7,162.3,187.7,161.6z"/>
	<path d="M187.7,161.6c0,0.7,0,1.1,0,1.6c0,32.4-0.1,64.7,0.1,97.1c0.1,13.6,0.7,27.2,1.1,40.9c0,1.3-0.3,2-1.4,2.6
		c-6.2,3.5-12.3,7.2-18.7,10.9c1.8-64.9,1.1-129.7,1.3-194.4c0.4,0,0.7-0.1,0.9-0.1c5.5,0,11,0,16.7,0c0,0.5,0,1,0,1.5
		c0,10.8,0,21.6,0,32.4c0,1.2,0.4,1.6,1.5,1.9c16.6,4.5,33.1,9.6,49.2,15.9c8,3.1,16,6.4,23.4,11c4.6,2.8,8.9,6,12.3,10.2
		c4.7,5.8,6.6,17.7,1.4,25.4c-2.1,3.1-4.3,3.9-7.8,2.4c-3.3-1.4-6-3.7-8.4-6.3c-3.4-3.6-6.5-7.4-9.8-11.1
		c-6.6-7.4-14.4-13.6-22.6-19.3c-12.2-8.4-25.1-15.6-38.3-22.3C188.4,161.9,188.2,161.8,187.7,161.6z"/>
</g>
</svg>
