<?xml version="1.0" encoding="utf-8"?>
<!-- Generator: Adobe Illustrator 20.1.0, SVG Export Plug-In . SVG Version: 6.00 Build 0)  -->
<svg version="1.1" id="图层_1" xmlns="http://www.w3.org/2000/svg" xmlns:xlink="http://www.w3.org/1999/xlink" x="0px" y="0px"
	 viewBox="0 0 360 360" style="enable-background:new 0 0 360 360;" xml:space="preserve">
<style type="text/css">
	.st0{fill:#FFFFFF;}
</style>
<g>
	<path class="st0" d="M0.2,360.5c0-120.1,0-240.2,0-360.2c120.1,0,240.2,0,360.2,0c0,120.1,0,240.2,0,360.2
		C240.4,360.5,120.3,360.5,0.2,360.5z M286.6,94.2c-0.3,0.4-0.6,0.8-0.9,1.1c-5.3,5.3-10.6,10.6-15.9,15.8c-0.4,0.4-1.2,0.8-1.8,0.8
		c-27.5,0-55,0-82.4,0c-0.4,0-0.8,0-1.3-0.1c0-0.4-0.1-0.7-0.1-1c0-15.4,0-30.8,0-46.2c0-0.5,0.4-1.2,0.8-1.6c3.3-2.7,6.6-5.3,9.9-8
		c0.3-0.3,0.6-0.5,1.1-0.9c-9.9-4.4-19.6-8.6-29.4-12.9c2.1,48.4,0.5,96.6,1.2,144.8c5.4,0,10.8,0,16.4,0c0-0.6,0-1.1,0-1.6
		c0-21.3,0-42.6,0-63.8c0-1.6,0-1.6,1.6-1.6c40.5,0,81,0,121.5,0c0.5,0,1,0,1.8,0C301.5,110.7,294.1,102.5,286.6,94.2z"/>
	<path d="M286.6,94.2c7.5,8.3,14.9,16.5,22.6,24.9c-0.8,0-1.3,0-1.8,0c-40.5,0-81,0-121.5,0c-1.6,0-1.6,0-1.6,1.6
		c0,21.3,0,42.6,0,63.8c0,0.5,0,1,0,1.6c-5.5,0-10.9,0-16.4,0c-0.7-48.2,0.9-96.4-1.2-144.8c9.7,4.3,19.5,8.6,29.4,12.9
		c-0.4,0.4-0.8,0.7-1.1,0.9c-3.3,2.6-6.6,5.3-9.9,8c-0.4,0.3-0.8,1-0.8,1.6c0,15.4,0,30.8,0,46.2c0,0.3,0,0.6,0.1,1
		c0.4,0,0.8,0.1,1.3,0.1c27.5,0,55,0,82.4,0c0.6,0,1.4-0.4,1.8-0.8c5.3-5.3,10.6-10.6,15.9-15.8C286,95,286.2,94.6,286.6,94.2z"/>
</g>
</svg>
