<?xml version="1.0" encoding="utf-8"?>
<!-- Generator: Adobe Illustrator 20.1.0, SVG Export Plug-In . SVG Version: 6.00 Build 0)  -->
<svg version="1.1" id="图层_1" xmlns="http://www.w3.org/2000/svg" xmlns:xlink="http://www.w3.org/1999/xlink" x="0px" y="0px"
	 viewBox="0 0 360 360" style="enable-background:new 0 0 360 360;" xml:space="preserve">
<style type="text/css">
	.st0{fill:#FFFFFF;}
</style>
<g>
	<path class="st0" d="M0.2,360.5c0-120.1,0-240.2,0-360.2c120.1,0,240.2,0,360.2,0c0,120.1,0,240.2,0,360.2
		C240.4,360.5,120.3,360.5,0.2,360.5z M231.3,42.5c0,1,0.1,1.9,0.1,2.7c0.3,8.5,1,17.1,1,25.6c-0.2,73.5,0.7,146.9-0.5,220.4
		c-0.1,6.3-0.3,12.6-0.5,18.9c0,1.8,0,3.7,0,5.6c0.5-0.3,0.9-0.5,1.3-0.7c4.9-2.6,9.8-5.3,14.8-7.9c1.1-0.6,1.5-1.2,1.5-2.4
		c0-51.4,0-102.9,0-154.3c0-0.5,0-1.1,0-1.8c0.5,0.3,0.7,0.4,0.9,0.6c10,6.9,19.7,14.1,28.8,22.2c7.9,7,15.1,14.5,20.6,23.5
		c1.2,1.9,2.7,3.7,4.3,5.3c3.5,3.6,6.7,3,8.4-1.6c1.1-3,1.9-6.1,2.3-9.3c1.1-8.9-1.7-16.2-9.3-21.4c-5.2-3.5-10.8-6.3-16.5-9
		c-12.5-5.9-25.4-10.9-38.3-15.9c-0.9-0.3-1.2-0.8-1.2-1.7c0-25.8,0-51.7,0-77.5c0-0.9,0.2-1.4,1-1.9c2.9-1.9,5.8-3.8,8.7-5.8
		c0.3-0.2,0.5-0.4,0.9-0.7C250.1,51.1,240.8,46.8,231.3,42.5z"/>
	<path d="M231.3,42.5c9.5,4.3,18.8,8.6,28.3,12.9c-0.4,0.3-0.6,0.5-0.9,0.7c-2.9,1.9-5.8,3.9-8.7,5.8c-0.8,0.5-1,1.1-1,1.9
		c0,25.8,0,51.7,0,77.5c0,1,0.3,1.4,1.2,1.7c12.9,4.9,25.7,10,38.3,15.9c5.7,2.7,11.3,5.4,16.5,9c7.6,5.2,10.4,12.5,9.3,21.4
		c-0.4,3.1-1.2,6.3-2.3,9.3c-1.7,4.7-4.9,5.2-8.4,1.6c-1.6-1.6-3.1-3.4-4.3-5.3c-5.5-9.1-12.8-16.6-20.6-23.5
		c-9.1-8.1-18.8-15.3-28.8-22.2c-0.2-0.2-0.5-0.3-0.9-0.6c0,0.8,0,1.3,0,1.8c0,51.4,0,102.9,0,154.3c0,1.3-0.4,1.9-1.5,2.4
		c-5,2.6-9.9,5.2-14.8,7.9c-0.4,0.2-0.8,0.4-1.3,0.7c0-2,0-3.8,0-5.6c0.1-6.3,0.4-12.6,0.5-18.9c1.2-73.5,0.3-146.9,0.5-220.4
		c0-8.5-0.6-17.1-1-25.6C231.4,44.3,231.4,43.5,231.3,42.5z"/>
</g>
</svg>
