<?xml version="1.0" encoding="utf-8"?>
<!-- Generator: Adobe Illustrator 20.1.0, SVG Export Plug-In . SVG Version: 6.00 Build 0)  -->
<svg version="1.1" id="图层_1" xmlns="http://www.w3.org/2000/svg" xmlns:xlink="http://www.w3.org/1999/xlink" x="0px" y="0px"
	 viewBox="0 0 360 360" style="enable-background:new 0 0 360 360;" xml:space="preserve">
<style type="text/css">
	.st0{fill:#FFFFFF;}
</style>
<g>
	<path class="st0" d="M0.2,360.5c0-120.1,0-240.2,0-360.2c120.1,0,240.2,0,360.2,0c0,120.1,0,240.2,0,360.2
		C240.4,360.5,120.3,360.5,0.2,360.5z M103,73.1c68.7,0,137.3,0,205.8,0c-8.6-8.6-17.1-17.1-25.9-25.9c-0.2,0.2-0.4,0.6-0.7,0.9
		c-5.7,5.7-11.4,11.4-17.1,17c-0.4,0.4-1.2,0.8-1.8,0.8c-53.1,0-106.2,0-159.2,0c-0.7,0-1.4-0.3-2-0.6C96.8,62,91.6,58.5,86.5,55
		c-0.4-0.2-0.7-0.4-1.2-0.8c0,0.4,0,0.6,0,0.8c0.1,5.6,0.3,11.3,0.4,16.9c0.1,9.5,0.3,19,0.3,28.5c-0.1,22.6-0.2,45.2-0.5,67.8
		c-0.2,13.7-1.3,27.3-2.8,40.9c-1.5,13.2-3.7,26.2-7,39c-4.3,16.3-9.9,32-18,46.9c-2.7,5-5.8,9.9-8.8,15c1,0.7,2.2,1.5,3.4,2.3
		c0.3-0.3,0.6-0.6,0.9-0.8c3.2-3.6,6.7-7.1,9.7-10.9c16.5-20.6,27.1-44.1,32.9-69.8c2.5-10.9,4.2-22,5-33.2
		c0.9-11.8,1.6-23.5,2.1-35.3c0.3-7.7,0.1-15.4,0.1-23.2c0-21.5,0-43,0-64.4C103,74.2,103,73.8,103,73.1z"/>
	<path d="M103,73.1c0,0.6,0,1.1,0,1.5c0,21.5,0,43,0,64.4c0,7.7,0.2,15.4-0.1,23.2c-0.5,11.8-1.2,23.5-2.1,35.3
		c-0.8,11.2-2.6,22.2-5,33.2c-5.8,25.7-16.4,49.2-32.9,69.8c-3,3.8-6.4,7.3-9.7,10.9c-0.3,0.3-0.6,0.5-0.9,0.8
		c-1.2-0.8-2.3-1.6-3.4-2.3c3-5.1,6-9.9,8.8-15c8-14.8,13.7-30.6,18-46.9c3.3-12.8,5.5-25.9,7-39c1.6-13.6,2.7-27.2,2.8-40.9
		c0.3-22.6,0.4-45.2,0.5-67.8c0-9.5-0.1-19-0.3-28.5c-0.1-5.6-0.3-11.3-0.4-16.9c0-0.2,0-0.4,0-0.8c0.5,0.3,0.9,0.5,1.2,0.8
		c5.2,3.5,10.4,6.9,15.6,10.4c0.6,0.4,1.3,0.6,2,0.6c53.1,0,106.2,0,159.2,0c0.6,0,1.4-0.4,1.8-0.8c5.7-5.7,11.4-11.3,17.1-17
		c0.3-0.3,0.5-0.7,0.7-0.9c8.7,8.7,17.3,17.3,25.9,25.9C240.3,73.1,171.7,73.1,103,73.1z"/>
</g>
</svg>
