<?xml version="1.0" encoding="utf-8"?>
<!-- Generator: Adobe Illustrator 20.1.0, SVG Export Plug-In . SVG Version: 6.00 Build 0)  -->
<svg version="1.1" id="图层_1" xmlns="http://www.w3.org/2000/svg" xmlns:xlink="http://www.w3.org/1999/xlink" x="0px" y="0px"
	 viewBox="0 0 360 360" style="enable-background:new 0 0 360 360;" xml:space="preserve">
<style type="text/css">
	.st0{fill:#FFFFFF;}
</style>
<g>
	<path class="st0" d="M0.2,360.5c0-120.1,0-240.2,0-360.2c120.1,0,240.2,0,360.2,0c0,120.1,0,240.2,0,360.2
		C240.4,360.5,120.3,360.5,0.2,360.5z M134.7,311.2c3.3-2.3,6.6-4.4,9.8-6.6c14-9.8,26.6-21.1,37.1-34.7
		c13.1-16.8,22.2-35.8,28.8-56c5.5-16.9,8.3-34.3,10.3-51.9c1.2-10.7,2.2-21.4,2.9-32.1c0.8-12.1,1.2-24.3,1.7-36.4
		c0-1.1,0.2-1.6,1.5-1.6c20.6,0,41.3,0,61.9,0c0.4,0,0.8,0,1.3,0.1c0,0.7,0,1.3,0,1.9c-0.2,3.4-0.4,6.9-0.6,10.3
		c-0.7,11-1.3,22-2,33c-0.7,11.6-1.5,23.2-2.3,34.8c-0.8,11.7-1.6,23.4-2.5,35.2c-0.9,11.9-1.9,23.8-3.1,35.7
		c-0.9,9.5-2.2,19.1-3.4,28.6c-0.4,3.2-0.9,6.4-3.4,8.9c-3.2,3.2-6.3,5.9-11.3,5.4c-11.6-1.2-23.1-2.3-34.7-3.5
		c-2-0.2-4-0.4-6.2-0.7c0,1.7,0,3.3,0,4.8c0,0.8,0.2,1.1,1,1.4c4.7,1.5,9.4,2.9,13.9,4.7c6.8,2.7,13,6.4,18.1,11.8
		c2.5,2.7,4.4,5.7,5.8,9c0.2,0,0.3,0,0.3,0c8.6-2.6,16.3-6.6,22.4-13.2c3.7-4,6.9-8.3,8-13.7c0.9-4,1.9-7.9,2.4-12
		c1.6-11.7,3.1-23.5,4.3-35.2c1.4-14.4,2.6-28.8,3.6-43.2c1.1-15,2.1-30,3-45c1.1-17.8,2.1-35.7,3.1-53.5c0-0.5,0.3-1.1,0.7-1.4
		c2.3-1.8,4.6-3.6,6.9-5.4c1-0.8,2-1.6,3-2.4c-6-5.2-11.8-10.2-17.8-15.4c-0.3,0.3-0.5,0.6-0.7,0.8c-3,3.3-6,6.6-9,10
		c-0.7,0.8-1.4,1.1-2.5,1.1c-39.8,0-79.5,0-119.3,0c-0.5,0-1,0-1.8,0c3.2,3.2,6.2,6.2,9.1,9.1c0.3,0.2,0.8,0.3,1.2,0.3
		c1.7-0.2,3.4-0.5,5.1-0.8c3.3-0.5,6.5-1.2,9.8-1.4c5.3-0.2,10.7-0.1,16.1-0.1c0.3,0,0.7,0.1,0.8,0.1c0,3.2,0.1,6.3,0,9.4
		c-0.5,10.5-0.8,21.1-1.6,31.6c-1,13.2-2.4,26.4-3.7,39.6c-1.2,11.8-3.3,23.4-6.2,34.9c-4.1,15.8-9.9,31-18.2,45.2
		c-10.5,18-24.1,33.5-39.1,47.9c-2.4,2.3-4.9,4.6-7.4,6.9C133.1,308.8,133.9,310,134.7,311.2z"/>
	<path d="M134.7,311.2c-0.9-1.3-1.6-2.4-2.4-3.6c2.5-2.3,5-4.6,7.4-6.9c15-14.3,28.6-29.8,39.1-47.9c8.3-14.2,14.1-29.3,18.2-45.2
		c3-11.5,5-23.1,6.2-34.9c1.4-13.2,2.7-26.4,3.7-39.6c0.8-10.5,1.1-21.1,1.6-31.6c0.1-3.1,0-6.2,0-9.4c-0.1,0-0.5-0.1-0.8-0.1
		c-5.4,0-10.7-0.2-16.1,0.1c-3.3,0.1-6.6,0.9-9.8,1.4c-1.7,0.3-3.4,0.6-5.1,0.8c-0.4,0-0.9,0-1.2-0.3c-3-2.9-5.9-5.8-9.1-9.1
		c0.8,0,1.3,0,1.8,0c39.8,0,79.5,0,119.3,0c1,0,1.8-0.3,2.5-1.1c3-3.4,6-6.7,9-10c0.2-0.2,0.4-0.5,0.7-0.8
		c5.9,5.1,11.8,10.2,17.8,15.4c-1.1,0.8-2,1.6-3,2.4c-2.3,1.8-4.6,3.6-6.9,5.4c-0.4,0.3-0.7,0.9-0.7,1.4c-1.1,17.8-2,35.7-3.1,53.5
		c-0.9,15-1.9,30-3,45c-1.1,14.4-2.2,28.9-3.6,43.2c-1.2,11.8-2.7,23.5-4.3,35.2c-0.5,4-1.5,8-2.4,12c-1.2,5.4-4.4,9.7-8,13.7
		c-6.2,6.6-13.9,10.7-22.4,13.2c-0.1,0-0.2,0-0.3,0c-1.4-3.3-3.3-6.3-5.8-9c-5.1-5.4-11.3-9.1-18.1-11.8c-4.6-1.8-9.3-3.2-13.9-4.7
		c-0.8-0.3-1.1-0.6-1-1.4c0.1-1.5,0-3.1,0-4.8c2.1,0.2,4.1,0.5,6.2,0.7c11.6,1.2,23.1,2.3,34.7,3.5c5,0.5,8.1-2.2,11.3-5.4
		c2.5-2.5,2.9-5.7,3.4-8.9c1.2-9.5,2.5-19,3.4-28.6c1.2-11.9,2.1-23.8,3.1-35.7c0.9-11.7,1.7-23.4,2.5-35.2
		c0.8-11.6,1.6-23.2,2.3-34.8c0.7-11,1.3-22,2-33c0.2-3.4,0.4-6.9,0.6-10.3c0-0.6,0-1.2,0-1.9c-0.4,0-0.9-0.1-1.3-0.1
		c-20.6,0-41.3,0-61.9,0c-1.3,0-1.5,0.5-1.5,1.6c-0.5,12.1-0.9,24.3-1.7,36.4c-0.7,10.7-1.7,21.4-2.9,32.1c-2,17.6-4.8,35-10.3,51.9
		c-6.6,20.2-15.7,39.1-28.8,56c-10.5,13.5-23.1,24.8-37.1,34.7C141.4,306.8,138.1,309,134.7,311.2z"/>
</g>
</svg>
