<?xml version="1.0" encoding="utf-8"?>
<!-- Generator: Adobe Illustrator 20.1.0, SVG Export Plug-In . SVG Version: 6.00 Build 0)  -->
<svg version="1.1" id="图层_1" xmlns="http://www.w3.org/2000/svg" xmlns:xlink="http://www.w3.org/1999/xlink" x="0px" y="0px"
	 viewBox="0 0 360 360" style="enable-background:new 0 0 360 360;" xml:space="preserve">
<style type="text/css">
	.st0{fill:#FFFFFF;}
</style>
<g>
	<path class="st0" d="M0.2,360.5c0-120.1,0-240.2,0-360.2c120.1,0,240.2,0,360.2,0c0,120.1,0,240.2,0,360.2
		C240.4,360.5,120.3,360.5,0.2,360.5z M185.4,135.6c2.1,0,4,0,5.8,0c0.9,0,1.5-0.3,2-1.1c6.6-10.5,13.6-20.8,22-30
		c6.5-7,13.4-13.6,23.2-16.1c-7.5-6.7-14.9-13.3-22.3-20c-0.3,0.4-0.6,0.7-0.9,1.1c-3,4-6.1,8-9,12.1c-0.5,0.7-1.1,1-2,1
		c-21,0-42.1,0-63.1,0c-0.4,0-0.8,0-1.4,0c0.1-0.3,0.2-0.5,0.3-0.6c5.2-7.8,10.4-15.7,15.7-23.5c0.3-0.4,0.8-0.7,1.2-0.8
		c2.8-1,5.7-1.9,8.5-2.9c0.3-0.1,0.7-0.2,1.2-0.4c-8.8-5.6-17.3-11-25.8-16.4C121.3,86.6,92.7,128.9,53.2,164
		c0.9,0.8,1.8,1.4,2.5,2.3c0.9,1.1,1.6,1,2.7,0.3c11.8-7.4,23-15.9,33.4-25.2c4.8-4.3,9.6-8.5,13.8-13.3
		c10.6-11.9,20.2-24.5,29.5-37.3c0.6-0.8,1.1-1.1,2.1-1.1c22.6,0,45.2,0,67.8,0c0.4,0,0.8,0,1.5,0
		C199.5,105,192.5,120.2,185.4,135.6z"/>
	<path d="M185.4,135.6c7.1-15.4,14.1-30.6,21.2-46c-0.6,0-1.1,0-1.5,0c-22.6,0-45.2,0-67.8,0c-1,0-1.6,0.3-2.1,1.1
		c-9.3,12.9-19,25.5-29.5,37.3c-4.2,4.8-9.1,9-13.8,13.3c-10.4,9.3-21.5,17.8-33.4,25.2c-1.1,0.7-1.8,0.8-2.7-0.3
		c-0.7-0.8-1.7-1.5-2.5-2.3c39.5-35.2,68.1-77.4,87.5-126.2c8.5,5.4,17,10.8,25.8,16.4c-0.6,0.2-0.9,0.3-1.2,0.4
		c-2.8,1-5.7,1.9-8.5,2.9c-0.5,0.2-1,0.4-1.2,0.8c-5.3,7.8-10.5,15.7-15.7,23.5c-0.1,0.1-0.1,0.3-0.3,0.6c0.5,0,1,0,1.4,0
		c21,0,42.1,0,63.1,0c0.9,0,1.4-0.2,2-1c3-4.1,6-8.1,9-12.1c0.3-0.3,0.5-0.7,0.9-1.1c7.5,6.7,14.9,13.3,22.3,20
		c-9.8,2.6-16.7,9.1-23.2,16.1c-8.5,9.2-15.4,19.5-22,30c-0.5,0.8-1.1,1.1-2,1.1C189.3,135.6,187.5,135.6,185.4,135.6z"/>
</g>
</svg>
