<?xml version="1.0" encoding="utf-8"?>
<!-- Generator: Adobe Illustrator 20.1.0, SVG Export Plug-In . SVG Version: 6.00 Build 0)  -->
<svg version="1.1" id="图层_1" xmlns="http://www.w3.org/2000/svg" xmlns:xlink="http://www.w3.org/1999/xlink" x="0px" y="0px"
	 viewBox="0 0 360 360" style="enable-background:new 0 0 360 360;" xml:space="preserve">
<style type="text/css">
	.st0{fill:#FFFFFF;}
</style>
<g>
	<path class="st0" d="M0.2,360.5c0-120.1,0-240.2,0-360.2c120.1,0,240.2,0,360.2,0c0,120.1,0,240.2,0,360.2
		C240.4,360.5,120.3,360.5,0.2,360.5z M274.9,221.5c-2.8,3.2-5.6,6.3-8.4,9.5c-0.7,0.8-1.4,1.2-2.5,1.2c-63.7,0-127.4,0-191.1,0
		c-0.5,0-1,0-1.8,0c0.4,0.5,0.7,0.8,1,1c2.9,2.9,5.9,5.9,8.8,8.8c0.6,0.6,1.1,0.8,2,0.5c8.3-2.2,16.7-3.2,25.3-3.2
		c17-0.1,34.1,0,51.1,0c0.4,0,0.9,0,1.5,0c-0.6,1.9-1,3.6-1.6,5.3c-3.8,11.2-10.6,20.4-19.1,28.3c-10.2,9.6-22,16.6-34.8,22.1
		c-17,7.3-34.7,12-52.7,15.8c-2.4,0.5-4.8,1-7.3,1.5c0.4,1.7,0.8,3.2,1.2,4.7c0.3,0,0.4,0,0.5,0c12.2-1.6,24.3-3.5,36.4-6.2
		c15.4-3.4,30.5-7.9,45-14.4c10.8-4.9,20.7-11.1,29.2-19.5c10.5-10.3,17.9-22.7,22.9-36.4c0.3-0.9,0.8-1.3,1.8-1.3
		c28.2,0,56.3,0,84.5,0c0.4,0,0.8,0,1.4,0c-0.4,3-0.8,5.9-1.2,8.8c-1.3,9.3-2.8,18.6-5.3,27.6c-1.3,5-2.9,9.9-5.7,14.3
		c-1.8,2.9-4.4,4.4-7.7,4.9c-5.1,0.8-10,0.2-15-0.6c-8.3-1.4-16.4-3.7-24.4-6.2c-0.7-0.2-1.3-0.4-2-0.6c-0.4,1.8-0.8,3.5-1,5.2
		c-0.1,0.3,0.3,0.9,0.6,1c2.1,1,4.2,1.9,6.3,2.9c5.2,2.5,10.4,5,15.1,8.6c3.5,2.7,6.2,6.1,7.1,10.6c0.1,0.7,0.2,1.5,0.3,2.2
		c0.2,0,0.3,0,0.4,0c7.2-1.2,14.2-3.2,20.9-6.3c8.5-4,14.5-10.2,17.5-19.3c2.6-8,4.7-16.1,6.1-24.4c1.2-7.2,2.2-14.4,3.2-21.6
		c0.1-1,0.5-1.6,1.3-2.2c3.3-2.2,6.5-4.5,9.7-6.8c0.3-0.2,0.5-0.4,0.9-0.7C288.2,231.7,281.6,226.6,274.9,221.5z"/>
	<path d="M274.9,221.5c6.7,5.1,13.3,10.2,20,15.3c-0.3,0.3-0.6,0.5-0.9,0.7c-3.2,2.3-6.5,4.6-9.7,6.8c-0.8,0.6-1.2,1.2-1.3,2.2
		c-1,7.2-2,14.4-3.2,21.6c-1.4,8.3-3.4,16.4-6.1,24.4c-3,9.1-8.9,15.3-17.5,19.3c-6.7,3.1-13.7,5.1-20.9,6.3c-0.1,0-0.2,0-0.4,0
		c-0.1-0.8-0.1-1.5-0.3-2.2c-0.9-4.5-3.6-7.9-7.1-10.6c-4.6-3.6-9.8-6.1-15.1-8.6c-2.1-1-4.2-1.9-6.3-2.9c-0.3-0.1-0.6-0.7-0.6-1
		c0.3-1.7,0.7-3.4,1-5.2c0.7,0.2,1.4,0.4,2,0.6c8,2.5,16.1,4.8,24.4,6.2c5,0.8,10,1.4,15,0.6c3.3-0.5,5.9-2.1,7.7-4.9
		c2.8-4.4,4.3-9.3,5.7-14.3c2.5-9.1,4-18.3,5.3-27.6c0.4-2.9,0.8-5.8,1.2-8.8c-0.5,0-0.9,0-1.4,0c-28.2,0-56.3,0-84.5,0
		c-1,0-1.4,0.3-1.8,1.3c-5,13.8-12.4,26.1-22.9,36.4c-8.5,8.4-18.4,14.6-29.2,19.5c-14.4,6.5-29.5,11-45,14.4
		c-12,2.7-24.2,4.6-36.4,6.2c-0.1,0-0.2,0-0.5,0c-0.4-1.5-0.8-3-1.2-4.7c2.5-0.5,4.9-1,7.3-1.5c18-3.8,35.7-8.5,52.7-15.8
		c12.8-5.5,24.6-12.5,34.8-22.1c8.5-8,15.3-17.2,19.1-28.3c0.6-1.7,1-3.4,1.6-5.3c-0.6,0-1,0-1.5,0c-17,0-34.1,0-51.1,0
		c-8.5,0-17,1.1-25.3,3.2c-0.9,0.2-1.4,0.1-2-0.5c-2.9-3-5.9-5.9-8.8-8.8c-0.3-0.3-0.5-0.6-1-1c0.8,0,1.3,0,1.8,0
		c63.7,0,127.4,0,191.1,0c1.1,0,1.8-0.3,2.5-1.2C269.3,227.8,272.1,224.7,274.9,221.5z"/>
</g>
</svg>
