<?xml version="1.0" encoding="utf-8"?>
<!-- Generator: Adobe Illustrator 20.1.0, SVG Export Plug-In . SVG Version: 6.00 Build 0)  -->
<svg version="1.1" id="图层_1" xmlns="http://www.w3.org/2000/svg" xmlns:xlink="http://www.w3.org/1999/xlink" x="0px" y="0px"
	 viewBox="0 0 360 360" style="enable-background:new 0 0 360 360;" xml:space="preserve">
<style type="text/css">
	.st0{fill:#FFFFFF;}
</style>
<g>
	<path class="st0" d="M0.2,360.5c0-120.1,0-240.2,0-360.2c120.1,0,240.2,0,360.2,0c0,120.1,0,240.2,0,360.2
		C240.4,360.5,120.3,360.5,0.2,360.5z M239.6,306.4c9.4-2.1,18.3-5.3,25.9-11.2c6.8-5.3,12.2-11.6,14.2-20.3
		c0.6-2.5,1.1-4.9,1.5-7.4c1.9-10.9,3.1-21.8,3.9-32.8c1.1-14.8,2-29.7,2.9-44.5c0.7-12.7,1.2-25.4,1.6-38.1
		c0.4-9.5,0.6-18.9,0.8-28.4c0.3-13.3,0.6-26.7,1-40c0-0.6,0.3-1.3,0.7-1.7c3-3,6-6,9-9c0.3-0.3,0.6-0.6,0.9-1
		c-7.9-5.2-15.7-10.2-23.6-15.3c-0.2,0.4-0.4,0.6-0.6,0.9c-2.3,3.9-4.6,7.8-6.8,11.7c-0.7,1.2-1.4,1.6-2.8,1.6c-64,0-128,0-192,0
		c-0.5,0-1,0-1.8,0c3.5,3.5,6.7,6.7,9.9,9.9c0.6,0.6,1,0.7,1.8,0.5c8.4-2.2,17-3.2,25.6-3.3c20.4-0.1,40.9,0,61.3,0
		c0.5,0,0.9,0,1.6,0c-0.1,1.6-0.1,3.1-0.2,4.5c-0.8,11.5-1.4,23.1-2.6,34.5c-1.2,11.8-2.9,23.6-4.7,35.4c-2.2,14.1-5.3,28-10,41.5
		c-6.4,18.5-15.3,35.6-26.9,51.4c-8.6,11.7-19.2,21.5-30.6,30.4c-15.2,11.9-31.7,22-48.7,31.3c-0.4,0.2-0.7,0.4-1.2,0.7
		c0.6,0.9,1.3,1.8,1.8,2.7c0.4,0.7,0.8,0.8,1.6,0.5c15.8-6.2,31.2-13.2,45.9-21.7c17.9-10.4,34.1-22.9,47.2-39.2
		c16.7-20.7,28.4-43.8,34.9-69.6c4.5-18.1,7.5-36.5,9.7-55c1.8-15,3-30.1,3.9-45.3c0-0.7,0.1-1.4,0.2-2c25.9,0,51.7,0,77.5,0
		c0,0.3,0.1,0.5,0.1,0.7c-0.3,7.2-0.5,14.4-0.8,21.6c-0.5,13.8-1,27.6-1.5,41.5c-0.6,14.8-1.2,29.6-1.9,44.4
		c-0.6,12.4-1.2,24.8-2.1,37.2c-0.7,9.2-1.6,18.4-2.7,27.5c-0.7,5.8-2.2,11.5-5,16.8c-2.5,4.8-6.1,7.2-11.7,7.1
		c-11.8-0.2-23.5-1.9-35.2-3.5c-3.2-0.4-6.5-1-9.7-1.5c0,2,0,3.9,0,5.9c2.7,0.9,5.5,1.7,8.2,2.7c6.9,2.4,13.5,5.3,19.4,9.8
		C235.3,292.8,239.4,298.5,239.6,306.4z"/>
	<path d="M239.6,306.4c-0.2-8-4.2-13.6-10.1-18.2c-5.8-4.5-12.5-7.4-19.4-9.8c-2.7-1-5.5-1.8-8.2-2.7c0-1.9,0-3.9,0-5.9
		c3.3,0.5,6.5,1,9.7,1.5c11.7,1.6,23.3,3.3,35.2,3.5c5.6,0.1,9.2-2.4,11.7-7.1c2.7-5.3,4.2-11,5-16.8c1.1-9.2,2-18.3,2.7-27.5
		c0.9-12.4,1.5-24.8,2.1-37.2c0.7-14.8,1.3-29.6,1.9-44.4c0.6-13.8,1-27.6,1.5-41.5c0.3-7.2,0.5-14.4,0.8-21.6c0-0.2,0-0.4-0.1-0.7
		c-25.8,0-51.6,0-77.5,0c-0.1,0.6-0.2,1.3-0.2,2c-0.8,15.1-2.1,30.2-3.9,45.3c-2.2,18.5-5.1,36.9-9.7,55
		c-6.5,25.8-18.2,48.9-34.9,69.6c-13.1,16.3-29.3,28.8-47.2,39.2c-14.7,8.5-30.1,15.5-45.9,21.7c-0.8,0.3-1.2,0.2-1.6-0.5
		c-0.5-0.9-1.1-1.7-1.8-2.7c0.4-0.2,0.8-0.5,1.2-0.7c17-9.3,33.4-19.3,48.7-31.3c11.4-8.9,22-18.7,30.6-30.4
		c11.6-15.7,20.5-32.9,26.9-51.4c4.7-13.5,7.8-27.4,10-41.5c1.8-11.8,3.5-23.6,4.7-35.4c1.2-11.5,1.7-23,2.6-34.5
		c0.1-1.5,0.2-2.9,0.2-4.5c-0.6,0-1.1,0-1.6,0c-20.4,0-40.9,0-61.3,0c-8.7,0-17.2,1.1-25.6,3.3c-0.8,0.2-1.2,0.1-1.8-0.5
		c-3.2-3.2-6.4-6.4-9.9-9.9c0.8,0,1.3,0,1.8,0c64,0,128,0,192,0c1.4,0,2.1-0.4,2.8-1.6c2.2-3.9,4.5-7.8,6.8-11.7
		c0.2-0.3,0.3-0.5,0.6-0.9c7.8,5.1,15.6,10.2,23.6,15.3c-0.3,0.4-0.6,0.7-0.9,1c-3,3-6,6-9,9c-0.4,0.4-0.7,1.2-0.7,1.7
		c-0.4,13.3-0.7,26.7-1,40c-0.2,9.5-0.5,18.9-0.8,28.4c-0.5,12.7-0.9,25.4-1.6,38.1c-0.8,14.8-1.8,29.7-2.9,44.5
		c-0.8,11-2,22-3.9,32.8c-0.4,2.5-1,4.9-1.5,7.4c-2,8.7-7.5,15-14.2,20.3C257.8,301.1,249,304.3,239.6,306.4z"/>
</g>
</svg>
