<?xml version="1.0" encoding="utf-8"?>
<!-- Generator: Adobe Illustrator 20.1.0, SVG Export Plug-In . SVG Version: 6.00 Build 0)  -->
<svg version="1.1" id="图层_1" xmlns="http://www.w3.org/2000/svg" xmlns:xlink="http://www.w3.org/1999/xlink" x="0px" y="0px"
	 viewBox="0 0 360 360" style="enable-background:new 0 0 360 360;" xml:space="preserve">
<style type="text/css">
	.st0{fill:#FFFFFF;}
</style>
<g>
	<path class="st0" d="M0.2,360.5c0-120.1,0-240.2,0-360.2c120.1,0,240.2,0,360.2,0c0,120.1,0,240.2,0,360.2
		C240.4,360.5,120.3,360.5,0.2,360.5z M286,56.9c-0.1,0.3-0.1,0.4-0.1,0.5c0.4,15.7,1.1,31.4,1.1,47.1c0.1,58.4,0.1,116.9,0,175.3
		c0,1.1-0.1,2.2-0.3,3.3c-0.7,4.8-3.5,7.3-8.3,7.8c-1.2,0.1-2.5,0.1-3.7,0c-7.2-0.4-14.4-0.8-21.5-1.2c-4.2-0.3-8.4-0.6-12.8-1
		c0,1.3,0,2.5,0,3.8c0,0.6,0.2,0.9,0.9,1c1.6,0.3,3.1,0.7,4.6,1.2c6.9,1.9,13.7,4.2,19.7,8.1c4.3,2.8,8,6.2,9.9,11.2
		c0.6,1.7,0.9,3.4,1.4,5.2c0.2,0,0.4-0.1,0.7-0.2c3.7-1.4,7.3-3.2,10.6-5.5c7.7-5.3,12.4-12.5,13.4-21.8c0.3-3.3,0.2-6.6,0.2-9.9
		c0-67.2,0-134.5,0-201.7c0-0.3-0.1-0.6,0-0.8c0.2-0.5,0.3-1,0.6-1.3c2.8-2.5,5.6-5,8.4-7.5c0.4-0.3,0.7-0.7,1.2-1.1
		C303.3,65.2,294.7,61.1,286,56.9z M231.3,261.7c0.5-0.2,0.9-0.3,1.2-0.5c4.8-1.9,9.6-3.9,14.5-5.7c1.1-0.4,1.4-0.9,1.3-2.1
		c-0.4-12-1-24-1-35.9c-0.1-31.2,0-62.4-0.1-93.6c0-2.7,0.7-4.5,2.8-6.1c2.6-2,4.9-4.3,7.5-6.6c-8.8-3.8-17.4-7.5-26.2-11.3
		C232.9,153.9,232.7,207.7,231.3,261.7z"/>
	<path d="M286,56.9c8.7,4.1,17.3,8.2,26.1,12.4c-0.5,0.4-0.8,0.8-1.2,1.1c-2.8,2.5-5.6,5-8.4,7.5c-0.3,0.3-0.5,0.9-0.6,1.3
		c-0.1,0.3,0,0.6,0,0.8c0,67.2,0,134.5,0,201.7c0,3.3,0.2,6.7-0.2,9.9c-1,9.4-5.8,16.5-13.4,21.8c-3.3,2.3-6.9,4.1-10.6,5.5
		c-0.3,0.1-0.5,0.2-0.7,0.2c-0.5-1.8-0.8-3.6-1.4-5.2c-1.9-5-5.6-8.4-9.9-11.2c-6.1-3.9-12.8-6.2-19.7-8.1c-1.5-0.4-3.1-0.8-4.6-1.2
		c-0.6-0.1-0.9-0.4-0.9-1c0-1.2,0-2.5,0-3.8c4.4,0.3,8.6,0.7,12.8,1c7.2,0.4,14.4,0.8,21.5,1.2c1.2,0.1,2.5,0.1,3.7,0
		c4.8-0.5,7.5-3,8.3-7.8c0.2-1.1,0.3-2.2,0.3-3.3c0-58.4,0.1-116.9,0-175.3c0-15.7-0.7-31.4-1.1-47.1
		C285.9,57.3,285.9,57.2,286,56.9z"/>
	<path d="M231.3,261.7c1.4-53.9,1.6-107.8,0-161.8c8.8,3.8,17.5,7.5,26.2,11.3c-2.6,2.3-4.9,4.6-7.5,6.6c-2.1,1.6-2.8,3.4-2.8,6.1
		c0.1,31.2,0,62.4,0.1,93.6c0.1,12,0.6,24,1,35.9c0,1.1-0.3,1.7-1.3,2.1c-4.8,1.8-9.7,3.8-14.5,5.7
		C232.2,261.4,231.9,261.5,231.3,261.7z"/>
</g>
</svg>
