<?xml version="1.0" encoding="utf-8"?>
<!-- Generator: Adobe Illustrator 20.1.0, SVG Export Plug-In . SVG Version: 6.00 Build 0)  -->
<svg version="1.1" id="图层_1" xmlns="http://www.w3.org/2000/svg" xmlns:xlink="http://www.w3.org/1999/xlink" x="0px" y="0px"
	 viewBox="0 0 360 360" style="enable-background:new 0 0 360 360;" xml:space="preserve">
<style type="text/css">
	.st0{fill:#FFFFFF;}
</style>
<g>
	<path class="st0" d="M0.2,360.5c0-120.1,0-240.2,0-360.2c120.1,0,240.2,0,360.2,0c0,120.1,0,240.2,0,360.2
		C240.4,360.5,120.3,360.5,0.2,360.5z M196,43.7c0,0.4-0.1,0.7-0.1,0.9c0.1,4.8,0.3,9.5,0.4,14.3c0.3,13.1,0.7,26.3,0.7,39.4
		c0.1,57.8,0,115.6,0.1,173.4c0,2.5,0.1,5,0.4,7.4c1.2,8.8,5.7,15.3,13.9,19c5.4,2.5,11.2,3.4,17.1,3.5c6.8,0.1,13.6,0,20.4,0
		c9.4,0,18.8,0,28.2,0.1c5.3,0.1,10.6-0.1,15.9-1.3c6.5-1.4,12.5-4,17.2-8.8c1.9-1.9,3.5-4,4.7-6.5c-0.4-0.1-0.6-0.2-0.9-0.3
		c-0.3-0.1-0.6-0.2-0.9-0.4c-6.2-2.6-10.1-7.1-11.3-13.7c-0.6-3.7-1.2-7.4-1.4-11.1c-0.4-9.9-0.6-19.7-0.8-29.6c0-0.5,0-0.9,0-1.5
		c-1.6,0-3.2,0-4.8,0c-0.1,1.3-0.3,2.6-0.4,3.9c-1.1,12-2.5,23.9-4.6,35.8c-0.7,4.1-1.9,7.9-4.6,11.2c-4.1,4.8-9.5,6.7-15.6,6.7
		c-10.7,0.2-21.4,0.1-32,0c-2.5,0-5.1-0.3-7.6-0.8c-7.6-1.5-12.9-5.8-15.2-13.4c-1-3.2-1.2-6.5-1.2-9.8c0-64.7,0-129.4-0.1-194.2
		c0-2.4,0.6-3.9,2.5-5.3c2.4-1.9,4.6-4,7.1-6.2C214.1,52.3,205.1,48,196,43.7z M48.7,314.6c0.4-0.1,0.6-0.2,0.8-0.3
		c12.2-4.7,24-10,35.4-16.5c14-7.9,26.9-17.4,38.3-28.8c12.9-12.9,21.6-28.2,26.8-45.6c5.1-16.9,7-34.2,7.1-51.7
		c0.1-35.6,0-71.1,0-106.7c0-1,0.3-1.8,1-2.5c2.4-2.3,4.8-4.7,7.3-7.2c-8.7-4-17.3-7.9-26-11.8c0,0.7,0,1.3,0,1.8
		c0.4,10.5,1,21.1,1.1,31.6c0.1,31.7,0,63.4,0.1,95.1c0,12.7-1.5,25.3-4.6,37.6c-6.8,27.3-20.5,50.4-41.4,69.1
		c-12.1,10.8-25.5,19.6-39.8,27.2c-2.4,1.3-4.9,2.5-7.3,3.8C47.9,311.5,48.3,313,48.7,314.6z"/>
	<path d="M196,43.7c9.1,4.4,18,8.6,27.1,13c-2.5,2.2-4.7,4.3-7.1,6.2c-1.9,1.4-2.5,3-2.5,5.3c0.1,64.7,0.1,129.4,0.1,194.2
		c0,3.3,0.3,6.6,1.2,9.8c2.3,7.6,7.6,11.9,15.2,13.4c2.5,0.5,5.1,0.8,7.6,0.8c10.7,0.1,21.4,0.1,32,0c6-0.1,11.5-1.9,15.6-6.7
		c2.7-3.2,3.9-7.1,4.6-11.2c2.1-11.9,3.5-23.8,4.6-35.8c0.1-1.3,0.3-2.6,0.4-3.9c1.6,0,3.1,0,4.8,0c0,0.5,0,1,0,1.5
		c0.3,9.9,0.4,19.7,0.8,29.6c0.2,3.7,0.7,7.4,1.4,11.1c1.2,6.6,5.1,11.1,11.3,13.7c0.3,0.1,0.6,0.2,0.9,0.4c0.3,0.1,0.5,0.2,0.9,0.3
		c-1.2,2.5-2.8,4.6-4.7,6.5c-4.8,4.8-10.7,7.4-17.2,8.8c-5.2,1.1-10.5,1.3-15.9,1.3c-9.4-0.1-18.8-0.1-28.2-0.1
		c-6.8,0-13.6,0.1-20.4,0c-5.9-0.1-11.7-1.1-17.1-3.5c-8.2-3.7-12.7-10.2-13.9-19c-0.3-2.4-0.4-4.9-0.4-7.4
		c0-57.8,0-115.6-0.1-173.4c0-13.1-0.4-26.3-0.7-39.4c-0.1-4.8-0.3-9.5-0.4-14.3C196,44.4,196,44.1,196,43.7z"/>
	<path d="M48.7,314.6c-0.4-1.6-0.8-3.1-1.2-4.7c2.5-1.3,4.9-2.5,7.3-3.8c14.3-7.5,27.7-16.4,39.8-27.2
		c20.9-18.8,34.7-41.9,41.4-69.1c3.1-12.3,4.6-24.9,4.6-37.6c-0.1-31.7,0.1-63.4-0.1-95.1c0-10.5-0.7-21.1-1.1-31.6
		c0-0.6,0-1.1,0-1.8c8.7,3.9,17.2,7.8,26,11.8c-2.5,2.5-4.8,4.9-7.3,7.2c-0.7,0.7-1,1.4-1,2.5c0,35.6,0.1,71.1,0,106.7
		c-0.1,17.5-2,34.8-7.1,51.7c-5.3,17.4-14,32.7-26.8,45.6c-11.4,11.4-24.3,20.9-38.3,28.8c-11.3,6.4-23.2,11.8-35.4,16.5
		C49.3,314.5,49.1,314.5,48.7,314.6z"/>
</g>
</svg>
