<?xml version="1.0" encoding="utf-8"?>
<!-- Generator: Adobe Illustrator 20.1.0, SVG Export Plug-In . SVG Version: 6.00 Build 0)  -->
<svg version="1.1" id="图层_1" xmlns="http://www.w3.org/2000/svg" xmlns:xlink="http://www.w3.org/1999/xlink" x="0px" y="0px"
	 viewBox="0 0 360 360" style="enable-background:new 0 0 360 360;" xml:space="preserve">
<style type="text/css">
	.st0{fill:#FFFFFF;}
</style>
<g>
	<path class="st0" d="M0.2,360.5c0-120.1,0-240.2,0-360.2c120.1,0,240.2,0,360.2,0c0,120.1,0,240.2,0,360.2
		C240.4,360.5,120.3,360.5,0.2,360.5z M200.6,186.3c0,0.7,0,1.2,0,1.7c0,30.2,0,60.5,0,90.7c0,2.6,0.2,5.2,0.7,7.7
		c1.6,8.6,6.2,14.8,14.6,17.9c4,1.5,8.2,2.2,12.5,2.2c17.8,0,35.7,0,53.5,0c3.3,0,6.6-0.1,9.8-0.5c5.3-0.5,10.4-2,15-5
		c5.1-3.2,8.5-7.8,10.6-13.4c-0.3-0.1-0.5-0.3-0.7-0.3c-8.5-3.4-12.8-9.9-14-18.8c-1.2-9.8-1.7-19.7-1.8-29.5c0-1.5,0-2.9,0-4.5
		c-1.2,0-2.2,0-3.1,0c-0.9,0-1.9,0-2.8,0c-0.1,0.6-0.1,1.1-0.1,1.6c-0.9,13.5-1.8,26.9-2.8,40.4c-0.3,3.8-1,7.5-2.8,10.9
		c-1.7,3.1-4.2,4.8-7.9,4.8c-13.1-0.1-26.2,0-39.2,0c-2.9,0-5.9,0-8.8-0.4c-8.9-1.1-14.7-6.8-15.8-15.7c-0.4-3.3-0.3-6.8-0.3-10.2
		c0-26.1,0-52.2,0-78.4c0-0.4,0-0.9,0-1.3C211.6,186.3,206.2,186.3,200.6,186.3z M140.6,186.2c-0.1,0.4-0.1,0.8-0.2,1.1
		c-0.5,4.5-0.9,9-1.5,13.5c-1.7,13.1-4.5,26-9,38.4c-3,8.5-6.6,16.8-11.7,24.3c-6.2,9.1-14.2,16.5-22.9,23.2
		c-11.9,9.3-24.8,16.9-38.1,23.9c-2.5,1.3-4.9,2.6-7.5,3.9c0.4,1.2,0.8,2.3,1.2,3.5c0.4-0.1,0.7-0.2,1-0.3c3.4-1.2,6.9-2.3,10.3-3.5
		c14.9-5.4,29.3-11.7,42.7-20.2c7.4-4.7,14.4-10.1,20.5-16.5c7.8-8.1,13.4-17.6,18-27.7c8.5-18.7,12.6-38.6,14.4-58.9
		c0.1-1.6,0.2-3.1,0.4-4.8C152.3,186.2,146.6,186.2,140.6,186.2z"/>
	<path d="M200.6,186.3c5.6,0,11,0,16.6,0c0,0.5,0,0.9,0,1.3c0,26.1,0,52.2,0,78.4c0,3.4-0.1,6.8,0.3,10.2
		c1.1,8.9,6.8,14.6,15.8,15.7c2.9,0.4,5.9,0.4,8.8,0.4c13.1,0,26.2,0,39.2,0c3.7,0,6.2-1.6,7.9-4.8c1.8-3.4,2.5-7.2,2.8-10.9
		c1-13.5,1.9-26.9,2.8-40.4c0-0.5,0.1-1,0.1-1.6c0.9,0,1.9,0,2.8,0c1,0,1.9,0,3.1,0c0,1.5,0,3,0,4.5c0,9.9,0.5,19.7,1.8,29.5
		c1.1,8.8,5.4,15.4,14,18.8c0.2,0.1,0.4,0.2,0.7,0.3c-2.1,5.7-5.5,10.2-10.6,13.4c-4.6,2.9-9.7,4.4-15,5c-3.3,0.3-6.5,0.4-9.8,0.5
		c-17.8,0-35.7,0-53.5,0c-4.3,0-8.4-0.7-12.5-2.2c-8.3-3.1-13-9.3-14.6-17.9c-0.5-2.5-0.7-5.2-0.7-7.7c0-30.2,0-60.5,0-90.7
		C200.6,187.4,200.6,186.9,200.6,186.3z"/>
	<path d="M140.6,186.2c5.9,0,11.7,0,17.7,0c-0.1,1.6-0.2,3.2-0.4,4.8c-1.8,20.4-5.9,40.2-14.4,58.9c-4.6,10.1-10.2,19.7-18,27.7
		c-6.2,6.4-13.1,11.7-20.5,16.5c-13.4,8.5-27.8,14.9-42.7,20.2c-3.4,1.2-6.9,2.4-10.3,3.5c-0.3,0.1-0.6,0.2-1,0.3
		c-0.4-1.2-0.8-2.3-1.2-3.5c2.5-1.3,5-2.6,7.5-3.9c13.3-7,26.2-14.7,38.1-23.9c8.7-6.7,16.6-14.1,22.9-23.2
		c5.1-7.5,8.7-15.8,11.7-24.3c4.4-12.5,7.2-25.3,9-38.4c0.6-4.5,1-9,1.5-13.5C140.5,187,140.6,186.7,140.6,186.2z"/>
</g>
</svg>
