<?xml version="1.0" encoding="utf-8"?>
<!-- Generator: Adobe Illustrator 20.1.0, SVG Export Plug-In . SVG Version: 6.00 Build 0)  -->
<svg version="1.1" id="图层_1" xmlns="http://www.w3.org/2000/svg" xmlns:xlink="http://www.w3.org/1999/xlink" x="0px" y="0px"
	 viewBox="0 0 360 360" style="enable-background:new 0 0 360 360;" xml:space="preserve">
<style type="text/css">
	.st0{fill:#FFFFFF;}
</style>
<g>
	<path class="st0" d="M0.2,360.5c0-120.1,0-240.2,0-360.2c120.1,0,240.2,0,360.2,0c0,120.1,0,240.2,0,360.2
		C240.4,360.5,120.3,360.5,0.2,360.5z M48.8,291.1c0.2,0.3,0.2,0.4,0.3,0.5c3.2,3.2,6.4,6.5,9.7,9.7c0.3,0.3,0.9,0.4,1.3,0.3
		c8.6-2.2,17.3-3.2,26.1-3.2c78,0,156.1,0,234.1,0c0.5,0,1,0,1.5,0c-9-9-18-18-27-27c-0.2,0.2-0.5,0.5-0.9,0.8c-6,6-12,12-18,18
		c-0.8,0.8-1.6,1.1-2.7,1.1c-74.2,0-148.5,0-222.7,0C50,291.1,49.5,291.1,48.8,291.1z M59.6,73.1c0,0.1-0.1,0.2-0.1,0.3
		c3.3,3.3,6.7,6.7,10,10c0.2,0.2,0.9,0.3,1.3,0.2c9-2.3,18.2-3.3,27.4-3.3c67.8,0,135.5,0,203.3,0c0.5,0,1,0,1.4,0
		c-7.8-7.8-15.6-15.6-23.5-23.5c-0.2,0.2-0.4,0.6-0.8,0.9c-4.7,4.7-9.4,9.3-14,14c-1,1-2,1.5-3.5,1.5c-66.7,0-133.3,0-200,0
		C60.6,73.1,60.1,73.1,59.6,73.1z"/>
	<path d="M48.8,291.1c0.7,0,1.2,0,1.7,0c74.2,0,148.5,0,222.7,0c1.1,0,1.9-0.3,2.7-1.1c6-6,12-12,18-18c0.3-0.3,0.6-0.6,0.9-0.8
		c9,9,18,18,27,27c-0.5,0-1,0-1.5,0c-78,0-156.1,0-234.1,0c-8.8,0-17.5,1.1-26.1,3.2c-0.4,0.1-1.1,0-1.3-0.3
		c-3.3-3.2-6.5-6.4-9.7-9.7C49,291.5,49,291.4,48.8,291.1z"/>
	<path d="M59.6,73.1c0.5,0,1,0,1.5,0c66.7,0,133.3,0,200,0c1.5,0,2.5-0.4,3.5-1.5c4.6-4.7,9.3-9.4,14-14c0.3-0.3,0.6-0.7,0.8-0.9
		c7.9,7.9,15.7,15.7,23.5,23.5c-0.4,0-0.9,0-1.4,0c-67.8,0-135.5,0-203.3,0c-9.3,0-18.4,1-27.4,3.3c-0.4,0.1-1,0.1-1.3-0.2
		c-3.4-3.3-6.7-6.6-10-10C59.5,73.3,59.5,73.2,59.6,73.1z"/>
</g>
</svg>
