<?xml version="1.0" encoding="utf-8"?>
<!-- Generator: Adobe Illustrator 20.1.0, SVG Export Plug-In . SVG Version: 6.00 Build 0)  -->
<svg version="1.1" id="图层_1" xmlns="http://www.w3.org/2000/svg" xmlns:xlink="http://www.w3.org/1999/xlink" x="0px" y="0px"
	 viewBox="0 0 360 360" style="enable-background:new 0 0 360 360;" xml:space="preserve">
<style type="text/css">
	.st0{fill:#FFFFFF;}
</style>
<g>
	<path class="st0" d="M0.2,360.5c0-120.1,0-240.2,0-360.2c120.1,0,240.2,0,360.2,0c0,120.1,0,240.2,0,360.2
		C240.4,360.5,120.3,360.5,0.2,360.5z M289.9,137.8c-0.2,0.3-0.4,0.7-0.7,1c-5.6,5.6-11.3,11.3-16.9,16.9c-0.7,0.7-1.5,1-2.5,1
		c-73.2,0-146.3,0-219.5,0c-0.5,0-1,0-1.5,0C49,157,49,157,49,157.1c3.3,3.3,6.5,6.6,9.9,9.8c0.3,0.3,0.9,0.4,1.3,0.3
		c9.4-2.5,19-3.3,28.7-3.3c29.8,0,59.7,0,89.5,0c45.4,0,90.8,0,136.2,0c0.5,0,0.9,0,1.4,0C307.3,155.2,298.7,146.6,289.9,137.8z
		 M85.1,67.2c3.6,3.6,6.9,6.9,10.2,10.2c0.3,0.3,0.9,0.4,1.4,0.3c9-2.3,18.1-3.3,27.3-3.3c52.5,0,105,0,157.6,0c0.5,0,0.9,0,1.3,0
		c-7.8-7.8-15.6-15.6-23.6-23.6c-0.1,0.2-0.3,0.6-0.6,0.9c-4.9,4.9-9.7,9.7-14.6,14.6c-0.7,0.7-1.3,0.9-2.3,0.9
		c-51.6,0-103.3,0-154.9,0C86.4,67.2,85.9,67.2,85.1,67.2z"/>
	<path d="M289.9,137.8c8.8,8.8,17.4,17.4,26.1,26.1c-0.5,0-0.9,0-1.4,0c-45.4,0-90.8,0-136.2,0c-29.8,0-59.7,0-89.5,0
		c-9.7,0-19.3,0.8-28.7,3.3c-0.4,0.1-1,0-1.3-0.3c-3.3-3.2-6.6-6.5-9.9-9.8c0,0-0.1-0.1-0.2-0.4c0.6,0,1.1,0,1.5,0
		c73.2,0,146.3,0,219.5,0c1,0,1.8-0.3,2.5-1c5.6-5.7,11.2-11.3,16.9-16.9C289.5,138.5,289.7,138.1,289.9,137.8z"/>
	<path d="M85.1,67.2c0.8,0,1.2,0,1.7,0c51.6,0,103.3,0,154.9,0c1,0,1.6-0.3,2.3-0.9c4.8-4.9,9.7-9.7,14.6-14.6
		c0.3-0.3,0.5-0.7,0.6-0.9c8,8,15.8,15.8,23.6,23.6c-0.4,0-0.8,0-1.3,0c-52.5,0-105,0-157.6,0c-9.2,0-18.3,1-27.3,3.3
		c-0.4,0.1-1.1,0-1.4-0.3C92,74.1,88.7,70.8,85.1,67.2z"/>
</g>
</svg>
