<?xml version="1.0" encoding="utf-8"?>
<!-- Generator: Adobe Illustrator 20.1.0, SVG Export Plug-In . SVG Version: 6.00 Build 0)  -->
<svg version="1.1" id="图层_1" xmlns="http://www.w3.org/2000/svg" xmlns:xlink="http://www.w3.org/1999/xlink" x="0px" y="0px"
	 viewBox="0 0 360 360" style="enable-background:new 0 0 360 360;" xml:space="preserve">
<style type="text/css">
	.st0{fill:#FFFFFF;}
</style>
<g>
	<path class="st0" d="M0.2,360.5c0-120.1,0-240.2,0-360.2c120.1,0,240.2,0,360.2,0c0,120.1,0,240.2,0,360.2
		C240.4,360.5,120.3,360.5,0.2,360.5z M317.1,297c-9.4-9.4-18.8-18.8-28.4-28.4c-0.2,0.3-0.4,0.7-0.7,1
		c-6.4,6.4-12.8,12.8-19.2,19.3c-0.7,0.7-1.4,1-2.4,1c-24.1,0-48.2,0-72.2,0c-47.2,0-94.3,0-141.5,0c-0.5,0-1,0-1.8,0
		c3.5,3.5,6.7,6.7,9.9,9.9c0.6,0.6,1,0.7,1.8,0.5c8.7-2.3,17.5-3.3,26.4-3.3c75.5,0,150.9,0,226.4,0C316,297,316.5,297,317.1,297z
		 M85.1,236.9c3.6,3.6,6.9,6.9,10.3,10.2c0.3,0.3,1,0.3,1.4,0.2c8.7-2.3,17.5-3.3,26.4-3.3c51.9,0,103.9,0,155.8,0c0.5,0,1,0,1.4,0
		c-8.2-8.2-16.4-16.4-24.6-24.6c-0.2,0.2-0.5,0.5-0.8,0.8c-5.2,5.2-10.5,10.4-15.7,15.7c-0.7,0.7-1.5,1-2.5,1c-50,0-100,0-150,0
		C86.4,236.9,86,236.9,85.1,236.9z"/>
	<path d="M317.1,297c-0.6,0-1.1,0-1.6,0c-75.5,0-150.9,0-226.4,0c-9,0-17.8,1-26.4,3.3c-0.8,0.2-1.2,0.1-1.8-0.5
		c-3.2-3.2-6.4-6.5-9.9-9.9c0.8,0,1.3,0,1.8,0c47.2,0,94.3,0,141.5,0c24.1,0,48.2,0,72.2,0c1,0,1.7-0.3,2.4-1
		c6.4-6.4,12.8-12.8,19.2-19.3c0.3-0.3,0.5-0.7,0.7-1C298.3,278.2,307.6,287.6,317.1,297z"/>
	<path d="M85.1,236.9c0.8,0,1.3,0,1.8,0c50,0,100,0,150,0c1,0,1.8-0.3,2.5-1c5.2-5.3,10.4-10.5,15.7-15.7c0.3-0.3,0.6-0.6,0.8-0.8
		c8.2,8.2,16.4,16.4,24.6,24.6c-0.4,0-0.9,0-1.4,0c-51.9,0-103.9,0-155.8,0c-9,0-17.8,1-26.4,3.3c-0.4,0.1-1.1,0.1-1.4-0.2
		C92,243.8,88.7,240.5,85.1,236.9z"/>
</g>
</svg>
