<?xml version="1.0" encoding="utf-8"?>
<!-- Generator: Adobe Illustrator 20.1.0, SVG Export Plug-In . SVG Version: 6.00 Build 0)  -->
<svg version="1.1" id="图层_1" xmlns="http://www.w3.org/2000/svg" xmlns:xlink="http://www.w3.org/1999/xlink" x="0px" y="0px"
	 viewBox="0 0 360 360" style="enable-background:new 0 0 360 360;" xml:space="preserve">
<style type="text/css">
	.st0{fill:#FFFFFF;}
</style>
<g>
	<path class="st0" d="M0.2,360.5c0-120.1,0-240.2,0-360.2c120.1,0,240.2,0,360.2,0c0,120.1,0,240.2,0,360.2
		C240.4,360.5,120.3,360.5,0.2,360.5z M293.5,110.8c-0.3,0.3-0.5,0.7-0.8,1c-5.6,5.6-11.2,11.1-16.7,16.7c-0.8,0.8-1.6,1.1-2.7,1.1
		c-75.5,0-150.9,0-226.4,0c-0.5,0-1,0-1.7,0c0.2,0.3,0.2,0.4,0.3,0.5c3.2,3.2,6.4,6.5,9.7,9.6c0.3,0.3,1,0.4,1.5,0.2
		c8.3-2.2,16.8-3.2,25.4-3.2c78.6,0,157.2,0,235.9,0c0.5,0,1,0,1.5,0C310.9,128.1,302.3,119.6,293.5,110.8z M86.3,68.4
		c3.6,3.6,6.9,6.9,10.3,10.2c0.3,0.3,1,0.3,1.4,0.2c8.4-2.1,16.9-3.2,25.5-3.2c51.9,0,103.8,0,155.7,0c0.5,0,0.9,0,1.4,0
		c-7.9-7.9-15.7-15.7-23.7-23.7c-0.2,0.3-0.4,0.7-0.7,1c-4.9,4.9-9.7,9.7-14.6,14.6c-0.7,0.7-1.3,1-2.3,1c-50.4,0-100.9,0-151.3,0
		C87.6,68.4,87.1,68.4,86.3,68.4z"/>
	<path d="M293.5,110.8c8.8,8.8,17.3,17.3,26,26c-0.6,0-1.1,0-1.5,0c-78.6,0-157.2,0-235.9,0c-8.6,0-17.1,1.1-25.4,3.2
		c-0.5,0.1-1.2,0.1-1.5-0.2c-3.3-3.2-6.5-6.4-9.7-9.6c-0.1-0.1-0.2-0.2-0.3-0.5c0.7,0,1.2,0,1.7,0c75.5,0,150.9,0,226.4,0
		c1.1,0,1.9-0.3,2.7-1.1c5.5-5.6,11.1-11.2,16.7-16.7C293,111.5,293.3,111.1,293.5,110.8z"/>
	<path d="M86.3,68.4c0.9,0,1.3,0,1.8,0c50.4,0,100.9,0,151.3,0c1,0,1.6-0.3,2.3-1c4.8-4.9,9.7-9.7,14.6-14.6c0.3-0.3,0.5-0.7,0.7-1
		c8,8,15.8,15.8,23.7,23.7c-0.5,0-0.9,0-1.4,0c-51.9,0-103.8,0-155.7,0c-8.6,0-17.1,1.1-25.5,3.2c-0.4,0.1-1.1,0.1-1.4-0.2
		C93.2,75.3,89.9,72,86.3,68.4z"/>
</g>
</svg>
