<?xml version="1.0" encoding="utf-8"?>
<!-- Generator: Adobe Illustrator 20.1.0, SVG Export Plug-In . SVG Version: 6.00 Build 0)  -->
<svg version="1.1" id="图层_1" xmlns="http://www.w3.org/2000/svg" xmlns:xlink="http://www.w3.org/1999/xlink" x="0px" y="0px"
	 viewBox="0 0 360 360" style="enable-background:new 0 0 360 360;" xml:space="preserve">
<style type="text/css">
	.st0{fill:#FFFFFF;}
</style>
<g>
	<path class="st0" d="M0.2,360.5c0-120.1,0-240.2,0-360.2c120.1,0,240.2,0,360.2,0c0,120.1,0,240.2,0,360.2
		C240.4,360.5,120.3,360.5,0.2,360.5z M84.1,310c2.2-3.3,4.3-6.4,6.3-9.5c0.5-0.8,1.1-1.2,2.1-1.2c17.8,0,35.6,0,53.4,0
		c53.4,0,106.9,0,160.3,0c0.5,0,1,0,1.7,0c-7.2-8-14.2-15.8-21.3-23.6c-5.2,5.2-10.4,10.4-15.5,15.5c-0.7,0.7-1.3,1-2.3,1
		c-59.1,0-118.2,0-177.4,0c-0.5,0-0.9,0-1.5,0c0-73.5,0-146.8,0-220.2c71.4,0,142.7,0,214.4,0c-7.6-8-15-15.8-22.4-23.6
		c-5.3,5.3-10.5,10.5-15.6,15.7c-0.6,0.6-1.1,0.9-2,0.9c-57.8,0-115.6,0-173.4,0c-0.6,0-1.3-0.2-1.9-0.5c-5.2-3.1-10.3-6.1-15.4-9.2
		c-0.4-0.3-0.9-0.5-1.2-0.7c0,2.3-0.1,4.5,0,6.7c0.3,10.4,0.9,20.9,0.9,31.3c0.1,65.1,0,130.2,0.1,195.2c0,0.8-0.3,1.4-0.8,2
		c-2.1,2-4.1,4.1-6.3,6.3C72.3,300.5,78.1,305.2,84.1,310z"/>
	<path d="M84.1,310c-6-4.8-11.8-9.5-17.8-14.2c2.2-2.2,4.2-4.2,6.3-6.3c0.6-0.6,0.8-1.1,0.8-2c0-65.1,0-130.2-0.1-195.2
		c0-10.4-0.6-20.9-0.9-31.3c-0.1-2.2,0-4.4,0-6.7c0.3,0.2,0.7,0.4,1.2,0.7c5.1,3.1,10.3,6.2,15.4,9.2c0.5,0.3,1.3,0.5,1.9,0.5
		c57.8,0,115.6,0,173.4,0c0.8,0,1.4-0.3,2-0.9c5.2-5.2,10.3-10.4,15.6-15.7c7.4,7.8,14.9,15.6,22.4,23.6c-71.6,0-142.9,0-214.4,0
		c0,73.4,0,146.8,0,220.2c0.5,0,1,0,1.5,0c59.1,0,118.2,0,177.4,0c1,0,1.6-0.3,2.3-1c5.1-5.2,10.3-10.3,15.5-15.5
		c7,7.8,14,15.6,21.3,23.6c-0.7,0-1.2,0-1.7,0c-53.4,0-106.9,0-160.3,0c-17.8,0-35.6,0-53.4,0c-1,0-1.6,0.3-2.1,1.2
		C88.4,303.6,86.3,306.7,84.1,310z"/>
</g>
</svg>
