<?xml version="1.0" encoding="utf-8"?>
<!-- Generator: Adobe Illustrator 20.1.0, SVG Export Plug-In . SVG Version: 6.00 Build 0)  -->
<svg version="1.1" id="图层_1" xmlns="http://www.w3.org/2000/svg" xmlns:xlink="http://www.w3.org/1999/xlink" x="0px" y="0px"
	 viewBox="0 0 360 360" style="enable-background:new 0 0 360 360;" xml:space="preserve">
<style type="text/css">
	.st0{fill:#FFFFFF;}
</style>
<g>
	<path class="st0" d="M0.2,360.5c0-120.1,0-240.2,0-360.2c120.1,0,240.2,0,360.2,0c0,120.1,0,240.2,0,360.2
		C240.4,360.5,120.3,360.5,0.2,360.5z M272.6,278.1c5.2-2.2,15.1-8.4,19.9-12.4c5.7-4.8,10.2-10.5,12.3-17.8
		c4.1-13.7,2.3-26.9-4.1-39.5c-3.8-7.4-9.1-13.6-14.5-19.8c-7.3-8.4-15.2-16.3-23.3-24c-0.7-0.6-0.7-1.1-0.3-1.9
		c2.1-4.2,4-8.5,6-12.8c4.2-8.9,8.2-17.9,12.6-26.6c5.4-10.6,11.2-21.1,16.9-31.6c0.3-0.6,0.8-1.1,1.4-1.4c3.2-1.9,6.4-3.8,9.6-5.6
		c1.2-0.7,2.3-1.4,3.6-2.1c-7.1-6.7-14.2-13.4-21.3-20.1c-3,3.7-5.9,7.3-8.7,10.9c-0.5,0.6-1,0.9-1.8,0.9c-15.8,0-31.5,0-47.3,0
		c-0.7,0-1.4-0.2-2-0.6c-5.2-3.1-10.4-6.2-15.6-9.3c-0.3-0.2-0.7-0.4-1.1-0.6c0,0.4,0,0.7,0,1c0.3,10.1,0.7,20.3,0.9,30.4
		c0.2,9.2,0.3,18.4,0.3,27.6c0,53.9-0.1,107.7-0.2,161.6c0,7.9-0.4,15.7-0.6,23.6c-0.1,2.6-0.2,5.2-0.3,7.9c0.5-0.2,0.9-0.4,1.3-0.6
		c4.6-2.3,9.3-4.7,13.9-6.9c1-0.5,1.3-1,1.3-2.1c0-74.3,0-148.6,0-223c0-0.5,0-1.1,0-1.7c17.3,0,34.4,0,51.7,0
		c-0.2,0.5-0.3,1-0.4,1.4c-9.1,26.6-18.3,53.2-27.4,79.9c-0.3,0.8-0.2,1.3,0.4,2c5.8,6.8,11.3,13.8,16.2,21.3
		c7.9,11.9,14,24.6,16.8,38.8c1,5.2,1.5,10.4,0.4,15.7c-2,8.8-8.2,14-17.2,13.4c-8.2-0.6-16.4-1.7-24.5-2.7
		c-2.9-0.3-5.8-0.9-8.9-1.3c0,1.4,0,2.7,0,3.9c0,0.6,0.2,0.9,0.8,1.1c1.2,0.4,2.3,0.8,3.5,1.2c7.3,2.7,14.4,5.6,20.7,10.1
		C267.6,269.2,271.3,272.7,272.6,278.1z"/>
	<path d="M272.6,278.1c-1.3-5.4-5-8.9-9.2-11.9c-6.3-4.5-13.5-7.5-20.7-10.1c-1.2-0.4-2.3-0.8-3.5-1.2c-0.6-0.2-0.8-0.5-0.8-1.1
		c0-1.3,0-2.5,0-3.9c3.1,0.5,6,1,8.9,1.3c8.2,1,16.3,2.1,24.5,2.7c9,0.6,15.2-4.5,17.2-13.4c1.2-5.3,0.7-10.5-0.4-15.7
		c-2.8-14.1-8.9-26.8-16.8-38.8c-4.9-7.4-10.4-14.5-16.2-21.3c-0.6-0.7-0.7-1.2-0.4-2c9.1-26.6,18.3-53.2,27.4-79.9
		c0.2-0.4,0.3-0.9,0.4-1.4c-17.3,0-34.4,0-51.7,0c0,0.6,0,1.2,0,1.7c0,74.3,0,148.6,0,223c0,1.1-0.3,1.7-1.3,2.1
		c-4.7,2.3-9.3,4.6-13.9,6.9c-0.4,0.2-0.8,0.4-1.3,0.6c0.1-2.7,0.3-5.3,0.3-7.9c0.2-7.9,0.6-15.7,0.6-23.6
		c0.1-53.9,0.2-107.7,0.2-161.6c0-9.2-0.1-18.4-0.3-27.6c-0.2-10.1-0.6-20.3-0.9-30.4c0-0.3,0-0.5,0-1c0.5,0.2,0.8,0.4,1.1,0.6
		c5.2,3.1,10.4,6.3,15.6,9.3c0.6,0.3,1.3,0.6,2,0.6c15.8,0,31.5,0,47.3,0c0.8,0,1.3-0.3,1.8-0.9c2.8-3.6,5.7-7.2,8.7-10.9
		c7.1,6.7,14.1,13.3,21.3,20.1c-1.3,0.8-2.5,1.5-3.6,2.1c-3.2,1.9-6.4,3.7-9.6,5.6c-0.5,0.3-1.1,0.9-1.4,1.4
		c-5.7,10.5-11.5,20.9-16.9,31.6c-4.5,8.8-8.4,17.7-12.6,26.6c-2,4.3-4,8.5-6,12.8c-0.4,0.8-0.3,1.3,0.3,1.9
		c8.1,7.7,16,15.5,23.3,24c5.4,6.2,10.7,12.4,14.5,19.8c6.5,12.6,8.2,25.8,4.1,39.5c-2.1,7.2-6.6,13-12.3,17.8
		C287.6,269.7,277.8,275.9,272.6,278.1z"/>
</g>
</svg>
