<?xml version="1.0" encoding="utf-8"?>
<!-- Generator: Adobe Illustrator 20.1.0, SVG Export Plug-In . SVG Version: 6.00 Build 0)  -->
<svg version="1.1" id="图层_1" xmlns="http://www.w3.org/2000/svg" xmlns:xlink="http://www.w3.org/1999/xlink" x="0px" y="0px"
	 viewBox="0 0 360 360" style="enable-background:new 0 0 360 360;" xml:space="preserve">
<style type="text/css">
	.st0{fill:#FFFFFF;}
</style>
<g>
	<path class="st0" d="M0.2,360.5c0-120.1,0-240.2,0-360.2c120.1,0,240.2,0,360.2,0c0,120.1,0,240.2,0,360.2
		C240.4,360.5,120.3,360.5,0.2,360.5z M138.1,74.4c-0.1,0.5-0.2,0.8-0.4,1.1c-9.1,25.9-18.2,51.7-27.4,77.6c-0.4,1-0.2,1.6,0.5,2.4
		c7.4,7.7,14.2,15.9,19.8,25c6.6,10.7,11,22,10.4,34.8c-0.2,5-0.6,9.9-2.2,14.6c-1.7,4.9-4.6,8.7-10.1,9.7c-2.6,0.5-5.3,0.7-8,0.7
		c-7.7,0-15.3-1.3-22.9-2.9c-2.6-0.5-5.3-1.1-8-1.7c0,1.2,0.1,2.3,0,3.3c-0.1,1.2,0.4,1.6,1.4,1.9c1.3,0.4,2.6,0.9,3.9,1.5
		c6.1,2.6,11.7,5.9,16.3,10.8c3.8,4.1,6.4,8.8,7.8,14.3c0.3-0.1,0.5-0.1,0.7-0.1c7-2.5,13.7-5.6,19.7-9.9
		c14.5-10.5,21.1-24.8,19.9-42.5c-0.8-11.1-4.8-21.1-11.3-30.1c-7.1-9.9-15.7-18.5-25-26.4c-2.1-1.8-4.2-3.4-6.3-5.1
		c0.1-0.3,0.2-0.5,0.3-0.7c4.6-8.9,9.1-17.9,13.8-26.8c7.6-14.4,15.2-28.8,22.9-43.2c0.4-0.7,1-1.3,1.6-1.7c2.6-1.9,5.3-3.7,7.9-5.6
		c0.9-0.7,1.9-1.3,2.8-2c-5.9-5.9-11.8-11.8-17.9-17.9c-0.2,0.3-0.4,0.7-0.7,1c-3.4,3.4-6.7,6.8-10.1,10.1c-0.4,0.4-1.2,0.7-1.7,0.7
		c-16.6,0-33.2,0-49.8,0c-0.6,0-1.3-0.2-1.9-0.6c-4.9-3.1-9.7-6.2-14.5-9.3c-0.3-0.2-0.7-0.4-0.8-0.5c1.2,85.1,1.6,170.2-1.3,255.4
		c0.3-0.2,0.7-0.3,1-0.4c5-2.3,10-4.7,15.1-7c1.2-0.5,1.5-1.2,1.5-2.4c0-75.4,0-150.9,0-226.3c0-0.5,0-1.1,0-1.7
		C102.9,74.4,120.4,74.4,138.1,74.4z"/>
	<path d="M138.1,74.4c-17.7,0-35.2,0-52.9,0c0,0.6,0,1.1,0,1.7c0,75.4,0,150.9,0,226.3c0,1.2-0.3,1.9-1.5,2.4
		c-5.1,2.3-10.1,4.7-15.1,7c-0.3,0.1-0.6,0.3-1,0.4C70.7,227,70.2,141.9,69,56.8c0.1,0.1,0.5,0.3,0.8,0.5c4.8,3.1,9.7,6.2,14.5,9.3
		c0.5,0.3,1.2,0.6,1.9,0.6c16.6,0,33.2,0,49.8,0c0.6,0,1.3-0.3,1.7-0.7c3.4-3.3,6.8-6.7,10.1-10.1c0.3-0.3,0.5-0.7,0.7-1
		c6.1,6.1,11.9,11.9,17.9,17.9c-0.9,0.6-1.8,1.3-2.8,2c-2.7,1.9-5.3,3.7-7.9,5.6c-0.6,0.5-1.2,1.1-1.6,1.7
		c-7.7,14.4-15.3,28.8-22.9,43.2c-4.7,8.9-9.2,17.9-13.8,26.8c-0.1,0.2-0.2,0.4-0.3,0.7c2.1,1.7,4.3,3.4,6.3,5.1
		c9.3,7.9,17.9,16.5,25,26.4c6.5,9,10.5,19,11.3,30.1c1.2,17.8-5.4,32.1-19.9,42.5c-6,4.4-12.8,7.4-19.7,9.9
		c-0.2,0.1-0.5,0.1-0.7,0.1c-1.4-5.4-4-10.2-7.8-14.3c-4.6-4.9-10.2-8.2-16.3-10.8c-1.3-0.5-2.6-1.1-3.9-1.5c-1-0.3-1.5-0.7-1.4-1.9
		c0.1-1.1,0-2.1,0-3.3c2.7,0.6,5.4,1.2,8,1.7c7.6,1.6,15.2,2.9,22.9,2.9c2.7,0,5.4-0.3,8-0.7c5.5-1,8.4-4.8,10.1-9.7
		c1.7-4.7,2-9.7,2.2-14.6c0.6-12.8-3.9-24.1-10.4-34.8c-5.6-9.1-12.5-17.3-19.8-25c-0.7-0.8-0.9-1.4-0.5-2.4
		c9.2-25.8,18.3-51.7,27.4-77.6C137.9,75.2,138,74.9,138.1,74.4z"/>
</g>
</svg>
