<?xml version="1.0" encoding="utf-8"?>
<!-- Generator: Adobe Illustrator 20.1.0, SVG Export Plug-In . SVG Version: 6.00 Build 0)  -->
<svg version="1.1" id="图层_1" xmlns="http://www.w3.org/2000/svg" xmlns:xlink="http://www.w3.org/1999/xlink" x="0px" y="0px"
	 viewBox="0 0 360 360" style="enable-background:new 0 0 360 360;" xml:space="preserve">
<style type="text/css">
	.st0{fill:#FFFFFF;}
</style>
<g>
	<path class="st0" d="M0.2,360.5c0-120.1,0-240.2,0-360.2c120.1,0,240.2,0,360.2,0c0,120.1,0,240.2,0,360.2
		C240.4,360.5,120.3,360.5,0.2,360.5z M298.4,240.5c0,2,0,3.9,0,5.9c0,8.4-0.4,16.7-1.5,25c-0.5,3.8-1,7.6-2.8,11.1
		c-2.4,4.6-6.2,7.3-11.3,7.3c-13.6,0.2-27.1,0.1-40.7,0.1c-6.4,0-10.8-3.3-12.3-9c-0.5-1.8-0.8-3.6-0.8-5.4
		c-0.1-15.6,0-31.2-0.1-46.8c0-0.9,0.3-1.4,1-1.9c2.6-1.9,5.1-3.8,7.6-5.7c0.3-0.2,0.5-0.4,0.9-0.7c-5.9-4.8-11.8-9.4-17.7-14.2
		c-2.9,3.3-5.8,6.6-8.7,9.7c-0.4,0.5-1.2,0.9-1.8,0.9c-21.3,0-42.6,0-63.8,0c-0.6,0-1.3-0.2-1.9-0.6c-5.2-3.4-10.5-6.9-15.7-10.4
		c-0.3-0.2-0.7-0.4-1.1-0.7c0,0.4,0,0.6,0,0.8c0.2,10,0,20-1.1,29.9c-1.1,9.4-2.9,18.6-6,27.6c-2.7,7.6-6.3,14.6-12.1,20.3
		c-7.2,7.1-15.8,12.3-24.8,16.8c-10.6,5.2-21.6,9.2-32.8,12.7c-0.3,0.1-0.6,0.2-0.9,0.4c0.4,1.5,0.8,3,1.1,4.4
		c0,0.1,0.1,0.1,0.2,0.2c0.1,0,0.3,0,0.4,0c13.1-2.4,25.8-6,38.2-10.8c8.1-3.1,16.1-6.5,23.4-11.2c10.1-6.5,18.1-14.8,22.8-26
		c5-11.7,7.5-24.1,8.7-36.7c0.3-3.1,0.5-6.2,0.7-9.4c22.3,0,44.6,0,67,0c0,0.6,0,1.1,0,1.6c0,18.6,0,37.3,0,55.9
		c0,1.6,0,3.2,0.2,4.8c0.8,7.9,4.8,13.4,12.5,16c3.7,1.3,7.6,1.7,11.6,1.7c17.2,0,34.4,0.1,51.6,0c9.5,0,18.1-2.8,25.1-9.6
		c2.5-2.4,4.6-5.1,6.3-8.1c-0.6-0.3-1-0.5-1.5-0.8c-5-2.6-8.4-6.5-10-11.9c-0.8-2.7-1.2-5.5-1.5-8.4c-0.8-7.9-1.5-15.8-2.3-23.7
		c0-0.4-0.1-0.8-0.2-1.1C302.3,240.5,300.5,240.5,298.4,240.5z"/>
	<path d="M298.4,240.5c2.1,0,4,0,6,0c0.1,0.4,0.1,0.8,0.2,1.1c0.7,7.9,1.4,15.8,2.3,23.7c0.3,2.8,0.7,5.6,1.5,8.4
		c1.5,5.4,5,9.3,10,11.9c0.5,0.2,0.9,0.5,1.5,0.8c-1.8,3-3.8,5.7-6.3,8.1c-7,6.8-15.5,9.6-25.1,9.6c-17.2,0.1-34.4,0-51.6,0
		c-3.9,0-7.8-0.4-11.6-1.7c-7.6-2.6-11.6-8.1-12.5-16c-0.2-1.6-0.2-3.2-0.2-4.8c0-18.6,0-37.3,0-55.9c0-0.5,0-1,0-1.6
		c-22.4,0-44.7,0-67,0c-0.2,3.2-0.4,6.3-0.7,9.4c-1.2,12.6-3.7,25-8.7,36.7c-4.7,11.2-12.7,19.5-22.8,26c-7.3,4.7-15.3,8-23.4,11.2
		c-12.4,4.8-25.1,8.4-38.2,10.8c-0.2,0-0.3,0-0.4,0c-0.1-0.1-0.2-0.2-0.2-0.2c-0.4-1.4-0.7-2.9-1.1-4.4c0.3-0.1,0.6-0.3,0.9-0.4
		c11.2-3.5,22.3-7.5,32.8-12.7c9-4.5,17.6-9.7,24.8-16.8c5.8-5.7,9.4-12.7,12.1-20.3c3.2-8.9,5-18.2,6-27.6
		c1.1-10,1.4-19.9,1.1-29.9c0-0.2,0-0.4,0-0.8c0.4,0.3,0.8,0.5,1.1,0.7c5.2,3.5,10.4,7,15.7,10.4c0.5,0.3,1.2,0.6,1.9,0.6
		c21.3,0,42.6,0,63.8,0c0.6,0,1.4-0.4,1.8-0.9c2.9-3.2,5.8-6.4,8.7-9.7c5.9,4.7,11.8,9.4,17.7,14.2c-0.3,0.3-0.6,0.5-0.9,0.7
		c-2.5,1.9-5,3.8-7.6,5.7c-0.7,0.5-1,1-1,1.9c0,15.6,0,31.2,0.1,46.8c0,1.8,0.3,3.7,0.8,5.4c1.5,5.7,6,9,12.3,9
		c13.6,0.1,27.1,0.1,40.7-0.1c5.1-0.1,8.9-2.8,11.3-7.3c1.8-3.5,2.3-7.3,2.8-11.1c1.1-8.3,1.5-16.6,1.5-25
		C298.4,244.4,298.4,242.5,298.4,240.5z"/>
</g>
</svg>
