<?xml version="1.0" encoding="utf-8"?>
<!-- Generator: Adobe Illustrator 20.1.0, SVG Export Plug-In . SVG Version: 6.00 Build 0)  -->
<svg version="1.1" id="图层_1" xmlns="http://www.w3.org/2000/svg" xmlns:xlink="http://www.w3.org/1999/xlink" x="0px" y="0px"
	 viewBox="0 0 360 360" style="enable-background:new 0 0 360 360;" xml:space="preserve">
<style type="text/css">
	.st0{fill:#FFFFFF;}
</style>
<g>
	<path class="st0" d="M0.2,360.5c0-120.1,0-240.2,0-360.2c120.1,0,240.2,0,360.2,0c0,120.1,0,240.2,0,360.2
		C240.4,360.5,120.3,360.5,0.2,360.5z M248.9,73.2c0,0.4,0,0.8,0,1.1c-0.1,3.2-0.2,6.5-0.3,9.7c-0.3,12.7-0.8,25.4-0.9,38.1
		c-0.1,15.1-0.1,30.2,0.2,45.2c0.2,10.4,0.7,20.8,1.4,31.1c1,13.9,3.5,27.5,7.2,40.9c3.8,13.7,8.8,26.9,16.2,39
		c5.9,9.7,13.1,18.2,22.7,24.5c4.4,2.9,9,5.6,14,7.5c1.1,0.4,2.2,0.7,3.4,0.8c1.7,0.2,2.6-0.7,2.5-2.4c-0.1-0.8-0.3-1.7-0.5-2.4
		c-2.1-6.5-3.4-13.2-3.9-20.1c-0.7-9.3-0.2-18.5,0.3-27.8c0.3-5.7,0.8-11.5,1.2-17.2c0-0.3-0.2-0.9-0.4-0.9
		c-1.4-0.4-2.8-0.7-4.3-1.1c-3.1,14.5-6.3,28.9-9.4,43.5c-0.5-0.5-0.8-0.9-1.1-1.2c-7.1-8.2-12.8-17.4-17.3-27.2
		c-8.2-17.9-12.8-36.8-14.9-56.4c-1.4-13.3-2.1-26.6-2.3-40c-0.2-9.8-0.1-19.5-0.1-29.3c0-3.6,0-7.1,0.2-10.7
		c0.4-12.8,0.9-25.6,1.3-38.3c0-1.2,0.3-2.1,1.5-2.7c1.3-0.7,2.5-1.6,3.7-2.4c1.8-1.2,3.6-2.4,5.6-3.7c-6-5.6-11.8-11-17.7-16.6
		c-3.4,3.7-6.6,7.3-9.9,11c-0.5,0.6-1,0.8-1.8,0.8c-46,0-92,0-138,0c-0.7,0-1.4-0.2-2-0.6c-4.9-3.1-9.7-6.2-14.5-9.3
		c-0.3-0.2-0.6-0.3-1-0.6c0,0.5,0,0.9,0,1.2c0.2,7.5,0.5,14.9,0.7,22.4c0.2,12,0.5,24.1,0.5,36.1c0,13.4-0.1,26.8-0.4,40.2
		c-0.2,7.7-0.6,15.5-1.1,23.2c-1,13.7-2.6,27.3-5.2,40.8c-2.1,11.3-4.7,22.4-8.5,33.3c-6.5,18.3-15.8,35.1-26.5,51.1
		c-1.4,2.1-2.8,4.1-4.2,6.2c0.6,0.4,1.2,0.8,1.7,1.2c0.6,0.4,1.2,0.8,1.8,1.2c0.3-0.3,0.6-0.5,0.8-0.7C60,300.6,69.8,288.9,78,276
		c9.1-14.1,16.2-29.1,20-45.5c3.2-13.9,5.4-27.9,7.2-42c1.5-12.7,2.5-25.5,2.5-38.4c0-25,0-50.1,0-75.1c0-0.5,0-1.1,0-1.7
		C154.8,73.2,201.7,73.2,248.9,73.2z"/>
	<path d="M248.9,73.2c-47.2,0-94.2,0-141.3,0c0,0.6,0,1.2,0,1.7c0,25,0,50.1,0,75.1c0,12.8-0.9,25.6-2.5,38.4
		c-1.7,14.1-4,28.2-7.2,42c-3.8,16.4-10.9,31.4-20,45.5c-8.3,12.9-18,24.6-28.6,35.6c-0.2,0.2-0.5,0.4-0.8,0.7
		c-0.6-0.4-1.2-0.8-1.8-1.2c-0.6-0.4-1.1-0.8-1.7-1.2c1.4-2.1,2.9-4.1,4.2-6.2c10.8-16,20.1-32.9,26.5-51.1
		c3.9-10.8,6.4-22,8.5-33.3c2.6-13.5,4.2-27.1,5.2-40.8c0.5-7.7,1-15.5,1.1-23.2c0.3-13.4,0.4-26.8,0.4-40.2c0-12-0.3-24.1-0.5-36.1
		c-0.2-7.5-0.5-14.9-0.7-22.4c0-0.3,0-0.7,0-1.2c0.4,0.2,0.7,0.4,1,0.6c4.8,3.1,9.7,6.2,14.5,9.3c0.6,0.4,1.3,0.6,2,0.6
		c46,0,92,0,138,0c0.8,0,1.3-0.3,1.8-0.8c3.2-3.6,6.5-7.3,9.9-11c5.9,5.5,11.8,11,17.7,16.6c-1.9,1.3-3.8,2.5-5.6,3.7
		c-1.2,0.8-2.4,1.7-3.7,2.4c-1.1,0.6-1.4,1.5-1.5,2.7c-0.4,12.8-0.9,25.6-1.3,38.3c-0.1,3.6-0.2,7.1-0.2,10.7
		c0,9.8-0.1,19.5,0.1,29.3c0.3,13.3,0.9,26.7,2.3,40c2.1,19.6,6.7,38.5,14.9,56.4c4.5,9.9,10.2,19,17.3,27.2
		c0.3,0.4,0.6,0.7,1.1,1.2c3.2-14.6,6.3-29,9.4-43.5c1.5,0.4,2.9,0.7,4.3,1.1c0.2,0.1,0.4,0.6,0.4,0.9c-0.4,5.7-0.8,11.5-1.2,17.2
		c-0.5,9.3-1,18.5-0.3,27.8c0.5,6.8,1.8,13.5,3.9,20.1c0.3,0.8,0.5,1.6,0.5,2.4c0.1,1.7-0.7,2.6-2.5,2.4c-1.1-0.1-2.3-0.4-3.4-0.8
		c-5-1.8-9.6-4.5-14-7.5c-9.6-6.3-16.8-14.8-22.7-24.5c-7.4-12.2-12.4-25.4-16.2-39c-3.7-13.4-6.2-27-7.2-40.9
		c-0.8-10.4-1.3-20.7-1.4-31.1c-0.3-15.1-0.3-30.2-0.2-45.2c0.1-12.7,0.6-25.4,0.9-38.1c0.1-3.2,0.2-6.5,0.3-9.7
		C248.9,74,248.9,73.7,248.9,73.2z"/>
</g>
</svg>
