<?xml version="1.0" encoding="utf-8"?>
<!-- Generator: Adobe Illustrator 20.1.0, SVG Export Plug-In . SVG Version: 6.00 Build 0)  -->
<svg version="1.1" id="图层_1" xmlns="http://www.w3.org/2000/svg" xmlns:xlink="http://www.w3.org/1999/xlink" x="0px" y="0px"
	 viewBox="0 0 360 360" style="enable-background:new 0 0 360 360;" xml:space="preserve">
<style type="text/css">
	.st0{fill:#FFFFFF;}
</style>
<g>
	<path class="st0" d="M0.2,360.5c0-120.1,0-240.2,0-360.2c120.1,0,240.2,0,360.2,0c0,120.1,0,240.2,0,360.2
		C240.4,360.5,120.3,360.5,0.2,360.5z M256,76.8c0,0.6,0,1.2,0,1.7c0,67.6,0,135.2,0,202.8c0,2.2,0.2,4.5,0.5,6.7
		c1.3,7.6,5.5,13.1,13,15.4c3,1,6.2,1.6,9.4,1.7c6.6,0.3,13.2,0.2,19.8,0.1c2.3,0,4.6-0.3,6.9-0.9c7.7-2.1,12.7-7.5,16.4-14.4
		c-3.7-1.1-6.5-3.4-7.9-6.8c-1-2.2-1.7-4.7-2.1-7.1c-1.4-8.9-1.7-18-1.7-27c0-1.3,0-2.5,0-3.9c-2.1,0-4,0-5.9,0
		c0,0.3-0.1,0.4-0.1,0.6c-0.4,8.3-0.7,16.7-1.2,25c-0.3,4.5-0.8,8.9-2.3,13.2c-0.9,2.6-2.1,5-4.3,6.7c-1,0.7-2.2,1.4-3.4,1.5
		c-2.7,0.2-5.5,0.1-8.3,0.1c-5.7-0.1-9.7-3-11.1-8.6c-0.7-2.6-1-5.3-1-7.9c-0.1-64.6,0-129.1,0-193.7c0-0.3-0.1-0.7,0-1
		c0.2-0.5,0.3-1.1,0.7-1.4c2-1.6,4.1-3.1,6.2-4.7c0.8-0.6,1.6-1.2,2.5-1.9c-6-4.8-11.8-9.5-17.7-14.2c-3,3.3-5.8,6.5-8.7,9.8
		c-0.5,0.6-1.1,0.9-1.9,0.9c-13.8,0-27.5,0-41.3,0c-0.6,0-1.3-0.2-1.9-0.5c-4.9-3.1-9.8-6.3-14.7-9.4c-0.3-0.2-0.6-0.3-0.9-0.5
		c-0.1,0.2-0.1,0.3-0.1,0.4c0.1,4.5,0.2,8.9,0.3,13.4c0.2,11.3,0.3,22.6,0.4,33.9c0.1,8.6,0.1,17.3-0.1,25.9
		c-0.2,13.5-0.5,27.1-1,40.6c-0.4,11.8-1.3,23.5-3.4,35.2c-2.4,13.4-6.4,26.4-12.4,38.6c-6.7,13.6-15.9,25.4-26.4,36.1
		c-10.1,10.3-21.2,19.4-32.9,27.9c-1.5,1.1-3.1,2.2-4.6,3.3c1.2,1.2,2.4,2.4,3.6,3.6c2.3-1.1,4.6-2.3,6.9-3.5
		c21.6-11.5,40.5-26.5,55.9-45.6c13.6-16.9,22.4-36,26.1-57.4c1.8-10.3,2.7-20.8,3.4-31.2c1.1-16.9,1.6-33.8,1.8-50.7
		c0.1-5.8,0.1-11.6,0.1-17.4c0-10.6-0.1-21.1-0.1-31.7c0-1.3,0-2.6,0-3.9C227.1,76.8,241.5,76.8,256,76.8z"/>
	<path d="M256,76.8c-14.5,0-28.9,0-43.5,0c0,1.3,0,2.6,0,3.9c0,10.6,0.1,21.1,0.1,31.7c0,5.8-0.1,11.6-0.1,17.4
		c-0.2,16.9-0.6,33.8-1.8,50.7c-0.7,10.5-1.6,20.9-3.4,31.2c-3.8,21.4-12.5,40.5-26.1,57.4c-15.4,19.1-34.3,34.1-55.9,45.6
		c-2.3,1.2-4.7,2.4-6.9,3.5c-1.2-1.2-2.4-2.4-3.6-3.6c1.5-1,3-2.2,4.6-3.3c11.7-8.5,22.8-17.6,32.9-27.9
		c10.6-10.8,19.7-22.5,26.4-36.1c6-12.3,10-25.2,12.4-38.6c2.1-11.6,2.9-23.4,3.4-35.2c0.5-13.5,0.7-27.1,1-40.6
		c0.1-8.6,0.1-17.3,0.1-25.9c-0.1-11.3-0.2-22.6-0.4-33.9c-0.1-4.5-0.2-8.9-0.3-13.4c0-0.1,0-0.2,0.1-0.4c0.3,0.2,0.6,0.3,0.9,0.5
		c4.9,3.2,9.8,6.3,14.7,9.4c0.5,0.3,1.2,0.5,1.9,0.5c13.8,0,27.5,0,41.3,0c0.8,0,1.4-0.3,1.9-0.9c2.8-3.2,5.7-6.5,8.7-9.8
		c5.9,4.7,11.8,9.4,17.7,14.2c-0.9,0.7-1.7,1.3-2.5,1.9c-2.1,1.6-4.2,3.1-6.2,4.7c-0.4,0.3-0.5,0.9-0.7,1.4c-0.1,0.3,0,0.6,0,1
		c0,64.6,0,129.1,0,193.7c0,2.6,0.3,5.4,1,7.9c1.4,5.5,5.4,8.5,11.1,8.6c2.8,0.1,5.5,0.2,8.3-0.1c1.2-0.1,2.4-0.8,3.4-1.5
		c2.2-1.7,3.4-4.1,4.3-6.7c1.5-4.3,2.1-8.7,2.3-13.2c0.5-8.3,0.8-16.7,1.2-25c0-0.2,0-0.4,0.1-0.6c1.9,0,3.8,0,5.9,0
		c0,1.3,0,2.6,0,3.9c0.1,9,0.3,18.1,1.7,27c0.4,2.4,1.1,4.8,2.1,7.1c1.5,3.4,4.2,5.7,7.9,6.8c-3.8,6.9-8.7,12.3-16.4,14.4
		c-2.2,0.6-4.6,0.9-6.9,0.9c-6.6,0.1-13.2,0.2-19.8-0.1c-3.2-0.1-6.4-0.8-9.4-1.7c-7.5-2.4-11.7-7.8-13-15.4
		c-0.4-2.2-0.5-4.4-0.5-6.7c0-67.6,0-135.2,0-202.8C256,77.9,256,77.4,256,76.8z"/>
</g>
</svg>
