<?xml version="1.0" encoding="utf-8"?>
<!-- Generator: Adobe Illustrator 20.1.0, SVG Export Plug-In . SVG Version: 6.00 Build 0)  -->
<svg version="1.1" id="图层_1" xmlns="http://www.w3.org/2000/svg" xmlns:xlink="http://www.w3.org/1999/xlink" x="0px" y="0px"
	 viewBox="0 0 360 360" style="enable-background:new 0 0 360 360;" xml:space="preserve">
<style type="text/css">
	.st0{fill:#FFFFFF;}
</style>
<g>
	<path class="st0" d="M0.2,360.5c0-120.1,0-240.2,0-360.2c120.1,0,240.2,0,360.2,0c0,120.1,0,240.2,0,360.2
		C240.4,360.5,120.3,360.5,0.2,360.5z M223,79.1c0,0.7,0,1.2,0,1.8c0,62,0,124,0.1,186c0,3.8,0.4,7.6,1.2,11.3
		c1.8,8.2,6.5,14.1,14.5,16.9c3.9,1.4,8,1.9,12.1,1.9c13.2,0,26.3,0.1,39.5,0c8.7-0.1,16.5-2.8,23.1-8.5c3.4-2.9,6.2-6.4,8.5-10.2
		c-0.1-0.1-0.1-0.2-0.1-0.2c-0.6-0.4-1.1-0.9-1.7-1.3c-6.2-4.8-10.8-10.7-12.2-18.5c-1.1-5.9-1.7-11.9-2.2-17.8
		c-0.6-7.5-0.9-15-1.3-22.5c0-0.7-0.1-1.5-0.2-2.2c-2,0-3.9,0-5.8,0c-0.1,0.5-0.1,0.9-0.1,1.4c-0.1,3-0.1,6.1-0.3,9.1
		c-0.8,12.9-1.6,25.8-2.4,38.8c-0.2,3.5-0.8,7-2.3,10.2c-1.5,3.2-3.7,5.5-7.2,6.2c-1.5,0.3-3.1,0.2-4.6,0.2c-7.1,0-14.2,0-21.2,0
		c-1.8,0-3.6-0.1-5.4-0.4c-7.2-1-11.7-5.1-13.4-12.2c-0.8-3.3-0.6-6.7-0.6-10c0-57.6,0-115.2,0-172.8c0-0.9,0.2-1.5,1-2.1
		c3.6-2.4,7.1-5,10.8-7.5c-6.7-5.5-13.4-11-20.1-16.5c-3.3,3.7-6.6,7.3-9.8,10.9c-0.6,0.7-1.2,1-2.1,1c-26.2,0-52.5,0-78.7,0
		c-0.8,0-1.6-0.2-2.2-0.6c-6.3-3.5-12.6-7-19-10.5c-0.4-0.2-0.7-0.4-1.2-0.6c0,0.4-0.1,0.5,0,0.7c0.2,4.4,0.5,8.9,0.6,13.3
		c0.4,13.6,0.9,27.2,1.1,40.7c0.2,11.3,0.1,22.6,0.1,34c0,12.5-0.4,25-1.6,37.5c-1.3,13.5-3.5,26.9-7.1,40
		c-3.3,12.1-7.5,23.8-13.8,34.8c-8.4,14.7-19.3,27.4-31.7,38.8c-5.3,4.9-10.9,9.4-16.4,14c-0.3,0.3-0.8,0.7-0.7,1
		c0.3,1.5,0.7,2.9,1.1,4.4c0.3-0.1,0.4-0.1,0.5-0.2c15.2-9.1,29.8-18.9,43-30.8c7.7-7,14.9-14.6,20.2-23.6
		c9.7-16.3,15.8-34,19.1-52.6c2.3-13,3.1-26.1,3.8-39.2c0.5-11.3,0.9-22.6,1.2-33.9c0.3-11,0.4-22,0.5-33c0.1-8.5,0-17,0.1-25.6
		c0-0.4,0-0.8,0.1-1.3C167.4,79.1,195.1,79.1,223,79.1z"/>
	<path d="M223,79.1c-27.9,0-55.6,0-83.5,0c0,0.4-0.1,0.9-0.1,1.3c0,8.5,0,17-0.1,25.6c-0.1,11-0.2,22-0.5,33
		c-0.3,11.3-0.7,22.6-1.2,33.9c-0.6,13.1-1.5,26.3-3.8,39.2c-3.3,18.6-9.5,36.3-19.1,52.6c-5.4,9-12.5,16.6-20.2,23.6
		c-13.2,11.9-27.8,21.7-43,30.8c-0.1,0.1-0.2,0.1-0.5,0.2c-0.4-1.5-0.8-2.9-1.1-4.4c-0.1-0.3,0.4-0.7,0.7-1
		c5.5-4.7,11.1-9.2,16.4-14c12.4-11.4,23.2-24.1,31.7-38.8c6.3-10.9,10.5-22.7,13.8-34.8c3.5-13.1,5.7-26.5,7.1-40
		c1.2-12.5,1.7-25,1.6-37.5c0-11.3,0.1-22.6-0.1-34c-0.2-13.6-0.7-27.2-1.1-40.7c-0.1-4.4-0.4-8.9-0.6-13.3c0-0.2,0-0.4,0-0.7
		c0.5,0.2,0.8,0.4,1.2,0.6c6.3,3.5,12.6,7,19,10.5c0.7,0.4,1.5,0.6,2.2,0.6c26.2,0,52.5,0,78.7,0c0.9,0,1.5-0.3,2.1-1
		c3.2-3.6,6.5-7.2,9.8-10.9c6.7,5.5,13.4,11,20.1,16.5c-3.7,2.6-7.2,5.1-10.8,7.5c-0.8,0.5-1,1.1-1,2.1c0,57.6,0,115.2,0,172.8
		c0,3.4-0.2,6.7,0.6,10c1.7,7,6.2,11.2,13.4,12.2c1.8,0.2,3.6,0.4,5.4,0.4c7.1,0,14.2,0,21.2,0c1.6,0,3.1,0.1,4.6-0.2
		c3.5-0.7,5.8-3.1,7.2-6.2c1.5-3.2,2.1-6.7,2.3-10.2c0.9-12.9,1.6-25.8,2.4-38.8c0.2-3,0.2-6.1,0.3-9.1c0-0.4,0.1-0.9,0.1-1.4
		c1.9,0,3.8,0,5.8,0c0.1,0.7,0.2,1.5,0.2,2.2c0.4,7.5,0.7,15,1.3,22.5c0.5,6,1.2,11.9,2.2,17.8c1.4,7.8,6,13.7,12.2,18.5
		c0.6,0.4,1.1,0.9,1.7,1.3c0,0,0,0.1,0.1,0.2c-2.2,3.8-5,7.3-8.5,10.2c-6.7,5.7-14.5,8.4-23.1,8.5c-13.2,0.1-26.3,0-39.5,0
		c-4.1,0-8.2-0.5-12.1-1.9c-8.1-2.9-12.8-8.8-14.5-16.9c-0.8-3.7-1.2-7.5-1.2-11.3c-0.1-62-0.1-124-0.1-186
		C223,80.3,223,79.8,223,79.1z"/>
</g>
</svg>
