<?xml version="1.0" encoding="utf-8"?>
<!-- Generator: Adobe Illustrator 20.1.0, SVG Export Plug-In . SVG Version: 6.00 Build 0)  -->
<svg version="1.1" id="图层_1" xmlns="http://www.w3.org/2000/svg" xmlns:xlink="http://www.w3.org/1999/xlink" x="0px" y="0px"
	 viewBox="0 0 360 360" style="enable-background:new 0 0 360 360;" xml:space="preserve">
<style type="text/css">
	.st0{fill:#FFFFFF;}
</style>
<g>
	<path class="st0" d="M0.2,360.5c0-120.1,0-240.2,0-360.2c120.1,0,240.2,0,360.2,0c0,120.1,0,240.2,0,360.2
		C240.4,360.5,120.3,360.5,0.2,360.5z M253.7,214.6c0,0.6,0,1,0,1.5c0,15.4,0,30.8,0,46.2c0,1.2-0.1,2.4-0.2,3.6
		c-0.6,4.8-3.7,7.7-8.5,7.4c-8.2-0.5-16.4-1.4-24.6-2.2c-3-0.3-6-0.8-9.1-1.2c-0.4,1.6-0.8,3.2-1.2,4.7c3,1.2,5.8,2.2,8.6,3.4
		c6.5,2.7,12.8,5.7,18.3,10.2c3.6,2.9,6.5,6.2,7.3,11c0,0.1,0.1,0.1,0.2,0.1c0,0.1,0.1,0.2,0.1,0.3c3.4-1.7,6.9-3.2,10.1-5.2
		c9.6-5.9,14.5-14.4,14.4-25.9c-0.2-16.1-0.1-32.2-0.1-48.4c0-0.5,0.3-1.1,0.7-1.4c2.8-2.3,5.7-4.5,8.6-6.7c0.4-0.3,0.8-0.7,1.3-1.1
		c-6.8-4.8-13.4-9.5-20.1-14.2c-2.5,3.2-4.9,6.3-7.3,9.4c-0.7,0.9-1.4,1.2-2.5,1.2c-60.6,0-121.1,0-181.7,0c-0.5,0-1,0-1.7,0
		c0.4,0.4,0.6,0.7,0.8,0.9c3,3,6,6,9,9c0.6,0.6,1.1,0.7,1.9,0.5c7.5-2,15-3.1,22.7-3.2c12.6-0.1,25.1-0.1,37.7-0.1
		c0.3,0,0.5,0.1,0.9,0.1c0,0.6,0,1.1,0,1.6c0,24.4,0.1,48.8,0,73.2c0,7.1-0.5,14.1-0.8,21.2c-0.1,1.7-0.2,3.4-0.3,5.2
		c5.7-2.3,11.2-4.5,16.7-6.7c0.8-0.3,0.9-0.7,0.9-1.5c-0.4-6.3-1-12.7-1-19c-0.1-24.2,0-48.5,0-72.7c0-0.4,0-0.9,0-1.3
		C187.8,214.6,220.6,214.6,253.7,214.6z"/>
	<path d="M253.7,214.6c-33,0-65.9,0-98.9,0c0,0.5,0,0.9,0,1.3c0,24.2-0.1,48.5,0,72.7c0,6.3,0.6,12.7,1,19c0.1,0.8-0.1,1.2-0.9,1.5
		c-5.5,2.2-11,4.4-16.7,6.7c0.1-1.8,0.2-3.5,0.3-5.2c0.3-7.1,0.8-14.1,0.8-21.2c0.1-24.4,0-48.8,0-73.2c0-0.5,0-1,0-1.6
		c-0.3,0-0.6-0.1-0.9-0.1c-12.6,0-25.1-0.1-37.7,0.1c-7.7,0.1-15.3,1.2-22.7,3.2c-0.8,0.2-1.3,0.1-1.9-0.5c-3-3-6-6-9-9
		c-0.2-0.2-0.4-0.5-0.8-0.9c0.7,0,1.2,0,1.7,0c60.6,0,121.1,0,181.7,0c1.1,0,1.8-0.3,2.5-1.2c2.4-3.2,4.8-6.3,7.3-9.4
		c6.7,4.7,13.3,9.4,20.1,14.2c-0.5,0.4-0.9,0.7-1.3,1.1c-2.9,2.2-5.8,4.5-8.6,6.7c-0.4,0.3-0.7,0.9-0.7,1.4
		c0,16.1-0.1,32.2,0.1,48.4c0.1,11.5-4.8,20-14.4,25.9c-3.2,2-6.7,3.5-10.1,5.2c0-0.1-0.1-0.2-0.1-0.3c-0.1,0-0.2-0.1-0.2-0.1
		c-0.8-4.8-3.8-8.1-7.3-11c-5.5-4.4-11.8-7.4-18.3-10.2c-2.8-1.2-5.6-2.2-8.6-3.4c0.4-1.5,0.8-3.1,1.2-4.7c3.1,0.4,6.1,0.9,9.1,1.2
		c8.2,0.8,16.4,1.7,24.6,2.2c4.9,0.3,7.9-2.6,8.5-7.4c0.2-1.2,0.2-2.4,0.2-3.6c0-15.4,0-30.8,0-46.2
		C253.7,215.6,253.7,215.2,253.7,214.6z"/>
</g>
</svg>
