<?xml version="1.0" encoding="utf-8"?>
<!-- Generator: Adobe Illustrator 20.1.0, SVG Export Plug-In . SVG Version: 6.00 Build 0)  -->
<svg version="1.1" id="图层_1" xmlns="http://www.w3.org/2000/svg" xmlns:xlink="http://www.w3.org/1999/xlink" x="0px" y="0px"
	 viewBox="0 0 360 360" style="enable-background:new 0 0 360 360;" xml:space="preserve">
<style type="text/css">
	.st0{fill:#FFFFFF;}
</style>
<g>
	<path class="st0" d="M0.2,360.5c0-120.1,0-240.2,0-360.2c120.1,0,240.2,0,360.2,0c0,120.1,0,240.2,0,360.2
		C240.4,360.5,120.3,360.5,0.2,360.5z M196.2,318.1c0.3-0.1,0.7-0.3,1-0.4c5-2.3,10-4.7,15-7c1.1-0.5,1.5-1.1,1.5-2.3
		c0-72.7,0-145.4,0-218.1c0-0.5,0-1.1,0-1.6c22.5,0,44.8,0,67.2,0c0,0.6,0,1.1,0,1.6c0,43.9,0,87.8,0,131.7c0,1,0,2.1,0,3.1
		c-0.4,6.5-3.1,11-10.8,10.6c-7.9-0.4-15.8-1-23.7-1.6c-2.6-0.2-5.2-0.5-7.9-0.8c-0.4,1.6-0.8,3.2-1.2,4.7c0.7,0.2,1.2,0.3,1.7,0.5
		c7.7,2.2,15.3,4.6,22.3,8.6c2,1.2,3.9,2.5,5.7,4c3.3,2.7,5.5,6,5.7,10.8c3.4-1.8,6.6-3.4,9.5-5.3c6.7-4.2,11.6-10,13.9-17.7
		c1.2-4.2,1.3-8.4,1.3-12.7c0-44.1,0-88.2-0.1-132.2c0-1.5,0.4-2.5,1.6-3.4c2.7-2.2,5.2-4.5,7.9-6.9c-6.7-5.2-13.4-10.2-20.1-15.4
		c-2.6,4.1-5.2,8.1-7.7,12.1c-0.4,0.7-0.9,1-1.7,1c-21.3,0-42.6,0-63.8,0c-0.6,0-1.3-0.2-1.8-0.5c-4.9-3.1-9.8-6.3-14.7-9.4
		c-0.3-0.2-0.6-0.3-1-0.5c0,0.3,0,0.5,0,0.7c0.4,10,1,20,1,30c0.1,61.7,0.1,123.3,0,185c0,8.4-0.6,16.8-0.8,25.2
		C196.2,313.8,196.2,315.9,196.2,318.1z"/>
	<path d="M196.2,318.1c0-2.2-0.1-4.3,0-6.3c0.3-8.4,0.8-16.8,0.8-25.2c0.1-61.7,0.1-123.3,0-185c0-10-0.7-20-1-30c0-0.2,0-0.4,0-0.7
		c0.4,0.2,0.7,0.4,1,0.5c4.9,3.2,9.8,6.3,14.7,9.4c0.5,0.3,1.2,0.5,1.8,0.5c21.3,0,42.6,0,63.8,0c0.8,0,1.3-0.3,1.7-1
		c2.5-4,5-8,7.7-12.1c6.7,5.1,13.3,10.2,20.1,15.4c-2.7,2.4-5.2,4.7-7.9,6.9c-1.2,1-1.6,1.9-1.6,3.4c0,44.1,0,88.2,0.1,132.2
		c0,4.3,0,8.5-1.3,12.7c-2.3,7.7-7.3,13.4-13.9,17.7c-3,1.9-6.2,3.4-9.5,5.3c-0.2-4.8-2.4-8.1-5.7-10.8c-1.8-1.5-3.7-2.8-5.7-4
		c-7-4-14.6-6.5-22.3-8.6c-0.5-0.2-1.1-0.3-1.7-0.5c0.4-1.6,0.8-3.1,1.2-4.7c2.7,0.3,5.3,0.6,7.9,0.8c7.9,0.6,15.8,1.2,23.7,1.6
		c7.7,0.4,10.5-4,10.8-10.6c0.1-1,0-2.1,0-3.1c0-43.9,0-87.8,0-131.7c0-0.5,0-1,0-1.6c-22.4,0-44.7,0-67.2,0c0,0.6,0,1.1,0,1.6
		c0,72.7,0,145.4,0,218.1c0,1.2-0.3,1.8-1.5,2.3c-5,2.3-10,4.6-15,7C196.9,317.8,196.5,317.9,196.2,318.1z"/>
</g>
</svg>
