<?xml version="1.0" encoding="utf-8"?>
<!-- Generator: Adobe Illustrator 20.1.0, SVG Export Plug-In . SVG Version: 6.00 Build 0)  -->
<svg version="1.1" id="图层_1" xmlns="http://www.w3.org/2000/svg" xmlns:xlink="http://www.w3.org/1999/xlink" x="0px" y="0px"
	 viewBox="0 0 360 360" style="enable-background:new 0 0 360 360;" xml:space="preserve">
<style type="text/css">
	.st0{fill:#FFFFFF;}
</style>
<g>
	<path class="st0" d="M0.2,360.5c0-120.1,0-240.2,0-360.2c120.1,0,240.2,0,360.2,0c0,120.1,0,240.2,0,360.2
		C240.4,360.5,120.3,360.5,0.2,360.5z M246.8,206.2c0.3-0.1,0.6-0.2,0.9-0.3c3.7-1.6,7.5-3.1,11.1-4.8c11.6-5.7,18.4-14.9,19.6-27.8
		c0.8-8.3,1.4-16.6,1.7-24.9c0.4-11.2,0.5-22.4,0.6-33.6c0.1-10.4,0.2-20.9,0-31.3c-0.1-3.3,0.7-5.6,3.4-7.4c2.2-1.5,4-3.5,6.1-5.3
		c-6.8-5.2-13.4-10.2-20.1-15.4c-2.9,4-5.7,7.8-8.5,11.8c-0.6,0.9-1.3,1.3-2.4,1.3c-60.2,0-120.4,0-180.6,0c-0.5,0-1,0-1.7,0
		c3.4,3.4,6.7,6.7,9.9,9.9c0.6,0.6,1.1,0.7,1.9,0.5c8.1-2.1,16.4-3.2,24.8-3.2c16.4-0.1,32.9,0,49.3,0c0.4,0,0.9,0,1.4,0
		c0,67.6,0,135,0,202.5c5.6,0,11,0,16.6,0c0-67.5,0-135,0-202.4c27.9,0,55.7,0,83.5,0c0,0.6,0,1,0,1.5c-0.1,15.9-0.1,31.8-0.3,47.7
		c-0.2,11.7-0.5,23.5-1,35.2c-0.2,3.8-1.1,7.6-1.8,11.3c-0.7,3.5-3,5.7-6.3,6.5c-2.4,0.6-5,1.2-7.4,1c-10.6-0.8-21.1-1.8-31.6-2.8
		c-1.9-0.2-3.8-0.4-5.8-0.6c0,1.8,0.1,3.3,0,4.9c0,0.9,0.3,1.1,1.1,1.4c4.7,1.6,9.4,3.1,14,4.9c5.4,2.1,10.6,4.7,15.1,8.4
		c2.6,2.1,4.8,4.5,5.8,7.8C246.4,203.9,246.5,205,246.8,206.2z"/>
	<path d="M246.8,206.2c-0.2-1.2-0.4-2.3-0.7-3.3c-1-3.2-3.2-5.7-5.8-7.8c-4.5-3.7-9.7-6.3-15.1-8.4c-4.6-1.8-9.3-3.3-14-4.9
		c-0.7-0.3-1.1-0.5-1.1-1.4c0.1-1.5,0-3.1,0-4.9c2,0.2,3.9,0.5,5.8,0.6c10.5,1,21.1,2,31.6,2.8c2.4,0.2,5-0.3,7.4-1
		c3.3-0.9,5.6-3.1,6.3-6.5c0.7-3.8,1.6-7.5,1.8-11.3c0.5-11.7,0.9-23.5,1-35.2c0.2-15.9,0.2-31.8,0.3-47.7c0-0.5,0-1,0-1.5
		c-27.8,0-55.6,0-83.5,0c0,67.4,0,134.9,0,202.4c-5.6,0-11,0-16.6,0c0-67.5,0-134.9,0-202.5c-0.5,0-1,0-1.4,0c-16.4,0-32.9,0-49.3,0
		c-8.4,0-16.7,1.1-24.8,3.2c-0.8,0.2-1.3,0.1-1.9-0.5c-3.2-3.2-6.4-6.5-9.9-9.9c0.8,0,1.3,0,1.7,0c60.2,0,120.4,0,180.6,0
		c1.1,0,1.8-0.4,2.4-1.3c2.8-3.9,5.6-7.8,8.5-11.8c6.7,5.1,13.3,10.2,20.1,15.4c-2.1,1.8-4,3.8-6.1,5.3c-2.7,1.9-3.5,4.2-3.4,7.4
		c0.2,10.4,0.1,20.9,0,31.3c-0.1,11.2-0.2,22.4-0.6,33.6c-0.3,8.3-0.9,16.6-1.7,24.9c-1.3,12.9-8,22.2-19.6,27.8
		c-3.6,1.8-7.4,3.2-11.1,4.8C247.4,206,247.1,206.1,246.8,206.2z"/>
</g>
</svg>
