<?xml version="1.0" encoding="utf-8"?>
<!-- Generator: Adobe Illustrator 20.1.0, SVG Export Plug-In . SVG Version: 6.00 Build 0)  -->
<svg version="1.1" id="图层_1" xmlns="http://www.w3.org/2000/svg" xmlns:xlink="http://www.w3.org/1999/xlink" x="0px" y="0px"
	 viewBox="0 0 360 360" style="enable-background:new 0 0 360 360;" xml:space="preserve">
<style type="text/css">
	.st0{fill:#FFFFFF;}
</style>
<g>
	<path class="st0" d="M0.2,360.5c0-120.1,0-240.2,0-360.2c120.1,0,240.2,0,360.2,0c0,120.1,0,240.2,0,360.2
		C240.4,360.5,120.3,360.5,0.2,360.5z M236,317c4.8-1.9,9.2-4.1,13.3-7.1c5.6-4.1,9.8-9.3,11.7-16.2c1-3.6,1-7.3,1-11.1
		c0-40.3,0-80.6,0-120.8c0-0.2-0.1-0.4,0-0.6c0.2-0.5,0.4-1.1,0.8-1.4c1.5-1.1,3.1-2.2,4.6-3.3c2.1-1.5,4.2-3,6.5-4.5
		c-6.8-5.2-13.4-10.3-20.1-15.4c-3.4,3.8-6.6,7.4-10,11c-0.4,0.4-1.1,0.8-1.6,0.8c-34.8,0-69.6,0-104.4,0c-0.6,0-1.2-0.2-1.7-0.4
		c-4.4-2.1-8.8-4.2-13.2-6.3c-0.7-0.4-1.5-0.7-2.3-1c-0.4,59.2,0.7,118.2-1.2,177.4c0.7-0.3,1.1-0.5,1.5-0.7c5-2.7,10-5.4,15-8
		c1-0.5,1.3-1.1,1.3-2.2c0-50,0-99.9,0-149.9c0-0.5,0-1.1,0-1.7c36.2,0,72.2,0,108.3,0c0,0.5,0,0.9,0,1.4c0,38.9,0,77.8,0,116.6
		c0,3.4-0.4,6.7-1.5,9.9c-1.4,4-3.9,6.8-8.4,7.4c-1.7,0.2-3.4,0.3-5,0.3c-7.8-0.2-15.5-1.1-23.3-2.2c-3.3-0.5-6.6-1-10.1-1.5
		c0,1.6,0.1,3.2,0,4.7c0,0.9,0.3,1.3,1.1,1.6c6.6,2.3,13.2,4.6,19.7,7.2c5.1,2,10,4.7,14.1,8.5C234.1,311.4,235.9,313.7,236,317z"/>
	<path d="M236,317c-0.2-3.3-1.9-5.6-4-7.6c-4.1-3.8-9-6.4-14.1-8.5c-6.5-2.6-13.1-4.8-19.7-7.2c-0.9-0.3-1.2-0.6-1.1-1.6
		c0.1-1.5,0-3.1,0-4.7c3.5,0.5,6.8,1,10.1,1.5c7.7,1.1,15.5,2.1,23.3,2.2c1.7,0,3.4-0.1,5-0.3c4.5-0.6,7-3.4,8.4-7.4
		c1.1-3.2,1.5-6.5,1.5-9.9c0-38.9,0-77.8,0-116.6c0-0.4,0-0.9,0-1.4c-36.1,0-72.2,0-108.3,0c0,0.6,0,1.2,0,1.7c0,50,0,99.9,0,149.9
		c0,1.1-0.3,1.7-1.3,2.2c-5,2.6-10,5.3-15,8c-0.4,0.2-0.8,0.4-1.5,0.7c2-59.2,0.9-118.3,1.2-177.4c0.8,0.4,1.5,0.7,2.3,1
		c4.4,2.1,8.8,4.2,13.2,6.3c0.5,0.2,1.1,0.4,1.7,0.4c34.8,0,69.6,0,104.4,0c0.5,0,1.2-0.3,1.6-0.8c3.3-3.6,6.6-7.3,10-11
		c6.7,5.1,13.3,10.2,20.1,15.4c-2.2,1.6-4.3,3-6.5,4.5c-1.5,1.1-3.1,2.1-4.6,3.3c-0.4,0.3-0.5,0.9-0.8,1.4c-0.1,0.2,0,0.4,0,0.6
		c0,40.3,0,80.6,0,120.8c0,3.7,0,7.4-1,11.1c-1.9,6.9-6.1,12-11.7,16.2C245.2,313,240.8,315.2,236,317z"/>
</g>
</svg>
