<?xml version="1.0" encoding="utf-8"?>
<!-- Generator: Adobe Illustrator 20.1.0, SVG Export Plug-In . SVG Version: 6.00 Build 0)  -->
<svg version="1.1" id="图层_1" xmlns="http://www.w3.org/2000/svg" xmlns:xlink="http://www.w3.org/1999/xlink" x="0px" y="0px"
	 viewBox="0 0 360 360" style="enable-background:new 0 0 360 360;" xml:space="preserve">
<style type="text/css">
	.st0{fill:#FFFFFF;}
</style>
<g>
	<path class="st0" d="M0.2,360.5c0-120.1,0-240.2,0-360.2c120.1,0,240.2,0,360.2,0c0,120.1,0,240.2,0,360.2
		C240.4,360.5,120.3,360.5,0.2,360.5z M265.4,116.8c0,0.6,0,1,0,1.5c0,14.8,0,29.7,0,44.5c0,35.6,0.1,71.1,0.1,106.7
		c0,3.8-0.3,7.5-1.8,11c-1.6,3.8-4.5,6-8.8,5.8c-11.7-0.6-23.3-1.2-35-1.8c-2.5-0.1-5-0.3-7.5-0.5c0,1.6,0,3.1,0,4.7
		c0.4,0.1,0.8,0.2,1.2,0.3c4.9,1.3,9.8,2.4,14.6,3.8c6.3,1.9,12.4,4.5,17.8,8.5c4.1,3.1,7.4,6.9,8.5,12.1c0.2,0.8,0.3,1.6,0.5,2.8
		c3.6-1.9,7.1-3.4,10.3-5.4c6.6-4,11.6-9.6,14.4-16.9c1.9-5.1,2.3-10.4,2.3-15.8c-0.1-52.2,0-104.5,0-156.7c0-0.7,0.2-1.2,0.8-1.6
		c2.6-2,5.3-4.1,7.9-6.1c0.6-0.5,1.3-1,2-1.6c-6.7-5.2-13.4-10.2-20-15.3c-0.3,0.3-0.5,0.5-0.7,0.8c-3,3.6-6,7.2-8.9,10.9
		c-0.8,1-1.6,1.4-2.9,1.4c-33.5,0-67,0-100.4,0c-20.1,0-40.2,0-60.2,0c-0.7,0-1.6-0.3-2.2-0.7c-5.2-3.4-10.4-6.9-15.6-10.3
		c-0.3-0.2-0.6-0.4-1.1-0.7c1.7,36.8,1,73.4,1,110.1c0,36.7,0.6,73.4-1.1,110.2c0.6-0.3,0.8-0.4,1.1-0.5c5.1-2.7,10.2-5.5,15.3-8.1
		c1-0.5,1.4-1.1,1.4-2.3c0-62.9,0-125.8,0-188.7c0-0.5,0-1.1,0-1.7C154,116.8,209.6,116.8,265.4,116.8z"/>
	<path d="M265.4,116.8c-55.8,0-111.4,0-167.2,0c0,0.6,0,1.2,0,1.7c0,62.9,0,125.8,0,188.7c0,1.2-0.3,1.7-1.4,2.3
		c-5.1,2.7-10.2,5.4-15.3,8.1c-0.2,0.1-0.5,0.2-1.1,0.5c1.8-36.8,1.2-73.5,1.1-110.2c0-36.6,0.7-73.3-1-110.1
		c0.4,0.3,0.8,0.5,1.1,0.7c5.2,3.5,10.4,6.9,15.6,10.3c0.6,0.4,1.5,0.7,2.2,0.7c20.1,0,40.2,0,60.2,0c33.5,0,67,0,100.4,0
		c1.3,0,2.1-0.3,2.9-1.4c2.9-3.7,5.9-7.3,8.9-10.9c0.2-0.2,0.4-0.5,0.7-0.8c6.7,5.1,13.3,10.2,20,15.3c-0.7,0.6-1.3,1.1-2,1.6
		c-2.6,2-5.2,4.1-7.9,6.1c-0.6,0.4-0.8,0.9-0.8,1.6c0,52.2,0,104.5,0,156.7c0,5.4-0.3,10.7-2.3,15.8c-2.8,7.4-7.8,12.9-14.4,16.9
		c-3.3,2-6.8,3.6-10.3,5.4c-0.2-1.2-0.3-2-0.5-2.8c-1.1-5.2-4.4-9-8.5-12.1c-5.3-4-11.4-6.6-17.8-8.5c-4.8-1.4-9.7-2.6-14.6-3.8
		c-0.4-0.1-0.8-0.2-1.2-0.3c0-1.6,0-3.1,0-4.7c2.6,0.2,5,0.4,7.5,0.5c11.7,0.6,23.3,1.2,35,1.8c4.3,0.2,7.1-1.9,8.8-5.8
		c1.5-3.5,1.8-7.3,1.8-11c0-35.6-0.1-71.1-0.1-106.7c0-14.8,0-29.7,0-44.5C265.4,117.8,265.4,117.4,265.4,116.8z"/>
</g>
</svg>
