<?xml version="1.0" encoding="utf-8"?>
<!-- Generator: Adobe Illustrator 20.1.0, SVG Export Plug-In . SVG Version: 6.00 Build 0)  -->
<svg version="1.1" id="图层_1" xmlns="http://www.w3.org/2000/svg" xmlns:xlink="http://www.w3.org/1999/xlink" x="0px" y="0px"
	 viewBox="0 0 360 360" style="enable-background:new 0 0 360 360;" xml:space="preserve">
<style type="text/css">
	.st0{fill:#FFFFFF;}
</style>
<g>
	<path class="st0" d="M0.2,360.5c0-120.1,0-240.2,0-360.2c120.1,0,240.2,0,360.2,0c0,120.1,0,240.2,0,360.2
		C240.4,360.5,120.3,360.5,0.2,360.5z M290.3,218c-7.2-5.6-14.2-11-21.3-16.5c-0.3,0.4-0.6,0.7-0.8,1c-2.6,3.3-5.3,6.5-7.9,9.8
		c-0.6,0.7-1.2,1-2.1,1c-26.9,0-53.8,0-80.8,0c-0.4,0-0.9,0-1.4,0c0-0.3,0-0.5,0-0.7c1.1-5.8,2.2-11.7,3.3-17.5
		c0.1-0.4,0.4-0.8,0.7-1c1.8-1.2,3.6-2.3,5.5-3.5c1.1-0.7,2.1-1.3,3.3-2.1c-9.2-4.4-18.1-8.7-27.2-13c-0.8,12.7-1.9,25.2-3.6,37.8
		c-28.6,0-57.2,0-86,0c3.4,3.3,6.5,6.4,9.6,9.6c0.7,0.7,1.3,0.9,2.3,0.6c8.1-2.2,16.3-3.2,24.7-3.2c15.6-0.1,31.2,0,46.8,0
		c0.4,0,0.9,0,1.4,0c-0.1,0.4-0.1,0.6-0.2,0.9c-2.5,9.3-5.8,18.2-10.3,26.6c-5.7,10.6-12.8,20.2-21.9,28.2
		c-7.9,6.9-16.9,12.2-26.2,17c-13,6.6-26.6,12-40.3,16.8c-2.3,0.8-4.7,1.6-7.1,2.4c0.4,1.6,0.8,3.2,1.2,4.7c0.5-0.1,0.8-0.2,1.2-0.3
		c11.7-3.1,23.4-6.5,34.8-10.5c13.2-4.6,26.1-9.9,38.3-16.8c13.1-7.4,24-17.1,32.1-29.9c7.4-11.7,12.3-24.5,15.7-37.9
		c0.2-0.9,0.6-1.3,1.6-1.2c28.2,0,56.3,0,84.5,0c0.4,0,0.8,0,1.4,0.1c-0.2,1.7-0.4,3.2-0.5,4.8c-1.5,13.9-4,27.7-7.8,41.2
		c-1.5,5.2-3.3,10.4-6.4,14.9c-3,4.3-6.9,6.3-12.2,5.4c-10.3-1.8-20.6-3.4-30.8-5.1c-2-0.3-3.9-0.7-5.9-1.1c-0.4,2.1-0.8,4-1.2,5.9
		c1,0.4,1.9,0.8,2.9,1.1c7.4,3,14.6,6.2,21,10.9c2,1.5,3.9,3.2,5.7,5c2.7,2.8,4.5,6.1,4.7,10.2c2.2-0.6,4.2-1.2,6.2-1.8
		c11.9-4,21.1-11.4,26.2-23.1c2.6-6,4.5-12.3,6.2-18.6c4-14.4,6.4-29.2,8.4-44c0.1-0.7,0.4-1.1,1-1.5
		C282.9,222.5,286.5,220.3,290.3,218z"/>
	<path d="M290.3,218c-3.8,2.3-7.4,4.4-11,6.6c-0.6,0.4-0.9,0.7-1,1.5c-2,14.8-4.4,29.6-8.4,44c-1.8,6.3-3.6,12.6-6.2,18.6
		c-5,11.7-14.2,19-26.2,23.1c-2,0.7-4,1.2-6.2,1.8c-0.2-4.1-1.9-7.5-4.7-10.2c-1.8-1.8-3.7-3.5-5.7-5c-6.4-4.7-13.7-7.9-21-10.9
		c-0.9-0.4-1.8-0.7-2.9-1.1c0.4-2,0.8-3.9,1.2-5.9c2,0.4,4,0.8,5.9,1.1c10.3,1.7,20.6,3.4,30.8,5.1c5.3,0.9,9.3-1,12.2-5.4
		c3.1-4.6,4.9-9.7,6.4-14.9c3.8-13.5,6.2-27.2,7.8-41.2c0.2-1.5,0.3-3.1,0.5-4.8c-0.5,0-1-0.1-1.4-0.1c-28.2,0-56.3,0-84.5,0
		c-1,0-1.4,0.3-1.6,1.2c-3.4,13.4-8.3,26.1-15.7,37.9c-8.1,12.8-19,22.5-32.1,29.9c-12.2,6.9-25.1,12.2-38.3,16.8
		c-11.5,4-23.1,7.4-34.8,10.5c-0.3,0.1-0.7,0.2-1.2,0.3c-0.4-1.6-0.8-3.1-1.2-4.7c2.4-0.8,4.7-1.6,7.1-2.4
		c13.8-4.8,27.3-10.2,40.3-16.8c9.3-4.8,18.3-10,26.2-17c9.1-8,16.2-17.5,21.9-28.2c4.5-8.5,7.9-17.4,10.3-26.6
		c0.1-0.2,0.1-0.5,0.2-0.9c-0.5,0-0.9,0-1.4,0c-15.6,0-31.2-0.1-46.8,0c-8.3,0-16.6,1-24.7,3.2c-1,0.3-1.6,0.1-2.3-0.6
		c-3.1-3.2-6.3-6.3-9.6-9.6c28.8,0,57.3,0,86,0c1.7-12.6,2.8-25.1,3.6-37.8c9.1,4.3,18,8.6,27.2,13c-1.2,0.7-2.3,1.4-3.3,2.1
		c-1.8,1.1-3.7,2.3-5.5,3.5c-0.3,0.2-0.7,0.6-0.7,1c-1.1,5.8-2.2,11.7-3.3,17.5c0,0.2,0,0.4,0,0.7c0.5,0,0.9,0,1.4,0
		c26.9,0,53.8,0,80.8,0c0.9,0,1.5-0.2,2.1-1c2.6-3.3,5.2-6.6,7.9-9.8c0.2-0.3,0.5-0.6,0.8-1C276.1,207,283.1,212.5,290.3,218z"/>
</g>
</svg>
