<?xml version="1.0" encoding="utf-8"?>
<!-- Generator: Adobe Illustrator 20.1.0, SVG Export Plug-In . SVG Version: 6.00 Build 0)  -->
<svg version="1.1" id="图层_1" xmlns="http://www.w3.org/2000/svg" xmlns:xlink="http://www.w3.org/1999/xlink" x="0px" y="0px"
	 viewBox="0 0 360 360" style="enable-background:new 0 0 360 360;" xml:space="preserve">
<style type="text/css">
	.st0{fill:#FFFFFF;}
</style>
<g>
	<path class="st0" d="M0.2,360.5c0-120.1,0-240.2,0-360.2c120.1,0,240.2,0,360.2,0c0,120.1,0,240.2,0,360.2
		C240.4,360.5,120.3,360.5,0.2,360.5z M220.7,123.8c-18.5,0-36.8,0-55.1,0c0.1,0.2,0.1,0.3,0.1,0.3c2.9,2.9,5.7,5.8,8.7,8.6
		c0.3,0.2,0.8,0.4,1.2,0.3c1.5-0.2,3.1-0.5,4.6-0.8c3.2-0.5,6.3-1.3,9.5-1.4c9.9-0.2,19.8-0.1,29.8-0.1c0.4,0,0.8,0,1.4,0.1
		c-0.5,5.1-0.9,10.1-1.3,15.1c-1.2,12.9-3,25.8-5.6,38.5c-3.3,16.5-8.3,32.4-16.1,47.4c-9.6,18.6-22.2,34.8-37.9,48.6
		c-12.9,11.4-27,21-41.8,29.7c-1.1,0.7-2.3,1.3-3.3,2c1.2,1.2,2.4,2.4,3.6,3.6c1.3-0.6,2.6-1.2,3.8-1.9c16.3-8,32-16.8,46.4-27.7
		c25.4-19.1,43.5-43.6,53.5-73.9c4-12.3,6.7-24.9,8.9-37.6c2.4-14,3.9-28.2,5-42.4c0.1-1.2,0.5-1.5,1.6-1.5c16.2,0,32.5,0,48.7,0
		c0.5,0,0.9,0,1.5,0c0,0.5,0,0.8,0,1.2c-0.4,9-0.8,18-1.2,27.1c-0.5,10.7-1.1,21.4-1.7,32.1c-0.5,10-1.1,20-1.8,30
		c-0.7,10-1.5,19.9-2.3,29.9c-0.6,6.5-1.3,13-2.9,19.3c-1,4.1-2.3,8.2-4.8,11.7c-2,2.8-4.6,4.4-8.1,4.1c-1.6-0.1-3.2-0.1-4.8-0.3
		c-12.5-1.8-25-3.7-37.6-5.6c-2.2-0.3-4.4-0.7-6.7-1.1c-0.4,2-0.8,3.9-1.2,5.9c0.4,0.2,0.8,0.3,1.2,0.4c6.8,2.6,13.6,5.1,20.3,8
		c6.2,2.7,12,6.1,16.9,10.7c2.9,2.7,5.3,5.9,6.2,9.9c0.1,0.5,0.2,1.1,0.3,1.6c4.7-1.6,9.1-3.5,13.3-6c8.8-5.3,15.3-12.4,18.6-22.3
		c2.3-6.8,3.8-13.7,4.5-20.8c1-9.5,1.8-19.1,2.4-28.7c1-15.4,1.9-30.8,2.7-46.2c1.1-18.8,2.1-37.7,3.1-56.5c0-0.5,0.4-1.1,0.8-1.4
		c2.5-2,5.1-3.9,7.7-5.8c0.3-0.2,0.6-0.5,1-0.8c-6-5.2-11.8-10.2-17.7-15.3c-3.4,3.7-6.6,7.3-9.9,11c-0.6,0.6-1.1,0.9-2,0.9
		c-15.6,0-31.2,0-46.8,0c-0.4,0-0.9,0-1.4,0c0-0.6,0-1,0-1.3c0.3-10.6,0.7-21.2,0.9-31.9c0.2-8.3,0.2-16.6,0.1-24.8
		c0-2.3,0.5-4.1,2.5-5.3c0.8-0.5,1.4-1.2,2.1-1.8c2-1.8,4-3.6,6.2-5.5c-9.5-4.3-18.8-8.6-28.3-13C221.6,68.1,221.1,95.9,220.7,123.8
		z"/>
	<path d="M220.7,123.8c0.4-28,0.9-55.7-1.2-83.7c9.5,4.4,18.8,8.6,28.3,13c-2.1,1.9-4.1,3.7-6.2,5.5c-0.7,0.6-1.3,1.3-2.1,1.8
		c-2,1.3-2.5,3-2.5,5.3c0.1,8.3,0,16.6-0.1,24.8c-0.2,10.6-0.6,21.2-0.9,31.9c0,0.4,0,0.8,0,1.3c0.5,0,0.9,0,1.4,0
		c15.6,0,31.2,0,46.8,0c0.8,0,1.4-0.2,2-0.9c3.2-3.7,6.5-7.3,9.9-11c5.9,5.1,11.7,10.2,17.7,15.3c-0.4,0.3-0.7,0.6-1,0.8
		c-2.6,1.9-5.1,3.8-7.7,5.8c-0.4,0.3-0.7,0.9-0.8,1.4c-1.1,18.8-2.1,37.7-3.1,56.5c-0.9,15.4-1.7,30.8-2.7,46.2
		c-0.6,9.6-1.4,19.1-2.4,28.7c-0.7,7.1-2.3,14-4.5,20.8c-3.3,9.9-9.8,17-18.6,22.3c-4.2,2.5-8.6,4.4-13.3,6
		c-0.1-0.6-0.2-1.1-0.3-1.6c-0.9-4-3.2-7.2-6.2-9.9c-5-4.6-10.8-8-16.9-10.7c-6.7-2.9-13.5-5.3-20.3-8c-0.4-0.1-0.7-0.3-1.2-0.4
		c0.4-2,0.8-3.9,1.2-5.9c2.3,0.4,4.5,0.8,6.7,1.1c12.5,1.9,25,3.8,37.6,5.6c1.6,0.2,3.2,0.2,4.8,0.3c3.6,0.3,6.1-1.4,8.1-4.1
		c2.5-3.5,3.7-7.6,4.8-11.7c1.6-6.3,2.3-12.8,2.9-19.3c0.9-10,1.7-19.9,2.3-29.9c0.7-10,1.2-20,1.8-30c0.6-10.7,1.1-21.4,1.7-32.1
		c0.4-9,0.8-18,1.2-27.1c0-0.3,0-0.7,0-1.2c-0.6,0-1,0-1.5,0c-16.2,0-32.5,0-48.7,0c-1.2,0-1.6,0.3-1.6,1.5c-1,14.2-2.6,28.3-5,42.4
		c-2.1,12.7-4.8,25.3-8.9,37.6c-10,30.3-28.1,54.7-53.5,73.9c-14.5,10.9-30.2,19.8-46.4,27.7c-1.3,0.6-2.6,1.2-3.8,1.9
		c-1.2-1.2-2.3-2.4-3.6-3.6c1.1-0.6,2.2-1.3,3.3-2c14.7-8.7,28.9-18.3,41.8-29.7c15.7-13.8,28.3-30,37.9-48.6
		c7.7-15,12.7-30.9,16.1-47.4c2.6-12.7,4.4-25.6,5.6-38.5c0.5-5,0.9-9.9,1.3-15.1c-0.6,0-1-0.1-1.4-0.1c-9.9,0-19.8-0.1-29.8,0.1
		c-3.2,0.1-6.3,0.9-9.5,1.4c-1.5,0.2-3.1,0.6-4.6,0.8c-0.4,0.1-0.9-0.1-1.2-0.3c-2.9-2.9-5.8-5.8-8.7-8.6c0,0,0-0.1-0.1-0.3
		C183.9,123.8,202.2,123.8,220.7,123.8z"/>
</g>
</svg>
