<?xml version="1.0" encoding="utf-8"?>
<!-- Generator: Adobe Illustrator 20.1.0, SVG Export Plug-In . SVG Version: 6.00 Build 0)  -->
<svg version="1.1" id="图层_1" xmlns="http://www.w3.org/2000/svg" xmlns:xlink="http://www.w3.org/1999/xlink" x="0px" y="0px"
	 viewBox="0 0 360 360" style="enable-background:new 0 0 360 360;" xml:space="preserve">
<style type="text/css">
	.st0{fill:#FFFFFF;}
</style>
<g>
	<path class="st0" d="M0.2,360.5c0-120.1,0-240.2,0-360.2c120.1,0,240.2,0,360.2,0c0,120.1,0,240.2,0,360.2
		C240.4,360.5,120.3,360.5,0.2,360.5z M159.4,285.1c3.4,1.7,6.8,3.3,10.1,5c7,3.6,13.8,7.4,19.8,12.6c4.5,3.8,8.5,8,9.1,14.3
		c0.3-0.1,0.5-0.1,0.8-0.2c6.4-1.9,12.7-4.2,18.5-7.4c8.1-4.5,14.7-10.4,19-18.8c2.7-5.2,4.8-10.6,6.4-16.1
		c4.8-16.1,6.9-32.6,8.9-49.2c0.9-8,1.7-16.1,2.5-24.1c0.8-8.2,1.4-16.3,2.1-24.5c0.3-3.6,0.6-7.2,1-10.9c0.2-2,0.8-3.9,0.9-5.9
		c0.8-10.4,1.6-20.8,2-31.2c0.1-2.8,1.1-4.6,3.3-6.2c3-2.2,5.8-4.6,8.8-7c-6.7-5.5-13.4-11-20.2-16.6c-0.2,0.3-0.4,0.6-0.6,0.8
		c-3.4,3.8-6.9,7.6-10.3,11.4c-0.6,0.7-1.2,0.9-2.1,0.9c-23,0-46.1,0-69.1,0c-0.5,0-0.9,0-1.5,0c0.2-2.2,0.4-4.3,0.6-6.3
		c1.3-14.2,2.7-28.3,4-42.5c0.1-1.3,0.5-2.2,1.6-3c2.3-1.9,4.5-3.9,6.9-5.9c-9.1-4.8-18.1-9.4-27.2-14.2c-0.8,24.1-1.9,48-3.5,71.9
		c-27.5,0-54.9,0-82.4,0c0.4,0.4,0.6,0.7,0.8,0.9c3,3,6,6,9,9c0.6,0.6,1,0.7,1.8,0.5c8.5-2.3,17.3-3.3,26.1-3.3
		c14.5-0.1,29,0,43.4,0c0.4,0,0.8,0,1.4,0.1c-0.5,5.1-1,10-1.5,14.9c-1.3,11.6-3.2,23.1-5.4,34.6c-4.6,23.2-12.3,45.2-23.7,65.9
		c-8.1,14.7-17.2,28.6-28.3,41.2c-12.1,13.7-25.6,25.9-40.1,37.1c-0.8,0.6-1.6,1.2-2.3,1.8c0.8,1.2,1.6,2.4,2.4,3.5
		c0.4-0.2,0.8-0.4,1.1-0.6c4.4-2.7,8.9-5.4,13.2-8.3c13.3-8.7,25.9-18.4,37.4-29.6c9.6-9.4,17.9-19.9,25.2-31.2
		c10.4-16,18.9-32.9,24.5-51.1c7.4-23.7,11.7-48,14.6-72.6c0.2-1.9,0.5-3.8,0.7-5.6c24.8,0,49.4,0,74,0c0,0.2,0.1,0.3,0.1,0.4
		c-0.3,4.7-0.5,9.3-0.8,14c-0.8,13.4-1.6,26.9-2.6,40.3c-1.2,15-2.6,29.9-4,44.9c-1.1,11.7-2.8,23.4-5.3,34.9
		c-1.6,7.5-3.4,15-6.5,22c-1.3,2.9-2.7,5.7-5.2,7.8c-6,5-12.9,6.9-20.5,5.2c-8.5-1.8-16.9-3.9-25.3-6c-4.1-1-8.1-2.3-12.3-3.5
		C160.2,281.3,159.8,283.2,159.4,285.1z"/>
	<path d="M159.4,285.1c0.4-2,0.8-3.9,1.2-5.9c4.2,1.2,8.2,2.5,12.3,3.5c8.4,2.1,16.8,4.2,25.3,6c7.6,1.6,14.5-0.2,20.5-5.2
		c2.5-2.1,3.9-4.9,5.2-7.8c3.1-7.1,4.9-14.5,6.5-22c2.5-11.5,4.2-23.2,5.3-34.9c1.4-15,2.8-29.9,4-44.9c1-13.4,1.8-26.9,2.6-40.3
		c0.3-4.7,0.5-9.3,0.8-14c0-0.1,0-0.2-0.1-0.4c-24.6,0-49.2,0-74,0c-0.2,1.9-0.5,3.8-0.7,5.6c-2.9,24.6-7.3,48.9-14.6,72.6
		c-5.7,18.2-14.1,35.2-24.5,51.1c-7.3,11.3-15.6,21.8-25.2,31.2c-11.4,11.1-24,20.9-37.4,29.6c-4.3,2.8-8.8,5.5-13.2,8.3
		c-0.3,0.2-0.7,0.4-1.1,0.6c-0.8-1.2-1.5-2.3-2.4-3.5c0.8-0.6,1.6-1.2,2.3-1.8c14.5-11.2,28-23.3,40.1-37.1
		c11.1-12.6,20.2-26.6,28.3-41.2c11.4-20.7,19.1-42.7,23.7-65.9c2.3-11.5,4.1-23,5.4-34.6c0.6-4.9,1-9.9,1.5-14.9
		c-0.5,0-0.9-0.1-1.4-0.1c-14.5,0-29-0.1-43.4,0c-8.8,0.1-17.5,1-26.1,3.3c-0.8,0.2-1.2,0.1-1.8-0.5c-3-3-6-6-9-9
		c-0.2-0.2-0.5-0.5-0.8-0.9c27.6,0,54.9,0,82.4,0c1.6-23.9,2.8-47.8,3.5-71.9c9.1,4.8,18.1,9.4,27.2,14.2c-2.4,2-4.6,4-6.9,5.9
		c-1,0.8-1.4,1.7-1.6,3c-1.3,14.2-2.6,28.3-4,42.5c-0.2,2-0.4,4-0.6,6.3c0.5,0,1,0,1.5,0c23,0,46.1,0,69.1,0c0.9,0,1.5-0.3,2.1-0.9
		c3.4-3.8,6.9-7.6,10.3-11.4c0.2-0.2,0.3-0.4,0.6-0.8c6.8,5.6,13.5,11.1,20.2,16.6c-3,2.4-5.8,4.8-8.8,7c-2.2,1.6-3.2,3.3-3.3,6.2
		c-0.5,10.4-1.3,20.8-2,31.2c-0.1,2-0.7,3.9-0.9,5.9c-0.4,3.6-0.7,7.2-1,10.9c-0.7,8.2-1.3,16.3-2.1,24.5c-0.8,8-1.5,16.1-2.5,24.1
		c-2,16.6-4,33.2-8.9,49.2c-1.7,5.6-3.8,10.9-6.4,16.1c-4.3,8.3-10.9,14.3-19,18.8c-5.9,3.2-12.1,5.6-18.5,7.4
		c-0.3,0.1-0.5,0.1-0.8,0.2c-0.6-6.4-4.6-10.5-9.1-14.3c-6-5.1-12.8-9-19.8-12.6C166.2,288.4,162.9,286.8,159.4,285.1z"/>
</g>
</svg>
