<?xml version="1.0" encoding="utf-8"?>
<!-- Generator: Adobe Illustrator 20.1.0, SVG Export Plug-In . SVG Version: 6.00 Build 0)  -->
<svg version="1.1" id="图层_1" xmlns="http://www.w3.org/2000/svg" xmlns:xlink="http://www.w3.org/1999/xlink" x="0px" y="0px"
	 viewBox="0 0 360 360" style="enable-background:new 0 0 360 360;" xml:space="preserve">
<style type="text/css">
	.st0{fill:#FFFFFF;}
</style>
<g>
	<path class="st0" d="M0.2,360.5c0-120.1,0-240.2,0-360.2c120.1,0,240.2,0,360.2,0c0,120.1,0,240.2,0,360.2
		C240.4,360.5,120.3,360.5,0.2,360.5z M85.2,50.7c-0.1,0.3-0.2,0.6-0.3,0.9c-1.9,6.8-3.5,13.7-5.6,20.4c-2.3,7.4-5.7,14.3-10.4,20.5
		c-1.9,2.6-3.5,5.4-5.2,8.1c-0.3,0.5-0.4,1-0.6,1.6c-1.1,3.3-0.3,4.9,3.1,5.8c7.3,1.9,14.1,0.2,20.2-4c3.4-2.3,6.1-5.2,6.8-9.4
		c0.5-2.7,0.9-5.4,1-8.2c0.1-3.6-0.2-7.3-0.4-10.9c0-1.1-0.2-2.3-0.2-3.4c61.2,0,122.3,0,183.5,0c-5.1,11.4-10.2,22.7-15.3,34.1
		c1.2,0.8,2.4,1.6,3.6,2.4c1.2-1.6,2.3-3.1,3.5-4.6c6.5-8.4,13.4-16.3,21.8-22.9c5-3.9,10.4-7.1,16.7-8.5c1.3-0.3,2.6-0.5,4.1-0.7
		c-8-7.6-15.8-15-23.6-22.4c-0.2,0.3-0.3,0.4-0.5,0.6c-3.5,4.6-7.1,9.2-10.6,13.8c-0.5,0.7-1,1-2,1c-60.4,0-120.8,0-181.2,0
		c-0.4,0-0.8,0-1.3,0c-0.4-4.8-0.8-9.5-1.2-14.1C89.1,50.7,87.2,50.7,85.2,50.7z"/>
	<path d="M85.2,50.7c2,0,3.9,0,5.9,0c0.4,4.7,0.8,9.3,1.2,14.1c0.5,0,0.9,0,1.3,0c60.4,0,120.8,0,181.2,0c0.9,0,1.4-0.3,2-1
		c3.5-4.6,7.1-9.2,10.6-13.8c0.1-0.2,0.3-0.3,0.5-0.6c7.8,7.4,15.7,14.9,23.6,22.4c-1.5,0.2-2.8,0.4-4.1,0.7
		c-6.3,1.4-11.7,4.6-16.7,8.5c-8.4,6.5-15.3,14.5-21.8,22.9c-1.1,1.5-2.3,3-3.5,4.6c-1.2-0.8-2.4-1.6-3.6-2.4
		c5.1-11.4,10.2-22.7,15.3-34.1c-61.2,0-122.3,0-183.5,0c0.1,1.2,0.2,2.3,0.2,3.4c0.2,3.6,0.5,7.3,0.4,10.9c-0.1,2.7-0.5,5.5-1,8.2
		c-0.7,4.2-3.4,7.1-6.8,9.4c-6.2,4.1-12.9,5.8-20.2,4c-3.4-0.9-4.1-2.5-3.1-5.8c0.2-0.5,0.3-1.1,0.6-1.6c1.7-2.7,3.3-5.6,5.2-8.1
		C73.6,86.2,77,79.3,79.4,72c2.1-6.7,3.8-13.6,5.6-20.4C85.1,51.3,85.2,51,85.2,50.7z"/>
</g>
</svg>
