<?xml version="1.0" encoding="utf-8"?>
<!-- Generator: Adobe Illustrator 20.1.0, SVG Export Plug-In . SVG Version: 6.00 Build 0)  -->
<svg version="1.1" id="图层_1" xmlns="http://www.w3.org/2000/svg" xmlns:xlink="http://www.w3.org/1999/xlink" x="0px" y="0px"
	 viewBox="0 0 360 360" style="enable-background:new 0 0 360 360;" xml:space="preserve">
<style type="text/css">
	.st0{fill:#FFFFFF;}
</style>
<g>
	<path class="st0" d="M0.2,360.5c0-120.1,0-240.2,0-360.2c120.1,0,240.2,0,360.2,0c0,120.1,0,240.2,0,360.2
		C240.4,360.5,120.3,360.5,0.2,360.5z M90,272.2c0-0.6,0-1.2,0-1.7c0-47.3,0-94.6-0.1-141.8c0-2.7,0.7-4.5,2.8-6.2
		c2.7-2.1,5.2-4.6,7.9-7c-9.9-4.7-19.6-9.4-29.5-14.2c0.1,2.7,0.3,5.1,0.4,7.5c0.3,13.8,0.7,27.6,0.7,41.4
		c0.1,37.4,0,74.8,0.1,112.2c0,2.9-0.6,5-3.1,6.6c-1.9,1.3-3.5,2.9-5.2,4.4c6,5.6,11.8,11,17.7,16.5c2.9-3.3,5.8-6.5,8.7-9.8
		c0.5-0.6,1.1-0.9,1.9-0.9c60.8,0,121.6,0,182.4,0c0.4,0,0.8,0,1.3,0c0,7.5,0,14.9,0,22.3c0.2-0.1,0.4-0.1,0.5-0.2
		c5.9-3,11.9-5.9,17.8-8.9c0.3-0.2,0.6-0.7,0.5-1.1c-0.1-2.2-0.3-4.3-0.4-6.5c-0.3-11.5-0.7-22.9-0.7-34.4c-0.1-41.5,0-83,0-124.6
		c0-0.5,0.3-1.2,0.8-1.6c2.4-2,4.9-3.9,7.4-5.8c0.8-0.6,1.6-1.3,2.5-2c-9.9-4.8-19.6-9.4-29.5-14.2c0,0.4,0,0.6,0,0.8
		c0.3,6.7,0.6,13.4,0.8,20.1c0.2,9.4,0.3,18.8,0.3,28.2c0,39.7,0,79.4,0,119.2c0,0.4,0,0.8,0,1.3C214,272.2,152.1,272.2,90,272.2z"
		/>
	<path d="M90,272.2c62.1,0,124,0,186,0c0-0.5,0-0.9,0-1.3c0-39.7,0-79.4,0-119.2c0-9.4-0.1-18.8-0.3-28.2
		c-0.1-6.7-0.5-13.4-0.8-20.1c0-0.2,0-0.4,0-0.8c9.9,4.7,19.6,9.4,29.5,14.2c-0.9,0.7-1.7,1.4-2.5,2c-2.5,1.9-4.9,3.8-7.4,5.8
		c-0.4,0.3-0.8,1-0.8,1.6c0,41.5-0.1,83,0,124.6c0,11.5,0.5,22.9,0.7,34.4c0.1,2.2,0.3,4.3,0.4,6.5c0,0.4-0.2,1-0.5,1.1
		c-5.9,3-11.8,6-17.8,8.9c-0.1,0.1-0.3,0.1-0.5,0.2c0-7.4,0-14.8,0-22.3c-0.5,0-0.9,0-1.3,0c-60.8,0-121.6,0-182.4,0
		c-0.8,0-1.4,0.3-1.9,0.9c-2.8,3.3-5.7,6.5-8.7,9.8c-5.9-5.5-11.8-11-17.7-16.5c1.8-1.5,3.4-3.2,5.2-4.4c2.4-1.6,3.1-3.7,3.1-6.6
		c-0.1-37.4,0-74.8-0.1-112.2c0-13.8-0.5-27.6-0.7-41.4c0-2.4-0.2-4.8-0.4-7.5c9.9,4.8,19.7,9.4,29.5,14.2c-2.7,2.4-5.1,4.9-7.9,7
		c-2.1,1.6-2.8,3.5-2.8,6.2C90,175.9,90,223.2,90,270.5C90,271,90,271.5,90,272.2z"/>
</g>
</svg>
