<?xml version="1.0" encoding="utf-8"?>
<!-- Generator: Adobe Illustrator 20.1.0, SVG Export Plug-In . SVG Version: 6.00 Build 0)  -->
<svg version="1.1" id="图层_1" xmlns="http://www.w3.org/2000/svg" xmlns:xlink="http://www.w3.org/1999/xlink" x="0px" y="0px"
	 viewBox="0 0 360 360" style="enable-background:new 0 0 360 360;" xml:space="preserve">
<style type="text/css">
	.st0{fill:#FFFFFF;}
</style>
<g>
	<path class="st0" d="M0.2,360.5c0-120.1,0-240.2,0-360.2c120.1,0,240.2,0,360.2,0c0,120.1,0,240.2,0,360.2
		C240.4,360.5,120.3,360.5,0.2,360.5z M125.4,171c2.5,3.5,4.9,6.7,7.2,10c7.2,10.3,13.9,21,18.7,32.7c2.1,5,3.7,10.3,5.7,15.4
		c1.3,3.4,2.7,6.7,5.3,9.3c2.3,2.3,4.6,2.3,6.9,0c5.6-5.4,7.4-12.1,6.6-19.6c-0.5-4.7-2.5-9-5.1-13c-4.5-7.1-10.4-13-16.4-18.7
		c-8.5-8-17.5-15.3-26.7-22.5c-0.9-0.7-1-1.4-0.9-2.4c0.7-4.5,1.6-8.9,2.1-13.4c1.2-11.1,2.5-22.2,3.4-33.4
		c1.3-16.2,2.4-32.4,3.6-48.5c0-0.5,0.4-1.1,0.8-1.5c2.7-2.2,5.5-4.3,8.3-6.5c0.5-0.4,1-0.8,1.6-1.3c-9.9-4.4-19.7-8.7-29.6-13
		c0,0.7,0,1.2,0,1.6c-0.1,8.6,0,17.1-0.4,25.7c-0.5,14-1.1,27.9-1.9,41.9c-0.7,12.4-2.1,24.7-3.9,36.9c-2.5,16.6-6,32.9-10.5,49.1
		c-4.4,15.7-9.7,31-16.9,45.6c-8.5,17.3-19,33.3-30.8,48.5c-1.7,2.1-3.4,4.2-5.1,6.5c0.6,0.6,1.2,1.1,1.8,1.7
		c0.6,0.6,1.1,1.2,1.7,1.9c1.1-1,2-1.9,2.9-2.8c11.2-11,21.3-23.1,30.6-35.8c7.6-10.3,14.6-21.1,20-32.8c7.2-15.4,12.6-31.3,17-47.6
		C122.9,180.6,124.1,175.9,125.4,171z"/>
	<path d="M125.4,171c-1.3,4.9-2.5,9.6-3.7,14.2c-4.5,16.3-9.9,32.3-17,47.6c-5.4,11.7-12.4,22.4-20,32.8
		c-9.3,12.7-19.4,24.7-30.6,35.8c-0.9,0.9-1.8,1.8-2.9,2.8c-0.6-0.7-1.2-1.3-1.7-1.9c-0.6-0.6-1.2-1.1-1.8-1.7
		c1.7-2.2,3.4-4.3,5.1-6.5c11.8-15.2,22.4-31.2,30.8-48.5c7.2-14.6,12.5-30,16.9-45.6c4.5-16.1,8-32.5,10.5-49.1
		c1.8-12.3,3.2-24.6,3.9-36.9c0.8-14,1.4-27.9,1.9-41.9c0.3-8.5,0.2-17.1,0.4-25.7c0-0.5,0-0.9,0-1.6c9.9,4.4,19.6,8.6,29.6,13
		c-0.6,0.5-1.1,0.9-1.6,1.3c-2.8,2.2-5.6,4.3-8.3,6.5c-0.4,0.3-0.7,1-0.8,1.5c-1.2,16.2-2.3,32.4-3.6,48.5
		c-0.9,11.1-2.2,22.3-3.4,33.4c-0.5,4.5-1.3,8.9-2.1,13.4c-0.2,1,0,1.7,0.9,2.4c9.2,7.2,18.2,14.5,26.7,22.5
		c6.1,5.7,12,11.6,16.4,18.7c2.5,4,4.6,8.2,5.1,13c0.8,7.5-1,14.2-6.6,19.6c-2.3,2.3-4.6,2.3-6.9,0c-2.6-2.6-4-6-5.3-9.3
		c-1.9-5.1-3.6-10.3-5.7-15.4c-4.9-11.7-11.5-22.4-18.7-32.7C130.3,177.7,127.9,174.5,125.4,171z"/>
</g>
</svg>
