<?xml version="1.0" encoding="utf-8"?>
<!-- Generator: Adobe Illustrator 20.1.0, SVG Export Plug-In . SVG Version: 6.00 Build 0)  -->
<svg version="1.1" id="图层_1" xmlns="http://www.w3.org/2000/svg" xmlns:xlink="http://www.w3.org/1999/xlink" x="0px" y="0px"
	 viewBox="0 0 360 360" style="enable-background:new 0 0 360 360;" xml:space="preserve">
<style type="text/css">
	.st0{fill:#FFFFFF;}
</style>
<g>
	<path class="st0" d="M0.2,360.5c0-120.1,0-240.2,0-360.2c120.1,0,240.2,0,360.2,0c0,120.1,0,240.2,0,360.2
		C240.4,360.5,120.3,360.5,0.2,360.5z M168.9,40.1c-0.1,0.3-0.2,0.4-0.3,0.5c-2.5,5.5-4.9,11.1-7.6,16.6
		c-8.8,18.1-19.4,35.1-31.4,51.3c-16.8,22.8-36.5,42.5-59.4,59.2c-8.2,6-16.7,11.6-25.5,16.9c-0.3,0.2-0.7,0.7-0.6,1
		c0.2,1,0.6,2,1,3c0.4-0.1,0.6-0.2,0.9-0.4c11.1-4.4,21.7-9.7,32.1-15.6c9.3-5.3,18.3-11.2,26.8-17.7c11.6-8.9,21.9-19.3,31.6-30.3
		c15.3-17.3,28.6-36.1,40.6-55.8c0.8-1.2,1.5-2.5,2.4-3.9c0.3,0.5,0.5,0.9,0.7,1.3c14.8,26.6,33.2,50.4,55.9,70.6
		c15.4,13.7,32.4,25,51.3,33.6c3.2,1.5,6.5,2.7,9.8,4.1c0.2-0.3,0.3-0.5,0.3-0.7c2.1-5.3,5.8-9.2,10.8-11.9
		c3.3-1.8,6.8-2.9,10.4-3.8c0.3-0.1,0.8-0.4,0.8-0.6c0.1-1.5,0-2.9,0-4.4c-11.8-1.9-23.3-4.6-34.5-8.5
		c-16.9-5.8-32.6-13.9-46.5-25.1c-7.5-6.1-14.7-12.7-21.7-19.4c-10.3-9.8-19.7-20.4-27.8-32.2c-1.7-2.5-3.3-5.1-5.1-7.8
		c3.2-2,6.3-3.9,9.5-6C185.4,49.5,177.2,44.9,168.9,40.1z"/>
	<path d="M168.9,40.1c8.3,4.7,16.5,9.4,24.8,14.2c-3.2,2-6.3,3.9-9.5,6c1.7,2.6,3.3,5.3,5.1,7.8c8.1,11.8,17.5,22.4,27.8,32.2
		c7,6.7,14.2,13.3,21.7,19.4c13.9,11.3,29.6,19.3,46.5,25.1c11.2,3.9,22.6,6.6,34.5,8.5c0,1.4,0,2.9,0,4.4c0,0.2-0.5,0.5-0.8,0.6
		c-3.6,0.8-7.2,2-10.4,3.8c-5,2.7-8.7,6.6-10.8,11.9c-0.1,0.2-0.2,0.4-0.3,0.7c-3.3-1.4-6.6-2.6-9.8-4.1
		c-18.8-8.5-35.8-19.8-51.3-33.6c-22.8-20.3-41.1-44-55.9-70.6c-0.2-0.4-0.4-0.7-0.7-1.3c-0.8,1.4-1.6,2.6-2.4,3.9
		c-12.1,19.7-25.3,38.5-40.6,55.8c-9.7,11-20,21.3-31.6,30.3c-8.5,6.5-17.5,12.4-26.8,17.7c-10.3,5.9-21,11.2-32.1,15.6
		c-0.3,0.1-0.5,0.2-0.9,0.4c-0.3-1-0.8-2-1-3c-0.1-0.3,0.3-0.8,0.6-1c8.7-5.2,17.3-10.8,25.5-16.9c22.9-16.7,42.6-36.5,59.4-59.2
		c11.9-16.2,22.6-33.2,31.4-51.3c2.7-5.5,5.1-11,7.6-16.6C168.7,40.5,168.8,40.4,168.9,40.1z"/>
</g>
</svg>
