<?xml version="1.0" encoding="utf-8"?>
<!-- Generator: Adobe Illustrator 20.1.0, SVG Export Plug-In . SVG Version: 6.00 Build 0)  -->
<svg version="1.1" id="图层_1" xmlns="http://www.w3.org/2000/svg" xmlns:xlink="http://www.w3.org/1999/xlink" x="0px" y="0px"
	 viewBox="0 0 360 360" style="enable-background:new 0 0 360 360;" xml:space="preserve">
<style type="text/css">
	.st0{fill:#FFFFFF;}
</style>
<g>
	<path class="st0" d="M0.2,360.5c0-120.1,0-240.2,0-360.2c120.1,0,240.2,0,360.2,0c0,120.1,0,240.2,0,360.2
		C240.4,360.5,120.3,360.5,0.2,360.5z M183,221.8c0.2,0.4,0.4,0.8,0.6,1.1c1.9,3.7,3.7,7.4,5.8,11c5.5,9.2,12.4,17.2,19.8,24.9
		c10,10.4,21,19.4,33.5,26.6c14.7,8.5,30.2,15.1,46.2,20.6c2.7,0.9,5.5,1.8,8.3,2.8c0.4-1.2,0.7-2.3,1.2-3.3c1.3-2.8,3.6-4.9,6-6.7
		c3.7-2.7,7.8-4.5,12-6.2c0.4-0.1,0.9-0.5,0.9-0.9c0.1-1.4,0-2.8,0-4.2c-0.4,0-0.6-0.1-0.8-0.1c-9.9-0.5-19.7-1.6-29.4-3.3
		c-25.1-4.4-48-14-68.1-29.9c-11.7-9.2-22-19.8-29.7-32.6c-0.9-1.6-1.8-3.2-2.7-4.8c3.2-1.6,6.2-3.1,9.5-4.8
		c-7.6-4.8-15-9.5-22.4-14.2c-0.5,1.2-1,2.3-1.4,3.3c-6.6,15.2-15.4,28.9-25.8,41.8c-10.9,13.6-23,26-36.9,36.5
		c-16.6,12.5-34.8,22.4-53.8,30.7c-1.5,0.7-3.1,1.3-4.6,2c0.4,1.3,0.8,2.4,1.2,3.5c0.5-0.1,0.9-0.2,1.3-0.3
		c16.2-4.5,31.7-10.7,46.6-18.6c17.8-9.4,34.1-20.9,48.5-35c9.9-9.7,18.9-20.1,27.3-31C178.4,227.9,180.7,224.9,183,221.8z"/>
	<path d="M183,221.8c-2.3,3.1-4.6,6.2-6.9,9.2c-8.4,11-17.5,21.3-27.3,31c-14.4,14.1-30.7,25.6-48.5,35
		c-14.9,7.9-30.4,14.1-46.6,18.6c-0.4,0.1-0.8,0.2-1.3,0.3c-0.4-1.2-0.8-2.3-1.2-3.5c1.6-0.7,3.1-1.3,4.6-2
		c19-8.3,37.1-18.2,53.8-30.7c14-10.5,26-22.9,36.9-36.5c10.3-12.9,19.2-26.7,25.8-41.8c0.5-1.1,0.9-2.2,1.4-3.3
		c7.5,4.7,14.8,9.4,22.4,14.2c-3.2,1.6-6.3,3.2-9.5,4.8c0.9,1.7,1.8,3.3,2.7,4.8c7.7,12.9,18,23.4,29.7,32.6
		c20.1,15.9,42.9,25.5,68.1,29.9c9.7,1.7,19.5,2.8,29.4,3.3c0.2,0,0.5,0,0.8,0.1c0,1.4,0.1,2.8,0,4.2c0,0.3-0.5,0.7-0.9,0.9
		c-4.2,1.7-8.3,3.5-12,6.2c-2.5,1.8-4.7,3.8-6,6.7c-0.5,1-0.8,2.1-1.2,3.3c-2.7-0.9-5.5-1.8-8.3-2.8c-16-5.5-31.5-12.1-46.2-20.6
		c-12.5-7.2-23.5-16.2-33.5-26.6c-7.4-7.7-14.3-15.8-19.8-24.9c-2.1-3.5-3.9-7.3-5.8-11C183.4,222.5,183.2,222.2,183,221.8z"/>
</g>
</svg>
