<?xml version="1.0" encoding="utf-8"?>
<!-- Generator: Adobe Illustrator 20.1.0, SVG Export Plug-In . SVG Version: 6.00 Build 0)  -->
<svg version="1.1" id="图层_1" xmlns="http://www.w3.org/2000/svg" xmlns:xlink="http://www.w3.org/1999/xlink" x="0px" y="0px"
	 viewBox="0 0 360 360" style="enable-background:new 0 0 360 360;" xml:space="preserve">
<style type="text/css">
	.st0{fill:#FFFFFF;}
</style>
<g>
	<path class="st0" d="M0.2,360.5c0-120.1,0-240.2,0-360.2c120.1,0,240.2,0,360.2,0c0,120.1,0,240.2,0,360.2
		C240.4,360.5,120.3,360.5,0.2,360.5z M106.5,108.6c0.4,0.3,0.8,0.5,1.1,0.8c5.9,4.5,11.5,9.4,16.6,14.8
		c8.8,9.3,16.4,19.5,22.5,30.8c1.1,2.1,2.2,4.2,3.7,6c2.2,2.7,4.5,2.6,6.9,0.1c0.4-0.4,0.7-0.8,1-1.3c3.8-5.8,5.4-12.1,4.6-19
		c-0.5-4.4-2.3-8.2-5.8-10.9c-3.2-2.5-6.4-5-9.7-7.2c-11.2-7.1-23.1-12.6-35.1-18.1c-1.5-0.7-3-1.4-4.5-2c0-0.2,0-0.3,0-0.4
		c4-9.1,7.9-18.2,11.9-27.3c1.7-3.8,4.6-6.6,8.1-8.8c0.7-0.4,1.4-0.8,2.2-1.3c-8.7-5.1-17.2-10.2-25.9-15.3
		c-0.1,0.4-0.2,0.6-0.2,0.8c-0.5,6.3-1.8,12.5-3.3,18.6c-3,12.2-6.9,24.1-10.9,36c-6.5,19.3-14.9,37.7-25.9,54.9
		c-4.6,7.1-9.7,13.9-14.5,20.8c-0.2,0.3-0.5,0.9-0.3,1.2c0.6,1.1,1.4,2.1,2.1,3.2c0.3-0.3,0.6-0.4,0.8-0.6
		c10.2-8.2,19.3-17.4,27.3-27.7c9.3-12,16.6-25.2,23.1-38.9C103.7,114.9,105,111.8,106.5,108.6z"/>
	<path d="M106.5,108.6c-1.4,3.2-2.8,6.3-4.3,9.3c-6.5,13.7-13.8,26.9-23.1,38.9c-8,10.3-17.1,19.5-27.3,27.7
		c-0.2,0.2-0.4,0.3-0.8,0.6c-0.7-1.1-1.5-2.1-2.1-3.2c-0.1-0.3,0.1-0.9,0.3-1.2c4.8-6.9,10-13.7,14.5-20.8
		c11-17.2,19.4-35.6,25.9-54.9c4-11.9,7.9-23.8,10.9-36c1.5-6.1,2.8-12.3,3.3-18.6c0-0.2,0.1-0.4,0.2-0.8
		c8.6,5.1,17.2,10.2,25.9,15.3c-0.8,0.5-1.5,0.9-2.2,1.3c-3.5,2.2-6.4,4.9-8.1,8.8c-4,9.1-8,18.2-11.9,27.3c0,0.1,0,0.2,0,0.4
		c1.5,0.7,3,1.4,4.5,2c12,5.5,23.9,11,35.1,18.1c3.4,2.2,6.6,4.7,9.7,7.2c3.5,2.8,5.3,6.5,5.8,10.9c0.8,6.9-0.8,13.2-4.6,19
		c-0.3,0.5-0.7,0.9-1,1.3c-2.3,2.5-4.7,2.6-6.9-0.1c-1.5-1.8-2.6-3.9-3.7-6c-6.1-11.3-13.7-21.5-22.5-30.8
		c-5.1-5.4-10.7-10.3-16.6-14.8C107.3,109.2,106.9,108.9,106.5,108.6z"/>
</g>
</svg>
