<?xml version="1.0" encoding="utf-8"?>
<!-- Generator: Adobe Illustrator 20.1.0, SVG Export Plug-In . SVG Version: 6.00 Build 0)  -->
<svg version="1.1" id="图层_1" xmlns="http://www.w3.org/2000/svg" xmlns:xlink="http://www.w3.org/1999/xlink" x="0px" y="0px"
	 viewBox="0 0 360 360" style="enable-background:new 0 0 360 360;" xml:space="preserve">
<style type="text/css">
	.st0{fill:#FFFFFF;}
</style>
<g>
	<path class="st0" d="M0.2,360.5c0-120.1,0-240.2,0-360.2c120.1,0,240.2,0,360.2,0c0,120.1,0,240.2,0,360.2
		C240.4,360.5,120.3,360.5,0.2,360.5z M121.8,40.1c-18,57.8-44,111.7-76.8,162.5c1,0.7,1.8,1.2,2.6,1.8c0.8,0.7,1.4,0.6,2.1-0.2
		c4.6-5.5,9.3-10.8,13.7-16.3c11.8-15,22.4-30.9,32.7-47.1c0.2-0.4,0.5-0.8,1-1.4c0,0.8,0,1.2,0,1.6c-0.1,48.8-0.1,97.6-0.3,146.4
		c0,6.8-0.4,13.5-0.6,20.2c-0.1,2.7,0,5.4,0,8.1c-0.1,0,0.1,0,0.2,0c6.4-3.4,12.7-6.7,19-10.1c0.3-0.2,0.5-0.7,0.5-1.1
		c-0.3-7.3-1-14.7-1.1-22c-0.1-47.4,0-94.8-0.1-142.2c0-0.8,0.2-1.3,0.8-1.9c2.9-2.8,5.7-5.7,8.7-8.6c-5.5-3.2-11-6.3-16.5-9.5
		c2.5-5.1,4.7-10.2,7.3-15.1c6.9-13,13.9-25.9,20.8-38.9c0.9-1.7,2-2.9,3.8-3.8c2.5-1.2,4.8-2.6,7.2-4c0.3-0.2,0.6-0.4,1-0.6
		C139,51.9,130.4,46,121.8,40.1z"/>
	<path d="M121.8,40.1c8.6,5.9,17.2,11.7,25.9,17.6c-0.4,0.3-0.7,0.5-1,0.6c-2.4,1.3-4.8,2.8-7.2,4c-1.7,0.9-2.9,2.1-3.8,3.8
		c-6.9,13-13.9,25.9-20.8,38.9c-2.6,4.9-4.8,10-7.3,15.1c5.5,3.2,11,6.3,16.5,9.5c-2.9,2.9-5.8,5.8-8.7,8.6
		c-0.6,0.5-0.8,1.1-0.8,1.9c0,47.4,0,94.8,0.1,142.2c0,7.3,0.7,14.7,1.1,22c0,0.4-0.2,1-0.5,1.1c-6.3,3.4-12.7,6.8-19,10.1
		c-0.1,0.1-0.2,0-0.2,0c0-2.7-0.1-5.4,0-8.1c0.2-6.8,0.6-13.5,0.6-20.2c0.1-48.8,0.2-97.6,0.3-146.4c0-0.4,0-0.8,0-1.6
		c-0.5,0.7-0.7,1.1-1,1.4c-10.3,16.1-20.8,32.1-32.7,47.1c-4.4,5.6-9.2,10.9-13.7,16.3c-0.7,0.8-1.2,0.9-2.1,0.2
		c-0.7-0.6-1.6-1.1-2.6-1.8C77.8,151.9,103.8,97.9,121.8,40.1z"/>
</g>
</svg>
