<?xml version="1.0" encoding="utf-8"?>
<!-- Generator: Adobe Illustrator 20.1.0, SVG Export Plug-In . SVG Version: 6.00 Build 0)  -->
<svg version="1.1" id="图层_1" xmlns="http://www.w3.org/2000/svg" xmlns:xlink="http://www.w3.org/1999/xlink" x="0px" y="0px"
	 viewBox="0 0 360 360" style="enable-background:new 0 0 360 360;" xml:space="preserve">
<style type="text/css">
	.st0{fill:#FFFFFF;}
</style>
<g>
	<path class="st0" d="M0.2,360.5c0-120.1,0-240.2,0-360.2c120.1,0,240.2,0,360.2,0c0,120.1,0,240.2,0,360.2
		C240.4,360.5,120.3,360.5,0.2,360.5z M172.5,40.1c-0.1,0.3-0.1,0.4-0.1,0.5c0.2,10.2,0.6,20.4,0.6,30.6c0,12.7-0.5,25.4-0.6,38.1
		c-0.1,9-0.5,18.1-1.7,27c-1.5,11.1-4,21.9-8.4,32.3c-7.5,17.6-18.2,33-31.7,46.6c-9.7,9.8-20.2,18.6-31.7,26.1
		c-0.3,0.2-0.7,0.5-0.7,0.8c-0.1,1.5,0,3,0,4.6c0.5-0.2,0.9-0.3,1.2-0.5c3.8-1.8,7.6-3.4,11.3-5.3c15.7-8.2,29.7-18.7,42-31.5
		c12-12.4,21-26.8,27.5-42.8c0.1-0.3,0.3-0.7,0.5-1.1c0.3,0.2,0.4,0.3,0.6,0.5c11.8,10.3,22.8,21.4,32.9,33.4
		c8,9.5,14.8,19.7,19.7,31.2c0.9,2,2.1,4,3.4,5.7c2.3,3,5,2.9,7.3-0.1c1.9-2.4,3.1-5.1,3.8-8.1c1.3-4.9,1.1-9.8,0.6-14.8
		c-0.5-4.8-2.5-8.8-5.8-12.2c-2.8-2.9-5.6-5.7-8.7-8.2c-10.8-9-22.7-16.5-34.7-23.7c-5.2-3.2-10.5-6.2-15.8-9.3
		c-0.5-0.3-1-0.4-0.8-1.2c2.2-9.5,3.5-19.2,4.8-28.8c1.5-11.6,2.5-23.3,2.8-35c0.2-10.5,0.4-21,0.6-31.5c0-0.5,0.3-1.1,0.7-1.4
		c2.2-1.6,4.5-3.2,6.8-4.8c1.4-1,2.8-2,4.3-3C192.8,49.5,182.7,44.8,172.5,40.1z"/>
	<path d="M172.5,40.1c10.2,4.7,20.3,9.4,30.6,14.1c-1.5,1.1-2.9,2.1-4.3,3c-2.3,1.6-4.5,3.1-6.8,4.8c-0.4,0.3-0.7,0.9-0.7,1.4
		c-0.2,10.5-0.3,21-0.6,31.5c-0.3,11.7-1.2,23.4-2.8,35c-1.3,9.7-2.6,19.3-4.8,28.8c-0.2,0.8,0.3,1,0.8,1.2
		c5.3,3.1,10.6,6.1,15.8,9.3c12,7.2,23.9,14.7,34.7,23.7c3.1,2.6,5.9,5.4,8.7,8.2c3.3,3.4,5.3,7.4,5.8,12.2c0.5,5,0.6,9.9-0.6,14.8
		c-0.8,2.9-2,5.7-3.8,8.1c-2.4,3-5,3.1-7.3,0.1c-1.4-1.7-2.6-3.7-3.4-5.7c-4.8-11.5-11.7-21.7-19.7-31.2c-10-12-21-23.1-32.9-33.4
		c-0.1-0.1-0.3-0.2-0.6-0.5c-0.2,0.4-0.3,0.7-0.5,1.1c-6.6,16-15.5,30.4-27.5,42.8c-12.3,12.8-26.3,23.3-42,31.5
		c-3.7,1.9-7.5,3.6-11.3,5.3c-0.4,0.2-0.7,0.3-1.2,0.5c0-1.6,0-3.1,0-4.6c0-0.3,0.4-0.6,0.7-0.8c11.5-7.5,22-16.3,31.7-26.1
		c13.5-13.6,24.2-29,31.7-46.6c4.4-10.3,6.9-21.2,8.4-32.3c1.2-9,1.6-18,1.7-27c0.1-12.7,0.6-25.4,0.6-38.1
		c0-10.2-0.4-20.4-0.6-30.6C172.4,40.5,172.4,40.4,172.5,40.1z"/>
</g>
</svg>
