<?xml version="1.0" encoding="utf-8"?>
<!-- Generator: Adobe Illustrator 20.1.0, SVG Export Plug-In . SVG Version: 6.00 Build 0)  -->
<svg version="1.1" id="图层_1" xmlns="http://www.w3.org/2000/svg" xmlns:xlink="http://www.w3.org/1999/xlink" x="0px" y="0px"
	 viewBox="0 0 360 360" style="enable-background:new 0 0 360 360;" xml:space="preserve">
<style type="text/css">
	.st0{fill:#FFFFFF;}
</style>
<g>
	<path class="st0" d="M0.2,360.5c0-120.1,0-240.2,0-360.2c120.1,0,240.2,0,360.2,0c0,120.1,0,240.2,0,360.2
		C240.4,360.5,120.3,360.5,0.2,360.5z M320.6,294.6c0-1.3-0.1-2.5,0-3.7c0-0.8-0.2-1.2-1-1.5c-3.4-1.7-6.8-3.3-10.1-5.3
		c-11.9-7.3-21.3-17.1-29.5-28.3c-7.7-10.5-13.8-21.9-19.4-33.6c-16.8-34.8-26-71.7-29.1-110.2c-1.1-13.8-1.2-27.6-0.8-41.5
		c0.1-2.3,0.5-4.2,2.6-5.5c0.7-0.4,1.3-1.1,1.9-1.7c2.1-1.9,4.2-3.7,6.4-5.7c-10.3-4.8-20.5-9.4-30.7-14.2c0,0.3-0.1,0.4-0.1,0.6
		c0.1,7.8,0.4,15.7,0.4,23.5c0,7.1-0.1,14.2-0.3,21.3c-0.3,8.5-0.6,17.1-1.1,25.6c-1,15.9-2.7,31.7-5.2,47.4
		c-2.1,13.6-4.9,27.1-8.9,40.3c-4.4,14.6-9.7,28.8-17,42.3c-8.2,15.3-19.1,28.5-31.4,40.6c-10.4,10.2-21.6,19.5-33.6,27.8
		c-0.2,0.1-0.4,0.2-0.4,0.2c1.3,1.3,2.4,2.5,3.6,3.7c0.4-0.2,0.8-0.4,1.3-0.7c12.7-6.8,24.5-14.9,35.8-23.8
		c7.8-6.2,15.4-12.5,22.2-19.8c14.3-15.3,24.8-33,32.6-52.4c8.2-20.5,12.2-42,14.8-63.8c1-8,1.5-16.1,2.3-24.1
		c0.2-1.9,0.3-3.8,0.4-5.7c0.9,7.1,1.6,14.2,2.6,21.2c1.7,11.3,3.4,22.6,5.7,33.8c4.5,22.4,12.2,43.7,21.2,64.6
		c8.6,19.9,19.5,38.3,34.3,54.2c1.8,2,3.7,3.9,5.5,5.8c0.8-1.3,1.5-2.6,2.4-3.7c2.1-2.5,5-3.9,8.1-5
		C310.7,296,315.6,295.2,320.6,294.6z"/>
	<path d="M320.6,294.6c-5,0.6-9.9,1.3-14.6,3c-3,1.1-6,2.4-8.1,5c-0.9,1.1-1.5,2.4-2.4,3.7c-1.8-1.9-3.6-3.8-5.5-5.8
		c-14.8-16-25.7-34.3-34.3-54.2c-9-20.9-16.7-42.3-21.2-64.6c-2.2-11.2-3.9-22.5-5.7-33.8c-1.1-7-1.7-14.1-2.6-21.2
		c-0.1,1.9-0.2,3.8-0.4,5.7c-0.7,8-1.3,16.1-2.3,24.1c-2.6,21.8-6.6,43.3-14.8,63.8c-7.8,19.4-18.3,37.1-32.6,52.4
		c-6.8,7.3-14.4,13.6-22.2,19.8c-11.2,9-23.1,17-35.8,23.8c-0.5,0.2-0.9,0.5-1.3,0.7c-1.2-1.2-2.3-2.3-3.6-3.7c0,0,0.2-0.1,0.4-0.2
		c12-8.3,23.2-17.6,33.6-27.8c12.4-12.1,23.2-25.3,31.4-40.6c7.3-13.4,12.6-27.7,17-42.3c4-13.2,6.8-26.7,8.9-40.3
		c2.5-15.7,4.1-31.5,5.2-47.4c0.6-8.5,0.9-17.1,1.1-25.6c0.2-7.1,0.3-14.2,0.3-21.3c0-7.8-0.2-15.7-0.4-23.5c0-0.1,0-0.2,0.1-0.6
		c10.2,4.7,20.4,9.4,30.7,14.2c-2.2,2-4.3,3.8-6.4,5.7c-0.6,0.6-1.2,1.2-1.9,1.7c-2.1,1.3-2.5,3.1-2.6,5.5
		c-0.5,13.8-0.3,27.7,0.8,41.5c3.1,38.5,12.3,75.4,29.1,110.2c5.6,11.7,11.7,23.1,19.4,33.6c8.2,11.2,17.6,21,29.5,28.3
		c3.2,2,6.7,3.6,10.1,5.3c0.7,0.4,1,0.7,1,1.5C320.6,292.1,320.6,293.3,320.6,294.6z"/>
</g>
</svg>
