<?xml version="1.0" encoding="utf-8"?>
<!-- Generator: Adobe Illustrator 20.1.0, SVG Export Plug-In . SVG Version: 6.00 Build 0)  -->
<svg version="1.1" id="图层_1" xmlns="http://www.w3.org/2000/svg" xmlns:xlink="http://www.w3.org/1999/xlink" x="0px" y="0px"
	 viewBox="0 0 360 360" style="enable-background:new 0 0 360 360;" xml:space="preserve">
<style type="text/css">
	.st0{fill:#FFFFFF;}
</style>
<g>
	<path class="st0" d="M0.2,360.5c0-120.1,0-240.2,0-360.2c120.1,0,240.2,0,360.2,0c0,120.1,0,240.2,0,360.2
		C240.4,360.5,120.3,360.5,0.2,360.5z M181.8,67.4c0.2,0.4,0.4,0.8,0.6,1.1c7.2,13,15,25.8,23.7,37.9c8.2,11.5,17.2,22.4,27.4,32.2
		c17,16.2,36,29.8,56.4,41.4c2.4,1.3,4.8,2.6,7,3.9c1.2-2.2,2.2-4.3,3.6-6.2c3.7-5,9.1-7.3,15.1-8.4c1.7-0.3,3.4-0.5,5.1-0.7
		c0-1.7,0-3.4,0-5c0-0.7-0.3-0.9-0.9-1.1c-5.1-1.2-10.3-2.3-15.3-3.7c-14.8-4.4-28.5-11.1-41.7-19.2c-14.6-8.9-28.1-19.2-40.3-31.2
		c-12.9-12.7-24.1-26.7-33.9-41.8c-1.1-1.7-2.2-3.4-3.3-5.1c3.2-2.4,6.2-4.7,9.4-7.1c-7.5-4.8-15-9.4-22.4-14.2
		c-0.2,0.4-0.4,0.7-0.5,1c-3.2,6.6-6.3,13.4-9.7,19.9c-17.8,34.9-40.5,66.2-69.1,93.1c-14,13.1-28.9,25.2-45.1,35.4
		c-1.3,0.8-2.7,1.7-4.1,2.5c0.8,1.6,1.6,3.2,2.4,4.7c0.4-0.2,0.8-0.3,1.1-0.5c9.9-5.6,20-11,29.8-16.9
		c25.5-15.4,47.8-34.6,66.9-57.5c11.5-13.8,21.5-28.7,31.1-43.9C177.4,74.6,179.6,71,181.8,67.4z"/>
	<path d="M181.8,67.4c-2.3,3.6-4.4,7.2-6.6,10.7c-9.6,15.2-19.6,30.1-31.1,43.9c-19.1,22.9-41.3,42.1-66.9,57.5
		c-9.8,5.9-19.9,11.3-29.8,16.9c-0.3,0.2-0.6,0.3-1.1,0.5c-0.8-1.6-1.6-3.1-2.4-4.7c1.4-0.9,2.7-1.7,4.1-2.5
		c16.3-10.3,31.1-22.3,45.1-35.4c28.6-26.9,51.3-58.2,69.1-93.1c3.4-6.6,6.5-13.3,9.7-19.9c0.2-0.3,0.3-0.6,0.5-1
		c7.5,4.7,14.9,9.4,22.4,14.2c-3.2,2.4-6.3,4.7-9.4,7.1c1.1,1.7,2.2,3.5,3.3,5.1c9.9,15.1,21,29.2,33.9,41.8
		c12.2,12,25.7,22.3,40.3,31.2c13.1,8,26.9,14.8,41.7,19.2c5,1.5,10.2,2.5,15.3,3.7c0.7,0.2,1,0.3,0.9,1.1c-0.1,1.6,0,3.3,0,5
		c-1.7,0.2-3.4,0.4-5.1,0.7c-6,1.1-11.4,3.3-15.1,8.4c-1.4,1.9-2.4,4-3.6,6.2c-2.2-1.2-4.6-2.5-7-3.9
		c-20.4-11.6-39.4-25.2-56.4-41.4c-10.3-9.7-19.2-20.7-27.4-32.2c-8.7-12.1-16.4-24.9-23.7-37.9C182.3,68.2,182.1,67.8,181.8,67.4z"
		/>
</g>
</svg>
