<?xml version="1.0" encoding="utf-8"?>
<!-- Generator: Adobe Illustrator 20.1.0, SVG Export Plug-In . SVG Version: 6.00 Build 0)  -->
<svg version="1.1" id="图层_1" xmlns="http://www.w3.org/2000/svg" xmlns:xlink="http://www.w3.org/1999/xlink" x="0px" y="0px"
	 viewBox="0 0 360 360" style="enable-background:new 0 0 360 360;" xml:space="preserve">
<style type="text/css">
	.st0{fill:#FFFFFF;}
</style>
<g>
	<path class="st0" d="M0.2,360.5c0-120.1,0-240.2,0-360.2c120.1,0,240.2,0,360.2,0c0,120.1,0,240.2,0,360.2
		C240.4,360.5,120.3,360.5,0.2,360.5z M190.1,93.1c41.2,0,82.3,0,123.7,0c-7.6-8-15-15.8-22.5-23.7c-0.4,0.5-0.6,0.9-0.9,1.2
		c-4.9,4.9-9.7,9.7-14.6,14.6c-0.6,0.6-1.2,0.9-2.1,0.9c-27,0-54,0-81,0c-0.4,0-0.9,0-1.4-0.1c0.2-2.6,0.5-5.1,0.7-7.6
		c0.5-5.7,1-11.3,1.5-17c0.1-0.8,0.4-1.5,1-2c2.3-2,4.6-4,6.8-6c0.9-0.8,1.9-1.7,2.9-2.6c-9.5-4-18.8-7.9-28.2-11.7
		c0.1,7.9,0.4,15.7,0.4,23.6c0,7.8-0.3,15.6-0.5,23.5c-41,0-81.7,0-122.6,0c0.4,0.5,0.7,0.7,1,1c2.9,2.9,5.9,5.9,8.8,8.8
		c0.6,0.6,1.2,0.7,2,0.5c8.6-2.3,17.4-3.3,26.2-3.3c27.3-0.1,54.6,0,81.9,0c0.4,0,0.9,0,1.4,0c-0.8,11.8-1.6,23.5-2.3,35.3
		c5.2,0,10.2,0,15.4,0C188.6,116.7,189.3,105,190.1,93.1z"/>
	<path d="M190.1,93.1c-0.8,11.9-1.6,23.6-2.4,35.3c-5.2,0-10.2,0-15.4,0c0.8-11.8,1.6-23.5,2.3-35.3c-0.6,0-1,0-1.4,0
		c-27.3,0-54.6,0-81.9,0c-8.9,0-17.6,1-26.2,3.3c-0.8,0.2-1.4,0.1-2-0.5c-2.9-3-5.9-5.9-8.8-8.8c-0.3-0.3-0.5-0.6-1-1
		c40.9,0,81.6,0,122.6,0c0.2-7.9,0.5-15.7,0.5-23.5c0-7.8-0.3-15.6-0.4-23.6c9.4,3.9,18.7,7.8,28.2,11.7c-1,0.9-2,1.8-2.9,2.6
		c-2.3,2-4.5,4.1-6.8,6c-0.7,0.6-1,1.2-1,2c-0.5,5.7-1,11.3-1.5,17c-0.2,2.5-0.4,5-0.7,7.6c0.5,0,0.9,0.1,1.4,0.1c27,0,54,0,81,0
		c0.9,0,1.5-0.3,2.1-0.9c4.8-4.9,9.7-9.7,14.6-14.6c0.3-0.3,0.5-0.7,0.9-1.2c7.6,8,14.9,15.7,22.5,23.7
		C272.5,93.1,231.4,93.1,190.1,93.1z"/>
</g>
</svg>
