<?xml version="1.0" encoding="utf-8"?>
<!-- Generator: Adobe Illustrator 20.1.0, SVG Export Plug-In . SVG Version: 6.00 Build 0)  -->
<svg version="1.1" id="图层_1" xmlns="http://www.w3.org/2000/svg" xmlns:xlink="http://www.w3.org/1999/xlink" x="0px" y="0px"
	 viewBox="0 0 360 360" style="enable-background:new 0 0 360 360;" xml:space="preserve">
<style type="text/css">
	.st0{fill:#FFFFFF;}
</style>
<g>
	<path class="st0" d="M0.2,360.5c0-120.1,0-240.2,0-360.2c120.1,0,240.2,0,360.2,0c0,120.1,0,240.2,0,360.2
		C240.4,360.5,120.3,360.5,0.2,360.5z M170,41.2c2,37.1,0.8,73.9,1.2,110.9c-35.4,0-70.6,0-106,0c3.4,3.4,6.6,6.6,9.8,9.8
		c0.6,0.6,1.1,0.8,2,0.5c8.2-2.2,16.5-3.2,24.9-3.2c22.6-0.1,45.3,0,67.9,0c0.4,0,0.9,0,1.4,0c0,0.7,0,1.2,0,1.8
		c0,35.4,0.1,70.9,0,106.3c0,14.1-0.5,28.1-0.7,42.2c0,2.5,0,4.9,0,7.4c0.2-0.1,0.6-0.2,0.9-0.4c5.3-2.3,10.7-4.7,16-7
		c1.3-0.5,1.6-1.2,1.6-2.5c-0.4-15.4-1-30.8-1.1-46.3c-0.2-16,0-32.1,0-48.1c0-17.4,0-34.7,0-52.1c0-0.4,0-0.8,0-1.4
		c37,0,73.7,0,110.4,0c-7.4-7.4-14.8-14.8-22.3-22.2c-0.2,0.2-0.5,0.5-0.8,0.8c-4.5,4.5-9,9.1-13.6,13.5c-0.5,0.4-1.2,0.8-1.8,0.8
		c-23.5,0-47,0-70.6,0c-0.4,0-0.8,0-1.3-0.1c0-0.4,0-0.7,0-0.9c0-28.4,0-56.8,0-85.2c0-0.5,0.3-1.1,0.7-1.5c2.6-2.7,5.2-5.3,7.9-7.9
		c0.3-0.3,0.5-0.6,0.9-0.9C188.1,50.7,179.2,46,170,41.2z"/>
	<path d="M170,41.2c9.2,4.8,18.1,9.5,27.2,14.2c-0.4,0.4-0.6,0.7-0.9,0.9c-2.6,2.6-5.3,5.2-7.9,7.9c-0.4,0.4-0.7,1-0.7,1.5
		c0,28.4,0,56.8,0,85.2c0,0.3,0,0.5,0,0.9c0.5,0,0.9,0.1,1.3,0.1c23.5,0,47,0,70.6,0c0.6,0,1.4-0.3,1.8-0.8c4.6-4.5,9.1-9,13.6-13.5
		c0.3-0.3,0.6-0.6,0.8-0.8c7.4,7.4,14.8,14.8,22.3,22.2c-36.7,0-73.5,0-110.4,0c0,0.5,0,1,0,1.4c0,17.4,0,34.7,0,52.1
		c0,16-0.1,32.1,0,48.1c0.2,15.4,0.7,30.8,1.1,46.3c0,1.3-0.3,2-1.6,2.5c-5.4,2.2-10.7,4.6-16,7c-0.4,0.2-0.7,0.3-0.9,0.4
		c0-2.5,0-4.9,0-7.4c0.3-14.1,0.7-28.1,0.7-42.2c0.1-35.4,0-70.9,0-106.3c0-0.5,0-1.1,0-1.8c-0.6,0-1,0-1.4,0
		c-22.6,0-45.3-0.1-67.9,0c-8.4,0-16.7,1.1-24.9,3.2c-0.8,0.2-1.4,0.1-2-0.5c-3.2-3.2-6.4-6.4-9.8-9.8c35.4,0,70.6,0,106,0
		C170.8,115.1,172,78.3,170,41.2z"/>
</g>
</svg>
