<?xml version="1.0" encoding="utf-8"?>
<!-- Generator: Adobe Illustrator 20.1.0, SVG Export Plug-In . SVG Version: 6.00 Build 0)  -->
<svg version="1.1" id="图层_1" xmlns="http://www.w3.org/2000/svg" xmlns:xlink="http://www.w3.org/1999/xlink" x="0px" y="0px"
	 viewBox="0 0 360 360" style="enable-background:new 0 0 360 360;" xml:space="preserve">
<style type="text/css">
	.st0{fill:#FFFFFF;}
</style>
<g>
	<path class="st0" d="M0.2,360.5c0-120.1,0-240.2,0-360.2c120.1,0,240.2,0,360.2,0c0,120.1,0,240.2,0,360.2
		C240.4,360.5,120.3,360.5,0.2,360.5z M171.3,101.5c0,45.5,0,91,0,136.6c-41.7,0-83.1,0-124.9,0c3.2,3.2,6.2,6.2,9.1,9.1
		c0.2,0.2,0.8,0.3,1.2,0.2c1.7-0.2,3.4-0.5,5.1-0.8c3.5-0.5,7-1.4,10.4-1.4c32.5-0.1,65-0.1,97.4-0.1c0.5,0,0.9,0,1.7,0
		c-0.4,24-0.8,47.9-1.2,71.8c5.9-2.6,11.7-5.1,17.5-7.6c0.9-0.4,1.2-0.9,1.2-1.8c-0.3-8.6-0.7-17.2-0.9-25.8
		c-0.2-9.3-0.1-18.6-0.2-27.8c0-0.5,0-1-0.1-1.6c0-2.3,0-4.7,0-7.2c44.4,0,88.6,0,132.7,0c-8.6-8.6-17.1-17.1-25.9-25.9
		c-0.2,0.2-0.4,0.6-0.7,0.9c-5.7,5.7-11.4,11.4-17.1,17c-0.4,0.4-1.2,0.8-1.8,0.8c-28.6,0-57.3,0-85.9,0c-0.4,0-0.8,0-1.4-0.1
		c0.1-45.6,0.3-91,0.4-136.5C182.5,101.5,176.9,101.5,171.3,101.5z"/>
	<path d="M171.3,101.5c5.7,0,11.2,0,16.8,0c-0.1,45.5-0.3,90.9-0.4,136.5c0.6,0,1,0.1,1.4,0.1c28.6,0,57.3,0,85.9,0
		c0.6,0,1.4-0.3,1.8-0.8c5.7-5.6,11.4-11.3,17.1-17c0.3-0.3,0.5-0.7,0.7-0.9c8.7,8.7,17.3,17.3,25.9,25.9c-44.1,0-88.4,0-132.7,0
		c0,2.5,0,4.8,0,7.2c0,0.5,0,1,0.1,1.6c0.1,9.3,0,18.6,0.2,27.8c0.2,8.6,0.6,17.2,0.9,25.8c0,1-0.2,1.5-1.2,1.8
		c-5.8,2.5-11.6,5.1-17.5,7.6c0.4-23.9,0.8-47.8,1.2-71.8c-0.8,0-1.3,0-1.7,0c-32.5,0-65,0-97.4,0.1c-3.5,0-7,0.9-10.4,1.4
		c-1.7,0.2-3.4,0.6-5.1,0.8c-0.4,0.1-1,0-1.2-0.2c-3-2.9-5.9-5.9-9.1-9.1c41.8,0,83.3,0,124.9,0C171.3,192.5,171.3,147,171.3,101.5z
		"/>
</g>
</svg>
