<?xml version="1.0" encoding="utf-8"?>
<!-- Generator: Adobe Illustrator 20.1.0, SVG Export Plug-In . SVG Version: 6.00 Build 0)  -->
<svg version="1.1" id="图层_1" xmlns="http://www.w3.org/2000/svg" xmlns:xlink="http://www.w3.org/1999/xlink" x="0px" y="0px"
	 viewBox="0 0 360 360" style="enable-background:new 0 0 360 360;" xml:space="preserve">
<style type="text/css">
	.st0{fill:#FFFFFF;}
</style>
<g>
	<path class="st0" d="M0.2,360.5c0-120.1,0-240.2,0-360.2c120.1,0,240.2,0,360.2,0c0,120.1,0,240.2,0,360.2
		C240.4,360.5,120.3,360.5,0.2,360.5z M173.6,159.2c-43.2,0-86.3,0-129.6,0c3.5,3.5,6.9,6.9,10.3,10.2c0.3,0.3,1,0.3,1.4,0.1
		c8-2,16.2-3.2,24.4-3.2c30.7,0,61.4,0,92.2,0c0.4,0,0.8,0,1.4,0c0,0.7,0,1.2,0,1.7c0,35.6,0,71.2,0,106.8c0,9.5-0.3,18.9-0.5,28.4
		c-0.1,4.2-0.4,8.4-0.6,12.7c6.8-2.8,13.4-5.5,20.1-8.3c-0.1-0.8-0.2-1.6-0.2-2.3c-0.3-9.7-0.9-19.4-0.9-29.1
		c-0.1-36.2,0-72.4,0-108.6c0-0.4,0-0.8,0-1.4c42.8,0,85.5,0,128,0c-8.2-8.2-16.3-16.3-24.6-24.6c-0.2,0.2-0.5,0.5-0.8,0.8
		c-5.3,5.3-10.6,10.6-15.9,15.9c-0.6,0.6-1.1,0.8-2,0.8c-27.8,0-55.7,0-83.5,0c-0.4,0-0.8,0-1.4,0c0-28.3,0-56.4,0-84.6
		c-0.4,0.2-0.7,0.3-1,0.4c-5,2.3-9.9,4.6-15,6.8c-1.4,0.6-1.7,1.3-1.7,2.7c0,24.3,0,48.6,0,73C173.6,157.9,173.6,158.5,173.6,159.2z
		"/>
	<path d="M173.6,159.2c0-0.7,0-1.2,0-1.7c0-24.3,0-48.6,0-73c0-1.4,0.3-2.1,1.7-2.7c5-2.2,10-4.5,15-6.8c0.3-0.1,0.6-0.2,1-0.4
		c0,28.2,0,56.3,0,84.6c0.5,0,1,0,1.4,0c27.8,0,55.7,0,83.5,0c0.8,0,1.4-0.3,2-0.8c5.3-5.3,10.6-10.6,15.9-15.9
		c0.3-0.3,0.6-0.6,0.8-0.8c8.2,8.2,16.4,16.4,24.6,24.6c-42.5,0-85.2,0-128,0c0,0.5,0,0.9,0,1.4c0,36.2-0.1,72.4,0,108.6
		c0,9.7,0.6,19.4,0.9,29.1c0,0.7,0.1,1.4,0.2,2.3c-6.7,2.7-13.3,5.5-20.1,8.3c0.2-4.3,0.5-8.5,0.6-12.7c0.2-9.5,0.5-18.9,0.5-28.4
		c0.1-35.6,0-71.2,0-106.8c0-0.5,0-1,0-1.7c-0.5,0-0.9,0-1.4,0c-30.7,0-61.4,0-92.2,0c-8.3,0-16.4,1.2-24.4,3.2
		c-0.4,0.1-1.1,0.1-1.4-0.1c-3.4-3.3-6.7-6.6-10.3-10.2C87.3,159.2,130.3,159.2,173.6,159.2z"/>
</g>
</svg>
