<?xml version="1.0" encoding="utf-8"?>
<!-- Generator: Adobe Illustrator 20.1.0, SVG Export Plug-In . SVG Version: 6.00 Build 0)  -->
<svg version="1.1" id="图层_1" xmlns="http://www.w3.org/2000/svg" xmlns:xlink="http://www.w3.org/1999/xlink" x="0px" y="0px"
	 viewBox="0 0 360 360" style="enable-background:new 0 0 360 360;" xml:space="preserve">
<style type="text/css">
	.st0{fill:#FFFFFF;}
</style>
<g>
	<path class="st0" d="M0.2,360.5c0-120.1,0-240.2,0-360.2c120.1,0,240.2,0,360.2,0c0,120.1,0,240.2,0,360.2
		C240.4,360.5,120.3,360.5,0.2,360.5z M94.6,119c2.2-0.7,4.2-1.5,6.2-2.1c9.9-2.9,20.1-4.3,30.3-5.2c12.3-1,24.6-1.7,37-2.5
		c8.8-0.6,17.6-1.1,26.4-1.6c9.5-0.6,19-1.2,28.5-1.8c10-0.6,19.9-1.2,29.9-1.8c0.4,0,1,0.2,1.3,0.5c2.1,2.1,4.2,4.2,6.1,6.4
		c3.1,3.7,6.1,7.5,9.1,11.3c2.7,3.3,5.4,3.3,7.8-0.2c1.9-2.7,3.3-5.7,3.9-9c0.3-1.9,0.4-3.8,0.2-5.7c-0.6-4.8-3.4-8.4-6.8-11.5
		c-4.7-4.2-10.2-7.2-15.7-10c-10.8-5.5-22-9.9-33.3-14c-3.1-1.1-6.3-2.2-9.5-3.4c-0.8,1.6-1.6,3.2-2.3,4.5c6.3,4,12.5,7.9,18.7,12
		c6.2,4.1,11.9,8.8,17.7,14.1c-47.8,0.4-95.2,0.8-142.6,1.2c4.4-2.4,8.9-4.4,13.2-6.8c17.3-9.6,34.6-19.3,51.9-29
		c0.8-0.4,1.6-0.8,2.4-1c1.7-0.5,3.5-0.9,5.2-1.3c2.5-0.6,5-1.3,7.7-1.9c-6-6.4-11.8-12.6-17.7-18.9c-1.6,1.9-3.1,3.8-4.7,5.5
		c-6.9,7.7-14.7,14.6-22.8,21.1c-8.4,6.8-16.8,13.4-26.1,18.9c-7.3,4.4-15,8.1-23.4,10c-2.2,0.5-4.5,0.8-6.8,1.2
		C89.2,105,91.9,112,94.6,119z"/>
	<path d="M94.6,119c-2.7-7-5.4-14-8.2-21c2.3-0.4,4.6-0.7,6.8-1.2c8.4-1.9,16-5.6,23.4-10c9.3-5.5,17.8-12.1,26.1-18.9
		c8.1-6.5,15.8-13.4,22.8-21.1c1.6-1.8,3-3.6,4.7-5.5c5.8,6.2,11.7,12.5,17.7,18.9c-2.7,0.7-5.2,1.3-7.7,1.9
		c-1.7,0.4-3.5,0.8-5.2,1.3c-0.8,0.2-1.7,0.6-2.4,1c-17.3,9.7-34.6,19.4-51.9,29c-4.3,2.4-8.8,4.4-13.2,6.8
		c47.4-0.4,94.8-0.8,142.6-1.2c-5.7-5.3-11.5-10-17.7-14.1c-6.1-4.1-12.4-8-18.7-12c0.7-1.4,1.4-2.9,2.3-4.5
		c3.2,1.1,6.3,2.2,9.5,3.4c11.3,4.1,22.6,8.5,33.3,14c5.6,2.8,11.1,5.8,15.7,10c3.5,3.1,6.2,6.7,6.8,11.5c0.2,1.9,0.2,3.9-0.2,5.7
		c-0.6,3.2-2,6.2-3.9,9c-2.4,3.5-5.2,3.5-7.8,0.2c-3-3.8-6-7.6-9.1-11.3c-1.9-2.3-4-4.3-6.1-6.4c-0.3-0.3-0.9-0.5-1.3-0.5
		c-10,0.6-19.9,1.2-29.9,1.8c-9.5,0.6-19,1.2-28.5,1.8c-8.8,0.6-17.6,1.1-26.4,1.6c-12.3,0.8-24.7,1.5-37,2.5
		c-10.2,0.9-20.4,2.3-30.3,5.2C98.8,117.5,96.7,118.3,94.6,119z"/>
</g>
</svg>
