<?xml version="1.0" encoding="utf-8"?>
<!-- Generator: Adobe Illustrator 20.1.0, SVG Export Plug-In . SVG Version: 6.00 Build 0)  -->
<svg version="1.1" id="图层_1" xmlns="http://www.w3.org/2000/svg" xmlns:xlink="http://www.w3.org/1999/xlink" x="0px" y="0px"
	 viewBox="0 0 360 360" style="enable-background:new 0 0 360 360;" xml:space="preserve">
<style type="text/css">
	.st0{fill:#FFFFFF;}
</style>
<g>
	<path class="st0" d="M0.2,360.5c0-120.1,0-240.2,0-360.2c120.1,0,240.2,0,360.2,0c0,120.1,0,240.2,0,360.2
		C240.4,360.5,120.3,360.5,0.2,360.5z M99.3,305.2c1.5-0.7,3-1.5,4.4-2.1c14.1-5.8,28.9-8.8,44.1-10.3c7.6-0.8,15.2-1.5,22.8-2.2
		c9.4-0.8,18.7-1.6,28.1-2.3c9.5-0.7,19-1.4,28.5-2c10.8-0.7,21.7-1.4,32.5-2.2c0.9-0.1,1.3,0.2,1.7,0.9c2.9,4.9,5.8,9.9,8.6,14.8
		c1.6,2.8,3.1,5.8,5,8.5c2,3,4.8,3.1,7,0.3c3.8-4.6,6.1-9.9,6.7-15.9c0.6-6.3-1.6-11.8-5.1-16.8c-3.7-5.3-8.5-9.5-13.6-13.5
		c-9.1-7.1-18.9-13.2-29-18.8c-7.5-4.2-15.2-8.1-22.9-12.1c-0.4-0.2-1-0.3-1.3-0.1c-1.2,1-2.2,2.1-3.3,3.1c0.3,0.3,0.5,0.5,0.7,0.6
		c8.8,7.6,17.4,15.3,25.5,23.6c5.2,5.3,10.2,10.8,14.5,16.9c0.5,0.8,1,1.6,1.7,2.5c-49.4,0.4-98.5,0.8-147.7,1.2
		c0-0.1,0-0.2-0.1-0.3c0.6-0.4,1.1-0.8,1.7-1.2c15.6-11,29.5-24,42.5-37.9c10.6-11.3,21.3-22.5,32-33.8c0.6-0.6,1.4-1.1,2.2-1.3
		c3.5-1.2,7-2.4,10.6-3.6c0.7-0.2,1.4-0.5,2.3-0.8c-0.5-0.3-0.8-0.6-1.1-0.8c-5.1-3.4-10.3-6.5-15.1-10.2c-3.4-2.5-6.9-3.7-11.1-3.3
		c-0.8,0.1-1.2,0.3-1.5,1c-3.3,7.3-7.1,14.3-11.3,21.1c-8,13-17.3,24.9-27.4,36.3c-7.2,8-14.7,15.7-23.3,22.3
		c-5.8,4.4-11.8,8.2-18.9,10.2c-1.9,0.5-3.8,0.8-5.8,1.2C89.2,287.3,94.2,296.2,99.3,305.2z"/>
	<path d="M99.3,305.2c-5.1-9-10.1-17.9-15.2-26.9c2-0.4,3.9-0.7,5.8-1.2c7.1-2,13.1-5.8,18.9-10.2c8.6-6.5,16.1-14.2,23.3-22.3
		c10.1-11.4,19.4-23.3,27.4-36.3c4.2-6.8,8-13.8,11.3-21.1c0.3-0.7,0.7-0.9,1.5-1c4.2-0.5,7.7,0.7,11.1,3.3
		c4.9,3.6,10.1,6.8,15.1,10.2c0.3,0.2,0.6,0.4,1.1,0.8c-0.9,0.3-1.6,0.5-2.3,0.8c-3.5,1.2-7.1,2.3-10.6,3.6
		c-0.8,0.3-1.6,0.7-2.2,1.3c-10.7,11.2-21.4,22.4-32,33.8c-13,13.9-26.9,26.9-42.5,37.9c-0.6,0.4-1.1,0.8-1.7,1.2
		c0,0.1,0,0.2,0.1,0.3c49.1-0.4,98.3-0.8,147.7-1.2c-0.6-0.9-1.1-1.7-1.7-2.5c-4.3-6.1-9.3-11.6-14.5-16.9
		c-8.1-8.3-16.7-16-25.5-23.6c-0.2-0.2-0.4-0.3-0.7-0.6c1.1-1.1,2.2-2.2,3.3-3.1c0.2-0.2,0.9-0.1,1.3,0.1c7.6,4,15.3,8,22.9,12.1
		c10.1,5.6,19.9,11.7,29,18.8c5.1,3.9,9.9,8.2,13.6,13.5c3.5,5.1,5.7,10.6,5.1,16.8c-0.5,6-2.9,11.3-6.7,15.9c-2.3,2.8-5,2.7-7-0.3
		c-1.8-2.7-3.3-5.6-5-8.5c-2.9-4.9-5.8-9.9-8.6-14.8c-0.4-0.7-0.8-1-1.7-0.9c-10.8,0.7-21.7,1.4-32.5,2.2c-9.5,0.6-19,1.3-28.5,2
		c-9.4,0.7-18.7,1.5-28.1,2.3c-7.6,0.7-15.2,1.5-22.8,2.2c-15.1,1.5-29.9,4.5-44.1,10.3C102.3,303.7,100.9,304.5,99.3,305.2z"/>
</g>
</svg>
