<?xml version="1.0" encoding="utf-8"?>
<!-- Generator: Adobe Illustrator 20.1.0, SVG Export Plug-In . SVG Version: 6.00 Build 0)  -->
<svg version="1.1" id="图层_1" xmlns="http://www.w3.org/2000/svg" xmlns:xlink="http://www.w3.org/1999/xlink" x="0px" y="0px"
	 viewBox="0 0 360 360" style="enable-background:new 0 0 360 360;" xml:space="preserve">
<style type="text/css">
	.st0{fill:#FFFFFF;}
</style>
<g>
	<path class="st0" d="M0.2,360.5c0-120.1,0-240.2,0-360.2c120.1,0,240.2,0,360.2,0c0,120.1,0,240.2,0,360.2
		C240.4,360.5,120.3,360.5,0.2,360.5z M46.6,112c0,0.1-0.1,0.2-0.1,0.3c3.2,3.2,6.4,6.4,9.6,9.6c0.6,0.6,1.1,0.8,2,0.6
		c8.8-2.4,17.8-3.3,26.9-3.3c78,0,156.1,0,234.1,0c0.5,0,1,0,1.5,0c-8.6-8.6-17.2-17.2-25.8-25.8c-0.2,0.2-0.5,0.4-0.7,0.7
		c-5.5,5.5-11.1,11.1-16.6,16.6c-0.9,0.9-1.8,1.3-3.1,1.3c-75.4,0-150.8,0-226.2,0C47.6,112,47.1,112,46.6,112z M158.3,47.2
		c0.3,0.4,0.6,0.8,0.8,1.1c11.1,14.6,20.8,30,25.5,48c0.7,2.7,1.9,5.4,3.9,7.5c1.8,2,4,2.3,6.3,0.9c0.6-0.4,1.3-0.8,1.8-1.3
		c3.2-3,5.7-6.6,7.4-10.6c3.1-7.3,2.3-14.1-3.3-20.1c-2.3-2.4-4.7-4.7-7.2-6.9c-9.8-8.3-20.6-15.2-31.5-22.1c-0.1-0.1-0.2-0.1-0.2,0
		C160.7,44.9,159.5,46,158.3,47.2z"/>
	<path d="M46.6,112c0.5,0,1,0,1.5,0c75.4,0,150.8,0,226.2,0c1.3,0,2.2-0.4,3.1-1.3c5.5-5.6,11.1-11.1,16.6-16.6
		c0.3-0.3,0.6-0.5,0.7-0.7c8.6,8.6,17.1,17.1,25.8,25.8c-0.5,0-1,0-1.5,0c-78,0-156.1,0-234.1,0c-9.1,0-18.1,0.9-26.9,3.3
		c-0.8,0.2-1.4,0.1-2-0.6c-3.2-3.2-6.4-6.4-9.6-9.6C46.5,112.2,46.6,112.1,46.6,112z"/>
	<path d="M158.3,47.2c1.2-1.2,2.4-2.3,3.6-3.5c0,0,0.1,0,0.2,0c10.8,6.8,21.6,13.8,31.5,22.1c2.5,2.1,4.9,4.4,7.2,6.9
		c5.6,5.9,6.4,12.7,3.3,20.1c-1.7,4-4.2,7.6-7.4,10.6c-0.5,0.5-1.2,1-1.8,1.3c-2.3,1.4-4.4,1.1-6.3-0.9c-2-2.1-3.2-4.7-3.9-7.5
		c-4.6-18.1-14.4-33.4-25.5-48C158.8,48,158.6,47.7,158.3,47.2z"/>
</g>
</svg>
