<?xml version="1.0" encoding="utf-8"?>
<!-- Generator: Adobe Illustrator 20.1.0, SVG Export Plug-In . SVG Version: 6.00 Build 0)  -->
<svg version="1.1" id="图层_1" xmlns="http://www.w3.org/2000/svg" xmlns:xlink="http://www.w3.org/1999/xlink" x="0px" y="0px"
	 viewBox="0 0 360 360" style="enable-background:new 0 0 360 360;" xml:space="preserve">
<style type="text/css">
	.st0{fill:#FFFFFF;}
</style>
<g>
	<path class="st0" d="M0.2,360.5c0-120.1,0-240.2,0-360.2c120.1,0,240.2,0,360.2,0c0,120.1,0,240.2,0,360.2
		C240.4,360.5,120.3,360.5,0.2,360.5z M301.7,89.6c-8.3-8.3-16.4-16.4-24.7-24.7c-0.2,0.2-0.4,0.5-0.7,0.8
		c-5.1,5.2-10.3,10.3-15.4,15.5c-0.9,0.9-1.8,1.3-3.1,1.3c-67.5,0-135,0-202.5,0c-0.5,0-1.1,0-1.7,0c0.2,0.3,0.2,0.4,0.3,0.5
		c3.2,3.3,6.5,6.5,9.8,9.7c0.3,0.3,0.9,0.3,1.3,0.2c4.4-0.9,8.8-1.8,13.1-2.8c2.8-0.7,5.5-0.5,8.4-0.5c0,0.7,0,1.2,0,1.8
		c0,58,0,116.1,0,174.1c0,1.8,0.5,3.9-0.2,5.4c-0.7,1.5-2.6,2.5-3.9,3.8c-2.1,1.9-4.3,3.8-6.5,5.8c6.4,5.2,12.6,10.2,18.9,15.4
		c2.9-3.6,5.7-7,8.4-10.5c0.7-1,1.5-1.3,2.7-1.3c65.2,0,130.5,0,195.7,0c0.5,0,1.1,0,1.7,0c-8.7-8.7-17.3-17.3-25.9-25.9
		c-0.2,0.2-0.6,0.5-0.9,0.8c-5.7,5.7-11.4,11.4-17,17.1c-0.6,0.6-1.3,0.9-2.2,0.9c-50.5,0-101,0-151.4,0c-0.5,0-0.9,0-1.5,0
		c0-62.5,0-124.9,0-187.3C170.1,89.6,235.9,89.6,301.7,89.6z"/>
	<path d="M301.7,89.6c-65.8,0-131.7,0-197.6,0c0,62.5,0,124.8,0,187.3c0.5,0,1,0,1.5,0c50.5,0,101,0,151.4,0c0.9,0,1.5-0.3,2.2-0.9
		c5.7-5.7,11.4-11.4,17-17.1c0.3-0.3,0.6-0.6,0.9-0.8c8.6,8.6,17.2,17.2,25.9,25.9c-0.6,0-1.1,0-1.7,0c-65.2,0-130.5,0-195.7,0
		c-1.2,0-2,0.3-2.7,1.3c-2.7,3.5-5.5,6.9-8.4,10.5c-6.3-5.1-12.6-10.2-18.9-15.4c2.2-2,4.3-3.9,6.5-5.8c1.4-1.2,3.2-2.2,3.9-3.8
		c0.7-1.5,0.2-3.6,0.2-5.4c0-58,0-116.1,0-174.1c0-0.6,0-1.1,0-1.8c-2.9,0-5.7-0.2-8.4,0.5c-4.3,1-8.7,1.9-13.1,2.8
		c-0.4,0.1-1,0-1.3-0.2c-3.3-3.2-6.5-6.5-9.8-9.7c-0.1-0.1-0.1-0.2-0.3-0.5c0.7,0,1.2,0,1.7,0c67.5,0,135,0,202.5,0
		c1.3,0,2.2-0.4,3.1-1.3c5.1-5.2,10.3-10.3,15.4-15.5c0.3-0.3,0.5-0.6,0.7-0.8C285.3,73.2,293.5,81.3,301.7,89.6z"/>
</g>
</svg>
