<?xml version="1.0" encoding="utf-8"?>
<!-- Generator: Adobe Illustrator 20.1.0, SVG Export Plug-In . SVG Version: 6.00 Build 0)  -->
<svg version="1.1" id="图层_1" xmlns="http://www.w3.org/2000/svg" xmlns:xlink="http://www.w3.org/1999/xlink" x="0px" y="0px"
	 viewBox="0 0 360 360" style="enable-background:new 0 0 360 360;" xml:space="preserve">
<style type="text/css">
	.st0{fill:#FFFFFF;}
</style>
<g>
	<path class="st0" d="M0.2,360.5c0-120.1,0-240.2,0-360.2c120.1,0,240.2,0,360.2,0c0,120.1,0,240.2,0,360.2
		C240.4,360.5,120.3,360.5,0.2,360.5z M106.3,134.5c-3.5,3.5-7.1,7.1-10.7,10.7c-0.7,0.7-1.4,1-2.4,1c-16.3,0-32.6,0-49,0
		c-0.4,0-0.8,0-1.5,0c3.5,3.5,6.7,6.7,9.9,9.9c0.6,0.6,1.1,0.7,1.9,0.5c6.2-1.6,12.5-2.7,18.9-2.9c7.3-0.2,14.5-0.2,21.8-0.3
		c0.1,0,0.3,0.1,0.5,0.1c0,0.5,0,1.1,0,1.6c0,35.3,0,70.5,0,105.8c0,2.9-0.1,5.8-0.3,8.6c-0.4,4.9-1.4,9.6-4,13.9
		c-0.3,0.6-0.2,0.9,0.2,1.4c2,2.4,3.9,4.8,5.9,7.3c2.9,3.6,5.9,7.3,8.8,10.9c15.6-24.1,33.4-46.6,50.6-69.3
		c-1.2-1.2-2.4-2.4-3.6-3.6c-13.5,12.7-27.1,25.6-41,38.6c0-0.8,0-1.3,0-1.7c0-34.7,0-69.4-0.1-104.1c0-2.6,0.6-4.3,2.9-5.8
		c2.7-1.8,5.2-4,7.7-5.9C117.3,145.5,111.9,140,106.3,134.5z M80.5,51.9c2.2,2.6,4.5,5,6.6,7.5c7.9,9.4,14.7,19.4,18.3,31.3
		c0.9,3.1,2.3,6,4.4,8.4c2.3,2.6,4.8,2.8,7.5,0.9c4.2-2.9,6.3-7.1,7.4-11.9c1-4.2,0.8-8.3-1.4-12.2c-2.1-3.9-5.2-6.9-8.8-9.4
		c-7.5-5.4-15.5-10-23.7-14.2c-2.7-1.4-5.3-2.6-8.1-4C82.1,49.6,81.3,50.7,80.5,51.9z"/>
	<path d="M106.3,134.5c5.6,5.6,11,11,16.5,16.5c-2.5,2-5,4.1-7.7,5.9c-2.2,1.5-2.9,3.2-2.9,5.8c0.1,34.7,0.1,69.4,0.1,104.1
		c0,0.5,0,0.9,0,1.7c13.8-13.1,27.5-25.9,41-38.6c1.2,1.2,2.4,2.4,3.6,3.6c-17.2,22.6-34.9,45.2-50.6,69.3
		c-2.9-3.6-5.9-7.2-8.8-10.9c-2-2.4-3.9-4.9-5.9-7.3c-0.4-0.5-0.5-0.8-0.2-1.4c2.6-4.3,3.6-9,4-13.9c0.2-2.9,0.3-5.7,0.3-8.6
		c0-35.3,0-70.5,0-105.8c0-0.5,0-1,0-1.6c-0.2,0-0.4-0.1-0.5-0.1c-7.3,0.1-14.6,0-21.8,0.3c-6.4,0.2-12.7,1.3-18.9,2.9
		c-0.8,0.2-1.3,0.1-1.9-0.5c-3.2-3.2-6.4-6.4-9.9-9.9c0.7,0,1.1,0,1.5,0c16.3,0,32.6,0,49,0c1,0,1.7-0.2,2.4-1
		C99.2,141.6,102.8,138,106.3,134.5z"/>
	<path d="M80.5,51.9c0.8-1.1,1.5-2.3,2.4-3.6c2.8,1.4,5.4,2.6,8.1,4c8.2,4.2,16.2,8.8,23.7,14.2c3.5,2.5,6.6,5.5,8.8,9.4
		c2.2,3.9,2.3,8,1.4,12.2c-1.1,4.8-3.2,9-7.4,11.9c-2.8,1.9-5.3,1.7-7.5-0.9c-2.2-2.4-3.5-5.4-4.4-8.4C101.8,78.8,95,68.8,87.1,59.4
		C85,56.9,82.8,54.4,80.5,51.9z"/>
</g>
</svg>
