<?xml version="1.0" encoding="utf-8"?>
<!-- Generator: Adobe Illustrator 20.1.0, SVG Export Plug-In . SVG Version: 6.00 Build 0)  -->
<svg version="1.1" id="图层_1" xmlns="http://www.w3.org/2000/svg" xmlns:xlink="http://www.w3.org/1999/xlink" x="0px" y="0px"
	 viewBox="0 0 360 360" style="enable-background:new 0 0 360 360;" xml:space="preserve">
<style type="text/css">
	.st0{fill:#FFFFFF;}
</style>
<g>
	<path class="st0" d="M0.2,360.5c0-120.1,0-240.2,0-360.2c120.1,0,240.2,0,360.2,0c0,120.1,0,240.2,0,360.2
		C240.4,360.5,120.3,360.5,0.2,360.5z M86.5,157.9c0.3-0.5,0.4-0.7,0.6-1c14.5-23.7,29.1-47.4,43.6-71.1c0.3-0.5,0.9-1,1.5-1.3
		c3.1-1.5,6.3-2.8,9.6-4.3c-6-6.4-11.8-12.6-17.7-18.9c-2.7,2.7-5.4,5.3-7.9,8c-1,1.1-2,1.5-3.5,1.5c-19.2-0.1-38.4,0-57.6,0
		c-0.5,0-0.9,0-1.6,0c0.5,0.5,0.7,0.8,1,1c2.1,2.1,4.3,4,6.1,6.2c1.6,1.9,3.2,2.2,5.5,1.6c2.8-0.8,5.7-1.6,8.6-1.6
		c13.6-0.2,27.3-0.1,40.9-0.1c0.4,0,0.9,0,1.5,0c-0.3,0.6-0.5,0.9-0.7,1.3c-13.2,23.4-26.5,46.9-39.7,70.4c-0.6,1-1.3,1.5-2.3,1.9
		c-3.8,1.3-7.6,2.7-11.2,4.1c5.1,5.1,10.2,10.2,15.3,15.3c1.9-1.6,3.9-3.3,6-4.9c0.5-0.4,1.3-0.7,2-0.7c12.5,0,25,0,37.6,0
		c0.4,0,0.8,0,1.3,0c-3.6,26.7-9.4,52.7-20,77.7c-13.6-14.5-23.3-31.3-33-48.3c-1.6,0.8-3.2,1.6-4.8,2.4c9,20.6,17.8,41.2,31.8,59
		c-14,21.2-29,41.7-49.4,57.6c0.8,1.6,1.5,3.1,2.4,4.7c21.7-14.8,41.2-31.6,56.5-52.9c2.4,2.2,4.6,4.4,7,6.4
		c12,10.4,25.7,18.1,40.4,24c19.5,7.8,39.9,12.1,60.7,14.6c15.9,2,31.9,2.8,47.8,2.8c8.4,0,16.9-0.3,25.3-0.5
		c2.4-0.1,4.8-0.2,7.2-0.4c0.1-3.5,1.4-6.5,3.8-8.9c1.8-1.8,3.8-3.7,6-4.9c3.8-2.2,7.8-3.9,11.7-5.8c0.4-0.2,0.9-0.5,0.9-0.7
		c0.1-1.4,0-2.9,0-4.4c-0.3,0-0.3,0-0.4,0c-13.2,2-26.4,3.7-39.6,4.8c-13.8,1.1-27.6,1.8-41.4,1.5c-9.5-0.2-18.9-0.7-28.3-1.8
		c-12.1-1.3-24.1-3.5-35.9-6.8c-16.2-4.6-31.6-11.1-45.4-20.8c-4.4-3.1-8.5-6.5-12.7-9.7c0.2-0.5,0.3-0.7,0.4-0.9
		c4.5-8.9,8.1-18.1,11.2-27.6c5.7-17.7,9.7-35.7,12.9-54c0.2-0.9,0.5-1.6,1.3-2.1c2.4-1.6,4.8-3.4,7.2-5.1
		c-5.6-5.9-11-11.8-16.6-17.7c-2.9,3.3-5.8,6.5-8.7,9.8c-0.6,0.7-1.2,0.9-2.1,0.9c-11.2,0-22.5,0-33.7,0
		C87.5,157.9,87.1,157.9,86.5,157.9z"/>
	<path d="M86.5,157.9c0.6,0,1,0,1.4,0c11.2,0,22.5,0,33.7,0c0.9,0,1.5-0.2,2.1-0.9c2.8-3.3,5.7-6.5,8.7-9.8
		c5.5,5.9,11,11.8,16.6,17.7c-2.5,1.8-4.8,3.5-7.2,5.1c-0.8,0.5-1.2,1.2-1.3,2.1c-3.2,18.3-7.2,36.3-12.9,54
		c-3.1,9.5-6.7,18.7-11.2,27.6c-0.1,0.2-0.2,0.4-0.4,0.9c4.2,3.2,8.4,6.6,12.7,9.7c13.9,9.7,29.2,16.2,45.4,20.8
		c11.8,3.3,23.7,5.5,35.9,6.8c9.4,1,18.9,1.6,28.3,1.8c13.8,0.3,27.6-0.4,41.4-1.5c13.3-1.1,26.5-2.8,39.6-4.8c0.1,0,0.2,0,0.4,0
		c0,1.5,0,2.9,0,4.4c0,0.3-0.6,0.5-0.9,0.7c-3.9,1.9-7.9,3.6-11.7,5.8c-2.2,1.3-4.2,3.1-6,4.9c-2.4,2.4-3.6,5.4-3.8,8.9
		c-2.5,0.1-4.8,0.3-7.2,0.4c-8.4,0.2-16.9,0.5-25.3,0.5c-16-0.1-32-0.9-47.8-2.8c-20.8-2.6-41.2-6.9-60.7-14.6
		c-14.7-5.9-28.4-13.5-40.4-24c-2.4-2-4.6-4.2-7-6.4c-15.3,21.3-34.9,38.1-56.5,52.9c-0.8-1.7-1.6-3.2-2.4-4.7
		c20.4-15.9,35.4-36.4,49.4-57.6c-14.1-17.8-22.8-38.4-31.8-59c1.6-0.8,3.2-1.6,4.8-2.4c9.7,17,19.3,33.9,33,48.3
		c10.6-25,16.4-50.9,20-77.7c-0.5,0-0.9,0-1.3,0c-12.5,0-25,0-37.6,0c-0.7,0-1.5,0.3-2,0.7c-2.1,1.6-4.1,3.3-6,4.9
		c-5.1-5.1-10.2-10.2-15.3-15.3c3.7-1.3,7.4-2.7,11.2-4.1c1-0.4,1.7-0.9,2.3-1.9c13.2-23.5,26.4-46.9,39.7-70.4
		c0.2-0.4,0.4-0.8,0.7-1.3c-0.6,0-1,0-1.5,0c-13.6,0-27.3-0.1-40.9,0.1c-2.9,0-5.8,0.8-8.6,1.6c-2.3,0.7-3.9,0.3-5.5-1.6
		c-1.9-2.2-4.1-4.2-6.1-6.2c-0.3-0.3-0.5-0.6-1-1c0.7,0,1.2,0,1.6,0c19.2,0,38.4,0,57.6,0c1.5,0,2.5-0.4,3.5-1.5
		c2.6-2.7,5.2-5.3,7.9-8c5.9,6.3,11.8,12.6,17.7,18.9c-3.3,1.5-6.5,2.9-9.6,4.3c-0.6,0.3-1.2,0.7-1.5,1.3
		c-14.6,23.7-29.1,47.4-43.6,71.1C86.9,157.2,86.8,157.4,86.5,157.9z"/>
</g>
</svg>
