<?xml version="1.0" encoding="utf-8"?>
<!-- Generator: Adobe Illustrator 20.1.0, SVG Export Plug-In . SVG Version: 6.00 Build 0)  -->
<svg version="1.1" id="图层_1" xmlns="http://www.w3.org/2000/svg" xmlns:xlink="http://www.w3.org/1999/xlink" x="0px" y="0px"
	 viewBox="0 0 360 360" style="enable-background:new 0 0 360 360;" xml:space="preserve">
<style type="text/css">
	.st0{fill:#FFFFFF;}
</style>
<g>
	<path class="st0" d="M0.2,360.5c0-120.1,0-240.2,0-360.2c120.1,0,240.2,0,360.2,0c0,120.1,0,240.2,0,360.2
		C240.4,360.5,120.3,360.5,0.2,360.5z M319.7,281.7c-0.4-0.1-0.7-0.2-1-0.3c-11.9-3.4-23-8.6-33.3-15.5
		c-15.1-10.1-27.5-23.1-38.2-37.7c-0.5-0.6-0.3-1.1,0-1.6c7.1-14,13.3-28.3,18.8-43c9.4-25,17-50.6,23.2-76.5
		c0.7-3.1,1.9-5.4,4.8-6.9c2.4-1.3,4.5-3,6.9-4.6c-7.1-5.6-14.2-11-21.2-16.5c-0.3,0.3-0.5,0.6-0.8,0.9c-2.6,3.2-5.2,6.5-7.8,9.8
		c-0.6,0.8-1.3,1.2-2.4,1.2c-32.4,0-64.7,0-97.1,0c-0.5,0-0.9,0-1.7,0c0.5,0.5,0.7,0.8,1,1.1c2.4,2.4,4.9,4.8,7.2,7.2
		c0.9,1,1.8,1.3,3,0.8c1-0.4,2.1-0.4,3.1-0.7c4.5-1.4,9.2-1.4,13.9-1.2c0.1,0.4,0.1,0.7,0.2,1.1c1,8.2,1.8,16.4,2.9,24.5
		c1.7,12.8,4.2,25.4,7.1,37.9c5.2,22.5,11.9,44.6,20.1,66.2c0.3,0.7,0.2,1.2-0.1,1.9c-2,3.3-4,6.7-6.1,10.1
		c-15.9,25.4-35.5,47.7-57.7,67.6c-0.6,0.5-1.1,1-1.7,1.5c0.8,1.2,1.6,2.4,2.4,3.6c29.3-18.5,53-42.6,73-70.6
		c7.8,11.6,16.4,22.4,26.1,32.2c9.7,9.9,20.2,18.7,31.7,26.6c2.8-3.9,6.1-7.1,10.2-9.6c4.1-2.4,8.6-3.8,13.3-4.6c0-1.2,0-2.4,0-3.5
		C319.7,282.4,319.7,282,319.7,281.7z"/>
	<path d="M319.7,281.7c0,0.4,0,0.8,0,1.2c0,1.2,0,2.3,0,3.5c-4.8,0.8-9.2,2.2-13.3,4.6c-4.1,2.4-7.4,5.6-10.2,9.6
		c-11.5-7.9-22-16.7-31.7-26.6c-9.7-9.9-18.3-20.6-26.1-32.2c-20,28.1-43.7,52.1-73,70.6c-0.8-1.2-1.6-2.3-2.4-3.6
		c0.6-0.5,1.1-1,1.7-1.5c22.3-20,41.8-42.3,57.7-67.6c2.1-3.3,4-6.7,6.1-10.1c0.4-0.6,0.4-1.2,0.1-1.9c-8.2-21.6-15-43.6-20.1-66.2
		c-2.9-12.5-5.3-25.2-7.1-37.9c-1.1-8.2-2-16.3-2.9-24.5c0-0.4-0.1-0.7-0.2-1.1c-4.7-0.3-9.4-0.2-13.9,1.2c-1,0.3-2.1,0.4-3.1,0.7
		c-1.3,0.4-2.1,0.1-3-0.8c-2.3-2.5-4.8-4.8-7.2-7.2c-0.3-0.3-0.5-0.6-1-1.1c0.7,0,1.2,0,1.7,0c32.4,0,64.7,0,97.1,0
		c1.1,0,1.7-0.3,2.4-1.2c2.6-3.3,5.2-6.5,7.8-9.8c0.2-0.3,0.5-0.5,0.8-0.9c7.1,5.5,14.1,11,21.2,16.5c-2.4,1.6-4.5,3.3-6.9,4.6
		c-2.9,1.5-4.1,3.8-4.8,6.9c-6.2,26-13.7,51.5-23.2,76.5c-5.5,14.7-11.7,29-18.8,43c-0.3,0.5-0.5,1,0,1.6
		c10.7,14.6,23.1,27.6,38.2,37.7c10.3,6.9,21.4,12.1,33.3,15.5C319,281.4,319.3,281.5,319.7,281.7z M204.3,98c0,0.3,0.1,0.4,0.1,0.6
		c3.2,19.3,7.2,38.4,12.3,57.2c5.1,18.5,11.2,36.6,19.4,54c0.3,0.7,0.7,1.4,1.1,2.2c16.4-36.6,26.9-74.8,34.1-114
		C248.9,98,226.7,98,204.3,98z"/>
	<path class="st0" d="M204.3,98c22.4,0,44.6,0,67,0c-7.2,39.2-17.7,77.4-34.1,114c-0.4-0.8-0.8-1.5-1.1-2.2
		c-8.2-17.4-14.4-35.5-19.4-54c-5.2-18.9-9.1-38-12.3-57.2C204.4,98.4,204.3,98.2,204.3,98z"/>
</g>
</svg>
