<?xml version="1.0" encoding="utf-8"?>
<!-- Generator: Adobe Illustrator 20.1.0, SVG Export Plug-In . SVG Version: 6.00 Build 0)  -->
<svg version="1.1" id="图层_1" xmlns="http://www.w3.org/2000/svg" xmlns:xlink="http://www.w3.org/1999/xlink" x="0px" y="0px"
	 viewBox="0 0 360 360" style="enable-background:new 0 0 360 360;" xml:space="preserve">
<style type="text/css">
	.st0{fill:#FFFFFF;}
</style>
<g>
	<path class="st0" d="M0.2,360.5c0-120.1,0-240.2,0-360.2c120.1,0,240.2,0,360.2,0c0,120.1,0,240.2,0,360.2
		C240.4,360.5,120.3,360.5,0.2,360.5z M177,255.7c-0.4,0.3-0.8,0.6-1.2,0.9c-13.5,10-27.9,18.4-43.1,25.6
		c-25,11.9-51.3,20.5-78.2,27.1c-2.3,0.6-4.7,1.2-7.1,1.7c0.2,0.9,0.4,1.7,0.6,2.4c0.2,0.8,0.4,1.5,0.6,2.2c0.3,0,0.4,0,0.5,0
		c20.3-3.4,40.4-7.9,60.1-13.9c22-6.7,43.2-15.2,63.3-26.4c5.1-2.9,10.1-6,15.2-9c0.2,0.1,0.5,0.4,0.8,0.6
		c10.9,8.6,22.7,15.9,35.1,22.2c23.1,11.7,47.6,19.5,72.8,25.2c0.3,0.1,0.9-0.2,1.1-0.4c3.5-6.3,9-9.9,15.7-11.9
		c2.4-0.7,5-1.2,7.4-1.8c0-1.5,0-3,0-4.5c-6.4-0.7-12.6-1.3-18.9-2.1c-13.7-1.7-27.3-4.3-40.6-8c-19.8-5.4-38.6-13.1-55.9-24.2
		c-2.3-1.5-4.6-3.1-6.9-4.6c2.8-2.5,5.4-4.8,8.1-7.2c18.8-17,36.6-34.9,52.6-54.6c0.4-0.4,0.9-0.8,1.4-1c3.7-1.7,7.3-3.3,11-5
		c0.3-0.2,0.7-0.3,1-0.6c-6.7-6.3-13.4-12.6-20-18.8c-0.4,0.4-0.7,0.6-1,0.9c-3.3,3.6-6.6,7.2-9.9,10.9c-0.7,0.8-1.4,1.1-2.4,1.1
		c-50,0-100.1,0-150.1,0c-0.5,0-0.9,0-1.4,0c0.1,0.2,0.1,0.3,0.1,0.4c2.1,2.1,4.3,4,6.1,6.2c2,2.5,4.2,3.1,7.2,2.2
		c2.9-0.8,6-1.5,9.1-1.6c6.7-0.2,13.4-0.1,20,0c0.4,0,1,0.4,1.2,0.7c1.3,2.2,2.4,4.5,3.6,6.8c10.3,18.9,22.3,36.7,36.7,52.8
		C173.6,252,175.3,253.8,177,255.7z"/>
	<path d="M177,255.7c-1.7-1.9-3.5-3.7-5.1-5.6c-14.4-16.1-26.4-33.9-36.7-52.8c-1.2-2.2-2.4-4.5-3.6-6.8c-0.2-0.4-0.8-0.7-1.2-0.7
		c-6.7,0-13.4-0.2-20,0c-3,0.1-6.1,0.7-9.1,1.6c-3.1,0.9-5.2,0.3-7.2-2.2c-1.8-2.3-4.1-4.2-6.1-6.2c0,0,0-0.1-0.1-0.4
		c0.5,0,1,0,1.4,0c50,0,100.1,0,150.1,0c1.1,0,1.8-0.3,2.4-1.1c3.3-3.7,6.6-7.3,9.9-10.9c0.3-0.3,0.6-0.5,1-0.9
		c6.6,6.2,13.2,12.4,20,18.8c-0.4,0.2-0.7,0.4-1,0.6c-3.7,1.7-7.3,3.3-11,5c-0.5,0.2-1,0.6-1.4,1c-16,19.7-33.8,37.6-52.6,54.6
		c-2.6,2.4-5.3,4.7-8.1,7.2c2.4,1.6,4.6,3.1,6.9,4.6c17.3,11.1,36.1,18.8,55.9,24.2c13.3,3.7,26.9,6.3,40.6,8
		c6.3,0.8,12.5,1.4,18.9,2.1c0,1.5,0,3,0,4.5c-2.5,0.6-5,1.1-7.4,1.8c-6.7,2-12.3,5.6-15.7,11.9c-0.2,0.3-0.8,0.5-1.1,0.4
		c-25.2-5.7-49.7-13.5-72.8-25.2c-12.4-6.3-24.2-13.6-35.1-22.2c-0.3-0.2-0.6-0.4-0.8-0.6c-5.1,3-10.1,6.1-15.2,9
		c-20.1,11.2-41.3,19.7-63.3,26.4c-19.7,6-39.8,10.5-60.1,13.9c-0.1,0-0.2,0-0.5,0c-0.2-0.7-0.4-1.5-0.6-2.2
		c-0.2-0.8-0.4-1.5-0.6-2.4c2.4-0.6,4.7-1.2,7.1-1.7c26.9-6.6,53.1-15.2,78.2-27.1c15.2-7.2,29.6-15.6,43.1-25.6
		C176.2,256.4,176.6,256.1,177,255.7z M139.7,189.9c6.4,13.5,38.5,51.8,48.2,57.5c19.2-17.5,36.2-37.1,52.8-57.5
		C206.8,189.9,173.3,189.9,139.7,189.9z"/>
	<path class="st0" d="M139.7,189.9c33.6,0,67.2,0,100.9,0c-16.5,20.3-33.5,39.9-52.8,57.5C178.1,241.6,146.1,203.4,139.7,189.9z"/>
</g>
</svg>
