<?xml version="1.0" encoding="utf-8"?>
<!-- Generator: Adobe Illustrator 20.1.0, SVG Export Plug-In . SVG Version: 6.00 Build 0)  -->
<svg version="1.1" id="图层_1" xmlns="http://www.w3.org/2000/svg" xmlns:xlink="http://www.w3.org/1999/xlink" x="0px" y="0px"
	 viewBox="0 0 360 360" style="enable-background:new 0 0 360 360;" xml:space="preserve">
<style type="text/css">
	.st0{fill:#FFFFFF;}
</style>
<g>
	<path class="st0" d="M0.2,360.5c0-120.1,0-240.2,0-360.2c120.1,0,240.2,0,360.2,0c0,120.1,0,240.2,0,360.2
		C240.4,360.5,120.3,360.5,0.2,360.5z M173.6,226.3c-2.4,2.5-4.6,4.9-6.9,7.3c-11.9,12-25,22.4-38.9,31.8
		c-23.3,15.6-48.3,27.9-74.2,38.2c-2.4,0.9-4.7,1.9-7.1,2.8c0.4,1.6,0.8,3.2,1.2,4.7c0.3-0.1,0.5-0.1,0.6-0.1
		c25.5-7.1,50.1-16.4,73.4-28.8c20.9-11.1,40.3-24.5,57.7-40.6c1.6-1.5,3.2-3,4.9-4.6c1.6,1.6,3.2,3,4.8,4.5
		c22.9,21.5,48.4,39.4,76.5,53.4c8.9,4.4,18,8.2,27,12.3c0.5,0.2,1.1,0.7,1.6-0.1c4.9-7.3,11.9-11.5,20.4-13.5
		c2.1-0.5,4.2-0.9,6.3-1.3c0-1.1,0-2.3,0-3.5c-49-8-91.1-29.8-127.2-63.6c0.3-0.5,0.5-0.8,0.8-1.1c15.1-21.7,28.7-44.3,40.6-67.8
		c12.2-24.2,22.7-49.2,31.3-74.9c0.2-0.6,0.8-1.3,1.3-1.7c2-1.4,4-2.6,6.1-3.9c1.9-1.2,3.9-2.5,5.7-3.7
		c-6.3-6.3-12.6-12.6-18.9-18.9c-3.8,3.8-7.8,7.7-11.7,11.7c-0.8,0.8-1.6,1.1-2.7,1.1c-57.8,0-115.6,0-173.4,0c-0.5,0-1,0-1.8,0
		c0.5,0.5,0.7,0.8,1,1.1c1.9,2,4.1,3.8,5.8,5.9c1.8,2.2,3.6,2.6,6.3,1.8c2.6-0.8,5.4-1.5,8.1-1.6c7-0.2,14.1-0.1,21.1-0.1
		c0.4,0,0.9,0,1.3,0C122.2,128.9,143.1,179.4,173.6,226.3z"/>
	<path d="M173.6,226.3c-30.5-46.9-51.3-97.4-58.9-153.2c-0.5,0-0.9,0-1.3,0c-7,0-14.1-0.1-21.1,0.1c-2.7,0.1-5.5,0.7-8.1,1.6
		c-2.7,0.9-4.5,0.4-6.3-1.8C76.1,70.9,74,69,72,67.1c-0.3-0.3-0.5-0.6-1-1.1c0.8,0,1.3,0,1.8,0c57.8,0,115.6,0,173.4,0
		c1.1,0,1.9-0.3,2.7-1.1c3.9-4,7.8-7.9,11.7-11.7c6.3,6.3,12.6,12.6,18.9,18.9c-1.8,1.2-3.8,2.4-5.7,3.7c-2,1.3-4.1,2.5-6.1,3.9
		c-0.6,0.4-1.1,1-1.3,1.7c-8.7,25.7-19.1,50.7-31.3,74.9c-11.9,23.6-25.5,46.2-40.6,67.8c-0.2,0.3-0.5,0.7-0.8,1.1
		c36.1,33.8,78.2,55.5,127.2,63.6c0,1.2,0,2.3,0,3.5c-2.1,0.4-4.2,0.8-6.3,1.3c-8.4,2-15.5,6.2-20.4,13.5c-0.6,0.9-1.1,0.3-1.6,0.1
		c-9-4.1-18.2-7.9-27-12.3c-28.1-14-53.6-31.9-76.5-53.4c-1.6-1.5-3.1-3-4.8-4.5c-1.7,1.6-3.3,3.1-4.9,4.6
		c-17.4,16.1-36.8,29.5-57.7,40.6c-23.4,12.4-48,21.7-73.4,28.8c-0.2,0-0.3,0.1-0.6,0.1c-0.4-1.5-0.8-3.1-1.2-4.7
		c2.4-0.9,4.8-1.9,7.1-2.8c26-10.3,51-22.6,74.2-38.2c14-9.4,27.1-19.9,38.9-31.8C169,231.2,171.2,228.8,173.6,226.3z M121.8,73.2
		c5.4,25.2,12.8,49.7,22.9,73.3c10.1,23.7,22.7,46,38.3,66.7c29.2-43.5,52.2-89.8,67.1-140C207.3,73.2,164.6,73.2,121.8,73.2z"/>
	<path class="st0" d="M121.8,73.2c42.8,0,85.5,0,128.3,0c-14.9,50.3-37.9,96.5-67.1,140c-15.6-20.7-28.2-43-38.3-66.7
		C134.6,122.9,127.2,98.4,121.8,73.2z"/>
</g>
</svg>
