<?xml version="1.0" encoding="utf-8"?>
<!-- Generator: Adobe Illustrator 20.1.0, SVG Export Plug-In . SVG Version: 6.00 Build 0)  -->
<svg version="1.1" id="图层_1" xmlns="http://www.w3.org/2000/svg" xmlns:xlink="http://www.w3.org/1999/xlink" x="0px" y="0px"
	 viewBox="0 0 360 360" style="enable-background:new 0 0 360 360;" xml:space="preserve">
<style type="text/css">
	.st0{fill:#FFFFFF;}
</style>
<g>
	<path class="st0" d="M0.2,360.5c0-120.1,0-240.2,0-360.2c120.1,0,240.2,0,360.2,0c0,120.1,0,240.2,0,360.2
		C240.4,360.5,120.3,360.5,0.2,360.5z M229.1,99.1c28.6,0,57.1,0,86,0c-8-8.4-15.8-16.6-23.6-24.8c-0.3,0.2-0.4,0.3-0.6,0.4
		c-5.9,5.5-11.7,11-17.6,16.5c-0.5,0.4-1.2,0.7-1.9,0.7c-13.7,0-27.4,0-41,0c-0.4,0-0.8,0-1.3-0.1c0-0.3,0-0.5-0.1-0.7
		c0-7.7,0-15.4,0-23.2c0-0.5,0.4-1,0.7-1.3c2.9-2.3,5.9-4.6,8.8-6.9c0.3-0.2,0.6-0.5,1-0.9c-9.5-4-18.9-7.9-28.1-11.7
		c0.4,14.9,0.8,29.7,1.1,44.6c-20.7,0-41,0-61.3,0c0-0.2-0.1-0.4-0.1-0.6c0-8.2,0-16.3,0-24.5c0-0.4,0.4-1,0.8-1.3
		c3.2-2.3,6.5-4.6,9.8-6.9c0.3-0.2,0.7-0.5,1.1-0.9c-9.9-4.4-19.6-8.6-29.5-13c0.9,15.8,1.2,31.4,1.1,47.2c-27.9,0-55.6,0-83.4,0
		c0.1,0.2,0.1,0.3,0.2,0.4c3.2,3.3,6.5,6.5,9.8,9.7c0.3,0.3,0.9,0.4,1.3,0.3c8.8-2.3,17.8-3.3,26.9-3.3c14.6,0,29.3,0,43.9,0
		c0.4,0,0.8,0,1.5,0c-0.4,12.3-0.7,24.3-1.1,36.4c0,0,0.1,0,0.3-0.1c5.5-2.6,11-5.1,16.5-7.7c0.8-0.3,0.7-0.9,0.7-1.5
		c0-8.6,0-17.1,0-25.7c0-0.5,0-0.9,0-1.4c20.5,0,40.8,0,61.2,0c0,11,0,21.8,0,32.8c0.2,0,0.4,0,0.5-0.1c5.5-2.6,11.1-5.2,16.6-7.8
		c0.3-0.1,0.6-0.7,0.6-1.1c-0.3-5.4-0.7-10.8-1-16.3C229,104.3,229.1,101.7,229.1,99.1z"/>
	<path d="M229.1,99.1c0,2.7-0.1,5.2,0,7.7c0.3,5.4,0.7,10.8,1,16.3c0,0.4-0.3,0.9-0.6,1.1c-5.5,2.6-11.1,5.2-16.6,7.8
		c-0.1,0-0.2,0-0.5,0.1c0-10.9,0-21.8,0-32.8c-20.4,0-40.7,0-61.2,0c0,0.5,0,0.9,0,1.4c0,8.6,0,17.1,0,25.7c0,0.6,0.1,1.1-0.7,1.5
		c-5.5,2.5-11,5.1-16.5,7.7c-0.1,0.1-0.3,0.1-0.3,0.1c0.4-12,0.7-24.1,1.1-36.4c-0.7,0-1.1,0-1.5,0c-14.6,0-29.3,0-43.9,0
		c-9.1,0-18.1,1-26.9,3.3c-0.4,0.1-1,0-1.3-0.3c-3.3-3.2-6.5-6.5-9.8-9.7c-0.1-0.1-0.1-0.2-0.2-0.4c27.8,0,55.5,0,83.4,0
		c0-15.7-0.2-31.4-1.1-47.2c9.8,4.3,19.6,8.6,29.5,13c-0.5,0.4-0.8,0.6-1.1,0.9c-3.3,2.3-6.6,4.6-9.8,6.9c-0.4,0.3-0.8,0.8-0.8,1.3
		c0,8.2,0,16.3,0,24.5c0,0.2,0,0.3,0.1,0.6c20.4,0,40.7,0,61.3,0c-0.4-14.8-0.7-29.6-1.1-44.6c9.2,3.8,18.5,7.7,28.1,11.7
		c-0.4,0.4-0.7,0.6-1,0.9c-2.9,2.3-5.9,4.6-8.8,6.9c-0.4,0.3-0.7,0.9-0.7,1.3c0,7.7,0,15.4,0,23.2c0,0.2,0,0.4,0.1,0.7
		c0.5,0,0.9,0.1,1.3,0.1c13.7,0,27.4,0,41,0c0.6,0,1.4-0.3,1.9-0.7c5.9-5.5,11.7-11,17.6-16.5c0.1-0.1,0.3-0.2,0.6-0.4
		c7.8,8.2,15.6,16.4,23.6,24.8C286.2,99.1,257.6,99.1,229.1,99.1z"/>
</g>
</svg>
