<?xml version="1.0" encoding="utf-8"?>
<!-- Generator: Adobe Illustrator 20.1.0, SVG Export Plug-In . SVG Version: 6.00 Build 0)  -->
<svg version="1.1" id="图层_1" xmlns="http://www.w3.org/2000/svg" xmlns:xlink="http://www.w3.org/1999/xlink" x="0px" y="0px"
	 viewBox="0 0 360 360" style="enable-background:new 0 0 360 360;" xml:space="preserve">
<style type="text/css">
	.st0{fill:#FFFFFF;}
</style>
<g>
	<path class="st0" d="M0.2,360.5c0-120.1,0-240.2,0-360.2c120.1,0,240.2,0,360.2,0c0,120.1,0,240.2,0,360.2
		C240.4,360.5,120.3,360.5,0.2,360.5z M295,231c-0.1,0.5-0.1,0.8-0.1,1.2c-0.5,9-1,18-1.6,26.9c-0.4,5.3-0.9,10.7-1.7,16
		c-1.4,9-7.2,13.7-16.3,13.7c-22.3,0-44.6,0-66.8,0c-3.1,0-6.2,0.2-9.2,0c-3.9-0.3-7.5-1.4-10.5-4.2c-3.4-3.3-4.5-7.5-4.5-12
		c0-18.1,0-36.2,0-54.2c0-0.4,0-0.8,0.1-1.3c21.6,0,43.1,0,64.6,0c0,5.4,0,10.8,0,16.4c0.5-0.2,0.9-0.3,1.2-0.5c5-2.3,10-4.7,15.1-7
		c1.2-0.5,1.5-1.2,1.4-2.4c-0.4-6.3-1-12.7-1.1-19c-0.1-19.9-0.1-39.8,0-59.6c0-0.5,0.4-1.1,0.8-1.4c2.5-1.9,5-3.8,7.6-5.7
		c0.3-0.3,0.7-0.5,1.1-0.9c-9.1-4.3-18-8.6-27.2-13c1.6,28.8,1.1,57.4,1.2,86c-21.6,0-43.1,0-64.7,0c0-0.7,0-1.2,0-1.8
		c0-41.8,0-83.7,0-125.5c0-5.8,0-11.5,0-17.3c0-0.9,0.3-1.5,1-2.1c3.3-2.2,6.6-4.6,9.8-6.9c0.3-0.2,0.5-0.4,0.9-0.7
		c-9.9-4.3-19.6-8.6-29.3-12.9c1.9,55.8,0.7,111.5,1.2,167.2c-21.7,0-43.3,0-64.8,0c0-0.2-0.1-0.3-0.1-0.4c0-21.2,0-42.3,0-63.5
		c0-0.5,0.3-1.1,0.7-1.4c2.6-2.7,5.2-5.3,7.9-7.9c0.3-0.3,0.5-0.5,0.8-0.9c-9.1-4-18.1-7.9-27.1-11.8c0,0.4,0,0.6,0,0.8
		c0.4,8.2,1,16.4,1.1,24.7c0.2,18.3,0.1,36.6,0,55c0,0.5-0.3,1.1-0.7,1.5c-1.8,1.6-3.7,3.2-5.5,4.8c-0.7,0.6-1.3,1.1-2,1.7
		c5.6,4.8,11,9.5,16.6,14.2c2.9-2.9,5.7-5.7,8.6-8.6c0.6-0.6,1.2-0.8,2-0.8c20.4,0,40.7,0,61.1,0c0.4,0,0.9,0,1.4,0
		c0,0.7,0,1.2,0,1.7c0,19.8,0,39.5,0,59.3c0,1.8,0.1,3.6,0.3,5.4c1,10.1,7.2,16.9,17.2,18.9c3.8,0.8,7.6,0.7,11.5,0.7
		c30.2,0,60.3,0,90.5,0c7.5,0,14.6-1.7,20.8-6.2c4.1-3,7.2-6.9,9.5-11.5c-0.4-0.1-0.7-0.2-1-0.3c-5.6-1.4-9.5-4.7-11.5-10.1
		c-1.1-2.9-1.7-6-2.1-9.1c-1.4-9.9-1.8-19.9-1.8-29.9c0-1.6,0-3.3,0-4.9C298.8,231,296.9,231,295,231z"/>
	<path d="M295,231c2,0,3.8,0,5.9,0c0,1.7,0,3.3,0,4.9c0,10,0.4,20,1.8,29.9c0.4,3.1,1.1,6.2,2.1,9.1c2,5.4,5.9,8.7,11.5,10.1
		c0.3,0.1,0.6,0.2,1,0.3c-2.3,4.6-5.3,8.5-9.5,11.5c-6.2,4.5-13.3,6.2-20.8,6.2c-30.2,0-60.3,0-90.5,0c-3.8,0-7.7,0-11.5-0.7
		c-10-2-16.2-8.8-17.2-18.9c-0.2-1.8-0.3-3.6-0.3-5.4c0-19.8,0-39.5,0-59.3c0-0.5,0-1,0-1.7c-0.5,0-1,0-1.4,0c-20.4,0-40.7,0-61.1,0
		c-0.8,0-1.4,0.2-2,0.8c-2.8,2.9-5.7,5.7-8.6,8.6c-5.5-4.7-11-9.4-16.6-14.2c0.7-0.6,1.3-1.2,2-1.7c1.8-1.6,3.7-3.1,5.5-4.8
		c0.4-0.3,0.7-1,0.7-1.5c0-18.3,0.1-36.6,0-55c-0.1-8.2-0.7-16.4-1.1-24.7c0-0.2,0-0.4,0-0.8c9,3.9,18,7.8,27.1,11.8
		c-0.3,0.3-0.6,0.6-0.8,0.9c-2.6,2.6-5.3,5.2-7.9,7.9c-0.3,0.4-0.7,0.9-0.7,1.4c0,21.2,0,42.3,0,63.5c0,0.1,0,0.2,0.1,0.4
		c21.5,0,43,0,64.8,0c-0.5-55.7,0.8-111.3-1.2-167.2c9.7,4.3,19.5,8.6,29.3,12.9c-0.4,0.3-0.6,0.5-0.9,0.7c-3.3,2.3-6.5,4.6-9.8,6.9
		c-0.8,0.5-1.1,1.1-1,2.1c0,5.8,0,11.5,0,17.3c0,41.8,0,83.7,0,125.5c0,0.6,0,1.2,0,1.8c21.6,0,43.1,0,64.7,0
		c-0.1-28.6,0.5-57.2-1.2-86c9.2,4.4,18.1,8.7,27.2,13c-0.4,0.4-0.8,0.6-1.1,0.9c-2.5,1.9-5.1,3.8-7.6,5.7c-0.4,0.3-0.8,0.9-0.8,1.4
		c0,19.9-0.1,39.8,0,59.6c0,6.3,0.6,12.7,1.1,19c0.1,1.2-0.2,1.9-1.4,2.4c-5.1,2.3-10.1,4.7-15.1,7c-0.3,0.2-0.7,0.3-1.2,0.5
		c0-5.6,0-10.9,0-16.4c-21.6,0-43,0-64.6,0c0,0.4-0.1,0.8-0.1,1.3c0,18.1,0,36.2,0,54.2c0,4.5,1.1,8.7,4.5,12
		c2.9,2.8,6.6,3.9,10.5,4.2c3.1,0.2,6.1,0,9.2,0c22.3,0,44.6,0,66.8,0c9.1,0,14.8-4.7,16.3-13.7c0.8-5.3,1.3-10.6,1.7-16
		c0.6-9,1.1-17.9,1.6-26.9C294.9,231.8,294.9,231.4,295,231z"/>
</g>
</svg>
