<?xml version="1.0" encoding="utf-8"?>
<!-- Generator: Adobe Illustrator 20.1.0, SVG Export Plug-In . SVG Version: 6.00 Build 0)  -->
<svg version="1.1" id="图层_1" xmlns="http://www.w3.org/2000/svg" xmlns:xlink="http://www.w3.org/1999/xlink" x="0px" y="0px"
	 viewBox="0 0 360 360" style="enable-background:new 0 0 360 360;" xml:space="preserve">
<style type="text/css">
	.st0{fill:#FFFFFF;}
</style>
<g>
	<path class="st0" d="M0.2,360.5c0-120.1,0-240.2,0-360.2c120.1,0,240.2,0,360.2,0c0,120.1,0,240.2,0,360.2
		C240.4,360.5,120.3,360.5,0.2,360.5z M118.3,97.8c-0.1,0.4-0.3,0.6-0.3,0.8c-2.6,7.6-5.7,14.9-9.3,22
		c-12.5,24.5-27.8,47.3-45.1,68.6c-5.6,6.9-11.8,13.3-17.7,19.9c-0.2,0.3-0.5,0.8-0.4,1.1c0.6,1.5,1.4,2.9,2.1,4.4
		c8-6.4,15.6-12.9,22.7-20.1c7.1-7.1,13.9-14.5,20.9-21.8c-0.5,48.5,0.8,96.9-1.2,145.5c0.5-0.2,0.8-0.4,1.2-0.5
		c4.8-2.4,9.6-4.8,14.4-7.2c0.8-0.4,1.1-0.8,1.1-1.7c0-11.3,0-22.6,0-34c0-39.6,0-79.3,0-118.9c0-1.1,0.3-1.9,0.9-2.8
		c2.7-3.7,5.3-7.5,8.1-11.2c7.3-9.7,14.3-19.9,23.9-27.7C132.4,108.8,125.4,103.4,118.3,97.8z M99.5,46c-0.1,0.2-0.2,0.3-0.2,0.4
		c-2.7,9.2-6.8,17.8-11.5,26.2c-9,16.1-19.5,31.1-30.5,45.9c-2.8,3.7-5.7,7.4-8.6,11.2c0.8,1.2,1.5,2.3,2.4,3.5
		c0.3-0.3,0.6-0.5,0.8-0.7c13.2-12.6,25.8-25.8,37.9-39.4c5.7-6.4,11.6-12.6,17.5-18.7c4.6-4.7,9.7-8.8,15.7-12
		C115.1,57,107.3,51.5,99.5,46z"/>
	<path d="M118.3,97.8c7.1,5.5,14.1,11,21.1,16.4c-9.6,7.9-16.6,18-23.9,27.7c-2.8,3.7-5.3,7.5-8.1,11.2c-0.6,0.9-0.9,1.7-0.9,2.8
		c0,39.6,0,79.3,0,118.9c0,11.3,0,22.6,0,34c0,0.9-0.3,1.3-1.1,1.7c-4.8,2.4-9.6,4.8-14.4,7.2c-0.3,0.2-0.6,0.3-1.2,0.5
		c2-48.6,0.7-97,1.2-145.5c-7,7.3-13.9,14.7-20.9,21.8c-7.1,7.1-14.7,13.7-22.7,20.1c-0.8-1.5-1.5-2.9-2.1-4.4
		c-0.1-0.2,0.2-0.8,0.4-1.1c5.9-6.6,12.1-13,17.7-19.9c17.3-21.3,32.6-44,45.1-68.6c3.6-7.1,6.8-14.5,9.3-22
		C118,98.4,118.1,98.2,118.3,97.8z"/>
	<path d="M99.5,46c7.9,5.5,15.6,11,23.5,16.5c-5.9,3.2-11.1,7.3-15.7,12c-6,6.1-11.9,12.3-17.5,18.7c-12.1,13.6-24.7,26.8-37.9,39.4
		c-0.2,0.2-0.5,0.4-0.8,0.7c-0.8-1.2-1.6-2.4-2.4-3.5c2.9-3.8,5.8-7.4,8.6-11.2c11-14.7,21.5-29.8,30.5-45.9
		c4.7-8.3,8.7-17,11.5-26.2C99.2,46.4,99.3,46.3,99.5,46z"/>
</g>
</svg>
