<?xml version="1.0" encoding="utf-8"?>
<!-- Generator: Adobe Illustrator 20.1.0, SVG Export Plug-In . SVG Version: 6.00 Build 0)  -->
<svg version="1.1" id="图层_1" xmlns="http://www.w3.org/2000/svg" xmlns:xlink="http://www.w3.org/1999/xlink" x="0px" y="0px"
	 viewBox="0 0 360 360" style="enable-background:new 0 0 360 360;" xml:space="preserve">
<style type="text/css">
	.st0{fill:#FFFFFF;}
</style>
<g>
	<path class="st0" d="M0.2,360.5c0-120.1,0-240.2,0-360.2c120.1,0,240.2,0,360.2,0c0,120.1,0,240.2,0,360.2
		C240.4,360.5,120.3,360.5,0.2,360.5z M235.1,84.9c0.2-0.2,0.3-0.3,0.4-0.4c11-8,22.1-16,33.1-24c0.3-0.2,0.8-0.4,1.2-0.5
		c1.3-0.3,2.7-0.5,4-0.8c2.3-0.5,4.6-0.9,7.1-1.4c-7.2-6.4-14.2-12.6-21.3-18.9c-9,17.2-20.6,32.3-34.2,46c0.3,0.2,0.4,0.4,0.6,0.5
		c5.5,4.3,11.2,8.6,16.6,13c7.1,5.8,14.1,11.8,19.8,19.1c1,1.2,2.2,2.3,3.5,3.2c2.4,1.7,4.7,1.2,6.6-1c3.6-4.3,4.2-10.1,1.4-15
		c-1.8-3.2-4.5-5.4-7.5-7.2c-7-4.2-14.6-7-22.3-9.6C241.1,86.9,238.1,85.9,235.1,84.9z M88.8,86.1c0.1,0.1,0.2,0.2,0.3,0.3
		c4.9,4.5,9.9,8.8,14.7,13.4c6.6,6.3,12.9,12.9,17.8,20.6c1.2,1.9,2.7,3.6,4.3,5.1c2.2,2,4.5,1.5,6.3-0.9c1.6-2.2,2.6-4.7,3.2-7.3
		c1.1-5.3,0-10-4.2-13.7c-1.4-1.2-2.9-2.3-4.4-3.3c-6.1-3.9-12.7-7-19.4-9.9c-3.4-1.5-6.8-2.9-10.3-4.4c0.4-0.3,0.6-0.5,0.9-0.7
		c9.2-6.3,18.5-12.4,27.7-18.8c4.7-3.3,9.5-6.4,15.3-7.7c0.8-0.2,1.5-0.5,2.3-0.8c0.2-0.1,0.5-0.2,0.8-0.4
		c-6.3-5.9-12.5-11.7-18.7-17.5C116.4,58.1,102.4,71.9,88.8,86.1z M157.1,83.8c0.3,0.3,0.6,0.6,0.9,0.8c6.9,6.8,13.9,13.4,20.7,20.3
		c4.5,4.5,8.6,9.4,11.7,15.1c0.4,0.8,1,1.5,1.6,2.2c2.1,2.3,4.5,2.5,6.7,0.3c1.4-1.4,2.7-3.1,3.6-4.9c2.5-4.6,2.3-9.2-0.6-13.6
		c-1.5-2.3-3.8-4-6.1-5.5c-7.1-4.7-14.9-8.2-22.6-11.7c-2.4-1.1-4.9-2.1-7.4-3.2c0.4-0.3,0.6-0.5,0.9-0.7
		c10.1-7.4,20.2-14.7,30.2-22.2c2.8-2.1,5.6-3.7,9-4.1c0.2,0,0.5-0.1,0.7-0.1c1.6-0.4,3.2-0.7,5.1-1.2c-7.2-5.6-14.2-11-21.2-16.5
		c-1.5,6-4.7,10.9-8,15.6c-4.8,6.8-10.2,13.1-15.8,19.3C163.3,77.1,160.2,80.4,157.1,83.8z"/>
	<path d="M235.1,84.9c3.1,1,6.1,1.9,9,3c7.7,2.7,15.3,5.4,22.3,9.6c3.1,1.8,5.7,4,7.5,7.2c2.8,4.9,2.2,10.7-1.4,15
		c-1.9,2.2-4.2,2.6-6.6,1c-1.3-0.9-2.6-2-3.5-3.2c-5.7-7.3-12.7-13.3-19.8-19.1c-5.5-4.4-11.1-8.7-16.6-13c-0.2-0.1-0.3-0.3-0.6-0.5
		c13.6-13.7,25.2-28.8,34.2-46c7.1,6.3,14.1,12.5,21.3,18.9c-2.5,0.5-4.8,1-7.1,1.4c-1.3,0.3-2.7,0.5-4,0.8
		c-0.4,0.1-0.9,0.2-1.2,0.5c-11,8-22.1,16-33.1,24C235.4,84.6,235.3,84.7,235.1,84.9z"/>
	<path d="M88.8,86.1c13.5-14.2,27.6-28,36.6-45.9c6.2,5.8,12.4,11.6,18.7,17.5c-0.3,0.2-0.5,0.3-0.8,0.4c-0.8,0.3-1.5,0.6-2.3,0.8
		c-5.7,1.4-10.5,4.4-15.3,7.7c-9.2,6.4-18.4,12.5-27.7,18.8c-0.3,0.2-0.6,0.4-0.9,0.7c3.5,1.5,6.9,2.9,10.3,4.4
		c6.6,2.9,13.2,6,19.4,9.9c1.5,1,3.1,2.1,4.4,3.3c4.2,3.7,5.3,8.4,4.2,13.7c-0.6,2.6-1.6,5.1-3.2,7.3c-1.8,2.4-4.1,2.8-6.3,0.9
		c-1.7-1.5-3.2-3.2-4.3-5.1c-4.9-7.8-11.2-14.4-17.8-20.6c-4.8-4.6-9.8-8.9-14.7-13.4C89,86.3,88.9,86.2,88.8,86.1z"/>
	<path d="M157.1,83.8c3.1-3.4,6.2-6.6,9.2-9.9c5.6-6.2,11-12.5,15.8-19.3c3.4-4.8,6.5-9.7,8-15.6c7.1,5.5,14.1,10.9,21.2,16.5
		c-1.8,0.4-3.5,0.8-5.1,1.2c-0.2,0.1-0.5,0.1-0.7,0.1c-3.4,0.4-6.3,2-9,4.1c-10,7.5-20.1,14.8-30.2,22.2c-0.3,0.2-0.5,0.4-0.9,0.7
		c2.6,1.1,5,2.1,7.4,3.2c7.8,3.4,15.5,6.9,22.6,11.7c2.3,1.5,4.6,3.2,6.1,5.5c2.9,4.4,3.1,9,0.6,13.6c-1,1.8-2.2,3.4-3.6,4.9
		c-2.2,2.2-4.6,2-6.7-0.3c-0.6-0.7-1.2-1.4-1.6-2.2c-3-5.7-7.2-10.6-11.7-15.1c-6.8-6.9-13.8-13.5-20.7-20.3
		C157.7,84.3,157.4,84.1,157.1,83.8z"/>
</g>
</svg>
