<?xml version="1.0" encoding="utf-8"?>
<!-- Generator: Adobe Illustrator 20.1.0, SVG Export Plug-In . SVG Version: 6.00 Build 0)  -->
<svg version="1.1" id="图层_1" xmlns="http://www.w3.org/2000/svg" xmlns:xlink="http://www.w3.org/1999/xlink" x="0px" y="0px"
	 viewBox="0 0 360 360" style="enable-background:new 0 0 360 360;" xml:space="preserve">
<style type="text/css">
	.st0{fill:#FFFFFF;}
</style>
<g>
	<path class="st0" d="M0.2,360.5c0-120.1,0-240.2,0-360.2c120.1,0,240.2,0,360.2,0c0,120.1,0,240.2,0,360.2
		C240.4,360.5,120.3,360.5,0.2,360.5z M230.2,195.6c0,0.7,0,1.3,0,1.8c0.4,10,1,20,1.1,30.1c0.2,18.8,0,37.7,0.1,56.5
		c0,1.6,0.1,3.1,0.3,4.7c1.1,7.5,5,12.6,12.3,15c3.2,1,6.5,1.5,9.8,1.5c13,0,26,0.1,39,0c3.4,0,6.9-0.4,10.2-0.9
		c3.5-0.6,7-1.4,9.9-3.6c4.1-3.1,6.8-7.3,9.1-11.8c-0.2-0.1-0.2-0.2-0.3-0.3c-7.2-2.8-10.7-8.4-11.9-15.7c-1.4-8-1.6-16.1-1.8-24.2
		c0-1.9,0-3.8,0-5.7c-2.1,0-4,0-5.9,0c0,0.2-0.1,0.3-0.1,0.5c-0.9,10.8-1.7,21.6-2.7,32.4c-0.3,3.4-1,6.7-2.6,9.8
		c-2,3.6-4.8,5.6-9.1,5.6c-7.5,0-15,0-22.4,0c-2.4,0-4.8,0-7.2-0.2c-5.1-0.4-8.6-3.2-9.7-7.7c-0.3-1.2-0.4-2.5-0.4-3.8
		c0-20,0.1-39.9-0.1-59.9c0-2.8,0.7-4.8,3-6.4c2.3-1.7,4.3-3.7,6.5-5.6C248.2,203.5,239.3,199.6,230.2,195.6z M141.9,209.8
		c-8.7-4.4-17.3-8.6-25.9-13c0,0.4-0.1,0.6-0.1,0.9c-0.2,7.7-0.3,15.3-0.7,23c-0.4,9.7-1.1,19.4-2.9,29c-3.4,17.9-12,32.7-26.1,44.2
		c-9,7.3-19.2,12.5-29.7,17.1c-2.9,1.3-5.9,2.4-8.8,3.6c0,0.1,0,0.2,0.1,0.3c0.5,0.8,1.2,1.6,1.6,2.5c0.4,0.7,0.9,0.7,1.6,0.5
		c12.1-3.6,23.9-7.8,35.1-13.7c7.5-3.9,14.5-8.5,21-14c9-7.6,14.8-17.3,18.5-28.3c4.8-14.2,6.4-29,6.8-43.9c0-0.8,0.2-1.4,0.9-1.9
		C136.1,214.1,138.9,212,141.9,209.8z M171.2,308.8c0.6-0.3,1-0.4,1.4-0.6c5.4-2.4,10.8-4.8,16.3-7.1c1-0.4,1.3-0.9,1.3-2
		c-0.3-8.5-0.6-16.9-0.8-25.4c-0.2-7.6-0.2-15.1-0.3-22.7c-0.1-9.9-0.1-19.8-0.1-29.6c0-0.7,0.2-1.1,0.9-1.5c3-1.6,5.9-3.2,8.8-4.9
		c0.3-0.2,0.6-0.4,1-0.6c-9.5-4.7-18.8-9.4-28.4-14.2C172.9,236.6,172.6,272.6,171.2,308.8z"/>
	<path d="M230.2,195.6c9.1,3.9,18,7.8,27.1,11.8c-2.2,2-4.2,4-6.5,5.6c-2.3,1.7-3,3.6-3,6.4c0.1,20,0.1,39.9,0.1,59.9
		c0,1.3,0.1,2.6,0.4,3.8c1.1,4.5,4.5,7.3,9.7,7.7c2.4,0.2,4.8,0.2,7.2,0.2c7.5,0,15,0,22.4,0c4.2,0,7.1-2,9.1-5.6
		c1.7-3,2.3-6.4,2.6-9.8c0.9-10.8,1.8-21.6,2.7-32.4c0-0.1,0-0.2,0.1-0.5c1.9,0,3.8,0,5.9,0c0,1.9,0,3.8,0,5.7
		c0.2,8.1,0.5,16.2,1.8,24.2c1.2,7.3,4.7,12.9,11.9,15.7c0.1,0,0.2,0.1,0.3,0.3c-2.3,4.5-5,8.7-9.1,11.8c-2.9,2.2-6.4,3-9.9,3.6
		c-3.4,0.6-6.8,0.9-10.2,0.9c-13,0.1-26,0.1-39,0c-3.3,0-6.6-0.5-9.8-1.5c-7.3-2.4-11.2-7.6-12.3-15c-0.2-1.5-0.3-3.1-0.3-4.7
		c0-18.8,0.1-37.7-0.1-56.5c-0.1-10-0.7-20-1.1-30.1C230.2,196.9,230.2,196.4,230.2,195.6z"/>
	<path d="M141.9,209.8c-3,2.2-5.8,4.4-8.6,6.4c-0.7,0.5-0.9,1.1-0.9,1.9c-0.5,14.9-2,29.7-6.8,43.9c-3.7,11-9.5,20.7-18.5,28.3
		c-6.5,5.5-13.5,10.1-21,14c-11.2,5.8-23,10.1-35.1,13.7c-0.7,0.2-1.2,0.2-1.6-0.5c-0.5-0.9-1.1-1.7-1.6-2.5c0-0.1,0-0.1-0.1-0.3
		c2.9-1.2,5.9-2.4,8.8-3.6c10.6-4.6,20.8-9.8,29.7-17.1c14.1-11.5,22.8-26.4,26.1-44.2c1.8-9.6,2.5-19.3,2.9-29
		c0.3-7.7,0.5-15.3,0.7-23c0-0.2,0-0.5,0.1-0.9C124.6,201.1,133.2,205.4,141.9,209.8z"/>
	<path d="M171.2,308.8c1.4-36.2,1.7-72.2,0-108.5c9.6,4.8,18.9,9.4,28.4,14.2c-0.4,0.2-0.7,0.4-1,0.6c-2.9,1.6-5.9,3.3-8.8,4.9
		c-0.7,0.4-0.9,0.8-0.9,1.5c0.1,9.9,0,19.8,0.1,29.6c0,7.6,0.1,15.1,0.3,22.7c0.2,8.5,0.5,16.9,0.8,25.4c0,1.1-0.3,1.6-1.3,2
		c-5.4,2.3-10.8,4.7-16.3,7.1C172.2,308.4,171.8,308.5,171.2,308.8z"/>
</g>
</svg>
