<?xml version="1.0" encoding="utf-8"?>
<!-- Generator: Adobe Illustrator 20.1.0, SVG Export Plug-In . SVG Version: 6.00 Build 0)  -->
<svg version="1.1" id="图层_1" xmlns="http://www.w3.org/2000/svg" xmlns:xlink="http://www.w3.org/1999/xlink" x="0px" y="0px"
	 viewBox="0 0 360 360" style="enable-background:new 0 0 360 360;" xml:space="preserve">
<style type="text/css">
	.st0{fill:#FFFFFF;}
</style>
<g>
	<path class="st0" d="M0.2,360.5c0-120.1,0-240.2,0-360.2c120.1,0,240.2,0,360.2,0c0,120.1,0,240.2,0,360.2
		C240.4,360.5,120.3,360.5,0.2,360.5z M272.7,314.6c0.3-0.1,0.7-0.3,1-0.4c4.6-1.8,9.2-3.7,13.8-5.5c2.8-1.1,2.8-1.1,2.7-4.2
		c-0.4-14.3-1-28.6-1-42.9c-0.1-63.3,0-126.6,0-189.9c0-0.4-0.1-0.8,0-1.2c0.1-0.5,0.3-1.1,0.6-1.4c3-2.7,6-5.3,9-8
		c0.3-0.3,0.7-0.5,1.3-0.8c-9.4-4.9-18.4-9.6-27.2-14.2c0,2.3,0,4.5,0,6.7c0.2,11,0.3,22,0.5,33c0.1,9,0.1,17.9,0.2,26.9
		c0,9.9,0.1,19.8,0.1,29.8c0,15.7,0,31.4,0,47c0,6.9,0.1,13.8,0.1,20.6c0,13.4,0,26.7-0.1,40.1c-0.1,12.5-0.3,24.9-0.5,37.4
		c-0.1,6.5-0.3,13-0.5,19.5C272.6,309.6,272.7,312.1,272.7,314.6z M47.5,319.4c0.5-0.3,0.8-0.5,1.1-0.6
		c10.3-6.3,19.6-13.9,27.9-22.7c12-12.6,21.7-27,29.3-42.6c5.5-11.3,8.4-23.5,10.8-35.8c2.4-12.2,4.2-24.4,5.3-36.8
		c1.1-12.3,2.2-24.7,2.8-37c0.8-15.4,1.2-30.8,1.6-46.2c0.2-7.4,0.1-14.8,0.1-22.2c0-0.7,0.2-1.2,0.8-1.7c2-1.6,3.9-3.4,5.8-5
		c0.9-0.8,1.9-1.7,2.9-2.6c-8.7-4.4-17.3-8.6-26-13c0,0.6,0,0.9,0,1.2c0.2,6.9,0.5,13.8,0.5,20.7c0,11.7-0.2,23.3-0.5,35
		c-0.3,10.1-0.7,20.2-1.4,30.3c-0.9,14.6-2.1,29.3-3.2,43.9c-1,13.2-3.1,26.3-6.3,39.1c-8.7,34.9-25.5,65.1-51.5,90.2
		c-0.8,0.8-1.6,1.6-2.5,2.4C46,317.1,46.7,318.2,47.5,319.4z M191.5,62.6c0.8,74.6,1.8,149.1-0.2,223.7c0.4-0.2,0.8-0.3,1.1-0.5
		c5.2-2.4,10.3-4.8,15.5-7.2c0.8-0.4,1-0.8,1-1.7c-0.4-14.5-1-29.1-1.1-43.6c-0.2-35.8-0.1-71.7-0.1-107.5c0-14,0-28.1,0-42.1
		c0-0.8,0.2-1.3,0.8-1.8c1.2-0.9,2.3-2,3.4-3c1.7-1.5,3.4-3,5.2-4.6C208.5,70.3,200,66.5,191.5,62.6z"/>
	<path d="M272.7,314.6c0-2.5,0-5,0-7.5c0.1-6.5,0.4-13,0.5-19.5c0.2-12.5,0.4-24.9,0.5-37.4c0.1-13.4,0.1-26.7,0.1-40.1
		c0-6.9-0.1-13.8-0.1-20.6c0-15.7,0-31.4,0-47c0-9.9-0.1-19.8-0.1-29.8c0-9-0.1-17.9-0.2-26.9c-0.1-11-0.3-22-0.5-33
		c0-2.2,0-4.5,0-6.7c8.8,4.6,17.7,9.3,27.2,14.2c-0.6,0.3-1,0.5-1.3,0.8c-3,2.6-6,5.3-9,8c-0.4,0.3-0.5,0.9-0.6,1.4
		c-0.1,0.4,0,0.8,0,1.2c0,63.3-0.1,126.6,0,189.9c0,14.3,0.7,28.6,1,42.9c0.1,3.1,0.1,3.1-2.7,4.2c-4.6,1.8-9.2,3.7-13.8,5.5
		C273.3,314.4,273,314.5,272.7,314.6z"/>
	<path d="M47.5,319.4c-0.8-1.2-1.6-2.3-2.3-3.5c0.8-0.8,1.6-1.6,2.5-2.4c25.9-25,42.7-55.3,51.5-90.2c3.2-12.9,5.3-25.9,6.3-39.1
		c1.1-14.6,2.3-29.2,3.2-43.9c0.7-10.1,1.1-20.2,1.4-30.3c0.3-11.7,0.5-23.3,0.5-35c0-6.9-0.3-13.8-0.5-20.7c0-0.3,0-0.6,0-1.2
		c8.7,4.4,17.3,8.6,26,13c-1,0.9-2,1.8-2.9,2.6c-1.9,1.7-3.8,3.4-5.8,5c-0.6,0.5-0.8,1-0.8,1.7c0,7.4,0.1,14.8-0.1,22.2
		c-0.4,15.4-0.8,30.8-1.6,46.2c-0.6,12.4-1.7,24.7-2.8,37c-1.1,12.3-2.9,24.6-5.3,36.8c-2.4,12.3-5.3,24.5-10.8,35.8
		c-7.6,15.7-17.2,30-29.3,42.6c-8.3,8.8-17.6,16.4-27.9,22.7C48.3,318.9,48,319.1,47.5,319.4z"/>
	<path d="M191.5,62.6c8.5,3.9,17.1,7.7,25.8,11.7c-1.8,1.6-3.5,3.1-5.2,4.6c-1.1,1-2.3,2-3.4,3c-0.6,0.5-0.8,1.1-0.8,1.8
		c0,14,0,28.1,0,42.1c0,35.8-0.1,71.7,0.1,107.5c0.1,14.5,0.7,29.1,1.1,43.6c0,0.9-0.1,1.3-1,1.7c-5.2,2.4-10.4,4.8-15.5,7.2
		c-0.3,0.1-0.6,0.3-1.1,0.5C193.3,211.7,192.3,137.2,191.5,62.6z"/>
</g>
</svg>
