<?xml version="1.0" encoding="utf-8"?>
<!-- Generator: Adobe Illustrator 20.1.0, SVG Export Plug-In . SVG Version: 6.00 Build 0)  -->
<svg version="1.1" id="图层_1" xmlns="http://www.w3.org/2000/svg" xmlns:xlink="http://www.w3.org/1999/xlink" x="0px" y="0px"
	 viewBox="0 0 360 360" style="enable-background:new 0 0 360 360;" xml:space="preserve">
<style type="text/css">
	.st0{fill:#FFFFFF;}
</style>
<g>
	<path class="st0" d="M0.2,360.5c0-120.1,0-240.2,0-360.2c120.1,0,240.2,0,360.2,0c0,120.1,0,240.2,0,360.2
		C240.4,360.5,120.3,360.5,0.2,360.5z M299.7,305.2c0.1-4.3,2.2-7.3,5.3-9.8c1.1-0.8,2.2-1.6,3.4-2.3c4.4-2.5,9.1-4,13.9-5.4
		c0.4-0.1,0.9-0.4,0.9-0.6c0.1-1.4,0-2.8,0-4.3c-0.4,0-0.7,0-0.9,0c-7.9,0.5-15.7,1.2-23.6,1.5c-16.1,0.6-32.1,1.3-48.2,1.4
		c-16.3,0.1-32.6-0.5-48.9-0.9c-10.6-0.2-21.1-0.9-31.5-2.7c-13.4-2.2-26.1-6.2-37.5-14c-8.6-6-17-12.2-24.2-19.9
		c-0.4-0.5-0.8-1.2-0.8-1.9c0-30.7,0-61.4-0.1-92.1c0-0.8,0.2-1.2,0.9-1.7c2.9-2,5.8-4.1,8.8-6.1c0.7-0.5,1.4-1,2-1.4
		c-5.5-5.5-11-11-16.5-16.5c-3.9,3.9-7.9,7.9-11.8,11.9c-0.6,0.6-1.3,0.9-2.2,0.9c-14.8,0-29.5,0-44.3,0c-0.4,0-0.9,0-1.7,0
		c3.5,3.5,6.8,6.7,9.9,10c0.6,0.6,1.1,0.7,1.9,0.5c5.5-1.4,11-2.5,16.6-2.8c6.7-0.3,13.5-0.3,20.3-0.5c0.3,0,0.5,0.1,0.8,0.1
		c0,0.5,0,0.9,0,1.3c0,32.1,0,64.2,0,96.2c0,1-0.3,1.5-1.1,2c-14.9,8.9-29.9,17.9-44.8,26.9c-0.4,0.2-0.7,0.5-1.2,0.8
		c5.6,5.2,11,10.2,16.5,15.3c0.3-0.5,0.5-0.8,0.8-1.1c7.6-11.6,16.8-22,27.3-31.1c2.2-1.9,4.7-3.4,7.2-4.9c1.6-1,3.4-0.8,5,0.2
		c1.1,0.7,2.2,1.3,3,2.1c3,2.8,5.9,5.7,8.7,8.6c3.2,3.3,6.1,7,9.5,10.2c8.7,8.2,19.1,13.9,30.2,18.2c16.1,6.1,33,8.7,50.1,9.8
		c13.1,0.8,26.3,1.2,39.4,1.6c10.4,0.3,20.9,0.4,31.3,0.5c8,0.1,15.9,0.1,23.9,0.1C298.6,305.2,299.1,305.2,299.7,305.2z M78.1,53.1
		c1.2,1.4,2.4,2.6,3.5,3.9c7,8.2,12.9,17,16.7,27.1c1.3,3.6,2.3,7.3,3.8,10.9c0.8,2.1,2.1,4.1,3.5,5.8c1.8,2.2,4.2,2.4,6.4,0.7
		c7.5-5.6,10.3-12.8,6.3-21.4c-2.6-5.5-6.4-9.9-11-13.7c-6.9-5.8-14.6-10.3-22.5-14.6c-1.4-0.8-2.8-1.5-4.2-2.3
		C79.7,50.8,78.9,51.9,78.1,53.1z"/>
	<path d="M299.7,305.2c-0.6,0-1.1,0-1.6,0c-8,0-15.9,0-23.9-0.1c-10.4-0.1-20.9-0.2-31.3-0.5c-13.1-0.4-26.3-0.8-39.4-1.6
		c-17.1-1-34-3.7-50.1-9.8c-11.2-4.2-21.5-9.9-30.2-18.2c-3.4-3.2-6.3-6.8-9.5-10.2c-2.8-2.9-5.7-5.8-8.7-8.6c-0.9-0.8-2-1.5-3-2.1
		c-1.6-1-3.4-1.2-5-0.2c-2.5,1.5-5,3-7.2,4.9C79.2,268,70.1,278.4,62.4,290c-0.2,0.3-0.4,0.7-0.8,1.1c-5.5-5.1-11-10.2-16.5-15.3
		c0.5-0.3,0.8-0.6,1.2-0.8c14.9-9,29.9-17.9,44.8-26.9c0.8-0.5,1.1-1,1.1-2c0-32.1,0-64.2,0-96.2c0-0.4,0-0.8,0-1.3
		c-0.3,0-0.6-0.1-0.8-0.1c-6.8,0.1-13.5,0.2-20.3,0.5c-5.6,0.3-11.2,1.3-16.6,2.8c-0.8,0.2-1.3,0.2-1.9-0.5c-3.2-3.3-6.4-6.5-9.9-10
		c0.8,0,1.2,0,1.7,0c14.8,0,29.5,0,44.3,0c0.9,0,1.6-0.3,2.2-0.9c4-4,8-8,11.8-11.9c5.5,5.5,11,11,16.5,16.5c-0.6,0.4-1.2,0.9-2,1.4
		c-2.9,2-5.8,4.1-8.8,6.1c-0.6,0.4-0.9,0.9-0.9,1.7c0,30.7,0,61.4,0.1,92.1c0,0.6,0.4,1.4,0.8,1.9c7.2,7.7,15.6,13.9,24.2,19.9
		c11.3,7.8,24.1,11.8,37.5,14c10.4,1.7,21,2.4,31.5,2.7c16.3,0.4,32.6,1,48.9,0.9c16.1-0.1,32.1-0.8,48.2-1.4
		c7.9-0.3,15.7-1,23.6-1.5c0.2,0,0.5,0,0.9,0c0,1.4,0,2.9,0,4.3c0,0.2-0.6,0.5-0.9,0.6c-4.8,1.3-9.6,2.8-13.9,5.4
		c-1.2,0.7-2.3,1.4-3.4,2.3C301.8,297.9,299.8,301,299.7,305.2z"/>
	<path d="M78.1,53.1c0.8-1.2,1.6-2.3,2.4-3.6c1.5,0.8,2.9,1.5,4.2,2.3c7.8,4.3,15.6,8.8,22.5,14.6c4.6,3.8,8.5,8.3,11,13.7
		c4,8.5,1.3,15.8-6.3,21.4c-2.2,1.7-4.7,1.4-6.4-0.7c-1.4-1.7-2.6-3.7-3.5-5.8c-1.4-3.5-2.4-7.3-3.8-10.9C94.5,74,88.6,65.2,81.6,57
		C80.5,55.7,79.4,54.5,78.1,53.1z"/>
</g>
</svg>
