<?xml version="1.0" encoding="utf-8"?>
<!-- Generator: Adobe Illustrator 20.1.0, SVG Export Plug-In . SVG Version: 6.00 Build 0)  -->
<svg version="1.1" id="图层_1" xmlns="http://www.w3.org/2000/svg" xmlns:xlink="http://www.w3.org/1999/xlink" x="0px" y="0px"
	 viewBox="0 0 360 360" style="enable-background:new 0 0 360 360;" xml:space="preserve">
<style type="text/css">
	.st0{fill:#FFFFFF;}
</style>
<g>
	<path class="st0" d="M0.2,360.5c0-120.1,0-240.2,0-360.2c120.1,0,240.2,0,360.2,0c0,120.1,0,240.2,0,360.2
		C240.4,360.5,120.3,360.5,0.2,360.5z M222,201.6c-57.5,0-114.7,0-172.1,0c3.4,3.4,6.6,6.5,9.7,9.7c0.6,0.7,1.2,0.8,2.1,0.6
		c8.8-2.4,17.8-3.3,26.9-3.3c44,0,87.9,0,131.9,0c0.4,0,0.9,0,1.4,0c0,0.7,0,1.3,0,1.8c0,21.1,0,42.2,0,63.4c0,1,0,2-0.1,3
		c-0.4,4.8-3,7.9-7.4,8.7c-1.4,0.3-2.9,0.3-4.4,0.3c-11.5-0.1-23-1.2-34.4-2.3c-2.5-0.2-5.1-0.5-7.7-0.7c0,1.4,0,2.6,0,3.8
		c0,0.7,0.3,1,0.9,1.2c4.6,1.5,9.2,3,13.7,4.7c6.7,2.6,13.2,5.7,18.8,10.3c3.6,3,6.5,6.4,7.5,11.1c0.1,0.6,0.2,1.1,0.3,1.7
		c4-1,11.1-4.5,15.6-7.5c9.9-6.8,15.1-16.1,15.1-28.3c-0.1-23.2,0-46.5,0-69.7c0-0.5,0-1,0-1.6c25.6,0,50.9,0,76.3,0
		c-8.6-8.6-17.1-17.1-25.9-25.9c-0.2,0.2-0.4,0.7-0.7,1c-5.7,5.7-11.4,11.4-17,17.1c-0.6,0.6-1.2,0.8-2,0.8c-9.8,0-19.5,0-29.3,0
		c-0.4,0-0.8,0-1.3-0.1c0-0.3-0.1-0.5-0.1-0.6c0-5.8,0-11.6,0-17.4c0-0.4,0.3-1,0.7-1.2c2.9-2.3,5.9-4.6,8.9-6.9
		c0.3-0.3,0.6-0.5,1.1-0.9c-9.9-4.4-19.6-8.6-29.4-12.9C221.2,174.9,221.6,188.2,222,201.6z M111.3,219.1c3.1,5.1,6.3,10.1,9.3,15.2
		c5.6,9.7,10.3,19.7,13,30.6c0.8,3.1,1.7,6.3,3.5,9c2.1,3.2,4.7,3.6,7.8,1.2c0.3-0.2,0.6-0.5,0.8-0.7c3-3,5.4-6.5,7-10.5
		c2.8-7.3,2.1-14.2-3-20.2c-2.3-2.7-4.9-5.3-7.6-7.6c-7.5-6.5-15.7-12-24-17.3C114.6,216.7,114.6,216.7,111.3,219.1
		C111.3,219.1,111.3,219.2,111.3,219.1z"/>
	<path d="M222,201.6c-0.4-13.4-0.8-26.7-1.2-40.1c9.8,4.3,19.5,8.6,29.4,12.9c-0.4,0.4-0.7,0.6-1.1,0.9c-3,2.3-5.9,4.6-8.9,6.9
		c-0.3,0.3-0.7,0.8-0.7,1.2c0,5.8,0,11.6,0,17.4c0,0.2,0,0.3,0.1,0.6c0.4,0,0.8,0.1,1.3,0.1c9.8,0,19.5,0,29.3,0
		c0.8,0,1.4-0.2,2-0.8c5.7-5.7,11.4-11.4,17-17.1c0.3-0.3,0.6-0.8,0.7-1c8.7,8.7,17.3,17.3,25.9,25.9c-25.3,0-50.7,0-76.3,0
		c0,0.6,0,1.1,0,1.6c0,23.2-0.1,46.5,0,69.7c0.1,12.2-5.1,21.5-15.1,28.3c-4.4,3.1-11.6,6.5-15.6,7.5c-0.1-0.6-0.2-1.1-0.3-1.7
		c-1-4.7-3.9-8.2-7.5-11.1c-5.6-4.7-12.1-7.8-18.8-10.3c-4.5-1.7-9.1-3.2-13.7-4.7c-0.7-0.2-1-0.5-0.9-1.2c0.1-1.2,0-2.5,0-3.8
		c2.7,0.3,5.2,0.5,7.7,0.7c11.5,1,22.9,2.2,34.4,2.3c1.5,0,3-0.1,4.4-0.3c4.5-0.9,7.1-3.9,7.4-8.7c0.1-1,0.1-2,0.1-3
		c0-21.1,0-42.2,0-63.4c0-0.6,0-1.1,0-1.8c-0.6,0-1,0-1.4,0c-44,0-87.9,0-131.9,0c-9.1,0-18.1,0.9-26.9,3.3
		c-0.9,0.2-1.4,0.1-2.1-0.6c-3.1-3.2-6.3-6.3-9.7-9.7C107.3,201.6,164.5,201.6,222,201.6z"/>
	<path d="M111.3,219.1C111.3,219.2,111.3,219.1,111.3,219.1c3.3-2.4,3.3-2.4,6.7-0.2c8.3,5.3,16.6,10.7,24,17.3
		c2.7,2.4,5.3,4.9,7.6,7.6c5.1,6,5.9,12.9,3,20.2c-1.6,4-4,7.5-7,10.5c-0.3,0.3-0.5,0.5-0.8,0.7c-3,2.4-5.7,2-7.8-1.2
		c-1.8-2.7-2.7-5.9-3.5-9c-2.7-10.9-7.4-21-13-30.6C117.6,229.2,114.4,224.2,111.3,219.1z"/>
</g>
</svg>
