<?xml version="1.0" encoding="utf-8"?>
<!-- Generator: Adobe Illustrator 20.1.0, SVG Export Plug-In . SVG Version: 6.00 Build 0)  -->
<svg version="1.1" id="图层_1" xmlns="http://www.w3.org/2000/svg" xmlns:xlink="http://www.w3.org/1999/xlink" x="0px" y="0px"
	 viewBox="0 0 360 360" style="enable-background:new 0 0 360 360;" xml:space="preserve">
<style type="text/css">
	.st0{fill:#FFFFFF;}
</style>
<g>
	<path class="st0" d="M0.2,360.5c0-120.1,0-240.2,0-360.2c120.1,0,240.2,0,360.2,0c0,120.1,0,240.2,0,360.2
		C240.4,360.5,120.3,360.5,0.2,360.5z M159.6,122.6c0.1,0.2,0.2,0.3,0.2,0.4c3.2,3.3,6.5,6.5,9.8,9.7c0.3,0.2,0.9,0.3,1.2,0.2
		c8.4-2.1,16.9-3.2,25.5-3.3c18.6-0.1,37.3,0,55.9,0c0.4,0,0.8,0,1.4,0.1c0,0.6,0,1,0,1.5c0,48.4,0,96.8,0,145.2c0,0.6,0,1.1,0,1.7
		c-0.4,4.8-3.1,7.6-7.9,8.1c-1.9,0.2-3.8,0.3-5.6,0.1c-10.9-0.6-21.6-2.3-32.4-3.9c-2-0.3-3.9-0.6-6-0.9c0,1.7,0.1,3.2,0,4.7
		c-0.1,0.9,0.2,1.3,1.1,1.6c3.2,1.1,6.3,2.2,9.5,3.4c7.8,3,15.4,6.2,22.3,11.1c4.7,3.3,9,7,9.7,13.3c3.1-0.8,10.1-4.7,13.7-7.5
		c8.2-6.2,12.2-14.3,12.2-24.7c-0.1-50.7-0.1-101.4-0.1-152c0-0.5,0-1.1,0-1.7c16.9,0,33.7,0,50.3,0c-7.4-7.4-14.8-14.8-22.4-22.4
		c-0.2,0.2-0.4,0.6-0.7,0.9c-4.5,4.6-9.1,9.1-13.7,13.6c-0.4,0.4-1.2,0.7-1.7,0.7c-3.3,0.1-6.6,0-10,0c-0.6,0-1.2,0-1.9,0
		c0-0.6,0-1.1,0-1.6c0-16,0.1-32-0.1-48c0-2.5,0.5-4.4,2.6-5.7c0.8-0.5,1.4-1.2,2.1-1.8c2-1.8,3.9-3.5,6-5.3
		c-9.5-4.8-18.9-9.4-28.4-14.2c1.8,25.6,0.9,51.1,1.2,76.7C222.2,122.6,191,122.6,159.6,122.6z M178.3,156.8
		c0.2,0.5,0.4,0.9,0.6,1.2c5.1,9.5,9.6,19.3,13.2,29.5c3,8.5,5,17.3,6.2,26.3c0.4,2.9,1.1,5.7,2.6,8.3c1.6,2.8,3.7,3.3,6.4,1.4
		c0.3-0.2,0.7-0.4,0.9-0.7c1.8-2.2,3.7-4.3,5.2-6.7c3.7-5.8,5-12.1,3.6-18.9c-1.1-5-3.5-9.4-6.3-13.6c-5.4-7.8-12-14.5-19-20.9
		c-3.2-2.9-6.5-5.6-9.7-8.4C180.6,155.2,179.5,156,178.3,156.8z"/>
	<path d="M159.6,122.6c31.4,0,62.6,0,94.1,0c-0.3-25.6,0.6-51-1.2-76.7c9.5,4.7,18.9,9.4,28.4,14.2c-2.1,1.8-4,3.6-6,5.3
		c-0.7,0.6-1.3,1.3-2.1,1.8c-2.1,1.4-2.7,3.2-2.6,5.7c0.1,16,0.1,32,0.1,48c0,0.5,0,0.9,0,1.6c0.7,0,1.3,0,1.9,0c3.3,0,6.6,0,10,0
		c0.6,0,1.3-0.3,1.7-0.7c4.6-4.5,9.1-9.1,13.7-13.6c0.3-0.3,0.6-0.7,0.7-0.9c7.5,7.5,14.9,14.9,22.4,22.4c-16.7,0-33.4,0-50.3,0
		c0,0.7,0,1.2,0,1.7c0,50.7-0.1,101.4,0.1,152c0,10.5-4.1,18.5-12.2,24.7c-3.6,2.8-10.7,6.7-13.7,7.5c-0.6-6.3-5-10-9.7-13.3
		c-6.8-4.8-14.5-8.1-22.3-11.1c-3.1-1.2-6.3-2.3-9.5-3.4c-0.9-0.3-1.2-0.7-1.1-1.6c0.1-1.5,0-3,0-4.7c2,0.3,4,0.6,6,0.9
		c10.7,1.7,21.5,3.3,32.4,3.9c1.9,0.1,3.8,0.1,5.6-0.1c4.8-0.5,7.5-3.4,7.9-8.1c0-0.6,0-1.1,0-1.7c0-48.4,0-96.8,0-145.2
		c0-0.5,0-0.9,0-1.5c-0.5,0-0.9-0.1-1.4-0.1c-18.6,0-37.3,0-55.9,0c-8.6,0-17.1,1.1-25.5,3.3c-0.4,0.1-1,0-1.2-0.2
		c-3.3-3.2-6.5-6.5-9.8-9.7C159.8,123,159.8,122.9,159.6,122.6z"/>
	<path d="M178.3,156.8c1.2-0.8,2.3-1.6,3.6-2.4c3.2,2.8,6.5,5.5,9.7,8.4c7,6.3,13.7,13,19,20.9c2.9,4.2,5.3,8.6,6.3,13.6
		c1.4,6.8,0.1,13.1-3.6,18.9c-1.5,2.4-3.5,4.5-5.2,6.7c-0.2,0.3-0.6,0.5-0.9,0.7c-2.7,1.8-4.7,1.4-6.4-1.4c-1.5-2.6-2.2-5.4-2.6-8.3
		c-1.2-9-3.2-17.8-6.2-26.3c-3.6-10.2-8.1-20-13.2-29.5C178.7,157.6,178.5,157.2,178.3,156.8z"/>
</g>
</svg>
