<?xml version="1.0" encoding="utf-8"?>
<!-- Generator: Adobe Illustrator 20.1.0, SVG Export Plug-In . SVG Version: 6.00 Build 0)  -->
<svg version="1.1" id="图层_1" xmlns="http://www.w3.org/2000/svg" xmlns:xlink="http://www.w3.org/1999/xlink" x="0px" y="0px"
	 viewBox="0 0 360 360" style="enable-background:new 0 0 360 360;" xml:space="preserve">
<style type="text/css">
	.st0{fill:#FFFFFF;}
</style>
<g>
	<path class="st0" d="M0.2,360.5c0-120.1,0-240.2,0-360.2c120.1,0,240.2,0,360.2,0c0,120.1,0,240.2,0,360.2
		C240.4,360.5,120.3,360.5,0.2,360.5z M66.3,87.2c3.5,3.5,6.7,6.7,9.9,10c0.6,0.6,1,0.7,1.8,0.5c8.3-2.2,16.9-3.2,25.5-3.3
		c17.7-0.1,35.4,0,53.2,0c0.5,0,0.9,0,1.6,0c-1,1.7-1.8,3.3-2.6,4.8c-8.2,14-19.6,24.8-33.2,33.3c-13.1,8.2-27.3,13.9-42,18.5
		c-3.8,1.2-7.7,2.3-11.7,3.5c0.6,0.9,1.2,1.7,1.7,2.6c0.4,0.8,1,0.9,1.8,0.8c3.4-0.6,6.9-1.1,10.3-1.8c14.9-3.2,29.2-8.4,43.1-14.6
		c17.9-7.9,32.9-19.5,43.9-35.8c0.5-0.7,0.9-0.6,1.5-0.4c16,5.8,31.7,12.1,46.8,20c13,6.7,25.3,14.6,36.3,24.2c2.3,2,4.7,3.9,7.7,5
		c3,1.1,5.3,0,5.9-3.1c0.5-2.4,0.7-4.9,0.6-7.4c-0.5-8.8-4.6-15.5-12.4-19.6c-4.7-2.4-9.7-4.2-14.6-5.9
		c-17.3-5.7-34.9-10.1-52.5-14.5c-5.4-1.3-10.8-2.6-16.3-4c0.9-1.6,1.9-3.1,2.7-4.6c0.5-1,1.2-1.3,2.3-1.3c38.2,0,76.5,0,114.7,0
		c0.5,0,0.9,0,1.2,0c-7.8-7.8-15.6-15.6-23.4-23.4c-5.1,5.1-10.2,10.2-15.4,15.4c-0.6,0.6-1.2,0.9-2.1,0.9c-24.2,0-48.4,0-72.6,0
		c-0.4,0-0.9,0-1.3,0c0-0.3,0-0.6,0.1-0.7c2.9-8.1,5.8-16.2,10.1-23.6c1.7-3,3.6-6,7.2-7.5c-8.7-4.7-17.2-9.4-25.8-14.1
		c-0.3,2.9-0.4,5.6-0.7,8.2c-1.4,12.4-4.2,24.5-8.2,36.3c-0.4,1.2-0.9,1.5-2.1,1.5c-30.3,0-60.6,0-90.8,0
		C67.7,87.2,67.2,87.2,66.3,87.2z"/>
	<path d="M66.3,87.2c0.9,0,1.4,0,1.9,0c30.3,0,60.6,0,90.8,0c1.2,0,1.7-0.3,2.1-1.5c4-11.8,6.8-23.9,8.2-36.3
		c0.3-2.7,0.5-5.3,0.7-8.2c8.6,4.7,17.2,9.4,25.8,14.1c-3.6,1.5-5.4,4.5-7.2,7.5c-4.3,7.5-7.2,15.5-10.1,23.6
		c-0.1,0.2,0,0.4-0.1,0.7c0.5,0,0.9,0,1.3,0c24.2,0,48.4,0,72.6,0c0.9,0,1.5-0.3,2.1-0.9c5.2-5.2,10.3-10.4,15.4-15.4
		c7.8,7.8,15.6,15.6,23.4,23.4c-0.3,0-0.8,0-1.2,0c-38.2,0-76.5,0-114.7,0c-1.1,0-1.7,0.3-2.3,1.3c-0.8,1.5-1.8,3-2.7,4.6
		c5.5,1.3,10.9,2.6,16.3,4c17.6,4.4,35.3,8.8,52.5,14.5c5,1.6,10,3.5,14.6,5.9c7.8,4,12,10.8,12.4,19.6c0.1,2.4-0.1,5-0.6,7.4
		c-0.7,3.1-2.9,4.2-5.9,3.1c-3-1-5.4-2.9-7.7-5c-11-9.7-23.3-17.5-36.3-24.2c-15.1-7.8-30.8-14.2-46.8-20c-0.6-0.2-1-0.3-1.5,0.4
		c-11.1,16.3-26.1,27.9-43.9,35.8c-13.9,6.2-28.2,11.4-43.1,14.6c-3.4,0.7-6.8,1.2-10.3,1.8c-0.8,0.1-1.3,0-1.8-0.8
		c-0.5-0.9-1.1-1.7-1.7-2.6c4-1.2,7.9-2.3,11.7-3.5c14.7-4.6,28.9-10.3,42-18.5c13.6-8.5,25-19.3,33.2-33.3c0.9-1.5,1.7-3.1,2.6-4.8
		c-0.7,0-1.1,0-1.6,0c-17.7,0-35.4-0.1-53.2,0c-8.6,0-17.1,1-25.5,3.3c-0.7,0.2-1.2,0.1-1.8-0.5C73.1,93.9,69.8,90.7,66.3,87.2z"/>
</g>
</svg>
