<?xml version="1.0" encoding="utf-8"?>
<!-- Generator: Adobe Illustrator 20.1.0, SVG Export Plug-In . SVG Version: 6.00 Build 0)  -->
<svg version="1.1" id="图层_1" xmlns="http://www.w3.org/2000/svg" xmlns:xlink="http://www.w3.org/1999/xlink" x="0px" y="0px"
	 viewBox="0 0 360 360" style="enable-background:new 0 0 360 360;" xml:space="preserve">
<style type="text/css">
	.st0{fill:#FFFFFF;}
</style>
<g>
	<path class="st0" d="M0.2,360.5c0-120.1,0-240.2,0-360.2c120.1,0,240.2,0,360.2,0c0,120.1,0,240.2,0,360.2
		C240.4,360.5,120.3,360.5,0.2,360.5z M318.3,227.6c-8.7-8.7-17.3-17.3-25.9-25.9c-0.2,0.2-0.6,0.5-0.9,0.8
		c-5.7,5.7-11.4,11.4-17,17.1c-0.6,0.6-1.1,0.8-2,0.8c-27.4,0-54.8,0-82.2,0c-0.4,0-0.8,0-1.4,0c1.1-3.4,2.1-6.5,3.2-9.6
		c0.2-0.6,0.6-1.1,1.1-1.5c2.5-2,5.1-3.9,7.7-5.8c0.3-0.2,0.6-0.5,0.9-0.8c-8.7-4-17.3-7.8-25.9-11.8c-0.1,0.3-0.1,0.5-0.1,0.7
		c-0.8,9.1-2.3,18.1-4.3,27.1c-0.5,2,0,1.7-2.1,1.7c-38.5,0-77,0-115.6,0c-0.5,0-0.9,0-1.7,0c0.4,0.5,0.7,0.8,0.9,1
		c2.9,2.9,5.9,5.9,8.8,8.8c0.6,0.6,1.2,0.7,2,0.5c8-2.1,16.2-3.2,24.4-3.2c26.3-0.1,52.6,0,79,0c0.4,0,0.8,0,1.4,0
		c-0.6,1.4-1,2.6-1.6,3.8c-6.5,15-15.5,28.2-27.5,39.3c-10.2,9.5-21.9,16.7-34.4,22.7c-16,7.6-32.7,13.2-49.8,17.7
		c-3,0.8-6.1,1.6-9.3,2.4c0.7,1.1,1.4,2.2,2.1,3.1c0.2,0.2,0.7,0.4,1,0.3c4.4-0.6,8.7-1.1,13-1.9c21.1-3.6,41.3-10,60.9-18.7
		c15.5-6.9,28.9-16.5,40.1-29.4c9.5-10.9,16.9-23.1,22.8-36.3c1.1-2.5,2.3-3.7,5.1-3.2c0.8,0.1,1.2,0.2,1.6,1
		c3.8,8.1,8.1,16,13,23.6c10.1,15.8,22.6,29.5,38.2,40.1c13.6,9.2,28.3,16.2,43.8,21.7c3.1,1.1,6.2,2.1,9.4,3.2
		c5.1-9.6,13.8-13.2,23.5-15.4c0-1.6,0-3.1,0-4.7c-2.7-0.3-5.3-0.5-7.9-0.8c-13.8-1.5-27.1-4.6-40.2-9.2
		c-15.6-5.5-29.9-13.2-42.5-24.1c-10.9-9.6-20.5-20.4-29.3-32c-0.8-1.1-1.6-2.2-2.5-3.4C238.6,227.6,278.4,227.6,318.3,227.6z"/>
	<path d="M318.3,227.6c-39.9,0-79.8,0-119.9,0c0.9,1.2,1.7,2.3,2.5,3.4c8.7,11.6,18.3,22.4,29.3,32c12.5,10.9,26.8,18.7,42.5,24.1
		c13.1,4.6,26.4,7.7,40.2,9.2c2.6,0.3,5.2,0.5,7.9,0.8c0,1.6,0,3.1,0,4.7c-9.7,2.1-18.5,5.8-23.5,15.4c-3.1-1.1-6.3-2.1-9.4-3.2
		c-15.5-5.5-30.2-12.5-43.8-21.7c-15.7-10.6-28.1-24.2-38.2-40.1c-4.9-7.6-9.2-15.5-13-23.6c-0.4-0.8-0.8-0.9-1.6-1
		c-2.7-0.5-3.9,0.7-5.1,3.2c-5.9,13.2-13.3,25.4-22.8,36.3c-11.1,12.9-24.5,22.5-40.1,29.4c-19.6,8.7-39.8,15.1-60.9,18.7
		c-4.3,0.7-8.7,1.3-13,1.9c-0.3,0-0.8-0.1-1-0.3c-0.7-1-1.4-2-2.1-3.1c3.2-0.8,6.2-1.6,9.3-2.4c17.1-4.6,33.8-10.1,49.8-17.7
		c12.5-6,24.2-13.2,34.4-22.7c12-11.1,21-24.3,27.5-39.3c0.5-1.2,1-2.4,1.6-3.8c-0.6,0-1,0-1.4,0c-26.3,0-52.6,0-79,0
		c-8.3,0-16.4,1.1-24.4,3.2c-0.8,0.2-1.4,0.1-2-0.5c-2.9-3-5.9-5.9-8.8-8.8c-0.3-0.3-0.5-0.6-0.9-1c0.7,0,1.2,0,1.7,0
		c38.5,0,77,0,115.6,0c2.1,0,1.7,0.3,2.1-1.7c2-8.9,3.5-18,4.3-27.1c0-0.2,0-0.3,0.1-0.7c8.6,3.9,17.2,7.8,25.9,11.8
		c-0.4,0.3-0.6,0.6-0.9,0.8c-2.6,1.9-5.1,3.8-7.7,5.8c-0.5,0.4-0.9,0.9-1.1,1.5c-1.1,3.1-2.1,6.3-3.2,9.6c0.6,0,1,0,1.4,0
		c27.4,0,54.8,0,82.2,0c0.8,0,1.4-0.3,2-0.8c5.7-5.7,11.4-11.4,17-17.1c0.3-0.3,0.6-0.6,0.9-0.8
		C301.1,210.3,309.7,218.9,318.3,227.6z"/>
</g>
</svg>
