<?xml version="1.0" encoding="utf-8"?>
<!-- Generator: Adobe Illustrator 20.1.0, SVG Export Plug-In . SVG Version: 6.00 Build 0)  -->
<svg version="1.1" id="图层_1" xmlns="http://www.w3.org/2000/svg" xmlns:xlink="http://www.w3.org/1999/xlink" x="0px" y="0px"
	 viewBox="0 0 360 360" style="enable-background:new 0 0 360 360;" xml:space="preserve">
<style type="text/css">
	.st0{fill:#FFFFFF;}
</style>
<g>
	<path class="st0" d="M0.2,360.5c0-120.1,0-240.2,0-360.2c120.1,0,240.2,0,360.2,0c0,120.1,0,240.2,0,360.2
		C240.4,360.5,120.3,360.5,0.2,360.5z M167.7,61.3c-0.3,32-1.6,63.7-3.6,95.5c-37.7,0-75.3,0-113.1,0c3.5,3.5,6.8,6.8,10.1,10.1
		c0.3,0.3,1,0.4,1.5,0.3c8.7-2.2,17.5-3.2,26.5-3.2c24.2,0,48.3,0,72.5,0c0.4,0,0.9,0,1.3,0c0,0.3,0,0.5-0.1,0.6
		c-2.1,11.4-5,22.7-8.7,33.7c-10.1,29.7-26.5,55.3-49.5,76.7c-14.4,13.4-30.4,24.8-47.5,34.5c-2.4,1.3-4.7,2.7-7.1,4
		c0.2,0.3,0.4,0.6,0.5,0.9c0.6,0.9,1.2,1.8,1.8,2.7c0.4-0.1,0.7-0.2,0.9-0.3c27.1-10.7,51.4-25.7,72.7-45.6
		c10.4-9.7,19.7-20.2,27.3-32.2c13.2-20.8,21.3-43.5,26.1-67.5c0.5-2.5,1-4.9,1.4-7.4c3.6,0,7,0,10.5,0c1.5,9.6,4,18.9,7.1,28
		c6,17.3,14,33.6,23,49.5c7.1,12.6,15.8,23.9,25.9,34.2c13.1,13.4,28,24.4,44.2,33.7c0.4,0.2,0.7,0.4,1.2,0.6
		c5.5-11.5,15.2-15.7,27-16.5c0-1.6,0-3.2,0-4.6c-0.1-0.1-0.2-0.1-0.3-0.1c-1.6-0.3-3.1-0.7-4.7-1c-27.1-6.5-50.1-20.5-70.2-39.5
		c-8.6-8.1-15.6-17.6-21.9-27.7c-9.8-15.7-17.1-32.6-23.2-50c-0.7-2.1-1.5-4.3-2.3-6.6c37.8,0,75.3,0,112.8,0c-9-9-18-18-27-27
		c-0.2,0.2-0.6,0.5-0.9,0.8c-6.1,6.1-12.2,12.2-18.2,18.3c-0.6,0.6-1.2,0.8-2,0.8c-26.2,0-52.5,0-78.7,0c-0.4,0-0.9,0-1.3,0
		c0-0.7,0.1-1.3,0.1-1.9c0.4-5.2,0.8-10.4,1.1-15.7c0.6-9.5,1.2-19.1,1.7-28.6c0.6-11.4,1.1-22.7,1.7-34.1c0-0.7-0.2-1.2-0.8-1.6
		c-4.3-3.2-8.6-6.5-13-9.7C171.2,63.9,169.6,62.7,167.7,61.3z"/>
	<path d="M167.7,61.3c1.9,1.4,3.5,2.6,5.1,3.8c4.3,3.2,8.6,6.5,13,9.7c0.6,0.4,0.8,0.8,0.8,1.6c-0.6,11.4-1.1,22.8-1.7,34.1
		c-0.5,9.5-1.1,19.1-1.7,28.6c-0.3,5.2-0.7,10.4-1.1,15.7c0,0.6-0.1,1.2-0.1,1.9c0.5,0,0.9,0,1.3,0c26.2,0,52.5,0,78.7,0
		c0.8,0,1.4-0.2,2-0.8c6.1-6.1,12.1-12.2,18.2-18.3c0.3-0.3,0.6-0.6,0.9-0.8c9,9,18,18,27,27c-37.5,0-75.1,0-112.8,0
		c0.8,2.3,1.5,4.5,2.3,6.6c6.1,17.4,13.4,34.3,23.2,50c6.2,10.1,13.3,19.5,21.9,27.7c20.1,19,43,33,70.2,39.5c1.6,0.4,3.1,0.7,4.7,1
		c0.1,0,0.1,0.1,0.3,0.1c0,1.5,0,3,0,4.6c-11.8,0.8-21.6,5-27,16.5c-0.4-0.2-0.8-0.4-1.2-0.6c-16.2-9.2-31.1-20.3-44.2-33.7
		c-10.1-10.3-18.8-21.7-25.9-34.2c-9-15.9-17-32.2-23-49.5c-3.2-9.1-5.7-18.4-7.1-28c-3.5,0-7,0-10.5,0c-0.5,2.5-0.9,4.9-1.4,7.4
		c-4.9,24-12.9,46.8-26.1,67.5c-7.6,12-16.9,22.5-27.3,32.2c-21.3,19.9-45.6,34.9-72.7,45.6c-0.3,0.1-0.6,0.2-0.9,0.3
		c-0.6-0.9-1.2-1.8-1.8-2.7c-0.2-0.3-0.3-0.5-0.5-0.9c2.4-1.4,4.8-2.7,7.1-4c17.1-9.8,33.1-21.1,47.5-34.5
		c23-21.4,39.5-47,49.5-76.7c3.7-11,6.6-22.3,8.7-33.7c0-0.2,0-0.3,0.1-0.6c-0.5,0-0.9,0-1.3,0c-24.2,0-48.3,0-72.5,0
		c-8.9,0-17.8,1-26.5,3.2c-0.4,0.1-1.2,0-1.5-0.3c-3.4-3.3-6.6-6.6-10.1-10.1c37.8,0,75.4,0,113.1,0
		C166.1,125,167.4,93.3,167.7,61.3z"/>
</g>
</svg>
