<?xml version="1.0" encoding="utf-8"?>
<!-- Generator: Adobe Illustrator 20.1.0, SVG Export Plug-In . SVG Version: 6.00 Build 0)  -->
<svg version="1.1" id="图层_1" xmlns="http://www.w3.org/2000/svg" xmlns:xlink="http://www.w3.org/1999/xlink" x="0px" y="0px"
	 viewBox="0 0 360 360" style="enable-background:new 0 0 360 360;" xml:space="preserve">
<style type="text/css">
	.st0{fill:#FFFFFF;}
</style>
<g>
	<path class="st0" d="M0.2,360.5c0-120.1,0-240.2,0-360.2c120.1,0,240.2,0,360.2,0c0,120.1,0,240.2,0,360.2
		C240.4,360.5,120.3,360.5,0.2,360.5z M218.4,43.6c-0.3,0.3-0.5,0.6-0.7,0.8c-2.6,3.2-5.2,6.4-7.7,9.7c-0.8,1-1.5,1.4-2.8,1.4
		c-46,0-92.1,0-138.1,0c-0.5,0-0.9,0-1.6,0c3.5,3.5,6.7,6.7,9.9,9.9c0.6,0.6,1.1,0.7,1.9,0.5c8.1-2.1,16.4-3.2,24.8-3.2
		c35.7,0,71.4,0,107,0c0.4,0,0.9,0,1.3,0c0,0.5-0.1,0.8-0.1,1.1c-1,7.9-1.6,15.9-1.5,23.9c0.1,5.7,0.4,11.5,0.9,17.2
		c0.8,9,2.4,18,5.3,26.6c4.2,12.8,11.1,23.7,21.4,32.5c10.2,8.6,21.9,14.3,34.4,18.5c13.9,4.6,28.3,7,42.8,8.3
		c2.9,0.3,2.9,0.2,4.1-2.3c0.2-0.4,0.4-0.8,0.6-1.2c0.5-0.7,0.4-1.3-0.2-2c-5.5-7.5-9-15.8-10.1-25.1c-1-8.9-0.7-17.8-0.4-26.7
		c0.1-3.2,0.3-6.4,0.5-9.7c-1.3,0-2.6,0-3.9,0c-0.7,0-0.9,0.3-1.1,0.9c-2.7,12.1-5.4,24.2-8.2,36.3c-0.7,3.3-1.5,6.5-2.3,10
		c-2.9-0.5-5.7-0.9-8.5-1.5c-10.1-2.3-19.3-6.8-28.3-11.9c-5.6-3.2-10.5-7.1-14.6-12.1c-8.3-9.9-12.7-21.5-15.5-33.9
		c-0.2-0.7,0.1-1,0.6-1.3c12.6-6.9,25.2-14,37.9-20.8c7-3.8,14.4-6.8,22.3-8.6c1.5-0.3,3.1-0.6,4.9-0.9c-7.2-6-14.1-11.8-21.1-17.6
		c-12.5,17.2-29,29.9-46.1,42.5c0-1.1,0-1.8,0-2.5c-0.5-11.3-0.8-22.7,0-34c0.1-0.9,0.4-1.3,1.1-1.8c3.2-1.9,6.5-3.8,9.7-5.8
		c0.4-0.2,0.7-0.5,1.1-0.7C231.7,54.6,225.1,49.1,218.4,43.6z M245.4,109.6c-0.3,1-0.6,1.9-0.9,2.7c-0.3,0.8-0.1,1.1,0.6,1.5
		c3.2,2,6.3,4.1,9.4,6.2c8.2,5.6,16,11.5,22.9,18.7c0.9,1,2,1.8,3.2,2.5c3,1.8,5.2,1,6.5-2.2c1.1-2.6,1.5-5.3,1.4-8.1
		c-0.2-4.9-2.4-8.5-6.7-10.8c-1.2-0.7-2.5-1.2-3.8-1.7c-7.2-2.9-14.7-4.7-22.3-6.5C252.3,111.1,248.9,110.4,245.4,109.6z"/>
	<path d="M218.4,43.6c6.7,5.5,13.3,10.9,20,16.5c-0.4,0.3-0.8,0.5-1.1,0.7c-3.2,1.9-6.4,3.9-9.7,5.8c-0.7,0.4-1,0.9-1.1,1.8
		c-0.8,11.3-0.5,22.7,0,34c0,0.7,0,1.4,0,2.5c17.1-12.6,33.5-25.3,46.1-42.5c7,5.8,14,11.6,21.1,17.6c-1.8,0.3-3.3,0.5-4.9,0.9
		c-7.9,1.7-15.3,4.8-22.3,8.6c-12.7,6.8-25.3,13.9-37.9,20.8c-0.6,0.3-0.8,0.6-0.6,1.3c2.8,12.4,7.2,24,15.5,33.9
		c4.1,4.9,9.1,8.9,14.6,12.1c8.9,5.1,18.2,9.6,28.3,11.9c2.8,0.6,5.6,1,8.5,1.5c0.8-3.5,1.5-6.7,2.3-10c2.7-12.1,5.5-24.2,8.2-36.3
		c0.1-0.6,0.4-1,1.1-0.9c1.3,0.1,2.5,0,3.9,0c-0.2,3.3-0.4,6.5-0.5,9.7c-0.3,8.9-0.6,17.8,0.4,26.7c1.1,9.2,4.6,17.6,10.1,25.1
		c0.5,0.7,0.7,1.3,0.2,2c-0.2,0.4-0.4,0.8-0.6,1.2c-1.3,2.6-1.3,2.6-4.1,2.3c-14.6-1.3-28.9-3.7-42.8-8.3
		c-12.6-4.1-24.3-9.8-34.4-18.5c-10.3-8.8-17.2-19.7-21.4-32.5c-2.8-8.7-4.4-17.6-5.3-26.6c-0.5-5.7-0.9-11.5-0.9-17.2
		c-0.1-8,0.5-16,1.5-23.9c0-0.3,0.1-0.6,0.1-1.1c-0.5,0-0.9,0-1.3,0c-35.7,0-71.4,0-107,0c-8.4,0-16.7,1.1-24.8,3.2
		c-0.8,0.2-1.3,0.1-1.9-0.5c-3.2-3.2-6.4-6.5-9.9-9.9c0.7,0,1.2,0,1.6,0c46,0,92.1,0,138.1,0c1.3,0,2-0.4,2.8-1.4
		c2.5-3.3,5.1-6.5,7.7-9.7C217.9,44.2,218.1,44,218.4,43.6z"/>
	<path d="M245.4,109.6c3.5,0.8,6.8,1.5,10.1,2.3c7.5,1.8,15.1,3.6,22.3,6.5c1.3,0.5,2.6,1.1,3.8,1.7c4.3,2.3,6.6,6,6.7,10.8
		c0.1,2.8-0.3,5.5-1.4,8.1c-1.3,3.2-3.5,4-6.5,2.2c-1.2-0.7-2.3-1.5-3.2-2.5c-6.8-7.2-14.7-13.1-22.9-18.7c-3.1-2.1-6.3-4.2-9.4-6.2
		c-0.6-0.4-0.9-0.8-0.6-1.5C244.9,111.5,245.1,110.6,245.4,109.6z"/>
</g>
</svg>
