<?xml version="1.0" encoding="utf-8"?>
<!-- Generator: Adobe Illustrator 20.1.0, SVG Export Plug-In . SVG Version: 6.00 Build 0)  -->
<svg version="1.1" id="图层_1" xmlns="http://www.w3.org/2000/svg" xmlns:xlink="http://www.w3.org/1999/xlink" x="0px" y="0px"
	 viewBox="0 0 360 360" style="enable-background:new 0 0 360 360;" xml:space="preserve">
<style type="text/css">
	.st0{fill:#FFFFFF;}
</style>
<g>
	<path class="st0" d="M0.2,360.5c0-120.1,0-240.2,0-360.2c120.1,0,240.2,0,360.2,0c0,120.1,0,240.2,0,360.2
		C240.4,360.5,120.3,360.5,0.2,360.5z M201.9,161.5c29.4,0,58.7,0,88,0c-7.8-7.8-15.6-15.6-23.4-23.4c-0.2,0.2-0.5,0.5-0.8,0.8
		c-4.8,4.8-9.7,9.7-14.5,14.5c-0.7,0.7-1.4,1-2.4,1c-38,0-76,0-114,0c-12.1,0-24.2,0-36.4,0.1c-0.4,0-0.8,0-1.2,0
		c3.4,3.6,6.6,7,10,10.6c2.5-1,5.1-2,7.7-3.1c0.7-0.2,1.4-0.4,2.1-0.4c21.9,0,43.8,0,65.8,0c0.4,0,0.9,0,1.3,0c0,20.5,0,40.8,0,61.3
		c-46.3,0-92.5,0-138.9,0c3.5,3.5,6.9,6.9,10.2,10.2c0.3,0.3,1,0.3,1.4,0.2c8.2-2.1,16.6-3.2,25-3.2c33.7,0,67.4,0,101,0
		c0.4,0,0.8,0,1.6,0c-0.4,29.5-0.7,58.8-1,88.2c0.2-0.1,0.5-0.2,0.9-0.3c5.8-2.4,11.7-4.8,17.5-7.2c1.1-0.4,1.4-0.9,1.3-2.1
		c-0.4-9.5-1-19.1-1.1-28.6c-0.2-16.2,0-32.4,0-48.6c0-0.4,0-0.8,0-1.4c39.7,0,79.2,0,118.7,0c-8.2-8.2-16.4-16.4-24.6-24.6
		c-0.2,0.2-0.5,0.5-0.8,0.8c-5.3,5.3-10.6,10.6-15.9,15.9c-0.6,0.6-1.2,0.8-2,0.8c-24.7,0-49.4,0-74,0c-0.4,0-0.8,0-1.3,0
		C201.9,202.3,201.9,182,201.9,161.5z"/>
	<path d="M201.9,161.5c0,20.4,0,40.7,0,61.2c0.5,0,0.9,0,1.3,0c24.7,0,49.4,0,74,0c0.8,0,1.4-0.2,2-0.8c5.3-5.3,10.6-10.6,15.9-15.9
		c0.3-0.3,0.6-0.6,0.8-0.8c8.2,8.2,16.4,16.4,24.6,24.6c-39.5,0-79,0-118.7,0c0,0.5,0,1,0,1.4c0,16.2-0.1,32.4,0,48.6
		c0.1,9.5,0.7,19.1,1.1,28.6c0.1,1.1-0.3,1.7-1.3,2.1c-5.9,2.3-11.7,4.8-17.5,7.2c-0.3,0.1-0.7,0.2-0.9,0.3
		c0.3-29.3,0.7-58.6,1-88.2c-0.7,0-1.2,0-1.6,0c-33.7,0-67.4,0-101,0c-8.5,0-16.8,1.1-25,3.2c-0.4,0.1-1.1,0.1-1.4-0.2
		c-3.4-3.3-6.7-6.6-10.2-10.2c46.4,0,92.6,0,138.9,0c0-20.5,0-40.8,0-61.3c-0.5,0-0.9,0-1.3,0c-21.9,0-43.8,0-65.8,0
		c-0.7,0-1.4,0.2-2.1,0.4c-2.6,1-5.3,2.1-7.7,3.1c-3.3-3.5-6.6-7-10-10.6c0.5,0,0.9,0,1.2,0c12.1,0,24.2-0.1,36.4-0.1
		c38,0,76,0,114,0c1,0,1.7-0.3,2.4-1c4.8-4.9,9.7-9.7,14.5-14.5c0.3-0.3,0.6-0.6,0.8-0.8c7.8,7.8,15.6,15.6,23.4,23.4
		C260.7,161.5,231.3,161.5,201.9,161.5z"/>
</g>
</svg>
