<?xml version="1.0" encoding="utf-8"?>
<!-- Generator: Adobe Illustrator 20.1.0, SVG Export Plug-In . SVG Version: 6.00 Build 0)  -->
<svg version="1.1" id="图层_1" xmlns="http://www.w3.org/2000/svg" xmlns:xlink="http://www.w3.org/1999/xlink" x="0px" y="0px"
	 viewBox="0 0 360 360" style="enable-background:new 0 0 360 360;" xml:space="preserve">
<style type="text/css">
	.st0{fill:#FFFFFF;}
</style>
<g>
	<path class="st0" d="M0.2,360.5c0-120.1,0-240.2,0-360.2c120.1,0,240.2,0,360.2,0c0,120.1,0,240.2,0,360.2
		C240.4,360.5,120.3,360.5,0.2,360.5z M265.2,175.6c-0.2,0.3-0.4,0.7-0.7,1c-4.8,4.8-9.6,9.5-14.3,14.4c-0.8,0.8-1.6,1.1-2.7,1.1
		c-56.6,0-113.3,0-169.9,0c-0.5,0-1,0-1.7,0c0.2,0.3,0.3,0.4,0.4,0.5c3.2,3.2,6.4,6.5,9.7,9.7c0.3,0.3,0.9,0.4,1.4,0.3
		c8.8-2.3,17.8-3.3,26.8-3.3c19.4,0,38.7,0,58.1,0c0.4,0,0.9,0,1.3,0c0,15,0,29.8,0,44.7c-42.4,0-84.6,0-127.1,0
		c0.4,0.4,0.6,0.7,0.9,1c3,3,6,6,9,9c0.6,0.6,1,0.7,1.8,0.5c8.6-2.3,17.3-3.3,26.2-3.3c29.4,0,58.7,0,88.1,0c0.4,0,0.8,0,1.3,0
		c0.1,22.5,0.2,44.8-1.2,67.1c0.5-0.1,0.9-0.2,1.2-0.3c5.5-1.7,11-3.5,16.6-5.1c1-0.3,1.1-0.8,1.1-1.7c-0.4-9.6-0.9-19.2-1.1-28.9
		c-0.2-9.9,0-19.8,0-29.8c0-0.4,0-0.8,0-1.4c43.2,0,86.3,0,129.2,0c-8.6-8.6-17.2-17.2-25.8-25.8c-0.2,0.2-0.5,0.5-0.8,0.8
		c-5.7,5.7-11.4,11.4-17,17.1c-0.6,0.6-1.2,0.8-2,0.8c-27.4,0-54.8,0-82.2,0c-0.4,0-0.9,0-1.3,0c0-14.9,0-29.8,0-44.7
		c32.9,0,65.8,0,98.6,0C281,191.4,273.2,183.6,265.2,175.6z"/>
	<path d="M265.2,175.6c8,8,15.8,15.8,23.6,23.6c-32.8,0-65.7,0-98.6,0c0,14.9,0,29.8,0,44.7c0.5,0,0.9,0,1.3,0c27.4,0,54.8,0,82.2,0
		c0.8,0,1.4-0.2,2-0.8c5.7-5.7,11.4-11.4,17-17.1c0.3-0.3,0.6-0.6,0.8-0.8c8.6,8.6,17.2,17.2,25.8,25.8c-43,0-86,0-129.2,0
		c0,0.5,0,0.9,0,1.4c0,9.9-0.1,19.8,0,29.8c0.2,9.6,0.7,19.2,1.1,28.9c0,0.9-0.1,1.4-1.1,1.7c-5.5,1.7-11.1,3.4-16.6,5.1
		c-0.3,0.1-0.7,0.2-1.2,0.3c1.4-22.4,1.2-44.7,1.2-67.1c-0.5,0-0.9,0-1.3,0c-29.4,0-58.7,0-88.1,0c-8.9,0-17.6,1-26.2,3.3
		c-0.7,0.2-1.2,0.1-1.8-0.5c-3-3-6-6-9-9c-0.2-0.2-0.5-0.5-0.9-1c42.5,0,84.8,0,127.1,0c0-14.9,0-29.8,0-44.7c-0.5,0-0.9,0-1.3,0
		c-19.4,0-38.7,0-58.1,0c-9.1,0-18,1-26.8,3.3c-0.4,0.1-1.1,0-1.4-0.3c-3.3-3.2-6.5-6.4-9.7-9.7c-0.1-0.1-0.2-0.2-0.4-0.5
		c0.7,0,1.2,0,1.7,0c56.6,0,113.3,0,169.9,0c1.1,0,1.9-0.3,2.7-1.1c4.7-4.8,9.5-9.6,14.3-14.4C264.8,176.3,265,175.9,265.2,175.6z"
		/>
</g>
</svg>
