<?xml version="1.0" encoding="utf-8"?>
<!-- Generator: Adobe Illustrator 20.1.0, SVG Export Plug-In . SVG Version: 6.00 Build 0)  -->
<svg version="1.1" id="图层_1" xmlns="http://www.w3.org/2000/svg" xmlns:xlink="http://www.w3.org/1999/xlink" x="0px" y="0px"
	 viewBox="0 0 360 360" style="enable-background:new 0 0 360 360;" xml:space="preserve">
<style type="text/css">
	.st0{fill:#FFFFFF;}
</style>
<g>
	<path class="st0" d="M0.2,360.5c0-120.1,0-240.2,0-360.2c120.1,0,240.2,0,360.2,0c0,120.1,0,240.2,0,360.2
		C240.4,360.5,120.3,360.5,0.2,360.5z M173.6,178c-0.2,44.8,0.5,89.5-1.2,134.3c0.5-0.2,0.9-0.3,1.3-0.5c5.8-2.4,11.6-4.8,17.5-7.2
		c1.2-0.5,1.4-1,1.4-2.2c-0.4-15.3-1-30.6-1.1-45.9c-0.2-25.7-0.1-51.4-0.1-77.2c0-0.4,0-0.9,0-1.4c42.8,0,85.5,0,128,0
		c-8.2-8.2-16.4-16.4-24.7-24.7c-0.2,0.2-0.4,0.6-0.7,0.9c-5.3,5.3-10.5,10.5-15.8,15.8c-0.6,0.6-1.2,0.9-2.1,0.9
		c-27.8,0-55.6,0-83.4,0c-0.4,0-0.8,0-1.3,0c0-33,0-65.9,0-99c36.5,0,72.9,0,109.3,0c-7.8-7.8-15.6-15.6-23.7-23.7
		c-0.2,0.3-0.3,0.8-0.6,1.1c-4.8,4.9-9.7,9.7-14.5,14.5c-0.7,0.7-1.5,1-2.5,1c-44.8,0-89.7,0-134.5,0c-18.2,0-36.3,0-54.5,0
		c-0.4,0-0.9,0-1.7,0c3.5,3.5,6.7,6.7,9.9,9.9c0.6,0.6,1.1,0.8,2,0.5C88.6,73.1,97,72,105.4,72c22.3-0.1,44.6,0,66.8,0
		c0.4,0,0.8,0,1.3,0c0,33,0,65.9,0,98.9c-43.5,0-87,0-130.7,0c3.5,3.5,6.8,6.8,10.2,10.1c0.3,0.3,1,0.3,1.5,0.2
		c8.5-2.1,17.2-3.2,26-3.2c30.5,0,61,0,91.4,0C172.4,178,172.9,178,173.6,178z"/>
	<path d="M173.6,178c-0.7,0-1.2,0-1.7,0c-30.5,0-61,0-91.4,0c-8.8,0-17.5,1.1-26,3.2c-0.5,0.1-1.2,0.1-1.5-0.2
		c-3.4-3.3-6.6-6.6-10.2-10.1c43.7,0,87.2,0,130.7,0c0-33,0-65.9,0-98.9c-0.4,0-0.9,0-1.3,0c-22.3,0-44.6,0-66.8,0
		c-8.4,0-16.7,1.1-24.9,3.2c-0.8,0.2-1.4,0.1-2-0.5c-3.2-3.2-6.4-6.4-9.9-9.9c0.8,0,1.2,0,1.7,0c18.2,0,36.3,0,54.5,0
		c44.8,0,89.7,0,134.5,0c1,0,1.8-0.3,2.5-1c4.8-4.9,9.7-9.7,14.5-14.5c0.3-0.3,0.5-0.8,0.6-1.1c8.1,8.1,15.9,15.9,23.7,23.7
		c-36.4,0-72.8,0-109.3,0c0,33,0,65.9,0,99c0.4,0,0.8,0,1.3,0c27.8,0,55.6,0,83.4,0c0.9,0,1.5-0.3,2.1-0.9
		c5.2-5.3,10.5-10.5,15.8-15.8c0.3-0.3,0.5-0.7,0.7-0.9c8.3,8.3,16.5,16.5,24.7,24.7c-42.5,0-85.2,0-128,0c0,0.6,0,1,0,1.4
		c0,25.7-0.1,51.4,0.1,77.2c0.1,15.3,0.7,30.6,1.1,45.9c0,1.1-0.2,1.7-1.4,2.2c-5.9,2.3-11.7,4.8-17.5,7.2c-0.4,0.1-0.7,0.3-1.3,0.5
		C174.1,267.5,173.4,222.9,173.6,178z"/>
</g>
</svg>
