<?xml version="1.0" encoding="utf-8"?>
<!-- Generator: Adobe Illustrator 20.1.0, SVG Export Plug-In . SVG Version: 6.00 Build 0)  -->
<svg version="1.1" id="图层_1" xmlns="http://www.w3.org/2000/svg" xmlns:xlink="http://www.w3.org/1999/xlink" x="0px" y="0px"
	 viewBox="0 0 360 360" style="enable-background:new 0 0 360 360;" xml:space="preserve">
<style type="text/css">
	.st0{fill:#FFFFFF;}
</style>
<g>
	<path class="st0" d="M0.2,360.5c0-120.1,0-240.2,0-360.2c120.1,0,240.2,0,360.2,0c0,120.1,0,240.2,0,360.2
		C240.4,360.5,120.3,360.5,0.2,360.5z M118.1,183.8c3.2,3.2,6.2,6.2,9.2,9.1c0.3,0.3,0.9,0.3,1.3,0.2c1.6-0.2,3.2-0.5,4.8-0.8
		c3-0.5,6.1-1.3,9.1-1.3c16.2-0.1,32.3-0.1,48.5-0.1c0.4,0,0.9,0,1.3,0c0,33,0,65.9,0,98.9c-33.7,0-67.3,0-101.1,0
		c0.2,0.3,0.3,0.4,0.4,0.5c3.2,3.2,6.4,6.4,9.6,9.6c0.3,0.3,1,0.4,1.5,0.3c8.6-2.2,17.3-3.2,26.1-3.2c59.9,0,119.8,0,179.6,0
		c0.5,0,1.1,0,1.5,0c-8.2-8.2-16.4-16.4-24.7-24.7c-0.2,0.2-0.4,0.6-0.7,0.9c-5.3,5.3-10.6,10.7-16,15.9c-0.4,0.4-1.2,0.7-1.7,0.7
		c-18.8,0-37.7,0-56.5,0c-0.4,0-0.8,0-1.2,0c0-33,0-65.9,0-98.9c24.7,0,49.3,0,73.9,0c-7.5-7.5-14.9-14.9-22.4-22.4
		c-0.2,0.3-0.4,0.7-0.7,1c-4.5,4.5-8.9,8.9-13.4,13.4c-0.7,0.7-1.3,0.9-2.3,0.9c-41.4,0-82.8,0-124.2,0
		C119.4,183.8,118.9,183.8,118.1,183.8z"/>
	<path d="M118.1,183.8c0.8,0,1.3,0,1.8,0c41.4,0,82.8,0,124.2,0c1,0,1.6-0.2,2.3-0.9c4.4-4.5,8.9-9,13.4-13.4c0.3-0.3,0.5-0.7,0.7-1
		c7.6,7.6,15,15,22.4,22.4c-24.6,0-49.2,0-73.9,0c0,33,0,65.9,0,98.9c0.4,0,0.8,0,1.2,0c18.8,0,37.7,0,56.5,0c0.6,0,1.3-0.3,1.7-0.7
		c5.4-5.3,10.7-10.6,16-15.9c0.3-0.3,0.6-0.7,0.7-0.9c8.3,8.3,16.5,16.5,24.7,24.7c-0.4,0-1,0-1.5,0c-59.9,0-119.8,0-179.6,0
		c-8.8,0-17.5,1.1-26.1,3.2c-0.4,0.1-1.2,0-1.5-0.3c-3.2-3.2-6.4-6.4-9.6-9.6c-0.1-0.1-0.2-0.2-0.4-0.5c33.8,0,67.4,0,101.1,0
		c0-33,0-65.9,0-98.9c-0.4,0-0.9,0-1.3,0c-16.2,0-32.3-0.1-48.5,0.1c-3,0-6.1,0.8-9.1,1.3c-1.6,0.2-3.2,0.6-4.8,0.8
		c-0.4,0.1-1.1,0-1.3-0.2C124.3,190,121.3,187,118.1,183.8z"/>
</g>
</svg>
