<?xml version="1.0" encoding="utf-8"?>
<!-- Generator: Adobe Illustrator 20.1.0, SVG Export Plug-In . SVG Version: 6.00 Build 0)  -->
<svg version="1.1" id="图层_1" xmlns="http://www.w3.org/2000/svg" xmlns:xlink="http://www.w3.org/1999/xlink" x="0px" y="0px"
	 viewBox="0 0 360 360" style="enable-background:new 0 0 360 360;" xml:space="preserve">
<style type="text/css">
	.st0{fill:#FFFFFF;}
</style>
<g>
	<path class="st0" d="M0.2,360.5c0-120.1,0-240.2,0-360.2c120.1,0,240.2,0,360.2,0c0,120.1,0,240.2,0,360.2
		C240.4,360.5,120.3,360.5,0.2,360.5z M46.3,286.4c3.5,3.5,6.8,6.8,10.2,10.1c0.3,0.3,0.9,0.4,1.4,0.3c8.9-2.3,17.9-3.3,27.1-3.3
		c77.4,0,154.7,0,232.1,0c0.4,0,0.9,0,1.1,0c-8.6-8.6-17.2-17.2-25.8-25.8c-5.8,5.8-11.8,11.8-17.8,17.8c-0.6,0.6-1.1,0.8-2,0.8
		c-26.7,0-53.4,0-80,0c-0.4,0-0.8,0-1.2-0.1c0-69.1,0-138.1,0-207.3c37.7,0,75.2,0,112.6,0c-7.8-7.8-15.6-15.6-23.4-23.4
		c-5,5-10.1,10.1-15.2,15.3c-0.8,0.8-1.5,1.1-2.6,1.1c-64.5,0-129,0-193.4,0c-0.5,0-1,0-1.7,0c0.3,0.3,0.3,0.4,0.4,0.5
		c3.2,3.2,6.4,6.4,9.6,9.6c0.3,0.3,0.9,0.4,1.3,0.3c8.1-2.1,16.4-3.2,24.8-3.2c23.2-0.1,46.4,0,69.6,0c0.4,0,0.8,0,1.3,0.1
		c0,69.1,0,138.1,0,207.2C131.9,286.4,89.2,286.4,46.3,286.4z"/>
	<path d="M46.3,286.4c42.9,0,85.6,0,128.4,0c0-69.1,0-138.1,0-207.2c-0.4,0-0.8-0.1-1.3-0.1c-23.2,0-46.4,0-69.6,0
		c-8.4,0-16.6,1.2-24.8,3.2c-0.4,0.1-1.1,0-1.3-0.3c-3.2-3.2-6.4-6.4-9.6-9.6c-0.1-0.1-0.2-0.2-0.4-0.5c0.7,0,1.2,0,1.7,0
		c64.5,0,129,0,193.4,0c1.1,0,1.8-0.3,2.6-1.1c5.1-5.2,10.2-10.3,15.2-15.3c7.8,7.8,15.6,15.6,23.4,23.4c-37.4,0-74.9,0-112.6,0
		c0,69.2,0,138.2,0,207.3c0.4,0,0.8,0.1,1.2,0.1c26.7,0,53.4,0,80,0c0.8,0,1.4-0.3,2-0.8c5.9-6,11.9-11.9,17.8-17.8
		c8.6,8.6,17.2,17.2,25.8,25.8c-0.2,0-0.7,0-1.1,0c-77.4,0-154.7,0-232.1,0c-9.2,0-18.2,1-27.1,3.3c-0.4,0.1-1.1,0-1.4-0.3
		C53.1,293.2,49.8,289.9,46.3,286.4z"/>
</g>
</svg>
