<?xml version="1.0" encoding="utf-8"?>
<!-- Generator: Adobe Illustrator 20.1.0, SVG Export Plug-In . SVG Version: 6.00 Build 0)  -->
<svg version="1.1" id="图层_1" xmlns="http://www.w3.org/2000/svg" xmlns:xlink="http://www.w3.org/1999/xlink" x="0px" y="0px"
	 viewBox="0 0 360 360" style="enable-background:new 0 0 360 360;" xml:space="preserve">
<style type="text/css">
	.st0{fill:#FFFFFF;}
</style>
<g>
	<path class="st0" d="M0.2,360.5c0-120.1,0-240.2,0-360.2c120.1,0,240.2,0,360.2,0c0,120.1,0,240.2,0,360.2
		C240.4,360.5,120.3,360.5,0.2,360.5z M167.4,90.8c-7-7-14-14-21.2-21.2c-0.1,0.2-0.4,0.6-0.7,0.9c-4.1,4.1-8.2,8.1-12.2,12.2
		c-0.7,0.7-1.4,1-2.4,1c-26.1,0-52.2,0-78.2,0c-0.5,0-0.9,0-1.7,0c2.5,2.5,4.9,4.6,6.9,7c1.8,2.1,3.6,2.6,6.2,1.9
		c3-0.8,6.1-1.6,9.2-1.6c8.6-0.2,17.3-0.1,25.9-0.1c0.4,0,0.8,0,1.3,0.1c0,44.4,0,88.6,0,133.2c-17.2,4.7-34.4,9.4-51.6,14.2
		c5.4,7.3,10.8,14.7,16.4,22.2c2.5-3.5,5.6-6.2,9-8.7c8.3-6,17.4-10.6,26.6-14.9c20.8-9.7,42.2-17.7,63.8-25.4
		c3.8-1.3,7.5-2.6,11.4-4c-0.4-1.6-0.8-3.1-1.2-4.8c-19.3,5.5-38.4,11-57.6,16.5c0-42.8,0-85.5,0-128.3
		C134,90.8,150.7,90.8,167.4,90.8z"/>
	<path d="M167.4,90.8c-16.7,0-33.4,0-50.2,0c0,42.8,0,85.5,0,128.3c19.2-5.5,38.3-11,57.6-16.5c0.4,1.6,0.8,3.2,1.2,4.8
		c-3.9,1.4-7.6,2.7-11.4,4c-21.6,7.7-43.1,15.7-63.8,25.4c-9.2,4.3-18.3,8.9-26.6,14.9c-3.4,2.4-6.5,5.1-9,8.7
		c-5.5-7.5-11-14.9-16.4-22.2c17.2-4.7,34.5-9.5,51.6-14.2c0-44.6,0-88.8,0-133.2c-0.5,0-0.9-0.1-1.3-0.1c-8.6,0-17.3-0.1-25.9,0.1
		C70.1,91,67,91.7,64,92.5c-2.6,0.7-4.4,0.2-6.2-1.9c-2-2.4-4.4-4.5-6.9-7c0.8,0,1.2,0,1.7,0c26.1,0,52.2,0,78.2,0
		c1,0,1.7-0.3,2.4-1c4-4.1,8.1-8.2,12.2-12.2c0.3-0.3,0.5-0.7,0.7-0.9C153.3,76.8,160.3,83.8,167.4,90.8z"/>
</g>
</svg>
