<?xml version="1.0" encoding="utf-8"?>
<!-- Generator: Adobe Illustrator 20.1.0, SVG Export Plug-In . SVG Version: 6.00 Build 0)  -->
<svg version="1.1" id="图层_1" xmlns="http://www.w3.org/2000/svg" xmlns:xlink="http://www.w3.org/1999/xlink" x="0px" y="0px"
	 viewBox="0 0 360 360" style="enable-background:new 0 0 360 360;" xml:space="preserve">
<style type="text/css">
	.st0{fill:#FFFFFF;}
</style>
<g>
	<path class="st0" d="M0.2,360.5c0-120.1,0-240.2,0-360.2c120.1,0,240.2,0,360.2,0c0,120.1,0,240.2,0,360.2
		C240.4,360.5,120.3,360.5,0.2,360.5z M122.9,44.8c1.7,31.5,1.1,62.8,1.2,94.3c-25.5,0-50.9,0-76.6,0c0.5,0.5,0.7,0.8,1,1.1
		c2.9,2.9,5.9,5.8,8.7,8.8c0.7,0.7,1.2,0.8,2.1,0.5c8.1-2.2,16.4-3.2,24.8-3.2c12.9-0.1,25.8,0,38.6,0c0.4,0,0.8,0,1.4,0
		c-0.5,55,0.8,109.9-1.2,164.9c0.5-0.2,0.9-0.3,1.2-0.4c5-2,10-4.1,15-6c1.2-0.5,1.5-1.1,1.5-2.3c0-51.5,0-103,0-154.6
		c0-0.5,0-1,0-1.5c27.1,0,54.1,0,81.3,0c0,55,0,109.8,0,164.9c5.8-2.7,11.4-5.3,17-8c0.3-0.2,0.6-0.9,0.6-1.3
		c-0.1-4.1-0.3-8.1-0.4-12.2c-0.2-11.3-0.6-22.7-0.6-34c-0.1-36,0-72,0-108c0-0.4,0-0.8,0.1-1.4c26.3,0,52.4,0,78.6,0
		c-8.2-8.2-16.4-16.4-24.6-24.6c-0.2,0.2-0.6,0.5-0.9,0.8c-5.3,5.3-10.6,10.6-15.9,15.9c-0.6,0.6-1.1,0.9-2,0.9c-11.3,0-22.6,0-34,0
		c-0.4,0-0.8,0-1.4-0.1c0-0.5,0-0.9,0-1.3c0-22.7,0-45.4,0-68.2c0-0.8,0.3-1.3,0.9-1.8c3.3-2.2,6.5-4.5,9.7-6.8
		c0.3-0.2,0.7-0.5,1.1-0.8c-9.9-4.4-19.6-8.6-29.5-13c1.7,30.8,1.1,61.3,1.2,91.8c-27.2,0-54.2,0-81.2,0c0-0.4-0.1-0.8-0.1-1.1
		c0-23.6,0-47.2,0-70.8c0-0.7,0.2-1.2,0.8-1.5c2.9-1.9,5.9-3.9,8.8-5.8c0.3-0.2,0.6-0.4,1-0.7C141.7,54.2,132.4,49.6,122.9,44.8z"/>
	<path d="M122.9,44.8c9.5,4.8,18.8,9.4,28.3,14.2c-0.4,0.3-0.7,0.5-1,0.7c-2.9,2-5.8,3.9-8.8,5.8c-0.6,0.4-0.8,0.8-0.8,1.5
		c0,23.6,0,47.2,0,70.8c0,0.4,0,0.7,0.1,1.1c27,0,54,0,81.2,0c-0.1-30.6,0.4-61.1-1.2-91.8c9.9,4.4,19.6,8.6,29.5,13
		c-0.4,0.3-0.8,0.6-1.1,0.8c-3.2,2.3-6.5,4.6-9.7,6.8c-0.7,0.5-0.9,0.9-0.9,1.8c0,22.7,0,45.4,0,68.2c0,0.4,0,0.8,0,1.3
		c0.5,0,0.9,0.1,1.4,0.1c11.3,0,22.6,0,34,0c0.8,0,1.4-0.3,2-0.9c5.3-5.3,10.6-10.6,15.9-15.9c0.3-0.3,0.6-0.6,0.9-0.8
		c8.2,8.2,16.4,16.4,24.6,24.6c-26.1,0-52.3,0-78.6,0c0,0.6-0.1,1-0.1,1.4c0,36-0.1,72,0,108c0,11.4,0.4,22.7,0.6,34
		c0.1,4.1,0.3,8.1,0.4,12.2c0,0.5-0.3,1.2-0.6,1.3c-5.6,2.7-11.2,5.3-17,8c0-55,0-109.9,0-164.9c-27.2,0-54.1,0-81.3,0
		c0,0.5,0,1,0,1.5c0,51.5,0,103,0,154.6c0,1.2-0.3,1.9-1.5,2.3c-5,1.9-10,4-15,6c-0.3,0.1-0.7,0.2-1.2,0.4c2-55,0.8-109.9,1.2-164.9
		c-0.6,0-1,0-1.4,0c-12.9,0-25.8-0.1-38.6,0c-8.4,0.1-16.7,1.1-24.8,3.2c-0.9,0.2-1.4,0.1-2.1-0.5c-2.9-3-5.8-5.8-8.7-8.8
		c-0.3-0.3-0.5-0.6-1-1.1c25.6,0,51,0,76.6,0C124,107.6,124.6,76.3,122.9,44.8z"/>
</g>
</svg>
