<?xml version="1.0" encoding="utf-8"?>
<!-- Generator: Adobe Illustrator 20.1.0, SVG Export Plug-In . SVG Version: 6.00 Build 0)  -->
<svg version="1.1" id="图层_1" xmlns="http://www.w3.org/2000/svg" xmlns:xlink="http://www.w3.org/1999/xlink" x="0px" y="0px"
	 viewBox="0 0 360 360" style="enable-background:new 0 0 360 360;" xml:space="preserve">
<style type="text/css">
	.st0{fill:#FFFFFF;}
</style>
<g>
	<path class="st0" d="M0.2,360.5c0-120.1,0-240.2,0-360.2c120.1,0,240.2,0,360.2,0c0,120.1,0,240.2,0,360.2
		C240.4,360.5,120.3,360.5,0.2,360.5z M217.4,171c0.4,16.1,0.8,32.1,1.2,48.1c-23.8,0-47.2,0-70.7,0c0-0.3-0.1-0.5-0.1-0.7
		c0.4-9.1,0.7-18.2,1.1-27.3c0-1,0.4-1.6,1.1-2.2c2.8-2,5.5-4.1,8.4-6.3c-9.5-4-18.8-7.8-28.4-11.8c1.8,16.2,1.8,32.2,1.2,48.3
		c-27.9,0-55.7,0-83.7,0c3.4,3.4,6.7,6.6,9.9,9.9c0.6,0.6,1.1,0.7,1.9,0.5c8.2-2.2,16.6-3.2,25.1-3.3c14.8-0.1,29.5,0,44.3,0
		c0.4,0,0.8,0,1.3,0c0,0.5,0,0.9-0.1,1.3c-0.9,5.7-2.1,11.2-3.9,16.7c-6.1,18.6-17.3,33.6-32.6,45.7c-12.9,10.3-27.4,17.6-42.7,23.5
		c-1,0.4-2.1,0.8-3.2,1.2c0.4,1.2,0.8,2.4,1.2,3.5c0.3,0,0.4-0.1,0.5-0.1c15.3-3.4,30.2-8.3,44.1-15.6c9.4-4.9,18.1-10.9,25.7-18.3
		c15.2-14.7,23.7-32.7,26.9-53.5c0.2-1.4,0.4-2.9,0.6-4.3c24,0,47.9,0,72,0c-0.4,29.8-0.8,59.6-1.1,89.4c6.3-2.2,12.7-4.5,19.1-6.7
		c0.7-0.2,0.6-0.7,0.6-1.2c-0.3-4-0.8-8-0.9-12c-0.5-13.6-0.9-27.2-1.2-40.7c-0.2-9.2-0.1-18.4-0.1-27.6c0-0.4,0-0.8,0.1-1.3
		c26.7,0,53.2,0,79.6,0c-8.2-8.2-16.4-16.4-24.7-24.7c-0.2,0.2-0.4,0.6-0.7,0.9c-5.3,5.3-10.5,10.5-15.8,15.8
		c-0.6,0.6-1.2,0.9-2.1,0.9c-11.7,0-23.4,0-35,0c-0.4,0-0.9,0-1.3,0c0-0.3-0.1-0.4-0.1-0.6c0-9,0-18,0-27c0-0.4,0.3-0.9,0.6-1.2
		c1.4-1.3,2.9-2.6,4.4-3.9c1.4-1.2,2.8-2.5,4.4-3.8C235.2,178.7,226.3,174.8,217.4,171z"/>
	<path d="M217.4,171c8.9,3.9,17.8,7.8,27,11.7c-1.5,1.3-3,2.6-4.4,3.8c-1.5,1.3-3,2.6-4.4,3.9c-0.3,0.3-0.6,0.8-0.6,1.2
		c0,9,0,18,0,27c0,0.2,0,0.3,0.1,0.6c0.5,0,0.9,0,1.3,0c11.7,0,23.4,0,35,0c0.9,0,1.5-0.3,2.1-0.9c5.2-5.3,10.5-10.5,15.8-15.8
		c0.3-0.3,0.5-0.7,0.7-0.9c8.4,8.4,16.5,16.5,24.7,24.7c-26.4,0-53,0-79.6,0c0,0.5-0.1,0.9-0.1,1.3c0,9.2-0.1,18.4,0.1,27.6
		c0.3,13.6,0.7,27.2,1.2,40.7c0.1,4,0.6,8,0.9,12c0,0.5,0.1,1-0.6,1.2c-6.4,2.2-12.8,4.5-19.1,6.7c0.4-29.8,0.8-59.5,1.1-89.4
		c-24.1,0-48,0-72,0c-0.2,1.4-0.4,2.8-0.6,4.3c-3.2,20.8-11.7,38.8-26.9,53.5c-7.6,7.4-16.3,13.4-25.7,18.3
		c-14,7.3-28.8,12.2-44.1,15.6c-0.1,0-0.2,0-0.5,0.1c-0.4-1.1-0.8-2.3-1.2-3.5c1.1-0.4,2.1-0.8,3.2-1.2
		c15.3-5.9,29.8-13.2,42.7-23.5c15.2-12.1,26.4-27.1,32.6-45.7c1.8-5.4,3-11,3.9-16.7c0.1-0.4,0.1-0.7,0.1-1.3c-0.5,0-0.9,0-1.3,0
		c-14.8,0-29.5-0.1-44.3,0c-8.5,0-16.9,1.1-25.1,3.3c-0.8,0.2-1.3,0.1-1.9-0.5c-3.2-3.3-6.4-6.5-9.9-9.9c28,0,55.8,0,83.7,0
		c0.6-16.2,0.6-32.2-1.2-48.3c9.5,4,18.9,7.9,28.4,11.8c-2.9,2.2-5.6,4.3-8.4,6.3c-0.8,0.6-1.1,1.2-1.1,2.2
		c-0.3,9.1-0.7,18.2-1.1,27.3c0,0.2,0,0.4,0.1,0.7c23.5,0,47,0,70.7,0C218.2,203,217.8,187,217.4,171z"/>
</g>
</svg>
