<?xml version="1.0" encoding="utf-8"?>
<!-- Generator: Adobe Illustrator 20.1.0, SVG Export Plug-In . SVG Version: 6.00 Build 0)  -->
<svg version="1.1" id="图层_1" xmlns="http://www.w3.org/2000/svg" xmlns:xlink="http://www.w3.org/1999/xlink" x="0px" y="0px"
	 viewBox="0 0 360 360" style="enable-background:new 0 0 360 360;" xml:space="preserve">
<style type="text/css">
	.st0{fill:#FFFFFF;}
</style>
<g>
	<path class="st0" d="M0.2,360.5c0-120.1,0-240.2,0-360.2c120.1,0,240.2,0,360.2,0c0,120.1,0,240.2,0,360.2
		C240.4,360.5,120.3,360.5,0.2,360.5z M238.4,163.8c0-29.5,0-58.9,0-88.2c-6,0-11.8,0-17.8,0c0,29.4,0,58.8,0,88.1
		c-24.4,0-48.6,0-72.9,0c0-29.4,0-58.8,0-88.1c-6,0-11.8,0-17.8,0c0,29.4,0,58.8,0,88.3c-28.2,0-56.4,0-84.8,0
		c3.6,3.6,7,7,10.3,10.3c0.2,0.2,0.8,0.2,1.2,0.1c9-2.3,18.1-3.3,27.4-3.3c14.5,0,29,0,43.4,0c2.4,0,2.4,0,2.4,2.5
		c-0.4,14.6-2,29.1-5.3,43.3c-2.5,10.6-6,20.8-10.9,30.5c-6.6,12.9-15.4,24.2-25.5,34.5c-10.8,11.1-22.9,20.6-35.8,29
		c-0.8,0.5-1.6,1-2.4,1.5c1.2,1.2,2.4,2.4,3.6,3.6c3-1.7,6-3.3,9-5.1c17.2-10,33.4-21.4,47.2-35.8c10.7-11.2,19.1-23.8,25.1-38.1
		c8.4-19.9,11.9-40.9,12.7-62.3c0-1.2,0.1-2.3,0.1-3.5c24.4,0,48.6,0,73,0c-0.3,47.5,0.7,94.9-1.2,142.4c0.3,0,0.5,0,0.6-0.1
		c6.2-2.2,12.5-4.4,18.8-6.6c0.8-0.3,0.7-0.7,0.7-1.4c-0.4-11.5-1-22.9-1-34.4c-0.1-32.9,0-65.8,0-98.6c0-0.4,0-0.9,0.1-1.5
		c27.4,0,54.8,0,82,0c-8.6-8.6-17.2-17.2-25.8-25.8c-0.2,0.2-0.4,0.6-0.8,0.9c-5.7,5.7-11.3,11.3-17,17c-0.6,0.7-1.3,0.9-2.2,0.9
		c-11.6,0-23.2,0-34.8,0C239.5,163.8,239.1,163.8,238.4,163.8z"/>
	<path d="M238.4,163.8c0.7,0,1.1,0,1.6,0c11.6,0,23.2,0,34.8,0c0.9,0,1.6-0.2,2.2-0.9c5.6-5.7,11.3-11.3,17-17
		c0.3-0.3,0.6-0.7,0.8-0.9c8.7,8.7,17.3,17.3,25.8,25.8c-27.2,0-54.6,0-82,0c0,0.6-0.1,1-0.1,1.5c0,32.9-0.1,65.8,0,98.6
		c0,11.5,0.7,22.9,1,34.4c0,0.6,0.1,1.1-0.7,1.4c-6.3,2.2-12.5,4.4-18.8,6.6c-0.1,0-0.2,0-0.6,0.1c1.9-47.5,0.9-94.9,1.2-142.4
		c-24.4,0-48.6,0-73,0c0,1.2-0.1,2.3-0.1,3.5c-0.8,21.5-4.3,42.4-12.7,62.3c-6,14.3-14.4,26.9-25.1,38.1
		c-13.9,14.4-30,25.9-47.2,35.8c-3,1.7-6,3.4-9,5.1c-1.2-1.2-2.4-2.4-3.6-3.6c0.8-0.5,1.6-1,2.4-1.5c12.9-8.5,25-17.9,35.8-29
		c10.1-10.3,18.9-21.6,25.5-34.5c5-9.7,8.5-19.9,10.9-30.5c3.4-14.3,5-28.7,5.3-43.3c0.1-2.5,0.1-2.5-2.4-2.5c-14.5,0-29,0-43.4,0
		c-9.3,0-18.4,1-27.4,3.3c-0.4,0.1-1,0.1-1.2-0.1c-3.4-3.3-6.7-6.7-10.3-10.3c28.4,0,56.5,0,84.8,0c0-29.5,0-58.8,0-88.3
		c6,0,11.8,0,17.8,0c0,29.4,0,58.7,0,88.1c24.4,0,48.6,0,72.9,0c0-29.4,0-58.7,0-88.1c6,0,11.8,0,17.8,0
		C238.4,104.9,238.4,134.3,238.4,163.8z"/>
</g>
</svg>
