<?xml version="1.0" encoding="utf-8"?>
<!-- Generator: Adobe Illustrator 20.1.0, SVG Export Plug-In . SVG Version: 6.00 Build 0)  -->
<svg version="1.1" id="图层_1" xmlns="http://www.w3.org/2000/svg" xmlns:xlink="http://www.w3.org/1999/xlink" x="0px" y="0px"
	 viewBox="0 0 360 360" style="enable-background:new 0 0 360 360;" xml:space="preserve">
<style type="text/css">
	.st0{fill:#FFFFFF;}
</style>
<g>
	<path class="st0" d="M0.2,360.5c0-120.1,0-240.2,0-360.2c120.1,0,240.2,0,360.2,0c0,120.1,0,240.2,0,360.2
		C240.4,360.5,120.3,360.5,0.2,360.5z M97,95.5c71.6,0,142.9,0,214.2,0c-8.3-8.3-16.4-16.4-24.8-24.8c-0.2,0.3-0.4,0.7-0.7,1
		c-5.3,5.3-10.6,10.7-16,15.9c-0.5,0.4-1.2,0.8-1.8,0.8c-56.6,0-113.2,0-169.8,0c-0.6,0-1.3-0.2-1.9-0.6
		c-5.2-3.4-10.5-6.9-15.7-10.4c-0.3-0.2-0.7-0.4-1.2-0.7c0,0.4-0.1,0.6-0.1,0.7c0.2,7.8,0.4,15.5,0.5,23.3
		c0.2,10.2,0.4,20.3,0.5,30.5c0.1,11.7,0.2,23.4,0.1,35.1c-0.1,6.5-0.3,13.1-0.9,19.6c-0.9,9.9-1.8,19.7-3.3,29.5
		c-1.4,9.7-3.2,19.3-5.4,28.8C66,265.2,58.3,285,49.4,304.4c-1.4,3-2.8,6-4.2,9c1.2,0.8,2.4,1.6,3.5,2.3c0.2-0.2,0.3-0.2,0.3-0.3
		c2.6-3.9,5.3-7.8,7.9-11.8c12.6-19.7,23-40.4,29.5-62.9c4.2-14.6,7.1-29.4,8.4-44.6c0.7-8.2,1.1-16.3,1.3-24.5
		c0.4-14.6,0.7-29.2,0.9-43.8c0.1-9.4,0.1-18.8,0.1-28.2C97,98.4,97,97.1,97,95.5z M173.6,43.7c0.3,0.5,0.6,1,0.8,1.4
		c2,3.5,4.1,7,6.1,10.6c4.3,7.9,8.4,15.9,10.8,24.7c0.4,1.4,1.1,2.8,1.8,4c1.6,2.5,3.8,2.9,6.2,1.2c4-2.7,6.7-6.4,8.3-10.9
		c1.4-3.9,1.1-7.6-1.1-11c-1.1-1.7-2.4-3.3-3.9-4.7c-7.6-6.9-16.3-12.1-25-17.5c-0.2-0.1-0.6-0.2-0.8-0.1
		C175.7,42.2,174.7,42.9,173.6,43.7z"/>
	<path d="M97,95.5c0,1.6,0,2.9,0,4.3c0,9.4,0,18.8-0.1,28.2c-0.2,14.6-0.5,29.2-0.9,43.8c-0.2,8.2-0.6,16.4-1.3,24.5
		c-1.3,15.1-4.2,30-8.4,44.6c-6.5,22.5-16.9,43.2-29.5,62.9c-2.5,4-5.2,7.8-7.9,11.8c-0.1,0.1-0.2,0.2-0.3,0.3
		c-1.1-0.8-2.3-1.5-3.5-2.3c1.4-3.1,2.9-6,4.2-9c8.9-19.4,16.6-39.3,21.4-60.1c2.2-9.5,4-19.2,5.4-28.8c1.5-9.8,2.4-19.7,3.3-29.5
		c0.6-6.5,0.8-13.1,0.9-19.6c0.1-11.7,0-23.4-0.1-35.1c-0.1-10.2-0.3-20.3-0.5-30.5c-0.1-7.8-0.4-15.5-0.5-23.3c0-0.2,0-0.4,0.1-0.7
		c0.5,0.3,0.8,0.5,1.2,0.7c5.2,3.5,10.4,7,15.7,10.4c0.5,0.3,1.2,0.6,1.9,0.6c56.6,0,113.2,0,169.8,0c0.6,0,1.4-0.4,1.8-0.8
		c5.4-5.3,10.7-10.6,16-15.9c0.3-0.3,0.5-0.7,0.7-1c8.4,8.4,16.6,16.6,24.8,24.8C239.9,95.5,168.6,95.5,97,95.5z"/>
	<path d="M173.6,43.7c1.1-0.7,2.1-1.5,3.2-2.1c0.2-0.1,0.6-0.1,0.8,0.1c8.6,5.4,17.4,10.7,25,17.5c1.5,1.3,2.8,3,3.9,4.7
		c2.2,3.4,2.5,7.2,1.1,11c-1.6,4.5-4.3,8.2-8.3,10.9c-2.5,1.7-4.6,1.3-6.2-1.2c-0.8-1.2-1.5-2.6-1.8-4c-2.4-8.8-6.5-16.8-10.8-24.7
		c-2-3.6-4-7.1-6.1-10.6C174.1,44.6,173.9,44.2,173.6,43.7z"/>
</g>
</svg>
