<?xml version="1.0" encoding="utf-8"?>
<!-- Generator: Adobe Illustrator 20.1.0, SVG Export Plug-In . SVG Version: 6.00 Build 0)  -->
<svg version="1.1" id="图层_1" xmlns="http://www.w3.org/2000/svg" xmlns:xlink="http://www.w3.org/1999/xlink" x="0px" y="0px"
	 viewBox="0 0 360 360" style="enable-background:new 0 0 360 360;" xml:space="preserve">
<style type="text/css">
	.st0{fill:#FFFFFF;}
</style>
<g>
	<path class="st0" d="M0.2,360.5c0-120.1,0-240.2,0-360.2c120.1,0,240.2,0,360.2,0c0,120.1,0,240.2,0,360.2
		C240.4,360.5,120.3,360.5,0.2,360.5z M110.1,196.8c0.2,0.3,0.2,0.4,0.3,0.5c3.2,3.2,6.4,6.5,9.7,9.7c0.3,0.3,1,0.4,1.5,0.3
		c8.3-2.1,16.6-3.2,25.1-3.2c27.4,0,54.7,0,82.1,0c0.4,0,0.9,0,1.3,0c0,11.4,0,22.7,0,34.1c-0.6,0-1.1,0-1.5,0
		c-34.4,0-68.7,0-103.1,0c-0.8,0-1.7-0.2-2.4-0.5c-4.3-1.8-8.7-3.7-13-5.6c-0.7-0.3-1.5-0.6-2.3-0.9c0,0.3-0.1,0.5-0.1,0.7
		c0.3,10.8,0.8,21.6,1,32.3c0.2,7.7,0,15.4,0.1,23c0,2.4,0.2,4.9,0.7,7.3c0.9,4.8,2.7,9.1,6.3,12.6c4.1,3.9,9.2,5.4,14.7,5.4
		c44.4,0,88.8,0,133.2,0c0.5,0,1,0,1.4-0.1c8.8-1.3,16.3-5.1,22.1-11.9c1.5-1.8,2.9-3.7,4.3-5.6c-1.6-0.7-3-1.1-4.3-1.9
		c-4.3-2.4-6.7-6.3-8.5-10.7c-3-7.3-4-14.9-4.6-22.7c-0.2-2.1-0.2-4.1-0.4-6.2c-1.6,0-3.1,0-4.9,0c0,3.4,0,6.8,0,10.2
		c-0.1,7.8-0.6,15.7-1.7,23.4c-0.8,5.4-3.4,9.5-8.8,11.2c-2.1,0.7-4.4,1-6.6,1c-36.9,0.1-73.8,0-110.6,0.1c-1.9,0-3.8,0.3-5.7,0.2
		c-4.5,0-7.7-2.1-9.6-6.2c-1.1-2.5-1.6-5.1-1.6-7.8c0-13,0-26,0-39c0-0.4,0-0.8,0-1.3c35.4,0,70.6,0,106,0c0,3.9,0,7.7,0,11.7
		c5.6-2.4,11.1-4.8,16.5-7.1c-0.2-2.5-0.4-4.9-0.5-7.3c-0.2-10.9-0.3-21.9-0.7-32.8c-0.1-2.7,0.6-4.3,2.9-5.6
		c1.9-1.1,3.6-2.5,5.4-3.8c-6-4.8-11.8-9.5-17.7-14.2c-2.9,3.2-5.7,6.4-8.5,9.6c-0.7,0.8-1.3,1.1-2.3,1.1c-37.8,0-75.7,0-113.5,0
		C111.2,196.8,110.7,196.8,110.1,196.8z"/>
	<path d="M110.1,196.8c0.7,0,1.1,0,1.6,0c37.8,0,75.7,0,113.5,0c1,0,1.7-0.3,2.3-1.1c2.8-3.2,5.6-6.3,8.5-9.6
		c5.9,4.7,11.8,9.4,17.7,14.2c-1.9,1.3-3.5,2.8-5.4,3.8c-2.3,1.3-3,2.9-2.9,5.6c0.4,10.9,0.5,21.9,0.7,32.8c0.1,2.4,0.3,4.8,0.5,7.3
		c-5.4,2.3-10.9,4.7-16.5,7.1c0-4,0-7.8,0-11.7c-35.4,0-70.6,0-106,0c0,0.5,0,0.9,0,1.3c0,13,0,26,0,39c0,2.7,0.5,5.3,1.6,7.8
		c1.8,4.1,5.1,6.2,9.6,6.2c1.9,0,3.8-0.2,5.7-0.2c36.9,0,73.8,0,110.6-0.1c2.2,0,4.5-0.3,6.6-1c5.4-1.7,8-5.8,8.8-11.2
		c1.2-7.8,1.6-15.6,1.7-23.4c0.1-3.4,0-6.8,0-10.2c1.8,0,3.3,0,4.9,0c0.1,2.1,0.2,4.2,0.4,6.2c0.6,7.8,1.6,15.4,4.6,22.7
		c1.8,4.4,4.3,8.3,8.5,10.7c1.3,0.7,2.7,1.2,4.3,1.9c-1.4,1.8-2.7,3.8-4.3,5.6c-5.9,6.7-13.4,10.5-22.1,11.9c-0.5,0.1-1,0.1-1.4,0.1
		c-44.4,0-88.8,0-133.2,0c-5.5,0-10.6-1.4-14.7-5.4c-3.6-3.4-5.4-7.8-6.3-12.6c-0.4-2.4-0.7-4.8-0.7-7.3c-0.1-7.7,0-15.4-0.1-23
		c-0.2-10.8-0.7-21.6-1-32.3c0-0.2,0-0.4,0.1-0.7c0.8,0.3,1.6,0.6,2.3,0.9c4.3,1.9,8.7,3.7,13,5.6c0.7,0.3,1.6,0.5,2.4,0.5
		c34.4,0,68.7,0,103.1,0c0.5,0,1,0,1.5,0c0-11.4,0-22.6,0-34.1c-0.4,0-0.9,0-1.3,0c-27.4,0-54.7,0-82.1,0c-8.5,0-16.9,1.1-25.1,3.2
		c-0.4,0.1-1.2,0-1.5-0.3c-3.3-3.2-6.5-6.4-9.7-9.7C110.3,197.2,110.2,197.1,110.1,196.8z"/>
</g>
</svg>
