<?xml version="1.0" encoding="utf-8"?>
<!-- Generator: Adobe Illustrator 20.1.0, SVG Export Plug-In . SVG Version: 6.00 Build 0)  -->
<svg version="1.1" id="图层_1" xmlns="http://www.w3.org/2000/svg" xmlns:xlink="http://www.w3.org/1999/xlink" x="0px" y="0px"
	 viewBox="0 0 360 360" style="enable-background:new 0 0 360 360;" xml:space="preserve">
<style type="text/css">
	.st0{fill:#FFFFFF;}
</style>
<g>
	<path class="st0" d="M0.2,360.5c0-120.1,0-240.2,0-360.2c120.1,0,240.2,0,360.2,0c0,120.1,0,240.2,0,360.2
		C240.4,360.5,120.3,360.5,0.2,360.5z M62.8,285.2c3.6,3.6,6.9,6.9,10.3,10.2c0.3,0.2,0.9,0.3,1.3,0.2c9-2.3,18.1-3.3,27.4-3.3
		c58,0,116.1,0,174.1,0c0.4,0,0.8,0,1.4,0c0,7.5,0,14.9,0,22.4c6.4-2.4,12.6-4.7,18.9-7.1c-0.1-3.4-0.4-6.7-0.4-10
		c-0.3-13.9-0.7-27.8-0.7-41.7c-0.1-30,0-60-0.1-90c0-3.2,0.7-5.3,3.5-7.1c2.6-1.6,4.8-3.7,7.3-5.6c-6.8-5.6-13.4-11-20.1-16.5
		c-3.3,4-6.5,7.9-9.6,11.8c-0.7,0.9-1.4,1.2-2.5,1.2c-16.8,0-33.6,0-50.4,0c-50.4,0-100.9,0-151.3,0c-0.5,0-1,0-1.7,0
		c3.6,3.6,6.8,6.9,10.2,10.2c0.3,0.2,0.9,0.3,1.2,0.2c9.1-2.4,18.4-3.3,27.8-3.3c55.6,0,111.2,0,166.8,0c0.4,0,0.8,0,1.2,0
		c0,19.7,0,39.3,0,58.9c-63.9,0-127.8,0-191.9,0c3.4,3.4,6.7,6.6,9.9,9.9c0.5,0.6,1,0.7,1.8,0.5c8.4-2.3,17-3.3,25.6-3.3
		c51.1-0.1,102.2,0,153.4,0c0.4,0,0.9,0,1.3,0c0,20.9,0,41.6,0,62.4C205.8,285.2,134.4,285.2,62.8,285.2z"/>
	<path d="M62.8,285.2c71.7,0,143,0,214.4,0c0-20.8,0-41.5,0-62.4c-0.5,0-0.9,0-1.3,0c-51.1,0-102.2,0-153.4,0
		c-8.7,0-17.2,1-25.6,3.3c-0.8,0.2-1.2,0.1-1.8-0.5c-3.2-3.2-6.4-6.4-9.9-9.9c64.1,0,128,0,191.9,0c0-19.7,0-39.2,0-58.9
		c-0.4,0-0.8,0-1.2,0c-55.6,0-111.2,0-166.8,0c-9.4,0-18.7,1-27.8,3.3c-0.4,0.1-1,0-1.2-0.2c-3.3-3.3-6.6-6.6-10.2-10.2
		c0.8,0,1.2,0,1.7,0c50.4,0,100.9,0,151.3,0c16.8,0,33.6,0,50.4,0c1.1,0,1.8-0.4,2.5-1.2c3.1-3.9,6.4-7.8,9.6-11.8
		c6.7,5.5,13.3,11,20.1,16.5c-2.5,1.9-4.7,4-7.3,5.6c-2.8,1.7-3.5,3.9-3.5,7.1c0.1,30,0,60,0.1,90c0.1,13.9,0.5,27.8,0.7,41.7
		c0.1,3.3,0.3,6.6,0.4,10c-6.3,2.3-12.5,4.7-18.9,7.1c0-7.5,0-14.9,0-22.4c-0.6,0-1,0-1.4,0c-58,0-116.1,0-174.1,0
		c-9.3,0-18.4,1-27.4,3.3c-0.4,0.1-1,0.1-1.3-0.2C69.7,292.1,66.4,288.8,62.8,285.2z"/>
</g>
</svg>
