<?xml version="1.0" encoding="utf-8"?>
<!-- Generator: Adobe Illustrator 20.1.0, SVG Export Plug-In . SVG Version: 6.00 Build 0)  -->
<svg version="1.1" id="图层_1" xmlns="http://www.w3.org/2000/svg" xmlns:xlink="http://www.w3.org/1999/xlink" x="0px" y="0px"
	 viewBox="0 0 360 360" style="enable-background:new 0 0 360 360;" xml:space="preserve">
<style type="text/css">
	.st0{fill:#FFFFFF;}
</style>
<g>
	<path class="st0" d="M0.2,360.5c0-120.1,0-240.2,0-360.2c120.1,0,240.2,0,360.2,0c0,120.1,0,240.2,0,360.2
		C240.4,360.5,120.3,360.5,0.2,360.5z M280.8,172.1c-38.5,0-76.8,0-115.4,0c0.4,0.4,0.6,0.6,0.8,0.8c3,3,6,6,9,9
		c0.6,0.6,1.1,0.7,1.9,0.5c8-2.1,16.1-3.2,24.3-3.2c26-0.1,52.1,0,78.1,0c0.4,0,0.8,0,1.3,0c0,29.5,0,58.8,0,88.3
		c-44.7,0-89.3,0-134.2,0c0.4,0.5,0.7,0.7,1,1c2.9,2.9,5.8,5.7,8.6,8.7c0.7,0.7,1.3,0.9,2.3,0.6c8.2-2.2,16.6-3.2,25.1-3.2
		c32-0.1,63.9,0,95.9,0c0.4,0,0.9,0,1.4,0c0,10.7,0,21.2,0,31.8c0.5-0.2,1-0.3,1.4-0.4c5.5-2,10.9-4.1,16.4-6.1
		c0.9-0.3,1.2-0.8,1.1-1.7c-0.4-11.8-0.7-23.6-1-35.4c-0.2-8-0.2-16.1-0.2-24.1c0-46,0-92.1,0-138.1c0-1.1,0.3-1.7,1.2-2.4
		c2.8-2,5.5-4.1,8.3-6.2c-6.3-5.5-12.6-11-19-16.7c-0.2,0.3-0.3,0.5-0.4,0.7c-3,3.3-6,6.6-9,10c-0.7,0.8-1.5,1.2-2.7,1.2
		c-38.6,0-77.1,0-115.7,0c-0.5,0-1,0-1.7,0c0.4,0.5,0.7,0.8,0.9,1c3,3,6,5.9,8.9,8.9c0.6,0.6,1.1,0.7,1.9,0.5
		c8.2-2.2,16.6-3.2,25-3.3c27.8-0.1,55.5,0,83.3,0c0.4,0,0.8,0,1.3,0C280.8,120.3,280.8,146.1,280.8,172.1z"/>
	<path d="M280.8,172.1c0-26,0-51.8,0-77.8c-0.5,0-0.9,0-1.3,0c-27.8,0-55.5-0.1-83.3,0c-8.5,0-16.8,1.1-25,3.3
		c-0.8,0.2-1.3,0.1-1.9-0.5c-2.9-3-5.9-6-8.9-8.9c-0.3-0.3-0.5-0.5-0.9-1c0.7,0,1.2,0,1.7,0c38.6,0,77.1,0,115.7,0
		c1.2,0,1.9-0.4,2.7-1.2c3-3.4,6-6.7,9-10c0.2-0.2,0.3-0.4,0.4-0.7c6.5,5.6,12.7,11.1,19,16.7c-2.8,2.1-5.5,4.2-8.3,6.2
		c-0.9,0.6-1.2,1.3-1.2,2.4c0,46,0,92.1,0,138.1c0,8,0,16.1,0.2,24.1c0.2,11.8,0.6,23.6,1,35.4c0,0.9-0.2,1.4-1.1,1.7
		c-5.5,2-10.9,4.1-16.4,6.1c-0.4,0.2-0.8,0.3-1.4,0.4c0-10.6,0-21.1,0-31.8c-0.5,0-1,0-1.4,0c-32,0-63.9,0-95.9,0
		c-8.5,0-16.9,1-25.1,3.2c-1,0.3-1.6,0.1-2.3-0.6c-2.8-2.9-5.7-5.8-8.6-8.7c-0.3-0.3-0.5-0.6-1-1c44.8,0,89.5,0,134.2,0
		c0-29.5,0-58.8,0-88.3c-0.4,0-0.8,0-1.3,0c-26,0-52.1,0-78.1,0c-8.2,0-16.3,1.1-24.3,3.2c-0.8,0.2-1.3,0.1-1.9-0.5c-3-3-6-6-9-9
		c-0.2-0.2-0.4-0.5-0.8-0.8C203.9,172.1,242.3,172.1,280.8,172.1z"/>
</g>
</svg>
