<?xml version="1.0" encoding="utf-8"?>
<!-- Generator: Adobe Illustrator 20.1.0, SVG Export Plug-In . SVG Version: 6.00 Build 0)  -->
<svg version="1.1" id="图层_1" xmlns="http://www.w3.org/2000/svg" xmlns:xlink="http://www.w3.org/1999/xlink" x="0px" y="0px"
	 viewBox="0 0 360 360" style="enable-background:new 0 0 360 360;" xml:space="preserve">
<style type="text/css">
	.st0{fill:#FFFFFF;}
</style>
<g>
	<path class="st0" d="M0.2,360.5c0-120.1,0-240.2,0-360.2c120.1,0,240.2,0,360.2,0c0,120.1,0,240.2,0,360.2
		C240.4,360.5,120.3,360.5,0.2,360.5z M131.3,42.5c-0.1,0.3-0.1,0.4-0.1,0.4c0.3,12.9,0.8,25.7,1,38.6c0.2,10.5,0.2,21,0.1,31.4
		c-0.2,13.9-0.5,27.8-1,41.7c-0.5,12.2-1.5,24.4-2.3,36.6c-0.7,10.9-2.2,21.6-4.9,32.2c-3.8,15.3-9.7,29.6-18.9,42.4
		c-11.9,16.4-26,30.7-42,43.2c-2.4,1.9-4.9,3.7-7.4,5.6c0.8,1.2,1.6,2.4,2.4,3.7c4.3-2.7,8.5-5.3,12.6-8c14.1-9.4,27-20.4,38.7-32.6
		c5.6-5.8,10.7-11.9,15-18.6c10-15.6,15.7-32.8,18.7-50.9c2.1-12.9,3.2-25.9,4-38.9c0.8-12.8,1.4-25.7,1.8-38.6
		c0.4-12.6,0.6-25.2,0.8-37.9c0.1-8.2,0.2-16.4,0-24.6c-0.1-2.5,0.7-4.1,2.6-5.7c2.8-2.2,5.3-4.7,8.1-7.2
		C150.8,51.1,141.1,46.8,131.3,42.5z M74.7,77.8c1.8,56.3,1.3,112.3,0,168.5c0.5-0.2,0.8-0.4,1.1-0.5c5.6-2.8,11.1-5.6,16.7-8.3
		c0.8-0.4,1-0.9,1-1.7c-0.3-10.9-0.5-21.7-0.7-32.6c-0.1-8.6-0.2-17.3-0.2-25.9c-0.1-7.7-0.1-15.4-0.1-23.1c0-15.8,0-31.6,0-47.4
		c0-1.8-0.4-3.7,0.2-5.2c0.6-1.5,2.2-2.7,3.3-4c1.6-1.8,3.1-3.6,4.7-5.4C91.9,87.2,83.4,82.6,74.7,77.8z"/>
	<path d="M131.3,42.5c9.8,4.3,19.5,8.6,29.4,12.9c-2.8,2.5-5.4,5-8.1,7.2c-1.9,1.5-2.7,3.1-2.6,5.7c0.2,8.2,0.1,16.4,0,24.6
		c-0.2,12.6-0.4,25.3-0.8,37.9c-0.4,12.9-1.1,25.7-1.8,38.6c-0.8,13-1.9,26-4,38.9c-3,18.1-8.7,35.3-18.7,50.9
		c-4.3,6.8-9.5,12.9-15,18.6c-11.8,12.2-24.6,23.2-38.7,32.6c-4.1,2.7-8.4,5.3-12.6,8c-0.9-1.3-1.6-2.4-2.4-3.7
		c2.5-1.9,5-3.7,7.4-5.6c16-12.5,30.1-26.8,42-43.2c9.3-12.8,15.2-27.1,18.9-42.4c2.6-10.6,4.1-21.3,4.9-32.2
		c0.8-12.2,1.8-24.4,2.3-36.6c0.6-13.9,0.8-27.8,1-41.7c0.2-10.5,0.1-21-0.1-31.4c-0.2-12.9-0.7-25.7-1-38.6
		C131.2,42.9,131.2,42.8,131.3,42.5z"/>
	<path d="M74.7,77.8c8.7,4.8,17.3,9.4,25.9,14.2c-1.6,1.9-3.2,3.7-4.7,5.4c-1.2,1.3-2.7,2.5-3.3,4c-0.6,1.5-0.2,3.5-0.2,5.2
		c0,15.8,0,31.6,0,47.4c0,7.7,0.1,15.4,0.1,23.1c0.1,8.6,0.1,17.3,0.2,25.9c0.2,10.9,0.5,21.7,0.7,32.6c0,0.9-0.2,1.3-1,1.7
		c-5.6,2.7-11.2,5.5-16.7,8.3c-0.3,0.2-0.6,0.3-1.1,0.5C76,190.1,76.4,134.1,74.7,77.8z"/>
</g>
</svg>
