<?xml version="1.0" encoding="utf-8"?>
<!-- Generator: Adobe Illustrator 20.1.0, SVG Export Plug-In . SVG Version: 6.00 Build 0)  -->
<svg version="1.1" id="图层_1" xmlns="http://www.w3.org/2000/svg" xmlns:xlink="http://www.w3.org/1999/xlink" x="0px" y="0px"
	 viewBox="0 0 360 360" style="enable-background:new 0 0 360 360;" xml:space="preserve">
<style type="text/css">
	.st0{fill:#FFFFFF;}
</style>
<g>
	<path class="st0" d="M0.2,360.5c0-120.1,0-240.2,0-360.2c120.1,0,240.2,0,360.2,0c0,120.1,0,240.2,0,360.2
		C240.4,360.5,120.3,360.5,0.2,360.5z M102.1,101.4c0,0.1-0.1,0.2-0.1,0.3c3.4,3.4,6.7,6.7,10.1,10.1c0.2,0.2,0.8,0.2,1.2,0.1
		c9-2.4,18.2-3.3,27.5-3.3c31.7,0,63.4,0,95,0c0.4,0,0.8,0,1.3,0c0,12.6,0,25.1,0,37.7c-64,0-127.8,0-191.8,0
		c0.2,0.3,0.3,0.4,0.4,0.5c3.2,3.2,6.4,6.4,9.6,9.6c0.3,0.3,1,0.4,1.5,0.3c8.5-2.1,17-3.2,25.7-3.2c78.6,0,157.1,0,235.7,0
		c0.5,0,0.9,0,1.3,0c-8.2-8.2-16.4-16.4-24.8-24.8c-0.2,0.2-0.4,0.6-0.7,0.9c-5.3,5.3-10.6,10.6-15.9,15.8c-0.4,0.4-1.2,0.8-1.8,0.8
		c-7.5,0.1-15,0-22.4,0c-0.4,0-0.8,0-1.2-0.1c0-0.4,0-0.6,0-0.8c0-24.1,0-48.2,0-72.4c0-0.5,0.4-1.1,0.8-1.4
		c1.5-1.1,3.1-2.2,4.6-3.3c2.1-1.5,4.2-3,6.5-4.5c-6.8-5.6-13.4-11-20.1-16.6c-2.9,3.6-5.7,7-8.4,10.5c-0.8,1-1.5,1.3-2.8,1.3
		c-49.1,0-98.2,0-147.4,0c-0.5,0-1,0-1.7,0c3.6,3.6,6.9,6.9,10.2,10.2c0.3,0.2,0.9,0.3,1.2,0.2c8.1-2.1,16.4-3.2,24.8-3.2
		c38.5-0.1,77,0,115.6,0c0.4,0,0.8,0,1.3,0.1c0,11.8,0,23.4,0,35.2C192,101.4,147,101.4,102.1,101.4z"/>
	<path d="M102.1,101.4c45,0,90,0,135,0c0-11.8,0-23.4,0-35.2c-0.4,0-0.9-0.1-1.3-0.1c-38.5,0-77,0-115.6,0c-8.4,0-16.6,1.2-24.8,3.2
		c-0.4,0.1-1,0-1.2-0.2C90.9,65.9,87.6,62.6,84,59c0.8,0,1.2,0,1.7,0c49.1,0,98.2,0,147.4,0c1.2,0,2-0.4,2.8-1.3
		c2.7-3.5,5.5-6.9,8.4-10.5c6.7,5.5,13.3,11,20.1,16.6c-2.2,1.6-4.3,3-6.5,4.5c-1.5,1.1-3.1,2.1-4.6,3.3c-0.4,0.3-0.8,0.9-0.8,1.4
		c0,24.1,0,48.2,0,72.4c0,0.2,0,0.5,0,0.8c0.4,0,0.8,0.1,1.2,0.1c7.5,0,15,0,22.4,0c0.6,0,1.4-0.3,1.8-0.8
		c5.3-5.3,10.6-10.6,15.9-15.8c0.3-0.3,0.5-0.7,0.7-0.9c8.4,8.4,16.5,16.5,24.8,24.8c-0.4,0-0.8,0-1.3,0c-78.6,0-157.1,0-235.7,0
		c-8.7,0-17.3,1.1-25.7,3.2c-0.4,0.1-1.2,0-1.5-0.3c-3.2-3.2-6.4-6.4-9.6-9.6c-0.1-0.1-0.2-0.2-0.4-0.5c64,0,127.9,0,191.8,0
		c0-12.6,0-25.1,0-37.7c-0.4,0-0.8,0-1.3,0c-31.7,0-63.4,0-95,0c-9.3,0-18.5,0.9-27.5,3.3c-0.4,0.1-1,0.1-1.2-0.1
		c-3.4-3.3-6.7-6.7-10.1-10.1C102,101.6,102,101.5,102.1,101.4z"/>
</g>
</svg>
