<?xml version="1.0" encoding="utf-8"?>
<!-- Generator: Adobe Illustrator 20.1.0, SVG Export Plug-In . SVG Version: 6.00 Build 0)  -->
<svg version="1.1" id="图层_1" xmlns="http://www.w3.org/2000/svg" xmlns:xlink="http://www.w3.org/1999/xlink" x="0px" y="0px"
	 viewBox="0 0 360 360" style="enable-background:new 0 0 360 360;" xml:space="preserve">
<style type="text/css">
	.st0{fill:#FFFFFF;}
</style>
<g>
	<path class="st0" d="M0.2,360.5c0-120.1,0-240.2,0-360.2c120.1,0,240.2,0,360.2,0c0,120.1,0,240.2,0,360.2
		C240.4,360.5,120.3,360.5,0.2,360.5z M244.1,57.6c-0.2,0.3-0.3,0.6-0.5,0.8c-3,3.4-6.1,6.8-9.1,10.2c-0.6,0.7-1.3,1-2.2,1
		c-30.1,0-60.2,0-90.2,0c-0.4,0-0.9,0-1.4,0c2.8-7.5,6.5-14,13-18.9c-8.7-3.9-17.3-7.8-25.9-11.8c-0.1,0.7-0.1,1.3-0.2,1.8
		c-0.3,2.6-0.4,5.3-0.8,7.9c-2.5,17.2-7.2,33.8-13.7,49.9c-2.5,6.2-5.6,12.2-10,17.3c-1.4,1.6-3.1,3-4.6,4.5
		c6.2,5,12.4,10.1,18.7,15.2c0.4-0.4,0.8-0.8,1.1-1.3c2.1-2.4,4.3-4.9,6.4-7.3c0.5-0.6,1.1-0.9,2-0.8c32.5,0,65,0,97.6,0
		c0.4,0,0.8,0,1.3,0c-2.4,11.5-4.7,22.7-7.1,34.1c-56.9,0-113.7,0-170.8,0c3.6,3.6,6.9,6.9,10.3,10.3c0.2,0.2,0.7,0.2,1.1,0.2
		c9.6-2.5,19.3-3.4,29.2-3.3c29.8,0,59.7,0,89.5,0c46,0,92,0,138,0c0.5,0,1,0,1.3,0c-8.2-8.2-16.4-16.4-24.7-24.7
		c-0.2,0.2-0.4,0.6-0.7,0.9c-5.3,5.3-10.5,10.5-15.8,15.8c-0.6,0.6-1.2,0.9-2.1,0.9c-12,0-24.1,0-36.1,0c-0.4,0-0.9,0-1.4,0
		c0.1-0.4,0.1-0.7,0.2-1c5.3-25.5,10.7-51.1,16-76.6c0.2-0.9,0.5-1.5,1.3-2c3.2-2.1,6.3-4.2,9.6-6.4
		C256.9,68.8,250.6,63.3,244.1,57.6z"/>
	<path d="M244.1,57.6c6.5,5.7,12.7,11.1,19.1,16.7c-3.3,2.2-6.4,4.3-9.6,6.4c-0.8,0.5-1.1,1.1-1.3,2c-5.3,25.5-10.6,51.1-16,76.6
		c-0.1,0.3-0.1,0.6-0.2,1c0.5,0,1,0,1.4,0c12,0,24.1,0,36.1,0c0.9,0,1.5-0.3,2.1-0.9c5.2-5.3,10.5-10.5,15.8-15.8
		c0.3-0.3,0.5-0.7,0.7-0.9c8.3,8.3,16.5,16.5,24.7,24.7c-0.4,0-0.9,0-1.3,0c-46,0-92,0-138,0c-29.8,0-59.7,0-89.5,0
		c-9.9,0-19.6,0.8-29.2,3.3c-0.3,0.1-0.9,0.1-1.1-0.2c-3.4-3.3-6.7-6.7-10.3-10.3c57.1,0,113.9,0,170.8,0
		c2.4-11.4,4.7-22.7,7.1-34.1c-0.5,0-0.9,0-1.3,0c-32.5,0-65,0-97.6,0c-0.8,0-1.4,0.2-2,0.8c-2.1,2.5-4.3,4.9-6.4,7.3
		c-0.4,0.4-0.7,0.8-1.1,1.3c-6.3-5.1-12.5-10.2-18.7-15.2c1.6-1.5,3.2-2.9,4.6-4.5c4.5-5.1,7.5-11.1,10-17.3
		c6.5-16.1,11.1-32.7,13.7-49.9c0.4-2.6,0.6-5.2,0.8-7.9c0.1-0.5,0.1-1.1,0.2-1.8c8.7,3.9,17.2,7.8,25.9,11.8
		c-6.5,4.8-10.2,11.4-13,18.9c0.6,0,1,0,1.4,0c30.1,0,60.2,0,90.2,0c1,0,1.6-0.3,2.2-1c3-3.4,6.1-6.8,9.1-10.2
		C243.9,58.2,244,57.9,244.1,57.6z M236,76.7c-0.6,0-1-0.1-1.3-0.1c-31.3,0-62.6,0-94,0c-0.9,0-1.3,0.2-1.6,1.1
		c-3.4,11.3-6.9,22.7-10.4,34c-0.7,2.4-1.4,4.7-2.2,7.2c33.4,0,66.7,0,100,0C229.7,105,232.8,90.9,236,76.7z"/>
	<path class="st0" d="M236,76.7c-3.2,14.2-6.3,28.2-9.4,42.2c-33.4,0-66.6,0-100,0c0.7-2.4,1.4-4.8,2.2-7.2c3.5-11.3,7-22.7,10.4-34
		c0.3-0.9,0.7-1.1,1.6-1.1c31.3,0,62.6,0,94,0C235,76.7,235.4,76.7,236,76.7z"/>
</g>
</svg>
