<?xml version="1.0" encoding="utf-8"?>
<!-- Generator: Adobe Illustrator 20.1.0, SVG Export Plug-In . SVG Version: 6.00 Build 0)  -->
<svg version="1.1" id="图层_1" xmlns="http://www.w3.org/2000/svg" xmlns:xlink="http://www.w3.org/1999/xlink" x="0px" y="0px"
	 viewBox="0 0 360 360" style="enable-background:new 0 0 360 360;" xml:space="preserve">
<style type="text/css">
	.st0{fill:#FFFFFF;}
</style>
<g>
	<path class="st0" d="M0.2,360.5c0-120.1,0-240.2,0-360.2c120.1,0,240.2,0,360.2,0c0,120.1,0,240.2,0,360.2
		C240.4,360.5,120.3,360.5,0.2,360.5z M96,100.1c-0.5,0.1-0.7,0.1-0.8,0.1c-7.4,0-14.8,0-22.2,0c-0.5,0-1.1-0.3-1.5-0.5
		c-4.9-2.8-9.7-5.5-14.6-8.3c-0.3-0.2-0.6-0.3-0.9-0.5c1.5,53,1.3,105.9,0,158.9c0.4-0.2,0.7-0.4,1.1-0.6c4.7-2.7,9.4-5.4,14.1-8
		c0.9-0.5,1.3-1.1,1.3-2.2c0-43.3,0-86.6,0-130c0-0.5,0-1.1,0-1.7c7.9,0,15.7,0,23.5,0c0,0.5,0,0.8,0,1.2
		c-0.1,57.5-0.1,115-0.3,172.5c0,7.2-0.3,14.5-0.5,21.7c-0.1,4.7-0.3,9.3-0.4,14.1c0.4-0.2,0.7-0.3,1-0.5c5.1-2.7,10.3-5.5,15.4-8.2
		c1-0.5,1.2-1.1,1.2-2.1c-0.4-10.6-1.1-21.2-1.1-31.7c-0.1-55.2-0.1-110.5-0.1-165.7c0-0.4,0-0.8,0-1.3c8.7,0,17.2,0,25.9,0
		c0,0.6,0,1.1,0,1.6c0,33.5,0,67,0,100.6c0,2.1,0,4.3-0.3,6.3c-0.3,2.3-0.9,4.5-1.7,6.7c-0.6,1.7-2,2.6-4,2.5
		c-3.5-0.2-6.9-0.4-10.4-0.6c-2.4-0.2-4.7-0.4-7.2-0.6c0,1.4,0,2.6,0,3.8c0,0.7,0.3,1,0.9,1.3c1.9,0.7,3.9,1.4,5.6,2.4
		c2.9,1.6,5.8,3.3,8.4,5.3c3.1,2.3,5,5.5,5.1,10c2.9-1.6,5.6-2.9,8.2-4.5c4.9-3.2,8.5-7.3,10.1-13.1c0.8-2.8,0.6-5.7,0.6-8.6
		c0-34.6,0-69.2,0-103.8c0-1.9-0.5-4,0.2-5.6c0.7-1.6,2.7-2.6,4.1-3.9c1.7-1.5,3.4-3,5.2-4.5c-6-4.8-11.8-9.5-17.7-14.2
		c-2.6,3.7-5.1,7.3-7.6,10.9c-0.5,0.7-1,1-1.9,1c-7.4,0-14.8,0-22.2,0c-0.4,0-0.8-0.1-1.3-0.1c0-0.6,0-1.1,0-1.5
		c0-11.8,0-23.7,0-35.5c0-1.2,0.4-2,1.3-2.7c2.7-2.3,5.4-4.7,8.3-7.2c-8.7-4-17.3-7.9-25.6-11.7C95.3,61,95.7,80.5,96,100.1z"/>
	<path d="M96,100.1c-0.3-19.6-0.7-39.1-1-58.6c8.4,3.8,16.9,7.7,25.6,11.7c-2.8,2.5-5.5,4.9-8.3,7.2c-0.9,0.8-1.3,1.5-1.3,2.7
		c0,11.8,0,23.7,0,35.5c0,0.5,0,0.9,0,1.5c0.5,0,0.9,0.1,1.3,0.1c7.4,0,14.8,0,22.2,0c0.9,0,1.4-0.3,1.9-1c2.5-3.6,5-7.1,7.6-10.9
		c5.9,4.7,11.8,9.4,17.7,14.2c-1.8,1.6-3.5,3-5.2,4.5c-1.4,1.3-3.4,2.3-4.1,3.9c-0.7,1.6-0.2,3.7-0.2,5.6c0,34.6,0,69.2,0,103.8
		c0,2.9,0.2,5.7-0.6,8.6c-1.6,5.8-5.2,9.9-10.1,13.1c-2.5,1.6-5.3,2.9-8.2,4.5c-0.1-4.4-2.1-7.6-5.1-10c-2.6-2-5.5-3.7-8.4-5.3
		c-1.8-1-3.7-1.6-5.6-2.4c-0.6-0.2-1-0.5-0.9-1.3c0.1-1.2,0-2.5,0-3.8c2.5,0.2,4.9,0.4,7.2,0.6c3.5,0.2,6.9,0.4,10.4,0.6
		c1.9,0.1,3.4-0.8,4-2.5c0.8-2.2,1.3-4.4,1.7-6.7c0.3-2.1,0.3-4.2,0.3-6.3c0-33.5,0-67,0-100.6c0-0.5,0-1,0-1.6
		c-8.6,0-17.2,0-25.9,0c0,0.5,0,0.9,0,1.3c0,55.2-0.1,110.5,0.1,165.7c0,10.6,0.7,21.2,1.1,31.7c0,1-0.2,1.6-1.2,2.1
		c-5.2,2.7-10.3,5.5-15.4,8.2c-0.3,0.2-0.6,0.3-1,0.5c0.1-4.8,0.3-9.4,0.4-14.1c0.2-7.2,0.5-14.5,0.5-21.7
		c0.1-57.5,0.2-115,0.3-172.5c0-0.4,0-0.8,0-1.2c-7.9,0-15.6,0-23.5,0c0,0.6,0,1.1,0,1.7c0,43.3,0,86.6,0,130c0,1.1-0.4,1.7-1.3,2.2
		c-4.7,2.6-9.4,5.3-14.1,8c-0.3,0.2-0.7,0.4-1.1,0.6c1.4-53,1.6-105.9,0-158.9c0.3,0.2,0.6,0.3,0.9,0.5c4.9,2.8,9.7,5.5,14.6,8.3
		c0.5,0.3,1,0.5,1.5,0.5c7.4,0,14.8,0,22.2,0C95.3,100.2,95.5,100.1,96,100.1z"/>
</g>
</svg>
