<?xml version="1.0" encoding="utf-8"?>
<!-- Generator: Adobe Illustrator 20.1.0, SVG Export Plug-In . SVG Version: 6.00 Build 0)  -->
<svg version="1.1" id="图层_1" xmlns="http://www.w3.org/2000/svg" xmlns:xlink="http://www.w3.org/1999/xlink" x="0px" y="0px"
	 viewBox="0 0 360 360" style="enable-background:new 0 0 360 360;" xml:space="preserve">
<style type="text/css">
	.st0{fill:#FFFFFF;}
</style>
<g>
	<path class="st0" d="M0.2,360.5c0-120.1,0-240.2,0-360.2c120.1,0,240.2,0,360.2,0c0,120.1,0,240.2,0,360.2
		C240.4,360.5,120.3,360.5,0.2,360.5z M245.4,235.7c0,1.1,0.1,2.1,0,3.1c-0.2,1.3,0.4,1.8,1.6,2.2c6.2,2,12.2,4.5,17.5,8.4
		c3.7,2.7,6.7,6,7.8,10.6c0.1,0.5,0.2,1.1,0.4,1.7c1.2-0.5,2.2-0.8,3.2-1.3c8.6-3.7,14.8-9.7,17.6-18.8c1.4-4.7,1.6-9.5,1.6-14.3
		c0-36.1,0-72.2,0-108.4c0-0.5,0.3-1.2,0.8-1.6c1.5-1.4,3.1-2.8,4.7-4.1c1.3-1.2,2.6-2.3,4-3.5c-6.4-4.8-12.6-9.5-18.9-14.2
		c-2.6,3.7-5.1,7.3-7.6,10.9c-0.5,0.7-1,0.9-1.8,0.9c-12.9,0-25.8,0-38.8,0c-0.4,0-0.8,0-1.3-0.1c0-0.7,0-1.2,0-1.7
		c0-13.4,0.1-26.9-0.1-40.3c0-2.8,0.7-4.7,3-6.2c2.7-1.7,5-3.9,7.7-5.9c-9.1-4-18.1-7.8-27.2-11.8c1.1,22.1,1.1,44,1.1,66
		c-0.5,0-0.7,0-1,0c-13.1,0-26.2,0-39.4,0c-0.6,0-1.2-0.2-1.7-0.5c-4.8-2.7-9.6-5.5-14.5-8.3c-0.4-0.2-0.7-0.4-1.1-0.6
		c1.5,54.2,1.5,108.3,0,162.5c0.4-0.2,0.8-0.4,1.2-0.6c4.6-2.6,9.2-5.3,13.9-7.9c1-0.6,1.4-1.2,1.4-2.4c0-44.5,0-89,0-133.4
		c0-0.5,0-1,0-1.5c13.8,0,27.4,0,41.2,0c0,0.7,0,1.3,0,1.9c-0.2,59.4,0.5,118.9-0.5,178.3c-0.1,5.5-0.3,10.9-0.5,16.4
		c-0.1,2.3,0,4.6,0,6.9c0.1,0,0.2,0,0.3-0.1c5.5-2.2,11-4.4,16.5-6.6c0.7-0.3,0.7-0.7,0.6-1.3c-0.4-13.9-1-27.9-1.1-41.8
		c-0.1-50.8-0.1-101.7,0-152.5c0-0.4,0-0.8,0.1-1.3c14.5,0,29,0,43.5,0c0,0.6,0,1.1,0,1.6c0,35.5,0,71,0,106.6c0,0.8,0,1.7,0,2.5
		c-0.2,3.2-0.5,6.5-2.1,9.4c-1.3,2.3-3.2,3.6-5.8,3.4c-6.4-0.4-12.7-1-19.1-1.5C250.2,236.3,247.9,236,245.4,235.7z"/>
	<path d="M245.4,235.7c2.5,0.3,4.8,0.6,7.1,0.8c6.4,0.5,12.7,1.1,19.1,1.5c2.7,0.2,4.6-1.1,5.8-3.4c1.6-2.9,1.9-6.2,2.1-9.4
		c0.1-0.8,0-1.7,0-2.5c0-35.5,0-71,0-106.6c0-0.5,0-1,0-1.6c-14.5,0-28.9,0-43.5,0c0,0.4-0.1,0.9-0.1,1.3c0,50.8-0.1,101.7,0,152.5
		c0,13.9,0.7,27.9,1.1,41.8c0,0.6,0.1,1-0.6,1.3c-5.5,2.2-11,4.4-16.5,6.6c-0.1,0-0.2,0-0.3,0.1c0-2.3,0-4.6,0-6.9
		c0.1-5.5,0.4-10.9,0.5-16.4c1-59.4,0.2-118.9,0.5-178.3c0-0.6,0-1.2,0-1.9c-13.7,0-27.4,0-41.2,0c0,0.5,0,1,0,1.5
		c0,44.5,0,89,0,133.4c0,1.2-0.4,1.8-1.4,2.4c-4.6,2.6-9.2,5.2-13.9,7.9c-0.4,0.2-0.8,0.4-1.2,0.6c1.5-54.2,1.4-108.3,0-162.5
		c0.4,0.2,0.7,0.4,1.1,0.6c4.8,2.8,9.6,5.5,14.5,8.3c0.5,0.3,1.1,0.5,1.7,0.5c13.1,0,26.2,0,39.4,0c0.3,0,0.5,0,1,0
		c-0.1-22,0-43.9-1.1-66c9.1,4,18,7.8,27.2,11.8c-2.6,2.1-5,4.2-7.7,5.9c-2.4,1.5-3.1,3.4-3,6.2c0.2,13.4,0.1,26.9,0.1,40.3
		c0,0.5,0,1,0,1.7c0.5,0,0.9,0.1,1.3,0.1c12.9,0,25.8,0,38.8,0c0.8,0,1.3-0.2,1.8-0.9c2.5-3.6,5-7.2,7.6-10.9
		c6.3,4.7,12.5,9.4,18.9,14.2c-1.4,1.2-2.7,2.4-4,3.5c-1.6,1.4-3.2,2.7-4.7,4.1c-0.4,0.4-0.7,1-0.8,1.6c0,36.1-0.1,72.2,0,108.4
		c0,4.9-0.1,9.7-1.6,14.3c-2.8,9.1-9,15.1-17.6,18.8c-1,0.4-2.1,0.8-3.2,1.3c-0.1-0.6-0.2-1.2-0.4-1.7c-1.1-4.6-4.1-7.9-7.8-10.6
		c-5.3-3.9-11.3-6.4-17.5-8.4c-1.2-0.4-1.8-0.9-1.6-2.2C245.5,237.8,245.4,236.8,245.4,235.7z"/>
</g>
</svg>
