<?xml version="1.0" encoding="utf-8"?>
<!-- Generator: Adobe Illustrator 20.1.0, SVG Export Plug-In . SVG Version: 6.00 Build 0)  -->
<svg version="1.1" id="图层_1" xmlns="http://www.w3.org/2000/svg" xmlns:xlink="http://www.w3.org/1999/xlink" x="0px" y="0px"
	 viewBox="0 0 360 360" style="enable-background:new 0 0 360 360;" xml:space="preserve">
<style type="text/css">
	.st0{fill:#FFFFFF;}
</style>
<g>
	<path class="st0" d="M0.2,360.5c0-120.1,0-240.2,0-360.2c120.1,0,240.2,0,360.2,0c0,120.1,0,240.2,0,360.2
		C240.4,360.5,120.3,360.5,0.2,360.5z M194.8,141.6c24.8,0,49.4,0,74.1,0c0,0.4,0.1,0.7,0.1,1c0,32.9,0,65.8,0,98.6
		c0,1.5-0.2,3-0.5,4.4c-1.3,5.8-5.2,8.4-11.2,7.8c-9.4-1-18.8-2-28.1-3c-1.6-0.2-3.2-0.3-4.9-0.5c0,1.7,0,3.2,0,4.7
		c2.9,1.1,5.7,2.1,8.5,3.2c6.7,2.7,13.2,5.7,19,10.1c3.8,2.9,7,6.2,7.8,11.2c0,0.1,0.1,0.1,0.2,0.2c5.4-2,10.5-4.5,15-8.1
		c6.4-5.2,10.2-11.8,10.6-20c0.3-4.8,0.2-9.6,0.2-14.4c0-29.3,0-58.6,0-87.8c0-1.1,0.3-1.8,1.3-2.4c2.6-1.7,5.2-3.6,7.8-5.4
		c0.9-0.6,1.8-1.3,2.7-2c-6.3-5.6-12.6-11-18.9-16.5c-0.4,0.4-0.7,0.7-1,1c-3.3,3.3-6.6,6.6-9.9,9.9c-0.6,0.6-1.2,0.9-2.1,0.9
		c-23.1,0-46.2,0-69.2,0c-0.4,0-0.9,0-1.4,0c0-21.5,0-42.8,0-64.3c-0.6,0.3-1,0.5-1.4,0.7c-4.7,2.5-9.3,5.1-14,7.6
		c-0.9,0.5-1.1,1-1.1,1.9c0,17.5,0,35,0,52.4c0,0.5,0,1,0,1.6c-0.5,0-0.9,0.1-1.2,0.1c-22,0-44.1,0-66.1,0c-0.6,0-1.3-0.2-1.8-0.4
		c-6-2.8-12.1-5.7-18.1-8.5c-0.3-0.1-0.6-0.2-1-0.4c1.5,52.2,1.4,104.3,0,156.6c0.5-0.2,0.8-0.3,1.1-0.5c5-2.3,9.9-4.7,14.9-6.9
		c1.2-0.5,1.7-1.2,1.7-2.6c0-42.8,0-85.6,0-128.4c0-0.6,0-1.2,0-1.7c23.7,0,47.1,0,70.6,0c0,0.4,0.1,0.8,0.1,1.1
		c-0.1,44.4-0.1,88.7-0.2,133.1c0,12.3-0.5,24.5-0.8,36.8c0,2.2,0,4.4,0,6.7c0.4-0.1,0.8-0.2,1.2-0.4c5.5-2,10.9-4.1,16.4-6.1
		c1-0.3,1.1-0.8,1.1-1.7c-0.4-13.9-1-27.8-1.1-41.7c-0.1-42.1-0.1-84.2-0.1-126.2C194.8,142.6,194.8,142.1,194.8,141.6z"/>
	<path d="M194.8,141.6c0,0.6,0,1.1,0,1.5c0,42.1-0.1,84.2,0.1,126.2c0,13.9,0.7,27.8,1.1,41.7c0,0.9-0.1,1.4-1.1,1.7
		c-5.5,2-10.9,4.1-16.4,6.1c-0.4,0.2-0.8,0.3-1.2,0.4c0-2.3,0-4.5,0-6.7c0.3-12.3,0.7-24.5,0.8-36.8c0.1-44.4,0.1-88.7,0.2-133.1
		c0-0.4,0-0.7-0.1-1.1c-23.5,0-46.9,0-70.6,0c0,0.6,0,1.1,0,1.7c0,42.8,0,85.6,0,128.4c0,1.4-0.4,2-1.7,2.6c-5,2.2-9.9,4.6-14.9,6.9
		c-0.3,0.1-0.6,0.3-1.1,0.5c1.5-52.2,1.5-104.3,0-156.6c0.4,0.1,0.7,0.2,1,0.4c6,2.8,12.1,5.7,18.1,8.5c0.6,0.3,1.2,0.4,1.8,0.4
		c22,0,44.1,0,66.1,0c0.4,0,0.7,0,1.2-0.1c0-0.6,0-1.1,0-1.6c0-17.5,0-35,0-52.4c0-1,0.3-1.5,1.1-1.9c4.7-2.5,9.3-5.1,14-7.6
		c0.4-0.2,0.8-0.4,1.4-0.7c0,21.5,0,42.8,0,64.3c0.5,0,1,0,1.4,0c23.1,0,46.2,0,69.2,0c0.9,0,1.5-0.3,2.1-0.9
		c3.3-3.3,6.6-6.6,9.9-9.9c0.3-0.3,0.6-0.6,1-1c6.3,5.5,12.5,11,18.9,16.5c-1,0.7-1.8,1.3-2.7,2c-2.6,1.8-5.1,3.7-7.8,5.4
		c-0.9,0.6-1.3,1.3-1.3,2.4c0,29.3,0,58.6,0,87.8c0,4.8,0.1,9.6-0.2,14.4c-0.4,8.3-4.3,14.8-10.6,20c-4.5,3.7-9.6,6.1-15,8.1
		c-0.1-0.1-0.2-0.1-0.2-0.2c-0.9-5-4.1-8.3-7.8-11.2c-5.8-4.4-12.3-7.4-19-10.1c-2.8-1.1-5.7-2.2-8.5-3.2c0-1.5,0-3,0-4.7
		c1.7,0.2,3.3,0.3,4.9,0.5c9.4,1,18.8,2,28.1,3c6,0.7,9.9-2,11.2-7.8c0.3-1.4,0.5-2.9,0.5-4.4c0-32.9,0-65.8,0-98.6
		c0-0.3,0-0.6-0.1-1C244.2,141.6,219.6,141.6,194.8,141.6z"/>
</g>
</svg>
