<?xml version="1.0" encoding="utf-8"?>
<!-- Generator: Adobe Illustrator 20.1.0, SVG Export Plug-In . SVG Version: 6.00 Build 0)  -->
<svg version="1.1" id="图层_1" xmlns="http://www.w3.org/2000/svg" xmlns:xlink="http://www.w3.org/1999/xlink" x="0px" y="0px"
	 viewBox="0 0 360 360" style="enable-background:new 0 0 360 360;" xml:space="preserve">
<style type="text/css">
	.st0{fill:#FFFFFF;}
</style>
<g>
	<path class="st0" d="M0.2,360.5c0-120.1,0-240.2,0-360.2c120.1,0,240.2,0,360.2,0c0,120.1,0,240.2,0,360.2
		C240.4,360.5,120.3,360.5,0.2,360.5z M258.4,44.8c-0.3,0.4-0.6,0.7-0.8,1c-2.6,3.3-5.3,6.6-7.9,9.9c-0.5,0.7-1,0.9-1.9,0.9
		c-40.8,0-81.7,0-122.5,0c-0.7,0-1.4-0.2-2-0.5c-5.2-2.7-10.4-5.5-15.7-8.3c-0.3-0.2-0.7-0.3-1.2-0.6c1.6,37.4,1.5,74.6,0,112
		c5.9-2.3,11.5-4.6,17-6.8c0.3-0.1,0.6-0.8,0.6-1.2c0.1-3.6,0-7.1,0-10.7c0-0.4,0-0.8,0-1.3c42.5,0,84.8,0,127.2,0
		c0,5.1,0,10,0,15.2c0.6-0.2,1-0.3,1.3-0.5c5-2,10.1-4.1,15.1-6c1-0.4,1.2-0.9,1.2-1.9c-0.3-9.8-0.7-19.6-0.9-29.4
		c-0.2-8.4-0.2-16.8-0.3-25.2c0-7.3,0-14.6,0-22c0-0.8,0.2-1.3,0.8-1.7c2.7-2.3,5.3-4.6,8-6.9c0.2-0.2,0.4-0.4,0.7-0.7
		C270.9,55,264.7,49.9,258.4,44.8z"/>
	<path d="M258.4,44.8c6.3,5.1,12.5,10.2,18.8,15.3c-0.2,0.3-0.4,0.5-0.7,0.7c-2.6,2.3-5.3,4.7-8,6.9c-0.6,0.5-0.8,1-0.8,1.7
		c0,7.3,0,14.6,0,22c0,8.4,0.1,16.8,0.3,25.2c0.2,9.8,0.5,19.6,0.9,29.4c0,1-0.2,1.5-1.2,1.9c-5.1,2-10.1,4-15.1,6
		c-0.4,0.2-0.8,0.3-1.3,0.5c0-5.2,0-10.1,0-15.2c-42.4,0-84.7,0-127.2,0c0,0.4,0,0.8,0,1.3c0,3.6,0,7.1,0,10.7c0,0.4-0.3,1-0.6,1.2
		c-5.6,2.3-11.2,4.5-17,6.8c1.5-37.3,1.6-74.6,0-112c0.5,0.2,0.9,0.4,1.2,0.6c5.2,2.8,10.4,5.6,15.7,8.3c0.6,0.3,1.4,0.5,2,0.5
		c40.8,0,81.7,0,122.5,0c0.9,0,1.4-0.3,1.9-0.9c2.6-3.3,5.3-6.6,7.9-9.9C257.9,45.5,258.1,45.2,258.4,44.8z M124.2,63.8
		c0,22.8,0,45.4,0,68.1c42.4,0,84.7,0,127,0c0-22.7,0-45.4,0-68.1C208.9,63.8,166.6,63.8,124.2,63.8z"/>
	<path class="st0" d="M124.2,63.8c42.3,0,84.6,0,127,0c0,22.7,0,45.4,0,68.1c-42.3,0-84.6,0-127,0
		C124.2,109.2,124.2,86.6,124.2,63.8z"/>
</g>
</svg>
