<?xml version="1.0" encoding="utf-8"?>
<!-- Generator: Adobe Illustrator 20.1.0, SVG Export Plug-In . SVG Version: 6.00 Build 0)  -->
<svg version="1.1" id="图层_1" xmlns="http://www.w3.org/2000/svg" xmlns:xlink="http://www.w3.org/1999/xlink" x="0px" y="0px"
	 viewBox="0 0 360 360" style="enable-background:new 0 0 360 360;" xml:space="preserve">
<style type="text/css">
	.st0{fill:#FFFFFF;}
</style>
<g>
	<path class="st0" d="M0.2,360.5c0-120.1,0-240.2,0-360.2c120.1,0,240.2,0,360.2,0c0,120.1,0,240.2,0,360.2
		C240.4,360.5,120.3,360.5,0.2,360.5z M278.5,192.1c-6-5.6-11.8-11-17.7-16.6c-3.7,3.8-7.4,7.4-11.1,11c-0.4,0.4-1.2,0.8-1.9,0.8
		c-42.4,0-84.9,0-127.3,0c-0.7,0-1.4-0.2-2-0.6c-4.9-2.9-9.7-5.8-14.5-8.7c-0.7-0.4-1.4-0.8-2.3-1.4c1.6,46.1,1.6,91.9,0,137.9
		c0.5-0.1,0.8-0.2,1.2-0.3c5.2-1.7,10.3-3.5,15.5-5.1c0.9-0.3,1.2-0.7,1.2-1.6c0-6.6,0-13.1,0-19.7c0-0.5,0-0.9,0-1.5
		c44,0,87.8,0,131.9,0c0,8.2,0,16.4,0,24.7c0.6-0.2,1-0.4,1.4-0.5c5-2,10-4,15-6c1.1-0.4,1.3-0.9,1.2-2c-0.4-8-1-16-1.1-23.9
		c-0.1-25.7,0-51.4-0.1-77c0-0.9,0.2-1.5,1-2C272,197.2,275.2,194.7,278.5,192.1z"/>
	<path d="M278.5,192.1c-3.3,2.6-6.5,5.1-9.7,7.5c-0.7,0.6-1,1.1-1,2c0,25.7-0.1,51.4,0.1,77c0,8,0.7,16,1.1,23.9
		c0.1,1.1-0.2,1.6-1.2,2c-5,1.9-10,4-15,6c-0.4,0.2-0.8,0.3-1.4,0.5c0-8.3,0-16.5,0-24.7c-44,0-87.9,0-131.9,0c0,0.5,0,1,0,1.5
		c0,6.6,0,13.1,0,19.7c0,0.9-0.3,1.3-1.2,1.6c-5.2,1.7-10.3,3.4-15.5,5.1c-0.3,0.1-0.7,0.2-1.2,0.3c1.6-45.9,1.6-91.8,0-137.9
		c0.9,0.5,1.6,0.9,2.3,1.4c4.8,2.9,9.6,5.8,14.5,8.7c0.6,0.3,1.3,0.6,2,0.6c42.4,0,84.9,0,127.3,0c0.6,0,1.4-0.3,1.9-0.8
		c3.7-3.6,7.3-7.3,11.1-11C266.7,181.1,272.5,186.5,278.5,192.1z M119.6,194.6c0,28.3,0,56.4,0,84.6c44,0,87.8,0,131.7,0
		c0-28.2,0-56.4,0-84.6C207.3,194.6,163.5,194.6,119.6,194.6z"/>
	<path class="st0" d="M119.6,194.6c43.9,0,87.8,0,131.7,0c0,28.2,0,56.3,0,84.6c-43.9,0-87.7,0-131.7,0
		C119.6,251,119.6,222.8,119.6,194.6z"/>
</g>
</svg>
