<?xml version="1.0" encoding="utf-8"?>
<!-- Generator: Adobe Illustrator 20.1.0, SVG Export Plug-In . SVG Version: 6.00 Build 0)  -->
<svg version="1.1" id="图层_1" xmlns="http://www.w3.org/2000/svg" xmlns:xlink="http://www.w3.org/1999/xlink" x="0px" y="0px"
	 viewBox="0 0 360 360" style="enable-background:new 0 0 360 360;" xml:space="preserve">
<style type="text/css">
	.st0{fill:#FFFFFF;}
</style>
<g>
	<path class="st0" d="M0.2,360.5c0-120.1,0-240.2,0-360.2c120.1,0,240.2,0,360.2,0c0,120.1,0,240.2,0,360.2
		C240.4,360.5,120.3,360.5,0.2,360.5z M99.3,142.6c1.4,37.9,1.8,75.4,0,113.1c0.3-0.1,0.5-0.1,0.6-0.1c5.4-2.2,10.9-4.4,16.3-6.5
		c0.7-0.3,0.8-0.7,0.8-1.4c0-5.5,0-11,0-16.4c0-0.4,0-0.8,0-1.2c26.8,0,53.3,0,80,0c0,5.1,0,10,0,15.2c0.6-0.2,1-0.3,1.5-0.4
		c4.5-1.5,8.9-3,13.4-4.5c2.8-0.9,2.8-0.9,2.6-3.8c0-0.1,0-0.2,0-0.2c-0.3-8.7-0.8-17.3-0.9-26c-0.1-14.7,0-29.4,0-44.2
		c0-0.5,0.4-1.2,0.8-1.5c2.5-2,5.2-3.9,7.8-5.9c0.3-0.2,0.5-0.4,0.7-0.6c-5.5-5.5-11-11-16.5-16.5c-3.5,3.6-7.2,7.2-10.8,10.8
		c-0.5,0.4-1.2,0.8-1.8,0.8c-25.2,0-50.4,0-75.6,0c-0.6,0-1.3-0.2-1.8-0.5c-3.7-2.2-7.4-4.4-11.1-6.6
		C103.3,144.9,101.4,143.8,99.3,142.6z"/>
	<path d="M99.3,142.6c2.1,1.2,4,2.4,5.8,3.5c3.7,2.2,7.4,4.5,11.1,6.6c0.5,0.3,1.2,0.5,1.8,0.5c25.2,0,50.4,0,75.6,0
		c0.6,0,1.4-0.4,1.8-0.8c3.7-3.6,7.3-7.3,10.8-10.8c5.5,5.5,11,11,16.5,16.5c-0.1,0.1-0.4,0.4-0.7,0.6c-2.6,1.9-5.2,3.9-7.8,5.9
		c-0.4,0.3-0.8,1-0.8,1.5c0,14.7-0.1,29.4,0,44.2c0.1,8.7,0.6,17.3,0.9,26c0,0.1,0,0.2,0,0.2c0.2,2.9,0.2,2.9-2.6,3.8
		c-4.5,1.5-8.9,3-13.4,4.5c-0.4,0.1-0.9,0.3-1.5,0.4c0-5.1,0-10.1,0-15.2c-26.7,0-53.3,0-80,0c0,0.4,0,0.8,0,1.2c0,5.5,0,11,0,16.4
		c0,0.6-0.1,1.1-0.8,1.4c-5.5,2.1-10.9,4.3-16.3,6.5c-0.1,0.1-0.3,0.1-0.6,0.1C101.1,218,100.7,180.4,99.3,142.6z M117.1,222.6
		c26.7,0,53.3,0,79.9,0c0-20.8,0-41.5,0-62.2c-26.7,0-53.3,0-79.9,0C117.1,181.2,117.1,201.9,117.1,222.6z"/>
	<path class="st0" d="M117.1,222.6c0-20.7,0-41.4,0-62.2c26.6,0,53.2,0,79.9,0c0,20.7,0,41.4,0,62.2
		C170.4,222.6,143.8,222.6,117.1,222.6z"/>
</g>
</svg>
