<?xml version="1.0" encoding="utf-8"?>
<!-- Generator: Adobe Illustrator 20.1.0, SVG Export Plug-In . SVG Version: 6.00 Build 0)  -->
<svg version="1.1" id="图层_1" xmlns="http://www.w3.org/2000/svg" xmlns:xlink="http://www.w3.org/1999/xlink" x="0px" y="0px"
	 viewBox="0 0 360 360" style="enable-background:new 0 0 360 360;" xml:space="preserve">
<style type="text/css">
	.st0{fill:#FFFFFF;}
</style>
<g>
	<path class="st0" d="M0.2,360.5c0-120.1,0-240.2,0-360.2c120.1,0,240.2,0,360.2,0c0,120.1,0,240.2,0,360.2
		C240.4,360.5,120.3,360.5,0.2,360.5z M113.5,226.3c0.5-0.3,0.9-0.5,1.3-0.7c5.1-3.1,10.2-6.1,15.3-9.2c0.9-0.5,1.2-1,1-2
		c-0.2-0.7-0.2-1.5-0.3-2.3c-0.3-8.1-0.7-16.2-0.7-24.3c-0.1-33.2,0-66.3-0.1-99.5c0-0.8,0.3-1.3,0.9-1.8c2.8-2.1,5.6-4.2,8.6-6.4
		c-5.9-5.1-11.8-10.2-17.7-15.4c-0.3,0.3-0.4,0.5-0.6,0.7c-2.7,3.4-5.4,6.7-8.1,10.1c-0.5,0.7-1,0.9-1.9,0.9c-12.2,0-24.5,0-36.7,0
		c-0.7,0-1.4-0.2-2-0.6c-5.2-3.1-10.4-6.2-15.5-9.3c-0.3-0.2-0.7-0.4-1.1-0.6c1.6,58.9,1.3,117.7,0,176.6c0.4-0.2,0.7-0.3,1-0.5
		c5.2-2.8,10.4-5.6,15.7-8.3c0.8-0.4,1-0.9,1-1.8c0-9.7,0-19.4,0-29.2c0-0.5,0-0.9,0-1.4c13.4,0,26.6,0,40,0
		C113.5,209.9,113.5,218,113.5,226.3z"/>
	<path d="M113.5,226.3c0-8.3,0-16.4,0-24.6c-13.4,0-26.6,0-40,0c0,0.5,0,0.9,0,1.4c0,9.7,0,19.4,0,29.2c0,0.9-0.2,1.3-1,1.8
		c-5.2,2.7-10.4,5.5-15.7,8.3c-0.3,0.1-0.6,0.3-1,0.5c1.4-58.9,1.6-117.7,0-176.6c0.4,0.2,0.8,0.4,1.1,0.6
		c5.2,3.1,10.3,6.2,15.5,9.3c0.6,0.3,1.3,0.6,2,0.6c12.2,0,24.5,0,36.7,0c0.9,0,1.4-0.3,1.9-0.9c2.7-3.4,5.4-6.8,8.1-10.1
		c0.2-0.2,0.4-0.4,0.6-0.7c5.9,5.1,11.8,10.2,17.7,15.4c-2.9,2.2-5.7,4.3-8.6,6.4c-0.6,0.5-0.9,0.9-0.9,1.8c0,33.2,0,66.3,0.1,99.5
		c0,8.1,0.5,16.2,0.7,24.3c0,0.8,0.1,1.5,0.3,2.3c0.2,1-0.1,1.5-1,2c-5.1,3-10.2,6.1-15.3,9.2C114.4,225.8,114,226,113.5,226.3z
		 M73.6,83.8c0,36.9,0,73.7,0,110.5c13.3,0,26.6,0,39.8,0c0-36.9,0-73.7,0-110.5C100.1,83.8,86.9,83.8,73.6,83.8z"/>
	<path class="st0" d="M73.6,83.8c13.3,0,26.6,0,39.8,0c0,36.8,0,73.6,0,110.5c-13.3,0-26.5,0-39.8,0
		C73.6,157.5,73.6,120.7,73.6,83.8z"/>
</g>
</svg>
