<?xml version="1.0" encoding="utf-8"?>
<!-- Generator: Adobe Illustrator 20.1.0, SVG Export Plug-In . SVG Version: 6.00 Build 0)  -->
<svg version="1.1" id="图层_1" xmlns="http://www.w3.org/2000/svg" xmlns:xlink="http://www.w3.org/1999/xlink" x="0px" y="0px"
	 viewBox="0 0 360 360" style="enable-background:new 0 0 360 360;" xml:space="preserve">
<style type="text/css">
	.st0{fill:#FFFFFF;}
</style>
<g>
	<path class="st0" d="M0.2,360.5c0-120.1,0-240.2,0-360.2c120.1,0,240.2,0,360.2,0c0,120.1,0,240.2,0,360.2
		C240.4,360.5,120.3,360.5,0.2,360.5z M234.8,150.9c-2.8,21.3-5.5,42.4-8.2,63.5c-30.6,0-61.1,0-91.7,0c0-0.4,0-0.8,0.1-1.1
		c1.8-11.8,3.7-23.6,5.6-35.4c0.1-0.6,0.5-1.3,1-1.7c2.5-2,5.2-3.9,7.8-5.9c0.2-0.2,0.4-0.4,0.8-0.7c-8.3-4.3-16.4-8.6-24.8-13
		c-0.2,1.6-0.3,3.1-0.5,4.6c-0.8,7.9-1.7,15.9-2.5,23.8c-0.9,8.2-1.8,16.4-2.7,24.5c-0.1,0.8-0.4,1.4-1.1,1.9
		c-2.5,1.7-4.9,3.5-7.4,5.3c5.2,4.8,10.2,9.4,15.3,14.2c0.3-0.4,0.6-0.6,0.9-0.9c2.2-2.6,4.5-5.1,6.7-7.7c0.6-0.7,1.1-0.9,1.9-0.9
		c45,0,90.1,0,135.1,0c0.4,0,0.9,0,1.4,0c0,0.6,0,1-0.1,1.3c-2.1,12.5-4,25.1-6.2,37.6c-1.3,7.2-2.9,14.3-5.5,21.2
		c-1,2.7-2.3,5-4.6,6.8c-5.3,4.1-11.2,4.9-17.6,3.9c-8-1.2-15.7-3.3-23.4-5.5c-2-0.6-4-1.2-6.1-1.8c-0.3,1.3-0.5,2.4-0.9,3.5
		c-0.3,1-0.1,1.4,0.9,1.7c6.2,2.1,12.3,4.6,17.8,8.1c6.8,4.4,12.4,9.6,12.9,18.5c5.2-1,10.2-2.6,14.9-4.8c9.8-4.7,17-11.8,20.4-22.3
		c1.8-5.7,3.4-11.4,4.9-17.2c3.8-15,6.5-30.2,9.2-45.4c0.1-0.5,0.5-1.2,1-1.5c2.9-2,5.9-4,8.9-5.9c0.3-0.2,0.5-0.4,0.9-0.7
		c-6.7-5.5-13.3-11-20-16.5c-0.3,0.4-0.6,0.7-0.8,1c-2.3,3.3-4.6,6.5-6.9,9.8c-0.5,0.7-1,1-1.8,1c-8.6,0-17.2,0-25.8,0
		c-0.4,0-0.8,0-1.2-0.1c0.6-4.3,1.1-8.4,1.7-12.6c2.1-15.5,4.3-31,6.4-46.4c0.1-0.6,0.5-1.2,1-1.6c2.9-2,5.8-3.9,8.7-5.8
		c0.3-0.2,0.6-0.5,1-0.8c-6.3-5.2-12.6-10.2-18.9-15.3c-2.9,3.7-5.8,7.2-8.6,10.8c-0.6,0.8-1.2,1-2.1,1c-46.6,0-93.1,0-139.7,0
		c-0.5,0-0.9,0-1.5,0c0.1,0.2,0.2,0.4,0.2,0.4c3.2,3.3,6.5,6.5,9.8,9.7c0.3,0.3,1,0.4,1.4,0.3c8.8-2.3,17.8-3.3,26.8-3.3
		c34.6,0,69.3,0,103.9,0C233.8,150.9,234.2,150.9,234.8,150.9z M247.9,262.8c-7.6-8-15-15.8-22.5-23.6c-0.4,0.4-0.7,0.7-1,1
		c-4.8,4.7-9.5,9.5-14.2,14.3c-0.9,0.9-1.8,1.3-3.1,1.3c-49.4,0-98.9,0-148.3,0c-0.5,0-1,0-1.9,0c3.6,3.6,6.9,7,10.3,10.3
		c0.2,0.2,0.9,0.2,1.3,0.1c8.8-2.3,17.7-3.3,26.7-3.3c50.3,0,100.5,0,150.8,0C246.5,262.8,247,262.8,247.9,262.8z"/>
	<path d="M234.8,150.9c-0.6,0-1.1,0-1.5,0c-34.6,0-69.3,0-103.9,0c-9.1,0-18,1-26.8,3.3c-0.4,0.1-1.1,0-1.4-0.3
		c-3.3-3.2-6.5-6.5-9.8-9.7c-0.1-0.1-0.1-0.2-0.2-0.4c0.6,0,1,0,1.5,0c46.6,0,93.1,0,139.7,0c0.9,0,1.5-0.2,2.1-1
		c2.8-3.6,5.7-7.1,8.6-10.8c6.3,5.1,12.5,10.2,18.9,15.3c-0.4,0.3-0.7,0.5-1,0.8c-2.9,1.9-5.8,3.8-8.7,5.8c-0.5,0.3-0.9,1-1,1.6
		c-2.2,15.5-4.3,30.9-6.4,46.4c-0.6,4.2-1.1,8.3-1.7,12.6c0.4,0,0.8,0.1,1.2,0.1c8.6,0,17.2,0,25.8,0c0.9,0,1.4-0.3,1.8-1
		c2.3-3.3,4.6-6.6,6.9-9.8c0.2-0.3,0.5-0.6,0.8-1c6.7,5.5,13.3,11,20,16.5c-0.3,0.3-0.6,0.5-0.9,0.7c-3,2-5.9,3.9-8.9,5.9
		c-0.5,0.3-0.9,0.9-1,1.5c-2.6,15.2-5.4,30.4-9.2,45.4c-1.4,5.8-3,11.5-4.9,17.2c-3.4,10.5-10.6,17.7-20.4,22.3
		c-4.7,2.2-9.7,3.8-14.9,4.8c-0.4-8.9-6.1-14.1-12.9-18.5c-5.5-3.6-11.6-6-17.8-8.1c-1-0.3-1.2-0.7-0.9-1.7c0.4-1.1,0.6-2.2,0.9-3.5
		c2.1,0.6,4.1,1.2,6.1,1.8c7.7,2.2,15.5,4.3,23.4,5.5c6.4,1,12.3,0.2,17.6-3.9c2.3-1.8,3.6-4.2,4.6-6.8c2.5-6.9,4.2-14,5.5-21.2
		c2.2-12.5,4.2-25.1,6.2-37.6c0.1-0.4,0.1-0.8,0.1-1.3c-0.5,0-0.9,0-1.4,0c-45,0-90.1,0-135.1,0c-0.8,0-1.4,0.2-1.9,0.9
		c-2.2,2.6-4.5,5.1-6.7,7.7c-0.3,0.3-0.5,0.6-0.9,0.9c-5.1-4.7-10.2-9.4-15.3-14.2c2.5-1.8,4.9-3.6,7.4-5.3c0.7-0.5,1-1,1.1-1.9
		c0.9-8.2,1.8-16.4,2.7-24.5c0.9-7.9,1.7-15.9,2.5-23.8c0.2-1.5,0.3-3,0.5-4.6c8.3,4.3,16.5,8.6,24.8,13c-0.3,0.3-0.5,0.5-0.8,0.7
		c-2.6,1.9-5.2,3.9-7.8,5.9c-0.5,0.4-0.9,1.1-1,1.7c-1.9,11.8-3.7,23.6-5.6,35.4c-0.1,0.3,0,0.7-0.1,1.1c30.6,0,61.1,0,91.7,0
		C229.3,193.3,232.1,172.2,234.8,150.9z"/>
	<path d="M247.9,262.8c-0.9,0-1.4,0-1.9,0c-50.3,0-100.5,0-150.8,0c-9,0-17.9,1-26.7,3.3c-0.4,0.1-1,0.1-1.3-0.1
		c-3.4-3.3-6.7-6.6-10.3-10.3c0.8,0,1.4,0,1.9,0c49.4,0,98.9,0,148.3,0c1.3,0,2.2-0.4,3.1-1.3c4.7-4.8,9.5-9.5,14.2-14.3
		c0.3-0.3,0.6-0.6,1-1C232.9,247,240.3,254.8,247.9,262.8z"/>
</g>
</svg>
