<?xml version="1.0" encoding="utf-8"?>
<!-- Generator: Adobe Illustrator 20.1.0, SVG Export Plug-In . SVG Version: 6.00 Build 0)  -->
<svg version="1.1" id="图层_1" xmlns="http://www.w3.org/2000/svg" xmlns:xlink="http://www.w3.org/1999/xlink" x="0px" y="0px"
	 viewBox="0 0 360 360" style="enable-background:new 0 0 360 360;" xml:space="preserve">
<style type="text/css">
	.st0{fill:#FFFFFF;}
</style>
<g>
	<path class="st0" d="M0.2,360.5c0-120.1,0-240.2,0-360.2c120.1,0,240.2,0,360.2,0c0,120.1,0,240.2,0,360.2
		C240.4,360.5,120.3,360.5,0.2,360.5z M83,183.8c0-0.9,0.1-1.7,0.1-2.5c0.5-6.7,1.1-13.4,1.6-20.1c0.6-7.2,1.2-14.5,1.8-21.7
		c0.7-8.5,1.4-17,2-25.6c0.1-2.1,0.7-3.5,2.5-4.7c2.9-2,5.6-4.3,8.5-6.5c-8.3-4-16.5-7.9-25.1-11.9c0,3.1,0.1,5.8,0,8.5
		c-0.5,8.1-1,16.1-1.6,24.2c-0.8,9.6-1.6,19.3-2.5,28.9c-0.8,9-1.7,17.9-2.5,26.9c-0.1,0.9-0.3,1.5-1,2c-2.5,2-4.9,4.1-7.4,6.3
		c5.1,4.4,10.2,8.7,15.4,13c0.3-0.3,0.6-0.6,0.9-0.9c2.6-2.6,5.2-5.1,7.7-7.7c0.6-0.6,1.2-0.8,2-0.8c21.5,0,43,0,64.6,0
		c0.4,0,0.9,0,1.3,0c0,0.3,0,0.5,0,0.7c-0.6,6.9-1,13.9-1.7,20.8c-1.1,10.3-2.1,20.7-3.6,31c-1.1,7.7-2.7,15.3-4.3,22.8
		c-1,4.7-2.9,9.1-5.9,12.8c-3.1,3.8-7.1,5.8-12,4.9c-9.6-1.7-19.1-3.6-28.6-5.5c-2.5-0.5-4.9-1.1-7.4-1.6c-0.4,1.7-0.8,3.2-1.2,4.7
		c2.6,0.9,5.1,1.8,7.5,2.8c6.6,2.6,12.9,5.7,18.1,10.5c3.7,3.3,6.3,7.3,7.1,12.3c0.1,0.9,0.2,1.7,0.3,2.7c0.5-0.1,0.8-0.1,1.1-0.2
		c2.9-0.9,5.8-1.6,8.5-2.8c10-4.1,17.9-10.6,22.6-20.4c2-4.1,3.3-8.6,4.5-13.1c3.9-15.4,5.8-31.2,7.4-46.9
		c1.1-10.1,1.9-20.1,2.7-30.2c0.1-1.3,0.6-2.1,1.7-2.9c2.7-1.9,5.2-3.9,8-5.9c-6.4-4.8-12.6-9.5-18.9-14.2c-2.2,3.3-4.4,6.6-6.6,9.8
		c-0.2,0.3-0.6,0.7-0.9,0.7c-2.9,0.1-5.9,0-8.9,0c0.7-7.6,1.3-15.1,2-22.6c0.8-9.5,1.7-18.9,2.6-28.4c0.8-8.5,1.5-17,2.2-25.6
		c0.8-8.8,1.6-17.5,2.3-26.3c0.3-3.1,0.2-3.1,2.9-4.7c2.3-1.4,4.5-2.8,6.9-4.3c-6-5.2-11.8-10.2-17.7-15.3c-0.2,0.3-0.4,0.5-0.6,0.7
		c-2.3,3-4.6,5.9-6.9,8.9c-0.6,0.7-1.1,1-2.1,1c-25.8,0-51.5,0-77.3,0c-0.5,0-0.9,0-1.6,0c3.6,3.6,6.9,7,10.3,10.3
		c0.2,0.2,0.9,0.2,1.3,0.1c8.4-2.2,17-3.2,25.7-3.2c14.2,0,28.4,0,42.6,0c0.4,0,0.9,0,1.4,0c-3.1,36.6-6.3,73-9.4,109.4
		C111.1,183.8,97.1,183.8,83,183.8z M44.1,244.1c5.1,7,10.1,14,15.3,21.1c1.9-3,3.6-5.8,5.4-8.6c0.3-0.5,0.9-1.1,1.4-1.4
		c21.2-11.6,42.9-22.1,65.1-31.5c2.7-1.1,5.4-2.3,8.2-3.4c-0.4-1.2-0.8-2.3-1.2-3.5C106.9,226.2,75.9,236.3,44.1,244.1z"/>
	<path d="M83,183.8c14.1,0,28.2,0,42.3,0c3.1-36.4,6.3-72.8,9.4-109.4c-0.5,0-1,0-1.4,0c-14.2,0-28.4,0-42.6,0
		c-8.7,0-17.3,1.1-25.7,3.2c-0.4,0.1-1.1,0.1-1.3-0.1c-3.4-3.3-6.7-6.7-10.3-10.3c0.7,0,1.2,0,1.6,0c25.8,0,51.5,0,77.3,0
		c0.9,0,1.5-0.3,2.1-1c2.3-3,4.6-5.9,6.9-8.9c0.2-0.2,0.3-0.4,0.6-0.7c5.9,5.1,11.7,10.2,17.7,15.3c-2.4,1.5-4.6,2.9-6.9,4.3
		c-2.6,1.7-2.6,1.7-2.9,4.7c-0.7,8.8-1.6,17.5-2.3,26.3c-0.8,8.5-1.5,17-2.2,25.6c-0.8,9.5-1.7,18.9-2.6,28.4
		c-0.7,7.5-1.3,15-2,22.6c3,0,5.9,0,8.9,0c0.3,0,0.7-0.4,0.9-0.7c2.2-3.2,4.4-6.5,6.6-9.8c6.3,4.7,12.6,9.4,18.9,14.2
		c-2.7,2-5.3,4.1-8,5.9c-1.1,0.8-1.5,1.6-1.7,2.9c-0.9,10.1-1.7,20.2-2.7,30.2c-1.6,15.8-3.5,31.5-7.4,46.9c-1.1,4.5-2.5,9-4.5,13.1
		c-4.8,9.7-12.6,16.3-22.6,20.4c-2.8,1.1-5.7,1.9-8.5,2.8c-0.3,0.1-0.7,0.1-1.1,0.2c-0.1-1-0.1-1.8-0.3-2.7c-0.8-5-3.4-9-7.1-12.3
		c-5.3-4.8-11.6-7.9-18.1-10.5c-2.4-1-4.9-1.8-7.5-2.8c0.4-1.5,0.8-3,1.2-4.7c2.5,0.5,5,1.1,7.4,1.6c9.5,1.9,19,3.8,28.6,5.5
		c4.9,0.9,8.9-1.1,12-4.9c3.1-3.8,4.9-8.2,5.9-12.8c1.6-7.6,3.2-15.2,4.3-22.8c1.5-10.3,2.5-20.6,3.6-31c0.7-6.9,1.2-13.9,1.7-20.8
		c0-0.2,0-0.4,0-0.7c-0.5,0-0.9,0-1.3,0c-21.5,0-43,0-64.6,0c-0.8,0-1.4,0.2-2,0.8c-2.5,2.6-5.1,5.2-7.7,7.7
		c-0.3,0.3-0.6,0.5-0.9,0.9c-5.1-4.3-10.2-8.6-15.4-13c2.5-2.2,4.9-4.3,7.4-6.3c0.7-0.6,0.9-1.2,1-2c0.8-9,1.7-17.9,2.5-26.9
		c0.9-9.6,1.7-19.3,2.5-28.9c0.6-8,1.2-16.1,1.6-24.2c0.2-2.7,0-5.4,0-8.5c8.6,4.1,16.8,8,25.1,11.9c-2.9,2.3-5.6,4.5-8.5,6.5
		c-1.8,1.2-2.3,2.7-2.5,4.7c-0.6,8.5-1.3,17.1-2,25.6c-0.6,7.2-1.2,14.5-1.8,21.7c-0.5,6.7-1.1,13.4-1.6,20.1
		C83.1,182.1,83,182.9,83,183.8z"/>
	<path d="M44.1,244.1c31.9-7.8,62.9-17.9,94.2-27.2c0.4,1.2,0.8,2.3,1.2,3.5c-2.8,1.2-5.5,2.3-8.2,3.4
		c-22.2,9.4-43.9,19.9-65.1,31.5c-0.6,0.3-1.1,0.8-1.4,1.4c-1.8,2.8-3.5,5.6-5.4,8.6C54.2,258.1,49.1,251.1,44.1,244.1z"/>
</g>
</svg>
