<?xml version="1.0" encoding="utf-8"?>
<!-- Generator: Adobe Illustrator 20.1.0, SVG Export Plug-In . SVG Version: 6.00 Build 0)  -->
<svg version="1.1" id="图层_1" xmlns="http://www.w3.org/2000/svg" xmlns:xlink="http://www.w3.org/1999/xlink" x="0px" y="0px"
	 viewBox="0 0 360 360" style="enable-background:new 0 0 360 360;" xml:space="preserve">
<style type="text/css">
	.st0{fill:#FFFFFF;}
</style>
<g>
	<path class="st0" d="M0.2,360.5c0-120.1,0-240.2,0-360.2c120.1,0,240.2,0,360.2,0c0,120.1,0,240.2,0,360.2
		C240.4,360.5,120.3,360.5,0.2,360.5z M272.5,82.6c0,0.6,0,1,0,1.4c0,61.7,0,123.4,0,185c0,1.9-0.2,3.8-0.6,5.6
		c-1.1,5.1-4.1,7.8-9.4,8.2c-2,0.2-4.1-0.1-6.2-0.3c-8.8-0.8-17.7-1.7-26.5-2.6c-2.2-0.2-4.4-0.4-6.8-0.6c0,1.4,0,2.6,0,3.8
		c0,0.7,0.2,1,0.9,1.1c1.9,0.4,3.7,0.9,5.6,1.4c7.2,1.9,14.1,4.4,20.4,8.4c5,3.2,9.2,7.3,11.1,13.1c0.5,1.6,0.8,3.4,1.2,5.1
		c6.1-1.9,12-4.5,17-8.6c5.4-4.5,9-10.1,10.5-17c0.9-4.1,0.7-8.2,0.7-12.4c0-61.9,0-123.8-0.1-185.8c0-0.9,0.3-1.5,0.9-2
		c2.8-2.4,5.6-4.9,8.5-7.4c-7.1-5.1-14.2-10.2-21.3-15.4c-2.5,3.6-5,7-7.3,10.5c-0.7,1-1.3,1.3-2.5,1.3c-32.6,0-65.3,0-97.9,0
		c-0.5,0-1,0-1.6,0c0.1,0.3,0.1,0.4,0.2,0.5c3.2,3.3,6.5,6.5,9.8,9.7c0.3,0.3,0.9,0.3,1.3,0.2c9.2-2.4,18.6-3.3,28.1-3.3
		c20.9,0,41.8,0,62.6,0C271.5,82.6,271.9,82.6,272.5,82.6z M78.4,312.2c0.4-0.2,0.9-0.3,1.3-0.5c5.6-2.3,11.3-4.7,17-6.9
		c1.3-0.5,1.6-1.1,1.5-2.4c-0.4-9.2-1-18.4-1-27.7c-0.1-52.1,0-104.3-0.1-156.4c0-1.9,0.5-3.3,2-4.5c2.5-2,4.9-4.2,7.5-6.5
		c-9.5-4.7-18.8-9.4-28.2-14.1C79.6,166.2,79.8,239.2,78.4,312.2z M99.3,46c0.2,0.3,0.4,0.5,0.6,0.8c5.2,6.5,10.2,13.1,14.6,20.2
		c4.9,7.8,8.9,16,11.3,25c0.6,2.4,1.8,4.8,3.1,6.9c1.6,2.5,3.9,2.7,6.3,0.9c0.8-0.6,1.4-1.3,2.1-2c2.5-3,4.4-6.3,5.8-9.9
		c1.8-4.8,2.1-9.7,0.1-14.6c-1.5-3.6-4.1-6.3-7-8.7c-10.2-8.6-22-14.6-33.8-20.6c-0.2-0.1-0.7-0.1-0.9,0
		C100.7,44.6,100,45.3,99.3,46z"/>
	<path d="M272.5,82.6c-0.6,0-1,0-1.4,0c-20.9,0-41.8,0-62.6,0c-9.5,0-18.9,0.9-28.1,3.3c-0.4,0.1-1,0-1.3-0.2
		c-3.3-3.2-6.5-6.5-9.8-9.7c-0.1-0.1-0.1-0.2-0.2-0.5c0.6,0,1.1,0,1.6,0c32.6,0,65.3,0,97.9,0c1.2,0,1.9-0.4,2.5-1.3
		c2.4-3.5,4.8-6.9,7.3-10.5c7.1,5.1,14.2,10.2,21.3,15.4c-2.9,2.5-5.7,5-8.5,7.4c-0.7,0.6-0.9,1.1-0.9,2c0,61.9,0,123.8,0.1,185.8
		c0,4.2,0.2,8.3-0.7,12.4c-1.5,6.9-5.1,12.5-10.5,17c-5,4.1-10.8,6.7-17,8.6c-0.4-1.8-0.7-3.5-1.2-5.1c-1.9-5.9-6.1-9.9-11.1-13.1
		c-6.3-4.1-13.2-6.5-20.4-8.4c-1.9-0.5-3.7-1-5.6-1.4c-0.7-0.2-0.9-0.5-0.9-1.1c0-1.2,0-2.5,0-3.8c2.4,0.2,4.6,0.4,6.8,0.6
		c8.8,0.9,17.7,1.7,26.5,2.6c2.1,0.2,4.2,0.5,6.2,0.3c5.2-0.4,8.3-3.1,9.4-8.2c0.4-1.8,0.6-3.7,0.6-5.6c0-61.7,0-123.4,0-185
		C272.5,83.6,272.5,83.2,272.5,82.6z"/>
	<path d="M78.4,312.2c1.4-73,1.2-146-0.1-219c9.4,4.7,18.7,9.4,28.2,14.1c-2.6,2.3-4.9,4.5-7.5,6.5c-1.6,1.2-2,2.5-2,4.5
		c0.1,52.1,0,104.3,0.1,156.4c0,9.2,0.6,18.4,1,27.7c0.1,1.3-0.2,1.9-1.5,2.4c-5.7,2.2-11.3,4.6-17,6.9
		C79.3,311.9,78.8,312,78.4,312.2z"/>
	<path d="M99.3,46c0.7-0.7,1.4-1.4,2.1-2c0.2-0.2,0.7-0.2,0.9,0c11.8,6,23.5,12,33.8,20.6c2.9,2.4,5.5,5.1,7,8.7
		c2,4.9,1.7,9.8-0.1,14.6c-1.4,3.6-3.3,6.9-5.8,9.9c-0.6,0.7-1.3,1.4-2.1,2c-2.4,1.8-4.7,1.6-6.3-0.9c-1.3-2.1-2.4-4.5-3.1-6.9
		c-2.4-9-6.4-17.2-11.3-25c-4.4-7.1-9.4-13.7-14.6-20.2C99.7,46.5,99.6,46.3,99.3,46z"/>
</g>
</svg>
