<?xml version="1.0" encoding="utf-8"?>
<!-- Generator: Adobe Illustrator 20.1.0, SVG Export Plug-In . SVG Version: 6.00 Build 0)  -->
<svg version="1.1" id="图层_1" xmlns="http://www.w3.org/2000/svg" xmlns:xlink="http://www.w3.org/1999/xlink" x="0px" y="0px"
	 viewBox="0 0 360 360" style="enable-background:new 0 0 360 360;" xml:space="preserve">
<style type="text/css">
	.st0{fill:#FFFFFF;}
</style>
<g>
	<path class="st0" d="M0.2,360.5c0-120.1,0-240.2,0-360.2c120.1,0,240.2,0,360.2,0c0,120.1,0,240.2,0,360.2
		C240.4,360.5,120.3,360.5,0.2,360.5z M78.2,113.3c69.9,0,139.7,0,209.6,0c-1.4,3.4-2.7,6.7-4,9.9c-3.2,8.1-6.5,16.2-9.7,24.2
		c-0.2,0.4-0.2,1.1,0.1,1.3c0.9,0.8,2,1.4,3.1,2.1c0.4-0.6,0.7-1,1-1.5c5.5-8,11.4-15.6,18.4-22.4c4.2-4.1,8.8-7.9,14.1-10.4
		c2-1,4.2-1.6,6.1-2.4c-6.9-6.9-13.9-13.9-21-21c-0.2,0.2-0.4,0.5-0.7,0.8c-3,3.7-6.1,7.3-9,11.1c-0.6,0.7-1.2,1-2.1,1
		c-68.2,0-136.3,0-204.5,0c-0.5,0-0.9,0-1.5,0c-0.4-4-0.8-7.9-1.2-11.8c-1.3,0-2.5,0.1-3.7,0c-0.9-0.1-1.1,0.3-1.3,1.1
		c-1.7,6.7-3.3,13.4-5.3,20c-2.5,8.1-6.1,15.6-11.5,22.2c-1.4,1.7-2.5,3.8-3.4,5.9c-1.4,3.4-0.1,5.7,3.4,6.6c3.6,0.9,7.3,1,10.9,0.4
		c7.8-1.3,12.7-6.4,13-14.3c0.2-5-0.2-10.1-0.4-15.1C78.7,118.5,78.4,115.9,78.2,113.3z M157.1,48.3c2.1,3.4,4.2,6.6,6.2,9.9
		c6.3,10.6,11.7,21.5,14.3,33.7c0.4,2.1,1.5,4.2,2.7,6.1c1.1,1.8,3.1,2.2,5.1,1.3c1.1-0.5,2.1-1.2,3-1.9c2.8-2.4,5.1-5.3,6.8-8.6
		c2.9-5.7,2.8-11.3-0.8-16.5c-1.9-2.7-4.4-5.2-6.8-7.5c-7.8-7.4-16.7-13.3-26.1-18.4c-0.3-0.2-0.9-0.3-1.2-0.2
		C159.2,46.8,158.1,47.5,157.1,48.3z"/>
	<path d="M78.2,113.3c0.2,2.7,0.5,5.2,0.6,7.8c0.2,5,0.6,10.1,0.4,15.1c-0.3,7.9-5.2,13-13,14.3c-3.7,0.6-7.3,0.5-10.9-0.4
		c-3.6-0.9-4.8-3.2-3.4-6.6c0.9-2.1,2-4.1,3.4-5.9c5.4-6.6,9-14.2,11.5-22.2c2-6.6,3.6-13.3,5.3-20c0.2-0.8,0.4-1.2,1.3-1.1
		c1.2,0.1,2.4,0,3.7,0c0.4,4,0.8,7.9,1.2,11.8c0.6,0,1,0,1.5,0c68.2,0,136.3,0,204.5,0c0.9,0,1.5-0.2,2.1-1c3-3.7,6-7.4,9-11.1
		c0.2-0.3,0.5-0.6,0.7-0.8c7.1,7.1,14.1,14.1,21,21c-1.9,0.7-4.1,1.4-6.1,2.4c-5.4,2.5-9.9,6.3-14.1,10.4
		c-7,6.8-12.8,14.5-18.4,22.4c-0.3,0.5-0.6,0.9-1,1.5c-1.1-0.7-2.1-1.3-3.1-2.1c-0.2-0.2-0.2-0.9-0.1-1.3c3.2-8.1,6.4-16.2,9.7-24.2
		c1.3-3.3,2.6-6.5,4-9.9C217.9,113.3,148.1,113.3,78.2,113.3z"/>
	<path d="M157.1,48.3c1-0.7,2.1-1.5,3.2-2.1c0.3-0.2,0.8,0,1.2,0.2c9.4,5.1,18.3,11,26.1,18.4c2.5,2.3,4.9,4.8,6.8,7.5
		c3.7,5.2,3.8,10.9,0.8,16.5c-1.7,3.3-4,6.1-6.8,8.6c-0.9,0.8-1.9,1.4-3,1.9c-2,0.9-4,0.5-5.1-1.3c-1.2-1.9-2.2-3.9-2.7-6.1
		c-2.5-12.2-8-23.1-14.3-33.7C161.3,54.9,159.2,51.6,157.1,48.3z"/>
</g>
</svg>
