<?xml version="1.0" encoding="utf-8"?>
<!-- Generator: Adobe Illustrator 20.1.0, SVG Export Plug-In . SVG Version: 6.00 Build 0)  -->
<svg version="1.1" id="图层_1" xmlns="http://www.w3.org/2000/svg" xmlns:xlink="http://www.w3.org/1999/xlink" x="0px" y="0px"
	 viewBox="0 0 360 360" style="enable-background:new 0 0 360 360;" xml:space="preserve">
<style type="text/css">
	.st0{fill:#FFFFFF;}
</style>
<g>
	<path class="st0" d="M0.2,360.5c0-120.1,0-240.2,0-360.2c120.1,0,240.2,0,360.2,0c0,120.1,0,240.2,0,360.2
		C240.4,360.5,120.3,360.5,0.2,360.5z M59.3,312.3c0.7,1.5,1.4,2.9,2.1,4.2c0.1,0.3,0.7,0.4,1,0.4c5.5-0.8,10.9-1.6,16.4-2.5
		c16.5-2.6,32.8-5.7,49-9.6c16.4-4,32.5-8.6,48-15.1c10.6-4.4,20.7-9.6,29.8-16.7c0.7-0.5,1.3-0.6,2-0.3
		c11.7,4.4,23.4,9.1,34.7,14.5c11.2,5.4,22.1,11.4,32,19c2.4,1.8,5,3.5,7.6,5c1.9,1.1,4.1,1.8,6.2,2.4c2.6,0.6,4.3-0.6,4.8-3.2
		c0.2-0.9,0.3-1.9,0.2-2.9c-0.6-10.4-4.9-18.8-13.9-24.2c-4-2.4-8.3-4.3-12.6-6c-13.7-5.3-27.9-9.3-42-13.3
		c-2.8-0.8-5.7-1.6-8.6-2.4c0.3-0.4,0.5-0.7,0.7-1c2.7-3.7,5.5-7.4,8-11.2c8.8-13.5,15.4-28,21.3-43c0.4-1.1,0.9-1.4,2.1-1.4
		c23.6,0,47.3,0,70.9,0c0.5,0,1,0,1.5,0c-8.3-8.3-16.4-16.4-24.8-24.8c-0.2,0.3-0.4,0.7-0.7,1c-5.3,5.4-10.7,10.7-16.1,16
		c-0.4,0.4-1.1,0.7-1.6,0.7c-38.1,0-76.2,0-114.4,0c-0.3,0-0.7,0-1.4-0.1c4.6-6.8,8.9-13.3,13.4-19.8c0.5-0.8,1.4-1.4,2.2-1.9
		c2.6-1.4,5.3-2.7,8.2-4.1c-8.8-5.6-17.3-11-26-16.5c-0.6,2-1.2,3.9-1.8,5.7c-4,12.5-9.6,24.3-15.5,35.9c-0.4,0.9-1,0.8-1.7,0.8
		c-31.2,0-62.5,0-93.7,0c-0.5,0-0.9,0-1.4,0c0.1,0.2,0.1,0.3,0.1,0.4c3.3,3.3,6.5,6.6,9.9,9.8c0.3,0.3,0.9,0.3,1.3,0.2
		c9.2-2.4,18.6-3.3,28-3.3c17.8,0,35.5,0,53.3,0c0.4,0,0.8,0,1.5,0c-7.7,15.2-16.6,29.5-25.9,43.6c25.8,4.9,51.2,10.5,76.5,17.7
		c-0.6,0.4-1,0.7-1.4,1c-12.8,9.3-27,16.1-41.7,21.8c-24.7,9.5-50.2,15.8-76.1,20.9C67,310.8,63.2,311.5,59.3,312.3z"/>
	<path d="M59.3,312.3c3.9-0.7,7.7-1.4,11.5-2.2c25.9-5.1,51.5-11.4,76.1-20.9c14.7-5.7,28.9-12.5,41.7-21.8c0.4-0.3,0.8-0.6,1.4-1
		c-25.3-7.2-50.7-12.7-76.5-17.7c9.3-14.1,18.2-28.4,25.9-43.6c-0.7,0-1.1,0-1.5,0c-17.8,0-35.5,0-53.3,0c-9.5,0-18.8,0.9-28,3.3
		c-0.4,0.1-1,0-1.3-0.2c-3.3-3.2-6.6-6.5-9.9-9.8c0,0,0-0.1-0.1-0.4c0.5,0,1,0,1.4,0c31.2,0,62.5,0,93.7,0c0.7,0,1.3,0,1.7-0.8
		c5.9-11.6,11.5-23.4,15.5-35.9c0.6-1.9,1.1-3.7,1.8-5.7c8.6,5.5,17.2,11,26,16.5c-2.9,1.4-5.6,2.7-8.2,4.1
		c-0.8,0.5-1.7,1.1-2.2,1.9c-4.5,6.5-8.8,13-13.4,19.8c0.7,0.1,1.1,0.1,1.4,0.1c38.1,0,76.2,0,114.4,0c0.6,0,1.2-0.3,1.6-0.7
		c5.4-5.3,10.7-10.7,16.1-16c0.3-0.3,0.5-0.7,0.7-1c8.4,8.4,16.5,16.5,24.8,24.8c-0.5,0-1,0-1.5,0c-23.6,0-47.3,0-70.9,0
		c-1.1,0-1.6,0.3-2.1,1.4c-5.8,14.9-12.5,29.5-21.3,43c-2.5,3.8-5.3,7.5-8,11.2c-0.2,0.3-0.4,0.6-0.7,1c2.9,0.8,5.8,1.6,8.6,2.4
		c14.2,4,28.3,7.9,42,13.3c4.3,1.7,8.7,3.6,12.6,6c9,5.5,13.2,13.9,13.9,24.2c0.1,0.9,0,1.9-0.2,2.9c-0.6,2.6-2.3,3.8-4.8,3.2
		c-2.1-0.5-4.3-1.3-6.2-2.4c-2.7-1.5-5.2-3.1-7.6-5c-10-7.5-20.8-13.6-32-19c-11.3-5.4-22.9-10.1-34.7-14.5c-0.8-0.3-1.3-0.2-2,0.3
		c-9.1,7.1-19.2,12.3-29.8,16.7c-15.6,6.5-31.7,11.2-48,15.1c-16.2,3.9-32.6,7-49,9.6c-5.4,0.9-10.9,1.7-16.4,2.5
		c-0.3,0-0.9-0.1-1-0.4C60.7,315.2,60,313.7,59.3,312.3z M226.6,205.1c-0.7,0-1.1,0-1.5,0c-21.8,0-43.7,0-65.5,0
		c-0.9,0-1.4,0.2-1.9,1c-6,10.3-12,20.5-18.1,30.8c-1.6,2.7-3.2,5.3-4.8,8.1c0.3,0.1,0.6,0.2,0.8,0.2c5.8,1,11.6,1.8,17.4,2.9
		c15.2,2.8,30.3,5.6,45.5,8.5c0.7,0.1,1.1,0.1,1.6-0.5c9.9-13.2,18-27.3,23.7-42.8C224.8,210.6,225.6,208,226.6,205.1z"/>
	<path class="st0" d="M226.6,205.1c-1,2.9-1.9,5.6-2.8,8.2c-5.7,15.5-13.8,29.7-23.7,42.8c-0.5,0.6-0.9,0.7-1.6,0.5
		c-15.1-2.9-30.3-5.7-45.5-8.5c-5.8-1.1-11.6-1.9-17.4-2.9c-0.2,0-0.4-0.1-0.8-0.2c1.6-2.8,3.2-5.4,4.8-8.1
		c6-10.3,12.1-20.5,18.1-30.8c0.5-0.8,1-1,1.9-1c21.8,0,43.7,0,65.5,0C225.5,205.1,226,205.1,226.6,205.1z"/>
</g>
</svg>
