<?xml version="1.0" encoding="utf-8"?>
<!-- Generator: Adobe Illustrator 20.1.0, SVG Export Plug-In . SVG Version: 6.00 Build 0)  -->
<svg version="1.1" id="图层_1" xmlns="http://www.w3.org/2000/svg" xmlns:xlink="http://www.w3.org/1999/xlink" x="0px" y="0px"
	 viewBox="0 0 360 360" style="enable-background:new 0 0 360 360;" xml:space="preserve">
<style type="text/css">
	.st0{fill:#FFFFFF;}
</style>
<g>
	<path class="st0" d="M0.2,360.5c0-120.1,0-240.2,0-360.2c120.1,0,240.2,0,360.2,0c0,120.1,0,240.2,0,360.2
		C240.4,360.5,120.3,360.5,0.2,360.5z M47.5,318.2c13.1-6.3,25.4-13.5,36.9-22c16.3-12.2,30.1-26.7,40.4-44.4
		c0.1-0.2,0.3-0.4,0.5-0.6c8.6,7.1,16.8,14.4,24,22.9c2.9,3.4,5.5,7,8.5,10.3c1.2,1.3,2.8,2.4,4.4,3.2c1.6,0.9,3.2,0.3,4.3-1.2
		c0.4-0.5,0.7-1.2,1-1.8c3.5-8.2,1.5-18.7-4.7-25.1c-1.8-1.9-3.8-3.7-5.9-5.3c-7.5-5.9-15.8-10.7-24.2-15.3c-0.5-0.3-1-0.6-1.3-0.7
		c2.4-7.4,4.8-14.6,7-21.9c4.7-15.8,8.4-31.9,11.3-48.1c2.6-14.4,4.8-28.8,7.2-43.2c0.1-0.6,0.5-1.3,0.9-1.7
		c2.8-2.9,5.8-5.8,8.7-8.7c-5.9-4.7-11.8-9.4-17.7-14.2c-0.3,0.4-0.5,0.8-0.8,1.2c-2.3,3.6-4.6,7.2-6.9,10.8c-0.5,0.7-1,1-1.8,1
		c-12.5,0-25,0-37.4,0c-0.4,0-0.9,0-1.4-0.1c1-5.1,1.9-10.1,2.9-15.1c2.5-12.3,5-24.5,7.5-36.7c0.1-0.6,0.6-1.3,1.1-1.7
		c2.5-2,5.1-3.9,7.7-5.8c0.3-0.2,0.5-0.4,0.8-0.7c-8.7-4.3-17.2-8.6-25.9-12.9c-0.1,0.4-0.1,0.6-0.1,0.8c-1.1,9.4-2.1,18.8-3.5,28.2
		c-2.1,14.3-4.6,28.6-6.8,42.8c-0.2,1-0.5,1.3-1.5,1.3c-11.6,0-23.2,0-34.8,0c-0.4,0-0.9,0-1.7,0c2.9,2.9,5.5,5.4,8,8
		c1.1,1.2,2.2,1.4,3.7,1.1c6.9-1.3,13.9-2.5,21-2c0.9,0.1,1.8,0,2.8,0c0.3,0,0.6,0,1,0.1c-6,32.3-12.6,64.5-19.9,96.2
		c8.6,4.2,17.2,8.1,25.6,12.5c8.4,4.3,16.6,9,25,13.6c-15.9,30.5-39.9,52.8-68.4,70.8C46,315.1,46.7,316.6,47.5,318.2z"/>
	<path d="M47.5,318.2c-0.8-1.6-1.6-3.1-2.4-4.8c28.5-18,52.5-40.3,68.4-70.8c-8.4-4.6-16.6-9.3-25-13.6c-8.4-4.3-17-8.3-25.6-12.5
		c7.3-31.8,13.9-63.9,19.9-96.2c-0.4,0-0.7-0.1-1-0.1c-0.9,0-1.8,0-2.8,0c-7.1-0.5-14.1,0.7-21,2c-1.6,0.3-2.6,0.1-3.7-1.1
		c-2.5-2.7-5.1-5.2-8-8c0.8,0,1.2,0,1.7,0c11.6,0,23.2,0,34.8,0c1,0,1.4-0.3,1.5-1.3c2.3-14.3,4.7-28.5,6.8-42.8
		c1.4-9.4,2.3-18.8,3.5-28.2c0-0.2,0.1-0.4,0.1-0.8c8.6,4.3,17.2,8.6,25.9,12.9c-0.3,0.3-0.6,0.5-0.8,0.7c-2.6,1.9-5.1,3.8-7.7,5.8
		c-0.5,0.4-1,1.1-1.1,1.7c-2.5,12.2-5,24.5-7.5,36.7c-1,5-1.9,10-2.9,15.1c0.5,0,0.9,0.1,1.4,0.1c12.5,0,25,0,37.4,0
		c0.9,0,1.4-0.3,1.8-1c2.3-3.6,4.6-7.2,6.9-10.8c0.2-0.4,0.5-0.7,0.8-1.2c5.9,4.8,11.8,9.4,17.7,14.2c-2.9,2.9-5.8,5.8-8.7,8.7
		c-0.4,0.4-0.8,1.1-0.9,1.7c-2.4,14.4-4.7,28.9-7.2,43.2c-2.9,16.2-6.6,32.3-11.3,48.1c-2.2,7.3-4.6,14.5-7,21.9
		c0.3,0.2,0.8,0.5,1.3,0.7c8.4,4.6,16.7,9.4,24.2,15.3c2.1,1.6,4,3.4,5.9,5.3c6.2,6.3,8.2,16.9,4.7,25.1c-0.3,0.6-0.6,1.2-1,1.8
		c-1.1,1.5-2.7,2.1-4.3,1.2c-1.6-0.8-3.2-1.9-4.4-3.2c-2.9-3.3-5.6-6.9-8.5-10.3c-7.2-8.4-15.4-15.8-24-22.9
		c-0.2,0.2-0.4,0.4-0.5,0.6c-10.3,17.7-24.1,32.2-40.4,44.4C73,304.8,60.6,311.9,47.5,318.2z M118.2,231.1
		c12.6-36.1,18.9-73.2,23.6-110.7c-14.3,0-28.3,0-42.1,0c-7.1,31.5-14.1,62.8-21.2,94.4C91.5,220.1,104.8,225.6,118.2,231.1z"/>
	<path class="st0" d="M118.2,231.1c-13.4-5.5-26.7-11-39.7-16.4c7.1-31.6,14.2-62.9,21.2-94.4c13.8,0,27.8,0,42.1,0
		C137,157.9,130.8,195,118.2,231.1z"/>
</g>
</svg>
