<?xml version="1.0" encoding="utf-8"?>
<!-- Generator: Adobe Illustrator 20.1.0, SVG Export Plug-In . SVG Version: 6.00 Build 0)  -->
<svg version="1.1" id="图层_1" xmlns="http://www.w3.org/2000/svg" xmlns:xlink="http://www.w3.org/1999/xlink" x="0px" y="0px"
	 viewBox="0 0 360 360" style="enable-background:new 0 0 360 360;" xml:space="preserve">
<style type="text/css">
	.st0{fill:#FFFFFF;}
</style>
<g>
	<path class="st0" d="M0.2,360.5c0-120.1,0-240.2,0-360.2c120.1,0,240.2,0,360.2,0c0,120.1,0,240.2,0,360.2
		C240.4,360.5,120.3,360.5,0.2,360.5z M60.5,62.5c1.3,0.9,2.4,1.8,3.6,2.7c14,10.7,26.5,22.8,36.8,37.2c0.7,1,0.7,1.6-0.1,2.5
		c-8.2,10.5-17.5,19.9-27.8,28.4c-7.6,6.3-15.6,12.1-23.4,18.1c-0.3,0.2-0.7,0.7-0.7,0.9c0.3,1.4,0.7,2.8,1.1,4.4
		c10.6-5.5,20.8-11.5,30.6-18.2c9.7-6.8,18.8-14.3,27.1-22.9c0.1,0.3,0.2,0.5,0.3,0.7c3.2,9.8,6,19.7,7.8,29.9
		c0.1,0.7-0.1,1.7-0.4,2.4c-3.1,5.9-6.1,11.9-9.5,17.6c-11.9,20.1-26.2,38.3-41.8,55.6c-6.3,6.9-12.8,13.5-19.2,20.3
		c-0.3,0.3-0.6,0.8-0.5,1.1c0.2,1.1,0.7,2.1,1,3.3c30.6-20.5,56.5-45.4,75.3-77.2c0.2,1.4,0.3,2.7,0.3,4c0.4,11.4,1,22.8,1.3,34.1
		c0.2,7.8,0,15.7-0.1,23.5c-0.2,11.2-1.1,22.4-3.4,33.5c-1.1,5.4-2.6,10.7-5.1,15.7c-2.5,5-6.4,7.7-12.1,7.9
		c-6.5,0.2-12.9-0.6-19.3-1.9c-2.9-0.6-5.7-1.2-8.7-1.9c-0.4,1.6-0.8,3.1-1.2,4.7c0.5,0.2,0.8,0.3,1.2,0.5c5.1,1.8,10,3.9,14.4,7
		c6.1,4.2,10.8,9.5,12.6,16.9c0,0.1,0.2,0.3,0.3,0.5c1.8-0.9,3.5-1.8,5.3-2.7c10.7-5.9,18.8-14.3,23.8-25.5c3.5-8,5.1-16.4,6.3-25
		c1.8-12.8,2.2-25.7,2.4-38.6c0.1-5.8-0.1-11.6-0.1-17.4c-0.2-14-1.4-28-3.6-41.9c-3.1-19.1-8.2-37.6-16-55.3
		c-0.3-0.7-0.2-1.2,0.3-1.8c10-12.1,19.9-24.3,29.8-36.5c0.9-1.1,1.9-1.9,3.2-2.4c2.1-0.8,4.1-1.8,6.4-2.7
		c-6.8-5.2-13.4-10.2-19.9-15.2c-4.3,7.9-8.4,15.7-12.7,23.3c-4.4,7.7-9.3,15.1-14.6,22.4C96.8,80,80.8,68.3,62.8,59
		C62,60.2,61.3,61.3,60.5,62.5z"/>
	<path d="M60.5,62.5c0.8-1.2,1.6-2.4,2.4-3.6c17.9,9.3,34,21,48.3,35.3c5.3-7.3,10.2-14.7,14.6-22.4c4.3-7.7,8.5-15.5,12.7-23.3
		c6.5,4.9,13.1,10,19.9,15.2c-2.2,1-4.3,1.9-6.4,2.7c-1.3,0.5-2.3,1.3-3.2,2.4c-9.9,12.2-19.9,24.3-29.8,36.5
		c-0.5,0.6-0.6,1-0.3,1.8c7.8,17.7,12.9,36.2,16,55.3c2.2,13.9,3.4,27.8,3.6,41.9c0.1,5.8,0.2,11.6,0.1,17.4
		c-0.1,12.9-0.6,25.8-2.4,38.6c-1.2,8.6-2.8,17-6.3,25c-5,11.2-13.1,19.6-23.8,25.5c-1.7,1-3.5,1.8-5.3,2.7
		c-0.1-0.2-0.2-0.3-0.3-0.5c-1.8-7.4-6.4-12.7-12.6-16.9c-4.5-3-9.3-5.2-14.4-7c-0.4-0.1-0.7-0.3-1.2-0.5c0.4-1.6,0.8-3.1,1.2-4.7
		c3,0.6,5.8,1.3,8.7,1.9c6.4,1.3,12.7,2.1,19.3,1.9c5.7-0.2,9.6-2.9,12.1-7.9c2.5-5,3.9-10.3,5.1-15.7c2.3-11,3.1-22.2,3.4-33.5
		c0.2-7.8,0.3-15.7,0.1-23.5c-0.3-11.4-0.8-22.8-1.3-34.1c-0.1-1.3-0.1-2.6-0.3-4c-18.8,31.9-44.6,56.8-75.3,77.2
		c-0.4-1.2-0.8-2.2-1-3.3c-0.1-0.3,0.3-0.8,0.5-1.1c6.4-6.8,13-13.4,19.2-20.3c15.6-17.2,30-35.5,41.8-55.6
		c3.4-5.7,6.4-11.7,9.5-17.6c0.4-0.7,0.5-1.6,0.4-2.4c-1.8-10.2-4.5-20.1-7.8-29.9c-0.1-0.2-0.1-0.3-0.3-0.7
		c-8.3,8.7-17.4,16.2-27.1,22.9c-9.7,6.8-19.9,12.7-30.6,18.2c-0.4-1.5-0.8-2.9-1.1-4.4c-0.1-0.3,0.4-0.7,0.7-0.9
		c7.8-6,15.8-11.9,23.4-18.1c10.3-8.4,19.7-17.8,27.8-28.4c0.7-0.9,0.8-1.5,0.1-2.5C90.6,88.1,78.1,75.9,64.1,65.2
		C62.9,64.4,61.7,63.5,60.5,62.5z"/>
</g>
</svg>
