<?xml version="1.0" encoding="utf-8"?>
<!-- Generator: Adobe Illustrator 20.1.0, SVG Export Plug-In . SVG Version: 6.00 Build 0)  -->
<svg version="1.1" id="图层_1" xmlns="http://www.w3.org/2000/svg" xmlns:xlink="http://www.w3.org/1999/xlink" x="0px" y="0px"
	 viewBox="0 0 360 360" style="enable-background:new 0 0 360 360;" xml:space="preserve">
<style type="text/css">
	.st0{fill:#FFFFFF;}
</style>
<g>
	<path class="st0" d="M0.2,360.5c0-120.1,0-240.2,0-360.2c120.1,0,240.2,0,360.2,0c0,120.1,0,240.2,0,360.2
		C240.4,360.5,120.3,360.5,0.2,360.5z M211.2,282.8c0.4-0.1,0.6-0.1,0.8-0.2c5-1.8,10-3.6,15-5.3c0.7-0.2,0.8-0.6,0.8-1.2
		c-0.2-2.2-0.4-4.4-0.4-6.6c-0.3-12.3-0.5-24.6-0.8-36.9c-0.1-1.9,0.5-3.3,2-4.4c2.2-1.6,4.1-3.5,6.3-5.4c-8.3-4.4-16.5-8.6-24.8-13
		c1,18.6,1.2,36.9,1.1,55.3c-17.7,0-35.2,0-52.8,0c0-0.3-0.1-0.6-0.1-0.9c0-16.3,0-32.6,0-48.8c0-0.5,0.4-1.1,0.8-1.4
		c2.9-2.3,5.8-4.5,8.7-6.8c0.3-0.3,0.7-0.5,1.1-0.9c-9.1-4.3-18-8.6-27.1-13c0,0.6,0,0.9,0,1.2c0.3,11.7,0.7,23.5,0.9,35.2
		c0.2,11.4,0.1,22.8,0.2,34.2c0,1-0.3,1.3-1.3,1.3c-16.8,0-33.6,0-50.4,0c-0.4,0-0.8,0-1.2-0.1c0-0.4-0.1-0.6-0.1-0.9
		c0-12,0-23.9,0-35.9c0-0.5,0.4-1.1,0.8-1.4c2.8-2.2,5.7-4.3,8.6-6.5c-8.7-4-17.3-7.9-26-11.8c0,0.5,0,0.8,0,1.2
		c0.3,7.3,0.7,14.6,0.8,21.9c0.2,10,0.2,20.1,0.3,30.1c0,0.8-0.3,1.2-0.9,1.6c-2,1.3-4.1,2.7-6.2,4.1c5.2,4.8,10.3,9.5,15.4,14.2
		c2.5-2.9,5-5.7,7.4-8.5c0.6-0.7,1.2-1,2.1-1c39.1,0,78.2,0,117.4,0c0.5,0,0.9,0,1.5,0C211.2,275.8,211.2,279.2,211.2,282.8z"/>
	<path d="M211.2,282.8c0-3.5,0-6.9,0-10.5c-0.6,0-1,0-1.5,0c-39.1,0-78.2,0-117.4,0c-0.9,0-1.5,0.3-2.1,1c-2.4,2.8-4.8,5.5-7.4,8.5
		c-5.1-4.7-10.2-9.4-15.4-14.2c2.1-1.4,4.2-2.8,6.2-4.1c0.6-0.4,0.9-0.8,0.9-1.6c-0.1-10-0.1-20.1-0.3-30.1
		c-0.1-7.3-0.6-14.6-0.8-21.9c0-0.3,0-0.6,0-1.2c8.7,3.9,17.3,7.8,26,11.8c-3,2.2-5.8,4.3-8.6,6.5c-0.4,0.3-0.8,0.9-0.8,1.4
		c0,12,0,23.9,0,35.9c0,0.3,0,0.5,0.1,0.9c0.4,0,0.8,0.1,1.2,0.1c16.8,0,33.6,0,50.4,0c1,0,1.3-0.3,1.3-1.3
		c-0.1-11.4,0-22.8-0.2-34.2c-0.2-11.7-0.6-23.5-0.9-35.2c0-0.3,0-0.6,0-1.2c9.1,4.3,18,8.6,27.1,13c-0.4,0.4-0.8,0.6-1.1,0.9
		c-2.9,2.3-5.8,4.5-8.7,6.8c-0.4,0.3-0.8,1-0.8,1.4c0,16.3,0,32.6,0,48.8c0,0.3,0,0.5,0.1,0.9c17.6,0,35.1,0,52.8,0
		c0.1-18.4-0.2-36.8-1.1-55.3c8.4,4.4,16.5,8.6,24.8,13c-2.2,1.9-4.2,3.8-6.3,5.4c-1.6,1.2-2.1,2.5-2,4.4
		c0.3,12.3,0.5,24.6,0.8,36.9c0,2.2,0.3,4.4,0.4,6.6c0,0.6-0.1,1-0.8,1.2c-5,1.8-10,3.6-15,5.3C211.8,282.7,211.6,282.7,211.2,282.8
		z"/>
</g>
</svg>
