<?xml version="1.0" encoding="utf-8"?>
<!-- Generator: Adobe Illustrator 20.1.0, SVG Export Plug-In . SVG Version: 6.00 Build 0)  -->
<svg version="1.1" id="图层_1" xmlns="http://www.w3.org/2000/svg" xmlns:xlink="http://www.w3.org/1999/xlink" x="0px" y="0px"
	 viewBox="0 0 360 360" style="enable-background:new 0 0 360 360;" xml:space="preserve">
<style type="text/css">
	.st0{fill:#FFFFFF;}
</style>
<g>
	<path class="st0" d="M0.2,360.5c0-120.1,0-240.2,0-360.2c120.1,0,240.2,0,360.2,0c0,120.1,0,240.2,0,360.2
		C240.4,360.5,120.3,360.5,0.2,360.5z M73.5,236.8c0-0.7,0-1.2,0-1.7c0-36.8,0-73.7-0.1-110.5c0-3.1,0.6-5.5,2.9-7.6
		c1.6-1.5,2.8-3.2,4.3-5c-7.9-4-15.7-7.9-23.7-11.8c0.1,3.1,0.3,5.9,0.4,8.8c0.3,12.2,0.5,24.4,0.7,36.6c0.1,7.4,0.1,14.8,0.1,22.2
		c0,19.7,0,39.4,0,59c0,4.9-1,9.5-3.1,13.9c-0.3,0.7-0.3,1.2,0.1,1.9c3,5,6.1,10.1,9.1,15.1c0.3,0.5,0.7,1.1,1,1.7
		c0.7-0.6,1.3-1.1,1.9-1.6c5.1-4.1,11-6.9,17-9.5c13.5-5.9,27.6-10.3,41.7-14.4c1.7-0.5,3.4-1,5.4-1.5c0,7.9,0,15.6,0,23.5
		c0.3-0.1,0.5-0.2,0.6-0.3c5.1-2.9,10.1-5.8,15.2-8.7c0.6-0.3,0.7-0.7,0.6-1.3c-0.4-14.5-1-29.1-1.1-43.6c-0.2-26.8,0-53.5-0.1-80.3
		c0-0.9,0.2-1.5,0.8-2.1c1.5-1.4,2.8-2.8,4.3-4.2c1-1,2.1-2,3.3-3.1c-8.4-4-16.6-7.9-24.8-11.8c0,0.5,0,0.7,0,1
		c0.2,8.6,0.5,17.2,0.6,25.8c0.1,8.6,0.2,17.2,0.3,25.8c0,4,0.1,7.9,0.1,11.9c0.1,20.6,0.1,41.2,0.2,61.8c0,0.8-0.2,1.1-1,1.2
		c-4.9,0.7-9.9,1.5-14.8,2.3c-2.1,0.3-4.2,0.7-6.5,1c0-0.7,0-1.3,0-1.8c0-53.4,0-106.8,0-160.2c0-0.2-0.1-0.4,0-0.6
		c0.2-0.6,0.4-1.3,0.8-1.7c1.3-1.2,2.6-2.3,3.9-3.5c1.5-1.3,3-2.7,4.7-4.1c-8.7-4-17.3-7.8-25.9-11.8c0,0.4-0.1,0.6-0.1,0.8
		c0.2,9.6,0.4,19.3,0.5,28.9c0.1,7.8,0.2,15.5,0.2,23.3c0.1,12.7,0.2,25.4,0.2,38c0.1,15.1,0.1,30.2,0.1,45.2
		c0,16.2,0,32.3,0.1,48.5c0,1-0.2,1.5-1.3,1.6c-2,0.3-4,0.7-6,1C82,235.3,77.8,236.1,73.5,236.8z"/>
	<path d="M73.5,236.8c4.4-0.8,8.5-1.5,12.7-2.2c2-0.4,4-0.8,6-1c1.1-0.1,1.3-0.6,1.3-1.6c-0.1-16.2-0.1-32.3-0.1-48.5
		c0-15.1,0-30.2-0.1-45.2c0-12.7-0.1-25.4-0.2-38C93,92.5,93,84.7,92.8,76.9c-0.2-9.6-0.4-19.3-0.5-28.9c0-0.2,0-0.5,0.1-0.8
		c8.7,3.9,17.2,7.8,25.9,11.8c-1.7,1.5-3.2,2.8-4.7,4.1c-1.3,1.2-2.7,2.3-3.9,3.5c-0.4,0.4-0.6,1.1-0.8,1.7c-0.1,0.2,0,0.4,0,0.6
		c0,53.4,0,106.8,0,160.2c0,0.5,0,1.1,0,1.8c2.3-0.4,4.4-0.7,6.5-1c4.9-0.8,9.9-1.6,14.8-2.3c0.8-0.1,1-0.4,1-1.2
		c-0.1-20.6-0.1-41.2-0.2-61.8c0-4,0-7.9-0.1-11.9c-0.1-8.6-0.1-17.2-0.3-25.8c-0.1-8.6-0.4-17.2-0.6-25.8c0-0.2,0-0.5,0-1
		c8.3,3.9,16.4,7.8,24.8,11.8c-1.2,1.1-2.2,2.1-3.3,3.1c-1.4,1.4-2.8,2.9-4.3,4.2c-0.6,0.6-0.8,1.2-0.8,2.1
		c0,26.8-0.1,53.5,0.1,80.3c0.1,14.5,0.7,29.1,1.1,43.6c0,0.6,0,1-0.6,1.3c-5.1,2.9-10.1,5.8-15.2,8.7c-0.1,0.1-0.3,0.1-0.6,0.3
		c0-7.8,0-15.6,0-23.5c-1.9,0.6-3.6,1-5.4,1.5c-14.1,4.2-28.2,8.5-41.7,14.4c-6,2.6-11.9,5.4-17,9.5c-0.6,0.5-1.2,1-1.9,1.6
		c-0.4-0.6-0.7-1.1-1-1.7c-3-5-6-10.1-9.1-15.1c-0.4-0.7-0.4-1.2-0.1-1.9c2.1-4.4,3.1-9,3.1-13.9c0-19.7,0-39.4,0-59
		c0-7.4,0-14.8-0.1-22.2c-0.2-12.2-0.5-24.4-0.7-36.6c-0.1-2.8-0.2-5.7-0.4-8.8c7.9,4,15.7,7.9,23.7,11.8c-1.5,1.7-2.7,3.5-4.3,5
		c-2.3,2.1-2.9,4.5-2.9,7.6c0.1,36.8,0.1,73.7,0.1,110.5C73.5,235.6,73.5,236.1,73.5,236.8z"/>
</g>
</svg>
