<?xml version="1.0" encoding="utf-8"?>
<!-- Generator: Adobe Illustrator 20.1.0, SVG Export Plug-In . SVG Version: 6.00 Build 0)  -->
<svg version="1.1" id="图层_1" xmlns="http://www.w3.org/2000/svg" xmlns:xlink="http://www.w3.org/1999/xlink" x="0px" y="0px"
	 viewBox="0 0 360 360" style="enable-background:new 0 0 360 360;" xml:space="preserve">
<style type="text/css">
	.st0{fill:#FFFFFF;}
</style>
<g>
	<path class="st0" d="M0.2,360.5c0-120.1,0-240.2,0-360.2c120.1,0,240.2,0,360.2,0c0,120.1,0,240.2,0,360.2
		C240.4,360.5,120.3,360.5,0.2,360.5z M93.5,119.1c2.5-2.5,5-4.9,7.4-7.4c0.6-0.6,1.2-0.8,2.1-0.8c54.1,0,108.2,0,162.2,0
		c0.5,0,0.9,0,1.5,0c0,4,0,7.8,0,11.7c0.2-0.1,0.3-0.1,0.4-0.1c5.5-2.6,11.1-5.1,16.6-7.8c0.3-0.1,0.6-0.7,0.6-1.1
		c-0.9-12-1.1-24-1-35.9c0-0.6,0.3-1.2,0.7-1.6c2.9-2.9,5.8-5.8,8.8-8.8c-9.1-4-18.1-7.9-27.2-11.8c1,16.2,1.1,32.2,1.2,48.2
		c-24.4,0-48.6,0-72.9,0c0-0.2-0.1-0.4-0.1-0.5c0-14.1,0-28.2,0-42.2c0-0.4,0.3-1,0.6-1.3c2-1.8,4.1-3.6,6.1-5.4
		c0.8-0.7,1.7-1.5,2.6-2.3C194,47.9,185,44,176,40.1c1.1,21.3,1,42.4,1.2,63.5c-25.2,0-50.2,0-75.3,0c0-0.3-0.1-0.6-0.1-0.9
		c0-9.6,0-19.2,0-28.8c0-0.5,0.3-1.1,0.7-1.4c1.8-1.6,3.6-3.2,5.4-4.8c1.1-1,2.2-1.9,3.4-3c-9.1-4-18.1-7.9-27.2-11.8
		c0.1,1,0.2,1.8,0.2,2.6c0.3,13.6,0.7,27.2,1,40.8c0,1.1-0.3,1.8-1.1,2.4c-2.4,2-4.7,4-7.2,6.1C82.5,109.7,87.9,114.4,93.5,119.1z"
		/>
	<path d="M93.5,119.1c-5.5-4.7-11-9.4-16.5-14.2c2.4-2.1,4.8-4.1,7.2-6.1c0.8-0.7,1.1-1.4,1.1-2.4c-0.4-13.6-0.7-27.2-1-40.8
		c0-0.8-0.1-1.6-0.2-2.6c9.1,4,18.1,7.9,27.2,11.8c-1.2,1.1-2.3,2-3.4,3c-1.8,1.6-3.6,3.1-5.4,4.8c-0.4,0.3-0.6,0.9-0.7,1.4
		c0,9.6,0,19.2,0,28.8c0,0.3,0,0.5,0.1,0.9c25.1,0,50.1,0,75.3,0c-0.1-21.1,0-42.3-1.2-63.5c9,3.9,18,7.8,27.1,11.8
		c-0.9,0.8-1.8,1.6-2.6,2.3c-2,1.8-4.1,3.6-6.1,5.4c-0.3,0.3-0.6,0.8-0.6,1.3c0,14.1,0,28.2,0,42.2c0,0.2,0,0.3,0.1,0.5
		c24.3,0,48.5,0,72.9,0c0-16-0.1-32.1-1.2-48.2c9.1,4,18.1,7.9,27.2,11.8c-3,3-5.9,5.9-8.8,8.8c-0.4,0.4-0.7,1.1-0.7,1.6
		c-0.1,12,0.2,24,1,35.9c0,0.4-0.3,0.9-0.6,1.1c-5.5,2.6-11.1,5.2-16.6,7.8c-0.1,0-0.2,0.1-0.4,0.1c0-3.9,0-7.7,0-11.7
		c-0.6,0-1,0-1.5,0c-54.1,0-108.2,0-162.2,0c-0.9,0-1.5,0.2-2.1,0.8C98.5,114.2,96,116.6,93.5,119.1z"/>
</g>
</svg>
