<?xml version="1.0" encoding="utf-8"?>
<!-- Generator: Adobe Illustrator 20.1.0, SVG Export Plug-In . SVG Version: 6.00 Build 0)  -->
<svg version="1.1" id="图层_1" xmlns="http://www.w3.org/2000/svg" xmlns:xlink="http://www.w3.org/1999/xlink" x="0px" y="0px"
	 viewBox="0 0 360 360" style="enable-background:new 0 0 360 360;" xml:space="preserve">
<style type="text/css">
	.st0{fill:#FFFFFF;}
</style>
<g>
	<path class="st0" d="M0.2,360.5c0-120.1,0-240.2,0-360.2c120.1,0,240.2,0,360.2,0c0,120.1,0,240.2,0,360.2
		C240.4,360.5,120.3,360.5,0.2,360.5z M48.8,291.2c0.5,0.8,1.2,1.7,1.7,2.6c0.4,0.7,0.8,0.8,1.6,0.5c27.5-10.8,52.4-25.8,74.4-45.5
		c8-7.1,16.1-14.1,24.9-20.2c4.5-3.1,9.1-6.4,14.7-7.1c-6.5-6.5-13.1-13.1-19.7-19.7c-1.8,2.7-3.6,5.5-5.5,8.3
		c-7.9,11-17,20.9-26.4,30.5c-14,14.4-29.5,26.9-46.2,38.1C61.9,282.9,55.4,286.9,48.8,291.2z M52.2,208.6c0.3-0.1,0.5-0.2,0.6-0.2
		c4.2-2,8.4-4,12.5-6.1c18.3-9.6,35-21.3,50-35.5c5.8-5.6,11.5-11.3,17.6-16.7c6.8-6,13.6-12.4,22.9-14.7
		c-6.6-6.2-13.2-12.4-19.8-18.6c-1.8,3.1-3.5,6.1-5.3,9c-9.6,14.8-21.1,28-33.4,40.6c-11.7,11.9-24.5,22.4-37.9,32.1
		c-3.1,2.2-6.3,4.4-9.4,6.7C50.7,206.3,51.4,207.4,52.2,208.6z M48.7,133.2c0.8,1.2,1.6,2.4,2.4,3.5c0.3-0.1,0.5-0.3,0.7-0.4
		c14.1-7.9,27.7-16.4,40.6-26.1c8.1-6.1,15.8-12.8,22.9-20c5-5.1,10-10.1,15.3-14.8c4.5-4,9-8.1,15.6-8.5
		c-6.6-5.8-13.1-11.6-19.8-17.4c-0.8,1.5-1.6,3-2.3,4.3c-9.3,16.6-21.2,31.3-34.5,44.8C79,109.4,67.5,119,55.4,128.2
		C53.2,129.8,51,131.5,48.7,133.2z"/>
	<path d="M48.8,291.2c6.6-4.3,13.2-8.3,19.6-12.6c16.7-11.2,32.2-23.7,46.2-38.1c9.4-9.7,18.6-19.5,26.4-30.5
		c1.9-2.7,3.7-5.6,5.5-8.3c6.5,6.5,13.1,13.1,19.7,19.7c-5.6,0.7-10.1,4-14.7,7.1c-8.8,6.1-17,13.1-24.9,20.2
		c-22,19.7-47,34.7-74.4,45.5c-0.8,0.3-1.2,0.2-1.6-0.5C49.9,292.9,49.3,292,48.8,291.2z"/>
	<path d="M52.2,208.6c-0.8-1.2-1.6-2.3-2.3-3.5c3.2-2.3,6.3-4.4,9.4-6.7c13.5-9.7,26.3-20.3,37.9-32.1
		c12.3-12.5,23.8-25.8,33.4-40.6c1.9-2.9,3.5-5.9,5.3-9c6.6,6.2,13.2,12.4,19.8,18.6c-9.3,2.3-16,8.7-22.9,14.7
		c-6,5.3-11.7,11.1-17.6,16.7c-14.9,14.3-31.7,25.9-50,35.5c-4.1,2.1-8.3,4.1-12.5,6.1C52.7,208.5,52.5,208.5,52.2,208.6z"/>
	<path d="M48.7,133.2c2.3-1.7,4.5-3.4,6.8-5.1c12-9.1,23.6-18.8,34.2-29.5c13.3-13.5,25.2-28.1,34.5-44.8c0.8-1.4,1.5-2.8,2.3-4.3
		c6.6,5.8,13.2,11.6,19.8,17.4c-6.6,0.4-11.1,4.6-15.6,8.5c-5.3,4.7-10.3,9.8-15.3,14.8c-7.2,7.2-14.8,13.9-22.9,20
		c-12.9,9.7-26.5,18.2-40.6,26.1c-0.2,0.1-0.4,0.2-0.7,0.4C50.3,135.6,49.5,134.4,48.7,133.2z"/>
</g>
</svg>
