<?xml version="1.0" encoding="utf-8"?>
<!-- Generator: Adobe Illustrator 20.1.0, SVG Export Plug-In . SVG Version: 6.00 Build 0)  -->
<svg version="1.1" id="图层_1" xmlns="http://www.w3.org/2000/svg" xmlns:xlink="http://www.w3.org/1999/xlink" x="0px" y="0px"
	 viewBox="0 0 360 360" style="enable-background:new 0 0 360 360;" xml:space="preserve">
<style type="text/css">
	.st0{fill:#FFFFFF;}
</style>
<g>
	<path class="st0" d="M0.2,360.5c0-120.1,0-240.2,0-360.2c120.1,0,240.2,0,360.2,0c0,120.1,0,240.2,0,360.2
		C240.4,360.5,120.3,360.5,0.2,360.5z M78.2,312.2c0.7,0,1.4,0,2.1,0c15.4-0.9,30.7-2.2,46-4c15.4-1.8,30.7-3.9,45.9-6.8
		c21.1-3.9,41.6-9.5,61.7-17c10.6-4,21.1-8.2,31.7-12.1c7.4-2.7,15-5,22.8-6.3c3.7-0.6,7.4-0.8,11.2-1.2c-6.1-7.7-12.4-15.5-18.4-23
		c-6.5,4.1-12.6,8.2-19,12c-12.9,7.6-25.8,15-39.8,20.5c-17.6,7-35.7,12.3-54,16.8c-16.7,4.1-33.5,7.8-50.5,10.7
		c-10.8,1.9-21.7,3.3-32.6,4.9c-2.3,0.3-4.6,0.5-6.9,0.8C78.2,309.2,78.2,310.7,78.2,312.2z M254.9,198
		c-9.3,10.3-20.4,18.1-32.7,24.1c-11.1,5.5-22.4,10.6-33.8,15.7c-19.1,8.5-38.7,15.6-58.9,20.8c-8.9,2.3-17.9,4.3-26.9,6.4
		c-0.4,0.1-0.9,0.5-0.9,0.8c-0.1,1.3,0,2.7,0,4.2c0.7-0.1,1.2-0.1,1.8-0.2c4.2-0.7,8.4-1.3,12.7-2c15-2.5,29.8-5.6,44.4-9.8
		c17.4-5,34.4-11.2,51.2-17.7c12.2-4.7,24.4-9.6,36.7-14.3c6.2-2.3,12.6-4.2,19.2-5.2c1.9-0.3,3.8-0.3,5.9-0.5
		C267.4,212.8,261.2,205.4,254.9,198z M239.7,154.5c-0.2,0.1-0.3,0.1-0.3,0.2c-3.1,5.1-7.4,9-12.1,12.5
		c-8.3,6.2-17.4,10.9-26.7,15.3c-24.5,11.6-49.8,20.9-75.7,28.7c-4.9,1.5-9.9,2.7-14.9,4.1c-0.5,0.1-1.2,0.5-1.2,0.8
		c-0.1,1.3-0.1,2.7-0.1,4.2c0.5,0,0.9,0,1.3-0.1c7.5-1.4,15-2.7,22.5-4.2c22.3-4.7,44.1-11.1,65.4-19.4
		c13.4-5.2,26.7-10.5,40.1-15.5c6.5-2.4,13.1-4.7,20.3-4.5C252.1,169.2,245.9,161.8,239.7,154.5z"/>
	<path d="M78.2,312.2c0-1.5,0-3,0-4.6c2.3-0.3,4.6-0.5,6.9-0.8c10.9-1.6,21.8-3.1,32.6-4.9c17-2.9,33.8-6.6,50.5-10.7
		c18.4-4.5,36.5-9.8,54-16.8c13.9-5.6,26.9-12.9,39.8-20.5c6.4-3.8,12.6-7.9,19-12c6,7.6,12.3,15.4,18.4,23
		c-3.7,0.4-7.5,0.6-11.2,1.2c-7.8,1.3-15.4,3.6-22.8,6.3c-10.6,3.9-21.1,8.1-31.7,12.1c-20.1,7.5-40.6,13.1-61.7,17
		c-15.2,2.8-30.5,5-45.9,6.8c-15.3,1.8-30.6,3.1-46,4C79.6,312.2,78.9,312.2,78.2,312.2z"/>
	<path d="M254.9,198c6.3,7.5,12.5,14.8,18.7,22.2c-2.1,0.2-4,0.2-5.9,0.5c-6.6,0.9-13,2.8-19.2,5.2c-12.3,4.6-24.5,9.5-36.7,14.3
		c-16.9,6.5-33.8,12.7-51.2,17.7c-14.6,4.2-29.5,7.2-44.4,9.8c-4.2,0.7-8.4,1.4-12.7,2c-0.5,0.1-1.1,0.1-1.8,0.2
		c0-1.5-0.1-2.8,0-4.2c0-0.3,0.6-0.7,0.9-0.8c9-2.1,18-4.1,26.9-6.4c20.2-5.3,39.8-12.3,58.9-20.8c11.3-5.1,22.6-10.2,33.8-15.7
		C234.5,216,245.6,208.3,254.9,198z"/>
	<path d="M239.7,154.5c6.2,7.3,12.4,14.7,18.6,22.1c-7.2-0.2-13.8,2.1-20.3,4.5c-13.4,5-26.7,10.3-40.1,15.5
		c-21.3,8.3-43,14.7-65.4,19.4c-7.5,1.6-15,2.8-22.5,4.2c-0.4,0.1-0.8,0.1-1.3,0.1c0-1.5-0.1-2.8,0.1-4.2c0-0.3,0.7-0.7,1.2-0.8
		c5-1.4,10-2.6,14.9-4.1c25.9-7.8,51.3-17.1,75.7-28.7c9.3-4.4,18.4-9.1,26.7-15.3c4.7-3.5,9-7.4,12.1-12.5
		C239.4,154.6,239.5,154.6,239.7,154.5z"/>
</g>
</svg>
