<?xml version="1.0" encoding="utf-8"?>
<!-- Generator: Adobe Illustrator 20.1.0, SVG Export Plug-In . SVG Version: 6.00 Build 0)  -->
<svg version="1.1" id="图层_1" xmlns="http://www.w3.org/2000/svg" xmlns:xlink="http://www.w3.org/1999/xlink" x="0px" y="0px"
	 viewBox="0 0 360 360" style="enable-background:new 0 0 360 360;" xml:space="preserve">
<style type="text/css">
	.st0{fill:#FFFFFF;}
</style>
<g>
	<path class="st0" d="M0.2,360.5c0-120.1,0-240.2,0-360.2c120.1,0,240.2,0,360.2,0c0,120.1,0,240.2,0,360.2
		C240.4,360.5,120.3,360.5,0.2,360.5z M180.6,314.6c0.4-0.1,0.8-0.2,1.2-0.4c11.6-4,22.7-9.3,33.5-15.1
		c23.9-12.7,46.2-27.8,66.5-45.8c6.7-6,13.5-11.9,20.9-17c4.5-3.1,9.1-5.9,14.5-7.3c0.8-0.2,1.6-0.4,2.2-0.5c-7-7-14-14-20.9-20.9
		c-32.4,43.2-73.1,77-120.2,103.4C179.1,312.4,179.9,313.5,180.6,314.6z M288,129.8c-24.6,35.5-54.6,65.6-89.8,90.6
		c0.9,1.3,1.7,2.5,2.5,3.7c2.1-1.1,4.2-2.1,6.2-3.2c22.2-11.7,42.8-25.8,61.5-42.6c8.3-7.5,16.8-14.8,25.8-21.5
		c4.3-3.1,8.7-6.1,13.7-8.2C301.2,142.2,294.6,135.9,288,129.8z M276.2,50.8c-17.1,32.5-39,61.2-66,86.1c0.7,1.1,1.5,2.2,2.3,3.4
		c0.7-0.4,1.2-0.8,1.7-1.2c7.7-5.8,15.4-11.5,23-17.5c8.5-6.8,16.5-14.3,24.1-22.1c6.2-6.4,12.4-12.8,18.8-19.1
		c4.6-4.5,9.6-8.6,15.3-11.7c1-0.5,2-1,3.2-1.5C290.9,61.6,283.6,56.2,276.2,50.8z"/>
	<path d="M180.6,314.6c-0.8-1.2-1.5-2.3-2.3-3.5c47.1-26.4,87.8-60.2,120.2-103.4c6.9,6.9,13.9,13.9,20.9,20.9
		c-0.6,0.1-1.4,0.3-2.2,0.5c-5.3,1.4-10,4.2-14.5,7.3c-7.5,5.1-14.2,11-20.9,17c-20.2,18-42.6,33.1-66.5,45.8
		c-10.8,5.8-21.9,11.1-33.5,15.1C181.4,314.4,181.1,314.5,180.6,314.6z"/>
	<path d="M288,129.8c6.6,6.2,13.2,12.4,19.9,18.7c-5.1,2-9.5,5-13.7,8.2c-9,6.6-17.5,14-25.8,21.5c-18.7,16.8-39.3,30.9-61.5,42.6
		c-2,1.1-4,2.1-6.2,3.2c-0.8-1.2-1.6-2.3-2.5-3.7C233.4,195.4,263.4,165.3,288,129.8z"/>
	<path d="M276.2,50.8c7.4,5.4,14.8,10.9,22.3,16.4c-1.2,0.6-2.2,1-3.2,1.5c-5.7,3.1-10.7,7.2-15.3,11.7
		c-6.4,6.2-12.5,12.7-18.8,19.1c-7.6,7.8-15.6,15.3-24.1,22.1c-7.5,6-15.3,11.7-23,17.5c-0.5,0.4-1.1,0.7-1.7,1.2
		c-0.8-1.2-1.5-2.3-2.3-3.4C237.1,111.9,259.1,83.3,276.2,50.8z"/>
</g>
</svg>
