<?xml version="1.0" encoding="utf-8"?>
<!-- Generator: Adobe Illustrator 20.1.0, SVG Export Plug-In . SVG Version: 6.00 Build 0)  -->
<svg version="1.1" id="图层_1" xmlns="http://www.w3.org/2000/svg" xmlns:xlink="http://www.w3.org/1999/xlink" x="0px" y="0px"
	 viewBox="0 0 360 360" style="enable-background:new 0 0 360 360;" xml:space="preserve">
<style type="text/css">
	.st0{fill:#FFFFFF;}
</style>
<g>
	<path class="st0" d="M0.2,360.5c0-120.1,0-240.2,0-360.2c120.1,0,240.2,0,360.2,0c0,120.1,0,240.2,0,360.2
		C240.4,360.5,120.3,360.5,0.2,360.5z M87.8,47.3c0,3.2,0,6.4,0,9.6c0.1,10.2,0.4,20.3,0.5,30.5c0.1,12.3,0.2,24.6,0.1,36.8
		c-0.1,13.8-0.4,27.7-0.7,41.5c-0.2,7.5-0.6,14.9-1.3,22.4c-0.9,8.8-2.1,17.6-3.5,26.4c-2,12.5-5,24.8-9,36.9
		c-6.2,18.8-14.7,36.5-25,53.4c-1.6,2.6-3.2,5.1-4.8,7.7c1.2,0.8,2.4,1.6,3.5,2.3c0.2-0.1,0.2-0.1,0.3-0.2c1.2-1.4,2.4-2.8,3.6-4.2
		c11.6-14,21.7-28.9,30.1-45.1C92,244.8,98,223,101,200.4c1.7-12.4,2.8-24.8,3.4-37.2c0.9-16.1,1-32.3,0.9-48.4c0-0.9,0-1.7,0-2.6
		c55.8,0,111.4,0,167.2,0c0,3.9,0,7.7,0,11.6c0.3-0.1,0.4-0.1,0.5-0.1c5.5-2.2,11-4.4,16.5-6.6c0.7-0.3,0.7-0.8,0.6-1.3
		c-0.2-3.9-0.6-7.8-0.7-11.7c-0.2-10.4-0.3-20.8-0.5-31.2c0-1.5,0.5-2.5,1.7-3.4c3-2.2,5.9-4.6,9-7c-6.7-5.2-13.4-10.2-20.1-15.4
		c-2.6,3.7-5.2,7.3-7.6,10.9c-0.5,0.7-0.9,0.9-1.8,0.9c-54.6,0-109.2,0-163.8,0c-0.7,0-1.4-0.3-2-0.6c-5.2-3.4-10.4-6.9-15.6-10.4
		C88.5,47.8,88.1,47.5,87.8,47.3z"/>
	<path d="M87.8,47.3c0.3,0.2,0.7,0.4,1.1,0.7c5.2,3.5,10.4,6.9,15.6,10.4c0.6,0.4,1.3,0.6,2,0.6c54.6,0,109.2,0,163.8,0
		c0.8,0,1.3-0.3,1.8-0.9c2.5-3.6,5-7.2,7.6-10.9c6.7,5.1,13.4,10.2,20.1,15.4c-3.1,2.4-6,4.7-9,7c-1.2,0.9-1.7,1.8-1.7,3.4
		c0.2,10.4,0.3,20.8,0.5,31.2c0.1,3.9,0.4,7.8,0.7,11.7c0,0.6,0.1,1-0.6,1.3c-5.5,2.2-11,4.4-16.5,6.6c-0.1,0-0.2,0.1-0.5,0.1
		c0-3.9,0-7.7,0-11.6c-55.8,0-111.4,0-167.2,0c0,0.8,0,1.7,0,2.6c0.1,16.2,0,32.3-0.9,48.4c-0.7,12.5-1.8,24.9-3.4,37.2
		c-3,22.7-9,44.4-19.6,64.8c-8.4,16.1-18.6,31.1-30.1,45.1c-1.2,1.4-2.4,2.8-3.6,4.2c0,0.1-0.1,0.1-0.3,0.2
		c-1.1-0.7-2.3-1.5-3.5-2.3c1.6-2.6,3.2-5.1,4.8-7.7c10.3-16.9,18.8-34.6,25-53.4c4-12.1,6.9-24.4,9-36.9c1.4-8.8,2.6-17.5,3.5-26.4
		c0.8-7.4,1.1-14.9,1.3-22.4c0.4-13.8,0.6-27.7,0.7-41.5c0.1-12.3,0-24.6-0.1-36.8c-0.1-10.2-0.3-20.3-0.5-30.5
		C87.8,53.7,87.8,50.6,87.8,47.3z M272.4,104.9c0-13,0-25.8,0-38.7c-55.7,0-111.3,0-167,0c0,12.9,0,25.8,0,38.7
		C161.1,104.9,216.7,104.9,272.4,104.9z"/>
	<path class="st0" d="M272.4,104.9c-55.7,0-111.3,0-167,0c0-12.9,0-25.7,0-38.7c55.7,0,111.3,0,167,0
		C272.4,79,272.4,91.9,272.4,104.9z"/>
</g>
</svg>
