<?xml version="1.0" encoding="utf-8"?>
<!-- Generator: Adobe Illustrator 20.1.0, SVG Export Plug-In . SVG Version: 6.00 Build 0)  -->
<svg version="1.1" id="图层_1" xmlns="http://www.w3.org/2000/svg" xmlns:xlink="http://www.w3.org/1999/xlink" x="0px" y="0px"
	 viewBox="0 0 360 360" style="enable-background:new 0 0 360 360;" xml:space="preserve">
<style type="text/css">
	.st0{fill:#FFFFFF;}
</style>
<g>
	<path class="st0" d="M0.2,360.5c0-120.1,0-240.2,0-360.2c120.1,0,240.2,0,360.2,0c0,120.1,0,240.2,0,360.2
		C240.4,360.5,120.3,360.5,0.2,360.5z M99.4,59c0,0.5,0,0.9,0,1.3c0.1,6.3,0.3,12.5,0.4,18.8c0.2,12.6,0.4,25.3,0.5,37.9
		c0.1,11.9,0,23.8-0.2,35.6c-0.1,8.9-0.3,17.7-0.6,26.6c-0.5,12.9-1.5,25.8-3.7,38.6c-2.1,12.1-5.2,23.9-9.8,35.3
		c-6.2,15.4-15,29.2-25.6,41.9c-5.4,6.5-11.3,12.6-16.9,18.8c-0.3,0.3-0.7,0.9-0.5,1.1c0.6,1.5,1.4,2.9,2.2,4.4
		c0.4-0.3,0.6-0.4,0.8-0.6c11.4-8.9,22-18.6,31.7-29.4c15.9-17.7,26.9-37.9,32.2-61.2c2.6-11.4,4.7-22.9,5.7-34.6
		c1-11.3,1.6-22.7,2.4-34.1c0.2-2.8,0.2-5.6,0.3-8.5c48.3,0,96.5,0,144.9,0c0,6.3,0,12.4,0,18.7c0.6-0.2,1-0.3,1.4-0.5
		c5-2,10-4,15-6c1.1-0.4,1.3-0.9,1.3-2c-0.4-13.5-0.9-27-1.1-40.5c-0.2-11.7,0.1-23.4-0.1-35.2c-0.1-3.1,0.7-5.2,3.3-7
		c2.2-1.6,4.2-3.6,6.3-5.5c-6.4-5.2-12.6-10.2-18.9-15.4c-3,3.7-5.9,7.3-8.8,11c-0.5,0.6-1,0.9-1.8,0.9c-46.8,0-93.5,0-140.3,0
		c-0.7,0-1.4-0.2-2-0.5c-5.6-3.1-11.2-6.3-16.7-9.4C100.3,59.4,99.9,59.3,99.4,59z"/>
	<path d="M99.4,59c0.5,0.3,0.9,0.4,1.3,0.7c5.6,3.1,11.1,6.3,16.7,9.4c0.6,0.3,1.3,0.5,2,0.5c46.8,0,93.5,0,140.3,0
		c0.8,0,1.3-0.2,1.8-0.9c2.9-3.6,5.8-7.2,8.8-11c6.3,5.1,12.5,10.2,18.9,15.4c-2.1,1.9-4.1,3.9-6.3,5.5c-2.5,1.8-3.3,3.9-3.3,7
		c0.2,11.7-0.1,23.4,0.1,35.2c0.2,13.5,0.7,27,1.1,40.5c0,1.1-0.2,1.6-1.3,2c-5,1.9-10,4-15,6c-0.4,0.2-0.8,0.3-1.4,0.5
		c0-6.3,0-12.4,0-18.7c-48.3,0-96.5,0-144.9,0c-0.1,2.8-0.1,5.7-0.3,8.5c-0.7,11.4-1.4,22.7-2.4,34.1c-1,11.7-3.1,23.2-5.7,34.6
		c-5.3,23.3-16.3,43.5-32.2,61.2C68,300.2,57.3,309.9,46,318.8c-0.2,0.2-0.4,0.3-0.8,0.6c-0.7-1.5-1.5-2.9-2.2-4.4
		c-0.1-0.3,0.3-0.8,0.5-1.1c5.6-6.3,11.5-12.3,16.9-18.8C71,282.3,79.8,268.5,86,253.1c4.6-11.4,7.7-23.2,9.8-35.3
		c2.2-12.8,3.2-25.7,3.7-38.6c0.3-8.9,0.5-17.7,0.6-26.6c0.1-11.9,0.2-23.8,0.2-35.6c-0.1-12.6-0.3-25.3-0.5-37.9
		c-0.1-6.3-0.3-12.5-0.4-18.8C99.4,59.9,99.4,59.5,99.4,59z M263,76.8c-48.3,0-96.5,0-144.7,0c0,22.4,0,44.6,0,66.9
		c48.2,0,96.4,0,144.7,0C263,121.4,263,99.1,263,76.8z"/>
	<path class="st0" d="M263,76.8c0,22.4,0,44.6,0,66.9c-48.2,0-96.4,0-144.7,0c0-22.3,0-44.6,0-66.9C166.6,76.8,214.7,76.8,263,76.8z
		"/>
</g>
</svg>
