<?xml version="1.0" encoding="utf-8"?>
<!-- Generator: Adobe Illustrator 20.1.0, SVG Export Plug-In . SVG Version: 6.00 Build 0)  -->
<svg version="1.1" id="图层_1" xmlns="http://www.w3.org/2000/svg" xmlns:xlink="http://www.w3.org/1999/xlink" x="0px" y="0px"
	 viewBox="0 0 360 360" style="enable-background:new 0 0 360 360;" xml:space="preserve">
<style type="text/css">
	.st0{fill:#FFFFFF;}
</style>
<g>
	<path class="st0" d="M0.2,360.5c0-120.1,0-240.2,0-360.2c120.1,0,240.2,0,360.2,0c0,120.1,0,240.2,0,360.2
		C240.4,360.5,120.3,360.5,0.2,360.5z M96.9,300.5c0.7-1.2,1.2-2.3,1.9-3.3c3.9-5.2,7.6-10.6,11.8-15.5c12.9-15,25.9-29.9,38.9-44.8
		c2.1-2.4,4.2-4.7,6.1-6.8c-1.2-1.3-2.3-2.5-3.5-3.7c-16.4,13.6-32.8,27.3-49.3,41.1c0-0.6,0-0.9,0-1.2c0-35,0-69.9,0-104.9
		c0-0.8,0.3-1.2,0.9-1.7c3-2.3,5.9-4.5,8.8-6.8c0.3-0.2,0.6-0.5,0.9-0.8c-9.1-4-18-7.8-27.1-11.8c0.1,1.1,0.2,2,0.2,2.9
		c0.3,12.3,0.8,24.7,0.9,37c0.1,29.7,0.1,59.4,0,89.2c0,4-1,7.8-3.1,11.3c-0.5,0.8-1,1.5-1.5,2.3C87.6,288.8,92.2,294.6,96.9,300.5z
		 M47.5,169.8c0.4-0.5,0.7-0.9,1-1.3c15.5-19.6,28.1-40.8,38.5-63.5c0.4-0.9,0.9-1.2,1.9-1.2c14.4,0,28.7,0,43.1,0
		c0.4,0,0.9,0,1.5,0c-5.5,13.1-11,25.9-16.5,38.9c1.4,0.3,2.6,0.6,3.7,0.9c0.8,0.3,1.3,0,1.8-0.7c4.3-6.1,8.5-12.2,13-18.1
		c5-6.7,10.7-12.9,18-17.3c3.1-1.8,6.2-3.4,9.2-5.1c-6.1-6.1-12.3-12.3-18.6-18.6c-0.3,0.3-0.7,0.7-1.1,1.1
		c-3.3,3.6-6.5,7.1-9.7,10.8c-0.6,0.7-1.2,1-2.1,1c-13.2,0-26.4,0-39.6,0c-0.4,0-0.9,0-1.4,0c0.2-0.6,0.3-1.1,0.5-1.6
		c3.7-9.2,7.6-18.3,11.2-27.5c1.4-3.5,3.4-6.3,6.6-8.3c1.8-1.1,3.4-2.5,5.2-3.9c-8.7-4.4-17.3-8.7-26-13c-0.4,2-0.7,4-1.1,5.9
		c-2.7,11.4-5.4,22.8-8.3,34.2c-5.3,21.2-12.4,41.7-21.8,61.4c-3.4,7.1-7.1,14.1-10.7,21.2c-0.2,0.4-0.4,1-0.3,1.4
		C46,167.6,46.8,168.6,47.5,169.8z"/>
	<path d="M96.9,300.5c-4.7-5.9-9.4-11.7-14.1-17.6c0.5-0.8,1.1-1.5,1.5-2.3c2.1-3.5,3.1-7.3,3.1-11.3c0-29.7,0.1-59.4,0-89.2
		c-0.1-12.3-0.6-24.7-0.9-37c0-0.9-0.1-1.7-0.2-2.9c9.1,4,18,7.8,27.1,11.8c-0.4,0.3-0.6,0.6-0.9,0.8c-2.9,2.3-5.9,4.6-8.8,6.8
		c-0.6,0.4-0.9,0.9-0.9,1.7c0,35,0,69.9,0,104.9c0,0.3,0,0.6,0,1.2c16.6-13.8,33-27.5,49.3-41.1c1.2,1.2,2.3,2.4,3.5,3.7
		c-1.9,2.2-4.1,4.5-6.1,6.8c-13,14.9-26.1,29.8-38.9,44.8c-4.2,4.9-7.9,10.3-11.8,15.5C98.2,298.2,97.6,299.3,96.9,300.5z"/>
	<path d="M47.5,169.8c-0.8-1.1-1.5-2.1-2.1-3.2c-0.2-0.3,0.1-1,0.3-1.4c3.6-7.1,7.3-14,10.7-21.2c9.4-19.7,16.5-40.2,21.8-61.4
		c2.9-11.4,5.5-22.8,8.3-34.2c0.5-1.9,0.7-3.9,1.1-5.9c8.7,4.3,17.2,8.6,26,13c-1.8,1.4-3.4,2.8-5.2,3.9c-3.2,2-5.3,4.8-6.6,8.3
		c-3.6,9.2-7.4,18.3-11.2,27.5c-0.2,0.5-0.3,1-0.5,1.6c0.6,0,1,0,1.4,0c13.2,0,26.4,0,39.6,0c0.9,0,1.5-0.3,2.1-1
		c3.2-3.6,6.5-7.2,9.7-10.8c0.4-0.4,0.8-0.8,1.1-1.1c6.3,6.3,12.5,12.5,18.6,18.6c-3,1.6-6.2,3.2-9.2,5.1
		c-7.3,4.4-12.9,10.5-18,17.3c-4.4,6-8.7,12.1-13,18.1c-0.5,0.7-0.9,0.9-1.8,0.7c-1.1-0.4-2.3-0.6-3.7-0.9
		c5.5-12.9,10.9-25.8,16.5-38.9c-0.6,0-1.1,0-1.5,0c-14.4,0-28.7,0-43.1,0c-1,0-1.4,0.3-1.9,1.2c-10.3,22.7-23,43.9-38.5,63.5
		C48.3,168.9,48,169.2,47.5,169.8z"/>
</g>
</svg>
