<?xml version="1.0" encoding="utf-8"?>
<!-- Generator: Adobe Illustrator 20.1.0, SVG Export Plug-In . SVG Version: 6.00 Build 0)  -->
<svg version="1.1" id="图层_1" xmlns="http://www.w3.org/2000/svg" xmlns:xlink="http://www.w3.org/1999/xlink" x="0px" y="0px"
	 viewBox="0 0 360 360" style="enable-background:new 0 0 360 360;" xml:space="preserve">
<style type="text/css">
	.st0{fill:#FFFFFF;}
</style>
<g>
	<path class="st0" d="M0.2,360.5c0-120.1,0-240.2,0-360.2c120.1,0,240.2,0,360.2,0c0,120.1,0,240.2,0,360.2
		C240.4,360.5,120.3,360.5,0.2,360.5z M286.5,156.9c-5.9,5.9-11.9,11.9-17.9,17.9c-0.6,0.6-1.2,0.8-2,0.8c-23.1,0-46.2,0-69.2,0
		c-0.4,0-0.8,0-1.4,0c0-31.5,0-62.9,0-94.3c-6,0.8-11.8,1.6-17.8,2.4c0,30.7,0,61.3,0,91.9c-41.6,0-83.1,0-124.7,0
		c0.4,0.5,0.7,0.7,0.9,1c2.9,2.9,5.8,5.8,8.7,8.8c0.6,0.6,1.1,0.8,2,0.6c8.9-2.4,18-3.3,27.2-3.3c28.2,0,56.4,0,84.6,0
		c0.4,0,0.9,0,1.3,0c0,35.4,0,70.7,0,106.1c-35.7,0-71.3,0-107.1,0c3.5,3.5,6.9,6.9,10.2,10.2c0.2,0.2,0.8,0.3,1.2,0.2
		c9.1-2.4,18.4-3.3,27.8-3.3c62.1,0,124.2,0,186.3,0c0.5,0,1.1,0,1.6,0c-8.3-8.3-16.5-16.5-24.8-24.8c-0.2,0.3-0.4,0.7-0.7,1
		c-5.3,5.3-10.6,10.6-15.8,15.9c-0.6,0.6-1.2,0.9-2.1,0.9c-19.1,0-38.2,0-57.4,0c-0.4,0-0.9,0-1.3,0c0-35.4,0-70.7,0-106.1
		c38.8,0,77.5,0,116.1,0C303.7,174.1,295.1,165.5,286.5,156.9z"/>
	<path d="M286.5,156.9c8.6,8.6,17.2,17.2,25.7,25.8c-38.6,0-77.3,0-116.1,0c0,35.4,0,70.7,0,106.1c0.4,0,0.9,0,1.3,0
		c19.1,0,38.2,0,57.4,0c0.9,0,1.5-0.3,2.1-0.9c5.3-5.3,10.6-10.6,15.8-15.9c0.3-0.3,0.5-0.7,0.7-1c8.4,8.4,16.5,16.5,24.8,24.8
		c-0.6,0-1.1,0-1.6,0c-62.1,0-124.2,0-186.3,0c-9.4,0-18.7,0.9-27.8,3.3c-0.4,0.1-0.9,0.1-1.2-0.2c-3.4-3.3-6.7-6.6-10.2-10.2
		c35.8,0,71.4,0,107.1,0c0-35.4,0-70.7,0-106.1c-0.5,0-0.9,0-1.3,0c-28.2,0-56.4,0-84.6,0c-9.2,0-18.3,0.9-27.2,3.3
		c-0.9,0.2-1.4,0-2-0.6c-2.9-2.9-5.8-5.8-8.7-8.8c-0.3-0.3-0.5-0.6-0.9-1c41.7,0,83.1,0,124.7,0c0-30.7,0-61.3,0-91.9
		c6-0.8,11.8-1.6,17.8-2.4c0,31.4,0,62.8,0,94.3c0.5,0,1,0,1.4,0c23.1,0,46.2,0,69.2,0c0.8,0,1.4-0.2,2-0.8
		C274.6,168.8,280.6,162.8,286.5,156.9z"/>
</g>
</svg>
