<?xml version="1.0" encoding="utf-8"?>
<!-- Generator: Adobe Illustrator 20.1.0, SVG Export Plug-In . SVG Version: 6.00 Build 0)  -->
<svg version="1.1" id="图层_1" xmlns="http://www.w3.org/2000/svg" xmlns:xlink="http://www.w3.org/1999/xlink" x="0px" y="0px"
	 viewBox="0 0 360 360" style="enable-background:new 0 0 360 360;" xml:space="preserve">
<style type="text/css">
	.st0{fill:#FFFFFF;}
</style>
<g>
	<path class="st0" d="M0.2,360.5c0-120.1,0-240.2,0-360.2c120.1,0,240.2,0,360.2,0c0,120.1,0,240.2,0,360.2
		C240.4,360.5,120.3,360.5,0.2,360.5z M136,145c0.2,0.3,0.2,0.4,0.3,0.5c3.2,3.2,6.4,6.5,9.7,9.7c0.3,0.3,1,0.4,1.5,0.3
		c8.3-2.1,16.7-3.2,25.3-3.2c14-0.1,28,0,42,0c0.4,0,0.8,0,1.2,0c0,44.8,0,89.5,0,134.3c-22.7,0-45.4,0-68.1,0
		c0.1,0.2,0.2,0.3,0.3,0.4c3.2,3.2,6.4,6.5,9.7,9.7c0.3,0.3,1,0.4,1.5,0.3c8.7-2.2,17.5-3.2,26.5-3.2c41.4,0,82.7,0,124.1,0
		c0.5,0,1,0,1.5,0c-7.5-7.5-14.9-14.9-22.6-22.6c-0.2,0.3-0.3,0.7-0.6,1c-4.5,4.5-9,9.1-13.6,13.6c-0.5,0.5-1.1,0.8-1.9,0.8
		c-13,0-25.9,0-38.9,0c-0.4,0-0.8,0-1.1,0c0-44.8,0-89.4,0-134.2c29,0,57.9,0,86.7,0c-7.4-7.4-14.8-14.8-22.4-22.3
		c-0.2,0.2-0.4,0.6-0.6,0.8c-4.5,4.5-9.1,9-13.6,13.6c-0.6,0.6-1.2,0.8-2,0.8c-15.6,0-31.3,0-46.9,0c-0.4,0-0.9,0-1.3,0
		c0-0.4-0.1-0.6-0.1-0.8c0-24.9,0-49.8,0-74.8c0-0.5,0.4-1.1,0.8-1.4c3.2-2.3,6.5-4.6,9.7-6.8c0.4-0.3,0.8-0.6,1.3-1
		c-9.9-4.8-19.7-9.4-29.5-14.1c0,0.5,0,0.8,0,1.1c0.4,8.8,1,17.6,1.1,26.3c0.2,23.4,0.1,46.8,0.1,70.2c0,0.4,0,0.8,0,1.3
		C189.3,145,162.7,145,136,145z"/>
	<path d="M136,145c26.7,0,53.3,0,80,0c0-0.5,0-0.9,0-1.3c0-23.4,0.1-46.8-0.1-70.2c-0.1-8.8-0.7-17.6-1.1-26.3c0-0.3,0-0.6,0-1.1
		c9.8,4.7,19.6,9.4,29.5,14.1c-0.5,0.4-0.9,0.7-1.3,1c-3.2,2.3-6.5,4.5-9.7,6.8c-0.4,0.3-0.8,0.9-0.8,1.4c0,24.9,0,49.8,0,74.8
		c0,0.2,0,0.5,0.1,0.8c0.5,0,0.9,0,1.3,0c15.6,0,31.3,0,46.9,0c0.8,0,1.4-0.2,2-0.8c4.5-4.5,9-9.1,13.6-13.6
		c0.3-0.3,0.5-0.6,0.6-0.8c7.5,7.5,14.9,14.9,22.4,22.3c-28.8,0-57.7,0-86.7,0c0,44.8,0,89.4,0,134.2c0.4,0,0.8,0,1.1,0
		c13,0,25.9,0,38.9,0c0.8,0,1.3-0.3,1.9-0.8c4.5-4.5,9-9.1,13.6-13.6c0.3-0.3,0.5-0.8,0.6-1c7.7,7.7,15.1,15.1,22.6,22.6
		c-0.6,0-1.1,0-1.5,0c-41.4,0-82.7,0-124.1,0c-9,0-17.8,1-26.5,3.2c-0.4,0.1-1.2,0-1.5-0.3c-3.3-3.2-6.5-6.4-9.7-9.7
		c-0.1-0.1-0.1-0.2-0.3-0.4c22.7,0,45.4,0,68.1,0c0-44.8,0-89.4,0-134.3c-0.4,0-0.8,0-1.2,0c-14,0-28,0-42,0c-8.5,0-17,1.1-25.3,3.2
		c-0.4,0.1-1.2,0-1.5-0.3c-3.3-3.2-6.5-6.4-9.7-9.7C136.2,145.3,136.1,145.2,136,145z"/>
</g>
</svg>
