<?xml version="1.0" encoding="utf-8"?>
<!-- Generator: Adobe Illustrator 20.1.0, SVG Export Plug-In . SVG Version: 6.00 Build 0)  -->
<svg version="1.1" id="图层_1" xmlns="http://www.w3.org/2000/svg" xmlns:xlink="http://www.w3.org/1999/xlink" x="0px" y="0px"
	 viewBox="0 0 360 360" style="enable-background:new 0 0 360 360;" xml:space="preserve">
<style type="text/css">
	.st0{fill:#FFFFFF;}
</style>
<g>
	<path class="st0" d="M0.2,360.5c0-120.1,0-240.2,0-360.2c120.1,0,240.2,0,360.2,0c0,120.1,0,240.2,0,360.2
		C240.4,360.5,120.3,360.5,0.2,360.5z M173.2,116.8c-6.6-6.6-13.2-13.2-19.9-19.9c-3.9,3.9-7.9,8-12,12c-0.4,0.4-1.2,0.7-1.7,0.7
		c-5.1,0.1-10.2,0-15.4,0c-0.4,0-0.8,0-1.1-0.1c-0.1-0.2-0.1-0.3-0.1-0.4c0-14.5,0-29,0-43.6c0-0.4,0.3-0.8,0.6-1.1
		c1.2-1.1,2.5-2.2,3.8-3.3c1.7-1.5,3.3-2.9,5.2-4.5c-9.1-4-18.1-7.9-27.1-11.8c-0.1,0.2-0.1,0.3-0.1,0.5c0.3,11.4,0.7,22.8,0.9,34.2
		c0.2,9.6,0.2,19.1,0.3,28.7c0,1.2-0.3,1.5-1.5,1.5c-18.2,0-36.4,0-54.6,0c-0.5,0-0.9,0-1.5,0c0.1,0.3,0.2,0.4,0.2,0.4
		c2.9,2.9,5.7,5.7,8.6,8.6c0.3,0.3,0.9,0.4,1.3,0.3c1.5-0.2,2.9-0.5,4.4-0.8c2.9-0.5,5.7-1.3,8.6-1.3c11-0.2,22.1-0.1,33.1-0.1
		c0.4,0,0.8,0,1.3,0.1c0,0.4,0.1,0.8,0.1,1.1c0,19.3,0,38.6,0,57.8c0,0.7-0.2,1.1-0.9,1.4c-13.8,4.6-27.5,9.3-41.4,13.7
		c-5,1.6-10.2,2.6-15.3,3.9c5,6.9,10,13.9,15.1,20.9c2.9-3.5,6.5-6,10.1-8.3c9.2-6,18.9-10.9,28.7-15.7c1.2-0.6,2.3-1.1,3.6-1.7
		c0,0.5,0.1,0.9,0.1,1.3c0,27.7,0,55.4,0,83c0,2.7-0.2,5.4-1.3,8c-1.1,2.6-3,4.2-5.8,4.6c-1.4,0.2-2.9,0.3-4.3,0.2
		c-8.4-0.5-16.6-2.1-24.9-3.6c-2.8-0.5-5.5-1.1-8.5-1.7c0,1.8,0,3.4,0,5c0,0.7,0.3,1,0.9,1.3c3.2,1.4,6.4,2.8,9.6,4.3
		c6.4,3.1,12.6,6.6,18.1,11.2c4.1,3.6,7.7,7.5,8.1,13.5c5.8-2.3,11.1-5.2,15.6-9.4c5.9-5.5,9.1-12.3,9.1-20.5c0-34.3,0-68.6,0-102.8
		c0-1.1,0.3-1.7,1.3-2.2c14.7-7.9,29.4-15.8,44.1-23.7c1-0.5,1.9-1.1,3-1.6c-0.8-1.6-1.6-3.2-2.4-4.8c-15.3,6.3-30.6,12.5-45.9,18.8
		c0-18.1,0-36,0-54.1C139.8,116.8,156.6,116.8,173.2,116.8z"/>
	<path d="M173.2,116.8c-16.6,0-33.3,0-50.2,0c0,18.1,0,36,0,54.1c15.3-6.3,30.6-12.5,45.9-18.8c0.8,1.6,1.6,3.1,2.4,4.8
		c-1,0.6-2,1.1-3,1.6c-14.7,7.9-29.4,15.8-44.1,23.7c-1,0.5-1.3,1.1-1.3,2.2c0,34.3,0,68.6,0,102.8c0,8.2-3.1,15-9.1,20.5
		c-4.5,4.2-9.9,7.1-15.6,9.4c-0.4-5.9-3.9-9.9-8.1-13.5c-5.4-4.7-11.7-8.1-18.1-11.2c-3.2-1.5-6.4-2.9-9.6-4.3
		c-0.6-0.3-0.9-0.6-0.9-1.3c0.1-1.6,0-3.3,0-5c2.9,0.6,5.7,1.1,8.5,1.7c8.2,1.6,16.5,3.2,24.9,3.6c1.4,0.1,2.9,0,4.3-0.2
		c2.8-0.4,4.7-2.1,5.8-4.6c1.1-2.5,1.3-5.3,1.3-8c0-27.7,0-55.4,0-83c0-0.4,0-0.7-0.1-1.3c-1.3,0.6-2.5,1.2-3.6,1.7
		c-9.8,4.8-19.5,9.8-28.7,15.7c-3.6,2.4-7.2,4.8-10.1,8.3c-5.1-7.1-10.2-14.1-15.1-20.9c5.1-1.3,10.3-2.3,15.3-3.9
		c13.8-4.4,27.6-9.1,41.4-13.7c0.7-0.2,0.9-0.6,0.9-1.4c0-19.3,0-38.6,0-57.8c0-0.3,0-0.6-0.1-1.1c-0.5,0-0.9-0.1-1.3-0.1
		c-11,0-22.1-0.1-33.1,0.1c-2.9,0-5.8,0.9-8.6,1.3c-1.5,0.2-2.9,0.6-4.4,0.8c-0.4,0.1-1,0-1.3-0.3c-2.9-2.8-5.7-5.7-8.6-8.6
		c-0.1-0.1-0.1-0.2-0.2-0.4c0.6,0,1,0,1.5,0c18.2,0,36.4,0,54.6,0c1.2,0,1.5-0.3,1.5-1.5c-0.1-9.6-0.1-19.1-0.3-28.7
		c-0.2-11.4-0.6-22.8-0.9-34.2c0-0.1,0.1-0.2,0.1-0.5c9,3.9,17.9,7.8,27.1,11.8c-1.8,1.6-3.5,3.1-5.2,4.5c-1.3,1.1-2.5,2.2-3.8,3.3
		c-0.3,0.3-0.6,0.7-0.6,1.1c0,14.5,0,29,0,43.6c0,0.1,0.1,0.2,0.1,0.4c0.4,0,0.8,0.1,1.1,0.1c5.1,0,10.2,0,15.4,0
		c0.6,0,1.3-0.3,1.7-0.7c4.1-4,8.1-8.1,12-12C159.9,103.5,166.5,110.1,173.2,116.8z"/>
</g>
</svg>
