<?xml version="1.0" encoding="utf-8"?>
<!-- Generator: Adobe Illustrator 20.1.0, SVG Export Plug-In . SVG Version: 6.00 Build 0)  -->
<svg version="1.1" id="图层_1" xmlns="http://www.w3.org/2000/svg" xmlns:xlink="http://www.w3.org/1999/xlink" x="0px" y="0px"
	 viewBox="0 0 360 360" style="enable-background:new 0 0 360 360;" xml:space="preserve">
<style type="text/css">
	.st0{fill:#FFFFFF;}
</style>
<g>
	<path class="st0" d="M0.2,360.5c0-120.1,0-240.2,0-360.2c120.1,0,240.2,0,360.2,0c0,120.1,0,240.2,0,360.2
		C240.4,360.5,120.3,360.5,0.2,360.5z M137.1,101.4c-0.2,0.5-0.4,0.8-0.5,1.1c-6.4,16.6-12.7,33.2-19.3,49.7
		c-8,20-16.2,39.9-24.4,59.9c-2.2,5.3-4.8,10.4-8.8,14.6c-3,3.2-6.4,5.4-11.1,5c-4.6-0.4-9.2-0.6-13.7-0.9c-3.1-0.2-6.2-0.6-9.4-0.9
		c0,1.5,0,2.8,0,4.2c0,0.3,0.4,0.6,0.7,0.7c1.8,0.6,3.7,1.1,5.5,1.7c6.1,2,11.9,4.5,17.1,8.2c4.5,3.2,5.8,7.7,5.7,12.9
		c-0.2,4.8-1.3,9.5-2.7,14.1c-1.5,5-3.6,9.8-4.3,15.1c-0.6,4.2-0.7,8.5,1,12.5c2.7,6.5,8.3,9.4,14.7,10.9c3.7,0.9,5.8-0.7,6.4-4.6
		c0.4-2.4,0.4-4.9,0.5-7.4c1-15,1.8-30,3.1-45c0.6-6.7,1.6-13.4,3.3-19.9c2.9-11.2,6.3-22.3,9.8-33.3c9.7-30.4,19.5-60.8,29.2-91.2
		c0.6-2,1.3-4,1.9-6.1C140.2,102.1,138.7,101.8,137.1,101.4z M73.5,54.2c3.2,4.1,6.3,8.1,9.3,12.1c5.9,8.1,11,16.6,14.3,26.1
		c0.5,1.6,1.4,3.2,2.3,4.6c2.1,3.2,4.8,3.4,7.4,0.7c3.7-3.9,6.1-8.6,7.2-13.8c1.2-5.6-0.1-10.6-4.6-14.5c-1-0.8-1.9-1.7-3-2.4
		c-9.3-6.7-19.6-11.3-30-15.8c-0.3-0.1-0.8,0.1-1,0.3C74.7,52.3,74.1,53.3,73.5,54.2z M48.7,128.5c1.8,1.8,3.5,3.6,5.2,5.4
		c8.4,9,16.2,18.5,21.5,29.8c0.8,1.6,1.8,3.2,3,4.6c3,3.6,5.9,3.5,8.6-0.5c2.7-4.1,4.5-8.6,4.8-13.5c0.3-4.5-0.2-8.8-4.1-12
		c-1.3-1-2.5-2.1-3.9-3c-10-6.4-21.1-10.3-32.1-14.2c-0.2-0.1-0.7,0.1-0.9,0.3C50,126.4,49.4,127.4,48.7,128.5z"/>
	<path d="M137.1,101.4c1.6,0.4,3.1,0.8,4.7,1.2c-0.7,2.1-1.3,4.1-1.9,6.1c-9.8,30.4-19.6,60.8-29.2,91.2c-3.5,11-6.9,22.1-9.8,33.3
		c-1.7,6.5-2.8,13.2-3.3,19.9c-1.3,15-2.1,30-3.1,45c-0.2,2.5-0.2,5-0.5,7.4c-0.6,3.8-2.6,5.5-6.4,4.6c-6.4-1.5-12-4.4-14.7-10.9
		c-1.7-4-1.6-8.3-1-12.5c0.7-5.2,2.8-10.1,4.3-15.1c1.4-4.6,2.5-9.2,2.7-14.1c0.2-5.2-1.2-9.7-5.7-12.9c-5.2-3.7-11-6.2-17.1-8.2
		c-1.8-0.6-3.7-1.1-5.5-1.7c-0.3-0.1-0.7-0.5-0.7-0.7c-0.1-1.3,0-2.7,0-4.2c3.2,0.3,6.3,0.7,9.4,0.9c4.6,0.3,9.2,0.5,13.7,0.9
		c4.7,0.4,8.1-1.7,11.1-5c4-4.3,6.6-9.3,8.8-14.6c8.2-19.9,16.4-39.8,24.4-59.9c6.6-16.5,12.9-33.1,19.3-49.7
		C136.7,102.2,136.9,101.9,137.1,101.4z"/>
	<path d="M73.5,54.2c0.6-0.9,1.2-1.9,1.9-2.8c0.2-0.2,0.8-0.5,1-0.3c10.4,4.5,20.8,9.1,30,15.8c1,0.7,2,1.6,3,2.4
		c4.5,3.9,5.7,8.9,4.6,14.5c-1.1,5.3-3.5,9.9-7.2,13.8c-2.6,2.8-5.3,2.5-7.4-0.7c-0.9-1.4-1.8-3-2.3-4.6c-3.3-9.5-8.4-18-14.3-26.1
		C79.8,62.2,76.7,58.3,73.5,54.2z"/>
	<path d="M48.7,128.5c0.7-1,1.3-2.1,2.1-3.1c0.2-0.2,0.6-0.3,0.9-0.3c11.1,3.9,22.1,7.8,32.1,14.2c1.4,0.9,2.6,1.9,3.9,3
		c3.9,3.1,4.3,7.4,4.1,12c-0.3,5-2.1,9.4-4.8,13.5c-2.6,4-5.5,4.2-8.6,0.5c-1.2-1.4-2.2-3-3-4.6c-5.3-11.3-13.1-20.8-21.5-29.8
		C52.2,132.1,50.5,130.3,48.7,128.5z"/>
</g>
</svg>
