<?xml version="1.0" encoding="utf-8"?>
<!-- Generator: Adobe Illustrator 20.1.0, SVG Export Plug-In . SVG Version: 6.00 Build 0)  -->
<svg version="1.1" id="图层_1" xmlns="http://www.w3.org/2000/svg" xmlns:xlink="http://www.w3.org/1999/xlink" x="0px" y="0px"
	 viewBox="0 0 360 360" style="enable-background:new 0 0 360 360;" xml:space="preserve">
<style type="text/css">
	.st0{fill:#FFFFFF;}
</style>
<g>
	<path class="st0" d="M0.2,360.5c0-120.1,0-240.2,0-360.2c120.1,0,240.2,0,360.2,0c0,120.1,0,240.2,0,360.2
		C240.4,360.5,120.3,360.5,0.2,360.5z M147.7,92c-0.2,0.3-0.3,0.6-0.4,0.8c-2.2,4.7-4.3,9.4-6.6,14c-4.7,9.4-10.3,18.2-16.2,26.9
		c-0.3,0.4-0.9,0.7-1.3,0.7c-9.4,0.2-18.8,0.4-28.2,0.6c-6.8,0.1-13.6,0.3-20.4,0.5c-1.1,0-2.2,0-3.4,0c0.3-0.4,0.4-0.7,0.6-0.9
		c10.6-14.7,21.2-29.4,31.8-44.2c4.5-6.3,8.5-12.9,13.7-18.6c3.8-4.2,7.8-8.2,12.9-10.7c0.6-0.3,1.3-0.6,2-0.9
		c-7.5-5.2-14.9-10.2-22.4-15.3c-0.2,0.5-0.3,1-0.5,1.4c-1.8,4.8-3.4,9.7-5.5,14.4c-5.7,13.4-12.9,26.1-20.6,38.5
		c-5.6,9-11.3,17.8-18.2,25.9c-3.9,4.5-7.8,9.2-14.1,10.7c3.5,6.6,7,13.2,10.4,19.6c2.6-1.5,5-3.1,7.6-4.4
		c6.5-3.2,13.6-4.8,20.7-6.1c9.4-1.7,18.8-3.1,28.3-3.3c0.3,0,0.6,0.1,1,0.1c-0.2,0.3-0.3,0.5-0.4,0.6c-11.5,15.2-23,30.4-35.7,44.7
		c-8.1,9.1-17.1,16.9-29.7,19.3c4.7,7.9,9.4,15.7,14.1,23.6c0.7-0.4,1.2-0.8,1.7-1.2c8.4-5.6,17.6-9.3,27.1-12.2
		c18.8-5.7,38.1-9.5,57.4-13.2c3-0.6,6.1-1.1,9.1-1.7c0-1.6,0-3.2,0-4.8c-26.6,2.7-53.1,5.5-79.9,8.2c0.3-0.4,0.4-0.5,0.5-0.7
		c7.5-8.9,15.1-17.6,22.4-26.6c11.5-14.1,22.9-28.3,34.2-42.6c5.4-6.9,10.6-13.9,16.7-20.2c3.2-3.3,6.6-6.4,10.8-8.8
		C161,101.3,154.4,96.7,147.7,92z M51.1,273.4c4.7,7.1,9.4,14.1,14.1,21.2c1.5-2.3,3.5-3.8,5.7-5.2c6.7-4.3,14-7.5,21.3-10.6
		c24.2-10.2,48.8-19.5,73.5-28.5c1.5-0.5,3-1.1,4.5-1.7c-0.4-1.6-0.8-3.2-1.2-4.7c-0.5,0.1-0.8,0.2-1.1,0.3
		c-18.4,5.2-36.7,10.5-55.1,15.6c-15.4,4.3-31,8-46.8,10.9C61.1,271.7,56.2,272.5,51.1,273.4z"/>
	<path d="M147.7,92c6.7,4.7,13.3,9.4,20,14.1c-4.2,2.4-7.6,5.5-10.8,8.8c-6.1,6.3-11.3,13.4-16.7,20.2
		c-11.3,14.3-22.7,28.5-34.2,42.6c-7.3,9-14.9,17.7-22.4,26.6c-0.1,0.1-0.2,0.3-0.5,0.7c26.8-2.8,53.3-5.5,79.9-8.2
		c0,1.6,0,3.1,0,4.8c-3,0.6-6.1,1.1-9.1,1.7c-19.3,3.7-38.6,7.6-57.4,13.2c-9.5,2.9-18.8,6.6-27.1,12.2c-0.5,0.4-1.1,0.7-1.7,1.2
		c-4.7-7.9-9.4-15.7-14.1-23.6C66,203.8,75,196.1,83.1,187c12.7-14.3,24.2-29.5,35.7-44.7c0.1-0.2,0.2-0.3,0.4-0.6
		c-0.4-0.1-0.7-0.1-1-0.1c-9.5,0.2-18.9,1.6-28.3,3.3c-7.1,1.3-14.2,2.9-20.7,6.1c-2.6,1.3-5,2.9-7.6,4.4c-3.4-6.4-6.9-13-10.4-19.6
		c6.3-1.5,10.2-6.2,14.1-10.7c6.9-8,12.6-16.9,18.2-25.9c7.7-12.4,14.9-25.1,20.6-38.5c2-4.7,3.6-9.6,5.5-14.4
		c0.2-0.4,0.3-0.9,0.5-1.4c7.4,5.1,14.8,10.1,22.4,15.3c-0.8,0.3-1.4,0.6-2,0.9c-5.2,2.5-9.2,6.5-12.9,10.7
		c-5.1,5.8-9.2,12.4-13.7,18.6c-10.6,14.8-21.2,29.5-31.8,44.2c-0.2,0.3-0.4,0.5-0.6,0.9c1.2,0,2.3,0,3.4,0
		c6.8-0.2,13.6-0.3,20.4-0.5c9.4-0.2,18.8-0.4,28.2-0.6c0.5,0,1.1-0.3,1.3-0.7c5.9-8.6,11.4-17.5,16.2-26.9c2.3-4.6,4.4-9.3,6.6-14
		C147.4,92.5,147.6,92.3,147.7,92z"/>
	<path d="M51.1,273.4c5.1-0.9,10-1.8,14.9-2.7c15.8-2.9,31.3-6.7,46.8-10.9c18.4-5.1,36.7-10.4,55.1-15.6c0.3-0.1,0.6-0.2,1.1-0.3
		c0.4,1.6,0.8,3.1,1.2,4.7c-1.5,0.6-3,1.1-4.5,1.7c-24.7,9.1-49.2,18.3-73.5,28.5c-7.3,3.1-14.6,6.3-21.3,10.6
		c-2.1,1.4-4.2,2.8-5.7,5.2C60.4,287.5,55.8,280.5,51.1,273.4z"/>
</g>
</svg>
