<?xml version="1.0" encoding="utf-8"?>
<!-- Generator: Adobe Illustrator 20.1.0, SVG Export Plug-In . SVG Version: 6.00 Build 0)  -->
<svg version="1.1" id="图层_1" xmlns="http://www.w3.org/2000/svg" xmlns:xlink="http://www.w3.org/1999/xlink" x="0px" y="0px"
	 viewBox="0 0 360 360" style="enable-background:new 0 0 360 360;" xml:space="preserve">
<style type="text/css">
	.st0{fill:#FFFFFF;}
</style>
<g>
	<path class="st0" d="M0.3,360.4c0-120,0-240.1,0-360.2c120.1,0,240.2,0,360.2,0c0,120.1,0,240.1,0,360.2
		C240.4,360.4,120.3,360.4,0.3,360.4z M225.4,176.8c-0.3,0.4-0.6,0.7-0.9,1.1c-2.2,2.8-4.4,5.6-6.5,8.4c-0.6,0.8-1.2,1.1-2.3,1.1
		c-24.3,0-48.6,0-72.8,0c-2.4,0-4.7-0.3-7-0.8c-4-1-8-1.8-11.9-2.7c0,3.1,0,6.2,0,9.3c0,26.9,0,53.8,0,80.6c0,0.6-0.1,1.2,0,1.8
		c0.1,3.2,0,6.4,0.3,9.6c1.2,9.8,7.5,15.8,17.3,16.5c2.9,0.2,5.7,0,8.6,0c31.4,0,62.8,0,94.2,0c4.7,0,9.4,0.1,14.1,0.3
		c8.9,0.2,17-1.9,23.7-8c2.7-2.5,4.9-5.4,6.8-8.7c-5.3-0.9-8.5-4.3-10.7-8.8c-1-2-1.8-4-2.4-6.1c-2.4-7.9-3-16-3.3-24.2
		c-0.1-2.3,0-4.5,0-6.8c-2.1,0-4,0-6,0c0,0.4,0,0.8,0,1.1c0,8.8-0.2,17.7-1.2,26.5c-0.5,4.3-1.1,8.5-2.6,12.5
		c-1.7,4.4-4.6,7.6-9.3,8.7c-1.8,0.4-3.6,0.6-5.5,0.6c-31.6,0-63.2,0-94.8,0c-1.4,0-2.7-0.1-4.1-0.2c-5-0.6-8.4-3.4-9.4-8
		c-0.3-1.2-0.4-2.4-0.4-3.6c0-10.6,0-21.1,0-31.7c0-0.4,0-0.8,0-1.2c26.8,0,53.4,0,80.1,0c0,4.3,0,8.5,0,12.7c0.2,0,0.3,0.1,0.4,0
		c5.5-1.8,11.1-3.7,16.6-5.5c0.7-0.2,0.6-0.7,0.6-1.2c-0.2-4.8-0.5-9.7-0.6-14.5c-0.2-12.1-0.3-24.3-0.5-36.5c0-0.8,0.3-1.3,0.9-1.8
		c2.5-2.1,4.9-4.2,7.5-6.4C238,186.2,231.8,181.5,225.4,176.8z"/>
	<path d="M225.4,176.8c6.3,4.7,12.6,9.4,18.9,14.2c-2.5,2.2-5,4.3-7.5,6.4c-0.6,0.5-0.9,1-0.9,1.8c0.2,12.2,0.3,24.3,0.5,36.5
		c0.1,4.8,0.4,9.7,0.6,14.5c0,0.5,0.1,1-0.6,1.2c-5.5,1.8-11.1,3.7-16.6,5.5c-0.1,0-0.2,0-0.4,0c0-4.2,0-8.4,0-12.7
		c-26.8,0-53.4,0-80.1,0c0,0.4,0,0.8,0,1.2c0,10.6,0,21.1,0,31.7c0,1.2,0.1,2.4,0.4,3.6c1,4.6,4.4,7.5,9.4,8
		c1.3,0.1,2.7,0.2,4.1,0.2c31.6,0,63.2,0,94.8,0c1.8,0,3.7-0.2,5.5-0.6c4.7-1.1,7.6-4.3,9.3-8.7c1.6-4,2.1-8.3,2.6-12.5
		c1-8.8,1.2-17.6,1.2-26.5c0-0.4,0-0.7,0-1.1c2,0,3.9,0,6,0c0,2.3-0.1,4.6,0,6.8c0.3,8.2,0.9,16.3,3.3,24.2c0.6,2.1,1.4,4.2,2.4,6.1
		c2.2,4.4,5.4,7.8,10.7,8.8c-1.8,3.3-4,6.2-6.8,8.7c-6.7,6.1-14.8,8.2-23.7,8c-4.7-0.1-9.4-0.3-14.1-0.3c-31.4,0-62.8,0-94.2,0
		c-2.9,0-5.8,0.2-8.6,0c-9.9-0.7-16.2-6.7-17.3-16.5c-0.4-3.2-0.2-6.4-0.3-9.6c0-0.6,0-1.2,0-1.8c0-26.9,0-53.8,0-80.6
		c0-3.1,0-6.1,0-9.3c3.9,0.9,7.9,1.7,11.9,2.7c2.3,0.6,4.6,0.8,7,0.8c24.3,0,48.6,0,72.8,0c1,0,1.7-0.3,2.3-1.1
		c2.1-2.8,4.3-5.6,6.5-8.4C224.8,177.5,225.1,177.2,225.4,176.8z M139.5,236.8c26.7,0,53.3,0,80,0c0-14.1,0-28.1,0-42.2
		c-26.7,0-53.3,0-80,0C139.5,208.7,139.5,222.7,139.5,236.8z"/>
	<path class="st0" d="M139.5,236.8c0-14.1,0-28.2,0-42.2c26.7,0,53.3,0,80,0c0,14.1,0,28.1,0,42.2
		C192.8,236.8,166.2,236.8,139.5,236.8z"/>
</g>
</svg>
