<?xml version="1.0" encoding="utf-8"?>
<!-- Generator: Adobe Illustrator 20.1.0, SVG Export Plug-In . SVG Version: 6.00 Build 0)  -->
<svg version="1.1" id="图层_1" xmlns="http://www.w3.org/2000/svg" xmlns:xlink="http://www.w3.org/1999/xlink" x="0px" y="0px"
	 viewBox="0 0 360 360" style="enable-background:new 0 0 360 360;" xml:space="preserve">
<style type="text/css">
	.st0{fill:#FFFFFF;}
</style>
<g>
	<path class="st0" d="M0.2,360.5c0-120.1,0-240.2,0-360.2c120.1,0,240.2,0,360.2,0c0,120.1,0,240.2,0,360.2
		C240.4,360.5,120.3,360.5,0.2,360.5z M196.1,59c0,0.3-0.1,0.4-0.1,0.6c0.2,8.2,0.4,16.4,0.5,24.6c0.1,8.3,0.2,16.6,0.2,24.9
		c0.1,15.4,0.2,30.9,0.2,46.3c0.1,16.2,0.1,32.3,0.1,48.5c0,25.4,0,50.8,0,76.2c0,2.2,0.2,4.4,0.4,6.6c1.3,9.6,6.8,15.7,16.2,17.9
		c3.8,0.9,7.7,0.8,11.6,0.8c18.3,0,36.6,0,55,0c4.1,0,8.2,0.1,12.4,0.1c7.3,0,14.2-1.7,20.2-6.1c3.8-2.8,6.8-6.3,9.2-10.4
		c-4.8-2.1-6.8-3.7-9-7.9c-1.3-2.5-2.5-5.1-3.4-7.8c-3-9.3-4.1-18.9-4.8-28.5c-0.2-2.1-0.3-4.3-0.4-6.5c-1.6,0-3.1,0-4.7,0
		c0,0.4-0.1,0.7-0.1,1c-0.2,9.1-0.3,18.2-0.6,27.3c-0.1,4.6-0.4,9.2-1,13.7c-0.7,5.2-3.6,9.1-9,10.3c-2.4,0.6-5,0.6-7.5,0.6
		c-17,0-34.1,0-51.1,0c-1.3,0-2.6,0.1-3.8,0c-7.2-0.4-11.5-4-12.6-11.1c-0.4-2.3-0.3-4.6-0.3-6.9c0-32.3,0-64.6,0-96.9
		c0-0.5,0-1,0-1.5c23.2,0,46.3,0,69.5,0c0,5.1,0,10,0,15.1c0.2,0,0.4,0,0.5,0c5.5-2.6,11.1-5.1,16.6-7.8c0.3-0.1,0.6-0.7,0.6-1.1
		c-0.2-8.9-0.6-17.9-0.7-26.8c-0.2-10.1-0.2-20.1-0.3-30.2c-0.1-13.7,0-27.4-0.1-41c0-0.9,0.2-1.5,0.9-2c2.5-2,4.9-4.1,7.3-6.3
		c-5.5-5.1-11-10.2-16.5-15.3c-0.4,0.3-0.7,0.6-0.9,0.9c-3,3-6,5.9-8.9,8.9c-0.6,0.6-1.1,0.8-2,0.8c-21.2,0-42.4,0-63.6,0
		c-0.7,0-1.5-0.2-2.1-0.6c-2.5-1.3-4.9-2.8-7.4-4.2C203,62.9,199.6,61,196.1,59z"/>
	<path d="M196.1,59c3.6,2,7,3.9,10.4,5.9c2.5,1.4,4.9,2.8,7.4,4.2c0.6,0.3,1.4,0.6,2.1,0.6c21.2,0,42.4,0,63.6,0
		c0.8,0,1.4-0.3,2-0.8c2.9-3,5.9-6,8.9-8.9c0.3-0.3,0.6-0.5,0.9-0.9c5.5,5.1,11,10.2,16.5,15.3c-2.5,2.1-4.9,4.2-7.3,6.3
		c-0.7,0.6-0.9,1.1-0.9,2c0,13.7,0,27.4,0.1,41c0,10.1,0.1,20.2,0.3,30.2c0.2,8.9,0.5,17.9,0.7,26.8c0,0.4-0.3,1-0.6,1.1
		c-5.5,2.6-11.1,5.2-16.6,7.8c-0.1,0-0.2,0-0.5,0c0-5,0-10,0-15.1c-23.2,0-46.3,0-69.5,0c0,0.5,0,1,0,1.5c0,32.3,0,64.6,0,96.9
		c0,2.3-0.1,4.7,0.3,6.9c1.2,7,5.4,10.7,12.6,11.1c1.3,0.1,2.6,0,3.8,0c17,0,34.1,0,51.1,0c2.5,0,5.1,0,7.5-0.6
		c5.4-1.2,8.2-5.1,9-10.3c0.6-4.5,0.9-9.1,1-13.7c0.3-9.1,0.4-18.2,0.6-27.3c0-0.3,0-0.6,0.1-1c1.6,0,3.1,0,4.7,0
		c0.1,2.2,0.3,4.4,0.4,6.5c0.8,9.7,1.8,19.3,4.8,28.5c0.9,2.7,2,5.3,3.4,7.8c2.2,4.2,4.2,5.8,9,7.9c-2.4,4.1-5.4,7.6-9.2,10.4
		c-6,4.4-12.8,6.1-20.2,6.1c-4.1,0-8.2-0.1-12.4-0.1c-18.3,0-36.6,0-55,0c-3.9,0-7.8,0.1-11.6-0.8c-9.4-2.2-14.9-8.3-16.2-17.9
		c-0.3-2.2-0.4-4.4-0.4-6.6c0-25.4,0-50.8,0-76.2c0-16.2,0-32.3-0.1-48.5c-0.1-15.4-0.1-30.9-0.2-46.3c-0.1-8.3-0.1-16.6-0.2-24.9
		c-0.1-8.2-0.4-16.4-0.5-24.6C196,59.4,196,59.3,196.1,59z M283.1,76.8c-23.2,0-46.2,0-69.4,0c0,30.2,0,60.3,0,90.5
		c23.2,0,46.3,0,69.4,0C283.1,137,283.1,106.9,283.1,76.8z"/>
	<path class="st0" d="M283.1,76.8c0,30.2,0,60.3,0,90.5c-23.1,0-46.2,0-69.4,0c0-30.1,0-60.3,0-90.5
		C236.9,76.8,259.9,76.8,283.1,76.8z"/>
</g>
</svg>
