<?xml version="1.0" encoding="utf-8"?>
<!-- Generator: Adobe Illustrator 20.1.0, SVG Export Plug-In . SVG Version: 6.00 Build 0)  -->
<svg version="1.1" id="图层_1" xmlns="http://www.w3.org/2000/svg" xmlns:xlink="http://www.w3.org/1999/xlink" x="0px" y="0px"
	 viewBox="0 0 360 360" style="enable-background:new 0 0 360 360;" xml:space="preserve">
<style type="text/css">
	.st0{fill:#FFFFFF;}
</style>
<g>
	<path class="st0" d="M0.2,360.5c0-120.1,0-240.2,0-360.2c120.1,0,240.2,0,360.2,0c0,120.1,0,240.2,0,360.2
		C240.4,360.5,120.3,360.5,0.2,360.5z M76,57.9c0,2.3,0,4.5,0,6.7c0.2,10.7,0.4,21.4,0.5,32.1c0.1,11.7,0.2,23.4,0.2,35
		c0.1,17.8,0.1,35.7,0.2,53.5c0,26.7,0.1,53.4,0.1,80.2c0,0.1,0,0.2,0,0.4c0.1,5.1,0.7,10,2.4,14.8c2.5,6.9,6.9,12,13.9,14.5
		c3.8,1.4,7.8,1.9,11.8,1.9c60.1,0,120.2,0,180.4,0c2.4,0,4.7-0.1,7.1-0.4c11-1.3,18.9-6.9,23.2-17.3c0.2-0.4,0.3-0.8,0.3-0.9
		c-1.8-1.3-3.6-2.3-5.1-3.6c-2.6-2.3-4.2-5.3-5.4-8.5c-3.4-8.5-4.5-17.4-5.2-26.5c-0.3-3.7-0.4-7.4-0.6-11.2c-2.3,0-4.7,0-7,0
		c0,0.3-0.1,0.6-0.1,0.8c-0.5,12-0.9,24-2.4,36c-0.4,3.4-1,6.8-2,10.1c-1.3,4.3-4.3,6.9-9,7.3c-1.5,0.1-3-0.1-4.5-0.1
		c-54.1,0-108.2,0-162.4,0c-0.7,0-1.4,0-2.2,0c-6.8-0.4-11.7-4.1-13.9-10.6c-1.2-3.4-1.5-6.9-1.5-10.4c0-31.4,0-62.7,0-94.1
		c0-0.4,0-0.8,0.1-1.3c55.8,0,111.4,0,167.2,0c0,5.1,0,10,0,15.1c0.5-0.2,0.8-0.3,1.1-0.4c5.6-2.4,11.1-4.9,16.7-7.3
		c0.8-0.4,1.1-0.8,1.1-1.7c-0.3-12.7-0.6-25.3-0.9-38c-0.1-5.6-0.1-11.2-0.2-16.8c0-12-0.1-24.1-0.1-36.1c0-0.7,0.2-1.1,0.9-1.5
		c2.9-1.6,5.7-3.2,8.6-4.8c0.4-0.2,0.7-0.4,1-0.6c-6.3-6.3-12.6-12.6-18.8-18.8c-3.5,3.9-7.2,7.8-10.7,11.8c-0.7,0.8-1.3,1-2.4,1
		c-52.4,0-104.8,0-157.2,0c-3.5,0-6.6-0.6-9.6-2.4C86.3,63.2,81.1,60.6,76,57.9z"/>
	<path d="M76,57.9c5.1,2.7,10.3,5.3,15.3,8.2c3.1,1.8,6.1,2.4,9.6,2.4c52.4-0.1,104.8-0.1,157.2,0c1,0,1.7-0.3,2.4-1
		c3.6-4,7.2-7.9,10.7-11.8c6.3,6.3,12.5,12.5,18.8,18.8c-0.3,0.2-0.6,0.4-1,0.6c-2.9,1.6-5.7,3.2-8.6,4.8c-0.6,0.3-0.9,0.7-0.9,1.5
		c0.1,12,0.1,24.1,0.1,36.1c0,5.6,0,11.2,0.2,16.8c0.3,12.7,0.6,25.3,0.9,38c0,0.9-0.2,1.3-1.1,1.7c-5.6,2.4-11.1,4.8-16.7,7.3
		c-0.3,0.1-0.7,0.2-1.1,0.4c0-5.1,0-10.1,0-15.1c-55.8,0-111.4,0-167.2,0c0,0.4-0.1,0.8-0.1,1.3c0,31.4,0,62.7,0,94.1
		c0,3.5,0.3,7,1.5,10.4c2.2,6.5,7.1,10.2,13.9,10.6c0.7,0,1.4,0,2.2,0c54.1,0,108.2,0,162.4,0c1.5,0,3,0.2,4.5,0.1
		c4.6-0.3,7.7-3,9-7.3c1-3.3,1.5-6.7,2-10.1c1.5-11.9,1.9-24,2.4-36c0-0.2,0-0.5,0.1-0.8c2.3,0,4.7,0,7,0c0.2,3.8,0.3,7.5,0.6,11.2
		c0.7,9,1.8,18,5.2,26.5c1.3,3.2,2.8,6.2,5.4,8.5c1.5,1.3,3.3,2.4,5.1,3.6c0,0.1-0.2,0.5-0.3,0.9c-4.3,10.3-12.2,15.9-23.2,17.3
		c-2.3,0.3-4.7,0.4-7.1,0.4c-60.1,0-120.2,0-180.4,0c-4,0-8-0.5-11.8-1.9c-7-2.6-11.5-7.6-13.9-14.5c-1.7-4.8-2.3-9.8-2.4-14.8
		c0-0.1,0-0.2,0-0.4c0-26.7,0-53.4-0.1-80.2c0-17.8-0.1-35.7-0.2-53.5c0-11.7-0.1-23.4-0.2-35C76.4,86,76.2,75.3,76,64.5
		C76,62.4,76,60.2,76,57.9z M261.8,159.1c0-27.9,0-55.6,0-83.4c-55.7,0-111.4,0-167,0c0,27.8,0,55.6,0,83.4
		C150.4,159.1,206.1,159.1,261.8,159.1z"/>
	<path class="st0" d="M261.8,159.1c-55.7,0-111.4,0-167,0c0-27.8,0-55.6,0-83.4c55.7,0,111.3,0,167,0
		C261.8,103.4,261.8,131.2,261.8,159.1z"/>
</g>
</svg>
