<?xml version="1.0" encoding="utf-8"?>
<!-- Generator: Adobe Illustrator 20.1.0, SVG Export Plug-In . SVG Version: 6.00 Build 0)  -->
<svg version="1.1" id="图层_1" xmlns="http://www.w3.org/2000/svg" xmlns:xlink="http://www.w3.org/1999/xlink" x="0px" y="0px"
	 viewBox="0 0 360 360" style="enable-background:new 0 0 360 360;" xml:space="preserve">
<style type="text/css">
	.st0{fill:#FFFFFF;}
</style>
<g>
	<path class="st0" d="M0.2,360.5c0-120.1,0-240.2,0-360.2c120.1,0,240.2,0,360.2,0c0,120.1,0,240.2,0,360.2
		C240.4,360.5,120.3,360.5,0.2,360.5z M173.6,42.5c0,0.4,0,0.7,0,0.9c0.4,10.2,1,20.4,1.1,30.7c0.1,47.5,0.1,95,0.1,142.6
		c0,0.4,0,0.8,0,1.4c-31,0-61.9,0-93,0c0.2,0.3,0.2,0.4,0.3,0.5c3.2,3.2,6.4,6.5,9.7,9.6c0.3,0.3,1,0.4,1.5,0.3
		c8.7-2.3,17.6-3.3,26.6-3.3c17.8,0,35.7,0,53.5,0c0.4,0,0.9,0,1.3,0c0,22,0,43.9,0,66c-43.1,0-86.2,0-129.4,0
		c0.2,0.3,0.3,0.4,0.4,0.5c3.2,3.2,6.4,6.4,9.6,9.6c0.3,0.3,0.9,0.4,1.3,0.3c8.5-2.2,17.2-3.2,26-3.2c78.8,0,157.5,0,236.3,0
		c0.4,0,0.7,0,1.1,0c0.2,0,0.5-0.1,0.5-0.1c-8.9-8.9-17.9-17.9-27.1-27.1c-0.2,0.2-0.4,0.7-0.7,1c-6.1,6.1-12.2,12.2-18.2,18.3
		c-0.6,0.6-1.2,0.8-2,0.8c-26.6,0-53.3,0-79.9,0c-0.4,0-0.8,0-1.2,0c0-22.1,0-44,0-66c32.5,0,65,0,97.4,0
		c-8.2-8.2-16.4-16.4-24.6-24.6c-0.2,0.2-0.5,0.5-0.8,0.8c-5.3,5.3-10.5,10.5-15.8,15.8c-0.6,0.6-1.2,0.9-2.1,0.9
		c-17.6,0-35.2,0-52.8,0c-0.4,0-0.8,0-1.4,0c0-0.7,0-1.2,0-1.7c0-36,0-72.1,0-108.1c0-14,0-28.1,0-42.1c0-0.8,0.2-1.3,0.9-1.8
		c2.8-2.1,5.6-4.4,8.4-6.5c0.4-0.3,0.8-0.7,1.4-1.1C192.4,51.9,183.1,47.2,173.6,42.5z"/>
	<path d="M173.6,42.5c9.5,4.7,18.8,9.4,28.3,14.2c-0.5,0.4-0.9,0.8-1.4,1.1c-2.8,2.2-5.6,4.4-8.4,6.5c-0.6,0.5-0.9,1-0.9,1.8
		c0,14,0,28.1,0,42.1c0,36,0,72.1,0,108.1c0,0.5,0,1,0,1.7c0.5,0,0.9,0,1.4,0c17.6,0,35.2,0,52.8,0c0.9,0,1.5-0.3,2.1-0.9
		c5.2-5.3,10.5-10.5,15.8-15.8c0.3-0.3,0.6-0.6,0.8-0.8c8.2,8.2,16.4,16.4,24.6,24.6c-32.4,0-64.8,0-97.4,0c0,22,0,43.9,0,66
		c0.4,0,0.8,0,1.2,0c26.6,0,53.3,0,79.9,0c0.8,0,1.4-0.2,2-0.8c6.1-6.1,12.2-12.2,18.2-18.3c0.3-0.3,0.5-0.7,0.7-1
		c9.2,9.2,18.1,18.1,27.1,27.1c0,0-0.3,0.1-0.5,0.1c-0.4,0-0.7,0-1.1,0c-78.8,0-157.5,0-236.3,0c-8.8,0-17.5,1.1-26,3.2
		c-0.4,0.1-1.1,0-1.3-0.3c-3.2-3.2-6.4-6.4-9.6-9.6c-0.1-0.1-0.2-0.2-0.4-0.5c43.3,0,86.3,0,129.4,0c0-22,0-43.9,0-66
		c-0.5,0-0.9,0-1.3,0c-17.8,0-35.7,0-53.5,0c-9,0-17.9,1-26.6,3.3c-0.4,0.1-1.2,0-1.5-0.3c-3.3-3.2-6.5-6.4-9.7-9.6
		c-0.1-0.1-0.2-0.2-0.3-0.5c31,0,61.9,0,93,0c0-0.5,0-1,0-1.4c0-47.5,0.1-95-0.1-142.6c0-10.2-0.7-20.4-1.1-30.7
		C173.6,43.1,173.6,42.9,173.6,42.5z"/>
</g>
</svg>
