<?xml version="1.0" encoding="utf-8"?>
<!-- Generator: Adobe Illustrator 20.1.0, SVG Export Plug-In . SVG Version: 6.00 Build 0)  -->
<svg version="1.1" id="图层_1" xmlns="http://www.w3.org/2000/svg" xmlns:xlink="http://www.w3.org/1999/xlink" x="0px" y="0px"
	 viewBox="0 0 360 360" style="enable-background:new 0 0 360 360;" xml:space="preserve">
<style type="text/css">
	.st0{fill:#FFFFFF;}
</style>
<g>
	<path class="st0" d="M0.2,360.5c0-120.1,0-240.2,0-360.2c120.1,0,240.2,0,360.2,0c0,120.1,0,240.2,0,360.2
		C240.4,360.5,120.3,360.5,0.2,360.5z M105.3,143.8c0-0.7,0-1.2,0-1.7c0-18.7,0-37.4,0-56.2c0-4.7,0-9.4,0-14.2
		c0-0.5,0.3-1.2,0.7-1.6c1.2-1.2,2.6-2.3,3.9-3.4c1.6-1.4,3.2-2.8,4.8-4.2c-9.1-4.3-18-8.6-27.2-13c1.9,31.6,1,62.9,1.3,94.3
		c-14.6,0-29,0-43.7,0c3.5,3.5,6.9,6.9,10.2,10.2c0.2,0.2,0.8,0.4,1.2,0.3c10.1-2.7,20.5-3.5,30.9-3.3c0.4,0,0.8,0,1.4,0.1
		c0,0.5,0,0.8,0,1.2c0,34.5,0,69,0,103.6c0,0.8-0.2,1.3-1,1.6c-12.5,4-25.1,8.1-37.6,12.1c-2,0.6-4,1.1-6.2,1.7
		c4.8,7.1,9.4,14.1,14,20.9c2.6-2.2,5-4.5,7.7-6.4c9-6.6,18.9-11.7,28.9-16.8c16.1-8.2,32.5-15.6,49.1-22.9c3.3-1.5,6.6-2.9,10-4.4
		c-0.4-2-0.8-3.9-1.2-5.9c-15.7,5.5-31.3,11-47,16.4c0-33.8,0-67.4,0-101.2c14.8,0,29.6,0,44.3,0c-6.7-6.7-13.3-13.3-20.1-20.1
		c-0.2,0.2-0.4,0.6-0.7,0.9c-3.8,3.8-7.5,7.5-11.3,11.3c-0.3,0.3-0.8,0.7-1.2,0.7C112.9,143.8,109.2,143.8,105.3,143.8z"/>
	<path d="M105.3,143.8c3.9,0,7.5,0,11.2,0c0.4,0,0.9-0.4,1.2-0.7c3.8-3.7,7.5-7.5,11.3-11.3c0.3-0.3,0.5-0.7,0.7-0.9
		c6.8,6.8,13.4,13.4,20.1,20.1c-14.7,0-29.5,0-44.3,0c0,33.8,0,67.4,0,101.2c15.7-5.5,31.3-10.9,47-16.4c0.4,2,0.8,3.9,1.2,5.9
		c-3.4,1.5-6.7,2.9-10,4.4c-16.5,7.2-33,14.7-49.1,22.9c-9.9,5.1-19.8,10.2-28.9,16.8c-2.7,1.9-5.1,4.2-7.7,6.4
		c-4.5-6.8-9.2-13.8-14-20.9c2.1-0.6,4.2-1.1,6.2-1.7c12.5-4,25.1-8.1,37.6-12.1c0.9-0.3,1-0.7,1-1.6c0-34.5,0-69,0-103.6
		c0-0.4,0-0.7,0-1.2c-0.5,0-0.9-0.1-1.4-0.1c-10.4-0.2-20.8,0.6-30.9,3.3c-0.3,0.1-0.9,0-1.2-0.3c-3.4-3.3-6.7-6.6-10.2-10.2
		c14.7,0,29.1,0,43.7,0c-0.2-31.4,0.6-62.8-1.3-94.3c9.2,4.4,18.1,8.7,27.2,13c-1.7,1.5-3.2,2.8-4.8,4.2c-1.3,1.1-2.6,2.2-3.9,3.4
		c-0.4,0.4-0.7,1.1-0.7,1.6c-0.1,4.7,0,9.4,0,14.2c0,18.7,0,37.4,0,56.2C105.3,142.6,105.3,143.1,105.3,143.8z"/>
</g>
</svg>
