<?xml version="1.0" encoding="utf-8"?>
<!-- Generator: Adobe Illustrator 20.1.0, SVG Export Plug-In . SVG Version: 6.00 Build 0)  -->
<svg version="1.1" id="图层_1" xmlns="http://www.w3.org/2000/svg" xmlns:xlink="http://www.w3.org/1999/xlink" x="0px" y="0px"
	 viewBox="0 0 360 360" style="enable-background:new 0 0 360 360;" xml:space="preserve">
<style type="text/css">
	.st0{fill:#FFFFFF;}
</style>
<g>
	<path class="st0" d="M0.2,360.5c0-120.1,0-240.2,0-360.2c120.1,0,240.2,0,360.2,0c0,120.1,0,240.2,0,360.2
		C240.4,360.5,120.3,360.5,0.2,360.5z M68.9,314.6c0.3-0.1,0.6-0.2,1-0.4c4.4-1.8,8.9-3.6,13.3-5.3c1.1-0.4,2.5-0.6,3.1-1.4
		c0.5-0.8,0.2-2.2,0.2-3.4c0-2.3,0-4.6,0-7c64.4,0,128.7,0,193.2,0c0,5.4,0,10.9,0,16.3c0.2,0,0.3,0,0.4,0
		c5.6-2.6,11.2-5.2,16.7-7.8c0.3-0.2,0.6-0.8,0.6-1.2c-0.3-10.8-1-21.6-1-32.5c-0.1-65.1-0.1-130.2,0-195.3c0-1.9-0.5-4,0.2-5.6
		c0.8-1.6,2.8-2.5,4.3-3.7c2-1.6,4-3.1,6.1-4.8c-7.1-5.2-14.2-10.2-21.2-15.3c-0.3,0.4-0.5,0.7-0.8,1c-2.3,3.3-4.6,6.5-6.9,9.8
		c-0.5,0.7-1,1-1.8,1c-62.8,0-125.7,0-188.5,0c-0.7,0-1.4-0.2-2-0.6c-5.2-3.1-10.4-6.2-15.6-9.3c-0.4-0.2-0.7-0.4-1-0.5
		C70.4,137.2,70.2,225.8,68.9,314.6z"/>
	<path d="M68.9,314.6c1.3-88.7,1.5-177.4,0.1-266.1c0.3,0.1,0.6,0.3,1,0.5c5.2,3.1,10.4,6.3,15.6,9.3c0.6,0.3,1.3,0.6,2,0.6
		c62.8,0,125.7,0,188.5,0c0.9,0,1.4-0.3,1.8-1c2.3-3.3,4.6-6.6,6.9-9.8c0.2-0.3,0.5-0.6,0.8-1c7.1,5.1,14.1,10.2,21.2,15.3
		c-2.1,1.6-4.1,3.2-6.1,4.8c-1.5,1.2-3.5,2.1-4.3,3.7c-0.8,1.5-0.2,3.7-0.2,5.6c0,65.1-0.1,130.2,0,195.3c0,10.8,0.7,21.6,1,32.5
		c0,0.4-0.3,1-0.6,1.2c-5.6,2.6-11.1,5.2-16.7,7.8c-0.1,0-0.1,0-0.4,0c0-5.4,0-10.8,0-16.3c-64.4,0-128.7,0-193.2,0c0,2.4,0,4.7,0,7
		c0,1.2,0.4,2.6-0.2,3.4c-0.5,0.8-2,1-3.1,1.4c-4.4,1.8-8.9,3.6-13.3,5.3C69.5,314.4,69.2,314.5,68.9,314.6z M279.5,289.8
		c0-74.6,0-149.1,0-223.6c-64.4,0-128.7,0-193,0c0,74.6,0,149,0,223.6C150.9,289.8,215.2,289.8,279.5,289.8z"/>
	<path class="st0" d="M279.5,289.8c-64.3,0-128.6,0-193,0c0-74.5,0-149,0-223.6c64.3,0,128.6,0,193,0
		C279.5,140.7,279.5,215.2,279.5,289.8z"/>
</g>
</svg>
