<?xml version="1.0" encoding="utf-8"?>
<!-- Generator: Adobe Illustrator 20.1.0, SVG Export Plug-In . SVG Version: 6.00 Build 0)  -->
<svg version="1.1" id="图层_1" xmlns="http://www.w3.org/2000/svg" xmlns:xlink="http://www.w3.org/1999/xlink" x="0px" y="0px"
	 viewBox="0 0 360 360" style="enable-background:new 0 0 360 360;" xml:space="preserve">
<style type="text/css">
	.st0{fill:#FFFFFF;}
</style>
<g>
	<path class="st0" d="M0.2,360.5c0-120.1,0-240.2,0-360.2c120.1,0,240.2,0,360.2,0c0,120.1,0,240.2,0,360.2
		C240.4,360.5,120.3,360.5,0.2,360.5z M110,83.8c0,0.7,0,1.2,0,1.8c0,64.5,0,129,0,193.4c0,2.5,0.2,5.1,0.7,7.6
		c1.8,9.5,7.2,15.9,16.5,18.9c4.8,1.6,9.8,2.1,14.8,2.1c49,0,97.9,0,146.9,0c3.3,0,6.7-0.2,10-0.7c7.3-1,13.8-3.8,18.9-9.2
		c1.6-1.6,2.9-3.5,4.4-5.4c-0.6-0.3-0.8-0.4-1.1-0.5c-0.3-0.1-0.6-0.3-0.9-0.4c-4.5-2.1-7.3-5.6-8.4-10.4c-0.5-2.2-0.7-4.4-0.8-6.7
		c-0.3-7.6-0.5-15.3-0.7-22.9c0-1.3,0-2.6,0-4c-2.1,0-4,0-6,0c-0.3,5.8-0.5,11.5-0.9,17.2c-0.4,6.5-0.9,12.9-1.4,19.4
		c-0.4,5.1-3.4,8.2-8.2,9.4c-2.8,0.7-5.8,1.1-8.8,1.1c-37.7,0.1-75.4,0-113.2,0c-7.8,0-15.7,0-23.5,0c-3.1,0-6.2,0.2-9.2-0.2
		c-7.3-0.7-12.2-5.1-14.2-12.2c-0.9-3.4-0.9-6.9-0.9-10.4c0-62.1,0-124.2,0-186.4c0-0.5,0-1.1,0-1.8c8.3,0,16.4,0,24.4,0
		c-6.2-6.2-12.4-12.4-18.7-18.7c-3.5,3.5-7.1,7.1-10.6,10.7c-0.6,0.7-1.3,0.9-2.2,0.9c-24.2,0-48.3,0-72.5,0c-0.5,0-0.9,0-1.5,0
		c0.2,0.3,0.3,0.4,0.4,0.5c3.2,3.2,6.4,6.5,9.7,9.7c0.3,0.3,0.9,0.3,1.4,0.2c3-0.8,5.9-1.7,8.9-2.3c2.9-0.6,5.9-0.7,9-1.1
		c0,0.7,0.1,1.1,0.1,1.5c0.1,4.6,0.2,9.2,0.2,13.8c0,11.3-0.1,22.6-0.2,33.9c-0.1,7.8-0.2,15.7-0.5,23.5
		c-0.5,13.1-1.2,26.3-1.8,39.4c-0.7,14.5-2,28.9-4.3,43.2c-2.5,16.1-6.2,31.9-11.2,47.4c-3.2,9.8-6.9,19.3-11.1,28.7
		c-0.2,0.4-0.2,1,0,1.3c0.9,1.1,2,2.2,3.1,3.4c0.4-0.6,0.6-0.9,0.8-1.3c7.5-13.3,14.2-27.1,19.8-41.3c6.4-16.4,11.3-33.2,14-50.6
		c2.3-14.9,3.5-29.9,4.1-44.9c0.7-17.4,1.3-34.8,1.6-52.2c0.2-14.3,0-28.6-0.1-42.8c0-0.9,0-1.7,0-2.6
		C94.3,83.8,102.1,83.8,110,83.8z"/>
	<path d="M110,83.8c-7.9,0-15.6,0-23.5,0c0,0.9,0,1.7,0,2.6c0.1,14.3,0.3,28.6,0.1,42.8c-0.3,17.4-0.9,34.8-1.6,52.2
		c-0.6,15-1.8,30-4.1,44.9c-2.7,17.4-7.6,34.2-14,50.6c-5.6,14.3-12.3,28-19.8,41.3c-0.2,0.3-0.4,0.7-0.8,1.3
		c-1.1-1.2-2.1-2.2-3.1-3.4c-0.2-0.2-0.1-0.9,0-1.3c4.3-9.3,8-18.9,11.1-28.7c5-15.5,8.7-31.3,11.2-47.4c2.3-14.3,3.6-28.7,4.3-43.2
		c0.7-13.1,1.3-26.3,1.8-39.4c0.3-7.8,0.5-15.7,0.5-23.5c0.1-11.3,0.2-22.6,0.2-33.9c0-4.6-0.1-9.2-0.2-13.8c0-0.4,0-0.8-0.1-1.5
		c-3.1,0.3-6,0.5-9,1.1c-3,0.6-5.9,1.6-8.9,2.3c-0.4,0.1-1.1,0.1-1.4-0.2c-3.3-3.2-6.5-6.4-9.7-9.7c-0.1-0.1-0.2-0.2-0.4-0.5
		c0.6,0,1.1,0,1.5,0c24.2,0,48.3,0,72.5,0c0.9,0,1.6-0.2,2.2-0.9c3.6-3.6,7.2-7.2,10.6-10.7c6.3,6.3,12.5,12.5,18.7,18.7
		c-8,0-16.1,0-24.4,0c0,0.7,0,1.2,0,1.8c0,62.1,0,124.2,0,186.4c0,3.5,0,7,0.9,10.4c1.9,7.1,6.8,11.5,14.2,12.2
		c3,0.3,6.1,0.1,9.2,0.2c7.8,0,15.7,0,23.5,0c37.7,0,75.4,0,113.2,0c2.9,0,5.9-0.4,8.8-1.1c4.8-1.2,7.8-4.3,8.2-9.4
		c0.5-6.5,1-12.9,1.4-19.4c0.4-5.7,0.6-11.4,0.9-17.2c1.9,0,3.9,0,6,0c0,1.3,0,2.6,0,4c0.2,7.6,0.4,15.3,0.7,22.9
		c0.1,2.2,0.3,4.5,0.8,6.7c1.1,4.8,3.9,8.3,8.4,10.4c0.3,0.1,0.6,0.3,0.9,0.4c0.3,0.1,0.5,0.2,1.1,0.5c-1.5,1.9-2.9,3.8-4.4,5.4
		c-5.2,5.4-11.7,8.2-18.9,9.2c-3.3,0.5-6.7,0.7-10,0.7c-49,0-97.9,0-146.9,0c-5,0-10-0.5-14.8-2.1c-9.3-3-14.7-9.5-16.5-18.9
		c-0.5-2.5-0.7-5.1-0.7-7.6c0-64.5,0-129,0-193.4C110,85,110,84.5,110,83.8z"/>
</g>
</svg>
