<?xml version="1.0" encoding="utf-8"?>
<!-- Generator: Adobe Illustrator 20.1.0, SVG Export Plug-In . SVG Version: 6.00 Build 0)  -->
<svg version="1.1" id="图层_1" xmlns="http://www.w3.org/2000/svg" xmlns:xlink="http://www.w3.org/1999/xlink" x="0px" y="0px"
	 viewBox="0 0 360 360" style="enable-background:new 0 0 360 360;" xml:space="preserve">
<style type="text/css">
	.st0{fill:#FFFFFF;}
</style>
<g>
	<path class="st0" d="M0.2,360.5c0-120.1,0-240.2,0-360.2c120.1,0,240.2,0,360.2,0c0,120.1,0,240.2,0,360.2
		C240.4,360.5,120.3,360.5,0.2,360.5z M280.8,185c-0.2,0.2-0.4,0.3-0.5,0.4c-5.4,4.7-10.8,9.4-16.2,14.1c-0.7,0.6-1.3,0.9-2.2,0.9
		c-10.8,0-21.6,0-32.4,0c-56.9,0-113.8,0-170.7,0c-0.5,0-1,0-1.8,0c3.5,3.5,6.7,6.7,9.9,9.9c0.6,0.6,1,0.6,1.8,0.4
		c8.2-2.2,16.6-3.2,25-3.2c15.5-0.1,31,0,46.6,0c0.5,0,0.9,0,1.5,0c0,0.5,0,0.8,0,1.1c-0.5,4.8-0.9,9.6-1.5,14.4
		c-1.2,9.8-2.8,19.5-5.5,29c-2.1,7.3-4.7,14.3-9,20.7c-7,10.3-16.3,17.8-27.3,23.2C84.5,302.6,70,307.5,55,310.8
		c-2.5,0.6-5,1-7.5,1.5c0.4,1.6,0.8,3.2,1.2,4.7c0.3,0,0.5,0,0.6-0.1c6.9-1.2,13.9-2.2,20.8-3.6c13.3-2.6,26.3-6.1,38.8-11.3
		c10.1-4.1,19.1-9.9,26.7-17.9c7.3-7.7,11.8-16.9,14.9-26.9c4.9-15.8,7.1-32.1,8.8-48.5c0.1-1,0.3-1.4,1.5-1.4c12.9,0,25.8,0,38.6,0
		c0.4,0,0.8,0.1,1.2,0.1c0,0.6,0,1.1,0,1.5c0,24.6,0,49.2,0,73.8c0,0.8,0,1.7,0,2.5c0.4,8.7,4.5,14.9,12.7,18.2
		c4.8,1.9,9.8,2.7,14.9,2.8c6.5,0.1,13,0.1,19.6,0.1c11.2,0,22.3,0,33.5,0.1c4.9,0,9.8-0.2,14.6-1.5c7.4-1.9,13.5-5.6,17.5-12.2
		c0.5-0.9,1-1.8,1.5-2.8c-0.3-0.1-0.5-0.2-0.6-0.2c-6.2-0.9-9.8-4.7-11.7-10.5c-1.4-4.3-1.7-8.7-1.9-13.1
		c-0.5-9.1-0.7-18.1-1.1-27.2c0-0.3-0.1-0.6-0.1-0.9c-2,0-3.9,0-5.9,0c-0.2,4.1-0.5,8.2-0.7,12.3c-0.6,9.2-1.3,18.3-2.9,27.4
		c-0.6,3.7-1.6,7.3-3.9,10.3c-2,2.7-4.6,4.1-8.1,4.1c-12-0.1-23.9,0-35.9,0c-1.6,0-3.3,0.2-4.9,0.2c-2.5,0-5.1,0-7.5-0.3
		c-5.9-0.9-10.2-4-11.8-10c-0.5-2-0.8-4.2-0.8-6.3c-0.1-22.3,0-44.6,0-66.8c0-0.4,0-0.9,0-1.4c29.5,0,58.8,0,88.4,0
		C297.2,199.8,289,192.5,280.8,185z"/>
	<path d="M280.8,185c8.2,7.4,16.4,14.8,24.8,22.4c-29.6,0-58.9,0-88.4,0c0,0.6,0,1,0,1.4c0,22.3,0,44.6,0,66.8
		c0,2.1,0.3,4.3,0.8,6.3c1.6,6,5.9,9.1,11.8,10c2.5,0.4,5,0.3,7.5,0.3c1.6,0,3.3-0.2,4.9-0.2c12,0,23.9-0.1,35.9,0
		c3.5,0,6.1-1.4,8.1-4.1c2.3-3.1,3.3-6.6,3.9-10.3c1.6-9.1,2.3-18.2,2.9-27.4c0.3-4.1,0.5-8.1,0.7-12.3c1.9,0,3.9,0,5.9,0
		c0,0.3,0.1,0.6,0.1,0.9c0.3,9.1,0.6,18.1,1.1,27.2c0.2,4.4,0.5,8.9,1.9,13.1c1.8,5.8,5.4,9.6,11.7,10.5c0.2,0,0.3,0.1,0.6,0.2
		c-0.5,1-1,1.9-1.5,2.8c-4.1,6.6-10.2,10.3-17.5,12.2c-4.8,1.2-9.7,1.5-14.6,1.5c-11.2-0.1-22.3,0-33.5-0.1c-6.5,0-13,0-19.6-0.1
		c-5.1-0.1-10.1-0.8-14.9-2.8c-8.2-3.3-12.3-9.4-12.7-18.2c0-0.8,0-1.7,0-2.5c0-24.6,0-49.2,0-73.8c0-0.5,0-0.9,0-1.5
		c-0.5,0-0.8-0.1-1.2-0.1c-12.9,0-25.8,0-38.6,0c-1.1,0-1.4,0.4-1.5,1.4c-1.7,16.4-4,32.7-8.8,48.5c-3.1,10-7.6,19.2-14.9,26.9
		c-7.5,8-16.6,13.7-26.7,17.9c-12.5,5.1-25.6,8.7-38.8,11.3c-6.9,1.4-13.9,2.4-20.8,3.6c-0.2,0-0.3,0-0.6,0.1
		c-0.4-1.5-0.8-3.1-1.2-4.7c2.5-0.5,5-1,7.5-1.5c15-3.3,29.5-8.2,43.3-14.9c11-5.4,20.3-12.9,27.3-23.2c4.3-6.3,7-13.4,9-20.7
		c2.7-9.5,4.4-19.2,5.5-29c0.6-4.8,1-9.6,1.5-14.4c0-0.3,0-0.6,0-1.1c-0.5,0-1,0-1.5,0c-15.5,0-31-0.1-46.6,0
		c-8.5,0-16.8,1.1-25,3.2c-0.7,0.2-1.2,0.1-1.8-0.4c-3.2-3.2-6.4-6.4-9.9-9.9c0.8,0,1.3,0,1.8,0c56.9,0,113.8,0,170.7,0
		c10.8,0,21.6,0,32.4,0c0.9,0,1.6-0.3,2.2-0.9c5.4-4.7,10.8-9.4,16.2-14.1C280.4,185.3,280.6,185.2,280.8,185z"/>
</g>
</svg>
