<?xml version="1.0" encoding="utf-8"?>
<!-- Generator: Adobe Illustrator 20.1.0, SVG Export Plug-In . SVG Version: 6.00 Build 0)  -->
<svg version="1.1" id="图层_1" xmlns="http://www.w3.org/2000/svg" xmlns:xlink="http://www.w3.org/1999/xlink" x="0px" y="0px"
	 viewBox="0 0 360 360" style="enable-background:new 0 0 360 360;" xml:space="preserve">
<style type="text/css">
	.st0{fill:#FFFFFF;}
</style>
<g>
	<path class="st0" d="M0.2,360.5c0-120.1,0-240.2,0-360.2c120.1,0,240.2,0,360.2,0c0,120.1,0,240.2,0,360.2
		C240.4,360.5,120.3,360.5,0.2,360.5z M133.7,226.8c6.5-5.9,13-11.8,19.5-17.7c0.4-0.3,1-0.5,1.5-0.5c31.8,0,63.6,0,95.4,0
		c0.3,0,0.7,0,1.1,0.1c-0.2,0.4-0.4,0.7-0.6,0.9c-8.7,13.4-18.9,25.6-30.6,36.5c-18.3,16.9-39,30.1-61.8,40
		c-17.2,7.4-35,12.9-53.1,17.3c-16.7,4-33.5,7.1-50.5,9.4c-1.6,0.2-3.1,0.5-4.7,0.7c0.4,1.4,0.7,2.6,1,3.9c0.1,0.7,0.4,0.9,1.1,0.8
		c14.3-1.1,28.6-2.6,42.8-4.7c16.5-2.4,32.9-5.5,49.1-9.9c14.3-3.9,28.3-8.6,41.5-15.3c33.3-16.9,61-40.6,83.4-70.5
		c1-1.4,2.2-2.5,3.7-3.2c2.9-1.3,5.7-2.8,8.5-4.2c0.3-0.2,0.7-0.4,0.9-0.5c-6.7-6.7-13.3-13.3-20.2-20.2c-0.2,0.3-0.4,0.7-0.7,1
		c-3.4,3.4-6.8,6.8-10.2,10.2c-0.4,0.4-1.1,0.7-1.6,0.7c-29.5,0-59,0-88.4,0c-0.3,0-0.6-0.1-1.1-0.1c5.8-5.5,11.7-10.3,19.9-11.7
		c-7.6-6-15-11.8-22.4-17.7c-22.2,40.7-54.9,70.8-94.3,94.3c0.6,1,1.3,1.8,1.8,2.8c0.4,0.7,0.8,0.8,1.6,0.4c4.3-2,8.8-3.8,13.1-6
		c15.2-7.6,29.3-17.1,42.7-27.5c2.5-1.9,4.9-3.9,7.5-5.9c3.5,3.7,7,7.2,10.2,10.9c6.8,7.7,12.6,16,16.3,25.6
		c0.6,1.6,1.4,3.1,2.3,4.5c2.8,4.4,5.9,4.4,8.7,0c1.8-2.8,3.2-5.8,3.7-9c0.3-2.1,0.5-4.2,0.3-6.3c-0.5-4.6-3.2-8.1-6.6-11
		c-6.1-5.3-13.2-9.2-20.3-12.9C140.6,230.1,137.1,228.5,133.7,226.8z"/>
	<path d="M133.7,226.8c3.4,1.7,6.9,3.3,10.4,5.1c7.1,3.7,14.2,7.6,20.3,12.9c3.4,3,6.1,6.4,6.6,11c0.2,2.1,0.1,4.2-0.3,6.3
		c-0.5,3.3-1.9,6.3-3.7,9c-2.8,4.4-5.9,4.4-8.7,0c-0.9-1.4-1.7-2.9-2.3-4.5c-3.7-9.7-9.5-18-16.3-25.6c-3.3-3.7-6.8-7.2-10.2-10.9
		c-2.6,2.1-5,4-7.5,5.9c-13.4,10.4-27.4,19.9-42.7,27.5c-4.3,2.1-8.7,4-13.1,6c-0.7,0.3-1.1,0.3-1.6-0.4c-0.5-0.9-1.2-1.8-1.8-2.8
		c39.4-23.5,72.1-53.5,94.3-94.3c7.4,5.9,14.9,11.7,22.4,17.7c-8.2,1.4-14.1,6.2-19.9,11.7c0.5,0.1,0.8,0.1,1.1,0.1
		c29.5,0,59,0,88.4,0c0.6,0,1.2-0.3,1.6-0.7c3.4-3.4,6.8-6.8,10.2-10.2c0.3-0.3,0.5-0.7,0.7-1c6.9,6.9,13.5,13.5,20.2,20.2
		c-0.2,0.1-0.6,0.3-0.9,0.5c-2.8,1.4-5.6,2.9-8.5,4.2c-1.6,0.7-2.7,1.8-3.7,3.2c-22.3,30-50,53.6-83.4,70.5
		c-13.2,6.7-27.2,11.4-41.5,15.3c-16.1,4.4-32.5,7.5-49.1,9.9c-14.2,2.1-28.5,3.5-42.8,4.7c-0.7,0.1-1-0.1-1.1-0.8
		c-0.3-1.2-0.6-2.5-1-3.9c1.6-0.2,3.2-0.5,4.7-0.7c17-2.3,33.8-5.4,50.5-9.4c18.2-4.4,36-9.9,53.1-17.3c22.8-9.9,43.5-23,61.8-40
		c11.7-10.9,21.9-23,30.6-36.5c0.2-0.3,0.3-0.5,0.6-0.9c-0.4,0-0.8-0.1-1.1-0.1c-31.8,0-63.6,0-95.4,0c-0.5,0-1.1,0.1-1.5,0.5
		C146.7,214.9,140.2,220.8,133.7,226.8z"/>
</g>
</svg>
