<?xml version="1.0" encoding="utf-8"?>
<!-- Generator: Adobe Illustrator 20.1.0, SVG Export Plug-In . SVG Version: 6.00 Build 0)  -->
<svg version="1.1" id="图层_1" xmlns="http://www.w3.org/2000/svg" xmlns:xlink="http://www.w3.org/1999/xlink" x="0px" y="0px"
	 viewBox="0 0 360 360" style="enable-background:new 0 0 360 360;" xml:space="preserve">
<style type="text/css">
	.st0{fill:#FFFFFF;}
</style>
<g>
	<path class="st0" d="M0.2,360.5c0-120.1,0-240.2,0-360.2c120.1,0,240.2,0,360.2,0c0,120.1,0,240.2,0,360.2
		C240.4,360.5,120.3,360.5,0.2,360.5z M204.2,108.6c0.3,0.3,0.5,0.4,0.6,0.6c0.6,0.7,1.3,1.3,1.9,2c5.4,6.1,9.4,13.1,12.4,20.8
		c1,2.5,2.1,5,3.9,6.9c1.9,2,4,2,5.8,0c5.2-5.8,7.1-15.5-1.2-22.1c-4.1-3.3-8.5-6-13.1-8.4c-2.2-1.2-4.4-2.2-6.6-3.4
		c0.2-0.2,0.3-0.4,0.4-0.5c4.3-5,8.5-9.9,12.8-14.9c0.6-0.7,1.1-1,2-1c19.1,0,38.2,0,57.4,0c0.4,0,0.8,0,1.3,0.1
		c-0.3,0.5-0.4,0.9-0.6,1.2c-2.3,3.7-4.5,7.6-7,11.2c-5.9,8.4-12.7,16-19.9,23.4c-8,8.3-16.5,16-25.9,22.6
		c-15.5,10.9-32.2,19.4-49.5,26.8c-3.3,1.4-6.7,2.8-10.1,4.2c0.2,0.8,0.4,1.6,0.6,2.4c0.2,0.8,0.4,1.5,0.6,2.3
		c0.3-0.1,0.5-0.1,0.7-0.1c19.1-5.8,37.7-12.7,55.5-21.9c16.4-8.5,31.4-18.9,44.4-32.1c10-10.1,18.7-21.2,26.4-33.2
		c1-1.5,2.1-2.7,3.7-3.5c2.8-1.4,5.5-3,8.1-4.5c-5.5-5.5-11-11-16.5-16.5c-3.2,3.2-6.4,6.4-9.6,9.7c-0.6,0.6-1.2,0.8-2,0.8
		c-18,0-35.9,0-53.9,0c-0.4,0-0.8,0-1.3,0c0.2-0.3,0.2-0.6,0.4-0.7c3.2-5.4,6.5-10.8,9.8-16.2c0.3-0.4,0.7-0.8,1.1-1
		c2.6-1.3,5.1-2.6,7.7-3.9c0.3-0.1,0.6-0.3,0.9-0.6c-6.7-4.8-13.4-9.4-20-14.1c-0.1,0.3-0.2,0.5-0.3,0.7c-4.1,12-9.4,23.6-15.1,34.9
		c-5.1,10.2-11.2,19.7-18.5,28.5c-4.9,5.9-10.3,11.4-16,16.5c-0.3,0.3-0.7,0.8-0.6,1.1c0.2,1,0.6,2,1,3.2
		C186.1,123.6,195.2,116.2,204.2,108.6z"/>
	<path d="M204.2,108.6c-9,7.6-18.1,15-28.3,21.2c-0.4-1.1-0.8-2.1-1-3.2c-0.1-0.3,0.3-0.8,0.6-1.1c5.7-5.1,11.1-10.6,16-16.5
		c7.3-8.7,13.4-18.3,18.5-28.5c5.7-11.4,11-22.9,15.1-34.9c0.1-0.2,0.2-0.4,0.3-0.7c6.7,4.7,13.3,9.4,20,14.1
		c-0.4,0.2-0.7,0.4-0.9,0.6c-2.6,1.3-5.2,2.6-7.7,3.9c-0.4,0.2-0.9,0.6-1.1,1c-3.3,5.4-6.5,10.8-9.8,16.2c-0.1,0.2-0.2,0.4-0.4,0.7
		c0.5,0,0.9,0,1.3,0c18,0,35.9,0,53.9,0c0.8,0,1.4-0.2,2-0.8c3.2-3.3,6.5-6.5,9.6-9.7c5.5,5.5,11,11,16.5,16.5
		c-2.6,1.4-5.3,3.1-8.1,4.5c-1.6,0.8-2.8,2-3.7,3.5c-7.7,11.9-16.4,23-26.4,33.2c-13,13.2-28,23.6-44.4,32.1
		c-17.8,9.2-36.4,16.1-55.5,21.9c-0.2,0.1-0.4,0.1-0.7,0.1c-0.2-0.8-0.4-1.5-0.6-2.3c-0.2-0.8-0.4-1.5-0.6-2.4
		c3.4-1.4,6.8-2.8,10.1-4.2c17.3-7.4,34.1-16,49.5-26.8c9.4-6.6,17.9-14.3,25.9-22.6c7.1-7.4,14-14.9,19.9-23.4
		c2.5-3.6,4.7-7.4,7-11.2c0.2-0.3,0.3-0.7,0.6-1.2c-0.5,0-0.9-0.1-1.3-0.1c-19.1,0-38.2,0-57.4,0c-0.9,0-1.4,0.3-2,1
		c-4.2,5-8.5,10-12.8,14.9c-0.1,0.1-0.2,0.3-0.4,0.5c2.3,1.1,4.5,2.2,6.6,3.4c4.6,2.4,9,5.2,13.1,8.4c8.3,6.6,6.3,16.3,1.2,22.1
		c-1.8,2.1-3.9,2.1-5.8,0c-1.9-2-3-4.4-3.9-6.9c-3-7.6-7-14.6-12.4-20.8c-0.6-0.7-1.2-1.3-1.9-2C204.7,109,204.5,108.8,204.2,108.6z
		"/>
</g>
</svg>
