<?xml version="1.0" encoding="utf-8"?>
<!-- Generator: Adobe Illustrator 20.1.0, SVG Export Plug-In . SVG Version: 6.00 Build 0)  -->
<svg version="1.1" id="图层_1" xmlns="http://www.w3.org/2000/svg" xmlns:xlink="http://www.w3.org/1999/xlink" x="0px" y="0px"
	 viewBox="0 0 360 360" style="enable-background:new 0 0 360 360;" xml:space="preserve">
<style type="text/css">
	.st0{fill:#FFFFFF;}
</style>
<g>
	<path class="st0" d="M0.2,360.5c0-120.1,0-240.2,0-360.2c120.1,0,240.2,0,360.2,0c0,120.1,0,240.2,0,360.2
		C240.4,360.5,120.3,360.5,0.2,360.5z M170,119.1c-0.1,0.5-0.1,0.7-0.2,1c-1,4.1-2,8.2-3,12.2c-7.5,29-17.6,57-31.5,83.7
		c-8.9,17.1-19.7,32.8-33,46.8c-13,13.8-27.6,25.8-43.3,36.4c-3,2-6,4-9.1,6.1c0.6,0.9,1.3,1.8,1.8,2.7c0.4,0.7,0.9,0.8,1.5,0.4
		c3.9-1.9,7.8-3.7,11.6-5.7c20.3-10.5,38.4-24,54.3-40.4c9-9.2,17-19.1,24.1-29.8c12.5-18.9,21.9-39.2,29.1-60.6
		c3.6-10.8,7.3-21.5,12-31.8c2.5-5.4,5.1-10.8,8.8-15.5c2.2-2.8,4.6-5.3,8.7-5.6c-7.9-6.7-15.7-13.3-23.5-20c-0.3,0.4-0.6,0.7-0.8,1
		c-2.6,3.6-5.3,7.2-7.9,10.9c-0.5,0.8-1.1,1.1-2.1,1.1c-16,0-31.9,0-47.9,0c-0.4,0-0.8,0-1.4,0c0.2-0.6,0.3-1,0.5-1.4
		c5.6-13.9,11.2-27.9,16.6-41.8c1.1-2.7,2.6-4.7,5.2-6c2-1,3.9-2.4,5.9-3.7c-9.5-5.2-18.9-10.2-28.3-15.3c-0.1,0.3-0.1,0.4-0.2,0.6
		c-1.3,9.4-3.3,18.7-5.7,27.9c-7,26.5-16.3,52.2-27.3,77.3c-7.9,17.9-17.1,35.2-28.3,51.3c-1.8,2.6-3.8,5.2-5.7,7.8
		c1.2,1.2,2.4,2.4,3.6,3.6c15.4-14.7,28.1-31.7,40-49.4c0.3,0.2,0.5,0.4,0.6,0.5c4.6,4.7,9.3,9.3,13.7,14.1
		c5.7,6.1,10.7,12.7,14.6,20.1c0.8,1.5,1.8,3,2.9,4.3c3,3.6,5.7,3.3,7.9-0.8c2.9-5.2,3.9-10.8,3.3-16.8c-0.4-3.9-2-7.1-5.1-9.5
		c-1.7-1.3-3.4-2.6-5.2-3.7c-7.4-4.5-15.5-7.7-23.6-10.8c-2.2-0.8-4.4-1.6-6.7-2.4c0.2-0.4,0.3-0.7,0.5-0.9
		c6.7-11.8,12.4-24.1,17.7-36.6c0.4-0.9,0.9-1.3,1.9-1.3c17.1,0,34.2,0,51.2,0C168.9,119.1,169.4,119.1,170,119.1z"/>
	<path d="M170,119.1c-0.6,0-1,0-1.5,0c-17.1,0-34.2,0-51.2,0c-1.1,0-1.5,0.3-1.9,1.3c-5.3,12.5-11.1,24.8-17.7,36.6
		c-0.2,0.3-0.3,0.6-0.5,0.9c2.3,0.8,4.5,1.6,6.7,2.4c8.1,3,16.2,6.2,23.6,10.8c1.8,1.1,3.5,2.4,5.2,3.7c3.1,2.4,4.8,5.6,5.1,9.5
		c0.5,5.9-0.5,11.5-3.3,16.8c-2.2,4.1-5,4.4-7.9,0.8c-1.1-1.3-2.1-2.8-2.9-4.3c-3.9-7.4-8.9-14-14.6-20.1
		c-4.4-4.8-9.1-9.4-13.7-14.1c-0.2-0.2-0.4-0.3-0.6-0.5c-11.9,17.6-24.5,34.7-40,49.4c-1.2-1.2-2.4-2.4-3.6-3.6
		c1.9-2.6,3.8-5.2,5.7-7.8c11.2-16.1,20.4-33.4,28.3-51.3c11-25.1,20.4-50.7,27.3-77.3c2.4-9.2,4.4-18.5,5.7-27.9
		c0-0.1,0.1-0.3,0.2-0.6c9.4,5.1,18.8,10.2,28.3,15.3c-2.1,1.3-3.9,2.7-5.9,3.7c-2.6,1.3-4.1,3.3-5.2,6c-5.5,14-11.1,27.9-16.6,41.8
		c-0.2,0.4-0.3,0.8-0.5,1.4c0.5,0,1,0,1.4,0c16,0,31.9,0,47.9,0c1,0,1.5-0.3,2.1-1.1c2.6-3.6,5.3-7.3,7.9-10.9
		c0.2-0.3,0.5-0.6,0.8-1c7.8,6.6,15.6,13.2,23.5,20c-4.1,0.3-6.5,2.9-8.7,5.6c-3.7,4.7-6.4,10-8.8,15.5c-4.7,10.3-8.4,21.1-12,31.8
		c-7.2,21.4-16.6,41.8-29.1,60.6c-7.1,10.7-15.1,20.6-24.1,29.8c-15.9,16.4-34.1,29.8-54.3,40.4c-3.8,2-7.8,3.8-11.6,5.7
		c-0.7,0.3-1.1,0.3-1.5-0.4c-0.5-0.9-1.2-1.8-1.8-2.7c3.1-2,6.1-4,9.1-6.1c15.7-10.6,30.3-22.6,43.3-36.4c13.2-14,24.1-29.7,33-46.8
		c13.8-26.6,23.9-54.7,31.5-83.7c1.1-4.1,2-8.1,3-12.2C169.9,119.8,169.9,119.5,170,119.1z"/>
</g>
</svg>
