<?xml version="1.0" encoding="utf-8"?>
<!-- Generator: Adobe Illustrator 20.1.0, SVG Export Plug-In . SVG Version: 6.00 Build 0)  -->
<svg version="1.1" id="图层_1" xmlns="http://www.w3.org/2000/svg" xmlns:xlink="http://www.w3.org/1999/xlink" x="0px" y="0px"
	 viewBox="0 0 360 360" style="enable-background:new 0 0 360 360;" xml:space="preserve">
<style type="text/css">
	.st0{fill:#FFFFFF;}
</style>
<g>
	<path class="st0" d="M0.2,360.5c0-120.1,0-240.2,0-360.2c120.1,0,240.2,0,360.2,0c0,120.1,0,240.2,0,360.2
		C240.4,360.5,120.3,360.5,0.2,360.5z M179.6,127.3c0,0.9,0,1.5,0,2.2c0.3,7.6,0.7,15.2,0.8,22.9c0.2,8.6,0.2,17.2,0.3,25.8
		c0,30.3,0,60.6,0,90.9c0,1.6,0,3.2-0.2,4.8c-0.4,3.3-1,6.6-2.7,9.5c-1.4,2.3-3.4,3.6-6.1,3.6c-1,0-1.9,0.1-2.9,0
		c-9.8-1-19.5-2.1-29.3-3.2c-2.3-0.3-4.6-0.6-7.1-1c0,1.6,0.1,3,0,4.4c-0.1,1.2,0.4,1.6,1.5,2c7.9,2.6,15.7,5.6,22.8,10.1
		c2.4,1.5,4.6,3.3,6.7,5.2c3.7,3.3,6.2,7.3,6.7,12.6c2.2-1,4.2-1.9,6.2-2.9c13.8-7.5,20.8-19.3,20.9-34.8c0.2-43.2,0.1-86.3,0-129.5
		c0-1,0.3-1.6,1.1-2.2c2.8-2,5.6-4.1,8.4-6.3C197.6,136.7,188.6,132.1,179.6,127.3z M152.5,185.1c-8.8-6-17.3-11.8-26-17.7
		c-0.2,0.5-0.3,0.8-0.4,1.2c-3.8,13.2-9,25.8-15.3,38c-15,29-34.4,54.9-57.1,78.3c-1.3,1.3-2.6,2.6-3.8,3.9c0.8,1.2,1.6,2.3,2.4,3.5
		c0.3-0.2,0.6-0.4,0.9-0.6c3.1-2.5,6.3-4.9,9.4-7.4c11.1-9,21.5-18.7,31.3-29.1c8.3-8.8,15.8-18.4,23-28.1
		c6.5-8.7,13.1-17.4,19.2-26.4C140.4,194.3,145.3,188.7,152.5,185.1z M222,176.9c0.2,0.2,0.4,0.5,0.6,0.8c3.8,4.2,7.7,8.3,11.3,12.5
		c20.2,23.2,37.3,48.4,48.3,77.3c1.2,3.1,2.7,6.2,5,8.7c2.9,3.2,5.9,3.2,8.7-0.1c5.1-5.9,7-12.7,5.6-20.4c-1-5.7-3.7-10.7-6.9-15.4
		c-6.2-9.3-13.7-17.6-21.6-25.5c-11.4-11.5-23.6-22.1-36.2-32.4c-3.8-3.1-7.6-6.1-11.4-9.2C224.3,174.5,223.2,175.7,222,176.9z"/>
	<path d="M179.6,127.3c9.1,4.7,18,9.4,27.1,14.1c-2.9,2.2-5.6,4.3-8.4,6.3c-0.8,0.6-1.1,1.2-1.1,2.2c0,43.2,0.1,86.3,0,129.5
		c-0.1,15.5-7.1,27.3-20.9,34.8c-1.9,1.1-4,1.9-6.2,2.9c-0.5-5.3-3.1-9.3-6.7-12.6c-2.1-1.9-4.4-3.6-6.7-5.2
		c-7.1-4.5-14.9-7.5-22.8-10.1c-1.1-0.4-1.5-0.8-1.5-2c0.1-1.4,0-2.9,0-4.4c2.5,0.3,4.8,0.7,7.1,1c9.8,1.1,19.5,2.2,29.3,3.2
		c0.9,0.1,1.9,0,2.9,0c2.7-0.1,4.7-1.3,6.1-3.6c1.7-2.9,2.3-6.2,2.7-9.5c0.2-1.6,0.2-3.2,0.2-4.8c0-30.3,0-60.6,0-90.9
		c0-8.6-0.1-17.2-0.3-25.8c-0.2-7.6-0.6-15.3-0.8-22.9C179.5,128.8,179.6,128.2,179.6,127.3z"/>
	<path d="M152.5,185.1c-7.2,3.6-12,9.2-16.4,15.6c-6.1,9-12.7,17.7-19.2,26.4c-7.3,9.7-14.7,19.2-23,28.1
		c-9.8,10.4-20.2,20.1-31.3,29.1c-3.1,2.5-6.3,5-9.4,7.4c-0.3,0.2-0.6,0.4-0.9,0.6c-0.8-1.2-1.6-2.3-2.4-3.5
		c1.3-1.3,2.6-2.6,3.8-3.9c22.7-23.4,42.1-49.2,57.1-78.3c6.3-12.2,11.5-24.8,15.3-38c0.1-0.3,0.2-0.7,0.4-1.2
		C135.2,173.3,143.7,179.1,152.5,185.1z"/>
	<path d="M222,176.9c1.2-1.2,2.3-2.4,3.6-3.6c3.8,3,7.6,6.1,11.4,9.2c12.5,10.2,24.8,20.9,36.2,32.4c7.9,7.9,15.4,16.1,21.6,25.5
		c3.2,4.7,5.9,9.7,6.9,15.4c1.4,7.7-0.5,14.5-5.6,20.4c-2.8,3.3-5.8,3.2-8.7,0.1c-2.3-2.5-3.8-5.5-5-8.7
		c-11.1-28.9-28.2-54.1-48.3-77.3c-3.7-4.3-7.6-8.4-11.3-12.5C222.4,177.4,222.2,177.1,222,176.9z"/>
</g>
</svg>
