<?xml version="1.0" encoding="utf-8"?>
<!-- Generator: Adobe Illustrator 20.1.0, SVG Export Plug-In . SVG Version: 6.00 Build 0)  -->
<svg version="1.1" id="图层_1" xmlns="http://www.w3.org/2000/svg" xmlns:xlink="http://www.w3.org/1999/xlink" x="0px" y="0px"
	 viewBox="0 0 360 360" style="enable-background:new 0 0 360 360;" xml:space="preserve">
<style type="text/css">
	.st0{fill:#FFFFFF;}
</style>
<g>
	<path class="st0" d="M0.2,360.5c0-120.1,0-240.2,0-360.2c120.1,0,240.2,0,360.2,0c0,120.1,0,240.2,0,360.2
		C240.4,360.5,120.3,360.5,0.2,360.5z M172.7,42.6c1.3,62,1.3,124,0,185.9c0,0,0.1,0,0.2,0c6.3-3,12.7-5.9,19-8.9
		c0.3-0.1,0.6-0.8,0.5-1.2c-0.3-8.6-1-17.2-1.1-25.9c-0.1-39.1-0.1-78.2-0.1-117.3c0-3.1,0-6.2,0-9.2c0-0.5,0.3-1.1,0.7-1.5
		c1.3-1.1,2.8-2.2,4.1-3.3c1.9-1.5,3.7-2.9,5.8-4.5C192,51.9,182.3,47.2,172.7,42.6z M119.5,97.9c-14.4,46.3-38.9,86.5-70.7,122.3
		c1.3,1.3,2.4,2.5,3.6,3.8c0.3-0.2,0.6-0.4,0.8-0.7c7.3-6.8,14.7-13.4,21.8-20.4c8.3-8.1,15.9-17,23.3-26c13.2-16.2,25.1-33.2,36-51
		c0.3-0.5,0.8-1,1.3-1.3c2.9-1.6,5.8-3.2,8.7-4.8c0.3-0.2,0.6-0.4,1.1-0.7C136.7,111.9,128.1,104.9,119.5,97.9z M217.2,106.1
		c4.6,3.5,9.1,7,13.6,10.5c12.7,10.1,25.1,20.6,35.9,32.8c8.5,9.7,16.5,19.9,22.8,31.2c0.8,1.4,1.6,2.8,2.7,4
		c1.1,1.3,2.4,2.6,3.8,3.5c1.6,1.1,3.3,0.8,4.7-0.6c0.8-0.8,1.5-1.8,2.1-2.8c2.4-4.2,3.8-8.8,4.4-13.6c0.4-3.8,0.6-7.7-0.8-11.4
		c-1.9-5.2-5.4-9.3-9.4-13c-6.9-6.6-14.9-11.7-23-16.5c-16.5-9.6-33.7-17.9-50.9-26.1c-1.1-0.5-2.6-1.6-3.4-1.3
		c-1,0.4-1.6,2-2.3,3.1C217.3,106,217.3,106,217.2,106.1z"/>
	<path d="M172.7,42.6c9.6,4.6,19.4,9.3,29.3,14.1c-2,1.6-3.9,3-5.8,4.5c-1.4,1.1-2.8,2.1-4.1,3.3c-0.4,0.3-0.7,1-0.7,1.5
		c-0.1,3.1,0,6.2,0,9.2c0,39.1-0.1,78.2,0.1,117.3c0,8.6,0.7,17.2,1.1,25.9c0,0.4-0.2,1.1-0.5,1.2c-6.3,3-12.6,6-19,8.9
		c-0.1,0-0.2,0-0.2,0C173.9,166.5,173.9,104.6,172.7,42.6z"/>
	<path d="M119.5,97.9c8.6,7.1,17.2,14.1,25.9,21.2c-0.4,0.3-0.7,0.5-1.1,0.7c-2.9,1.6-5.8,3.2-8.7,4.8c-0.5,0.3-1,0.8-1.3,1.3
		c-11,17.7-22.9,34.8-36,51c-7.4,9-14.9,17.9-23.3,26c-7.1,7-14.5,13.6-21.8,20.4c-0.3,0.2-0.6,0.5-0.8,0.7
		c-1.2-1.2-2.3-2.4-3.6-3.8C80.6,184.4,105.1,144.1,119.5,97.9z"/>
	<path d="M217.2,106.1c0-0.1,0-0.2,0-0.2c0.7-1.1,1.3-2.7,2.3-3.1c0.9-0.3,2.3,0.8,3.4,1.3c17.3,8.2,34.4,16.5,50.9,26.1
		c8.2,4.8,16.2,9.9,23,16.5c3.9,3.8,7.4,7.8,9.4,13c1.4,3.7,1.2,7.6,0.8,11.4c-0.5,4.8-2,9.4-4.4,13.6c-0.6,1-1.3,1.9-2.1,2.8
		c-1.3,1.4-3.1,1.7-4.7,0.6c-1.4-1-2.7-2.2-3.8-3.5c-1-1.2-1.9-2.6-2.7-4c-6.3-11.3-14.3-21.5-22.8-31.2
		c-10.8-12.2-23.1-22.8-35.9-32.8C226.4,113.1,221.8,109.6,217.2,106.1z"/>
</g>
</svg>
