<?xml version="1.0" encoding="utf-8"?>
<!-- Generator: Adobe Illustrator 20.1.0, SVG Export Plug-In . SVG Version: 6.00 Build 0)  -->
<svg version="1.1" id="图层_1" xmlns="http://www.w3.org/2000/svg" xmlns:xlink="http://www.w3.org/1999/xlink" x="0px" y="0px"
	 viewBox="0 0 360 360" style="enable-background:new 0 0 360 360;" xml:space="preserve">
<style type="text/css">
	.st0{fill:#FFFFFF;}
</style>
<g>
	<path class="st0" d="M0.2,360.5c0-120.1,0-240.2,0-360.2c120.1,0,240.2,0,360.2,0c0,120.1,0,240.2,0,360.2
		C240.4,360.5,120.3,360.5,0.2,360.5z M108.8,112.2c0.4,0.4,0.5,0.5,0.6,0.6c1,1,1.9,2,2.9,3c7.6,8.1,14.1,16.8,18.8,26.9
		c1.3,2.8,3,5.5,5,7.9c2.2,2.7,4.4,2.5,6.7-0.1c2.4-2.7,3.6-5.9,4.4-9.3c1.8-7.9-0.5-14.3-6.9-19.2c-2-1.5-4.1-2.9-6.3-4.1
		c-7.7-4.4-15.9-7.9-24.1-11.3c-0.9-0.4-1.2-0.8-1.2-1.8c0-13.3,0-26.6,0-40c0-0.8,0.2-1.3,0.8-1.9c3-2.6,5.9-5.2,8.8-7.8
		c0.3-0.3,0.6-0.6,1-1c-9.5-4-18.9-7.9-28.3-11.8c0,0.6,0,1,0,1.4c0.4,12.2,1,24.4,1,36.7c0,67.2-0.1,134.4-0.3,201.6
		c0,8-0.4,15.9-0.5,23.9c-0.1,3.3,0,6.5,0,9.8c0.1-0.1,0.4-0.2,0.6-0.3c5.6-2.4,11.1-4.9,16.7-7.3c1-0.4,1.3-0.9,1.2-1.9
		c-0.4-12.6-1-25.2-1.1-37.7c-0.1-51.6-0.1-103.2-0.1-154.8C108.8,113.3,108.8,112.9,108.8,112.2z M74.3,150.1
		c-0.3-10.5-1.4-20.2-2.7-29.9c-0.2-1.1,0-2.7-0.7-3.3c-0.7-0.6-2.2-0.2-3.4-0.2c-0.1,0-0.2,0-0.4,0c-0.7-0.1-0.9,0.3-1,0.9
		c-0.2,1.6-0.4,3.2-0.7,4.9c-2.2,14.2-6,27.8-14.7,39.7c-1.7,2.3-2.7,5.1-3.6,7.7c-1,2.8,0.1,4.8,2.4,5.7c9.6,3.7,19.6-1,22.9-10.7
		C74.3,159.8,74.3,154.6,74.3,150.1z"/>
	<path d="M108.8,112.2c0,0.7,0,1.1,0,1.6c0,51.6-0.1,103.2,0.1,154.8c0,12.6,0.7,25.2,1.1,37.7c0,1.1-0.3,1.5-1.2,1.9
		c-5.6,2.4-11.1,4.8-16.7,7.3c-0.3,0.1-0.5,0.2-0.6,0.3c0-3.3-0.1-6.5,0-9.8c0.1-8,0.5-15.9,0.5-23.9c0.1-67.2,0.3-134.4,0.3-201.6
		c0-12.2-0.7-24.4-1-36.7c0-0.4,0-0.8,0-1.4c9.4,3.9,18.7,7.8,28.3,11.8c-0.4,0.4-0.7,0.7-1,1c-2.9,2.6-5.8,5.2-8.8,7.8
		c-0.6,0.5-0.8,1.1-0.8,1.9c0,13.3,0,26.6,0,40c0,0.9,0.3,1.4,1.2,1.8c8.2,3.4,16.3,6.9,24.1,11.3c2.2,1.2,4.3,2.6,6.3,4.1
		c6.4,4.9,8.8,11.3,6.9,19.2c-0.8,3.4-2,6.7-4.4,9.3c-2.3,2.6-4.5,2.8-6.7,0.1c-1.9-2.4-3.7-5.1-5-7.9
		c-4.7-10.1-11.3-18.8-18.8-26.9c-1-1-1.9-2-2.9-3C109.4,112.6,109.2,112.5,108.8,112.2z"/>
	<path d="M74.3,150.1c0,4.5,0,9.7-1.7,14.8c-3.3,9.7-13.3,14.4-22.9,10.7c-2.3-0.9-3.4-2.9-2.4-5.7c0.9-2.7,2-5.5,3.6-7.7
		c8.7-11.9,12.4-25.5,14.7-39.7c0.3-1.6,0.5-3.2,0.7-4.9c0.1-0.6,0.3-1,1-0.9c0.1,0,0.2,0,0.4,0c1.2,0,2.7-0.4,3.4,0.2
		c0.7,0.6,0.5,2.1,0.7,3.3C72.9,129.8,74,139.5,74.3,150.1z"/>
</g>
</svg>
