<?xml version="1.0" encoding="utf-8"?>
<!-- Generator: Adobe Illustrator 20.1.0, SVG Export Plug-In . SVG Version: 6.00 Build 0)  -->
<svg version="1.1" id="图层_1" xmlns="http://www.w3.org/2000/svg" xmlns:xlink="http://www.w3.org/1999/xlink" x="0px" y="0px"
	 viewBox="0 0 360 360" style="enable-background:new 0 0 360 360;" xml:space="preserve">
<style type="text/css">
	.st0{fill:#FFFFFF;}
</style>
<g>
	<path class="st0" d="M0.2,360.5c0-120.1,0-240.2,0-360.2c120.1,0,240.2,0,360.2,0c0,120.1,0,240.2,0,360.2
		C240.4,360.5,120.3,360.5,0.2,360.5z M309.2,236.9c-3.5,16.9-7,33.6-10.6,50.7c-2-1-3.6-1.7-5.3-2.6c-13.6-7.2-24.7-17.4-34.2-29.5
		c-8.5-10.8-15.3-22.7-21.3-35.1c-8.7-18.1-14.9-37-18.5-56.7c-2.4-13.1-4.1-26.3-5.2-39.6c-0.2-2-0.3-4-0.4-6.2
		c35,0,69.8,0,104.5,0c-8.6-8.6-17.2-17.2-26-26c-0.2,0.2-0.4,0.6-0.7,1c-5.7,5.7-11.4,11.4-17,17.1c-0.6,0.6-1.1,0.8-2,0.8
		c-19.2,0-38.4,0-57.6,0c-0.4,0-0.8,0-1.2-0.1c0-0.4-0.1-0.7-0.1-1c-0.4-15-0.7-30-1.1-44.9c0-1.7,0.4-2.8,1.8-3.8
		c2.6-2.1,5.1-4.4,7.7-6.7c-9.5-4.4-18.8-8.6-28.4-13c1.5,23.3,2.7,46.4,3.5,69.6c-49.5,0-98.9,0-148.4,0c3.3,3.3,6.4,6.4,9.5,9.5
		c0.8,0.8,1.4,1,2.5,0.7c7.9-2.1,15.9-3.1,24.1-3.2c37-0.1,74,0,111,0c0.4,0,0.9,0,1.4,0c0.2,2.1,0.2,4.1,0.5,6
		c1.3,11.1,2.5,22.3,4,33.4c1.8,12.8,4.6,25.5,8.3,37.9c6.9,23.4,17.3,45.2,30.6,65.7c8.6,13.2,18.7,25,31.2,34.7
		c11.3,8.8,23.7,15.6,37.2,20.4c2.5,0.9,5,1.6,7.7,1.4c2-0.1,3-1.2,2.8-3.2c-0.1-1.1-0.5-2.2-0.9-3.2c-0.6-1.6-1.4-3.1-1.9-4.6
		c-1.9-5.4-2.6-11.1-3.1-16.8c-1.2-14.5-0.9-29-0.2-43.5c0.1-3.1,0.3-6.1,0.5-9.2C312.2,236.9,310.7,236.9,309.2,236.9z M231.2,52
		c0.3,0.3,0.5,0.4,0.7,0.6c7.5,7.3,14.9,14.7,21.6,22.8c4.7,5.6,9,11.5,12.1,18.2c0.6,1.4,1.5,2.6,2.5,3.8c2.2,2.5,4.8,2.7,7.4,0.6
		c2.9-2.4,4.8-5.5,6.2-8.9c2.5-6,1.4-11.4-3.2-16.1c-1.5-1.6-3.3-3-5.1-4.2c-12.2-8.5-25.7-14.3-39.2-20.2c-0.3-0.1-0.8,0.1-1,0.3
		C232.6,49.9,232,50.9,231.2,52z"/>
	<path d="M309.2,236.9c1.5,0,3,0,4.6,0c-0.2,3.1-0.3,6.2-0.5,9.2c-0.7,14.5-1.1,29,0.2,43.5c0.5,5.7,1.2,11.4,3.1,16.8
		c0.5,1.6,1.3,3.1,1.9,4.6c0.4,1,0.8,2.1,0.9,3.2c0.2,2-0.8,3.1-2.8,3.2c-2.7,0.2-5.2-0.5-7.7-1.4c-13.5-4.8-25.9-11.6-37.2-20.4
		c-12.4-9.7-22.6-21.5-31.2-34.7c-13.3-20.5-23.7-42.3-30.6-65.7c-3.7-12.4-6.5-25.1-8.3-37.9c-1.6-11.1-2.7-22.3-4-33.4
		c-0.2-1.9-0.3-3.9-0.5-6c-0.5,0-0.9,0-1.4,0c-37,0-74,0-111,0c-8.1,0-16.2,1.1-24.1,3.2c-1.1,0.3-1.7,0.1-2.5-0.7
		c-3.1-3.2-6.2-6.2-9.5-9.5c49.5,0,98.8,0,148.4,0c-0.8-23.3-2.1-46.3-3.5-69.6c9.5,4.4,18.9,8.6,28.4,13c-2.7,2.3-5.1,4.6-7.7,6.7
		c-1.3,1.1-1.8,2.2-1.8,3.8c0.4,15,0.8,30,1.1,44.9c0,0.3,0.1,0.6,0.1,1c0.5,0,0.8,0.1,1.2,0.1c19.2,0,38.4,0,57.6,0
		c0.8,0,1.4-0.3,2-0.8c5.7-5.7,11.4-11.4,17-17.1c0.3-0.3,0.5-0.7,0.7-1c8.8,8.8,17.4,17.4,26,26c-34.7,0-69.5,0-104.5,0
		c0.1,2.2,0.2,4.2,0.4,6.2c1.1,13.3,2.8,26.5,5.2,39.6c3.6,19.8,9.8,38.7,18.5,56.7c6,12.4,12.8,24.2,21.3,35.1
		c9.5,12,20.5,22.3,34.2,29.5c1.6,0.9,3.3,1.6,5.3,2.6C302.2,270.6,305.7,253.8,309.2,236.9z"/>
	<path d="M231.2,52c0.7-1.1,1.3-2.1,2-3c0.2-0.2,0.8-0.4,1-0.3c13.5,5.9,27,11.7,39.2,20.2c1.8,1.2,3.5,2.7,5.1,4.2
		c4.6,4.6,5.7,10,3.2,16.1c-1.4,3.4-3.3,6.5-6.2,8.9c-2.6,2.1-5.2,1.9-7.4-0.6c-1-1.1-1.9-2.4-2.5-3.8c-3.1-6.7-7.4-12.6-12.1-18.2
		c-6.7-8.1-14.1-15.5-21.6-22.8C231.8,52.4,231.6,52.2,231.2,52z"/>
</g>
</svg>
