<?xml version="1.0" encoding="utf-8"?>
<!-- Generator: Adobe Illustrator 20.1.0, SVG Export Plug-In . SVG Version: 6.00 Build 0)  -->
<svg version="1.1" id="图层_1" xmlns="http://www.w3.org/2000/svg" xmlns:xlink="http://www.w3.org/1999/xlink" x="0px" y="0px"
	 viewBox="0 0 360 360" style="enable-background:new 0 0 360 360;" xml:space="preserve">
<style type="text/css">
	.st0{fill:#FFFFFF;}
</style>
<g>
	<path class="st0" d="M0.2,360.5c0-120.1,0-240.2,0-360.2c120.1,0,240.2,0,360.2,0c0,120.1,0,240.2,0,360.2
		C240.4,360.5,120.3,360.5,0.2,360.5z M122.9,122.7c0,0.6,0,1.1,0,1.6c0,52.1,0,104.2,0,156.3c0,2,0.1,4,0.2,6
		c0.7,10,6.5,16.7,16.3,18.9c4.1,0.9,8.2,0.9,12.4,0.9c45.7,0,91.4,0,137.2,0c0.9,0,1.8,0,2.6-0.1c6.5-0.4,12.5-2.1,17.8-6
		c3.8-2.8,6.7-6.3,9.1-10.4c-0.4-0.1-0.6-0.2-0.9-0.3c-2.7-0.5-4.9-1.9-6.6-4c-2.4-2.8-3.6-6.2-4.5-9.7c-2.2-9.5-3-19.2-3.2-28.9
		c0-2.2,0-4.4,0-6.6c-1.7,0-3.2,0-4.8,0c0,0.4-0.1,0.7-0.1,1.1c-0.5,11-1.4,21.9-3.2,32.8c-0.6,3.6-1.4,7.1-2.6,10.5
		c-1.5,4.3-4.6,7.4-9.2,8.2c-2,0.4-4.1,0.3-6.1,0.3c-36.8,0-73.7,0-110.5,0c-2.5,0-5,0.2-7.4,0.1c-2.2,0-4.5,0-6.7-0.3
		c-6.7-0.8-11.2-4.7-12.6-11.1c-0.5-2.4-0.6-4.9-0.6-7.4c0-50.2,0-100.4,0-150.6c0-0.5,0-1,0-1.6c9.5,0,18.7,0,27.8,0
		c-7-7-14-14-21.1-21.2c-0.2,0.2-0.4,0.6-0.7,0.9c-4.1,4.1-8.2,8.2-12.3,12.3c-0.5,0.5-1.1,0.8-1.9,0.8c-9.8,0-19.7,0-29.5,0
		c-0.4,0-0.8,0-1.2-0.1c0-0.3,0-0.5,0-0.7c0-15.9,0-31.8,0-47.8c0-0.5,0.3-1.1,0.7-1.4c1.5-1.4,3.1-2.7,4.6-4
		c1.4-1.2,2.7-2.4,4.2-3.7c-9.1-4-18.1-7.9-27.1-11.8C84,69.2,84,92.3,84,115.5c-13.4,0-26.6,0-40.1,0c3.6,3.6,6.9,6.9,10.3,10.3
		c0.2,0.2,0.7,0.2,1.1,0.2c7.1-1.9,14.3-2.9,21.7-3.2c2.3-0.1,4.7,0,7.1,0c0,0.6,0,1.1,0,1.6c-0.1,5.7-0.1,11.4-0.3,17
		c-0.3,9-0.5,18-1.1,27c-0.8,14.3-2.3,28.5-4.5,42.7c-2.4,15.3-5.9,30.2-10.7,44.9c-6.3,19.3-14.5,37.7-24.3,55.4
		c-0.2,0.3-0.3,0.6-0.5,1c1.2,0.8,2.3,1.6,3.5,2.3c0.2-0.3,0.5-0.5,0.7-0.8c4.9-6.8,10.1-13.5,14.7-20.6
		c12.8-19.5,22.5-40.5,28.2-63.1c5.5-21.6,8-43.6,9.4-65.8c0.9-13.6,1.3-27.3,1.2-41c0-0.3,0.1-0.5,0.1-0.8
		C108.1,122.7,115.4,122.7,122.9,122.7z"/>
	<path d="M122.9,122.7c-7.5,0-14.8,0-22.2,0c0,0.3-0.1,0.5-0.1,0.8c0,13.7-0.3,27.3-1.2,41c-1.4,22.2-4,44.2-9.4,65.8
		c-5.7,22.7-15.4,43.6-28.2,63.1c-4.6,7-9.8,13.7-14.7,20.6c-0.2,0.3-0.4,0.5-0.7,0.8c-1.2-0.8-2.3-1.5-3.5-2.3
		c0.2-0.3,0.3-0.7,0.5-1c9.8-17.7,18-36.1,24.3-55.4c4.8-14.7,8.3-29.7,10.7-44.9c2.2-14.2,3.6-28.4,4.5-42.7c0.5-9,0.8-18,1.1-27
		c0.2-5.7,0.2-11.4,0.3-17c0-0.5,0-1,0-1.6c-2.4,0-4.7-0.1-7.1,0c-7.3,0.3-14.6,1.3-21.7,3.2c-0.3,0.1-0.9,0-1.1-0.2
		c-3.4-3.3-6.7-6.7-10.3-10.3c13.5,0,26.7,0,40.1,0C84,92.3,84,69.2,82.9,46c9.1,3.9,18,7.8,27.1,11.8c-1.5,1.3-2.8,2.5-4.2,3.7
		c-1.5,1.3-3.1,2.7-4.6,4c-0.4,0.3-0.7,0.9-0.7,1.4c0,15.9,0,31.8,0,47.8c0,0.2,0,0.4,0,0.7c0.4,0,0.8,0.1,1.2,0.1
		c9.8,0,19.7,0,29.5,0c0.8,0,1.3-0.3,1.9-0.8c4.1-4.1,8.2-8.2,12.3-12.3c0.3-0.3,0.5-0.7,0.7-0.9c7.2,7.2,14.2,14.2,21.1,21.2
		c-9.1,0-18.4,0-27.8,0c0,0.6,0,1.1,0,1.6c0,50.2,0,100.4,0,150.6c0,2.5,0.1,5,0.6,7.4c1.4,6.3,5.8,10.2,12.6,11.1
		c2.2,0.3,4.5,0.3,6.7,0.3c2.5,0,5-0.1,7.4-0.1c36.8,0,73.7,0,110.5,0c2,0,4.1,0.1,6.1-0.3c4.7-0.8,7.7-3.9,9.2-8.2
		c1.2-3.4,2-7,2.6-10.5c1.8-10.9,2.7-21.8,3.2-32.8c0-0.4,0.1-0.7,0.1-1.1c1.6,0,3.1,0,4.8,0c0,2.2,0,4.4,0,6.6
		c0.2,9.7,1,19.4,3.2,28.9c0.8,3.5,2.1,6.9,4.5,9.7c1.8,2.1,4,3.5,6.6,4c0.3,0.1,0.5,0.1,0.9,0.3c-2.4,4.1-5.3,7.7-9.1,10.4
		c-5.3,3.9-11.3,5.6-17.8,6c-0.9,0-1.8,0.1-2.6,0.1c-45.7,0-91.4,0-137.2,0c-4.2,0-8.3,0-12.4-0.9c-9.8-2.2-15.6-8.9-16.3-18.9
		c-0.1-2-0.2-4-0.2-6c0-52.1,0-104.2,0-156.3C122.9,123.8,122.9,123.3,122.9,122.7z"/>
</g>
</svg>
