<?xml version="1.0" encoding="utf-8"?>
<!-- Generator: Adobe Illustrator 20.1.0, SVG Export Plug-In . SVG Version: 6.00 Build 0)  -->
<svg version="1.1" id="图层_1" xmlns="http://www.w3.org/2000/svg" xmlns:xlink="http://www.w3.org/1999/xlink" x="0px" y="0px"
	 viewBox="0 0 360 360" style="enable-background:new 0 0 360 360;" xml:space="preserve">
<style type="text/css">
	.st0{fill:#FFFFFF;}
</style>
<g>
	<path class="st0" d="M0.2,360.5c0-120.1,0-240.2,0-360.2c120.1,0,240.2,0,360.2,0c0,120.1,0,240.2,0,360.2
		C240.4,360.5,120.3,360.5,0.2,360.5z M167.8,123.8c0-0.4-0.1-0.7-0.1-1c0-18.2,0-36.4,0-54.6c0-0.5,0.3-1.1,0.7-1.5
		c2.1-1.8,4.3-3.5,6.4-5.2c1.5-1.2,3-2.4,4.6-3.7c-9.9-4.8-19.7-9.4-29.5-14.2c0.9,26.8,1.2,53.4,1.2,80.2c-33.4,0-66.6,0-100.1,0
		c3.5,3.5,6.8,6.8,10.2,10.1c0.3,0.2,0.9,0.3,1.3,0.2c8.1-2.1,16.4-3.2,24.8-3.2c20.8-0.1,41.6,0,62.4,0c0.5,0,0.9,0,1.5,0
		c0,0.3,0,0.5,0,0.7c-0.4,8.9-0.6,17.7-1.2,26.6c-0.8,14-2.4,27.9-5.1,41.7c-2.6,13.4-6.6,26.2-12.6,38.5
		c-9.1,18.5-21.9,33.9-38.2,46.4c-14.6,11.2-30.1,20.8-46.5,29.1c-0.4,0.2-0.9,0.5-1.3,0.7c0.6,1,1.3,1.8,1.7,2.6
		c0.4,0.8,0.9,0.9,1.7,0.6c16.1-5.8,31.6-13,46.4-21.7c11.9-7,23.2-14.7,32.6-25c13.3-14.4,23.2-30.9,28.7-49.8
		c4.4-15.4,6.6-31.2,8.1-47.2c1.2-13,1.8-26,2.1-39c0-1.4,0-2.8,0-4.2c9.6,0,18.9,0,28.3,0c0,0.7,0,1.3,0,1.8c0,47.3,0,94.6,0,141.8
		c0,0.4,0,0.8,0,1.2c0.2,3.3,0.1,6.6,0.7,9.8c1.6,9.2,6.8,15.5,15.9,18c3.3,0.9,6.8,1.5,10.3,1.5c22.6,0.1,45.2,0.1,67.8,0
		c6.1,0,12.1-1.2,17.6-4c5.8-3,9.9-7.6,12.7-13.6c-0.5-0.2-0.9-0.4-1.3-0.5c-2.6-1-4.9-2.4-6.8-4.3c-4.5-4.4-6.5-9.9-6.9-15.9
		c-0.7-10-1-20-1.4-29.9c-0.1-1.5,0-3.1,0-4.7c-1.5,0-2.9,0-4.2,0c-0.3,0-0.7,0.5-0.7,0.8c-0.4,3.9-0.8,7.8-1.2,11.7
		c-1,10-2,20-3.2,29.9c-0.4,3.8-1.4,7.5-3.7,10.8c-2.1,3-4.9,4.6-8.6,4.6c-16.9,0-33.8,0-50.8,0c-2.1,0-4.2-0.1-6.3-0.5
		c-4.8-0.8-8.7-3.1-11-7.6c-1.6-3.1-2.2-6.5-2.2-10c0-46.5,0-93,0-139.6c0-0.4,0-0.8,0.1-1.4c33.7,0,67.4,0,101.2,0
		c-8-9.2-15.8-18.1-23.7-27.3c-0.3,0.4-0.6,0.8-0.9,1.1c-6.1,6.1-12.2,12.2-18.2,18.3c-0.6,0.6-1.2,0.9-2.1,0.9
		c-33.2,0-66.5,0-99.7,0C168.8,123.8,168.3,123.8,167.8,123.8z"/>
	<path d="M167.8,123.8c0.5,0,0.9,0,1.4,0c33.2,0,66.5,0,99.7,0c0.9,0,1.5-0.2,2.1-0.9c6.1-6.1,12.1-12.2,18.2-18.3
		c0.3-0.3,0.5-0.7,0.9-1.1c8,9.2,15.8,18.1,23.7,27.3c-33.9,0-67.5,0-101.2,0c0,0.6-0.1,1-0.1,1.4c0,46.5,0,93,0,139.6
		c0,3.5,0.6,6.8,2.2,10c2.3,4.5,6.2,6.7,11,7.6c2.1,0.4,4.2,0.5,6.3,0.5c16.9,0,33.8,0,50.8,0c3.7,0,6.5-1.6,8.6-4.6
		c2.2-3.2,3.2-7,3.7-10.8c1.1-10,2.1-19.9,3.2-29.9c0.4-3.9,0.8-7.8,1.2-11.7c0-0.3,0.5-0.8,0.7-0.8c1.3-0.1,2.6,0,4.2,0
		c0,1.7-0.1,3.2,0,4.7c0.4,10,0.7,20,1.4,29.9c0.4,6,2.4,11.6,6.9,15.9c2,1.9,4.3,3.3,6.8,4.3c0.4,0.2,0.8,0.3,1.3,0.5
		c-2.8,6-6.9,10.6-12.7,13.6c-5.5,2.9-11.5,4-17.6,4c-22.6,0.1-45.2,0.1-67.8,0c-3.4,0-7-0.6-10.3-1.5c-9.1-2.5-14.3-8.8-15.9-18
		c-0.5-3.2-0.5-6.5-0.7-9.8c0-0.4,0-0.8,0-1.2c0-47.3,0-94.6,0-141.8c0-0.6,0-1.2,0-1.8c-9.5,0-18.8,0-28.3,0c0,1.4,0,2.8,0,4.2
		c-0.2,13-0.9,26-2.1,39c-1.5,15.9-3.7,31.7-8.1,47.2c-5.5,19-15.4,35.4-28.7,49.8c-9.4,10.2-20.7,18-32.6,25
		c-14.8,8.7-30.3,15.8-46.4,21.7c-0.8,0.3-1.3,0.2-1.7-0.6c-0.5-0.9-1.1-1.7-1.7-2.6c0.5-0.2,0.9-0.5,1.3-0.7
		c16.4-8.3,31.9-17.9,46.5-29.1c16.3-12.6,29.1-27.9,38.2-46.4c6-12.2,10.1-25.1,12.6-38.5c2.7-13.8,4.3-27.7,5.1-41.7
		c0.5-8.9,0.8-17.7,1.2-26.6c0-0.2,0-0.4,0-0.7c-0.5,0-1,0-1.5,0c-20.8,0-41.6,0-62.4,0c-8.4,0-16.6,1.2-24.8,3.2
		c-0.4,0.1-1,0-1.3-0.2c-3.3-3.3-6.6-6.6-10.2-10.1c33.5,0,66.7,0,100.1,0c0-26.8-0.3-53.4-1.2-80.2c9.9,4.7,19.6,9.4,29.5,14.2
		c-1.6,1.3-3.1,2.5-4.6,3.7c-2.2,1.7-4.3,3.4-6.4,5.2c-0.4,0.3-0.7,1-0.7,1.5c0,18.2,0,36.4,0,54.6
		C167.8,123.1,167.8,123.4,167.8,123.8z"/>
</g>
</svg>
