<?xml version="1.0" encoding="utf-8"?>
<!-- Generator: Adobe Illustrator 20.1.0, SVG Export Plug-In . SVG Version: 6.00 Build 0)  -->
<svg version="1.1" id="图层_1" xmlns="http://www.w3.org/2000/svg" xmlns:xlink="http://www.w3.org/1999/xlink" x="0px" y="0px"
	 viewBox="0 0 360 360" style="enable-background:new 0 0 360 360;" xml:space="preserve">
<style type="text/css">
	.st0{fill:#FFFFFF;}
</style>
<g>
	<path class="st0" d="M0.2,360.5c0-120.1,0-240.2,0-360.2c120.1,0,240.2,0,360.2,0c0,120.1,0,240.2,0,360.2
		C240.4,360.5,120.3,360.5,0.2,360.5z M163.1,187.5c-0.5-0.1-0.6-0.1-0.7-0.1c-6.6,0-13.3,0-19.9,0c-0.7,0-0.9,0.4-1.2,0.9
		c-3.3,6.7-7,13.1-11.1,19.3c-9,13.4-19.8,25.2-31.5,36.2c-12.4,11.7-25.7,22.5-39.6,32.4c-0.3,0.2-0.7,0.5-1,0.8
		c0.8,1.2,1.5,2.2,2.1,3.2c0.1,0.1,0.2,0.2,0.4,0.3c29.4-15.3,55.3-35.2,77.6-59.9c10.9,16.2,23.7,30.7,37.5,44.5
		c-0.1,0.1-0.1,0.2-0.2,0.3c-0.4,0.3-0.8,0.6-1.2,0.8c-12.2,8.2-25.4,14.4-39.1,19.6c-26.2,10.2-53.4,17.1-80.9,23.1
		c-3.5,0.8-6.9,1.5-10.5,2.2c0.4,1.2,0.8,2.4,1.2,3.5c0.4,0,0.6,0,0.9,0c11-1.6,22.1-3,33.1-4.7c16.6-2.7,33-6.3,49.2-11.1
		c20.5-6,40.4-13.7,58.7-24.9c0.7-0.4,1.2-0.2,1.7,0.2c10.8,6.6,21.9,12.3,33.5,17.3c20.4,8.9,41.6,15.2,63.4,19.6
		c2.3,0.5,4.6,0.9,7,1.3c0.9-4.6,3.6-7.8,7.3-10.3c3.1-2.1,6.5-3.6,10.1-4.7c3.6-1.1,7.2-1.9,10.9-2.9c0-1.5,0-3,0-4.6
		c-42.4,1.5-82.9-6-121.1-24.7c0.2-0.2,0.3-0.3,0.4-0.4c15-12.4,29.1-25.8,42.9-39.5c1.8-1.8,3.7-3,6.1-3.6c2.7-0.7,5.4-1.6,8.3-2.5
		c-6.8-6.4-13.4-12.6-20.3-19.1c-0.3,0.4-0.5,0.8-0.8,1.1c-3,3-6,6-9,9c-0.4,0.4-1.1,0.7-1.6,0.7c-26.4,0-52.7,0-79.1,0
		c-0.3,0-0.6,0-0.9-0.1C151.5,203.1,157.2,195.4,163.1,187.5z"/>
	<path d="M163.1,187.5c-5.9,7.9-11.7,15.6-17.5,23.3c0.3,0,0.6,0.1,0.9,0.1c26.4,0,52.7,0,79.1,0c0.6,0,1.2-0.3,1.6-0.7c3-3,6-6,9-9
		c0.3-0.3,0.5-0.7,0.8-1.1c6.9,6.5,13.5,12.7,20.3,19.1c-2.9,0.9-5.5,1.8-8.3,2.5c-2.5,0.6-4.3,1.8-6.1,3.6
		C229.1,239,215,252.4,200,264.8c-0.1,0.1-0.2,0.2-0.4,0.4c38.3,18.7,78.7,26.2,121.1,24.7c0,1.6,0,3.1,0,4.6
		c-3.6,1-7.3,1.8-10.9,2.9c-3.6,1.1-7,2.6-10.1,4.7c-3.7,2.5-6.3,5.7-7.3,10.3c-2.4-0.5-4.7-0.9-7-1.3c-21.8-4.4-43-10.7-63.4-19.6
		c-11.6-5-22.7-10.8-33.5-17.3c-0.6-0.3-1-0.6-1.7-0.2c-18.3,11.2-38.2,18.9-58.7,24.9c-16.2,4.7-32.6,8.4-49.2,11.1
		c-11,1.8-22.1,3.2-33.1,4.7c-0.2,0-0.5,0-0.9,0c-0.4-1.1-0.8-2.3-1.2-3.5c3.5-0.7,7-1.5,10.5-2.2c27.5-5.9,54.6-12.9,80.9-23.1
		c13.7-5.3,26.9-11.5,39.1-19.6c0.4-0.3,0.8-0.5,1.2-0.8c0.1,0,0.1-0.1,0.2-0.3c-13.7-13.7-26.6-28.3-37.5-44.5
		c-22.3,24.7-48.2,44.6-77.6,59.9c-0.2-0.2-0.3-0.2-0.4-0.3c-0.7-1-1.4-2.1-2.1-3.2c0.3-0.3,0.7-0.5,1-0.8
		c13.9-9.9,27.2-20.7,39.6-32.4c11.7-11,22.5-22.8,31.5-36.2c4.1-6.2,7.9-12.6,11.1-19.3c0.3-0.5,0.5-0.9,1.2-0.9
		c6.6,0,13.3,0,19.9,0C162.6,187.4,162.7,187.4,163.1,187.5z M186.5,256.8c8.8-5.7,37-34,38.5-38.6c-27.2,0-54.4,0-81.9,0
		C155.4,233.7,170,246.3,186.5,256.8z"/>
	<path class="st0" d="M186.5,256.8c-16.5-10.5-31-23.1-43.3-38.6c27.4,0,54.6,0,81.9,0C223.4,222.9,195.3,251.2,186.5,256.8z"/>
</g>
</svg>
