<?xml version="1.0" encoding="utf-8"?>
<!-- Generator: Adobe Illustrator 20.1.0, SVG Export Plug-In . SVG Version: 6.00 Build 0)  -->
<svg version="1.1" id="图层_1" xmlns="http://www.w3.org/2000/svg" xmlns:xlink="http://www.w3.org/1999/xlink" x="0px" y="0px"
	 viewBox="0 0 360 360" style="enable-background:new 0 0 360 360;" xml:space="preserve">
<style type="text/css">
	.st0{fill:#FFFFFF;}
</style>
<g>
	<path class="st0" d="M0.2,360.5c0-120.1,0-240.2,0-360.2c120.1,0,240.2,0,360.2,0c0,120.1,0,240.2,0,360.2
		C240.4,360.5,120.3,360.5,0.2,360.5z M298.5,305.3c1.3-6.5,5.2-11,10.5-14.3c3.5-2.1,7.3-3.7,11-5.5c0.3-0.2,0.8-0.5,0.8-0.8
		c0.1-1,0-2,0-3.1c-0.5,0-0.9,0-1.3,0c-4.4,0.1-8.8,0.3-13.2,0.3c-16.2,0.1-32.3,0.1-48.4-0.6c-12.7-0.6-25.3-1.6-37.8-3.4
		c-17.5-2.4-34.1-7.9-49.8-16c-8.5-4.4-16.3-9.9-22.9-17c-0.6-0.7-0.8-1.2-0.4-2.2c8.8-18.3,16.3-37.1,22.2-56.6
		c5.6-18.5,11.3-36.9,17-55.4c0.2-0.6,0.7-1.3,1.3-1.7c3.2-2,6.4-3.9,9.6-5.8c0.4-0.2,0.7-0.5,0.9-0.6c-6.7-6.7-13.3-13.3-20-20
		c-0.2,0.2-0.5,0.5-0.8,0.8c-3.7,3.7-7.4,7.3-11,11c-0.6,0.6-1.3,0.9-2.2,0.9c-16,0-31.9,0-47.9,0c-0.4,0-0.9,0-1.4,0
		c0.1-0.5,0.2-0.8,0.3-1.2c2.5-7.9,5-15.7,7.6-23.6c2.8-8.6,6.3-16.8,11.5-24.3c0.9-1.3,1.9-2.6,2.9-4c-9.1-3.9-18-7.8-26.8-11.6
		c-1.3,7.9-2.4,15.9-3.9,23.7c-3.2,16.5-7.3,32.7-11.5,49c-9.1,35.4-22.9,68.8-42.4,99.8c-0.1,0.2-0.2,0.4-0.3,0.7
		c1.4,1.1,2.8,2.1,4.2,3.1c0.2,0.1,0.3,0.2,0.6,0.4c17.5-20.9,31.1-44.1,42.3-69.2c0.1,0.8,0.2,1.1,0.3,1.5
		c1.6,13,4.6,25.7,8.8,38.1c5.2,15.3,11.9,29.9,19.8,43.9c0.4,0.8,0.4,1.2-0.2,1.9c-6.4,8-13.4,15.4-20.8,22.6
		c-14,13.8-29.5,25.6-46.6,35.3c-3.6,2-7.2,4-10.8,6c0.8,1.2,1.6,2.3,2.3,3.4c33.1-11.6,61.6-30,85-56.4c1.6,1.6,3.1,3.3,4.8,4.8
		c17.3,16.4,37.6,27.2,60.5,33.6c10.7,3,21.5,5,32.5,6.5c9.3,1.2,18.6,2.4,28,3.3c8.4,0.8,16.9,1.3,25.3,1.9
		C291.6,304.9,295,305.1,298.5,305.3z"/>
	<path d="M298.5,305.3c-3.5-0.2-6.9-0.3-10.3-0.6c-8.5-0.6-16.9-1.1-25.3-1.9c-9.3-0.9-18.7-2-28-3.3c-11-1.5-21.9-3.5-32.5-6.5
		c-22.8-6.4-43.2-17.2-60.5-33.6c-1.6-1.5-3.1-3.2-4.8-4.8c-23.3,26.4-51.8,44.8-85,56.4c-0.7-1.1-1.5-2.3-2.3-3.4
		c3.7-2,7.3-4,10.8-6c17.1-9.7,32.6-21.5,46.6-35.3c7.3-7.2,14.3-14.6,20.8-22.6c0.5-0.7,0.6-1.1,0.2-1.9
		c-7.9-14-14.7-28.6-19.8-43.9c-4.2-12.4-7.2-25.1-8.8-38.1c0-0.4-0.1-0.8-0.3-1.5c-11.2,25.1-24.8,48.4-42.3,69.2
		c-0.2-0.1-0.4-0.2-0.6-0.4c-1.4-1-2.7-2.1-4.2-3.1c0.1-0.2,0.2-0.5,0.3-0.7c19.5-31,33.3-64.4,42.4-99.8c4.2-16.2,8.3-32.5,11.5-49
		c1.5-7.8,2.6-15.8,3.9-23.7c8.7,3.8,17.7,7.7,26.8,11.6c-1,1.4-1.9,2.7-2.9,4c-5.2,7.4-8.7,15.7-11.5,24.3
		c-2.6,7.8-5.1,15.7-7.6,23.6c-0.1,0.3-0.2,0.7-0.3,1.2c0.5,0,1,0,1.4,0c16,0,31.9,0,47.9,0c0.9,0,1.6-0.3,2.2-0.9
		c3.6-3.7,7.3-7.4,11-11c0.3-0.3,0.6-0.6,0.8-0.8c6.7,6.7,13.3,13.3,20,20c-0.2,0.1-0.6,0.4-0.9,0.6c-3.2,1.9-6.5,3.8-9.6,5.8
		c-0.6,0.4-1.1,1-1.3,1.7c-5.7,18.5-11.4,36.9-17,55.4c-5.9,19.5-13.4,38.3-22.2,56.6c-0.5,1-0.3,1.5,0.4,2.2
		c6.6,7.1,14.4,12.6,22.9,17c15.7,8.1,32.3,13.6,49.8,16c12.6,1.7,25.2,2.8,37.8,3.4c16.1,0.8,32.3,0.8,48.4,0.6
		c4.4,0,8.8-0.2,13.2-0.3c0.4,0,0.8,0,1.3,0c0,1.1,0.1,2.1,0,3.1c0,0.3-0.5,0.6-0.8,0.8c-3.7,1.8-7.5,3.4-11,5.5
		C303.7,294.2,299.8,298.8,298.5,305.3z M112.4,122.7c-0.1,0.2-0.2,0.4-0.3,0.6c-3,9-6,18-8.9,26.9c-0.1,0.5-0.1,1,0,1.5
		c2.5,8.4,4.7,16.9,7.5,25.2c6,17.8,13.8,34.8,24.4,50.4c0.2,0.4,0.5,0.7,0.8,1.2c15.7-33.8,24.3-69.4,30.6-105.9
		C148.4,122.7,130.5,122.7,112.4,122.7z"/>
	<path class="st0" d="M112.4,122.7c18.1,0,36,0,54.1,0c-6.2,36.4-14.9,72-30.6,105.9c-0.4-0.5-0.6-0.8-0.8-1.2
		c-10.6-15.6-18.5-32.6-24.4-50.4c-2.8-8.3-5-16.8-7.5-25.2c-0.1-0.5-0.1-1,0-1.5c3-9,6-18,8.9-26.9
		C112.2,123.1,112.3,122.9,112.4,122.7z"/>
</g>
</svg>
