<?xml version="1.0" encoding="utf-8"?>
<!-- Generator: Adobe Illustrator 20.1.0, SVG Export Plug-In . SVG Version: 6.00 Build 0)  -->
<svg version="1.1" id="图层_1" xmlns="http://www.w3.org/2000/svg" xmlns:xlink="http://www.w3.org/1999/xlink" x="0px" y="0px"
	 viewBox="0 0 360 360" style="enable-background:new 0 0 360 360;" xml:space="preserve">
<style type="text/css">
	.st0{fill:#FFFFFF;}
</style>
<g>
	<path class="st0" d="M0.2,360.5c0-120.1,0-240.2,0-360.2c120.1,0,240.2,0,360.2,0c0,120.1,0,240.2,0,360.2
		C240.4,360.5,120.3,360.5,0.2,360.5z M52.2,227.5c11-3,21.9-6.3,32.6-10c35.9-12.4,69.7-28.9,100.6-51.2
		c31.8,26.8,68,45.5,107,58.8c1.3-2,2.3-4,3.7-5.7c4-5,9.4-7.4,15.5-8.6c2.3-0.5,4.6-0.7,6.9-1c0-1.6,0-3.1,0-4.6
		c-22.1-2.6-43-9.3-63.6-17.2c-20.7-7.9-40-18.5-57.6-32.3c0.5-0.4,0.9-0.8,1.3-1.2c4.2-3.9,8.5-7.7,12.7-11.7
		c14.2-13.8,27.2-28.6,39.8-43.9c1.8-2.2,3.8-4,6.4-5.2c2.7-1.2,5.3-2.6,8.1-4c-6.8-6.4-13.4-12.6-20.1-18.9
		c-3.7,4.1-7.4,8.2-11.1,12.1c-0.4,0.4-1.1,0.8-1.7,0.8c-28.3,0-56.6,0-85,0c-0.3,0-0.7,0-1.4-0.1c4.2-6,8.1-11.8,12.2-17.4
		c2.5-3.4,5.1-6.6,9.2-8.5c-7.9-5.1-15.6-10.2-23.4-15.2c-0.8,2.7-1.5,5.3-2.3,7.7c-3,8.5-7,16.6-11.1,24.7
		c-7.3,14-14.9,27.8-23.8,40.9c-10.7,15.7-23,30.2-36.8,43.4c-2.1,1.9-4.1,3.9-6.3,5.9c1,0.9,1.9,1.8,2.8,2.7
		c0.3,0.2,0.5,0.5,0.8,0.8c26-19.1,48.5-41.7,67.1-68.3c11.1,20.1,25,38.1,40,55.3c-37.6,28.8-78.1,52.1-123.7,66
		C51.4,223.6,51.8,225.5,52.2,227.5z"/>
	<path d="M52.2,227.5c-0.4-2-0.8-3.9-1.2-5.9c45.6-13.9,86-37.1,123.7-66c-15-17.2-28.9-35.1-40-55.3
		c-18.6,26.6-41.1,49.1-67.1,68.3c-0.3-0.3-0.6-0.5-0.8-0.8c-0.9-0.9-1.8-1.8-2.8-2.7c2.2-2,4.3-4,6.3-5.9
		c13.8-13.1,26.1-27.6,36.8-43.4C116,102.8,123.6,89,130.8,75c4.2-8,8.1-16.1,11.1-24.7c0.9-2.5,1.5-5,2.3-7.7
		c7.7,5,15.5,10.1,23.4,15.2c-4,1.9-6.7,5.2-9.2,8.5c-4.1,5.6-8,11.4-12.2,17.4c0.8,0.1,1.1,0.1,1.4,0.1c28.3,0,56.6,0,85,0
		c0.6,0,1.3-0.4,1.7-0.8c3.7-4,7.3-8,11.1-12.1c6.7,6.3,13.3,12.6,20.1,18.9c-2.8,1.4-5.4,2.9-8.1,4c-2.7,1.1-4.6,2.9-6.4,5.2
		c-12.5,15.3-25.6,30.1-39.8,43.9c-4.1,4-8.4,7.8-12.7,11.7c-0.4,0.4-0.8,0.7-1.3,1.2c17.6,13.7,36.8,24.3,57.6,32.3
		c20.6,7.9,41.5,14.6,63.6,17.2c0,1.5,0,3.1,0,4.6c-2.3,0.3-4.6,0.6-6.9,1c-6.1,1.2-11.5,3.7-15.5,8.6c-1.4,1.7-2.4,3.7-3.7,5.7
		c-39-13.3-75.1-32.1-107-58.8c-30.9,22.3-64.7,38.8-100.6,51.2C74.1,221.2,63.3,224.5,52.2,227.5z M233.6,90.8c-0.8,0-1.3,0-1.8,0
		c-10.5,0-21,0-31.4,0c-18.7,0-37.4,0-56,0c-0.5,0-1.2,0-1.6,0.3c-1.5,1.4-2.9,2.9-4.4,4.4c5.6,9.9,36.5,43.2,47.1,50.6
		C203.6,129.6,219,110.8,233.6,90.8z"/>
	<path class="st0" d="M233.6,90.8c-14.6,20-30,38.8-48.1,55.2c-10.5-7.4-41.5-40.7-47.1-50.6c1.4-1.4,2.9-3,4.4-4.4
		c0.3-0.3,1-0.3,1.6-0.3c18.7,0,37.4,0,56,0c10.5,0,21,0,31.4,0C232.3,90.8,232.8,90.8,233.6,90.8z"/>
</g>
</svg>
