<?xml version="1.0" encoding="utf-8"?>
<!-- Generator: Adobe Illustrator 20.1.0, SVG Export Plug-In . SVG Version: 6.00 Build 0)  -->
<svg version="1.1" id="图层_1" xmlns="http://www.w3.org/2000/svg" xmlns:xlink="http://www.w3.org/1999/xlink" x="0px" y="0px"
	 viewBox="0 0 360 360" style="enable-background:new 0 0 360 360;" xml:space="preserve">
<style type="text/css">
	.st0{fill:#FFFFFF;}
</style>
<g>
	<path class="st0" d="M0.2,360.5c0-120.1,0-240.2,0-360.2c120.1,0,240.2,0,360.2,0c0,120.1,0,240.2,0,360.2
		C240.4,360.5,120.3,360.5,0.2,360.5z M151.6,127.3c0,0.1-0.1,0.2-0.1,0.3c2.9,2.9,5.9,5.9,8.8,8.8c0.2,0.2,0.6,0.3,0.9,0.3
		c2.3-0.3,4.6-0.7,6.9-1c3.3-0.5,6.6-1.3,9.9-1.3c27.6-0.1,55.1-0.1,82.7-0.1c0.3,0,0.7,0,1.2,0.1c-11,11.4-22,22.7-32.8,34
		c-4.3-2.4-8.6-4.7-12.7-6.9c0.4,16.5,0.7,32.9,1.1,49.4c-26.5,0-52.7,0-79.2,0c3.2,3.1,6.1,6.1,9,8.9c0.3,0.3,1,0.4,1.5,0.3
		c2.7-0.3,5.3-0.7,8-1.1c3.2-0.4,6.5-1.1,9.8-1.1c16.4-0.1,32.9-0.1,49.3-0.1c0.4,0,0.9,0,1.3,0.1c0,0.5,0.1,0.8,0.1,1.2
		c0,19.2,0.1,38.4-0.1,57.6c0,2.6-0.6,5.3-1.4,7.7c-1.2,3.7-3.8,5.5-7.7,5.3c-7.7-0.4-15.5-1-23.2-1.5c-2.9-0.2-5.9-0.5-8.9-0.8
		c0,2,0,4,0,5.9c2.5,0.8,5,1.6,7.4,2.5c6.3,2.3,12.5,4.9,17.9,9.1c3.2,2.5,5.9,5.4,7.1,9.4c0.2,0.8,0.4,1.7,0.6,2.5
		c0.2,0,0.3,0,0.4-0.1c6.1-2.6,11.9-5.8,16.7-10.4c5-4.8,7.7-10.5,7.7-17.6c-0.1-23.1,0-46.2,0-69.2c0-0.5,0-1,0-1.6
		c29.1,0,58,0,86.9,0c-7.5-7.5-14.8-14.8-22.4-22.4c-0.2,0.3-0.4,0.7-0.8,1c-4.5,4.5-9.1,9-13.6,13.6c-0.6,0.6-1.2,0.8-2,0.8
		c-15.6,0-31.2,0-46.8,0c-0.4,0-0.9,0-1.3,0c0-0.3-0.1-0.5-0.1-0.7c0-8.2,0-16.3,0-24.5c0-0.4,0.3-1,0.7-1.2c2-1.6,4.1-3.1,6.1-4.6
		c0.8-0.6,1.7-1.3,2.6-2c-3.2-2-6.2-3.9-9.3-5.8c0.4-0.3,0.6-0.6,0.9-0.8c9.1-6.7,18.3-13.3,27.5-19.9c7.9-5.6,16.5-9.8,25.9-12.1
		c2.2-0.5,4.5-0.9,6.8-1.4c-6.7-7.5-13.3-14.9-20-22.4c-0.4,0.4-0.7,0.6-0.9,0.9c-3.3,3.3-6.6,6.5-9.8,9.9c-0.8,0.8-1.5,1.1-2.6,1.1
		c-36.2,0-72.3,0-108.5,0C152.6,127.3,152.1,127.3,151.6,127.3z"/>
	<path d="M151.6,127.3c0.5,0,1,0,1.5,0c36.2,0,72.3,0,108.5,0c1.1,0,1.8-0.3,2.6-1.1c3.2-3.3,6.5-6.6,9.8-9.9
		c0.3-0.3,0.6-0.5,0.9-0.9c6.7,7.4,13.3,14.8,20,22.4c-2.4,0.5-4.6,0.9-6.8,1.4c-9.4,2.3-18,6.5-25.9,12.1
		c-9.2,6.6-18.3,13.3-27.5,19.9c-0.3,0.2-0.5,0.5-0.9,0.8c3.1,2,6.2,3.9,9.3,5.8c-0.9,0.7-1.7,1.3-2.6,2c-2,1.5-4.1,3-6.1,4.6
		c-0.3,0.3-0.7,0.8-0.7,1.2c0,8.2,0,16.3,0,24.5c0,0.2,0,0.4,0.1,0.7c0.5,0,0.9,0,1.3,0c15.6,0,31.2,0,46.8,0c0.8,0,1.4-0.2,2-0.8
		c4.5-4.5,9-9.1,13.6-13.6c0.3-0.3,0.5-0.7,0.8-1c7.5,7.5,14.9,14.9,22.4,22.4c-28.9,0-57.8,0-86.9,0c0,0.6,0,1.1,0,1.6
		c0,23.1-0.1,46.2,0,69.2c0,7.1-2.7,12.8-7.7,17.6c-4.8,4.6-10.6,7.8-16.7,10.4c-0.1,0-0.2,0-0.4,0.1c-0.2-0.9-0.4-1.7-0.6-2.5
		c-1.2-4-3.9-6.9-7.1-9.4c-5.4-4.2-11.5-6.8-17.9-9.1c-2.4-0.9-4.9-1.7-7.4-2.5c0-1.9,0-3.9,0-5.9c3,0.3,5.9,0.6,8.9,0.8
		c7.7,0.5,15.5,1.1,23.2,1.5c3.8,0.2,6.5-1.6,7.7-5.3c0.8-2.5,1.3-5.1,1.4-7.7c0.1-19.2,0.1-38.4,0.1-57.6c0-0.4,0-0.7-0.1-1.2
		c-0.5,0-0.9-0.1-1.3-0.1c-16.4,0-32.9-0.1-49.3,0.1c-3.3,0-6.5,0.7-9.8,1.1c-2.7,0.3-5.3,0.7-8,1.1c-0.5,0.1-1.2,0-1.5-0.3
		c-3-2.9-5.9-5.8-9-8.9c26.5,0,52.6,0,79.2,0c-0.4-16.6-0.7-33-1.1-49.4c4.1,2.3,8.4,4.6,12.7,6.9c10.9-11.3,21.8-22.6,32.8-34
		c-0.5,0-0.8-0.1-1.2-0.1c-27.6,0-55.1,0-82.7,0.1c-3.3,0-6.6,0.8-9.9,1.3c-2.3,0.3-4.6,0.7-6.9,1c-0.3,0-0.7-0.1-0.9-0.3
		c-3-2.9-5.9-5.9-8.8-8.8C151.5,127.5,151.5,127.4,151.6,127.3z"/>
</g>
</svg>
