<?xml version="1.0" encoding="utf-8"?>
<!-- Generator: Adobe Illustrator 20.1.0, SVG Export Plug-In . SVG Version: 6.00 Build 0)  -->
<svg version="1.1" id="图层_1" xmlns="http://www.w3.org/2000/svg" xmlns:xlink="http://www.w3.org/1999/xlink" x="0px" y="0px"
	 viewBox="0 0 360 360" style="enable-background:new 0 0 360 360;" xml:space="preserve">
<style type="text/css">
	.st0{fill:#FFFFFF;}
</style>
<g>
	<path class="st0" d="M0.2,360.5c0-120.1,0-240.2,0-360.2c120.1,0,240.2,0,360.2,0c0,120.1,0,240.2,0,360.2
		C240.4,360.5,120.3,360.5,0.2,360.5z M193.7,220.4c2.9-1.4,5.6-2.7,8.3-3.9c13.5-6.3,27.3-12.2,41.7-16.2
		c7.4-2.1,14.8-3.6,22.6-3.4c0.1,0,0.2-0.1,0.3-0.2c-6.3-7.4-12.5-14.8-18.7-22.2c-4.4,3.3-8.8,6.6-13.1,9.9
		c-0.7,0.6-1.5,0.8-2.4,0.8c-42.2,0-84.4,0-126.6,0c-0.5,0-0.9,0-1.7,0c3.6,3.6,6.9,6.9,10.3,10.3c0.2,0.2,0.7,0.3,1.1,0.2
		c9.3-2.5,18.9-3.4,28.5-3.4c28.1,0,56.2,0,84.4,0c0.4,0,0.8,0,1.2,0c-0.2,0.4-0.4,0.6-0.6,0.7c-13.1,7.8-26.1,15.7-39.2,23.5
		c-0.7,0.4-1.1,0.3-1.7-0.1c-3.6-2.3-7.3-4.6-10.9-7c-0.3-0.2-0.7-0.4-1.1-0.6c0.4,9.9,0.8,19.6,1.2,29.4c-43.4,0-86.4,0-129.7,0
		c0.2,0.3,0.3,0.4,0.4,0.5c3.2,3.2,6.4,6.4,9.6,9.6c0.3,0.3,1,0.4,1.5,0.3c8.4-2.1,17-3.2,25.7-3.2c30.3,0,60.6,0,91,0
		c0.4,0,0.8,0,1.4,0.1c0,0.4,0,0.6,0,0.9c0,12.2,0,24.3,0,36.5c0,0.4,0,0.8,0,1.2c-0.4,4-2.7,6.3-6.6,6.6c-1.4,0.1-2.8,0.2-4.2,0
		c-9.1-1.2-18.3-2.4-27.4-3.7c-2.9-0.4-5.8-1-8.9-1.5c0,1.6,0.1,3.2,0,4.7c0,0.9,0.2,1.4,1.2,1.7c4.9,1.9,9.9,3.7,14.7,5.8
		c5.7,2.5,11.1,5.5,15.8,9.6c2.7,2.4,4.9,5.1,5.8,8.7c0.2,0.8,0.3,1.6,0.4,2.4c6.3-2.6,12.2-5.7,17-10.5c5.1-5.1,7.8-11.3,7.7-18.6
		c-0.1-14.1,0-28.2,0-42.4c0-0.5,0-0.9,0-1.5c41.6,0,83.1,0,124.5,0c-8.6-8.6-17.2-17.2-25.9-25.9c-0.2,0.2-0.4,0.6-0.7,0.9
		c-5.6,5.7-11.3,11.3-17,17c-0.6,0.6-1.2,0.9-2.1,0.9c-25.8,0-51.7,0-77.5,0c-0.4,0-0.8,0-1.4,0c0-2,0.1-3.8,0-5.5
		c-0.1-1.1,0.3-1.7,1.2-2.3c2.4-1.6,4.7-3.3,7.1-5.1C198.4,223.5,196.1,222,193.7,220.4z"/>
	<path d="M193.7,220.4c2.4,1.6,4.7,3.1,7.1,4.7c-2.4,1.7-4.7,3.5-7.1,5.1c-0.9,0.6-1.2,1.3-1.2,2.3c0.1,1.8,0,3.6,0,5.5
		c0.5,0,0.9,0,1.4,0c25.8,0,51.7,0,77.5,0c0.9,0,1.5-0.3,2.1-0.9c5.6-5.7,11.3-11.3,17-17c0.3-0.3,0.5-0.7,0.7-0.9
		c8.7,8.7,17.3,17.3,25.9,25.9c-41.4,0-82.9,0-124.5,0c0,0.6,0,1.1,0,1.5c0,14.1,0,28.2,0,42.4c0,7.3-2.6,13.5-7.7,18.6
		c-4.8,4.8-10.7,7.9-17,10.5c-0.1-0.9-0.2-1.7-0.4-2.4c-0.9-3.6-3.1-6.3-5.8-8.7c-4.7-4.2-10.1-7.2-15.8-9.6
		c-4.8-2.1-9.8-4-14.7-5.8c-0.9-0.4-1.2-0.8-1.2-1.7c0.1-1.5,0-3,0-4.7c3.1,0.5,5.9,1.1,8.9,1.5c9.1,1.3,18.3,2.5,27.4,3.7
		c1.4,0.2,2.8,0.1,4.2,0c4-0.3,6.3-2.6,6.6-6.6c0-0.4,0-0.8,0-1.2c0-12.2,0-24.3,0-36.5c0-0.3,0-0.5,0-0.9c-0.5,0-0.9-0.1-1.4-0.1
		c-30.3,0-60.6,0-91,0c-8.7,0-17.3,1.1-25.7,3.2c-0.4,0.1-1.2,0-1.5-0.3c-3.2-3.2-6.4-6.4-9.6-9.6c-0.1-0.1-0.2-0.2-0.4-0.5
		c43.2,0,86.3,0,129.7,0c-0.4-9.8-0.8-19.6-1.2-29.4c0.4,0.2,0.7,0.4,1.1,0.6c3.6,2.3,7.3,4.6,10.9,7c0.6,0.4,1,0.5,1.7,0.1
		c13-7.9,26.1-15.7,39.2-23.5c0.2-0.1,0.4-0.3,0.6-0.7c-0.4,0-0.8,0-1.2,0c-28.1,0-56.2,0-84.4,0c-9.6,0-19.2,0.9-28.5,3.4
		c-0.3,0.1-0.9,0-1.1-0.2c-3.4-3.3-6.7-6.7-10.3-10.3c0.7,0,1.2,0,1.7,0c42.2,0,84.4,0,126.6,0c0.9,0,1.7-0.2,2.4-0.8
		c4.3-3.3,8.7-6.5,13.1-9.9c6.3,7.4,12.5,14.8,18.7,22.2c-0.1,0.1-0.2,0.2-0.3,0.2c-7.7-0.2-15.2,1.4-22.6,3.4
		c-14.4,4-28.1,9.9-41.7,16.2C199.3,217.7,196.6,219,193.7,220.4z"/>
</g>
</svg>
