<?xml version="1.0" encoding="utf-8"?>
<!-- Generator: Adobe Illustrator 20.1.0, SVG Export Plug-In . SVG Version: 6.00 Build 0)  -->
<svg version="1.1" id="图层_1" xmlns="http://www.w3.org/2000/svg" xmlns:xlink="http://www.w3.org/1999/xlink" x="0px" y="0px"
	 viewBox="0 0 360 360" style="enable-background:new 0 0 360 360;" xml:space="preserve">
<style type="text/css">
	.st0{fill:#FFFFFF;}
</style>
<g>
	<path class="st0" d="M0.2,360.5c0-120.1,0-240.2,0-360.2c120.1,0,240.2,0,360.2,0c0,120.1,0,240.2,0,360.2
		C240.4,360.5,120.3,360.5,0.2,360.5z M132.5,116.8c0.1-0.2,0.2-0.4,0.4-0.5c9.2-9.9,18.3-19.8,28.4-28.7
		c6.6-5.9,14.1-10.4,22.8-12.5c1.2-0.3,2.4-0.5,3.4-0.7c-7-7-14-14-21.1-21.1c-2.7,3-5.5,6.1-8.2,9.2c-0.7,0.9-1.5,1.2-2.6,1.2
		c-33.9,0-67.8,0-101.8,0c-0.4,0-0.9,0-1.7,0c3.6,3.6,6.9,7,10.3,10.3c0.3,0.3,0.9,0.3,1.3,0.2c8.4-2.2,17-3.3,25.7-3.3
		c22.6-0.1,45.1,0,67.7,0c0.3,0,0.6,0.1,1,0.1c-10.2,14.2-20.3,28.2-30.5,42.2c-3.5-2.4-7-4.6-10.6-7c0,0.5,0,0.8,0,1.1
		c0.3,10.8,0.7,21.6,0.9,32.4c0.2,10.5,0.1,21,0.2,31.6c0,0.8-0.3,1.1-1,1.4c-5.7,2.3-11.3,4.7-16.9,7
		c-16.8,6.8-33.7,13.6-50.9,19.5c-1.4,0.5-2.8,0.9-4.3,1.4c5.2,7.5,10.2,14.9,15.2,22.1c1.6-1.7,2.8-3.6,4.5-5
		c4.2-3.4,8.5-6.8,13-9.8c10.8-7.2,22.3-13.3,33.8-19.3c2.1-1.1,4.2-2.2,6.6-3.4c0,0.8,0,1.3,0,1.9c0,29.1,0,58.2,0,87.2
		c0,1,0,2.1-0.1,3.1c-0.7,5.5-3.4,9.3-9.9,9c-6.7-0.3-13.3-0.7-20-1.1c-4.9-0.3-9.7-0.8-14.7-1.2c0,1.3,0,2.6,0,3.9
		c0,0.7,0.2,1,0.8,1.2c2.6,0.9,5.2,1.8,7.8,2.8c4.8,1.9,9.4,4.2,13.6,7.3c5.6,4.2,9.7,9.4,10.9,16.9c3-1.4,5.9-2.6,8.6-4.1
		c7-3.8,12.7-8.8,16.3-16.1c2.4-4.9,3.4-10.1,3.4-15.4c0-34,0-68.1,0-102.1c0-1.1,0.3-1.7,1.3-2.2c18.8-10.6,37.5-21.3,56.2-32
		c0.8-0.5,1.7-0.9,2.6-1.4c-0.8-1.6-1.6-3.2-2.4-4.8c-19.3,9.1-38.4,18-57.6,27c-0.1-0.3-0.1-0.4-0.1-0.5c0-10.5,0-21,0-31.6
		c0-0.4,0.4-1,0.8-1.3c2.7-1.8,5.4-3.6,8.1-5.4c0.5-0.3,1-0.7,1.7-1.1C141,122.2,136.8,119.5,132.5,116.8z"/>
	<path d="M132.5,116.8c4.3,2.7,8.5,5.4,12.9,8.2c-0.7,0.4-1.2,0.8-1.7,1.1c-2.7,1.8-5.4,3.6-8.1,5.4c-0.4,0.3-0.8,0.8-0.8,1.3
		c0,10.5,0,21,0,31.6c0,0.1,0,0.2,0.1,0.5c19.2-9,38.3-18,57.6-27c0.8,1.6,1.6,3.1,2.4,4.8c-0.9,0.5-1.8,0.9-2.6,1.4
		c-18.7,10.7-37.5,21.4-56.2,32c-0.9,0.5-1.3,1.1-1.3,2.2c0,34,0,68.1,0,102.1c0,5.4-1,10.6-3.4,15.4c-3.6,7.2-9.3,12.3-16.3,16.1
		c-2.8,1.5-5.7,2.7-8.6,4.1c-1.1-7.4-5.2-12.7-10.9-16.9c-4.2-3.1-8.7-5.4-13.6-7.3c-2.6-1-5.2-1.9-7.8-2.8
		c-0.7-0.2-0.9-0.5-0.8-1.2c0-1.3,0-2.5,0-3.9c5,0.4,9.8,0.9,14.7,1.2c6.7,0.4,13.3,0.8,20,1.1c6.5,0.3,9.3-3.4,9.9-9
		c0.1-1,0.1-2.1,0.1-3.1c0-29.1,0-58.2,0-87.2c0-0.5,0-1.1,0-1.9c-2.3,1.2-4.4,2.3-6.6,3.4c-11.5,6-23,12.1-33.8,19.3
		c-4.5,3-8.8,6.4-13,9.8c-1.7,1.3-2.9,3.2-4.5,5c-4.9-7.2-10-14.6-15.2-22.1c1.5-0.5,2.9-1,4.3-1.4c17.2-5.8,34.1-12.6,50.9-19.5
		c5.7-2.3,11.3-4.7,16.9-7c0.7-0.3,1-0.6,1-1.4c-0.1-10.5,0-21-0.2-31.6c-0.2-10.8-0.6-21.6-0.9-32.4c0-0.3,0-0.6,0-1.1
		c3.6,2.4,7,4.7,10.6,7c10.1-14,20.3-28.1,30.5-42.2c-0.4,0-0.7-0.1-1-0.1c-22.6,0-45.1,0-67.7,0c-8.7,0-17.3,1.1-25.7,3.3
		c-0.4,0.1-1,0-1.3-0.2c-3.4-3.3-6.7-6.6-10.3-10.3c0.8,0,1.2,0,1.7,0c33.9,0,67.8,0,101.8,0c1.2,0,1.9-0.4,2.6-1.2
		c2.7-3.1,5.5-6.2,8.2-9.2c7.1,7.1,14.1,14.1,21.1,21.1c-1,0.2-2.2,0.4-3.4,0.7c-8.7,2.1-16.1,6.6-22.8,12.5
		c-10.1,9-19.2,18.8-28.4,28.7C132.7,116.4,132.7,116.5,132.5,116.8z"/>
</g>
</svg>
