<?xml version="1.0" encoding="utf-8"?>
<!-- Generator: Adobe Illustrator 20.1.0, SVG Export Plug-In . SVG Version: 6.00 Build 0)  -->
<svg version="1.1" id="图层_1" xmlns="http://www.w3.org/2000/svg" xmlns:xlink="http://www.w3.org/1999/xlink" x="0px" y="0px"
	 viewBox="0 0 360 360" style="enable-background:new 0 0 360 360;" xml:space="preserve">
<style type="text/css">
	.st0{fill:#FFFFFF;}
</style>
<g>
	<path class="st0" d="M0.2,360.5c0-120.1,0-240.2,0-360.2c120.1,0,240.2,0,360.2,0c0,120.1,0,240.2,0,360.2
		C240.4,360.5,120.3,360.5,0.2,360.5z M131.5,195.8c0.3,13.2,0.8,26.2,0.8,39.3c0,13.1-0.5,26.2-0.8,39.4c0.2-0.1,0.5-0.2,0.8-0.3
		c4.8-2,9.5-4.1,14.3-6.1c0.9-0.4,1.2-0.9,1.2-1.9c0-17.8,0-35.7,0-53.5c0-0.5,0.1-1.1,0.1-1.6c38.9,0,77.6,0,116.5,0
		c0,19.2,0,38.3,0,57.6c0.5-0.2,0.9-0.3,1.3-0.5c4.1-1.7,8.2-3.5,12.2-5.2c1-0.4,2.3-0.6,2.7-1.3c0.5-0.8,0.1-2.1,0.1-3.1
		c-0.3-14.7-0.6-29.5-0.9-44.2c0-0.5,0.3-1.1,0.7-1.5c1.4-1.3,2.8-2.5,4.3-3.7c1.1-0.9,2.1-1.9,3.3-2.9c-6-4.4-11.8-8.6-17.7-13
		c-0.3,0.4-0.5,0.7-0.7,1c-1.9,2.9-3.9,5.8-5.8,8.7c-0.4,0.6-0.9,0.9-1.6,0.9c-37.4,0-74.8,0-112.2,0c-0.6,0-1.3-0.2-1.8-0.4
		c-4.8-2.2-9.6-4.5-14.4-6.7C132.8,196.4,132.1,196.1,131.5,195.8z M219.6,233.3c-7.9-4.4-15.7-8.6-23.6-13c-0.1,0.5-0.1,0.8-0.1,1
		c-0.7,7.7-1.9,15.4-3.9,22.9c-2.6,9.8-6.6,18.9-12.9,27c-7.8,10-17.7,17.3-29.1,22.5c-14.5,6.7-29.6,11.8-44.9,16
		c-3.1,0.9-6.2,1.6-9.2,2.5c0,1.2,0,2.4,0,3.7c4.5-0.6,8.8-1.1,13.2-1.8c13.9-2,27.4-5.2,40.7-9.9c10.6-3.8,21-8.2,30.4-14.6
		c7-4.8,13.2-10.4,17.4-17.9c5.7-10,10.3-20.5,13.6-31.6c0.2-0.6,0.6-1.1,1.1-1.5C214.5,236.9,217,235.2,219.6,233.3z M212.5,271.1
		c0.5,0.2,0.8,0.4,1.2,0.5c13.2,5.6,26.2,11.4,38.9,17.9c8.6,4.4,17.2,9.1,25,14.8c3.2,2.3,6.1,5,9.3,7.2c2.1,1.5,4.3,2.7,6.7,3.6
		c3,1.1,5-0.2,5.8-3.3c0.6-2.6,0.5-5.2,0.1-7.9c-1.2-8.8-6.3-14.7-14.1-18.4c-6.4-3.1-13.3-5.1-20.2-6.7
		c-14.9-3.5-29.8-6.8-44.7-10.1c-2.2-0.5-4.4-0.9-6.7-1.3C213.2,268.7,212.8,269.9,212.5,271.1z"/>
	<path d="M131.5,195.8c0.6,0.3,1.4,0.6,2.1,1c4.8,2.2,9.6,4.5,14.4,6.7c0.6,0.3,1.2,0.4,1.8,0.4c37.4,0,74.8,0,112.2,0
		c0.8,0,1.2-0.3,1.6-0.9c1.9-2.9,3.8-5.8,5.8-8.7c0.2-0.3,0.5-0.6,0.7-1c5.9,4.3,11.7,8.6,17.7,13c-1.2,1-2.2,1.9-3.3,2.9
		c-1.4,1.2-2.9,2.4-4.3,3.7c-0.4,0.4-0.7,1-0.7,1.5c0.3,14.7,0.6,29.5,0.9,44.2c0,1.1,0.4,2.4-0.1,3.1c-0.4,0.7-1.8,0.9-2.7,1.3
		c-4.1,1.7-8.1,3.5-12.2,5.2c-0.4,0.2-0.7,0.3-1.3,0.5c0-19.3,0-38.4,0-57.6c-38.9,0-77.6,0-116.5,0c0,0.5-0.1,1.1-0.1,1.6
		c0,17.8,0,35.7,0,53.5c0,1-0.3,1.5-1.2,1.9c-4.8,2-9.6,4.1-14.3,6.1c-0.3,0.1-0.6,0.2-0.8,0.3c0.3-13.2,0.8-26.3,0.8-39.4
		C132.3,222,131.8,208.9,131.5,195.8z"/>
	<path d="M219.6,233.3c-2.6,1.9-5.1,3.6-7.5,5.4c-0.5,0.3-0.9,0.9-1.1,1.5c-3.3,11.1-8,21.6-13.6,31.6c-4.2,7.5-10.4,13.1-17.4,17.9
		c-9.4,6.4-19.7,10.8-30.4,14.6c-13.2,4.7-26.8,7.9-40.7,9.9c-4.3,0.6-8.7,1.2-13.2,1.8c0-1.3,0-2.4,0-3.7c3-0.8,6.1-1.6,9.2-2.5
		c15.4-4.3,30.5-9.3,44.9-16c11.4-5.3,21.3-12.5,29.1-22.5c6.2-8.1,10.2-17.2,12.9-27c2-7.5,3.2-15.1,3.9-22.9c0-0.3,0.1-0.5,0.1-1
		C203.9,224.7,211.7,229,219.6,233.3z"/>
	<path d="M212.5,271.1c0.4-1.2,0.8-2.3,1.2-3.6c2.3,0.4,4.5,0.8,6.7,1.3c14.9,3.3,29.9,6.6,44.7,10.1c6.9,1.6,13.8,3.6,20.2,6.7
		c7.8,3.7,12.9,9.6,14.1,18.4c0.4,2.6,0.5,5.3-0.1,7.9c-0.8,3.2-2.7,4.5-5.8,3.3c-2.4-0.9-4.6-2.2-6.7-3.6c-3.2-2.3-6.1-4.9-9.3-7.2
		c-7.9-5.7-16.4-10.4-25-14.8c-12.7-6.5-25.8-12.4-38.9-17.9C213.3,271.4,212.9,271.3,212.5,271.1z"/>
</g>
</svg>
