<?xml version="1.0" encoding="utf-8"?>
<!-- Generator: Adobe Illustrator 20.1.0, SVG Export Plug-In . SVG Version: 6.00 Build 0)  -->
<svg version="1.1" id="图层_1" xmlns="http://www.w3.org/2000/svg" xmlns:xlink="http://www.w3.org/1999/xlink" x="0px" y="0px"
	 viewBox="0 0 360 360" style="enable-background:new 0 0 360 360;" xml:space="preserve">
<style type="text/css">
	.st0{fill:#FFFFFF;}
</style>
<g>
	<path class="st0" d="M0.2,360.5c0-120.1,0-240.2,0-360.2c120.1,0,240.2,0,360.2,0c0,120.1,0,240.2,0,360.2
		C240.4,360.5,120.3,360.5,0.2,360.5z M154.4,51.9c-0.1,0.2-0.3,0.6-0.6,0.9c-3.3,3.3-6.7,6.7-10,10c-0.6,0.6-1.1,0.8-2,0.8
		c-19.7,0-39.4,0-59.2,0c-0.6,0-1.3-0.2-1.9-0.5c-5.1-2.7-10.2-5.4-15.3-8.1c-0.4-0.2-0.8-0.4-1.2-0.6c1.4,59.7,1.3,119.2,0,178.9
		c0.4-0.2,0.6-0.3,0.9-0.4c5.1-2.4,10.1-4.8,15.2-7.1c1.1-0.5,1.5-1.1,1.5-2.3c0-50.3,0-100.5,0-150.8c0-0.6,0-1.2,0-1.8
		c20.9,0,41.6,0,62.4,0c0,53,0,105.9,0,158.9c0.5-0.2,0.8-0.3,1.1-0.4c5.1-2.4,10.3-4.8,15.4-7.2c0.9-0.4,1.1-0.8,1.1-1.8
		c-0.4-8.3-0.9-16.7-1.2-25c-0.4-12.3-0.6-24.6-0.7-36.9c-0.2-10.9-0.2-21.8-0.3-32.7c-0.1-15.7,0-31.4-0.2-47.1
		c0-3.1,0.7-5.1,3.5-6.6c2.5-1.3,4.7-3.1,7-4.6C164.8,62.3,159.7,57.2,154.4,51.9z M105.3,99c0,0.4-0.1,0.6-0.1,0.7
		c0.1,3.4,0.2,6.8,0.3,10.2c0.2,10.5,0.4,21,0.5,31.5c0.1,7.6,0,15.1-0.1,22.7c0,3.5,0,7-0.2,10.4c-0.4,12.3-2,24.5-4.8,36.5
		c-3.4,14.6-7.8,28.7-14.6,42.1c-7.1,14.1-16,27-26,39.1c-4.7,5.7-9.7,11.1-14.6,16.7c-0.3,0.3-0.6,0.8-0.6,1.2
		c0.3,1.4,0.7,2.8,1.1,4.3c0.4-0.4,0.8-0.6,1.1-0.8c7.6-6.3,14.9-12.9,21.9-20c8.9-9,17-18.7,24.3-29c9.4-13.4,16.5-27.8,20.1-43.9
		c3.3-14.7,5.3-29.6,6.5-44.5c1.2-15.3,1.6-30.7,1.7-46.1c0-3.8-0.1-7.5,0-11.3c0-0.6,0.3-1.3,0.8-1.7c2.4-2.2,4.9-4.3,7.4-6.5
		c0.4-0.3,0.7-0.7,1.2-1.1C122.5,106.1,114,102.6,105.3,99z M115.9,240.4c-0.3,0.7-0.4,1.3-0.6,1.8c-0.7,1.3-0.3,2.1,0.7,3.1
		c7.3,6.7,14.2,13.8,20.4,21.6c6.9,8.8,12.1,18.6,16.6,28.8c1,2.4,2.3,4.6,3.9,6.7c1.9,2.4,4.3,2.4,6.5,0.3c0.5-0.4,0.9-0.9,1.3-1.4
		c5.7-7.5,6-16.2,0.7-24.3c-3.5-5.4-8.3-9.7-13.3-13.7c-9.8-7.8-20.6-14.2-31.5-20.3C119,242.1,117.5,241.3,115.9,240.4z"/>
	<path d="M154.4,51.9c5.3,5.3,10.3,10.3,15.5,15.5c-2.3,1.5-4.5,3.3-7,4.6c-2.8,1.5-3.6,3.4-3.5,6.6c0.2,15.7,0.1,31.4,0.2,47.1
		c0.1,10.9,0.1,21.8,0.3,32.7c0.2,12.3,0.4,24.6,0.7,36.9c0.2,8.3,0.7,16.7,1.2,25c0,1-0.2,1.4-1.1,1.8c-5.2,2.4-10.3,4.8-15.4,7.2
		c-0.3,0.1-0.6,0.3-1.1,0.4c0-53,0-105.9,0-158.9c-20.9,0-41.6,0-62.4,0c0,0.6,0,1.2,0,1.8c0,50.3,0,100.6,0,150.8
		c0,1.2-0.3,1.8-1.5,2.3c-5.1,2.3-10.1,4.7-15.2,7.1c-0.3,0.1-0.6,0.3-0.9,0.4c1.4-59.7,1.4-119.3,0-178.9c0.4,0.2,0.8,0.4,1.2,0.6
		c5.1,2.7,10.2,5.5,15.3,8.1c0.6,0.3,1.3,0.5,1.9,0.5c19.7,0,39.4,0,59.2,0c0.8,0,1.4-0.3,2-0.8c3.3-3.4,6.7-6.7,10-10
		C154.1,52.5,154.3,52.1,154.4,51.9z"/>
	<path d="M105.3,99c8.7,3.6,17.2,7,25.9,10.6c-0.5,0.5-0.9,0.8-1.2,1.1c-2.5,2.2-5,4.3-7.4,6.5c-0.4,0.4-0.8,1.1-0.8,1.7
		c0,3.8,0.1,7.5,0,11.3c-0.1,15.4-0.5,30.8-1.7,46.1c-1.2,15-3.2,29.9-6.5,44.5C110,237,103,251.4,93.6,264.8
		c-7.3,10.4-15.4,20-24.3,29c-6.9,7-14.3,13.7-21.9,20c-0.3,0.3-0.6,0.5-1.1,0.8c-0.4-1.5-0.8-2.9-1.1-4.3c-0.1-0.4,0.3-0.9,0.6-1.2
		c4.9-5.6,9.9-11,14.6-16.7c10-12.1,18.9-25,26-39.1c6.7-13.4,11.2-27.6,14.6-42.1c2.8-12,4.3-24.2,4.8-36.5c0.1-3.5,0.1-7,0.2-10.4
		c0-7.6,0.1-15.1,0.1-22.7c-0.1-10.5-0.3-21-0.5-31.5c-0.1-3.4-0.2-6.8-0.3-10.2C105.2,99.6,105.3,99.4,105.3,99z"/>
	<path d="M115.9,240.4c1.6,0.9,3.1,1.7,4.6,2.5c10.9,6.1,21.7,12.5,31.5,20.3c5,4,9.8,8.3,13.3,13.7c5.3,8.1,5.1,16.8-0.7,24.3
		c-0.4,0.5-0.8,1-1.3,1.4c-2.2,2.1-4.7,2.1-6.5-0.3c-1.6-2-2.9-4.3-3.9-6.7c-4.5-10.2-9.7-20-16.6-28.8
		c-6.1-7.8-13.1-14.9-20.4-21.6c-1.1-1-1.4-1.8-0.7-3.1C115.5,241.6,115.6,241.1,115.9,240.4z"/>
</g>
</svg>
