<?xml version="1.0" encoding="utf-8"?>
<!-- Generator: Adobe Illustrator 20.1.0, SVG Export Plug-In . SVG Version: 6.00 Build 0)  -->
<svg version="1.1" id="图层_1" xmlns="http://www.w3.org/2000/svg" xmlns:xlink="http://www.w3.org/1999/xlink" x="0px" y="0px"
	 viewBox="0 0 360 360" style="enable-background:new 0 0 360 360;" xml:space="preserve">
<style type="text/css">
	.st0{fill:#FFFFFF;}
</style>
<g>
	<path class="st0" d="M0.2,360.5c0-120.1,0-240.2,0-360.2c120.1,0,240.2,0,360.2,0c0,120.1,0,240.2,0,360.2
		C240.4,360.5,120.3,360.5,0.2,360.5z M250.1,247.5c0.5-0.2,0.9-0.3,1.3-0.5c5-2,10-4,15-6c1.1-0.4,1.4-0.9,1.4-2
		c-0.3-5.1-0.6-10.2-0.7-15.3c-0.2-10.2-0.3-20.4-0.4-30.6c-0.1-9.5,0-19-0.1-28.6c0-1.4,0.4-2.1,1.6-2.8c2.7-1.5,5.2-3.2,7.6-4.7
		c-5.9-5.9-11.8-11.8-17.7-17.7c-3.1,3.1-6.3,6.3-9.5,9.6c-0.6,0.6-1.2,0.9-2.1,0.9c-43.6,0-87.1,0-130.7,0c-0.7,0-1.5-0.2-2.1-0.6
		c-5.2-3.1-10.4-6.2-15.5-9.3c-0.4-0.2-0.7-0.4-1.3-0.7c1.6,38.2,1.5,76.2,0,114.3c0.6-0.2,0.9-0.4,1.3-0.5c5-2.3,10-4.7,15.1-7
		c1-0.5,1.4-1,1.4-2.1c0-28.4,0-56.9,0-85.3c0-0.5,0-1,0-1.6c45.2,0,90.2,0,135.4,0C250.1,187.1,250.1,217.2,250.1,247.5z
		 M171.2,168.5c0,0.5-0.1,0.8-0.1,1c-0.1,4.8-0.1,9.5-0.3,14.3c-0.4,13.1-1.7,26.1-4.1,38.9c-3.1,16.9-10.9,31.2-23,43.4
		c-10.2,10.3-21.9,18.1-35,24.3c-16.7,7.8-34.2,13.5-52,18.5c-2.7,0.8-5.5,1.5-8.3,2.2c0.4,1.6,0.8,3.2,1.2,4.7c0.3,0,0.4,0,0.6,0
		c14.1-2.4,28.1-5.3,41.8-9.3c16.4-4.7,32.4-10.7,47.3-19.1c7.7-4.3,15.1-9.2,21.2-15.8c7.8-8.4,13.4-18.2,17.5-28.9
		c6.4-16.6,9.2-33.9,10.5-51.6c0.1-0.9,0.3-1.5,1-2.1c2.8-2.4,5.6-4.9,8.5-7.5C189.3,177.1,180.3,172.9,171.2,168.5z M192.4,258.1
		c0.3,0.1,0.4,0.2,0.5,0.3c7.5,3.3,15,6.4,22.5,9.8c21.5,9.6,41.1,22,57.7,38.9c1.8,1.8,4.1,3.4,6.4,4.6c3.7,2,6.8,0.7,8.4-3.2
		c2.8-6.6,2.3-12.9-1.9-18.9c-3.1-4.3-7.2-7.5-11.7-10.1c-5.8-3.3-12-5.7-18.3-8c-18.8-6.7-38-11.8-57.3-16.8
		c-1.7-0.4-3.4-0.8-5.2-1.3C193.2,255,192.8,256.5,192.4,258.1z"/>
	<path d="M250.1,247.5c0-30.3,0-60.5,0-90.7c-45.2,0-90.2,0-135.4,0c0,0.5,0,1.1,0,1.6c0,28.4,0,56.9,0,85.3c0,1.1-0.4,1.6-1.4,2.1
		c-5.1,2.3-10.1,4.7-15.1,7c-0.4,0.2-0.7,0.3-1.3,0.5c1.5-38.1,1.6-76.1,0-114.3c0.5,0.3,0.9,0.5,1.3,0.7c5.2,3.1,10.3,6.2,15.5,9.3
		c0.6,0.4,1.4,0.6,2.1,0.6c43.6,0,87.1,0,130.7,0c0.9,0,1.5-0.3,2.1-0.9c3.2-3.3,6.4-6.5,9.5-9.6c5.9,5.9,11.8,11.8,17.7,17.7
		c-2.4,1.5-5,3.2-7.6,4.7c-1.2,0.7-1.6,1.5-1.6,2.8c0.1,9.5,0,19,0.1,28.6c0.1,10.2,0.2,20.4,0.4,30.6c0.1,5.1,0.4,10.2,0.7,15.3
		c0.1,1.2-0.3,1.6-1.4,2c-5,1.9-10,4-15,6C251.1,247.2,250.7,247.3,250.1,247.5z"/>
	<path d="M171.2,168.5c9.1,4.3,18.1,8.6,27.2,13c-2.9,2.6-5.7,5-8.5,7.5c-0.7,0.6-1,1.2-1,2.1c-1.3,17.6-4.1,35-10.5,51.6
		c-4.1,10.7-9.7,20.5-17.5,28.9c-6.1,6.6-13.4,11.4-21.2,15.8c-15,8.4-30.9,14.4-47.3,19.1c-13.8,4-27.7,6.9-41.8,9.3
		c-0.2,0-0.3,0-0.6,0c-0.4-1.5-0.8-3.1-1.2-4.7c2.8-0.8,5.5-1.5,8.3-2.2c17.7-5,35.2-10.6,52-18.5c13-6.1,24.8-14,35-24.3
		c12.1-12.2,19.8-26.5,23-43.4c2.4-12.9,3.7-25.9,4.1-38.9c0.1-4.8,0.2-9.5,0.3-14.3C171.2,169.3,171.2,169,171.2,168.5z"/>
	<path d="M192.4,258.1c0.4-1.6,0.8-3.1,1.2-4.7c1.8,0.4,3.5,0.9,5.2,1.3c19.3,5,38.5,10.1,57.3,16.8c6.3,2.2,12.5,4.7,18.3,8
		c4.5,2.6,8.7,5.8,11.7,10.1c4.2,5.9,4.6,12.3,1.9,18.9c-1.6,3.9-4.7,5.2-8.4,3.2c-2.3-1.2-4.6-2.8-6.4-4.6
		c-16.6-16.9-36.2-29.2-57.7-38.9c-7.5-3.3-15-6.5-22.5-9.8C192.8,258.3,192.7,258.2,192.4,258.1z"/>
</g>
</svg>
