<?xml version="1.0" encoding="utf-8"?>
<!-- Generator: Adobe Illustrator 20.1.0, SVG Export Plug-In . SVG Version: 6.00 Build 0)  -->
<svg version="1.1" id="图层_1" xmlns="http://www.w3.org/2000/svg" xmlns:xlink="http://www.w3.org/1999/xlink" x="0px" y="0px"
	 viewBox="0 0 360 360" style="enable-background:new 0 0 360 360;" xml:space="preserve">
<style type="text/css">
	.st0{fill:#FFFFFF;}
</style>
<g>
	<path class="st0" d="M0.2,360.5c0-120.1,0-240.2,0-360.2c120.1,0,240.2,0,360.2,0c0,120.1,0,240.2,0,360.2
		C240.4,360.5,120.3,360.5,0.2,360.5z M300.9,114.4c-10.6,17.2-24.3,31.2-41.2,42.3c0-0.6-0.1-0.9-0.1-1.2c0-28.3,0-56.6,0-85
		c0-0.8,0.3-1.2,0.9-1.7c3.3-2.6,6.6-5.3,9.9-7.9c0.3-0.2,0.6-0.5,1-0.8c-9.1-4.7-18-9.4-27.1-14.1c0,0.7,0,1.3,0,1.8
		c0.4,11.3,1,22.7,1,34c0.1,67.4,0,134.7,0,202.1c0,1.2,0,2.4,0,3.6c0.2,3.7,1,7.3,3.5,10.2c3.2,3.7,7.5,5,12.1,5.1
		c12.1,0.1,24.2,0.1,36.4,0c4.5,0,9-0.7,13.3-2.1c6.6-2.1,9.7-7.4,12.5-13.2c-0.3-0.1-0.5-0.2-0.7-0.3c-4.2-1.1-7.1-3.7-8.9-7.6
		c-1.7-3.6-2.2-7.4-2.3-11.3c-0.4-9.9-0.7-19.9-1-29.8c0-1.3,0-2.7,0-4c-2.1,0-4,0-6,0c0,0.5,0,0.9,0,1.2c0,12.3-0.7,24.6-2.4,36.8
		c-0.6,4.1-1.5,8-3.6,11.6c-2.2,3.7-5.4,5.8-9.9,5.7c-5.9-0.1-11.8,0-17.6,0c-6,0-9.6-2.9-10.7-8.7c-0.3-1.5-0.4-3-0.4-4.5
		c0-27.5,0-55,0-82.6c0-9.7,0-19.4,0-29.2c0-0.8,0.2-1.3,1-1.7c1-0.4,1.9-0.9,2.8-1.4c10-5.1,20-10.2,29.4-16.3
		c7.6-5,15.8-8.6,24.5-10.9c0.4-0.1,0.7-0.2,1.2-0.4C312.6,127.6,306.8,121,300.9,114.4z M177.1,49.5c0,0.6,0,1,0,1.4
		c0.1,3.5,0.3,6.9,0.4,10.4c0.3,12.5,0.7,24.9,0.7,37.4c0.1,58.8,0,117.7,0,176.5c0,4.6-1.3,8.9-4.1,12.7c-0.5,0.6-0.4,1,0,1.6
		c3.9,5.3,7.8,10.6,11.7,15.9c0.2,0.3,0.4,0.5,0.6,0.8c1-1.6,1.9-3.2,3.1-4.5c3.8-4.2,7.5-8.4,11.6-12.3
		c10.4-9.8,21.6-18.5,32.9-27.1c1.8-1.4,3.7-2.8,5.6-4.2c-0.8-1.2-1.6-2.4-2.4-3.6c-14.9,7.9-29.8,15.7-44.7,23.5
		c0-41.3,0-82.4,0-123.6c15.6,0,31.2,0,46.7,0c-6.3-6.3-12.5-12.5-18.7-18.7c-3.6,3.6-7.2,7.2-10.9,10.8c-0.4,0.4-1.2,0.8-1.8,0.8
		c-4.7,0.1-9.4,0-14.2,0c-0.4,0-0.8,0-1.2,0c0-0.5,0-0.8,0-1.1c0-24.8,0-49.6,0-74.4c0-0.8,0.3-1.2,0.9-1.7c2.3-1.8,4.6-3.6,6.9-5.4
		c0.9-0.7,1.8-1.5,2.8-2.3C194.4,58.2,185.9,53.9,177.1,49.5z"/>
	<path d="M300.9,114.4c5.8,6.6,11.7,13.2,17.6,20c-0.5,0.2-0.8,0.3-1.2,0.4c-8.7,2.3-16.9,5.9-24.5,10.9
		c-9.4,6.2-19.4,11.2-29.4,16.3c-0.9,0.5-1.8,1-2.8,1.4c-0.8,0.3-1,0.8-1,1.7c0,9.7,0,19.4,0,29.2c0,27.5,0,55,0,82.6
		c0,1.5,0.1,3,0.4,4.5c1.1,5.8,4.7,8.7,10.7,8.7c5.9,0,11.8-0.2,17.6,0c4.5,0.1,7.7-2,9.9-5.7c2.1-3.6,3.1-7.5,3.6-11.6
		c1.8-12.2,2.4-24.5,2.4-36.8c0-0.4,0-0.8,0-1.2c2,0,3.9,0,6,0c0,1.3,0,2.7,0,4c0.3,9.9,0.6,19.9,1,29.8c0.2,3.9,0.7,7.7,2.3,11.3
		c1.8,3.9,4.7,6.5,8.9,7.6c0.2,0.1,0.4,0.1,0.7,0.3c-2.8,5.8-5.9,11.1-12.5,13.2c-4.3,1.3-8.8,2-13.3,2.1c-12.1,0.1-24.2,0.1-36.4,0
		c-4.6,0-8.9-1.4-12.1-5.1c-2.5-2.9-3.3-6.5-3.5-10.2c-0.1-1.2,0-2.4,0-3.6c0-67.4,0-134.7,0-202.1c0-11.3-0.7-22.7-1-34
		c0-0.5,0-1.1,0-1.8c9.1,4.7,18,9.4,27.1,14.1c-0.4,0.3-0.7,0.6-1,0.8c-3.3,2.6-6.6,5.3-9.9,7.9c-0.6,0.4-0.9,0.9-0.9,1.7
		c0,28.3,0,56.6,0,85c0,0.3,0,0.6,0.1,1.2C276.6,145.6,290.3,131.6,300.9,114.4z"/>
	<path d="M177.1,49.5c8.7,4.4,17.3,8.6,25.9,13c-1,0.8-1.9,1.5-2.8,2.3c-2.3,1.8-4.6,3.6-6.9,5.4c-0.6,0.4-0.9,0.9-0.9,1.7
		c0,24.8,0,49.6,0,74.4c0,0.3,0,0.6,0,1.1c0.5,0,0.8,0,1.2,0c4.7,0,9.4,0,14.2,0c0.6,0,1.4-0.3,1.8-0.8c3.7-3.6,7.3-7.3,10.9-10.8
		c6.3,6.3,12.5,12.5,18.7,18.7c-15.5,0-31.1,0-46.7,0c0,41.2,0,82.3,0,123.6c14.9-7.8,29.7-15.6,44.7-23.5c0.8,1.2,1.6,2.3,2.4,3.6
		c-1.9,1.4-3.7,2.8-5.6,4.2c-11.3,8.6-22.6,17.4-32.9,27.1c-4.1,3.9-7.8,8.1-11.6,12.3c-1.2,1.3-2,3-3.1,4.5
		c-0.2-0.2-0.4-0.5-0.6-0.8c-3.9-5.3-7.8-10.6-11.7-15.9c-0.5-0.6-0.5-1,0-1.6c2.8-3.7,4.1-8,4.1-12.7c0-58.8,0.1-117.7,0-176.5
		c0-12.5-0.4-24.9-0.7-37.4c-0.1-3.5-0.3-6.9-0.4-10.4C177.1,50.5,177.1,50.2,177.1,49.5z"/>
</g>
</svg>
