<?xml version="1.0" encoding="utf-8"?>
<!-- Generator: Adobe Illustrator 20.1.0, SVG Export Plug-In . SVG Version: 6.00 Build 0)  -->
<svg version="1.1" id="图层_1" xmlns="http://www.w3.org/2000/svg" xmlns:xlink="http://www.w3.org/1999/xlink" x="0px" y="0px"
	 viewBox="0 0 360 360" style="enable-background:new 0 0 360 360;" xml:space="preserve">
<style type="text/css">
	.st0{fill:#FFFFFF;}
</style>
<g>
	<path class="st0" d="M0.2,360.5c0-120.1,0-240.2,0-360.2c120.1,0,240.2,0,360.2,0c0,120.1,0,240.2,0,360.2
		C240.4,360.5,120.3,360.5,0.2,360.5z M317.3,287.7c-0.1-0.1-0.1-0.2-0.1-0.2c-0.5-0.2-1-0.5-1.5-0.7c-5.6-2.6-9.9-6.5-11.4-12.8
		c-0.7-3.1-1.2-6.2-1.3-9.4c-0.4-8.1-0.6-16.2-0.9-24.3c0-0.3-0.1-0.7-0.1-1c-2,0-3.9,0-5.8,0c-0.1,0.5-0.1,0.9-0.2,1.3
		c-0.8,10-1.6,20.1-2.5,30.1c-0.3,3.8-0.8,7.6-2.3,11.2c-2,4.8-5,6.8-10.2,6.8c-19.4,0-38.8,0-58.2,0c-1.3,0-2.6-0.1-3.8-0.2
		c-4.3-0.5-7.2-3-8.3-7.1c-0.4-1.6-0.6-3.2-0.6-4.9c0-10.9,0-21.8,0-32.8c0-0.8,0.3-1.1,1-1.4c1.8-0.7,3.7-1.4,5.5-2.1
		c14.5-5.8,28.2-13,41.7-20.8c11.1-6.4,22.4-12.5,35.5-14.6c-6.3-7.1-12.5-14.1-18.8-21.2c-18,22.1-40,39.1-64.7,53
		c0-0.5-0.1-0.8-0.1-1c0-15.4,0-30.8,0-46.2c0-0.5,0.4-1.1,0.8-1.4c3.3-2.4,6.6-4.7,9.9-7c0.3-0.2,0.7-0.5,1.1-0.8
		c-9.9-4.4-19.6-8.6-29.5-13c0,0.4,0,0.7,0,1c0.1,3.4,0.3,6.9,0.4,10.3c0.2,11.5,0.4,23,0.6,34.5c0.1,9.6,0.1,19.3,0.2,28.9
		c0,11.7,0,23.4,0.1,35c0,2.8-0.1,5.7,0.3,8.5c1.2,8.8,5.9,14.6,14.6,17.1c4.2,1.2,8.5,1.4,12.8,1.4c17.8,0,35.7,0,53.5,0
		c3.8,0,7.5,0,11.3,0c6.6,0.1,12.9-1,18.7-4.2C310.2,297,314.2,292.8,317.3,287.7z M101.8,215.6c0-0.3-0.1-0.5-0.1-0.7
		c0-9.3,0-18.6,0-28c0-0.4,0.3-1,0.7-1.2c1.5-1.2,3.1-2.4,4.6-3.6c1.7-1.3,3.4-2.7,5.3-4.1c-9.5-4-18.8-7.8-28.3-11.8
		c0,0.4-0.1,0.6-0.1,0.7c0.3,10.9,0.6,21.8,0.8,32.7c0.2,9.8,0.2,19.7,0.3,29.5c0,14.8,0,29.6,0,44.4c0,3.7-0.9,7.2-3,10.3
		c-0.8,1.3-1.9,2.5-2.8,3.8c5.1,7.4,10.1,14.8,15,21.9c2.2-2,4.2-4,6.3-5.9c6.4-5.4,13.6-9.7,20.9-13.8
		c15.7-8.9,32.1-16.4,48.6-23.7c3.5-1.5,6.9-3,10.5-4.6c-0.4-1.6-0.8-3.1-1.2-4.8c-26,8.3-51.8,16.5-77.6,24.7c0-19.7,0-39.2,0-58.9
		c25.5,0,50.8,0,76.5,0c-6.4-7.6-12.6-14.9-19-22.6c-0.3,0.5-0.6,0.9-0.9,1.2c-4.5,4.5-8.9,8.9-13.4,13.4c-0.6,0.7-1.3,0.9-2.2,0.9
		c-13.2,0-26.5,0-39.7,0C102.7,215.6,102.3,215.6,101.8,215.6z"/>
	<path d="M317.3,287.7c-3.1,5.1-7.1,9.4-12.4,12.3c-5.8,3.2-12.2,4.3-18.7,4.2c-3.8-0.1-7.5,0-11.3,0c-17.8,0-35.7,0-53.5,0
		c-4.3,0-8.6-0.2-12.8-1.4c-8.6-2.5-13.4-8.4-14.6-17.1c-0.4-2.8-0.3-5.7-0.3-8.5c-0.1-11.7-0.1-23.4-0.1-35
		c0-9.6-0.1-19.3-0.2-28.9c-0.1-11.5-0.3-23-0.6-34.5c-0.1-3.4-0.2-6.9-0.4-10.3c0-0.3,0-0.5,0-1c9.8,4.3,19.6,8.6,29.5,13
		c-0.5,0.3-0.8,0.6-1.1,0.8c-3.3,2.3-6.6,4.6-9.9,7c-0.4,0.3-0.8,0.9-0.8,1.4c0,15.4,0,30.8,0,46.2c0,0.3,0,0.5,0.1,1
		c24.7-13.9,46.7-30.8,64.7-53c6.3,7.1,12.5,14.1,18.8,21.2c-13.1,2.1-24.4,8.1-35.5,14.6c-13.5,7.8-27.2,15-41.7,20.8
		c-1.8,0.7-3.6,1.4-5.5,2.1c-0.7,0.2-1,0.6-1,1.4c0,10.9,0,21.8,0,32.8c0,1.6,0.2,3.3,0.6,4.9c1,4.1,4,6.5,8.3,7.1
		c1.3,0.2,2.5,0.2,3.8,0.2c19.4,0,38.8,0,58.2,0c5.2,0,8.2-2,10.2-6.8c1.5-3.6,2-7.4,2.3-11.2c0.9-10,1.7-20.1,2.5-30.1
		c0-0.4,0.1-0.8,0.2-1.3c1.9,0,3.8,0,5.8,0c0,0.3,0.1,0.7,0.1,1c0.3,8.1,0.5,16.2,0.9,24.3c0.2,3.1,0.6,6.3,1.3,9.4
		c1.5,6.2,5.8,10.1,11.4,12.8c0.5,0.2,1,0.5,1.5,0.7C317.2,287.5,317.2,287.6,317.3,287.7z"/>
	<path d="M101.8,215.6c0.5,0,0.9,0,1.3,0c13.2,0,26.5,0,39.7,0c0.9,0,1.6-0.3,2.2-0.9c4.4-4.5,8.9-8.9,13.4-13.4
		c0.3-0.3,0.5-0.7,0.9-1.2c6.4,7.6,12.6,15,19,22.6c-25.6,0-51,0-76.5,0c0,19.6,0,39.2,0,58.9c25.8-8.2,51.7-16.4,77.6-24.7
		c0.4,1.6,0.8,3.2,1.2,4.8c-3.5,1.5-7,3-10.5,4.6c-16.5,7.3-32.9,14.9-48.6,23.7c-7.3,4.1-14.4,8.4-20.9,13.8
		c-2.2,1.8-4.2,3.8-6.3,5.9c-4.9-7.1-10-14.6-15-21.9c1-1.3,2-2.5,2.8-3.8c2-3.1,3-6.6,3-10.3c0-14.8,0-29.6,0-44.4
		c0-9.8-0.1-19.7-0.3-29.5c-0.2-10.9-0.6-21.8-0.8-32.7c0-0.2,0-0.4,0.1-0.7c9.4,3.9,18.8,7.8,28.3,11.8c-1.8,1.4-3.6,2.8-5.3,4.1
		c-1.5,1.2-3.1,2.4-4.6,3.6c-0.3,0.3-0.7,0.8-0.7,1.2c0,9.3,0,18.6,0,28C101.8,215.1,101.8,215.3,101.8,215.6z"/>
</g>
</svg>
