<?xml version="1.0" encoding="utf-8"?>
<!-- Generator: Adobe Illustrator 20.1.0, SVG Export Plug-In . SVG Version: 6.00 Build 0)  -->
<svg version="1.1" id="图层_1" xmlns="http://www.w3.org/2000/svg" xmlns:xlink="http://www.w3.org/1999/xlink" x="0px" y="0px"
	 viewBox="0 0 360 360" style="enable-background:new 0 0 360 360;" xml:space="preserve">
<style type="text/css">
	.st0{fill:#FFFFFF;}
</style>
<g>
	<path class="st0" d="M0.2,360.5c0-120.1,0-240.2,0-360.2c120.1,0,240.2,0,360.2,0c0,120.1,0,240.2,0,360.2
		C240.4,360.5,120.3,360.5,0.2,360.5z M188.9,42.5c0,0.6,0,1,0,1.5c0.4,14.8,1,29.6,1.1,44.5c0.2,25.8,0,51.5,0.1,77.3
		c0,3.7,0.7,7.2,2.8,10.4c2.8,4.4,7.1,6.5,12.1,7.2c3.8,0.5,7.6,0.6,11.5,0.6c19.8,0.1,39.7,0,59.5,0c3.6,0,7.2-0.2,10.8-0.5
		c4.1-0.4,8.2-1.3,11.9-3.2c5.3-2.8,8.8-7.4,11.6-12.6c0,0,0-0.1,0,0c-1.9-0.8-3.8-1.5-5.5-2.4c-4.5-2.6-6.6-6.8-7.6-11.7
		c-1.5-7.5-2.3-15-2.9-22.6c-0.2-2-0.3-3.9-0.5-5.9c-1.7,0-3.2,0-4.7,0c0,0.3-0.1,0.5-0.1,0.8c-0.6,7.5-1.2,15.1-2,22.6
		c-0.5,4.6-1.4,9.2-3.3,13.4c-2.4,5.2-6.4,7.9-12.2,7.9c-16.4,0-32.7,0-49.1,0c-1.8,0-3.7-0.2-5.5-0.5c-6.9-1.3-10.3-5.5-10.3-12.5
		c0-12.1,0-24.2,0-36.4c0-0.9,0.3-1.3,1.1-1.6c8-3,16-5.9,24-9.1c11.3-4.5,22.5-9.2,33.4-14.8c9.1-4.6,18.5-8.2,28.5-10.3
		c1.5-0.3,3.1-0.6,4.8-0.9c-6.8-6.4-13.4-12.6-20.2-19c-20.9,20.2-45.1,35.4-71.7,47.1c0-0.4,0-0.8,0-1.2c0-14.8,0-29.6,0-44.4
		c0-0.9,0.2-1.5,0.9-2.1c2.9-2.8,5.7-5.6,8.6-8.6C207,51.1,198,46.8,188.9,42.5z M95.7,196.7c1.4-1.3,2.6-2.6,4-3.8
		c4.9-4.1,10.3-7.4,15.9-10.5c15.5-8.8,31.5-16.4,47.7-23.8c3-1.4,6.1-2.8,9.2-4.2c-0.6-0.9-1.2-1.7-1.7-2.6c-0.5-0.9-1-0.9-1.9-0.7
		c-20,6-40,12-60,17.9c-1.9,0.6-3.9,1.1-5.8,1.7c0-20.5,0-40.8,0-61.2c26.3,0,52.4,0,78.5,0c-6.6-6.6-13.2-13.2-20-20
		c-0.2,0.3-0.4,0.7-0.7,1c-3.7,3.7-7.4,7.4-11.1,11.1c-0.6,0.6-1.2,0.8-2.1,0.8c-14.4,0-28.9,0-43.3,0c-0.4,0-0.8,0-1.3,0
		c0-0.4,0-0.6,0-0.9c0-12.8,0-25.5,0-38.3c0-0.5,0.3-1.1,0.7-1.5c2.9-2.9,5.8-5.8,8.7-8.8c-9.1-4-18.1-7.9-27.2-11.8
		c0,0.6,0,0.9,0,1.3c0.3,8.5,0.7,17.1,0.9,25.6c0.2,9.1,0.3,18.1,0.3,27.2c0,23.4,0,46.7,0,70.1c0,4.6-0.8,9.1-4.7,12.5
		C86.4,184.3,91.1,190.6,95.7,196.7z"/>
	<path d="M188.9,42.5c9.1,4.3,18.1,8.6,27.2,13c-2.9,2.9-5.7,5.8-8.6,8.6c-0.6,0.6-0.9,1.2-0.9,2.1c0,14.8,0,29.6,0,44.4
		c0,0.4,0,0.8,0,1.2c26.6-11.6,50.7-26.9,71.7-47.1c6.8,6.4,13.4,12.6,20.2,19c-1.8,0.3-3.3,0.6-4.8,0.9c-10,2-19.5,5.6-28.5,10.3
		c-10.9,5.6-22.1,10.3-33.4,14.8c-7.9,3.1-16,6.1-24,9.1c-0.8,0.3-1.1,0.7-1.1,1.6c0,12.1,0,24.2,0,36.4c0,7,3.4,11.2,10.3,12.5
		c1.8,0.3,3.6,0.5,5.5,0.5c16.4,0,32.7,0,49.1,0c5.8,0,9.8-2.7,12.2-7.9c2-4.3,2.8-8.8,3.3-13.4c0.8-7.5,1.3-15,2-22.6
		c0-0.2,0.1-0.5,0.1-0.8c1.5,0,3,0,4.7,0c0.2,2,0.3,3.9,0.5,5.9c0.6,7.6,1.4,15.1,2.9,22.6c1,4.9,3.1,9.1,7.6,11.7
		c1.7,1,3.6,1.6,5.5,2.4c0-0.1,0,0,0,0c-2.8,5.2-6.3,9.8-11.6,12.6c-3.7,1.9-7.7,2.8-11.9,3.2c-3.6,0.3-7.2,0.5-10.8,0.5
		c-19.8,0-39.7,0.1-59.5,0c-3.8,0-7.7,0-11.5-0.6c-4.9-0.7-9.2-2.8-12.1-7.2c-2-3.2-2.8-6.7-2.8-10.4c0-25.8,0.1-51.5-0.1-77.3
		c-0.1-14.8-0.7-29.6-1.1-44.5C188.9,43.5,188.9,43.1,188.9,42.5z"/>
	<path d="M95.7,196.7c-4.6-6.2-9.3-12.4-14-18.7c3.9-3.4,4.7-7.8,4.7-12.5c0.1-23.4,0-46.7,0-70.1c0-9.1-0.1-18.2-0.3-27.2
		c-0.2-8.5-0.6-17.1-0.9-25.6c0-0.4,0-0.8,0-1.3c9.1,3.9,18.1,7.9,27.2,11.8c-3,3-5.9,5.8-8.7,8.8c-0.4,0.4-0.7,1-0.7,1.5
		c0,12.8,0,25.5,0,38.3c0,0.2,0,0.5,0,0.9c0.5,0,0.9,0,1.3,0c14.4,0,28.9,0,43.3,0c0.9,0,1.5-0.2,2.1-0.8c3.7-3.7,7.4-7.4,11.1-11.1
		c0.3-0.3,0.5-0.7,0.7-1c6.8,6.8,13.4,13.4,20,20c-26.1,0-52.2,0-78.5,0c0,20.5,0,40.8,0,61.2c2-0.6,3.9-1.1,5.8-1.7
		c20-6,40-11.9,60-17.9c0.9-0.3,1.5-0.2,1.9,0.7c0.5,0.9,1.1,1.7,1.7,2.6c-3.2,1.4-6.2,2.8-9.2,4.2c-16.1,7.4-32.2,15-47.7,23.8
		c-5.5,3.1-11,6.4-15.9,10.5C98.3,194.1,97.1,195.4,95.7,196.7z"/>
</g>
</svg>
