<?xml version="1.0" encoding="utf-8"?>
<!-- Generator: Adobe Illustrator 20.1.0, SVG Export Plug-In . SVG Version: 6.00 Build 0)  -->
<svg version="1.1" id="图层_1" xmlns="http://www.w3.org/2000/svg" xmlns:xlink="http://www.w3.org/1999/xlink" x="0px" y="0px"
	 viewBox="0 0 360 360" style="enable-background:new 0 0 360 360;" xml:space="preserve">
<style type="text/css">
	.st0{fill:#FFFFFF;}
</style>
<g>
	<path class="st0" d="M0.2,360.5c0-120.1,0-240.2,0-360.2c120.1,0,240.2,0,360.2,0c0,120.1,0,240.2,0,360.2
		C240.4,360.5,120.3,360.5,0.2,360.5z M261.9,256.9c0.3,0.3,0.5,0.6,0.7,0.9c3.7,4.6,7.6,9.2,11.2,13.9c6.2,8,11.7,16.5,15.7,25.8
		c1.3,3,2.2,6.2,3.5,9.2c0.7,1.7,1.7,3.3,2.9,4.8c1.7,2,3.8,2.1,5.9,0.5c0.5-0.4,1.1-0.8,1.5-1.4c1.6-2.4,3.3-4.7,4.5-7.3
		c3.5-7.5,2.4-14.6-3.1-20.8c-1.9-2.2-4.1-4.2-6.4-6.1c-8.1-6.8-17-12.5-26-18c-2.7-1.6-5.4-3.2-8.2-4.9
		C263.5,254.6,262.7,255.7,261.9,256.9z M95.6,256.8c-1.1-0.3-2.4-0.6-3.6-1c-0.7-0.2-1,0-1.3,0.6c-0.8,1.9-1.7,3.9-2.6,5.8
		c-4.5,9.3-9.7,18.3-16.8,25.9c-3.1,3.4-6.7,6.2-10,9.4c-1.4,1.4-2.8,3-3.9,4.7c-1.9,3-1.1,5.5,2,7.1c1.5,0.8,3.2,1.3,4.8,1.7
		c9.2,2.2,16.6-0.7,22-8.4c2.8-4,4.6-8.5,5.9-13.1c2.2-7.6,3.1-15.3,3.5-23.2C95.8,263.3,95.6,260.1,95.6,256.8z M131.2,258.1
		c0.2,0.4,0.3,0.7,0.5,0.9c2.1,4.1,4.4,8.1,6.4,12.3c4.4,9,7.7,18.4,9.6,28.3c0.6,3.3,1.3,6.6,3.1,9.5c1.8,2.9,4.3,3.5,6.9,1.2
		c1.8-1.5,3.4-3.4,4.8-5.3c3.5-4.8,5.2-10.1,4.3-16.1c-0.6-3.8-2.6-6.9-4.9-9.7c-7.7-9.1-17.1-16.1-26.7-23.1
		c-0.2-0.2-0.7-0.2-0.9-0.1C133.2,256.6,132.2,257.4,131.2,258.1z M197.1,258.1c0.3,0.5,0.6,0.9,0.8,1.3
		c5.8,8.6,11.1,17.5,14.7,27.2c1.8,4.8,3,9.8,4.5,14.7c0.7,2.4,1.5,4.7,3,6.7c1.6,2,3.5,2.4,5.7,1.1c0.6-0.4,1.2-0.8,1.7-1.3
		c3-2.8,5.3-6,6.8-9.8c2.2-5.5,1.7-10.8-1.6-15.6c-1.4-2.1-3-4.1-4.8-5.9c-7.9-8.1-17.3-14.3-26.7-20.4c-0.3-0.2-0.8-0.3-1-0.1
		C199.2,256.6,198.2,257.3,197.1,258.1z"/>
	<path d="M261.9,256.9c0.8-1.2,1.6-2.3,2.4-3.6c2.8,1.7,5.5,3.3,8.2,4.9c9,5.5,17.9,11.2,26,18c2.3,1.9,4.4,3.9,6.4,6.1
		c5.5,6.2,6.5,13.3,3.1,20.8c-1.2,2.6-2.9,4.9-4.5,7.3c-0.4,0.6-0.9,1-1.5,1.4c-2.1,1.6-4.2,1.6-5.9-0.5c-1.2-1.4-2.2-3.1-2.9-4.8
		c-1.3-3-2.2-6.1-3.5-9.2c-4-9.4-9.5-17.8-15.7-25.8c-3.6-4.7-7.5-9.3-11.2-13.9C262.4,257.5,262.2,257.2,261.9,256.9z"/>
	<path d="M95.6,256.8c0,3.3,0.1,6.4,0,9.6c-0.4,7.8-1.3,15.6-3.5,23.2c-1.3,4.7-3.1,9.1-5.9,13.1c-5.4,7.7-12.8,10.6-22,8.4
		c-1.7-0.4-3.3-0.9-4.8-1.7c-3.2-1.6-3.9-4.1-2-7.1c1.1-1.7,2.4-3.3,3.9-4.7c3.3-3.2,6.9-6.1,10-9.4c7.1-7.6,12.3-16.6,16.8-25.9
		c0.9-1.9,1.8-3.8,2.6-5.8c0.3-0.6,0.6-0.8,1.3-0.6C93.3,256.3,94.5,256.6,95.6,256.8z"/>
	<path d="M131.2,258.1c1-0.7,2.1-1.4,3.1-2c0.2-0.1,0.7-0.1,0.9,0.1c9.5,7,19,14,26.7,23.1c2.4,2.8,4.4,5.9,4.9,9.7
		c0.9,6-0.8,11.3-4.3,16.1c-1.4,1.9-3,3.8-4.8,5.3c-2.6,2.2-5.1,1.7-6.9-1.2c-1.8-2.9-2.5-6.2-3.1-9.5c-1.9-9.9-5.3-19.2-9.6-28.3
		c-2-4.2-4.3-8.2-6.4-12.3C131.5,258.7,131.4,258.4,131.2,258.1z"/>
	<path d="M197.1,258.1c1.1-0.7,2.1-1.4,3.2-2.1c0.3-0.1,0.8-0.1,1,0.1c9.4,6.1,18.8,12.3,26.7,20.4c1.8,1.8,3.4,3.8,4.8,5.9
		c3.3,4.9,3.8,10.2,1.6,15.6c-1.5,3.8-3.8,7-6.8,9.8c-0.5,0.5-1.1,0.9-1.7,1.3c-2.2,1.3-4.1,0.9-5.7-1.1c-1.6-2-2.3-4.3-3-6.7
		c-1.5-4.9-2.7-9.9-4.5-14.7c-3.7-9.7-9-18.6-14.7-27.2C197.7,258.9,197.4,258.5,197.1,258.1z"/>
</g>
</svg>
