<?xml version="1.0" encoding="utf-8"?>
<!-- Generator: Adobe Illustrator 20.1.0, SVG Export Plug-In . SVG Version: 6.00 Build 0)  -->
<svg version="1.1" id="图层_1" xmlns="http://www.w3.org/2000/svg" xmlns:xlink="http://www.w3.org/1999/xlink" x="0px" y="0px"
	 viewBox="0 0 360 360" style="enable-background:new 0 0 360 360;" xml:space="preserve">
<style type="text/css">
	.st0{fill:#FFFFFF;}
</style>
<g>
	<path class="st0" d="M0.2,360.5c0-120.1,0-240.2,0-360.2c120.1,0,240.2,0,360.2,0c0,120.1,0,240.2,0,360.2
		C240.4,360.5,120.3,360.5,0.2,360.5z M54.6,74.3c0.5,0.5,0.7,0.8,1,1.1c2.9,2.9,5.9,5.9,8.8,8.8c0.6,0.6,1.1,0.7,1.9,0.5
		c8.2-2.2,16.6-3.2,25-3.3c11.7-0.1,23.4,0,35,0c0.3,0,0.7,0,1.1,0.1c-0.2,0.3-0.3,0.5-0.4,0.6c-9,10.9-18.1,21.9-27.2,32.8
		c-0.3,0.4-0.9,0.7-1.4,0.9c-2.9,0.9-5.7,1.7-8.6,2.6c-0.7,0.2-1.5,0.5-2.3,0.8c5.2,5.6,10.2,11,15.3,16.5c2.9-2.9,5.7-5.7,8.5-8.5
		c0.6-0.6,1.2-0.9,2.1-0.9c20.4,0,40.7,0,61.1,0c0.4,0,0.8,0,1.2,0c0,9.1,0,18,0,27.1c-42.7,0-85.4,0-128.3,0
		c3.5,3.5,6.8,6.8,10.2,10.1c0.3,0.2,0.9,0.3,1.3,0.2c8.8-2.3,17.8-3.3,26.9-3.3c29.6,0,59.1,0,88.7,0c0.4,0,0.8,0,1.5,0
		c-0.4,10.3-0.8,20.4-1.2,30.6c6.1-2.3,12.2-4.6,18.2-6.9c0.2-0.1,0.5-0.6,0.5-0.9c-0.3-5.3-0.7-10.5-1-15.8c-0.1-2.3,0-4.7,0-7.2
		c42,0,83.9,0,125.6,0c-6.6-6.6-13.2-13.2-19.9-19.9c-0.1,0.1-0.4,0.3-0.6,0.5c-4.5,3.8-9.1,7.6-13.5,11.5c-0.7,0.6-1.4,0.9-2.4,0.9
		c-29.2,0-58.5,0-87.7,0c-0.5,0-0.9,0-1.5,0c0-9.1,0-18,0-27c28.6,0,57.1,0,85.5,0c-6.6-6.6-13.3-13.3-19.9-19.9
		c-4.2,3.9-8.6,7.9-13,11.9c-0.6,0.6-1.2,0.8-2.1,0.8c-16.4,0-32.8,0-49.2,0c-0.4,0-0.9,0-1.4,0c0-3.4,0.2-6.7-0.1-9.9
		c-0.3-3.1,0.6-5.2,3.2-6.9c1.8-1.2,3.3-2.8,5.1-4.4c-8.8-3.2-17.3-6.3-25.9-9.4c0.4,10.3,0.8,20.4,1.2,30.5c-20.5,0-40.8,0-61.2,0
		c0.3-0.4,0.4-0.6,0.6-0.8c10-11.9,20-23.7,30-35.6c0.7-0.8,1.4-1.2,2.5-1.2c52.3,0,104.6,0,157,0c0.5,0,1,0,1.4,0
		c-6.7-6.7-13.3-13.3-19.9-19.9c-0.2,0.1-0.5,0.4-0.7,0.6c-4.5,3.8-9,7.6-13.5,11.4c-0.7,0.6-1.4,0.8-2.3,0.8
		c-39.1,0-78.2,0-117.2,0c-0.4,0-0.8,0-1.5,0c0.4-0.6,0.7-0.9,0.9-1.2c2.6-3.1,5.4-6.2,7.8-9.4c1.9-2.5,4.2-4.4,7.2-5.4
		c2.1-0.7,4.1-1.8,6.4-2.8c-6.8-5.6-13.4-11-20.1-16.5c-0.3,0.5-0.5,0.9-0.7,1.3C147,51.8,140.4,62.9,132.2,73
		c-0.7,0.9-1.5,1.3-2.7,1.3c-24.4,0-48.8,0-73.2,0C55.8,74.3,55.3,74.3,54.6,74.3z"/>
	<path d="M54.6,74.3c0.8,0,1.3,0,1.8,0c24.4,0,48.8,0,73.2,0c1.2,0,2-0.4,2.7-1.3c8.1-10.1,14.8-21.2,20.7-32.8
		c0.2-0.4,0.4-0.8,0.7-1.3c6.7,5.5,13.3,11,20.1,16.5c-2.2,1-4.2,2.1-6.4,2.8c-3,1.1-5.3,2.9-7.2,5.4c-2.5,3.2-5.2,6.3-7.8,9.4
		c-0.2,0.3-0.5,0.6-0.9,1.2c0.7,0,1.1,0,1.5,0c39.1,0,78.2,0,117.2,0c0.9,0,1.6-0.2,2.3-0.8c4.5-3.8,9-7.6,13.5-11.4
		c0.3-0.2,0.6-0.4,0.7-0.6c6.6,6.6,13.2,13.2,19.9,19.9c-0.5,0-0.9,0-1.4,0c-52.3,0-104.6,0-157,0c-1.1,0-1.8,0.3-2.5,1.2
		c-10,11.9-20,23.7-30,35.6c-0.2,0.2-0.4,0.5-0.6,0.8c20.4,0,40.6,0,61.2,0c-0.4-10.1-0.8-20.2-1.2-30.5c8.6,3.1,17.2,6.2,25.9,9.4
		c-1.8,1.6-3.3,3.2-5.1,4.4c-2.6,1.7-3.5,3.8-3.2,6.9c0.3,3.2,0.1,6.5,0.1,9.9c0.5,0,1,0,1.4,0c16.4,0,32.8,0,49.2,0
		c0.9,0,1.5-0.3,2.1-0.8c4.4-4,8.8-8.1,13-11.9c6.7,6.7,13.3,13.3,19.9,19.9c-28.4,0-56.9,0-85.5,0c0,9.1,0,18,0,27c0.5,0,1,0,1.5,0
		c29.2,0,58.5,0,87.7,0c0.9,0,1.6-0.2,2.4-0.9c4.5-3.9,9-7.7,13.5-11.5c0.2-0.2,0.5-0.4,0.6-0.5c6.6,6.6,13.2,13.2,19.9,19.9
		c-41.7,0-83.6,0-125.6,0c0,2.5-0.1,4.8,0,7.2c0.3,5.3,0.7,10.5,1,15.8c0,0.3-0.2,0.8-0.5,0.9c-6,2.3-12.1,4.6-18.2,6.9
		c0.4-10.2,0.8-20.3,1.2-30.6c-0.6,0-1.1,0-1.5,0c-29.6,0-59.1,0-88.7,0c-9.1,0-18.1,1-26.9,3.3c-0.4,0.1-1,0-1.3-0.2
		c-3.3-3.3-6.6-6.6-10.2-10.1c42.9,0,85.5,0,128.3,0c0-9.1,0-18,0-27.1c-0.4,0-0.8,0-1.2,0c-20.4,0-40.7,0-61.1,0
		c-0.9,0-1.5,0.3-2.1,0.9c-2.8,2.9-5.6,5.7-8.5,8.5c-5.1-5.5-10.2-10.9-15.3-16.5c0.8-0.3,1.6-0.5,2.3-0.8c2.9-0.9,5.7-1.7,8.6-2.6
		c0.5-0.2,1-0.5,1.4-0.9C108.9,104,118,93,127,82.1c0.1-0.2,0.2-0.3,0.4-0.6c-0.4,0-0.8-0.1-1.1-0.1c-11.7,0-23.4-0.1-35,0
		c-8.5,0.1-16.8,1.1-25,3.3c-0.8,0.2-1.3,0.1-1.9-0.5c-2.9-3-5.9-5.9-8.8-8.8C55.3,75.1,55,74.8,54.6,74.3z"/>
</g>
</svg>
