<?xml version="1.0" encoding="utf-8"?>
<!-- Generator: Adobe Illustrator 20.1.0, SVG Export Plug-In . SVG Version: 6.00 Build 0)  -->
<svg version="1.1" id="图层_1" xmlns="http://www.w3.org/2000/svg" xmlns:xlink="http://www.w3.org/1999/xlink" x="0px" y="0px"
	 viewBox="0 0 360 360" style="enable-background:new 0 0 360 360;" xml:space="preserve">
<style type="text/css">
	.st0{fill:#FFFFFF;}
</style>
<g>
	<path class="st0" d="M0.2,360.5c0-120.1,0-240.2,0-360.2c120.1,0,240.2,0,360.2,0c0,120.1,0,240.2,0,360.2
		C240.4,360.5,120.3,360.5,0.2,360.5z M52.2,255.7c3.1,3.1,5.9,5.9,8.7,8.7c0.6,0.6,1,0.6,1.8,0.4c3.7-0.8,7.4-1.8,11.2-2.1
		c4.2-0.3,8.5,0,12.8,0c29.6,0,59.3,0,88.9,0c0.5,0,1,0,1.7,0c-0.4,18.5-0.8,36.9-1.2,55.3c0.4-0.1,0.9-0.3,1.3-0.5
		c5.1-2,10.1-4.1,15.2-6.1c0.9-0.3,1.1-0.8,1-1.7c-0.3-6.9-0.6-13.7-0.8-20.6c-0.2-5.8-0.2-11.5-0.3-17.3c0-3,0-6.1,0-9.2
		c41.6,0,83.1,0,124.9,0c-7.2-7.6-14.2-15-21.3-22.5c-4.9,4.9-9.7,9.7-14.4,14.5c-0.6,0.6-1.2,0.9-2.1,0.9c-28.6,0-57.2,0-85.8,0
		c-0.4,0-0.8,0-1.2-0.1c0-9.8,0-19.5,0-29.4c28.2,0,56.4,0,84.7,0c-6.4-6.8-12.6-13.4-18.9-20c-0.4,0.3-0.6,0.6-0.9,0.9
		c-3.7,3.7-7.5,7.5-11.2,11.2c-0.6,0.6-1.2,0.9-2.1,0.9c-16.8,0-33.6,0-50.4,0c-0.4,0-0.8,0-1.4,0c0-3.9,0-7.6,0-11.3
		c0-0.3,0.3-0.7,0.6-1c1.7-1.8,3.5-3.5,5.3-5.3c0.8-0.8,1.6-1.5,2.6-2.4c-8.5-3.6-16.7-7.1-24.9-10.6c0.4,10.3,0.8,20.4,1.2,30.5
		c-17.8,0-35.3,0-52.9,0c0.4-0.4,0.6-0.7,0.9-1c9.9-11.4,19.8-22.7,29.7-34.1c0.8-0.9,1.5-1.3,2.7-1.3c45.6,0,91.2,0,136.8,0
		c0.5,0,1,0,1.7,0c-6.4-6.8-12.6-13.4-18.9-20c-0.4,0.4-0.7,0.7-1,1c-3.8,3.8-7.5,7.5-11.3,11.3c-0.4,0.4-1.1,0.7-1.6,0.7
		c-33.9,0-67.8,0-101.6,0c-0.2,0-0.5-0.1-0.9-0.1c1.6-1.8,3.2-3.4,4.5-5.2c2.9-3.9,6.6-6.7,11.2-8.1c0.6-0.2,1.1-0.5,1.8-0.8
		c-7.2-4.8-14.2-9.5-21.2-14.1c-0.7,1.7-1.3,3.3-2,4.8c-3.7,8.1-8.7,15.3-13.8,22.5c-0.6,0.8-1.2,1-2.1,1c-24.9,0-49.8,0-74.8,0
		c-0.5,0-0.9,0-1.7,0c3.6,3.6,6.9,7,10.3,10.3c0.2,0.2,0.7,0.2,1.1,0.1c8.9-2.3,18.1-3.3,27.3-3.3c11-0.1,22.1,0,33.1,0
		c0.3,0,0.6,0,1.1,0.1c-0.3,0.4-0.5,0.7-0.7,0.9c-5.5,6.5-10.9,13.2-16.6,19.5c-6.3,7-12.6,14-21.3,18.5c5.1,4.7,10.1,9.3,15.2,14.1
		c2.5-2.9,5-5.7,7.5-8.6c0.5-0.6,1.1-0.9,1.9-0.9c18,0,36.1,0,54.1,0c0.4,0,0.8,0,1.2,0.1c0,9.8,0,19.5,0,29.4
		C135.5,255.7,94,255.7,52.2,255.7z"/>
	<path d="M52.2,255.7c41.8,0,83.3,0,124.8,0c0-9.8,0-19.6,0-29.4c-0.4,0-0.8-0.1-1.2-0.1c-18,0-36.1,0-54.1,0
		c-0.8,0-1.4,0.3-1.9,0.9c-2.4,2.9-4.9,5.7-7.5,8.6c-5.1-4.7-10.2-9.4-15.2-14.1c8.7-4.4,15-11.5,21.3-18.5
		c5.7-6.3,11.1-13,16.6-19.5c0.2-0.2,0.4-0.5,0.7-0.9c-0.5,0-0.8-0.1-1.1-0.1c-11,0-22.1-0.1-33.1,0c-9.2,0.1-18.3,1-27.3,3.3
		c-0.3,0.1-0.9,0.1-1.1-0.1c-3.4-3.3-6.7-6.7-10.3-10.3c0.7,0,1.2,0,1.7,0c24.9,0,49.8,0,74.8,0c0.9,0,1.5-0.2,2.1-1
		c5.1-7.2,10.1-14.5,13.8-22.5c0.7-1.5,1.3-3.1,2-4.8c7,4.7,14,9.3,21.2,14.1c-0.7,0.3-1.2,0.6-1.8,0.8c-4.7,1.4-8.3,4.2-11.2,8.1
		c-1.3,1.8-2.9,3.4-4.5,5.2c0.4,0.1,0.6,0.1,0.9,0.1c33.9,0,67.8,0,101.6,0c0.5,0,1.2-0.3,1.6-0.7c3.8-3.7,7.5-7.5,11.3-11.3
		c0.3-0.3,0.6-0.6,1-1c6.2,6.6,12.4,13.2,18.9,20c-0.8,0-1.3,0-1.7,0c-45.6,0-91.2,0-136.8,0c-1.2,0-2,0.4-2.7,1.3
		c-9.9,11.4-19.8,22.8-29.7,34.1c-0.3,0.3-0.5,0.6-0.9,1c17.6,0,35.1,0,52.9,0c-0.4-10.1-0.8-20.2-1.2-30.5
		c8.2,3.5,16.4,7,24.9,10.6c-1,0.9-1.8,1.6-2.6,2.4c-1.8,1.7-3.5,3.5-5.3,5.3c-0.3,0.3-0.6,0.6-0.6,1c0,3.7,0,7.4,0,11.3
		c0.5,0,0.9,0,1.4,0c16.8,0,33.6,0,50.4,0c0.9,0,1.5-0.3,2.1-0.9c3.7-3.8,7.5-7.5,11.2-11.2c0.3-0.3,0.6-0.5,0.9-0.9
		c6.3,6.7,12.5,13.3,18.9,20c-28.4,0-56.5,0-84.7,0c0,9.9,0,19.6,0,29.4c0.4,0,0.8,0.1,1.2,0.1c28.6,0,57.2,0,85.8,0
		c0.9,0,1.5-0.3,2.1-0.9c4.8-4.8,9.5-9.6,14.4-14.5c7,7.4,14.1,14.8,21.3,22.5c-41.8,0-83.3,0-124.9,0c0,3.2,0,6.2,0,9.2
		c0.1,5.8,0.1,11.5,0.3,17.3c0.2,6.9,0.5,13.7,0.8,20.6c0,0.9-0.1,1.3-1,1.7c-5.1,2-10.2,4-15.2,6.1c-0.4,0.2-0.9,0.3-1.3,0.5
		c0.4-18.4,0.8-36.8,1.2-55.3c-0.7,0-1.2,0-1.7,0c-29.6,0-59.3,0-88.9,0c-4.3,0-8.6-0.3-12.8,0c-3.8,0.3-7.5,1.3-11.2,2.1
		c-0.7,0.2-1.2,0.1-1.8-0.4C58.1,261.6,55.3,258.8,52.2,255.7z"/>
</g>
</svg>
