<?xml version="1.0" encoding="utf-8"?>
<!-- Generator: Adobe Illustrator 20.1.0, SVG Export Plug-In . SVG Version: 6.00 Build 0)  -->
<svg version="1.1" id="图层_1" xmlns="http://www.w3.org/2000/svg" xmlns:xlink="http://www.w3.org/1999/xlink" x="0px" y="0px"
	 viewBox="0 0 360 360" style="enable-background:new 0 0 360 360;" xml:space="preserve">
<style type="text/css">
	.st0{fill:#FFFFFF;}
</style>
<g>
	<path class="st0" d="M0.2,360.5c0-120.1,0-240.2,0-360.2c120.1,0,240.2,0,360.2,0c0,120.1,0,240.2,0,360.2
		C240.4,360.5,120.3,360.5,0.2,360.5z M128.8,307.6c-0.2-6.2-0.5-12.3-0.6-18.4c-0.2-10.7-0.4-21.4-0.5-32.1c-0.1-7.5,0-15-0.1-22.4
		c0-1,0.3-1.4,1.2-1.7c15.3-5.9,30.6-11.9,45.9-17.9c0.4-0.2,0.8-0.4,1.3-0.6c-0.4-1.6-0.8-3.1-1.2-4.7
		c-15.7,4.3-31.4,8.6-47.1,12.9c0-15.3,0-30.5,0-45.9c16.4,0,32.8,0,49.5,0c-6.4-6.9-12.7-13.5-18.9-20.1
		c-4.1,4.1-8.1,8.1-12.1,12.1c-0.6,0.6-1.2,0.9-2.1,0.8c-5,0-10,0-15,0c-0.4,0-0.9,0-1.3,0c0-0.3-0.1-0.4-0.1-0.6c0-9,0-17.9,0-26.9
		c0-0.4,0.3-0.9,0.6-1.1c1.7-1.2,3.4-2.3,5.2-3.5c1.5-1,3.1-2.1,4.8-3.2c-9.1-4.8-18.1-9.4-27.2-14.2c0.8,16.6,1.2,33,1.2,49.4
		c-11.4,0-22.7,0-34,0c0.1-0.4,0.2-0.7,0.3-1c7.2-21.1,14.4-42.3,21.5-63.4c0.4-1.2,0.9-1.5,2.1-1.5c25.2,0,50.5,0,75.7,0
		c0.5,0,0.9,0,1.7,0c-6.4-6.8-12.7-13.5-18.9-20.1c-0.4,0.4-0.7,0.7-1,1c-3.7,3.7-7.5,7.5-11.2,11.2c-0.6,0.6-1.2,0.8-2,0.8
		c-14.4,0-28.9,0-43.3,0c-0.4,0-0.8,0-1.3,0c0.1-0.5,0.1-0.8,0.2-1.1c2.9-10,5.9-19.9,8.9-29.8c0.1-0.5,0.6-1,1.1-1.3
		c3.7-2.1,7.5-4.1,11.2-6.2c0.3-0.1,0.5-0.3,0.8-0.6c-8.7-5.1-17.2-10.2-25.9-15.3c-0.4,2-0.7,4-1.2,5.9c-3.8,15.7-7.7,31.3-11.5,47
		c-0.2,1-0.6,1.4-1.7,1.4c-12.4,0-24.7,0-37.1,0c-0.4,0-0.9,0-1.7,0c3.6,3.6,7,6.9,10.3,10.2c0.2,0.2,0.9,0.3,1.3,0.2
		c6.5-1.7,13-3,19.7-3.2c2.1-0.1,4.2,0,6.5,0c-1,3.9-1.9,7.7-3,11.4c-3.3,12-7,23.8-12.2,35.1c-2.6,5.7-5.7,11-10.5,15.2
		c-1.8,1.6-4,2.9-6,4.4c5.4,5,10.8,10,16.3,15.2c2.5-2.5,5-5,7.4-7.5c0.6-0.6,1.2-0.8,2-0.8c11.4,0,22.7,0,34.1,0
		c0.4,0,0.8,0,1.2,0.1c0,16.5,0,32.9,0,49.4c-21.5,5.5-42.7,11.6-64.7,15.4c4.3,7.4,8.6,14.8,12.9,22.3c3-3.4,6.8-5.4,10.5-7.4
		c13.2-7,27-12.6,40.8-18.2c0.2-0.1,0.4,0,0.8-0.1c-0.4,25.9-0.8,51.7-1.2,77.5C117.1,313.1,123,310.4,128.8,307.6z"/>
	<path d="M128.8,307.6c-5.9,2.7-11.7,5.5-17.5,8.2c0.4-25.9,0.8-51.6,1.2-77.5c-0.4,0.1-0.6,0-0.8,0.1
		c-13.8,5.6-27.6,11.2-40.8,18.2c-3.7,2-7.5,4.1-10.5,7.4c-4.3-7.4-8.6-14.8-12.9-22.3c22-3.8,43.2-9.9,64.7-15.4
		c0-16.5,0-32.9,0-49.4c-0.4,0-0.8-0.1-1.2-0.1c-11.4,0-22.7,0-34.1,0c-0.8,0-1.4,0.2-2,0.8c-2.4,2.5-4.9,4.9-7.4,7.5
		c-5.5-5.1-11-10.2-16.3-15.2c2-1.5,4.1-2.8,6-4.4c4.7-4.2,7.9-9.5,10.5-15.2c5.2-11.3,9-23.1,12.2-35.1c1-3.7,1.9-7.5,3-11.4
		c-2.3,0-4.4-0.1-6.5,0c-6.7,0.2-13.2,1.6-19.7,3.2c-0.4,0.1-1,0.1-1.3-0.2c-3.4-3.3-6.7-6.6-10.3-10.2c0.8,0,1.2,0,1.7,0
		c12.4,0,24.7,0,37.1,0c1.1,0,1.5-0.3,1.7-1.4c3.8-15.7,7.7-31.3,11.5-47c0.5-1.9,0.8-3.8,1.2-5.9c8.6,5.1,17.2,10.2,25.9,15.3
		c-0.3,0.2-0.6,0.4-0.8,0.6c-3.7,2.1-7.5,4.1-11.2,6.2c-0.5,0.3-0.9,0.8-1.1,1.3c-3,9.9-5.9,19.9-8.9,29.8c-0.1,0.3-0.1,0.6-0.2,1.1
		c0.5,0,0.9,0,1.3,0c14.4,0,28.9,0,43.3,0c0.8,0,1.4-0.2,2-0.8c3.7-3.8,7.5-7.5,11.2-11.2c0.3-0.3,0.6-0.6,1-1
		c6.3,6.7,12.5,13.3,18.9,20.1c-0.8,0-1.2,0-1.7,0c-25.2,0-50.5,0-75.7,0c-1.2,0-1.7,0.3-2.1,1.5c-7.1,21.1-14.3,42.3-21.5,63.4
		c-0.1,0.3-0.2,0.6-0.3,1c11.3,0,22.6,0,34,0c0-16.4-0.3-32.8-1.2-49.4c9.1,4.7,18.1,9.4,27.2,14.2c-1.7,1.2-3.3,2.2-4.8,3.2
		c-1.7,1.2-3.5,2.3-5.2,3.5c-0.3,0.2-0.6,0.7-0.6,1.1c0,9,0,17.9,0,26.9c0,0.2,0,0.3,0.1,0.6c0.5,0,0.9,0,1.3,0c5,0,10,0,15,0
		c0.9,0,1.5-0.2,2.1-0.8c4-4,8-8,12.1-12.1c6.3,6.7,12.5,13.3,18.9,20.1c-16.7,0-33,0-49.5,0c0,15.3,0,30.5,0,45.9
		c15.7-4.3,31.3-8.6,47.1-12.9c0.4,1.6,0.8,3.1,1.2,4.7c-0.4,0.2-0.9,0.4-1.3,0.6c-15.3,6-30.6,11.9-45.9,17.9
		c-0.9,0.3-1.2,0.7-1.2,1.7c0.1,7.5,0,15,0.1,22.4c0.1,10.7,0.3,21.4,0.5,32.1C128.3,295.3,128.6,301.4,128.8,307.6z"/>
</g>
</svg>
