<?xml version="1.0" encoding="utf-8"?>
<!-- Generator: Adobe Illustrator 20.1.0, SVG Export Plug-In . SVG Version: 6.00 Build 0)  -->
<svg version="1.1" id="图层_1" xmlns="http://www.w3.org/2000/svg" xmlns:xlink="http://www.w3.org/1999/xlink" x="0px" y="0px"
	 viewBox="0 0 360 360" style="enable-background:new 0 0 360 360;" xml:space="preserve">
<style type="text/css">
	.st0{fill:#FFFFFF;}
</style>
<g>
	<path class="st0" d="M0.2,360.5c0-120.1,0-240.2,0-360.2c120.1,0,240.2,0,360.2,0c0,120.1,0,240.2,0,360.2
		C240.4,360.5,120.3,360.5,0.2,360.5z M93.6,134.4c0.1-0.4,0.2-0.6,0.2-0.8c1.4-4.9,2.8-9.7,4.1-14.6c3.4-13.2,6-26.5,8.3-39.9
		c0.2-1.2,0.8-1.1,1.6-1.1c21,0,41.9,0,62.9,0c0.5,0,1,0,1.4,0c-6.7-6.7-13.3-13.3-20.1-20.1c-0.2,0.2-0.4,0.6-0.6,0.9
		c-3.6,3.7-7.3,7.3-10.9,11c-0.8,0.8-1.6,1.1-2.7,1.1c-28.8,0-57.5,0-86.3,0c-0.5,0-0.9,0-1.4,0c0,0.2,0,0.3,0.1,0.4
		c2.9,2.9,5.7,5.8,8.7,8.6c0.3,0.3,0.9,0.4,1.3,0.3c1.5-0.2,2.9-0.5,4.4-0.8c2.9-0.5,5.7-1.2,8.6-1.3c5.1-0.2,10.2-0.1,15.4-0.1
		c0.4,0,0.8,0,1.3,0.1c0,0.4,0,0.7,0,1c-0.7,5.1-1.2,10.2-2,15.2c-2.5,16.1-6.3,31.9-10.7,47.5c-7.1,25-17.1,48.7-31.5,70.5
		c-0.5,0.8-1,1.6-1.6,2.4c1.3,0.8,2.4,1.6,3.8,2.5c4.6-5.5,9.2-10.9,13.6-16.4c7.5-9.5,14.1-19.5,19.1-30.6c0.1,0.1,0.2,0.1,0.3,0.1
		c0.2,0.3,0.5,0.6,0.7,0.8c7.3,9.8,12.7,20.6,15.8,32.4c0.7,2.7,1.6,5.4,3.2,7.7c1.6,2.2,3.6,2.5,5.7,0.6c0.6-0.5,1.2-1.1,1.6-1.8
		c1.1-1.8,2.3-3.6,3.2-5.5c3.7-7.7,2.7-14.1-3-20.4c-5.3-5.8-11.7-10.5-18.2-14.8c-2.2-1.5-4.5-2.9-6.8-4.3c0.1-0.3,0.2-0.6,0.3-0.9
		c2.9-7.2,5.7-14.3,8.6-21.5c0.3-0.9,0.7-1.2,1.7-1.2c15.2,0,30.4,0,45.6,0c0.4,0,0.8,0,1.3,0.1c-0.1,0.6-0.1,1-0.1,1.3
		c-2.2,11.4-4.2,22.9-6.7,34.3c-4.7,21.3-11.8,41.8-21.8,61.2c-11.4,22.1-26.4,41.5-45.1,57.9c-6,5.3-12.3,10.2-18.4,15.3
		c-0.3,0.2-0.7,0.6-0.6,0.9c0.3,1.1,0.7,2.2,1.1,3.3c2.7-1.7,5.4-3.2,7.9-4.8c20.3-12.8,38.5-27.9,53.3-46.9
		c12.1-15.6,22.1-32.4,28.6-51.1c7.4-21.2,13.1-42.9,17.9-64.9c0.5-2.3,1.3-3.8,3.4-4.9c2.3-1.2,4.5-2.7,6.8-4.2
		c-6-5.6-11.8-11-17.7-16.6c-2.9,3.7-5.8,7.2-8.6,10.8c-0.6,0.7-1.1,1-2.1,1c-14.4,0-28.8,0-43.2,0
		C94.5,134.4,94.1,134.4,93.6,134.4z"/>
	<path d="M93.6,134.4c0.6,0,1,0,1.4,0c14.4,0,28.8,0,43.2,0c0.9,0,1.5-0.3,2.1-1c2.8-3.6,5.7-7.1,8.6-10.8
		c5.9,5.5,11.8,11,17.7,16.6c-2.3,1.4-4.5,3-6.8,4.2c-2.1,1.1-2.9,2.6-3.4,4.9c-4.8,21.9-10.5,43.6-17.9,64.9
		c-6.5,18.7-16.5,35.5-28.6,51.1c-14.8,19-32.9,34.2-53.3,46.9c-2.6,1.6-5.2,3.2-7.9,4.8c-0.4-1.2-0.8-2.2-1.1-3.3
		c-0.1-0.2,0.3-0.6,0.6-0.9c6.2-5.1,12.4-10.1,18.4-15.3c18.7-16.4,33.7-35.8,45.1-57.9c10.1-19.4,17.1-39.9,21.8-61.2
		c2.5-11.4,4.5-22.9,6.7-34.3c0.1-0.4,0.1-0.8,0.1-1.3c-0.5,0-0.9-0.1-1.3-0.1c-15.2,0-30.4,0-45.6,0c-1,0-1.4,0.3-1.7,1.2
		c-2.8,7.2-5.7,14.3-8.6,21.5c-0.1,0.3-0.2,0.5-0.3,0.9c2.3,1.4,4.5,2.8,6.8,4.3c6.5,4.3,12.9,9,18.2,14.8c5.7,6.3,6.7,12.7,3,20.4
		c-0.9,1.9-2.1,3.7-3.2,5.5c-0.4,0.7-1,1.2-1.6,1.8c-2.1,1.8-4.1,1.6-5.7-0.6c-1.7-2.3-2.5-5-3.2-7.7c-3.1-11.9-8.5-22.6-15.8-32.4
		c-0.2-0.3-0.4-0.6-0.7-0.8c0-0.1-0.1-0.1-0.3-0.1c-5,11.1-11.7,21.1-19.1,30.6c-4.4,5.5-9,10.9-13.6,16.4c-1.4-0.9-2.5-1.7-3.8-2.5
		c0.6-0.8,1.1-1.6,1.6-2.4c14.4-21.8,24.4-45.4,31.5-70.5c4.4-15.7,8.2-31.5,10.7-47.5c0.8-5,1.4-10.1,2-15.2c0-0.3,0-0.5,0-1
		c-0.4,0-0.9-0.1-1.3-0.1c-5.1,0-10.2-0.2-15.4,0.1c-2.9,0.1-5.8,0.9-8.6,1.3c-1.5,0.2-2.9,0.6-4.4,0.8c-0.4,0.1-1,0-1.3-0.3
		c-2.9-2.9-5.8-5.8-8.7-8.6c0,0,0-0.1-0.1-0.4c0.5,0,1,0,1.4,0c28.8,0,57.5,0,86.3,0c1.1,0,1.9-0.4,2.7-1.1c3.6-3.7,7.3-7.3,10.9-11
		c0.3-0.3,0.5-0.6,0.6-0.9c6.8,6.8,13.4,13.4,20.1,20.1c-0.4,0-0.9,0-1.4,0c-21,0-41.9,0-62.9,0c-0.8,0-1.4,0-1.6,1.1
		c-2.3,13.4-4.9,26.7-8.3,39.9c-1.3,4.9-2.7,9.8-4.1,14.6C93.8,133.7,93.7,134,93.6,134.4z"/>
</g>
</svg>
