<?xml version="1.0" encoding="utf-8"?>
<!-- Generator: Adobe Illustrator 20.1.0, SVG Export Plug-In . SVG Version: 6.00 Build 0)  -->
<svg version="1.1" id="图层_1" xmlns="http://www.w3.org/2000/svg" xmlns:xlink="http://www.w3.org/1999/xlink" x="0px" y="0px"
	 viewBox="0 0 360 360" style="enable-background:new 0 0 360 360;" xml:space="preserve">
<style type="text/css">
	.st0{fill:#FFFFFF;}
</style>
<g>
	<path class="st0" d="M0.2,360.5c0-120.1,0-240.2,0-360.2c120.1,0,240.2,0,360.2,0c0,120.1,0,240.2,0,360.2
		C240.4,360.5,120.3,360.5,0.2,360.5z M318.3,74.4c-8.7-8.7-17.2-17.2-25.9-25.9c-0.2,0.2-0.6,0.5-0.9,0.8
		c-5.6,5.6-11.3,11.2-16.9,16.9c-0.7,0.7-1.4,1-2.4,1c-59,0-117.9,0-176.9,0c-15.5,0-31,0-46.6,0c-0.4,0-0.8,0-1.5,0
		c3.6,3.6,6.9,6.9,10.2,10.2c0.3,0.3,1,0.4,1.5,0.2c7.3-1.8,14.7-3,22.1-3.1c11.2-0.2,22.4-0.1,33.6-0.1c0.3,0,0.5,0,0.9,0.1
		c-0.1,0.4-0.1,0.8-0.2,1.2c-1.9,8.8-3.6,17.6-5.7,26.3c-5.6,23.3-13.4,45.9-24.4,67.3C76,187.5,65,204.6,52,220.5
		c-2.2,2.7-4.5,5.4-6.7,8c1.2,1.2,2.3,2.4,3.5,3.7c9.4-8.3,18.3-17.1,26.6-26.4c8.3-9.4,15.9-19.3,22.8-29.9
		c0.2,0.2,0.3,0.3,0.4,0.4c0.5,0.8,1,1.5,1.5,2.3c6.2,9.8,11.2,20.1,13.9,31.5c0.5,2.2,1.5,4.3,2.7,6.2c1.2,1.9,3,2.1,4.9,0.9
		c0.6-0.4,1.3-0.9,1.7-1.5c1.7-2.4,3.5-4.7,4.9-7.2c2-3.6,2.5-7.5,1.3-11.5c-1-3.2-3.1-5.6-5.3-7.9c-6.1-6.2-13.1-11.1-20.2-16
		c-1.1-0.7-2.2-1.5-3.3-2.2c0.2-0.4,0.3-0.6,0.4-0.8c5-8.4,9.2-17.2,13.1-26.2c0.4-0.9,0.8-1.2,1.8-1.2c14.8,0,29.6,0,44.4,0
		c0.4,0,0.9,0,1.4,0c-0.1,0.5-0.2,0.9-0.2,1.2c-3.3,13.2-6.9,26.3-11.2,39.3c-4.4,13-9.3,25.8-15.6,37.9
		c-10.2,19.6-23.5,36.9-39.4,52.2c-15,14.4-31.2,27.3-49,38.2c-0.4,0.2-0.7,0.5-1.2,0.8c1,1,2,1.8,2.9,2.8c0.6,0.6,1,0.7,1.7,0.3
		c6.6-3.6,13.3-7,19.7-10.9c22.9-13.5,43.6-29.7,61-49.9c11-12.8,20.2-26.7,26.9-42.2c8.9-20.8,16.1-42.2,22-64
		c0.2-0.6,0.7-1.3,1.2-1.6c2.9-2,5.8-3.9,8.7-5.8c0.3-0.2,0.6-0.4,1-0.7c-7.1-5.5-14.1-11-21.2-16.5c-2.6,3.7-5.1,7.2-7.5,10.8
		c-0.5,0.7-1,1.1-1.9,1.1c-13.7,0-27.4,0-41,0c-0.4,0-0.8,0-1.2-0.1c0.1-0.3,0.2-0.6,0.3-0.8c7.4-19.1,12.8-38.8,17-58.9
		c0.3-1.2,0.7-1.5,1.9-1.5c60.2,0,120.3,0,180.5,0C317.3,74.4,317.7,74.4,318.3,74.4z"/>
	<path d="M318.3,74.4c-0.6,0-1,0-1.5,0c-60.2,0-120.3,0-180.5,0c-1.2,0-1.7,0.3-1.9,1.5c-4.2,20-9.6,39.7-17,58.9
		c-0.1,0.2-0.1,0.4-0.3,0.8c0.5,0,0.8,0.1,1.2,0.1c13.7,0,27.4,0,41,0c0.9,0,1.4-0.3,1.9-1.1c2.5-3.6,5-7.1,7.5-10.8
		c7.1,5.5,14.1,11,21.2,16.5c-0.4,0.3-0.7,0.5-1,0.7c-2.9,1.9-5.8,3.8-8.7,5.8c-0.5,0.4-1,1-1.2,1.6c-6,21.8-13.1,43.2-22,64
		c-6.7,15.5-15.8,29.5-26.9,42.2c-17.4,20.2-38.1,36.4-61,49.9c-6.5,3.8-13.2,7.2-19.7,10.9c-0.7,0.4-1.2,0.3-1.7-0.3
		c-0.9-0.9-1.8-1.8-2.9-2.8c0.5-0.3,0.8-0.6,1.2-0.8c17.7-10.9,34-23.8,49-38.2c15.9-15.3,29.2-32.6,39.4-52.2
		c6.3-12.2,11.3-24.9,15.6-37.9c4.3-12.9,7.9-26,11.2-39.3c0.1-0.3,0.1-0.7,0.2-1.2c-0.5,0-0.9,0-1.4,0c-14.8,0-29.6,0-44.4,0
		c-0.9,0-1.4,0.3-1.8,1.2c-3.9,9-8.1,17.8-13.1,26.2c-0.1,0.2-0.3,0.5-0.4,0.8c1.1,0.8,2.2,1.5,3.3,2.2c7.1,4.9,14.1,9.9,20.2,16
		c2.3,2.3,4.3,4.7,5.3,7.9c1.2,4,0.6,7.9-1.3,11.5c-1.4,2.5-3.2,4.8-4.9,7.2c-0.4,0.6-1.1,1.1-1.7,1.5c-1.9,1.2-3.7,1-4.9-0.9
		c-1.1-1.9-2.2-4-2.7-6.2c-2.6-11.4-7.7-21.7-13.9-31.5c-0.5-0.8-1-1.5-1.5-2.3c-0.1-0.1-0.2-0.2-0.4-0.4
		c-6.8,10.6-14.4,20.5-22.8,29.9c-8.3,9.4-17.2,18.2-26.6,26.4c-1.2-1.2-2.3-2.4-3.5-3.7c2.2-2.6,4.5-5.3,6.7-8
		c13-15.9,24-33,33.4-51.2c11-21.4,18.8-43.9,24.4-67.3c2.1-8.7,3.8-17.6,5.7-26.3c0.1-0.4,0.1-0.8,0.2-1.2c-0.3,0-0.6-0.1-0.9-0.1
		c-11.2,0-22.4-0.1-33.6,0.1c-7.5,0.1-14.9,1.3-22.1,3.1c-0.5,0.1-1.2,0.1-1.5-0.2c-3.4-3.3-6.6-6.6-10.2-10.2c0.7,0,1.1,0,1.5,0
		c15.5,0,31,0,46.6,0c59,0,117.9,0,176.9,0c1,0,1.7-0.3,2.4-1c5.6-5.7,11.2-11.3,16.9-16.9c0.3-0.3,0.6-0.6,0.9-0.8
		C301.1,57.1,309.6,65.7,318.3,74.4z"/>
</g>
</svg>
