<?xml version="1.0" encoding="utf-8"?>
<!-- Generator: Adobe Illustrator 20.1.0, SVG Export Plug-In . SVG Version: 6.00 Build 0)  -->
<svg version="1.1" id="图层_1" xmlns="http://www.w3.org/2000/svg" xmlns:xlink="http://www.w3.org/1999/xlink" x="0px" y="0px"
	 viewBox="0 0 360 360" style="enable-background:new 0 0 360 360;" xml:space="preserve">
<style type="text/css">
	.st0{fill:#FFFFFF;}
</style>
<g>
	<path class="st0" d="M0.2,360.5c0-120.1,0-240.2,0-360.2c120.1,0,240.2,0,360.2,0c0,120.1,0,240.2,0,360.2
		C240.4,360.5,120.3,360.5,0.2,360.5z M257.4,227.5c-0.4,29.5-0.8,58.9-1.2,88.3c0.1,0,0.2-0.1,0.3-0.1c5.9-2.6,11.8-5.2,17.7-7.7
		c0.7-0.3,0.7-0.7,0.7-1.3c-0.2-5.4-0.4-10.7-0.5-16.1c-0.2-9.8-0.4-19.5-0.5-29.3c-0.1-12.2-0.1-24.3-0.1-36.5c0-0.3,0-0.5,0.1-0.9
		c16.4-3.1,32.8-6.3,49.4-9.4c-7.6-6.4-15-12.6-22.5-18.9c-0.2,0.4-0.5,0.7-0.7,1.1c-3.1,5.2-6.2,10.3-9.3,15.5
		c-0.5,0.8-1,1.2-1.9,1.4c-3.3,0.7-6.6,1.4-10,2.1c-1.7,0.4-3.4,0.7-5.2,1.1c0-0.7,0-1.1,0-1.6c0-8.4,0-16.8,0-25.2
		c0-42.4,0-84.9,0-127.3c0-0.9,0.2-1.5,1-2.1c2.8-2.1,5.6-4.3,8.4-6.5c0.4-0.3,0.7-0.6,1.2-1c-9.5-4-18.9-7.9-28.1-11.7
		c0.4,59.7,0.8,119.3,1.1,178.9c-36.7,6.3-73.1,12.6-109.6,18.9c0.2,0.2,0.2,0.3,0.3,0.4c4.4,2.9,8.8,5.9,13.2,8.8
		c0.3,0.2,0.9,0.1,1.2-0.1c2.7-1.6,5.3-3.3,8-4.9c0.4-0.3,0.9-0.5,1.4-0.6c12.3-2.2,24.5-4.4,36.8-6.5c11.5-2,23-4.1,34.4-6.1
		C247.8,229.2,252.4,228.4,257.4,227.5z M191.3,82.4c3,3.8,6.1,7.4,8.9,11.1c6.3,8.3,11.7,17.1,15.1,26.9c0.5,1.4,1.2,2.8,2,4.1
		c2.6,4.4,5.7,4.5,8.8,0.5c2.5-3.3,4.3-7,5.3-11.1c1.5-6.2,0.1-11.6-4.6-16c-1.3-1.2-2.6-2.4-4-3.4c-6.6-4.9-13.8-8.6-21.2-12.1
		c-2.6-1.2-5.3-2.4-8-3.6C192.8,80.2,192,81.3,191.3,82.4z M188.9,156.8c0.5,0.6,0.9,1.1,1.3,1.6c9.3,11.4,17.9,23.1,23.7,36.7
		c0.7,1.7,1.8,3.2,3,4.6c1.7,2,3.9,2,5.7,0c0.7-0.7,1.3-1.5,1.7-2.3c1.2-2.6,2.6-5.2,3.4-7.9c2.3-7.9,0.3-14-6.1-18.9
		c-9.1-7-19.3-12.1-29.6-17.1c-0.2-0.1-0.8,0.1-1,0.3C190.2,154.8,189.6,155.7,188.9,156.8z"/>
	<path d="M257.4,227.5c-5,0.9-9.6,1.7-14.3,2.5c-11.5,2-23,4.1-34.4,6.1c-12.3,2.2-24.5,4.4-36.8,6.5c-0.5,0.1-1,0.4-1.4,0.6
		c-2.7,1.6-5.3,3.3-8,4.9c-0.3,0.2-1,0.3-1.2,0.1c-4.4-2.9-8.8-5.8-13.2-8.8c-0.1-0.1-0.1-0.2-0.3-0.4
		c36.5-6.3,72.9-12.5,109.6-18.9c-0.4-59.6-0.8-119.2-1.1-178.9c9.2,3.8,18.6,7.7,28.1,11.7c-0.5,0.4-0.8,0.7-1.2,1
		c-2.8,2.2-5.6,4.4-8.4,6.5c-0.8,0.6-1,1.2-1,2.1c0,42.4,0,84.9,0,127.3c0,8.4,0,16.8,0,25.2c0,0.5,0,0.9,0,1.6
		c1.8-0.4,3.5-0.7,5.2-1.1c3.3-0.7,6.6-1.4,10-2.1c0.9-0.2,1.4-0.6,1.9-1.4c3.1-5.2,6.2-10.4,9.3-15.5c0.2-0.3,0.4-0.7,0.7-1.1
		c7.4,6.3,14.8,12.5,22.5,18.9c-16.6,3.2-33,6.3-49.4,9.4c0,0.4-0.1,0.6-0.1,0.9c0,12.2,0,24.3,0.1,36.5c0.1,9.8,0.3,19.5,0.5,29.3
		c0.1,5.4,0.4,10.7,0.5,16.1c0,0.6,0,1-0.7,1.3c-5.9,2.5-11.8,5.1-17.7,7.7c-0.1,0-0.2,0.1-0.3,0.1C256.6,286.4,257,257,257.4,227.5
		z"/>
	<path d="M191.3,82.4c0.8-1.1,1.5-2.2,2.3-3.5c2.7,1.2,5.3,2.4,8,3.6c7.4,3.5,14.6,7.2,21.2,12.1c1.4,1.1,2.7,2.2,4,3.4
		c4.7,4.4,6.1,9.8,4.6,16c-1,4-2.8,7.7-5.3,11.1c-3.1,4.1-6.1,3.9-8.8-0.5c-0.8-1.3-1.5-2.7-2-4.1c-3.5-9.9-8.8-18.7-15.1-26.9
		C197.3,89.8,194.3,86.2,191.3,82.4z"/>
	<path d="M188.9,156.8c0.7-1,1.3-2,2-2.9c0.2-0.2,0.8-0.4,1-0.3c10.3,4.9,20.5,10.1,29.6,17.1c6.4,4.9,8.4,11,6.1,18.9
		c-0.8,2.7-2.2,5.3-3.4,7.9c-0.4,0.9-1,1.6-1.7,2.3c-1.8,1.9-4,2-5.7,0c-1.2-1.4-2.3-2.9-3-4.6c-5.8-13.6-14.5-25.4-23.7-36.7
		C189.8,157.9,189.4,157.4,188.9,156.8z"/>
</g>
</svg>
