<?xml version="1.0" encoding="utf-8"?>
<!-- Generator: Adobe Illustrator 20.1.0, SVG Export Plug-In . SVG Version: 6.00 Build 0)  -->
<svg version="1.1" id="图层_1" xmlns="http://www.w3.org/2000/svg" xmlns:xlink="http://www.w3.org/1999/xlink" x="0px" y="0px"
	 viewBox="0 0 360 360" style="enable-background:new 0 0 360 360;" xml:space="preserve">
<style type="text/css">
	.st0{fill:#FFFFFF;}
</style>
<g>
	<path class="st0" d="M0.2,360.5c0-120.1,0-240.2,0-360.2c120.1,0,240.2,0,360.2,0c0,120.1,0,240.2,0,360.2
		C240.4,360.5,120.3,360.5,0.2,360.5z M146.5,207.6c24.4,0,48.7,0,73,0c0,0.7,0,1.3,0,1.9c-0.3,9-0.4,18-0.9,27
		c-0.2,3.6-0.8,7.2-1.7,10.6c-1.4,5.1-5.1,7.5-10,6.7c-6.3-0.9-12.5-2-18.8-3c-2.1-0.3-4.1-0.7-6.3-1.1c-0.4,1.7-0.8,3.2-1.2,4.7
		c0.4,0.2,0.7,0.3,0.9,0.4c5.1,1.9,10,4,14.6,7c2.3,1.5,4.5,3.3,6.6,5.2c2.8,2.6,4.6,5.9,5.1,9.9c6.3-2.1,11.9-5,16.6-9.5
		c3.8-3.5,6.7-7.7,7.8-12.8c1-4.4,1.9-8.8,2.4-13.2c1.1-9.1,1.4-18.3,1.3-27.5c0-1.4,0.4-2.2,1.5-2.9c3.1-1.9,6.1-4,9.2-6.1
		c-6.4-5.2-12.6-10.2-18.9-15.4c-2.9,3.3-5.8,6.5-8.6,9.7c-0.6,0.7-1.2,1-2.1,1c-23.1,0-46.2,0-69.4,0c-0.7,0-1.5-0.2-2.1-0.6
		c-4.8-2.7-9.6-5.4-14.4-8.2c-0.4-0.2-0.7-0.4-1.1-0.6c0,1.2,0,2.2,0,3.2c0.3,14.9,0.8,29.7,1,44.6c0.2,14.1,0,28.2,0.1,42.4
		c0,3.5,0.5,7,1.3,10.4c1.8,7.5,6.3,12.7,13.9,14.8c3.2,0.9,6.5,1.3,9.8,1.3c33.3,0.1,66.6,0.1,100,0c2.5,0,5-0.1,7.4-0.5
		c7.8-1.1,14.6-4.2,19.7-10.3c1.7-2.1,3.2-4.5,4.8-6.8c-0.4-0.3-0.5-0.4-0.7-0.4c-6.6-2.7-10.7-7.6-12.7-14.2
		c-2.3-7.3-3-14.9-3.7-22.4c-0.3-3.8-0.5-7.6-0.8-11.4c-2,0-3.9,0-5.8,0c0,0.3,0,0.5,0,0.7c0,11.1-0.4,22.1-1.5,33.2
		c-0.4,3.9-0.9,7.9-2.6,11.5c-2.3,4.9-6.1,7.6-11.7,7.6c-28.2,0-56.5,0-84.7,0c-1.7,0-3.4-0.1-5.1-0.4c-5.3-0.8-9.3-3.5-10.9-8.8
		c-0.7-2.4-1.1-5.1-1.1-7.7c-0.1-22.8,0-45.7,0-68.5C146.5,208.8,146.5,208.2,146.5,207.6z"/>
	<path d="M146.5,207.6c0,0.6,0,1.1,0,1.7c0,22.8,0,45.7,0,68.5c0,2.6,0.4,5.2,1.1,7.7c1.6,5.3,5.6,7.9,10.9,8.8
		c1.7,0.3,3.4,0.4,5.1,0.4c28.2,0,56.5,0,84.7,0c5.6,0,9.4-2.6,11.7-7.6c1.7-3.6,2.2-7.6,2.6-11.5c1.1-11,1.5-22.1,1.5-33.2
		c0-0.2,0-0.4,0-0.7c1.9,0,3.9,0,5.8,0c0.3,3.8,0.5,7.6,0.8,11.4c0.7,7.6,1.4,15.1,3.7,22.4c2.1,6.7,6.2,11.6,12.7,14.2
		c0.1,0.1,0.3,0.2,0.7,0.4c-1.6,2.3-3,4.7-4.8,6.8c-5.1,6.1-11.9,9.2-19.7,10.3c-2.4,0.3-4.9,0.5-7.4,0.5c-33.3,0-66.6,0.1-100,0
		c-3.3,0-6.7-0.4-9.8-1.3c-7.5-2-12.1-7.3-13.9-14.8c-0.8-3.4-1.3-6.9-1.3-10.4c-0.1-14.1,0.1-28.2-0.1-42.4
		c-0.2-14.9-0.7-29.7-1-44.6c0-1,0-2,0-3.2c0.4,0.2,0.8,0.4,1.1,0.6c4.8,2.7,9.6,5.5,14.4,8.2c0.6,0.3,1.4,0.6,2.1,0.6
		c23.1,0,46.2,0,69.4,0c0.9,0,1.5-0.3,2.1-1c2.8-3.2,5.7-6.4,8.6-9.7c6.3,5.1,12.6,10.2,18.9,15.4c-3.1,2.1-6.1,4.1-9.2,6.1
		c-1.2,0.7-1.5,1.5-1.5,2.9c0.1,9.2-0.2,18.4-1.3,27.5c-0.6,4.4-1.4,8.8-2.4,13.2c-1.1,5.1-4,9.2-7.8,12.8
		c-4.8,4.4-10.4,7.4-16.6,9.5c-0.5-4-2.3-7.2-5.1-9.9c-2-1.9-4.2-3.7-6.6-5.2c-4.5-3-9.5-5.1-14.6-7c-0.3-0.1-0.5-0.2-0.9-0.4
		c0.4-1.5,0.7-3.1,1.2-4.7c2.1,0.4,4.2,0.7,6.3,1.1c6.3,1,12.5,2,18.8,3c4.8,0.7,8.6-1.6,10-6.7c1-3.4,1.5-7.1,1.7-10.6
		c0.5-9,0.6-18,0.9-27c0-0.6,0-1.2,0-1.9C195.2,207.6,171,207.6,146.5,207.6z"/>
</g>
</svg>
