<?xml version="1.0" encoding="utf-8"?>
<!-- Generator: Adobe Illustrator 20.1.0, SVG Export Plug-In . SVG Version: 6.00 Build 0)  -->
<svg version="1.1" id="图层_1" xmlns="http://www.w3.org/2000/svg" xmlns:xlink="http://www.w3.org/1999/xlink" x="0px" y="0px"
	 viewBox="0 0 360 360" style="enable-background:new 0 0 360 360;" xml:space="preserve">
<style type="text/css">
	.st0{fill:#FFFFFF;}
</style>
<g>
	<path class="st0" d="M0.2,360.5c0-120.1,0-240.2,0-360.2c120.1,0,240.2,0,360.2,0c0,120.1,0,240.2,0,360.2
		C240.4,360.5,120.3,360.5,0.2,360.5z M218.4,314.9c3.8-1.2,7.5-2.2,11-3.4c9.1-3.2,15.8-9.2,20.2-17.7c2.4-4.6,4.2-9.3,5.5-14.3
		c3.6-13.7,5.7-27.6,7.9-41.5c0.1-0.5,0.5-1.2,0.9-1.5c2.9-2,5.8-3.9,8.8-5.9c0.3-0.2,0.6-0.5,1-0.7c-6.3-5.5-12.6-11-19-16.6
		c-0.2,0.3-0.4,0.6-0.6,0.8c-3,3.4-6.1,6.7-9,10.1c-0.6,0.7-1.2,1-2.1,1c-26.1,0-52.2,0-78.4,0c-0.5,0-0.9,0-1.6,0
		c2-9.9,3.9-19.6,5.9-29.5c49.4,0,98.8,0,147.9,0c-7.8-7.8-15.5-15.5-23.4-23.4c-0.2,0.2-0.4,0.6-0.7,0.9
		c-4.9,4.9-9.8,9.9-14.8,14.7c-0.4,0.4-1.1,0.7-1.6,0.7c-28,0-55.9,0-83.9,0c-0.2,0-0.5-0.1-1-0.1c0.5-0.4,0.8-0.7,1.1-0.9
		c2.3-2.3,4.5-4.7,6-7.6c2.6-5,1.9-9.1-2.3-12.9c-5.6-5.1-12.1-9-18.7-12.7c-3.6-2-7.2-3.9-10.9-5.9c-0.9,1.3-1.6,2.4-2.4,3.6
		c1.8,2.3,3.7,4.6,5.4,6.9c5.2,7,9.3,14.5,11.2,23.1c0.5,2.1,0.7,4.3,1.1,6.6c-42.2,0-84,0-126.1,0c0.2,0.3,0.3,0.4,0.4,0.5
		c3.2,3.2,6.4,6.4,9.6,9.6c0.3,0.3,0.9,0.4,1.3,0.3c9-2.3,18.2-3.3,27.4-3.3c18,0,36,0,54,0c0.4,0,0.9,0,1.4,0
		c-0.5,3.5-1,6.8-1.5,10.1c-2.1,12.6-5.2,24.9-9.8,36.8c-8,20.5-20.9,37-39.7,48.8c-13,8.2-26.9,14.4-41.3,19.4
		c-2.6,0.9-5.2,1.8-7.9,2.7c0.8,1.6,1.6,3.1,2.3,4.7c0.5-0.1,0.8-0.1,1.2-0.2c4-1.1,7.9-2.1,11.9-3.3c17.4-5.2,34.2-11.9,49.9-21.3
		c11.1-6.6,20.9-14.7,28.5-25.2c7.7-10.5,12.9-22.2,16.5-34.6c0.3-0.9,0.6-1.3,1.7-1.3c27.7,0,55.4,0,83.2,0c0.4,0,0.9,0,1.4,0
		c0,0.5,0,0.8-0.1,1.1c-2.3,11-4.4,22-7,32.9c-1.1,5-2.8,9.9-4.5,14.7c-1.6,4.3-5,6.6-9.4,7.5c-3,0.6-6,0.4-8.9-0.2
		c-7.9-1.6-15.8-3.4-23.7-5.1c-2.1-0.5-4.2-1.1-6.4-1.6c-0.4,1.7-0.8,3.2-1.2,4.7c1.4,0.6,2.7,1.1,4,1.6c7,2.9,13.9,6.1,19.9,10.9
		C214.4,302.9,218.5,307.5,218.4,314.9z"/>
	<path d="M218.4,314.9c0.1-7.4-4-12-9.1-16c-6-4.7-12.9-8-19.9-10.9c-1.3-0.5-2.6-1-4-1.6c0.4-1.5,0.7-3.1,1.2-4.7
		c2.2,0.6,4.3,1.1,6.4,1.6c7.9,1.7,15.8,3.5,23.7,5.1c2.9,0.6,5.9,0.8,8.9,0.2c4.4-0.9,7.8-3.3,9.4-7.5c1.8-4.8,3.4-9.7,4.5-14.7
		c2.5-10.9,4.7-22,7-32.9c0.1-0.3,0-0.6,0.1-1.1c-0.5,0-0.9,0-1.4,0c-27.7,0-55.4,0-83.2,0c-1.1,0-1.4,0.4-1.7,1.3
		c-3.6,12.4-8.9,24.1-16.5,34.6c-7.7,10.5-17.4,18.6-28.5,25.2c-15.7,9.3-32.4,16.1-49.9,21.3c-3.9,1.2-7.9,2.2-11.9,3.3
		c-0.4,0.1-0.8,0.2-1.2,0.2c-0.8-1.6-1.5-3.1-2.3-4.7c2.7-0.9,5.3-1.8,7.9-2.7c14.4-5.1,28.3-11.2,41.3-19.4
		c18.8-11.8,31.7-28.3,39.7-48.8c4.6-11.9,7.8-24.2,9.8-36.8c0.5-3.3,1-6.6,1.5-10.1c-0.6,0-1,0-1.4,0c-18,0-36,0-54,0
		c-9.3,0-18.4,1-27.4,3.3c-0.4,0.1-1.1,0-1.3-0.3c-3.2-3.2-6.4-6.4-9.6-9.6c-0.1-0.1-0.2-0.2-0.4-0.5c42.1,0,83.9,0,126.1,0
		c-0.4-2.3-0.6-4.5-1.1-6.6c-1.9-8.6-6-16.1-11.2-23.1c-1.7-2.3-3.6-4.6-5.4-6.9c0.8-1.1,1.5-2.3,2.4-3.6c3.7,2,7.3,3.9,10.9,5.9
		c6.6,3.7,13.1,7.6,18.7,12.7c4.2,3.8,4.9,7.9,2.3,12.9c-1.5,2.9-3.7,5.3-6,7.6c-0.3,0.3-0.6,0.5-1.1,0.9c0.5,0.1,0.8,0.1,1,0.1
		c28,0,55.9,0,83.9,0c0.6,0,1.2-0.3,1.6-0.7c5-4.9,9.9-9.8,14.8-14.7c0.3-0.3,0.6-0.7,0.7-0.9c7.9,7.9,15.7,15.7,23.4,23.4
		c-49.2,0-98.5,0-147.9,0c-2,9.8-3.9,19.6-5.9,29.5c0.7,0,1.1,0,1.6,0c26.1,0,52.2,0,78.4,0c0.9,0,1.5-0.3,2.1-1c3-3.4,6-6.7,9-10.1
		c0.2-0.2,0.4-0.5,0.6-0.8c6.4,5.6,12.6,11.1,19,16.6c-0.4,0.3-0.7,0.5-1,0.7c-2.9,2-5.9,3.9-8.8,5.9c-0.4,0.3-0.8,1-0.9,1.5
		c-2.2,13.9-4.3,27.9-7.9,41.5c-1.3,5-3.1,9.7-5.5,14.3c-4.4,8.5-11.1,14.5-20.2,17.7C225.9,312.7,222.2,313.7,218.4,314.9z"/>
</g>
</svg>
