<?xml version="1.0" encoding="utf-8"?>
<!-- Generator: Adobe Illustrator 20.1.0, SVG Export Plug-In . SVG Version: 6.00 Build 0)  -->
<svg version="1.1" id="图层_1" xmlns="http://www.w3.org/2000/svg" xmlns:xlink="http://www.w3.org/1999/xlink" x="0px" y="0px"
	 viewBox="0 0 360 360" style="enable-background:new 0 0 360 360;" xml:space="preserve">
<style type="text/css">
	.st0{fill:#FFFFFF;}
</style>
<g>
	<path class="st0" d="M0.2,360.5c0-120.1,0-240.2,0-360.2c120.1,0,240.2,0,360.2,0c0,120.1,0,240.2,0,360.2
		C240.4,360.5,120.3,360.5,0.2,360.5z M82.8,110.9c0,0.7,0,1.2,0,1.7c0,19.9,0.1,39.8,0,59.6c-0.1,8.2-0.4,16.4-1,24.6
		c-0.9,14.4-3.3,28.6-6.7,42.7c-5.8,23.5-15,45.4-28.3,65.7c-1.3,2-2.7,4-3.9,5.8c0.8,0.9,1.5,1.7,2.3,2.5c0.3-0.3,0.6-0.5,0.8-0.7
		c8.6-8.1,16.1-17.1,22.6-27c13.4-20.3,21.4-42.8,25.7-66.6c3-16.4,4.1-33,4.1-49.6c0-1.9,0-3.7,0-5.7c10.9,0,21.8,0,32.7,0
		c0,0.9,0,1.6,0,2.4c-0.2,8.6-0.3,17.3-0.5,25.9c-0.4,13.5-0.7,27-1.2,40.5c-0.4,9.6-0.7,19.3-2.4,28.8c-0.8,4.4-1.6,8.9-3.3,13.1
		c-1,2.5-2.8,4-5.4,4.7c-1.2,0.3-2.4,0.5-3.5,0.5c-5.1,0.3-10-0.6-15-1.6c-5.2-1.1-10.4-2.4-15.7-3.6c-0.4,1.5-0.8,3.1-1.2,4.6
		c0.5,0.2,0.8,0.4,1.2,0.5c6.3,2.9,12.5,6,17.7,10.6c4.1,3.6,7.3,7.7,7,13.9c4.2-1.5,8.2-2.8,12.2-4.3c10.2-3.8,16.5-11.2,19.4-21.7
		c1.6-5.7,2.2-11.6,2.6-17.5c0.7-11.8,1.2-23.6,1.7-35.4c0.5-11,0.8-22,1.1-33.1c0.3-8,0.4-16,0.7-24c0-0.5,0.3-1.1,0.7-1.5
		c2.2-1.9,4.4-3.8,6.6-5.7c0.3-0.2,0.5-0.5,0.9-0.8c-6-4.8-11.8-9.4-17.7-14.1c-0.3,0.4-0.5,0.7-0.7,1.1c-1.9,2.9-3.9,5.8-5.8,8.7
		c-0.4,0.7-0.9,0.9-1.6,0.9c-9.8,0-19.7,0-29.5,0c-0.4,0-0.8,0-1.1-0.1c0-15.3,0-30.5,0-45.8c26.3,0,52.5,0,78.6,0
		c-7-7-14.1-14-21.1-21.1c-3.9,4.3-7.9,8.6-11.9,13c-0.7,0.7-1.3,1-2.3,1c-31.2,0-62.4,0-93.6,0c-0.5,0-0.9,0-1.7,0
		c0.4,0.5,0.7,0.8,1,1c2.4,2.4,4.9,4.8,7.3,7.3c0.9,1,1.7,1.1,2.9,0.9c6.7-1.4,13.4-2.5,20.3-2.1C79.4,111,81.1,110.9,82.8,110.9z
		 M86.4,47.2c0.3,0.4,0.5,0.8,0.8,1.1c2.8,4.2,5.8,8.4,8.4,12.7c5.2,8.5,9.5,17.4,11.8,27.1c0.5,2,1.3,3.9,2.2,5.7
		c1.7,3.2,4.1,3.5,6.9,1.2c0.6-0.5,1.2-1,1.6-1.6c1.6-2.4,3.4-4.8,4.6-7.4c2.9-6,2.6-12-1.2-17.5c-1.4-2-3-3.8-4.8-5.5
		c-5.3-5.2-11.4-9.4-17.7-13.3c-3.4-2.1-6.8-4-10.2-6.1C87.9,44.9,87.2,46,86.4,47.2z"/>
	<path d="M82.8,110.9c-1.8,0-3.4,0.1-5,0c-6.9-0.5-13.6,0.7-20.3,2.1c-1.2,0.2-2,0.1-2.9-0.9c-2.3-2.5-4.8-4.9-7.3-7.3
		c-0.3-0.3-0.5-0.6-1-1c0.7,0,1.2,0,1.7,0c31.2,0,62.4,0,93.6,0c1,0,1.6-0.3,2.3-1c4-4.4,8-8.7,11.9-13c7,7,14,14,21.1,21.1
		c-26.1,0-52.3,0-78.6,0c0,15.3,0,30.5,0,45.8c0.4,0,0.8,0.1,1.1,0.1c9.8,0,19.7,0,29.5,0c0.8,0,1.2-0.2,1.6-0.9
		c1.9-2.9,3.8-5.8,5.8-8.7c0.2-0.3,0.5-0.6,0.7-1.1c5.9,4.7,11.7,9.4,17.7,14.1c-0.3,0.3-0.6,0.6-0.9,0.8c-2.2,1.9-4.5,3.8-6.6,5.7
		c-0.4,0.3-0.7,1-0.7,1.5c-0.3,8-0.4,16-0.7,24c-0.3,11-0.7,22-1.1,33.1c-0.5,11.8-1.1,23.6-1.7,35.4c-0.3,5.9-0.9,11.8-2.6,17.5
		c-2.9,10.5-9.2,17.8-19.4,21.7c-4,1.5-8,2.8-12.2,4.3c0.3-6.2-2.9-10.3-7-13.9c-5.3-4.6-11.4-7.7-17.7-10.6
		c-0.4-0.2-0.7-0.3-1.2-0.5c0.4-1.6,0.8-3.1,1.2-4.6c5.3,1.2,10.5,2.5,15.7,3.6c4.9,1,9.9,1.9,15,1.6c1.2-0.1,2.4-0.3,3.5-0.5
		c2.6-0.6,4.4-2.2,5.4-4.7c1.7-4.2,2.5-8.6,3.3-13.1c1.7-9.5,2.1-19.1,2.4-28.8c0.5-13.5,0.9-27,1.2-40.5c0.2-8.6,0.3-17.3,0.5-25.9
		c0-0.8,0-1.6,0-2.4c-11,0-21.9,0-32.7,0c0,1.9,0,3.8,0,5.7c0,16.7-1.1,33.2-4.1,49.6c-4.4,23.8-12.4,46.3-25.7,66.6
		c-6.5,9.9-14,18.8-22.6,27c-0.2,0.2-0.5,0.4-0.8,0.7c-0.7-0.8-1.5-1.6-2.3-2.5c1.3-1.9,2.6-3.8,3.9-5.8
		c13.3-20.2,22.5-42.2,28.3-65.7c3.5-14,5.8-28.3,6.7-42.7c0.5-8.2,0.9-16.4,1-24.6c0.1-19.9,0-39.8,0-59.6
		C82.8,112.1,82.8,111.6,82.8,110.9z"/>
	<path d="M86.4,47.2c0.8-1.2,1.6-2.3,2.4-3.6c3.4,2,6.9,4,10.2,6.1c6.3,3.9,12.4,8.1,17.7,13.3c1.7,1.7,3.4,3.5,4.8,5.5
		c3.9,5.5,4.1,11.5,1.2,17.5c-1.2,2.6-3,5-4.6,7.4c-0.4,0.6-1,1.1-1.6,1.6c-2.7,2.3-5.1,2-6.9-1.2c-1-1.8-1.8-3.7-2.2-5.7
		c-2.3-9.8-6.6-18.7-11.8-27.1c-2.7-4.3-5.6-8.4-8.4-12.7C86.9,47.9,86.7,47.6,86.4,47.2z"/>
</g>
</svg>
