<?xml version="1.0" encoding="utf-8"?>
<!-- Generator: Adobe Illustrator 20.1.0, SVG Export Plug-In . SVG Version: 6.00 Build 0)  -->
<svg version="1.1" id="图层_1" xmlns="http://www.w3.org/2000/svg" xmlns:xlink="http://www.w3.org/1999/xlink" x="0px" y="0px"
	 viewBox="0 0 360 360" style="enable-background:new 0 0 360 360;" xml:space="preserve">
<style type="text/css">
	.st0{fill:#FFFFFF;}
</style>
<g>
	<path class="st0" d="M0.2,360.5c0-120.1,0-240.2,0-360.2c120.1,0,240.2,0,360.2,0c0,120.1,0,240.2,0,360.2
		C240.4,360.5,120.3,360.5,0.2,360.5z M278.4,73.2c0,0.6,0,1.2,0,1.7c0,34.9,0,69.8,0,104.6c0,14.5,0.1,29,1.2,43.5
		c0.8,10.8,2.1,21.6,4.6,32.2c2.9,12,7.2,23.4,14.4,33.6c3.8,5.5,7.8,10.9,12.8,15.3c2.1,1.9,4.3,3.6,7.1,4.2
		c1.7,0.4,2.7-0.3,2.6-2.1c-0.1-1.5-0.5-3-0.7-4.5c-0.6-3.3-1.5-6.5-1.8-9.8c-1.2-10.6-0.8-21.2-0.2-31.7
		c0.6-10.8,1.8-21.6,3.6-32.3c0-0.3,0-0.8-0.2-0.9c-1-0.7-2.1-1.4-3.2-2.2c-4.3,16.1-8.6,32-12.9,48.2c-0.3-0.6-0.5-0.9-0.6-1.1
		c-3.2-6.2-5.6-12.6-7.3-19.3c-3.5-13.8-4.9-27.8-4.9-41.9c-0.1-44.4-0.1-88.8,0-133.2c0-0.6,0.3-1.2,0.7-1.6
		c2.2-2.3,4.4-4.5,6.7-6.7c0.3-0.3,0.5-0.6,0.8-0.9c-5.9-4.4-11.8-8.7-17.7-13c-2.2,3.3-4.3,6.5-6.4,9.7c-0.4,0.7-0.9,1-1.7,1
		c-22.1,0-44.2,0-66.2,0c-0.6,0-1.3-0.2-1.8-0.5c-4.5-2.7-9-5.5-13.5-8.3c-0.3-0.2-0.6-0.3-1-0.5c0,0.6,0,1.2,0,1.7
		c1.1,17.4,1.2,34.8,1.1,52.3c0,18.5,0,37,0,55.4c0,3.9-0.1,7.8-0.2,11.6c-0.5,14.9-1.6,29.8-4,44.5c-1.7,10.3-3.7,20.4-7.4,30.2
		c-8,21.3-19.2,40.8-34,58.1c-0.5,0.6-1,1.1-1.5,1.7c1,0.7,1.9,1.3,2.8,1.9c0.2,0.2,0.5,0.3,0.7,0.5c0.3-0.2,0.5-0.4,0.8-0.6
		c7.5-6.9,14.4-14.3,20.6-22.4c12.1-15.6,21.4-32.6,27-51.6c3.9-13.1,6.2-26.5,7.6-40.1c1.1-10.7,1.8-21.3,1.8-32.1
		c0.1-31,0-62.1,0-93.1c0-0.5,0-1,0-1.5C231.4,73.2,254.8,73.2,278.4,73.2z M245.4,186.6c0.1,0.2,0.2,0.2,0.2,0.3
		c0.8,2.3,1.6,4.6,2.3,6.9c3.7,11.5,6.6,23.1,8.7,35c0.7,4.2,1.6,8.5,2.6,12.6c0.4,1.7,1.4,3.3,2.4,4.8c0.9,1.3,2.2,1.4,3.5,0.4
		c0.9-0.7,1.7-1.6,2.3-2.5c3.3-4.9,4.8-10.3,4.9-16.2c0-6.6-1.8-12.8-4.2-19c-4.7-12.3-10.9-24-17.3-35.5c-0.5-0.9-0.6-1.6-0.3-2.6
		c4.7-15.6,9.4-31.2,14-46.8c1.8-6.1,4-12.1,8.9-16.5c0,0,0-0.1,0-0.3c-6.6-4.2-13.2-8.5-19.9-12.9c-1.4,21.3-6.4,41.7-11.7,62.4
		c-8.8-16.7-18.6-32.4-28.4-48.5c-0.5,0.6-0.7,1.2-1.2,1.5c-1,0.8-1,1.5-0.5,2.6c4,8.7,8.1,17.4,11.9,26.2
		c4.8,10.9,9.3,21.9,12.9,33.3c0.3,1.1,0.4,2,0,3.1c-1.7,4.9-3.3,9.9-5.1,14.8c-8.4,23.4-18.8,45.9-31.8,67.1
		c-1.6,2.6-1.6,2.6,0.7,4.7c0.1,0,0.1,0.1,0.3,0.1C220.8,239.7,234.7,214.1,245.4,186.6z"/>
	<path d="M278.4,73.2c-23.6,0-47,0-70.6,0c0,0.5,0,1,0,1.5c0,31,0,62.1,0,93.1c0,10.7-0.7,21.4-1.8,32.1c-1.4,13.6-3.7,27-7.6,40.1
		c-5.6,19-14.9,36-27,51.6c-6.2,8-13.2,15.5-20.6,22.4c-0.2,0.2-0.5,0.4-0.8,0.6c-0.3-0.2-0.5-0.3-0.7-0.5c-0.9-0.6-1.8-1.2-2.8-1.9
		c0.5-0.6,1-1.2,1.5-1.7c14.8-17.4,26-36.8,34-58.1c3.7-9.7,5.7-19.9,7.4-30.2c2.4-14.7,3.5-29.6,4-44.5c0.1-3.9,0.2-7.8,0.2-11.6
		c0-18.5,0-37,0-55.4c0-17.4-0.1-34.9-1.1-52.3c0-0.5,0-1,0-1.7c0.4,0.2,0.7,0.3,1,0.5c4.5,2.8,9,5.5,13.5,8.3
		c0.5,0.3,1.2,0.5,1.8,0.5c22.1,0,44.2,0,66.2,0c0.8,0,1.3-0.3,1.7-1c2.1-3.2,4.2-6.4,6.4-9.7c5.9,4.3,11.8,8.6,17.7,13
		c-0.3,0.4-0.6,0.6-0.8,0.9c-2.2,2.2-4.5,4.4-6.7,6.7c-0.4,0.4-0.7,1.1-0.7,1.6c0,44.4-0.1,88.8,0,133.2c0,14.1,1.5,28.2,4.9,41.9
		c1.7,6.7,4.1,13.2,7.3,19.3c0.1,0.3,0.3,0.6,0.6,1.1c4.3-16.2,8.6-32.1,12.9-48.2c1.2,0.8,2.2,1.4,3.2,2.2c0.2,0.1,0.3,0.6,0.2,0.9
		c-1.8,10.7-3,21.4-3.6,32.3c-0.6,10.6-0.9,21.2,0.2,31.7c0.4,3.3,1.2,6.5,1.8,9.8c0.3,1.5,0.7,3,0.7,4.5c0.1,1.8-0.9,2.5-2.6,2.1
		c-2.8-0.6-5-2.4-7.1-4.2c-5-4.5-9-9.9-12.8-15.3c-7.1-10.2-11.5-21.6-14.4-33.6c-2.6-10.6-3.8-21.4-4.6-32.2
		c-1.1-14.5-1.2-29-1.2-43.5c0-34.9,0-69.8,0-104.6C278.4,74.4,278.4,73.9,278.4,73.2z"/>
	<path d="M245.4,186.6c-10.7,27.5-24.6,53.1-44.6,75c-0.1-0.1-0.2-0.1-0.3-0.1c-2.3-2.1-2.3-2.1-0.7-4.7
		c13-21.2,23.4-43.7,31.8-67.1c1.8-4.9,3.3-9.9,5.1-14.8c0.4-1.1,0.3-2,0-3.1c-3.6-11.4-8.1-22.4-12.9-33.3
		c-3.9-8.8-7.9-17.5-11.9-26.2c-0.5-1.1-0.5-1.9,0.5-2.6c0.4-0.3,0.7-0.9,1.2-1.5c9.9,16.1,19.7,31.8,28.4,48.5
		c5.3-20.7,10.3-41.1,11.7-62.4c6.8,4.4,13.3,8.6,19.9,12.9c0,0.1,0,0.2,0,0.3c-4.9,4.5-7.1,10.4-8.9,16.5
		c-4.7,15.6-9.3,31.2-14,46.8c-0.3,1-0.2,1.7,0.3,2.6c6.4,11.5,12.6,23.2,17.3,35.5c2.3,6.1,4.2,12.3,4.2,19
		c0,5.8-1.5,11.3-4.9,16.2c-0.6,0.9-1.4,1.8-2.3,2.5c-1.3,1-2.5,1-3.5-0.4c-1-1.4-2-3.1-2.4-4.8c-1.1-4.2-1.9-8.4-2.6-12.6
		c-2.1-11.9-5-23.5-8.7-35c-0.7-2.3-1.5-4.6-2.3-6.9C245.6,186.8,245.5,186.8,245.4,186.6z"/>
</g>
</svg>
