<?xml version="1.0" encoding="utf-8"?>
<!-- Generator: Adobe Illustrator 20.1.0, SVG Export Plug-In . SVG Version: 6.00 Build 0)  -->
<svg version="1.1" id="图层_1" xmlns="http://www.w3.org/2000/svg" xmlns:xlink="http://www.w3.org/1999/xlink" x="0px" y="0px"
	 viewBox="0 0 360 360" style="enable-background:new 0 0 360 360;" xml:space="preserve">
<style type="text/css">
	.st0{fill:#FFFFFF;}
</style>
<g>
	<path class="st0" d="M0.2,360.5c0-120.1,0-240.2,0-360.2c120.1,0,240.2,0,360.2,0c0,120.1,0,240.2,0,360.2
		C240.4,360.5,120.3,360.5,0.2,360.5z M161.8,72c0,0.6,0,1.1,0,1.6c0,36.3,0,72.6,0,109c0,5,0.1,10,0.2,15
		c0.3,10.4,1.6,20.6,4.1,30.7c2.9,11.5,7.3,22.3,14.3,32c8,11,18.2,19.4,30,26.1c12.6,7.1,26,12.3,39.7,16.5
		c18.5,5.6,37.4,8.8,56.6,10c3.5,0.2,7.1,0.3,10.6-0.6c2.6-0.7,3-2.1,1.3-4c-3.3-3.6-5.4-7.9-6.9-12.5c-2.2-7.2-2.8-14.7-2.8-22.2
		c0-7.1,0.5-14.3,0.8-21.4c0.1-1.9,0.3-3.9,0.4-5.9c-1.6-0.4-3.1-0.8-4.7-1.2c-3.6,16.6-7.1,33-10.6,49.5c-3.9-0.6-7.6-1.2-11.3-1.8
		c-13.6-2.3-27.1-5.3-40.2-9.8c-13.8-4.7-26.7-11.2-38-20.4c-7.6-6.3-14.2-13.5-19-22.2c-4-7.3-6.1-15.3-7.7-23.5
		c-2-10.9-2.8-21.9-2.8-32.9c-0.1-35.3,0-70.6-0.1-106c0-1.8,0.5-3,1.9-4.1c2.6-2.1,5-4.3,7.6-6.6c-5.6-4.8-11-9.5-16.6-14.2
		c-2.6,3.7-5.1,7.3-7.6,10.9c-0.4,0.6-0.9,1-1.7,1c-25.2,0-50.5,0-75.7,0c-0.6,0-1.3-0.2-1.8-0.5c-4.4-2.7-8.9-5.4-13.3-8.1
		c-0.3-0.2-0.7-0.4-1.2-0.7c0,0.6,0,1,0,1.4c0.1,3.6,0.2,7.1,0.2,10.7c0.1,9.6,0.3,19.3,0.3,28.9c0,17.2-0.1,34.3-0.2,51.5
		c-0.1,12.6-0.1,25.1-0.5,37.7c-0.3,9.7-1,19.3-1.8,28.9c-1.2,13.2-3.1,26.3-5.7,39.4c-3.3,16.4-7.6,32.6-13.9,48.1
		c-1.1,2.6-2.2,5.2-3.3,7.9c0.6,0.4,1.2,0.8,1.7,1.2c0.6,0.4,1.2,0.8,1.8,1.2c0.3-0.4,0.5-0.8,0.7-1.1c6.3-9.4,11.6-19.4,16-29.8
		c9.4-22.2,14.7-45.5,17.5-69.3c1.8-15.9,2.4-31.8,2.3-47.8c-0.1-30.2,0-60.4,0-90.6c0-0.5,0-1.1,0-1.7C109.3,72,135.4,72,161.8,72z
		 M87.6,110.8c0.4,0.9,0.7,1.7,1.1,2.5c9.5,21.5,18.7,43.1,27.2,65.1c0.9,2.2,0.9,4.1,0,6.4c-9.3,24.9-20.8,48.6-35.5,70.7
		c-1.9,2.9-3.8,5.7-5.8,8.6c1.2,0.8,2.4,1.6,3.6,2.4c19.4-20.9,35-44,45.9-70.5c0.2,0.4,0.3,0.6,0.4,0.8
		c5.6,15.7,10.2,31.6,12.8,48.1c0.6,3.6,1.3,7.2,3.1,10.5c1.7,3.1,3.9,3.4,6.3,0.8c0.1-0.1,0.2-0.2,0.3-0.4c5.4-6.7,7-14.4,6-22.7
		c-0.7-6.2-2.8-12-5.1-17.7c-4.5-11.3-10.2-22.1-16.1-32.7c-0.4-0.8-0.5-1.4-0.2-2.2c2.2-6.3,4.3-12.7,6.4-19.1
		c3.5-10.2,7-20.5,10.8-30.6c2.5-6.7,5.4-13.3,11.8-17.6c-7-4.3-14-8.6-21-12.9c-2.6,23.4-9.7,45.6-16.5,68.1
		c-9.3-20.9-20.7-40.3-31.8-59.9C89.9,109.2,88.8,110,87.6,110.8z"/>
	<path d="M161.8,72c-26.3,0-52.5,0-78.8,0c0,0.6,0,1.1,0,1.7c0,30.2,0,60.4,0,90.6c0,16-0.5,31.9-2.3,47.8
		c-2.8,23.9-8.1,47.1-17.5,69.3c-4.4,10.4-9.7,20.4-16,29.8c-0.2,0.3-0.4,0.7-0.7,1.1c-0.6-0.4-1.2-0.8-1.8-1.2
		c-0.6-0.4-1.1-0.8-1.7-1.2c1.1-2.7,2.2-5.3,3.3-7.9c6.3-15.6,10.6-31.7,13.9-48.1c2.6-13,4.5-26.2,5.7-39.4
		c0.8-9.6,1.5-19.3,1.8-28.9c0.4-12.5,0.4-25.1,0.5-37.7c0.1-17.2,0.2-34.3,0.2-51.5c0-9.6-0.2-19.3-0.3-28.9
		c0-3.6-0.2-7.1-0.2-10.7c0-0.4,0-0.8,0-1.4c0.5,0.3,0.9,0.5,1.2,0.7c4.4,2.7,8.8,5.5,13.3,8.1c0.5,0.3,1.2,0.5,1.8,0.5
		c25.2,0,50.5,0,75.7,0c0.8,0,1.3-0.3,1.7-1c2.5-3.6,5-7.1,7.6-10.9c5.5,4.7,11,9.4,16.6,14.2c-2.6,2.3-5,4.5-7.6,6.6
		c-1.4,1.1-1.9,2.3-1.9,4.1c0.1,35.3,0,70.6,0.1,106c0,11,0.8,22,2.8,32.9c1.5,8.2,3.7,16.1,7.7,23.5c4.7,8.7,11.3,16,19,22.2
		c11.3,9.3,24.2,15.7,38,20.4c13.1,4.5,26.6,7.6,40.2,9.8c3.7,0.6,7.4,1.2,11.3,1.8c3.5-16.5,7.1-32.9,10.6-49.5
		c1.6,0.4,3.1,0.8,4.7,1.2c-0.2,2-0.4,3.9-0.4,5.9c-0.3,7.1-0.8,14.3-0.8,21.4c0,7.5,0.5,14.9,2.8,22.2c1.4,4.6,3.6,8.9,6.9,12.5
		c1.8,2,1.3,3.3-1.3,4c-3.5,0.9-7.1,0.8-10.6,0.6c-19.3-1.2-38.2-4.4-56.6-10c-13.8-4.2-27.2-9.4-39.7-16.5
		c-11.8-6.7-22-15.1-30-26.1c-7-9.7-11.4-20.5-14.3-32c-2.5-10.1-3.8-20.3-4.1-30.7c-0.1-5-0.2-10-0.2-15c0-36.3,0-72.6,0-109
		C161.8,73.1,161.8,72.6,161.8,72z"/>
	<path d="M87.6,110.8c1.2-0.8,2.4-1.6,3.6-2.4c11.1,19.6,22.6,39,31.8,59.9c6.8-22.5,14-44.7,16.5-68.1c7,4.3,14,8.6,21,12.9
		c-6.3,4.3-9.3,10.9-11.8,17.6c-3.8,10.1-7.2,20.4-10.8,30.6c-2.2,6.3-4.3,12.7-6.4,19.1c-0.3,0.8-0.2,1.5,0.2,2.2
		c5.9,10.6,11.6,21.4,16.1,32.7c2.3,5.7,4.4,11.5,5.1,17.7c1,8.4-0.6,16.1-6,22.7c-0.1,0.1-0.2,0.2-0.3,0.4
		c-2.4,2.5-4.6,2.3-6.3-0.8c-1.8-3.3-2.5-6.9-3.1-10.5c-2.6-16.5-7.2-32.4-12.8-48.1c-0.1-0.2-0.2-0.4-0.4-0.8
		c-10.9,26.5-26.6,49.7-45.9,70.5c-1.2-0.8-2.4-1.6-3.6-2.4c2-2.9,3.9-5.7,5.8-8.6c14.7-22.2,26.2-45.9,35.5-70.7
		c0.8-2.2,0.8-4.1,0-6.4c-8.5-21.9-17.7-43.6-27.2-65.1C88.3,112.5,87.9,111.7,87.6,110.8z"/>
</g>
</svg>
