<?xml version="1.0" encoding="utf-8"?>
<!-- Generator: Adobe Illustrator 20.1.0, SVG Export Plug-In . SVG Version: 6.00 Build 0)  -->
<svg version="1.1" id="图层_1" xmlns="http://www.w3.org/2000/svg" xmlns:xlink="http://www.w3.org/1999/xlink" x="0px" y="0px"
	 viewBox="0 0 360 360" style="enable-background:new 0 0 360 360;" xml:space="preserve">
<style type="text/css">
	.st0{fill:#FFFFFF;}
</style>
<g>
	<path class="st0" d="M0.2,360.5c0-120.1,0-240.2,0-360.2c120.1,0,240.2,0,360.2,0c0,120.1,0,240.2,0,360.2
		C240.4,360.5,120.3,360.5,0.2,360.5z M173.5,125c-36.1,29.9-77.6,48.8-122.5,61.2c0.4,1.6,0.8,3.1,1.2,4.8
		c48.9-8.3,93.7-26.2,133.1-56.5c34.6,24.1,73.2,37.9,114.3,45.9c1-2.7,2.4-4.9,4.4-6.8c3.9-3.9,8.7-6.3,13.8-8.2
		c1.4-0.5,2.8-1,4.2-1.5c0-1.6,0-3.1,0-4.7c-0.4,0-0.8-0.1-1.2-0.1c-3.7-0.1-7.4-0.2-11.1-0.4c-16.1-0.7-32-2.7-47.7-6
		c-19.6-4.2-38.5-10.7-56.2-20.2c-3.7-2-7.2-4.1-10.8-6.2c0.2-0.2,0.3-0.3,0.3-0.4c10.5-9.8,21.1-19.6,31.5-29.5
		c2.4-2.2,4.8-4.1,7.8-5.4c1.7-0.7,3.3-1.6,5.1-2.5c-6.4-5.2-12.6-10.2-18.9-15.4c-10.3,16.6-23.4,30.6-37.8,43.7
		c-14.7-10.3-26.4-23.8-38.8-36.6c-1.1,0.8-2.3,1.5-3.5,2.4C150.6,97.5,160.9,112,173.5,125z M66.4,119.1c0.3-0.1,0.6-0.2,0.9-0.4
		c16.2-8.5,31.6-18.2,46-29.5c7.7-6.1,15.4-12.3,23.2-18.2c6.3-4.7,12.9-8.9,20.2-11.8c0.1,0,0.1-0.2,0.3-0.3
		c-7-5.9-14-11.7-21-17.5c-0.1,0.2-0.2,0.2-0.3,0.3c-6.8,13.4-16.1,25-26.5,35.8C95.6,91.3,80.8,103.7,65,114.8
		c-0.3,0.2-0.6,0.5-0.9,0.7C64.8,116.8,65.6,117.9,66.4,119.1z M213.6,48.4c0.6,0.4,1,0.7,1.5,1c13.2,8.7,26.3,17.5,38.6,27.4
		c7.5,6,14.7,12.3,20.5,20.1c1.4,1.8,3.1,3.4,5,4.8c3,2.2,5.6,1.5,7.1-1.8c2.5-5.5,3.2-11.3,1.4-17.2c-1.8-5.6-5.7-9.5-10.6-12.4
		c-3.3-2-6.8-3.7-10.3-5.4c-13.7-6.4-27.8-11.7-41.9-17c-2.9-1.1-5.8-2.1-8.8-3.2C215.2,46,214.4,47.2,213.6,48.4z"/>
	<path d="M173.5,125c-12.6-13-22.9-27.5-33-42.4c1.2-0.8,2.4-1.6,3.5-2.4c12.4,12.8,24.1,26.3,38.8,36.6
		c14.4-13.1,27.5-27.1,37.8-43.7c6.3,5.1,12.6,10.2,18.9,15.4c-1.8,0.9-3.4,1.8-5.1,2.5c-3,1.3-5.5,3.2-7.8,5.4
		c-10.5,9.9-21,19.7-31.5,29.5c-0.1,0.1-0.2,0.2-0.3,0.4c3.6,2.1,7.2,4.2,10.8,6.2c17.7,9.5,36.5,16,56.2,20.2
		c15.7,3.4,31.7,5.3,47.7,6c3.7,0.2,7.4,0.3,11.1,0.4c0.4,0,0.8,0,1.2,0.1c0,1.6,0,3.1,0,4.7c-1.4,0.5-2.8,1-4.2,1.5
		c-5.1,1.9-9.9,4.3-13.8,8.2c-1.9,1.9-3.4,4.1-4.4,6.8c-41-8-79.6-21.8-114.3-45.9c-39.4,30.3-84.2,48.2-133.1,56.5
		c-0.4-1.6-0.8-3.1-1.2-4.8C95.9,173.8,137.4,154.9,173.5,125z"/>
	<path d="M66.4,119.1c-0.8-1.2-1.5-2.3-2.3-3.5c0.3-0.3,0.6-0.5,0.9-0.7c15.9-11.2,30.7-23.6,44.2-37.5
		c10.5-10.7,19.7-22.3,26.5-35.8c0-0.1,0.1-0.1,0.3-0.3c7,5.8,14,11.7,21,17.5c-0.1,0.1-0.2,0.3-0.3,0.3c-7.3,2.9-14,7.1-20.2,11.8
		c-7.8,5.9-15.5,12.1-23.2,18.2c-14.4,11.3-29.8,21-46,29.5C67,118.8,66.7,118.9,66.4,119.1z"/>
	<path d="M213.6,48.4c0.8-1.2,1.6-2.4,2.4-3.6c3,1.1,5.9,2.1,8.8,3.2c14.1,5.2,28.3,10.5,41.9,17c3.5,1.6,6.9,3.4,10.3,5.4
		c4.9,2.9,8.9,6.7,10.6,12.4c1.8,5.9,1.1,11.6-1.4,17.2c-1.5,3.3-4.2,4-7.1,1.8c-1.8-1.4-3.6-3-5-4.8c-5.8-7.8-13-14.1-20.5-20.1
		c-12.3-9.9-25.4-18.8-38.6-27.4C214.6,49.1,214.2,48.8,213.6,48.4z"/>
</g>
</svg>
