<?xml version="1.0" encoding="utf-8"?>
<!-- Generator: Adobe Illustrator 20.1.0, SVG Export Plug-In . SVG Version: 6.00 Build 0)  -->
<svg version="1.1" id="图层_1" xmlns="http://www.w3.org/2000/svg" xmlns:xlink="http://www.w3.org/1999/xlink" x="0px" y="0px"
	 viewBox="0 0 360 360" style="enable-background:new 0 0 360 360;" xml:space="preserve">
<style type="text/css">
	.st0{fill:#FFFFFF;}
</style>
<g>
	<path class="st0" d="M0.2,360.5c0-120.1,0-240.2,0-360.2c120.1,0,240.2,0,360.2,0c0,120.1,0,240.2,0,360.2
		C240.4,360.5,120.3,360.5,0.2,360.5z M187.4,42.3c1.7,16.4,3.3,32.5,5.1,48.5c1.8,16.1,3.8,32.1,5.7,48.2
		c-17.6,1.6-35.2,3.1-52.7,4.7c0.1,0.2,0.1,0.3,0.1,0.3c3.6,3.3,7.3,6.6,11,9.9c0.3,0.2,1,0.2,1.3,0c2.4-1.1,4.7-2.4,7.1-3.5
		c1.1-0.5,2.3-0.8,3.5-1c7.1-0.8,14.2-1.6,21.3-2.3c3.2-0.3,6.3-0.7,9.5-1c0.1,0.4,0.2,0.6,0.2,0.9c2,11.5,3.8,23,6.1,34.4
		c3.5,18.1,8.2,35.9,14.6,53.2c0.3,0.7,0.2,1.1-0.4,1.7c-7.4,7.2-14.6,14.6-22.2,21.5c-19.4,17.6-40.6,32.8-63,46.3
		c-1.2,0.7-2.4,1.4-3.6,2.2c0.8,1.3,1.6,2.4,2.4,3.6c34.8-15.3,66.1-36,95.4-60c0.3,0.5,0.6,0.9,0.8,1.2c4.7,6.6,9.2,13.4,14.1,19.8
		c7.6,9.8,16.2,18.6,26.1,26.2c11.2,8.6,23.9,14,37.2,18.4c2.5,0.9,5.3,1.4,7.9,1.6c2.3,0.2,2.9-1.1,2-3.1c-0.6-1.4-1.4-2.7-2-4.1
		c-3.3-8.1-4.2-16.6-4.8-25.2c-0.6-8.6-0.5-17.3,0-25.9c0.6-9.4,1.4-18.7,2.1-28.1c0-0.3,0-0.7,0-1c-1.6-0.4-3.1-0.8-4.7-1.1
		c-4.7,20.1-9.4,40-14.1,60c-0.5-0.3-0.9-0.5-1.3-0.7c-7.6-4.1-14.6-9-21.2-14.6c-11.4-9.8-20.9-21.2-29.3-33.6
		c-1.1-1.7-1.1-1.7,0.3-3.2c9.7-10.6,19.2-21.4,28.1-32.8c4.2-5.4,8.2-11,12.4-16.3c3.7-4.6,7.9-8.8,13.1-11.8
		c0.8-0.5,1.7-0.8,2.4-1.2c-7-7-14-14-21.1-21.1c-0.1,0.2-0.2,0.4-0.3,0.6c-2.7,7.6-6.3,14.7-10.4,21.7
		c-9.1,15.7-20.1,30.1-31.5,44.1c-0.4,0.5-0.8,1-1.3,1.6c-8.8-25.3-13.1-51.3-16.5-77.6c34.2-3.5,68.2-7.1,102.6-10.6
		c-8-7.2-15.8-14.2-23.7-21.3c-4.2,5.3-8.4,10.4-12.4,15.6c-1.1,1.4-2.3,2.2-4.2,2.4c-9.3,0.9-18.7,2-28,3c-9.5,1-19.1,2-28.6,3.1
		c-2.2,0.2-4.5,0.5-6.9,0.7c-1-8.1-2-15.9-2.8-23.8c-0.8-7.5-1.6-15.1-2.3-22.7c-0.7-7.7-1.2-15.4-1.8-23.1c0-0.6,0.3-1.3,0.7-1.7
		c3-3.1,6-6.1,9.1-9.1c0.2-0.2,0.4-0.5,0.7-0.8C208.9,51.1,198.4,46.8,187.4,42.3z M232.5,67.2c0.4,0.4,0.7,0.8,1.1,1.1
		c5.9,5.8,11.9,11.4,17.6,17.3c6,6.1,11.4,12.7,15.7,20.2c1.2,2,2.8,4,4.5,5.6c2.7,2.5,5.7,2.3,7.8-0.7c1.7-2.3,3.3-4.7,4.3-7.3
		c2.7-6.9,2.1-13.5-3.3-19c-2-2.1-4.3-4-6.9-5.4c-4.8-2.6-9.8-5-14.9-7c-7.4-2.9-15-5.4-22.6-8c-0.4-0.1-1.1-0.1-1.3,0.1
		C233.8,65.1,233.2,66.2,232.5,67.2z"/>
	<path d="M187.4,42.3c10.9,4.5,21.5,8.7,32.1,13.1c-0.3,0.3-0.5,0.6-0.7,0.8c-3,3-6.1,6-9.1,9.1c-0.4,0.4-0.7,1.2-0.7,1.7
		c0.6,7.7,1.1,15.4,1.8,23.1c0.7,7.6,1.4,15.1,2.3,22.7c0.9,7.9,1.9,15.8,2.8,23.8c2.4-0.2,4.6-0.5,6.9-0.7c9.5-1,19.1-2,28.6-3.1
		c9.3-1,18.7-2.1,28-3c1.9-0.2,3.1-1,4.2-2.4c4.1-5.2,8.2-10.3,12.4-15.6c7.8,7.1,15.6,14.1,23.7,21.3
		c-34.3,3.6-68.4,7.1-102.6,10.6c3.3,26.3,7.6,52.3,16.5,77.6c0.5-0.6,1-1.1,1.3-1.6c11.5-14,22.4-28.5,31.5-44.1
		c4-6.9,7.6-14.1,10.4-21.7c0.1-0.2,0.2-0.5,0.3-0.6c7,7,14,14,21.1,21.1c-0.7,0.4-1.6,0.8-2.4,1.2c-5.3,2.9-9.4,7.1-13.1,11.8
		c-4.3,5.3-8.2,10.9-12.4,16.3c-8.9,11.3-18.4,22.1-28.1,32.8c-1.4,1.5-1.4,1.5-0.3,3.2c8.4,12.4,18,23.8,29.3,33.6
		c6.5,5.6,13.6,10.6,21.2,14.6c0.4,0.2,0.8,0.4,1.3,0.7c4.7-20,9.4-39.9,14.1-60c1.6,0.4,3.1,0.8,4.7,1.1c0,0.4,0,0.7,0,1
		c-0.7,9.4-1.6,18.7-2.1,28.1c-0.5,8.6-0.6,17.3,0,25.9c0.6,8.6,1.5,17.1,4.8,25.2c0.6,1.4,1.3,2.7,2,4.1c1,2.1,0.3,3.4-2,3.1
		c-2.7-0.3-5.4-0.8-7.9-1.6c-13.2-4.4-26-9.8-37.2-18.4c-9.9-7.6-18.5-16.4-26.1-26.2c-4.9-6.4-9.4-13.2-14.1-19.8
		c-0.3-0.4-0.5-0.7-0.8-1.2c-29.3,24.1-60.6,44.7-95.4,60c-0.8-1.2-1.6-2.3-2.4-3.6c1.2-0.7,2.4-1.5,3.6-2.2
		c22.4-13.5,43.6-28.7,63-46.3c7.6-6.9,14.8-14.3,22.2-21.5c0.5-0.5,0.6-1,0.4-1.7c-6.5-17.3-11.1-35.1-14.6-53.2
		c-2.2-11.4-4.1-23-6.1-34.4c0-0.3-0.1-0.5-0.2-0.9c-3.2,0.3-6.4,0.7-9.5,1c-7.1,0.8-14.2,1.5-21.3,2.3c-1.2,0.1-2.4,0.5-3.5,1
		c-2.4,1.1-4.7,2.4-7.1,3.5c-0.4,0.2-1.1,0.2-1.3,0c-3.7-3.3-7.3-6.6-11-9.9c0,0-0.1-0.1-0.1-0.3c17.6-1.6,35.1-3.1,52.7-4.7
		c-1.9-16.1-3.9-32.2-5.7-48.2C190.7,74.8,189.1,58.8,187.4,42.3z"/>
	<path d="M232.5,67.2c0.7-1,1.3-2.1,2.1-3c0.2-0.2,0.9-0.3,1.3-0.1c7.5,2.6,15.1,5.1,22.6,8c5.1,2,10.1,4.4,14.9,7
		c2.5,1.4,4.8,3.3,6.9,5.4c5.4,5.5,6,12.1,3.3,19c-1,2.6-2.6,5-4.3,7.3c-2.2,3-5.2,3.2-7.8,0.7c-1.7-1.6-3.3-3.5-4.5-5.6
		c-4.3-7.5-9.7-14.1-15.7-20.2c-5.7-5.9-11.7-11.5-17.6-17.3C233.2,68,232.9,67.6,232.5,67.2z"/>
</g>
</svg>
