<?xml version="1.0" encoding="utf-8"?>
<!-- Generator: Adobe Illustrator 20.1.0, SVG Export Plug-In . SVG Version: 6.00 Build 0)  -->
<svg version="1.1" id="图层_1" xmlns="http://www.w3.org/2000/svg" xmlns:xlink="http://www.w3.org/1999/xlink" x="0px" y="0px"
	 viewBox="0 0 360 360" style="enable-background:new 0 0 360 360;" xml:space="preserve">
<style type="text/css">
	.st0{fill:#FFFFFF;}
</style>
<g>
	<path class="st0" d="M0.2,360.5c0-120.1,0-240.2,0-360.2c120.1,0,240.2,0,360.2,0c0,120.1,0,240.2,0,360.2
		C240.4,360.5,120.3,360.5,0.2,360.5z M232.5,255.8c0.3,0.4,0.6,0.8,0.9,1.1c9.7,11.8,20.2,22.7,32.4,31.8
		c13.3,10,28.1,16.4,44.3,20c1.8,0.4,3.8,0.4,5.7,0.4c2.1-0.1,2.9-1.5,2.2-3.4c-0.2-0.7-0.6-1.4-1-2.1c-3.5-6.4-5.5-13.2-5.6-20.5
		c0-3.9,0.1-7.8,0.5-11.6c1-10.3,2.2-20.6,3.3-30.9c0.3-2.4,0.6-4.8,0.9-7.3c-1.6-0.4-3.2-0.8-4.8-1.2c-4.7,16.9-9.4,33.7-14.1,50.6
		c-20.9-9.3-37.2-24.1-51.7-41.1c3.2-5.1,6.5-10.1,9.6-15.1c11.8-19.6,21.6-40.2,30.4-61.3c0.8-1.8,1.8-3.1,3.6-4
		c2.7-1.3,5.4-2.9,8.2-4.5c-8.3-6.4-16.5-12.6-24.8-18.9c-0.2,0.5-0.3,0.9-0.4,1.2c-5.4,15.9-11.1,31.7-17.5,47.1
		c-5.3,12.7-11,25.1-18.4,36.7c-0.4,0.7-0.9,1.3-1.3,2c-0.2-0.3-0.3-0.5-0.4-0.7c-3.3-6.1-5.9-12.6-8.1-19.2
		c-6.4-19.1-10-38.9-12.7-58.8c-1.2-8.7-2-17.4-3-26.1c-0.2-1.5-0.3-3-0.4-4.6c35,0,69.7,0,104.4,0c-7.8-7.8-15.6-15.6-23.5-23.5
		c-0.2,0.2-0.4,0.6-0.7,0.9c-4.9,4.9-9.8,9.8-14.7,14.7c-0.6,0.6-1.2,0.8-2,0.8c-20.7,0-41.4,0-62.2,0c-0.4,0-0.9,0-1.3,0
		c-0.1-0.4-0.2-0.7-0.2-1c-1.2-12.8-2.1-25.6-2.3-38.4c0-2,0.3-3.7,1.8-5c0.6-0.5,1.1-1.2,1.6-1.8c1.6-1.8,3.2-3.6,4.9-5.6
		c-10.3-4-20.4-7.9-30.7-11.8c2,21.3,3.9,42.4,5.9,63.6c-37.4,0-74.5,0-112,0c2.1,4.5,4,8.8,6,13.1c0.4-0.2,0.8-0.3,1.1-0.4
		c3.9-1.6,7.7-3.3,11.6-4.9c0.9-0.4,2-0.6,3-0.6c29.8,0,59.7,0,89.5,0c0.3,0,0.6,0,1,0c0.8-0.1,1,0.3,1.1,1
		c1.2,10.6,2.2,21.2,3.6,31.8c2,15.7,5,31.2,9,46.6c4.2,16.3,9.7,32.2,17.6,47.1c0.4,0.7,0.1,1.1-0.3,1.6
		c-6.8,9.2-14.4,17.8-22.6,25.7c-10.4,10.1-21.6,19.3-33.5,27.8c-4.7,3.4-9.6,6.6-14.3,9.9c-0.3,0.2-0.8,0.7-0.7,0.9
		c0.3,1.4,0.7,2.8,1.1,4.4C183,299,209.3,279.7,232.5,255.8z M232.4,51.8c0.4,0.5,0.6,0.8,0.9,1.1c4.9,6.8,10,13.5,14.8,20.4
		c3.8,5.6,6.8,11.6,8.6,18.2c0.5,1.7,1.3,3.4,2.2,4.9c2,3.1,4.6,3.6,7.7,1.7c2.4-1.5,4.5-3.4,6.1-5.8c4.4-6.7,4.4-12.7-0.6-18.7
		c-1.4-1.7-2.9-3.2-4.5-4.6c-9.5-7.9-20.2-13.9-30.9-20.1c-0.3-0.1-0.8-0.1-1,0C234.5,49.7,233.5,50.8,232.4,51.8z"/>
	<path d="M232.5,255.8c-23.2,23.9-49.5,43.2-80.1,56.5c-0.4-1.5-0.8-3-1.1-4.4c0-0.3,0.4-0.7,0.7-0.9c4.8-3.3,9.6-6.5,14.3-9.9
		c11.8-8.5,23-17.6,33.5-27.8c8.2-8,15.8-16.5,22.6-25.7c0.4-0.5,0.7-0.9,0.3-1.6c-8-14.9-13.4-30.8-17.6-47.1
		c-4-15.3-6.9-30.9-9-46.6c-1.4-10.6-2.4-21.2-3.6-31.8c-0.1-0.8-0.3-1.1-1.1-1c-0.3,0-0.6,0-1,0c-29.8,0-59.7,0-89.5,0
		c-1,0-2.1,0.2-3,0.6c-3.9,1.6-7.7,3.3-11.6,4.9c-0.3,0.1-0.7,0.2-1.1,0.4c-2-4.3-4-8.6-6-13.1c37.4,0,74.6,0,112,0
		c-2-21.2-3.9-42.3-5.9-63.6c10.3,3.9,20.4,7.8,30.7,11.8c-1.7,1.9-3.3,3.8-4.9,5.6c-0.5,0.6-1,1.3-1.6,1.8c-1.6,1.3-1.9,3-1.8,5
		c0.2,12.8,1,25.6,2.3,38.4c0,0.3,0.1,0.6,0.2,1c0.5,0,0.9,0,1.3,0c20.7,0,41.4,0,62.2,0c0.8,0,1.4-0.2,2-0.8
		c4.9-4.9,9.8-9.8,14.7-14.7c0.3-0.3,0.6-0.7,0.7-0.9c7.9,7.9,15.7,15.7,23.5,23.5c-34.7,0-69.5,0-104.4,0c0.1,1.6,0.2,3.1,0.4,4.6
		c1,8.7,1.9,17.4,3,26.1c2.7,19.9,6.3,39.7,12.7,58.8c2.2,6.6,4.8,13,8.1,19.2c0.1,0.2,0.2,0.4,0.4,0.7c0.5-0.7,0.9-1.4,1.3-2
		c7.4-11.6,13.1-24,18.4-36.7c6.4-15.5,12.1-31.2,17.5-47.1c0.1-0.4,0.3-0.7,0.4-1.2c8.3,6.3,16.5,12.5,24.8,18.9
		c-2.8,1.6-5.4,3.2-8.2,4.5c-1.8,0.9-2.8,2.2-3.6,4c-8.8,21.1-18.6,41.7-30.4,61.3c-3.1,5.1-6.3,10-9.6,15.1
		c14.4,17,30.8,31.8,51.7,41.1c4.7-16.9,9.4-33.7,14.1-50.6c1.6,0.4,3.1,0.8,4.8,1.2c-0.3,2.5-0.6,4.9-0.9,7.3
		c-1.1,10.3-2.3,20.6-3.3,30.9c-0.4,3.9-0.5,7.7-0.5,11.6c0.1,7.3,2.1,14.1,5.6,20.5c0.4,0.7,0.7,1.3,1,2.1c0.7,2-0.1,3.3-2.2,3.4
		c-1.9,0.1-3.9,0-5.7-0.4c-16.2-3.5-31-10-44.3-20c-12.2-9.2-22.8-20.1-32.4-31.8C233.1,256.6,232.8,256.2,232.5,255.8z"/>
	<path d="M232.4,51.8c1.1-1,2.1-2.1,3.3-3c0.2-0.2,0.8-0.2,1,0c10.6,6.2,21.3,12.3,30.9,20.1c1.7,1.4,3.2,2.9,4.5,4.6
		c5,6,4.9,12.1,0.6,18.7c-1.6,2.4-3.7,4.3-6.1,5.8c-3.1,2-5.7,1.5-7.7-1.7c-0.9-1.5-1.8-3.2-2.2-4.9c-1.8-6.6-4.8-12.6-8.6-18.2
		c-4.7-6.9-9.8-13.6-14.8-20.4C233,52.6,232.8,52.3,232.4,51.8z"/>
</g>
</svg>
