<?xml version="1.0" encoding="utf-8"?>
<!-- Generator: Adobe Illustrator 20.1.0, SVG Export Plug-In . SVG Version: 6.00 Build 0)  -->
<svg version="1.1" id="图层_1" xmlns="http://www.w3.org/2000/svg" xmlns:xlink="http://www.w3.org/1999/xlink" x="0px" y="0px"
	 viewBox="0 0 360 360" style="enable-background:new 0 0 360 360;" xml:space="preserve">
<style type="text/css">
	.st0{fill:#FFFFFF;}
</style>
<g>
	<path class="st0" d="M0.2,360.5c0-120.1,0-240.2,0-360.2c120.1,0,240.2,0,360.2,0c0,120.1,0,240.2,0,360.2
		C240.4,360.5,120.3,360.5,0.2,360.5z M91.2,68.4c0,0.7,0,1.2,0,1.6c0.1,3.7,0.3,7.4,0.4,11.1c0.2,8.5,0.5,16.9,0.5,25.4
		c0.1,12.9,0.1,25.8,0.1,38.6c-0.1,15.6-1.5,31.1-3.9,46.4c-3.2,20.3-7.9,40.3-14.6,59.7C68,267.5,61,282.9,51.6,297.3
		c-2,3.1-4.2,6.1-6.2,9c1.1,1.2,2.3,2.4,3.4,3.5c0.1,0,0.2,0,0.2-0.1c0.2-0.2,0.4-0.5,0.7-0.7C64.1,293,76,275.1,85.2,255.5
		c13-27.8,19.9-57.2,22.5-87.7c1-11.2,1.3-22.5,1.2-33.8c0-1,0-2,0-3c52.6,0,105.1,0,157.7,0c0,4.3,0,8.5,0,12.7c0.2,0,0.3,0,0.4,0
		c5.6-2.2,11.1-4.4,16.7-6.7c0.3-0.1,0.6-0.7,0.5-1.1c-1-14.7-1.1-29.5-1.1-44.2c0-0.7,0.2-1,0.8-1.3c2.9-1.6,5.9-3.2,8.8-4.9
		c0.3-0.2,0.6-0.4,1-0.6c-6-5.6-11.8-11-17.9-16.7c-0.3,0.4-0.5,0.8-0.8,1.1c-2.9,2.9-5.8,5.8-8.6,8.7c-0.7,0.7-1.5,1-2.5,1
		c-50.4,0-100.8,0-151.2,0c-2.7,0-5.1-0.6-7.4-2C100.8,74,96.1,71.3,91.2,68.4z M165.3,43.6c1.8,1.9,3.5,3.6,5.1,5.4
		c5.8,6.4,10.9,13.2,14,21.3c0.8,2.1,2.2,4.1,3.6,5.9c1.7,2.1,3.6,2.3,6,1c0.7-0.4,1.5-0.8,2.1-1.4c2.7-2.5,4.6-5.5,5.6-9
		c0.8-2.9,0.3-5.6-1.2-8.2c-1.2-2-2.9-3.5-4.8-4.8c-4.9-3.4-10.3-6-15.8-8.5c-4-1.8-8.1-3.5-12.2-5.3
		C166.9,41.3,166.1,42.5,165.3,43.6z"/>
	<path d="M91.2,68.4c4.9,2.9,9.6,5.6,14.2,8.6c2.3,1.5,4.6,2.1,7.4,2C163.2,79,213.6,79,264,79c1,0,1.8-0.3,2.5-1
		c2.8-2.9,5.8-5.8,8.6-8.7c0.3-0.3,0.5-0.7,0.8-1.1c6.1,5.7,11.9,11.1,17.9,16.7c-0.4,0.2-0.7,0.4-1,0.6c-2.9,1.6-5.9,3.3-8.8,4.9
		c-0.6,0.3-0.8,0.6-0.8,1.3c0,14.8,0.1,29.5,1.1,44.2c0,0.4-0.3,1-0.5,1.1c-5.5,2.3-11.1,4.5-16.7,6.7c-0.1,0-0.2,0-0.4,0
		c0-4.2,0-8.4,0-12.7c-52.6,0-105.1,0-157.7,0c0,1,0,2,0,3c0.1,11.3-0.2,22.5-1.2,33.8c-2.6,30.5-9.5,59.9-22.5,87.7
		C76,275.1,64.1,293,49.6,309c-0.2,0.2-0.4,0.5-0.7,0.7c-0.1,0.1-0.1,0.1-0.2,0.1c-1.1-1.2-2.2-2.3-3.4-3.5c2-2.9,4.2-5.9,6.2-9
		c9.4-14.3,16.5-29.7,22.1-45.9c6.7-19.4,11.5-39.4,14.6-59.7c2.4-15.4,3.9-30.9,3.9-46.4c0.1-12.9,0-25.8-0.1-38.6
		c-0.1-8.5-0.3-16.9-0.5-25.4c-0.1-3.7-0.2-7.4-0.4-11.1C91.2,69.6,91.2,69.1,91.2,68.4z M108.9,123.7c52.6,0,105.1,0,157.6,0
		c0-12.6,0-25,0-37.5c-52.6,0-105.1,0-157.6,0C108.9,98.8,108.9,111.2,108.9,123.7z"/>
	<path d="M165.3,43.6c0.8-1.2,1.6-2.3,2.4-3.6c4.1,1.8,8.2,3.5,12.2,5.3c5.5,2.5,10.8,5.1,15.8,8.5c1.9,1.3,3.6,2.8,4.8,4.8
		c1.6,2.5,2.1,5.3,1.2,8.2c-1,3.5-2.9,6.6-5.6,9c-0.6,0.6-1.3,1-2.1,1.4c-2.4,1.2-4.3,1.1-6-1c-1.4-1.8-2.8-3.7-3.6-5.9
		c-3.1-8.1-8.2-14.9-14-21.3C168.8,47.3,167.1,45.5,165.3,43.6z"/>
	<path class="st0" d="M108.9,123.7c0-12.5,0-25,0-37.5c52.5,0,105.1,0,157.6,0c0,12.5,0,24.9,0,37.5
		C214.1,123.7,161.5,123.7,108.9,123.7z"/>
</g>
</svg>
