<?xml version="1.0" encoding="utf-8"?>
<!-- Generator: Adobe Illustrator 20.1.0, SVG Export Plug-In . SVG Version: 6.00 Build 0)  -->
<svg version="1.1" id="图层_1" xmlns="http://www.w3.org/2000/svg" xmlns:xlink="http://www.w3.org/1999/xlink" x="0px" y="0px"
	 viewBox="0 0 360 360" style="enable-background:new 0 0 360 360;" xml:space="preserve">
<style type="text/css">
	.st0{fill:#FFFFFF;}
</style>
<g>
	<path class="st0" d="M0.2,360.5c0-120.1,0-240.2,0-360.2c120.1,0,240.2,0,360.2,0c0,120.1,0,240.2,0,360.2
		C240.4,360.5,120.3,360.5,0.2,360.5z M199.6,181.5c-9.9-3.6-19.6-7.1-29.6-10.7c0,1.6,0,3,0,4.4c-0.1,10.3-0.8,20.5-2.4,30.7
		c-1.4,9-3.6,17.8-7.1,26.2c-6.9,16.3-17.9,29.7-30.5,41.9c-7.6,7.3-16.4,12.7-25.7,17.4c-13.9,7.1-28.5,12.4-43.4,17
		c-4.4,1.4-8.8,2.6-13.3,3.9c0,1.4,0,2.7,0,4.1c0,0.2,0,0.4,0.1,0.6c0.2,0,0.4,0,0.5,0c10.4-1.2,20.8-2.9,31.1-5.2
		c15.6-3.6,30.6-8.5,44.8-16c15.7-8.3,29.1-19.3,39.4-33.8c10-14,16.4-29.7,20.5-46.3c1-4.1,1.9-8.2,2.8-12.5
		c0.1,0.4,0.3,0.7,0.4,1.1c3.7,10.6,7.9,21.1,12.9,31.2c8.7,17.4,19.3,33.4,33.2,47.1c13.1,12.9,28.3,22.7,45.5,29
		c4.5,1.7,9.1,3,13.8,4.5c1.1-4.8,4.1-7.7,8.1-9.5c3-1.3,6.1-2.4,9.3-3.2c3.6-0.9,7.2-1.3,10.9-1.9c0-0.7,0-1.4,0-2.2
		c0-0.8,0-1.6,0-2.4c-0.6,0-1-0.1-1.5-0.1c-13-0.4-25.6-2.6-37.9-6.9c-18.6-6.4-34.9-16.8-49.4-30c-4.7-4.3-9.2-8.9-13.8-13.5
		c0.6-0.5,1-0.8,1.5-1.1c11.1-8.2,22.3-16.2,33.3-24.5c5.7-4.3,11.7-7.6,18.7-9.1c1-0.2,2-0.5,3.2-0.8c-6.8-6-13.4-11.8-20-17.7
		c-0.1,0.2-0.2,0.3-0.3,0.4c-3.4,7.4-8.1,14-13.3,20.1c-6.6,7.7-13.5,15.1-20.3,22.6c-1.6,1.8-3.4,3.4-5.2,5.2
		c-2.2-3.3-4.5-6.4-6.6-9.7c-7.6-11.9-13.8-24.5-19.4-37.5c-0.9-2.2-1-2.2,0.8-3.9C193.6,187.5,196.5,184.6,199.6,181.5z
		 M118.4,190.9c-1.4,0-2.6,0.1-3.8,0c-0.8,0-1.2,0.2-1.5,1c-1.4,3.8-2.8,7.6-4.4,11.3C103.5,215,97,226,85.8,233.3
		c-2,1.3-3.6,3-4.7,5.2c-1,2.2-0.7,4.1,0.9,5.8c1.7,1.8,3.9,2.8,6.1,3.6c6.8,2.6,12.9,1,17.8-4.5c4-4.5,6.3-9.8,8.1-15.5
		c2.2-7.4,3.3-15,3.8-22.6C118.1,200.6,118.2,195.9,118.4,190.9z"/>
	<path d="M199.6,181.5c-3.1,3.1-6,6-8.9,8.9c-1.7,1.7-1.7,1.7-0.8,3.9c5.6,13,11.8,25.6,19.4,37.5c2.1,3.3,4.3,6.4,6.6,9.7
		c1.8-1.8,3.6-3.4,5.2-5.2c6.8-7.5,13.7-14.9,20.3-22.6c5.3-6.1,9.9-12.7,13.3-20.1c0-0.1,0.1-0.2,0.3-0.4
		c6.7,5.9,13.2,11.7,20,17.7c-1.2,0.3-2.2,0.6-3.2,0.8c-7,1.5-13,4.8-18.7,9.1c-11,8.3-22.2,16.4-33.3,24.5
		c-0.4,0.3-0.8,0.6-1.5,1.1c4.6,4.5,9.1,9.2,13.8,13.5c14.5,13.2,30.8,23.6,49.4,30c12.3,4.2,24.9,6.5,37.9,6.9c0.4,0,0.9,0,1.5,0.1
		c0,0.8,0,1.6,0,2.4c0,0.8,0,1.5,0,2.2c-3.7,0.6-7.4,1-10.9,1.9c-3.2,0.8-6.3,1.8-9.3,3.2c-4,1.8-7.1,4.7-8.1,9.5
		c-4.7-1.5-9.3-2.9-13.8-4.5c-17.3-6.4-32.4-16.1-45.5-29c-13.9-13.7-24.6-29.7-33.2-47.1c-5-10.1-9.2-20.5-12.9-31.2
		c-0.1-0.3-0.2-0.7-0.4-1.1c-0.9,4.2-1.8,8.4-2.8,12.5c-4.1,16.6-10.6,32.2-20.5,46.3c-10.3,14.5-23.7,25.5-39.4,33.8
		c-14.2,7.5-29.2,12.5-44.8,16c-10.3,2.4-20.6,4-31.1,5.2c-0.2,0-0.3,0-0.5,0c0-0.2-0.1-0.4-0.1-0.6c0-1.4,0-2.7,0-4.1
		c4.5-1.3,8.9-2.6,13.3-3.9c14.9-4.6,29.5-9.9,43.4-17c9.3-4.7,18.2-10.1,25.7-17.4c12.6-12.2,23.6-25.6,30.5-41.9
		c3.6-8.4,5.7-17.2,7.1-26.2c1.6-10.2,2.4-20.4,2.4-30.7c0-1.4,0-2.8,0-4.4C180,174.4,189.7,177.9,199.6,181.5z"/>
	<path d="M118.4,190.9c-0.2,5-0.3,9.7-0.6,14.5c-0.5,7.7-1.5,15.3-3.8,22.6c-1.7,5.7-4.1,11-8.1,15.5c-4.8,5.5-10.9,7-17.8,4.5
		c-2.3-0.9-4.4-1.9-6.1-3.6c-1.7-1.7-2-3.6-0.9-5.8c1.1-2.2,2.7-3.9,4.7-5.2c11.3-7.3,17.7-18.3,22.9-30.2c1.6-3.7,3-7.5,4.4-11.3
		c0.3-0.8,0.7-1.1,1.5-1C115.8,191,116.9,190.9,118.4,190.9z"/>
</g>
</svg>
