<?xml version="1.0" encoding="utf-8"?>
<!-- Generator: Adobe Illustrator 20.1.0, SVG Export Plug-In . SVG Version: 6.00 Build 0)  -->
<svg version="1.1" id="图层_1" xmlns="http://www.w3.org/2000/svg" xmlns:xlink="http://www.w3.org/1999/xlink" x="0px" y="0px"
	 viewBox="0 0 360 360" style="enable-background:new 0 0 360 360;" xml:space="preserve">
<style type="text/css">
	.st0{fill:#FFFFFF;}
</style>
<g>
	<path class="st0" d="M0.2,360.5c0-120.1,0-240.2,0-360.2c120.1,0,240.2,0,360.2,0c0,120.1,0,240.2,0,360.2
		C240.4,360.5,120.3,360.5,0.2,360.5z M75.9,318.5c9.3-2.9,18.5-5.6,27.5-8.7c17.4-6,34-13.8,49.3-24.1c18-12.1,31.9-27.8,41.5-47.3
		c8.1-16.6,13.2-34.1,16.6-52.1c0.6-3.3,1.2-6.6,1.8-10.3c0.2,0.7,0.3,1,0.4,1.4c3.3,12.2,7,24.3,11.5,36.2
		c7.4,19.7,16.5,38.6,28.8,55.9c10.1,14.3,22,26.8,36.4,36.9c1.8,1.2,3.6,2.4,5.4,3.6c5.9-10,14.8-14.2,25.9-14.2c0-1.4,0-2.6,0-3.7
		c0-0.8-0.2-1.1-1-1.3c-7.4-1.8-14.6-4.5-21.3-8.1c-13.9-7.3-25.5-17.4-35.7-29.2c-10.8-12.4-19.6-26.1-27.4-40.4
		c-0.6-1.1-1.1-2.2-1.7-3.2c0.3-0.2,0.6-0.4,0.8-0.6c16.8-12.1,33.7-24.2,50.4-36.5c2.8-2,5.6-3.7,9-4.4c2.7-0.5,5.3-1.4,8.1-2.2
		c-7.6-7.2-15-14.2-22.4-21.2c-12.9,22.3-30,41-48.2,58.8c-0.2-0.3-0.3-0.4-0.4-0.5c-0.9-1.6-1.7-3.1-2.5-4.8
		c-5.3-10.6-9.2-21.8-12.5-33.1c-0.7-2.5-1.2-5-0.9-7.6c0.2-1.2,0.1-2.4,0.2-3.6c0.6-8.3,1.2-16.6,1.9-24.9c0-0.4,0.4-1,0.7-1.2
		c2.5-2,5.1-3.9,7.7-5.8c0.3-0.2,0.6-0.5,1.1-0.9c-10.3-4.3-20.4-8.6-30.6-12.9c0,0.3-0.1,0.4-0.1,0.5c0.7,11.8,0.8,23.6,0.4,35.4
		c-0.5,15.2-1.9,30.3-4.3,45.3c-3.2,19.8-9.8,38.4-20.2,55.6c-5.2,8.7-11.1,16.8-18.5,23.7c-8.7,8.1-18.4,14.9-28.6,20.9
		c-15.6,9.1-32,16.5-48.8,23c-0.4,0.2-0.9,0.4-1.3,0.5C75,315.1,75.4,316.6,75.9,318.5z M171.3,160.3c-1.4,0-2.5,0.1-3.6,0
		c-1-0.1-1.4,0.3-1.7,1.2c-1.7,4.7-3.4,9.4-5.3,14c-3.2,7.5-7.1,14.6-12.7,20.6c-2.6,2.8-5.7,5.2-8.5,7.9c-2.1,2-4,4.1-5.2,6.8
		c-0.8,1.9-0.9,3.9,0.2,5.8c2.2,3.8,7.8,6.3,12.1,5.4c3.8-0.8,6.7-3,9.2-5.7c4.7-4.9,7.3-11,9.2-17.4c2.2-7.8,3.5-15.7,4.6-23.7
		C170.3,170.2,170.8,165.3,171.3,160.3z"/>
	<path d="M75.9,318.5c-0.5-1.9-0.9-3.4-1.3-5c0.4-0.2,0.9-0.4,1.3-0.5c16.8-6.6,33.2-13.9,48.8-23c10.2-6,19.9-12.7,28.6-20.9
		c7.4-6.9,13.3-15.1,18.5-23.7c10.4-17.2,17-35.8,20.2-55.6c2.4-15,3.8-30.1,4.3-45.3c0.4-11.8,0.3-23.6-0.4-35.4
		c0-0.1,0-0.2,0.1-0.5c10.2,4.3,20.3,8.6,30.6,12.9c-0.4,0.4-0.7,0.6-1.1,0.9c-2.6,1.9-5.1,3.8-7.7,5.8c-0.4,0.3-0.7,0.8-0.7,1.2
		c-0.7,8.3-1.3,16.6-1.9,24.9c-0.1,1.2-0.1,2.4-0.2,3.6c-0.3,2.6,0.2,5.1,0.9,7.6c3.3,11.4,7.2,22.5,12.5,33.1
		c0.8,1.6,1.7,3.2,2.5,4.8c0.1,0.1,0.2,0.3,0.4,0.5c18.2-17.8,35.3-36.5,48.2-58.8c7.5,7.1,14.9,14.1,22.4,21.2
		c-2.8,0.8-5.4,1.6-8.1,2.2c-3.4,0.7-6.2,2.3-9,4.4c-16.8,12.2-33.6,24.3-50.4,36.5c-0.2,0.2-0.4,0.3-0.8,0.6
		c0.6,1.1,1.1,2.2,1.7,3.2c7.8,14.4,16.6,28.1,27.4,40.4c10.2,11.8,21.8,21.9,35.7,29.2c6.8,3.6,13.9,6.3,21.3,8.1
		c0.8,0.2,1.1,0.5,1,1.3c-0.1,1.2,0,2.4,0,3.7c-11.2,0.1-20.1,4.2-25.9,14.2c-1.9-1.2-3.7-2.4-5.4-3.6c-14.4-10-26.3-22.6-36.4-36.9
		c-12.2-17.3-21.3-36.1-28.8-55.9c-4.5-11.9-8.2-23.9-11.5-36.2c-0.1-0.4-0.2-0.8-0.4-1.4c-0.6,3.6-1.2,7-1.8,10.3
		c-3.4,18.1-8.5,35.6-16.6,52.1c-9.6,19.5-23.5,35.2-41.5,47.3c-15.3,10.3-31.9,18.1-49.3,24.1C94.3,312.9,85.2,315.6,75.9,318.5z"
		/>
	<path d="M171.3,160.3c-0.6,5.1-1.1,9.9-1.7,14.7c-1,8-2.3,16-4.6,23.7c-1.9,6.4-4.5,12.5-9.2,17.4c-2.6,2.7-5.5,4.9-9.2,5.7
		c-4.3,0.9-9.9-1.6-12.1-5.4c-1.1-1.9-1-3.8-0.2-5.8c1.1-2.7,3-4.9,5.2-6.8c2.8-2.6,5.9-5,8.5-7.9c5.6-6,9.5-13.1,12.7-20.6
		c2-4.6,3.6-9.3,5.3-14c0.3-0.9,0.7-1.3,1.7-1.2C168.9,160.4,170,160.3,171.3,160.3z"/>
</g>
</svg>
