<?xml version="1.0" encoding="utf-8"?>
<!-- Generator: Adobe Illustrator 20.1.0, SVG Export Plug-In . SVG Version: 6.00 Build 0)  -->
<svg version="1.1" id="图层_1" xmlns="http://www.w3.org/2000/svg" xmlns:xlink="http://www.w3.org/1999/xlink" x="0px" y="0px"
	 viewBox="0 0 360 360" style="enable-background:new 0 0 360 360;" xml:space="preserve">
<style type="text/css">
	.st0{fill:#FFFFFF;}
</style>
<g>
	<path class="st0" d="M0.2,360.5c0-120.1,0-240.2,0-360.2c120.1,0,240.2,0,360.2,0c0,120.1,0,240.2,0,360.2
		C240.4,360.5,120.3,360.5,0.2,360.5z M62.8,193.2c0.4,0,0.7,0,0.9-0.1c17.6-3.9,34.6-9.4,50.6-17.7c15.4-7.9,29-18,40.5-31
		c13.5-15.3,22.5-33.1,28-52.7c0.9-3.3,1.7-6.5,2.6-10.1c15.7,52.3,49.3,86.8,101.2,103.4c1.3-5.4,5-8.6,9.5-11.1
		c4.3-2.3,8.9-3.7,13.6-4.8c3.1-0.7,3.1-0.7,2.8-3.9c0,0,0-0.1-0.1-0.2c-0.3,0-0.7,0-1.1-0.1c-4.5-0.4-9.1-0.5-13.6-1.2
		c-12.6-1.9-24.5-6.1-35.9-11.8c-14.2-7-27.1-15.9-39.3-25.8c-1-0.8-1.9-1.6-2.9-2.4c0.4-0.3,0.7-0.5,1-0.7
		c11.3-7,22.6-14,33.9-21.1c6.3-3.9,12.6-7.9,19.6-10.5c3.3-1.2,6.6-2.2,10-3.3c-7-6.6-14-13.2-20.9-19.7c-1.9,2.9-3.6,5.8-5.5,8.6
		c-2,2.8-4.1,5.4-6.3,8c-9.2,10.7-19.6,20.1-30.1,29.3c-1.7,1.5-3.5,3-5.2,4.5c-0.2-0.2-0.3-0.2-0.4-0.3c-0.7-0.9-1.4-1.7-2.1-2.6
		c-8.9-11.2-16.4-23.2-21.9-36.3c-0.9-2.2-1.6-4.4-2.3-6.7c-1.6-5.3,0-10,3.1-14.3c1.4-1.9,3-3.7,4.6-5.7c-8.9-3.5-17.9-7-27-10.6
		c0,0.6,0,0.9,0,1.3c-0.3,6.9-0.3,13.8-0.9,20.7c-1,12.4-3.7,24.4-7.9,36.1c-4.9,13.6-11.5,26.3-20.8,37.4
		c-9.5,11.4-21,20.5-33.6,28.4c-14,8.8-28.9,15.8-44.3,21.9c-0.3,0.1-0.6,0.3-1,0.4C62,190.2,62.4,191.7,62.8,193.2z M117.2,68.4
		c-1.6,0-2.9-0.1-4.2,0c-0.4,0-0.8,0.4-1,0.8c-0.9,1.8-1.7,3.7-2.6,5.5c-4.1,8.2-8.3,16.4-13.7,23.9c-2.7,3.8-5.8,7.2-9.9,9.6
		c-1,0.6-1.9,1.3-2.7,2.1c-2.1,2.1-3.4,4.5-2.5,7.5c1.2,4.1,5.2,7.2,9.5,7.2c6.7-0.1,12-3,16.1-8.1c3.7-4.5,5.9-9.8,7.5-15.4
		c2-7.1,2.8-14.3,3.2-21.6C117,76.1,117,72.3,117.2,68.4z"/>
	<path d="M62.8,193.2c-0.4-1.6-0.8-3.1-1.2-4.6c0.3-0.2,0.6-0.3,1-0.4c15.4-6.1,30.3-13,44.3-21.9c12.5-7.9,24-17,33.6-28.4
		c9.3-11.2,15.9-23.8,20.8-37.4c4.2-11.7,6.9-23.7,7.9-36.1c0.6-6.9,0.6-13.8,0.9-20.7c0-0.4,0-0.7,0-1.3c9.1,3.6,18.1,7.1,27,10.6
		c-1.6,1.9-3.2,3.7-4.6,5.7c-3.1,4.3-4.6,9-3.1,14.3c0.7,2.3,1.4,4.5,2.3,6.7c5.5,13.2,13,25.2,21.9,36.3c0.7,0.9,1.4,1.7,2.1,2.6
		c0.1,0.1,0.2,0.2,0.4,0.3c1.7-1.5,3.5-3,5.2-4.5c10.6-9.2,20.9-18.7,30.1-29.3c2.2-2.6,4.4-5.2,6.3-8c2-2.8,3.7-5.7,5.5-8.6
		c6.9,6.5,13.9,13.2,20.9,19.7c-3.4,1.1-6.8,2.1-10,3.3c-7,2.6-13.3,6.6-19.6,10.5c-11.3,7.1-22.6,14-33.9,21.1
		c-0.3,0.2-0.6,0.4-1,0.7c1,0.8,2,1.6,2.9,2.4c12.2,9.9,25.2,18.8,39.3,25.8c11.4,5.6,23.3,9.9,35.9,11.8c4.5,0.7,9.1,0.8,13.6,1.2
		c0.4,0,0.8,0,1.1,0.1c0.1,0.1,0.1,0.2,0.1,0.2c0.3,3.2,0.3,3.2-2.8,3.9c-4.7,1.1-9.3,2.5-13.6,4.8c-4.5,2.5-8.2,5.7-9.5,11.1
		c-52-16.6-85.5-51.1-101.2-103.4c-0.9,3.5-1.7,6.8-2.6,10.1c-5.5,19.6-14.5,37.3-28,52.7c-11.5,13-25.2,23.1-40.5,31
		c-16,8.3-33.1,13.8-50.6,17.7C63.5,193.2,63.2,193.2,62.8,193.2z"/>
	<path d="M117.2,68.4c-0.1,3.9-0.2,7.7-0.4,11.4c-0.4,7.3-1.3,14.6-3.2,21.6c-1.6,5.6-3.7,10.9-7.5,15.4c-4.2,5.1-9.5,8.1-16.1,8.1
		c-4.3,0-8.3-3.1-9.5-7.2c-0.9-3.1,0.3-5.5,2.5-7.5c0.8-0.8,1.7-1.6,2.7-2.1c4.1-2.3,7.2-5.8,9.9-9.6c5.4-7.5,9.7-15.6,13.7-23.9
		c0.9-1.8,1.7-3.7,2.6-5.5c0.2-0.3,0.6-0.7,1-0.8C114.3,68.3,115.6,68.4,117.2,68.4z"/>
</g>
</svg>
