<?xml version="1.0" encoding="utf-8"?>
<!-- Generator: Adobe Illustrator 20.1.0, SVG Export Plug-In . SVG Version: 6.00 Build 0)  -->
<svg version="1.1" id="图层_1" xmlns="http://www.w3.org/2000/svg" xmlns:xlink="http://www.w3.org/1999/xlink" x="0px" y="0px"
	 viewBox="0 0 360 360" style="enable-background:new 0 0 360 360;" xml:space="preserve">
<style type="text/css">
	.st0{fill:#FFFFFF;}
</style>
<g>
	<path class="st0" d="M0.2,360.5c0-120.1,0-240.2,0-360.2c120.1,0,240.2,0,360.2,0c0,120.1,0,240.2,0,360.2
		C240.4,360.5,120.3,360.5,0.2,360.5z M110,220.5c0.4,0.3,0.7,0.5,1,0.7c11.3,9.3,19.9,20.6,25.9,34c2.1,4.7,4.7,9.2,7.2,13.6
		c0.7,1.3,1.8,2.4,2.9,3.4c1.8,1.7,3.7,1.7,5.4-0.1c0.9-0.9,1.8-2.1,2.4-3.3c2.9-6.3,2.8-12.6-0.3-18.8c-3.6-7.3-9.1-13.1-15.5-18.1
		c-8.3-6.5-17.4-11.9-26.7-17c-0.8-0.4-1-0.8-0.9-1.7c0.9-8.8,2.1-17.5,2.7-26.3c0.8-13.2,1.3-26.4,1.9-39.6c0-0.8,0.3-1.4,1-1.9
		c9.5-7.4,19.1-14.8,28.5-22.3c5.9-4.7,12-9.1,19.1-12c0.3-0.1,0.5-0.3,0.9-0.4c-6.7-5.5-13.3-11-20-16.5
		c-7.1,16.6-17.7,30.8-29.3,44.6c-0.1-0.4-0.1-0.5-0.1-0.6c0-24.6,0-49.2,0-73.8c0-0.4,0.2-0.9,0.5-1.3c1.6-1.9,3.2-3.7,4.8-5.5
		c1-1.1,1.9-2.2,2.9-3.4c-8.7-3.6-17.3-7.1-26-10.6c0,0.4,0,0.6,0,0.8c0.2,11.5,0.5,22.9,0.7,34.4c0.2,9.5,0.3,19,0.5,28.5
		c0.2,10.5,0.4,21,0.5,31.5c0.1,9,0.1,18.1,0.1,27.1c0,5.2-0.3,10.5-0.6,15.7c-0.7,12.1-2,24.1-4,36c-1.4,8.3-3,16.7-5.7,24.7
		c-4.9,15.1-12.4,28.9-21.4,41.9c-5.4,7.8-11.3,15.2-17.5,22.4c-0.3,0.4-0.7,0.9-0.7,1.3c0.2,1.4,0.7,2.8,1.1,4.4
		C81.6,288.6,101.8,258.5,110,220.5z M69.9,116.7c-0.1,0.4-0.2,0.8-0.3,1.2c-2.4,8.9-5,17.7-8.9,26.2c-2.5,5.3-5.5,10.3-10,14.2
		c-1.5,1.3-2.7,3.1-3.9,4.8c-1,1.4-1.4,3.1-1.1,4.9c0.8,4.4,5.3,7.8,9.8,7.1c5.9-0.9,10.2-4.2,13.3-9.1c3.4-5.3,4.7-11.2,5-17.3
		c0.5-10.5,0.6-20.9,0.8-31.4c0-0.1-0.1-0.3-0.1-0.5C73,116.7,71.5,116.7,69.9,116.7z"/>
	<path d="M110,220.5c-8.2,38-28.4,68.1-58.9,91.8c-0.4-1.6-0.8-3-1.1-4.4c-0.1-0.4,0.4-0.9,0.7-1.3c6.2-7.2,12.1-14.6,17.5-22.4
		c9-13,16.5-26.8,21.4-41.9c2.6-8.1,4.2-16.4,5.7-24.7c2.1-11.9,3.3-23.9,4-36c0.3-5.2,0.5-10.5,0.6-15.7c0.1-9,0-18.1-0.1-27.1
		c-0.1-10.5-0.3-21-0.5-31.5c-0.2-9.5-0.3-19-0.5-28.5c-0.2-11.5-0.4-22.9-0.7-34.4c0-0.2,0-0.4,0-0.8c8.7,3.6,17.3,7.1,26,10.6
		c-1,1.2-2,2.3-2.9,3.4c-1.6,1.8-3.2,3.7-4.8,5.5c-0.3,0.3-0.5,0.8-0.5,1.3c0,24.6,0,49.2,0,73.8c0,0.1,0,0.2,0.1,0.6
		c11.6-13.8,22.2-28,29.3-44.6c6.7,5.5,13.3,10.9,20,16.5c-0.3,0.2-0.6,0.3-0.9,0.4c-7.1,2.9-13.2,7.3-19.1,12
		c-9.4,7.5-19,14.9-28.5,22.3c-0.7,0.5-0.9,1-1,1.9c-0.6,13.2-1,26.4-1.9,39.6c-0.6,8.8-1.7,17.6-2.7,26.3c-0.1,0.9,0.1,1.3,0.9,1.7
		c9.3,5.1,18.3,10.5,26.7,17c6.4,5,11.8,10.7,15.5,18.1c3.1,6.3,3.2,12.5,0.3,18.8c-0.6,1.2-1.4,2.3-2.4,3.3
		c-1.8,1.7-3.6,1.7-5.4,0.1c-1.1-1-2.2-2.1-2.9-3.4c-2.5-4.5-5.1-9-7.2-13.6c-6-13.4-14.6-24.7-25.9-34
		C110.7,221,110.4,220.8,110,220.5z"/>
	<path d="M69.9,116.7c1.6,0,3.1,0,4.6,0c0,0.2,0.1,0.3,0.1,0.5c-0.2,10.5-0.3,20.9-0.8,31.4c-0.3,6.1-1.6,12-5,17.3
		c-3.1,4.9-7.4,8.2-13.3,9.1c-4.5,0.7-9-2.6-9.8-7.1c-0.3-1.8,0.1-3.5,1.1-4.9c1.1-1.7,2.3-3.5,3.9-4.8c4.5-3.9,7.6-8.8,10-14.2
		c3.9-8.4,6.5-17.2,8.9-26.2C69.7,117.5,69.8,117.1,69.9,116.7z"/>
</g>
</svg>
