<?xml version="1.0" encoding="utf-8"?>
<!-- Generator: Adobe Illustrator 20.1.0, SVG Export Plug-In . SVG Version: 6.00 Build 0)  -->
<svg version="1.1" id="图层_1" xmlns="http://www.w3.org/2000/svg" xmlns:xlink="http://www.w3.org/1999/xlink" x="0px" y="0px"
	 viewBox="0 0 360 360" style="enable-background:new 0 0 360 360;" xml:space="preserve">
<style type="text/css">
	.st0{fill:#FFFFFF;}
</style>
<g>
	<path class="st0" d="M0.2,360.5c0-120.1,0-240.2,0-360.2c120.1,0,240.2,0,360.2,0c0,120.1,0,240.2,0,360.2
		C240.4,360.5,120.3,360.5,0.2,360.5z M315.9,72c-7.1-7.1-14.1-14.1-21.1-21.1c-0.2,0.2-0.5,0.4-0.8,0.7c-4.1,4.1-8.2,8.1-12.2,12.2
		c-0.7,0.7-1.4,1-2.4,1c-34.8,0-69.5,0-104.3,0c-0.5,0-0.9,0-1.7,0c2.4,2.4,4.5,4.5,6.6,6.6c1,1,1.8,2.4,3,2.7
		c1.2,0.3,2.7-0.4,4.1-0.6c2.9-0.5,5.7-1.4,8.6-1.5c13-0.2,25.9-0.1,38.9-0.1c0.4,0,0.9,0,1.3,0c0,0.7,0,1.2,0,1.7
		c-1.1,16.1-2.1,32.3-3.3,48.4c-1,13.9-2.5,27.7-4.6,41.5c-0.2,1.1-0.5,1.5-1.6,1.4c-10.4,0-20.9,0-31.3,0c-0.4,0-0.9,0-1.3,0
		c0-0.3,0-0.4,0-0.6c1-7.9,2-15.9,2.9-23.8c1.4-11.5,2.7-23.1,4-34.7c0.1-0.5,0.4-1.2,0.9-1.5c2.3-1.8,4.7-3.6,7.1-5.3
		c0.5-0.4,1-0.8,1.6-1.2c-8.3-4.8-16.5-9.4-24.8-14.2c0,0.5,0,0.8,0,1c-0.1,4.1-0.1,8.2-0.3,12.3c-0.7,10.4-1.4,20.9-2.3,31.3
		c-0.9,10-2,19.9-3.1,29.8c-0.1,0.6-0.5,1.2-0.9,1.6c-2.4,2.1-4.9,4.2-7.2,6.2c4.8,4.8,9.5,9.5,14.2,14.2c2.4-2.4,4.8-4.8,7.3-7.3
		c0.6-0.6,1.1-0.8,2-0.8c10.2,0,20.3,0,30.5,0c0.4,0,0.8,0,1.2,0c0,0.3,0,0.5-0.1,0.7c-2.7,15-6.6,29.6-12.1,43.8
		c-9.1,23.1-22.1,43.6-39.6,61.3c-11.9,12-25.3,22-39.9,30.5c-1.6,0.9-3.2,1.8-4.8,2.7c0.2,0.7,0.4,1.2,0.6,1.8
		c0.2,0.6,0.4,1.2,0.6,1.8c0.7-0.3,1.2-0.5,1.7-0.7c9.6-3.8,18.9-8.2,27.8-13.5c21.4-12.8,39.1-29.5,52.8-50.4
		c11.3-17.2,19-35.9,24.4-55.7c0.5-1.9,1-3.8,1.5-5.7c0.1,0,0.1,0,0.2,0c0,0.5,0,1,0,1.4c0,31,0,62.1,0,93.1c0,2.3,0.2,4.6,0.5,6.9
		c1.3,9.5,7.7,15.5,17.3,16c4.7,0.3,9.4,0.2,14.1,0.2c8.5,0,17,0.1,25.5-0.2c7.4-0.3,13.7-2.9,18.1-9.2c1.6-2.3,3.1-4.7,4.7-7
		c-0.4-0.3-0.6-0.5-0.8-0.6c-6.6-4.6-10.5-10.8-11.6-18.8c-1.2-8.1-1.6-16.2-1.7-24.4c0-2.3,0-4.6,0-7c-1.8,0-3.4,0-4.9,0
		c-0.9,0-1.1,0.2-1.2,1.1c-0.8,12.5-1.6,25-2.5,37.4c-0.2,3.2-0.7,6.4-2.1,9.4c-1.4,3.1-3.6,5.2-7,5.9c-0.6,0.1-1.2,0.2-1.8,0.2
		c-6.9,0-13.8,0.1-20.6-0.1c-5.7-0.2-9.2-3.5-10.3-9.1c-0.2-1.1-0.3-2.3-0.3-3.5c0-25.2,0-50.4-0.1-75.6c0-1.7,0.5-2.9,1.8-3.9
		c2.2-1.7,4.2-3.6,6.4-5.5c-0.4-0.3-0.7-0.4-1.1-0.6c-6.8-3.6-13.6-7.2-20.5-10.8c-0.6-0.3-0.9-0.7-0.7-1.4c0.3-1.4,0.6-2.7,0.8-4.1
		c0.4-2.2,0.9-4.4,1.4-6.8c25.1,0,50.1,0,75.1,0c-7-7-14-14-21.2-21.2c-0.2,0.3-0.4,0.7-0.7,1c-4.1,4.1-8.2,8.2-12.3,12.3
		c-0.6,0.6-1.2,0.9-2.1,0.9c-12.1,0-24.2,0-36.2,0c-0.4,0-0.8,0-1.3-0.1c4.7-30.9,6.3-61.9,8.2-92.9C273.7,72,294.8,72,315.9,72z"/>
	<path d="M315.9,72c-21.1,0-42.1,0-63.3,0c-1.9,31-3.5,62.1-8.2,92.9c0.4,0,0.8,0.1,1.3,0.1c12.1,0,24.2,0,36.2,0
		c0.9,0,1.5-0.3,2.1-0.9c4.1-4.1,8.2-8.2,12.3-12.3c0.3-0.3,0.5-0.7,0.7-1c7.2,7.2,14.2,14.2,21.2,21.2c-24.9,0-49.9,0-75.1,0
		c-0.5,2.3-0.9,4.5-1.4,6.8c-0.3,1.4-0.5,2.8-0.8,4.1c-0.2,0.7,0,1.1,0.7,1.4c6.8,3.6,13.6,7.2,20.5,10.8c0.3,0.2,0.6,0.3,1.1,0.6
		c-2.2,1.9-4.2,3.8-6.4,5.5c-1.4,1-1.9,2.2-1.8,3.9c0.1,25.2,0,50.4,0.1,75.6c0,1.2,0.1,2.3,0.3,3.5c1.1,5.6,4.6,8.9,10.3,9.1
		c6.9,0.2,13.8,0.1,20.6,0.1c0.6,0,1.2-0.1,1.8-0.2c3.4-0.7,5.6-2.9,7-5.9c1.4-3,1.9-6.2,2.1-9.4c0.9-12.5,1.7-25,2.5-37.4
		c0.1-0.9,0.3-1.2,1.2-1.1c1.6,0.1,3.1,0,4.9,0c0,2.4,0,4.7,0,7c0.2,8.2,0.6,16.3,1.7,24.4c1.2,8,5.1,14.2,11.6,18.8
		c0.2,0.1,0.4,0.3,0.8,0.6c-1.6,2.3-3.1,4.7-4.7,7c-4.4,6.3-10.8,8.9-18.1,9.2c-8.5,0.3-17,0.2-25.5,0.2c-4.7,0-9.4,0.1-14.1-0.2
		c-9.5-0.5-16-6.6-17.3-16c-0.3-2.3-0.5-4.6-0.5-6.9c0-31,0-62.1,0-93.1c0-0.5,0-1,0-1.4c-0.1,0-0.1,0-0.2,0c-0.5,1.9-1,3.8-1.5,5.7
		c-5.3,19.8-13.1,38.5-24.4,55.7c-13.7,20.9-31.4,37.6-52.8,50.4c-8.9,5.3-18.1,9.8-27.8,13.5c-0.5,0.2-1,0.4-1.7,0.7
		c-0.2-0.6-0.4-1.2-0.6-1.8c-0.2-0.6-0.4-1.1-0.6-1.8c1.6-0.9,3.2-1.8,4.8-2.7c14.6-8.4,28-18.5,39.9-30.5
		c17.5-17.6,30.5-38.2,39.6-61.3c5.6-14.2,9.5-28.8,12.1-43.8c0-0.2,0-0.4,0.1-0.7c-0.4,0-0.8,0-1.2,0c-10.2,0-20.3,0-30.5,0
		c-0.8,0-1.4,0.3-2,0.8c-2.4,2.5-4.9,4.9-7.3,7.3c-4.7-4.7-9.4-9.4-14.2-14.2c2.3-2,4.8-4.1,7.2-6.2c0.5-0.4,0.9-1.1,0.9-1.6
		c1.1-9.9,2.2-19.9,3.1-29.8c0.9-10.4,1.6-20.9,2.3-31.3c0.3-4.1,0.2-8.2,0.3-12.3c0-0.3,0-0.5,0-1c8.3,4.7,16.5,9.4,24.8,14.2
		c-0.6,0.5-1.1,0.8-1.6,1.2c-2.4,1.8-4.8,3.5-7.1,5.3c-0.4,0.3-0.8,1-0.9,1.5c-1.4,11.5-2.7,23.1-4,34.7c-0.9,7.9-1.9,15.9-2.9,23.8
		c0,0.1,0,0.3,0,0.6c0.5,0,0.9,0,1.3,0c10.4,0,20.9,0,31.3,0c1.1,0,1.5-0.4,1.6-1.4c2.1-13.8,3.6-27.6,4.6-41.5
		c1.2-16.1,2.2-32.3,3.3-48.4c0-0.5,0-1,0-1.7c-0.5,0-0.9,0-1.3,0c-13,0-25.9-0.1-38.9,0.1c-2.9,0-5.7,1-8.6,1.5
		c-1.4,0.2-2.9,1-4.1,0.6c-1.2-0.3-2-1.7-3-2.7c-2.1-2.1-4.2-4.2-6.6-6.6c0.8,0,1.2,0,1.7,0c34.8,0,69.5,0,104.3,0
		c1,0,1.7-0.3,2.4-1c4-4.1,8.1-8.2,12.2-12.2c0.3-0.3,0.6-0.5,0.8-0.7C301.8,57.9,308.8,64.9,315.9,72z"/>
</g>
</svg>
