<?xml version="1.0" encoding="utf-8"?>
<!-- Generator: Adobe Illustrator 20.1.0, SVG Export Plug-In . SVG Version: 6.00 Build 0)  -->
<svg version="1.1" id="图层_1" xmlns="http://www.w3.org/2000/svg" xmlns:xlink="http://www.w3.org/1999/xlink" x="0px" y="0px"
	 viewBox="0 0 360 360" style="enable-background:new 0 0 360 360;" xml:space="preserve">
<style type="text/css">
	.st0{fill:#FFFFFF;}
</style>
<g>
	<path class="st0" d="M0.2,360.5c0-120.1,0-240.2,0-360.2c120.1,0,240.2,0,360.2,0c0,120.1,0,240.2,0,360.2
		C240.4,360.5,120.3,360.5,0.2,360.5z M122.9,161.6c37,0,73.8,0,110.8,0c0,29.8,0,59.6,0,89.4c5.4-2.7,10.7-5.4,16-8
		c0.2-0.1,0.4-0.6,0.4-1c0-2-0.2-4.1-0.2-6.1c-0.3-10.6-0.6-21.3-0.7-31.9c-0.1-11.5-0.1-23-0.1-34.4c0-0.6,0.3-1.3,0.8-1.7
		c2.7-2.5,5.5-4.9,8.2-7.4c0.5-0.5,1-0.9,1.4-1.3c-5.6-5.5-11-11-16.5-16.5c-0.2,0.2-0.5,0.5-0.8,0.8c-3.3,3.3-6.6,6.6-9.9,9.9
		c-0.6,0.6-1.2,0.8-2,0.8c-34.6,0-69.3,0-103.9,0c-0.7,0-1.4-0.2-2-0.5c-5.5-2.7-11-5.5-16.5-8.2c-0.4-0.2-0.8-0.4-1.3-0.6
		c1.6,36.2,1.5,72.2,0,108.4c0.5-0.3,0.9-0.5,1.2-0.7c4.7-3,9.4-6.1,14.1-9c0.9-0.6,1.2-1.2,1.2-2.2c0-26.1,0-52.2,0-78.2
		C122.9,162.7,122.9,162.2,122.9,161.6z M185.4,213.3c0,0.3,0,0.5,0,0.7c0.4,9.1,1,18.1,1.1,27.2c0.2,14.8,0,29.6,0.1,44.4
		c0,1.4,0,2.8,0.2,4.2c0.7,5.7,3.4,10,8.8,12.4c3.5,1.5,7.2,1.9,11,1.9c28.2,0,56.3,0,84.5,0c7.1,0,13-2.4,17.9-7.5
		c2.5-2.7,4.5-5.7,6.1-9c-0.4-0.2-0.7-0.4-0.9-0.5c-6.8-3.3-10.7-8.7-12.1-16.1c-1.5-7.6-2-15.2-2.1-22.9c0-2.1,0-4.3,0-6.5
		c-2.1,0-4,0-5.9,0c0,0.2-0.1,0.3-0.1,0.4c-0.3,5.9-0.5,11.8-1,17.7c-0.5,6.5-1.3,13-2.2,19.4c-0.5,4.1-2.5,7.4-6.4,9.2
		c-2.4,1.1-4.9,1.5-7.5,1.5c-20.5,0-41,0-61.4,0c-3.1,0-6.1-0.6-8.8-2.4c-3.6-2.5-4.6-6.2-4.6-10.3c-0.1-14.3,0-28.6,0-42.8
		c0-0.6,0.3-1.2,0.7-1.6c1.5-1.6,3.1-3.2,4.7-4.8c0.9-0.9,1.9-1.8,3-2.8C201.8,221.1,193.7,217.2,185.4,213.3z M54.6,316.8
		c0.2,0.1,0.3,0.1,0.3,0.1c1.2-0.2,2.4-0.4,3.7-0.6c18.1-3.1,35.8-7.3,53.2-13.2c9.8-3.4,19.3-7.4,28-13.2
		c12.7-8.6,22.9-19.3,29-33.5c5.7-13.3,8.7-27.4,10.8-41.6c0.9-6.3,1.5-12.7,2.2-19c0.1-0.8,0.4-1.4,1.1-1.9
		c2.9-1.9,5.8-3.8,8.7-5.8c0.3-0.2,0.5-0.4,0.9-0.7c-9.1-5.1-18-10.2-27-15.3c-0.2,6-0.3,11.8-0.5,17.6c-0.6,14.6-2.2,29-5.3,43.2
		c-2.2,9.9-5.5,19.3-10.9,27.8c-7.8,12.2-18.4,21.3-30.7,28.5c-12.1,7-25,12.2-38.4,16.3c-7.9,2.4-15.9,4.4-23.8,6.5
		c-0.5,0.1-1.1,0.1-1.1,0.9C54.6,314.2,54.6,315.5,54.6,316.8z"/>
	<path d="M122.9,161.6c0,0.5,0,1,0,1.6c0,26.1,0,52.2,0,78.2c0,1-0.3,1.6-1.2,2.2c-4.7,3-9.4,6-14.1,9c-0.3,0.2-0.7,0.4-1.2,0.7
		c1.5-36.2,1.6-72.2,0-108.4c0.6,0.3,0.9,0.4,1.3,0.6c5.5,2.7,11,5.5,16.5,8.2c0.6,0.3,1.4,0.5,2,0.5c34.6,0,69.3,0,103.9,0
		c0.8,0,1.4-0.2,2-0.8c3.3-3.3,6.6-6.6,9.9-9.9c0.3-0.3,0.6-0.6,0.8-0.8c5.5,5.5,11,10.9,16.5,16.5c-0.4,0.4-0.9,0.8-1.4,1.3
		c-2.7,2.4-5.5,4.9-8.2,7.4c-0.4,0.4-0.8,1.1-0.8,1.7c0,11.5,0,23,0.1,34.4c0.1,10.6,0.5,21.3,0.7,31.9c0,2,0.2,4.1,0.2,6.1
		c0,0.3-0.2,0.8-0.4,1c-5.3,2.7-10.6,5.3-16,8c0-29.9,0-59.6,0-89.4C196.7,161.6,159.9,161.6,122.9,161.6z"/>
	<path d="M185.4,213.3c8.3,3.9,16.4,7.8,24.9,11.9c-1.1,1-2.1,1.9-3,2.8c-1.6,1.6-3.2,3.1-4.7,4.8c-0.4,0.4-0.7,1.1-0.7,1.6
		c0,14.3-0.1,28.6,0,42.8c0,4.1,1,7.8,4.6,10.3c2.6,1.8,5.7,2.4,8.8,2.4c20.5,0,41,0,61.4,0c2.6,0,5.1-0.4,7.5-1.5
		c4-1.8,5.9-5.1,6.4-9.2c0.9-6.5,1.6-12.9,2.2-19.4c0.5-5.9,0.7-11.8,1-17.7c0-0.1,0.1-0.2,0.1-0.4c1.9,0,3.8,0,5.9,0
		c0,2.2,0,4.3,0,6.5c0.2,7.7,0.7,15.3,2.1,22.9c1.4,7.4,5.4,12.8,12.1,16.1c0.3,0.1,0.6,0.3,0.9,0.5c-1.6,3.3-3.6,6.3-6.1,9
		c-4.9,5.1-10.8,7.5-17.9,7.5c-28.2,0-56.3,0-84.5,0c-3.8,0-7.5-0.4-11-1.9c-5.4-2.3-8.1-6.7-8.8-12.4c-0.2-1.4-0.2-2.8-0.2-4.2
		c0-14.8,0.1-29.6-0.1-44.4c-0.1-9.1-0.7-18.1-1.1-27.2C185.4,213.8,185.4,213.6,185.4,213.3z"/>
	<path d="M54.6,316.8c0-1.3,0-2.6,0-3.9c0-0.9,0.6-0.8,1.1-0.9c7.9-2.2,15.9-4.1,23.8-6.5c13.4-4,26.3-9.2,38.4-16.3
		c12.4-7.2,23-16.3,30.7-28.5c5.5-8.6,8.7-18,10.9-27.8c3.2-14.2,4.7-28.7,5.3-43.2c0.2-5.8,0.4-11.6,0.5-17.6
		c9,5.1,17.9,10.1,27,15.3c-0.4,0.3-0.6,0.5-0.9,0.7c-2.9,1.9-5.8,3.9-8.7,5.8c-0.8,0.5-1,1.1-1.1,1.9c-0.7,6.4-1.3,12.7-2.2,19
		c-2.1,14.3-5,28.3-10.8,41.6c-6.1,14.2-16.4,24.9-29,33.5c-8.6,5.8-18.1,9.9-28,13.2c-17.3,6-35.1,10.2-53.2,13.2
		c-1.2,0.2-2.4,0.4-3.7,0.6C54.9,317,54.8,316.9,54.6,316.8z"/>
</g>
</svg>
