<?xml version="1.0" encoding="utf-8"?>
<!-- Generator: Adobe Illustrator 20.1.0, SVG Export Plug-In . SVG Version: 6.00 Build 0)  -->
<svg version="1.1" id="图层_1" xmlns="http://www.w3.org/2000/svg" xmlns:xlink="http://www.w3.org/1999/xlink" x="0px" y="0px"
	 viewBox="0 0 360 360" style="enable-background:new 0 0 360 360;" xml:space="preserve">
<style type="text/css">
	.st0{fill:#FFFFFF;}
</style>
<g>
	<path class="st0" d="M0.2,360.5c0-120.1,0-240.2,0-360.2c120.1,0,240.2,0,360.2,0c0,120.1,0,240.2,0,360.2
		C240.4,360.5,120.3,360.5,0.2,360.5z M284,51.9c-0.2,0.2-0.4,0.6-0.6,0.9c-3.3,3.3-6.6,6.5-9.8,9.9c-0.7,0.8-1.5,1-2.5,1
		c-28.5,0-57,0-85.6,0c-0.9,0-1.8-0.3-2.6-0.7c-5.1-2.7-10.2-5.4-15.3-8.1c-0.3-0.2-0.6-0.3-1.1-0.5c1.5,51.9,1.7,103.6,0,155.5
		c0.5-0.3,0.8-0.5,1.2-0.7c4.7-3,9.5-6.1,14.2-9.1c0.9-0.6,1.2-1.1,1.2-2.2c0-41.8,0-83.5,0-125.3c0-0.5,0-1.1,0-1.6
		c30.7,0,61.2,0,91.8,0c0,45.1,0,90.2,0,135.3c0.3-0.1,0.5-0.1,0.7-0.2c5.1-2.5,10.2-5,15.2-7.6c0.4-0.2,0.6-0.9,0.6-1.3
		c-0.2-10.4-0.5-20.8-0.7-31.2c-0.2-9.2-0.2-18.4-0.3-27.6c-0.1-9.1-0.1-18.2-0.2-27.4c0-11.5,0-23,0-34.4c0-0.8,0.3-1.2,0.9-1.6
		c2.9-1.9,5.7-3.8,8.6-5.7c0.3-0.2,0.7-0.5,0.9-0.6C295.1,63,289.7,57.5,284,51.9z M105.2,317c0.5-0.1,0.8-0.2,1.1-0.3
		c5.4-1.6,10.8-3.2,16.1-5c14.6-4.8,28.9-10.4,42.5-17.8c14.7-8,27.2-18.3,37-31.9c11.5-15.8,18.4-33.6,22.4-52.6
		c3-14.3,4.7-28.8,5.9-43.3c1.3-15.7,1.9-31.5,2.2-47.3c0-0.5,0.3-1.2,0.7-1.5c2.8-2.3,5.7-4.5,8.6-6.7c0.4-0.3,0.8-0.6,1.3-1
		c-9.1-5.1-18.1-10.2-27.1-15.3c0,0.6,0,1,0,1.4c-0.1,6.2-0.1,12.4-0.3,18.6c-0.4,11.4-0.9,22.8-1.3,34.1
		c-0.6,13.9-1.2,27.9-3.1,41.7c-1.8,13-4.4,25.8-8.7,38.3c-7.6,22-20.8,40-39.5,53.8c-15.8,11.7-33.2,20.5-51.6,27.4
		c-2.4,0.9-4.9,1.8-7.3,2.7c0,0.2,0,0.3,0,0.4C104.5,314.1,104.9,315.5,105.2,317z M298.5,234.5c-0.1,0.5-0.1,0.9-0.1,1.3
		c-0.5,12.8-1.1,25.6-2.7,38.4c-0.5,3.6-0.9,7.2-2.4,10.6c-2.1,4.6-5.5,7.3-10.7,7.4c-7.6,0.1-15.2,0.1-22.8,0
		c-7.7-0.1-11.9-4.1-11.9-11.2c0-23.4,0-46.8,0-70.2c0-0.6,0.3-1.3,0.8-1.7c2.2-2.3,4.4-4.4,6.6-6.6c0.3-0.3,0.5-0.5,0.8-0.9
		c-8.3-4.3-16.4-8.6-24.7-12.9c0,0.9,0,1.5,0,2.2c0.3,10.2,0.9,20.4,1,30.7c0.2,20,0,40.1,0.1,60.1c0,3.3,0.3,6.5,0.9,9.8
		c0.7,4.1,2.4,7.7,5.5,10.5c3.8,3.4,8.4,4.5,13.3,4.5c13.6,0.1,27.3,0,40.9,0c3.6,0,7.2-0.6,10.5-2.1c6.3-2.6,10.5-7.3,13.7-13.2
		c0.4-0.8,0.8-1.6,1.3-2.5c-5.7-1.8-8.8-5.9-10.4-11.2c-1-3.1-1.6-6.3-2.1-9.5c-1.3-9.2-1.5-18.5-1.6-27.8c0-1.9,0-3.8,0-5.8
		C302.4,234.5,300.5,234.5,298.5,234.5z"/>
	<path d="M284,51.9c5.6,5.6,11.1,11.1,16.6,16.6c-0.2,0.2-0.5,0.4-0.9,0.6c-2.9,1.9-5.7,3.8-8.6,5.7c-0.6,0.4-0.9,0.8-0.9,1.6
		c0,11.5,0,23,0,34.4c0,9.1,0.1,18.2,0.2,27.4c0.1,9.2,0.1,18.4,0.3,27.6c0.2,10.4,0.5,20.8,0.7,31.2c0,0.4-0.3,1.1-0.6,1.3
		c-5,2.6-10.1,5.1-15.2,7.6c-0.2,0.1-0.4,0.1-0.7,0.2c0-45.2,0-90.2,0-135.3c-30.6,0-61.1,0-91.8,0c0,0.6,0,1.1,0,1.6
		c0,41.8,0,83.5,0,125.3c0,1-0.3,1.6-1.2,2.2c-4.8,3-9.5,6.1-14.2,9.1c-0.3,0.2-0.7,0.4-1.2,0.7c1.6-51.9,1.5-103.6,0-155.5
		c0.5,0.2,0.8,0.3,1.1,0.5c5.1,2.7,10.2,5.5,15.3,8.1c0.8,0.4,1.7,0.7,2.6,0.7c28.5,0,57,0,85.6,0c1,0,1.8-0.3,2.5-1
		c3.2-3.3,6.5-6.6,9.8-9.9C283.7,52.5,283.9,52.1,284,51.9z"/>
	<path d="M105.2,317c-0.4-1.5-0.7-2.9-1.1-4.3c0-0.1,0-0.2,0-0.4c2.4-0.9,4.9-1.8,7.3-2.7c18.4-6.9,35.7-15.7,51.6-27.4
		c18.8-13.8,31.9-31.8,39.5-53.8c4.3-12.4,6.9-25.2,8.7-38.3c1.9-13.8,2.6-27.8,3.1-41.7c0.5-11.4,1-22.8,1.3-34.1
		c0.2-6.2,0.2-12.4,0.3-18.6c0-0.4,0-0.8,0-1.4c9.1,5.1,18,10.2,27.1,15.3c-0.5,0.4-0.9,0.7-1.3,1c-2.9,2.2-5.8,4.4-8.6,6.7
		c-0.4,0.3-0.7,1-0.7,1.5c-0.3,15.8-0.9,31.6-2.2,47.3c-1.2,14.5-2.9,29-5.9,43.3c-4,19-10.9,36.8-22.4,52.6
		c-9.8,13.6-22.4,23.9-37,31.9c-13.6,7.4-27.8,13-42.5,17.8c-5.3,1.7-10.8,3.3-16.1,5C106,316.8,105.7,316.9,105.2,317z"/>
	<path d="M298.5,234.5c2,0,3.8,0,5.9,0c0,2,0,3.9,0,5.8c0.1,9.3,0.3,18.6,1.6,27.8c0.5,3.2,1.1,6.4,2.1,9.5
		c1.6,5.3,4.7,9.4,10.4,11.2c-0.4,0.9-0.8,1.7-1.3,2.5c-3.2,5.8-7.5,10.5-13.7,13.2c-3.4,1.4-6.9,2.1-10.5,2.1
		c-13.6,0-27.3,0-40.9,0c-4.9,0-9.5-1.1-13.3-4.5c-3.1-2.8-4.8-6.5-5.5-10.5c-0.5-3.2-0.8-6.5-0.9-9.8c-0.1-20,0.1-40.1-0.1-60.1
		c-0.1-10.2-0.6-20.4-1-30.7c0-0.7,0-1.4,0-2.2c8.2,4.3,16.4,8.6,24.7,12.9c-0.3,0.3-0.5,0.6-0.8,0.9c-2.2,2.2-4.4,4.4-6.6,6.6
		c-0.4,0.4-0.8,1.2-0.8,1.7c0,23.4,0,46.8,0,70.2c0,7.1,4.3,11.1,11.9,11.2c7.6,0.1,15.2,0.1,22.8,0c5.1-0.1,8.6-2.8,10.7-7.4
		c1.5-3.4,2-7,2.4-10.6c1.6-12.7,2.2-25.6,2.7-38.4C298.4,235.4,298.4,235,298.5,234.5z"/>
</g>
</svg>
