<?xml version="1.0" encoding="utf-8"?>
<!-- Generator: Adobe Illustrator 20.1.0, SVG Export Plug-In . SVG Version: 6.00 Build 0)  -->
<svg version="1.1" id="图层_1" xmlns="http://www.w3.org/2000/svg" xmlns:xlink="http://www.w3.org/1999/xlink" x="0px" y="0px"
	 viewBox="0 0 360 360" style="enable-background:new 0 0 360 360;" xml:space="preserve">
<style type="text/css">
	.st0{fill:#FFFFFF;}
</style>
<g>
	<path class="st0" d="M0.2,360.5c0-120.1,0-240.2,0-360.2c120.1,0,240.2,0,360.2,0c0,120.1,0,240.2,0,360.2
		C240.4,360.5,120.3,360.5,0.2,360.5z M224.6,154.5c14.3,0,28.7,0,43.4,0c-0.4,52.6-0.8,105.1-1.2,157.6c0,0,0.2,0,0.3-0.1
		c5.5-2.6,11-5.1,16.5-7.7c0.7-0.3,0.8-0.7,0.7-1.3c-0.1-2.6-0.2-5.2-0.2-7.8c-0.3-11.6-0.8-23.2-0.9-34.9c-0.1-34.9,0-69.8,0-104.6
		c0-0.4,0-0.9,0-1.4c12.6,0,25,0,37.3,0c-7-7-14-14-21-21c-4.3,4.3-8.7,8.7-13.1,13.1c-0.6,0.6-1.2,0.8-2,0.8c-19.6,0-39.1,0-58.7,0
		c-0.4,0-0.8,0-1.4,0c0-0.7,0-1.3,0-1.9c0-21.5,0-43,0-64.6c0-0.3,0-0.6,0-1c-0.1-0.7,0.2-0.9,0.9-1c2.7-0.3,5.4-0.7,8.1-1
		c8.8-1.2,17.5-2.3,26.3-3.5c8.3-1.1,16.6-2.3,24.9-3.5c6.8-1,13.6-2.2,20.5-2.3c1.7,0,3.4-0.1,5.3-0.2c-6.4-6.8-12.6-13.4-18.8-20
		c-1.4,1.1-2.7,2.2-4.1,3.1c-7.4,5.3-15.7,8.8-24.3,11.6c-12.7,4.2-25.7,7.2-38.9,9.8c-0.6,0.1-1.4,0-1.9-0.4
		c-4.5-2.7-8.9-5.4-13.3-8.1c-0.3-0.2-0.7-0.4-1.2-0.7c0.2,7,0.4,13.7,0.5,20.4c0.2,9.9,0.4,19.7,0.5,29.6
		c0.1,14.9,0.2,29.8,0.1,44.6c-0.1,13.5-0.5,26.9-1,40.4c-0.4,10.8-1.1,21.6-2.9,32.2c-2.3,14-6.7,27.3-13.5,39.7
		c-8.3,15-19.5,27.6-31.8,39.4c-1.6,1.5-3.2,3-4.8,4.5c1.2,1.3,2.4,2.4,3.5,3.6c0.1-0.1,0.2-0.1,0.4-0.2
		c13.5-9.6,25.9-20.5,36.4-33.4c7.2-8.8,13.3-18.3,17.8-28.8c4.7-11.2,7.1-23,8.8-35c2-14.4,2.7-28.8,2.9-43.3
		C224.7,169.9,224.6,162.3,224.6,154.5z"/>
	<path d="M224.6,154.5c0,7.7,0.1,15.3,0,22.9c-0.2,14.5-0.8,28.9-2.9,43.3c-1.7,12-4.1,23.8-8.8,35c-4.4,10.5-10.6,19.9-17.8,28.8
		c-10.5,12.9-22.9,23.8-36.4,33.4c-0.1,0.1-0.3,0.2-0.4,0.2c-1.2-1.2-2.3-2.3-3.5-3.6c1.5-1.4,3.2-2.9,4.8-4.5
		c12.3-11.8,23.5-24.4,31.8-39.4c6.9-12.4,11.3-25.7,13.5-39.7c1.7-10.7,2.5-21.4,2.9-32.2c0.5-13.5,0.8-26.9,1-40.4
		c0.1-14.9,0-29.8-0.1-44.6c-0.1-9.9-0.3-19.7-0.5-29.6c-0.1-6.7-0.3-13.4-0.5-20.4c0.5,0.3,0.9,0.5,1.2,0.7
		c4.4,2.7,8.8,5.5,13.3,8.1c0.5,0.3,1.3,0.5,1.9,0.4c13.1-2.5,26.2-5.5,38.9-9.8c8.6-2.9,16.9-6.3,24.3-11.6c1.4-1,2.7-2,4.1-3.1
		c6.2,6.6,12.4,13.2,18.8,20c-1.9,0.1-3.6,0.2-5.3,0.2c-6.9,0.2-13.7,1.3-20.5,2.3c-8.3,1.2-16.6,2.3-24.9,3.5
		c-8.8,1.2-17.5,2.3-26.3,3.5c-2.7,0.4-5.4,0.7-8.1,1c-0.7,0.1-1,0.3-0.9,1c0,0.3,0,0.6,0,1c0,21.5,0,43,0,64.6c0,0.6,0,1.1,0,1.9
		c0.5,0,1,0,1.4,0c19.6,0,39.1,0,58.7,0c0.8,0,1.4-0.2,2-0.8c4.4-4.4,8.8-8.8,13.1-13.1c7,7,14,14,21,21c-12.3,0-24.7,0-37.3,0
		c0,0.6,0,1,0,1.4c0,34.9-0.1,69.8,0,104.6c0,11.6,0.6,23.2,0.9,34.9c0.1,2.6,0.2,5.2,0.2,7.8c0,0.6-0.1,1-0.7,1.3
		c-5.5,2.5-11,5.1-16.5,7.7c-0.1,0-0.2,0.1-0.3,0.1c0.4-52.5,0.8-105,1.2-157.6C253.3,154.5,238.9,154.5,224.6,154.5z"/>
</g>
</svg>
