<?xml version="1.0" encoding="utf-8"?>
<!-- Generator: Adobe Illustrator 20.1.0, SVG Export Plug-In . SVG Version: 6.00 Build 0)  -->
<svg version="1.1" id="图层_1" xmlns="http://www.w3.org/2000/svg" xmlns:xlink="http://www.w3.org/1999/xlink" x="0px" y="0px"
	 viewBox="0 0 360 360" style="enable-background:new 0 0 360 360;" xml:space="preserve">
<style type="text/css">
	.st0{fill:#FFFFFF;}
</style>
<g>
	<path class="st0" d="M0.2,360.5c0-120.1,0-240.2,0-360.2c120.1,0,240.2,0,360.2,0c0,120.1,0,240.2,0,360.2
		C240.4,360.5,120.3,360.5,0.2,360.5z M230.2,156.8c-2.4,2.4-5.2,3.9-8.1,5.2c-16.6,7.5-33.9,12.8-51.7,16.4
		c-10.9,2.2-21.9,4-33,5.3c-1,0.1-1.8-0.1-2.7-0.6c-5.1-3.4-10.2-6.8-15.3-10.2c-0.3-0.2-0.7-0.4-1.2-0.7c0.2,5.2,0.5,10.2,0.6,15.3
		c0.2,11.2,0.5,22.4,0.5,33.6c0,12.2-2,24.1-5.5,35.8c-1.7,5.7-3.5,11.5-6.6,16.7c-4.5,7.5-10.5,13.8-17.1,19.4
		c-9.1,7.8-19.2,14.2-29.6,20.1c-0.4,0.2-0.7,0.4-1.1,0.7c0.4,1.6,0.8,3.1,1.2,4.8c2.9-1.2,5.6-2.4,8.3-3.6
		c12.4-5.6,24.5-12,35.4-20.2c8.4-6.3,15.5-13.6,20.6-22.9c6.4-11.6,9.3-24.3,10.5-37.3c0.3-3,0.4-6,0.6-9c26.3,0,52.5,0,79,0
		c-0.4,30.6-0.8,61.2-1.2,91.8c0.1-0.1,0.3-0.1,0.5-0.2c5.8-2.9,11.6-5.8,17.5-8.7c0.8-0.4,0.8-0.9,0.8-1.5
		c-0.2-5.9-0.5-11.8-0.6-17.7c-0.2-11.5-0.4-22.9-0.5-34.4c-0.1-9.3,0-18.6-0.1-27.8c0-0.4,0-0.9,0-1.4c23.6,0,47,0,70.4,0
		c-7.4-7.4-14.8-14.8-22.2-22.2c-0.2,0.2-0.6,0.5-0.9,0.8c-4.5,4.5-9,9-13.5,13.5c-0.6,0.6-1.2,0.8-2,0.8c-42,0-83.9,0-125.9,0
		c-0.4,0-0.9,0-1.3,0c0-9.4,0-18.7,0-28.1c0.6-0.1,1.2-0.2,1.8-0.2c3.2-0.3,6.4-0.5,9.6-0.8c13.4-1.4,26.7-2.7,40.1-4.3
		c10.4-1.2,20.8-2.9,31.2-4.2c8.5-1,17.1-1.8,25.6-2.5c1.9-0.2,3.8,0,5.8,0C243.4,170.8,236.9,163.8,230.2,156.8z"/>
	<path d="M230.2,156.8c6.7,7.1,13.2,14,19.9,21.1c-2,0-3.9-0.1-5.8,0c-8.6,0.8-17.1,1.5-25.6,2.5c-10.4,1.3-20.8,3-31.2,4.2
		c-13.3,1.6-26.7,2.9-40.1,4.3c-3.2,0.3-6.4,0.5-9.6,0.8c-0.6,0.1-1.2,0.1-1.8,0.2c0,9.4,0,18.7,0,28.1c0.5,0,0.9,0,1.3,0
		c42,0,83.9,0,125.9,0c0.8,0,1.4-0.2,2-0.8c4.5-4.5,9-9,13.5-13.5c0.3-0.3,0.6-0.6,0.9-0.8c7.4,7.4,14.8,14.8,22.2,22.2
		c-23.4,0-46.8,0-70.4,0c0,0.6,0,1,0,1.4c0,9.3,0,18.6,0.1,27.8c0.1,11.5,0.3,22.9,0.5,34.4c0.1,5.9,0.4,11.8,0.6,17.7
		c0,0.7,0,1.2-0.8,1.5c-5.8,2.9-11.7,5.8-17.5,8.7c-0.2,0.1-0.4,0.2-0.5,0.2c0.4-30.6,0.8-61.1,1.2-91.8c-26.5,0-52.7,0-79,0
		c-0.2,3-0.4,6-0.6,9c-1.2,13.1-4.2,25.7-10.5,37.3c-5.1,9.3-12.2,16.6-20.6,22.9c-10.9,8.2-23,14.6-35.4,20.2
		c-2.7,1.2-5.5,2.4-8.3,3.6c-0.4-1.6-0.8-3.1-1.2-4.8c0.4-0.2,0.7-0.4,1.1-0.7c10.4-5.9,20.5-12.3,29.6-20.1
		c6.6-5.6,12.6-11.9,17.1-19.4c3.1-5.2,4.9-10.9,6.6-16.7c3.5-11.7,5.6-23.6,5.5-35.8c0-11.2-0.3-22.4-0.5-33.6
		c-0.1-5-0.4-10-0.6-15.3c0.5,0.3,0.8,0.5,1.2,0.7c5.1,3.4,10.2,6.8,15.3,10.2c0.8,0.6,1.6,0.8,2.7,0.6c11.1-1.4,22.1-3.1,33-5.3
		c17.8-3.6,35.1-8.9,51.7-16.4C225,160.7,227.8,159.2,230.2,156.8z"/>
</g>
</svg>
