<?xml version="1.0" encoding="utf-8"?>
<!-- Generator: Adobe Illustrator 20.1.0, SVG Export Plug-In . SVG Version: 6.00 Build 0)  -->
<svg version="1.1" id="图层_1" xmlns="http://www.w3.org/2000/svg" xmlns:xlink="http://www.w3.org/1999/xlink" x="0px" y="0px"
	 viewBox="0 0 360 360" style="enable-background:new 0 0 360 360;" xml:space="preserve">
<style type="text/css">
	.st0{fill:#FFFFFF;}
</style>
<g>
	<path class="st0" d="M0.2,360.5c0-120.1,0-240.2,0-360.2c120.1,0,240.2,0,360.2,0c0,120.1,0,240.2,0,360.2
		C240.4,360.5,120.3,360.5,0.2,360.5z M201.6,155.6c-0.3,0.4-0.4,0.5-0.5,0.6c-12,11.4-24.4,22.3-37.4,32.5
		c-4.9,3.8-9.7,7.9-14.9,11.1c-16.4,9.9-32.9,19.6-49.4,29.2c-13.2,7.6-26.6,14.9-40.5,21.3c-3.3,1.5-6.7,2.9-10.2,4.4
		c0.4,1.5,0.8,3,1.2,4.6c0.4-0.1,0.7-0.1,0.9-0.2c5.8-1.8,11.7-3.5,17.5-5.5c21.1-7.4,41.5-16.4,61.4-26.6
		c20.1-10.4,39.5-22.1,57.5-35.8c13.3-10.1,25.7-21.3,36.2-34.3c0.7-0.8,1.4-1.1,2.4-1.1c30.8,0,61.5,0,92.3,0c0.5,0,0.9,0,1.7,0
		c-7.6-8-15-15.8-22.5-23.6c-0.3,0.3-0.6,0.6-0.9,0.8c-5.4,5-10.7,10-16.1,14.9c-0.4,0.4-1.2,0.7-1.8,0.7c-16.1,0-32.2,0-48.2,0
		c-0.3,0-0.7,0-1.2-0.1c0.3-0.4,0.6-0.8,0.8-1.1c15.5-18.9,30.6-38.2,45.3-57.7c1.5-2,2.6-4.3,4.5-5.7c1.9-1.4,4.5-2,6.8-2.9
		c1.6-0.6,3.1-1.3,4.9-2c-8.7-7.2-17.3-14.2-26-21.3c-5.1,13.6-11.5,26.4-18.9,39c-5.2-5.2-10.3-10.3-15.3-15.3
		c-4.7,4.4-9.4,8.7-14.2,13.1c-0.7,0.7-1.5,1-2.5,1c-10.8,0-21.5,0-32.3,0c-0.5,0-0.9,0-1.5,0c0-0.6,0-1.1,0-1.5
		c0-9.1,0-18.2,0-27.4c0-1.7-0.5-3.7,0.2-5.1c0.7-1.4,2.6-2.3,3.9-3.4c2.5-2,5-4,7.7-6.2c-10.3-4-20.5-7.9-30.7-11.8
		c1,18.9,1.1,37.7,1.1,56.6c-26.7,0-53.3,0-80.1,0c0.4,0.5,0.7,0.8,1,1c2.9,2.9,5.8,5.8,8.6,8.7c0.7,0.7,1.2,0.9,2.2,0.6
		c8.3-2.2,16.7-3.2,25.3-3.2c13.8-0.1,27.7,0,41.5,0c0.5,0,0.9,0,1.4,0c0,15,0,29.8,0,44.8c-38,0-76,0-114.2,0
		c3.4,3.4,6.7,6.6,9.9,9.9c0.6,0.6,1,0.7,1.8,0.5c8.3-2.2,16.8-3.2,25.4-3.3c38.1,0,76.2,0,114.4,0
		C200.5,155.6,200.9,155.6,201.6,155.6z"/>
	<path d="M201.6,155.6c-0.7,0-1.1,0-1.6,0c-38.1,0-76.2,0-114.4,0c-8.6,0-17.1,1.1-25.4,3.3c-0.7,0.2-1.2,0.1-1.8-0.5
		c-3.2-3.2-6.4-6.5-9.9-9.9c38.2,0,76.2,0,114.2,0c0-15,0-29.8,0-44.8c-0.5,0-1,0-1.4,0c-13.8,0-27.7-0.1-41.5,0
		c-8.5,0-17,1-25.3,3.2c-1,0.3-1.5,0-2.2-0.6c-2.9-2.9-5.8-5.8-8.6-8.7c-0.3-0.3-0.5-0.6-1-1c26.8,0,53.3,0,80.1,0
		c0-18.9-0.1-37.7-1.1-56.6c10.2,3.9,20.4,7.8,30.7,11.8c-2.7,2.1-5.2,4.1-7.7,6.2c-1.4,1.1-3.2,2-3.9,3.4c-0.7,1.4-0.2,3.4-0.2,5.1
		c0,9.1,0,18.2,0,27.4c0,0.5,0,0.9,0,1.5c0.6,0,1.1,0,1.5,0c10.8,0,21.5,0,32.3,0c1,0,1.8-0.3,2.5-1c4.7-4.4,9.4-8.7,14.2-13.1
		c5.1,5.1,10.1,10.1,15.3,15.3c7.4-12.6,13.8-25.4,18.9-39c8.7,7.1,17.2,14.1,26,21.3c-1.7,0.7-3.3,1.3-4.9,2
		c-2.3,0.9-4.9,1.5-6.8,2.9c-1.9,1.4-3,3.8-4.5,5.7c-14.7,19.6-29.8,38.8-45.3,57.7c-0.2,0.3-0.5,0.6-0.8,1.1c0.5,0,0.8,0.1,1.2,0.1
		c16.1,0,32.2,0,48.2,0c0.6,0,1.3-0.3,1.8-0.7c5.4-5,10.7-10,16.1-14.9c0.3-0.3,0.6-0.5,0.9-0.8c7.4,7.8,14.8,15.6,22.5,23.6
		c-0.8,0-1.3,0-1.7,0c-30.8,0-61.5,0-92.3,0c-1.1,0-1.7,0.3-2.4,1.1c-10.5,13.1-22.9,24.2-36.2,34.3c-18,13.8-37.4,25.4-57.5,35.8
		c-19.8,10.3-40.2,19.3-61.4,26.6c-5.8,2-11.6,3.7-17.5,5.5c-0.3,0.1-0.5,0.1-0.9,0.2c-0.4-1.6-0.8-3.1-1.2-4.6
		c3.5-1.5,6.9-2.8,10.2-4.4c13.9-6.4,27.3-13.6,40.5-21.3c16.6-9.6,33.1-19.3,49.4-29.2c5.3-3.2,10-7.3,14.9-11.1
		c13-10.2,25.4-21.1,37.4-32.5C201.2,156.2,201.3,156,201.6,155.6z M180.8,148.5c0.3,0,0.6,0,0.8,0c8.4,0,16.9,0,25.3,0
		c0.5,0,1.1-0.4,1.5-0.8c12-14.2,23.3-28.9,34-44.2c0.2-0.2,0.3-0.5,0.5-0.9c-20.8,0-41.4,0-62.1,0
		C180.8,118,180.8,133.1,180.8,148.5z"/>
	<path class="st0" d="M180.8,148.5c0-15.3,0-30.5,0-45.8c20.7,0,41.3,0,62.1,0c-0.2,0.4-0.3,0.6-0.5,0.9c-10.7,15.2-22,29.9-34,44.2
		c-0.3,0.4-1,0.8-1.5,0.8c-8.4,0-16.9,0-25.3,0C181.3,148.5,181.1,148.5,180.8,148.5z"/>
</g>
</svg>
