<?xml version="1.0" encoding="utf-8"?>
<!-- Generator: Adobe Illustrator 20.1.0, SVG Export Plug-In . SVG Version: 6.00 Build 0)  -->
<svg version="1.1" id="图层_1" xmlns="http://www.w3.org/2000/svg" xmlns:xlink="http://www.w3.org/1999/xlink" x="0px" y="0px"
	 viewBox="0 0 360 360" style="enable-background:new 0 0 360 360;" xml:space="preserve">
<style type="text/css">
	.st0{fill:#FFFFFF;}
</style>
<g>
	<path class="st0" d="M0.2,360.5c0-120.1,0-240.2,0-360.2c120.1,0,240.2,0,360.2,0c0,120.1,0,240.2,0,360.2
		C240.4,360.5,120.3,360.5,0.2,360.5z M175,315.7C174.9,315.7,175,315.7,175,315.7c6.5-3,12.9-6,19.3-9c0.3-0.1,0.6-0.7,0.6-1
		c-0.3-10.2-0.6-20.4-0.8-30.6c-0.2-8.6-0.2-17.2-0.3-25.8c0-13.8,0-27.7,0-41.5c0-0.5,0-0.9,0-1.4c2.2-0.3,2.1-0.3,3,1.5
		c1.2,2.5,2.4,5,3.7,7.5c9.9,18.7,22.6,35.2,38.5,49.2c13.6,12.1,28.8,21.7,45.3,29.4c3.1,1.4,6.2,2.8,9.3,4.2
		c0.2-0.1,0.3-0.1,0.3-0.2c0.1-0.3,0.2-0.6,0.3-0.9c1.1-3.1,3-5.7,5.6-7.8c3.4-2.7,7.3-4.2,11.4-5.1c2.4-0.6,4.9-1,7.5-1.4
		c0-1.2,0-2.5,0-3.7c0-0.3,0-0.5-0.1-0.9c-49.3-6.7-87.1-32.1-116.5-71.8c37.8,0,75.3,0,112.7,0c-8.2-8.2-16.4-16.4-24.7-24.7
		c-0.2,0.2-0.4,0.6-0.7,0.9c-5.3,5.3-10.6,10.6-15.8,15.9c-0.5,0.6-1.1,0.8-1.9,0.8c-25.5,0-51,0-76.4,0c-0.4,0-0.8,0-1.2,0
		c-0.1-0.3-0.1-0.3-0.1-0.4c0-7.9,0-15.8,0-23.6c0-0.4,0.4-0.9,0.7-1.1c2-1.4,4.1-2.8,6.2-4.1c1.2-0.8,2.4-1.6,3.7-2.5
		c-9.9-5.1-19.6-10.2-29.4-15.3c0.4,15.8,0.8,31.4,1.2,47.1c-41.8,0-83.3,0-125.1,0c3.5,3.5,6.8,6.9,10.2,10.1
		c0.3,0.3,0.9,0.3,1.4,0.2c8.6-2.2,17.3-3.2,26.1-3.3c24.6,0,49.3,0,73.9,0c0.4,0,0.8,0,1.4,0.1c-0.5,0.7-0.8,1.2-1.2,1.7
		c-13.9,19.2-30.4,35.7-49.1,50.2c-19.9,15.5-41.5,28.2-64.2,39c-1.5,0.7-2.9,1.4-4.4,2.1c0.4,1.7,0.8,3.2,1.3,5
		c9.2-3.5,18.3-6.7,27.3-10.4c20.3-8.2,39.6-18.3,57.4-31c16.3-11.6,30.9-25.1,43-41.2c0.5-0.7,1.1-1.4,1.6-2.2
		c0.1,0,0.3,0.1,0.4,0.1C175.7,251.7,175.4,283.7,175,315.7z"/>
	<path d="M175,315.7c0.4-32,0.8-64,1.2-96c-0.1,0-0.3-0.1-0.4-0.1c-0.5,0.7-1.1,1.4-1.6,2.2c-12.1,16-26.6,29.5-43,41.2
		c-17.9,12.7-37.2,22.8-57.4,31c-8.9,3.6-18,6.9-27.3,10.4c-0.5-1.8-0.9-3.3-1.3-5c1.5-0.7,2.9-1.4,4.4-2.1
		c22.7-10.8,44.3-23.5,64.2-39c18.6-14.5,35.2-31,49.1-50.2c0.4-0.5,0.7-1,1.2-1.7c-0.6,0-1-0.1-1.4-0.1c-24.6,0-49.3,0-73.9,0
		c-8.8,0-17.5,1.1-26.1,3.3c-0.4,0.1-1.1,0-1.4-0.2c-3.3-3.3-6.6-6.6-10.2-10.1c41.8,0,83.3,0,125.1,0c-0.4-15.8-0.8-31.4-1.2-47.1
		c9.8,5.1,19.5,10.2,29.4,15.3c-1.3,0.9-2.5,1.7-3.7,2.5c-2.1,1.4-4.1,2.7-6.2,4.1c-0.3,0.2-0.7,0.7-0.7,1.1c0,7.9,0,15.8,0,23.6
		c0,0.1,0,0.2,0.1,0.4c0.4,0,0.8,0,1.2,0c25.5,0,51,0,76.4,0c0.8,0,1.3-0.2,1.9-0.8c5.3-5.3,10.6-10.6,15.8-15.9
		c0.3-0.3,0.5-0.7,0.7-0.9c8.3,8.3,16.5,16.5,24.7,24.7c-37.4,0-74.9,0-112.7,0c29.4,39.7,67.2,65.1,116.5,71.8
		c0,0.4,0.1,0.7,0.1,0.9c0,1.2,0,2.5,0,3.7c-2.5,0.5-5,0.9-7.5,1.4c-4.1,1-8,2.5-11.4,5.1c-2.6,2.1-4.5,4.6-5.6,7.8
		c-0.1,0.3-0.2,0.6-0.3,0.9c0,0-0.1,0-0.3,0.2c-3-1.4-6.2-2.7-9.3-4.2c-16.5-7.7-31.6-17.4-45.3-29.4c-15.9-14-28.6-30.5-38.5-49.2
		c-1.3-2.5-2.5-5-3.7-7.5c-0.9-1.8-0.9-1.8-3-1.5c0,0.5,0,0.9,0,1.4c0,13.8,0,27.7,0,41.5c0,8.6,0.1,17.2,0.3,25.8
		c0.2,10.2,0.6,20.4,0.8,30.6c0,0.3-0.3,0.9-0.6,1C187.9,309.7,181.5,312.7,175,315.7C175,315.7,174.9,315.7,175,315.7z"/>
</g>
</svg>
