<?xml version="1.0" encoding="utf-8"?>
<!-- Generator: Adobe Illustrator 20.1.0, SVG Export Plug-In . SVG Version: 6.00 Build 0)  -->
<svg version="1.1" id="图层_1" xmlns="http://www.w3.org/2000/svg" xmlns:xlink="http://www.w3.org/1999/xlink" x="0px" y="0px"
	 viewBox="0 0 360 360" style="enable-background:new 0 0 360 360;" xml:space="preserve">
<style type="text/css">
	.st0{fill:#FFFFFF;}
</style>
<g>
	<path class="st0" d="M0.2,360.5c0-120.1,0-240.2,0-360.2c120.1,0,240.2,0,360.2,0c0,120.1,0,240.2,0,360.2
		C240.4,360.5,120.3,360.5,0.2,360.5z M47.5,206.3c1.1-0.5,2.1-0.9,3.1-1.3c23.1-10,45-22.1,65.2-37.2
		c21.8-16.3,40.6-35.5,55.8-58.1c0.1-0.2,0.3-0.4,0.7-0.9c0.1,30.7-0.2,61.1-1.1,91.6c6.8-2.8,13.4-5.5,19.7-8.1
		c-0.2-15.6-0.5-31.1-0.7-46.6c-0.1-15.5,0-31,0-46.6c2.3,0,4.6,0,6.9,0c0.8,0,1.2,0.3,1.6,1.1c2.4,5.3,4.6,10.7,7.3,15.7
		c9.1,16.9,21.6,31,36.2,43.3c12.9,10.8,26.9,19.7,41.8,27.5c2.8,1.5,5.6,2.8,8.3,4.2c1.2-1.9,2.1-3.7,3.4-5.2
		c3.3-4.1,7.8-6.4,12.8-7.8c3.6-1,7.4-1.7,11.2-2.5c0-0.6,0-1.3,0-2.1c0-0.8,0-1.6,0-2.4c-49.3-6.5-87-31.3-115.4-71.8
		c34.7,0,69,0,103.2,0c-8.2-8.2-16.4-16.4-24.7-24.7c-0.1,0.2-0.4,0.5-0.6,0.8c-5.3,5.3-10.6,10.6-15.8,15.9
		c-0.6,0.6-1.2,0.9-2.1,0.9c-24.2,0-48.5,0-72.7,0c-0.4,0-0.9,0-1.4,0c0-0.6,0-1,0-1.4c0-8.9,0-17.8,0-26.6c0-1,0.3-1.6,1.2-2.1
		c3.5-2,7-4.2,10.7-6.4c-10.3-4.8-20.4-9.4-30.7-14.2c0.7,17,1.2,33.8,1.1,50.8c-38.1,0-76,0-114.2,0c3.5,3.5,6.8,6.9,10.2,10.2
		c0.2,0.2,0.8,0.3,1.2,0.2c8.9-2.3,18-3.3,27.2-3.3c19.6,0,39.2,0,58.8,0c0.4,0,0.8,0,1.3,0c0,0.2,0,0.3,0,0.4
		c-0.3,0.6-0.6,1.1-1,1.7c-11.7,19.6-26.2,36.8-42.8,52.3c-17.3,16.1-36.4,29.9-56.6,42.2c-3.3,2-6.7,3.9-10,5.9
		C46.7,203.1,47.1,204.7,47.5,206.3z"/>
	<path d="M47.5,206.3c-0.4-1.6-0.8-3.2-1.2-4.7c3.4-2,6.7-3.9,10-5.9c20.2-12.2,39.3-26,56.6-42.2c16.6-15.5,31.2-32.8,42.8-52.3
		c0.3-0.5,0.6-1.1,1-1.7c0-0.1,0-0.1,0-0.4c-0.4,0-0.8,0-1.3,0c-19.6,0-39.2,0-58.8,0c-9.2,0-18.3,1-27.2,3.3
		c-0.4,0.1-1,0.1-1.2-0.2C65,98.9,61.7,95.6,58.2,92c38.2,0,76.1,0,114.2,0c0.1-16.9-0.4-33.7-1.1-50.8c10.3,4.8,20.4,9.4,30.7,14.2
		c-3.7,2.2-7.1,4.3-10.7,6.4c-0.9,0.5-1.2,1.1-1.2,2.1c0,8.9,0,17.8,0,26.6c0,0.4,0,0.9,0,1.4c0.6,0,1,0,1.4,0c24.2,0,48.5,0,72.7,0
		c0.9,0,1.5-0.3,2.1-0.9c5.3-5.3,10.6-10.6,15.8-15.9c0.3-0.3,0.5-0.6,0.6-0.8c8.3,8.3,16.5,16.5,24.7,24.7c-34.2,0-68.6,0-103.2,0
		c28.4,40.5,66.1,65.3,115.4,71.8c0,0.8,0,1.6,0,2.4c0,0.8,0,1.5,0,2.1c-3.8,0.8-7.5,1.5-11.2,2.5c-5,1.4-9.5,3.7-12.8,7.8
		c-1.3,1.6-2.2,3.4-3.4,5.2c-2.7-1.4-5.5-2.7-8.3-4.2c-14.8-7.8-28.9-16.7-41.8-27.5c-14.6-12.3-27.1-26.4-36.2-43.3
		c-2.7-5.1-4.9-10.5-7.3-15.7c-0.4-0.8-0.7-1.1-1.6-1.1c-2.3,0.1-4.6,0-6.9,0c0,15.6-0.1,31.1,0,46.6c0.1,15.5,0.4,30.9,0.7,46.6
		c-6.3,2.6-12.9,5.3-19.7,8.1c0.9-30.5,1.2-60.9,1.1-91.6c-0.4,0.5-0.5,0.7-0.7,0.9c-15.2,22.7-34,41.8-55.8,58.1
		C95.7,182.9,73.7,195,50.6,205C49.7,205.4,48.7,205.8,47.5,206.3z"/>
</g>
</svg>
