<?xml version="1.0" encoding="utf-8"?>
<!-- Generator: Adobe Illustrator 20.1.0, SVG Export Plug-In . SVG Version: 6.00 Build 0)  -->
<svg version="1.1" id="图层_1" xmlns="http://www.w3.org/2000/svg" xmlns:xlink="http://www.w3.org/1999/xlink" x="0px" y="0px"
	 viewBox="0 0 360 360" style="enable-background:new 0 0 360 360;" xml:space="preserve">
<style type="text/css">
	.st0{fill:#FFFFFF;}
</style>
<g>
	<path class="st0" d="M0.2,360.5c0-120.1,0-240.2,0-360.2c120.1,0,240.2,0,360.2,0c0,120.1,0,240.2,0,360.2
		C240.4,360.5,120.3,360.5,0.2,360.5z M113.5,160.5c0.3,0.2,0.5,0.3,0.6,0.4c11.9,9.3,22.5,19.8,30.5,32.7c1.4,2.2,3,4.3,4.8,6.1
		c3.3,3.3,6.3,2.7,8.2-1.7c1.4-3.1,2.1-6.4,2.3-9.7c0.5-7-1.9-12.7-8-16.4c-3.1-1.9-6.1-3.8-9.4-5.2c-9.2-4.1-18.6-7.9-27.9-11.8
		c-0.9-0.4-1.2-0.7-1.2-1.7c0-9.8,0-19.5,0-29.3c0-0.4,0-0.8,0.1-1.3c16.4,0,32.8,0,49.1,0c-6.7-6.7-13.3-13.3-20.1-20.1
		c-0.2,0.2-0.4,0.6-0.6,0.9c-3.8,3.8-7.5,7.5-11.3,11.3c-0.4,0.4-1.2,0.7-1.7,0.7c-4.8,0.1-9.5,0-14.3,0c-0.4,0-0.8,0-1.2,0
		c0-0.7,0-1.2,0-1.6c0-18,0-36.1,0-54.1c0-1.4,0.4-2.3,1.4-3.2c2.3-2.2,4.6-4.5,7-7C113.1,46,104.5,42.5,96,39
		c0.4,25.5,0.8,50.9,1.2,76.5c-16.7,0-33.1,0-49.7,0c0.4,0.5,0.7,0.8,1,1c1.9,1.9,4,3.7,5.7,5.8c1.9,2.3,3.8,2.8,6.6,1.9
		c4.2-1.3,8.6-1.7,13-1.6c6.9,0.2,13.8,0,20.6,0c0.4,0,0.9,0,1.3,0c-0.1,0.4-0.1,0.6-0.1,0.8c-4.3,19.8-9.6,39.2-16.2,58.4
		c-6.6,19.3-14.5,38.1-24.2,56c-3.8,7-7.9,13.7-11.9,20.5c-0.2,0.4-0.5,1-0.3,1.2c0.6,1.1,1.4,2.1,2.1,3.2
		c23-25.4,40-54.3,51.6-86.4c0.1,0,0.3,0,0.4,0.1c-0.4,47.6-0.7,95.1-1.1,142.7c0,0,0.2,0,0.3-0.1c5.9-2.6,11.7-5.1,17.6-7.7
		c0.7-0.3,0.7-0.7,0.7-1.3c-0.2-7.4-0.4-14.8-0.6-22.2c-0.2-9-0.3-17.9-0.3-26.9c-0.1-16.1-0.2-32.2-0.2-48.2c0-17,0-34.1,0-51.1
		C113.5,161.4,113.5,161,113.5,160.5z"/>
	<path d="M113.5,160.5c0,0.6,0,0.9,0,1.3c0,17,0,34.1,0,51.1c0,16.1,0.1,32.2,0.2,48.2c0.1,9,0.2,17.9,0.3,26.9
		c0.1,7.4,0.4,14.8,0.6,22.2c0,0.6,0,1-0.7,1.3c-5.9,2.5-11.7,5.1-17.6,7.7c-0.1,0.1-0.3,0.1-0.3,0.1c0.4-47.6,0.7-95.1,1.1-142.7
		c-0.1,0-0.3,0-0.4-0.1c-11.6,32.1-28.6,61-51.6,86.4c-0.8-1.1-1.5-2.1-2.1-3.2c-0.2-0.3,0.1-0.9,0.3-1.2c4-6.8,8.1-13.6,11.9-20.5
		c9.7-17.9,17.5-36.7,24.2-56c6.6-19.1,11.9-38.6,16.2-58.4c0.1-0.2,0.1-0.5,0.1-0.8c-0.5,0-0.9,0-1.3,0c-6.9,0-13.8,0.1-20.6,0
		c-4.4-0.1-8.8,0.3-13,1.6c-2.8,0.9-4.7,0.4-6.6-1.9c-1.7-2.1-3.8-3.9-5.7-5.8c-0.3-0.3-0.5-0.6-1-1c16.6,0,33,0,49.7,0
		C96.8,90,96.4,64.5,96,39c8.5,3.5,17.1,7,25.8,10.6c-2.4,2.4-4.7,4.7-7,7c-1,0.9-1.4,1.9-1.4,3.2c0.1,18,0,36.1,0,54.1
		c0,0.5,0,1,0,1.6c0.4,0,0.8,0,1.2,0c4.8,0,9.5,0,14.3,0c0.6,0,1.3-0.3,1.7-0.7c3.8-3.7,7.5-7.5,11.3-11.3c0.3-0.3,0.5-0.7,0.6-0.9
		c6.8,6.8,13.4,13.4,20.1,20.1c-16.3,0-32.7,0-49.1,0c0,0.5-0.1,0.9-0.1,1.3c0,9.8,0,19.5,0,29.3c0,1,0.3,1.3,1.2,1.7
		c9.3,3.9,18.7,7.7,27.9,11.8c3.3,1.4,6.4,3.3,9.4,5.2c6.1,3.8,8.5,9.4,8,16.4c-0.2,3.4-1,6.6-2.3,9.7c-1.9,4.3-4.8,5-8.2,1.7
		c-1.8-1.8-3.4-3.9-4.8-6.1c-8-12.9-18.6-23.4-30.5-32.7C114,160.8,113.9,160.7,113.5,160.5z"/>
</g>
</svg>
