<?xml version="1.0" encoding="utf-8"?>
<!-- Generator: Adobe Illustrator 20.1.0, SVG Export Plug-In . SVG Version: 6.00 Build 0)  -->
<svg version="1.1" id="图层_1" xmlns="http://www.w3.org/2000/svg" xmlns:xlink="http://www.w3.org/1999/xlink" x="0px" y="0px"
	 viewBox="0 0 360 360" style="enable-background:new 0 0 360 360;" xml:space="preserve">
<style type="text/css">
	.st0{fill:#FFFFFF;}
</style>
<g>
	<path class="st0" d="M0.2,360.5c0-120.1,0-240.2,0-360.2c120.1,0,240.2,0,360.2,0c0,120.1,0,240.2,0,360.2
		C240.4,360.5,120.3,360.5,0.2,360.5z M160.6,180.4c-28.9,49.8-67.1,90.4-115.5,121.3c1.1,1.1,2.1,2.1,3.2,3.1
		c0.2,0.2,0.8,0.3,1.1,0.1c2.1-1,4.2-2,6.2-3.1c29.6-15.6,55.8-35.7,79-59.8c13.2-13.7,25.3-28.5,36.3-44c0.4-0.6,0.9-1.2,1.3-1.7
		c0,20.4,0.1,40.7,0,61c-0.1,20.3-0.5,40.6-0.7,60.9c0.2,0,0.4,0,0.5-0.1c6.3-3,12.6-5.9,18.8-8.9c0.3-0.2,0.6-0.8,0.6-1.2
		c-0.1-3-0.3-6.1-0.4-9.1c-0.2-10.3-0.4-20.5-0.5-30.8c-0.1-15.2-0.2-30.5-0.2-45.7c0-13.5,0-27,0-40.4c0-0.4,0-0.9,0-1.4
		c2,0,3.9,0.1,5.7,0c1,0,1.4,0.3,1.6,1.2c8.5,31.2,25.2,57.4,48.4,79.6c12.7,12.2,26.8,22.5,41.8,31.7c1.6,1,3.3,2,5,3
		c5.5-11.5,15.2-15.7,27.1-16.5c0-0.9,0-1.6,0-2.4c0-0.8,0-1.6,0-2.4c-25.9-5.4-49.5-15.6-70-32.4c-20.4-16.8-35.3-37.8-46.6-61.8
		c37.8,0,75.3,0,112.8,0c-8.3-8.3-16.4-16.4-24.8-24.8c-0.2,0.3-0.3,0.7-0.6,1c-5.3,5.3-10.6,10.6-15.8,15.9c-0.6,0.6-1.1,0.9-2,0.9
		c-27,0-54.1,0-81.1,0c-0.4,0-0.8,0-1.3,0c0-0.5-0.1-0.8-0.1-1.1c0-35.8,0-71.6,0-107.4c0-0.8,0.3-1.2,1-1.6
		c3.2-1.9,6.4-3.9,9.7-5.8c0.4-0.2,0.7-0.4,1.2-0.8c-10.3-5.5-20.4-11-30.7-16.6c1.8,44.6,1,88.8,1.2,133.2c-41.3,0-82.3,0-123.5,0
		c0.2,0.3,0.2,0.4,0.3,0.4c3.2,3.2,6.4,6.5,9.7,9.7c0.3,0.3,0.9,0.4,1.3,0.3c8.7-2.2,17.5-3.3,26.5-3.3c24.1,0,48.2,0,72.2,0
		C159.3,180.4,159.8,180.4,160.6,180.4z"/>
	<path d="M160.6,180.4c-0.8,0-1.2,0-1.7,0c-24.1,0-48.2,0-72.2,0c-8.9,0-17.8,1.1-26.5,3.3c-0.4,0.1-1.1,0-1.3-0.3
		c-3.3-3.2-6.5-6.4-9.7-9.7c-0.1-0.1-0.1-0.2-0.3-0.4c41.2,0,82.3,0,123.5,0c-0.2-44.4,0.6-88.6-1.2-133.2
		c10.4,5.6,20.5,11,30.7,16.6c-0.5,0.3-0.8,0.5-1.2,0.8c-3.2,1.9-6.4,3.9-9.7,5.8c-0.6,0.4-1,0.8-1,1.6c0,35.8,0,71.6,0,107.4
		c0,0.3,0,0.6,0.1,1.1c0.5,0,0.9,0,1.3,0c27,0,54.1,0,81.1,0c0.8,0,1.4-0.3,2-0.9c5.3-5.3,10.6-10.6,15.8-15.9
		c0.3-0.3,0.5-0.7,0.6-1c8.4,8.4,16.6,16.6,24.8,24.8c-37.5,0-75.1,0-112.8,0c11.3,24,26.2,45,46.6,61.8c20.5,16.8,44,27.1,70,32.4
		c0,0.8,0,1.6,0,2.4c0,0.8,0,1.5,0,2.4c-11.9,0.8-21.6,5-27.1,16.5c-1.7-1-3.3-2-5-3c-15-9.1-29.1-19.5-41.8-31.7
		c-23.2-22.2-39.9-48.4-48.4-79.6c-0.3-0.9-0.6-1.3-1.6-1.2c-1.9,0.1-3.7,0-5.7,0c0,0.6,0,1,0,1.4c0,13.5,0,27,0,40.4
		c0,15.2,0.1,30.5,0.2,45.7c0.1,10.3,0.3,20.5,0.5,30.8c0.1,3,0.3,6.1,0.4,9.1c0,0.4-0.3,1-0.6,1.2c-6.3,3-12.6,5.9-18.8,8.9
		c-0.1,0-0.2,0-0.5,0.1c0.3-20.3,0.6-40.6,0.7-60.9c0.1-20.3,0-40.6,0-61c-0.4,0.6-0.8,1.1-1.3,1.7c-11,15.6-23,30.3-36.3,44
		c-23.2,24.1-49.4,44.2-79,59.8c-2,1.1-4.1,2.1-6.2,3.1c-0.3,0.1-0.9,0.1-1.1-0.1c-1-0.9-2-1.9-3.2-3.1
		C93.5,270.7,131.7,230.2,160.6,180.4z"/>
</g>
</svg>
