<?xml version="1.0" encoding="utf-8"?>
<!-- Generator: Adobe Illustrator 20.1.0, SVG Export Plug-In . SVG Version: 6.00 Build 0)  -->
<svg version="1.1" id="图层_1" xmlns="http://www.w3.org/2000/svg" xmlns:xlink="http://www.w3.org/1999/xlink" x="0px" y="0px"
	 viewBox="0 0 360 360" style="enable-background:new 0 0 360 360;" xml:space="preserve">
<style type="text/css">
	.st0{fill:#FFFFFF;}
</style>
<g>
	<path class="st0" d="M0.2,360.5c0-120.1,0-240.2,0-360.2c120.1,0,240.2,0,360.2,0c0,120.1,0,240.2,0,360.2
		C240.4,360.5,120.3,360.5,0.2,360.5z M107.6,41.3c1.1,29.1,1.1,58.1,1.1,87.1c-10.6,0-21.1,0-31.6,0c0.2-0.5,0.3-1,0.5-1.4
		c3.1-8.1,6.3-16.1,9.2-24.2c1.2-3.4,3.1-6.1,6.3-7.9c1.4-0.8,2.6-1.8,4.1-2.9c-9.1-4.8-18.1-9.4-27-14.1
		c-4.1,39.7-12.9,78.2-27.2,115.5c1.1,0.7,2.2,1.5,3.5,2.3c1.5-2.5,3.1-4.9,4.5-7.3c9.7-16.4,17.5-33.8,24.4-51.6
		c0.4-0.9,0.8-1.2,1.8-1.2c10.1,0,20.2,0,30.2,0c0.4,0,0.9,0,1.3,0c0,0.5,0.1,0.8,0.1,1.1c0,20.9,0,41.8,0,62.6
		c0,0.8-0.2,1.1-0.9,1.4c-3.7,1.3-7.3,2.7-10.9,4c-15.2,5.4-30.4,10.8-45.9,15.1c-2.3,0.6-4.6,1.2-7,1.8c4.4,7.1,8.6,14.1,12.9,21
		c1-1.2,1.8-2.4,2.9-3.2c3.3-2.5,6.7-5.1,10.2-7.3c12.2-7.5,25.2-13.5,38.1-19.6c0.2-0.1,0.4-0.1,0.7-0.1
		c-0.1,35.3,0.1,70.5-1.1,105.7c0.2,0,0.3,0,0.4,0c6-3,11.9-5.9,17.9-9c0.3-0.1,0.5-0.7,0.5-1c0-1.1-0.1-2.2-0.2-3.2
		c-0.2-10.9-0.6-21.9-0.7-32.8c-0.2-12.6-0.2-25.1-0.3-37.7c0-9.2,0-18.5,0-27.7c0-1.1,0.3-1.6,1.3-2.1c16.5-8.2,33-16.4,49.4-24.7
		c0.4-0.2,0.8-0.4,1.2-0.6c-0.8-1.6-1.6-3.2-2.4-4.8c-16.5,6.7-32.9,13.3-49.4,20c0-19.7,0-39.2,0-58.8c16.9,0,33.6,0,50.6,0
		c-6.4-7.6-12.6-14.9-18.8-22.4c-0.4,0.4-0.7,0.6-0.9,0.9c-4.2,4.5-8.3,9.1-12.6,13.5c-0.4,0.4-1.1,0.8-1.7,0.8
		c-5.2,0.1-10.3,0-15.5,0c-0.3,0-0.7,0-1.1-0.1c0-0.6,0-1.1,0-1.6c0-21.3,0-42.6,0-64c0-1.9,0.5-3.2,2-4.3c2.6-2,4.9-4.3,7.5-6.5
		C125.7,48.3,116.7,44.8,107.6,41.3z"/>
	<path d="M107.6,41.3c9.1,3.6,18,7.1,27.2,10.6c-2.6,2.3-5,4.5-7.5,6.5c-1.5,1.2-2,2.4-2,4.3c0.1,21.3,0,42.6,0,64c0,0.5,0,1,0,1.6
		c0.5,0,0.8,0.1,1.1,0.1c5.2,0,10.3,0,15.5,0c0.6,0,1.3-0.3,1.7-0.8c4.2-4.5,8.4-9,12.6-13.5c0.3-0.3,0.6-0.6,0.9-0.9
		c6.2,7.4,12.5,14.8,18.8,22.4c-17,0-33.7,0-50.6,0c0,19.6,0,39.1,0,58.8c16.4-6.7,32.8-13.3,49.4-20c0.8,1.6,1.6,3.1,2.4,4.8
		c-0.4,0.2-0.8,0.4-1.2,0.6c-16.5,8.2-32.9,16.5-49.4,24.7c-1,0.5-1.3,1-1.3,2.1c0,9.2,0,18.5,0,27.7c0.1,12.6,0.1,25.1,0.3,37.7
		c0.1,10.9,0.5,21.9,0.7,32.8c0,1.1,0.2,2.2,0.2,3.2c0,0.3-0.2,0.9-0.5,1c-5.9,3-11.9,6-17.9,9c-0.1,0-0.2,0-0.4,0
		c1.2-35.2,1-70.4,1.1-105.7c-0.3,0.1-0.5,0.1-0.7,0.1c-13,6.1-25.9,12.1-38.1,19.6c-3.6,2.2-6.9,4.8-10.2,7.3
		c-1.1,0.8-1.9,2-2.9,3.2c-4.2-6.9-8.5-13.9-12.9-21c2.4-0.6,4.7-1.2,7-1.8c15.5-4.3,30.8-9.7,45.9-15.1c3.6-1.3,7.3-2.7,10.9-4
		c0.7-0.3,0.9-0.6,0.9-1.4c0-20.9,0-41.8,0-62.6c0-0.3,0-0.6-0.1-1.1c-0.5,0-0.9,0-1.3,0c-10.1,0-20.2,0-30.2,0
		c-1,0-1.4,0.3-1.8,1.2c-6.9,17.8-14.7,35.1-24.4,51.6c-1.4,2.4-3,4.8-4.5,7.3c-1.3-0.8-2.4-1.6-3.5-2.3
		C57.2,156.1,66,117.6,70.1,77.9C79,82.5,88,87.2,97.1,92c-1.4,1-2.7,2.1-4.1,2.9c-3.2,1.8-5,4.4-6.3,7.9
		c-2.9,8.1-6.1,16.1-9.2,24.2c-0.2,0.4-0.3,0.9-0.5,1.4c10.5,0,21,0,31.6,0C108.7,99.4,108.7,70.4,107.6,41.3z"/>
</g>
</svg>
