<?xml version="1.0" encoding="utf-8"?>
<!-- Generator: Adobe Illustrator 20.1.0, SVG Export Plug-In . SVG Version: 6.00 Build 0)  -->
<svg version="1.1" id="图层_1" xmlns="http://www.w3.org/2000/svg" xmlns:xlink="http://www.w3.org/1999/xlink" x="0px" y="0px"
	 viewBox="0 0 360 360" style="enable-background:new 0 0 360 360;" xml:space="preserve">
<style type="text/css">
	.st0{fill:#FFFFFF;}
</style>
<g>
	<path class="st0" d="M0.2,360.5c0-120.1,0-240.2,0-360.2c120.1,0,240.2,0,360.2,0c0,120.1,0,240.2,0,360.2
		C240.4,360.5,120.3,360.5,0.2,360.5z M118.2,109.6c-7.8,36.8-22.3,70.6-43.6,101.4c1.3,0.9,2.4,1.6,3.8,2.5
		c4.1-4.2,8.2-8.2,12.1-12.5c9.2-10.1,17.1-21.2,24.6-32.6c0.5-0.7,1-1.1,1.9-1.1c19.6,0,39.1,0,58.7,0c0.4,0,0.8,0,1.2,0.1
		c0,19.7,0,39.2,0,58.8c-42.7,0-85.4,0-128.3,0c0.4,0.5,0.7,0.7,0.9,1c2.9,2.9,5.8,5.8,8.7,8.8c0.6,0.7,1.2,0.8,2.1,0.6
		c8.2-2.2,16.5-3.2,24.9-3.2c30.1-0.1,60.2,0,90.2,0c0.5,0,0.9,0,1.5,0c-0.1,27.9,0,55.7-1.2,83.6c6.2-2.3,12.2-4.6,18.3-6.9
		c0.3-0.1,0.6-0.6,0.5-1c-0.1-2.5-0.3-5-0.3-7.5c-0.3-12.8-0.6-25.6-0.7-38.4c-0.1-9.4,0-18.9-0.1-28.3c0-0.5,0-0.9,0-1.5
		c41.2,0,82.3,0,123.7,0c-7.6-8-15-15.8-22.5-23.7c-5.7,5.3-11.2,10.5-16.8,15.7c-0.7,0.6-1.3,0.9-2.2,0.9c-27,0-53.9,0-80.9,0
		c-0.4,0-0.9,0-1.3,0c0-19.7,0-39.2,0-58.9c30.6,0,61,0,91.8,0c-7.6-8-15-15.8-22.6-23.8c-0.3,0.4-0.5,0.8-0.8,1.1
		c-4.9,4.9-9.8,9.8-14.7,14.8c-0.6,0.6-1.1,0.8-1.9,0.8c-16.8,0-33.7,0-50.5,0c-0.4,0-0.8,0-1.3,0c0-0.3-0.1-0.5-0.1-0.7
		c0-11.3,0-22.6,0-33.8c0-0.4,0.4-1,0.7-1.3c3.1-2.3,6.3-4.5,9.5-6.7c0.5-0.3,0.9-0.7,1.5-1.1c-9.9-4.7-19.6-9.4-29.5-14.1
		c1.2,19.3,1,38.5,1.1,57.6c-19.7,0-39.2,0-58.7,0c0.1-0.3,0.2-0.5,0.3-0.7c4.4-8.9,8.9-17.8,13.4-26.7c0.2-0.4,0.7-0.9,1.2-1.1
		c3.3-1.7,6.6-3.3,10-5c0.3-0.1,0.6-0.3,1-0.6C135.5,120.6,126.9,115.1,118.2,109.6z"/>
	<path d="M118.2,109.6c8.7,5.5,17.3,11,26,16.5c-0.4,0.2-0.7,0.4-1,0.6c-3.3,1.7-6.6,3.3-10,5c-0.5,0.2-0.9,0.6-1.2,1.1
		c-4.5,8.9-8.9,17.8-13.4,26.7c-0.1,0.2-0.2,0.4-0.3,0.7c19.6,0,39.1,0,58.7,0c-0.1-19.2,0-38.3-1.1-57.6
		c9.8,4.7,19.6,9.4,29.5,14.1c-0.6,0.4-1,0.8-1.5,1.1c-3.2,2.2-6.4,4.4-9.5,6.7c-0.4,0.3-0.7,0.9-0.7,1.3c0,11.3,0,22.6,0,33.8
		c0,0.2,0,0.3,0.1,0.7c0.4,0,0.8,0,1.3,0c16.8,0,33.7,0,50.5,0c0.8,0,1.3-0.2,1.9-0.8c4.9-4.9,9.8-9.9,14.7-14.8
		c0.3-0.3,0.5-0.7,0.8-1.1c7.6,8,15,15.8,22.6,23.8c-30.8,0-61.3,0-91.8,0c0,19.7,0,39.2,0,58.9c0.5,0,0.9,0,1.3,0
		c27,0,53.9,0,80.9,0c0.9,0,1.6-0.3,2.2-0.9c5.5-5.2,11.1-10.4,16.8-15.7c7.4,7.8,14.8,15.6,22.5,23.7c-41.4,0-82.5,0-123.7,0
		c0,0.6,0,1.1,0,1.5c0,9.4-0.1,18.9,0.1,28.3c0.2,12.8,0.4,25.6,0.7,38.4c0.1,2.5,0.3,5,0.3,7.5c0,0.3-0.3,0.9-0.5,1
		c-6,2.3-12.1,4.6-18.3,6.9c1.1-27.9,1.1-55.7,1.2-83.6c-0.6,0-1.1,0-1.5,0c-30.1,0-60.2,0-90.2,0c-8.4,0-16.7,1.1-24.9,3.2
		c-0.9,0.2-1.4,0.1-2.1-0.6c-2.9-3-5.8-5.8-8.7-8.8c-0.3-0.3-0.5-0.6-0.9-1c42.9,0,85.5,0,128.3,0c0-19.6,0-39.2,0-58.8
		c-0.4,0-0.8-0.1-1.2-0.1c-19.6,0-39.1,0-58.7,0c-0.9,0-1.4,0.3-1.9,1.1c-7.5,11.4-15.4,22.5-24.6,32.6c-3.9,4.3-8.1,8.3-12.1,12.5
		c-1.4-0.9-2.6-1.7-3.8-2.5C95.9,180.2,110.4,146.4,118.2,109.6z"/>
</g>
</svg>
