<?xml version="1.0" encoding="utf-8"?>
<!-- Generator: Adobe Illustrator 20.1.0, SVG Export Plug-In . SVG Version: 6.00 Build 0)  -->
<svg version="1.1" id="图层_1" xmlns="http://www.w3.org/2000/svg" xmlns:xlink="http://www.w3.org/1999/xlink" x="0px" y="0px"
	 viewBox="0 0 360 360" style="enable-background:new 0 0 360 360;" xml:space="preserve">
<style type="text/css">
	.st0{fill:#FFFFFF;}
</style>
<g>
	<path class="st0" d="M-0.2,360.2c0-120.1,0-240.2,0-360.2C119.8,0,239.9,0,360,0c0,120.1,0,240.2,0,360.2
		C239.9,360.2,119.8,360.2-0.2,360.2z M193.3,210.7c0-0.3-0.1-0.4-0.1-0.5c0-7.4,0-14.9,0-22.3c0-0.5,0.4-1,0.8-1.3
		c3.3-2.7,6.7-5.4,10.1-8.1c0.3-0.2,0.5-0.4,0.8-0.7c-9.9-3.9-19.6-7.8-29.5-11.8c1,15,1.1,29.9,1.2,44.7c-21.2,0-42.3,0-63.5,0
		c5.2-9.1,10.7-17.8,20.1-23.4c-8.5-4.4-16.6-8.7-24.9-13c-5,27.4-15.7,52.2-30.7,75.5c1.7,0.8,3.2,1.6,4.8,2.4
		c0.2-0.3,0.4-0.5,0.6-0.7c8.6-10.8,17.2-21.7,25.8-32.5c0.5-0.7,1.1-1,2-1c21.5,0,43,0,64.6,0c0.4,0,0.8,0,1.3,0.1
		c0,13,0,25.8,0,38.8c-43.1,0-86.2,0-129.5,0c0.4,0.4,0.6,0.7,0.8,0.9c3,3,6,6,9,9c0.6,0.6,1.1,0.7,1.9,0.5c8.5-2.3,17.2-3.3,26-3.3
		c30.2,0,60.4,0,90.6,0c0.4,0,0.8,0,1.5,0c-0.4,18.1-0.7,36.1-1.1,54c0,0,0.1,0,0.2,0c5.9-2.6,11.9-5.2,17.8-7.8
		c0.3-0.1,0.6-0.8,0.6-1.2c-0.1-3.6-0.4-7.3-0.5-10.9c-0.2-7.5-0.4-15-0.5-22.5c-0.1-3.8,0-7.7,0-11.7c41.6,0,83.1,0,124.8,0
		c-7.2-8-14.2-15.8-21.4-23.8c-0.3,0.5-0.6,0.9-0.9,1.2c-4.9,4.9-9.7,9.7-14.6,14.6c-0.6,0.6-1.2,0.9-2.1,0.9c-28.2,0-56.4,0-84.6,0
		c-0.4,0-0.8,0-1.3,0c0-13,0-25.8,0-38.8c27,0,54,0,81.2,0c-7.2-8-14.2-15.8-21.3-23.6c-0.4,0.5-0.7,0.8-1,1.2
		c-4.5,4.8-9,9.7-13.5,14.5c-0.6,0.6-1.2,0.9-2.1,0.9c-14,0-28.1,0-42.1,0C194.1,210.7,193.7,210.7,193.3,210.7z"/>
	<path d="M193.3,210.7c0.5,0,0.9,0,1.3,0c14,0,28.1,0,42.1,0c0.9,0,1.5-0.3,2.1-0.9c4.5-4.9,9-9.7,13.5-14.5c0.3-0.3,0.6-0.7,1-1.2
		c7.1,7.9,14.1,15.6,21.3,23.6c-27.2,0-54.2,0-81.2,0c0,13,0,25.8,0,38.8c0.4,0,0.8,0,1.3,0c28.2,0,56.4,0,84.6,0
		c0.9,0,1.5-0.3,2.1-0.9c4.8-4.9,9.7-9.7,14.6-14.6c0.3-0.3,0.5-0.7,0.9-1.2c7.2,8,14.2,15.8,21.4,23.8c-41.7,0-83.2,0-124.8,0
		c0,4-0.1,7.8,0,11.7c0.1,7.5,0.3,15,0.5,22.5c0.1,3.6,0.4,7.3,0.5,10.9c0,0.4-0.3,1-0.6,1.2c-5.9,2.6-11.8,5.2-17.8,7.8
		c-0.1,0-0.2,0-0.2,0c0.4-17.9,0.7-35.9,1.1-54c-0.7,0-1.1,0-1.5,0c-30.2,0-60.4,0-90.6,0c-8.8,0-17.5,1-26,3.3
		c-0.8,0.2-1.3,0.1-1.9-0.5c-3-3-6-6-9-9c-0.2-0.2-0.5-0.5-0.8-0.9c43.3,0,86.3,0,129.5,0c0-12.9,0-25.8,0-38.8
		c-0.4,0-0.8-0.1-1.3-0.1c-21.5,0-43,0-64.6,0c-0.9,0-1.4,0.3-2,1c-8.6,10.9-17.2,21.7-25.8,32.5c-0.2,0.2-0.4,0.4-0.6,0.7
		c-1.5-0.8-3.1-1.5-4.8-2.4c14.9-23.2,25.6-48.1,30.7-75.5c8.3,4.3,16.5,8.6,24.9,13c-9.4,5.6-14.8,14.3-20.1,23.4
		c21.2,0,42.3,0,63.5,0c-0.1-14.8-0.2-29.7-1.2-44.7c9.9,3.9,19.6,7.8,29.5,11.8c-0.3,0.3-0.6,0.5-0.8,0.7
		c-3.4,2.7-6.8,5.4-10.1,8.1c-0.4,0.3-0.8,0.9-0.8,1.3c0,7.4,0,14.9,0,22.3C193.2,210.3,193.2,210.4,193.3,210.7z"/>
</g>
</svg>
