<?xml version="1.0" encoding="utf-8"?>
<!-- Generator: Adobe Illustrator 20.1.0, SVG Export Plug-In . SVG Version: 6.00 Build 0)  -->
<svg version="1.1" id="图层_1" xmlns="http://www.w3.org/2000/svg" xmlns:xlink="http://www.w3.org/1999/xlink" x="0px" y="0px"
	 viewBox="0 0 360 360" style="enable-background:new 0 0 360 360;" xml:space="preserve">
<style type="text/css">
	.st0{fill:#FFFFFF;}
</style>
<g>
	<path class="st0" d="M0.2,360.5c0-120.1,0-240.2,0-360.2c120.1,0,240.2,0,360.2,0c0,120.1,0,240.2,0,360.2
		C240.4,360.5,120.3,360.5,0.2,360.5z M84.1,156.9c3-3,5.8-5.8,8.7-8.7c0.6-0.6,1.2-0.8,2-0.8c11.7,0,23.4,0,35,0c0.4,0,0.9,0,1.3,0
		c0,16.5,0,32.9,0,49.5c-26.3,0-52.5,0-78.9,0c3.6,3.6,6.9,6.9,10.3,10.2c0.3,0.3,0.9,0.3,1.3,0.2c4-0.9,8-1.8,12.1-2.6
		c2.3-0.4,4.6-0.5,7.1-0.8c-0.8,39.8-12.1,75.5-37.7,106.1c0.8,1.3,1.6,2.4,2.4,3.6c5.8-4.4,11.2-9.1,16.2-14.2
		c10.6-10.9,18.9-23.4,24.9-37.4c7-16.6,10.1-33.9,10.7-51.8c0.1-2,0-4,0-6.1c10.8,0,21.3,0,31.8,0c0,36.1,0.4,72.1-1.2,108.3
		c0.6-0.2,0.9-0.4,1.2-0.5c5.6-2.4,11.1-4.9,16.7-7.3c0.9-0.4,1-0.8,1-1.7c-0.4-12.2-1-24.4-1.1-36.5c-0.1-64.8-0.1-129.6,0-194.4
		c0-0.7,0.3-1.4,0.7-1.9c2.2-3,4.5-5.9,6.8-8.8c0.2-0.3,0.4-0.6,0.7-1c-8.7-3.9-17.2-7.8-26-11.8c1.9,30.8,1,61.3,1.2,91.8
		c-12.3,0-24.4,0-36.4,0c0-0.4-0.1-0.7-0.1-0.9c0-19.4,0-38.7,0-58.1c0-0.5,0.3-1.2,0.6-1.6c2.3-2.7,4.6-5.3,6.9-8
		c0.2-0.3,0.4-0.5,0.7-0.9c-8.7-3.5-17.2-7-25.9-10.6c0,0.5,0,0.9,0,1.2c0.4,9.1,0.9,18.3,1,27.4c0.2,15.7,0.1,31.4,0,47
		c0,0.5-0.4,1.2-0.8,1.5c-1.6,1.3-3.2,2.5-4.9,3.7c-1.2,0.9-2.4,1.8-3.7,2.8C73.9,148.2,78.9,152.5,84.1,156.9z"/>
	<path d="M84.1,156.9c-5.2-4.4-10.2-8.7-15.4-13c1.3-1,2.5-1.9,3.7-2.8c1.6-1.2,3.3-2.4,4.9-3.7c0.4-0.3,0.8-1,0.8-1.5
		c0-15.7,0.2-31.4,0-47c-0.1-9.1-0.7-18.3-1-27.4c0-0.3,0-0.6,0-1.2c8.6,3.5,17.2,7,25.9,10.6c-0.3,0.3-0.4,0.6-0.7,0.9
		c-2.3,2.7-4.7,5.3-6.9,8c-0.3,0.4-0.6,1.1-0.6,1.6c0,19.4,0,38.7,0,58.1c0,0.3,0,0.6,0.1,0.9c12.1,0,24.1,0,36.4,0
		c-0.3-30.5,0.7-61.1-1.2-91.8c8.8,4,17.3,7.9,26,11.8c-0.3,0.4-0.5,0.7-0.7,1c-2.3,2.9-4.6,5.8-6.8,8.8c-0.4,0.5-0.7,1.3-0.7,1.9
		c0,64.8-0.1,129.6,0,194.4c0,12.2,0.7,24.4,1.1,36.5c0,0.9-0.2,1.3-1,1.7c-5.6,2.4-11.1,4.8-16.7,7.3c-0.3,0.1-0.6,0.3-1.2,0.5
		c1.6-36.2,1.2-72.2,1.2-108.3c-10.6,0-21.1,0-31.8,0c0,2,0.1,4,0,6.1c-0.6,17.9-3.8,35.2-10.7,51.8c-5.9,14-14.2,26.5-24.9,37.4
		c-5,5.1-10.3,9.8-16.2,14.2c-0.8-1.2-1.6-2.3-2.4-3.6c25.6-30.6,36.9-66.3,37.7-106.1c-2.5,0.3-4.8,0.4-7.1,0.8
		c-4,0.8-8,1.8-12.1,2.6c-0.4,0.1-1,0-1.3-0.2c-3.4-3.3-6.7-6.6-10.3-10.2c26.5,0,52.7,0,78.9,0c0-16.5,0-32.9,0-49.5
		c-0.5,0-0.9,0-1.3,0c-11.7,0-23.4,0-35,0c-0.8,0-1.4,0.2-2,0.8C89.9,151,87.1,153.9,84.1,156.9z"/>
</g>
</svg>
