<?xml version="1.0" encoding="utf-8"?>
<!-- Generator: Adobe Illustrator 20.1.0, SVG Export Plug-In . SVG Version: 6.00 Build 0)  -->
<svg version="1.1" id="图层_1" xmlns="http://www.w3.org/2000/svg" xmlns:xlink="http://www.w3.org/1999/xlink" x="0px" y="0px"
	 viewBox="0 0 360 360" style="enable-background:new 0 0 360 360;" xml:space="preserve">
<style type="text/css">
	.st0{fill:#FFFFFF;}
</style>
<g>
	<path class="st0" d="M-0.2,360.2c0-120.1,0-240.2,0-360.2C119.8,0,239.9,0,360,0c0,120.1,0,240.2,0,360.2
		C239.9,360.2,119.8,360.2-0.2,360.2z M82.5,140.1c28.3,0,56.4,0,84.8,0c-6-6.4-11.9-12.7-17.9-19.1c-0.4,0.4-0.6,0.8-0.9,1.1
		c-3.4,3.4-6.7,6.8-10.1,10.1c-0.4,0.4-1.2,0.7-1.7,0.7c-2.8,0.1-5.5,0-8.3,0c-0.4,0-0.8,0-1.2,0c0-0.7,0-1.1,0-1.6
		c0-22.3,0-44.6-0.1-66.8c0-2.5,0.6-4.2,2.6-5.6c2.4-1.8,4.6-3.9,6.9-6c-8.3-4-16.5-7.9-24.8-11.8c1.1,30.7,1.1,61.3,1.1,91.8
		c-10.3,0-20.4,0-30.5,0c0-0.2-0.1-0.3-0.1-0.4c0-16.5,0-33,0-49.4c0-0.4,0.3-0.9,0.6-1.2c1.3-1.2,2.8-2.4,4.1-3.6
		c1.5-1.3,3-2.7,4.7-4.1c-8.7-4.4-17.3-8.6-25.9-13c0,0.4,0,0.6,0,0.7c0.2,4.2,0.4,8.3,0.5,12.5c0.3,13.5,0.6,27.1,0.9,40.6
		c0.1,7.2,0.3,14.5,0.3,21.7c0,13.3,0,26.5-0.2,39.8c-0.1,14.2-0.7,28.4-2,42.6c-0.9,9.9-1.9,19.8-3.5,29.6
		c-3,18.9-8,37.4-13.9,55.6c-1.1,3.4-2.2,6.7-3.4,10.1c1.6,0.8,3.2,1.6,4.7,2.4c0.3-0.5,0.6-0.8,0.8-1.2c8.6-13.5,15.2-28,20.1-43.2
		c4.2-13.1,7.2-26.6,9.1-40.3c1.5-10.6,2.4-21.3,2.9-32c0-0.7,0.1-1.5,0.1-2.3c14.2,0,28.2,0,42.3,0c0,32.5,0,65,0,97.6
		c0.3-0.1,0.4,0,0.5-0.1c5.1-2.6,10.3-5.1,15.4-7.7c0.3-0.2,0.6-0.8,0.6-1.2c-0.2-8.5-0.6-17.1-0.8-25.6c-0.2-9.1-0.3-18.1-0.3-27.2
		c-0.1-9.1,0-18.2-0.1-27.2c0-2,0.6-3.1,2.2-4.1c2.9-1.7,5.6-3.7,8.3-5.5c-5.5-5.5-11-11-16.5-16.5c-0.2,0.2-0.5,0.5-0.8,0.7
		c-3,3-6,6-9,9c-0.4,0.4-1.2,0.7-1.8,0.7c-13,0-25.9,0-38.9,0c-0.4,0-0.8,0-1.2-0.1C82.5,173.8,82.5,157,82.5,140.1z"/>
	<path d="M82.5,140.1c0,17,0,33.7,0,50.5c0.4,0,0.8,0.1,1.2,0.1c13,0,25.9,0,38.9,0c0.6,0,1.3-0.3,1.8-0.7c3-3,6-6,9-9
		c0.3-0.3,0.6-0.5,0.8-0.7c5.5,5.5,11,11,16.5,16.5c-2.7,1.8-5.4,3.8-8.3,5.5c-1.7,1-2.2,2.1-2.2,4.1c0.1,9.1,0,18.2,0.1,27.2
		c0.1,9.1,0.1,18.1,0.3,27.2c0.2,8.5,0.5,17.1,0.8,25.6c0,0.4-0.3,1-0.6,1.2c-5.1,2.6-10.3,5.2-15.4,7.7c-0.1,0-0.2,0-0.5,0.1
		c0-32.5,0-65,0-97.6c-14.2,0-28.2,0-42.3,0c0,0.8-0.1,1.5-0.1,2.3c-0.4,10.7-1.3,21.4-2.9,32c-2,13.7-4.9,27.1-9.1,40.3
		c-4.9,15.2-11.5,29.7-20.1,43.2c-0.2,0.4-0.5,0.7-0.8,1.2c-1.6-0.8-3.1-1.6-4.7-2.4c1.2-3.4,2.3-6.8,3.4-10.1
		c6-18.2,11-36.7,13.9-55.6c1.5-9.8,2.6-19.7,3.5-29.6c1.3-14.2,1.8-28.4,2-42.6c0.1-13.3,0.2-26.5,0.2-39.8
		c0-7.2-0.2-14.5-0.3-21.7c-0.3-13.5-0.6-27.1-0.9-40.6c-0.1-4.2-0.3-8.3-0.5-12.5c0-0.2,0-0.4,0-0.7c8.7,4.3,17.2,8.6,25.9,13
		c-1.6,1.4-3.2,2.8-4.7,4.1c-1.4,1.2-2.8,2.4-4.1,3.6c-0.3,0.3-0.6,0.8-0.6,1.2c0,16.5,0,33,0,49.4c0,0.1,0,0.2,0.1,0.4
		c10.1,0,20.2,0,30.5,0c0-30.6-0.1-61.1-1.1-91.8c8.3,4,16.5,7.8,24.8,11.8c-2.4,2.1-4.5,4.2-6.9,6c-2,1.5-2.6,3.2-2.6,5.6
		c0.1,22.3,0.1,44.6,0.1,66.8c0,0.5,0,1,0,1.6c0.4,0,0.8,0,1.2,0c2.8,0,5.5,0,8.3,0c0.6,0,1.3-0.3,1.7-0.7
		c3.4-3.3,6.8-6.7,10.1-10.1c0.3-0.3,0.6-0.7,0.9-1.1c6,6.4,11.8,12.6,17.9,19.1C138.9,140.1,110.7,140.1,82.5,140.1z"/>
</g>
</svg>
