<?xml version="1.0" encoding="utf-8"?>
<!-- Generator: Adobe Illustrator 20.1.0, SVG Export Plug-In . SVG Version: 6.00 Build 0)  -->
<svg version="1.1" id="图层_1" xmlns="http://www.w3.org/2000/svg" xmlns:xlink="http://www.w3.org/1999/xlink" x="0px" y="0px"
	 viewBox="0 0 360 360" style="enable-background:new 0 0 360 360;" xml:space="preserve">
<style type="text/css">
	.st0{fill:#FFFFFF;}
</style>
<g>
	<path class="st0" d="M0.2,360.5c0-120.1,0-240.2,0-360.2c120.1,0,240.2,0,360.2,0c0,120.1,0,240.2,0,360.2
		C240.4,360.5,120.3,360.5,0.2,360.5z M322,291.1c-2.5-0.3-4.9-0.5-7.2-0.9c-12.5-1.9-23.9-6.5-34.7-12.8
		c-14.6-8.6-27.1-19.6-38.8-31.7c-0.5-0.5-0.4-0.9-0.1-1.5c10.3-20.8,18.1-42.5,24.2-64.9c5.4-19.7,9.6-39.7,12.7-59.8
		c0.2-1.2,0.5-1.6,1.8-1.6c11.9,0.1,23.8,0,35.8,0c0.4,0,0.9,0,1.2,0c-7.5-7.5-14.9-14.9-22.3-22.3c-4.7,4.7-9.6,9.6-14.4,14.4
		c-0.4,0.4-1.2,0.8-1.8,0.8c-29.4,0-58.7,0-88.1,0c-0.4,0-0.8,0-1.4,0c0.2-0.6,0.3-1,0.5-1.3c6.3-15.5,12.7-30.9,18.9-46.5
		c1.1-2.9,2.7-4.8,5.6-6c2.7-1,5.2-2.5,8-4c-9.9-4.8-19.7-9.4-29.5-14.2c-10.2,51.3-25.5,100.8-49.5,147.3c0.7,0.5,1.2,0.8,1.8,1.2
		c0.6,0.4,1.2,0.8,1.8,1.2c15.2-21.1,27.2-43.8,37.5-67.6c0.2,0.3,0.2,0.6,0.2,0.8c1,14.1,2.9,28.1,5.9,42c6,28.2,15.8,55,29.9,80.2
		c0.4,0.8,0.5,1.3-0.2,2.1c-7.7,9-15.7,17.6-24.4,25.6c-16.5,15.4-34.7,28.6-54.7,39.2c-0.9,0.5-1.7,0.9-2.6,1.4
		c0.8,1.2,1.6,2.4,2.4,3.6c33.8-13.7,63.4-33.5,89.5-58.9c18,22.8,39.8,40.9,64.8,55.4c5.9-10.8,15.2-15.8,27.1-16.5
		C322,294.2,322,292.7,322,291.1z"/>
	<path d="M322,291.1c0,1.6,0,3,0,4.7c-11.9,0.8-21.2,5.7-27.1,16.5c-25.1-14.4-46.8-32.5-64.8-55.4c-26.1,25.3-55.8,45.2-89.5,58.9
		c-0.8-1.2-1.6-2.3-2.4-3.6c0.9-0.5,1.7-1,2.6-1.4c20-10.6,38.2-23.8,54.7-39.2c8.6-8.1,16.7-16.6,24.4-25.6
		c0.6-0.8,0.6-1.3,0.2-2.1c-14.1-25.2-23.9-52-29.9-80.2c-2.9-13.9-4.9-27.9-5.9-42c0-0.3-0.1-0.5-0.2-0.8
		c-10.3,23.7-22.3,46.5-37.5,67.6c-0.6-0.4-1.2-0.8-1.8-1.2c-0.6-0.4-1.1-0.8-1.8-1.2c24-46.5,39.3-96,49.5-147.3
		c9.9,4.7,19.6,9.4,29.5,14.2c-2.8,1.4-5.3,2.9-8,4c-2.9,1.1-4.4,3.1-5.6,6c-6.2,15.5-12.6,31-18.9,46.5c-0.1,0.4-0.3,0.7-0.5,1.3
		c0.6,0,1,0,1.4,0c29.4,0,58.7,0,88.1,0c0.6,0,1.4-0.3,1.8-0.8c4.9-4.8,9.7-9.6,14.4-14.4c7.4,7.4,14.8,14.8,22.3,22.3
		c-0.4,0-0.8,0-1.2,0c-11.9,0-23.8,0-35.8,0c-1.3,0-1.7,0.4-1.8,1.6c-3.1,20.2-7.3,40.2-12.7,59.8c-6.2,22.3-13.9,44.1-24.2,64.9
		c-0.3,0.5-0.4,0.9,0.1,1.5c11.6,12.1,24.2,23.2,38.8,31.7c10.8,6.3,22.3,10.9,34.7,12.8C317.2,290.6,319.6,290.8,322,291.1z
		 M230.1,231.2c1.2-2.4,2.3-4.5,3.2-6.6c6.7-14.5,11.4-29.7,15.4-45.2c4.9-18.9,8.4-38.1,11.5-57.4c0.2-1.3,0.4-2.6,0.6-4
		c-24,0-47.7,0-71.6,0c0,0.5,0.1,0.9,0.1,1.4c2.6,15.2,5.9,30.2,10.3,44.9c5.4,18.2,12.3,35.9,21.8,52.4
		C224,221.5,227,226.1,230.1,231.2z"/>
	<path class="st0" d="M230.1,231.2c-3.1-5-6.1-9.6-8.8-14.4c-9.5-16.5-16.4-34.2-21.8-52.4c-4.4-14.8-7.7-29.8-10.3-44.9
		c-0.1-0.4-0.1-0.9-0.1-1.4c23.9,0,47.7,0,71.6,0c-0.2,1.4-0.4,2.7-0.6,4c-3.1,19.3-6.6,38.5-11.5,57.4c-4,15.4-8.6,30.7-15.4,45.2
		C232.3,226.7,231.3,228.7,230.1,231.2z"/>
</g>
</svg>
