<?xml version="1.0" encoding="utf-8"?>
<!-- Generator: Adobe Illustrator 20.1.0, SVG Export Plug-In . SVG Version: 6.00 Build 0)  -->
<svg version="1.1" id="图层_1" xmlns="http://www.w3.org/2000/svg" xmlns:xlink="http://www.w3.org/1999/xlink" x="0px" y="0px"
	 viewBox="0 0 360 360" style="enable-background:new 0 0 360 360;" xml:space="preserve">
<style type="text/css">
	.st0{fill:#FFFFFF;}
</style>
<g>
	<path class="st0" d="M0.2,360.5c0-120.1,0-240.2,0-360.2c120.1,0,240.2,0,360.2,0c0,120.1,0,240.2,0,360.2
		C240.4,360.5,120.3,360.5,0.2,360.5z M305.5,241.6c-2,17.7-3.9,35.2-5.9,53c-0.6-0.5-1.1-0.8-1.5-1.1c-7.5-5.8-12.9-13.3-17.2-21.6
		c-4.9-9.6-8-19.9-10.7-30.3c-4.2-16-6.4-32.3-7.5-48.8c-1.1-17.2-1.3-34.4-0.9-51.7c0.1-2.3,0.7-3.7,2.7-4.8
		c2.8-1.6,5.3-3.5,7.8-5.2c-5.1-5.1-10.2-10.2-15.3-15.3c-3.4,3.4-7,6.9-10.5,10.5c-0.8,0.8-1.6,1.1-2.7,1.1
		c-53.4,0-106.9,0-160.3,0c-0.5,0-1.1,0-1.9,0c3.6,3.6,7,7,10.4,10.3c0.2,0.2,0.8,0.2,1.2,0.1c8.9-2.3,18-3.3,27.2-3.3
		c41.2,0,82.5,0,123.7,0c0.4,0,0.8,0,1.4,0c0,1.3,0,2.5,0,3.6c0.1,7.5,0,15,0.3,22.4c0.4,11.9,0.8,23.9,1.4,35.8
		c0.7,13.1,2,26.1,4.3,39.1c2.8,15.8,7.4,31.1,14.9,45.5c4.1,8,9,15.4,15.3,21.8c7.7,7.7,16.8,12.8,27.4,15.1c2.3,0.5,4.7,0.7,7,0.7
		c2.5,0,3.7-1.8,3.2-4.2c-0.3-1.2-0.7-2.3-1.1-3.4c-4.1-9.9-6.7-20.1-7.1-30.8c-0.3-10.5-0.5-20.9-0.8-31.4c0-1.9,0-3.9,0-5.9
		C308.6,242.3,307.2,242,305.5,241.6z M47.5,146.2c0.2-0.1,0.3-0.2,0.4-0.2c10.4-7.1,20.3-14.8,29.1-23.8
		c12.6-12.7,23.1-27.1,33.2-41.8c0.7-1,1.3-1.3,2.5-1.3c64,0,128.1,0,192.1,0c0.5,0,1.1,0,1.9,0c-6.4-7.6-12.7-15.1-18.9-22.5
		c-6.4,4.9-12.7,9.7-19.1,14.6c-0.7,0.5-1.4,0.8-2.3,0.8c-50.5,0-101,0-151.4,0c-0.4,0-0.9,0-1.5,0c0.2-0.5,0.4-0.9,0.5-1.2
		c1.5-2.8,3.2-5.5,4.6-8.3c1.7-3.3,4-5.7,7.6-6.7c1.2-0.3,2.3-1,3.4-1.5c0.8-0.4,1.6-0.7,2.6-1.2c-8-5.2-15.8-10.2-23.6-15.3
		c-0.2,0.7-0.4,1.2-0.6,1.7c-2.3,6.5-4.4,13-6.9,19.4c-5,13.1-11.9,25.2-19,37.2c-9.1,15.4-19.6,29.8-32.6,42.2
		c-1.5,1.5-3.1,2.9-4.6,4.4C45.9,143.9,46.7,145,47.5,146.2z M260.9,103.8c-5.7-6.5-11.1-12.7-16.6-18.9c-4.4,3.7-8.8,7.3-13.1,10.9
		c-0.7,0.6-1.5,0.9-2.5,0.9c-41,0-81.9,0-122.9,0c-0.5,0-1,0-1.5,0c0.1,0.2,0.1,0.3,0.1,0.4c3.3,3.3,6.5,6.6,9.9,9.8
		c0.2,0.2,0.8,0.3,1.1,0.2c9.2-2.4,18.5-3.3,28-3.3c38.5,0,77,0,115.6,0C259.5,103.8,260,103.8,260.9,103.8z"/>
	<path d="M305.5,241.6c1.6,0.4,3.1,0.8,4.8,1.2c0,2,0,3.9,0,5.9c0.2,10.5,0.4,20.9,0.8,31.4c0.3,10.7,3,20.9,7.1,30.8
		c0.5,1.1,0.9,2.2,1.1,3.4c0.5,2.5-0.7,4.2-3.2,4.2c-2.3,0-4.7-0.2-7-0.7c-10.6-2.4-19.8-7.4-27.4-15.1
		c-6.3-6.4-11.2-13.8-15.3-21.8c-7.4-14.4-12-29.6-14.9-45.5c-2.3-12.9-3.6-26-4.3-39.1c-0.6-11.9-1.1-23.9-1.4-35.8
		c-0.2-7.5-0.2-14.9-0.3-22.4c0-1.2,0-2.3,0-3.6c-0.6,0-1,0-1.4,0c-41.2,0-82.5,0-123.7,0c-9.2,0-18.3,1-27.2,3.3
		c-0.4,0.1-1,0.1-1.2-0.1c-3.4-3.3-6.7-6.7-10.4-10.3c0.8,0,1.4,0,1.9,0c53.4,0,106.9,0,160.3,0c1.1,0,1.9-0.3,2.7-1.1
		c3.5-3.6,7-7.1,10.5-10.5c5.1,5.1,10.2,10.2,15.3,15.3c-2.5,1.7-5.1,3.6-7.8,5.2c-2,1.1-2.7,2.5-2.7,4.8
		c-0.4,17.2-0.2,34.4,0.9,51.7c1.1,16.5,3.3,32.8,7.5,48.8c2.7,10.4,5.8,20.7,10.7,30.3c4.3,8.3,9.7,15.8,17.2,21.6
		c0.4,0.3,0.9,0.6,1.5,1.1C301.6,276.8,303.5,259.2,305.5,241.6z"/>
	<path d="M47.5,146.2c-0.8-1.2-1.6-2.3-2.4-3.5c1.6-1.5,3.1-2.9,4.6-4.4c13-12.4,23.5-26.8,32.6-42.2c7.1-12,14-24.1,19-37.2
		c2.5-6.4,4.6-12.9,6.9-19.4c0.2-0.5,0.3-1.1,0.6-1.7c7.9,5.1,15.6,10.2,23.6,15.3c-1,0.5-1.8,0.8-2.6,1.2c-1.1,0.5-2.2,1.2-3.4,1.5
		c-3.6,1-5.9,3.4-7.6,6.7c-1.4,2.8-3.1,5.5-4.6,8.3c-0.2,0.3-0.3,0.7-0.5,1.2c0.6,0,1,0,1.5,0c50.5,0,101,0,151.4,0
		c0.9,0,1.6-0.3,2.3-0.8c6.3-4.8,12.6-9.7,19.1-14.6c6.3,7.4,12.5,14.9,18.9,22.5c-0.8,0-1.4,0-1.9,0c-64,0-128.1,0-192.1,0
		c-1.2,0-1.8,0.3-2.5,1.3c-10.1,14.7-20.6,29.1-33.2,41.8c-8.9,8.9-18.8,16.7-29.1,23.8C47.8,146,47.7,146.1,47.5,146.2z"/>
	<path d="M260.9,103.8c-0.9,0-1.4,0-1.9,0c-38.5,0-77,0-115.6,0c-9.5,0-18.8,0.9-28,3.3c-0.3,0.1-0.9,0-1.1-0.2
		c-3.3-3.3-6.6-6.5-9.9-9.8c0,0,0-0.1-0.1-0.4c0.5,0,1,0,1.5,0c41,0,81.9,0,122.9,0c1,0,1.7-0.3,2.5-0.9c4.3-3.6,8.6-7.2,13.1-10.9
		C249.7,91.1,255.2,97.3,260.9,103.8z"/>
</g>
</svg>
