<?xml version="1.0" encoding="utf-8"?>
<!-- Generator: Adobe Illustrator 20.1.0, SVG Export Plug-In . SVG Version: 6.00 Build 0)  -->
<svg version="1.1" id="图层_1" xmlns="http://www.w3.org/2000/svg" xmlns:xlink="http://www.w3.org/1999/xlink" x="0px" y="0px"
	 viewBox="0 0 360 360" style="enable-background:new 0 0 360 360;" xml:space="preserve">
<style type="text/css">
	.st0{fill:#FFFFFF;}
</style>
<g>
	<path class="st0" d="M0.2,360.5c0-120.1,0-240.2,0-360.2c120.1,0,240.2,0,360.2,0c0,120.1,0,240.2,0,360.2
		C240.4,360.5,120.3,360.5,0.2,360.5z M120.6,313.7c6.3-2.5,12.5-4.7,18.5-7.3c18.5-8,35.1-18.8,49.6-32.9
		c11-10.7,19.7-23.1,26.1-37c9.7-20.9,15-43.1,18.7-65.7c0.4-2.7,0.8-5.4,1.3-8.4c0.1,0.4,0.1,0.5,0.2,0.6
		c0.9,7.3,1.7,14.5,2.6,21.8c2.1,15.9,5.3,31.5,9.6,46.9c4.7,16.7,11.6,32.4,21.5,46.7c7.1,10.1,15.1,19.4,23.8,28.2
		c0.7,0.7,1.5,1.4,2.4,2.2c5.8-9.2,14.7-11.6,24.7-11.8c0-0.9-0.1-1.6,0-2.4c0.1-0.9-0.2-1.3-1.1-1.6c-4-1.7-8-3.3-11.7-5.4
		c-13.9-7.6-24.7-18.5-33.5-31.5c-9.3-13.8-15.8-28.8-20.8-44.6c-6.4-20-10.2-40.6-12.8-61.4c-0.2-1.2,0.2-2,1.1-2.7
		c2.1-1.7,4.1-3.5,6.1-5.2c0.3-0.2,0.6-0.4,1-0.7c-8.9-4-17.5-7.9-26.1-11.9c-0.1,0.5-0.1,0.7-0.1,0.9c-0.8,16.6-2.4,33.2-5.3,49.5
		c-2.5,14.1-6,27.9-11,41.4c-7.3,19.6-18.1,36.9-32.8,51.8c-10.4,10.5-22.2,19.3-35.1,26.5c-5.6,3.1-11.4,5.7-17.2,8.5
		c-0.5,0.2-1.1,0.3-0.8,1.2C119.9,310.7,120.2,312.1,120.6,313.7z M298.5,96.6c-4.1,4.5-8.2,8.9-12.2,13.3c-0.6,0.7-1.3,0.9-2.2,0.9
		c-25.8,0-51.5,0-77.3,0c-0.4,0-0.8,0-1.4,0c0.1-0.3,0.1-0.5,0.2-0.7c4.9-14.4,9.9-28.9,14.8-43.3c0.2-0.5,0.5-1,1-1.3
		c2.6-2.1,5.2-4.1,7.8-6.1c0.6-0.5,1.3-1,2-1.6c-8.7-4.8-17.3-9.4-25.9-14.1c-0.1,0.4-0.2,0.6-0.2,0.9c-0.8,4.4-1.5,8.8-2.4,13.2
		c-2.9,14.9-6.7,29.6-10.7,44.2c-6.6,24.6-15.8,48.1-27.6,70.7c-1.3,2.5-2.7,5.1-4,7.7c1.2,0.8,2.4,1.6,3.5,2.4
		c0.3-0.3,0.4-0.5,0.6-0.7c14.9-19.5,27.6-40.4,37.7-62.8c0.4-0.9,0.9-1.2,1.8-1.2c27.3,0,54.6,0,82,0c0.4,0,0.9,0,1.5,0
		c-5.5,12.3-11,24.3-16.4,36.4c0.3,0.2,0.5,0.4,0.7,0.6c0.9,0.6,1.9,1.2,2.8,1.9c0.3-0.4,0.5-0.7,0.8-1c6.6-9,13.6-17.7,22-25.2
		c6-5.3,12.6-9.5,20.5-11.4c0.1,0,0.2-0.1,0.4-0.2C311.8,111.5,305.2,104.1,298.5,96.6z"/>
	<path d="M120.6,313.7c-0.4-1.7-0.7-3-1.1-4.3c-0.2-0.8,0.4-0.9,0.8-1.2c5.7-2.8,11.6-5.5,17.2-8.5c13-7.1,24.7-15.9,35.1-26.5
		c14.7-14.9,25.5-32.2,32.8-51.8c5-13.4,8.5-27.3,11-41.4c2.9-16.4,4.6-32.9,5.3-49.5c0-0.2,0.1-0.5,0.1-0.9
		c8.7,3.9,17.2,7.8,26.1,11.9c-0.5,0.3-0.8,0.5-1,0.7c-2,1.7-4,3.6-6.1,5.2c-1,0.8-1.3,1.5-1.1,2.7c2.6,20.8,6.4,41.4,12.8,61.4
		c5,15.7,11.5,30.8,20.8,44.6c8.8,13,19.6,23.9,33.5,31.5c3.8,2.1,7.8,3.7,11.7,5.4c0.9,0.4,1.2,0.7,1.1,1.6c-0.1,0.7,0,1.5,0,2.4
		c-10,0.2-18.9,2.6-24.7,11.8c-0.8-0.8-1.6-1.5-2.4-2.2c-8.7-8.7-16.8-18-23.8-28.2c-10-14.3-16.9-29.9-21.5-46.7
		c-4.3-15.4-7.5-31.1-9.6-46.9c-1-7.2-1.8-14.5-2.6-21.8c0-0.1-0.1-0.2-0.2-0.6c-0.5,3-0.8,5.7-1.3,8.4c-3.6,22.6-9,44.8-18.7,65.7
		c-6.5,13.9-15.1,26.3-26.1,37c-14.5,14.1-31.1,24.9-49.6,32.9C133.1,309,126.9,311.3,120.6,313.7z"/>
	<path d="M298.5,96.6c6.7,7.5,13.3,14.9,20,22.4c-0.2,0.1-0.2,0.2-0.4,0.2c-7.9,1.9-14.5,6.1-20.5,11.4c-8.4,7.4-15.4,16.1-22,25.2
		c-0.2,0.3-0.5,0.6-0.8,1c-1-0.6-1.9-1.3-2.8-1.9c-0.2-0.2-0.4-0.3-0.7-0.6c5.5-12.1,10.9-24.2,16.4-36.4c-0.6,0-1.1,0-1.5,0
		c-27.3,0-54.6,0-82,0c-1,0-1.4,0.3-1.8,1.2c-10.1,22.4-22.8,43.3-37.7,62.8c-0.2,0.2-0.4,0.4-0.6,0.7c-1.2-0.8-2.3-1.6-3.5-2.4
		c1.4-2.6,2.7-5.1,4-7.7c11.8-22.6,21-46.1,27.6-70.7c3.9-14.7,7.7-29.3,10.7-44.2c0.9-4.4,1.6-8.8,2.4-13.2c0-0.2,0.1-0.5,0.2-0.9
		c8.6,4.7,17.2,9.4,25.9,14.1c-0.8,0.6-1.4,1.1-2,1.6c-2.6,2-5.3,4.1-7.8,6.1c-0.4,0.3-0.8,0.8-1,1.3c-5,14.4-9.9,28.8-14.8,43.3
		c-0.1,0.2-0.1,0.4-0.2,0.7c0.5,0,0.9,0,1.4,0c25.8,0,51.5,0,77.3,0c0.9,0,1.5-0.2,2.2-0.9C290.3,105.5,294.4,101.1,298.5,96.6z"/>
</g>
</svg>
