<?xml version="1.0" encoding="utf-8"?>
<!-- Generator: Adobe Illustrator 20.1.0, SVG Export Plug-In . SVG Version: 6.00 Build 0)  -->
<svg version="1.1" id="图层_1" xmlns="http://www.w3.org/2000/svg" xmlns:xlink="http://www.w3.org/1999/xlink" x="0px" y="0px"
	 viewBox="0 0 360 360" style="enable-background:new 0 0 360 360;" xml:space="preserve">
<style type="text/css">
	.st0{fill:#FFFFFF;}
</style>
<g>
	<path class="st0" d="M0.2,360.5c0-120.1,0-240.2,0-360.2c120.1,0,240.2,0,360.2,0c0,120.1,0,240.2,0,360.2
		C240.4,360.5,120.3,360.5,0.2,360.5z M180.6,238c0.9-3.6,1.9-7,2.5-10.4c0.5-2.6,1.7-4.6,4.1-5.9c1.2-0.6,2.2-1.6,3.3-2.3
		c0.6-0.4,1.2-0.9,1.9-1.4c-8.8-3.2-17.3-6.3-26-9.4c-0.1,10-0.7,19.7-2.4,29.5c-37.6,0-75.2,0-112.9,0c0.1,0.2,0.2,0.3,0.2,0.4
		c3.2,3.3,6.5,6.5,9.8,9.7c0.3,0.3,0.9,0.3,1.4,0.2c8.5-2.2,17.1-3.2,25.9-3.2c24.3,0,48.6,0,73,0c0.4,0,0.9,0,1.3,0
		c0,0.2,0.1,0.3,0.1,0.4c-0.1,0.3-0.2,0.5-0.3,0.8c-4.6,9.1-10.7,17.1-18,24.1c-10.1,9.6-21.8,16.9-34.4,22.9
		c-17.5,8.4-35.9,13.9-54.8,18.2c-2.9,0.7-5.9,1.3-8.8,1.9c0,1.6,0,3.2,0,4.7c0.2,0,0.3,0,0.3,0c13.6-1.5,27-3.5,40.3-6.6
		c15.9-3.7,31.4-8.7,45.9-16.4c9.5-5,18.3-11,26-18.5c9-8.7,15.8-18.9,20.2-30.7c0.3-0.7,0.6-0.9,1.3-0.9c2,0,3.9,0.1,5.9,0
		c0.9,0,1.5,0.2,2.1,1c9.2,11.7,19.4,22.5,30.8,32.1c20.5,17.3,43.7,29.5,69.9,35.5c3.4,0.8,6.9,1.4,10.3,2.1
		c0.2-1.3,0.3-2.4,0.6-3.5c1.1-4,3.9-6.5,7.3-8.5c3.5-2.1,7.4-3.3,11.4-4.4c0.3-0.1,0.8-0.4,0.8-0.6c0.1-1.1,0-2.1,0-3.2
		c-0.6,0-0.9,0-1.3,0c-7.3,0-14.6-0.5-21.9-1.5c-19.2-2.7-37.4-8.5-54.8-17.1c-16.2-8-31.2-18.1-45.2-29.5c-0.9-0.7-1.7-1.4-2.6-2.2
		c0-0.1,0.1-0.2,0.1-0.3c40.6,0,81.1,0,121.7,0c-7.4-7.4-14.8-14.8-22.3-22.3c-0.1,0.1-0.3,0.2-0.4,0.4c-4.9,4.5-9.7,9-14.6,13.6
		c-0.9,0.9-1.9,1.2-3.2,1.2c-31,0-62,0-93,0C181.9,238,181.4,238,180.6,238z M214.8,199.2c1.3,0.8,2.4,1.6,3.5,2.4
		c10.6,7.3,20.1,15.7,27.4,26.5c1.3,1.9,3,3.6,4.8,5.1c2.4,1.9,4.9,1.4,6.4-1.3c2.9-5.2,4.1-10.8,2.6-16.8c-1.2-4.7-4.5-7.5-8.8-9.5
		c-10.5-5-21.7-7.5-33-9.9c-0.3-0.1-0.8,0.1-1,0.4C216.1,197.1,215.5,198.1,214.8,199.2z"/>
	<path d="M180.6,238c0.8,0,1.3,0,1.8,0c31,0,62,0,93,0c1.3,0,2.2-0.4,3.2-1.2c4.8-4.6,9.7-9.1,14.6-13.6c0.2-0.2,0.4-0.3,0.4-0.4
		c7.4,7.4,14.8,14.8,22.3,22.3c-40.5,0-81.1,0-121.7,0c0,0.1-0.1,0.2-0.1,0.3c0.9,0.7,1.7,1.5,2.6,2.2c14,11.5,28.9,21.5,45.2,29.5
		c17.4,8.6,35.6,14.4,54.8,17.1c7.3,1,14.5,1.6,21.9,1.5c0.4,0,0.7,0,1.3,0c0,1.1,0.1,2.2,0,3.2c0,0.2-0.5,0.5-0.8,0.6
		c-4,1-7.8,2.3-11.4,4.4c-3.4,2-6.2,4.6-7.3,8.5c-0.3,1.1-0.4,2.2-0.6,3.5c-3.4-0.7-6.9-1.3-10.3-2.1c-26.3-6.1-49.4-18.2-69.9-35.5
		c-11.4-9.6-21.6-20.4-30.8-32.1c-0.6-0.7-1.2-1-2.1-1c-2,0.1-3.9,0-5.9,0c-0.7,0-1.1,0.2-1.3,0.9c-4.4,11.7-11.2,21.9-20.2,30.7
		c-7.7,7.5-16.5,13.5-26,18.5c-14.5,7.6-30,12.6-45.9,16.4c-13.3,3.1-26.7,5.2-40.3,6.6c-0.1,0-0.2,0-0.3,0c0-1.5,0-3.1,0-4.7
		c2.9-0.6,5.9-1.3,8.8-1.9c18.8-4.3,37.3-9.9,54.8-18.2c12.5-6,24.2-13.3,34.4-22.9c7.4-7,13.5-14.9,18-24.1
		c0.1-0.2,0.2-0.5,0.3-0.8c0-0.1,0-0.2-0.1-0.4c-0.4,0-0.8,0-1.3,0c-24.3,0-48.6,0-73,0c-8.7,0-17.4,1.1-25.9,3.2
		c-0.4,0.1-1.1,0.1-1.4-0.2c-3.3-3.2-6.5-6.5-9.8-9.7c-0.1-0.1-0.1-0.2-0.2-0.4c37.7,0,75.2,0,112.9,0c1.7-9.8,2.3-19.5,2.4-29.5
		c8.7,3.2,17.2,6.3,26,9.4c-0.7,0.5-1.3,1-1.9,1.4c-1.1,0.8-2.1,1.7-3.3,2.3c-2.4,1.3-3.6,3.2-4.1,5.9
		C182.5,231.1,181.5,234.4,180.6,238z"/>
	<path d="M214.8,199.2c0.7-1.1,1.3-2.1,2.1-3c0.2-0.2,0.7-0.4,1-0.4c11.3,2.3,22.5,4.9,33,9.9c4.2,2,7.6,4.8,8.8,9.5
		c1.5,5.9,0.2,11.5-2.6,16.8c-1.5,2.7-4,3.2-6.4,1.3c-1.8-1.5-3.5-3.2-4.8-5.1c-7.3-10.8-16.8-19.2-27.4-26.5
		C217.2,200.8,216,200,214.8,199.2z"/>
</g>
</svg>
