<?xml version="1.0" encoding="utf-8"?>
<!-- Generator: Adobe Illustrator 20.1.0, SVG Export Plug-In . SVG Version: 6.00 Build 0)  -->
<svg version="1.1" id="图层_1" xmlns="http://www.w3.org/2000/svg" xmlns:xlink="http://www.w3.org/1999/xlink" x="0px" y="0px"
	 viewBox="0 0 360 360" style="enable-background:new 0 0 360 360;" xml:space="preserve">
<style type="text/css">
	.st0{fill:#FFFFFF;}
</style>
<g>
	<path class="st0" d="M0.2,360.5c0-120.1,0-240.2,0-360.2c120.1,0,240.2,0,360.2,0c0,120.1,0,240.2,0,360.2
		C240.4,360.5,120.3,360.5,0.2,360.5z M248.2,135.6c0-3.4-0.1-6.7,0-10c0.3-10.6,0.8-21.2,1.1-31.9c0.3-8.3,0.5-16.7,0.8-25
		c0-0.9,0.3-1.6,1-2.3c2.5-2.4,5-5,7.5-7.5c0.3-0.3,0.6-0.7,1.1-1.1c-9.5-4.4-18.8-8.6-28.3-13c1,30.3,0.3,60.5-0.1,90.8
		c-13.4,0-26.6,0-40,0c3.4,3.4,6.7,6.6,9.9,9.9c0.6,0.6,1,0.6,1.8,0.5c7.3-1.9,14.7-2.9,22.3-3.2c2-0.1,4,0,6.2,0
		c-0.4,6.6-0.7,13.1-1.3,19.6c-1.1,13.9-2.9,27.7-5.4,41.3c-3.4,18-8.1,35.7-14.9,52.7c-8.3,20.8-19.4,39.9-34.5,56.6
		c-0.2,0.2-0.3,0.4-0.4,0.6c0.8,1.2,1.6,2.3,2.3,3.5c10.3-8.2,19.3-17.3,27.2-27.5c15.1-19.4,25.2-41.2,32-64.7
		c4.3-14.7,7.1-29.7,8.9-45c1.3-10.6,2-21.2,2.4-31.8c0.1-1.8,0.1-3.6,0.2-5.3c2,0,3.9,0,5.8,0c0.4,5.3,0.6,10.5,1.1,15.6
		c1.3,15.7,3,31.3,5.7,46.9c3.1,18.3,7.3,36.2,13.3,53.8c5,14.7,11.3,28.8,19.4,42c1.3,2.2,2.7,4.3,4,6.2c1.9-1.8,3.5-3.8,5.5-5.4
		c3.8-2.9,8.4-4,13.1-4.5c2.1-0.2,4.3-0.3,6.5-0.5c0-1.2-0.1-2.3,0-3.4c0.1-0.9-0.3-1.4-1-1.9c-5.5-3.8-10.4-8.3-14.8-13.4
		c-8.6-9.7-15.1-20.8-20.6-32.5c-7.8-16.6-13.2-33.9-17.5-51.6c-3.7-15.1-6.5-30.5-8.8-45.9c-0.3-1.8-0.5-3.6-0.8-5.5
		c20.4,0,40.7,0,61.3,0c-7.2-7.6-14.2-15-21.3-22.5c-4.9,4.9-9.7,9.7-14.5,14.5c-0.6,0.6-1.2,0.9-2.1,0.9c-10.8,0-21.7,0-32.5,0
		C248.9,135.6,248.5,135.6,248.2,135.6z M264.3,68.4c-0.7,1-1.2,1.9-1.9,2.8c-0.5,0.6-0.4,1.1,0.1,1.6c2,2.4,4,4.8,5.9,7.2
		c6.7,8.6,12.3,17.8,15.8,28.2c0.7,2,1.8,4,3.1,5.7c1.5,2,3.6,2.1,5.6,0.5c0.5-0.4,0.9-0.8,1.3-1.2c2.9-3.5,4.9-7.4,5.9-11.8
		c1.2-5.3,0-10-3.8-14c-1.7-1.8-3.6-3.4-5.6-4.9C282.7,76.6,273.6,72.4,264.3,68.4z"/>
	<path d="M248.2,135.6c0.3,0,0.8,0,1.2,0c10.8,0,21.7,0,32.5,0c0.9,0,1.5-0.2,2.1-0.9c4.8-4.8,9.6-9.6,14.5-14.5
		c7,7.4,14.1,14.8,21.3,22.5c-20.6,0-40.9,0-61.3,0c0.3,1.9,0.5,3.7,0.8,5.5c2.3,15.4,5.1,30.7,8.8,45.9
		c4.4,17.7,9.8,35.1,17.5,51.6c5.5,11.7,12,22.7,20.6,32.5c4.4,5,9.3,9.5,14.8,13.4c0.7,0.5,1.1,1,1,1.9c-0.1,1.1,0,2.2,0,3.4
		c-2.2,0.2-4.4,0.2-6.5,0.5c-4.7,0.5-9.3,1.6-13.1,4.5c-2,1.5-3.6,3.5-5.5,5.4c-1.2-1.9-2.6-4-4-6.2c-8.1-13.2-14.4-27.3-19.4-42
		c-6-17.5-10.2-35.5-13.3-53.8c-2.6-15.5-4.4-31.2-5.7-46.9c-0.4-5.2-0.7-10.4-1.1-15.6c-1.9,0-3.7,0-5.8,0
		c-0.1,1.8-0.1,3.6-0.2,5.3c-0.3,10.6-1.1,21.2-2.4,31.8c-1.8,15.2-4.7,30.2-8.9,45c-6.8,23.5-17,45.3-32,64.7
		c-7.9,10.2-17,19.3-27.2,27.5c-0.8-1.2-1.6-2.3-2.3-3.5c0.1-0.2,0.2-0.4,0.4-0.6c15.1-16.6,26.2-35.8,34.5-56.6
		c6.8-17,11.6-34.7,14.9-52.7c2.6-13.7,4.3-27.5,5.4-41.3c0.5-6.5,0.9-13,1.3-19.6c-2.2,0-4.2-0.1-6.2,0c-7.5,0.2-15,1.3-22.3,3.2
		c-0.7,0.2-1.2,0.1-1.8-0.5c-3.2-3.2-6.4-6.5-9.9-9.9c13.5,0,26.6,0,40,0c0.4-30.3,1-60.5,0.1-90.8c9.4,4.3,18.8,8.6,28.3,13
		c-0.4,0.4-0.7,0.8-1.1,1.1c-2.5,2.5-5,5-7.5,7.5c-0.7,0.7-1,1.4-1,2.3c-0.3,8.3-0.5,16.7-0.8,25c-0.4,10.6-0.8,21.2-1.1,31.9
		C248.1,128.8,248.2,132.1,248.2,135.6z"/>
	<path d="M264.3,68.4c9.3,4.1,18.4,8.2,26.5,14.2c2,1.5,3.9,3.1,5.6,4.9c3.8,3.9,5,8.7,3.8,14c-1,4.4-3,8.3-5.9,11.8
		c-0.4,0.5-0.8,0.9-1.3,1.2c-2,1.6-4.1,1.5-5.6-0.5c-1.3-1.7-2.4-3.7-3.1-5.7c-3.5-10.4-9.1-19.6-15.8-28.2
		c-1.9-2.5-3.9-4.8-5.9-7.2c-0.5-0.6-0.6-1-0.1-1.6C263.1,70.3,263.7,69.4,264.3,68.4z"/>
</g>
</svg>
