<?xml version="1.0" encoding="utf-8"?>
<!-- Generator: Adobe Illustrator 20.1.0, SVG Export Plug-In . SVG Version: 6.00 Build 0)  -->
<svg version="1.1" id="图层_1" xmlns="http://www.w3.org/2000/svg" xmlns:xlink="http://www.w3.org/1999/xlink" x="0px" y="0px"
	 viewBox="0 0 360 360" style="enable-background:new 0 0 360 360;" xml:space="preserve">
<style type="text/css">
	.st0{fill:#FFFFFF;}
</style>
<g>
	<path class="st0" d="M0.2,360.5c0-120.1,0-240.2,0-360.2c120.1,0,240.2,0,360.2,0c0,120.1,0,240.2,0,360.2
		C240.4,360.5,120.3,360.5,0.2,360.5z M193.6,273.4c5.9-2.7,11.5-5.4,17.1-8c0.3-0.1,0.5-0.8,0.5-1.1c-0.1-3.6-0.2-7.1-0.3-10.7
		c-0.2-11.8-0.4-23.6-0.5-35.4c-0.1-7.6-0.2-15.2-0.2-22.8c-0.1-14.2-0.1-28.3-0.1-42.5c0-0.5,0.3-1.1,0.7-1.4
		c1-0.9,2.2-1.7,3.3-2.6c2.2-1.7,4.4-3.4,6.6-5.2c-6.4-5.2-12.6-10.3-18.9-15.4c-2.9,3.3-5.8,6.5-8.6,9.7c-0.6,0.7-1.2,0.9-2,0.9
		c-22.8,0-45.5,0-68.3,0c-0.7,0-1.5-0.2-2.1-0.5c-5.2-2.7-10.4-5.5-15.6-8.3c-0.3-0.2-0.7-0.3-1.1-0.5c1.6,50.3,1.5,100.4,0,150.6
		c0.3-0.1,0.5-0.1,0.7-0.2c5.4-2.9,10.8-5.8,16.3-8.7c0.7-0.4,0.7-0.8,0.7-1.5c0-5.4,0-10.9,0-16.3c0-0.5,0-0.9,0-1.4
		c24,0,47.9,0,71.8,0C193.6,259.3,193.6,266.3,193.6,273.4z"/>
	<path d="M193.6,273.4c0-7.1,0-14.1,0-21.1c-23.9,0-47.8,0-71.8,0c0,0.5,0,0.9,0,1.4c0,5.4,0,10.9,0,16.3c0,0.6-0.1,1.1-0.7,1.5
		c-5.4,2.9-10.9,5.8-16.3,8.7c-0.2,0.1-0.4,0.1-0.7,0.2c1.5-50.2,1.6-100.3,0-150.6c0.5,0.2,0.8,0.4,1.1,0.5
		c5.2,2.8,10.4,5.5,15.6,8.3c0.6,0.3,1.4,0.5,2.1,0.5c22.8,0,45.5,0,68.3,0c0.9,0,1.5-0.3,2-0.9c2.8-3.2,5.7-6.4,8.6-9.7
		c6.3,5.1,12.5,10.2,18.9,15.4c-2.3,1.8-4.5,3.5-6.6,5.2c-1.1,0.9-2.2,1.7-3.3,2.6c-0.4,0.3-0.7,0.9-0.7,1.4
		c0,14.2,0.1,28.3,0.1,42.5c0,7.6,0.1,15.2,0.2,22.8c0.2,11.8,0.3,23.6,0.5,35.4c0.1,3.6,0.2,7.1,0.3,10.7c0,0.4-0.2,1-0.5,1.1
		C205.1,268.1,199.5,270.7,193.6,273.4z M193.6,146.3c-24,0-47.8,0-71.7,0c0,15.3,0,30.5,0,45.7c23.9,0,47.8,0,71.7,0
		C193.6,176.7,193.6,161.5,193.6,146.3z M121.9,245c23.9,0,47.8,0,71.7,0c0-15.3,0-30.5,0-45.7c-23.9,0-47.8,0-71.7,0
		C121.9,214.5,121.9,229.7,121.9,245z"/>
	<path class="st0" d="M193.6,146.3c0,15.3,0,30.4,0,45.7c-23.9,0-47.7,0-71.7,0c0-15.2,0-30.4,0-45.7
		C145.8,146.3,169.6,146.3,193.6,146.3z"/>
	<path class="st0" d="M121.9,245c0-15.3,0-30.5,0-45.7c23.9,0,47.8,0,71.7,0c0,15.2,0,30.5,0,45.7C169.7,245,145.8,245,121.9,245z"
		/>
</g>
</svg>
