<?xml version="1.0" encoding="utf-8"?>
<!-- Generator: Adobe Illustrator 20.1.0, SVG Export Plug-In . SVG Version: 6.00 Build 0)  -->
<svg version="1.1" id="图层_1" xmlns="http://www.w3.org/2000/svg" xmlns:xlink="http://www.w3.org/1999/xlink" x="0px" y="0px"
	 viewBox="0 0 360 360" style="enable-background:new 0 0 360 360;" xml:space="preserve">
<style type="text/css">
	.st0{fill:#FFFFFF;}
</style>
<g>
	<path class="st0" d="M0.2,360.5c0-120.1,0-240.2,0-360.2c120.1,0,240.2,0,360.2,0c0,120.1,0,240.2,0,360.2
		C240.4,360.5,120.3,360.5,0.2,360.5z M293.8,84.9c-6-4.8-11.8-9.5-17.8-14.2c-2.6,3.3-5.1,6.5-7.6,9.8c-0.5,0.6-1,0.9-1.8,0.9
		c-19.7,0-39.4,0-59.2,0c-0.6,0-1.3-0.2-1.8-0.5c-4.8-2.7-9.7-5.5-14.5-8.2c-0.4-0.2-0.7-0.4-1.3-0.7c1.6,64.5,1.6,128.8,0,193.2
		c0.4-0.2,0.6-0.3,0.7-0.3c5.1-2.9,10.1-5.8,15.2-8.7c0.6-0.3,0.7-0.8,0.7-1.4c0-4.7,0-9.4,0-14.2c0-0.4,0-0.8,0-1.3
		c21.2,0,42.3,0,63.6,0c0,6.6,0,13.2,0,19.9c0.3-0.1,0.4-0.2,0.6-0.3c5.1-2.9,10.2-5.8,15.3-8.8c0.3-0.2,0.6-0.8,0.6-1.2
		c-0.1-3-0.2-5.9-0.3-8.9c-0.2-10.6-0.4-21.1-0.5-31.7c-0.1-8-0.1-16.1-0.2-24.1c0-9.3-0.1-18.6-0.1-28c0-20.7,0-41.4-0.1-62
		c0-0.8,0.2-1.4,0.8-2C288.8,90,291.3,87.5,293.8,84.9z"/>
	<path d="M293.8,84.9c-2.6,2.6-5,5-7.5,7.5c-0.6,0.6-0.8,1.2-0.8,2c0,20.7,0,41.4,0.1,62c0,9.3,0.1,18.6,0.1,28
		c0,8,0.1,16.1,0.2,24.1c0.1,10.6,0.3,21.1,0.5,31.7c0.1,3,0.2,5.9,0.3,8.9c0,0.4-0.2,1-0.6,1.2c-5.1,3-10.2,5.9-15.3,8.8
		c-0.1,0.1-0.3,0.1-0.6,0.3c0-6.7,0-13.3,0-19.9c-21.2,0-42.3,0-63.6,0c0,0.4,0,0.9,0,1.3c0,4.7,0,9.4,0,14.2c0,0.6-0.1,1-0.7,1.4
		c-5.1,2.9-10.1,5.8-15.2,8.7c-0.2,0.1-0.3,0.2-0.7,0.3c1.5-64.5,1.6-128.7,0-193.2c0.5,0.3,0.9,0.5,1.3,0.7
		c4.8,2.8,9.6,5.5,14.5,8.2c0.5,0.3,1.2,0.5,1.8,0.5c19.7,0,39.4,0,59.2,0c0.8,0,1.3-0.3,1.8-0.9c2.5-3.2,5-6.4,7.6-9.8
		C282,75.5,287.8,80.1,293.8,84.9z M206.7,232c21.2,0,42.3,0,63.4,0c0-23.1,0-46.2,0-69.3c-21.2,0-42.3,0-63.4,0
		C206.7,185.9,206.7,208.9,206.7,232z M270.1,88.6c-21.2,0-42.3,0-63.4,0c0,22.3,0,44.6,0,66.9c21.2,0,42.3,0,63.4,0
		C270.1,133.2,270.1,110.9,270.1,88.6z"/>
	<path class="st0" d="M206.7,232c0-23.1,0-46.2,0-69.3c21.1,0,42.2,0,63.4,0c0,23.1,0,46.1,0,69.3C249,232,227.9,232,206.7,232z"/>
	<path class="st0" d="M270.1,88.6c0,22.3,0,44.5,0,66.9c-21.2,0-42.2,0-63.4,0c0-22.3,0-44.5,0-66.9
		C227.8,88.6,248.9,88.6,270.1,88.6z"/>
</g>
</svg>
