<?xml version="1.0" encoding="utf-8"?>
<!-- Generator: Adobe Illustrator 20.1.0, SVG Export Plug-In . SVG Version: 6.00 Build 0)  -->
<svg version="1.1" id="图层_1" xmlns="http://www.w3.org/2000/svg" xmlns:xlink="http://www.w3.org/1999/xlink" x="0px" y="0px"
	 viewBox="0 0 360 360" style="enable-background:new 0 0 360 360;" xml:space="preserve">
<style type="text/css">
	.st0{fill:#FFFFFF;}
</style>
<g>
	<path class="st0" d="M0.2,360.5c0-120.1,0-240.2,0-360.2c120.1,0,240.2,0,360.2,0c0,120.1,0,240.2,0,360.2
		C240.4,360.5,120.3,360.5,0.2,360.5z M120.5,268.8c0.6-0.4,1-0.6,1.3-0.9c5.1-3.4,10.2-6.8,15.3-10.1c0.9-0.6,1.1-1.2,1.1-2.2
		c-0.4-12.3-1.1-24.6-1.1-36.9c-0.1-40.7-0.1-81.4,0-122.2c0-0.5,0.3-1.1,0.7-1.4c2.5-2,5.1-3.9,7.7-5.8c0.3-0.2,0.6-0.5,0.9-0.7
		c-5.5-5.5-11-11-16.5-16.5c-0.3,0.3-0.6,0.7-1,1c-2.9,3.2-5.8,6.5-8.7,9.7c-0.6,0.6-1.1,0.9-1.9,0.9c-14.2,0-28.3,0-42.5,0
		c-0.7,0-1.4-0.2-2-0.5c-5.2-2.7-10.4-5.5-15.5-8.3c-0.4-0.2-0.7-0.4-1.2-0.6c1.5,68,1.5,135.8,0,203.7c0.3-0.1,0.4-0.1,0.6-0.2
		c5.4-2.9,10.8-5.8,16.3-8.7c0.7-0.4,0.7-0.8,0.7-1.4c0-6.3,0-12.6,0-18.8c0-0.4,0-0.9,0-1.3c15.4,0,30.6,0,45.9,0
		C120.5,254.6,120.5,261.5,120.5,268.8z"/>
	<path d="M120.5,268.8c0-7.2,0-14.2,0-21.2c-15.3,0-30.5,0-45.9,0c0,0.4,0,0.9,0,1.3c0,6.3,0,12.6,0,18.8c0,0.6-0.1,1.1-0.7,1.4
		c-5.4,2.9-10.9,5.8-16.3,8.7c-0.2,0.1-0.4,0.1-0.6,0.2c1.5-67.9,1.5-135.7,0-203.7c0.4,0.2,0.8,0.4,1.2,0.6
		c5.2,2.8,10.3,5.5,15.5,8.3c0.6,0.3,1.4,0.5,2,0.5c14.2,0,28.3,0,42.5,0c0.8,0,1.4-0.3,1.9-0.9c2.9-3.3,5.8-6.5,8.7-9.7
		c0.3-0.4,0.7-0.8,1-1c5.5,5.5,10.9,10.9,16.5,16.5c-0.2,0.2-0.5,0.4-0.9,0.7c-2.6,1.9-5.1,3.8-7.7,5.8c-0.4,0.3-0.7,1-0.7,1.4
		c0,40.7-0.1,81.4,0,122.2c0,12.3,0.7,24.6,1.1,36.9c0,1-0.2,1.6-1.1,2.2c-5.1,3.3-10.2,6.8-15.3,10.1
		C121.5,268.2,121.1,268.4,120.5,268.8z M74.7,167.5c0,24.4,0,48.6,0,72.9c15.3,0,30.5,0,45.7,0c0-24.3,0-48.6,0-72.9
		C105.2,167.5,90,167.5,74.7,167.5z M120.4,160.2c0-23.1,0-46.2,0-69.3c-15.3,0-30.5,0-45.7,0c0,23.1,0,46.2,0,69.3
		C90,160.2,105.2,160.2,120.4,160.2z"/>
	<path class="st0" d="M74.7,167.5c15.3,0,30.5,0,45.7,0c0,24.3,0,48.6,0,72.9c-15.2,0-30.5,0-45.7,0
		C74.7,216.1,74.7,191.8,74.7,167.5z"/>
	<path class="st0" d="M120.4,160.2c-15.2,0-30.4,0-45.7,0c0-23.1,0-46.2,0-69.3c15.2,0,30.4,0,45.7,0
		C120.4,114,120.4,137.1,120.4,160.2z"/>
</g>
</svg>
