<?xml version="1.0" encoding="utf-8"?>
<!-- Generator: Adobe Illustrator 20.1.0, SVG Export Plug-In . SVG Version: 6.00 Build 0)  -->
<svg version="1.1" id="图层_1" xmlns="http://www.w3.org/2000/svg" xmlns:xlink="http://www.w3.org/1999/xlink" x="0px" y="0px"
	 viewBox="0 0 360 360" style="enable-background:new 0 0 360 360;" xml:space="preserve">
<style type="text/css">
	.st0{fill:#FFFFFF;}
</style>
<g>
	<path class="st0" d="M-0.2,360.2c0-120.1,0-240.2,0-360.2C119.8,0,239.9,0,360,0c0,120.1,0,240.2,0,360.2
		C239.9,360.2,119.8,360.2-0.2,360.2z M246.1,190.7c0.6-0.3,0.9-0.4,1.2-0.5c5.1-2.4,10.2-4.8,15.3-7.1c0.9-0.4,1.2-0.9,1.2-1.9
		c-0.2-5-0.4-10.1-0.5-15.1c-0.2-11.5-0.4-22.9-0.5-34.4c-0.1-12-0.1-24-0.2-36c0-7.4,0-14.9,0-22.3c0-1.2,0.3-2,1.2-2.8
		c3.2-2.7,6.2-5.5,9.4-8.3c-6.3-5.1-12.6-10.2-18.9-15.4c-0.3,0.3-0.5,0.6-0.7,0.8c-3,3.4-6.1,6.8-9.1,10.2c-0.6,0.7-1.2,0.9-2,0.9
		c-40,0-80,0-120,0c-0.8,0-1.6-0.2-2.3-0.5c-5.5-2.7-10.9-5.4-16.4-8.2c-0.4-0.2-0.8-0.4-1.4-0.7c1.4,48.4,1.6,96.5,0,144.8
		c0.2,0,0.3,0,0.4,0c5.5-2.6,11.1-5.2,16.6-7.8c0.3-0.2,0.6-0.8,0.6-1.2c0.1-2.5,0-5,0-7.4c0-0.7,0-1.4,0-2.1c42.1,0,84,0,126,0
		C246.1,180.5,246.1,185.5,246.1,190.7z"/>
	<path d="M246.1,190.7c0-5.2,0-10.2,0-15.2c-42,0-83.9,0-126,0c0,0.7,0,1.4,0,2.1c0,2.5,0,5,0,7.4c0,0.4-0.3,1-0.6,1.2
		c-5.5,2.6-11,5.2-16.6,7.8c-0.1,0-0.2,0-0.4,0c1.6-48.2,1.4-96.4,0-144.8c0.6,0.3,1,0.5,1.4,0.7c5.5,2.7,10.9,5.5,16.4,8.2
		c0.7,0.3,1.5,0.5,2.3,0.5c40,0,80,0,120,0c0.9,0,1.5-0.3,2-0.9c3-3.4,6.1-6.8,9.1-10.2c0.2-0.2,0.4-0.5,0.7-0.8
		c6.4,5.2,12.6,10.2,18.9,15.4c-3.2,2.8-6.3,5.6-9.4,8.3c-0.9,0.8-1.2,1.6-1.2,2.8c0,7.4,0,14.9,0,22.3c0,12,0.1,24,0.2,36
		c0.1,11.5,0.3,22.9,0.5,34.4c0.1,5,0.3,10.1,0.5,15.1c0,1-0.3,1.5-1.2,1.9c-5.1,2.3-10.2,4.7-15.3,7.1
		C247,190.3,246.7,190.5,246.1,190.7z M120.2,120.1c0,16.1,0,32.1,0,48.1c42,0,83.9,0,125.8,0c0-16.1,0-32,0-48.1
		C204.1,120.1,162.2,120.1,120.2,120.1z M246,112.9c0-15.7,0-31.3,0-46.9c-42,0-83.9,0-125.8,0c0,15.7,0,31.2,0,46.9
		C162.2,112.9,204,112.9,246,112.9z"/>
	<path class="st0" d="M120.2,120.1c42,0,83.9,0,125.8,0c0,16.1,0,32,0,48.1c-42,0-83.8,0-125.8,0
		C120.2,152.2,120.2,136.2,120.2,120.1z"/>
	<path class="st0" d="M246,112.9c-42,0-83.8,0-125.8,0c0-15.6,0-31.2,0-46.9c41.9,0,83.8,0,125.8,0C246,81.6,246,97.2,246,112.9z"/>
</g>
</svg>
