<?xml version="1.0" encoding="utf-8"?>
<!-- Generator: Adobe Illustrator 20.1.0, SVG Export Plug-In . SVG Version: 6.00 Build 0)  -->
<svg version="1.1" id="图层_1" xmlns="http://www.w3.org/2000/svg" xmlns:xlink="http://www.w3.org/1999/xlink" x="0px" y="0px"
	 viewBox="0 0 360 360" style="enable-background:new 0 0 360 360;" xml:space="preserve">
<style type="text/css">
	.st0{fill:#FFFFFF;}
</style>
<g>
	<path class="st0" d="M0.2,360.5c0-120.1,0-240.2,0-360.2c120.1,0,240.2,0,360.2,0c0,120.1,0,240.2,0,360.2
		C240.4,360.5,120.3,360.5,0.2,360.5z M179.4,158c0.1,0.2,0.1,0.3,0.1,0.4c1.9,9,3.6,18,5.8,26.9c4,16.1,9.6,31.7,17.5,46.4
		c1.1,2.1,2,4.3,3.6,6.1c13.5,15.2,27.2,30.4,40.8,45.5c0.4,0.4,0.9,0.8,1.4,1.2c7.1,4.6,14.5,8.6,22.2,12
		c10.1,4.3,20.5,7.4,31.5,8.1c1.8,0.1,3.6-0.1,5.3-0.6c1.8-0.4,2.4-1.8,1.8-3.5c-0.3-0.8-0.6-1.6-1.1-2.3
		c-4.4-6.2-6.3-13.4-6.9-20.8c-0.5-5.7-0.5-11.4-0.5-17.1c0-9.2,0.6-18.4,1.6-27.5c0.2-1.8,0.4-3.5,0.6-5.4
		c-0.9-0.2-1.7-0.4-2.4-0.6c-0.8-0.2-1.5-0.3-2.3-0.5c-3.9,18-8.8,35.5-14.1,53c-1.6-0.6-3-1-4.4-1.6c-14.4-5.4-27-13.6-37.9-24.5
		c-8.8-8.8-15.8-18.8-21.9-29.6c-10.7-18.8-18-39-22.8-60c-0.4-1.8-0.8-3.7-1.3-5.7c36.6,0,72.9,0,109.2,0
		c-7.8-7.8-15.6-15.6-23.4-23.4c-0.2,0.2-0.6,0.5-0.9,0.8c-4.8,4.8-9.6,9.6-14.4,14.4c-0.8,0.8-1.5,1.1-2.6,1.1c-22.5,0-45,0-67.4,0
		c-0.3,0-0.6,0-0.8,0c-0.7,0.1-0.9-0.3-1-0.9c-0.1-1.2-0.2-2.3-0.3-3.5c-0.7-9.5-1.6-19-2-28.6c-0.6-11.9-0.8-23.8-1.1-35.7
		c0-0.3,0.1-0.5,0.1-0.8c1.8-0.3,3.6-0.7,5.4-1c15.7-2.6,31.4-5.4,47.2-7.7c7-1.1,14.2-1.3,21.2-1.9c1.6-0.1,3.2,0,5.1,0
		c-6.4-8-12.6-15.7-18.8-23.5c-1.6,0.9-3,1.9-4.5,2.7c-8.7,4.8-18.1,8.1-27.5,11c-17.6,5.6-35.4,9.9-53.5,13.8
		c-21.7,4.6-43.5,8.2-65.6,10c-0.6,0-1.3-0.1-1.8-0.4c-5.2-3.4-10.5-6.9-15.7-10.4c-0.3-0.2-0.7-0.4-1.2-0.7c0,0.5,0,0.8,0,1.1
		c0.4,8.7,1,17.5,1.1,26.2c0.2,52.4,0.2,104.8,0.2,157.2c0,6.5-1.1,12.8-7.1,17c5.5,7.5,11,14.9,16.4,22.2c2.3-2.6,4.4-5.2,6.7-7.6
		c7.2-7.5,15.4-13.8,23.9-19.7c16.9-11.9,34.7-22.2,52.8-32.2c1.7-0.9,3.3-1.8,5.1-2.8c-0.8-1.6-1.6-3.2-2.4-4.8
		c-26.4,11.8-52.5,23.5-78.8,35.3c0-35.8,0-71.4,0-107.1C126.2,158,152.7,158,179.4,158z"/>
	<path d="M179.4,158c-26.7,0-53.3,0-79.9,0c0,35.7,0,71.3,0,107.1c26.3-11.8,52.5-23.5,78.8-35.3c0.8,1.6,1.6,3.1,2.4,4.8
		c-1.7,1-3.4,1.9-5.1,2.8c-18.1,9.9-35.9,20.3-52.8,32.2c-8.5,6-16.7,12.3-23.9,19.7c-2.3,2.4-4.4,5-6.7,7.6
		c-5.4-7.3-10.9-14.8-16.4-22.2c6.1-4.1,7.1-10.5,7.1-17c0-52.4,0-104.8-0.2-157.2c0-8.7-0.7-17.5-1.1-26.2c0-0.3,0-0.6,0-1.1
		c0.5,0.3,0.8,0.5,1.2,0.7c5.2,3.5,10.4,7,15.7,10.4c0.5,0.3,1.2,0.5,1.8,0.4c22.1-1.9,43.9-5.4,65.6-10c18-3.8,35.9-8.2,53.5-13.8
		c9.4-3,18.8-6.3,27.5-11c1.5-0.8,3-1.7,4.5-2.7c6.2,7.8,12.5,15.6,18.8,23.5c-1.8,0-3.5-0.1-5.1,0c-7.1,0.6-14.2,0.8-21.2,1.9
		c-15.8,2.4-31.5,5.1-47.2,7.7c-1.8,0.3-3.5,0.7-5.4,1c0,0.3-0.1,0.5-0.1,0.8c0.4,11.9,0.6,23.8,1.1,35.7c0.4,9.5,1.3,19.1,2,28.6
		c0.1,1.2,0.2,2.3,0.3,3.5c0,0.6,0.3,1,1,0.9c0.3,0,0.6,0,0.8,0c22.5,0,45,0,67.4,0c1.1,0,1.8-0.3,2.6-1.1
		c4.8-4.8,9.6-9.6,14.4-14.4c0.3-0.3,0.6-0.6,0.9-0.8c7.8,7.8,15.6,15.6,23.4,23.4c-36.3,0-72.7,0-109.2,0c0.4,2,0.8,3.9,1.3,5.7
		c4.9,21,12.1,41.2,22.8,60c6.1,10.7,13.1,20.8,21.9,29.6c10.9,10.9,23.5,19,37.9,24.5c1.4,0.5,2.8,1,4.4,1.6
		c5.4-17.5,10.3-35,14.1-53c0.8,0.2,1.6,0.3,2.3,0.5c0.8,0.2,1.5,0.4,2.4,0.6c-0.2,1.8-0.4,3.6-0.6,5.4c-1,9.1-1.6,18.3-1.6,27.5
		c0,5.7,0.1,11.4,0.5,17.1c0.6,7.4,2.4,14.6,6.9,20.8c0.5,0.7,0.8,1.5,1.1,2.3c0.6,1.7,0,3.1-1.8,3.5c-1.7,0.4-3.6,0.7-5.3,0.6
		c-11-0.7-21.4-3.8-31.5-8.1c-7.8-3.3-15.1-7.4-22.2-12c-0.5-0.3-1-0.7-1.4-1.2c-13.6-15.2-27.3-30.3-40.8-45.5
		c-1.5-1.7-2.5-4-3.6-6.1c-7.8-14.7-13.4-30.3-17.5-46.4c-2.2-8.9-3.9-17.9-5.8-26.9C179.5,158.3,179.5,158.2,179.4,158z
		 M174.7,83.9c-25.2,2.8-50.2,5.5-75.2,8.2c0,19.5,0,39,0,58.6c26.3,0,52.5,0,78.8,0C176,128.5,174.8,106.2,174.7,83.9z"/>
	<path class="st0" d="M174.7,83.9c0.1,22.3,1.3,44.6,3.5,66.9c-26.3,0-52.5,0-78.8,0c0-19.6,0-39.1,0-58.6
		C124.5,89.4,149.6,86.6,174.7,83.9z"/>
</g>
</svg>
