<?xml version="1.0" encoding="utf-8"?>
<!-- Generator: Adobe Illustrator 20.1.0, SVG Export Plug-In . SVG Version: 6.00 Build 0)  -->
<svg version="1.1" id="图层_1" xmlns="http://www.w3.org/2000/svg" xmlns:xlink="http://www.w3.org/1999/xlink" x="0px" y="0px"
	 viewBox="0 0 360 360" style="enable-background:new 0 0 360 360;" xml:space="preserve">
<style type="text/css">
	.st0{fill:#FFFFFF;}
</style>
<g>
	<path class="st0" d="M-0.2,360.2c0-120.1,0-240.2,0-360.2C119.8,0,239.9,0,360,0c0,120.1,0,240.2,0,360.2
		C239.9,360.2,119.8,360.2-0.2,360.2z M142.5,120c-23.3,43.8-55.3,79.6-94.2,109.7c0.7,1.1,1.5,2.2,2.3,3.5
		c23.6-12.9,44.8-28.7,63.4-48c0.1,0,0.3,0.1,0.4,0.1c-0.4,43.4-0.7,86.8-1.1,130.2c0,0,0.2,0,0.3-0.1c5.9-3.3,11.8-6.6,17.6-10
		c0.3-0.2,0.6-0.8,0.6-1.2c-0.1-5.8-0.4-11.5-0.5-17.3c-0.2-11.7-0.3-23.4-0.4-35.1c-0.1-6.8-0.1-13.7-0.1-20.5
		c0-16.6,0-33.2,0-49.8c0-0.3,0.1-0.7,0.1-1.2c1.2,0.9,2.2,1.7,3.2,2.6c10.8,8.9,19.8,19.3,25.8,32.2c1.3,2.8,3,5.4,4.9,7.7
		c2.3,2.8,5.1,2.7,7-0.3c3.4-5.2,5-10.9,4.1-17.1c-0.7-5-3.4-8.9-7.3-12c-4.9-4-10.4-7.3-16.1-9.9c-6.9-3.1-13.9-6-20.9-8.9
		c-0.7-0.3-1.1-0.6-1-1.4c0.1-1.7,0-3.4,0-5c0-0.6,0.2-1.3,0.6-1.7c9.4-13.2,18.8-26.4,28.3-39.6c0.4-0.5,0.9-0.9,1.4-1.2
		c2.4-1.2,4.9-2.3,7.4-3.4c1.5-0.7,3-1.4,4.4-2c-6.3-6.3-12.5-12.5-18.8-18.8c-0.2,0.2-0.5,0.5-0.8,0.9c-2.9,3.2-5.8,6.4-8.6,9.6
		c-0.7,0.8-1.5,1.1-2.6,1.1c-27.6,0-55.1,0-82.7,0c-0.5,0-1,0-1.8,0c0.5,0.5,0.7,0.8,1,1.1c2.9,2.9,5.8,5.7,8.6,8.7
		c0.7,0.7,1.3,0.9,2.3,0.6c8.3-2.2,16.8-3.2,25.4-3.2c15.3-0.1,30.6,0,45.8,0C141.2,120,141.7,120,142.5,120z M96.5,49.3
		c0.3,0.4,0.5,0.7,0.7,1c2.6,3.8,5.4,7.4,7.9,11.3c5.7,8.8,10.1,18.2,12.3,28.5c0.6,2.8,1.5,5.6,3.3,7.9c1.5,1.8,3.4,2.2,5.4,1.1
		c0.6-0.4,1.2-0.8,1.7-1.3c2.7-2.4,4.7-5.4,6.2-8.6c2.4-5.3,2.6-10.6-0.5-15.6c-1.5-2.5-3.4-4.8-5.5-6.9
		c-8.1-7.9-17.7-13.8-27.5-19.5c-0.3-0.2-0.8-0.1-1.1,0C98.5,47.9,97.6,48.6,96.5,49.3z"/>
	<path d="M142.5,120c-0.8,0-1.3,0-1.7,0c-15.3,0-30.6-0.1-45.8,0c-8.6,0-17.1,1-25.4,3.2c-1,0.3-1.6,0.1-2.3-0.6
		c-2.8-2.9-5.7-5.8-8.6-8.7c-0.3-0.3-0.5-0.6-1-1.1c0.8,0,1.3,0,1.8,0c27.6,0,55.1,0,82.7,0c1.1,0,1.8-0.3,2.6-1.1
		c2.8-3.2,5.8-6.4,8.6-9.6c0.3-0.3,0.6-0.6,0.8-0.9c6.3,6.3,12.5,12.5,18.8,18.8c-1.4,0.7-2.9,1.3-4.4,2c-2.5,1.1-5,2.2-7.4,3.4
		c-0.5,0.3-1.1,0.7-1.4,1.2c-9.5,13.2-18.9,26.4-28.3,39.6c-0.3,0.5-0.5,1.2-0.6,1.7c-0.1,1.7,0,3.4,0,5c0,0.8,0.3,1.1,1,1.4
		c7,2.9,14,5.7,20.9,8.9c5.7,2.6,11.2,5.9,16.1,9.9c3.8,3.1,6.6,7,7.3,12c0.8,6.2-0.8,11.9-4.1,17.1c-1.9,3-4.7,3.1-7,0.3
		c-1.9-2.4-3.6-5-4.9-7.7c-6-12.8-15-23.2-25.8-32.2c-1-0.8-2-1.6-3.2-2.6c0,0.5-0.1,0.8-0.1,1.2c0,16.6,0,33.2,0,49.8
		c0,6.8,0.1,13.7,0.1,20.5c0.1,11.7,0.2,23.4,0.4,35.1c0.1,5.8,0.4,11.5,0.5,17.3c0,0.4-0.3,1-0.6,1.2c-5.9,3.4-11.7,6.7-17.6,10
		c-0.1,0.1-0.3,0.1-0.3,0.1c0.4-43.4,0.7-86.8,1.1-130.2c-0.1,0-0.3-0.1-0.4-0.1c-18.6,19.3-39.8,35.1-63.4,48
		c-0.8-1.2-1.6-2.4-2.3-3.5C87.2,199.6,119.2,163.8,142.5,120z"/>
	<path d="M96.5,49.3c1.1-0.7,2-1.4,3.1-2c0.3-0.2,0.8-0.2,1.1,0c9.8,5.6,19.4,11.5,27.5,19.5c2.1,2,4,4.4,5.5,6.9
		c3.1,5,2.9,10.3,0.5,15.6c-1.5,3.2-3.5,6.2-6.2,8.6c-0.5,0.5-1.1,0.9-1.7,1.3c-2,1.2-4,0.8-5.4-1.1c-1.8-2.3-2.7-5.1-3.3-7.9
		c-2.3-10.3-6.7-19.7-12.3-28.5c-2.5-3.9-5.2-7.5-7.9-11.3C97,50,96.8,49.7,96.5,49.3z"/>
</g>
</svg>
