<?xml version="1.0" encoding="utf-8"?>
<!-- Generator: Adobe Illustrator 20.1.0, SVG Export Plug-In . SVG Version: 6.00 Build 0)  -->
<svg version="1.1" id="图层_1" xmlns="http://www.w3.org/2000/svg" xmlns:xlink="http://www.w3.org/1999/xlink" x="0px" y="0px"
	 viewBox="0 0 360 360" style="enable-background:new 0 0 360 360;" xml:space="preserve">
<style type="text/css">
	.st0{fill:#FFFFFF;}
</style>
<g>
	<path class="st0" d="M-0.2,360.2c0-120.1,0-240.2,0-360.2C119.8,0,239.9,0,360,0c0,120.1,0,240.2,0,360.2
		C239.9,360.2,119.8,360.2-0.2,360.2z M235.3,194.3c-6.3-6.3-12.5-12.5-18.8-18.8c-0.2,0.2-0.5,0.4-0.8,0.7
		c-3.4,3.4-6.8,6.8-10.2,10.2c-0.4,0.4-1.1,0.7-1.7,0.7c-4.3,0.1-8.6,0-13,0c-0.4,0-0.8,0-1.2-0.1c0-11.8,0-23.4,0-35.2
		c13.7,0,27.3,0,40.9,0c-6.3-6.3-12.5-12.5-18.9-18.9c-0.1,0.2-0.3,0.6-0.6,1c-3.3,3.3-6.6,6.6-9.9,10c-0.6,0.7-1.3,0.9-2.2,0.9
		c-21.4,0-42.9,0-64.3,0c-0.4,0-0.9,0-1.6,0c2.7,2.7,5.2,5,7.5,7.6c1.4,1.6,2.8,1.9,4.8,1.5c5.7-1.3,11.4-2.2,17.3-1.9
		c3,0.2,6.1,0,9.1,0c0.4,0,0.8,0,1.3,0c0,11.8,0,23.5,0,35.3c-16,0-32,0-48.3,0c3.2,3.2,6.1,6.2,9.1,9.1c0.2,0.2,0.7,0.3,1.1,0.2
		c1.5-0.2,2.9-0.5,4.4-0.8c3-0.5,5.9-1.3,8.9-1.4c7.8-0.2,15.7-0.1,23.5-0.1c0.4,0,0.9,0,1.3,0.1c0,13,0,25.8,0,38.8
		c-21.1,0-42.2,0-63.5,0c0.4,0.5,0.7,0.7,0.9,1c1.9,2,4.1,3.8,5.8,5.9c1.8,2.2,3.6,2.7,6.3,1.8c4.4-1.4,9-1.7,13.7-1.6
		c11.8,0.1,23.6,0,35.4,0c0.5,0,0.9,0,1.5,0c0,0.5,0,0.9,0,1.2c0,13.3,0,26.6,0,39.8c0,0.6,0,1.1-0.1,1.7c-0.3,4.1-2.4,6.8-6,7.5
		c-1.2,0.3-2.5,0.3-3.7,0.3c-9.2-0.5-18.3-2-27.3-3.4c-2.5-0.4-5-0.8-7.6-1.3c0,1.8,0,3.4,0,5c0,0.7,0.3,1,0.9,1.3
		c2.3,0.8,4.7,1.7,6.9,2.6c7.2,3,14.4,6.1,20.5,11c3.8,3,7,6.5,7,11.8c0.2,0,0.3,0,0.4,0c5.8-2.2,11.4-4.8,16.3-8.8
		c6.2-5.1,9.4-11.5,9.3-19.7c-0.2-15.8-0.1-31.7-0.1-47.5c0-0.5,0-0.9,0-1.5c20.8,0,41.5,0,62.1,0c-7.1-7.1-14.1-14.1-21.3-21.3
		c-0.2,0.2-0.3,0.6-0.6,0.9c-4.1,4.2-8.3,8.3-12.5,12.5c-0.6,0.6-1.1,0.8-1.9,0.8c-8.2,0-16.4,0-24.6,0c-0.4,0-0.8,0-1.2,0
		c0-13,0-25.8,0-38.8C205,194.3,220.1,194.3,235.3,194.3z"/>
	<path d="M235.3,194.3c-15.2,0-30.4,0-45.6,0c0,13,0,25.8,0,38.8c0.4,0,0.8,0,1.2,0c8.2,0,16.4,0,24.6,0c0.8,0,1.3-0.2,1.9-0.8
		c4.1-4.2,8.3-8.3,12.5-12.5c0.3-0.3,0.5-0.6,0.6-0.9c7.2,7.2,14.2,14.2,21.3,21.3c-20.6,0-41.3,0-62.1,0c0,0.6,0,1.1,0,1.5
		c0,15.8-0.1,31.7,0.1,47.5c0.1,8.2-3.1,14.6-9.3,19.7c-4.9,4-10.4,6.6-16.3,8.8c-0.1,0-0.2,0-0.4,0c0-5.3-3.2-8.8-7-11.8
		c-6.2-4.9-13.3-8.1-20.5-11c-2.3-0.9-4.6-1.8-6.9-2.6c-0.7-0.2-1-0.5-0.9-1.3c0.1-1.6,0-3.3,0-5c2.6,0.4,5.1,0.9,7.6,1.3
		c9.1,1.5,18.1,3,27.3,3.4c1.2,0.1,2.5,0,3.7-0.3c3.6-0.8,5.7-3.4,6-7.5c0-0.6,0.1-1.1,0.1-1.7c0-13.3,0-26.6,0-39.8
		c0-0.4,0-0.7,0-1.2c-0.5,0-1,0-1.5,0c-11.8,0-23.6,0.1-35.4,0c-4.7-0.1-9.3,0.2-13.7,1.6c-2.7,0.9-4.5,0.4-6.3-1.8
		c-1.7-2.1-3.9-3.9-5.8-5.9c-0.3-0.3-0.5-0.6-0.9-1c21.3,0,42.4,0,63.5,0c0-13,0-25.8,0-38.8c-0.4,0-0.9-0.1-1.3-0.1
		c-7.8,0-15.7-0.1-23.5,0.1c-3,0.1-5.9,0.9-8.9,1.4c-1.5,0.2-2.9,0.6-4.4,0.8c-0.3,0.1-0.9,0-1.1-0.2c-3-2.9-5.9-5.9-9.1-9.1
		c16.3,0,32.2,0,48.3,0c0-11.8,0-23.5,0-35.3c-0.4,0-0.9,0-1.3,0c-3,0-6.1,0.1-9.1,0c-5.9-0.3-11.6,0.6-17.3,1.9
		c-2,0.5-3.4,0.1-4.8-1.5c-2.3-2.6-4.8-4.9-7.5-7.6c0.7,0,1.2,0,1.6,0c21.4,0,42.9,0,64.3,0c0.9,0,1.6-0.3,2.2-0.9
		c3.3-3.3,6.6-6.6,9.9-10c0.3-0.3,0.5-0.7,0.6-1c6.5,6.5,12.7,12.7,18.9,18.9c-13.6,0-27.2,0-40.9,0c0,11.8,0,23.5,0,35.2
		c0.4,0,0.8,0.1,1.2,0.1c4.3,0,8.6,0,13,0c0.6,0,1.3-0.3,1.7-0.7c3.4-3.4,6.8-6.8,10.2-10.2c0.3-0.3,0.6-0.5,0.8-0.7
		C222.8,181.8,229,188,235.3,194.3z"/>
</g>
</svg>
