<?xml version="1.0" encoding="utf-8"?>
<!-- Generator: Adobe Illustrator 20.1.0, SVG Export Plug-In . SVG Version: 6.00 Build 0)  -->
<svg version="1.1" id="图层_1" xmlns="http://www.w3.org/2000/svg" xmlns:xlink="http://www.w3.org/1999/xlink" x="0px" y="0px"
	 viewBox="0 0 360 360" style="enable-background:new 0 0 360 360;" xml:space="preserve">
<style type="text/css">
	.st0{fill:#FFFFFF;}
</style>
<g>
	<path class="st0" d="M360.5,360.5c-120.1,0-240.2,0-360.2,0c0-120.1,0-240.2,0-360.2c120.1,0,240.2,0,360.2,0
		C360.5,120.3,360.5,240.4,360.5,360.5z M46.3,258.1c3.5,3.5,6.7,6.7,9.9,9.9c0.6,0.6,1.1,0.7,1.9,0.5c8.2-2.2,16.5-3.2,24.9-3.2
		c29.4-0.1,58.7,0,88.1,0c0.4,0,0.8,0,1.2,0c0,5.7,0.1,11.2,0,16.6c0,1.5-0.4,3.1-0.9,4.6c-0.9,2.8-2.8,4.6-5.8,5.1
		c-1,0.2-2.1,0.3-3.1,0.2c-9.1-0.7-18.2-1.4-27.4-2.2c-2.5-0.2-4.9-0.5-7.5-0.8c0,1.4,0,2.6,0,3.8c0,0.7,0.3,1,0.9,1.2
		c2.5,0.7,5,1.4,7.5,2.2c6.6,2.2,13.1,4.7,18.8,8.9c4.5,3.3,8,7.3,8.2,13.3c0.3-0.1,0.6-0.1,0.9-0.2c4.1-1.5,8.1-3.3,11.7-5.7
		c9.3-6.2,14.3-14.7,14.5-26c0.1-6.5,0-13,0.1-19.6c0-0.5,0-0.9,0-1.5c41.3,0,82.4,0,123.4,0c-8.2-8.2-16.4-16.4-24.6-24.6
		c-0.2,0.2-0.5,0.5-0.9,0.8c-5.3,5.3-10.6,10.6-15.9,15.9c-0.6,0.6-1.2,0.8-2,0.8c-26.2,0-52.5,0-78.7,0c-0.4,0-0.8,0-1.3-0.1
		c0-7.5,0-14.8,0-22.3c29.8,0,59.5,0,89.1,0c-7.8-7.8-15.6-15.6-23.4-23.4c-5.1,5.1-10.2,10.2-15.3,15.4c-0.7,0.7-1.3,1-2.3,1
		c-15.5,0-31,0-46.6,0c-0.5,0-0.9,0-1.5,0c0-9.1,0-18,0-27c27.4-1.3,54.8-2.6,82.1-3.9c-6.5-6.9-13.1-13.9-19.7-20.9
		c-4,2.6-8.3,4.1-12.7,5.4c-14.4,4.2-29.2,6.1-44.1,7.9c-8.1,0.9-16.1,1.7-24.2,2.5c-9,0.8-18.1,1.6-27.1,2.3
		c-8.5,0.7-17,1.2-25.5,1.8c-10.4,0.7-20.8,1.2-31.2,1.8c-4.3,0.2-8.7,0.5-13.1,0.7c0,1.6,0,3.2,0,4.8c32.6-0.1,65.1-0.8,97.6-2.4
		c0,9.1,0,18,0,27.1c-32.1,0-64.2,0-96.6,0c3.4,3.4,6.6,6.6,9.8,9.8c0.6,0.6,1.1,0.8,2,0.6c8.3-2.2,16.9-3.2,25.5-3.3
		c19.3-0.1,38.6,0,58,0c0.4,0,0.9,0,1.3,0c0,7.5,0,14.9,0,22.3C130.3,258.1,88.5,258.1,46.3,258.1z"/>
	<path d="M46.3,258.1c42.2,0,84.1,0,126,0c0-7.5,0-14.8,0-22.3c-0.5,0-0.9,0-1.3,0c-19.3,0-38.6-0.1-58,0c-8.6,0-17.1,1-25.5,3.3
		c-0.9,0.2-1.4,0.1-2-0.6c-3.2-3.2-6.4-6.4-9.8-9.8c32.4,0,64.4,0,96.6,0c0-9.1,0-18,0-27.1c-32.5,1.6-65,2.3-97.6,2.4
		c0-1.6,0-3.2,0-4.8c4.4-0.2,8.7-0.4,13.1-0.7c10.4-0.6,20.8-1.2,31.2-1.8c8.5-0.5,17-1.1,25.5-1.8c9-0.7,18.1-1.5,27.1-2.3
		c8.1-0.8,16.2-1.5,24.2-2.5c14.8-1.7,29.7-3.7,44.1-7.9c4.4-1.3,8.7-2.8,12.7-5.4c6.6,7,13.2,14,19.7,20.9
		c-27.3,1.3-54.7,2.6-82.1,3.9c0,9,0,17.9,0,27c0.5,0,1,0,1.5,0c15.5,0,31,0,46.6,0c1,0,1.6-0.3,2.3-1c5.1-5.2,10.3-10.3,15.3-15.4
		c7.8,7.8,15.6,15.6,23.4,23.4c-29.6,0-59.3,0-89.1,0c0,7.5,0,14.8,0,22.3c0.4,0,0.9,0.1,1.3,0.1c26.2,0,52.5,0,78.7,0
		c0.8,0,1.4-0.2,2-0.8c5.3-5.3,10.6-10.6,15.9-15.9c0.3-0.3,0.6-0.6,0.9-0.8c8.2,8.2,16.4,16.4,24.6,24.6c-41,0-82.1,0-123.4,0
		c0,0.6,0,1,0,1.5c0,6.5,0,13-0.1,19.6c-0.2,11.2-5.3,19.8-14.5,26c-3.6,2.4-7.6,4.2-11.7,5.7c-0.3,0.1-0.5,0.1-0.9,0.2
		c-0.3-6-3.7-10-8.2-13.3c-5.7-4.2-12.1-6.7-18.8-8.9c-2.5-0.8-5-1.5-7.5-2.2c-0.7-0.2-1-0.5-0.9-1.2c0.1-1.2,0-2.5,0-3.8
		c2.6,0.3,5,0.6,7.5,0.8c9.1,0.8,18.2,1.5,27.4,2.2c1,0.1,2.1,0,3.1-0.2c3-0.5,4.9-2.4,5.8-5.1c0.5-1.5,0.9-3,0.9-4.6
		c0.1-5.5,0-11,0-16.6c-0.4,0-0.8,0-1.2,0c-29.4,0-58.7,0-88.1,0c-8.4,0-16.7,1.1-24.9,3.2c-0.8,0.2-1.3,0.2-1.9-0.5
		C53,264.7,49.8,261.5,46.3,258.1z"/>
</g>
</svg>
