<?xml version="1.0" encoding="utf-8"?>
<!-- Generator: Adobe Illustrator 20.1.0, SVG Export Plug-In . SVG Version: 6.00 Build 0)  -->
<svg version="1.1" id="图层_1" xmlns="http://www.w3.org/2000/svg" xmlns:xlink="http://www.w3.org/1999/xlink" x="0px" y="0px"
	 viewBox="0 0 360 360" style="enable-background:new 0 0 360 360;" xml:space="preserve">
<style type="text/css">
	.st0{fill:#FFFFFF;}
</style>
<g>
	<path class="st0" d="M-0.2,360.2c0-120.1,0-240.2,0-360.2C119.8,0,239.9,0,360,0c0,120.1,0,240.2,0,360.2
		C239.9,360.2,119.8,360.2-0.2,360.2z M109.4,75.1c0,20.7,0,41,0,61.4c-18.4,0-36.7,0-55.3,0c3.1,3.1,6,6.1,9,8.9
		c0.3,0.2,0.8,0.4,1.2,0.3c1.4-0.2,2.8-0.5,4.2-0.8c3-0.5,6-1.4,9-1.4c10.3-0.2,20.6-0.1,30.8-0.1c0.3,0,0.7,0,1.1,0.1
		c0,20.4-0.8,40.7-2.3,61.2c-20.4,0-40.7,0-61.4,0c2.4,2.4,4.8,4.4,6.7,6.8c1.9,2.3,3.8,2.9,6.7,1.9c4.4-1.5,9-1.7,13.7-1.6
		c10.9,0.1,21.8,0,32.8,0c0.5,0,0.9,0,1.4,0c0,0.3,0,0.5-0.1,0.7c-2.2,11.7-5.4,23.2-9.8,34.3c-8.3,20.7-20.4,38.9-36.8,54.1
		c-4.4,4.1-9.2,7.7-13.7,11.6c-0.3,0.2-0.8,0.6-0.7,0.8c0.3,1.5,0.7,3,1.1,4.6c41.8-23.7,68.1-58.1,75.4-106.1c19.2,0,38.3,0,57.3,0
		c-6.6-6.6-13.2-13.2-19.9-19.9c-3.9,3.9-7.9,7.9-11.9,11.9c-0.5,0.5-1.1,0.8-1.9,0.8c-7.4,0-14.9,0-22.3,0c-0.4,0-0.8,0-1.3-0.1
		c1.5-20.4,2.3-40.7,2.3-61.2c15.4,0,30.5,0,45.4,0c-6.5-6.5-13.1-13.1-19.8-19.8c-3.9,3.9-8,8-12.1,12.1c-0.4,0.4-1.1,0.7-1.6,0.7
		c-3.6,0.1-7.1,0-10.7,0c-0.4,0-0.8,0-1.2-0.1c0-0.4-0.1-0.6-0.1-0.8c0-20.6,0-41.1,0-61.7c0-0.8,0.3-1.1,1-1.3
		c6.8-1.6,13.6-3.1,20.4-4.9c5.2-1.4,10.4-2.2,15.7-1.9c1.8,0.1,3.6,0,5.4,0c0.3,0,0.6-0.1,1-0.1c-6-7.5-11.8-14.9-17.6-22.3
		c-6.5,5.1-13.7,8.8-21.1,12.1C107.9,65,85.2,71.9,62.1,77.3c-2.2,0.5-4.5,1-6.8,1.5c0.4,1.7,0.8,3.2,1.2,4.5
		C74.2,80.6,91.7,77.9,109.4,75.1z"/>
	<path d="M109.4,75.1c-17.7,2.7-35.2,5.4-53,8.2c-0.3-1.3-0.7-2.8-1.2-4.5c2.3-0.5,4.6-1,6.8-1.5c23.2-5.3,45.8-12.3,67.6-21.8
		c7.4-3.2,14.5-7,21.1-12.1c5.9,7.4,11.7,14.8,17.6,22.3c-0.5,0.1-0.7,0.1-1,0.1c-1.8,0-3.6,0.1-5.4,0c-5.4-0.3-10.6,0.5-15.7,1.9
		c-6.8,1.8-13.6,3.3-20.4,4.9c-0.8,0.2-1,0.5-1,1.3c0,20.6,0,41.1,0,61.7c0,0.2,0,0.5,0.1,0.8c0.4,0,0.8,0.1,1.2,0.1
		c3.6,0,7.1,0,10.7,0c0.6,0,1.2-0.3,1.6-0.7c4.1-4,8.2-8.1,12.1-12.1c6.6,6.6,13.2,13.2,19.8,19.8c-14.9,0-30,0-45.4,0
		c0,20.5-0.8,40.8-2.3,61.2c0.5,0,0.9,0.1,1.3,0.1c7.4,0,14.9,0,22.3,0c0.8,0,1.3-0.2,1.9-0.8c4-4,8-8,11.9-11.9
		c6.7,6.7,13.3,13.3,19.9,19.9c-19,0-38.1,0-57.3,0c-7.4,48-33.7,82.4-75.4,106.1c-0.4-1.6-0.8-3.1-1.1-4.6c0-0.2,0.4-0.6,0.7-0.8
		c4.6-3.9,9.4-7.5,13.7-11.6c16.4-15.2,28.5-33.4,36.8-54.1c4.4-11.1,7.6-22.5,9.8-34.3c0-0.2,0-0.4,0.1-0.7c-0.5,0-1,0-1.4,0
		c-10.9,0-21.8,0.1-32.8,0c-4.7-0.1-9.3,0.2-13.7,1.6c-2.8,0.9-4.8,0.4-6.7-1.9c-1.9-2.4-4.3-4.4-6.7-6.8c20.6,0,40.9,0,61.4,0
		c1.5-20.4,2.4-40.7,2.3-61.2c-0.4,0-0.8-0.1-1.1-0.1c-10.3,0-20.6-0.1-30.8,0.1c-3,0.1-6,0.9-9,1.4c-1.4,0.2-2.8,0.6-4.2,0.8
		c-0.4,0.1-0.9-0.1-1.2-0.3c-2.9-2.9-5.8-5.8-9-8.9c18.6,0,36.9,0,55.3,0C109.4,116.1,109.4,95.8,109.4,75.1z"/>
</g>
</svg>
