<?xml version="1.0" encoding="utf-8"?>
<!-- Generator: Adobe Illustrator 20.1.0, SVG Export Plug-In . SVG Version: 6.00 Build 0)  -->
<svg version="1.1" id="图层_1" xmlns="http://www.w3.org/2000/svg" xmlns:xlink="http://www.w3.org/1999/xlink" x="0px" y="0px"
	 viewBox="0 0 360 360" style="enable-background:new 0 0 360 360;" xml:space="preserve">
<style type="text/css">
	.st0{fill:#FFFFFF;}
</style>
<g>
	<path class="st0" d="M0.2,360.5c0-120.1,0-240.2,0-360.2c120.1,0,240.2,0,360.2,0c0,120.1,0,240.2,0,360.2
		C240.4,360.5,120.3,360.5,0.2,360.5z M322,294.6c-1.4-0.1-2.7-0.2-4-0.4c-1.3-0.2-2.6-0.4-3.9-0.6c-11.7-2-22.6-6.1-33.2-11.3
		c-12.7-6.3-24.1-14.6-34.7-24c-1.8-1.6-3.6-3.3-5.4-4.9c0.3-0.3,0.4-0.6,0.6-0.8c3.5-5,7.3-9.8,10.5-15
		c10.6-17,18.9-35.2,26.2-53.9c0.2-0.6,0.7-1.2,1.3-1.6c2.9-2,5.8-3.9,8.7-5.8c0.3-0.2,0.6-0.4,1-0.7c-6-5.6-11.8-11-17.7-16.5
		c-3.3,3.7-6.5,7.2-9.7,10.8c-0.6,0.7-1.3,1-2.2,1c-30,0-60.1,0-90.1,0c-0.5,0-0.9,0-1.6,0c0.4,0.5,0.7,0.8,1,1
		c2.3,2.3,4.8,4.6,7,7.1c1,1.1,2,1.5,3.4,1.1c1.1-0.4,2.3-0.5,3.5-0.7c2.5-0.4,4.9-0.9,7.4-1.3c0.1,0.3,0.2,0.6,0.3,0.8
		c2.7,8.9,5.3,17.8,8.2,26.7c3.7,11.3,8.2,22.2,13.8,32.7c2.5,4.8,5.4,9.3,8.2,14.2c-30.5,27.6-66.4,45.7-105.8,57.5
		c0.4,1.6,0.8,3.1,1.2,4.6c0.3,0,0.4,0,0.5,0c18.4-4.1,36.3-9.6,53.9-16.5c20.2-7.9,39.2-18.1,56.5-31.4c1.1-0.9,2.3-1.7,3.4-2.6
		c0.4,0.4,0.7,0.7,1,1c6.2,6.9,12.8,13.5,19.8,19.5c13,11.2,27.5,19.9,43.6,25.8c2,0.7,4.2,1.3,6.3,2c1.8-4.3,4.6-7.6,8.6-9.7
		c3.9-2.1,8.2-2.9,12.6-3.3C322,297.7,322,296.2,322,294.6z M251.3,72c0,0.6,0,1.1,0,1.7c0,20,0,40,0,60c0,6.7,3.4,11.5,9.8,13.4
		c2.6,0.8,5.3,1.3,8,1.3c9.8,0.2,19.7,0.1,29.5,0c3.7,0,7.4-0.4,10.9-1.8c3.3-1.4,4.1-3.8,2.2-6.7c-1.4-2.1-3.1-4-4.8-5.8
		c-1.1-1.1-2.4-2-3.7-2.7c-1.7-1-3.4-0.9-5.1,0.2c-0.6,0.4-1.2,0.7-1.9,1.1c-6.9,3.5-14.3,3.5-21.7,2.4c-4-0.6-6.5-3.2-7.4-7.2
		c-0.3-1.2-0.5-2.5-0.5-3.8c0-15.4,0-30.9,0-46.3c0-0.8,0.2-1.2,0.8-1.7c2.6-1.9,5.3-3.9,7.9-5.9c0.2-0.2,0.4-0.4,0.7-0.6
		c-5.5-5.1-11-10.2-16.5-15.3c-3,3.3-5.8,6.6-8.7,9.8c-0.5,0.6-1.1,0.8-1.8,0.8c-13,0-26.1,0-39.1,0c-0.6,0-1.3-0.2-1.9-0.5
		c-5.3-3.1-10.5-6.3-15.7-9.4c-0.3-0.2-0.6-0.3-1-0.5c0,0.6,0,1,0,1.4c0.1,3.6,0.4,7.1,0.4,10.7c0,7.5,0,15-0.2,22.5
		c-0.3,12.1-1.8,24-4.6,35.8c-2.4,10.4-6.9,19.7-14,27.7c-4.6,5.1-9.6,9.7-14.9,14c-0.3,0.3-0.6,0.5-1.1,0.9c1,1,2,1.8,2.9,2.8
		c0.6,0.7,1,0.6,1.7,0.2c6.6-4,13-8.4,18.9-13.5c11.3-9.6,19.5-21.2,23-35.9c2.2-9.1,3.6-18.3,4.1-27.6c0.3-5,0.2-10.1,0.3-15.1
		c0-2.1,0-4.2,0-6.3C222.4,72,236.8,72,251.3,72z"/>
	<path d="M322,294.6c0,1.6,0,3.1,0,4.7c-4.4,0.4-8.7,1.2-12.6,3.3c-4,2.2-6.8,5.4-8.6,9.7c-2.1-0.7-4.2-1.2-6.3-2
		c-16.1-5.9-30.6-14.6-43.6-25.8c-7-6.1-13.6-12.6-19.8-19.5c-0.3-0.3-0.6-0.6-1-1c-1.2,0.9-2.3,1.8-3.4,2.6
		c-17.3,13.3-36.3,23.4-56.5,31.4c-17.5,6.9-35.5,12.4-53.9,16.5c-0.1,0-0.2,0-0.5,0c-0.4-1.5-0.8-3-1.2-4.6
		c39.4-11.8,75.3-29.9,105.8-57.5c-2.8-4.9-5.7-9.5-8.2-14.2c-5.6-10.5-10.1-21.5-13.8-32.7c-2.9-8.8-5.5-17.8-8.2-26.7
		c-0.1-0.2-0.2-0.4-0.3-0.8c-2.5,0.4-4.9,0.9-7.4,1.3c-1.2,0.2-2.4,0.3-3.5,0.7c-1.5,0.5-2.4,0-3.4-1.1c-2.3-2.4-4.7-4.7-7-7.1
		c-0.3-0.3-0.5-0.6-1-1c0.7,0,1.1,0,1.6,0c30,0,60.1,0,90.1,0c1,0,1.6-0.3,2.2-1c3.2-3.6,6.4-7.1,9.7-10.8
		c5.9,5.5,11.7,11,17.7,16.5c-0.4,0.3-0.7,0.5-1,0.7c-2.9,1.9-5.8,3.8-8.7,5.8c-0.5,0.4-1.1,1-1.3,1.6
		c-7.3,18.7-15.6,36.9-26.2,53.9c-3.2,5.2-7,10-10.5,15c-0.2,0.2-0.3,0.4-0.6,0.8c1.8,1.6,3.6,3.3,5.4,4.9c10.6,9.4,22,17.7,34.7,24
		c10.6,5.2,21.5,9.3,33.2,11.3c1.3,0.2,2.6,0.4,3.9,0.6C319.3,294.4,320.6,294.5,322,294.6z M196.1,178.1c8,23,19,44.2,34.1,63.5
		c14.5-19.3,23.5-40.9,30.6-63.5C239.1,178.1,217.7,178.1,196.1,178.1z"/>
	<path d="M251.3,72c-14.6,0-29,0-43.4,0c0,2.1,0,4.2,0,6.3c-0.1,5-0.1,10.1-0.3,15.1c-0.5,9.3-1.9,18.5-4.1,27.6
		c-3.5,14.7-11.7,26.3-23,35.9c-5.9,5-12.3,9.4-18.9,13.5c-0.7,0.4-1.1,0.5-1.7-0.2c-0.9-0.9-1.8-1.8-2.9-2.8
		c0.5-0.4,0.8-0.7,1.1-0.9c5.3-4.3,10.3-8.9,14.9-14c7.1-8,11.6-17.3,14-27.7c2.7-11.8,4.3-23.7,4.6-35.8c0.2-7.5,0.2-15,0.2-22.5
		c0-3.6-0.3-7.1-0.4-10.7c0-0.4,0-0.9,0-1.4c0.4,0.2,0.7,0.4,1,0.5c5.2,3.1,10.5,6.3,15.7,9.4c0.5,0.3,1.3,0.5,1.9,0.5
		c13,0,26.1,0,39.1,0c0.8,0,1.3-0.2,1.8-0.8c2.8-3.3,5.7-6.5,8.7-9.8c5.5,5.1,11,10.2,16.5,15.3c-0.3,0.2-0.5,0.5-0.7,0.6
		c-2.6,2-5.2,4-7.9,5.9c-0.6,0.5-0.8,0.9-0.8,1.7c0,15.4,0,30.9,0,46.3c0,1.3,0.2,2.6,0.5,3.8c0.9,4,3.4,6.6,7.4,7.2
		c7.4,1.1,14.8,1,21.7-2.4c0.6-0.3,1.3-0.7,1.9-1.1c1.7-1.1,3.4-1.2,5.1-0.2c1.3,0.8,2.7,1.6,3.7,2.7c1.7,1.8,3.4,3.7,4.8,5.8
		c1.9,2.9,1,5.3-2.2,6.7c-3.5,1.5-7.2,1.8-10.9,1.8c-9.8,0.1-19.7,0.1-29.5,0c-2.7,0-5.4-0.6-8-1.3c-6.4-1.9-9.8-6.7-9.8-13.4
		c0-20,0-40,0-60C251.3,73.2,251.3,72.7,251.3,72z"/>
	<path class="st0" d="M196.1,178.1c21.6,0,43,0,64.7,0c-7.1,22.7-16.1,44.3-30.6,63.5C215.1,222.3,204.1,201.1,196.1,178.1z"/>
</g>
</svg>
