<?xml version="1.0" encoding="utf-8"?>
<!-- Generator: Adobe Illustrator 20.1.0, SVG Export Plug-In . SVG Version: 6.00 Build 0)  -->
<svg version="1.1" id="图层_1" xmlns="http://www.w3.org/2000/svg" xmlns:xlink="http://www.w3.org/1999/xlink" x="0px" y="0px"
	 viewBox="0 0 360 360" style="enable-background:new 0 0 360 360;" xml:space="preserve">
<style type="text/css">
	.st0{fill:#FFFFFF;}
</style>
<g>
	<path class="st0" d="M0.2,360.5c0-120.1,0-240.2,0-360.2c120.1,0,240.2,0,360.2,0c0,120.1,0,240.2,0,360.2
		C240.4,360.5,120.3,360.5,0.2,360.5z M187.7,132.2c0,0,0.1,0,0.1-0.1c0.1,0.3,0.2,0.7,0.3,1c0.7,3.5,1.4,7.1,2.2,10.6
		c5,22.3,12.2,43.8,22.6,64.2c9.5,18.6,21.3,35.5,36,50.3c10.6,10.7,22.3,19.9,35.1,27.8c2.8,1.7,5.7,3.4,8.6,5.1
		c5.8-11.1,15.7-15.1,27.1-16.6c0-1.7,0-3.2,0-4.7c-0.4-0.1-0.7-0.2-1-0.3c-19.3-4.5-36.8-13-52.6-24.8c-13.4-10-24.9-21.9-35.1-35
		c-2.6-3.4-5.2-6.9-7.8-10.4c0.6-0.3,1-0.6,1.4-0.8c14.2-8.5,28.3-16.9,42.5-25.4c6.8-4.1,13.9-7.5,21.7-9.4c1.3-0.3,2.6-0.6,4-1
		c-6.7-7.5-13.4-14.9-20-22.4c-14.3,20.7-32.4,37.5-51.8,53c-4.2-6.8-7.7-13.7-11-20.8c-8.2-17.6-14.6-35.9-20.4-54.5
		c-0.3-0.8-0.5-1.5-1.6-1.3c0-0.3-0.1-0.5-0.1-0.7c0-16.4,0-32.7,0-49.1c0-0.5,0.3-1.1,0.7-1.4c2.6-2.7,5.2-5.3,7.9-7.9
		c0.3-0.3,0.5-0.6,0.9-1c-9.4-5.1-18.7-10.2-28.2-15.3c0,0.5,0,0.8,0,1.1c0.3,12.1,0.7,24.3,0.9,36.4c0.2,8.6,0.2,17.2,0.2,25.8
		c0,31.4,0,62.9,0,94.3c0,1-0.3,1.6-1.2,2c-28.1,14.4-56.2,28.9-84.3,43.2c-9.1,4.7-18.5,8.9-28.2,12.2c-3.2,1.1-6.5,2-9.9,3
		c6.2,7.8,12.4,15.5,18.6,23.2c2.1-2.5,4.1-5.1,6.3-7.4c7.1-7.2,15.1-13.2,23.5-18.7c24.7-16.2,49.5-32.3,74.2-48.4
		c0.3-0.2,0.5-0.3,0.9-0.5c0,0.4,0.1,0.7,0.1,0.9c0,22.2,0.1,44.4-0.1,66.6c0,6.7-3.8,11.3-11.2,11.1c-7.1-0.2-14.1-0.7-21.2-1.1
		c-4.9-0.3-9.7-0.8-14.7-1.2c0,1.2,0.1,2.4,0,3.6c-0.1,0.9,0.2,1.2,1.1,1.5c5.7,1.8,11.3,3.8,16.5,6.6c3.2,1.8,6.4,3.7,9.4,6
		c4.6,3.5,7.9,8,8.4,14.1c4.7-1.2,9.1-2.9,13.3-5.3c7.3-4.3,12.5-10.2,14.9-18.5c1.3-4.6,1.3-9.3,1.3-14c-0.1-48.2,0-96.4,0-144.6
		C187.7,133,187.7,132.6,187.7,132.2z M79.4,141.5c0.3,0.3,0.6,0.6,0.9,0.8c6.6,6.1,13,12.5,18.8,19.5c6.4,7.7,12,15.9,15.7,25.4
		c1,2.4,2.4,4.7,3.9,6.8c2.4,3.1,5.4,3.2,8.2,0.4c3-3,4.9-6.8,6.3-10.8c2.7-7.9,1.1-14.9-4.8-20.8c-3.3-3.4-7.2-6-11.2-8.4
		c-10.2-6.1-21-10.8-32-15.1c-1.1-0.4-2.5-1.4-3.4-1.1c-1,0.4-1.5,1.9-2.2,3C79.5,141.2,79.5,141.3,79.4,141.5z"/>
	<path d="M187.7,132.2c0,0.4,0,0.8,0,1.2c0,48.2,0,96.4,0,144.6c0,4.7,0,9.4-1.3,14c-2.4,8.2-7.6,14.2-14.9,18.5
		c-4.1,2.4-8.6,4.1-13.3,5.3c-0.6-6.1-3.8-10.6-8.4-14.1c-2.9-2.3-6.1-4.2-9.4-6c-5.2-2.9-10.9-4.8-16.5-6.6
		c-0.9-0.3-1.1-0.6-1.1-1.5c0.1-1.2,0-2.4,0-3.6c5,0.4,9.8,0.9,14.7,1.2c7.1,0.4,14.1,0.9,21.2,1.1c7.4,0.2,11.2-4.4,11.2-11.1
		c0.2-22.2,0.1-44.4,0.1-66.6c0-0.3,0-0.5-0.1-0.9c-0.3,0.2-0.6,0.3-0.9,0.5c-24.7,16.1-49.5,32.2-74.2,48.4
		c-8.4,5.5-16.5,11.5-23.5,18.7c-2.2,2.3-4.2,4.9-6.3,7.4c-6.1-7.6-12.3-15.4-18.6-23.2c3.3-1,6.6-1.9,9.9-3
		c9.7-3.4,19.1-7.6,28.2-12.2c28.1-14.3,56.2-28.8,84.3-43.2c0.9-0.5,1.2-1,1.2-2c0-31.4,0-62.9,0-94.3c0-8.6,0-17.2-0.2-25.8
		c-0.2-12.1-0.6-24.3-0.9-36.4c0-0.3,0-0.6,0-1.1c9.5,5.1,18.8,10.2,28.2,15.3c-0.4,0.4-0.6,0.7-0.9,1c-2.6,2.6-5.3,5.2-7.9,7.9
		c-0.3,0.4-0.7,0.9-0.7,1.4c0,16.4,0,32.7,0,49.1c0,0.2,0,0.4,0.1,0.7c1-0.1,1.3,0.5,1.6,1.3c5.8,18.5,12.2,36.8,20.4,54.5
		c3.3,7.1,6.8,14,11,20.8c19.4-15.5,37.5-32.3,51.8-53c6.7,7.5,13.3,14.9,20,22.4c-1.4,0.3-2.7,0.6-4,1c-7.7,2-14.9,5.3-21.7,9.4
		c-14.2,8.5-28.3,16.9-42.5,25.4c-0.4,0.2-0.8,0.5-1.4,0.8c2.6,3.5,5.2,7,7.8,10.4c10.2,13.2,21.8,25,35.1,35
		c15.8,11.8,33.3,20.3,52.6,24.8c0.3,0.1,0.6,0.2,1,0.3c0,1.5,0,3.1,0,4.7c-11.4,1.5-21.3,5.5-27.1,16.6c-2.9-1.7-5.8-3.3-8.6-5.1
		c-12.8-7.8-24.5-17.1-35.1-27.8c-14.7-14.8-26.5-31.7-36-50.3c-10.4-20.4-17.5-42-22.6-64.2c-0.8-3.5-1.5-7-2.2-10.6
		c-0.1-0.3-0.2-0.7-0.3-1C187.8,132.2,187.8,132.2,187.7,132.2z"/>
	<path d="M79.4,141.5c0.1-0.2,0.1-0.3,0.1-0.3c0.7-1,1.3-2.6,2.2-3c0.9-0.3,2.3,0.6,3.4,1.1c11,4.3,21.9,9,32,15.1
		c4,2.4,7.9,5.1,11.2,8.4c5.9,5.9,7.5,12.9,4.8,20.8c-1.4,4-3.2,7.7-6.3,10.8c-2.8,2.8-5.8,2.8-8.2-0.4c-1.6-2.1-3-4.4-3.9-6.8
		c-3.7-9.4-9.3-17.6-15.7-25.4c-5.8-7-12.2-13.3-18.8-19.5C80,142.1,79.7,141.8,79.4,141.5z"/>
</g>
</svg>
