<?xml version="1.0" encoding="utf-8"?>
<!-- Generator: Adobe Illustrator 20.1.0, SVG Export Plug-In . SVG Version: 6.00 Build 0)  -->
<svg version="1.1" id="图层_1" xmlns="http://www.w3.org/2000/svg" xmlns:xlink="http://www.w3.org/1999/xlink" x="0px" y="0px"
	 viewBox="0 0 360 360" style="enable-background:new 0 0 360 360;" xml:space="preserve">
<style type="text/css">
	.st0{fill:#FFFFFF;}
</style>
<g>
	<path class="st0" d="M0.2,360.5c0-120.1,0-240.2,0-360.2c120.1,0,240.2,0,360.2,0c0,120.1,0,240.2,0,360.2
		C240.4,360.5,120.3,360.5,0.2,360.5z M205.5,54.3c-9.5-4-18.9-7.9-28.3-11.8c0,0.6,0,1,0,1.4c0.4,10.3,1,20.5,1.1,30.8
		c0.2,24.3,0.1,48.6,0,72.8c0,1.6-0.2,3.2-0.5,4.8c-1,5.3-4.3,8.1-9.7,8c-7.8-0.2-15.6-0.5-23.4-0.8c-2.1-0.1-4.3-0.2-6.4-0.3
		c0,1.7,0,3.2,0,4.7c0.4,0.1,0.9,0.2,1.3,0.3c6.3,1.5,12.4,3.4,17.9,6.9c5.2,3.4,8.9,7.9,10,14.2c0.1,0.7,0.2,1.4,0.3,2.3
		c2.3-0.9,4.5-1.6,6.6-2.5c13.6-6,20.6-16.2,20.5-31.2c-0.1-20.7,0-41.4,0-62.2c0-0.4,0-0.9,0-1.3c23,42.1,55.1,74.5,98.9,94.8
		c0.3-1,0.5-1.9,0.9-2.7c1.7-4.4,5-7.2,9.1-9.3c4.4-2.3,9.1-3.4,13.9-4.3c0.4-0.1,0.9-0.5,0.9-0.7c0.1-1.3,0-2.7,0-4.2
		c-36.7-4.4-66.8-21.8-93-47.1c0.5-0.3,1-0.6,1.4-0.8c13.1-7.7,26.3-15.2,39.3-23.1c7.3-4.4,14.9-7.9,23.3-9.7c1-0.2,2-0.4,3.1-0.7
		c-6.4-7.2-12.6-14.2-18.9-21.2c-5.1,7.7-11.2,14.4-17.6,20.8c-8.6,8.6-17.9,16.6-27.3,24.3c-2.3,1.9-4.6,3.7-7,5.6
		c-0.1-0.2-0.2-0.4-0.3-0.5c-9.8-10.6-18.6-22-26.2-34.2c-0.3-0.4-0.4-1-0.4-1.6c0-4.1,0-8.2,0-12.2c0-0.7,0.2-1.2,0.8-1.6
		C198.9,59.5,202.1,56.9,205.5,54.3z M51.1,195.7c0.4-0.2,0.7-0.4,1.1-0.5C74,183.5,93.8,169,111,151.1c15.4-16,28.1-33.9,38.1-53.7
		c1.5-3,3.3-5.1,6.6-6c2.2-0.6,4.2-1.6,6.3-2.5c0.3-0.1,0.6-0.3,1-0.5c-6.3-5.9-12.6-11.8-18.9-17.7c-3.3,3.7-6.6,7.2-9.7,10.8
		c-0.6,0.7-1.3,1-2.3,1c-21.4,0-42.8,0-64.2,0c-0.5,0-0.9,0-1.7,0c3.6,3.6,7,7,10.3,10.3c0.2,0.2,0.8,0.2,1.2,0.1
		c8.8-2.3,17.8-3.3,26.8-3.3c9.2-0.1,18.3,0,27.5,0c0.4,0,0.8,0,1.4,0.1c-18.4,42.4-48.4,75.1-84.8,102.4
		C49.5,193.3,50.2,194.4,51.1,195.7z"/>
	<path d="M205.5,54.3c-3.4,2.7-6.6,5.2-9.9,7.7c-0.6,0.4-0.8,0.9-0.8,1.6c0,4.1,0,8.2,0,12.2c0,0.5,0.1,1.1,0.4,1.6
		c7.7,12.2,16.4,23.6,26.2,34.2c0.1,0.1,0.2,0.3,0.3,0.5c2.4-2,4.7-3.8,7-5.6c9.5-7.7,18.7-15.7,27.3-24.3
		c6.4-6.4,12.4-13.1,17.6-20.8c6.3,7.1,12.5,14.1,18.9,21.2c-1.1,0.2-2.1,0.4-3.1,0.7c-8.4,1.8-16,5.2-23.3,9.7
		c-13,7.9-26.2,15.4-39.3,23.1c-0.4,0.3-0.9,0.5-1.4,0.8c26.2,25.3,56.3,42.7,93,47.1c0,1.5,0.1,2.8,0,4.2c0,0.3-0.6,0.7-0.9,0.7
		c-4.8,0.9-9.5,2-13.9,4.3c-4.1,2.1-7.4,4.9-9.1,9.3c-0.3,0.8-0.5,1.7-0.9,2.7c-43.8-20.3-75.9-52.7-98.9-94.8c0,0.4,0,0.9,0,1.3
		c0,20.7-0.1,41.4,0,62.2c0.1,15-6.9,25.2-20.5,31.2c-2.1,0.9-4.3,1.7-6.6,2.5c-0.1-0.9-0.2-1.6-0.3-2.3c-1.1-6.3-4.8-10.8-10-14.2
		c-5.5-3.6-11.6-5.5-17.9-6.9c-0.4-0.1-0.8-0.2-1.3-0.3c0-1.6,0-3.1,0-4.7c2.2,0.1,4.3,0.3,6.4,0.3c7.8,0.3,15.6,0.6,23.4,0.8
		c5.4,0.1,8.7-2.6,9.7-8c0.3-1.6,0.5-3.2,0.5-4.8c0-24.3,0.1-48.6,0-72.8c-0.1-10.3-0.7-20.5-1.1-30.8c0-0.4,0-0.8,0-1.4
		C186.6,46.4,195.9,50.3,205.5,54.3z"/>
	<path d="M51.1,195.7c-0.8-1.2-1.6-2.4-2.4-3.6c36.4-27.3,66.4-60,84.8-102.4c-0.6,0-1-0.1-1.4-0.1c-9.2,0-18.3,0-27.5,0
		c-9.1,0-18,1-26.8,3.3c-0.4,0.1-1,0.1-1.2-0.1c-3.4-3.3-6.7-6.7-10.3-10.3c0.8,0,1.2,0,1.7,0c21.4,0,42.8,0,64.2,0
		c1,0,1.6-0.3,2.3-1c3.2-3.6,6.4-7.1,9.7-10.8c6.3,5.9,12.5,11.7,18.9,17.7c-0.4,0.2-0.7,0.3-1,0.5c-2.1,0.9-4.2,1.9-6.3,2.5
		c-3.3,0.9-5.1,3-6.6,6c-10,19.8-22.7,37.7-38.1,53.7c-17.2,17.9-37,32.4-58.9,44.1C51.8,195.3,51.5,195.5,51.1,195.7z"/>
</g>
</svg>
