<?xml version="1.0" encoding="utf-8"?>
<!-- Generator: Adobe Illustrator 20.1.0, SVG Export Plug-In . SVG Version: 6.00 Build 0)  -->
<svg version="1.1" id="图层_1" xmlns="http://www.w3.org/2000/svg" xmlns:xlink="http://www.w3.org/1999/xlink" x="0px" y="0px"
	 viewBox="0 0 360 360" style="enable-background:new 0 0 360 360;" xml:space="preserve">
<style type="text/css">
	.st0{fill:#FFFFFF;}
</style>
<g>
	<path class="st0" d="M-0.2,360.2c0-120.1,0-240.2,0-360.2C119.8,0,239.9,0,360,0c0,120.1,0,240.2,0,360.2
		C239.9,360.2,119.8,360.2-0.2,360.2z M316.8,282.6c0-1.3,0-2.6,0-3.9c0-0.7-0.3-1-0.9-1.1c-1.4-0.2-2.8-0.4-4.3-0.7
		c-16.7-3-32.4-8.5-47.1-16.9c-13.7-7.8-25.8-17.6-36.6-29.1c-2.2-2.3-4.3-4.8-6.5-7.2c0.5-0.4,0.9-0.6,1.2-0.8
		c19.2-12.6,38-25.8,56.3-39.8c1.9-1.4,3.8-2.1,6.1-2.2c2.7-0.2,5.3-0.5,8.2-0.8c-6.8-7.2-13.4-14.2-20.1-21.3
		c-0.6,1-1.1,1.8-1.6,2.7c-5.5,9.1-12.3,17.1-19.4,25c-9,10-18.5,19.5-28.2,28.8c-1.7,1.6-3.3,3.2-5,4.8c-0.2-0.2-0.3-0.3-0.4-0.5
		c-11.2-13.7-20.3-28.8-27.6-44.9c-0.2-0.4-0.2-0.9-0.2-1.4c0-3.2,0.1-6.4-0.1-9.6c-0.1-1.8,0.5-2.9,1.9-4c2.2-1.7,4.2-3.6,6.5-5.5
		c-8.7-4.4-17.3-8.6-25.9-13c0,0.5,0,0.7,0,1c0.4,9.8,1,19.6,1,29.3c0.1,36.6,0.1,73.3,0,109.9c0,0.5,0,1,0,1.4
		c-0.4,5.1-3,7.7-8.1,7.2c-10-0.9-19.9-2.1-29.9-3.2c-2.2-0.2-4.4-0.5-6.7-0.8c-0.4,1.6-0.8,3.2-1.2,4.7c0.4,0.1,0.7,0.2,1,0.3
		c8.1,2.1,16.1,4.8,23.3,9.2c5.7,3.5,10.6,7.7,13.5,13.9c0.4,0.8,0.7,1.7,1.1,2.6c1.7-0.8,3.4-1.4,5-2.2c4.6-2.2,9-4.7,12.6-8.4
		c4.3-4.3,5.9-9.8,5.9-15.7c0-34.1,0-68.2,0-102.4c0-0.4,0-0.9,0-1.3c18.4,51.4,52.4,88.1,102.5,110
		C298,286.8,306.6,283.4,316.8,282.6z M45.8,309.7c0.4-0.2,0.6-0.3,0.9-0.4c3.6-2,7.2-3.9,10.7-6c23.1-13.7,43.2-31,60-52.1
		c11.8-14.9,21.5-31.1,29.3-48.5c0.4-1,1-1.7,1.9-2.3c2.8-1.8,5.6-3.7,8.4-5.6c0.3-0.2,0.5-0.4,0.7-0.5c-5.5-5.5-11-11-16.5-16.4
		c-0.2,0.2-0.5,0.5-0.8,0.7c-2.9,2.9-5.9,5.9-8.8,8.8c-0.7,0.7-1.3,0.9-2.3,0.9c-21.4,0-42.7,0-64.1,0c-0.5,0-0.9,0-1.5,0
		c0.1,0.3,0.2,0.4,0.3,0.5c3.2,3.2,6.4,6.5,9.7,9.7c0.3,0.3,0.9,0.4,1.2,0.3c9-2.4,18.2-3.3,27.5-3.3c8.9-0.1,17.8,0,26.8,0
		c0.4,0,0.9,0,1.4,0c-0.2,0.6-0.3,1-0.5,1.4c-5.4,15.2-12.7,29.5-21.6,42.9c-13.5,20.4-29.9,38-48.4,53.9c-4.8,4.1-9.8,8-14.7,12
		c-0.3,0.3-0.7,0.8-0.6,1.1C45.1,307.6,45.5,308.6,45.8,309.7z"/>
	<path d="M316.8,282.6c-10.2,0.8-18.8,4.2-23.6,14.2c-50-21.9-84.1-58.5-102.5-110c0,0.4,0,0.9,0,1.3c0,34.1,0,68.2,0,102.4
		c0,5.9-1.6,11.4-5.9,15.7c-3.6,3.6-8,6.2-12.6,8.4c-1.6,0.8-3.3,1.5-5,2.2c-0.4-0.9-0.7-1.8-1.1-2.6c-2.9-6.2-7.8-10.5-13.5-13.9
		c-7.2-4.4-15.2-7-23.3-9.2c-0.3-0.1-0.6-0.2-1-0.3c0.4-1.6,0.8-3.1,1.2-4.7c2.3,0.3,4.5,0.6,6.7,0.8c10,1.1,19.9,2.3,29.9,3.2
		c5.1,0.5,7.7-2.1,8.1-7.2c0-0.5,0-1,0-1.4c0-36.6,0.1-73.3,0-109.9c0-9.8-0.7-19.6-1-29.3c0-0.3,0-0.5,0-1
		c8.7,4.3,17.2,8.6,25.9,13c-2.2,1.9-4.3,3.8-6.5,5.5c-1.4,1.1-2,2.2-1.9,4c0.2,3.2,0,6.4,0.1,9.6c0,0.5,0.1,1,0.2,1.4
		c7.3,16.1,16.4,31.2,27.6,44.9c0.1,0.1,0.2,0.2,0.4,0.5c1.7-1.6,3.4-3.2,5-4.8c9.7-9.3,19.2-18.8,28.2-28.8
		c7.1-7.9,13.9-15.9,19.4-25c0.5-0.9,1-1.7,1.6-2.7c6.7,7.1,13.3,14.1,20.1,21.3c-2.9,0.3-5.6,0.7-8.2,0.8c-2.3,0.1-4.2,0.8-6.1,2.2
		c-18.3,13.9-37.1,27.2-56.3,39.8c-0.4,0.2-0.7,0.5-1.2,0.8c2.2,2.5,4.3,4.9,6.5,7.2c10.8,11.5,22.9,21.3,36.6,29.1
		c14.7,8.4,30.4,14,47.1,16.9c1.4,0.3,2.8,0.5,4.3,0.7c0.7,0.1,1,0.3,0.9,1.1C316.8,280,316.8,281.3,316.8,282.6z"/>
	<path d="M45.8,309.7c-0.4-1.1-0.8-2.1-1-3.1c-0.1-0.3,0.3-0.8,0.6-1.1c4.9-4,9.9-7.9,14.7-12c18.5-15.8,35-33.5,48.4-53.9
		c8.9-13.4,16.2-27.7,21.6-42.9c0.1-0.4,0.3-0.8,0.5-1.4c-0.6,0-1,0-1.4,0c-8.9,0-17.8,0-26.8,0c-9.3,0.1-18.5,1-27.5,3.3
		c-0.4,0.1-1,0-1.2-0.3c-3.3-3.2-6.5-6.4-9.7-9.7c-0.1-0.1-0.1-0.2-0.3-0.5c0.6,0,1,0,1.5,0c21.4,0,42.7,0,64.1,0
		c1,0,1.6-0.3,2.3-0.9c2.9-3,5.9-5.9,8.8-8.8c0.3-0.3,0.6-0.5,0.8-0.7c5.5,5.5,10.9,10.9,16.5,16.4c-0.2,0.1-0.4,0.4-0.7,0.5
		c-2.8,1.9-5.6,3.8-8.4,5.6c-0.9,0.6-1.5,1.3-1.9,2.3c-7.8,17.4-17.4,33.6-29.3,48.5c-16.7,21.1-36.8,38.3-60,52.1
		c-3.5,2.1-7.1,4-10.7,6C46.5,309.4,46.2,309.5,45.8,309.7z"/>
</g>
</svg>
