<?xml version="1.0" encoding="utf-8"?>
<!-- Generator: Adobe Illustrator 20.1.0, SVG Export Plug-In . SVG Version: 6.00 Build 0)  -->
<svg version="1.1" id="图层_1" xmlns="http://www.w3.org/2000/svg" xmlns:xlink="http://www.w3.org/1999/xlink" x="0px" y="0px"
	 viewBox="0 0 360 360" style="enable-background:new 0 0 360 360;" xml:space="preserve">
<style type="text/css">
	.st0{fill:#FFFFFF;}
</style>
<g>
	<path class="st0" d="M0.2,360.5c0-120.1,0-240.2,0-360.2c120.1,0,240.2,0,360.2,0c0,120.1,0,240.2,0,360.2
		C240.4,360.5,120.3,360.5,0.2,360.5z M226.6,86.1c31,0,61.9,0,93.1,0c-7.2-8-14.2-15.8-21.5-23.9c-0.3,0.5-0.5,0.9-0.8,1.2
		c-4.8,4.8-9.7,9.7-14.5,14.5c-0.7,0.7-1.5,1-2.5,1c-36.2,0-72.5,0-108.7,0c-0.5,0-0.9,0-1.5,0c0.1,0.2,0.1,0.4,0.2,0.4
		c3.2,3.3,6.5,6.5,9.8,9.7c0.3,0.3,0.9,0.4,1.3,0.3c7.1-1.9,14.3-2.8,21.5-3.1c2.3-0.1,4.6,0,7,0c0,0.4-0.1,0.9-0.1,1.3
		c-1.1,8.5-2.2,17-3.2,25.4c-1,7.9-2,15.8-3,23.7c-1.2,9-2.3,18.1-3.5,27.1c-1.1,8.5-2.2,17-3.2,25.6c-1.2,9.1-2.3,18.2-3.5,27.2
		c-1.2,9.1-2.3,18.2-3.4,27.2c-1.2,9.2-2.4,18.4-3.5,27.6c-0.7,5.7-2.7,10.8-6.9,14.9c-0.4,0.4-0.9,0.8-1.3,1.2
		c4.7,6.3,9.4,12.5,14,18.6c2-2.6,3.8-5.3,5.9-7.7c2.1-2.4,4.5-4.7,6.8-6.9c9.3-8.4,19.5-15.5,30-22.3c4.3-2.8,8.8-5.5,13.2-8.3
		c0.3-0.2,0.7-0.8,0.7-1.1c-0.2-1-0.6-1.9-1-3c-15.7,6.3-31.3,12.5-47.1,18.8c5.9-44.1,11.8-88,17.7-131.8c15.7,0,31.3,0,47,0
		c0,0.3,0,0.5,0,0.8c-0.6,8.7-1.2,17.4-1.7,26.1c-0.6,9.1-1.2,18.2-1.8,27.3c-0.6,8.9-1.2,17.8-1.8,26.7c-0.6,9.1-1.2,18.1-1.8,27.2
		c-0.6,9.2-1.2,18.3-1.8,27.5c-0.2,3.9-0.6,7.7-0.5,11.6c0.1,5.8,3.4,10.1,9,11.9c2.4,0.7,4.9,1.2,7.4,1.2c8.6,0.1,17.2,0.1,25.8,0
		c2.3,0,4.6-0.2,6.8-0.5c8.4-1.2,15.3-7.7,17.1-16c-0.2-0.1-0.4-0.2-0.7-0.3c-4.5-1.5-7.5-4.6-8.7-9.1c-0.7-2.8-1.2-5.8-1.5-8.7
		c-0.6-7-1.1-14-1.6-21c-0.2-2.6-0.3-5.2-0.4-7.8c-1.7,0-3.2,0-4.8,0c-0.2,2.7-0.5,5.3-0.7,8c-1,10.1-1.9,20.1-2.9,30.2
		c-0.3,3.3-1.3,6.4-3.6,8.8c-1,1-2.4,2.2-3.7,2.3c-4.9,0.3-9.9,0.3-14.9,0.1c-3.5-0.1-5.9-2.2-6.6-5.6c-0.4-1.8-0.5-3.7-0.4-5.6
		c0.6-9.5,1.3-19,2-28.5c0.8-10.6,1.5-21.3,2.3-31.9c0.8-11.7,1.7-23.4,2.5-35.2c0.8-11,1.6-22.1,2.3-33.1c0.1-1.1,0.4-1.8,1.4-2.4
		c3.1-2,6.2-4.1,9.4-6.2c-6.3-5.5-12.6-11-18.9-16.5c-0.3,0.3-0.5,0.5-0.7,0.8c-2.7,3.3-5.4,6.7-8,10c-0.6,0.7-1.2,1-2.1,1
		c-13.6,0-27.2,0-40.8,0c-0.4,0-0.9,0-1.4,0C221.9,119.9,224.3,103.1,226.6,86.1z M222.9,168.4c-0.5,0.6-0.8,1.1-1.3,1.5
		c-0.9,0.7-0.9,1.3-0.4,2.2c5,9.6,8.3,19.8,10.1,30.4c0.7,4.2,1.2,8.4,1.9,12.5c0.4,2.4,1.1,4.8,2.6,6.9c1.2,1.5,2.7,1.9,4.5,1.1
		c0.9-0.4,1.7-1,2.5-1.7c2.6-2.4,4.7-5.2,6-8.4c2.7-6.3,1.6-12.2-1.8-17.8C240.7,184.9,232.3,176.4,222.9,168.4z"/>
	<path d="M226.6,86.1c-2.4,17-4.7,33.8-7.1,50.7c0.6,0,1,0,1.4,0c13.6,0,27.2,0,40.8,0c0.9,0,1.5-0.3,2.1-1c2.6-3.4,5.3-6.7,8-10
		c0.2-0.2,0.4-0.5,0.7-0.8c6.3,5.5,12.5,11,18.9,16.5c-3.2,2.1-6.3,4.2-9.4,6.2c-0.9,0.6-1.3,1.2-1.4,2.4c-0.7,11-1.6,22.1-2.3,33.1
		c-0.8,11.7-1.7,23.4-2.5,35.2c-0.8,10.6-1.5,21.3-2.3,31.9c-0.7,9.5-1.4,19-2,28.5c-0.1,1.8,0,3.8,0.4,5.6c0.7,3.4,3.1,5.5,6.6,5.6
		c5,0.2,9.9,0.2,14.9-0.1c1.3-0.1,2.7-1.3,3.7-2.3c2.4-2.4,3.3-5.6,3.6-8.8c1-10.1,2-20.1,2.9-30.2c0.3-2.6,0.5-5.3,0.7-8
		c1.6,0,3.1,0,4.8,0c0.1,2.6,0.2,5.2,0.4,7.8c0.5,7,1,14,1.6,21c0.3,2.9,0.7,5.9,1.5,8.7c1.2,4.6,4.2,7.6,8.7,9.1
		c0.2,0.1,0.4,0.2,0.7,0.3c-1.7,8.3-8.7,14.9-17.1,16c-2.2,0.3-4.5,0.5-6.8,0.5c-8.6,0.1-17.2,0.1-25.8,0c-2.5,0-5-0.5-7.4-1.2
		c-5.6-1.7-8.8-6-9-11.9c-0.1-3.9,0.3-7.7,0.5-11.6c0.6-9.2,1.2-18.3,1.8-27.5c0.6-9.1,1.2-18.1,1.8-27.2c0.6-8.9,1.2-17.8,1.8-26.7
		c0.6-9.1,1.2-18.2,1.8-27.3c0.6-8.7,1.2-17.4,1.7-26.1c0-0.2,0-0.5,0-0.8c-15.7,0-31.3,0-47,0c-5.9,43.9-11.7,87.7-17.7,131.8
		c15.8-6.3,31.4-12.5,47.1-18.8c0.4,1,0.8,2,1,3c0.1,0.3-0.3,0.9-0.7,1.1c-4.4,2.8-8.8,5.5-13.2,8.3c-10.5,6.8-20.7,13.9-30,22.3
		c-2.4,2.2-4.7,4.4-6.8,6.9c-2.1,2.4-3.9,5-5.9,7.7c-4.6-6.1-9.2-12.3-14-18.6c0.4-0.4,0.9-0.8,1.3-1.2c4.2-4.1,6.2-9.2,6.9-14.9
		c1.2-9.2,2.4-18.4,3.5-27.6c1.2-9.1,2.3-18.2,3.4-27.2c1.2-9.1,2.3-18.2,3.5-27.2c1.1-8.5,2.2-17,3.2-25.6c1.2-9,2.3-18.1,3.5-27.1
		c1-7.9,2-15.8,3-23.7c1.1-8.5,2.2-17,3.2-25.4c0.1-0.4,0.1-0.9,0.1-1.3c-2.4,0-4.7-0.1-7,0c-7.3,0.3-14.5,1.3-21.5,3.1
		c-0.4,0.1-1,0-1.3-0.3c-3.3-3.2-6.5-6.5-9.8-9.7c-0.1-0.1-0.1-0.2-0.2-0.4c0.5,0,1,0,1.5,0c36.2,0,72.5,0,108.7,0
		c1,0,1.8-0.3,2.5-1c4.8-4.9,9.7-9.7,14.5-14.5c0.3-0.3,0.5-0.7,0.8-1.2c7.3,8.1,14.3,15.9,21.5,23.9
		C288.5,86.1,257.6,86.1,226.6,86.1z"/>
	<path d="M222.9,168.4c9.4,8,17.8,16.5,24.1,26.7c3.5,5.6,4.5,11.6,1.8,17.8c-1.4,3.2-3.5,6-6,8.4c-0.7,0.7-1.6,1.2-2.5,1.7
		c-1.7,0.9-3.3,0.5-4.5-1.1c-1.6-2-2.2-4.4-2.6-6.9c-0.7-4.2-1.2-8.4-1.9-12.5c-1.8-10.7-5.1-20.8-10.1-30.4
		c-0.5-0.9-0.5-1.5,0.4-2.2C222.1,169.5,222.5,169,222.9,168.4z"/>
</g>
</svg>
