<?xml version="1.0" encoding="utf-8"?>
<!-- Generator: Adobe Illustrator 20.1.0, SVG Export Plug-In . SVG Version: 6.00 Build 0)  -->
<svg version="1.1" id="图层_1" xmlns="http://www.w3.org/2000/svg" xmlns:xlink="http://www.w3.org/1999/xlink" x="0px" y="0px"
	 viewBox="0 0 360 360" style="enable-background:new 0 0 360 360;" xml:space="preserve">
<style type="text/css">
	.st0{fill:#FFFFFF;}
</style>
<g>
	<path class="st0" d="M0.2,360.5c0-120.1,0-240.2,0-360.2c120.1,0,240.2,0,360.2,0c0,120.1,0,240.2,0,360.2
		C240.4,360.5,120.3,360.5,0.2,360.5z M300.9,233.4c-0.1,0.2-0.1,0.4-0.1,0.5c-0.7,8.5-1.2,17-2,25.5c-0.5,5.3-1.2,10.6-2.2,15.8
		c-0.7,3.7-2.1,7.3-4.9,10.1c-0.8,0.8-1.7,1.2-2.9,1.2c-39.3,0-78.6,0-118,0c-1.1,0-2.2,0-3.2,0.1c-4.1,0.2-7.2-1.9-8.5-5.8
		c-0.9-2.8-1.1-5.6-0.9-8.5c0.6-9.7,1.2-19.4,1.8-29.1c0.7-10.9,1.3-21.9,2-32.8c0.7-10.9,1.4-21.8,2.1-32.7
		c0.8-12.9,1.6-25.8,2.4-38.8c0-0.5,0.4-1,0.8-1.3c2.6-1.8,5.3-3.6,8-5.3c0.6-0.4,1.2-0.8,1.7-1.2c-5.5-5.5-11-11-16.5-16.5
		c-0.2,0.3-0.5,0.6-0.7,1c-2.3,3.2-4.6,6.5-6.8,9.7c-0.5,0.7-0.9,0.9-1.8,0.9c-19.2,0-38.4,0-57.6,0c-0.4,0-0.8,0-1.3-0.1
		c0.2-1.7,0.3-3.3,0.5-4.8c1.4-13.9,2.7-27.8,4.1-41.8c0.2-1.6,0.2-1.6,1.8-1.6c31.4,0,62.9,0,94.3,0c0.5,0,1,0,1.8,0
		c-6.9-7.3-13.5-14.3-20.1-21.3c-4.4,4.4-8.6,8.6-12.8,12.9c-0.9,1-1.9,1.4-3.2,1.4c-36.9,0-73.8,0-110.6,0c-0.5,0-1,0-1.8,0
		c3.6,3.6,6.9,6.9,10.3,10.2c0.2,0.2,0.9,0.2,1.3,0.1c6.4-1.6,12.8-2.7,19.4-3.1c1.8-0.1,3.6,0,5.5,0c0,0.3,0,0.5,0,0.7
		C82.2,84.4,81.6,90,81,95.6c-0.8,8.1-1.7,16.1-2.5,24.2c-0.9,8.2-1.7,16.4-2.5,24.6c-0.8,8-1.7,16.1-2.5,24.1
		c-0.8,7.3-1.5,14.6-2.3,21.9c-0.8,7.3-1.5,14.6-2.3,21.9c-0.8,7.3-1.5,14.5-2.3,21.8c-0.8,7.4-1.6,14.7-2.3,22.1
		c-0.6,6.2-2,12.3-4.7,18c-1,2.2-2.4,4.3-3.7,6.5c4.6,5.4,9.3,10.8,14,16.3c1.1-1.4,2-2.7,3.1-4c6-7.2,13-13.4,20.2-19.4
		c11.8-9.8,24.2-18.9,36.7-27.8c2.8-2,2.8-2,1.4-5.2c0,0-0.1-0.1-0.2-0.2c-18,9-35.9,18-54.1,27c4.7-44.8,9.4-89.5,14.1-134.1
		c20.9,0,41.6,0,62.3,0c0,0.5,0,0.9-0.1,1.2c-0.3,5.3-0.7,10.7-1,16c-0.7,10.6-1.4,21.2-2,31.8c-0.6,9.8-1.3,19.6-1.9,29.4
		c-0.6,9.3-1.2,18.7-1.8,28c-0.7,10.8-1.4,21.5-2.1,32.3c-0.2,4.2-0.6,8.4-0.3,12.6c0.5,6.7,4,11.4,10.6,13.3
		c2.5,0.7,5.1,1.2,7.6,1.2c43.1,0.1,86.2,0.1,129.2,0c2.9,0,5.9-0.3,8.8-0.8c3.8-0.6,7.4-1.6,10.6-4c4.5-3.4,7.2-8,9.8-12.9
		c-7.3-3.8-10.8-10.1-12.5-17.7c-1.9-8.3-2.5-16.7-2.7-25.1c0-1.8,0-3.6,0-5.5c-1.5,0-2.8,0-4,0
		C301.4,233.3,301.2,233.4,300.9,233.4z M97,165c0.2,0.4,0.4,0.6,0.6,0.9c9.1,13.6,16.1,28,18.2,44.5c0.4,2.7,1.1,5.4,2.6,7.8
		c1.4,2.2,3.3,2.6,5.3,1c1.5-1.2,2.8-2.7,4-4.3c4.2-5.8,5.2-12.1,2.7-18.8c-1.2-3.3-3.2-6.2-5.3-9.1c-6.2-8.2-13.8-15-21.8-21.5
		c-1.2-1-2.5-2-3.7-2.9C98.5,163.5,97.8,164.2,97,165z"/>
	<path d="M300.9,233.4c0.3,0,0.5-0.1,0.8-0.1c1.2,0,2.5,0,4,0c0,1.9,0,3.7,0,5.5c0.2,8.4,0.9,16.8,2.7,25.1
		c1.7,7.6,5.2,14,12.5,17.7c-2.5,4.9-5.3,9.5-9.8,12.9c-3.1,2.3-6.8,3.3-10.6,4c-2.9,0.5-5.9,0.8-8.8,0.8c-43.1,0-86.2,0.1-129.2,0
		c-2.6,0-5.2-0.5-7.6-1.2c-6.5-2-10.1-6.7-10.6-13.3c-0.3-4.2,0-8.4,0.3-12.6c0.6-10.8,1.4-21.5,2.1-32.3c0.6-9.3,1.2-18.7,1.8-28
		c0.6-9.8,1.3-19.6,1.9-29.4c0.7-10.6,1.4-21.2,2-31.8c0.3-5.3,0.7-10.7,1-16c0-0.4,0-0.8,0.1-1.2c-20.8,0-41.5,0-62.3,0
		C86.5,178,81.8,222.6,77,267.4c18.1-9.1,36.1-18,54.1-27c0.1,0.1,0.1,0.1,0.2,0.2c1.4,3.2,1.4,3.2-1.4,5.2
		c-12.5,8.9-24.9,18-36.7,27.8c-7.2,6-14.2,12.1-20.2,19.4c-1,1.3-2,2.6-3.1,4c-4.7-5.5-9.4-10.9-14-16.3c1.3-2.2,2.7-4.3,3.7-6.5
		c2.7-5.7,4.1-11.7,4.7-18c0.7-7.4,1.5-14.7,2.3-22.1c0.8-7.3,1.5-14.5,2.3-21.8c0.8-7.3,1.5-14.6,2.3-21.9
		c0.8-7.3,1.5-14.6,2.3-21.9c0.8-8,1.7-16.1,2.5-24.1c0.8-8.2,1.7-16.4,2.5-24.6c0.8-8.1,1.7-16.1,2.5-24.2
		c0.6-5.6,1.2-11.2,1.8-16.8c0-0.2,0-0.5,0-0.7c-1.9,0-3.7-0.1-5.5,0c-6.6,0.4-13,1.5-19.4,3.1c-0.4,0.1-1,0.1-1.3-0.1
		c-3.4-3.3-6.7-6.6-10.3-10.2c0.8,0,1.3,0,1.8,0c36.9,0,73.8,0,110.6,0c1.4,0,2.3-0.4,3.2-1.4c4.2-4.3,8.5-8.5,12.8-12.9
		c6.7,7.1,13.3,14.1,20.1,21.3c-0.8,0-1.3,0-1.8,0c-31.4,0-62.9,0-94.3,0c-1.7,0-1.7,0-1.8,1.6c-1.4,13.9-2.7,27.8-4.1,41.8
		c-0.2,1.5-0.3,3.1-0.5,4.8c0.5,0,0.9,0.1,1.3,0.1c19.2,0,38.4,0,57.6,0c0.8,0,1.3-0.3,1.8-0.9c2.2-3.3,4.5-6.5,6.8-9.7
		c0.2-0.4,0.5-0.7,0.7-1c5.5,5.5,10.9,10.9,16.5,16.5c-0.5,0.3-1.1,0.7-1.7,1.2c-2.7,1.8-5.3,3.5-8,5.3c-0.4,0.3-0.8,0.8-0.8,1.3
		c-0.8,12.9-1.6,25.8-2.4,38.8c-0.7,10.9-1.4,21.8-2.1,32.7c-0.7,10.9-1.3,21.9-2,32.8c-0.6,9.7-1.2,19.4-1.8,29.1
		c-0.2,2.9,0,5.8,0.9,8.5c1.3,3.9,4.4,6,8.5,5.8c1.1,0,2.2-0.1,3.2-0.1c39.3,0,78.6,0,118,0c1.2,0,2.1-0.4,2.9-1.2
		c2.8-2.8,4.2-6.4,4.9-10.1c1-5.2,1.7-10.5,2.2-15.8c0.8-8.5,1.3-17,2-25.5C300.8,233.7,300.8,233.6,300.9,233.4z"/>
	<path d="M97,165c0.8-0.8,1.5-1.5,2.4-2.4c1.2,1,2.5,1.9,3.7,2.9c8,6.4,15.6,13.2,21.8,21.5c2.1,2.8,4.1,5.7,5.3,9.1
		c2.5,6.8,1.5,13.1-2.7,18.8c-1.1,1.6-2.5,3.1-4,4.3c-2,1.6-3.9,1.2-5.3-1c-1.5-2.4-2.3-5.1-2.6-7.8c-2.1-16.5-9.1-30.9-18.2-44.5
		C97.4,165.6,97.2,165.4,97,165z"/>
</g>
</svg>
