<?xml version="1.0" encoding="utf-8"?>
<!-- Generator: Adobe Illustrator 20.1.0, SVG Export Plug-In . SVG Version: 6.00 Build 0)  -->
<svg version="1.1" id="图层_1" xmlns="http://www.w3.org/2000/svg" xmlns:xlink="http://www.w3.org/1999/xlink" x="0px" y="0px"
	 viewBox="0 0 360 360" style="enable-background:new 0 0 360 360;" xml:space="preserve">
<style type="text/css">
	.st0{fill:#FFFFFF;}
</style>
<g>
	<path class="st0" d="M0.2,360.5c0-120.1,0-240.2,0-360.2c120.1,0,240.2,0,360.2,0c0,120.1,0,240.2,0,360.2
		C240.4,360.5,120.3,360.5,0.2,360.5z M299.7,248.7c0,0.2-0.1,0.4-0.1,0.6c-0.7,8.7-1.2,17.4-2,26.1c-0.3,3.1-0.8,6.3-1.7,9.3
		c-1.3,4.6-4.2,6.4-8.9,6.4c-13.6,0-27.3,0-40.9,0c-1,0-2-0.1-3-0.2c-6.4-0.9-9.9-5.2-9.3-11.7c0.6-7,1.4-14.1,2.1-21.1
		c1.2-12.2,2.5-24.5,3.8-36.7c0.1-0.5,0.4-1.1,0.8-1.4c2.9-2,5.8-3.9,8.8-5.9c0.3-0.2,0.7-0.5,0.9-0.7c-5.5-5.5-11-11-16.5-16.5
		c-0.2,0.2-0.5,0.5-0.8,0.8c-3.3,3.3-6.7,6.7-10,10c-0.6,0.7-1.3,0.9-2.2,0.9c-29.7,0-59.4,0-89,0c-0.5,0-0.9,0-1.5,0
		c0-0.3,0-0.4,0.1-0.6c1.8-8.2,3.6-16.5,5.4-24.7c0.4-2,0-1.7,2.1-1.7c57.7,0,115.4,0,173.2,0c0.5,0,1.1,0,1.9,0
		c-6.8-7.3-13.4-14.2-20.1-21.3c-0.4,0.4-0.7,0.7-1,1c-4,4-8.1,8.1-12.1,12.2c-0.8,0.8-1.5,1.1-2.6,1.1c-74.6,0-149.2,0-223.8,0
		c-0.3,0-0.6,0-1,0c-0.3,0-0.6,0.1-1,0.1c3.5,3.5,6.8,6.8,10.1,10c0.3,0.3,0.9,0.3,1.4,0.2c8.3-2.1,16.6-3.2,25.1-3.2
		c10.1-0.1,20.2,0,30.2,0c0.4,0,0.8,0,1.3,0c0,0.4,0,0.6-0.1,0.8c-1.5,6.9-3.1,13.9-4.6,20.8c-4.9,22.3-9.9,44.7-14.8,67
		c-1,4.7-2.6,9-6.1,12.5c-0.9,0.9-1.6,1.8-2.5,2.8c3.4,6.5,6.9,13.1,10.4,19.7c1.5-0.9,2.8-1.8,4.1-2.5c6.2-3.3,12.8-5.7,19.5-7.9
		c19.5-6.6,39.5-11.7,59.5-16.8c5.8-1.5,11.6-2.9,17.4-4.3c0.3-0.1,0.8-0.5,0.8-0.7c0.1-1,0-2,0-3.1c-29.9,3.9-59.6,7.8-89.5,11.8
		c0.1-0.5,0.1-0.9,0.2-1.3c4.9-21.1,9.8-42.2,14.7-63.4c0.2-1.1,0.7-1.3,1.7-1.3c30.5,0,61,0,91.4,0c0.4,0,0.9,0,1.4,0
		c-0.5,4.6-0.9,9.1-1.3,13.5c-0.8,7.5-1.5,15-2.3,22.5c-0.8,8.3-1.7,16.6-2.5,24.9c-0.4,4.3-0.9,8.6-0.8,12.9
		c0.2,7.6,4.5,12.9,11.7,14.6c2.4,0.6,5,0.9,7.5,1c19.3,0.1,38.6,0,57.8,0c2.1,0,4.2-0.1,6.4-0.2c6.7-0.3,12.2-2.9,15.9-8.8
		c1.5-2.4,3-4.9,4.4-7.3c-1.9-1.1-3.6-1.9-5-3c-4-3.1-6-7.4-7.2-12.1c-1.5-6.2-2.2-12.5-2.7-18.8c-0.2-2.1-0.3-4.2-0.4-6.3
		C302.7,248.7,301.2,248.7,299.7,248.7z M151.2,226.3c7,3.3,12.7,8,17.4,14c3,3.8,5.4,8,7.6,12.3c1.4,2.8,3,5.6,5.4,7.7
		c2.8,2.4,5.3,2.2,7.3-0.9c1.3-2.1,2.4-4.4,3.1-6.7c1.6-5.2,0.8-10.1-3.1-14c-2-2-4.3-3.7-6.8-5.1c-7.1-4.2-14.9-7-22.6-9.7
		c-2.3-0.8-4.7-1.6-7.2-2.4C152,223.2,151.6,224.7,151.2,226.3z"/>
	<path d="M299.7,248.7c1.6,0,3.1,0,4.7,0c0.1,2.1,0.3,4.2,0.4,6.3c0.5,6.3,1.1,12.7,2.7,18.8c1.2,4.8,3.2,9.1,7.2,12.1
		c1.5,1.1,3.2,1.9,5,3c-1.4,2.3-2.9,4.8-4.4,7.3c-3.7,5.8-9.1,8.5-15.9,8.8c-2.1,0.1-4.2,0.2-6.4,0.2c-19.3,0-38.6,0-57.8,0
		c-2.5,0-5-0.4-7.5-1c-7.2-1.8-11.5-7.1-11.7-14.6c-0.1-4.3,0.4-8.6,0.8-12.9c0.8-8.3,1.7-16.6,2.5-24.9c0.8-7.5,1.5-15,2.3-22.5
		c0.5-4.4,0.9-8.9,1.3-13.5c-0.5,0-1,0-1.4,0c-30.5,0-61,0-91.4,0c-1,0-1.4,0.2-1.7,1.3c-4.9,21.1-9.8,42.2-14.7,63.4
		c-0.1,0.3-0.1,0.7-0.2,1.3c29.8-3.9,59.5-7.8,89.5-11.8c0,1.1,0.1,2.1,0,3.1c0,0.3-0.5,0.6-0.8,0.7c-5.8,1.5-11.6,2.8-17.4,4.3
		c-20,5-39.9,10.2-59.5,16.8c-6.7,2.2-13.3,4.6-19.5,7.9c-1.4,0.7-2.7,1.6-4.1,2.5c-3.5-6.6-7-13.2-10.4-19.7c0.9-1,1.7-1.9,2.5-2.8
		c3.5-3.5,5.1-7.8,6.1-12.5c4.8-22.4,9.8-44.7,14.8-67c1.5-6.9,3.1-13.9,4.6-20.8c0-0.2,0-0.4,0.1-0.8c-0.5,0-0.9,0-1.3,0
		c-10.1,0-20.2-0.1-30.2,0c-8.5,0.1-16.9,1.1-25.1,3.2c-0.4,0.1-1.1,0.1-1.4-0.2c-3.3-3.3-6.6-6.6-10.1-10c0.5-0.1,0.7-0.1,1-0.1
		c0.3,0,0.6,0,1,0c74.6,0,149.2,0,223.8,0c1.1,0,1.8-0.3,2.6-1.1c4-4.1,8.1-8.1,12.1-12.2c0.3-0.3,0.6-0.6,1-1
		c6.6,7,13.2,14,20.1,21.3c-0.8,0-1.4,0-1.9,0c-57.7,0-115.4,0-173.2,0c-2.1,0-1.7-0.3-2.1,1.7c-1.8,8.2-3.6,16.5-5.4,24.7
		c0,0.2,0,0.3-0.1,0.6c0.5,0,1,0,1.5,0c29.7,0,59.4,0,89,0c0.9,0,1.6-0.2,2.2-0.9c3.3-3.4,6.7-6.7,10-10c0.3-0.3,0.6-0.5,0.8-0.8
		c5.5,5.5,10.9,10.9,16.5,16.5c-0.3,0.2-0.6,0.4-0.9,0.7c-2.9,2-5.9,3.9-8.8,5.9c-0.4,0.3-0.8,0.9-0.8,1.4
		c-1.3,12.2-2.6,24.5-3.8,36.7c-0.7,7-1.4,14.1-2.1,21.1c-0.6,6.4,2.9,10.8,9.3,11.7c1,0.1,2,0.2,3,0.2c13.6,0,27.3,0,40.9,0
		c4.8,0,7.6-1.8,8.9-6.4c0.9-3,1.4-6.2,1.7-9.3c0.8-8.7,1.4-17.4,2-26.1C299.6,249.1,299.6,249,299.7,248.7z"/>
	<path d="M151.2,226.3c0.4-1.6,0.8-3.1,1.2-4.8c2.4,0.8,4.8,1.6,7.2,2.4c7.8,2.7,15.5,5.5,22.6,9.7c2.4,1.4,4.8,3.1,6.8,5.1
		c3.9,3.9,4.8,8.8,3.1,14c-0.7,2.3-1.8,4.6-3.1,6.7c-2,3.1-4.6,3.3-7.3,0.9c-2.4-2.1-4-4.9-5.4-7.7c-2.2-4.3-4.6-8.5-7.6-12.3
		C163.9,234.3,158.2,229.6,151.2,226.3z"/>
</g>
</svg>
