<?xml version="1.0" encoding="utf-8"?>
<!-- Generator: Adobe Illustrator 20.1.0, SVG Export Plug-In . SVG Version: 6.00 Build 0)  -->
<svg version="1.1" id="图层_1" xmlns="http://www.w3.org/2000/svg" xmlns:xlink="http://www.w3.org/1999/xlink" x="0px" y="0px"
	 viewBox="0 0 360 360" style="enable-background:new 0 0 360 360;" xml:space="preserve">
<style type="text/css">
	.st0{fill:#FFFFFF;}
</style>
<g>
	<path class="st0" d="M-0.1,360.1c0-120.1,0-240.2,0-360.2c120.1,0,240.2,0,360.2,0c0,120.1,0,240.2,0,360.2
		C240,360.1,120,360.1-0.1,360.1z M143.9,117.6c-0.1,0.2-0.1,0.3-0.1,0.4c0.3,11.8,0.6,23.6,0.7,35.4c0.2,11.3,0.2,22.6,0.3,33.9
		c0.1,11.3,0.1,22.6,0.1,33.8c0,19,0.1,38.1,0.1,57.1c0,1.4,0,2.7,0.1,4.1c0.8,9.9,5.6,17,14.9,20.7c5.8,2.3,11.9,3,18.1,3.1
		c37.2,0,74.4,0,111.6,0c3.7,0,7.4-0.3,11.1-0.9c6.3-1,12-3.4,16.5-8.1c2.7-2.8,4.5-6.1,5.6-9.8c-0.5-0.2-1-0.4-1.4-0.6
		c-6.2-2.5-10-7-11.5-13.4c-1.6-7.2-2.1-14.5-2.3-21.8c-0.1-2.6,0-5.2,0-7.8c-2.2,0-4.1,0-6,0c0,0.4,0,0.7,0,0.9
		c-0.2,8.5-0.2,17-0.5,25.5c-0.1,4.3-0.4,8.6-1,12.8c-1,6.9-5,10.2-12,10.2c-36,0-71.9,0-107.9,0c-2.1,0-4.3-0.2-6.4-0.6
		c-6.2-1.2-10.7-4.5-12.5-10.8c-0.6-2.2-1-4.5-1-6.7c-0.1-45,0-90,0-135c0-0.6,0.3-1.4,0.8-1.9c2.4-2.5,4.9-4.9,7.5-7.5
		C160.3,126.2,152.2,121.9,143.9,117.6z M90.8,116.3c0,0.6,0,0.9,0,1.3c0.2,5.1,0.6,10.1,0.7,15.2c0.4,12.2,0.9,24.4,1,36.5
		c0.1,10.4-0.2,20.9-0.5,31.3c-0.3,10.3-0.9,20.5-2.6,30.7c-2.3,13.7-6.4,26.8-13,39c-7,13.1-15.8,24.9-25.3,36.4
		c-2.1,2.5-4.2,5-6.4,7.5c0.8,1.2,1.6,2.4,2.4,3.5c0.2-0.2,0.4-0.3,0.5-0.4c9.7-8.2,18.9-16.9,27.3-26.4
		c7.5-8.5,14.4-17.6,19.4-27.9c9.4-19.4,13.9-40,14.1-61.5c0.1-21.7,0-43.4,0-65.2c0-1,0.2-1.6,0.9-2.3c2-1.9,4-4,6-5.9
		c0.4-0.4,1-0.8,1.7-1.3C108,123.4,99.5,119.9,90.8,116.3z M137.8,56.3c0.3,0.4,0.6,0.6,0.9,0.9C145,63.8,151,70.7,156.4,78
		c5.9,8,10.8,16.5,13.5,26.1c0.8,2.7,2.1,5.3,3.7,7.6c1.9,2.9,4.5,3,6.8,0.5c1.8-2,3.4-4.2,4.7-6.5c4.8-8.9,4-16.9-2.7-24.5
		c-2.7-3.1-5.8-5.9-9.1-8.5c-8-6.3-16.8-11.3-25.7-16.2c-2.4-1.3-4.8-2.6-7.3-3.9C139.4,53.9,138.7,55,137.8,56.3z M95.6,50.4
		C83.1,77.6,64.4,100.2,45,122.2c1.1,1.1,2.3,2.3,3.5,3.5c0.2-0.2,0.5-0.4,0.8-0.7c2-1.7,4-3.4,6-5.2C66,110.6,76.2,101,85.9,90.7
		c6.4-6.8,12.9-13.4,20.5-18.9c2.5-1.8,5.2-3.4,7.8-5.1C108,61.3,101.8,55.9,95.6,50.4z"/>
	<path d="M143.9,117.6c8.2,4.3,16.4,8.6,24.7,12.9c-2.6,2.6-5.1,5-7.5,7.5c-0.4,0.5-0.8,1.2-0.8,1.9c0,45,0,90,0,135
		c0,2.2,0.4,4.6,1,6.7c1.8,6.3,6.3,9.6,12.5,10.8c2.1,0.4,4.3,0.6,6.4,0.6c36,0,71.9,0,107.9,0c7,0,11-3.2,12-10.2
		c0.6-4.2,0.9-8.5,1-12.8c0.3-8.5,0.4-17,0.5-25.5c0-0.3,0-0.6,0-0.9c1.9,0,3.9,0,6,0c0,2.6-0.1,5.2,0,7.8
		c0.2,7.3,0.7,14.6,2.3,21.8c1.5,6.5,5.3,11,11.5,13.4c0.4,0.2,0.9,0.3,1.4,0.6c-1.1,3.7-3,7-5.6,9.8c-4.5,4.7-10.2,7.1-16.5,8.1
		c-3.7,0.6-7.4,0.9-11.1,0.9c-37.2,0.1-74.4,0.1-111.6,0c-6.2,0-12.3-0.7-18.1-3.1c-9.4-3.7-14.1-10.8-14.9-20.7
		c-0.1-1.4-0.1-2.7-0.1-4.1c0-19-0.1-38.1-0.1-57.1c0-11.3,0-22.6-0.1-33.8c-0.1-11.3-0.1-22.6-0.3-33.9
		c-0.2-11.8-0.5-23.6-0.7-35.4C143.8,117.9,143.8,117.8,143.9,117.6z"/>
	<path d="M90.8,116.3c8.7,3.5,17.2,7,26.2,10.7c-0.7,0.5-1.2,0.8-1.7,1.3c-2,2-3.9,4-6,5.9c-0.7,0.7-0.9,1.4-0.9,2.3
		c0,21.7,0.1,43.4,0,65.2c-0.1,21.5-4.7,42.1-14.1,61.5c-5,10.3-11.9,19.3-19.4,27.9c-8.4,9.5-17.6,18.2-27.3,26.4
		c-0.1,0.1-0.3,0.2-0.5,0.4c-0.8-1.2-1.6-2.3-2.4-3.5c2.1-2.5,4.3-5,6.4-7.5c9.4-11.4,18.3-23.3,25.3-36.4c6.6-12.3,10.7-25.4,13-39
		c1.7-10.2,2.3-20.4,2.6-30.7c0.3-10.4,0.6-20.9,0.5-31.3c-0.1-12.2-0.6-24.4-1-36.5c-0.2-5.1-0.5-10.1-0.7-15.2
		C90.8,117.3,90.8,116.9,90.8,116.3z"/>
	<path d="M137.8,56.3c0.8-1.2,1.6-2.4,2.4-3.6c2.5,1.3,4.9,2.6,7.3,3.9c8.9,4.9,17.7,9.9,25.7,16.2c3.2,2.6,6.4,5.4,9.1,8.5
		c6.7,7.6,7.5,15.6,2.7,24.5c-1.3,2.3-2.9,4.5-4.7,6.5c-2.3,2.5-4.9,2.4-6.8-0.5c-1.5-2.3-2.9-4.9-3.7-7.6
		c-2.7-9.7-7.7-18.1-13.5-26.1c-5.4-7.4-11.4-14.2-17.7-20.8C138.4,56.9,138.2,56.6,137.8,56.3z"/>
	<path d="M95.6,50.4c6.3,5.5,12.5,10.9,18.7,16.4c-2.7,1.7-5.3,3.3-7.8,5.1c-7.6,5.5-14.2,12.1-20.5,18.9
		C76.2,101,66,110.6,55.3,119.9c-2,1.7-4,3.4-6,5.2c-0.3,0.3-0.6,0.5-0.8,0.7c-1.2-1.2-2.4-2.4-3.5-3.5
		C64.4,100.2,83.1,77.6,95.6,50.4z"/>
</g>
</svg>
