<?xml version="1.0" encoding="utf-8"?>
<!-- Generator: Adobe Illustrator 20.1.0, SVG Export Plug-In . SVG Version: 6.00 Build 0)  -->
<svg version="1.1" id="图层_1" xmlns="http://www.w3.org/2000/svg" xmlns:xlink="http://www.w3.org/1999/xlink" x="0px" y="0px"
	 viewBox="0 0 360 360" style="enable-background:new 0 0 360 360;" xml:space="preserve">
<style type="text/css">
	.st0{fill:#FFFFFF;}
</style>
<g>
	<path class="st0" d="M0.2,360.5c0-120.1,0-240.2,0-360.2c120.1,0,240.2,0,360.2,0c0,120.1,0,240.2,0,360.2
		C240.4,360.5,120.3,360.5,0.2,360.5z M189,252.2c0-11.1,0-21.9,0-33c37.6,0,75.2,0,112.6,0c-7.4-7.4-14.8-14.8-22.3-22.3
		c-4.5,4.5-9.2,9.1-13.8,13.8c-0.9,1-1.9,1.4-3.2,1.4c-65.6,0-131.1,0-196.7,0c-0.5,0-1,0-1.8,0c3.6,3.6,7,6.9,10.3,10.2
		c0.3,0.2,0.9,0.3,1.3,0.2c8.6-2.2,17.4-3.3,26.2-3.3c23,0,46.1,0,69.1,0c0.5,0,0.9,0,1.5,0c0,11,0,21.9,0,33c-29.4,0-58.7,0-88.2,0
		c3.5,3.5,6.8,6.8,10.2,10.1c0.3,0.3,0.9,0.3,1.4,0.2c8.1-2.1,16.4-3.2,24.8-3.2c16.9-0.1,33.8,0,50.6,0c0.4,0,0.8,0,1.3,0.1
		c0,13,0,25.8,0,38.8c-41.6,0-83,0-124.5,0c0,0.2,0,0.3,0.1,0.3c3.3,3.3,6.5,6.6,9.9,9.8c0.3,0.3,0.9,0.3,1.3,0.2
		c9.2-2.4,18.5-3.3,28-3.3c76.2,0,152.5,0,228.7,0c0.5,0,0.9,0,1.2,0c-8.2-8.2-16.4-16.4-24.6-24.6c-5.5,5.5-11.1,11.1-16.7,16.7
		c-0.4,0.4-1.2,0.8-1.8,0.8c-27.8,0-55.7,0-83.5,0c-0.4,0-0.8,0-1.3-0.1c0-13,0-25.8,0-38.8c29.8,0,59.5,0,89.1,0
		c-7-7-14-14-21.1-21.1c-4.3,4.3-8.8,8.8-13.2,13.2c-0.4,0.4-1.2,0.8-1.9,0.8c-17.2,0-34.5,0-51.7,0
		C189.9,252.2,189.5,252.2,189,252.2z"/>
	<path d="M189,252.2c0.5,0,0.9,0,1.3,0c17.2,0,34.5,0,51.7,0c0.6,0,1.4-0.3,1.9-0.8c4.5-4.4,8.9-8.9,13.2-13.2c7,7,14,14,21.1,21.1
		c-29.6,0-59.3,0-89.1,0c0,13,0,25.8,0,38.8c0.4,0,0.8,0.1,1.3,0.1c27.8,0,55.7,0,83.5,0c0.6,0,1.4-0.3,1.8-0.8
		c5.6-5.6,11.2-11.2,16.7-16.7c8.2,8.2,16.4,16.4,24.6,24.6c-0.3,0-0.7,0-1.2,0c-76.2,0-152.5,0-228.7,0c-9.5,0-18.8,0.9-28,3.3
		c-0.4,0.1-1,0-1.3-0.2c-3.3-3.2-6.6-6.5-9.9-9.8c0,0,0-0.1-0.1-0.3c41.5,0,82.9,0,124.5,0c0-13,0-25.8,0-38.8
		c-0.4,0-0.8-0.1-1.3-0.1c-16.9,0-33.8-0.1-50.6,0c-8.4,0-16.7,1.1-24.8,3.2c-0.4,0.1-1.1,0.1-1.4-0.2c-3.3-3.3-6.6-6.6-10.2-10.1
		c29.6,0,58.9,0,88.2,0c0-11.1,0-22,0-33c-0.5,0-1,0-1.5,0c-23,0-46.1,0-69.1,0c-8.9,0-17.6,1.1-26.2,3.3c-0.4,0.1-1,0.1-1.3-0.2
		c-3.4-3.3-6.7-6.6-10.3-10.2c0.9,0,1.3,0,1.8,0c65.6,0,131.1,0,196.7,0c1.4,0,2.3-0.4,3.2-1.4c4.6-4.7,9.2-9.3,13.8-13.8
		c7.4,7.4,14.8,14.8,22.3,22.3c-37.4,0-75,0-112.6,0C189,230.3,189,241.1,189,252.2z"/>
</g>
</svg>
