<?xml version="1.0" encoding="utf-8"?>
<!-- Generator: Adobe Illustrator 20.1.0, SVG Export Plug-In . SVG Version: 6.00 Build 0)  -->
<svg version="1.1" id="图层_1" xmlns="http://www.w3.org/2000/svg" xmlns:xlink="http://www.w3.org/1999/xlink" x="0px" y="0px"
	 viewBox="0 0 360 360" style="enable-background:new 0 0 360 360;" xml:space="preserve">
<style type="text/css">
	.st0{fill:#FFFFFF;}
</style>
<g>
	<path class="st0" d="M-0.2,360.2c0-120.1,0-240.2,0-360.2C119.8,0,239.9,0,360,0c0,120.1,0,240.2,0,360.2
		C239.9,360.2,119.8,360.2-0.2,360.2z M92.9,149.5c-14.5,0-28.9,0-43.5,0c3.6,3.6,6.9,6.9,10.3,10.2c0.2,0.2,0.8,0.2,1.2,0.1
		c2.2-0.5,4.4-1,6.7-1.5c6.9-1.4,13.9-1.8,21-1.9c1.5,0,2.9,0,4.5,0c0,0.5,0.1,0.9,0.1,1.2c0,27.5,0,55,0,82.4
		c0,0.9-0.2,1.2-1.1,1.5c-16.1,4.1-32.2,8.2-48.3,12.3c-0.4,0.1-0.8,0.2-1.3,0.4c4.4,7.6,8.7,14.9,12.8,22.1c2.4-1.9,4.7-4,7.2-5.7
		c8.4-5.8,17.7-10.1,26.9-14.4c21.5-9.8,43.5-18.3,65.6-26.6c2.2-0.8,4.3-1.6,6.6-2.5c-0.4-1.6-0.8-3.2-1.2-4.8
		c-16.5,4.7-32.9,9.4-49.4,14.1c0-26.8,0-53.4,0-80.1c14.1,0,28.1,0,42.3,0c-6-6.8-11.8-13.4-17.7-20c-4.1,3.8-8.1,7.3-12,11.1
		c-1.5,1.4-3,2.1-5.1,2c-2.5-0.2-5,0-7.6,0c0-25.2,0-50.2,0-75.4c17.2,0,34.4,0,51.8,0c-6.8-7.2-13.4-14.2-20.2-21.4
		c-0.3,0.4-0.6,0.8-0.9,1.1c-4.1,4.1-8.2,8.1-12.2,12.2c-0.7,0.7-1.3,1-2.3,1c-26.5,0-53,0-79.6,0c-0.4,0-0.9,0-1.6,0
		c3.6,3.6,6.9,6.9,10.3,10.2c0.3,0.3,0.9,0.3,1.3,0.2c11.6-3.1,23.4-3.5,35.2-3.3c0.1,0,0.2,0.1,0.4,0.1
		C92.9,99.3,92.9,124.3,92.9,149.5z"/>
	<path d="M92.9,149.5c0-25.2,0-50.2,0-75.2c-0.1-0.1-0.2-0.1-0.4-0.1c-11.9-0.2-23.7,0.1-35.2,3.3c-0.4,0.1-1,0-1.3-0.2
		c-3.4-3.3-6.7-6.6-10.3-10.2c0.7,0,1.2,0,1.6,0c26.5,0,53,0,79.6,0c1,0,1.6-0.3,2.3-1c4-4.1,8.1-8.2,12.2-12.2
		c0.3-0.3,0.5-0.7,0.9-1.1c6.8,7.2,13.4,14.2,20.2,21.4c-17.4,0-34.6,0-51.8,0c0,25.2,0,50.2,0,75.4c2.5,0,5.1-0.1,7.6,0
		c2.1,0.2,3.6-0.5,5.1-2c3.9-3.7,7.9-7.3,12-11.1c5.8,6.6,11.7,13.2,17.7,20c-14.2,0-28.2,0-42.3,0c0,26.7,0,53.3,0,80.1
		c16.4-4.7,32.9-9.4,49.4-14.1c0.4,1.6,0.8,3.1,1.2,4.8c-2.2,0.8-4.4,1.6-6.6,2.5c-22.1,8.3-44.1,16.8-65.6,26.6
		c-9.3,4.2-18.5,8.6-26.9,14.4c-2.5,1.7-4.8,3.8-7.2,5.7c-4.1-7.1-8.4-14.5-12.8-22.1c0.5-0.2,0.9-0.3,1.3-0.4
		c16.1-4.1,32.2-8.2,48.3-12.3c0.9-0.2,1.1-0.6,1.1-1.5c0-27.5,0-55,0-82.4c0-0.4,0-0.7-0.1-1.2c-1.5,0-3,0-4.5,0
		c-7,0.1-14.1,0.5-21,1.9c-2.2,0.4-4.4,1-6.7,1.5c-0.4,0.1-0.9,0.1-1.2-0.1c-3.4-3.3-6.7-6.6-10.3-10.2
		C64.1,149.5,78.5,149.5,92.9,149.5z"/>
</g>
</svg>
