<?xml version="1.0" encoding="utf-8"?>
<!-- Generator: Adobe Illustrator 20.1.0, SVG Export Plug-In . SVG Version: 6.00 Build 0)  -->
<svg version="1.1" id="图层_1" xmlns="http://www.w3.org/2000/svg" xmlns:xlink="http://www.w3.org/1999/xlink" x="0px" y="0px"
	 viewBox="0 0 360 360" style="enable-background:new 0 0 360 360;" xml:space="preserve">
<style type="text/css">
	.st0{fill:#FFFFFF;}
</style>
<g>
	<path class="st0" d="M0.2,360.5c0-120.1,0-240.2,0-360.2c120.1,0,240.2,0,360.2,0c0,120.1,0,240.2,0,360.2
		C240.4,360.5,120.3,360.5,0.2,360.5z M240.8,82.5c0-0.6,0-1,0-1.5c0-4.8,0-9.5,0-14.3c0-2.2-0.6-4.6,0.2-6.4
		c0.8-1.9,2.9-3.2,4.4-4.8c1.2-1.2,2.4-2.4,3.7-3.6c-8.4-3.6-16.6-7.1-24.8-10.6c0.4,13.8,0.8,27.4,1.2,41.2c-16.3,0-32.2,0-48.5,0
		c3.6,3.6,6.9,6.9,10.3,10.3c0.2,0.2,0.8,0.2,1.2,0.1c4.4-0.8,8.8-1.8,13.3-2.4c7.5-1.1,15-0.9,22.5-0.9c0.3,0,0.6,0.1,0.9,0.1
		c0,14.9,0,29.7,0,44.7c-14.1,0-28.1,0-42.4,0c3.6,3.5,6.9,6.9,10.3,10.2c0.2,0.2,0.8,0.3,1.2,0.2c8.6-2.2,17.3-3.2,26.1-3.3
		c1.6,0,3.2,0,4.9,0c0,14.2,0,28.2,0,42.4c-17.2,0-34.4,0-51.8,0c3.6,3.6,6.9,6.9,10.3,10.3c0.2,0.2,0.9,0.2,1.3,0.1
		c6.3-1.6,12.7-2.7,19.2-3c6.8-0.2,13.6-0.2,20.4-0.3c0.2,0,0.4,0.1,0.9,0.1c-0.4,41.1-0.8,82.2-1.2,123.4c0.3-0.2,0.7-0.4,1-0.6
		c5.1-3.1,10.2-6.1,15.3-9.2c0.9-0.5,1.2-1.1,1.2-2.2c-0.4-13.6-1-27.2-1.1-40.9c-0.2-23.1-0.1-46.2-0.1-69.4c0-0.4,0-0.9,0-1.3
		c16.5,0,32.9,0,49.4,0c0,1.6,0,3.1,0,4.6c0,12.6-0.1,25.3-1.2,37.9c-0.3,3.9-0.8,7.9-2.3,11.6c-1.8,4.5-4.2,6.3-9.1,6.1
		c-5.6-0.2-11.2-0.8-16.7-1.3c-3.1-0.3-6.2-0.8-9.5-1.3c0,1.2,0.1,2.4,0,3.5c-0.1,0.9,0.2,1.2,1.1,1.6c3.9,1.4,7.8,2.7,11.5,4.5
		c6.2,3,11.2,7.4,14.4,13.6c0.5,0.9,0.9,1.9,1.4,2.8c3.9-1.6,7.5-3.5,10.8-5.9c7-5.1,11.4-11.9,12.5-20.6c0.7-5.8,1.5-11.6,1.9-17.4
		c0.8-11.6,1.3-23.2,1.8-34.8c0.1-1.9,0.5-3.2,2.1-4.3c1.8-1.2,3.4-2.8,5.1-4.2c-5.2-4.8-10.3-9.5-15.4-14.2
		c-2.9,3.3-5.8,6.5-8.7,9.8c-0.6,0.6-1.1,0.9-1.9,0.9c-15.2,0-30.5,0-45.7,0c-0.4,0-0.9,0-1.3,0c0-14.2,0-28.2,0-42.4
		c21.2,0,42.2,0,63.6,0c-6-6.4-11.9-12.7-17.7-18.9c-3.7,3.7-7.4,7.3-11,11c-0.6,0.6-1.1,0.8-2,0.8c-10.6,0-21.1,0-31.7,0
		c-0.4,0-0.8,0-1.2-0.1c0-14.9,0-29.7,0-44.7c23.1,0,46.1,0,69.4,0c-6-6.4-11.8-12.6-17.7-18.9c-0.4,0.4-0.7,0.6-0.9,0.9
		c-3.4,3.4-6.7,6.7-10.1,10.1c-0.6,0.6-1.2,0.8-2,0.8c-12.4,0-24.9,0-37.3,0C241.8,82.5,241.4,82.5,240.8,82.5z"/>
	<path d="M240.8,82.5c0.6,0,1.1,0,1.5,0c12.4,0,24.9,0,37.3,0c0.8,0,1.4-0.2,2-0.8c3.3-3.4,6.7-6.7,10.1-10.1
		c0.3-0.3,0.6-0.5,0.9-0.9c5.9,6.2,11.7,12.4,17.7,18.9c-23.3,0-46.3,0-69.4,0c0,15,0,29.8,0,44.7c0.5,0,0.8,0.1,1.2,0.1
		c10.6,0,21.1,0,31.7,0c0.8,0,1.4-0.3,2-0.8c3.6-3.6,7.2-7.2,11-11c5.9,6.3,11.7,12.5,17.7,18.9c-21.4,0-42.4,0-63.6,0
		c0,14.2,0,28.2,0,42.4c0.5,0,0.9,0,1.3,0c15.2,0,30.5,0,45.7,0c0.8,0,1.4-0.2,1.9-0.9c2.8-3.3,5.7-6.5,8.7-9.8
		c5.1,4.7,10.2,9.4,15.4,14.2c-1.7,1.5-3.3,3-5.1,4.2c-1.6,1.1-2,2.4-2.1,4.3c-0.5,11.6-1.1,23.2-1.8,34.8
		c-0.4,5.8-1.2,11.6-1.9,17.4c-1.1,8.7-5.4,15.5-12.5,20.6c-3.3,2.4-6.9,4.3-10.8,5.9c-0.5-1-0.9-1.9-1.4-2.8
		c-3.2-6.2-8.2-10.6-14.4-13.6c-3.7-1.8-7.6-3.1-11.5-4.5c-0.9-0.3-1.2-0.7-1.1-1.6c0.1-1.1,0-2.3,0-3.5c3.3,0.4,6.4,1,9.5,1.3
		c5.6,0.5,11.1,1.1,16.7,1.3c4.9,0.2,7.2-1.5,9.1-6.1c1.5-3.7,2-7.6,2.3-11.6c1.1-12.6,1.2-25.2,1.2-37.9c0-1.5,0-3,0-4.6
		c-16.5,0-32.9,0-49.4,0c0,0.5,0,0.9,0,1.3c0,23.1-0.1,46.2,0.1,69.4c0.1,13.6,0.7,27.2,1.1,40.9c0,1-0.2,1.6-1.2,2.2
		c-5.1,3-10.2,6.1-15.3,9.2c-0.3,0.2-0.7,0.4-1,0.6c0.4-41.2,0.8-82.3,1.2-123.4c-0.5-0.1-0.7-0.2-0.9-0.1c-6.8,0.1-13.6,0-20.4,0.3
		c-6.5,0.2-12.9,1.4-19.2,3c-0.4,0.1-1.1,0.1-1.3-0.1c-3.4-3.3-6.7-6.7-10.3-10.3c17.4,0,34.6,0,51.8,0c0-14.2,0-28.2,0-42.4
		c-1.6,0-3.3,0-4.9,0c-8.8,0.1-17.5,1.1-26.1,3.3c-0.4,0.1-0.9,0-1.2-0.2c-3.4-3.3-6.7-6.6-10.3-10.2c14.3,0,28.3,0,42.4,0
		c0-15,0-29.8,0-44.7c-0.3,0-0.6-0.1-0.9-0.1c-7.5,0-15-0.2-22.5,0.9c-4.5,0.6-8.9,1.6-13.3,2.4c-0.4,0.1-1,0.1-1.2-0.1
		c-3.4-3.3-6.7-6.7-10.3-10.3c16.2,0,32.2,0,48.5,0c-0.4-13.8-0.8-27.4-1.2-41.2c8.2,3.5,16.4,7,24.8,10.6c-1.3,1.3-2.5,2.5-3.7,3.6
		c-1.5,1.6-3.6,2.9-4.4,4.8c-0.8,1.8-0.2,4.2-0.2,6.4c0,4.8,0,9.5,0,14.3C240.8,81.5,240.8,81.9,240.8,82.5z"/>
</g>
</svg>
