<?xml version="1.0" encoding="utf-8"?>
<!-- Generator: Adobe Illustrator 20.1.0, SVG Export Plug-In . SVG Version: 6.00 Build 0)  -->
<svg version="1.1" id="图层_1" xmlns="http://www.w3.org/2000/svg" xmlns:xlink="http://www.w3.org/1999/xlink" x="0px" y="0px"
	 viewBox="0 0 360 360" style="enable-background:new 0 0 360 360;" xml:space="preserve">
<style type="text/css">
	.st0{fill:#FFFFFF;}
</style>
<g>
	<path class="st0" d="M0.2,360.5c0-120.1,0-240.2,0-360.2c120.1,0,240.2,0,360.2,0c0,120.1,0,240.2,0,360.2
		C240.4,360.5,120.3,360.5,0.2,360.5z M117.1,90.8c0-0.6,0-1.1,0-1.6c0-9.2,0.1-18.5,0-27.7c0-1.8,0.5-3,2-4
		c2.5-1.7,4.9-3.6,7.5-5.6c-8.7-4-17.3-7.9-25.9-11.8c0.4,16.9,0.8,33.7,1.2,50.6c-19,0-37.7,0-56.7,0c0.4,0.5,0.7,0.8,1,1.1
		c2.9,2.9,5.9,5.9,8.8,8.8c0.6,0.6,1.1,0.8,2,0.5c6.5-1.7,13.2-2.8,20-3c8-0.2,16.1-0.2,24.1-0.2c0.2,0,0.4,0.1,0.6,0.1
		c0,12.9,0,25.8,0,38.8c-16,0-32,0-47.9,0c0,0.2,0,0.3,0.1,0.3c3.3,3.3,6.5,6.6,9.8,9.8c0.2,0.2,0.9,0.3,1.3,0.2
		c5-0.9,10-2.1,15.1-2.6c6.8-0.6,13.7-0.5,20.6-0.8c0.3,0,0.7,0,1.1,0.1c0,14.9,0,29.8,0,44.8c-18.8,0-37.5,0-56.4,0
		c3.4,3.4,6.6,6.6,9.8,9.8c0.6,0.6,1.2,0.7,2,0.5c6.9-1.8,14-2.9,21.2-3.1c7.6-0.2,15.1-0.2,22.7-0.2c0.3,0,0.5,0,1.1,0.1
		c-0.4,40.8-0.8,81.5-1.2,122.3c0.1,0,0.2,0,0.2,0c5.6-3,11.1-5.9,16.7-8.9c0.3-0.2,0.6-0.7,0.6-1.1c-0.4-15.4-0.9-30.8-1.1-46.3
		c-0.2-21.6,0-43.1,0-64.7c0-0.4,0-0.8,0-1.3c14.6,0,29,0,43.5,0c-0.2,2.8-0.3,5.6-0.5,8.3c-0.9,9.4-1.8,18.8-2.9,28.1
		c-0.4,3.5-1.3,6.9-3,10.1c-1.1,2.2-2.8,3.2-5.3,3.3c-4.8,0.3-9.6-0.4-14.3-1.1c-3.1-0.5-6.1-1.1-9.3-1.6c0,1.2,0.1,2.4,0,3.5
		c-0.1,0.9,0.3,1.3,1.1,1.6c4.4,1.6,8.6,3.5,12.2,6.5c2.6,2.1,4.6,4.7,5.3,8c0.3,1.2,0.3,2.5,0.4,3.8c3.7-0.7,7.4-1.8,10.8-3.3
		c7.4-3.3,12.2-8.6,14.1-16.6c1.7-7.2,2.8-14.4,3.5-21.7c0.8-8.6,1.3-17.2,2-25.8c0-0.4,0.3-1,0.7-1.3c1.8-1.6,3.7-3.2,5.5-4.8
		c0.7-0.6,1.4-1.2,2.1-1.8c-5.6-4.4-11-8.7-16.5-13c-2.2,3.3-4.4,6.5-6.5,9.7c-0.5,0.7-1,1-1.8,1c-13.3,0-26.6,0-39.8,0
		c-0.4,0-0.8,0-1.2-0.1c0-14.9,0-29.8,0-44.8c18,0,35.9,0,54.1,0c-5.6-6.8-11-13.4-16.5-20c-0.3,0.2-0.5,0.4-0.6,0.5
		c-4.3,3.9-8.5,7.8-12.8,11.7c-0.4,0.4-1.2,0.7-1.8,0.7c-7.1,0-14.2,0-21.2,0c-0.4,0-0.8,0-1.1,0c0-13.1,0-25.9,0-38.9
		c20,0,39.9,0,60,0c-6.4-6.8-12.6-13.4-18.9-20.1c-4.1,4.2-8.2,8.2-12.2,12.2c-0.4,0.4-1.2,0.7-1.7,0.7c-6.4,0.1-12.9,0-19.3,0
		C122.4,90.8,119.8,90.8,117.1,90.8z"/>
	<path d="M117.1,90.8c2.8,0,5.3,0,7.9,0c6.4,0,12.9,0,19.3,0c0.6,0,1.3-0.3,1.7-0.7c4.1-4,8.1-8.1,12.2-12.2
		c6.3,6.7,12.5,13.3,18.9,20.1c-20.2,0-40,0-60,0c0,13,0,25.8,0,38.9c0.4,0,0.7,0,1.1,0c7.1,0,14.2,0,21.2,0c0.6,0,1.3-0.3,1.8-0.7
		c4.3-3.9,8.6-7.8,12.8-11.7c0.2-0.2,0.4-0.3,0.6-0.5c5.5,6.6,10.9,13.2,16.5,20c-18.2,0-36.1,0-54.1,0c0,15,0,29.8,0,44.8
		c0.4,0,0.8,0.1,1.2,0.1c13.3,0,26.6,0,39.8,0c0.9,0,1.4-0.2,1.8-1c2.1-3.2,4.2-6.4,6.5-9.7c5.5,4.3,11,8.6,16.5,13
		c-0.7,0.6-1.4,1.2-2.1,1.8c-1.9,1.6-3.7,3.2-5.5,4.8c-0.3,0.3-0.6,0.8-0.7,1.3c-0.7,8.6-1.2,17.2-2,25.8
		c-0.7,7.3-1.8,14.6-3.5,21.7c-1.9,8-6.7,13.3-14.1,16.6c-3.5,1.6-7.1,2.6-10.8,3.3c-0.1-1.3-0.2-2.6-0.4-3.8
		c-0.7-3.4-2.7-5.9-5.3-8c-3.6-3-7.8-4.9-12.2-6.5c-0.9-0.3-1.2-0.7-1.1-1.6c0.1-1.1,0-2.3,0-3.5c3.2,0.6,6.2,1.1,9.3,1.6
		c4.7,0.7,9.5,1.4,14.3,1.1c2.4-0.1,4.1-1.2,5.3-3.3c1.6-3.2,2.6-6.6,3-10.1c1.1-9.4,2-18.7,2.9-28.1c0.3-2.7,0.4-5.5,0.5-8.3
		c-14.5,0-29,0-43.5,0c0,0.5,0,0.9,0,1.3c0,21.6-0.1,43.1,0,64.7c0.1,15.4,0.7,30.8,1.1,46.3c0,0.4-0.3,0.9-0.6,1.1
		c-5.5,3-11.1,6-16.7,8.9c-0.1,0-0.2,0-0.2,0c0.4-40.7,0.8-81.5,1.2-122.3c-0.6-0.1-0.8-0.1-1.1-0.1c-7.6,0.1-15.1,0-22.7,0.2
		c-7.2,0.2-14.2,1.2-21.2,3.1c-0.8,0.2-1.4,0.1-2-0.5c-3.1-3.2-6.4-6.4-9.8-9.8c19,0,37.6,0,56.4,0c0-15,0-29.8,0-44.8
		c-0.4,0-0.7-0.1-1.1-0.1c-6.9,0.2-13.8,0.2-20.6,0.8c-5.1,0.4-10.1,1.7-15.1,2.6c-0.4,0.1-1,0.1-1.3-0.2c-3.3-3.2-6.6-6.5-9.8-9.8
		c0,0,0-0.1-0.1-0.3c16,0,31.9,0,47.9,0c0-13,0-25.8,0-38.8c-0.2,0-0.4-0.1-0.6-0.1c-8,0.1-16.1,0-24.1,0.2c-6.8,0.2-13.4,1.3-20,3
		c-0.9,0.2-1.4,0.1-2-0.5c-2.9-3-5.9-5.9-8.8-8.8c-0.3-0.3-0.5-0.6-1-1.1c19,0,37.7,0,56.7,0c-0.4-16.9-0.8-33.7-1.2-50.6
		c8.6,3.9,17.2,7.8,25.9,11.8c-2.6,1.9-4.9,3.9-7.5,5.6c-1.5,1-2,2.2-2,4c0.1,9.2,0,18.5,0,27.7C117.1,89.7,117.1,90.1,117.1,90.8z"
		/>
</g>
</svg>
