<?xml version="1.0" encoding="utf-8"?>
<!-- Generator: Adobe Illustrator 20.1.0, SVG Export Plug-In . SVG Version: 6.00 Build 0)  -->
<svg version="1.1" id="图层_1" xmlns="http://www.w3.org/2000/svg" xmlns:xlink="http://www.w3.org/1999/xlink" x="0px" y="0px"
	 viewBox="0 0 360 360" style="enable-background:new 0 0 360 360;" xml:space="preserve">
<style type="text/css">
	.st0{fill:#FFFFFF;}
</style>
<g>
	<path class="st0" d="M0.2,360.5c0-120.1,0-240.2,0-360.2c120.1,0,240.2,0,360.2,0c0,120.1,0,240.2,0,360.2
		C240.4,360.5,120.3,360.5,0.2,360.5z M121.6,109.7c-0.3,0.2-0.6,0.5-0.9,0.8c-3.3,3.3-6.6,6.5-9.8,9.9c-0.7,0.7-1.4,1-2.4,1
		c-19.8,0-39.6,0-59.4,0c-0.5,0-0.9,0-1.6,0c0.2,0.3,0.3,0.4,0.4,0.5c3.2,3.2,6.4,6.4,9.6,9.6c0.3,0.3,1,0.4,1.5,0.3
		c8.7-2.2,17.5-3.2,26.5-3.3c6.9,0,13.8,0,20.6,0c0.4,0,0.9,0,1.4,0.1c-1.7,20.7-5.4,40.8-10.6,61c-10.8-14-23.1-26.3-35.2-38.7
		c-0.9,0.8-1.7,1.6-2.5,2.4c0.3,0.5,0.7,1,1.1,1.5c10.8,15.6,21.5,31.2,32.3,46.7c0.6,0.9,0.6,1.6,0.3,2.5
		c-4.6,12.8-9.9,25.4-16.2,37.5c-7.8,15.1-17.1,29.2-28.2,42.2c-0.8,0.9-1.5,1.8-2.3,2.7c0.8,1.2,1.6,2.3,2.4,3.6
		c23.2-21,41.7-45.2,54.2-74.1c0.2,0.4,0.4,0.6,0.5,0.8c4.5,9.1,8.7,18.3,12.3,27.8c1.1,2.8,2.1,5.7,3.5,8.4
		c1.9,3.6,4.3,3.6,6.5,0.1c2.6-4.1,4-8.6,4.3-13.4c0.4-5.7-1.6-10.8-4.4-15.7c-4.6-7.8-10.2-14.7-16-21.5c-0.5-0.6-0.7-1.1-0.5-1.8
		c3.7-15.1,7-30.2,9.4-45.5c1.3-8.4,2.2-16.9,3.2-25.3c0.1-1,0.5-1.2,1.4-1.2c5.4,0,10.7,0,16.1,0c0.4,0,0.8,0,1.3-0.1
		C134.1,122.1,127.9,116,121.6,109.7z M72.3,54.3c1,1.9,1.9,3.7,2.8,5.5c4.1,8.6,7.7,17.4,9.8,26.7c0.9,4.2,1.4,8.5,2.4,12.7
		c0.4,2,1.2,3.9,2.2,5.7c1.1,2,3,2.4,5.1,1.4c0.8-0.4,1.6-0.9,2.3-1.5c2.8-2.4,5-5.3,6.5-8.6c1.9-4.2,2.1-8.6,0.5-12.9
		c-1.1-3.1-2.9-5.8-4.9-8.4c-5-6.5-10.9-12.1-17-17.6c-2-1.8-4-3.5-5.9-5.2C74.6,52.7,73.4,53.5,72.3,54.3z"/>
	<path d="M121.6,109.7c6.2,6.2,12.4,12.4,18.7,18.7c-0.5,0-0.9,0.1-1.3,0.1c-5.4,0-10.7,0-16.1,0c-0.9,0-1.3,0.2-1.4,1.2
		c-1,8.4-1.9,16.9-3.2,25.3c-2.4,15.3-5.7,30.5-9.4,45.5c-0.2,0.8,0,1.2,0.5,1.8c5.8,6.8,11.5,13.8,16,21.5
		c2.8,4.8,4.8,9.9,4.4,15.7c-0.3,4.8-1.8,9.3-4.3,13.4c-2.2,3.5-4.6,3.5-6.5-0.1c-1.4-2.7-2.4-5.6-3.5-8.4
		c-3.6-9.5-7.8-18.7-12.3-27.8c-0.1-0.2-0.2-0.4-0.5-0.8c-12.5,28.9-31,53.1-54.2,74.1c-0.8-1.2-1.6-2.3-2.4-3.6
		c0.8-0.9,1.5-1.8,2.3-2.7c11.1-12.9,20.4-27.1,28.2-42.2c6.3-12.1,11.6-24.6,16.2-37.5c0.3-1,0.3-1.7-0.3-2.5
		c-10.8-15.6-21.6-31.2-32.3-46.7c-0.4-0.5-0.7-1-1.1-1.5c0.8-0.8,1.6-1.5,2.5-2.4c12.1,12.3,24.4,24.6,35.2,38.7
		c5.2-20.2,8.9-40.3,10.6-61c-0.6,0-1-0.1-1.4-0.1c-6.9,0-13.8,0-20.6,0c-8.9,0.1-17.8,1-26.5,3.3c-0.4,0.1-1.1,0-1.5-0.3
		c-3.2-3.2-6.4-6.4-9.6-9.6c-0.1-0.1-0.2-0.2-0.4-0.5c0.6,0,1.1,0,1.6,0c19.8,0,39.6,0,59.4,0c1,0,1.7-0.3,2.4-1
		c3.3-3.3,6.5-6.6,9.8-9.9C121.1,110.2,121.4,110,121.6,109.7z"/>
	<path d="M72.3,54.3c1.2-0.8,2.3-1.5,3.6-2.4c2,1.7,4,3.5,5.9,5.2c6.1,5.5,12,11.1,17,17.6c2,2.6,3.8,5.3,4.9,8.4
		c1.6,4.4,1.4,8.7-0.5,12.9c-1.5,3.4-3.8,6.2-6.5,8.6c-0.7,0.6-1.5,1.1-2.3,1.5c-2,1-4,0.7-5.1-1.4c-1-1.8-1.7-3.7-2.2-5.7
		c-0.9-4.2-1.4-8.5-2.4-12.7c-2.1-9.3-5.6-18.1-9.8-26.7C74.1,58,73.2,56.2,72.3,54.3z"/>
</g>
</svg>
