<?xml version="1.0" encoding="utf-8"?>
<!-- Generator: Adobe Illustrator 20.1.0, SVG Export Plug-In . SVG Version: 6.00 Build 0)  -->
<svg version="1.1" id="图层_1" xmlns="http://www.w3.org/2000/svg" xmlns:xlink="http://www.w3.org/1999/xlink" x="0px" y="0px"
	 viewBox="0 0 360 360" style="enable-background:new 0 0 360 360;" xml:space="preserve">
<style type="text/css">
	.st0{fill:#FFFFFF;}
</style>
<g>
	<path class="st0" d="M0.2,360.5c0-120.1,0-240.2,0-360.2c120.1,0,240.2,0,360.2,0c0,120.1,0,240.2,0,360.2
		C240.4,360.5,120.3,360.5,0.2,360.5z M75.8,313.5c0.6,0.9,1.2,1.7,1.7,2.5c0.4,0.8,1,0.9,1.8,0.7c13.8-3.2,27.4-7.2,40.5-12.8
		c11.4-4.8,22.3-10.3,32.1-18c9.3-7.2,16.7-15.9,21.2-26.9c0.4-0.9,0.8-1.1,1.7-1.1c20.3,0,40.6,0,61,0c0.4,0,0.8,0,1.3,0.1
		c0,0.5-0.1,0.9-0.1,1.2c-0.5,3.7-0.9,7.5-1.6,11.1c-0.9,5.1-1.8,10.2-3.2,15.2c-1.5,5.5-5.2,7.7-10.8,6.9
		c-5.1-0.7-10.1-1.5-15.1-2.4c-4.6-0.8-9.2-1.8-13.8-2.7c-0.4,1.6-0.8,3.2-1.2,4.7c0.5,0.2,0.9,0.4,1.2,0.5
		c5.1,2.1,10.1,4.3,14.5,7.5c2.5,1.8,4.9,3.9,7,6.1c2.8,2.9,4.2,6.5,4.3,10.6c1.1-0.3,2.1-0.5,3.1-0.7c5.3-1.4,10.4-3.1,15.1-6.1
		c7.1-4.5,11.2-11.3,13.5-19.2c2.4-8,3.2-16.4,4.1-24.7c0.3-2.7,0.5-5.5,0.8-8.3c16.5,0,32.8,0,49.1,0c-7-7-14-14-21.1-21.1
		c-4.3,4.3-8.8,8.8-13.2,13.2c-0.4,0.4-1.2,0.7-1.9,0.8c-3.9,0.1-7.8,0-11.6,0c-0.4,0-0.8,0-1.3-0.1c0.8-15.4,1.6-30.6,2.4-45.9
		c21.2,0,42.2,0,63.1,0c-7.8-7.7-15.5-15.5-23.4-23.4c-0.1,0.2-0.4,0.5-0.6,0.8c-4.9,4.9-9.8,9.9-14.8,14.7
		c-0.4,0.4-1.2,0.8-1.8,0.8c-7.1,0.1-14.2,0-21.2,0c-0.4,0-0.8,0-1.1,0c0-0.6,0-1,0-1.4c0.4-6.7,0.8-13.4,1.2-20.1
		c0.3-5.8,0.7-11.6,1-17.4c0-0.9,0.4-1.4,1.2-1.8c3.2-1.5,6.4-3.2,9.5-4.7c0.3-0.2,0.7-0.4,1.1-0.6c-6.3-5.9-12.6-11.8-18.9-17.7
		c-3.8,3.8-7.4,7.5-11.1,11.1c-0.4,0.4-1.1,0.7-1.6,0.7c-41.8,0-83.5,0-125.3,0c-0.5,0-1.2-0.2-1.6-0.5c-4.8-3.4-9.5-6.8-14.3-10.2
		c-0.5-0.3-1-0.7-1.6-1.1c-2.4,21.3-4.7,42.5-7.1,63.7c-15.3,0-30.5,0-45.8,0c0.4,0.4,0.7,0.7,0.9,1c2.4,2.4,4.9,4.8,7.3,7.3
		c0.9,0.9,1.7,1.1,2.9,0.9c5.4-0.7,10.8-1.7,16.3-2c5.6-0.4,11.3-0.1,16.9-0.2c0.1,0,0.2,0.1,0.4,0.2c-0.4,2.7-0.7,5.4-1.1,8.1
		c-1.4,10.5-3,21-4.2,31.5c-0.3,2.9-1.5,4.8-3.9,6.3c-2.1,1.3-4.1,3-6.2,4.6c5.2,4.8,10.2,9.5,15.4,14.2c0.3-0.4,0.5-0.6,0.7-0.9
		c3-3.4,6.1-6.7,9-10.1c0.6-0.7,1.2-0.9,2-0.9c17.5,0,35,0,52.6,0c0.4,0,0.9,0,1.3,0c0,0.2,0.1,0.3,0,0.4c-0.1,0.3-0.3,0.7-0.5,1
		c-5.7,10.6-13.8,19-23.1,26.3c-12.3,9.7-26.1,16.6-40.6,22.4C85.6,310,80.8,311.7,75.8,313.5z"/>
	<path d="M75.8,313.5c4.9-1.8,9.8-3.5,14.5-5.4c14.5-5.7,28.3-12.7,40.6-22.4c9.3-7.3,17.4-15.8,23.1-26.3c0.2-0.3,0.3-0.6,0.5-1
		c0-0.1,0-0.2,0-0.4c-0.4,0-0.8,0-1.3,0c-17.5,0-35,0-52.6,0c-0.9,0-1.5,0.3-2,0.9c-3,3.4-6,6.7-9,10.1c-0.2,0.2-0.4,0.5-0.7,0.9
		c-5.2-4.8-10.3-9.5-15.4-14.2c2.1-1.6,4-3.2,6.2-4.6c2.4-1.5,3.5-3.4,3.9-6.3c1.2-10.5,2.8-21,4.2-31.5c0.4-2.7,0.7-5.4,1.1-8.1
		c-0.2-0.1-0.3-0.2-0.4-0.2c-5.6,0-11.3-0.2-16.9,0.2c-5.5,0.4-10.9,1.3-16.3,2c-1.2,0.2-2,0-2.9-0.9c-2.4-2.5-4.8-4.9-7.3-7.3
		c-0.3-0.3-0.5-0.6-0.9-1c15.4,0,30.5,0,45.8,0c2.4-21.2,4.7-42.4,7.1-63.7c0.6,0.4,1.1,0.8,1.6,1.1c4.7,3.4,9.5,6.8,14.3,10.2
		c0.5,0.3,1.1,0.5,1.6,0.5c41.8,0,83.5,0,125.3,0c0.6,0,1.2-0.3,1.6-0.7c3.7-3.6,7.4-7.3,11.1-11.1c6.3,5.9,12.6,11.8,18.9,17.7
		c-0.4,0.2-0.8,0.4-1.1,0.6c-3.2,1.6-6.3,3.2-9.5,4.7c-0.8,0.4-1.2,0.9-1.2,1.8c-0.3,5.8-0.7,11.6-1,17.4
		c-0.4,6.7-0.8,13.4-1.2,20.1c0,0.4,0,0.8,0,1.4c0.4,0,0.8,0,1.1,0c7.1,0,14.2,0,21.2,0c0.6,0,1.4-0.3,1.8-0.8
		c5-4.9,9.9-9.8,14.8-14.7c0.3-0.3,0.5-0.6,0.6-0.8c7.9,7.9,15.7,15.7,23.4,23.4c-20.9,0-41.9,0-63.1,0c-0.8,15.3-1.6,30.5-2.4,45.9
		c0.5,0,0.9,0.1,1.3,0.1c3.9,0,7.8,0,11.6,0c0.6,0,1.4-0.3,1.9-0.8c4.5-4.4,8.9-8.9,13.2-13.2c7,7,14,14,21.1,21.1
		c-16.2,0-32.6,0-49.1,0c-0.3,2.9-0.5,5.6-0.8,8.3c-0.9,8.3-1.7,16.6-4.1,24.7c-2.3,7.9-6.3,14.6-13.5,19.2
		c-4.6,2.9-9.8,4.7-15.1,6.1c-1,0.3-2,0.5-3.1,0.7c-0.2-4.1-1.6-7.7-4.3-10.6c-2.1-2.2-4.5-4.3-7-6.1c-4.5-3.2-9.5-5.5-14.5-7.5
		c-0.4-0.2-0.7-0.3-1.2-0.5c0.4-1.6,0.8-3.1,1.2-4.7c4.7,0.9,9.3,1.9,13.8,2.7c5,0.9,10.1,1.7,15.1,2.4c5.6,0.8,9.3-1.5,10.8-6.9
		c1.4-5,2.3-10.1,3.2-15.2c0.7-3.7,1.1-7.4,1.6-11.1c0-0.4,0.1-0.7,0.1-1.2c-0.5,0-0.9-0.1-1.3-0.1c-20.3,0-40.6,0-61,0
		c-0.9,0-1.3,0.2-1.7,1.1c-4.5,11-12,19.6-21.2,26.9c-9.8,7.6-20.7,13.2-32.1,18c-13.1,5.5-26.7,9.5-40.5,12.8
		c-0.9,0.2-1.4,0.1-1.8-0.7C77,315.2,76.4,314.4,75.8,313.5z M166.6,205.1c-0.8,0-1.2,0-1.7,0c-15.4,0-30.9,0-46.3,0
		c-4.1,0-8.2,0-12.2,0c-0.8,0-1.1,0.3-1.2,1.1c-0.2,2-0.5,4-0.7,5.9c-1.4,11-2.8,21.9-4.2,32.9c-0.3,2-0.5,3.9-0.7,6
		c0.5,0,0.8,0,1.1,0c18.5,0,36.9,0,55.4,0c0.9,0,1.2-0.3,1.5-1.1c3.3-10.3,5.8-20.8,7.4-31.6C165.5,214,166,209.6,166.6,205.1z
		 M167.7,197.9c1.2-14.9,2.3-29.7,3.5-44.5c-19.7,0-39.2,0-58.8,0c-2,14.9-3.9,29.7-5.9,44.5C127,197.9,147.3,197.9,167.7,197.9z
		 M175,250.9c20.7,0,41.4,0,62.2,0c0.8-15.3,1.6-30.5,2.4-45.8c-0.6,0-1.1,0-1.5,0c-17.4,0-34.9,0-52.3,0c-0.2,0-0.5-0.1-0.7,0
		c-0.3,0.2-0.8,0.5-0.9,0.8c-0.5,3.4-1,6.7-1.5,10.1c-1.5,9.4-3.1,18.8-5.5,27.9C176.5,246.3,175.7,248.6,175,250.9z M185.2,197.9
		c18.7,0,37.1,0,55.5,0c0.8-14.9,1.6-29.7,2.3-44.5c-17.7,0-35.3,0-53.3,0C188.3,168.2,186.8,183,185.2,197.9z"/>
	<path class="st0" d="M166.6,205.1c-0.6,4.6-1.1,8.9-1.7,13.3c-1.6,10.7-4,21.2-7.4,31.6c-0.3,0.8-0.6,1.1-1.5,1.1
		c-18.5,0-36.9,0-55.4,0c-0.3,0-0.6,0-1.1,0c0.3-2.1,0.5-4,0.7-6c1.4-11,2.8-21.9,4.2-32.9c0.3-2,0.5-4,0.7-5.9
		c0.1-0.8,0.4-1.1,1.2-1.1c4.1,0,8.2,0,12.2,0c15.4,0,30.9,0,46.3,0C165.3,205.1,165.8,205.1,166.6,205.1z"/>
	<path class="st0" d="M167.7,197.9c-20.4,0-40.7,0-61.2,0c2-14.8,3.9-29.6,5.9-44.5c19.6,0,39.1,0,58.8,0
		C170,168.3,168.8,183.1,167.7,197.9z"/>
	<path class="st0" d="M175,250.9c0.7-2.4,1.5-4.6,2.1-7c2.5-9.2,4.1-18.6,5.5-27.9c0.5-3.4,1-6.7,1.5-10.1c0.1-0.3,0.5-0.6,0.9-0.8
		c0.2-0.1,0.5,0,0.7,0c17.4,0,34.9,0,52.3,0c0.4,0,0.9,0,1.5,0c-0.8,15.3-1.6,30.5-2.4,45.8C216.4,250.9,195.7,250.9,175,250.9z"/>
	<path class="st0" d="M185.2,197.9c1.5-14.9,3.1-29.7,4.6-44.5c18,0,35.6,0,53.3,0c-0.8,14.9-1.6,29.7-2.3,44.5
		C222.3,197.9,203.9,197.9,185.2,197.9z"/>
</g>
</svg>
