<?xml version="1.0" encoding="utf-8"?>
<!-- Generator: Adobe Illustrator 20.1.0, SVG Export Plug-In . SVG Version: 6.00 Build 0)  -->
<svg version="1.1" id="图层_1" xmlns="http://www.w3.org/2000/svg" xmlns:xlink="http://www.w3.org/1999/xlink" x="0px" y="0px"
	 viewBox="0 0 360 360" style="enable-background:new 0 0 360 360;" xml:space="preserve">
<style type="text/css">
	.st0{fill:#FFFFFF;}
</style>
<g>
	<path class="st0" d="M-0.2,360.2c0-120.1,0-240.2,0-360.2C119.8,0,239.9,0,360,0c0,120.1,0,240.2,0,360.2
		C239.9,360.2,119.8,360.2-0.2,360.2z M169.5,129.5c-0.6,0.3-1.1,0.6-1.5,0.9c-8.9,5.1-18,9.6-27.5,13.6
		c-28.2,12-57.6,19.7-87.6,25.2c-2.7,0.5-5.4,1-8.2,1.5c0.4,1.3,0.8,2.4,1.2,3.5c0.3,0,0.5,0,0.8,0c4-0.4,8-0.8,11.9-1.2
		c15.8-1.8,31.4-4.3,46.9-7.9c26.6-6.1,52.2-15,76.3-28.1c0.7-0.4,1.1-0.3,1.7,0c4.2,2,8.4,4.2,12.7,6c19.8,8.4,40.6,13.6,61.7,17.2
		c11.2,2,22.5,3.4,33.8,5c2.1,0.3,4.3,0.5,6.4,0.7c1.3-5.9,5-9.7,10.2-12.1c3.1-1.4,6.4-2.4,9.8-3.6c0-1.3,0-2.8,0-4.4
		c-0.4,0-0.7,0-1,0c-10,0.1-20.1,0.3-30.1,0.2c-13.6-0.2-27.1-1.6-40.5-3.8c-16.6-2.7-32.9-7-48.6-13.2c-0.7-0.3-1.3-0.6-2.1-0.9
		c0.5-0.4,0.9-0.6,1.2-0.9C213,116,227.8,103.1,240.6,88c0.6-0.7,1.2-1,2.1-1c19.8,0,39.7,0,59.5,0c0.5,0,0.9,0,1.3,0
		c-7.8-7.8-15.6-15.6-23.5-23.5c-0.2,0.2-0.5,0.5-0.8,0.8c-4.9,4.9-9.8,9.9-14.8,14.7c-0.4,0.4-1.1,0.7-1.7,0.7
		c-25.2,0-50.3,0-75.5,0c-0.3,0-0.6,0-1-0.1c0.3-0.4,0.6-0.6,0.8-0.8c1.6-2.3,3.5-4.4,4.8-6.8c2.5-4.8,1.6-9.5-2.2-13.3
		c-1.3-1.3-2.8-2.6-4.3-3.6c-8.3-5.6-17.6-9.3-27-12.9c-0.3-0.1-0.7,0-0.9,0.2c-0.7,0.6-1.3,1.2-2.1,2c1.8,1.8,3.6,3.5,5.3,5.3
		c6,6.3,11.3,13.2,14.7,21.3c1.2,2.8,2.1,5.7,2.4,8.9c-38.9,0-77.6,0-116.6,0c3.4,3.4,6.7,6.6,9.9,9.9c0.6,0.6,1.1,0.7,1.9,0.5
		c7.3-1.9,14.6-3,22.1-3.1c10-0.2,20.1-0.1,30.1-0.1c0.5,0,1.1,0.4,1.4,0.8c11,14.5,24,27.1,38.4,38.2
		C166.5,127.2,167.9,128.3,169.5,129.5z"/>
	<path d="M169.5,129.5c-1.5-1.2-3-2.3-4.4-3.4c-14.5-11-27.4-23.7-38.4-38.2c-0.3-0.4-0.9-0.8-1.4-0.8c-10,0-20.1-0.1-30.1,0.1
		c-7.5,0.1-14.9,1.2-22.1,3.1c-0.8,0.2-1.3,0.1-1.9-0.5c-3.2-3.3-6.4-6.5-9.9-9.9c39,0,77.7,0,116.6,0c-0.4-3.2-1.3-6.1-2.4-8.9
		c-3.4-8.1-8.7-15-14.7-21.3c-1.7-1.8-3.4-3.4-5.3-5.3c0.7-0.7,1.4-1.4,2.1-2c0.2-0.2,0.7-0.3,0.9-0.2c9.3,3.6,18.6,7.2,27,12.9
		c1.5,1,3,2.3,4.3,3.6c3.8,3.7,4.7,8.5,2.2,13.3c-1.3,2.4-3.2,4.6-4.8,6.8c-0.2,0.2-0.4,0.5-0.8,0.8c0.5,0,0.8,0.1,1,0.1
		c25.2,0,50.3,0,75.5,0c0.6,0,1.3-0.3,1.7-0.7c5-4.9,9.9-9.8,14.8-14.7c0.3-0.3,0.6-0.6,0.8-0.8c7.8,7.8,15.6,15.6,23.5,23.5
		c-0.4,0-0.9,0-1.3,0c-19.8,0-39.7,0-59.5,0c-0.9,0-1.5,0.2-2.1,1c-12.8,15.1-27.6,28-43.8,39.3c-0.4,0.3-0.7,0.5-1.2,0.9
		c0.8,0.3,1.5,0.6,2.1,0.9c15.7,6.2,31.9,10.5,48.6,13.2c13.4,2.2,26.9,3.6,40.5,3.8c10,0.1,20.1-0.1,30.1-0.2c0.3,0,0.6,0,1,0
		c0,1.6,0,3.1,0,4.4c-3.3,1.2-6.6,2.2-9.8,3.6c-5.2,2.3-8.9,6.2-10.2,12.1c-2.1-0.2-4.3-0.4-6.4-0.7c-11.3-1.6-22.6-3.1-33.8-5
		c-21.1-3.7-41.9-8.8-61.7-17.2c-4.3-1.8-8.5-4-12.7-6c-0.6-0.3-1.1-0.4-1.7,0c-24,13.2-49.6,22-76.3,28.1
		c-15.5,3.5-31.1,6.1-46.9,7.9c-4,0.5-8,0.8-11.9,1.2c-0.2,0-0.5,0-0.8,0c-0.4-1.1-0.8-2.3-1.2-3.5c2.8-0.5,5.5-1,8.2-1.5
		c30-5.5,59.5-13.2,87.6-25.2c9.4-4,18.6-8.5,27.5-13.6C168.4,130.1,168.9,129.8,169.5,129.5z M134.3,87.1c2.2,2.1,4.1,4.1,6,6
		c11.8,11.3,25.1,20.6,39.9,27.6c0.8,0.4,1.3,0.3,2-0.2c12.9-9.2,24.2-20,34.4-32.2c0.3-0.3,0.6-0.7,0.9-1.2
		C189.9,87.1,162.3,87.1,134.3,87.1z"/>
	<path class="st0" d="M134.3,87.1c27.9,0,55.5,0,83.4,0c-0.4,0.5-0.6,0.8-0.9,1.2c-10.2,12.1-21.6,22.9-34.4,32.2
		c-0.7,0.5-1.2,0.6-2,0.2c-14.9-7-28.1-16.2-39.9-27.6C138.4,91.2,136.5,89.3,134.3,87.1z"/>
</g>
</svg>
