<?xml version="1.0" encoding="utf-8"?>
<!-- Generator: Adobe Illustrator 20.1.0, SVG Export Plug-In . SVG Version: 6.00 Build 0)  -->
<svg version="1.1" id="图层_1" xmlns="http://www.w3.org/2000/svg" xmlns:xlink="http://www.w3.org/1999/xlink" x="0px" y="0px"
	 viewBox="0 0 360 360" style="enable-background:new 0 0 360 360;" xml:space="preserve">
<style type="text/css">
	.st0{fill:#FFFFFF;}
</style>
<g>
	<path class="st0" d="M-0.1,360.1c0-120.1,0-240.2,0-360.2c120.1,0,240.2,0,360.2,0c0,120.1,0,240.2,0,360.2
		C240,360.1,120,360.1-0.1,360.1z M242.7,238.9c-0.2,2.4-0.3,4.7-0.5,7c-0.6,9.5-1.5,19-3.1,28.3c-1.6,9-7.7,14-16.8,14
		c-23.7,0-47.4,0-71.2,0c-1.4,0-2.8,0.1-4.2,0c-5.8-0.3-9.3-3.5-10.1-9.3c-0.2-1.8-0.2-3.7-0.2-5.5c0-13.2,0.1-26.3-0.1-39.5
		c0-2.5,0.6-4.2,2.6-5.7c2.4-1.8,4.5-3.9,6.9-6c-9.1-4.7-18-9.4-27.1-14.1c0,0.4-0.1,0.6-0.1,0.8c0.3,13.3,0.8,26.5,1,39.8
		c0.2,10.4,0.1,20.7,0.1,31.1c0,2.2,0,4.3,0.2,6.5c0.7,8.3,5.5,13.9,13.5,15.5c3.1,0.6,6.4,0.6,9.5,0.6c29.2,0,58.4,0,87.6,0
		c4.9,0,9.7-0.6,14.4-1.9c5.6-1.5,10.6-4,14.4-8.5c1.8-2.1,3.2-4.5,4.1-7.2c-4.7-0.2-7.5-3.1-9.5-6.9c-1-1.9-1.7-3.9-2.3-5.9
		c-2.5-8.6-3.1-17.4-3.4-26.3c-0.1-2.3,0-4.5,0-6.8C246.6,238.9,244.7,238.9,242.7,238.9z M254.5,222.4c0.3,0.4,0.6,0.7,0.9,1
		c5.2,5.9,10.5,11.7,15.5,17.7c6.7,8.2,12.5,17,16.6,26.8c1.2,2.9,2.9,5.7,4.9,8.2c2.7,3.3,5.1,3.2,8,0.1c4-4.3,5.9-9.4,6.1-15.2
		c0.2-4.3-1.4-8.1-3.7-11.7c-3-4.8-7.3-8.2-11.9-11.3c-8.7-5.9-18.1-10.9-27.4-15.7c-2.2-1.1-4.4-2.2-6.7-3.4
		C256.1,220,255.3,221.2,254.5,222.4z M159.1,192.9c-0.7,1-1.2,1.9-1.8,2.7c-0.6,0.7-0.4,1.2,0.1,1.8c2.7,3.3,5.4,6.7,7.9,10.1
		c7.1,9.8,13,20.2,16.3,31.9c0.8,2.9,2,5.8,3.9,8.2c2.1,2.7,4.6,2.9,6.9,0.5c3.4-3.5,5.9-7.4,7.2-12.1c1.3-4.7,1-9.3-1.7-13.5
		c-1.6-2.5-3.5-5-5.7-7.1C182.5,206.1,170.8,199.6,159.1,192.9z M91.9,223.6c-1.2,0-2.3,0.1-3.5,0c-0.9-0.1-1.4,0.2-1.7,1.1
		c-3,6.9-5.8,13.8-9.1,20.6c-3.8,8-8.6,15.5-15,21.8c-1.9,1.8-3.5,3.9-4.4,6.5c-1,2.7-0.2,4.6,2.4,5.7c0.8,0.4,1.7,0.7,2.6,0.9
		c9.8,2.4,19.5-0.1,24-11.8c2.4-6.3,3.3-12.9,3.8-19.6c0.4-5.6,0.6-11.2,0.8-16.8C92,229.3,91.9,226.5,91.9,223.6z"/>
	<path d="M242.7,238.9c2,0,3.9,0,6,0c0,2.3-0.1,4.6,0,6.8c0.3,8.9,0.8,17.7,3.4,26.3c0.6,2,1.4,4,2.3,5.9c1.9,3.8,4.7,6.6,9.5,6.9
		c-0.9,2.7-2.3,5.1-4.1,7.2c-3.8,4.5-8.9,7-14.4,8.5c-4.7,1.3-9.5,1.9-14.4,1.9c-29.2,0-58.4,0-87.6,0c-3.2,0-6.4,0-9.5-0.6
		c-8-1.6-12.8-7.2-13.5-15.5c-0.2-2.1-0.2-4.3-0.2-6.5c0-10.4,0.1-20.7-0.1-31.1c-0.2-13.3-0.7-26.5-1-39.8c0-0.2,0-0.5,0.1-0.8
		c9,4.7,18,9.4,27.1,14.1c-2.4,2.1-4.5,4.2-6.9,6c-2,1.5-2.7,3.2-2.6,5.7c0.1,13.2,0.1,26.3,0.1,39.5c0,1.8-0.1,3.7,0.2,5.5
		c0.8,5.8,4.3,8.9,10.1,9.3c1.4,0.1,2.8,0,4.2,0c23.7,0,47.4,0,71.2,0c9.1,0,15.2-5.1,16.8-14c1.7-9.4,2.5-18.8,3.1-28.3
		C242.4,243.7,242.6,241.3,242.7,238.9z"/>
	<path d="M254.5,222.4c0.8-1.2,1.6-2.3,2.4-3.6c2.3,1.1,4.5,2.2,6.7,3.4c9.4,4.9,18.7,9.8,27.4,15.7c4.6,3.1,8.9,6.5,11.9,11.3
		c2.3,3.6,3.8,7.4,3.7,11.7c-0.2,5.8-2.1,10.9-6.1,15.2c-2.9,3.1-5.4,3.2-8-0.1c-2-2.5-3.7-5.3-4.9-8.2c-4.1-9.9-9.8-18.7-16.6-26.8
		c-5-6-10.3-11.8-15.5-17.7C255.1,223.1,254.8,222.8,254.5,222.4z"/>
	<path d="M159.1,192.9c11.7,6.7,23.4,13.3,33.2,22.5c2.2,2.1,4,4.6,5.7,7.1c2.7,4.2,3,8.8,1.7,13.5c-1.3,4.7-3.9,8.7-7.2,12.1
		c-2.4,2.4-4.8,2.2-6.9-0.5c-1.9-2.4-3.1-5.3-3.9-8.2c-3.3-11.8-9.2-22.2-16.3-31.9c-2.5-3.5-5.2-6.8-7.9-10.1
		c-0.5-0.7-0.7-1.1-0.1-1.8C157.9,194.7,158.5,193.8,159.1,192.9z"/>
	<path d="M91.9,223.6c0,2.9,0.1,5.7,0,8.5c-0.2,5.6-0.4,11.2-0.8,16.8c-0.5,6.7-1.4,13.2-3.8,19.6c-4.5,11.7-14.2,14.2-24,11.8
		c-0.9-0.2-1.8-0.5-2.6-0.9c-2.6-1.1-3.4-3-2.4-5.7c0.9-2.5,2.6-4.6,4.4-6.5c6.4-6.3,11.2-13.8,15-21.8c3.2-6.8,6.1-13.7,9.1-20.6
		c0.4-0.9,0.8-1.2,1.7-1.1C89.6,223.6,90.7,223.6,91.9,223.6z"/>
</g>
</svg>
