<?xml version="1.0" encoding="utf-8"?>
<!-- Generator: Adobe Illustrator 20.1.0, SVG Export Plug-In . SVG Version: 6.00 Build 0)  -->
<svg version="1.1" id="图层_1" xmlns="http://www.w3.org/2000/svg" xmlns:xlink="http://www.w3.org/1999/xlink" x="0px" y="0px"
	 viewBox="0 0 360 360" style="enable-background:new 0 0 360 360;" xml:space="preserve">
<style type="text/css">
	.st0{fill:#FFFFFF;}
</style>
<g>
	<path class="st0" d="M-0.1,360.1c0-120.1,0-240.2,0-360.2c120.1,0,240.2,0,360.2,0c0,120.1,0,240.2,0,360.2
		C240,360.1,120,360.1-0.1,360.1z M150.9,142.3c-8.7-4.8-17.3-9.4-26-14.2c0,0.5,0,0.9,0,1.3c0.4,11,0.8,22,1.1,32.9
		c0.1,3.5-0.2,7,0.1,10.4c0.6,7.6,4.1,13.6,11,17.3c4.6,2.5,9.6,3.6,14.7,3.9c4.2,0.2,8.4,0.2,12.6,0.2c22.1,0,44.2,0,66.2,0
		c2.4,0,4.8,0.1,7.2-0.1c7.3-0.6,13.7-3.2,18.7-8.6c2.1-2.3,3.8-4.8,5-7.7c-0.3-0.1-0.4-0.2-0.5-0.2c-6.6-1.2-9.6-4.4-10.1-11
		c-0.5-6.3-0.7-12.6-1-18.9c-0.1-2.1,0-4.3,0-6.5c-1.7,0-3.2,0-4.8,0c-0.1,0.3-0.2,0.5-0.2,0.7c-0.5,4-0.8,8.1-1.5,12.1
		c-0.9,5.4-2.1,10.7-3.3,16.1c-0.7,3.1-2.8,5.2-5.6,6.7c-4.3,2.3-8.9,3.1-13.6,3.2c-17.5,0.1-35,0-52.4,0c-0.7,0-1.4,0.1-2,0.1
		c-4.4,0.2-8.8,0.3-13.1-0.6c-8.2-1.8-12.1-6.6-12-14.8c0.1-4.8,0.1-9.6,0.2-14.4c0-0.5,0.4-1,0.7-1.3
		C145.1,146.7,147.9,144.5,150.9,142.3z M260.4,143.5c0.6,0.5,1.1,0.9,1.6,1.4c5.9,5.1,11.7,10.4,16.9,16.3
		c4.5,5.1,8.5,10.4,11.1,16.8c1,2.6,2.5,5.1,4.6,7.1c2.2,2,4.6,2.5,7.4,1.3c7-3,10.1-11.6,6.8-18.6c-2-4.1-5.1-7.2-8.7-9.9
		c-4.9-3.7-10.3-6.6-15.9-9.1c-6.7-3-13.6-5.7-20.4-8.5c-0.4-0.1-1-0.1-1.2,0.1C261.7,141.3,261.1,142.4,260.4,143.5z M107.3,138.7
		c-1.3,0-2.5,0.1-3.6,0c-0.9-0.1-1.3,0.2-1.6,1.1c-2.7,7.4-5.8,14.6-10,21.3c-2.8,4.5-6.3,8.4-10.7,11.5c-2,1.4-3.7,3.2-5.2,5
		c-2,2.5-1.7,5.2,0.3,7.7c1.3,1.7,3,3,5,3.6c5.5,1.5,10.6,0.9,15.2-2.7c3.9-3.1,5.8-7.5,6.9-12.2c2.2-9,2.8-18.2,3.4-27.4
		C107.1,144.1,107.2,141.5,107.3,138.7z M163.8,125.8c0.3,0.2,0.6,0.5,0.8,0.7c3.9,3.7,7.8,7.3,11.6,11.1c6,6.1,11.5,12.6,15.3,20.4
		c0.8,1.6,2,3,3.2,4.3c1.5,1.5,3.3,1.6,5.2,0.5c0.7-0.4,1.4-0.9,2-1.5c2.9-3,5-6.4,6.1-10.4c1.2-4.5,0.1-8.4-3.4-11.5
		c-1.6-1.4-3.5-2.7-5.4-3.8c-10.3-5.8-21.3-9.5-32.4-13.3c-0.3-0.1-0.8,0.1-1,0.4C165.1,123.8,164.5,124.7,163.8,125.8z"/>
	<path d="M150.9,142.3c-3,2.3-5.9,4.4-8.7,6.6c-0.4,0.3-0.7,0.9-0.7,1.3c-0.1,4.8-0.2,9.6-0.2,14.4c-0.1,8.2,3.8,13.1,12,14.8
		c4.3,0.9,8.7,0.9,13.1,0.6c0.7,0,1.4-0.1,2-0.1c17.5,0,35,0,52.4,0c4.8,0,9.4-0.9,13.6-3.2c2.8-1.5,4.9-3.6,5.6-6.7
		c1.2-5.3,2.4-10.7,3.3-16.1c0.7-4,1-8.1,1.5-12.1c0-0.2,0.1-0.5,0.2-0.7c1.5,0,3,0,4.8,0c0,2.2-0.1,4.3,0,6.5
		c0.3,6.3,0.5,12.6,1,18.9c0.5,6.7,3.5,9.8,10.1,11c0.1,0,0.3,0.1,0.5,0.2c-1.3,2.9-3,5.4-5,7.7c-5,5.5-11.4,8-18.7,8.6
		c-2.4,0.2-4.8,0.1-7.2,0.1c-22.1,0-44.2,0-66.2,0c-4.2,0-8.4,0.1-12.6-0.2c-5.1-0.3-10.1-1.5-14.7-3.9c-6.9-3.7-10.3-9.7-11-17.3
		c-0.3-3.5,0-6.9-0.1-10.4c-0.3-11-0.7-22-1.1-32.9c0-0.4,0-0.7,0-1.3C133.6,132.8,142.2,137.5,150.9,142.3z"/>
	<path d="M260.4,143.5c0.7-1.1,1.4-2.2,2.1-3.1c0.2-0.2,0.9-0.2,1.2-0.1c6.8,2.8,13.7,5.5,20.4,8.5c5.6,2.5,11,5.4,15.9,9.1
		c3.6,2.7,6.7,5.8,8.7,9.9c3.3,7,0.2,15.5-6.8,18.6c-2.8,1.2-5.2,0.7-7.4-1.3c-2.1-2-3.6-4.4-4.6-7.1c-2.5-6.4-6.6-11.8-11.1-16.8
		c-5.2-5.9-11-11.2-16.9-16.3C261.5,144.4,260.9,144,260.4,143.5z"/>
	<path d="M107.3,138.7c-0.1,2.7-0.2,5.3-0.4,7.9c-0.6,9.2-1.2,18.4-3.4,27.4c-1.1,4.7-3,9.1-6.9,12.2c-4.5,3.6-9.7,4.2-15.2,2.7
		c-2-0.6-3.7-1.9-5-3.6c-2-2.5-2.3-5.2-0.3-7.7c1.5-1.9,3.2-3.7,5.2-5c4.5-3.1,7.9-7,10.7-11.5c4.2-6.7,7.3-13.9,10-21.3
		c0.3-0.9,0.7-1.2,1.6-1.1C104.8,138.8,106,138.7,107.3,138.7z"/>
	<path d="M163.8,125.8c0.7-1,1.3-2,2-3c0.2-0.3,0.7-0.5,1-0.4c11.1,3.7,22.2,7.5,32.4,13.3c1.9,1.1,3.7,2.3,5.4,3.8
		c3.5,3.1,4.7,7,3.4,11.5c-1.1,4-3.3,7.4-6.1,10.4c-0.6,0.6-1.3,1.1-2,1.5c-1.8,1-3.7,1-5.2-0.5c-1.3-1.3-2.5-2.7-3.2-4.3
		c-3.8-7.8-9.3-14.3-15.3-20.4c-3.7-3.8-7.7-7.4-11.6-11.1C164.3,126.3,164,126,163.8,125.8z"/>
</g>
</svg>
