<?xml version="1.0" encoding="utf-8"?>
<!-- Generator: Adobe Illustrator 20.1.0, SVG Export Plug-In . SVG Version: 6.00 Build 0)  -->
<svg version="1.1" id="图层_1" xmlns="http://www.w3.org/2000/svg" xmlns:xlink="http://www.w3.org/1999/xlink" x="0px" y="0px"
	 viewBox="0 0 360 360" style="enable-background:new 0 0 360 360;" xml:space="preserve">
<style type="text/css">
	.st0{fill:#FFFFFF;}
</style>
<g>
	<path class="st0" d="M0.2,360.5c0-120.1,0-240.2,0-360.2c120.1,0,240.2,0,360.2,0c0,120.1,0,240.2,0,360.2
		C240.4,360.5,120.3,360.5,0.2,360.5z M124.1,94.3c0.2,6,0.5,11.8,0.6,17.7c0.2,11.8,0.5,23.7,0.5,35.5c0.1,42.4,0,84.8,0,127.2
		c0,2.2,0.6,4.2,1.7,6c2,3.5,5.1,5.8,8.6,7.5c4.8,2.3,10,2.9,15.3,2.9c28.6-0.1,57.2,0,85.8,0c3.6,0,7.1,0.2,10.7,0
		c8.3-0.7,15.6-3.7,21.4-9.8c2.6-2.7,4.6-5.7,6.2-9c-0.1-0.2-0.1-0.2-0.2-0.3c-0.4-0.3-0.8-0.5-1.2-0.8
		c-6.4-4.3-10.6-10.1-11.9-17.8c-1.6-8.8-2.1-17.8-2.6-26.7c-0.2-4-0.4-8-0.5-12.1c-2,0-3.9,0-5.9,0c0,0.3,0,0.5,0,0.7
		c-0.9,11.7-1.6,23.4-2.7,35.1c-0.5,5.2-1.7,10.4-2.8,15.5c-1,4.8-4.5,7.4-9.1,8.3c-2.4,0.5-5,0.3-7.5,0.3c-24.9,0-49.8,0-74.8,0
		c-3,0-6-0.2-8.8-1.4c-3.5-1.4-5-3.6-5-7.3c0-49.3,0-98.6,0-147.8c0-1.8,0.5-3,2-4c2.9-2.1,5.7-4.4,8.7-6.7
		C142.9,102.9,133.6,98.6,124.1,94.3z M260.8,145c1.5,2.6,2.9,5.2,4.3,7.7c6.9,12.5,13.4,25.2,18.4,38.7c2.4,6.5,4,13.2,5.7,19.9
		c0.9,3.6,2,7.2,4.1,10.4c2.1,3.1,4.1,3.6,7.1,1.4c5.7-4.3,8.4-10.2,8.9-17.2c0.3-5-1.3-9.5-3.4-13.9c-3-6.2-7.2-11.5-11.7-16.6
		c-8.2-9.4-16.7-18.5-25.1-27.7c-1.5-1.7-3.4-3.1-5.2-4.8c-0.6,0.4-1.5,1-2.4,1.6C261.3,144.6,261.1,144.8,260.8,145z M84,136.8
		c-1.1,10.7-2.5,21.1-4.8,31.5c-2.9,12.6-6.7,24.8-15.4,34.9c-2.5,2.9-4.4,6.4-5.5,10.2c-0.9,3.1-0.9,6.1,1.5,8.7
		c2.7,2.8,6,4,9.8,3.2c5.4-1.2,9.7-4.3,12.8-8.8c3.2-4.6,4.9-9.8,5.4-15.3c0.7-8.1,1.3-16.2,1.4-24.3c0.2-11.2-0.1-22.4-0.2-33.6
		c0-2.1-0.1-4.3-0.2-6.4C87.1,136.8,85.6,136.8,84,136.8z M144.1,51.9c0.4,0.4,0.6,0.8,0.9,1.1c7.7,9.1,15.1,18.3,21.7,28.2
		c4.8,7.1,9,14.4,11.9,22.5c1,2.8,2.3,5.6,3.7,8.2c1.1,1.9,2.5,3.7,4,5.4c1.3,1.5,3.1,1.7,4.9,0.9c0.9-0.4,1.8-0.9,2.4-1.5
		c5-5,8.4-12.5,5.5-20.2c-2.3-6.1-6.1-11.1-10.7-15.6c-6.7-6.5-14-12.3-21.5-17.8c-6-4.4-12.2-8.6-18.3-12.9c-0.3-0.2-1-0.4-1.3-0.2
		C146.2,50.5,145.2,51.2,144.1,51.9z"/>
	<path d="M124.1,94.3c9.5,4.4,18.8,8.6,28.4,13c-3,2.3-5.8,4.6-8.7,6.7c-1.5,1.1-2,2.2-2,4c0.1,49.3,0,98.6,0,147.8
		c0,3.7,1.5,6,5,7.3c2.8,1.1,5.8,1.4,8.8,1.4c24.9,0,49.8,0,74.8,0c2.5,0,5.1,0.2,7.5-0.3c4.5-1,8-3.5,9.1-8.3
		c1.1-5.2,2.3-10.3,2.8-15.5c1.1-11.7,1.8-23.4,2.7-35.1c0-0.2,0-0.4,0-0.7c2,0,3.9,0,5.9,0c0.2,4.1,0.3,8.1,0.5,12.1
		c0.5,8.9,1,17.9,2.6,26.7c1.4,7.7,5.6,13.5,11.9,17.8c0.4,0.3,0.8,0.5,1.2,0.8c0.1,0,0.1,0.1,0.2,0.3c-1.6,3.3-3.6,6.3-6.2,9
		c-5.8,6.1-13.1,9.1-21.4,9.8c-3.5,0.3-7.1,0-10.7,0c-28.6,0-57.2,0-85.8,0c-5.3,0-10.4-0.6-15.3-2.9c-3.6-1.7-6.6-4.1-8.6-7.5
		c-1.1-1.9-1.7-3.9-1.7-6c0-42.4,0-84.8,0-127.2c0-11.8-0.3-23.7-0.5-35.5C124.6,106.1,124.3,100.3,124.1,94.3z"/>
	<path d="M260.8,145c0.3-0.2,0.5-0.4,0.7-0.6c0.9-0.6,1.8-1.2,2.4-1.6c1.8,1.6,3.6,3.1,5.2,4.8c8.4,9.2,16.8,18.4,25.1,27.7
		c4.5,5.1,8.7,10.5,11.7,16.6c2.1,4.4,3.8,9,3.4,13.9c-0.5,7-3.1,12.9-8.9,17.2c-3,2.2-5,1.8-7.1-1.4c-2.1-3.2-3.2-6.8-4.1-10.4
		c-1.7-6.7-3.2-13.4-5.7-19.9c-5.1-13.4-11.5-26.1-18.4-38.7C263.7,150.2,262.2,147.7,260.8,145z"/>
	<path d="M84,136.8c1.6,0,3.1,0,4.7,0c0.1,2.2,0.2,4.3,0.2,6.4c0.1,11.2,0.4,22.4,0.2,33.6c-0.1,8.1-0.7,16.2-1.4,24.3
		c-0.5,5.5-2.2,10.7-5.4,15.3c-3.2,4.5-7.4,7.6-12.8,8.8c-3.8,0.8-7.1-0.3-9.8-3.2c-2.4-2.5-2.3-5.6-1.5-8.7c1.1-3.8,3-7.2,5.5-10.2
		c8.7-10.1,12.6-22.3,15.4-34.9C81.5,158,82.9,147.5,84,136.8z"/>
	<path d="M144.1,51.9c1.1-0.7,2.1-1.5,3.1-2c0.3-0.2,1,0,1.3,0.2c6.1,4.3,12.3,8.5,18.3,12.9c7.5,5.5,14.9,11.2,21.5,17.8
		c4.6,4.5,8.5,9.4,10.7,15.6c2.9,7.7-0.5,15.2-5.5,20.2c-0.7,0.7-1.6,1.1-2.4,1.5c-1.8,0.8-3.6,0.6-4.9-0.9c-1.5-1.7-2.9-3.4-4-5.4
		c-1.4-2.6-2.7-5.4-3.7-8.2c-2.9-8.1-7.1-15.4-11.9-22.5c-6.6-9.9-14.1-19.1-21.7-28.2C144.7,52.7,144.5,52.4,144.1,51.9z"/>
</g>
</svg>
