<?xml version="1.0" encoding="utf-8"?>
<!-- Generator: Adobe Illustrator 20.1.0, SVG Export Plug-In . SVG Version: 6.00 Build 0)  -->
<svg version="1.1" id="图层_1" xmlns="http://www.w3.org/2000/svg" xmlns:xlink="http://www.w3.org/1999/xlink" x="0px" y="0px"
	 viewBox="0 0 360 360" style="enable-background:new 0 0 360 360;" xml:space="preserve">
<style type="text/css">
	.st0{fill:#FFFFFF;}
</style>
<g>
	<path class="st0" d="M-0.1,360.1c0-120.1,0-240.2,0-360.2c120.1,0,240.2,0,360.2,0c0,120.1,0,240.2,0,360.2
		C240,360.1,120,360.1-0.1,360.1z M290.9,84.3c-0.3,0.5-0.6,0.9-0.9,1.2c-3.7,3.7-7.5,7.5-11.2,11.2c-0.6,0.6-1.2,0.8-2,0.8
		c-28.6,0-57.1,0-85.7,0c-0.4,0-0.9,0-1.3,0c0-0.5-0.1-0.8-0.1-1.1c0-12.3,0-24.6,0-36.8c0-0.7,0.3-1.1,0.9-1.5
		c3.3-2.2,6.5-4.5,9.7-6.8c0.4-0.3,0.7-0.5,1.2-0.9c-9.5-3.6-18.9-7.1-28.3-10.6c1.1,19.3,1.1,38.5,1.1,57.6c-29.5,0-58.9,0-88.3,0
		c0-4.3,0-8.5,0-12.8c-1.6,0-3.1,0-4.7,0c-0.1,0.4-0.2,0.8-0.4,1.2c-1.8,6.2-3.8,12.4-6.5,18.3c-2.8,6.2-6.3,12-11.6,16.5
		c-1.3,1.1-2.4,2.5-3.3,3.9c-0.9,1.5-1.7,3.2-1.8,4.9c-0.6,6.6,5.7,11.1,12,8.7c6.6-2.5,10.6-7.5,12.9-14c2.1-5.8,2.9-11.8,3.3-17.9
		c0.1-1.6,0.1-1.6,1.7-1.6c63.3,0,126.5,0,189.8,0c0.5,0,0.9,0,1.7,0c-5.2,9.5-10.2,18.8-15.3,28.2c1.2,0.8,2.4,1.6,3.4,2.3
		c3-3.6,5.8-7.2,8.8-10.7c7.8-9.1,17.6-14.9,29.2-17.6c1.8-0.4,3.7-0.7,5.7-1.1C304.3,98.6,297.7,91.6,290.9,84.3z M103.7,51.5
		c0.3,0.4,0.6,0.7,0.9,1c5,5.8,10.1,11.6,14.8,17.6c4.2,5.3,7.7,11.2,9.5,17.8c0.2,0.8,0.6,1.6,1.1,2.4c1.7,3,4,3.5,6.5,1.2
		c3.2-2.9,5.5-6.4,6.6-10.6c0.8-3.4,0.4-6.7-1.5-9.5c-1.4-2.1-3.1-4.1-5-5.7c-5.6-5-12.2-8.6-18.8-12c-3.8-2-7.7-3.8-11.7-5.7
		C105.3,49.2,104.5,50.3,103.7,51.5z M218,95.2c0.4-0.3,0.7-0.6,1.1-0.8c11-8.5,22-17,32.9-25.6c1.8-1.4,3.8-2.2,6-2.6
		c2.3-0.4,4.6-1,7.2-1.6c-7.2-6-14.2-11.8-21.2-17.6c-7.2,17.1-18.7,31.3-29.6,45.9C215.7,93.6,216.8,94.4,218,95.2z"/>
	<path d="M290.9,84.3c6.9,7.3,13.5,14.3,20.2,21.4c-2,0.4-3.9,0.7-5.7,1.1c-11.6,2.7-21.5,8.6-29.2,17.6c-3,3.5-5.8,7.1-8.8,10.7
		c-1-0.7-2.2-1.5-3.4-2.3c5.1-9.4,10.1-18.7,15.3-28.2c-0.7,0-1.2,0-1.7,0c-63.3,0-126.5,0-189.8,0c-1.6,0-1.6,0-1.7,1.6
		c-0.4,6.1-1.2,12.1-3.3,17.9c-2.3,6.5-6.3,11.5-12.9,14c-6.3,2.4-12.6-2.1-12-8.7c0.2-1.7,1-3.4,1.8-4.9c0.8-1.5,2-2.8,3.3-3.9
		c5.3-4.5,8.8-10.3,11.6-16.5c2.7-5.9,4.7-12,6.5-18.3c0.1-0.4,0.2-0.7,0.4-1.2c1.6,0,3.1,0,4.7,0c0,4.3,0,8.5,0,12.8
		c29.5,0,58.8,0,88.3,0c0-19.2,0-38.3-1.1-57.6c9.4,3.5,18.8,7,28.3,10.6c-0.5,0.4-0.8,0.6-1.2,0.9c-3.2,2.3-6.5,4.6-9.7,6.8
		c-0.6,0.4-0.9,0.8-0.9,1.5c0,12.3,0,24.6,0,36.8c0,0.3,0,0.6,0.1,1.1c0.5,0,0.9,0,1.3,0c28.6,0,57.1,0,85.7,0c0.8,0,1.4-0.2,2-0.8
		c3.7-3.8,7.5-7.5,11.2-11.2C290.3,85.2,290.5,84.8,290.9,84.3z"/>
	<path d="M103.7,51.5c0.8-1.2,1.6-2.4,2.4-3.6c3.9,1.9,7.8,3.8,11.7,5.7c6.6,3.4,13.2,7,18.8,12c1.9,1.7,3.6,3.7,5,5.7
		c1.9,2.9,2.4,6.2,1.5,9.5c-1.1,4.2-3.4,7.8-6.6,10.6c-2.6,2.3-4.8,1.8-6.5-1.2c-0.4-0.8-0.8-1.6-1.1-2.4
		c-1.8-6.7-5.3-12.5-9.5-17.8c-4.8-6-9.9-11.7-14.8-17.6C104.3,52.2,104,51.9,103.7,51.5z"/>
	<path d="M218,95.2c-1.2-0.8-2.3-1.6-3.5-2.3C225.3,78.2,236.8,64,244,46.9c7,5.8,14,11.6,21.2,17.6c-2.6,0.6-4.8,1.1-7.2,1.6
		c-2.2,0.4-4.2,1.2-6,2.6C241,77.3,230,85.8,219.1,94.4C218.7,94.6,218.4,94.9,218,95.2z"/>
</g>
</svg>
