<?xml version="1.0" encoding="utf-8"?>
<!-- Generator: Adobe Illustrator 20.1.0, SVG Export Plug-In . SVG Version: 6.00 Build 0)  -->
<svg version="1.1" id="图层_1" xmlns="http://www.w3.org/2000/svg" xmlns:xlink="http://www.w3.org/1999/xlink" x="0px" y="0px"
	 viewBox="0 0 360 360" style="enable-background:new 0 0 360 360;" xml:space="preserve">
<style type="text/css">
	.st0{fill:#FFFFFF;}
</style>
<g>
	<path class="st0" d="M-0.1,360.1c0-120.1,0-240.2,0-360.2c120.1,0,240.2,0,360.2,0c0,120.1,0,240.2,0,360.2
		C240,360.1,120,360.1-0.1,360.1z M251,166.5c0,0.4,0,0.8,0,1.2c0,34.6,0,69.2,0,103.8c0,1.4-0.1,2.8-0.3,4.2
		c-0.7,5.3-3.8,8.3-9.1,8.6c-3.5,0.2-7,0.4-10.5,0.2c-7.8-0.4-15.5-1-23.3-1.6c-1.7-0.1-3.3-0.3-5-0.4c0,2.1,0,4,0,5.8
		c4,1,7.9,1.9,11.8,3c6.8,2,13.4,4.6,19.1,9c4.5,3.5,7.8,7.8,9,13.5c0,0.2,0.2,0.3,0.3,0.6c2.3-1.2,4.5-2.2,6.6-3.5
		c6.7-3.9,12.2-9.1,15.4-16.4c1.9-4.5,2.6-9.2,2.6-14c0-39.6,0-79.2,0-118.8c0-0.5,0-1.1,0-1.7c16.9,0,33.7,0,50.6,0
		c-6.8-7.6-13.4-15-20-22.4c-0.3,0.3-0.5,0.4-0.7,0.6c-5,4.7-10,9.3-15,13.9c-0.5,0.4-1.2,0.7-1.9,0.7c-3.9,0.1-7.8,0-11.6,0
		c-0.4,0-0.8,0-1.2-0.1c0-25.9,0-51.7,0-77.7c13.7,0,27.3,0,41.2,0c-7.2-7.6-14.2-15-21.5-22.7c-0.3,0.5-0.5,0.9-0.9,1.2
		c-4.4,4.5-8.9,8.9-13.3,13.3c-0.7,0.7-1.5,1-2.5,1c-43,0-85.9,0-128.9,0c-0.5,0-0.9,0-1.6,0c3.4,3.4,6.6,6.6,9.8,9.8
		c0.6,0.6,1.1,0.8,2,0.5c6.6-1.7,13.2-3.2,20.1-3.2c25.8,0,51.7,0,77.5,0c0.4,0,0.9,0,1.3,0c0,25.9,0,51.8,0,77.6
		c-25.1,0-50,0-75.1,0c0.1-0.5,0.2-0.9,0.3-1.3c4-12.8,8.1-25.7,12.1-38.5c0.3-0.9,0.8-1.6,1.6-2.2c2.5-1.8,4.9-3.7,7.4-5.5
		c0.3-0.2,0.5-0.4,0.9-0.7c-8.3-4.7-16.5-9.4-24.7-14.1c-0.1,0.4-0.2,0.8-0.3,1.1c-4,19.1-9,37.9-14.7,56.6
		c-0.3,0.9-0.7,1.4-1.5,1.9c-2.4,1.3-4.8,2.7-7.2,4.1c5.2,6,10.2,11.8,15.3,17.7c0.3-0.3,0.6-0.6,0.8-0.9c3-3.4,6.1-6.7,9.1-10.1
		c0.5-0.6,1.1-0.9,1.9-0.9c18.4,0,36.8,0,55.2,0c0.4,0,0.8,0,1.3,0.1c-2,4-3.9,7.8-5.8,11.6c-15.7,30.2-35.9,57.1-59.6,81.5
		c-14.1,14.4-29.1,27.7-45.1,40c-2,1.6-4,3.1-6.2,4.7c1.1,1.1,2.1,2,3.1,3c0.2,0.2,0.4,0.3,0.6,0.5
		C177.4,269.6,220.5,224.3,251,166.5z"/>
	<path d="M251,166.5c-30.4,57.8-73.5,103.1-130.7,134.8c-0.2-0.2-0.4-0.3-0.6-0.5c-1-1-2-2-3.1-3c2.1-1.6,4.1-3.2,6.2-4.7
		c15.9-12.3,31-25.6,45.1-40c23.7-24.3,43.9-51.3,59.6-81.5c2-3.8,3.8-7.6,5.8-11.6c-0.6,0-1-0.1-1.3-0.1c-18.4,0-36.8,0-55.2,0
		c-0.8,0-1.4,0.3-1.9,0.9c-3,3.4-6,6.7-9.1,10.1c-0.2,0.3-0.5,0.5-0.8,0.9c-5.1-5.9-10.2-11.8-15.3-17.7c2.4-1.4,4.8-2.8,7.2-4.1
		c0.8-0.4,1.2-1,1.5-1.9c5.7-18.7,10.7-37.5,14.7-56.6c0.1-0.3,0.2-0.7,0.3-1.1c8.2,4.7,16.4,9.4,24.7,14.1
		c-0.4,0.3-0.6,0.5-0.9,0.7c-2.5,1.9-4.9,3.7-7.4,5.5c-0.8,0.6-1.3,1.2-1.6,2.2c-4,12.8-8.1,25.7-12.1,38.5
		c-0.1,0.4-0.2,0.8-0.3,1.3c25.1,0,50.1,0,75.1,0c0-25.8,0-51.7,0-77.6c-0.5,0-0.9,0-1.3,0c-25.8,0-51.7,0-77.5,0
		c-6.8,0-13.5,1.5-20.1,3.2c-0.9,0.2-1.4,0.1-2-0.5c-3.2-3.2-6.4-6.4-9.8-9.8c0.7,0,1.2,0,1.6,0c43,0,85.9,0,128.9,0
		c1,0,1.8-0.3,2.5-1c4.4-4.5,8.9-8.9,13.3-13.3c0.3-0.3,0.5-0.7,0.9-1.2c7.2,7.6,14.2,15,21.5,22.7c-13.9,0-27.5,0-41.2,0
		c0,25.9,0,51.7,0,77.7c0.4,0,0.8,0.1,1.2,0.1c3.9,0,7.8,0,11.6,0c0.6,0,1.4-0.3,1.9-0.7c5-4.6,10-9.3,15-13.9
		c0.2-0.2,0.4-0.4,0.7-0.6c6.6,7.4,13.2,14.8,20,22.4c-17,0-33.7,0-50.6,0c0,0.6,0,1.2,0,1.7c0,39.6,0,79.2,0,118.8
		c0,4.8-0.6,9.6-2.6,14c-3.2,7.3-8.7,12.5-15.4,16.4c-2.1,1.2-4.4,2.3-6.6,3.5c-0.2-0.3-0.3-0.4-0.3-0.6c-1.2-5.7-4.5-10-9-13.5
		c-5.7-4.4-12.2-7-19.1-9c-3.9-1.1-7.8-2-11.8-3c0-1.8,0-3.7,0-5.8c1.7,0.1,3.3,0.3,5,0.4c7.8,0.5,15.5,1.2,23.3,1.6
		c3.5,0.2,7,0,10.5-0.2c5.3-0.3,8.3-3.3,9.1-8.6c0.2-1.4,0.3-2.8,0.3-4.2c0-34.6,0-69.2,0-103.8C251,167.3,251,166.9,251,166.5z"/>
</g>
</svg>
