<?xml version="1.0" encoding="utf-8"?>
<!-- Generator: Adobe Illustrator 20.1.0, SVG Export Plug-In . SVG Version: 6.00 Build 0)  -->
<svg version="1.1" id="图层_1" xmlns="http://www.w3.org/2000/svg" xmlns:xlink="http://www.w3.org/1999/xlink" x="0px" y="0px"
	 viewBox="0 0 360 360" style="enable-background:new 0 0 360 360;" xml:space="preserve">
<style type="text/css">
	.st0{fill:#FFFFFF;}
</style>
<g>
	<path class="st0" d="M-0.1,360.1c0-120.1,0-240.2,0-360.2c120.1,0,240.2,0,360.2,0c0,120.1,0,240.2,0,360.2
		C240,360.1,120,360.1-0.1,360.1z M260.4,94c-0.1,0.2-0.2,0.3-0.3,0.5c-4.9,9.7-11,18.5-17.9,26.9c-0.4,0.5-0.6,0.9-1.4,0.5
		c-9.9-5.2-20.3-9.1-31-12.4c-2.8-0.9-5.5-1.7-8.4-2.5c-0.4,1.3-0.8,2.4-1.1,3.4c5.9,3.4,11.8,6.6,17.5,10
		c5.8,3.4,11.2,7.3,16.6,11.4c-11.4,13.9-24.6,25.8-38.9,36.5c0.4,0.7,0.8,1.2,1.2,1.8c0.4,0.6,0.8,1.2,1.2,1.8
		c17.2-9,32.7-20.1,47.1-32.9c0.2,0.1,0.3,0.1,0.3,0.1c8.8,6.8,16.8,14.3,23.3,23.3c1.3,1.9,2.9,3.6,4.6,5.1
		c2.4,2.1,4.7,1.6,6.2-1.2c2-3.9,2.8-8.1,2-12.4c-0.9-5-3.9-8.7-7.7-11.8c-4.8-4-10.3-7-15.8-9.9c-1.9-1-3.7-1.9-5.7-2.8
		c0.2-0.3,0.4-0.4,0.5-0.6c5.1-5.1,10.2-10.2,15.4-15.3c0.4-0.3,0.8-0.6,1.3-0.8c2.8-1,5.7-1.9,8.5-2.9c0.4-0.1,0.8-0.3,1.3-0.5
		C272.9,104.1,266.7,99,260.4,94z M254.5,214.2c7.5,6.2,14.4,13,19.9,21c1.1,1.6,2.4,3.2,3.8,4.6c2.2,2,4.3,1.6,5.4-1.1
		c0.9-2,1.5-4.2,1.9-6.4c1-5.6-0.1-10.7-4.5-14.6c-2.4-2.1-4.9-4.2-7.6-6.1c-3.4-2.4-7-4.6-10.5-7c0.1-0.2,0.3-0.4,0.5-0.6
		c3.3-3.9,6.8-7.7,10-11.8c2.3-3,5-4.9,8.7-5.4c1-0.1,1.9-0.6,3.1-0.9c-5.6-5.2-11-10.2-16.5-15.4c-5.4,9.9-11.1,19.3-17.7,28.3
		c-11.3-6.5-23.1-11.2-35.4-15.3c-0.4,1.2-0.8,2.4-1.1,3.3c5.3,3.4,10.6,6.6,15.7,10.1c5.1,3.5,10,7.4,15.2,11.4
		c-9.2,10.8-18.2,21.4-27.4,32.1c0.4,0.4,1,0.9,1.6,1.4c0.2,0.2,0.5,0.4,0.8,0.7C232.7,234.1,243.7,224.3,254.5,214.2z"/>
	<path d="M260.4,94c6.3,5.1,12.5,10.1,18.9,15.3c-0.5,0.2-0.9,0.4-1.3,0.5c-2.8,1-5.7,1.9-8.5,2.9c-0.5,0.2-1,0.4-1.3,0.8
		c-5.1,5.1-10.2,10.2-15.4,15.3c-0.1,0.1-0.3,0.3-0.5,0.6c1.9,1,3.8,1.9,5.7,2.8c5.5,2.9,11,5.9,15.8,9.9c3.8,3.1,6.8,6.8,7.7,11.8
		c0.8,4.4,0,8.5-2,12.4c-1.5,2.8-3.8,3.3-6.2,1.2c-1.7-1.5-3.3-3.3-4.6-5.1c-6.5-9.1-14.6-16.5-23.3-23.3c-0.1,0-0.1-0.1-0.3-0.1
		c-14.3,12.8-29.9,23.9-47.1,32.9c-0.4-0.6-0.8-1.2-1.2-1.8c-0.4-0.6-0.7-1.1-1.2-1.8c14.2-10.7,27.4-22.6,38.9-36.5
		c-5.3-4.1-10.8-8-16.6-11.4c-5.7-3.4-11.6-6.6-17.5-10c0.3-1,0.7-2.1,1.1-3.4c2.8,0.9,5.6,1.7,8.4,2.5c10.6,3.4,21.1,7.2,31,12.4
		c0.8,0.4,1.1,0,1.4-0.5c6.9-8.4,13-17.2,17.9-26.9C260.2,94.3,260.3,94.2,260.4,94z"/>
	<path d="M254.5,214.2c-10.9,10.1-21.9,19.9-34.1,28.2c-0.3-0.3-0.5-0.5-0.8-0.7c-0.6-0.5-1.1-1-1.6-1.4
		c9.1-10.7,18.1-21.3,27.4-32.1c-5.2-3.9-10.1-7.8-15.2-11.4c-5.1-3.5-10.4-6.7-15.7-10.1c0.3-1,0.7-2.1,1.1-3.3
		c12.2,4.1,24.1,8.8,35.4,15.3c6.6-9,12.3-18.4,17.7-28.3c5.5,5.1,10.9,10.2,16.5,15.4c-1.1,0.3-2.1,0.8-3.1,0.9
		c-3.7,0.5-6.4,2.5-8.7,5.4c-3.1,4.1-6.6,7.9-10,11.8c-0.2,0.2-0.3,0.4-0.5,0.6c3.5,2.3,7.1,4.5,10.5,7c2.6,1.9,5.1,3.9,7.6,6.1
		c4.5,3.9,5.6,9,4.5,14.6c-0.4,2.2-1,4.4-1.9,6.4c-1.2,2.7-3.3,3.1-5.4,1.1c-1.4-1.3-2.7-2.9-3.8-4.6
		C268.9,227.2,262.1,220.5,254.5,214.2z"/>
</g>
</svg>
