<?xml version="1.0" encoding="utf-8"?>
<!-- Generator: Adobe Illustrator 20.1.0, SVG Export Plug-In . SVG Version: 6.00 Build 0)  -->
<svg version="1.1" id="图层_1" xmlns="http://www.w3.org/2000/svg" xmlns:xlink="http://www.w3.org/1999/xlink" x="0px" y="0px"
	 viewBox="0 0 360 360" style="enable-background:new 0 0 360 360;" xml:space="preserve">
<style type="text/css">
	.st0{fill:#FFFFFF;}
</style>
<g>
	<path class="st0" d="M-0.1,360.1c0-120.1,0-240.2,0-360.2c120.1,0,240.2,0,360.2,0c0,120.1,0,240.2,0,360.2
		C240,360.1,120,360.1-0.1,360.1z M260.4,94c-0.1,0.2-0.2,0.3-0.3,0.5c-4.9,9.7-11,18.5-17.9,26.9c-0.4,0.5-0.8,0.9-1.6,0.5
		c-9.7-5.1-20-8.9-30.4-12.2c-2.9-0.9-5.9-1.8-8.8-2.7c-0.4,1.3-0.8,2.5-1.2,3.6c12.1,6.1,23.5,13,34.1,21.2
		c-5.7,7-11.8,13.5-18.4,19.4c-6.6,5.9-13.5,11.5-20.3,17.3c0.7,1,1.4,2.1,2.2,3.3c17.2-9,32.7-20.1,47.1-32.9
		c0.2,0.1,0.3,0.1,0.3,0.1c8.7,6.8,16.8,14.2,23.3,23.2c1.4,1.9,2.9,3.7,4.7,5.2c2.4,2.1,4.7,1.6,6.2-1.2c2-3.9,2.8-8.1,2-12.4
		c-0.9-5-3.9-8.7-7.7-11.8c-4.8-4-10.3-7-15.8-9.9c-1.9-1-3.7-1.9-5.6-2.8c0.1-0.2,0.1-0.3,0.2-0.3c3.5-3.5,6.9-7,10.4-10.4
		c1.9-1.9,3.6-4.2,5.8-5.5c2.3-1.4,5.1-1.9,7.6-2.7c0.9-0.3,1.8-0.6,2.9-1C272.9,104.1,266.7,99,260.4,94z M109.6,131.7
		c-12.3,15-27,27.3-42.4,38.9c0.9,1.3,1.6,2.4,2.4,3.6c17.8-10,34.6-21.4,49.5-35.3c0.2,0.1,0.3,0.2,0.5,0.2
		c5.9,3.8,11.2,8.3,15.8,13.7c2.6,3.2,4.9,6.6,7.5,9.8c1.3,1.6,2.9,3.1,4.6,4.3c1.6,1.2,3.3,0.7,4.2-1.1c0.7-1.2,1.1-2.6,1.5-3.9
		c2.1-8.6,0.2-16.1-7.1-21.6c-3.7-2.7-7.6-5.1-11.6-7.5c-2.2-1.3-4.6-2.4-7.1-3.7c7.7-8.3,14.6-17.3,25.9-21.1
		c-6-4.8-11.8-9.5-17.6-14.1c-1.1,2.5-2.1,4.9-3.3,7.3c-4,7.7-9.3,14.5-14.9,21.1c-0.6,0.7-1.1,0.9-2,0.5
		c-10.8-4.4-21.7-8.7-32.6-13c-1.7-0.7-3.4-1.2-5.2-1.8c-0.8,1.2-1.6,2.4-2.4,3.6C87.4,117.3,98.5,124.4,109.6,131.7z M127.3,167
		c-3.4,11.2-9.6,20.5-16.5,29.4c-11.9-6.3-24.1-11.6-36.5-16.5c-0.3,0.8-0.4,1.6-0.8,2.3c-0.6,1.1-0.1,1.6,0.8,2.2
		c9,6.2,17.9,12.5,26.8,18.7c1.3,0.9,2.5,1.8,3.8,2.8c-10.1,14.2-22,26.6-35.4,37.8c0.7,0.6,1.3,1.1,1.9,1.7
		c0.5,0.5,0.8,0.6,1.4,0.2c1.9-1.1,3.9-2.1,5.9-3.3c13.3-7.9,24.8-18,35.5-29.1c0.5-0.5,0.8-1,1.3-1.6c0.5,0.4,0.7,0.5,0.9,0.7
		c7.1,5.8,13.4,12.2,18.8,19.6c1,1.4,2.2,2.8,3.5,3.9c2.4,2.1,4.4,1.6,5.6-1.3c1.5-3.9,1.9-7.9,1.3-12c-0.6-4.4-3.3-7.5-6.6-10.2
		c-4.2-3.4-8.9-6.1-13.7-8.6c-0.8-0.4-1.7-0.9-2.6-1.4c6.6-8,12.5-16.6,22.3-21.3C139,176.4,133.2,171.7,127.3,167z M268.7,170.5
		c-5.3,9.8-11.1,19.3-17.7,28.3c-11.2-6.4-23.1-11.2-35.3-15.3c-0.2,0.7-0.4,1.2-0.6,1.8c-0.2,0.6-0.4,1.2-0.6,1.8
		c11,6,21.1,13.1,30.8,21.4c-9.1,10.6-18,21.2-27,31.7c0.6,0.7,1.4,1.5,2.2,2.3c12.3-8.3,23.3-18.2,34-28.2c0.2,0.1,0.2,0.1,0.3,0.1
		c7.5,6.2,14.5,13.1,20,21.2c1.1,1.6,2.3,3.1,3.8,4.3c2,1.8,3.9,1.3,5.1-1c0.8-1.7,1.4-3.5,1.8-5.3c1.6-6.8,0.1-12.5-5.5-17.1
		c-4.7-3.9-9.8-7.3-15-10.6c-0.7-0.4-1.3-0.8-2-1.3c0.3-0.4,0.6-0.7,0.8-1c4-4.7,8.1-9.4,12.1-14.1c0.8-0.9,1.6-1.5,2.8-1.8
		c2.2-0.5,4.3-1.2,6.6-1.9C279.6,180.7,274.2,175.7,268.7,170.5z"/>
	<path d="M260.4,94c6.3,5.1,12.5,10.1,18.9,15.3c-1.1,0.4-2,0.7-2.9,1c-2.6,0.9-5.4,1.4-7.6,2.7c-2.2,1.4-3.9,3.7-5.8,5.5
		c-3.5,3.5-7,7-10.4,10.4c-0.1,0.1-0.1,0.1-0.2,0.3c1.9,0.9,3.8,1.9,5.6,2.8c5.5,2.9,11,5.9,15.8,9.9c3.8,3.1,6.8,6.8,7.7,11.8
		c0.8,4.4,0,8.5-2,12.4c-1.5,2.8-3.8,3.3-6.2,1.2c-1.8-1.5-3.3-3.4-4.7-5.2c-6.5-9-14.5-16.5-23.3-23.2c-0.1,0-0.1-0.1-0.3-0.1
		c-14.3,12.8-29.9,23.9-47.1,32.9c-0.8-1.2-1.6-2.3-2.2-3.3c6.8-5.8,13.7-11.4,20.3-17.3c6.6-5.9,12.7-12.4,18.4-19.4
		c-10.6-8.2-22.1-15.1-34.1-21.2c0.4-1.2,0.8-2.3,1.2-3.6c3,0.9,5.9,1.8,8.8,2.7c10.4,3.3,20.7,7.1,30.4,12.2
		c0.8,0.4,1.1,0.1,1.6-0.5c6.8-8.4,13-17.2,17.9-26.9C260.2,94.3,260.3,94.2,260.4,94z"/>
	<path d="M109.6,131.7c-11-7.3-22.1-14.4-34.1-20c0.8-1.2,1.5-2.3,2.4-3.6c1.7,0.6,3.5,1.2,5.2,1.8c10.9,4.3,21.7,8.6,32.6,13
		c0.9,0.4,1.4,0.3,2-0.5c5.6-6.6,10.9-13.4,14.9-21.1c1.2-2.3,2.2-4.8,3.3-7.3c5.8,4.6,11.6,9.3,17.6,14.1
		c-11.4,3.8-18.3,12.9-25.9,21.1c2.5,1.3,4.9,2.3,7.1,3.7c3.9,2.4,7.9,4.7,11.6,7.5c7.3,5.5,9.1,12.9,7.1,21.6
		c-0.3,1.3-0.8,2.7-1.5,3.9c-1,1.8-2.6,2.3-4.2,1.1c-1.7-1.2-3.3-2.7-4.6-4.3c-2.6-3.2-4.9-6.6-7.5-9.8c-4.5-5.4-9.9-9.9-15.8-13.7
		c-0.1-0.1-0.3-0.1-0.5-0.2c-14.9,13.9-31.6,25.3-49.5,35.3c-0.8-1.2-1.5-2.3-2.4-3.6C82.6,159,97.2,146.7,109.6,131.7z"/>
	<path d="M127.3,167c5.9,4.8,11.7,9.4,17.6,14c-9.8,4.6-15.6,13.2-22.3,21.3c1,0.5,1.8,0.9,2.6,1.4c4.8,2.5,9.4,5.2,13.7,8.6
		c3.3,2.7,5.9,5.8,6.6,10.2c0.6,4.1,0.2,8.1-1.3,12c-1.2,3-3.2,3.5-5.6,1.3c-1.3-1.2-2.5-2.5-3.5-3.9c-5.4-7.4-11.8-13.8-18.8-19.6
		c-0.2-0.2-0.4-0.3-0.9-0.7c-0.4,0.5-0.8,1.1-1.3,1.6c-10.7,11.1-22.2,21.2-35.5,29.1c-1.9,1.1-3.9,2.1-5.9,3.3
		c-0.6,0.3-1,0.3-1.4-0.2c-0.5-0.6-1.2-1.1-1.9-1.7c13.4-11.2,25.4-23.5,35.4-37.8c-1.3-1-2.5-1.9-3.8-2.8
		c-8.9-6.3-17.9-12.5-26.8-18.7c-0.9-0.6-1.3-1.1-0.8-2.2c0.4-0.7,0.5-1.4,0.8-2.3c12.5,4.9,24.6,10.1,36.5,16.5
		C117.7,187.5,124,178.2,127.3,167z"/>
	<path d="M268.7,170.5c5.6,5.2,11,10.2,16.6,15.4c-2.3,0.7-4.4,1.4-6.6,1.9c-1.2,0.3-2.1,0.9-2.8,1.8c-4,4.7-8.1,9.4-12.1,14.1
		c-0.3,0.3-0.5,0.6-0.8,1c0.7,0.4,1.4,0.9,2,1.3c5.2,3.2,10.3,6.6,15,10.6c5.5,4.6,7.1,10.3,5.5,17.1c-0.4,1.8-1,3.6-1.8,5.3
		c-1.1,2.4-3.1,2.8-5.1,1c-1.4-1.3-2.7-2.7-3.8-4.3c-5.5-8.2-12.4-15-20-21.2c-0.1,0-0.1-0.1-0.3-0.1c-10.8,10-21.8,19.8-34,28.2
		c-0.8-0.8-1.6-1.6-2.2-2.3c9-10.5,17.9-21.1,27-31.7c-9.7-8.2-19.8-15.4-30.8-21.4c0.2-0.6,0.4-1.2,0.6-1.8
		c0.2-0.6,0.4-1.1,0.6-1.8c12.2,4.1,24.1,8.8,35.3,15.3C257.6,189.7,263.3,180.3,268.7,170.5z"/>
</g>
</svg>
