<?xml version="1.0" encoding="utf-8"?>
<!-- Generator: Adobe Illustrator 20.1.0, SVG Export Plug-In . SVG Version: 6.00 Build 0)  -->
<svg version="1.1" id="图层_1" xmlns="http://www.w3.org/2000/svg" xmlns:xlink="http://www.w3.org/1999/xlink" x="0px" y="0px"
	 viewBox="0 0 360 360" style="enable-background:new 0 0 360 360;" xml:space="preserve">
<style type="text/css">
	.st0{fill:#FFFFFF;}
</style>
<g>
	<path class="st0" d="M-0.1,360.1c0-120.1,0-240.2,0-360.2c120.1,0,240.2,0,360.2,0c0,120.1,0,240.2,0,360.2
		C240,360.1,120,360.1-0.1,360.1z M54.2,309.6c25.9-16,47.7-36.1,64.8-61.2c0.4,0.3,0.7,0.5,1,0.8c2.9,2.8,6,5.5,8.8,8.5
		c6,6.4,11,13.5,15.8,20.8c1.9,2.9,3.9,5.8,6.7,7.9c3.5,2.8,6.2,2.1,7.9-2c2.7-6.5,2.5-13-0.8-19.3c-2.3-4.4-5.7-7.8-9.2-11.1
		c-6.7-6.3-14.2-11.7-21.9-16.7c-0.4-0.2-0.7-0.5-1.1-0.7c0.2-0.2,0.2-0.4,0.3-0.5c5.6-7.5,11.2-15.1,16.9-22.6
		c2.9-3.9,5.9-7.7,9.8-10.6c3.4-2.6,6.9-5,10.5-7.6c-7.7-5-15.5-10.1-23.4-15.2c-4.9,17.9-14.1,33.4-24.7,48.2
		C100.8,215,83.6,205.9,66,197.6c-0.8,1.3-1.6,2.4-2.4,3.6c15.9,12,31.7,23.9,45.9,37.7c-4.4,7.3-9.3,14.1-14.5,20.6
		c-12,15-25.3,28.9-39,42.4c-1.4,1.4-2.7,2.8-4.1,4.3C52.7,307.3,53.4,308.4,54.2,309.6z M62.5,73.8c8.4,6.4,16.7,12.7,24.9,19.2
		c8.2,6.5,16.1,13.3,23.3,21.1c-13.9,23.3-32.3,42.7-51.8,61.2c0.8,1.6,1.6,3.1,2.4,4.8c23.7-15.6,44.1-34.3,60.2-57.8
		c2.7,2.5,5.3,4.9,7.9,7.4c7.1,7.1,13.2,14.9,18.4,23.4c1.8,2.9,3.8,5.8,6.6,7.9c2.6,1.9,4.9,1.5,6.4-1.4c3.1-6.2,3.7-12.6,0.7-19.1
		c-1.6-3.5-4.3-6.2-7.1-8.8c-7.7-7.1-16.1-13.3-24.7-19.2c-0.4-0.3-0.7-0.5-1.4-1c5.1-6.8,10.2-13.6,15.3-20.3
		c4.2-5.4,8.7-10.6,14.1-14.8c2.3-1.7,4.7-3.3,7.1-4.9c-7.3-5.4-14.8-10.9-22.2-16.4c-5.4,17.3-14.7,32.4-24.7,47.1
		c-16.2-13.2-34.5-22.6-53.1-31.8C64,71.6,63.3,72.7,62.5,73.8z"/>
	<path d="M54.2,309.6c-0.8-1.2-1.6-2.4-2.3-3.4c1.4-1.5,2.7-2.9,4.1-4.3c13.7-13.5,27-27.4,39-42.4c5.2-6.5,10.1-13.3,14.5-20.6
		c-14.2-13.8-30.1-25.7-45.9-37.7c0.8-1.2,1.5-2.3,2.4-3.6c17.6,8.4,34.8,17.4,49.5,30.6c10.7-14.8,19.8-30.3,24.7-48.2
		c7.9,5.1,15.7,10.2,23.4,15.2c-3.5,2.6-7,5-10.5,7.6c-3.9,2.9-6.9,6.8-9.8,10.6c-5.7,7.5-11.3,15-16.9,22.6
		c-0.1,0.1-0.2,0.3-0.3,0.5c0.4,0.2,0.7,0.5,1.1,0.7c7.7,5.1,15.2,10.4,21.9,16.7c3.5,3.3,6.9,6.8,9.2,11.1
		c3.3,6.3,3.4,12.8,0.8,19.3c-1.7,4.1-4.4,4.8-7.9,2c-2.8-2.2-4.8-5-6.7-7.9c-4.8-7.3-9.8-14.4-15.8-20.8c-2.8-3-5.8-5.7-8.8-8.5
		c-0.3-0.3-0.6-0.5-1-0.8C101.9,273.6,80.1,293.6,54.2,309.6z"/>
	<path d="M62.5,73.8c0.7-1.1,1.5-2.2,2.3-3.5c18.5,9.2,36.8,18.6,53.1,31.8c10-14.7,19.3-29.8,24.7-47.1c7.5,5.5,14.9,11,22.2,16.4
		c-2.4,1.6-4.8,3.2-7.1,4.9c-5.5,4.2-9.9,9.4-14.1,14.8c-5.1,6.7-10.2,13.5-15.3,20.3c0.6,0.5,1,0.7,1.4,1c8.6,6,17,12.1,24.7,19.2
		c2.8,2.6,5.5,5.3,7.1,8.8c2.9,6.5,2.4,12.9-0.7,19.1c-1.4,2.9-3.8,3.3-6.4,1.4c-2.8-2.1-4.8-4.9-6.6-7.9
		c-5.3-8.5-11.4-16.3-18.4-23.4c-2.5-2.5-5.2-4.9-7.9-7.4c-16,23.5-36.5,42.2-60.2,57.8c-0.8-1.7-1.6-3.2-2.4-4.8
		c19.6-18.5,37.9-37.9,51.8-61.2c-7.2-7.7-15.1-14.6-23.3-21.1C79.2,86.5,70.9,80.2,62.5,73.8z"/>
</g>
</svg>
