<?xml version="1.0" encoding="utf-8"?>
<!-- Generator: Adobe Illustrator 20.1.0, SVG Export Plug-In . SVG Version: 6.00 Build 0)  -->
<svg version="1.1" id="图层_1" xmlns="http://www.w3.org/2000/svg" xmlns:xlink="http://www.w3.org/1999/xlink" x="0px" y="0px"
	 viewBox="0 0 360 360" style="enable-background:new 0 0 360 360;" xml:space="preserve">
<style type="text/css">
	.st0{fill:#FFFFFF;}
</style>
<g>
	<path class="st0" d="M0.2,360.5c0-120.1,0-240.2,0-360.2c120.1,0,240.2,0,360.2,0c0,120.1,0,240.2,0,360.2
		C240.4,360.5,120.3,360.5,0.2,360.5z M254.9,41.3c-2.6,4.1-5.1,8-7.6,12c-0.5,0.8-1,1-1.9,1c-40.8,0-81.7,0-122.5,0
		c-0.7,0-1.5-0.2-2.1-0.5c-3.3-1.7-6.6-3.5-9.9-5.3c-2.2-1.2-4.4-2.3-6.4-3.4c0.3,16.3,0.8,32.5,0.8,48.8c0,16.2-0.5,32.5-0.8,48.8
		c0.3-0.1,0.7-0.2,1-0.3c4.8-1.6,9.5-3.2,14.3-4.8c2.1-0.7,2.1-0.7,2.1-2.9c0-2.3,0-4.7,0-7.1c42.5,0,84.7,0,127.1,0
		c0,4.7,0,9.2,0,13.9c0.3-0.1,0.5-0.1,0.7-0.2c5.5-2.5,10.9-5.1,16.4-7.6c0.7-0.3,0.6-0.8,0.6-1.4c-0.3-8.5-0.7-16.9-0.9-25.4
		c-0.2-12.5-0.2-25-0.3-37.5c0-1.8-0.5-3.9,0.2-5.4c0.7-1.5,2.6-2.5,4-3.7c1.7-1.5,3.5-3,5.3-4.7C268.2,50.7,261.6,46,254.9,41.3z"
		/>
	<path d="M254.9,41.3c6.7,4.8,13.3,9.4,20.1,14.2c-1.8,1.6-3.6,3.1-5.3,4.7c-1.4,1.2-3.3,2.2-4,3.7c-0.7,1.5-0.2,3.6-0.2,5.4
		c0.1,12.5,0.1,25,0.3,37.5c0.1,8.5,0.6,16.9,0.9,25.4c0,0.6,0.1,1-0.6,1.4c-5.5,2.5-10.9,5.1-16.4,7.6c-0.2,0.1-0.4,0.1-0.7,0.2
		c0-4.7,0-9.3,0-13.9c-42.4,0-84.7,0-127.1,0c0,2.4,0,4.7,0,7.1c0,2.2,0,2.2-2.1,2.9c-4.8,1.6-9.5,3.2-14.3,4.8
		c-0.4,0.1-0.8,0.2-1,0.3c0.3-16.3,0.8-32.5,0.8-48.8c0-16.3-0.5-32.5-0.8-48.8c2,1.1,4.2,2.2,6.4,3.4c3.3,1.8,6.6,3.6,9.9,5.3
		c0.6,0.3,1.4,0.5,2.1,0.5c40.8,0,81.7,0,122.5,0c0.9,0,1.4-0.3,1.9-1C249.8,49.3,252.3,45.3,254.9,41.3z M248.9,94.4
		c-42.4,0-84.7,0-127,0c0,8.6,0,17.1,0,25.7c42.4,0,84.7,0,127,0C248.9,111.5,248.9,103,248.9,94.4z M121.9,61.5
		c0,8.7,0,17.2,0,25.7c42.4,0,84.6,0,126.9,0c0-8.6,0-17.1,0-25.7C206.5,61.5,164.2,61.5,121.9,61.5z"/>
	<path class="st0" d="M248.9,94.4c0,8.6,0,17.1,0,25.7c-42.3,0-84.6,0-127,0c0-8.6,0-17.1,0-25.7C164.2,94.4,206.5,94.4,248.9,94.4z
		"/>
	<path class="st0" d="M121.9,61.5c42.3,0,84.6,0,126.9,0c0,8.6,0,17.1,0,25.7c-42.3,0-84.5,0-126.9,0
		C121.9,78.6,121.9,70.1,121.9,61.5z"/>
</g>
</svg>
