<?xml version="1.0" encoding="utf-8"?>
<!-- Generator: Adobe Illustrator 20.1.0, SVG Export Plug-In . SVG Version: 6.00 Build 0)  -->
<svg version="1.1" id="图层_1" xmlns="http://www.w3.org/2000/svg" xmlns:xlink="http://www.w3.org/1999/xlink" x="0px" y="0px"
	 viewBox="0 0 360 360" style="enable-background:new 0 0 360 360;" xml:space="preserve">
<style type="text/css">
	.st0{fill:#FFFFFF;}
</style>
<g>
	<path class="st0" d="M0.2,360.5c0-120.1,0-240.2,0-360.2c120.1,0,240.2,0,360.2,0c0,120.1,0,240.2,0,360.2
		C240.4,360.5,120.3,360.5,0.2,360.5z M86.7,212c-0.1,0,0.1,0,0.3-0.1c5.5-2.2,10.9-4.4,16.4-6.5c0.7-0.3,0.7-0.7,0.7-1.3
		c0-3.2,0-6.3,0-9.5c0-0.4,0-0.8,0-1.2c51.1,0,102.1,0,153.1,0c0,3.5,0,6.9,0,10.4c0.3-0.1,0.5-0.1,0.6-0.1
		c5.5-2.2,10.9-4.4,16.4-6.5c0.6-0.3,0.7-0.6,0.6-1.2c-0.3-6.8-0.6-13.7-0.7-20.5c-0.2-9.9-0.3-19.8-0.3-29.6
		c-0.1-14.4,0-28.9-0.1-43.3c0-0.8,0.3-1.4,0.9-1.9c3.2-2.4,6.4-4.9,9.7-7.5c-6.7-5.2-13.4-10.2-20.1-15.4c-0.3,0.4-0.6,0.7-0.8,1
		c-2.7,3.7-5.3,7.3-8,11c-0.5,0.7-1,1-1.9,1c-49.5,0-99,0-148.6,0c-0.7,0-1.4-0.2-2-0.6c-5.2-3.1-10.4-6.2-15.6-9.4
		c-0.3-0.2-0.7-0.4-0.8-0.5c0.3,22,0.8,43.9,0.8,65.9C87.5,168.2,87,190.1,86.7,212z"/>
	<path d="M86.7,212c0.3-21.9,0.8-43.9,0.8-65.8c0-21.9-0.5-43.9-0.8-65.9c0.2,0.1,0.5,0.3,0.8,0.5c5.2,3.1,10.4,6.3,15.6,9.4
		c0.6,0.3,1.3,0.6,2,0.6c49.5,0,99,0,148.6,0c0.9,0,1.4-0.3,1.9-1c2.6-3.7,5.3-7.3,8-11c0.2-0.3,0.5-0.6,0.8-1
		c6.7,5.1,13.3,10.2,20.1,15.4c-3.3,2.6-6.5,5.1-9.7,7.5c-0.7,0.5-0.9,1-0.9,1.9c0,14.4,0,28.9,0.1,43.3c0,9.9,0.1,19.8,0.3,29.6
		c0.1,6.8,0.4,13.7,0.7,20.5c0,0.6,0,0.9-0.6,1.2c-5.5,2.2-10.9,4.4-16.4,6.5c-0.1,0.1-0.3,0.1-0.6,0.1c0-3.5,0-6.9,0-10.4
		c-51.1,0-102,0-153.1,0c0,0.4,0,0.8,0,1.2c0,3.2,0,6.3,0,9.5c0,0.6-0.1,1-0.7,1.3c-5.5,2.1-10.9,4.3-16.4,6.5
		C86.9,212,86.7,212,86.7,212z M257.2,145c-51.1,0-102.1,0-153.2,0c0,0.4,0,0.8,0,1.2c0,12.8,0,25.7,0,38.5c0,1.3,0.4,1.5,1.6,1.5
		c50.1,0,100.2,0,150.4,0c0.4,0,0.9,0,1.4,0C257.2,172.4,257.2,158.7,257.2,145z M257.7,97.4c-0.5,0-0.9,0-1.3,0
		c-50.2,0-100.4,0-150.6,0c-1.6,0-1.7,0.1-1.7,1.7c0,12.5,0,25,0,37.6c0,1.6,0.2,1.8,1.8,1.8c50.1,0,100.3,0,150.4,0
		c0.4,0,0.9,0,1.4,0C257.7,124.7,257.7,111.2,257.7,97.4z"/>
	<path class="st0" d="M257.2,145c0,13.7,0,27.4,0,41.2c-0.5,0-0.9,0-1.4,0c-50.1,0-100.2,0-150.4,0c-1.2,0-1.6-0.2-1.6-1.5
		c0-12.8,0-25.7,0-38.5c0-0.4,0-0.7,0-1.2C155,145,206.1,145,257.2,145z"/>
	<path class="st0" d="M257.7,97.4c0,13.7,0,27.3,0,41c-0.5,0-0.9,0-1.4,0c-50.1,0-100.3,0-150.4,0c-1.6,0-1.8-0.2-1.8-1.8
		c0-12.5,0-25,0-37.6c0-1.5,0.1-1.7,1.7-1.7c50.2,0,100.4,0,150.6,0C256.8,97.4,257.2,97.4,257.7,97.4z"/>
</g>
</svg>
