<?xml version="1.0" encoding="utf-8"?>
<!-- Generator: Adobe Illustrator 20.1.0, SVG Export Plug-In . SVG Version: 6.00 Build 0)  -->
<svg version="1.1" id="图层_1" xmlns="http://www.w3.org/2000/svg" xmlns:xlink="http://www.w3.org/1999/xlink" x="0px" y="0px"
	 viewBox="0 0 360 360" style="enable-background:new 0 0 360 360;" xml:space="preserve">
<style type="text/css">
	.st0{fill:#FFFFFF;}
</style>
<g>
	<path class="st0" d="M-0.1,360.1c0-120.1,0-240.2,0-360.2c120.1,0,240.2,0,360.2,0c0,120.1,0,240.2,0,360.2
		C240,360.1,120,360.1-0.1,360.1z M121.4,294.4c40.9,0,81.6,0,122.5,0c0,6.2,0,12.4,0,18.6c0.2,0,0.3,0,0.4,0
		c5.6-2.6,11.2-5.2,16.7-7.8c0.3-0.1,0.6-0.7,0.5-1.1c-0.3-13.1-0.8-26.3-0.9-39.4c-0.2-12.9-0.1-25.8-0.1-38.6c0-0.9,0.3-1.4,1-1.9
		c3.2-2.1,6.3-4.2,9.6-6.4c-6-5.2-11.8-10.2-17.7-15.4c-3.7,3.7-7.4,7.3-10.9,11c-0.6,0.6-1.2,0.9-2.1,0.9c-38.8,0-77.7,0-116.5,0
		c-0.7,0-1.5-0.2-2.2-0.5c-5.6-2.7-11.1-5.5-16.6-8.3c-0.4-0.2-0.8-0.3-1.3-0.6c1.6,37.4,1.5,74.5,0,111.9c0.5-0.2,0.7-0.3,1-0.5
		c5.3-3.2,10.5-6.4,15.8-9.5c0.8-0.5,1-1,1-1.8C121.4,301.4,121.4,298,121.4,294.4z"/>
	<path d="M121.4,294.4c0,3.6,0,7,0,10.4c0,0.9-0.2,1.4-1,1.8c-5.3,3.1-10.6,6.3-15.8,9.5c-0.2,0.1-0.5,0.2-1,0.5
		c1.5-37.3,1.6-74.5,0-111.9c0.6,0.2,1,0.4,1.3,0.6c5.5,2.8,11.1,5.6,16.6,8.3c0.7,0.3,1.4,0.5,2.2,0.5c38.8,0,77.7,0,116.5,0
		c0.9,0,1.5-0.3,2.1-0.9c3.6-3.6,7.2-7.3,10.9-11c5.9,5.1,11.8,10.2,17.7,15.4c-3.3,2.2-6.4,4.3-9.6,6.4c-0.8,0.5-1,1-1,1.9
		c0.1,12.9,0,25.8,0.1,38.6c0.2,13.1,0.6,26.3,0.9,39.4c0,0.4-0.2,1-0.5,1.1c-5.6,2.6-11.1,5.2-16.7,7.8c-0.1,0-0.2,0-0.4,0
		c0-6.2,0-12.4,0-18.6C203.1,294.4,162.3,294.4,121.4,294.4z M121.4,250.6c40.9,0,81.6,0,122.4,0c0-9.8,0-19.5,0-29.4
		c-0.5,0-0.9,0-1.3,0c-39.9,0-79.8,0-119.7,0c-1.1,0-1.4,0.3-1.4,1.4c0,8.9,0,17.8,0,26.6C121.4,249.6,121.4,250.1,121.4,250.6z
		 M121.5,257.8c0,9.8,0,19.5,0,29.2c40.8,0,81.6,0,122.3,0c0-9.8,0-19.5,0-29.2C203.1,257.8,162.4,257.8,121.5,257.8z"/>
	<path class="st0" d="M121.4,250.6c0-0.5,0-0.9,0-1.3c0-8.9,0-17.8,0-26.6c0-1.1,0.3-1.4,1.4-1.4c39.9,0,79.8,0,119.7,0
		c0.4,0,0.8,0,1.3,0c0,9.8,0,19.6,0,29.4C203.1,250.6,162.3,250.6,121.4,250.6z"/>
	<path class="st0" d="M121.5,257.8c40.8,0,81.5,0,122.3,0c0,9.8,0,19.5,0,29.2c-40.7,0-81.5,0-122.3,0
		C121.5,277.4,121.5,267.6,121.5,257.8z"/>
</g>
</svg>
