<?xml version="1.0" encoding="utf-8"?>
<!-- Generator: Adobe Illustrator 20.1.0, SVG Export Plug-In . SVG Version: 6.00 Build 0)  -->
<svg version="1.1" id="图层_1" xmlns="http://www.w3.org/2000/svg" xmlns:xlink="http://www.w3.org/1999/xlink" x="0px" y="0px"
	 viewBox="0 0 360 360" style="enable-background:new 0 0 360 360;" xml:space="preserve">
<style type="text/css">
	.st0{fill:#FFFFFF;}
</style>
<g>
	<path class="st0" d="M-0.1,360.1c0-120.1,0-240.2,0-360.2c120.1,0,240.2,0,360.2,0c0,120.1,0,240.2,0,360.2
		C240,360.1,120,360.1-0.1,360.1z M284,55c-3,3.8-5.9,7.4-8.8,11c-0.5,0.6-1,0.8-1.7,0.8c-22.5,0-45,0-67.4,0
		c-0.6,0-1.3-0.3-1.8-0.6c-4.9-3.4-9.7-6.9-14.6-10.4c-0.3-0.2-0.6-0.4-0.9-0.6c0,2.4,0,4.7,0,7c0.1,10.5,0.4,20.9,0.4,31.4
		c0,11.5-0.3,23.1-0.5,34.6c-0.2,9-1.4,17.8-3.6,26.5c-2.9,11.1-7.8,21.2-15.8,29.6c-5.7,6.1-12.2,11.4-19.2,16.1
		c-2.8,1.9-5.6,3.6-8.5,5.5c0.8,1.2,1.5,2.3,2.3,3.5c0.4-0.2,0.7-0.3,1-0.4c3.5-1.7,7.1-3.3,10.6-5.1c11-5.7,21.3-12.4,30-21.3
		c7.4-7.6,12.9-16.2,15.8-26.5c0.7-2.6,1.2-5.3,1.8-7.9c24.7,0,49.3,0,73.9,0c0,6.2,0.2,12.2-0.1,18.3c-0.2,5.8-3.6,9-9.1,8.6
		c-8.6-0.5-17.1-1.2-25.7-1.8c-2.1-0.1-4.1-0.4-6.2-0.6c0,1.7,0,3.2,0,4.7c1.5,0.3,2.8,0.5,4.2,0.8c6.7,1.4,13.3,3,19.4,6.3
		c5.2,2.8,9.5,6.2,9.4,13c6.3-1.9,12.2-4.4,17-9c3-2.9,5.1-6.3,5.9-10.4c0.5-2.7,0.6-5.5,0.6-8.2c0-29.4,0.1-58.9-0.1-88.3
		c0-3.1,0.6-5.2,3.4-6.8c2.2-1.2,4-3,6.1-4.5C295.7,65.2,289.9,60.2,284,55z"/>
	<path d="M284,55c5.9,5.1,11.8,10.2,17.7,15.4c-2.1,1.6-4,3.3-6.1,4.5c-2.8,1.6-3.4,3.7-3.4,6.8c0.1,29.4,0.1,58.9,0.1,88.3
		c0,2.7-0.1,5.5-0.6,8.2c-0.8,4.1-2.9,7.5-5.9,10.4c-4.8,4.7-10.7,7.1-17,9c0.1-6.7-4.2-10.2-9.4-13c-6.1-3.2-12.7-4.9-19.4-6.3
		c-1.4-0.3-2.7-0.5-4.2-0.8c0-1.5,0-3.1,0-4.7c2.1,0.2,4.2,0.4,6.2,0.6c8.6,0.6,17.1,1.3,25.7,1.8c5.5,0.3,8.9-2.8,9.1-8.6
		c0.3-6.1,0.1-12.1,0.1-18.3c-24.6,0-49.3,0-73.9,0c-0.6,2.6-1,5.3-1.8,7.9c-2.8,10.3-8.4,18.9-15.8,26.5c-8.7,8.9-19,15.6-30,21.3
		c-3.5,1.8-7,3.4-10.6,5.1c-0.3,0.2-0.7,0.3-1,0.4c-0.8-1.2-1.6-2.3-2.3-3.5c2.9-1.9,5.8-3.6,8.5-5.5c7-4.7,13.4-9.9,19.2-16.1
		c7.9-8.5,12.9-18.5,15.8-29.6c2.3-8.7,3.4-17.6,3.6-26.5c0.3-11.5,0.5-23.1,0.5-34.6c0-10.5-0.2-20.9-0.4-31.4c0-2.3,0-4.6,0-7
		c0.3,0.2,0.6,0.4,0.9,0.6c4.8,3.5,9.7,6.9,14.6,10.4c0.5,0.4,1.2,0.6,1.8,0.6c22.5,0,45,0,67.4,0c0.7,0,1.2-0.2,1.7-0.8
		C278,62.4,281,58.8,284,55z M205.1,104.5c24,0,47.8,0,71.7,0c0-10.2,0-20.3,0-30.4c-23.9,0-47.8,0-71.7,0
		C205.1,84.2,205.1,94.3,205.1,104.5z M205.2,111.7c-0.4,9.8-0.8,19.5-1.2,29.2c24.3,0,48.6,0,72.9,0c0-9.8,0-19.5,0-29.2
		C252.9,111.7,229.1,111.7,205.2,111.7z"/>
	<path class="st0" d="M205.1,104.5c0-10.2,0-20.2,0-30.4c23.9,0,47.7,0,71.7,0c0,10.1,0,20.2,0,30.4
		C252.9,104.5,229.1,104.5,205.1,104.5z"/>
	<path class="st0" d="M205.2,111.7c23.9,0,47.7,0,71.6,0c0,9.8,0,19.4,0,29.2c-24.3,0-48.5,0-72.9,0
		C204.4,131.2,204.8,121.5,205.2,111.7z"/>
</g>
</svg>
