<?xml version="1.0" encoding="utf-8"?>
<!-- Generator: Adobe Illustrator 20.1.0, SVG Export Plug-In . SVG Version: 6.00 Build 0)  -->
<svg version="1.1" id="图层_1" xmlns="http://www.w3.org/2000/svg" xmlns:xlink="http://www.w3.org/1999/xlink" x="0px" y="0px"
	 viewBox="0 0 360 360" style="enable-background:new 0 0 360 360;" xml:space="preserve">
<style type="text/css">
	.st0{fill:#FFFFFF;}
</style>
<g>
	<path class="st0" d="M0.2,360.5c0-120.1,0-240.2,0-360.2c120.1,0,240.2,0,360.2,0c0,120.1,0,240.2,0,360.2
		C240.4,360.5,120.3,360.5,0.2,360.5z M245.7,319.3c4.8-2.2,9.6-4.8,13.9-8.2c3.6-2.8,6.1-6.4,7.6-10.7c1.2-3.6,1.9-7.3,1.9-11.1
		c0-22.6,0-45.2,0-67.8c0-1.6-0.4-3.3,0.2-4.6c0.6-1.3,2.3-2,3.6-2.9c1.9-1.4,3.7-2.8,5.7-4.3c-6-5.6-11.8-11-17.7-16.6
		c-3.3,3.7-6.6,7.3-9.8,10.9c-0.5,0.6-1.1,0.9-1.9,0.9c-44.5,0-89,0-133.4,0c-0.7,0-1.4-0.2-1.9-0.4c-5.1-2.3-10.2-4.7-15.3-7.1
		c-0.4-0.2-0.8-0.4-1.1-0.5c0.3,19.8,0.8,39.6,0.8,59.4c0,19.8-0.5,39.6-0.8,59.4c0.3-0.1,0.7-0.2,1.1-0.3c5.1-1.7,10.1-3.4,15.2-5
		c1-0.3,1.2-0.7,1.2-1.7c0-13.6,0-27.2,0-40.8c0-0.5,0-0.9,0-1.4c46,0,91.8,0,137.7,0c0,0.2,0.1,0.4,0.1,0.5c0,6,0,12.1,0,18.1
		c0,1-0.2,2-0.4,3c-0.7,3.2-2.3,5.7-5.7,6.3c-1.6,0.3-3.2,0.3-4.8,0.1c-11.1-1-22.3-2-33.4-3c-1.3-0.1-2.6-0.3-3.9-0.4
		c0,1.7,0,3.2,0,4.4c5.9,2,11.7,3.7,17.3,5.8c6.8,2.6,13.1,6.3,18.4,11.5C241.9,314.8,243.7,317,245.7,319.3z"/>
	<path d="M245.7,319.3c-2-2.2-3.7-4.5-5.8-6.5c-5.2-5.2-11.5-8.9-18.4-11.5c-5.6-2.2-11.4-3.9-17.3-5.8c0-1.2,0-2.7,0-4.4
		c1.3,0.1,2.6,0.3,3.9,0.4c11.1,1,22.3,2,33.4,3c1.6,0.1,3.2,0.1,4.8-0.1c3.4-0.6,5.1-3.1,5.7-6.3c0.2-1,0.4-2,0.4-3
		c0-6,0-12.1,0-18.1c0-0.2,0-0.3-0.1-0.5c-45.9,0-91.7,0-137.7,0c0,0.5,0,1,0,1.4c0,13.6,0,27.2,0,40.8c0,0.9-0.2,1.4-1.2,1.7
		c-5.1,1.6-10.2,3.4-15.2,5c-0.4,0.1-0.8,0.2-1.1,0.3c0.3-19.8,0.8-39.6,0.8-59.4c0-19.8-0.5-39.6-0.8-59.4c0.2,0.1,0.6,0.3,1.1,0.5
		c5.1,2.4,10.2,4.8,15.3,7.1c0.6,0.3,1.3,0.4,1.9,0.4c44.5,0,89,0,133.4,0c0.8,0,1.4-0.3,1.9-0.9c3.2-3.6,6.5-7.2,9.8-10.9
		c5.9,5.5,11.8,11,17.7,16.6c-2,1.5-3.8,2.9-5.7,4.3c-1.2,0.9-2.9,1.7-3.6,2.9c-0.6,1.3-0.2,3-0.2,4.6c0,22.6,0,45.2,0,67.8
		c0,3.8-0.6,7.5-1.9,11.1c-1.5,4.3-4,7.9-7.6,10.7C255.2,314.5,250.5,317,245.7,319.3z M114.8,232c46,0,91.8,0,137.6,0
		c0-6.7,0-13.2,0-19.8c-45.9,0-91.8,0-137.6,0C114.8,218.9,114.8,225.4,114.8,232z M252.4,259.2c0-6.7,0-13.3,0-19.8
		c-45.9,0-91.8,0-137.6,0c0,6.7,0,13.2,0,19.8C160.7,259.2,206.5,259.2,252.4,259.2z"/>
	<path class="st0" d="M114.8,232c0-6.6,0-13.2,0-19.8c45.9,0,91.7,0,137.6,0c0,6.6,0,13.1,0,19.8C206.6,232,160.7,232,114.8,232z"/>
	<path class="st0" d="M252.4,259.2c-45.9,0-91.7,0-137.6,0c0-6.6,0-13.2,0-19.8c45.8,0,91.7,0,137.6,0
		C252.4,245.9,252.4,252.5,252.4,259.2z"/>
</g>
</svg>
