<?xml version="1.0" encoding="utf-8"?>
<!-- Generator: Adobe Illustrator 20.1.0, SVG Export Plug-In . SVG Version: 6.00 Build 0)  -->
<svg version="1.1" id="图层_1" xmlns="http://www.w3.org/2000/svg" xmlns:xlink="http://www.w3.org/1999/xlink" x="0px" y="0px"
	 viewBox="0 0 360 360" style="enable-background:new 0 0 360 360;" xml:space="preserve">
<style type="text/css">
	.st0{fill:#FFFFFF;}
</style>
<g>
	<path class="st0" d="M0.2,360.5c0-120.1,0-240.2,0-360.2c120.1,0,240.2,0,360.2,0c0,120.1,0,240.2,0,360.2
		C240.4,360.5,120.3,360.5,0.2,360.5z M71.2,50.8c-0.1,0.3-0.1,0.5-0.1,0.6c0.4,10.7,0.8,21.3,1.1,32c0.3,10.5,0.4,20.9,0.5,31.4
		c0.1,8.8,0.2,17.7,0.2,26.5c0,7.7-0.1,15.4-0.2,23c-0.1,6.1-0.2,12.2-0.4,18.3c-0.4,14.6-1.3,29.2-3,43.8
		c-1.2,9.9-2.9,19.7-5.7,29.4c-4.6,15.8-11.2,30.6-19.4,44.9c-0.9,1.5-1.7,3-2.7,4.6c1.2,0.8,2.4,1.6,3.6,2.4c1.6-2,3.2-3.9,4.7-5.9
		c9-11.5,17-23.7,23-37.1c8.9-20,12.6-41.2,14.2-62.8c0.2-3.2,0.4-6.4,0.6-9.7c14.5,0,28.9,0,43.5,0c0,0.6,0,1.2,0,1.7
		c0,24.8,0,49.5,0,74.3c0,0.8,0,1.7-0.1,2.5c-0.4,3.5-2.2,5.3-5.7,5.6c-0.7,0.1-1.4,0.1-2.2,0.1c-7.4-0.6-14.7-1.3-22.1-2
		c-2.9-0.3-5.8-0.7-8.8-1c0,1,0.1,2,0,2.9c-0.2,1.4,0.3,2,1.7,2.4c6.8,2,13.3,4.5,19.1,8.7c4.5,3.2,8,7.2,8.7,13.2
		c5.9-2.4,11.7-4.8,17-8.5c3.2-2.2,5.2-5.2,6.3-8.9c1.1-3.7,1.5-7.5,1.5-11.4c0-66.1,0-132.2,0-198.4c0-1.1,0.3-1.8,1.1-2.4
		c2.4-2,4.7-4,6.9-5.9c-4.7-4.7-9.4-9.4-14.2-14.2c-3.1,3.1-6.3,6.3-9.6,9.5c-0.5,0.4-1.2,0.8-1.8,0.8c-13.4,0-26.9,0-40.3,0
		c-0.6,0-1.3-0.2-1.9-0.6c-2.7-1.7-5.4-3.4-8.1-5.2C76.2,54,73.8,52.4,71.2,50.8z"/>
	<path d="M71.2,50.8c2.6,1.7,5,3.2,7.5,4.8c2.7,1.7,5.4,3.5,8.1,5.2c0.5,0.3,1.2,0.6,1.9,0.6c13.4,0,26.9,0,40.3,0
		c0.6,0,1.4-0.4,1.8-0.8c3.3-3.2,6.5-6.4,9.6-9.5c4.7,4.7,9.5,9.5,14.2,14.2c-2.1,1.8-4.5,3.9-6.9,5.9c-0.8,0.7-1.1,1.4-1.1,2.4
		c0,66.1,0,132.2,0,198.4c0,3.8-0.4,7.7-1.5,11.4c-1.1,3.7-3.2,6.7-6.3,8.9c-5.2,3.7-11,6.1-17,8.5c-0.7-5.9-4.2-9.9-8.7-13.2
		c-5.8-4.1-12.4-6.7-19.1-8.7c-1.4-0.4-1.9-1-1.7-2.4c0.1-0.9,0-1.9,0-2.9c3,0.4,5.9,0.8,8.8,1c7.4,0.7,14.7,1.4,22.1,2
		c0.7,0.1,1.4,0,2.2-0.1c3.5-0.3,5.3-2.1,5.7-5.6c0.1-0.8,0.1-1.7,0.1-2.5c0-24.8,0-49.5,0-74.3c0-0.5,0-1.1,0-1.7
		c-14.6,0-29,0-43.5,0c-0.2,3.2-0.3,6.5-0.6,9.7c-1.6,21.6-5.3,42.8-14.2,62.8c-6,13.4-14,25.6-23,37.1c-1.5,1.9-3.1,3.9-4.7,5.9
		c-1.2-0.8-2.4-1.6-3.6-2.4c0.9-1.6,1.8-3.1,2.7-4.6c8.1-14.2,14.8-29.1,19.4-44.9c2.8-9.6,4.6-19.4,5.7-29.4
		c1.7-14.5,2.5-29.1,3-43.8c0.2-6.1,0.3-12.2,0.4-18.3c0.1-7.7,0.2-15.4,0.2-23c0-8.8-0.1-17.7-0.2-26.5
		c-0.1-10.5-0.2-20.9-0.5-31.4c-0.3-10.7-0.7-21.3-1.1-32C71.1,51.2,71.1,51.1,71.2,50.8z M87.7,68.5c0,18.4,0,36.8,0,55.2
		c14.5,0,28.9,0,43.4,0c0-18.4,0-36.8,0-55.2C116.6,68.5,102.2,68.5,87.7,68.5z M87.7,131c0,18.1,0,36,0,54c14.5,0,28.9,0,43.4,0
		c0-18,0-36,0-54C116.6,131,102.2,131,87.7,131z"/>
	<path class="st0" d="M87.7,68.5c14.5,0,28.9,0,43.4,0c0,18.4,0,36.8,0,55.2c-14.5,0-28.9,0-43.4,0C87.7,105.3,87.7,86.9,87.7,68.5z
		"/>
	<path class="st0" d="M87.7,131c14.5,0,28.9,0,43.4,0c0,18,0,36,0,54c-14.4,0-28.9,0-43.4,0C87.7,167,87.7,149,87.7,131z"/>
</g>
</svg>
