<?xml version="1.0" encoding="utf-8"?>
<!-- Generator: Adobe Illustrator 20.1.0, SVG Export Plug-In . SVG Version: 6.00 Build 0)  -->
<svg version="1.1" id="图层_1" xmlns="http://www.w3.org/2000/svg" xmlns:xlink="http://www.w3.org/1999/xlink" x="0px" y="0px"
	 viewBox="0 0 360 360" style="enable-background:new 0 0 360 360;" xml:space="preserve">
<style type="text/css">
	.st0{fill:#FFFFFF;}
</style>
<g>
	<path class="st0" d="M0.2,360.5c0-120.1,0-240.2,0-360.2c120.1,0,240.2,0,360.2,0c0,120.1,0,240.2,0,360.2
		C240.4,360.5,120.3,360.5,0.2,360.5z M279.6,59c-4.8-6.8-9.4-13.4-14.1-20c-6,3-12.2,5.1-18.5,6.9c-15.6,4.5-31.5,7.4-47.5,9.5
		c-17.4,2.2-34.8,4-52.2,5.8c-10.9,1.1-21.8,2.1-32.7,3c-11.6,1-23.2,1.8-34.8,2.6c-2.9,0.2-5.7,0.3-8.6,0.5c0,2,0,3.9,0,5.9
		c0.5,0,0.8,0,1.2,0c9.1-0.5,18.3-0.9,27.4-1.4c8.5-0.5,17.1-1,25.6-1.5c9.6-0.6,19.3-1.3,28.9-2c8.5-0.6,17-1.3,25.5-2
		c9.8-0.8,19.7-1.7,29.5-2.5c10.5-0.9,21-1.7,31.6-2.5c9.4-0.7,18.9-1.3,28.4-1.8C272.6,59.1,276,59.1,279.6,59z M257.3,61.3
		c-2.3,6.2-5.8,11.6-9.4,16.8c-7.7,11.1-16.3,21.4-25.1,31.6c-0.3,0.3-0.5,0.6-0.9,1.1c2.4,0,4.6,0,6.7,0c0.4,0,0.7-0.2,1-0.5
		c11.1-8.6,22.2-17.1,33.1-25.8c2.8-2.2,5.5-4,9-4.5c1.4-0.2,2.8-0.7,4.4-1.1C269.8,73,263.6,67.2,257.3,61.3z M163,70.8
		c0.2,0.3,0.4,0.5,0.5,0.7c3.7,4.6,6.8,9.6,9.3,14.9c2.2,4.7,3.5,9.6,4.9,14.5c0.6,2.1,1.6,4.1,2.8,5.9c1.1,1.7,3,1.9,4.8,1.1
		c0.7-0.3,1.4-0.8,2-1.3c2.3-2,4.3-4.3,5.7-7.1c2.3-4.5,1.7-8.8-1.5-12.7c-0.9-1-1.8-2-2.8-2.9c-6.1-5.7-13.2-10-20.5-14.1
		C165.2,68.3,165.2,68.3,163,70.8z M120,111c2.1-1.7,4.1-3,5.7-4.7c1.8-1.8,3.4-3.8,4.7-6c1.8-3.1,1.4-6.3-0.8-9.2
		c-1-1.3-2.2-2.6-3.4-3.7c-6.2-5.6-13.4-9.4-20.8-13.1c-2.6-1.3-2.6-1.2-4.6,0.8c-0.1,0.1-0.2,0.2-0.3,0.4
		C109.8,85.7,115.1,98.1,120,111z"/>
	<path d="M279.6,59c-3.6,0.1-7,0.2-10.4,0.4c-9.5,0.6-18.9,1.1-28.4,1.8c-10.5,0.8-21,1.6-31.6,2.5c-9.8,0.8-19.7,1.7-29.5,2.5
		c-8.5,0.7-17,1.4-25.5,2c-9.6,0.7-19.3,1.4-28.9,2c-8.5,0.6-17.1,1.1-25.6,1.5c-9.1,0.5-18.3,0.9-27.4,1.4c-0.4,0-0.8,0-1.2,0
		c0-2,0-3.9,0-5.9c2.9-0.2,5.8-0.3,8.6-0.5c11.6-0.9,23.2-1.7,34.8-2.6c10.9-0.9,21.8-1.8,32.7-3c17.4-1.8,34.8-3.6,52.2-5.8
		c16.1-2,32-4.9,47.5-9.5c6.3-1.8,12.5-4,18.5-6.9C270.2,45.6,274.9,52.2,279.6,59z"/>
	<path d="M257.3,61.3c6.3,5.9,12.5,11.7,18.9,17.7c-1.6,0.4-3,0.9-4.4,1.1c-3.5,0.5-6.3,2.3-9,4.5c-10.9,8.7-22,17.2-33.1,25.8
		c-0.3,0.2-0.7,0.5-1,0.5c-2.1,0-4.3,0-6.7,0c0.4-0.5,0.7-0.8,0.9-1.1c8.8-10.2,17.4-20.6,25.1-31.6
		C251.5,72.9,254.9,67.5,257.3,61.3z"/>
	<path d="M163,70.8c2.3-2.5,2.3-2.5,5-1c7.3,4.1,14.3,8.4,20.5,14.1c1,0.9,2,1.9,2.8,2.9c3.3,3.9,3.8,8.2,1.5,12.7
		c-1.4,2.7-3.3,5.1-5.7,7.1c-0.6,0.5-1.3,0.9-2,1.3c-1.8,0.9-3.7,0.6-4.8-1.1c-1.2-1.8-2.2-3.8-2.8-5.9c-1.4-4.9-2.7-9.8-4.9-14.5
		c-2.5-5.4-5.6-10.3-9.3-14.9C163.4,71.3,163.2,71.1,163,70.8z"/>
	<path d="M120,111c-4.9-12.9-10.2-25.3-19.5-35.5c0.1-0.2,0.2-0.3,0.3-0.4c2-2,2-2.1,4.6-0.8c7.4,3.7,14.6,7.5,20.8,13.1
		c1.2,1.1,2.4,2.4,3.4,3.7c2.2,2.9,2.6,6.1,0.8,9.2c-1.3,2.2-2.9,4.2-4.7,6C124.1,108,122.1,109.4,120,111z"/>
</g>
</svg>
