<?xml version="1.0" encoding="utf-8"?>
<!-- Generator: Adobe Illustrator 20.1.0, SVG Export Plug-In . SVG Version: 6.00 Build 0)  -->
<svg version="1.1" id="图层_1" xmlns="http://www.w3.org/2000/svg" xmlns:xlink="http://www.w3.org/1999/xlink" x="0px" y="0px"
	 viewBox="0 0 360 360" style="enable-background:new 0 0 360 360;" xml:space="preserve">
<style type="text/css">
	.st0{fill:#FFFFFF;}
</style>
<g>
	<path class="st0" d="M-0.1,360.1c0-120.1,0-240.2,0-360.2c120.1,0,240.2,0,360.2,0c0,120.1,0,240.2,0,360.2
		C240,360.1,120,360.1-0.1,360.1z M218.2,43.4c0.4,20.1,0.8,40,1.2,60c-21.4,0-42.5,0-63.8,0c2.3,2.3,4.3,4.3,6.4,6.4
		c1,1,1.9,2.5,3.1,2.9c1.3,0.4,2.9-0.4,4.3-0.6c3.1-0.5,6.3-1.4,9.4-1.5c13-0.2,26-0.1,39-0.1c0.4,0,0.8,0,1.3,0
		c0,15.8,0,31.4,0,47.1c-19.2,0-38.3,0-57.7,0c3.1,3.1,6,6,9,8.9c0.3,0.3,0.9,0.4,1.4,0.4c1.5-0.2,3.1-0.5,4.6-0.8
		c2.5-0.4,4.9-0.9,7.4-1.3c0.1,0.3,0.2,0.6,0.2,0.8c2.9,14.2,6.5,28.2,11.3,41.8c5,14.3,11.2,28.1,19.6,40.8c0.6,1,0.6,1.5-0.2,2.4
		c-7.2,7-14.5,13.7-22.3,20c-22.1,18-46.3,32.3-73.2,42c-0.4,0.1-0.8,0.3-1.2,0.5c0.4,1.3,0.8,2.4,1.2,3.5
		c40.3-9.7,75.3-28.9,106-56.5c9.8,11.4,20.6,21.5,32.5,30.4c11.9,8.9,24.6,16.4,38.2,22.6c3-4.4,6.5-8,11.1-10.6
		c4.6-2.6,9.6-3.5,14.8-3.6c0-1.6,0-3.1,0-4.7c-34.9-2.8-62.8-19.5-87.1-43.5c0.1-0.2,0.2-0.3,0.3-0.4c7.9-8.8,14.7-18.4,20.9-28.3
		c10.1-16.1,18.6-33,26.6-50.3c0.3-0.7,0.9-1.4,1.6-1.8c3.1-2.2,6.3-4.2,9.5-6.4c-5.9-5.5-11.8-11-17.8-16.6
		c-3.3,3.3-6.5,6.6-9.7,9.8c-0.6,0.6-1.2,0.8-2,0.8c-9.4,0-18.7,0-28.1,0c-0.4,0-0.8,0-1.3,0c0-15.8,0-31.3,0-47
		c26.2,0,52.4,0,78.4,0c-6.6-6.6-13.2-13.2-19.9-19.9c-3.9,3.9-7.9,7.8-11.8,11.8c-0.6,0.6-1.2,0.9-2.1,0.9c-14.4,0-28.9,0-43.3,0
		c-0.4,0-0.9,0-1.3,0c0-0.3-0.1-0.5-0.1-0.7c0-12.4,0-24.9,0-37.3c0-0.5,0.4-1,0.7-1.3c2.6-2.1,5.2-4,7.7-6.1c0.6-0.5,1.3-1,2.1-1.7
		C236,51.9,227.1,47.6,218.2,43.4z"/>
	<path d="M218.2,43.4c9,4.3,17.9,8.6,27,12.9c-0.8,0.6-1.4,1.2-2.1,1.7c-2.6,2-5.2,4-7.7,6.1c-0.4,0.3-0.7,0.9-0.7,1.3
		c0,12.4,0,24.9,0,37.3c0,0.2,0,0.4,0.1,0.7c0.5,0,0.9,0,1.3,0c14.4,0,28.9,0,43.3,0c0.9,0,1.5-0.3,2.1-0.9c4-4,8-8,11.8-11.8
		c6.7,6.7,13.3,13.3,19.9,19.9c-26,0-52.2,0-78.4,0c0,15.7,0,31.3,0,47c0.4,0,0.8,0,1.3,0c9.4,0,18.7,0,28.1,0c0.8,0,1.4-0.2,2-0.8
		c3.2-3.3,6.5-6.5,9.7-9.8c6,5.6,11.8,11,17.8,16.6c-3.2,2.2-6.4,4.2-9.5,6.4c-0.6,0.4-1.3,1.1-1.6,1.8c-8,17.2-16.5,34.2-26.6,50.3
		c-6.2,10-13,19.6-20.9,28.3c-0.1,0.1-0.1,0.2-0.3,0.4c24.2,24,52.2,40.7,87.1,43.5c0,1.6,0,3.1,0,4.7c-5.2,0.1-10.2,1.1-14.8,3.6
		c-4.6,2.5-8.1,6.2-11.1,10.6c-13.6-6.2-26.3-13.7-38.2-22.6c-11.9-8.9-22.7-19-32.5-30.4c-30.7,27.6-65.8,46.8-106,56.5
		c-0.4-1.1-0.8-2.3-1.2-3.5c0.4-0.2,0.8-0.4,1.2-0.5c26.9-9.7,51.1-24.1,73.2-42c7.8-6.3,15.1-13,22.3-20c0.9-0.8,0.9-1.4,0.2-2.4
		c-8.3-12.7-14.5-26.5-19.6-40.8c-4.8-13.7-8.4-27.7-11.3-41.8c0-0.2-0.1-0.5-0.2-0.8c-2.5,0.4-5,0.9-7.4,1.3
		c-1.5,0.3-3.1,0.6-4.6,0.8c-0.4,0.1-1.1-0.1-1.4-0.4c-3-2.9-5.9-5.8-9-8.9c19.4,0,38.5,0,57.7,0c0-15.7,0-31.3,0-47.1
		c-0.4,0-0.8,0-1.3,0c-13,0-26-0.1-39,0.1c-3.2,0-6.3,1-9.4,1.5c-1.5,0.2-3.1,1-4.3,0.6c-1.2-0.4-2.1-1.8-3.1-2.9
		c-2.1-2.1-4.1-4.1-6.4-6.4c21.4,0,42.4,0,63.8,0C218.9,83.3,218.6,63.4,218.2,43.4z M189.8,164.8c0.1,0.5,0.2,0.8,0.3,1.2
		c2.6,9.8,5.7,19.4,9.5,28.8c5.6,14.1,12.4,27.5,21.8,39.5c1.2,1.5,2.4,3,3.7,4.6c17.2-22.7,30.5-47.3,40-74.1
		C239.9,164.8,214.9,164.8,189.8,164.8z"/>
	<path class="st0" d="M189.8,164.8c25.1,0,50,0,75.2,0c-9.5,26.8-22.8,51.3-40,74.1c-1.3-1.6-2.5-3-3.7-4.6
		c-9.3-12-16.2-25.4-21.8-39.5c-3.7-9.4-6.8-19-9.5-28.8C190,165.6,190,165.2,189.8,164.8z"/>
</g>
</svg>
