<?xml version="1.0" encoding="utf-8"?>
<!-- Generator: Adobe Illustrator 20.1.0, SVG Export Plug-In . SVG Version: 6.00 Build 0)  -->
<svg version="1.1" id="图层_1" xmlns="http://www.w3.org/2000/svg" xmlns:xlink="http://www.w3.org/1999/xlink" x="0px" y="0px"
	 viewBox="0 0 360 360" style="enable-background:new 0 0 360 360;" xml:space="preserve">
<style type="text/css">
	.st0{fill:#FFFFFF;}
</style>
<g>
	<path class="st0" d="M0.2,360.5c0-120.1,0-240.2,0-360.2c120.1,0,240.2,0,360.2,0c0,120.1,0,240.2,0,360.2
		C240.4,360.5,120.3,360.5,0.2,360.5z M320.8,286.4c-2.2,0.2-4.4,0.5-6.6,0.7c-15.2,1.8-30.4,2.9-45.7,3.2
		c-16.6,0.4-33.3-0.1-49.8-2.1c-12.2-1.4-24.2-3.6-36-7c-16.9-4.8-32.8-11.8-46.9-22.3c-2.4-1.8-4.7-3.7-6.8-5.3
		c4.5-6.8,9-13.3,13.2-20c10.9-17.9,19.2-37,26.2-56.7c0.3-0.9,0.8-1.5,1.7-2c3.1-1.7,6.2-3.4,9.4-5.2c-6-6.4-11.8-12.6-17.7-18.9
		c-0.4,0.4-0.7,0.6-1,0.9c-3,3-6,6-9,9c-0.4,0.4-1.2,0.7-1.7,0.7c-8.2,0-16.5,0-24.7,0c-0.4,0-0.8,0-1.2-0.1c0-16.9,0-33.7,0-50.6
		c20.4,0,40.7,0,60.8,0c-6.6-6.6-13.2-13.2-19.9-19.9c-0.2,0.2-0.4,0.6-0.7,0.9c-3.7,3.7-7.4,7.3-11,11c-0.6,0.6-1.2,0.9-2.1,0.9
		c-8.6,0-17.1,0-25.7,0c-0.4,0-0.9,0-1.3,0c0-0.4-0.1-0.7-0.1-0.9c0-12.7,0-25.4,0-38.2c0-0.5,0.4-1.1,0.8-1.4c2.6-2,5.2-4,7.9-5.9
		c0.2-0.2,0.4-0.4,0.7-0.7c-8.7-4.3-17.2-8.6-25.9-12.9c1,20.1,1.1,40.1,1.1,60.1c-20.9,0-41.5,0-62.5,0c2.3,2.3,4.4,4.4,6.5,6.4
		c1,1,1.9,2.5,3,2.8c1.3,0.4,2.9-0.3,4.3-0.6c3.1-0.5,6.2-1.4,9.3-1.5c12.7-0.2,25.4-0.1,38.2-0.1c0.3,0,0.7,0,1.1,0.1
		c0,16.8,0,33.6,0,50.6c-18.8,0-37.5,0-56.5,0c2.9,2.8,5.5,5.4,8.1,8.1c0.9,1,1.8,1.4,3.1,1c1.2-0.4,2.5-0.5,3.8-0.7
		c2.8-0.5,5.7-0.9,8.5-1.4c0.1,0.5,0.3,0.8,0.4,1.2c1.1,4.3,2.2,8.7,3.4,13c4.5,16.2,10.1,32,17.5,47.1c4.1,8.2,8.7,16,14.1,23.5
		c-19,22.8-41.2,41.9-67.1,56.5c0.2,0.9,0.4,1.6,0.6,2.4c0.2,0.8,0.4,1.5,0.6,2.4c28.5-11.9,53.1-29.2,74.2-51.7
		c0.2,0.2,0.4,0.3,0.6,0.5c4.4,4.9,9.4,9.1,14.7,13c12.6,9.1,26.6,15.4,41.3,20.2c16.1,5.2,32.7,8.3,49.5,10.4
		c13.4,1.6,26.9,2.6,40.4,2.9c8.6,0.2,17.3,0.1,25.9,0.2c2.6,0,5.3,0,7.7,0c0.7-1.9,1.2-3.5,1.9-5c2.2-4.5,5.8-7.7,10.2-10
		c3-1.6,6.2-2.8,9.4-4.2C320.8,289.5,320.8,288,320.8,286.4z"/>
	<path d="M320.8,286.4c0,1.6,0,3.2,0,4.5c-3.2,1.4-6.4,2.7-9.4,4.2c-4.4,2.3-8,5.4-10.2,10c-0.7,1.5-1.2,3.1-1.9,5c-2.4,0-5,0-7.7,0
		c-8.6,0-17.3,0-25.9-0.2c-13.5-0.3-27-1.3-40.4-2.9c-16.8-2.1-33.4-5.2-49.5-10.4c-14.7-4.7-28.7-11-41.3-20.2
		c-5.3-3.9-10.3-8.1-14.7-13c-0.2-0.2-0.4-0.3-0.6-0.5c-21,22.5-45.6,39.9-74.2,51.7c-0.2-0.8-0.4-1.6-0.6-2.4
		c-0.2-0.8-0.4-1.5-0.6-2.4c25.9-14.6,48.1-33.7,67.1-56.5c-5.4-7.5-10-15.3-14.1-23.5c-7.5-15.1-13-30.9-17.5-47.1
		c-1.2-4.3-2.3-8.7-3.4-13c-0.1-0.4-0.2-0.8-0.4-1.2c-2.9,0.5-5.7,0.9-8.5,1.4c-1.3,0.2-2.6,0.3-3.8,0.7c-1.4,0.4-2.2-0.1-3.1-1
		c-2.6-2.7-5.2-5.3-8.1-8.1c19,0,37.7,0,56.5,0c0-17,0-33.7,0-50.6c-0.4,0-0.7-0.1-1.1-0.1c-12.7,0-25.4-0.1-38.2,0.1
		c-3.1,0-6.2,1-9.3,1.5c-1.5,0.2-3,0.9-4.3,0.6c-1.2-0.3-2-1.8-3-2.8c-2.1-2.1-4.2-4.2-6.5-6.4c20.9,0,41.6,0,62.5,0
		c0-20.1-0.1-40-1.1-60.1c8.6,4.3,17.2,8.6,25.9,12.9c-0.3,0.3-0.5,0.5-0.7,0.7c-2.6,2-5.3,3.9-7.9,5.9c-0.4,0.3-0.8,0.9-0.8,1.4
		c0,12.7,0,25.4,0,38.2c0,0.3,0,0.5,0.1,0.9c0.5,0,0.9,0,1.3,0c8.6,0,17.1,0,25.7,0c0.9,0,1.5-0.3,2.1-0.9c3.7-3.7,7.3-7.4,11-11
		c0.3-0.3,0.6-0.7,0.7-0.9c6.7,6.7,13.3,13.3,19.9,19.9c-20.1,0-40.4,0-60.8,0c0,16.9,0,33.7,0,50.6c0.4,0,0.8,0.1,1.2,0.1
		c8.2,0,16.5,0,24.7,0c0.6,0,1.3-0.3,1.7-0.7c3-3,6-6,9-9c0.3-0.3,0.6-0.5,1-0.9c5.9,6.3,11.8,12.5,17.7,18.9
		c-3.2,1.8-6.3,3.5-9.4,5.2c-0.9,0.5-1.4,1.1-1.7,2c-7,19.7-15.3,38.8-26.2,56.7c-4.1,6.7-8.7,13.2-13.2,20c2.1,1.7,4.4,3.6,6.8,5.3
		c14.2,10.5,30,17.5,46.9,22.3c11.8,3.4,23.8,5.5,36,7c16.6,2,33.2,2.5,49.8,2.1c15.3-0.4,30.5-1.5,45.7-3.2
		C316.4,286.8,318.6,286.6,320.8,286.4z M153.5,168.7c-24.4,0-48.6,0-72.8,0c0.1,0.3,0.2,0.5,0.2,0.7c5.2,14.4,11,28.6,18.1,42.2
		c5.3,10.1,11.2,19.8,18.4,28.7c0.6,0.8,1.3,1.6,2,2.4C134.9,219.8,145.9,195.1,153.5,168.7z"/>
	<path class="st0" d="M153.5,168.7c-7.6,26.4-18.6,51.1-34.1,74c-0.7-0.9-1.4-1.6-2-2.4c-7.2-8.9-13.1-18.6-18.4-28.7
		c-7.1-13.6-12.9-27.8-18.1-42.2c-0.1-0.2-0.1-0.4-0.2-0.7C104.9,168.7,129.1,168.7,153.5,168.7z"/>
</g>
</svg>
