<?xml version="1.0" encoding="utf-8"?>
<!-- Generator: Adobe Illustrator 20.1.0, SVG Export Plug-In . SVG Version: 6.00 Build 0)  -->
<svg version="1.1" id="图层_1" xmlns="http://www.w3.org/2000/svg" xmlns:xlink="http://www.w3.org/1999/xlink" x="0px" y="0px"
	 viewBox="0 0 360 360" style="enable-background:new 0 0 360 360;" xml:space="preserve">
<style type="text/css">
	.st0{fill:#FFFFFF;}
</style>
<g>
	<path class="st0" d="M0.2,360.5c0-120.1,0-240.2,0-360.2c120.1,0,240.2,0,360.2,0c0,120.1,0,240.2,0,360.2
		C240.4,360.5,120.3,360.5,0.2,360.5z M272.2,75.4c-0.2,0.3-0.4,0.7-0.7,1c-4.1,4.1-8.2,8.2-12.3,12.3c-0.6,0.6-1.1,0.8-2,0.8
		c-20,0-39.9,0-59.9,0c-0.4,0-0.8,0-1.3,0c-0.1-0.3-0.1-0.4-0.1-0.5c0-9.4,0-18.8,0-28.2c0-0.4,0.4-0.9,0.7-1.2
		c2.9-2.3,5.8-4.5,8.7-6.8c0.4-0.3,0.7-0.6,1.2-0.9c-9.5-4.4-18.8-8.6-28-12.8c0.3,36.1,0.7,72.1,1,108.1c-20.3,0-40.2,0-60.1,0
		c0-0.3-0.1-0.6-0.1-0.8c0-18.6,0-37.3,0-55.9c0-0.5,0.4-1.1,0.7-1.4c2.9-2.3,5.8-4.5,8.7-6.8c0.3-0.3,0.6-0.5,1.1-0.9
		c-9.5-4.3-18.8-8.6-28.3-13c1.2,26.4,1,52.6,1.2,79c-18.5,0-36.9,0-55.4,0c3.6,3.6,6.9,6.9,10.3,10.3c0.2,0.2,0.8,0.2,1.2,0.1
		c9.2-2.4,18.5-3.3,27.9-3.3c22.7,0,45.4,0,68.2,0c53.9,0,107.8,0,161.8,0c0.5,0,1,0,1.4,0c-8.2-8.2-16.4-16.4-24.7-24.7
		c-0.2,0.2-0.4,0.7-0.7,1c-5.3,5.3-10.6,10.6-15.9,15.9c-0.4,0.4-1.2,0.8-1.8,0.8c-25.9,0-51.8,0-77.6,0c-0.4,0-0.8,0-1.2,0
		c0-17,0-33.8,0-50.6c32.5,0,65,0,97.4,0C286.5,89.6,279.5,82.6,272.2,75.4z"/>
	<path d="M272.2,75.4c7.3,7.3,14.3,14.3,21.3,21.3c-32.4,0-64.8,0-97.4,0c0,16.9,0,33.7,0,50.6c0.4,0,0.8,0,1.2,0
		c25.9,0,51.8,0,77.6,0c0.6,0,1.4-0.3,1.8-0.8c5.3-5.3,10.6-10.6,15.9-15.9c0.3-0.3,0.5-0.7,0.7-1c8.4,8.4,16.5,16.5,24.7,24.7
		c-0.4,0-0.9,0-1.4,0c-53.9,0-107.8,0-161.8,0c-22.7,0-45.4,0-68.2,0c-9.4,0-18.7,0.9-27.9,3.3c-0.4,0.1-1,0.1-1.2-0.1
		c-3.4-3.3-6.7-6.7-10.3-10.3c18.6,0,36.9,0,55.4,0c-0.2-26.4,0-52.6-1.2-79c9.5,4.3,18.8,8.6,28.3,13c-0.4,0.4-0.7,0.7-1.1,0.9
		c-2.9,2.3-5.8,4.5-8.7,6.8c-0.4,0.3-0.7,1-0.7,1.4c0,18.6,0,37.3,0,55.9c0,0.2,0,0.5,0.1,0.8c19.9,0,39.9,0,60.1,0
		c-0.3-36.1-0.7-72.1-1-108.1c9.1,4.2,18.5,8.5,28,12.8c-0.5,0.4-0.8,0.7-1.2,0.9c-2.9,2.3-5.8,4.5-8.7,6.8
		c-0.4,0.3-0.7,0.8-0.7,1.2c0,9.4,0,18.8,0,28.2c0,0.1,0,0.2,0.1,0.5c0.4,0,0.8,0,1.3,0c20,0,39.9,0,59.9,0c0.8,0,1.4-0.3,2-0.8
		c4.1-4.1,8.2-8.2,12.3-12.3C271.8,76.1,272,75.7,272.2,75.4z"/>
</g>
</svg>
