<?xml version="1.0" encoding="utf-8"?>
<!-- Generator: Adobe Illustrator 20.1.0, SVG Export Plug-In . SVG Version: 6.00 Build 0)  -->
<svg version="1.1" id="图层_1" xmlns="http://www.w3.org/2000/svg" xmlns:xlink="http://www.w3.org/1999/xlink" x="0px" y="0px"
	 viewBox="0 0 360 360" style="enable-background:new 0 0 360 360;" xml:space="preserve">
<style type="text/css">
	.st0{fill:#FFFFFF;}
</style>
<g>
	<path class="st0" d="M-0.1,360.1c0-120.1,0-240.2,0-360.2c120.1,0,240.2,0,360.2,0c0,120.1,0,240.2,0,360.2
		C240,360.1,120,360.1-0.1,360.1z M93.2,269.4c0-0.5,0-0.8,0-1c0-45.6,0-91.3,0-136.9c0-0.7,0.2-1.2,0.8-1.6c3-2.3,5.9-4.6,8.9-6.9
		c0.3-0.2,0.5-0.5,0.8-0.8c-9.1-4.7-18-9.4-27.1-14.1c0,0.7,0,1.1,0,1.5c0.2,9.3,0.5,18.7,0.7,28c0.2,9.5,0.4,19,0.4,28.5
		c0,35.2,0,70.5,0,105.7c0,0.8-0.2,1.2-1,1.4c-7.3,1.9-14.5,3.8-21.8,5.7c-3.3,0.8-6.7,1.6-10.1,2.4c4.7,7.8,9.3,15.6,14,23.4
		c1.8-2.5,4.3-4,6.8-5.3c7.2-3.7,14.3-7.5,21.6-10.8c29.6-13.4,59.8-25.3,90-37.2c7.4-2.9,14.7-5.7,22.1-8.6c0.4-0.1,1-0.6,0.9-0.8
		c-0.3-1.8-0.7-3.6-1.1-5.5c-17.3,5.5-34.5,11-51.7,16.5c0-32.2,0-64.3,0-96.6c18.8,0,37.4,0,56.1,0c-6.6-6.6-13.2-13.2-19.9-19.9
		c-4,4-8,8-12.1,12c-0.4,0.4-1.2,0.8-1.8,0.8c-7,0.1-14.1,0-21.1,0c-0.4,0-0.8,0-1.3,0c0-0.6,0-1.1,0-1.6c0-6.9,0-13.8,0-20.8
		c0-18.8,0-37.7,0-56.5c0-0.9,0.2-1.5,1-2c2.1-1.5,4.1-3.2,6.2-4.8c1.1-0.9,2.2-1.8,3.5-2.7c-9.5-4.7-18.8-9.4-28.3-14.1
		c0,0.7,0,1.2,0,1.7c0.5,13.1,1,26.2,1.4,39.3c0.3,12,0.5,24.1,0.7,36.1c0.1,8.4,0.2,16.9,0.2,25.3c0,35.7,0,71.4,0,107.2
		c0,1-0.3,1.4-1.3,1.7c-8.3,2.5-16.5,5-24.8,7.5C101.8,266.9,97.6,268.1,93.2,269.4z"/>
	<path d="M93.2,269.4c4.4-1.3,8.6-2.6,12.7-3.9c8.3-2.5,16.5-5,24.8-7.5c1-0.3,1.3-0.7,1.3-1.7c0-35.7,0-71.4,0-107.2
		c0-8.4,0-16.9-0.2-25.3c-0.2-12-0.4-24.1-0.7-36.1c-0.4-13.1-0.9-26.2-1.4-39.3c0-0.5,0-1,0-1.7c9.4,4.7,18.8,9.4,28.3,14.1
		c-1.2,1-2.4,1.9-3.5,2.7c-2,1.6-4.1,3.2-6.2,4.8c-0.7,0.5-1,1.1-1,2c0,18.8,0,37.7,0,56.5c0,6.9,0,13.8,0,20.8c0,0.5,0,0.9,0,1.6
		c0.5,0,0.9,0,1.3,0c7,0,14.1,0,21.1,0c0.6,0,1.4-0.3,1.8-0.8c4.1-4,8.1-8.1,12.1-12c6.6,6.6,13.2,13.2,19.9,19.9
		c-18.6,0-37.3,0-56.1,0c0,32.3,0,64.3,0,96.6c17.3-5.5,34.4-10.9,51.7-16.5c0.4,1.9,0.8,3.7,1.1,5.5c0,0.2-0.6,0.7-0.9,0.8
		c-7.4,2.9-14.7,5.7-22.1,8.6c-30.2,11.9-60.4,23.8-90,37.2c-7.3,3.3-14.5,7.1-21.6,10.8c-2.5,1.3-4.9,2.8-6.8,5.3
		c-4.7-7.8-9.3-15.6-14-23.4c3.5-0.8,6.8-1.5,10.1-2.4c7.3-1.9,14.5-3.8,21.8-5.7c0.9-0.2,1-0.6,1-1.4c0-35.2,0-70.5,0-105.7
		c0-9.5-0.2-19-0.4-28.5c-0.2-9.3-0.5-18.7-0.7-28c0-0.4,0-0.9,0-1.5c9.1,4.7,18,9.4,27.1,14.1c-0.3,0.3-0.6,0.6-0.8,0.8
		c-3,2.3-5.9,4.6-8.9,6.9c-0.6,0.4-0.8,0.9-0.8,1.6c0,45.6,0,91.3,0,136.9C93.2,268.7,93.2,269,93.2,269.4z"/>
</g>
</svg>
