<?xml version="1.0" encoding="utf-8"?>
<!-- Generator: Adobe Illustrator 20.1.0, SVG Export Plug-In . SVG Version: 6.00 Build 0)  -->
<svg version="1.1" id="图层_1" xmlns="http://www.w3.org/2000/svg" xmlns:xlink="http://www.w3.org/1999/xlink" x="0px" y="0px"
	 viewBox="0 0 360 360" style="enable-background:new 0 0 360 360;" xml:space="preserve">
<style type="text/css">
	.st0{fill:#FFFFFF;}
</style>
<g>
	<path class="st0" d="M-0.1,360.1c0-120.1,0-240.2,0-360.2c120.1,0,240.2,0,360.2,0c0,120.1,0,240.2,0,360.2
		C240,360.1,120,360.1-0.1,360.1z M207.4,69.2c0,0.5,0,0.8,0,1c0.3,12.1,0.7,24.2,0.9,36.3c0.2,9.4,0.2,18.7,0.2,28.1
		c0,10,0,20.1-0.1,30.1c-0.1,9.8-0.2,19.6-0.5,29.4c-0.3,11.6-0.7,23.2-1.2,34.7c-0.4,7.3-0.8,14.7-1.8,22
		c-1.9,14.6-6.1,28.6-12.1,42c-3,6.6-6.5,12.9-9.7,19.4c-0.2,0.4-0.4,1-0.2,1.3c0.6,1.1,1.4,2.1,2.2,3.3c0.4-0.4,0.6-0.8,0.9-1.1
		c20.3-21.6,30.9-47.5,33.7-76.7c0.9-9.2,1.1-18.5,1.5-27.8c0.4-12.7,0.7-25.4,1-38.1c0.2-11.8,0.4-23.7,0.5-35.5
		c0.1-17,0.1-34,0.2-51c0-0.4,0-0.7,0-1.1c-0.1-0.8,0.2-1.1,1-1.3c6.4-1.4,12.7-2.8,19.1-4.2c0.3-0.1,0.7-0.1,1.1-0.1
		c0,0.7,0,1.2,0,1.8c0,58,0,116.1,0,174.1c0,1.9,0,3.8-0.1,5.8c-0.2,10.6-0.3,21.3-0.5,31.9c-0.1,5.7-0.3,11.3-0.5,17
		c0,2,0,3.9,0,5.9c0.1,0,0.2,0,0.2,0c4.8-2.6,9.6-5.1,14.3-7.7c0.3-0.2,0.6-0.9,0.6-1.4c-0.4-13.7-1-27.4-1.1-41.1
		c-0.1-62.7-0.1-125.4-0.1-188c0-0.3,0-0.6,0-1c-0.1-0.8,0.2-1,0.9-1.2c2.5-0.6,5-1.3,7.5-2c3-0.8,6-1.6,9-2.4
		c0,0.4,0.1,0.6,0.1,0.9c-0.1,8.6-0.2,17.2-0.2,25.8c0,7.6,0,15.1,0.2,22.7c0.3,14.9,0.6,29.7,1,44.6c0.2,8.2,0.6,16.5,1.1,24.7
		c0.6,9.9,1.2,19.7,2.1,29.5c1,11.3,2.5,22.5,4.7,33.6c3,15.2,7.1,30,13.4,44.1c1.5,3.3,3.1,6.5,4.8,9.9c2.1-2.9,4.7-4.6,7.9-5.4
		c2.9-0.7,5.9-1.2,8.9-1.6c1.5-0.2,3-0.2,4.5-0.3c0-0.3,0.1-0.4,0.1-0.6c0-0.8,0.1-1.5,0-2.3c0-0.4-0.2-0.9-0.5-1.1
		c-6-6.2-10.5-13.3-14.3-21c-6.6-13.5-10.7-27.9-13.4-42.6c-1.8-9.6-3.2-19.2-4.4-28.9c-1.3-10.7-2.2-21.4-3.1-32.1
		c-0.8-9.4-1.3-18.7-1.8-28.1c-0.6-11.8-1.1-23.5-1.6-35.3c-0.4-9.3-0.6-18.5-0.8-27.8c-0.1-3.2,0-6.5,0-9.8c11-2.6,22.3-4.8,34-5.9
		c-5.2-6-10.3-11.8-15.3-17.7c-1.2,0.9-2.3,1.8-3.5,2.6c-7.3,5-15.3,8.6-23.5,11.9c-17.1,6.9-34.7,12.2-52.5,17.1
		c-0.4,0.1-1.1,0-1.5-0.3C216.4,75.2,212,72.3,207.4,69.2z"/>
	<path d="M207.4,69.2c4.6,3,8.9,6,13.4,8.9c0.4,0.3,1.1,0.4,1.5,0.3c17.7-4.9,35.4-10.2,52.5-17.1c8.2-3.3,16.2-6.9,23.5-11.9
		c1.1-0.8,2.2-1.7,3.5-2.6c5.1,5.8,10.1,11.6,15.3,17.7c-11.7,1.1-22.9,3.3-34,5.9c0,3.3-0.1,6.6,0,9.8c0.2,9.3,0.4,18.5,0.8,27.8
		c0.5,11.8,1,23.6,1.6,35.3c0.5,9.4,1,18.8,1.8,28.1c0.9,10.7,1.8,21.4,3.1,32.1c1.2,9.7,2.6,19.3,4.4,28.9
		c2.7,14.7,6.8,29.1,13.4,42.6c3.7,7.7,8.3,14.8,14.3,21c0.3,0.3,0.5,0.7,0.5,1.1c0.1,0.8,0,1.5,0,2.3c0,0.2,0,0.3-0.1,0.6
		c-1.5,0.1-3,0.1-4.5,0.3c-3,0.5-6,0.9-8.9,1.6c-3.1,0.8-5.8,2.5-7.9,5.4c-1.7-3.4-3.3-6.6-4.8-9.9c-6.4-14.1-10.5-29-13.4-44.1
		c-2.2-11.1-3.7-22.3-4.7-33.6c-0.8-9.8-1.5-19.7-2.1-29.5c-0.5-8.2-0.9-16.4-1.1-24.7c-0.4-14.9-0.7-29.7-1-44.6
		c-0.1-7.6-0.2-15.1-0.2-22.7c0-8.6,0.1-17.2,0.2-25.8c0-0.2,0-0.5-0.1-0.9c-3.1,0.8-6.1,1.6-9,2.4c-2.5,0.7-5,1.4-7.5,2
		c-0.7,0.2-1,0.5-0.9,1.2c0,0.3,0,0.6,0,1c0,62.7-0.1,125.4,0.1,188c0,13.7,0.7,27.4,1.1,41.1c0,0.5-0.2,1.2-0.6,1.4
		c-4.8,2.6-9.6,5.2-14.3,7.7c-0.1,0-0.2,0-0.2,0c0-2,0-3.9,0-5.9c0.1-5.7,0.4-11.3,0.5-17c0.2-10.6,0.3-21.3,0.5-31.9
		c0-1.9,0.1-3.8,0.1-5.8c0-58,0-116.1,0-174.1c0-0.6,0-1.1,0-1.8c-0.5,0-0.8,0.1-1.1,0.1c-6.4,1.4-12.7,2.8-19.1,4.2
		c-0.8,0.2-1.1,0.5-1,1.3c0,0.4,0,0.7,0,1.1c-0.1,17-0.1,34-0.2,51c-0.1,11.8-0.2,23.7-0.5,35.5c-0.3,12.7-0.5,25.4-1,38.1
		c-0.3,9.3-0.6,18.5-1.5,27.8c-2.8,29.2-13.4,55.1-33.7,76.7c-0.3,0.3-0.5,0.6-0.9,1.1c-0.8-1.2-1.6-2.2-2.2-3.3
		c-0.2-0.3,0.1-0.9,0.2-1.3c3.2-6.5,6.7-12.8,9.7-19.4c6.1-13.4,10.2-27.4,12.1-42c0.9-7.3,1.4-14.6,1.8-22
		c0.6-11.6,0.9-23.2,1.2-34.7c0.3-9.8,0.4-19.6,0.5-29.4c0.1-10,0.1-20.1,0.1-30.1c0-9.4,0-18.7-0.2-28.1
		c-0.2-12.1-0.6-24.2-0.9-36.3C207.4,70,207.4,69.7,207.4,69.2z"/>
</g>
</svg>
