<?xml version="1.0" encoding="utf-8"?>
<!-- Generator: Adobe Illustrator 20.1.0, SVG Export Plug-In . SVG Version: 6.00 Build 0)  -->
<svg version="1.1" id="图层_1" xmlns="http://www.w3.org/2000/svg" xmlns:xlink="http://www.w3.org/1999/xlink" x="0px" y="0px"
	 viewBox="0 0 360 360" style="enable-background:new 0 0 360 360;" xml:space="preserve">
<style type="text/css">
	.st0{fill:#FFFFFF;}
</style>
<g>
	<path class="st0" d="M0.2,360.5c0-120.1,0-240.2,0-360.2c120.1,0,240.2,0,360.2,0c0,120.1,0,240.2,0,360.2
		C240.4,360.5,120.3,360.5,0.2,360.5z M147.6,72c0,2.3,0,4.4,0,6.6c0.2,14,0.2,28.1,0.8,42.1c0.5,11.7,1.4,23.3,2.5,34.9
		c1.1,12.7,2.9,25.3,5.2,37.9c2.6,14.7,6.9,28.8,13.8,42c7.7,14.8,18.2,27.4,31.8,37.2c14.4,10.5,30.2,18.3,46.9,24.4
		c13.6,5,27.6,8.7,41.9,11.5c2.2,0.4,4.5,0.9,6.6,1.3c0.1-0.2,0.2-0.3,0.2-0.3c0-0.2,0-0.3,0.1-0.5c0.2-4.7,2.2-8.4,5.9-11.3
		c3.4-2.7,7.3-4.2,11.5-5.2c2.4-0.6,4.9-1.1,7.3-1.6c0-1.5,0-3,0-4.6c-2.8-0.2-5.6-0.3-8.4-0.6c-13.1-1-26.2-2.5-39.1-4.7
		c-13.2-2.3-26.2-5.5-38.8-10.1c-14.6-5.3-27.7-13.1-38.8-24.1c-13.2-12.9-22.3-28.4-27.7-46c-3.5-11.5-5.4-23.3-7.1-35.1
		c-2.2-15.1-3.8-30.4-4.8-45.7c-0.9-14-1.5-27.9-2.2-41.9c-0.1-2.9,0-5.7,0-8.7c8.2-2.5,16.6-4.5,25.7-4.7
		c-6.4-6.8-12.6-13.4-18.9-20.1c-0.3,0.3-0.6,0.5-0.8,0.7c-8.4,7.6-17.7,13.7-28,18.3c-14.9,6.7-30.3,11.6-46,16.1
		c-0.4,0.1-1.1-0.1-1.5-0.3c-5.7-3.9-11.3-7.8-17-11.7c-0.3-0.2-0.6-0.3-1-0.6c0,0.4,0,0.6,0,0.8c0.5,11.7,1.1,23.3,1.4,35
		c0.3,10.5,0.3,21,0.3,31.5c0,12.6,0.1,25.1-0.1,37.7c-0.2,10.9-0.6,21.9-1.2,32.8c-0.8,14.7-2.8,29.3-5.8,43.7
		c-3.5,17.1-8.6,33.6-16.1,49.4c-1.1,2.3-2.3,4.6-3.5,7c1.2,0.8,2.4,1.6,3.5,2.3c0.3-0.3,0.4-0.5,0.6-0.7c2.6-3.7,5.3-7.4,7.8-11.2
		c16.2-24.8,25.9-52,28.5-81.5c1.3-14.8,1.9-29.6,2.6-44.4c0.5-10.3,0.7-20.5,0.8-30.8c0.1-15.5,0-31,0-46.6c0-2.1,0-4.1,0-6.2
		c8.6-1.9,17.1-3.9,25.8-5.9c-0.2,75.7,0.1,151.4-1.1,227.1c0,0,0.1,0,0.2,0c5.6-3,11.2-6,16.8-9c0.3-0.2,0.5-0.7,0.5-1
		c-0.2-9-0.5-18-0.6-27c-0.2-10-0.2-20-0.3-30c-0.1-14-0.1-28-0.2-42c0-8-0.1-15.9-0.1-23.9c0-13.1,0-26.2,0-39.2
		c0-19.1,0-38.2,0-57.2c0-0.2-0.1-0.5,0-0.7c0.2-0.3,0.4-0.8,0.7-0.8c1.4-0.4,2.9-0.7,4.3-1.1C137.6,74.3,142.6,73.2,147.6,72z"/>
	<path d="M147.6,72c-5,1.2-9.9,2.3-14.9,3.5c-1.4,0.3-2.9,0.7-4.3,1.1c-0.3,0.1-0.5,0.5-0.7,0.8c-0.1,0.2,0,0.5,0,0.7
		c0,19.1,0,38.2,0,57.2c0,13.1,0,26.2,0,39.2c0,8,0.1,15.9,0.1,23.9c0.1,14,0.1,28,0.2,42c0.1,10,0.1,20,0.3,30c0.1,9,0.4,18,0.6,27
		c0,0.3-0.2,0.9-0.5,1c-5.6,3-11.2,6-16.8,9c-0.1,0-0.2,0-0.2,0c1.2-75.7,0.9-151.3,1.1-227.1c-8.7,2-17.3,3.9-25.8,5.9
		c0,2.1,0,4.1,0,6.2c0,15.5,0.2,31,0,46.6c-0.1,10.3-0.3,20.5-0.8,30.8c-0.7,14.8-1.3,29.6-2.6,44.4c-2.6,29.5-12.3,56.7-28.5,81.5
		c-2.5,3.8-5.2,7.5-7.8,11.2c-0.1,0.2-0.3,0.4-0.6,0.7c-1.2-0.8-2.3-1.5-3.5-2.3c1.2-2.4,2.4-4.6,3.5-7
		c7.5-15.8,12.6-32.3,16.1-49.4c3-14.4,5-29,5.8-43.7c0.6-10.9,1-21.9,1.2-32.8c0.2-12.6,0.1-25.1,0.1-37.7c0-10.5-0.1-21-0.3-31.5
		c-0.3-11.7-0.9-23.3-1.4-35c0-0.2,0-0.5,0-0.8c0.4,0.2,0.7,0.4,1,0.6c5.7,3.9,11.3,7.8,17,11.7c0.4,0.3,1.1,0.5,1.5,0.3
		c15.6-4.5,31.1-9.5,46-16.1c10.3-4.6,19.6-10.8,28-18.3c0.2-0.2,0.5-0.4,0.8-0.7c6.2,6.6,12.5,13.2,18.9,20.1
		c-9,0.2-17.5,2.2-25.7,4.7c0,3-0.1,5.8,0,8.7c0.7,14,1.3,27.9,2.2,41.9c1,15.3,2.5,30.5,4.8,45.7c1.7,11.8,3.7,23.6,7.1,35.1
		c5.4,17.7,14.5,33.1,27.7,46c11.2,10.9,24.2,18.7,38.8,24.1c12.6,4.6,25.6,7.7,38.8,10.1c13,2.3,26,3.7,39.1,4.7
		c2.8,0.2,5.6,0.4,8.4,0.6c0,1.6,0,3.1,0,4.6c-2.4,0.5-4.9,1-7.3,1.6c-4.1,1-8.1,2.6-11.5,5.2c-3.7,2.9-5.7,6.6-5.9,11.3
		c0,0.2,0,0.3-0.1,0.5c0,0.1-0.1,0.1-0.2,0.3c-2.2-0.4-4.4-0.8-6.6-1.3c-14.2-2.8-28.2-6.6-41.9-11.5c-16.7-6.1-32.5-13.9-46.9-24.4
		c-13.6-9.9-24.1-22.4-31.8-37.2c-6.9-13.3-11.2-27.4-13.8-42c-2.3-12.6-4.1-25.2-5.2-37.9c-1-11.6-2-23.3-2.5-34.9
		c-0.6-14-0.6-28.1-0.8-42.1C147.5,76.4,147.6,74.3,147.6,72z"/>
</g>
</svg>
