<?xml version="1.0" encoding="utf-8"?>
<!-- Generator: Adobe Illustrator 20.1.0, SVG Export Plug-In . SVG Version: 6.00 Build 0)  -->
<svg version="1.1" id="图层_1" xmlns="http://www.w3.org/2000/svg" xmlns:xlink="http://www.w3.org/1999/xlink" x="0px" y="0px"
	 viewBox="0 0 360 360" style="enable-background:new 0 0 360 360;" xml:space="preserve">
<style type="text/css">
	.st0{fill:#FFFFFF;}
</style>
<g>
	<path class="st0" d="M0.2,360.5c0-120.1,0-240.2,0-360.2c120.1,0,240.2,0,360.2,0c0,120.1,0,240.2,0,360.2
		C240.4,360.5,120.3,360.5,0.2,360.5z M114.7,297.1c43.6,0,87.1,0,130.7,0c0,4.7,0,9.3,0,14c0.3-0.1,0.5-0.1,0.7-0.2
		c5.4-2.2,10.8-4.3,16.2-6.5c0.6-0.3,0.8-0.6,0.8-1.2c-0.2-7.3-0.5-14.6-0.7-21.9c-0.2-7.6-0.3-15.1-0.3-22.7
		c-0.1-16.7-0.1-33.4-0.2-50c0-0.8,0.3-1.3,0.9-1.8c2.1-1.5,4.2-3.1,6.2-4.7c0.8-0.6,1.5-1.1,2-1.6c-5.5-5.5-11-11-16.5-16.5
		c-3.5,3.5-7.1,7.1-10.6,10.7c-0.6,0.6-1.3,0.9-2.2,0.9c-28.5,0-57,0-85.4,0c-0.4,0-0.8,0-1.5,0c0.4-0.6,0.6-1,0.9-1.3
		c5.5-7.7,11.5-14.8,17.8-21.9c1.6-1.8,3.4-3.2,5.7-4.1c2.4-0.9,4.8-2.1,7.4-3.2c-8-4.8-15.7-9.4-23.6-14.2
		c-0.4,1.9-0.7,3.7-1.1,5.4c-3,13.4-8,26.1-13.8,38.5c-0.3,0.7-0.8,0.8-1.5,0.8c-9.9,0-19.8,0-29.8,0c-0.6,0-1.3-0.2-1.9-0.5
		c-5.5-2.7-11.1-5.5-16.6-8.3c-0.4-0.2-0.8-0.4-1.3-0.6c1.6,42.5,1.6,84.8,0,127.1c0.3,0,0.3,0,0.4,0c5.6-2.2,11.1-4.4,16.7-6.7
		c0.3-0.1,0.6-0.7,0.6-1.1C114.7,302.8,114.7,300,114.7,297.1z"/>
	<path d="M114.7,297.1c0,2.9,0,5.7,0,8.5c0,0.4-0.3,0.9-0.6,1.1c-5.5,2.3-11.1,4.5-16.7,6.7c-0.1,0-0.2,0-0.4,0
		c1.6-42.3,1.6-84.7,0-127.1c0.5,0.2,0.9,0.4,1.3,0.6c5.5,2.8,11.1,5.5,16.6,8.3c0.6,0.3,1.3,0.5,1.9,0.5c9.9,0,19.8,0,29.8,0
		c0.7,0,1.1-0.1,1.5-0.8c5.8-12.4,10.8-25.1,13.8-38.5c0.4-1.7,0.7-3.5,1.1-5.4c7.9,4.7,15.7,9.4,23.6,14.2
		c-2.6,1.1-4.9,2.3-7.4,3.2c-2.3,0.9-4.1,2.3-5.7,4.1c-6.2,7.1-12.3,14.2-17.8,21.9c-0.3,0.4-0.5,0.8-0.9,1.3c0.6,0,1.1,0,1.5,0
		c28.5,0,57,0,85.4,0c0.9,0,1.6-0.3,2.2-0.9c3.6-3.6,7.2-7.2,10.6-10.7c5.5,5.5,11,11,16.5,16.5c-0.5,0.4-1.3,1-2,1.6
		c-2.1,1.6-4.1,3.1-6.2,4.7c-0.6,0.5-0.9,1-0.9,1.8c0.1,16.7,0.1,33.4,0.2,50c0,7.6,0.2,15.1,0.3,22.7c0.2,7.3,0.4,14.6,0.7,21.9
		c0,0.7-0.1,1-0.8,1.2c-5.4,2.1-10.8,4.3-16.2,6.5c-0.2,0.1-0.4,0.1-0.7,0.2c0-4.7,0-9.3,0-14C201.8,297.1,158.3,297.1,114.7,297.1z
		 M114.8,289.8c43.6,0,87,0,130.6,0c0-14.9,0-29.7,0-44.6c-43.6,0-87,0-130.6,0C114.8,260.1,114.8,274.9,114.8,289.8z M114.8,238
		c43.6,0,87,0,130.6,0c0-11.7,0-23.4,0-35.1c-43.6,0-87.1,0-130.6,0C114.8,214.6,114.8,226.2,114.8,238z"/>
	<path class="st0" d="M114.8,289.8c0-14.9,0-29.7,0-44.6c43.5,0,87,0,130.6,0c0,14.9,0,29.7,0,44.6
		C201.8,289.8,158.3,289.8,114.8,289.8z"/>
	<path class="st0" d="M114.8,238c0-11.7,0-23.4,0-35.1c43.5,0,87,0,130.6,0c0,11.7,0,23.4,0,35.1C201.8,238,158.3,238,114.8,238z"/>
</g>
</svg>
