<?xml version="1.0" encoding="utf-8"?>
<!-- Generator: Adobe Illustrator 20.1.0, SVG Export Plug-In . SVG Version: 6.00 Build 0)  -->
<svg version="1.1" id="图层_1" xmlns="http://www.w3.org/2000/svg" xmlns:xlink="http://www.w3.org/1999/xlink" x="0px" y="0px"
	 viewBox="0 0 360 360" style="enable-background:new 0 0 360 360;" xml:space="preserve">
<style type="text/css">
	.st0{fill:#FFFFFF;}
</style>
<g>
	<path class="st0" d="M0.2,360.5c0-120.1,0-240.2,0-360.2c120.1,0,240.2,0,360.2,0c0,120.1,0,240.2,0,360.2
		C240.4,360.5,120.3,360.5,0.2,360.5z M95.8,69.6c1.5,37.8,1.6,75.4,0,113c0.3-0.1,0.5-0.1,0.7-0.2c5.4-2.2,10.9-4.4,16.4-6.5
		c0.6-0.2,0.7-0.6,0.7-1.2c0-2,0-4.1,0-6.1c45.6,0,91,0,136.6,0c0,4.3,0,8.5,0,12.8c0.5-0.2,0.8-0.3,1.1-0.5
		c5.1-2.4,10.3-4.8,15.4-7.2c1-0.4,1.1-0.9,1.1-1.9c-0.3-8.5-0.6-17-0.8-25.5c-0.2-7.3-0.2-14.5-0.2-21.8
		c-0.1-10.2-0.1-20.3-0.1-30.5c0-0.7,0.3-1.1,0.9-1.5c2.9-1.9,5.9-3.9,8.8-5.8c0.3-0.2,0.6-0.5,0.8-0.6
		c-5.9-5.9-11.8-11.8-17.7-17.7c-0.1,0.2-0.2,0.4-0.4,0.6c-3.1,3.5-6.2,6.9-9.3,10.3c-0.4,0.4-1,0.8-1.6,0.8c-29.2,0-58.3,0-87.5,0
		c-0.3,0-0.6-0.1-1-0.1c4.2-5.6,8.5-10.8,13.4-15.6c4.3-4.1,9-7.8,14.5-10.3c0.8-0.4,1.6-0.7,2.6-1.1c-7.5-4.8-14.9-9.4-22.3-14.1
		c-3.7,14.4-9.6,27.7-15.3,41.2c-0.3,0-0.5,0-0.7,0c-12.5,0-25,0-37.4,0c-0.6,0-1.2-0.2-1.7-0.5c-5.3-3.1-10.5-6.3-15.7-9.4
		C96.6,70,96.3,69.9,95.8,69.6z"/>
	<path d="M95.8,69.6c0.5,0.2,0.8,0.4,1.1,0.6c5.2,3.1,10.5,6.3,15.7,9.4c0.5,0.3,1.1,0.5,1.7,0.5c12.5,0,25,0,37.4,0
		c0.2,0,0.4,0,0.7,0c5.7-13.4,11.7-26.7,15.3-41.2c7.4,4.7,14.8,9.3,22.3,14.1c-1,0.4-1.8,0.7-2.6,1.1c-5.5,2.5-10.2,6.2-14.5,10.3
		c-4.9,4.7-9.2,10-13.4,15.6c0.4,0,0.7,0.1,1,0.1c29.2,0,58.3,0,87.5,0c0.5,0,1.2-0.4,1.6-0.8c3.1-3.4,6.2-6.9,9.3-10.3
		c0.2-0.2,0.3-0.5,0.4-0.6c6,6,11.8,11.8,17.7,17.7c-0.2,0.2-0.5,0.4-0.8,0.6c-2.9,2-5.8,3.9-8.8,5.8c-0.6,0.4-0.9,0.8-0.9,1.5
		c0.1,10.2,0,20.3,0.1,30.5c0,7.3,0.1,14.6,0.2,21.8c0.2,8.5,0.5,17,0.8,25.5c0,1-0.1,1.5-1.1,1.9c-5.2,2.3-10.3,4.8-15.4,7.2
		c-0.3,0.1-0.6,0.3-1.1,0.5c0-4.3,0-8.5,0-12.8c-45.6,0-91,0-136.6,0c0,2,0,4.1,0,6.1c0,0.6-0.1,0.9-0.7,1.2
		c-5.5,2.1-10.9,4.3-16.4,6.5c-0.2,0.1-0.4,0.1-0.7,0.2C97.4,145,97.3,107.4,95.8,69.6z M250.1,126.3c-45.6,0-91,0-136.5,0
		c0,11.7,0,23.4,0,35.1c45.5,0,91,0,136.5,0C250.1,149.7,250.1,138,250.1,126.3z M250.1,87.4c-45.6,0-91,0-136.5,0
		c0,10.6,0,21.1,0,31.5c45.5,0,91,0,136.5,0C250.1,108.4,250.1,97.9,250.1,87.4z"/>
	<path class="st0" d="M250.1,126.3c0,11.7,0,23.4,0,35.1c-45.5,0-91,0-136.5,0c0-11.7,0-23.4,0-35.1
		C159,126.3,204.5,126.3,250.1,126.3z"/>
	<path class="st0" d="M250.1,87.4c0,10.5,0,21,0,31.5c-45.5,0-90.9,0-136.5,0c0-10.5,0-21,0-31.5C159,87.4,204.5,87.4,250.1,87.4z"
		/>
</g>
</svg>
