<?xml version="1.0" encoding="utf-8"?>
<!-- Generator: Adobe Illustrator 20.1.0, SVG Export Plug-In . SVG Version: 6.00 Build 0)  -->
<svg version="1.1" id="图层_1" xmlns="http://www.w3.org/2000/svg" xmlns:xlink="http://www.w3.org/1999/xlink" x="0px" y="0px"
	 viewBox="0 0 360 360" style="enable-background:new 0 0 360 360;" xml:space="preserve">
<style type="text/css">
	.st0{fill:#FFFFFF;}
</style>
<g>
	<path class="st0" d="M-0.1,360.1c0-120.1,0-240.2,0-360.2c120.1,0,240.2,0,360.2,0c0,120.1,0,240.2,0,360.2
		C240,360.1,120,360.1-0.1,360.1z M84.9,281.4c20.5,0,40.8,0,61.3,0c0,8.2,0,16.3,0,24.5c0.3-0.1,0.4-0.1,0.5-0.1
		c5.1-2.9,10.3-5.9,15.4-8.8c0.4-0.2,0.6-0.9,0.6-1.4c-0.1-6.2-0.3-12.4-0.4-18.6c-0.1-7.9-0.3-15.7-0.3-23.6
		c-0.1-13-0.2-25.9-0.2-38.9c-0.1-13.2-0.1-26.4-0.2-39.6c0-19.2-0.1-38.3-0.1-57.5c0-0.8,0.3-1.3,1-1.7c3.3-2.3,6.6-4.6,9.9-6.9
		c0.3-0.2,0.6-0.5,0.8-0.6c-5.9-5.9-11.8-11.8-17.7-17.7c-0.2,0.2-0.5,0.5-0.8,0.7c-3.3,3.3-6.7,6.7-10,10c-0.6,0.6-1.2,0.9-2.1,0.9
		c-12,0-24.1,0-36.1,0c-0.4,0-0.8,0-1.4,0c0.1-0.3,0.2-0.5,0.3-0.7c4.5-9.3,9.2-18.5,14.8-27.3c4.5-7.2,9.1-14.3,16.5-19.2
		c-8.6-4.7-17.2-9.4-25.7-14c-0.6,4.6-1,9.1-1.7,13.5c-2.5,15.8-6.7,31.3-11.1,46.7c-0.2,0.8-0.6,0.9-1.3,0.9c-3.2,0-6.5,0-9.7,0
		c-0.6,0-1.3-0.2-1.9-0.5c-5.2-3.1-10.4-6.2-15.5-9.3c-0.4-0.2-0.7-0.4-1.3-0.7c1.6,73.1,1.5,146,0,219.1c0.3-0.1,0.5-0.2,0.7-0.3
		c5-2.9,10-5.8,15.1-8.6c0.7-0.4,0.7-0.9,0.7-1.5c0-5.8,0-11.7,0-17.5C84.9,282.4,84.9,281.9,84.9,281.4z"/>
	<path d="M84.9,281.4c0,0.5,0,0.9,0,1.3c0,5.8,0,11.7,0,17.5c0,0.6,0,1.1-0.7,1.5c-5,2.8-10.1,5.7-15.1,8.6
		c-0.2,0.1-0.4,0.2-0.7,0.3c1.5-73.1,1.6-146,0-219.1c0.5,0.3,0.9,0.5,1.3,0.7c5.2,3.1,10.3,6.2,15.5,9.3c0.5,0.3,1.3,0.5,1.9,0.5
		c3.2,0.1,6.5,0,9.7,0c0.7,0,1.1-0.1,1.3-0.9c4.5-15.4,8.6-30.9,11.1-46.7c0.7-4.5,1.1-8.9,1.7-13.5c8.5,4.6,17.1,9.3,25.7,14
		c-7.5,4.8-12,12-16.5,19.2c-5.5,8.7-10.3,18-14.8,27.3c-0.1,0.2-0.1,0.4-0.3,0.7c0.5,0,1,0,1.4,0c12,0,24.1,0,36.1,0
		c0.9,0,1.5-0.2,2.1-0.9c3.3-3.4,6.7-6.7,10-10c0.3-0.3,0.6-0.5,0.8-0.7c5.9,5.9,11.7,11.7,17.7,17.7c-0.2,0.1-0.5,0.4-0.8,0.6
		c-3.3,2.3-6.6,4.6-9.9,6.9c-0.6,0.4-1,0.9-1,1.7c0.1,19.2,0.1,38.3,0.1,57.5c0,13.2,0.1,26.4,0.2,39.6c0.1,13,0.1,25.9,0.2,38.9
		c0.1,7.9,0.2,15.7,0.3,23.6c0.1,6.2,0.3,12.4,0.4,18.6c0,0.5-0.3,1.1-0.6,1.4c-5.1,3-10.2,5.9-15.4,8.8c-0.1,0.1-0.2,0.1-0.5,0.1
		c0-8.2,0-16.3,0-24.5C125.7,281.4,105.3,281.4,84.9,281.4z M146,274.1c0-27.5,0-54.9,0-82.4c-0.5,0-1,0-1.4,0
		c-19.4,0-38.8,0-58.2,0c-1.2,0-1.5,0.3-1.5,1.5c0,26.5,0,53,0,79.5c0,0.4,0,0.9,0,1.3C105.3,274.1,125.6,274.1,146,274.1z
		 M85,109.4c0,25.2,0,50.2,0,75.2c20.4,0,40.7,0,61,0c0-25.1,0-50.1,0-75.2C125.6,109.4,105.4,109.4,85,109.4z"/>
	<path class="st0" d="M146,274.1c-20.4,0-40.7,0-61.1,0c0-0.5,0-0.9,0-1.3c0-26.5,0-53,0-79.5c0-1.2,0.3-1.5,1.5-1.5
		c19.4,0,38.8,0,58.2,0c0.4,0,0.9,0,1.4,0C146,219.2,146,246.6,146,274.1z"/>
	<path class="st0" d="M85,109.4c20.4,0,40.7,0,61,0c0,25.1,0,50.1,0,75.2c-20.4,0-40.7,0-61,0C85,159.6,85,134.5,85,109.4z"/>
</g>
</svg>
