<?xml version="1.0" encoding="utf-8"?>
<!-- Generator: Adobe Illustrator 20.1.0, SVG Export Plug-In . SVG Version: 6.00 Build 0)  -->
<svg version="1.1" id="图层_1" xmlns="http://www.w3.org/2000/svg" xmlns:xlink="http://www.w3.org/1999/xlink" x="0px" y="0px"
	 viewBox="0 0 360 360" style="enable-background:new 0 0 360 360;" xml:space="preserve">
<style type="text/css">
	.st0{fill:#FFFFFF;}
</style>
<g>
	<path class="st0" d="M0.2,360.5c0-120.1,0-240.2,0-360.2c120.1,0,240.2,0,360.2,0c0,120.1,0,240.2,0,360.2
		C240.4,360.5,120.3,360.5,0.2,360.5z M320.8,170.7c-30.5-5.5-56.6-19.4-78.8-41c0.4-0.2,0.6-0.4,0.8-0.6
		c12.9-7.9,26.3-15,39.9-21.7c2.1-1,4.2-2.1,6.4-2.7c3.4-0.9,6.9-1.4,10.6-2.2c-6-6.4-11.9-12.6-17.7-18.9
		c-12,16.6-27.3,29.4-43.6,41.2c-8.3-9-15.4-18.7-21.1-29.4c0.4-0.3,0.7-0.5,1-0.7c13.3-8.4,26.6-16.7,39.8-25.2
		c2.6-1.6,5.3-3,8.2-3.7c2.5-0.6,4.9-1.4,7.5-2.2c-6.4-6-12.6-11.8-18.9-17.7c-10.8,17.3-24.9,31.4-40,44.7
		c-7.9-14.9-13.3-30.6-16.5-47.1c-2,0.4-4,0.8-6.1,1.2c1.6,6.7,3.1,13.2,4.8,19.7c6,23.4,15,45.4,28.8,65.4
		c9.6,13.9,20.6,26.3,34.2,36.5c10.7,8,21.9,15.4,33.3,22.4c0.5,0.3,1,0.6,1.5,0.9c7.1-7.8,15.7-12.9,25.9-15.3
		C320.8,173.3,320.8,172.1,320.8,170.7z M153.5,74.4c-0.1,0.4-0.2,0.7-0.2,0.9c-4.9,15.2-10.8,30-18.2,44.2
		c-8.4,16.1-18.7,30.7-31.6,43.6c-15.6,15.6-33.2,28.4-52.7,38.6c-2.2,1.2-4.4,2.3-6.7,3.5c0.8,1.6,1.6,3.1,2.4,4.7
		c0.4-0.2,0.8-0.3,1.1-0.5c11.5-5.3,22.9-11,33.9-17.4c14.8-8.5,28.7-18.1,40.8-30.3c10.3-10.4,19-22,26.6-34.5
		c8.8-14.6,16-30,22.2-45.9c0.3-0.6,0.8-1.3,1.4-1.6c3.2-2,6.4-3.9,9.5-5.8c0.4-0.2,0.8-0.5,1.1-0.7c-5.9-5.9-11.8-11.8-17.7-17.7
		c-0.2,0.2-0.5,0.5-0.8,0.7c-3.3,3.3-6.7,6.7-10,10c-0.6,0.7-1.3,0.9-2.2,0.9c-26.2,0-52.3,0-78.5,0c-0.5,0-0.9,0-1.7,0
		c3.6,3.6,7,7,10.4,10.3c0.2,0.2,0.9,0.2,1.3,0.1c8.5-2.2,17.2-3.2,26-3.3c14.1,0,28.2,0,42.2,0C152.4,74.4,152.9,74.4,153.5,74.4z
		 M67.5,95.5c0.5,0.5,0.9,0.8,1.3,1.2c7,6.3,13.4,13.2,18.1,21.4c2.7,4.7,4.8,9.7,7.3,14.5c1.2,2.3,2.7,4.6,4.4,6.5
		c1.9,2.1,4.4,2.2,6.3,0.2c1.5-1.5,2.8-3.4,3.8-5.3c3.8-7.1,3-13.8-2.3-19.8c-1.4-1.6-3.1-3.1-4.8-4.5c-9.5-7.5-20.1-13-31.2-17.6
		c-0.2-0.1-0.4-0.1-0.6-0.2C69.1,93.2,68.3,94.3,67.5,95.5z"/>
	<path d="M320.8,170.7c0,1.4,0,2.5,0,3.7c-10.2,2.4-18.8,7.5-25.9,15.3c-0.5-0.3-1-0.6-1.5-0.9c-11.4-7-22.6-14.4-33.3-22.4
		c-13.6-10.2-24.6-22.6-34.2-36.5c-13.9-20-22.8-42-28.8-65.4c-1.7-6.5-3.2-13-4.8-19.7c2.1-0.4,4-0.8,6.1-1.2
		c3.2,16.5,8.6,32.2,16.5,47.1c15.2-13.3,29.2-27.5,40-44.7c6.3,5.9,12.5,11.7,18.9,17.7c-2.6,0.8-5,1.6-7.5,2.2
		c-3,0.8-5.6,2.1-8.2,3.7c-13.2,8.4-26.5,16.8-39.8,25.2c-0.3,0.2-0.6,0.4-1,0.7c5.8,10.7,12.9,20.3,21.1,29.4
		c16.3-11.9,31.6-24.7,43.6-41.2c5.9,6.3,11.7,12.5,17.7,18.9c-3.7,0.7-7.2,1.3-10.6,2.2c-2.2,0.6-4.3,1.7-6.4,2.7
		c-13.6,6.6-26.9,13.8-39.9,21.7c-0.2,0.1-0.5,0.3-0.8,0.6C264.2,151.3,290.4,165.3,320.8,170.7z"/>
	<path d="M153.5,74.4c-0.6,0-1,0-1.5,0c-14.1,0-28.2,0-42.2,0c-8.8,0-17.5,1.1-26,3.3c-0.4,0.1-1,0.1-1.3-0.1
		c-3.4-3.3-6.7-6.7-10.4-10.3c0.8,0,1.2,0,1.7,0c26.2,0,52.3,0,78.5,0c0.9,0,1.6-0.2,2.2-0.9c3.3-3.4,6.7-6.7,10-10
		c0.3-0.3,0.6-0.5,0.8-0.7c5.9,5.9,11.7,11.7,17.7,17.7c-0.3,0.2-0.7,0.4-1.1,0.7c-3.2,1.9-6.4,3.8-9.5,5.8c-0.6,0.4-1.1,1-1.4,1.6
		c-6.3,15.8-13.4,31.3-22.2,45.9c-7.6,12.5-16.3,24.1-26.6,34.5c-12.1,12.2-26,21.8-40.8,30.3c-11,6.3-22.4,12.1-33.9,17.4
		c-0.3,0.1-0.6,0.3-1.1,0.5c-0.8-1.6-1.6-3.1-2.4-4.7c2.3-1.2,4.5-2.3,6.7-3.5c19.5-10.2,37.1-23,52.7-38.6
		c12.9-12.9,23.2-27.5,31.6-43.6c7.4-14.2,13.3-29,18.2-44.2C153.3,75,153.3,74.8,153.5,74.4z"/>
	<path d="M67.5,95.5c0.8-1.2,1.5-2.3,2.3-3.5c0.2,0.1,0.4,0.1,0.6,0.2c11.1,4.6,21.7,10.1,31.2,17.6c1.7,1.4,3.4,2.8,4.8,4.5
		c5.3,6,6.1,12.7,2.3,19.8c-1,1.9-2.3,3.7-3.8,5.3c-2,2-4.5,2-6.3-0.2c-1.7-2-3.1-4.2-4.4-6.5c-2.5-4.8-4.6-9.9-7.3-14.5
		c-4.7-8.2-11.1-15.1-18.1-21.4C68.4,96.3,68,96,67.5,95.5z"/>
</g>
</svg>
