<?xml version="1.0" encoding="utf-8"?>
<!-- Generator: Adobe Illustrator 20.1.0, SVG Export Plug-In . SVG Version: 6.00 Build 0)  -->
<svg version="1.1" id="图层_1" xmlns="http://www.w3.org/2000/svg" xmlns:xlink="http://www.w3.org/1999/xlink" x="0px" y="0px"
	 viewBox="0 0 360 360" style="enable-background:new 0 0 360 360;" xml:space="preserve">
<style type="text/css">
	.st0{fill:#FFFFFF;}
</style>
<g>
	<path class="st0" d="M-0.1,360.1c0-120.1,0-240.2,0-360.2c120.1,0,240.2,0,360.2,0c0,120.1,0,240.2,0,360.2
		C240,360.1,120,360.1-0.1,360.1z M53,317.8c0.5-0.1,0.9-0.2,1.3-0.2c23.7-5.2,46.9-12.3,69.7-20.8c26.8-10,52.1-23,75.1-40.1
		c16.8-12.5,32.1-26.6,45.6-42.7c13.3-15.9,24.9-33.1,35.2-51.1c1.2-2.1,2.6-3.5,4.9-4.3c3.7-1.3,7.2-3,10.7-4.4
		c-7.1-7.1-14.1-14.1-21.3-21.3c-0.1,0.2-0.4,0.6-0.7,0.9c-3.3,3.3-6.7,6.7-10,10c-0.6,0.6-1.2,0.8-2,0.8c-23.9,0-47.8,0-71.6,0
		c-0.4,0-0.9,0-1.3,0c0-17.3,0-34.5,0-51.8c39.2,0,78.4,0,117.3,0c-7.4-7.4-14.8-14.8-22.3-22.3c-0.2,0.2-0.4,0.6-0.7,0.9
		c-4.5,4.5-9,9-13.5,13.5c-0.4,0.4-1.2,0.8-1.8,0.8c-25.9,0-51.8,0-77.6,0c-0.4,0-0.8,0-1.3,0c-0.1-0.3-0.1-0.4-0.1-0.5
		c0-7.4,0-14.9,0-22.3c0-0.4,0.4-0.9,0.7-1.2c3.3-2.4,6.7-4.7,10-7c0.3-0.2,0.6-0.5,1-0.8c-10.3-4.7-20.4-9.4-30.6-14.1
		c1.1,35.1,1.1,69.9,1.1,104.8c-15.7,0-31.3,0-46.8,0c0-0.2,0-0.3,0-0.3c3.7-6.8,7.6-13.5,12.9-19.3c2.4-2.6,5-5,9.1-5.1
		c-8.8-6-17.3-11.8-25.9-17.6c-1.5,14-16.7,47.2-28.3,65.5c-12.9,20.4-28.5,38.3-47.1,53.5c1.2,1.2,2.3,2.4,3.5,3.6
		c20.2-13.2,38.3-28.8,54.1-47c0.2,0.2,0.4,0.3,0.6,0.4c9.8,8.4,19.5,17.1,28.5,26.4c6.1,6.3,12.1,12.8,17,20.1
		c2.7,3.9,4.8,8.2,7.4,12.2c1.4,2.1,3.1,4.1,5,5.8c2.4,2.2,5,1.7,6.9-1c3-4.3,4.1-9.1,3.5-14.3c-0.6-4.8-3-8.8-6-12.5
		c-4.5-5.3-10-9.5-15.5-13.5c-13-9.4-26.8-17.7-40.6-25.9c-1.4-0.8-2.8-1.6-4.3-2.5c4.9-6.8,9.7-13.4,14.5-20
		c0.6-0.8,1.2-1.1,2.2-1.1c46.6,0,93.1,0,139.7,0c0.4,0,0.9,0,1.4,0c-0.2,0.4-0.2,0.7-0.4,1c-1.8,3.9-3.5,7.8-5.4,11.6
		c-10.3,20.6-23.8,38.9-40,55.2c-10.1,10.2-20.9,19.6-32.1,28.5c-17.1,13.6-35.2,25.5-54.7,35.3c-23,11.5-46.9,20.6-71.7,27.6
		c-2.6,0.7-5.1,1.4-7.8,2.2C51.4,314.7,52.2,316.2,53,317.8z"/>
	<path d="M53,317.8c-0.8-1.6-1.5-3.1-2.4-4.7c2.7-0.7,5.3-1.4,7.8-2.2c24.7-7,48.7-16,71.7-27.6c19.5-9.8,37.6-21.8,54.7-35.3
		c11.2-8.9,22-18.3,32.1-28.5c16.2-16.4,29.7-34.6,40-55.2c1.9-3.8,3.6-7.8,5.4-11.6c0.1-0.3,0.2-0.6,0.4-1c-0.6,0-1,0-1.4,0
		c-46.6,0-93.1,0-139.7,0c-1,0-1.6,0.3-2.2,1.1c-4.8,6.7-9.6,13.3-14.5,20c1.5,0.9,2.9,1.7,4.3,2.5c13.8,8.2,27.6,16.4,40.6,25.9
		c5.6,4,11.1,8.2,15.5,13.5c3.1,3.6,5.4,7.7,6,12.5c0.7,5.2-0.5,10-3.5,14.3c-1.9,2.7-4.4,3.1-6.9,1c-1.9-1.7-3.6-3.7-5-5.8
		c-2.6-4-4.8-8.2-7.4-12.2c-4.9-7.3-10.9-13.8-17-20.1c-9.1-9.3-18.7-17.9-28.5-26.4c-0.1-0.1-0.3-0.2-0.6-0.4
		c-15.9,18.2-33.9,33.9-54.1,47c-1.2-1.2-2.3-2.4-3.5-3.6c18.6-15.2,34.2-33.1,47.1-53.5c11.6-18.3,26.8-51.5,28.3-65.5
		c8.6,5.9,17.1,11.7,25.9,17.6c-4.2,0.1-6.7,2.6-9.1,5.1c-5.3,5.7-9.2,12.5-12.9,19.3c0,0.1,0,0.2,0,0.3c15.5,0,31,0,46.8,0
		c0-34.9,0-69.7-1.1-104.8c10.2,4.7,20.4,9.4,30.6,14.1c-0.4,0.3-0.7,0.5-1,0.8c-3.3,2.3-6.7,4.7-10,7c-0.4,0.3-0.7,0.8-0.7,1.2
		c0,7.4,0,14.9,0,22.3c0,0.1,0.1,0.2,0.1,0.5c0.4,0,0.8,0,1.3,0c25.9,0,51.8,0,77.6,0c0.6,0,1.4-0.3,1.8-0.8c4.5-4.5,9-9,13.5-13.5
		c0.3-0.3,0.6-0.7,0.7-0.9c7.5,7.5,14.9,14.9,22.3,22.3c-39,0-78.1,0-117.3,0c0,17.3,0,34.5,0,51.8c0.5,0,0.9,0,1.3,0
		c23.9,0,47.8,0,71.6,0c0.8,0,1.4-0.2,2-0.8c3.3-3.4,6.7-6.7,10-10c0.3-0.3,0.5-0.7,0.7-0.9c7.2,7.2,14.2,14.2,21.3,21.3
		c-3.5,1.5-7,3.1-10.7,4.4c-2.3,0.8-3.7,2.2-4.9,4.3c-10.3,18-21.9,35.1-35.2,51.1c-13.4,16.1-28.7,30.2-45.6,42.7
		c-23,17.1-48.3,30.1-75.1,40.1c-22.8,8.5-46,15.6-69.7,20.8C53.9,317.7,53.5,317.7,53,317.8z"/>
</g>
</svg>
