<?xml version="1.0" encoding="utf-8"?>
<!-- Generator: Adobe Illustrator 20.1.0, SVG Export Plug-In . SVG Version: 6.00 Build 0)  -->
<svg version="1.1" id="图层_1" xmlns="http://www.w3.org/2000/svg" xmlns:xlink="http://www.w3.org/1999/xlink" x="0px" y="0px"
	 viewBox="0 0 360 360" style="enable-background:new 0 0 360 360;" xml:space="preserve">
<style type="text/css">
	.st0{fill:#FFFFFF;}
</style>
<g>
	<path class="st0" d="M0.2,360.5c0-120.1,0-240.2,0-360.2c120.1,0,240.2,0,360.2,0c0,120.1,0,240.2,0,360.2
		C240.4,360.5,120.3,360.5,0.2,360.5z M124.1,301.7c35.8,0,71.4,0,107.2,0c0,4.3,0,8.6,0,12.9c5.6-1.6,11-3.2,16.5-4.7
		c-1.1-27.9-1.1-55.7-1.1-83.7c20.8,0,41.5,0,62.4,0c-6-7.6-11.8-15-17.7-22.5c-0.4,0.4-0.6,0.7-0.8,0.9c-4.2,4.5-8.4,9-12.5,13.6
		c-0.5,0.6-1.1,0.8-1.8,0.8c-9.4,0-18.9,0-28.3,0c-0.4,0-0.8,0-1.2,0c0-2.1,0.1-4,0-5.8c-0.2-1.7,0.4-2.9,1.8-3.9
		c2.2-1.7,4.3-3.6,6.5-5.5c-8.3-3.2-16.5-6.3-24.7-9.4c0.4,8.3,0.8,16.4,1.2,24.6c-35.9,0-71.6,0-107.3,0c0-1.9,0.1-3.7,0-5.5
		c0-1,0.2-1.7,1-2.4c2.6-2.2,5.1-4.4,7.6-6.6c0.3-0.2,0.6-0.3,1-0.5c-0.1-0.1-0.2-0.3-0.3-0.4c-8.5-2.7-17.1-5.4-25.5-8.1
		c0.4,7.8,0.7,15.6,1.1,23.5c-17.5,0-34.7,0-52,0c0.5,0.5,0.7,0.8,1,1.1c2.9,2.9,5.8,5.7,8.6,8.7c0.7,0.7,1.3,0.9,2.3,0.6
		c6.5-1.7,13.1-2.8,19.8-3c6.5-0.2,13-0.2,19.4-0.2c0.2,0,0.5,0.1,0.8,0.1c-0.1,30.2,0,60.4-1.1,90.6c5.1-1.5,10-2.9,15-4.3
		c1.2-0.3,1.6-0.8,1.5-2C124.1,307.8,124.1,304.8,124.1,301.7z"/>
	<path d="M124.1,301.7c0,3.1-0.1,6,0,9c0,1.2-0.3,1.7-1.5,2c-5,1.3-9.9,2.8-15,4.3c1.1-30.2,1.1-60.4,1.1-90.6
		c-0.3,0-0.5-0.1-0.8-0.1c-6.5,0.1-13,0-19.4,0.2c-6.7,0.2-13.3,1.3-19.8,3c-1,0.3-1.6,0.1-2.3-0.6c-2.8-2.9-5.8-5.8-8.6-8.7
		c-0.3-0.3-0.5-0.6-1-1.1c17.4,0,34.5,0,52,0c-0.4-7.9-0.7-15.7-1.1-23.5c8.4,2.7,17,5.4,25.5,8.1c0.1,0.1,0.2,0.3,0.3,0.4
		c-0.3,0.2-0.7,0.2-1,0.5c-2.5,2.2-5,4.4-7.6,6.6c-0.8,0.7-1.1,1.3-1,2.4c0.1,1.8,0,3.6,0,5.5c35.8,0,71.4,0,107.3,0
		c-0.4-8.2-0.8-16.3-1.2-24.6c8.2,3.1,16.4,6.2,24.7,9.4c-2.2,1.9-4.3,3.8-6.5,5.5c-1.4,1.1-2,2.2-1.8,3.9c0.2,1.9,0,3.8,0,5.8
		c0.4,0,0.8,0,1.2,0c9.4,0,18.9,0,28.3,0c0.8,0,1.3-0.3,1.8-0.8c4.2-4.5,8.3-9.1,12.5-13.6c0.2-0.3,0.5-0.5,0.8-0.9
		c5.9,7.5,11.7,14.9,17.7,22.5c-20.9,0-41.6,0-62.4,0c0,28,0,55.8,1.1,83.7c-5.4,1.6-10.9,3.1-16.5,4.7c0-4.4,0-8.6,0-12.9
		C195.5,301.7,159.9,301.7,124.1,301.7z M231.3,226.4c-35.7,0-71.4,0-107.1,0c0,10.2,0,20.3,0,30.4c35.7,0,71.4,0,107.1,0
		C231.3,246.6,231.3,236.5,231.3,226.4z M124.2,294.5c35.7,0,71.4,0,107.1,0c0-10.2,0-20.3,0-30.4c-35.7,0-71.4,0-107.1,0
		C124.2,274.2,124.2,284.3,124.2,294.5z"/>
	<path class="st0" d="M231.3,226.4c0,10.1,0,20.2,0,30.4c-35.7,0-71.3,0-107.1,0c0-10.1,0-20.2,0-30.4
		C159.9,226.4,195.5,226.4,231.3,226.4z"/>
	<path class="st0" d="M124.2,294.5c0-10.2,0-20.3,0-30.4c35.7,0,71.4,0,107.1,0c0,10.2,0,20.3,0,30.4
		C195.5,294.5,159.9,294.5,124.2,294.5z"/>
</g>
</svg>
