<?xml version="1.0" encoding="utf-8"?>
<!-- Generator: Adobe Illustrator 20.1.0, SVG Export Plug-In . SVG Version: 6.00 Build 0)  -->
<svg version="1.1" id="图层_1" xmlns="http://www.w3.org/2000/svg" xmlns:xlink="http://www.w3.org/1999/xlink" x="0px" y="0px"
	 viewBox="0 0 360 360" style="enable-background:new 0 0 360 360;" xml:space="preserve">
<style type="text/css">
	.st0{fill:#FFFFFF;}
</style>
<g>
	<path class="st0" d="M0.2,360.5c0-120.1,0-240.2,0-360.2c120.1,0,240.2,0,360.2,0c0,120.1,0,240.2,0,360.2
		C240.4,360.5,120.3,360.5,0.2,360.5z M270.2,70.8c0,0.5,0,0.8,0,1c0.2,7,0.3,13.9,0.5,20.9c0.4,12.3,0.9,24.7,1.4,37
		c0.4,8.4,0.7,16.8,1.3,25.1c0.7,10.5,1.4,21.1,2.3,31.6c0.9,10,1.9,20.1,3.2,30c1.4,10.4,3.2,20.7,5.2,31
		c2.7,14,6.4,27.7,11.7,40.9c1.1,2.9,2.4,5.7,3.7,8.7c6.5-6.3,14.1-7.3,22.5-6c0-1.1,0-2.1,0-3.1c0-0.3-0.2-0.7-0.5-0.9
		c-6.6-6-11.3-13.5-15.1-21.4c-5.4-11-9-22.6-12-34.4c-4.9-19.5-7.6-39.3-9.8-59.2c-1.1-10.4-2.1-20.8-2.9-31.3
		c-1-12-1.8-24.1-2.6-36.1c-0.7-11.7-1.2-23.5-1.8-35.2c0-0.8,0.2-1.1,1-1.3c6.2-1.4,12.4-2.9,18.5-4.3c2.1-0.5,4.2-0.8,6.4-1.3
		c-5.6-6-11-11.8-16.5-17.7c-0.3,0.2-0.5,0.4-0.7,0.6c-8.1,7.1-17.3,12.7-27,17.5c-14.5,7.2-29.8,12.4-45.4,16.9
		c-0.9,0.3-1.5,0.1-2.1-0.5c-4.4-3.7-8.8-7.5-13.2-11.2c-0.3-0.3-0.7-0.5-1.2-0.9c0,0.7,0,1.1,0,1.5c0.2,9.9,0.5,19.8,0.5,29.7
		c0,15.8-0.2,31.6-0.4,47.4c-0.1,8-0.2,15.9-0.5,23.9c-0.6,15.5-1.8,31-4,46.3c-1.7,11.6-4,23.1-7.6,34.2
		c-6.4,19.8-16.2,37.9-28.2,54.9c-1.1,1.6-2.3,3.2-3.4,4.8c1.2,0.8,2.4,1.6,3.6,2.4c0.6-0.6,1.1-1.1,1.6-1.6
		c9-9.2,17.2-19,24.3-29.8c10.1-15.5,17.5-32.1,21.3-50.2c3.2-15,4.9-30.2,5.9-45.5c1-15.6,1.6-31.1,2.2-46.7
		c0.3-9.1,0.3-18.3,0.3-27.5c0-7.9-0.1-15.8-0.1-23.8c0-0.9,0.2-1.2,1.1-1.4c4.4-1,8.8-2,13.2-3.1c1.8-0.4,3.6-0.9,5.6-1.3
		c0,0.8,0,1.4,0,2c0,57,0,114,0,171c0,6.4-0.7,12.5-4.7,17.9c3.9,4.7,7.8,9.4,11.7,14c5.3-11.7,14.6-19.7,23.7-28.3
		c1.4,4,2.8,7.7,3.9,11.4c1.1,3.6,1.9,7.3,2.9,11c0.9,2.9,2.7,3.4,5,1.5c2.4-2,4.2-4.5,5.6-7.3c1.8-3.7,2.3-7.5,1.4-11.5
		c-1-4.5-3.4-8.2-6.3-11.7c-5.9-7-13-12.5-20.2-18c-1.5-1.1-2.6-1.2-4-0.1c-0.1,0-0.1,0.1-0.1,0.2c3.1,6.6,6.2,13.2,9.4,19.9
		c-5.1,2.4-10.1,4.7-15.3,7.1c0-0.7,0-1.2,0-1.7c0-27.6,0-55.2,0-82.8c0-32.2,0-64.5,0-96.7c0-1,0.3-1.4,1.3-1.7
		c4.4-1.2,8.7-2.5,13-3.7C263.2,72.8,266.6,71.9,270.2,70.8z"/>
	<path d="M270.2,70.8c-3.6,1-7,2-10.4,3c-4.3,1.2-8.7,2.5-13,3.7c-1,0.3-1.3,0.7-1.3,1.7c0,32.2,0,64.5,0,96.7c0,27.6,0,55.2,0,82.8
		c0,0.5,0,1,0,1.7c5.2-2.4,10.2-4.7,15.3-7.1c-3.2-6.7-6.3-13.3-9.4-19.9c0-0.1,0.1-0.1,0.1-0.2c1.4-1.1,2.5-1,4,0.1
		c7.2,5.5,14.3,11.1,20.2,18c2.9,3.4,5.3,7.2,6.3,11.7c0.9,4,0.4,7.9-1.4,11.5c-1.4,2.8-3.2,5.3-5.6,7.3c-2.3,2-4.2,1.4-5-1.5
		c-1.1-3.6-1.8-7.4-2.9-11c-1.1-3.7-2.5-7.4-3.9-11.4c-9.1,8.6-18.4,16.6-23.7,28.3c-3.9-4.7-7.8-9.3-11.7-14
		c4-5.3,4.7-11.5,4.7-17.9c0-57,0-114,0-171c0-0.6,0-1.2,0-2c-2,0.5-3.8,0.9-5.6,1.3c-4.4,1-8.8,2.1-13.2,3.1
		c-0.9,0.2-1.1,0.6-1.1,1.4c0.1,7.9,0.1,15.8,0.1,23.8c0,9.2,0,18.3-0.3,27.5c-0.6,15.6-1.2,31.1-2.2,46.7
		c-1,15.3-2.7,30.5-5.9,45.5c-3.8,18.1-11.2,34.7-21.3,50.2c-7.1,10.8-15.2,20.7-24.3,29.8c-0.5,0.5-1,1-1.6,1.6
		c-1.2-0.8-2.4-1.6-3.6-2.4c1.2-1.6,2.3-3.2,3.4-4.8c12-17,21.8-35.1,28.2-54.9c3.6-11.2,5.9-22.6,7.6-34.2
		c2.3-15.4,3.4-30.8,4-46.3c0.3-7.9,0.5-15.9,0.5-23.9c0.2-15.8,0.4-31.6,0.4-47.4c0-9.9-0.3-19.8-0.5-29.7c0-0.4,0-0.8,0-1.5
		c0.5,0.4,0.9,0.6,1.2,0.9c4.4,3.7,8.8,7.4,13.2,11.2c0.7,0.6,1.2,0.7,2.1,0.5c15.6-4.5,30.8-9.7,45.4-16.9
		c9.7-4.8,18.8-10.4,27-17.5c0.2-0.2,0.4-0.4,0.7-0.6c5.5,5.9,10.9,11.7,16.5,17.7c-2.2,0.5-4.3,0.8-6.4,1.3
		c-6.2,1.4-12.4,2.9-18.5,4.3c-0.8,0.2-1,0.5-1,1.3c0.6,11.7,1.1,23.5,1.8,35.2c0.7,12,1.6,24.1,2.6,36.1
		c0.8,10.4,1.8,20.9,2.9,31.3c2.2,19.9,4.9,39.7,9.8,59.2c3,11.8,6.6,23.4,12,34.4c3.9,8,8.5,15.4,15.1,21.4
		c0.2,0.2,0.4,0.6,0.5,0.9c0.1,1,0,2,0,3.1c-8.4-1.3-16-0.3-22.5,6c-1.3-3-2.6-5.8-3.7-8.7c-5.3-13.3-9-27-11.7-40.9
		c-2-10.3-3.8-20.6-5.2-31c-1.4-10-2.3-20-3.2-30c-0.9-10.5-1.7-21-2.3-31.6c-0.5-8.4-0.9-16.8-1.3-25.1c-0.5-12.3-1-24.7-1.4-37
		c-0.2-6.9-0.4-13.9-0.5-20.9C270.2,71.6,270.2,71.3,270.2,70.8z"/>
</g>
</svg>
