<?xml version="1.0" encoding="utf-8"?>
<!-- Generator: Adobe Illustrator 20.1.0, SVG Export Plug-In . SVG Version: 6.00 Build 0)  -->
<svg version="1.1" id="图层_1" xmlns="http://www.w3.org/2000/svg" xmlns:xlink="http://www.w3.org/1999/xlink" x="0px" y="0px"
	 viewBox="0 0 360 360" style="enable-background:new 0 0 360 360;" xml:space="preserve">
<style type="text/css">
	.st0{fill:#FFFFFF;}
</style>
<g>
	<path class="st0" d="M0.2,360.5c0-120.1,0-240.2,0-360.2c120.1,0,240.2,0,360.2,0c0,120.1,0,240.2,0,360.2
		C240.4,360.5,120.3,360.5,0.2,360.5z M47.5,308.8c0.4-0.6,0.7-1,1-1.4c2.8-4.4,5.7-8.8,8.3-13.3c11.2-19,19.6-39.1,24.4-60.7
		c3-13.4,4.3-27.1,5.3-40.7c1-13.3,1.7-26.7,2.2-40.1c0.6-15.3,0.8-30.6,1.1-45.9c0.1-8,0.1-16,0.1-24c0-0.4,0-0.8,0-1.3
		c8.7-1.6,17.2-3.1,25.9-4.7c0,0.7,0,1.3,0,1.8c0,58.2,0,116.5,0,174.7c0,2.6,0,5.3-0.2,7.9c-0.4,5-1.5,9.7-4.2,14
		c-0.4,0.6-0.2,1,0.2,1.5c3.2,4.6,6.4,9.3,9.6,13.9c0.1,0.2,0.3,0.4,0.5,0.6c10.3-11,22.3-19.5,35.3-27c0.3,0.6,0.4,1,0.6,1.4
		c3.7,8.3,6.4,16.9,8.4,25.8c0.4,1.8,1.1,3.6,2,5.2c1.1,1.9,2.8,2.2,4.7,0.9c0.6-0.4,1.2-0.9,1.7-1.5c2.2-2.4,3.9-5,5.1-8
		c1.9-4.7,1.9-9.4-0.1-14.1c-1.5-3.6-3.8-6.7-6.1-9.7c-6.3-8-13.5-15.2-20.8-22.4c-1.6-1.6-3.3-3.2-5-4.8c-1.2,0.8-2.4,1.6-3.5,2.3
		c3.6,6.3,7.1,12.5,10.6,18.8c-8.4,3.2-16.5,6.3-24.8,9.4c0-0.6,0-1.1,0-1.6c0-19.4,0-38.9,0-58.3c0-44,0-87.9,0-131.9
		c0-1,0.2-1.4,1.3-1.6c4.2-0.8,8.4-1.7,12.6-2.5c3.2-0.6,6.3-1.3,9.6-1.9c0.1,0.4,0.1,0.6,0.1,0.9c0.6,11.6,1.1,23.2,1.9,34.7
		c1.2,15.1,2.5,30.3,4.1,45.4c1.4,14.2,3.7,28.3,6.7,42.2c3.9,18.3,10.4,35.5,20.4,51.4c7.8,12.3,16.9,23.4,28.1,32.7
		c11.4,9.4,24.2,16.3,37.8,21.9c14.3,5.8,29.1,10,44.1,13.2c1.2,0.3,1.8,0.1,2.4-1c3.1-5.4,7.5-9.5,13.2-12.2
		c2.7-1.2,5.5-2.1,8.3-3.3c0-0.9,0-2.1,0-3.3c-0.5,0-1-0.1-1.5-0.1c-5.5-0.5-10.9-0.9-16.3-1.6c-16.3-2-32.4-5.3-48-10.5
		c-19.2-6.3-35.5-16.9-48.8-32.2c-9.6-11.1-16.7-23.7-22.3-37.2c-7.8-19-12.5-38.8-15.8-59c-1.6-9.9-2.9-19.8-4.1-29.8
		c-1.1-8.8-1.9-17.7-2.6-26.6c-0.7-8.1-1.1-16.3-1.6-24.4c-0.1-1.2,0-2.4,0-3.8c8.9-1.2,17.8-2.3,26.9-3.5
		c-5.5-6.3-11-12.6-16.5-18.8c-2.5,1.5-4.9,3-7.4,4.4C152,55.4,141,61,129.3,64.9c-13,4.3-26.2,7.6-39.6,10.3
		c-0.5,0.1-1.2-0.1-1.7-0.3c-4.5-2.7-8.9-5.5-13.4-8.2c-0.3-0.2-0.7-0.4-1.2-0.7c0.1,1,0.2,1.8,0.2,2.7c0.4,10.3,1,20.5,1.2,30.8
		c0.2,12.6,0.1,25.3,0.1,37.9c0,8.5-0.1,17-0.2,25.6c-0.1,6.6-0.2,13.3-0.4,19.9c-0.4,12.9-1.5,25.8-3.3,38.6
		c-1.6,11.6-3.8,23-6.7,34.3c-4.4,17-10.5,33.3-18.8,48.7c-0.2,0.3-0.2,0.9-0.1,1.3C46.1,306.7,46.8,307.7,47.5,308.8z"/>
	<path d="M47.5,308.8c-0.8-1.1-1.5-2.1-2-3.1c-0.2-0.3-0.1-0.9,0.1-1.3c8.3-15.5,14.4-31.8,18.8-48.7c2.9-11.3,5.1-22.7,6.7-34.3
		c1.8-12.8,2.8-25.7,3.3-38.6c0.2-6.6,0.3-13.3,0.4-19.9c0.1-8.5,0.2-17,0.2-25.6c0-12.6,0.1-25.3-0.1-37.9
		C74.6,89.2,74,79,73.6,68.7c0-0.8-0.1-1.6-0.2-2.7c0.5,0.3,0.8,0.4,1.2,0.7c4.5,2.7,8.9,5.5,13.4,8.2c0.5,0.3,1.1,0.5,1.7,0.3
		c13.4-2.7,26.6-6.1,39.6-10.3C141,61,152,55.4,162.7,49.2c2.4-1.4,4.9-2.9,7.4-4.4c5.5,6.2,10.9,12.5,16.5,18.8
		c-9.1,1.2-18,2.4-26.9,3.5c0,1.3-0.1,2.6,0,3.8c0.5,8.1,1,16.3,1.6,24.4c0.7,8.9,1.5,17.8,2.6,26.6c1.2,10,2.5,19.9,4.1,29.8
		c3.3,20.2,8,40,15.8,59c5.6,13.5,12.6,26.1,22.3,37.2c13.3,15.2,29.6,25.9,48.8,32.2c15.7,5.1,31.7,8.5,48,10.5
		c5.4,0.7,10.9,1,16.3,1.6c0.5,0,0.9,0.1,1.5,0.1c0,1.2,0,2.4,0,3.3c-2.9,1.1-5.7,2-8.3,3.3c-5.7,2.6-10,6.8-13.2,12.2
		c-0.7,1.1-1.3,1.3-2.4,1c-15.1-3.3-29.8-7.4-44.1-13.2c-13.6-5.6-26.5-12.4-37.8-21.9c-11.2-9.3-20.4-20.4-28.1-32.7
		c-10-15.8-16.5-33.1-20.4-51.4c-3-14-5.3-28-6.7-42.2c-1.5-15.1-2.9-30.2-4.1-45.4c-0.9-11.6-1.3-23.1-1.9-34.7
		c0-0.3-0.1-0.5-0.1-0.9c-3.2,0.6-6.4,1.3-9.6,1.9c-4.2,0.8-8.4,1.7-12.6,2.5c-1.1,0.2-1.3,0.6-1.3,1.6c0,44,0,87.9,0,131.9
		c0,19.4,0,38.9,0,58.3c0,0.5,0,0.9,0,1.6c8.3-3.2,16.4-6.2,24.8-9.4c-3.6-6.3-7.1-12.5-10.6-18.8c1.1-0.8,2.3-1.5,3.5-2.3
		c1.7,1.6,3.4,3.2,5,4.8c7.3,7.2,14.5,14.4,20.8,22.4c2.4,3,4.7,6.1,6.1,9.7c1.9,4.7,2,9.4,0.1,14.1c-1.2,3-3,5.7-5.1,8
		c-0.5,0.6-1.1,1-1.7,1.5c-1.9,1.2-3.6,1-4.7-0.9c-0.9-1.6-1.6-3.4-2-5.2c-2-8.9-4.7-17.5-8.4-25.8c-0.2-0.4-0.4-0.8-0.6-1.4
		c-12.9,7.5-25,16-35.3,27c-0.2-0.2-0.4-0.4-0.5-0.6c-3.2-4.6-6.4-9.3-9.6-13.9c-0.3-0.5-0.6-0.8-0.2-1.5c2.7-4.3,3.8-9,4.2-14
		c0.2-2.6,0.2-5.3,0.2-7.9c0-58.2,0-116.5,0-174.7c0-0.5,0-1.1,0-1.8c-8.7,1.6-17.2,3.1-25.9,4.7c0,0.4,0,0.8,0,1.3c0,8,0,16-0.1,24
		c-0.3,15.3-0.5,30.6-1.1,45.9c-0.5,13.4-1.3,26.7-2.2,40.1c-1,13.7-2.4,27.3-5.3,40.7C76.5,255,68,275.1,56.8,294.1
		c-2.6,4.5-5.5,8.9-8.3,13.3C48.2,307.8,47.9,308.2,47.5,308.8z"/>
</g>
</svg>
