<?xml version="1.0" encoding="utf-8"?>
<!-- Generator: Adobe Illustrator 20.1.0, SVG Export Plug-In . SVG Version: 6.00 Build 0)  -->
<svg version="1.1" id="图层_1" xmlns="http://www.w3.org/2000/svg" xmlns:xlink="http://www.w3.org/1999/xlink" x="0px" y="0px"
	 viewBox="0 0 360 360" style="enable-background:new 0 0 360 360;" xml:space="preserve">
<style type="text/css">
	.st0{fill:#FFFFFF;}
</style>
<g>
	<path class="st0" d="M0.2,360.5c0-120.1,0-240.2,0-360.2c120.1,0,240.2,0,360.2,0c0,120.1,0,240.2,0,360.2
		C240.4,360.5,120.3,360.5,0.2,360.5z M47.5,207.5c50.3-16.6,91.4-46,124.7-86.8c0.1,0.1,0.3,0.1,0.4,0.2c-0.3,24.1-0.7,48.2-1,72.3
		c0.3-0.1,0.6-0.2,0.9-0.4c5.5-2.4,11-4.9,16.6-7.2c0.8-0.4,1.1-0.8,1-1.7c-0.3-9.3-0.7-18.5-0.9-27.8c-0.2-12.2-0.2-24.5-0.3-36.7
		c0-0.4,0-0.9,0-1.4c1.3,0,2.5,0,3.7,0c0.7,0,1.1,0.3,1.5,0.9c1.8,2.8,3.6,5.6,5.4,8.3c9.8,14.3,21.2,27.1,34.9,37.7
		c15.8,12.3,32.9,22.4,51.1,30.8c2.7,1.2,5.4,2.4,8,3.6c0.1-0.2,0.2-0.3,0.3-0.4c2.9-8.8,9.2-13.3,18.1-14.5
		c1.7-0.2,3.5-0.3,5.2-0.5c0-1.6,0-3.1,0-4.6c-0.2,0-0.4-0.1-0.6-0.1c-6.2-1.1-12.4-2.1-18.5-3.4c-17.8-3.9-34.9-9.9-51.1-18.4
		c-17.9-9.4-32.9-22.3-46-37.5c-0.4-0.5-0.8-1-1.4-1.7c36.3,0,72.2,0,108.4,0c-7.2-8-14.2-15.8-21.3-23.6c-0.3,0.3-0.6,0.6-0.9,0.8
		c-5.3,5-10.7,9.9-16,14.9c-0.6,0.6-1.3,0.8-2.1,0.8c-25.8,0-51.6,0-77.4,0c-0.4,0-0.9,0-1.3,0c0-13.4,0-26.7,0-40
		c1-0.1,1.9-0.3,2.9-0.4c9.7-1.1,19.4-2.3,29.1-3.2c9.1-0.9,18.3-1.7,27.5-2.3c5.4-0.4,10.9-0.4,16.3-0.5c2.1,0,4.3,0.2,6.6,0.3
		c-5.9-7.9-11.8-15.7-17.6-23.5c-1.9,0.9-3.6,1.7-5.3,2.5c-1.8,0.8-3.6,1.6-5.4,2.3c-17,6.6-34.8,10.5-52.7,13.6
		c-13,2.3-26.1,4.3-39.2,6.1c-11.7,1.6-23.4,3-35.1,4.2c-10.4,1.1-20.9,1.9-31.3,2.8c-1.4,0.1-2.8,0.2-4.2,0.4c0,1.4,0,2.7,0,3.9
		c0,0.2,0.1,0.5,0.1,0.8c30.6-0.9,61.1-2.6,91.6-4.7c0,12.6,0,25.1,0,37.7c-39.2,0-78.3,0-117.7,0c3.3,3.3,6.5,6.4,9.5,9.5
		c0.8,0.8,1.5,1,2.6,0.7c6.5-1.7,13-3.1,19.7-3.1c21.8-0.1,43.7,0,65.5,0c0.4,0,0.8,0,1.5,0c-0.3,0.5-0.5,0.8-0.7,1.1
		c-13.9,18.8-30.1,35.3-48.7,49.5c-15.3,11.6-31.7,21.5-48.6,30.6c-3,1.6-6,3.2-9,4.8C46.7,205.1,47.1,206.2,47.5,207.5z"/>
	<path d="M47.5,207.5c-0.4-1.2-0.8-2.3-1.2-3.6c3-1.6,6-3.2,9-4.8c16.9-9.1,33.3-19,48.6-30.6c18.6-14.1,34.9-30.6,48.7-49.5
		c0.2-0.3,0.4-0.6,0.7-1.1c-0.6,0-1,0-1.5,0c-21.8,0-43.7,0-65.5,0c-6.7,0-13.3,1.4-19.7,3.1c-1.1,0.3-1.8,0.2-2.6-0.7
		c-3.1-3.2-6.2-6.2-9.5-9.5c39.4,0,78.5,0,117.7,0c0-12.6,0-25.1,0-37.7c-30.5,2.1-61,3.8-91.6,4.7c0-0.3-0.1-0.6-0.1-0.8
		c0-1.3,0-2.5,0-3.9c1.5-0.1,2.9-0.2,4.2-0.4c10.4-0.9,20.9-1.7,31.3-2.8c11.7-1.2,23.4-2.6,35.1-4.2c13.1-1.8,26.2-3.8,39.2-6.1
		c17.9-3.1,35.6-7.1,52.7-13.6c1.8-0.7,3.6-1.5,5.4-2.3c1.7-0.8,3.5-1.6,5.3-2.5c5.8,7.8,11.7,15.5,17.6,23.5
		c-2.4-0.1-4.5-0.3-6.6-0.3c-5.4,0.1-10.9,0.1-16.3,0.5c-9.2,0.6-18.3,1.4-27.5,2.3c-9.7,1-19.4,2.1-29.1,3.2
		c-0.9,0.1-1.9,0.2-2.9,0.4c0,13.3,0,26.6,0,40c0.5,0,0.9,0,1.3,0c25.8,0,51.6,0,77.4,0c0.9,0,1.5-0.2,2.1-0.8
		c5.3-5,10.6-9.9,16-14.9c0.3-0.3,0.6-0.5,0.9-0.8c7,7.8,14,15.6,21.3,23.6c-36.2,0-72.1,0-108.4,0c0.6,0.8,1,1.2,1.4,1.7
		c13.1,15.3,28.1,28.2,46,37.5c16.2,8.5,33.3,14.5,51.1,18.4c6.1,1.4,12.3,2.3,18.5,3.4c0.2,0,0.4,0.1,0.6,0.1c0,1.6,0,3.1,0,4.6
		c-1.7,0.2-3.5,0.3-5.2,0.5c-9,1.2-15.3,5.7-18.1,14.5c0,0.1-0.1,0.2-0.3,0.4c-2.7-1.2-5.4-2.4-8-3.6c-18.2-8.3-35.3-18.4-51.1-30.8
		c-13.7-10.7-25.1-23.5-34.9-37.7c-1.9-2.7-3.7-5.5-5.4-8.3c-0.4-0.6-0.8-0.9-1.5-0.9c-1.2,0.1-2.4,0-3.7,0c0,0.6,0,1,0,1.4
		c0.1,12.2,0.1,24.5,0.3,36.7c0.2,9.3,0.6,18.5,0.9,27.8c0,0.9-0.2,1.3-1,1.7c-5.5,2.4-11.1,4.8-16.6,7.2c-0.3,0.1-0.7,0.3-0.9,0.4
		c0.3-24.1,0.7-48.2,1-72.3c-0.1-0.1-0.3-0.1-0.4-0.2C138.9,161.4,97.8,190.9,47.5,207.5z"/>
</g>
</svg>
