<?xml version="1.0" encoding="utf-8"?>
<!-- Generator: Adobe Illustrator 20.1.0, SVG Export Plug-In . SVG Version: 6.00 Build 0)  -->
<svg version="1.1" id="图层_1" xmlns="http://www.w3.org/2000/svg" xmlns:xlink="http://www.w3.org/1999/xlink" x="0px" y="0px"
	 viewBox="0 0 360 360" style="enable-background:new 0 0 360 360;" xml:space="preserve">
<style type="text/css">
	.st0{fill:#FFFFFF;}
</style>
<g>
	<path class="st0" d="M-0.1,360.1c0-120.1,0-240.2,0-360.2c120.1,0,240.2,0,360.2,0c0,120.1,0,240.2,0,360.2
		C240,360.1,120,360.1-0.1,360.1z M138,135.2c0-0.4-0.1-0.5-0.1-0.7c0-19.5,0-39,0-58.4c0-0.8,0.3-1,1-1.1
		c6.5-1.1,12.9-2.5,19.3-3.4c7.7-1.2,15.5-2.1,23.3-3c2.6-0.3,5.3-0.4,8.1-0.5c-6.3-7.1-12.6-14.1-18.8-21.1
		c-0.2,0.1-0.3,0.1-0.4,0.2c-11.7,7.1-24.2,12.3-37.1,16.6c-20.8,6.9-42.2,11.3-63.8,14.8c-3.1,0.5-6.3,1-9.4,1.5c0,1.7,0,3.2,0,4.7
		c20.4-2,40.7-3.9,61.1-5.9c0,18.9,0,37.7,0,56.5c-23.9,0-47.7,0-71.8,0c3.4,3.4,6.6,6.5,9.7,9.7c0.7,0.7,1.3,0.8,2.2,0.6
		c8.2-2.2,16.6-3.2,25-3.2c11.2-0.1,22.3,0,33.5,0c0.4,0,0.9,0,1.4,0c-0.2,0.5-0.2,0.9-0.4,1.3c-4.6,14.6-10.9,28.5-18.7,41.7
		c-14.3,24.2-32,45.8-51.3,66.1c-2,2.1-4.1,4.2-6.2,6.4c0.8,1.2,1.6,2.4,2.4,3.6c29.2-21.5,54-47.1,74.1-77.2
		c0,44.2-0.1,88.3-2.2,132.4c0.3-0.1,0.4-0.1,0.5-0.1c6.3-3,12.6-5.9,18.8-8.9c0.3-0.2,0.6-0.8,0.6-1.2c-0.1-2.8-0.3-5.6-0.4-8.4
		c-0.2-10.5-0.4-21-0.5-31.5c-0.1-16.6-0.2-33.1-0.2-49.7c0-13.7,0-27.4,0-41c0-0.4,0-0.8,0-1.4c0.4,0.2,0.6,0.3,0.8,0.5
		c3.2,2.8,6.6,5.5,9.7,8.4c8.2,7.8,14.7,16.8,19.7,27c1.2,2.5,2.8,4.9,4.6,7c2.7,3.3,5.5,3,7.9-0.6c0.2-0.4,0.5-0.7,0.7-1.1
		c1-2.9,2.3-5.7,3-8.7c1.9-8.6-0.6-15.8-7.7-21.2c-2.6-2-5.4-3.8-8.2-5.4c-9.2-5.3-19.1-9.2-29.2-12.7c-0.9-0.3-1.1-0.7-1.1-1.6
		c0-7.4,0-14.8,0-22.2c0-0.4,0-0.8,0-1.3c20.8,0,41.5,0,62.5,0c-7.2-7.6-14.3-15-21.3-22.5c-4.9,4.9-9.7,9.8-14.6,14.6
		c-0.4,0.4-1.2,0.8-1.9,0.8c-7.8,0.1-15.6,0-23.4,0C138.9,135.2,138.5,135.2,138,135.2z"/>
	<path d="M138,135.2c0.5,0,0.9,0,1.3,0c7.8,0,15.6,0,23.4,0c0.6,0,1.4-0.3,1.9-0.8c4.9-4.8,9.7-9.6,14.6-14.6
		c7,7.4,14.1,14.8,21.3,22.5c-21,0-41.7,0-62.5,0c0,0.5,0,0.9,0,1.3c0,7.4,0,14.8,0,22.2c0,0.9,0.3,1.3,1.1,1.6
		c10,3.5,19.9,7.4,29.2,12.7c2.8,1.6,5.6,3.4,8.2,5.4c7.1,5.4,9.6,12.6,7.7,21.2c-0.6,3-1.9,5.8-3,8.7c-0.1,0.4-0.4,0.8-0.7,1.1
		c-2.3,3.5-5.2,3.8-7.9,0.6c-1.8-2.1-3.4-4.5-4.6-7c-4.9-10.2-11.5-19.2-19.7-27c-3.1-2.9-6.4-5.6-9.7-8.4c-0.2-0.1-0.4-0.2-0.8-0.5
		c0,0.6,0,1,0,1.4c0,13.7,0,27.4,0,41c0,16.6,0.1,33.1,0.2,49.7c0.1,10.5,0.3,21,0.5,31.5c0.1,2.8,0.3,5.6,0.4,8.4
		c0,0.4-0.3,1-0.6,1.2c-6.3,3-12.5,5.9-18.8,8.9c-0.1,0-0.2,0-0.5,0.1c2.1-44.1,2.2-88.3,2.2-132.4c-20.1,30.1-44.9,55.7-74.1,77.2
		c-0.8-1.2-1.6-2.4-2.4-3.6c2.1-2.1,4.2-4.2,6.2-6.4c19.3-20.3,36.9-41.9,51.3-66.1c7.8-13.2,14.1-27,18.7-41.7
		c0.1-0.4,0.2-0.7,0.4-1.3c-0.5,0-1,0-1.4,0c-11.2,0-22.3-0.1-33.5,0c-8.5,0.1-16.8,1-25,3.2c-0.9,0.2-1.5,0.1-2.2-0.6
		c-3.1-3.2-6.3-6.3-9.7-9.7c24.1,0,47.9,0,71.8,0c0-18.9,0-37.6,0-56.5c-20.3,2-40.7,3.9-61.1,5.9c0-1.6,0-3.1,0-4.7
		c3.1-0.5,6.2-1,9.4-1.5c21.6-3.4,43-7.9,63.8-14.8c12.9-4.3,25.4-9.5,37.1-16.6c0.1-0.1,0.2-0.1,0.4-0.2c6.2,7,12.4,14,18.8,21.1
		c-2.8,0.2-5.5,0.2-8.1,0.5c-7.8,0.9-15.6,1.9-23.3,3c-6.5,1-12.9,2.3-19.3,3.4c-0.7,0.1-1,0.3-1,1.1c0,19.5,0,39,0,58.4
		C137.9,134.7,138,134.8,138,135.2z"/>
</g>
</svg>
