<?xml version="1.0" encoding="utf-8"?>
<!-- Generator: Adobe Illustrator 20.1.0, SVG Export Plug-In . SVG Version: 6.00 Build 0)  -->
<svg version="1.1" id="图层_1" xmlns="http://www.w3.org/2000/svg" xmlns:xlink="http://www.w3.org/1999/xlink" x="0px" y="0px"
	 viewBox="0 0 360 360" style="enable-background:new 0 0 360 360;" xml:space="preserve">
<style type="text/css">
	.st0{fill:#FFFFFF;}
</style>
<g>
	<path class="st0" d="M-0.1,360.1c0-120.1,0-240.2,0-360.2c120.1,0,240.2,0,360.2,0c0,120.1,0,240.2,0,360.2
		C240,360.1,120,360.1-0.1,360.1z M94.3,44.4c-10.2,47-25.8,91.8-50.7,133.2c0.8,0.5,1.5,1,2.2,1.5c1.6,1,1.1,1.2,2.5-0.3
		c8.1-9.1,15.7-18.7,22.9-28.5c0.5-0.7,1-0.9,1.8-0.9c8.2,0,16.5,0,24.7,0c0.4,0,0.8,0,1.2,0.1c0,15.7,0,31.3,0,47.1
		c-17.2,0-34.4,0-51.8,0c3.5,3.5,6.9,6.9,10.3,10.2c0.3,0.3,1,0.3,1.4,0.2c6.3-1.6,12.6-2.7,19-2.9c6.8-0.3,13.6-0.2,20.4-0.3
		c0.3,0,0.5,0.1,0.9,0.1c0,2,0,3.9,0,5.8c0,19.1,0,38.2-0.1,57.4c0,5.2-0.9,10.3-4.6,14.4c5.1,6.3,10.2,12.5,15.3,18.9
		c3-5.5,6.8-10.2,10.9-14.7c10.3-11.5,21.6-22,33.1-32.3c4.7-4.2,9.4-8.3,14.1-12.4c0.3-0.3,0.6-0.8,0.5-1.1
		c-0.6-1.5-1.4-2.9-2.1-4.3c-16.9,11-33.7,21.9-50.6,32.9c0-21.6,0-43.1,0-64.7c20,0,39.9,0,60,0c-6.4-6.8-12.7-13.5-18.9-20.1
		c-4.1,4.1-8.2,8.1-12.1,12.2c-0.6,0.6-1.1,0.9-2,0.9c-8.6,0-17.2,0-25.8,0c-0.4,0-0.8,0-1.2,0c0-15.7,0-31.4,0-47.1
		c15.7,0,31.2,0,47.1,0c-6.4-6.8-12.7-13.5-18.9-20.1c-4.1,4.1-8.1,8.1-12.1,12.1c-0.6,0.6-1.3,0.9-2.2,0.9c-17.9,0-35.8,0-53.6,0
		c-0.4,0-0.9,0-1.5,0c0.3-0.5,0.4-0.8,0.6-1.2c7.1-11.8,13.6-24,19.8-36.3c0.5-1,1-1.4,2.2-1.4c24,0,48.1,0,72.1,0c0.5,0,1,0,1.9,0
		c-6.5-6.9-12.7-13.5-19-20.2c-0.4,0.4-0.6,0.8-0.9,1.1c-3.7,3.7-7.4,7.5-11.2,11.2c-0.4,0.4-1.2,0.8-1.8,0.8c-12.9,0-25.8,0-38.8,0
		c-0.4,0-0.7,0-1.2-0.1c0.1-0.4,0.2-0.6,0.3-0.8c3.1-6.4,6.1-12.7,9.2-19.1c2.4-4.8,5-9.5,8.8-13.3c1.5-1.6,3.2-2.9,4.9-4.5
		C112.3,53.8,103.3,49.2,94.3,44.4z"/>
	<path d="M94.3,44.4c9,4.7,18,9.4,27,14.1c-1.7,1.5-3.4,2.9-4.9,4.5c-3.8,3.9-6.5,8.5-8.8,13.3c-3.1,6.3-6.2,12.7-9.2,19.1
		c-0.1,0.2-0.2,0.4-0.3,0.8c0.5,0,0.8,0.1,1.2,0.1c12.9,0,25.8,0,38.8,0c0.6,0,1.4-0.3,1.8-0.8c3.8-3.7,7.5-7.4,11.2-11.2
		c0.3-0.3,0.6-0.7,0.9-1.1c6.4,6.8,12.6,13.4,19,20.2c-0.8,0-1.4,0-1.9,0c-24,0-48.1,0-72.1,0c-1.1,0-1.7,0.4-2.2,1.4
		c-6.2,12.3-12.7,24.5-19.8,36.3c-0.2,0.3-0.4,0.7-0.6,1.2c0.6,0,1,0,1.5,0c17.9,0,35.8,0,53.6,0c0.9,0,1.5-0.3,2.2-0.9
		c4-4,8-8,12.1-12.1c6.3,6.7,12.5,13.3,18.9,20.1c-15.8,0-31.4,0-47.1,0c0,15.7,0,31.3,0,47.1c0.4,0,0.8,0,1.2,0
		c8.6,0,17.2,0,25.8,0c0.8,0,1.4-0.3,2-0.9c4-4,8-8,12.1-12.2c6.3,6.6,12.5,13.3,18.9,20.1c-20.2,0-40.1,0-60,0c0,21.6,0,43,0,64.7
		c16.9-11,33.7-21.9,50.6-32.9c0.7,1.5,1.5,2.9,2.1,4.3c0.1,0.2-0.2,0.8-0.5,1.1c-4.7,4.2-9.5,8.2-14.1,12.4
		c-11.5,10.3-22.8,20.8-33.1,32.3c-4,4.5-7.9,9.2-10.9,14.7c-5.2-6.3-10.2-12.6-15.3-18.9c3.7-4.2,4.6-9.2,4.6-14.4
		c0.1-19.1,0.1-38.2,0.1-57.4c0-1.9,0-3.8,0-5.8c-0.3,0-0.6-0.1-0.9-0.1c-6.8,0.1-13.6,0-20.4,0.3c-6.4,0.2-12.8,1.4-19,2.9
		c-0.4,0.1-1.1,0.1-1.4-0.2c-3.4-3.3-6.7-6.6-10.3-10.2c17.4,0,34.6,0,51.8,0c0-15.7,0-31.4,0-47.1c-0.4,0-0.8-0.1-1.2-0.1
		c-8.2,0-16.5,0-24.7,0c-0.8,0-1.3,0.2-1.8,0.9c-7.2,9.8-14.8,19.4-22.9,28.5c-1.4,1.6-0.9,1.3-2.5,0.3c-0.7-0.4-1.4-0.9-2.2-1.5
		C68.5,136.3,84.1,91.5,94.3,44.4z"/>
</g>
</svg>
