<?xml version="1.0" encoding="utf-8"?>
<!-- Generator: Adobe Illustrator 20.1.0, SVG Export Plug-In . SVG Version: 6.00 Build 0)  -->
<svg version="1.1" id="图层_1" xmlns="http://www.w3.org/2000/svg" xmlns:xlink="http://www.w3.org/1999/xlink" x="0px" y="0px"
	 viewBox="0 0 360 360" style="enable-background:new 0 0 360 360;" xml:space="preserve">
<style type="text/css">
	.st0{fill:#FFFFFF;}
</style>
<g>
	<path class="st0" d="M0.2,360.5c0-120.1,0-240.2,0-360.2c120.1,0,240.2,0,360.2,0c0,120.1,0,240.2,0,360.2
		C240.4,360.5,120.3,360.5,0.2,360.5z M173.6,241.6c-18.1,4.3-36,8.6-54.1,12.9c0.2-0.5,0.2-0.8,0.3-1.1
		c10.7-30.4,20.6-61.1,29.9-92c0.2-0.6,0.6-1.3,1.1-1.7c2.6-2.3,5.2-4.6,7.8-6.8c0.3-0.2,0.6-0.3,0.9-0.5c-0.1-0.1-0.2-0.2-0.3-0.4
		c-8.9-3.9-17.9-7.8-27-11.7c0,0.4-0.1,0.6-0.1,0.8c-0.4,6-0.7,12-1.3,17.9c-1.6,15-3.9,29.8-7,44.5c-3.6,17-7.5,33.9-11.3,50.9
		c-0.2,1.1-0.7,1.5-1.7,1.7c-10.9,2.3-21.9,4.7-32.8,6.9c-8,1.5-16,2.7-24,4c-1.8,0.3-3.5,0.4-5.4,0.6c4.4,7.9,8.7,15.7,13,23.6
		c2.4-2.1,4.7-4,6.8-6.1c2.5-2.5,5.4-4,8.6-5.2c29-10.5,58-20.7,87.3-30.2c3.4-1.1,6.8-2.2,10.3-3.3
		C174.4,244.7,174,243.2,173.6,241.6z M72.3,147.3c-1.1,0.7-1.9,1.4-2.9,1.9c-0.7,0.4-0.7,0.8-0.5,1.5c1.6,6.1,3.3,12.1,4.8,18.2
		c3.5,14.2,5.6,28.6,6.9,43.1c0.5,5.8,0.8,11.6,1.5,17.4c0.3,2.4,1,4.8,1.9,7c1.1,2.5,3.2,3,5.6,1.7c1.1-0.6,2.2-1.4,3.1-2.2
		c6-5.5,8.1-12.6,7.9-20.6c-0.1-6.8-1.9-13.2-4.3-19.4c-4.3-11.4-9.8-22.3-15.5-33C78.1,157.7,75.2,152.5,72.3,147.3z M161.9,103.7
		c-0.3,0.3-0.5,0.4-0.7,0.6c-4.6,4.9-9.2,9.9-13.8,14.9c-0.7,0.8-1.4,1-2.4,1c-32.8,0-65.6,0-98.4,0c-0.4,0-0.9,0-1.6,0
		c3.6,3.6,6.9,6.9,10.2,10.1c0.3,0.3,0.9,0.4,1.4,0.3c8.6-2.2,17.4-3.2,26.3-3.2c32.8,0,65.7,0,98.5,0c0.5,0,0.9,0,1.7,0
		C175.9,119.4,168.9,111.6,161.9,103.7z M85.4,54.2c2.7,5.1,5.4,10,7.9,15.1c4.6,9.4,8,19.1,9.8,29.4c0.5,3.1,1.3,6.3,2.9,9.1
		c1.9,3.2,4.5,3.8,7.2,1.3c2.1-2,3.9-4.3,5.5-6.7c3-4.6,4.2-9.6,2.9-15.1c-1-4.2-3.3-7.8-6.1-11c-7.6-9.1-16.8-16.5-26.1-23.8
		c-0.2-0.2-0.8-0.3-1-0.1C87.3,52.8,86.3,53.6,85.4,54.2z"/>
	<path d="M173.6,241.6c0.4,1.7,0.8,3.2,1.2,4.8c-3.5,1.1-6.9,2.2-10.3,3.3c-29.3,9.5-58.4,19.7-87.3,30.2c-3.3,1.2-6.1,2.7-8.6,5.2
		c-2.1,2.1-4.5,4-6.8,6.1c-4.3-7.9-8.6-15.6-13-23.6c1.9-0.2,3.7-0.4,5.4-0.6c8-1.3,16-2.5,24-4c11-2.1,21.9-4.6,32.8-6.9
		c1-0.2,1.5-0.7,1.7-1.7c3.7-17,7.7-33.9,11.3-50.9c3.1-14.7,5.5-29.5,7-44.5c0.6-6,0.9-12,1.3-17.9c0-0.2,0-0.4,0.1-0.8
		c9.1,3.9,18,7.8,27,11.7c0.1,0.1,0.2,0.2,0.3,0.4c-0.3,0.2-0.7,0.3-0.9,0.5c-2.6,2.2-5.2,4.5-7.8,6.8c-0.5,0.5-0.9,1.1-1.1,1.7
		c-9.3,30.9-19.3,61.6-29.9,92c-0.1,0.3-0.2,0.6-0.3,1.1C137.6,250.2,155.5,245.9,173.6,241.6z"/>
	<path d="M72.3,147.3c2.9,5.3,5.7,10.4,8.5,15.6c5.7,10.8,11.2,21.6,15.5,33c2.4,6.3,4.2,12.7,4.3,19.4c0.1,7.9-1.9,15-7.9,20.6
		c-0.9,0.9-2,1.6-3.1,2.2c-2.4,1.3-4.5,0.7-5.6-1.7c-0.9-2.2-1.7-4.6-1.9-7c-0.7-5.8-1-11.6-1.5-17.4c-1.3-14.5-3.4-29-6.9-43.1
		c-1.5-6.1-3.2-12.1-4.8-18.2c-0.2-0.7-0.2-1.1,0.5-1.5C70.4,148.6,71.3,148,72.3,147.3z"/>
	<path d="M161.9,103.7c7.1,7.8,14.1,15.6,21.3,23.7c-0.8,0-1.2,0-1.7,0c-32.8,0-65.7,0-98.5,0c-8.9,0-17.7,1.1-26.3,3.2
		c-0.4,0.1-1.1,0-1.4-0.3c-3.3-3.3-6.6-6.6-10.2-10.1c0.7,0,1.2,0,1.6,0c32.8,0,65.6,0,98.4,0c1,0,1.7-0.3,2.4-1
		c4.6-5,9.2-9.9,13.8-14.9C161.4,104.2,161.6,104,161.9,103.7z"/>
	<path d="M85.4,54.2c0.9-0.6,1.9-1.3,3-1.9c0.2-0.1,0.8-0.1,1,0.1c9.3,7.3,18.5,14.7,26.1,23.8c2.7,3.3,5.1,6.8,6.1,11
		c1.3,5.5,0.1,10.5-2.9,15.1c-1.6,2.4-3.4,4.7-5.5,6.7c-2.7,2.6-5.3,2-7.2-1.3c-1.6-2.8-2.3-5.9-2.9-9.1
		c-1.8-10.3-5.2-20.1-9.8-29.4C90.8,64.2,88,59.2,85.4,54.2z"/>
</g>
</svg>
