<?xml version="1.0" encoding="utf-8"?>
<!-- Generator: Adobe Illustrator 20.1.0, SVG Export Plug-In . SVG Version: 6.00 Build 0)  -->
<svg version="1.1" id="图层_1" xmlns="http://www.w3.org/2000/svg" xmlns:xlink="http://www.w3.org/1999/xlink" x="0px" y="0px"
	 viewBox="0 0 360 360" style="enable-background:new 0 0 360 360;" xml:space="preserve">
<style type="text/css">
	.st0{fill:#FFFFFF;}
</style>
<g>
	<path class="st0" d="M0.2,360.5c0-120.1,0-240.2,0-360.2c120.1,0,240.2,0,360.2,0c0,120.1,0,240.2,0,360.2
		C240.4,360.5,120.3,360.5,0.2,360.5z M269.1,68.4c-0.4,0.4-0.7,0.6-1,0.9c-4.1,4.1-8.2,8.2-12.3,12.3c-0.6,0.6-1.2,0.9-2.1,0.9
		c-21.8,0-43.7,0-65.5,0c-0.4,0-0.8,0-1.5,0c0.9-0.9,1.6-1.5,2.2-2.2c2.2-2.3,4.2-4.8,5.6-7.7c2.5-5.4,2-10.5-1.8-15.1
		c-0.9-1.1-1.9-2.1-2.9-3c-4.6-4.1-10-7.2-15.5-9.9c-4.1-2-8.2-3.9-12.4-5.8c-0.8,1.2-1.5,2.1-2.1,3.2c-0.1,0.3-0.1,0.8,0.1,1.1
		c1,1.3,2.1,2.5,3.2,3.8c7.8,9.2,13.8,19.4,16.5,31.3c0.3,1.4,0.6,2.8,1,4.5c-33.1,0-65.9,0-99,0c3.5,3.5,6.9,6.9,10.2,10.2
		c0.3,0.2,0.9,0.3,1.3,0.2c8.8-2.3,17.7-3.3,26.7-3.3c34.7,0,69.4,0,104.2,0c0.4,0,0.8,0,1.4,0.1c-1,3.1-1.8,6.1-2.8,9.1
		c-4.5,13.4-10.8,26-17.9,38.2c-0.5,0.8-1,0.9-1.8,0.9c-15.5,0-31,0-46.6,0c-0.4,0-0.8,0-1.2,0c0-0.2-0.1-0.3,0-0.3
		c0.2-0.2,0.4-0.5,0.6-0.7c2.5-2.6,4.7-5.4,6.2-8.8c2.4-5.3,1.8-10.2-2.1-14.5c-1.2-1.4-2.5-2.7-3.9-3.9c-6.3-5.6-13.5-10-20.9-13.9
		c-1.7-0.9-3.4-1.8-5.1-2.7c-0.7,1-1.3,2-1.9,2.9c-0.4,0.6-0.3,0.9,0.1,1.5c1.1,1.4,2.2,2.9,3.3,4.3c7,9.3,12.9,19.1,15.8,30.4
		c0.5,1.9,1,3.7,1.6,5.8c-33.8,0-67.4,0-101.2,0c0.1,0.2,0.2,0.4,0.2,0.4c3.2,3.3,6.5,6.5,9.8,9.7c0.3,0.3,0.9,0.3,1.4,0.2
		C67.9,146,76.9,145,86,145c75.4,0,150.7,0,226.1,0c0.5,0,1,0,1.8,0c-6.8-7.2-13.4-14.2-20.1-21.3c-4.5,4.5-8.9,8.9-13.3,13.3
		c-0.6,0.6-1.2,0.9-2.1,0.9c-21.4,0-42.8,0-64.2,0c-0.4,0-0.8,0-1.5-0.1c0.4-0.5,0.6-0.8,0.9-1.1c7.3-8.3,14.6-16.6,21.9-25
		c1.2-1.4,2.5-2.5,4.2-3.2c2.4-1,4.8-2.1,7.1-3.1c0.3-0.1,0.6-0.3,1-0.5c-7.4-5.1-14.6-10-21.9-15c0-0.1,0.1-0.2,0.1-0.3
		c20.9,0,41.8,0,63,0C282.3,82.4,275.7,75.4,269.1,68.4z"/>
	<path d="M269.1,68.4c6.6,7,13.2,14,20,21.2c-21.2,0-42.1,0-63,0c0,0.1-0.1,0.2-0.1,0.3c7.2,5,14.5,9.9,21.9,15
		c-0.4,0.2-0.7,0.4-1,0.5c-2.4,1.1-4.7,2.2-7.1,3.1c-1.7,0.7-3,1.8-4.2,3.2c-7.2,8.4-14.6,16.7-21.9,25c-0.3,0.3-0.5,0.6-0.9,1.1
		c0.6,0,1,0.1,1.5,0.1c21.4,0,42.8,0,64.2,0c0.9,0,1.5-0.2,2.1-0.9c4.4-4.4,8.7-8.8,13.3-13.3c6.7,7,13.3,14,20.1,21.3
		c-0.8,0-1.3,0-1.8,0c-75.4,0-150.7,0-226.1,0c-9.1,0-18.1,1-26.9,3.3c-0.4,0.1-1.1,0-1.4-0.2c-3.3-3.2-6.5-6.5-9.8-9.7
		c-0.1-0.1-0.1-0.2-0.2-0.4c33.7,0,67.3,0,101.2,0c-0.6-2-1.1-3.9-1.6-5.8c-3-11.3-8.9-21.1-15.8-30.4c-1.1-1.4-2.1-2.9-3.3-4.3
		c-0.4-0.5-0.5-0.9-0.1-1.5c0.7-0.9,1.3-1.8,1.9-2.9c1.7,0.9,3.4,1.8,5.1,2.7c7.4,4,14.6,8.3,20.9,13.9c1.4,1.2,2.7,2.5,3.9,3.9
		c4,4.4,4.5,9.2,2.1,14.5c-1.5,3.3-3.7,6.1-6.2,8.8c-0.2,0.2-0.4,0.5-0.6,0.7c0,0,0,0.1,0,0.3c0.4,0,0.8,0,1.2,0c15.5,0,31,0,46.6,0
		c0.8,0,1.3-0.1,1.8-0.9c7.1-12.2,13.3-24.8,17.9-38.2c1-2.9,1.8-5.9,2.8-9.1c-0.6,0-1-0.1-1.4-0.1c-34.7,0-69.4,0-104.2,0
		c-9,0-17.9,1-26.7,3.3c-0.4,0.1-1,0.1-1.3-0.2c-3.4-3.3-6.7-6.6-10.2-10.2c33.1,0,65.9,0,99,0c-0.4-1.6-0.7-3-1-4.5
		c-2.8-11.9-8.7-22.1-16.5-31.3c-1.1-1.3-2.2-2.5-3.2-3.8c-0.2-0.3-0.3-0.8-0.1-1.1c0.6-1,1.3-2,2.1-3.2c4.2,1.9,8.3,3.8,12.4,5.8
		c5.5,2.7,10.9,5.8,15.5,9.9c1,0.9,2,1.9,2.9,3c3.8,4.6,4.4,9.7,1.8,15.1c-1.4,2.9-3.4,5.4-5.6,7.7c-0.7,0.7-1.3,1.3-2.2,2.2
		c0.7,0,1.1,0,1.5,0c21.8,0,43.7,0,65.5,0c0.9,0,1.5-0.3,2.1-0.9c4.1-4.1,8.2-8.2,12.3-12.3C268.4,69,268.7,68.8,269.1,68.4z"/>
</g>
</svg>
