<?xml version="1.0" encoding="utf-8"?>
<!-- Generator: Adobe Illustrator 20.1.0, SVG Export Plug-In . SVG Version: 6.00 Build 0)  -->
<svg version="1.1" id="图层_1" xmlns="http://www.w3.org/2000/svg" xmlns:xlink="http://www.w3.org/1999/xlink" x="0px" y="0px"
	 viewBox="0 0 360 360" style="enable-background:new 0 0 360 360;" xml:space="preserve">
<style type="text/css">
	.st0{fill:#FFFFFF;}
</style>
<g>
	<path class="st0" d="M-0.1,360.1c0-120.1,0-240.2,0-360.2c120.1,0,240.2,0,360.2,0c0,120.1,0,240.2,0,360.2
		C240,360.1,120,360.1-0.1,360.1z M223.9,230.6c-0.1,0.4-0.1,0.6-0.2,0.8c-1.2,6.9-3.2,13.6-5.6,20.2c-5.4,15.4-12.3,30.1-19.5,44.8
		c-0.5,1-1.1,1.4-2.2,1.4c-48.4,0-96.9,0-145.3,0c-0.5,0-0.9,0-1.5,0c0.2,0.3,0.2,0.4,0.3,0.5c3.2,3.2,6.4,6.5,9.7,9.7
		c0.3,0.3,1,0.4,1.4,0.3c9.1-2.4,18.3-3.3,27.7-3.3c74.4,0,148.7,0,223.1,0c0.5,0,1,0,1.8,0c-7.6-8.4-15-16.6-22.4-24.8
		c-0.4,0.4-0.7,0.7-1,1c-5.3,5.3-10.5,10.5-15.8,15.8c-0.6,0.6-1.3,0.9-2.2,0.9c-21.4,0-42.9,0-64.3,0c-0.4,0-0.8,0-1.5,0
		c0.4-0.6,0.6-1.1,0.9-1.5c8.3-13.5,17.7-26.3,26.9-39.2c2.6-3.6,5.6-6.4,9.9-7.8c1.6-0.5,3-1.3,4.7-2.1
		C240.3,241.6,232.2,236.1,223.9,230.6z M76.6,220c3.5,3.5,6.7,6.7,9.9,9.9c0.6,0.6,1,0.7,1.8,0.5c8.4-2.2,17-3.2,25.7-3.2
		c13.8,0,27.6,0,41.4,0c42.8,0,85.5,0,128.3,0c0.4,0,0.9,0,1.6,0c-7.6-8-15-15.8-22.5-23.7c-0.4,0.4-0.7,0.7-1,1
		c-4.6,4.9-9.1,9.8-13.7,14.7c-0.4,0.4-1,0.7-1.5,0.7c-19.5,0-39,0-58.6,0c-0.2,0-0.5-0.1-0.8-0.1c2.8-1.7,5.4-4.6,7.3-8
		c3-5.5,2.2-10.8-2.2-15.2c-6.9-6.9-15.5-11.3-24.3-15.2c-0.2-0.1-0.7,0-0.9,0.1c-0.8,0.6-1.5,1.2-2.1,1.7c1.7,2.6,3.2,4.8,4.7,7
		c4.5,7.1,8.5,14.6,10.8,22.8c0.7,2.6,1.5,5.1,4,7C148.3,220,112.6,220,76.6,220z M121.4,237.6c2.2,4,4.4,7.8,6.5,11.8
		c5,9.6,9.2,19.5,11,30.2c0.7,4,1.7,7.9,3.6,11.5c2,3.8,4.5,4.2,7.8,1.6c0.2-0.2,0.5-0.3,0.6-0.6c1.8-2.2,3.8-4.3,5.5-6.6
		c2.3-3.3,3-7,2.4-11c-0.7-4.8-3.1-8.8-5.9-12.6c-5.4-7.3-12.1-13.5-19-19.4c-2.9-2.5-6-4.9-9-7.4
		C123.7,236.1,122.6,236.8,121.4,237.6z"/>
	<path d="M223.9,230.6c8.3,5.5,16.4,11,24.8,16.5c-1.7,0.8-3.2,1.6-4.7,2.1c-4.3,1.4-7.2,4.2-9.9,7.8c-9.3,12.9-18.6,25.7-26.9,39.2
		c-0.3,0.4-0.5,0.9-0.9,1.5c0.6,0,1.1,0,1.5,0c21.4,0,42.9,0,64.3,0c0.9,0,1.5-0.3,2.2-0.9c5.2-5.3,10.5-10.5,15.8-15.8
		c0.3-0.3,0.6-0.6,1-1c7.4,8.2,14.8,16.4,22.4,24.8c-0.8,0-1.3,0-1.8,0c-74.4,0-148.7,0-223.1,0c-9.3,0-18.6,0.9-27.7,3.3
		c-0.4,0.1-1.1,0-1.4-0.3c-3.3-3.2-6.5-6.4-9.7-9.7c-0.1-0.1-0.1-0.2-0.3-0.5c0.6,0,1,0,1.5,0c48.4,0,96.9,0,145.3,0
		c1.2,0,1.7-0.4,2.2-1.4c7.2-14.6,14.1-29.4,19.5-44.8c2.3-6.6,4.3-13.3,5.6-20.2C223.8,231.2,223.8,231,223.9,230.6z"/>
	<path d="M76.6,220c36.1,0,71.7,0,107.7,0c-2.5-1.9-3.3-4.4-4-7c-2.3-8.2-6.3-15.6-10.8-22.8c-1.4-2.3-3-4.5-4.7-7
		c0.7-0.5,1.4-1.2,2.1-1.7c0.2-0.2,0.7-0.3,0.9-0.1c8.8,3.9,17.4,8.3,24.3,15.2c4.5,4.4,5.2,9.7,2.2,15.2c-1.9,3.5-4.4,6.3-7.3,8
		c0.4,0.1,0.6,0.1,0.8,0.1c19.5,0,39,0,58.6,0c0.5,0,1.1-0.3,1.5-0.7c4.6-4.9,9.2-9.8,13.7-14.7c0.3-0.3,0.6-0.6,1-1
		c7.4,7.8,14.8,15.6,22.5,23.7c-0.7,0-1.2,0-1.6,0c-42.8,0-85.5,0-128.3,0c-13.8,0-27.6,0-41.4,0c-8.7,0-17.3,1-25.7,3.2
		c-0.7,0.2-1.2,0.1-1.8-0.5C83.3,226.7,80.1,223.5,76.6,220z"/>
	<path d="M121.4,237.6c1.2-0.8,2.3-1.5,3.6-2.4c3,2.5,6,4.9,9,7.4c6.9,5.9,13.5,12.1,19,19.4c2.8,3.8,5.2,7.8,5.9,12.6
		c0.6,4-0.1,7.7-2.4,11c-1.7,2.3-3.6,4.4-5.5,6.6c-0.2,0.2-0.4,0.4-0.6,0.6c-3.3,2.6-5.9,2.1-7.8-1.6c-1.9-3.6-2.9-7.5-3.6-11.5
		c-1.8-10.8-6-20.7-11-30.2C125.9,245.5,123.6,241.6,121.4,237.6z"/>
</g>
</svg>
