<?xml version="1.0" encoding="utf-8"?>
<!-- Generator: Adobe Illustrator 20.1.0, SVG Export Plug-In . SVG Version: 6.00 Build 0)  -->
<svg version="1.1" id="图层_1" xmlns="http://www.w3.org/2000/svg" xmlns:xlink="http://www.w3.org/1999/xlink" x="0px" y="0px"
	 viewBox="0 0 360 360" style="enable-background:new 0 0 360 360;" xml:space="preserve">
<style type="text/css">
	.st0{fill:#FFFFFF;}
</style>
<g>
	<path class="st0" d="M0.2,360.5c0-120.1,0-240.1,0-360.2c120.1,0,240.1,0,360.2,0c0,120,0,240.1,0,360.2
		C240.4,360.5,120.3,360.5,0.2,360.5z M308.8,219.3c0-0.1,0.1-0.2,0.1-0.3c-8.6-7.8-17.1-15.6-25.7-23.4
		c-5.3,5.3-10.5,10.5-15.6,15.7c-0.6,0.6-1.2,0.9-2.1,0.9c-34,0-68.1,0-102.1,0c-0.4,0-0.9,0-1.4,0c0-0.5,0-0.9,0.1-1.2
		c0.7-4.8,1.4-9.6,2.1-14.3c0.1-0.5,0.5-1.1,0.9-1.4c2.9-2,5.8-3.9,8.7-5.8c0.3-0.2,0.7-0.5,1.1-0.8c-9.1-3.6-18.1-7.1-27.3-10.7
		c0,3.6,0.2,7,0,10.3c-0.5,7.5-1.3,15-1.9,22.4c-0.1,1.3-0.7,1.5-1.8,1.5c-29.2,0-58.3,0-87.5,0c-0.5,0-1,0-1.7,0
		c3.6,3.6,6.9,6.9,10.2,10.2c0.3,0.3,0.9,0.3,1.4,0.2c8.5-2.2,17.1-3.2,25.9-3.3c16.9-0.1,33.8,0,50.8,0c0.4,0,0.8,0,1.3,0.1
		c-0.1,0.4-0.1,0.6-0.2,0.9c-2.3,8.8-5.6,17.2-9.8,25.3c-8.5,16.1-20.3,29.3-34.7,40.3c-13.8,10.6-29,18.5-45,25
		c-2.3,0.9-4.5,1.8-6.9,2.7c0.4,1.2,0.8,2.4,1.2,3.6c0.7-0.2,1.3-0.3,1.9-0.5c16.9-4.7,33.4-10.7,48.8-19.2
		c12.7-7,24.4-15.4,34.3-26.1c13.5-14.5,22.4-31.4,26.6-50.7c0.2-1,0.6-1.3,1.7-1.3c6.5,0,13,0,19.6,0c0.4,0,0.9,0,1.4,0.1
		c0,0.6,0,1.1,0,1.6c0,15.3,0,30.6,0,46c0,3,0,3-2.7,4.3c-18,9-36.8,15.9-56,21.6c-2,0.6-4,1.2-6.1,1.8c0.4,1.3,0.8,2.4,1.3,3.8
		c10.7-2.4,21.4-4.6,32-7.1c10.6-2.5,21.1-5.7,31.5-9.6c0,0.7,0,1.2,0,1.7c0,3.4-0.4,7,0.2,10.3c1.2,6.4,4.9,11,11.3,13
		c3.3,1,6.6,1,10,1c22.8,0,45.5,0,68.3,0c3.5,0,7-0.1,10.4-0.5c7.3-0.8,13.9-3.5,19.4-8.5c2-1.9,3.8-3.9,5.3-6.4
		c-0.5-0.1-0.8-0.3-1.1-0.4c-5-1.4-8.4-4.6-10-9.5c-0.8-2.4-1.2-5-1.6-7.5c-1-7.6-1.4-15.2-1.4-22.8c0-0.3-0.1-0.7-0.1-1
		c-1.6,0-3.1,0-4.6,0c0,0.2-0.1,0.4-0.1,0.6c-0.7,8-1.3,15.9-2.2,23.9c-0.4,3.7-1.2,7.3-2.4,10.8c-1.7,5-5,7-10.2,7
		c-20.5,0-41,0-61.6,0c-1.7,0-3.4,0.2-5,0.1c-6.1-0.3-9.1-3.5-9.2-9.7c0-2.3,0-4.6,0-7c0-0.8,0.3-1.2,1-1.5
		c19.7-8.7,39.2-17.9,58.4-27.5c0.5-0.2,1.1-0.4,1.6-0.4c3.7-0.4,7.5-0.7,11.2-1c0.2,0,0.4-0.1,0.7-0.3
		c-5.1-6.7-10.2-13.3-15.2-19.9c-8.5,7.8-17.9,14.1-27.6,20c-9.7,5.9-19.7,11.3-30,16.4c0-14.6,0-28.9,0-43.4
		C235.3,219.3,272,219.3,308.8,219.3z M198.3,180.3c-0.3,0.8-0.5,1.5-0.8,2.2c-0.4,1-0.2,1.4,0.8,2c6,2.9,12.1,5.8,18,8.9
		c7.3,3.9,14,8.6,19.7,14.7c1.1,1.1,2.4,2.1,3.8,2.9c2.8,1.6,4.9,0.8,5.9-2.3c1.1-3.5,1.4-7.1,0.6-10.6c-1.1-5.3-4.6-8.5-9.3-10.7
		c-4.2-1.9-8.8-2.7-13.2-3.7C215.5,182,207,180.9,198.3,180.3z"/>
	<path d="M308.8,219.3c-36.7,0-73.5,0-110.3,0c0,14.5,0,28.9,0,43.4c10.3-5.1,20.3-10.5,30-16.4c9.7-5.9,19.1-12.3,27.6-20
		c5.1,6.7,10.1,13.3,15.2,19.9c-0.3,0.1-0.5,0.2-0.7,0.3c-3.7,0.3-7.5,0.7-11.2,1c-0.5,0.1-1.1,0.2-1.6,0.4
		c-19.3,9.6-38.7,18.7-58.4,27.5c-0.7,0.3-1,0.7-1,1.5c0.1,2.3,0,4.6,0,7c0,6.1,3,9.3,9.2,9.7c1.7,0.1,3.4-0.1,5-0.1
		c20.5,0,41,0,61.6,0c5.2,0,8.5-2,10.2-7c1.2-3.5,2-7.2,2.4-10.8c0.9-7.9,1.5-15.9,2.2-23.9c0-0.2,0.1-0.3,0.1-0.6c1.5,0,3,0,4.6,0
		c0,0.3,0.1,0.6,0.1,1c0,7.6,0.4,15.3,1.4,22.8c0.3,2.5,0.8,5.1,1.6,7.5c1.6,4.9,5,8.1,10,9.5c0.3,0.1,0.7,0.2,1.1,0.4
		c-1.5,2.4-3.3,4.5-5.3,6.4c-5.5,5-12.1,7.7-19.4,8.5c-3.4,0.4-6.9,0.5-10.4,0.5c-22.8,0-45.5,0-68.3,0c-3.4,0-6.7,0.1-10-1
		c-6.5-2-10.2-6.6-11.3-13c-0.6-3.3-0.1-6.9-0.2-10.3c0-0.5,0-1,0-1.7c-10.4,3.9-20.9,7.1-31.5,9.6c-10.6,2.5-21.3,4.7-32,7.1
		c-0.5-1.4-0.9-2.6-1.3-3.8c2.1-0.6,4.1-1.2,6.1-1.8c19.3-5.7,38.1-12.6,56-21.6c2.7-1.3,2.7-1.3,2.7-4.3c0-15.3,0-30.6,0-46
		c0-0.5,0-1,0-1.6c-0.6,0-1-0.1-1.4-0.1c-6.5,0-13,0-19.6,0c-1,0-1.4,0.3-1.7,1.3c-4.3,19.3-13.1,36.3-26.6,50.7
		c-10,10.6-21.6,19.1-34.3,26.1c-15.5,8.5-31.9,14.5-48.8,19.2c-0.6,0.2-1.1,0.3-1.9,0.5c-0.4-1.2-0.8-2.3-1.2-3.6
		c2.3-0.9,4.6-1.8,6.9-2.7c16.1-6.4,31.3-14.4,45-25c14.4-11,26.2-24.3,34.7-40.3c4.3-8.1,7.5-16.5,9.8-25.3
		c0.1-0.2,0.1-0.5,0.2-0.9c-0.5,0-0.9-0.1-1.3-0.1c-16.9,0-33.8,0-50.8,0c-8.7,0-17.4,1.1-25.9,3.3c-0.4,0.1-1.1,0-1.4-0.2
		c-3.4-3.3-6.6-6.6-10.2-10.2c0.8,0,1.3,0,1.7,0c29.2,0,58.3,0,87.5,0c1.1,0,1.7-0.2,1.8-1.5c0.6-7.5,1.4-15,1.9-22.4
		c0.2-3.3,0-6.7,0-10.3c9.3,3.6,18.2,7.1,27.3,10.7c-0.5,0.3-0.8,0.6-1.1,0.8c-2.9,1.9-5.8,3.8-8.7,5.8c-0.4,0.3-0.8,0.9-0.9,1.4
		c-0.7,4.8-1.4,9.6-2.1,14.3c0,0.3,0,0.7-0.1,1.2c0.5,0,0.9,0,1.4,0c34,0,68.1,0,102.1,0c0.9,0,1.5-0.3,2.1-0.9
		c5.2-5.2,10.3-10.4,15.6-15.7c8.6,7.8,17.2,15.6,25.7,23.4C308.8,219.1,308.8,219.2,308.8,219.3z"/>
	<path d="M198.3,180.3c8.7,0.6,17.1,1.7,25.5,3.4c4.5,1,9,1.7,13.2,3.7c4.7,2.2,8.2,5.4,9.3,10.7c0.8,3.6,0.5,7.2-0.6,10.6
		c-1,3.1-3.1,3.9-5.9,2.3c-1.4-0.8-2.7-1.8-3.8-2.9c-5.7-6.1-12.4-10.8-19.7-14.7c-5.9-3.2-12-6-18-8.9c-1.1-0.5-1.3-1-0.8-2
		C197.9,181.9,198.1,181.1,198.3,180.3z"/>
</g>
</svg>
