<?xml version="1.0" encoding="utf-8"?>
<!-- Generator: Adobe Illustrator 20.1.0, SVG Export Plug-In . SVG Version: 6.00 Build 0)  -->
<svg version="1.1" id="图层_1" xmlns="http://www.w3.org/2000/svg" xmlns:xlink="http://www.w3.org/1999/xlink" x="0px" y="0px"
	 viewBox="0 0 360 360" style="enable-background:new 0 0 360 360;" xml:space="preserve">
<style type="text/css">
	.st0{fill:#FFFFFF;}
</style>
<g>
	<path class="st0" d="M-0.1,360.1c0-120.1,0-240.2,0-360.2c120.1,0,240.2,0,360.2,0c0,120.1,0,240.2,0,360.2
		C240,360.1,120,360.1-0.1,360.1z M195.5,145.9c0,3.8,0.1,7.3,0,10.9c-0.1,4.4,0.6,8.6,4,11.7c2.5,2.3,5.5,3.5,8.7,3.9
		c3.6,0.4,7.2,0.5,10.9,0.5c23.3,0,46.6,0,70,0c2.8,0,5.7-0.2,8.5-0.5c3.2-0.4,6.4-1,9-3c4.5-3.4,7.4-8.2,10.4-13
		c-0.5-0.1-0.8-0.1-1.1-0.2c-6.6-1.3-10.1-4.8-10.7-11.5c-0.6-5.7-0.8-11.5-1.1-17.2c-0.1-2.9,0-5.8,0-8.7c-1.8,0-3.4,0-4.9,0
		c-0.4,3.3-0.6,6.5-1.1,9.7c-1.1,7.1-2.2,14.3-3.4,21.4c-0.6,3.5-2.3,6.3-5.5,8.1c-2.6,1.4-5.3,1.9-8.2,1.9c-19,0-37.9,0-56.9,0
		c-1.8,0-3.7-0.3-5.5-0.7c-5.3-1.2-7.8-4.6-7.9-10c0-2.7,0-5.4,0-8.2c0-0.9,0.3-1.2,1.1-1.5c15.7-6.2,31.4-12.4,47.1-18.6
		c6.4-2.5,13-4.7,19.9-5.5c1.2-0.1,2.3-0.2,3.7-0.3c-5.2-6.4-10.2-12.6-15.3-18.8c-8.4,7.2-17.5,13.1-27,18.5
		c-9.5,5.3-19.3,10.1-29.4,14.4c0-12.6,0-25,0-37.6c31.8,0,63.4,0,95.4,0c-7.6-8.8-15-17.4-22.5-26.1c-0.4,0.5-0.6,0.8-0.9,1.1
		c-5.7,5.7-11.4,11.4-17,17.1c-0.6,0.6-1.2,0.9-2.1,0.9c-33.6,0-67.3,0-100.9,0c-0.4,0-0.9,0-1.4,0c0-0.5,0-0.8,0-1.2
		c0.3-6.7,0.7-13.3,1-20c0.1-1.7,0.6-2.9,1.9-3.9c2.6-2.1,5.1-4.4,7.7-6.7c-9.1-4-18-7.8-27.2-11.8c-0.1,14.7-0.2,29.1-1.2,43.7
		c-29,0-58,0-87.1,0c3.3,3.3,6.5,6.4,9.5,9.5c0.8,0.8,1.4,1,2.5,0.7c6.4-1.7,12.9-3.1,19.6-3.1c17.6-0.1,35.3,0,52.9,0
		c0.4,0,0.8,0,1.4,0.1c-0.1,0.8-0.2,1.5-0.3,2.1c-2.6,15.7-9.1,29.6-19.6,41.6c-6.7,7.6-14.6,13.9-22.9,19.7
		c-16.4,11.5-34.1,20.5-52.6,27.8c-0.4,0.2-0.7,0.3-1.2,0.5c0.6,0.9,1.2,1.7,1.7,2.5c0.5,0.9,1,1,1.9,0.7c6.5-2,13.1-3.8,19.6-6
		c19.4-6.6,37.7-15.3,54.4-27.1c12.1-8.6,21.6-19.5,28.1-32.9c4.3-8.9,6.9-18.2,8.5-27.9c0.2-1.1,0.6-1.2,1.5-1.2
		c10.9,0,21.8,0,32.6,0c0.4,0,0.8,0,1.3,0.1c0,0.3,0.1,0.5,0.1,0.6c0,14,0,28,0,42c0,0.4-0.4,0.9-0.8,1.1c-1.4,0.7-2.8,1.3-4.2,1.9
		c-16.2,7-32.9,12.4-49.7,17.7c-2.5,0.8-5.1,1.6-7.7,2.4c0.2,0.7,0.4,1.2,0.6,1.8c0.2,0.6,0.4,1.2,0.6,1.8
		C155,156.9,175.4,152.4,195.5,145.9z M194.5,45.7c2.6,2,5.2,4,7.7,6c8.9,7.3,17.4,15,23.3,25c0.9,1.5,2.2,2.7,3.6,3.8
		c1.6,1.3,3.5,1,5-0.4c0.6-0.6,1.2-1.3,1.7-2c1.7-2.6,2.9-5.4,3.6-8.4c1-4.1,0.6-7.9-2.1-11.3c-1.8-2.2-4.2-3.6-6.8-4.8
		c-9.9-4.4-20.3-7.3-30.9-9.8c-2.9-0.7-2.9-0.7-5,1.5C194.6,45.5,194.6,45.6,194.5,45.7z"/>
	<path d="M195.5,145.9c-20.2,6.5-40.6,10.9-61.2,15.3c-0.2-0.6-0.4-1.2-0.6-1.8c-0.2-0.6-0.4-1.1-0.6-1.8c2.6-0.8,5.2-1.6,7.7-2.4
		c16.8-5.3,33.5-10.8,49.7-17.7c1.4-0.6,2.9-1.2,4.2-1.9c0.4-0.2,0.8-0.7,0.8-1.1c0-14,0-28,0-42c0-0.2,0-0.3-0.1-0.6
		c-0.4,0-0.8-0.1-1.3-0.1c-10.9,0-21.8,0-32.6,0c-1,0-1.4,0.2-1.5,1.2c-1.5,9.7-4.2,19-8.5,27.9c-6.5,13.5-16,24.3-28.1,32.9
		c-16.7,11.8-35,20.5-54.4,27.1c-6.5,2.2-13.1,4-19.6,6c-0.9,0.3-1.5,0.1-1.9-0.7c-0.4-0.8-1-1.6-1.7-2.5c0.4-0.2,0.8-0.4,1.2-0.5
		c18.5-7.4,36.3-16.3,52.6-27.8c8.3-5.8,16.2-12,22.9-19.7c10.5-12,17-25.9,19.6-41.6c0.1-0.7,0.2-1.3,0.3-2.1c-0.5,0-1-0.1-1.4-0.1
		c-17.6,0-35.3-0.1-52.9,0c-6.7,0-13.2,1.4-19.6,3.1c-1.1,0.3-1.7,0.1-2.5-0.7c-3.1-3.2-6.2-6.2-9.5-9.5c29.2,0,58.1,0,87.1,0
		c1-14.6,1.1-29,1.2-43.7c9.2,4,18.1,7.9,27.2,11.8c-2.7,2.3-5.1,4.6-7.7,6.7c-1.3,1.1-1.8,2.2-1.9,3.9c-0.2,6.7-0.6,13.3-1,20
		c0,0.3,0,0.7,0,1.2c0.5,0,1,0,1.4,0c33.6,0,67.3,0,100.9,0c0.9,0,1.5-0.3,2.1-0.9c5.7-5.7,11.4-11.4,17-17.1
		c0.3-0.3,0.5-0.6,0.9-1.1c7.5,8.7,14.9,17.3,22.5,26.1c-31.9,0-63.6,0-95.4,0c0,12.6,0,25,0,37.6c10.1-4.4,19.9-9.1,29.4-14.4
		c9.5-5.3,18.7-11.2,27-18.5c5.1,6.3,10.1,12.5,15.3,18.8c-1.4,0.1-2.6,0.2-3.7,0.3c-6.9,0.8-13.5,2.9-19.9,5.5
		c-15.7,6.2-31.4,12.4-47.1,18.6c-0.8,0.3-1.1,0.7-1.1,1.5c0.1,2.7,0,5.4,0,8.2c0,5.4,2.6,8.7,7.9,10c1.8,0.4,3.6,0.7,5.5,0.7
		c19,0,37.9,0,56.9,0c2.9,0,5.7-0.5,8.2-1.9c3.2-1.7,4.9-4.6,5.5-8.1c1.2-7.1,2.3-14.3,3.4-21.4c0.5-3.2,0.7-6.4,1.1-9.7
		c1.5,0,3.1,0,4.9,0c0,2.9-0.1,5.8,0,8.7c0.3,5.7,0.5,11.5,1.1,17.2c0.6,6.7,4.1,10.2,10.7,11.5c0.3,0.1,0.6,0.1,1.1,0.2
		c-3,4.8-5.9,9.5-10.4,13c-2.6,2-5.8,2.6-9,3c-2.8,0.3-5.7,0.5-8.5,0.5c-23.3,0-46.6,0-70,0c-3.6,0-7.3-0.1-10.9-0.5
		c-3.3-0.4-6.3-1.6-8.7-3.9c-3.4-3.2-4.1-7.3-4-11.7C195.6,153.2,195.5,149.7,195.5,145.9z"/>
	<path d="M194.5,45.7c0.1-0.1,0.1-0.2,0.2-0.3c2-2.2,2-2.2,5-1.5c10.5,2.5,20.9,5.4,30.9,9.8c2.6,1.1,5,2.6,6.8,4.8
		c2.7,3.4,3.1,7.3,2.1,11.3c-0.7,3-1.9,5.9-3.6,8.4c-0.5,0.7-1.1,1.4-1.7,2c-1.5,1.4-3.4,1.6-5,0.4c-1.3-1.1-2.7-2.3-3.6-3.8
		c-6-10.1-14.4-17.8-23.3-25C199.7,49.7,197.1,47.7,194.5,45.7z"/>
</g>
</svg>
