<?xml version="1.0" encoding="utf-8"?>
<!-- Generator: Adobe Illustrator 20.1.0, SVG Export Plug-In . SVG Version: 6.00 Build 0)  -->
<svg version="1.1" id="图层_1" xmlns="http://www.w3.org/2000/svg" xmlns:xlink="http://www.w3.org/1999/xlink" x="0px" y="0px"
	 viewBox="0 0 360 360" style="enable-background:new 0 0 360 360;" xml:space="preserve">
<style type="text/css">
	.st0{fill:#FFFFFF;}
</style>
<g>
	<path class="st0" d="M0.2,360.5c0-120.1,0-240.2,0-360.2c120.1,0,240.2,0,360.2,0c0,120.1,0,240.2,0,360.2
		C240.4,360.5,120.3,360.5,0.2,360.5z M202,84.9c0.3-0.2,0.5-0.3,0.7-0.4c8.9-4.2,17.7-8.5,26.6-12.6c7.3-3.4,14.9-6.3,22.8-8
		c2.8-0.6,5.6-1,8.6-1.5c-4.7-6.7-9.4-13.3-14.1-20c-4.4,2.9-8.6,5.7-12.9,8.6c-0.9,0.6-1.7,0.8-2.8,0.8c-46.5,0-93,0-139.4,0
		c-0.5,0-0.9,0-1.6,0c0.5,0.5,0.7,0.8,1,1.1c2.9,2.9,5.9,5.9,8.8,8.8c0.6,0.6,1.2,0.7,2,0.5c8.2-2.1,16.5-3.2,24.9-3.2
		c34-0.1,67.9,0,101.9,0c0.4,0,0.8,0,1.4,0c-0.5,0.4-0.8,0.7-1.1,0.9c-9.2,6.5-18.5,13-27.7,19.6c-1.9,1.3-3.2,1.7-5.4,0.5
		c-9.8-5-20.3-8.2-31-10.6c-3.6-0.8-7.3-1.5-11.1-2.3c-0.4,1.7-0.8,3.2-1.2,4.8c7.4,2.5,14.4,5.5,20.7,10
		c6.3,4.5,11.4,10.2,15.7,17.1c-42.5,0-84.7,0-127,0c0.1,0.3,0.2,0.4,0.2,0.5c3.2,3.3,6.5,6.5,9.8,9.7c0.3,0.3,0.9,0.3,1.4,0.2
		c8.6-2.2,17.3-3.2,26.1-3.3c18.8-0.1,37.6,0,56.4,0c0.3,0,0.6,0,1,0.1c-32.1,26.2-67.6,46.4-105.6,62.4c0.2,0.6,0.4,1.2,0.6,1.8
		c0.2,0.6,0.4,1.2,0.6,1.8c0.5-0.2,0.9-0.3,1.3-0.4c11.2-4,22.4-7.9,33.5-12.2c16.3-6.3,32.1-13.7,47-22.8
		c14.4-8.8,28.2-18.5,41.7-28.7c1.8-1.3,3.5-2.2,5.8-2c2,0.2,4,0,6.1,0c0,0.3,0.1,0.5,0.1,0.7c0,9.5,0,19,0,28.4
		c0,1.2-0.3,2.5-0.7,3.6c-0.7,2.1-2,3.3-4.3,3.2c-0.5,0-1,0.1-1.6,0.1c-8.1,0-16-1.2-24-2.2c-2.3-0.3-4.6-0.6-7.1-1
		c0,1.4,0,2.6,0,3.9c0,0.7,0.2,0.9,0.9,1.1c3.3,1,6.7,1.9,10,3.1c4.6,1.6,8.9,3.6,11.9,7.7c2,2.7,3.5,5.7,4.7,8.9
		c0.3,0.8,0.6,1.6,1,2.5c6.1-2.9,12-5.8,17-10.2c2.5-2.2,4.2-4.9,5-8c0.7-2.9,1.4-5.9,1.5-8.8c0.2-10.5,0.1-21,0.1-31.6
		c0-0.5,0-0.9,0-1.4c25.1,0,50.1,0,75.3,0c-4.7,9.5-9.4,18.8-14.1,28.2c1.2,0.8,2.4,1.6,3.6,2.4c0.4-0.4,0.7-0.8,1-1.1
		c3.1-3.5,6.1-7.1,9.2-10.6c5.8-6.6,12.8-11.1,21.5-12.9c2.4-0.5,4.7-0.9,7.2-1.4c-5.9-7.9-11.8-15.7-17.6-23.5
		c-0.4,0.4-0.7,0.7-1,1c-3.3,3.3-6.7,6.7-10,10c-0.4,0.4-1.2,0.7-1.7,0.7c-24.2,0-48.5,0-72.7,0c-0.4,0-0.7-0.1-1.3-0.1
		C207.6,93.4,206.6,89.2,202,84.9z"/>
	<path d="M202,84.9c4.5,4.2,5.6,8.4-1,14c0.5,0,0.9,0.1,1.3,0.1c24.2,0,48.5,0,72.7,0c0.6,0,1.3-0.3,1.7-0.7c3.4-3.3,6.7-6.7,10-10
		c0.3-0.3,0.6-0.6,1-1c5.9,7.8,11.7,15.6,17.6,23.5c-2.5,0.5-4.8,0.9-7.2,1.4c-8.7,1.7-15.7,6.3-21.5,12.9
		c-3.1,3.5-6.1,7.1-9.2,10.6c-0.3,0.4-0.6,0.7-1,1.1c-1.2-0.8-2.3-1.6-3.6-2.4c4.7-9.4,9.4-18.7,14.1-28.2c-25.2,0-50.1,0-75.3,0
		c0,0.5,0,1,0,1.4c0,10.5,0.1,21-0.1,31.6c-0.1,3-0.7,5.9-1.5,8.8c-0.8,3.1-2.5,5.8-5,8c-5,4.4-10.9,7.3-17,10.2
		c-0.3-0.9-0.7-1.7-1-2.5c-1.2-3.1-2.7-6.1-4.7-8.9c-3-4.1-7.3-6.1-11.9-7.7c-3.3-1.2-6.6-2.1-10-3.1c-0.7-0.2-0.9-0.5-0.9-1.1
		c0-1.2,0-2.5,0-3.9c2.4,0.3,4.7,0.7,7.1,1c8,1,15.9,2.2,24,2.2c0.5,0,1-0.1,1.6-0.1c2.3,0.1,3.7-1.2,4.3-3.2
		c0.4-1.2,0.7-2.4,0.7-3.6c0.1-9.5,0-19,0-28.4c0-0.2,0-0.4-0.1-0.7c-2,0-4.1,0.1-6.1,0c-2.3-0.2-4,0.6-5.8,2
		c-13.4,10.2-27.3,19.9-41.7,28.7c-14.9,9.1-30.7,16.5-47,22.8c-11.1,4.3-22.4,8.1-33.5,12.2c-0.4,0.1-0.8,0.2-1.3,0.4
		c-0.2-0.6-0.4-1.2-0.6-1.8c-0.2-0.6-0.4-1.1-0.6-1.8c38-16,73.6-36.1,105.6-62.4c-0.4,0-0.7-0.1-1-0.1c-18.8,0-37.6-0.1-56.4,0
		c-8.8,0-17.5,1.1-26.1,3.3c-0.4,0.1-1.1,0-1.4-0.2c-3.3-3.2-6.5-6.5-9.8-9.7C62,99.4,62,99.3,61.8,99c42.3,0,84.5,0,127,0
		c-4.3-6.8-9.4-12.5-15.7-17.1c-6.3-4.5-13.4-7.5-20.7-10c0.4-1.6,0.8-3.1,1.2-4.8c3.8,0.8,7.4,1.4,11.1,2.3
		c10.7,2.4,21.2,5.6,31,10.6c2.2,1.1,3.6,0.8,5.4-0.5c9.2-6.6,18.5-13.1,27.7-19.6c0.3-0.2,0.6-0.5,1.1-0.9c-0.7,0-1.1,0-1.4,0
		c-34,0-67.9,0-101.9,0c-8.4,0-16.7,1.1-24.9,3.2c-0.8,0.2-1.4,0.1-2-0.5c-2.9-3-5.9-5.9-8.8-8.8c-0.3-0.3-0.5-0.6-1-1.1
		c0.7,0,1.2,0,1.6,0c46.5,0,93,0,139.4,0c1.1,0,1.9-0.3,2.8-0.8c4.2-2.9,8.5-5.7,12.9-8.6c4.7,6.7,9.4,13.3,14.1,20
		c-3,0.5-5.8,0.9-8.6,1.5c-7.9,1.7-15.5,4.6-22.8,8c-8.9,4.1-17.8,8.4-26.6,12.6C202.5,84.6,202.4,84.8,202,84.9z"/>
</g>
</svg>
