<?xml version="1.0" encoding="utf-8"?>
<!-- Generator: Adobe Illustrator 20.1.0, SVG Export Plug-In . SVG Version: 6.00 Build 0)  -->
<svg version="1.1" id="图层_1" xmlns="http://www.w3.org/2000/svg" xmlns:xlink="http://www.w3.org/1999/xlink" x="0px" y="0px"
	 viewBox="0 0 360 360" style="enable-background:new 0 0 360 360;" xml:space="preserve">
<style type="text/css">
	.st0{fill:#FFFFFF;}
</style>
<g>
	<path class="st0" d="M0.2,360.5c0-120.1,0-240.2,0-360.2c120.1,0,240.2,0,360.2,0c0,120.1,0,240.2,0,360.2
		C240.4,360.5,120.3,360.5,0.2,360.5z M46.4,260.5c26.7-23.6,49.7-50,65.7-82.1c0.1,0.1,0.2,0.1,0.3,0.2c0,0.2,0,0.5,0,0.7
		c0,31.8,0,63.5,0,95.3c0,1-0.1,2.1-0.3,3.1c-0.5,2.9-2.1,4.8-4.4,5.2c-0.9,0.1-1.8,0.3-2.6,0.2c-8.7-0.3-17.4-0.7-26.1-1.1
		c-2.2-0.1-4.4-0.3-6.7-0.4c0,1.4,0,2.7,0,3.9c0,0.7,0.2,0.9,0.8,1c2.2,0.5,4.4,1,6.5,1.7c6.2,1.8,12.1,4.1,17.3,7.9
		c4.1,3,7.1,6.8,8.1,11.9c0.1,0.6,0.2,1.2,0.3,1.7c0.2,0,0.3,0.1,0.3,0.1c7.9-2.1,14.4-6.3,18.3-13.8c2.8-5.4,3.8-11.2,3.8-17.1
		c0-43.3,0-86.6,0-129.9c0-0.5,0-1,0-1.5c8.3,0,16.4,0,24.6,0c-3.5,12.2-7,24.3-10.6,36.5c1.7,0.4,3.2,0.8,4.8,1.2
		c0.8-1.6,1.5-3,2.3-4.5c4.7-8.7,9.7-17.2,16.3-24.6c4.1-4.6,8.7-8.6,14.7-10.7c0.2-0.1,0.5-0.2,0.8-0.4
		c-7.1-5.9-14.1-11.7-21.2-17.6c-0.3,0.4-0.5,0.7-0.7,1c-2.3,3.6-4.6,7.1-6.8,10.7c-0.6,1-1.2,1.3-2.4,1.3c-33.4,0-66.9,0-100.3,0
		c-0.5,0-1,0-1.8,0c0.5,0.5,0.7,0.8,1,1.1c2.9,2.9,5.8,5.8,8.7,8.8c0.6,0.6,1.1,0.8,2,0.5c7.8-2.1,15.8-3.1,23.8-3.2
		c8.2-0.1,16.4-0.1,24.6-0.1c0.3,0,0.6,0,0.9,0c-15,40.4-36.9,76.7-64.6,109.5C44.8,258.1,45.5,259.3,46.4,260.5z M144.1,70.8
		c-8.7,11.1-17.3,22-25.7,32.7c-4.5-2.8-9-5.7-13.5-8.4c-5.2-3.1-10.6-5.6-16.3-7.5c-0.4-0.1-1.1-0.1-1.3,0.2
		c-0.8,0.9-1.4,2-2.1,3.1c5.5,4.7,10.4,10,15.1,15.4c6,6.9,11.4,14.2,15.3,22.6c1,2.2,1.8,4.4,3,6.5c2.4,4.2,5.4,4.5,8.5,0.8
		c2.3-2.8,4.1-5.9,5.4-9.3c1.6-4.1,1.2-7.9-1.2-11.6c-0.9-1.4-2-2.7-3-4c-1.2-1.4-2.5-2.7-3.7-4.1c0,0,0.2-0.2,0.3-0.4
		c6.6-7.1,13.5-13.9,20.9-20.1c6.4-5.3,13.4-9.9,21.4-12.6c2.5-0.8,5-1.4,7.4-2.1c-6.6-6.6-13.2-13.2-19.9-19.9
		c-3.1,3.5-6.4,7-9.5,10.6c-0.6,0.7-1.3,1-2.3,1c-28.1,0-56.2,0-84.2,0c-0.5,0-0.9,0-1.5,0c0.2,0.3,0.3,0.4,0.4,0.5
		c3.2,3.2,6.4,6.5,9.7,9.6c0.3,0.3,1,0.4,1.5,0.3c8.6-2.2,17.4-3.2,26.2-3.3c15.9-0.1,31.8,0,47.8,0
		C142.9,70.8,143.4,70.8,144.1,70.8z"/>
	<path d="M46.4,260.5c-0.8-1.2-1.6-2.4-2.4-3.6c27.8-32.9,49.6-69.2,64.6-109.5c-0.3,0-0.6,0-0.9,0c-8.2,0-16.4-0.1-24.6,0.1
		c-8,0.1-16,1.1-23.8,3.2c-0.8,0.2-1.4,0.1-2-0.5c-2.9-2.9-5.8-5.8-8.7-8.8c-0.3-0.3-0.5-0.6-1-1.1c0.8,0,1.3,0,1.8,0
		c33.4,0,66.9,0,100.3,0c1.1,0,1.8-0.3,2.4-1.3c2.2-3.6,4.5-7.2,6.8-10.7c0.2-0.3,0.4-0.6,0.7-1c7.1,5.9,14,11.7,21.2,17.6
		c-0.4,0.2-0.6,0.3-0.8,0.4c-6,2.1-10.5,6.1-14.7,10.7c-6.6,7.4-11.7,15.9-16.3,24.6c-0.8,1.4-1.5,2.9-2.3,4.5
		c-1.5-0.4-3.1-0.8-4.8-1.2c3.5-12.2,7-24.3,10.6-36.5c-8.2,0-16.4,0-24.6,0c0,0.5,0,1,0,1.5c0,43.3,0,86.6,0,129.9
		c0,6-1,11.8-3.8,17.1c-3.9,7.5-10.3,11.7-18.3,13.8c-0.1,0-0.1,0-0.3-0.1c-0.1-0.5-0.2-1.1-0.3-1.7c-1-5.1-4-8.9-8.1-11.9
		c-5.2-3.9-11.2-6.1-17.3-7.9c-2.1-0.6-4.3-1.2-6.5-1.7c-0.6-0.1-0.9-0.4-0.8-1c0-1.3,0-2.5,0-3.9c2.3,0.2,4.5,0.3,6.7,0.4
		c8.7,0.4,17.4,0.7,26.1,1.1c0.9,0,1.8-0.1,2.6-0.2c2.3-0.4,3.9-2.2,4.4-5.2c0.2-1,0.3-2.1,0.3-3.1c0-31.8,0-63.5,0-95.3
		c0-0.2,0-0.5,0-0.7c-0.1-0.1-0.2-0.1-0.3-0.2C96.1,210.5,73.1,236.9,46.4,260.5z"/>
	<path d="M144.1,70.8c-0.7,0-1.1,0-1.6,0c-15.9,0-31.8,0-47.8,0c-8.9,0-17.6,1-26.2,3.3c-0.4,0.1-1.2,0-1.5-0.3
		c-3.3-3.2-6.5-6.4-9.7-9.6c-0.1-0.1-0.2-0.2-0.4-0.5c0.6,0,1.1,0,1.5,0c28.1,0,56.2,0,84.2,0c1,0,1.6-0.3,2.3-1
		c3.2-3.6,6.4-7.1,9.5-10.6c6.7,6.7,13.3,13.3,19.9,19.9c-2.4,0.7-4.9,1.3-7.4,2.1c-8,2.7-14.9,7.2-21.4,12.6
		c-7.5,6.2-14.3,13-20.9,20.1c-0.2,0.2-0.3,0.3-0.3,0.4c1.3,1.4,2.6,2.7,3.7,4.1c1.1,1.3,2.1,2.6,3,4c2.4,3.6,2.8,7.5,1.2,11.6
		c-1.3,3.4-3.1,6.5-5.4,9.3c-3.1,3.7-6.1,3.5-8.5-0.8c-1.2-2.1-2-4.3-3-6.5c-3.9-8.3-9.2-15.7-15.3-22.6
		c-4.7-5.4-9.6-10.6-15.1-15.4c0.7-1,1.3-2.1,2.1-3.1c0.2-0.3,0.9-0.3,1.3-0.2c5.7,1.9,11.1,4.5,16.3,7.5c4.5,2.7,9,5.6,13.5,8.4
		C126.8,92.8,135.3,81.9,144.1,70.8z"/>
</g>
</svg>
