<?xml version="1.0" encoding="utf-8"?>
<!-- Generator: Adobe Illustrator 20.1.0, SVG Export Plug-In . SVG Version: 6.00 Build 0)  -->
<svg version="1.1" id="图层_1" xmlns="http://www.w3.org/2000/svg" xmlns:xlink="http://www.w3.org/1999/xlink" x="0px" y="0px"
	 viewBox="0 0 360 360" style="enable-background:new 0 0 360 360;" xml:space="preserve">
<style type="text/css">
	.st0{fill:#FFFFFF;}
</style>
<g>
	<path class="st0" d="M0.2,360.5c0-120.1,0-240.2,0-360.2c120.1,0,240.2,0,360.2,0c0,120.1,0,240.2,0,360.2
		C240.4,360.5,120.3,360.5,0.2,360.5z M44,296.9c0.5,0.5,0.8,0.8,1,1.1c2.9,2.9,5.8,5.8,8.7,8.8c0.6,0.6,1.1,0.8,2,0.5
		c8.4-2.2,16.9-3.2,25.5-3.2c79.7,0,159.4,0,239.2,0c0.5,0,1,0,1.7,0c-8-8.4-15.8-16.6-23.8-25c-0.2,0.3-0.2,0.5-0.4,0.7
		c-5,5.4-10,10.7-15,16.1c-0.7,0.7-1.3,1-2.3,1c-3.1-0.1-6.2,0-9.2,0c-0.7,0-1.5,0-2.3,0c0-0.6,0-1,0-1.4c0-22.6,0-45.3,0-67.9
		c0-0.9,0.2-1.4,1-1.9c3.2-2.1,6.4-4.2,9.7-6.4c-6.3-5.5-12.6-11-18.9-16.5c-0.3,0.4-0.6,0.7-0.8,1c-2.6,3.3-5.3,6.5-7.8,9.9
		c-0.6,0.8-1.2,1-2.2,1c-46.2,0-92.3,0-138.5,0c-0.8,0-1.7-0.2-2.5-0.6c-4.7-2.3-9.4-4.7-14.2-7c-0.4-0.2-0.8-0.3-1.3-0.6
		c1,30.3,1.2,60.4,1.1,90.7C77.7,296.9,61,296.9,44,296.9z"/>
	<path d="M44,296.9c17,0,33.7,0,50.6,0c0.1-30.2-0.1-60.3-1.1-90.7c0.5,0.2,0.9,0.4,1.3,0.6c4.7,2.4,9.4,4.7,14.2,7
		c0.8,0.4,1.7,0.6,2.5,0.6c46.2,0,92.3,0,138.5,0c1,0,1.6-0.2,2.2-1c2.6-3.3,5.2-6.6,7.8-9.9c0.2-0.3,0.5-0.6,0.8-1
		c6.3,5.5,12.5,11,18.9,16.5c-3.3,2.2-6.4,4.3-9.7,6.4c-0.8,0.5-1,1-1,1.9c0,22.6,0,45.3,0,67.9c0,0.4,0,0.9,0,1.4
		c0.8,0,1.6,0,2.3,0c3.1,0,6.2,0,9.2,0c1,0,1.6-0.3,2.3-1c5-5.4,10-10.8,15-16.1c0.2-0.2,0.2-0.4,0.4-0.7c8,8.4,15.8,16.6,23.8,25
		c-0.8,0-1.2,0-1.7,0c-79.7,0-159.4,0-239.2,0c-8.6,0-17.1,1.1-25.5,3.2c-0.9,0.2-1.4,0.1-2-0.5c-2.9-2.9-5.8-5.8-8.7-8.8
		C44.8,297.7,44.5,297.5,44,296.9z M213.7,221.6c0,25.2,0,50.2,0,75.2c13.3,0,26.6,0,39.9,0c0-25.1,0-50.2,0-75.2
		C240.2,221.6,227,221.6,213.7,221.6z M198.2,296.9c0-25.1,0-50.2,0-75.2c-12.5,0-25,0-37.4,0c0,25.1,0,50.1,0,75.2
		C173.3,296.9,185.7,296.9,198.2,296.9z M110.1,221.6c0,25.1,0,50.1,0,75.2c11.7,0,23.4,0,35.1,0c0-25.1,0-50.2,0-75.2
		C133.5,221.6,121.8,221.6,110.1,221.6z"/>
	<path class="st0" d="M213.7,221.6c13.3,0,26.5,0,39.9,0c0,25,0,50.1,0,75.2c-13.2,0-26.5,0-39.9,0
		C213.7,271.8,213.7,246.8,213.7,221.6z"/>
	<path class="st0" d="M198.2,296.9c-12.5,0-24.9,0-37.4,0c0-25.1,0-50.1,0-75.2c12.5,0,24.9,0,37.4,0
		C198.2,246.7,198.2,271.7,198.2,296.9z"/>
	<path class="st0" d="M110.1,221.6c11.7,0,23.3,0,35.1,0c0,25.1,0,50.1,0,75.2c-11.7,0-23.3,0-35.1,0
		C110.1,271.8,110.1,246.7,110.1,221.6z"/>
</g>
</svg>
