<?xml version="1.0" encoding="utf-8"?>
<!-- Generator: Adobe Illustrator 20.1.0, SVG Export Plug-In . SVG Version: 6.00 Build 0)  -->
<svg version="1.1" id="图层_1" xmlns="http://www.w3.org/2000/svg" xmlns:xlink="http://www.w3.org/1999/xlink" x="0px" y="0px"
	 viewBox="0 0 360 360" style="enable-background:new 0 0 360 360;" xml:space="preserve">
<style type="text/css">
	.st0{fill:#FFFFFF;}
</style>
<g>
	<path class="st0" d="M0.2,360.5c0-120.1,0-240.2,0-360.2c120.1,0,240.2,0,360.2,0c0,120.1,0,240.2,0,360.2
		C240.4,360.5,120.3,360.5,0.2,360.5z M149,181.8c0-0.7,0-1,0-1.2c0.3-5,0.7-10,1-15c0.8-12.1,1.6-24.2,2.4-36.4
		c0-0.4,0.4-1,0.7-1.2c2.5-2,5.1-3.9,7.7-5.8c0.3-0.3,0.7-0.5,1.1-0.9c-6-4.8-11.8-9.5-17.7-14.2c-2.6,3.3-5.1,6.5-7.6,9.8
		c-0.5,0.6-1,0.9-1.8,0.9c-14.6,0-29.2,0-43.8,0c-0.6,0-1.3-0.2-1.9-0.6c-4.4-2.7-8.9-5.4-13.3-8.1c-0.4-0.2-0.7-0.4-1.2-0.7
		c-2,24.4-3.9,48.7-5.9,73.1c-8.6,0-17.1,0-25.9,0c3.2,3.2,6.2,6.2,9.1,9.1c0.2,0.2,0.7,0.2,1.1,0.2c1.7-0.3,3.4-0.7,5-1.1
		c3.1-0.7,6.1-1.4,9.4-0.9c0,0.3,0,0.7,0,1c-0.9,7.3-1.8,14.5-2.7,21.8c-1.3,11-2.7,22-4,33c-0.1,1.2-0.4,2.1-1.6,2.7
		c-1.1,0.6-2,1.4-3,2.1c-1.3,0.9-2.6,1.8-3.9,2.8c4.8,5.2,9.5,10.2,14.2,15.4c3-3.3,5.8-6.5,8.7-9.8c0.6-0.6,1.1-0.9,1.9-0.9
		c16.4,0,32.8,0,49.2,0c0.4,0,0.9,0,1.3,0.1c0,0.2,0.1,0.3,0,0.4c-1,6.9-1.9,13.9-3.1,20.7c-0.6,3.2-1.5,6.4-2.8,9.4
		c-1.5,3.5-4.2,4.6-8,4c-4.1-0.7-8.2-1.6-12.3-2.5c-3.8-0.8-7.5-1.8-11.4-2.7c-0.4,1.6-0.8,3.1-1.2,4.7c0.5,0.2,0.9,0.4,1.3,0.6
		c5.6,2.5,11.1,5.3,15.9,9.3c2.7,2.3,5.1,4.9,6,8.5c0.4,1.3,0.4,2.6,0.6,4.2c2.8-1,5.6-1.9,8.3-3c4.9-1.9,9.2-4.5,12.3-9
		c2.7-4,4.3-8.5,5.3-13.1c2.1-9.9,3.2-19.9,4.3-29.9c0.2-1.7,0.1-1.7,1.8-1.7c10.7,0,21.4,0,32,0c0.5,0,0.9,0,1.3,0
		c-6.3-6.3-12.5-12.5-18.7-18.7c-3.3,3.3-6.7,6.5-9.9,10c-1.5,1.7-3.1,1.7-5.1,1.5c1.6-20.4,3.1-40.7,4.7-61.2c10.6,0,21.1,0,31.5,0
		c-6.3-6.3-12.5-12.5-19-19c-0.2,0.3-0.4,0.7-0.7,1c-3.4,3.4-6.8,6.8-10.2,10.2C150.3,181.2,149.7,181.4,149,181.8z"/>
	<path d="M149,181.8c0.7-0.4,1.3-0.6,1.7-0.9c3.4-3.4,6.8-6.8,10.2-10.2c0.3-0.3,0.5-0.7,0.7-1c6.5,6.5,12.7,12.7,19,19
		c-10.4,0-20.9,0-31.5,0c-1.6,20.5-3.1,40.8-4.7,61.2c2,0.2,3.6,0.2,5.1-1.5c3.2-3.5,6.7-6.8,9.9-10c6.2,6.2,12.4,12.4,18.7,18.7
		c-0.4,0-0.9,0-1.3,0c-10.7,0-21.4,0-32,0c-1.7,0-1.6,0-1.8,1.7c-1.1,10-2.2,20-4.3,29.9c-1,4.7-2.6,9.1-5.3,13.1
		c-3,4.5-7.4,7.1-12.3,9c-2.7,1.1-5.5,2-8.3,3c-0.2-1.5-0.3-2.9-0.6-4.2c-1-3.5-3.3-6.1-6-8.5c-4.7-4-10.2-6.8-15.9-9.3
		c-0.4-0.2-0.8-0.4-1.3-0.6c0.4-1.6,0.8-3.1,1.2-4.7c3.9,0.9,7.6,1.9,11.4,2.7c4.1,0.9,8.2,1.7,12.3,2.5c3.8,0.7,6.5-0.5,8-4
		c1.3-3,2.2-6.2,2.8-9.4c1.2-6.9,2.1-13.8,3.1-20.7c0-0.1,0-0.2,0-0.4c-0.4,0-0.9-0.1-1.3-0.1c-16.4,0-32.8,0-49.2,0
		c-0.8,0-1.4,0.2-1.9,0.9c-2.8,3.3-5.7,6.5-8.7,9.8c-4.7-5.1-9.4-10.2-14.2-15.4c1.4-1,2.6-1.9,3.9-2.8c1-0.7,2-1.5,3-2.1
		c1.1-0.6,1.4-1.6,1.6-2.7c1.3-11,2.7-22,4-33c0.9-7.3,1.8-14.5,2.7-21.8c0-0.3,0-0.7,0-1c-3.2-0.5-6.3,0.2-9.4,0.9
		c-1.7,0.4-3.3,0.8-5,1.1c-0.3,0.1-0.9,0.1-1.1-0.2c-3-2.9-6-5.9-9.1-9.1c8.8,0,17.3,0,25.9,0c2-24.4,3.9-48.7,5.9-73.1
		c0.5,0.3,0.9,0.5,1.2,0.7c4.4,2.7,8.8,5.5,13.3,8.1c0.5,0.3,1.3,0.6,1.9,0.6c14.6,0,29.2,0,43.8,0c0.8,0,1.3-0.3,1.8-0.9
		c2.5-3.2,5-6.4,7.6-9.8c5.9,4.7,11.8,9.4,17.7,14.2c-0.4,0.3-0.7,0.6-1.1,0.9c-2.6,1.9-5.1,3.8-7.7,5.8c-0.4,0.3-0.7,0.8-0.7,1.2
		c-0.8,12.1-1.6,24.2-2.4,36.4c-0.3,5-0.7,10-1,15C149,180.8,149,181,149,181.8z M128.8,249.8c1.6-20.4,3.1-40.7,4.7-61.1
		c-16.9,0-33.7,0-50.6,0c-2.4,20.4-4.7,40.7-7,61.1C93.5,249.8,111.1,249.8,128.8,249.8z M137,125.1c-16.2,0-32.2,0-48.2,0
		c-1.6,18.8-3.1,37.5-4.7,56.3c16.6,0,32.9,0,49.4,0C134.7,162.6,135.9,143.9,137,125.1z"/>
	<path class="st0" d="M128.8,249.8c-17.7,0-35.3,0-52.9,0c2.3-20.4,4.7-40.7,7-61.1c16.8,0,33.6,0,50.6,0
		C131.9,209.1,130.4,229.4,128.8,249.8z M93.5,199.2c0.4,1,0.7,1.9,1,2.8c3.7,10.4,6.5,21,7.4,32c0.2,2.2,0.9,4.4,1.8,6.5
		c0.7,1.7,2.3,2.2,4,1.6c0.8-0.3,1.6-0.6,2.2-1.2c1.9-1.8,3.8-3.6,5.4-5.6c1.9-2.3,2.9-5.1,2.8-8.2c0-3.6-1.5-6.6-3.4-9.4
		c-4.8-7.3-10.9-13.3-17.2-19.2c-0.2-0.2-0.6-0.3-0.8-0.2C95.6,198.4,94.6,198.8,93.5,199.2z"/>
	<path class="st0" d="M137,125.1c-1.2,18.8-2.3,37.5-3.5,56.3c-16.5,0-32.8,0-49.4,0c1.6-18.8,3.1-37.5,4.7-56.3
		C104.9,125.1,120.9,125.1,137,125.1z M98.2,136.7c0.5,1.4,1,2.7,1.5,3.9c3.3,8.9,5.9,18,6.8,27.5c0.2,2.1,0.7,4.2,1.5,6.1
		c0.8,2,2.4,2.4,4.4,1.6c0.6-0.3,1.2-0.5,1.6-1c1.7-1.6,3.5-3.2,4.9-5c3.8-5,3.8-10.1,0.3-15.3c-4.8-7-10.7-12.9-16.9-18.6
		c-0.2-0.2-0.7-0.4-1-0.3C100.2,136,99.3,136.4,98.2,136.7z"/>
	<path d="M93.5,199.2c1.1-0.4,2.1-0.8,3.2-1.1c0.2-0.1,0.6,0.1,0.8,0.2c6.3,5.9,12.5,12,17.2,19.2c1.9,2.9,3.4,5.9,3.4,9.4
		c0,3.1-0.9,5.9-2.8,8.2c-1.6,2-3.5,3.8-5.4,5.6c-0.6,0.6-1.4,0.9-2.2,1.2c-1.7,0.6-3.3,0.2-4-1.6c-0.9-2.1-1.6-4.3-1.8-6.5
		c-0.9-11-3.7-21.6-7.4-32C94.1,201.1,93.8,200.2,93.5,199.2z"/>
	<path d="M98.2,136.7c1.1-0.4,2.1-0.7,3-1c0.3-0.1,0.8,0.1,1,0.3c6.2,5.6,12.1,11.6,16.9,18.6c3.6,5.2,3.6,10.3-0.3,15.3
		c-1.4,1.8-3.2,3.4-4.9,5c-0.4,0.4-1.1,0.7-1.6,1c-1.9,0.8-3.6,0.4-4.4-1.6c-0.7-1.9-1.3-4-1.5-6.1c-0.9-9.5-3.5-18.6-6.8-27.5
		C99.2,139.4,98.7,138.1,98.2,136.7z"/>
</g>
</svg>
