<?xml version="1.0" encoding="utf-8"?>
<!-- Generator: Adobe Illustrator 20.1.0, SVG Export Plug-In . SVG Version: 6.00 Build 0)  -->
<svg version="1.1" id="图层_1" xmlns="http://www.w3.org/2000/svg" xmlns:xlink="http://www.w3.org/1999/xlink" x="0px" y="0px"
	 viewBox="0 0 360 360" style="enable-background:new 0 0 360 360;" xml:space="preserve">
<style type="text/css">
	.st0{fill:#FFFFFF;}
</style>
<g>
	<path class="st0" d="M0.2,360.5c0-120.1,0-240.2,0-360.2c120.1,0,240.2,0,360.2,0c0,120.1,0,240.2,0,360.2
		C240.4,360.5,120.3,360.5,0.2,360.5z M241.8,269.9c0,0.3,0.1,0.5,0.1,0.6c-0.4,3.7-0.7,7.4-1.3,11.1c-0.5,3.3-1.4,6.6-3.2,9.5
		c-1,1.6-2.4,2.8-4.4,3.1c-1.5,0.2-2.9,0.3-4.4,0.3c-6.9-0.3-13.7-1.5-20.5-2.9c-2.4-0.5-4.9-1-7.4-1.6c-0.4,2-0.8,3.9-1.2,5.9
		c0.6,0.2,1.1,0.4,1.6,0.6c6.8,2.5,13.6,5.2,19.7,9.2c4.6,3,8.8,6.5,9.4,12.6c5.7-2.1,11-4.8,15.8-8.4c4.5-3.4,7.4-7.8,8.9-13.3
		c1.7-6.3,2.6-12.7,3.1-19.1c0.2-2.5,0.3-4.9,0.5-7.5c17.6,0,35.1,0,52.7,0c-7.1-7.1-14.1-14.1-21.3-21.3c-0.2,0.3-0.4,0.7-0.7,1
		c-4.1,4.2-8.3,8.3-12.5,12.5c-0.4,0.4-1.2,0.7-1.7,0.7c-5.1,0.1-10.2,0-15.4,0c-0.4,0-0.8,0-1.2,0c0.4-13.4,0.8-26.7,1.2-40.1
		c19.3,0,38.4,0,57.4,0c-7.8-7.8-15.6-15.6-23.4-23.4c-0.2,0.2-0.6,0.5-0.9,0.8c-4.9,4.9-9.8,9.9-14.8,14.7
		c-0.4,0.4-1.2,0.8-1.9,0.8c-5.1,0.1-10.2,0-15.2,0c-0.4,0-0.8,0-1.2-0.1c0-0.3,0-0.6,0-0.8c0.1-5,0.3-9.9,0.4-14.9
		c0.2-7.4,0.4-14.8,0.7-22.2c0-0.5,0.4-1.1,0.8-1.5c2.1-1.7,4.3-3.4,6.4-5c1.1-0.9,2.2-1.7,3.4-2.7c-6.8-5.2-13.4-10.2-20.1-15.3
		c-0.3,0.3-0.5,0.6-0.8,0.9c-2.7,3.3-5.4,6.7-8,10c-0.5,0.6-1,0.9-1.8,0.9c-38.9,0-77.8,0-116.8,0c-0.7,0-1.4-0.2-2-0.6
		c-5.6-3.1-11.2-6.3-16.8-9.4c-0.3-0.2-0.7-0.3-1.1-0.6c-2,20.5-3.9,40.8-5.9,61.2c-16.1,0-32.1,0-48.2,0c0.2,0.3,0.3,0.4,0.4,0.5
		c2.9,2.9,5.9,5.8,8.7,8.8c1,1.1,1.9,1.3,3.3,0.9c11.2-3,22.7-3.3,34.2-3.1c0.1,0,0.3,0.1,0.4,0.1c0,0.3,0,0.5,0,0.7
		c-1.1,10.8-2.2,21.6-3.4,32.4c-0.1,0.5-0.4,1.1-0.8,1.5c-2.9,2.3-5.9,4.6-8.9,6.9c-0.3,0.2-0.6,0.5-0.9,0.8
		c5.5,5.1,11,10.2,16.5,15.3c2.9-3.3,5.7-6.4,8.5-9.6c0.7-0.8,1.4-1.1,2.4-1.1c43.3,0,86.6,0,130,0
		C240.7,269.9,241.2,269.9,241.8,269.9z"/>
	<path d="M241.8,269.9c-0.6,0-1.1,0-1.5,0c-43.3,0-86.6,0-130,0c-1.1,0-1.8,0.3-2.4,1.1c-2.7,3.2-5.6,6.3-8.5,9.6
		c-5.5-5.1-11-10.2-16.5-15.3c0.4-0.3,0.6-0.6,0.9-0.8c3-2.3,6-4.6,8.9-6.9c0.4-0.3,0.8-0.9,0.8-1.5c1.2-10.8,2.3-21.6,3.4-32.4
		c0-0.2,0-0.4,0-0.7c-0.1,0-0.3-0.1-0.4-0.1c-11.5-0.2-23,0.2-34.2,3.1c-1.4,0.4-2.3,0.2-3.3-0.9c-2.8-3-5.8-5.9-8.7-8.8
		c-0.1-0.1-0.2-0.2-0.4-0.5c16.1,0,32.1,0,48.2,0c2-20.4,3.9-40.7,5.9-61.2c0.5,0.2,0.8,0.4,1.1,0.6c5.6,3.1,11.2,6.3,16.8,9.4
		c0.6,0.3,1.3,0.6,2,0.6c38.9,0,77.8,0,116.8,0c0.8,0,1.3-0.3,1.8-0.9c2.6-3.4,5.3-6.7,8-10c0.2-0.3,0.5-0.5,0.8-0.9
		c6.7,5.1,13.3,10.2,20.1,15.3c-1.2,0.9-2.3,1.8-3.4,2.7c-2.1,1.7-4.3,3.3-6.4,5c-0.4,0.3-0.8,1-0.8,1.5c-0.3,7.4-0.5,14.8-0.7,22.2
		c-0.1,5-0.3,9.9-0.4,14.9c0,0.2,0,0.5,0,0.8c0.5,0,0.8,0.1,1.2,0.1c5.1,0,10.2,0,15.2,0c0.6,0,1.4-0.3,1.9-0.8
		c5-4.9,9.9-9.8,14.8-14.7c0.3-0.3,0.6-0.6,0.9-0.8c7.8,7.8,15.6,15.6,23.4,23.4c-19,0-38.1,0-57.4,0c-0.4,13.4-0.8,26.7-1.2,40.1
		c0.5,0,0.8,0,1.2,0c5.1,0,10.2,0,15.4,0c0.6,0,1.3-0.3,1.7-0.7c4.2-4.1,8.3-8.3,12.5-12.5c0.3-0.3,0.5-0.7,0.7-1
		c7.2,7.2,14.2,14.2,21.3,21.3c-17.6,0-35.1,0-52.7,0c-0.2,2.6-0.3,5.1-0.5,7.5c-0.5,6.5-1.4,12.9-3.1,19.1
		c-1.5,5.4-4.4,9.8-8.9,13.3c-4.8,3.6-10.1,6.3-15.8,8.4c-0.6-6.1-4.8-9.5-9.4-12.6c-6.1-4-12.9-6.7-19.7-9.2
		c-0.5-0.2-1-0.4-1.6-0.6c0.4-2,0.8-3.9,1.2-5.9c2.5,0.5,5,1.1,7.4,1.6c6.8,1.4,13.6,2.7,20.5,2.9c1.5,0.1,3-0.1,4.4-0.3
		c2-0.2,3.3-1.5,4.4-3.1c1.9-2.9,2.7-6.1,3.2-9.5c0.6-3.7,0.9-7.4,1.3-11.1C241.9,270.4,241.8,270.2,241.8,269.9z M114.7,215.6
		c0.7,0,1.2,0,1.7,0c41.6,0,83.3,0,124.9,0c0.2,0,0.5,0,0.7,0c0.8,0.1,1.1-0.2,1.1-1c0.1-5.4,0.3-10.9,0.4-16.3
		c0.1-5,0.3-9.9,0.4-14.9c0.1-3.7,0-7.5,0-11.3c-41.3,0-82.9,0-124.5,0C117.9,186.6,116.3,201,114.7,215.6z M241.9,262.8
		c0.4-13.4,0.8-26.6,1.2-39.9c-43.3,0-86.4,0-129.5,0c-1.6,13.3-3.1,26.6-4.7,39.9c23.6,0,47,0,70.6,0c-1.8-13.2-7.6-24.4-16.6-34.1
		c0.7-0.6,1.2-1.1,1.7-1.6c0.6-0.7,1.1-0.7,1.8-0.3c4.7,2.6,9.4,5,14,7.8c4.3,2.6,8.2,5.7,11.3,9.7c2.9,3.8,3.1,7.8,0.2,11.6
		c-1.7,2.1-3.9,3.9-5.9,5.8c-0.4,0.4-0.9,0.7-1.6,1.2C203.7,262.8,222.7,262.8,241.9,262.8z"/>
	<path class="st0" d="M114.7,215.6c1.6-14.6,3.1-29,4.7-43.5c41.7,0,83.2,0,124.5,0c0,3.8,0,7.6,0,11.3c-0.1,5-0.2,9.9-0.4,14.9
		c-0.1,5.4-0.3,10.9-0.4,16.3c0,0.8-0.3,1.1-1.1,1c-0.2,0-0.5,0-0.7,0c-41.6,0-83.3,0-124.9,0C115.9,215.6,115.4,215.6,114.7,215.6z
		 M160.7,178c1.4,2,2.9,3.9,4.3,5.8c5.2,7.4,9.8,15,12,23.9c0.3,1.2,0.9,2.5,1.7,3.5c1.1,1.7,2.7,2,4.5,1c0.6-0.3,1.1-0.7,1.6-1.1
		c2.2-2,4.1-4.3,5.4-7c1.9-3.9,1.9-7.7-1-11.2c-1.1-1.4-2.4-2.6-3.7-3.7c-5.5-4.7-11.7-8.4-17.9-11.9c-3.4-1.9-3.4-1.9-6.5,0.4
		C160.9,177.8,160.8,177.8,160.7,178z"/>
	<path class="st0" d="M241.9,262.8c-19.2,0-38.1,0-57.5,0c0.7-0.5,1.2-0.8,1.6-1.2c2-1.9,4.2-3.6,5.9-5.8c3-3.8,2.8-7.7-0.2-11.6
		c-3.1-4-7-7.2-11.3-9.7c-4.6-2.7-9.4-5.2-14-7.8c-0.8-0.4-1.3-0.4-1.8,0.3c-0.5,0.5-1,1-1.7,1.6c9,9.7,14.7,21,16.6,34.1
		c-23.5,0-46.9,0-70.6,0c1.6-13.3,3.1-26.6,4.7-39.9c43.2,0,86.3,0,129.5,0C242.7,236.1,242.3,249.4,241.9,262.8z"/>
	<path d="M160.7,178c0.2-0.1,0.2-0.2,0.3-0.3c3.1-2.2,3.2-2.2,6.5-0.4c6.3,3.5,12.5,7.2,17.9,11.9c1.3,1.1,2.6,2.4,3.7,3.7
		c2.8,3.5,2.8,7.3,1,11.2c-1.3,2.7-3.1,5-5.4,7c-0.5,0.4-1,0.8-1.6,1.1c-1.8,0.9-3.4,0.6-4.5-1c-0.7-1.1-1.4-2.3-1.7-3.5
		c-2.2-8.9-6.8-16.6-12-23.9C163.6,181.9,162.1,180,160.7,178z"/>
</g>
</svg>
