<?xml version="1.0" encoding="utf-8"?>
<!-- Generator: Adobe Illustrator 20.1.0, SVG Export Plug-In . SVG Version: 6.00 Build 0)  -->
<svg version="1.1" id="图层_1" xmlns="http://www.w3.org/2000/svg" xmlns:xlink="http://www.w3.org/1999/xlink" x="0px" y="0px"
	 viewBox="0 0 360 360" style="enable-background:new 0 0 360 360;" xml:space="preserve">
<style type="text/css">
	.st0{fill:#FFFFFF;}
</style>
<g>
	<path class="st0" d="M0.2,360.5c0-120.1,0-240.2,0-360.2c120.1,0,240.2,0,360.2,0c0,120.1,0,240.2,0,360.2
		C240.4,360.5,120.3,360.5,0.2,360.5z M289.1,62.5c-0.3,0.4-0.6,0.7-0.8,1.1c-2.7,3.7-5.3,7.3-7.9,11c-0.5,0.7-1,1-1.9,1
		c-23.6,0-47.1,0-70.7,0c-0.7,0-1.4-0.2-2-0.6c-5.2-3.4-10.5-6.9-15.7-10.4c-0.3-0.2-0.7-0.4-1-0.6c1.4,83.2,1.3,166.4,0,249.6
		c0,0,0.2,0,0.3-0.1c5.5-2.2,11-4.4,16.6-6.6c0.7-0.3,0.6-0.8,0.6-1.3c0-6.2,0-12.5,0-18.7c0-0.4,0-0.9,0-1.3c25.2,0,50.2,0,75.3,0
		c0,8.2,0,16.3,0,24.6c0.4-0.1,0.5-0.2,0.7-0.3c5.4-2.5,10.8-5,16.2-7.5c0.7-0.3,0.8-0.8,0.8-1.5c-0.2-8.6-0.4-17.2-0.6-25.8
		c-0.1-8.6-0.2-17.3-0.2-25.9c-0.1-16.5-0.2-32.9-0.2-49.4c-0.1-19.8-0.1-39.5-0.1-59.3c0-16.5,0.1-33-0.1-49.4
		c0-2.7,0.7-4.3,2.9-5.8c2.7-1.8,5.2-4,7.8-6C302.4,73.5,295.8,68,289.1,62.5z"/>
	<path d="M289.1,62.5c6.7,5.5,13.3,11,20.1,16.5c-2.7,2.1-5.1,4.2-7.8,6c-2.2,1.5-2.9,3.1-2.9,5.8c0.1,16.5,0.1,33,0.1,49.4
		c0,19.8,0,39.5,0.1,59.3c0,16.5,0.1,32.9,0.2,49.4c0.1,8.6,0.1,17.3,0.2,25.9c0.1,8.6,0.4,17.2,0.6,25.8c0,0.7,0,1.2-0.8,1.5
		c-5.4,2.5-10.8,5-16.2,7.5c-0.2,0.1-0.4,0.1-0.7,0.3c0-8.3,0-16.4,0-24.6c-25.2,0-50.2,0-75.3,0c0,0.5,0,0.9,0,1.3
		c0,6.2,0,12.5,0,18.7c0,0.6,0.1,1-0.6,1.3c-5.5,2.2-11.1,4.4-16.6,6.6c-0.1,0.1-0.3,0.1-0.3,0.1c1.4-83.2,1.4-166.3,0-249.6
		c0.3,0.2,0.6,0.4,1,0.6c5.2,3.5,10.4,7,15.7,10.4c0.6,0.4,1.3,0.6,2,0.6c23.6,0,47.1,0,70.7,0c0.9,0,1.4-0.3,1.9-1
		c2.6-3.7,5.3-7.3,7.9-11C288.5,63.2,288.8,62.9,289.1,62.5z M281.9,278.1c0-22,0-43.9,0-65.8c-25.1,0-50.1,0-75.2,0
		c0,22,0,43.9,0,65.8C231.8,278.1,256.8,278.1,281.9,278.1z M206.7,82.6c0,19.6,0,39.2,0,58.7c25.1,0,50.1,0,75.2,0
		c0-19.6,0-39.1,0-58.7C256.8,82.6,231.8,82.6,206.7,82.6z M206.7,148.6c0,18.9,0,37.6,0,56.3c25.1,0,50.1,0,75.1,0
		c0-18.8,0-37.6,0-56.3C256.8,148.6,231.8,148.6,206.7,148.6z"/>
	<path class="st0" d="M281.9,278.1c-25.1,0-50.1,0-75.2,0c0-22,0-43.8,0-65.8c25,0,50,0,75.2,0C281.9,234.1,281.9,256,281.9,278.1z"
		/>
	<path class="st0" d="M206.7,82.6c25.1,0,50.1,0,75.2,0c0,19.6,0,39.1,0,58.7c-25,0-50.1,0-75.2,0
		C206.7,121.8,206.7,102.2,206.7,82.6z"/>
	<path class="st0" d="M206.7,148.6c25.1,0,50.1,0,75.1,0c0,18.8,0,37.5,0,56.3c-25,0-50,0-75.1,0
		C206.7,186.2,206.7,167.5,206.7,148.6z"/>
</g>
</svg>
