<?xml version="1.0" encoding="utf-8"?>
<!-- Generator: Adobe Illustrator 20.1.0, SVG Export Plug-In . SVG Version: 6.00 Build 0)  -->
<svg version="1.1" id="图层_1" xmlns="http://www.w3.org/2000/svg" xmlns:xlink="http://www.w3.org/1999/xlink" x="0px" y="0px"
	 viewBox="0 0 360 360" style="enable-background:new 0 0 360 360;" xml:space="preserve">
<style type="text/css">
	.st0{fill:#FFFFFF;}
</style>
<g>
	<path class="st0" d="M0.2,360.5c0-120.1,0-240.2,0-360.2c120.1,0,240.2,0,360.2,0c0,120.1,0,240.2,0,360.2
		C240.4,360.5,120.3,360.5,0.2,360.5z M80.6,262.9c16.5,0,32.9,0,49.4,0c0,5.9,0,11.7,0,17.6c5.9-2.3,11.5-4.6,17.1-6.9
		c0.3-0.1,0.5-0.7,0.5-1.1c-0.2-7.1-0.5-14.3-0.7-21.4c-0.2-10.5-0.4-21-0.4-31.5c-0.1-16.1,0-32.2,0-48.4c0-31,0-62.1,0-93.1
		c0-1,0.2-1.6,1.1-2.2c1.9-1.3,3.8-2.8,5.7-4.2c0.9-0.7,1.8-1.3,2.5-1.9c-5.2-5.2-10.2-10.2-15.3-15.3c-3.1,3.1-6.3,6.3-9.5,9.6
		c-0.6,0.6-1.2,0.8-2,0.8c-15.7,0-31.4,0-47.2,0c-0.7,0-1.5-0.2-2.1-0.6C74.4,61.2,69.2,58,64,54.9c-0.3-0.2-0.7-0.4-1.2-0.7
		c1.6,78.6,1.5,157.1,0,235.6c0.3-0.1,0.4-0.1,0.5-0.1c5.5-2.2,11-4.4,16.6-6.6c0.7-0.3,0.7-0.7,0.7-1.3c0-4.1,0-8.2,0-12.4
		C80.6,267.3,80.6,265.2,80.6,262.9z"/>
	<path d="M80.6,262.9c0,2.3,0,4.4,0,6.6c0,4.1,0,8.2,0,12.4c0,0.6,0,1-0.7,1.3c-5.5,2.2-11.1,4.4-16.6,6.6c-0.1,0-0.2,0-0.5,0.1
		c1.5-78.5,1.6-156.9,0-235.6c0.5,0.3,0.9,0.5,1.2,0.7c5.2,3.1,10.3,6.2,15.5,9.3c0.6,0.4,1.4,0.6,2.1,0.6c15.7,0,31.4,0,47.2,0
		c0.8,0,1.4-0.2,2-0.8c3.2-3.3,6.4-6.5,9.5-9.6c5.1,5.1,10.2,10.2,15.3,15.3c-0.7,0.5-1.6,1.2-2.5,1.9c-1.9,1.4-3.7,2.9-5.7,4.2
		c-0.8,0.6-1.1,1.2-1.1,2.2c0,31,0,62.1,0,93.1c0,16.1,0,32.2,0,48.4c0,10.5,0.2,21,0.4,31.5c0.1,7.2,0.5,14.3,0.7,21.4
		c0,0.4-0.2,1-0.5,1.1c-5.6,2.3-11.3,4.5-17.1,6.9c0-5.9,0-11.7,0-17.6C113.5,262.9,97.1,262.9,80.6,262.9z M129.9,255.7
		c0-19.2,0-38.4,0-57.5c-16.5,0-32.8,0-49.2,0c0,19.2,0,38.4,0,57.5C97.1,255.7,113.4,255.7,129.9,255.7z M129.9,128.4
		c0-18.8,0-37.6,0-56.3c-16.4,0-32.8,0-49.2,0c0,18.8,0,37.5,0,56.3C97.1,128.4,113.4,128.4,129.9,128.4z M80.7,135.7
		c0,18.5,0,36.8,0,55.2c16.4,0,32.8,0,49.2,0c0-18.4,0-36.8,0-55.2C113.5,135.7,97.1,135.7,80.7,135.7z"/>
	<path class="st0" d="M129.9,255.7c-16.5,0-32.8,0-49.2,0c0-19.2,0-38.3,0-57.5c16.4,0,32.7,0,49.2,0
		C129.9,217.3,129.9,236.4,129.9,255.7z"/>
	<path class="st0" d="M129.9,128.4c-16.4,0-32.8,0-49.2,0c0-18.8,0-37.5,0-56.3c16.4,0,32.7,0,49.2,0
		C129.9,90.8,129.9,109.5,129.9,128.4z"/>
	<path class="st0" d="M80.7,135.7c16.4,0,32.8,0,49.2,0c0,18.4,0,36.7,0,55.2c-16.4,0-32.7,0-49.2,0
		C80.7,172.5,80.7,154.1,80.7,135.7z"/>
</g>
</svg>
