<?xml version="1.0" encoding="utf-8"?>
<!-- Generator: Adobe Illustrator 20.1.0, SVG Export Plug-In . SVG Version: 6.00 Build 0)  -->
<svg version="1.1" id="图层_1" xmlns="http://www.w3.org/2000/svg" xmlns:xlink="http://www.w3.org/1999/xlink" x="0px" y="0px"
	 viewBox="0 0 360 360" style="enable-background:new 0 0 360 360;" xml:space="preserve">
<style type="text/css">
	.st0{fill:#FFFFFF;}
</style>
<g>
	<path class="st0" d="M-0.1,360.1c0-120.1,0-240.2,0-360.2c120.1,0,240.2,0,360.2,0c0,120.1,0,240.2,0,360.2
		C240,360.1,120,360.1-0.1,360.1z M49.5,315.5c0.4-0.3,0.7-0.5,0.9-0.8c7.4-6.7,14.4-13.8,20.8-21.5c9.3-11.1,17.2-23,22.8-36.3
		c4.3-10.4,7.5-21.1,10.1-32.1c3-12.3,5.1-24.7,5.8-37.3c0.6-11.1,1-22.3,1.3-33.4c0.3-11.8,0.5-23.6,0.6-35.4
		c0.1-10.2,0.1-20.4,0.1-30.6c0-0.4,0-0.8,0-1.3c66.8,0,133.4,0,200.3,0c-6.8-7.2-13.4-14.2-20.1-21.2c-0.4,0.4-0.7,0.7-1,1
		c-4.2,4.2-8.3,8.3-12.5,12.5c-0.4,0.4-1.1,0.7-1.6,0.7c-23.6,0-47.1,0-70.7,0c-0.3,0-0.7,0-1.2-0.1c0.4-0.4,0.6-0.5,0.8-0.7
		c2.6-2.5,5-5.2,6.7-8.6c2.3-4.7,1.6-8.9-1.9-12.6c-0.5-0.6-1.1-1.1-1.7-1.7c-8-7.1-17.4-11.8-27.1-16.2c-0.2-0.1-0.7,0-0.9,0.1
		c-0.8,0.6-1.5,1.2-2.2,1.8c4.8,5.9,9.3,11.4,12.8,17.6c3.5,6.3,5.1,13.2,6.3,20.3c-0.5,0-0.7,0-1,0c-27.2,0-54.5,0-81.7,0
		c-0.6,0-1.2-0.2-1.7-0.5c-6-3.5-12.1-7.1-18.1-10.6c-0.4-0.2-0.7-0.4-1.2-0.6c0.2,7.3,0.4,14.4,0.6,21.5
		c0.2,11.3,0.4,22.5,0.5,33.8c0.1,11,0.1,22,0.1,33c0,0.9-0.2,1.4-1,1.9c-8.8,6-17.5,12.1-26.4,17.9c-8.2,5.4-16.3,10.8-25.6,14.5
		c5.1,5.5,10.1,10.9,15.2,16.3c10-16.7,24-29.7,37.6-43.2c0.1,0.4,0.2,0.8,0.1,1.2c-0.1,3.2-0.1,6.4-0.2,9.6
		c-0.3,11.9-1.3,23.8-3,35.6c-1.9,13.5-4.9,26.9-9.1,39.9c-6.6,20-16.1,38.5-29.7,54.7c-2,2.4-4.2,4.7-6.3,7.1
		C47.9,313.1,48.7,314.2,49.5,315.5z M50.7,98.7c0.3,0.4,0.5,0.7,0.7,1c3.4,4.9,6.3,10,8.8,15.4c2.7,5.9,4.1,12.2,5.3,18.5
		c0.4,2.2,1.2,4.4,2.2,6.4c1.3,2.5,3.4,2.9,5.7,1.3c0.8-0.6,1.6-1.2,2.3-1.9c4.7-4.4,6.8-9.7,5.3-16.1c-1.1-4.9-4-8.8-7.6-12.3
		c-5.5-5.3-11.9-9.5-18.4-13.6c-0.7-0.4-1.3-0.8-2-1.2C52.3,97.1,51.5,97.9,50.7,98.7z"/>
	<path d="M49.5,315.5c-0.8-1.2-1.6-2.4-2.3-3.5c2.1-2.4,4.2-4.7,6.3-7.1c13.6-16.2,23.1-34.7,29.7-54.7c4.3-13,7.2-26.3,9.1-39.9
		c1.7-11.8,2.6-23.7,3-35.6c0.1-3.2,0.1-6.4,0.2-9.6c0-0.4,0-0.8-0.1-1.2c-13.6,13.4-27.6,26.5-37.6,43.2
		c-5-5.4-10.1-10.9-15.2-16.3c9.3-3.7,17.4-9.1,25.6-14.5c8.9-5.8,17.6-11.9,26.4-17.9c0.7-0.5,1-1,1-1.9c-0.1-11,0-22-0.1-33
		c-0.1-11.3-0.3-22.5-0.5-33.8c-0.1-7.1-0.4-14.2-0.6-21.5c0.4,0.2,0.8,0.4,1.2,0.6c6,3.5,12,7.1,18.1,10.6c0.5,0.3,1.1,0.5,1.7,0.5
		c27.2,0,54.5,0,81.7,0c0.3,0,0.6,0,1,0c-1.2-7.1-2.8-14-6.3-20.3c-3.5-6.2-8-11.8-12.8-17.6c0.7-0.6,1.4-1.2,2.2-1.8
		c0.2-0.2,0.7-0.2,0.9-0.1c9.6,4.4,19.1,9,27.1,16.2c0.6,0.5,1.2,1.1,1.7,1.7c3.5,3.7,4.1,7.9,1.9,12.6c-1.6,3.3-4,6-6.7,8.6
		c-0.2,0.2-0.4,0.4-0.8,0.7c0.6,0,0.9,0.1,1.2,0.1c23.6,0,47.1,0,70.7,0c0.6,0,1.2-0.3,1.6-0.7c4.2-4.1,8.3-8.3,12.5-12.5
		c0.3-0.3,0.6-0.6,1-1c6.7,7,13.3,14,20.1,21.2c-66.9,0-133.5,0-200.3,0c0,0.5,0,0.9,0,1.3c0,10.2,0,20.4-0.1,30.6
		c-0.1,11.8-0.3,23.6-0.6,35.4c-0.3,11.1-0.7,22.3-1.3,33.4c-0.7,12.6-2.8,25-5.8,37.3c-2.7,10.9-5.8,21.7-10.1,32.1
		c-5.6,13.3-13.5,25.3-22.8,36.3c-6.4,7.7-13.4,14.8-20.8,21.5C50.2,314.9,49.9,315.2,49.5,315.5z"/>
	<path d="M50.7,98.7c0.8-0.8,1.6-1.6,2.4-2.4c0.7,0.4,1.3,0.8,2,1.2c6.5,4,12.9,8.2,18.4,13.6c3.6,3.4,6.5,7.3,7.6,12.3
		c1.4,6.4-0.7,11.7-5.3,16.1c-0.7,0.7-1.5,1.3-2.3,1.9c-2.3,1.6-4.4,1.2-5.7-1.3c-1-2-1.8-4.2-2.2-6.4c-1.2-6.3-2.6-12.6-5.3-18.5
		c-2.4-5.4-5.4-10.5-8.8-15.4C51.2,99.4,51,99.1,50.7,98.7z"/>
</g>
</svg>
