<?xml version="1.0" encoding="utf-8"?>
<!-- Generator: Adobe Illustrator 20.1.0, SVG Export Plug-In . SVG Version: 6.00 Build 0)  -->
<svg version="1.1" id="图层_1" xmlns="http://www.w3.org/2000/svg" xmlns:xlink="http://www.w3.org/1999/xlink" x="0px" y="0px"
	 viewBox="0 0 360 360" style="enable-background:new 0 0 360 360;" xml:space="preserve">
<style type="text/css">
	.st0{fill:#FFFFFF;}
</style>
<g>
	<path class="st0" d="M-0.1,360.1c0-120.1,0-240.2,0-360.2c120.1,0,240.2,0,360.2,0c0,120.1,0,240.2,0,360.2
		C240,360.1,120,360.1-0.1,360.1z M153.2,207.1c-0.3,6.1-0.6,11.9-1,17.8c-0.6,8.8-1.2,17.6-2.1,26.4c-0.8,7.5-1.9,15.1-3.1,22.5
		c-0.7,4.4-2.2,8.6-4.8,12.3c-1.9,2.8-4.5,4.8-7.9,5c-2,0.2-4,0.1-6-0.1c-6.9-0.6-13.6-2.2-20.3-3.9c-3-0.8-5.9-1.6-9-2.4
		c-0.4,1.6-0.8,3.2-1.2,4.7c1,0.4,1.9,0.8,2.9,1.2c6.6,2.8,13.1,6,18.6,10.7c3.3,2.8,6.1,5.9,7.3,10.1c0.4,1.2,0.5,2.6,0.8,4.2
		c3.9-1.3,7.8-2.3,11.5-3.9c12-5,19.7-13.7,22.2-26.6c1.5-7.9,2.8-15.8,3.9-23.8c1.2-8.9,2-17.8,2.8-26.7c0.7-7.7,1.2-15.4,1.8-23.1
		c0.1-0.8,0.4-1.4,1.1-1.8c2.4-1.7,4.8-3.4,7.3-5.2c-5.5-5.2-11-10.2-16.6-15.4c-3.3,3.3-6.5,6.5-9.7,9.7c-0.7,0.7-1.3,1-2.3,1
		c-21.8,0-43.6,0-65.4,0c-0.5,0-0.9,0-1.5,0c0-35,0-69.9,0-104.8c20.8,0,41.5,0,62.2,0c0,0.2,0.1,0.4,0.1,0.5c0,1.6-0.1,3.1-0.2,4.7
		c-0.6,14.3-1.3,28.5-3.3,42.7c-0.7,4.6-1.8,9.1-2.9,13.7c-0.7,3.1-3,4.5-6,4.6c-0.3,0-0.6,0-0.8,0c-4,0.2-7.9-0.3-11.8-1.1
		c-3.8-0.8-7.6-1.7-11.5-2.6c-0.4,1.5-0.8,3-1.1,4.6c2.7,1.3,5.4,2.5,8,3.7c3.4,1.7,6.6,3.6,9.4,6.1c3,2.7,5.2,5.8,5,10.2
		c0.3,0,0.5,0,0.7-0.1c1.7-0.4,3.3-0.8,5-1.4c10.3-3.3,17-10.1,19-20.9c1.1-5.9,2.3-11.9,2.8-17.9c1.2-14,2.1-28,3-42
		c0.1-1,0.4-1.7,1.2-2.2c2.4-1.6,4.7-3.3,7.2-5.1c-5.6-5.2-11-10.2-16.5-15.3c-0.4,0.4-0.6,0.7-0.9,1c-2.6,2.9-5.2,5.8-7.8,8.8
		c-0.5,0.6-1.1,0.9-2,0.9c-12.4,0-24.9,0-37.3,0c-0.4,0-0.8-0.1-1.4-0.1c0.3-0.5,0.5-0.8,0.7-1.1c3.5-4.9,6.9-9.8,10.6-14.6
		c5.6-7.3,11.3-14.4,19.2-19.6c-7.5-3.9-14.9-7.8-22.1-11.6c-0.9,4.5-1.6,8.9-2.6,13.3c-2.8,11.3-7,22.1-11.4,32.9
		c-0.3,0.7-0.7,0.8-1.4,0.8c-4,0-8.1,0-12.1,0c-0.6,0-1.3-0.2-1.8-0.5c-4.8-2.7-9.6-5.5-14.5-8.2c-0.3-0.2-0.7-0.4-1.1-0.6
		c0,0.3,0,0.5,0,0.7c0.2,9.2,0.5,18.4,0.7,27.6c0.2,9,0.2,17.9,0.3,26.9c0.1,20.4,0.1,40.7,0.2,61.1c0,1.1-0.3,1.8-1.2,2.5
		c-2,1.6-3.9,3.2-5.9,4.9c4.8,4.4,9.4,8.6,14.1,13c0.4-0.3,0.7-0.6,0.9-0.9c2.1-2.1,4.3-4.2,6.3-6.4c0.7-0.7,1.4-1,2.4-1
		c22.6,0,45.1,0,67.7,0C152.1,207.1,152.6,207.1,153.2,207.1z M44.9,257.9c4.3,7,8.6,14,12.9,21.1c2.3-3.1,5.2-5.4,8.2-7.4
		c7.3-5,15.3-9,23.3-12.8c16.8-7.9,34-14.6,51.4-21.1c1-0.4,2.1-0.8,3.2-1.2c-0.4-1.6-0.8-3.2-1.2-4.7c-1.5,0.5-2.9,0.9-4.3,1.3
		C107.5,242.3,76.7,251.9,44.9,257.9z M95.4,109.1c1.5,1.9,3,3.6,4.3,5.4c5.4,7.3,9.2,15.4,12,24c0.8,2.5,2.1,5,3.5,7.2
		c1.7,2.6,4.2,2.7,6.4,0.4c3-3.1,5.1-6.9,5.9-11.2c0.3-1.5,0.3-3.1,0.1-4.6c-0.5-3.7-2.8-6.5-5.5-8.9c-7.1-6.1-15.4-10.2-23.8-14.3
		c-0.2-0.1-0.7,0-0.9,0.1C96.7,107.8,96.1,108.5,95.4,109.1z"/>
	<path d="M153.2,207.1c-0.6,0-1.1,0-1.6,0c-22.6,0-45.1,0-67.7,0c-1,0-1.7,0.3-2.4,1c-2.1,2.2-4.2,4.3-6.3,6.4
		c-0.3,0.3-0.6,0.5-0.9,0.9c-4.7-4.3-9.4-8.6-14.1-13c2-1.7,3.9-3.4,5.9-4.9c0.9-0.7,1.2-1.4,1.2-2.5c-0.1-20.4-0.1-40.7-0.2-61.1
		c0-9-0.1-17.9-0.3-26.9c-0.2-9.2-0.5-18.4-0.7-27.6c0-0.2,0-0.4,0-0.7c0.4,0.2,0.8,0.4,1.1,0.6c4.8,2.7,9.6,5.5,14.5,8.2
		c0.5,0.3,1.2,0.5,1.8,0.5c4,0,8.1,0,12.1,0c0.7,0,1.1-0.1,1.4-0.8c4.5-10.7,8.7-21.6,11.4-32.9c1.1-4.4,1.8-8.8,2.6-13.3
		c7.2,3.8,14.6,7.7,22.1,11.6c-7.9,5.2-13.6,12.4-19.2,19.6c-3.7,4.7-7,9.7-10.6,14.6c-0.2,0.3-0.4,0.6-0.7,1.1c0.5,0,1,0.1,1.4,0.1
		c12.4,0,24.9,0,37.3,0c0.8,0,1.4-0.3,2-0.9c2.6-3,5.2-5.9,7.8-8.8c0.3-0.3,0.5-0.6,0.9-1c5.5,5.1,11,10.2,16.5,15.3
		c-2.5,1.8-4.8,3.5-7.2,5.1c-0.8,0.6-1.2,1.2-1.2,2.2c-0.9,14-1.8,28-3,42c-0.5,6-1.7,11.9-2.8,17.9c-2,10.8-8.7,17.6-19,20.9
		c-1.6,0.5-3.3,0.9-5,1.4c-0.2,0-0.4,0-0.7,0.1c0.2-4.3-2-7.5-5-10.2c-2.8-2.5-6-4.5-9.4-6.1c-2.6-1.3-5.3-2.5-8-3.7
		c0.4-1.5,0.8-3,1.1-4.6c3.9,0.9,7.7,1.8,11.5,2.6c3.9,0.8,7.8,1.4,11.8,1.1c0.3,0,0.6,0,0.8,0c3.1-0.1,5.3-1.5,6-4.6
		c1-4.5,2.2-9.1,2.9-13.7c2-14.1,2.6-28.4,3.3-42.7c0.1-1.6,0.1-3.1,0.2-4.7c0-0.2,0-0.3-0.1-0.5c-20.7,0-41.4,0-62.2,0
		c0,34.9,0,69.7,0,104.8c0.5,0,1,0,1.5,0c21.8,0,43.6,0,65.4,0c1,0,1.6-0.3,2.3-1c3.2-3.2,6.4-6.4,9.7-9.7
		c5.5,5.1,11,10.2,16.6,15.4c-2.5,1.8-4.9,3.5-7.3,5.2c-0.7,0.5-1,1-1.1,1.8c-0.6,7.7-1.1,15.4-1.8,23.1c-0.8,8.9-1.7,17.8-2.8,26.7
		c-1,8-2.4,15.9-3.9,23.8c-2.4,12.9-10.2,21.6-22.2,26.6c-3.7,1.5-7.6,2.6-11.5,3.9c-0.3-1.6-0.5-2.9-0.8-4.2
		c-1.2-4.2-4.1-7.4-7.3-10.1c-5.6-4.7-12-7.9-18.6-10.7c-0.9-0.4-1.8-0.8-2.9-1.2c0.4-1.6,0.8-3.1,1.2-4.7c3,0.8,6,1.6,9,2.4
		c6.7,1.7,13.4,3.3,20.3,3.9c2,0.2,4,0.3,6,0.1c3.5-0.3,6-2.3,7.9-5c2.6-3.7,4-7.9,4.8-12.3c1.2-7.5,2.3-15,3.1-22.5
		c0.9-8.8,1.5-17.6,2.1-26.4C152.6,219.1,152.8,213.2,153.2,207.1z"/>
	<path d="M44.9,257.9c31.9-6,62.6-15.6,93.5-24.8c1.4-0.4,2.7-0.8,4.3-1.3c0.4,1.6,0.8,3.1,1.2,4.7c-1.1,0.4-2.1,0.8-3.2,1.2
		c-17.3,6.5-34.6,13.2-51.4,21.1c-8,3.8-16,7.7-23.3,12.8c-3,2.1-5.9,4.3-8.2,7.4C53.4,271.9,49.1,264.8,44.9,257.9z"/>
	<path d="M95.4,109.1c0.7-0.6,1.3-1.3,2-1.8c0.2-0.2,0.7-0.2,0.9-0.1c8.3,4.1,16.7,8.1,23.8,14.3c2.7,2.4,5,5.1,5.5,8.9
		c0.2,1.5,0.2,3.1-0.1,4.6c-0.8,4.3-2.9,8-5.9,11.2c-2.2,2.3-4.6,2.2-6.4-0.4c-1.5-2.2-2.7-4.6-3.5-7.2c-2.9-8.6-6.6-16.7-12-24
		C98.4,112.7,96.9,111,95.4,109.1z"/>
</g>
</svg>
