<?xml version="1.0" encoding="utf-8"?>
<!-- Generator: Adobe Illustrator 20.1.0, SVG Export Plug-In . SVG Version: 6.00 Build 0)  -->
<svg version="1.1" id="图层_1" xmlns="http://www.w3.org/2000/svg" xmlns:xlink="http://www.w3.org/1999/xlink" x="0px" y="0px"
	 viewBox="0 0 360 360" style="enable-background:new 0 0 360 360;" xml:space="preserve">
<style type="text/css">
	.st0{fill:#FFFFFF;}
</style>
<g>
	<path class="st0" d="M-0.1,360.1c0-120.1,0-240.2,0-360.2c120.1,0,240.2,0,360.2,0c0,120.1,0,240.2,0,360.2
		C240,360.1,120,360.1-0.1,360.1z M254.6,316.8c2.2-0.5,4.4-0.9,6.5-1.6c9.3-2.9,17-7.9,21.5-16.9c1.1-2.1,2.1-4.3,2.9-6.6
		c5.1-13,8.2-26.5,11.3-40.1c0.1-0.5,0.6-1.2,1-1.5c2.8-1.8,5.7-3.6,8.4-5.3c-5.5-5.5-11-11-16.7-16.7c-0.1,0.2-0.3,0.7-0.6,1
		c-2.9,3-5.9,5.9-8.8,8.8c-0.6,0.6-1.2,0.9-2.1,0.9c-48.2,0-96.3,0-144.5,0c-0.4,0-0.9,0-1.4,0c0-19.7,0-39.2,0-58.8
		c36.9,0,73.7,0,110.6,0c-0.7,4.4-1.2,8.7-2,13c-0.5,2.8-1.1,5.5-1.8,8.2c-0.8,3-1.7,6-3.5,8.6c-1,1.5-2.3,2.6-4.2,2.6
		c-1.6,0.1-3.1,0.2-4.7,0c-5.1-0.4-10-1.7-14.9-3.1c-1.5-0.4-2.9-0.9-4.4-1.3c-0.3,1.2-0.5,2.3-0.9,3.3c-0.4,1.1-0.1,1.6,1,2.2
		c5.4,2.9,10.8,5.9,15.3,10.3c2.1,2.1,4.1,4.3,3.6,7.7c0.4,0,0.7,0,1-0.1c2.1-0.6,4.3-1,6.4-1.7c9.2-3,15.6-8.8,18.4-18.4
		c2.6-8.7,4.4-17.6,5.8-26.5c0.2-1.1,0.5-1.7,1.5-2.2c3.1-1.7,6.2-3.4,9.4-5.2c-5.9-5.2-11.8-10.2-18-15.6c-0.3,0.4-0.4,0.8-0.7,1.2
		c-3,3-5.9,6-8.9,8.9c-0.4,0.4-1.2,0.7-1.7,0.7c-25.1,0-50.2,0-75.4,0c-0.4,0-0.7,0-1.3,0c5.9-10.9,12.2-21,21.2-29.5
		c-6.7-3.2-13.3-6.3-19.9-9.4c-0.2,2.7-0.4,5.2-0.7,7.7c-1.3,10.2-3.7,20.1-6.2,30c-0.2,0.9-0.6,1.1-1.5,1.1c-7.5,0-15,0-22.6,0
		c-0.6,0-1.3-0.1-1.8-0.4c-4.8-2-9.6-4.1-14.4-6.2c-0.3-0.1-0.7-0.3-1-0.4c0,2.5,0,5,0,7.4c0.2,10.3,0.5,20.7,0.7,31
		c0.1,9.6,0.1,19.1,0.2,28.7c0,0.8-0.3,1.3-0.9,1.8c-2.8,2.1-5.6,4.2-8.5,6.4c5.5,5.1,11,10.2,16.5,15.3c0.4-0.4,0.7-0.7,1-1
		c2.6-2.9,5.1-5.7,7.6-8.6c0.6-0.7,1.2-1,2.2-1c48.2,0,96.3,0,144.5,0c0.4,0,0.9,0,1.3,0c-0.1,0.5-0.1,0.8-0.1,1.1
		c-1.9,9.8-4,19.6-7.1,29.2c-1.5,4.6-3.2,9.1-6.3,13c-2.1,2.6-4.6,4.5-8.1,4.4c-1.6,0-3.3-0.1-4.9-0.4c-8-1.4-16-2.9-23.9-4.4
		c-2.8-0.5-5.5-1.2-8.4-1.8c-0.4,1.6-0.8,3.2-1.2,4.7c2.8,1,5.5,1.9,8.1,3c6.6,2.5,13,5.3,18.7,9.6
		C251.2,307.5,254.6,311,254.6,316.8z M54.5,270.6c0,0.1-0.1,0.2-0.1,0.3c3.3,3.3,6.7,6.7,10,10c0.2,0.2,0.8,0.3,1.2,0.2
		c9.5-2.5,19.3-3.3,29.1-3.3c52.8,0,105.5,0,158.3,0c0.5,0,0.9,0,1.7,0c-6.8-7.2-13.5-14.2-20.1-21.3c-4.4,4.4-8.8,8.7-13.1,13.1
		c-0.8,0.8-1.5,1.1-2.6,1.1c-54.3,0-108.5,0-162.8,0C55.5,270.6,55,270.6,54.5,270.6z M158.9,190.4c0.5,0.7,0.9,1.1,1.3,1.6
		c7.2,8.8,13.3,18.2,16.9,29.2c0.6,1.7,1.5,3.4,2.5,4.9c1.8,2.6,4.3,2.9,6.4,0.5c1.8-2,3.4-4.3,4.6-6.7c3-6,1.9-11.6-3-16.2
		c-0.4-0.4-0.8-0.7-1.2-1c-7.3-6.2-15.9-10.2-24.5-14.2c-0.2-0.1-0.7,0-0.9,0.2C160.3,189.2,159.7,189.8,158.9,190.4z"/>
	<path d="M254.6,316.8c0.1-5.8-3.4-9.3-7.4-12.3c-5.7-4.3-12.1-7.1-18.7-9.6c-2.6-1-5.3-1.9-8.1-3c0.4-1.6,0.8-3.1,1.2-4.7
		c2.8,0.6,5.6,1.3,8.4,1.8c8,1.5,15.9,3,23.9,4.4c1.6,0.3,3.3,0.3,4.9,0.4c3.5,0.1,6-1.8,8.1-4.4c3-3.9,4.7-8.4,6.3-13
		c3.1-9.5,5.2-19.3,7.1-29.2c0.1-0.3,0.1-0.6,0.1-1.1c-0.5,0-0.9,0-1.3,0c-48.2,0-96.3,0-144.5,0c-0.9,0-1.6,0.3-2.2,1
		c-2.5,2.9-5.1,5.8-7.6,8.6c-0.3,0.3-0.6,0.6-1,1c-5.5-5.1-11-10.2-16.5-15.3c2.9-2.2,5.7-4.3,8.5-6.4c0.6-0.5,0.9-1,0.9-1.8
		c-0.1-9.6-0.1-19.1-0.2-28.7c-0.2-10.4-0.5-20.7-0.7-31c-0.1-2.4,0-4.9,0-7.4c0.3,0.1,0.6,0.2,1,0.4c4.8,2.1,9.6,4.1,14.4,6.2
		c0.6,0.2,1.2,0.4,1.8,0.4c7.5,0,15,0,22.6,0c0.9,0,1.3-0.2,1.5-1.1c2.5-9.9,4.9-19.9,6.2-30c0.3-2.5,0.5-5.1,0.7-7.7
		c6.6,3.1,13.2,6.2,19.9,9.4c-9,8.4-15.3,18.6-21.2,29.5c0.6,0,0.9,0,1.3,0c25.1,0,50.2,0,75.4,0c0.6,0,1.3-0.3,1.7-0.7
		c3-2.9,6-5.9,8.9-8.9c0.3-0.3,0.5-0.7,0.7-1.2c6.2,5.3,12,10.4,18,15.6c-3.2,1.8-6.3,3.5-9.4,5.2c-1,0.5-1.3,1.1-1.5,2.2
		c-1.4,9-3.2,17.8-5.8,26.5c-2.8,9.6-9.2,15.4-18.4,18.4c-2.1,0.7-4.2,1.2-6.4,1.7c-0.3,0.1-0.6,0.1-1,0.1c0.5-3.4-1.4-5.7-3.6-7.7
		c-4.5-4.3-9.8-7.4-15.3-10.3c-1-0.6-1.4-1.1-1-2.2c0.4-1,0.6-2.1,0.9-3.3c1.5,0.4,3,0.9,4.4,1.3c4.9,1.4,9.8,2.7,14.9,3.1
		c1.5,0.1,3.1,0,4.7,0c1.9-0.1,3.2-1.1,4.2-2.6c1.7-2.6,2.7-5.6,3.5-8.6c0.7-2.7,1.3-5.4,1.8-8.2c0.7-4.3,1.3-8.6,2-13
		c-37,0-73.8,0-110.6,0c0,19.6,0,39.1,0,58.8c0.5,0,0.9,0,1.4,0c48.2,0,96.3,0,144.5,0c0.9,0,1.5-0.3,2.1-0.9c2.9-3,5.9-5.9,8.8-8.8
		c0.3-0.3,0.5-0.8,0.6-1c5.8,5.8,11.2,11.3,16.7,16.7c-2.8,1.7-5.6,3.5-8.4,5.3c-0.5,0.3-0.9,0.9-1,1.5
		c-3.1,13.6-6.2,27.1-11.3,40.1c-0.9,2.2-1.9,4.4-2.9,6.6c-4.5,9-12.2,14-21.5,16.9C259,315.8,256.8,316.2,254.6,316.8z"/>
	<path d="M54.5,270.6c0.5,0,1,0,1.5,0c54.3,0,108.5,0,162.8,0c1.1,0,1.8-0.3,2.6-1.1c4.3-4.4,8.6-8.7,13.1-13.1
		c6.7,7,13.3,14.1,20.1,21.3c-0.7,0-1.2,0-1.7,0c-52.8,0-105.5,0-158.3,0c-9.8,0-19.6,0.9-29.1,3.3c-0.4,0.1-0.9,0-1.2-0.2
		c-3.4-3.3-6.7-6.6-10-10C54.4,270.8,54.5,270.7,54.5,270.6z"/>
	<path d="M158.9,190.4c0.7-0.6,1.4-1.3,2.1-1.8c0.2-0.2,0.7-0.3,0.9-0.2c8.6,3.9,17.2,7.9,24.5,14.2c0.4,0.3,0.8,0.7,1.2,1
		c4.9,4.7,6,10.2,3,16.2c-1.2,2.4-2.8,4.7-4.6,6.7c-2.1,2.4-4.6,2.2-6.4-0.5c-1-1.5-1.9-3.2-2.5-4.9c-3.6-10.9-9.7-20.4-16.9-29.2
		C159.9,191.6,159.5,191.1,158.9,190.4z"/>
</g>
</svg>
