<?xml version="1.0" encoding="utf-8"?>
<!-- Generator: Adobe Illustrator 20.1.0, SVG Export Plug-In . SVG Version: 6.00 Build 0)  -->
<svg version="1.1" id="图层_1" xmlns="http://www.w3.org/2000/svg" xmlns:xlink="http://www.w3.org/1999/xlink" x="0px" y="0px"
	 viewBox="0 0 360 360" style="enable-background:new 0 0 360 360;" xml:space="preserve">
<style type="text/css">
	.st0{fill:#FFFFFF;}
</style>
<g>
	<path class="st0" d="M-0.1,360.1c0-120.1,0-240.2,0-360.2c120.1,0,240.2,0,360.2,0c0,120.1,0,240.2,0,360.2
		C240,360.1,120,360.1-0.1,360.1z M132.1,236.3c-19.5,30.3-43.6,55.6-73.2,75.6c0.4,1.3,0.8,2.4,1.2,3.6
		c33.5-15.2,60.4-38.1,81.4-68.5c0.2,0.4,0.3,0.7,0.5,0.9c8.1,9,14.7,19,19.5,30.2c0.9,2,2,3.9,3,5.8c0.4,0.7,0.9,1.3,1.4,1.9
		c2.6,3,5.3,3,7.6-0.3c4.4-6.5,5.7-13.5,2.8-20.9c-1.8-4.5-4.8-8.1-8-11.6c-5.8-6.5-12.3-12.4-18.9-18c-0.7-0.6-0.9-1.1-0.4-2
		c1.4-2.8,2.7-5.6,4-8.5c6.4-14.4,11.6-29.3,16.3-44.4c0.3-0.9,0.7-1.6,1.5-2.2c2.5-1.8,4.9-3.6,7.3-5.5c0.3-0.3,0.7-0.5,0.9-0.7
		c-5.1-5.1-10.2-10.2-15.5-15.5c-0.2,0.3-0.4,0.7-0.7,1c-2.9,3-5.9,5.9-8.8,8.8c-0.5,0.4-1.2,0.8-1.8,0.8c-7.1,0.1-14.2,0-21.2,0
		c-0.4,0-0.8,0-1.2-0.1c0-22.4,0-44.6,0-66.9c11.7,0,23.4,0,35.1,0c-2.7,9-5.5,18-8.2,27c0.9,0.3,1.8,0.5,2.6,0.9
		c0.8,0.4,1.2,0.1,1.6-0.6c2.7-4,5.4-7.9,8.3-11.8c4.4-6,9.7-11.1,16.6-14.2c2.1-0.9,4.2-1.8,6.2-2.6c-5.8-5.8-11.7-11.7-17.8-17.7
		c-0.2,0.3-0.4,0.7-0.7,1c-3.4,3.4-6.7,6.8-10.1,10.1c-0.4,0.4-1.2,0.7-1.7,0.7c-10.2,0-20.5,0-30.7,0c-0.4,0-0.8,0-1.2,0
		c0-0.7,0-1.1,0-1.6c0-8.8,0.1-17.6-0.1-26.4c-0.1-2.8,0.7-4.6,2.9-6.2c2.3-1.7,4.4-3.8,6.7-5.8c-8.3-4-16.5-7.9-24.6-11.7
		c0.4,17.3,0.8,34.5,1.2,51.7c-0.5,0-0.7,0.1-0.9,0.1c-10.1,0-20.2,0-30.2,0c-0.5,0-1.2-0.3-1.6-0.6c-5.2-3.4-10.4-6.9-15.6-10.4
		c-0.4-0.2-0.7-0.4-1.2-0.7c0,0.5,0,0.9,0,1.3c0.4,5.9,0.9,11.9,1.1,17.8c0.4,14,0.9,28,1,42c0.2,18,0.1,36-0.8,54
		c-0.4,9.4-1,18.8-1.7,28.1c-0.5,6.8-1.2,13.6-2.2,20.4c-2.2,14.7-6.1,28.9-11.4,42.7c-2.9,7.5-6.2,14.9-9.3,22.3
		c-0.2,0.4-0.3,1.1-0.1,1.5c0.5,0.8,1.2,1.4,1.9,2.1c1.4-2,2.6-3.8,3.9-5.6c9.4-13.8,17.3-28.4,22.6-44.2c4.4-13,6.7-26.5,8.5-40.1
		c1.9-14.5,3-29,3.7-43.6c0.1-1.8,0.2-3.6,0.3-5.5c23.5,0,47,0,70.6,0c-4.7,17.7-9.9,35-17.6,51.5c-13-8.3-25.9-16.5-38.9-24.7
		c-0.9,1.4-1.7,2.5-2.3,3.5C107.8,215.1,119.9,225.7,132.1,236.3z"/>
	<path d="M132.1,236.3c-12.2-10.6-24.3-21.2-36.5-31.8c0.6-1,1.4-2.1,2.3-3.5c13,8.2,25.9,16.4,38.9,24.7
		c7.6-16.5,12.9-33.9,17.6-51.5c-23.6,0-47.1,0-70.6,0c-0.1,1.9-0.2,3.7-0.3,5.5c-0.7,14.6-1.8,29.1-3.7,43.6
		c-1.8,13.6-4.1,27.1-8.5,40.1c-5.4,15.9-13.2,30.4-22.6,44.2c-1.2,1.8-2.5,3.6-3.9,5.6c-0.7-0.8-1.4-1.4-1.9-2.1
		c-0.2-0.3-0.1-1,0.1-1.5c3.1-7.4,6.4-14.8,9.3-22.3c5.3-13.8,9.2-28.1,11.4-42.7c1-6.8,1.7-13.6,2.2-20.4
		c0.7-9.4,1.3-18.7,1.7-28.1c0.9-18,1-36,0.8-54c-0.2-14-0.6-28-1-42c-0.2-5.9-0.7-11.9-1.1-17.8c0-0.4,0-0.8,0-1.3
		c0.5,0.3,0.8,0.5,1.2,0.7c5.2,3.5,10.4,6.9,15.6,10.4c0.5,0.3,1.1,0.6,1.6,0.6c10.1,0,20.2,0,30.2,0c0.2,0,0.4,0,0.9-0.1
		c-0.4-17.2-0.8-34.4-1.2-51.7c8.1,3.9,16.3,7.8,24.6,11.7c-2.3,2-4.3,4.1-6.7,5.8c-2.2,1.6-2.9,3.5-2.9,6.2
		c0.2,8.8,0.1,17.6,0.1,26.4c0,0.5,0,1,0,1.6c0.4,0,0.8,0,1.2,0c10.2,0,20.5,0,30.7,0c0.6,0,1.3-0.3,1.7-0.7
		c3.4-3.3,6.8-6.7,10.1-10.1c0.3-0.3,0.5-0.7,0.7-1c6.1,6.1,11.9,11.9,17.8,17.7c-2,0.9-4.1,1.7-6.2,2.6
		c-6.9,3.1-12.1,8.2-16.6,14.2c-2.9,3.8-5.5,7.8-8.3,11.8c-0.5,0.7-0.8,1-1.6,0.6c-0.8-0.4-1.6-0.6-2.6-0.9c2.7-9,5.5-17.9,8.2-27
		c-11.8,0-23.4,0-35.1,0c0,22.3,0,44.5,0,66.9c0.4,0,0.8,0.1,1.2,0.1c7.1,0,14.2,0,21.2,0c0.6,0,1.4-0.3,1.8-0.8
		c3-2.9,5.9-5.9,8.8-8.8c0.3-0.3,0.5-0.7,0.7-1c5.3,5.3,10.4,10.4,15.5,15.5c-0.2,0.2-0.6,0.5-0.9,0.7c-2.4,1.8-4.8,3.7-7.3,5.5
		c-0.8,0.6-1.2,1.2-1.5,2.2c-4.7,15.1-9.9,30-16.3,44.4c-1.3,2.8-2.6,5.7-4,8.5c-0.5,0.9-0.3,1.3,0.4,2c6.6,5.6,13.1,11.5,18.9,18
		c3.1,3.5,6.2,7.1,8,11.6c2.9,7.5,1.6,14.5-2.8,20.9c-2.3,3.3-4.9,3.3-7.6,0.3c-0.5-0.6-1-1.2-1.4-1.9c-1.1-1.9-2.2-3.8-3-5.8
		c-4.8-11.2-11.4-21.1-19.5-30.2c-0.2-0.2-0.3-0.5-0.5-0.9c-21.1,30.4-47.9,53.3-81.4,68.5c-0.4-1.2-0.8-2.3-1.2-3.6
		C88.5,291.9,112.6,266.6,132.1,236.3z M115.4,166.9c0-22.4,0-44.6,0-66.9c-10.6,0-21.1,0-31.6,0c0,22.3,0,44.6,0,66.9
		C94.4,166.9,104.9,166.9,115.4,166.9z"/>
	<path class="st0" d="M115.4,166.9c-10.6,0-21,0-31.6,0c0-22.3,0-44.6,0-66.9c10.5,0,21,0,31.6,0
		C115.4,122.3,115.4,144.5,115.4,166.9z"/>
</g>
</svg>
