<?xml version="1.0" encoding="utf-8"?>
<!-- Generator: Adobe Illustrator 20.1.0, SVG Export Plug-In . SVG Version: 6.00 Build 0)  -->
<svg version="1.1" id="图层_1" xmlns="http://www.w3.org/2000/svg" xmlns:xlink="http://www.w3.org/1999/xlink" x="0px" y="0px"
	 viewBox="0 0 360 360" style="enable-background:new 0 0 360 360;" xml:space="preserve">
<style type="text/css">
	.st0{fill:#FFFFFF;}
</style>
<g>
	<path class="st0" d="M0.2,360.5c0-120.1,0-240.2,0-360.2c120.1,0,240.2,0,360.2,0c0,120.1,0,240.2,0,360.2
		C240.4,360.5,120.3,360.5,0.2,360.5z M251.3,268.7c14.6,16.9,31.3,30.7,50.8,41.3c3.9-7.8,10.2-12.2,18.8-13c0-1.3,0-2.5,0-3.6
		c-23.5-5.9-44.3-16.5-61-34c3.1-6,6.2-11.8,9-17.8c9.8-20.2,17.2-41.2,23.2-62.8c0.4-1.4,1.1-2.5,2.2-3.4c2.2-1.8,4.4-3.7,6.6-5.7
		c-6-5.2-11.8-10.2-17.7-15.4c-2.6,3.7-5.1,7.3-7.6,10.9c-0.5,0.7-1,1-1.9,1c-5.8,0-11.6,0-17.4,0c-0.4,0-0.8,0-1.3-0.1
		c0-21.2,0-42.3,0-63.4c12.1,0,24.1,0,36.3,0c-4.3,10.3-8.6,20.4-12.9,30.5c1.2,0.8,2.4,1.6,3.6,2.4c0.3-0.4,0.6-0.7,0.8-1
		c5.9-7.9,12.1-15.6,19.2-22.5c4.8-4.6,9.7-8.9,16.5-10.7c-6.7-5.9-13.4-11.8-20-17.7c-2.6,3.7-5.1,7.3-7.6,10.8c-0.5,0.7-1,1-1.9,1
		c-10.9,0-21.8,0-32.8,0c-0.4,0-0.8,0-1.3-0.1c0-0.4-0.1-0.7-0.1-0.9c0-11.5,0-23,0-34.6c0-0.5,0.4-1.1,0.8-1.4
		c2-1.6,4.1-3.1,6.2-4.7c0.8-0.6,1.5-1.2,2.4-1.9c-8.4-3.6-16.5-7.1-24.8-10.6c0.9,18.1,1.2,36.1,1.2,54.1c-0.3,0-0.5,0.1-0.7,0.1
		c-13.3,0-26.6,0-39.8,0c-0.5,0-1-0.2-1.4-0.5c-2.3-1.4-4.6-2.9-6.9-4.4c-2.9-1.9-5.8-3.7-8.9-5.7c0,0.4,0,0.6,0,0.9
		c0.2,6.4,0.5,12.9,0.6,19.3c0.2,7.1,0.3,14.2,0.3,21.3c0,15.9,0.1,31.8-0.3,47.6c-0.2,12.9-1.4,25.7-3,38.5
		c-1.3,10.3-2.9,20.5-5.2,30.6c-5.3,23.8-15.9,45.1-30.6,64.4c-1.8,2.4-3.7,4.8-5.6,7.2c0.8,1.2,1.5,2.3,2.3,3.5
		c0.4-0.3,0.7-0.6,1.1-0.9c6-5.5,11.7-11.2,17-17.4c9.4-11,17.3-23,23-36.5c3.7-8.9,6.1-18.1,8.4-27.4c2.8-11.7,5-23.5,6-35.4
		c0.7-8.5,1.2-17.1,1.4-25.6c0.4-13.6,0.6-27.3,0.7-40.9c0.1-10.1,0.1-20.2,0.2-30.2c0-0.4,0-0.8,0.1-1.2c13.8,0,27.4,0,41,0
		c0,21.2,0,42.3,0,63.6c-12.9,0-25.7,0-38.8,0c3.1,3.4,5.9,6.6,8.7,9.8c0.6,0.7,1,0.7,1.7,0.3c1.6-0.7,3.2-1.4,4.8-2.1
		c0.8-0.3,1.5-0.6,2.4-1c0.1,0.3,0.1,0.5,0.1,0.7c1.8,12.9,4,25.7,7.2,38.4c3.8,15.1,8.6,29.8,15.9,43.7c0.4,0.7,0.1,1.1-0.3,1.6
		c-7,8-14.6,15.3-22.9,22c-15,12.1-31.4,22-48.7,30.5c-1.4,0.7-2.8,1.4-4.3,2.1c0.3,0.9,0.5,1.7,0.8,2.5c0.1,0.3,0.2,0.7,0.4,1
		C199.3,306.8,227.1,291.1,251.3,268.7z"/>
	<path d="M251.3,268.7c-24.1,22.4-52,38.1-83.6,47.1c-0.1-0.3-0.3-0.7-0.4-1c-0.3-0.8-0.5-1.6-0.8-2.5c1.5-0.7,2.9-1.4,4.3-2.1
		c17.2-8.5,33.7-18.4,48.7-30.5c8.3-6.7,16-13.9,22.9-22c0.4-0.5,0.7-0.8,0.3-1.6c-7.3-13.8-12.1-28.5-15.9-43.7
		c-3.1-12.7-5.4-25.5-7.2-38.4c0-0.2-0.1-0.4-0.1-0.7c-0.8,0.3-1.6,0.6-2.4,1c-1.6,0.7-3.2,1.4-4.8,2.1c-0.7,0.3-1.1,0.3-1.7-0.3
		c-2.8-3.2-5.7-6.4-8.7-9.8c13.1,0,25.9,0,38.8,0c0-21.3,0-42.4,0-63.6c-13.7,0-27.3,0-41,0c0,0.4-0.1,0.8-0.1,1.2
		c-0.1,10.1,0,20.2-0.2,30.2c-0.2,13.6-0.3,27.3-0.7,40.9c-0.3,8.5-0.7,17.1-1.4,25.6c-1,12-3.2,23.8-6,35.4
		c-2.3,9.3-4.7,18.6-8.4,27.4c-5.6,13.4-13.5,25.4-23,36.5c-5.3,6.2-11,11.9-17,17.4c-0.3,0.3-0.7,0.6-1.1,0.9
		c-0.8-1.2-1.6-2.3-2.3-3.5c1.9-2.4,3.8-4.8,5.6-7.2c14.7-19.4,25.3-40.6,30.6-64.4c2.3-10.1,3.9-20.3,5.2-30.6
		c1.6-12.8,2.8-25.6,3-38.5c0.3-15.9,0.2-31.7,0.3-47.6c0-7.1-0.1-14.2-0.3-21.3c-0.2-6.4-0.4-12.9-0.6-19.3c0-0.2,0-0.4,0-0.9
		c3.1,2,6,3.8,8.9,5.7c2.3,1.5,4.6,3,6.9,4.4c0.4,0.3,0.9,0.5,1.4,0.5c13.3,0,26.6,0,39.8,0c0.2,0,0.3,0,0.7-0.1
		c0-18-0.3-36-1.2-54.1c8.3,3.6,16.5,7.1,24.8,10.6c-0.9,0.7-1.7,1.3-2.4,1.9c-2.1,1.6-4.2,3.1-6.2,4.7c-0.4,0.3-0.8,1-0.8,1.4
		c0,11.5,0,23,0,34.6c0,0.3,0,0.5,0.1,0.9c0.5,0,0.9,0.1,1.3,0.1c10.9,0,21.8,0,32.8,0c0.9,0,1.4-0.3,1.9-1c2.5-3.6,5-7.1,7.6-10.8
		c6.7,5.9,13.3,11.7,20,17.7c-6.8,1.8-11.8,6.1-16.5,10.7c-7.2,6.9-13.3,14.6-19.2,22.5c-0.2,0.3-0.5,0.6-0.8,1
		c-1.2-0.8-2.3-1.5-3.6-2.4c4.3-10.2,8.6-20.3,12.9-30.5c-12.2,0-24.2,0-36.3,0c0,21.1,0,42.2,0,63.4c0.4,0,0.9,0.1,1.3,0.1
		c5.8,0,11.6,0,17.4,0c0.9,0,1.4-0.3,1.9-1c2.5-3.6,5-7.1,7.6-10.9c5.9,5.1,11.8,10.2,17.7,15.4c-2.3,2-4.4,3.9-6.6,5.7
		c-1.1,0.9-1.8,2-2.2,3.4c-6,21.6-13.5,42.6-23.2,62.8c-2.9,5.9-6,11.7-9,17.8c16.7,17.5,37.6,28.1,61,34c0,1.1,0,2.3,0,3.6
		c-8.6,0.8-14.9,5.2-18.8,13C282.5,299.4,265.8,285.5,251.3,268.7z M224.4,173.3c0,0.3,0,0.5,0.1,0.7c3.9,14.8,8.3,29.5,13.7,43.9
		c3.5,9.3,7.5,18.4,12.4,27.1c0.2,0.4,0.5,0.8,0.8,1.3c12.5-23.1,19.5-47.9,25.8-72.9C259.5,173.3,242,173.3,224.4,173.3z"/>
	<path class="st0" d="M224.4,173.3c17.6,0,35.1,0,52.9,0c-6.4,25.1-13.3,49.8-25.8,72.9c-0.4-0.6-0.6-0.9-0.8-1.3
		c-5-8.6-8.9-17.8-12.4-27.1c-5.4-14.4-9.7-29-13.7-43.9C224.4,173.8,224.4,173.6,224.4,173.3z"/>
</g>
</svg>
