<?xml version="1.0" encoding="utf-8"?>
<!-- Generator: Adobe Illustrator 20.1.0, SVG Export Plug-In . SVG Version: 6.00 Build 0)  -->
<svg version="1.1" id="图层_1" xmlns="http://www.w3.org/2000/svg" xmlns:xlink="http://www.w3.org/1999/xlink" x="0px" y="0px"
	 viewBox="0 0 360 360" style="enable-background:new 0 0 360 360;" xml:space="preserve">
<style type="text/css">
	.st0{fill:#FFFFFF;}
</style>
<g>
	<path class="st0" d="M0.2,360.5c0-120.1,0-240.2,0-360.2c120.1,0,240.2,0,360.2,0c0,120.1,0,240.2,0,360.2
		C240.4,360.5,120.3,360.5,0.2,360.5z M79.5,111.9c0.2-0.5,0.3-0.8,0.4-1.2c2.8-7.1,5.7-14.2,8.6-21.3c0.2-0.6,0.7-1.1,1.1-1.5
		c2-1.8,4.1-3.5,6.3-5.3c-7.5-4.4-14.9-8.6-22.5-13c-3.6,35-13.6,68.1-27.1,100.2c0.9,0.3,1.7,0.5,2.5,0.9c0.8,0.3,1.3,0.2,1.8-0.5
		c2.7-4.1,5.6-8.2,8.2-12.4c7.3-11.8,13.3-24.3,18.7-37.1c0.4-1,0.9-1.6,2.2-1.6c9.6,0.1,19.1,0,28.7,0c0.5,0,0.9,0,1.5,0
		c0,19.3,0,38.4,0,57.7c-15.3,0-30.4,0-45.9,0c3.6,3.6,6.9,7,10.3,10.3c0.2,0.2,0.7,0.2,1.1,0.1c1.8-0.4,3.6-0.8,5.4-1.2
		c6.7-1.4,13.4-2,20.2-2.1c2.9-0.1,5.9,0,8.9,0c0,21.3,0,42.4,0,63.8c-20.4,3.5-40.7,7-61.2,10.6c4.3,7.4,8.6,14.8,12.9,22.4
		c2.2-2.6,4.3-5.1,6.5-7.5c0.4-0.5,1-0.9,1.6-1.1c32.2-10,64.5-20.1,96.7-30.1c2.7-0.9,5.5-1.7,8.3-2.6c-0.4-1.6-0.8-3.2-1.2-4.8
		c-16.1,3.1-32.1,6.3-48.2,9.4c0-20.1,0-40,0-60c14.5,0,28.8,0,43.5,0c-6-6.4-11.9-12.6-17.7-18.9c-4.2,3.8-8.2,7.5-12.2,11.1
		c-0.5,0.4-1.2,0.7-1.8,0.7c-3.6,0.1-7.1,0-10.7,0c-0.4,0-0.8-0.1-1.1-0.1c0-19.2,0-38.3,0-57.6c14.9,0,29.7,0,44.7,0
		c-6-6.8-11.8-13.4-17.7-20c-0.4,0.4-0.7,0.7-1,1c-3.7,3.7-7.4,7.5-11.2,11.2c-0.5,0.4-1.2,0.8-1.9,0.8c-3.9,0.1-7.8,0-11.6,0
		c-0.4,0-0.8,0-1.3-0.1c0-0.4,0-0.7,0-0.9c0-16.2,0-32.5,0-48.7c0-0.5,0.3-1.1,0.7-1.5c2.1-2.1,4.2-4.2,6.4-6.4
		c-7.9-3.6-15.7-7.1-23.6-10.6c1.1,22.8,1.1,45.5,1.1,68.3C99.7,111.9,89.6,111.9,79.5,111.9z"/>
	<path d="M79.5,111.9c10.2,0,20.2,0,30.4,0c0-22.7-0.1-45.4-1.1-68.3c7.9,3.5,15.7,7.1,23.6,10.6c-2.2,2.2-4.3,4.3-6.4,6.4
		c-0.4,0.4-0.7,1-0.7,1.5c0,16.2,0,32.5,0,48.7c0,0.3,0,0.5,0,0.9c0.5,0,0.9,0.1,1.3,0.1c3.9,0,7.8,0,11.6,0c0.6,0,1.4-0.3,1.9-0.8
		c3.8-3.7,7.5-7.4,11.2-11.2c0.3-0.3,0.6-0.6,1-1c5.9,6.6,11.7,13.2,17.7,20c-15,0-29.8,0-44.7,0c0,19.3,0,38.4,0,57.6
		c0.4,0,0.8,0.1,1.1,0.1c3.6,0,7.1,0,10.7,0c0.6,0,1.3-0.3,1.8-0.7c4.1-3.6,8.1-7.3,12.2-11.1c5.9,6.2,11.7,12.5,17.7,18.9
		c-14.7,0-29,0-43.5,0c0,20.1,0,40,0,60c16.1-3.1,32.1-6.3,48.2-9.4c0.4,1.6,0.8,3.1,1.2,4.8c-2.8,0.9-5.6,1.8-8.3,2.6
		c-32.2,10-64.5,20-96.7,30.1c-0.6,0.2-1.2,0.6-1.6,1.1c-2.1,2.4-4.2,4.9-6.5,7.5c-4.4-7.5-8.7-14.9-12.9-22.4
		c20.4-3.5,40.8-7,61.2-10.6c0-21.4,0-42.5,0-63.8c-3,0-6-0.1-8.9,0c-6.8,0.2-13.6,0.7-20.2,2.1c-1.8,0.4-3.6,0.8-5.4,1.2
		c-0.3,0.1-0.9,0.1-1.1-0.1c-3.4-3.3-6.7-6.7-10.3-10.3c15.5,0,30.7,0,45.9,0c0-19.3,0-38.5,0-57.7c-0.5,0-1,0-1.5,0
		c-9.6,0-19.1,0-28.7,0c-1.3,0-1.8,0.6-2.2,1.6C72,133.4,66,145.9,58.8,157.7c-2.6,4.2-5.5,8.3-8.2,12.4c-0.5,0.8-1,0.9-1.8,0.5
		c-0.8-0.3-1.6-0.6-2.5-0.9c13.5-32.2,23.5-65.2,27.1-100.2c7.5,4.3,14.9,8.6,22.5,13c-2.2,1.8-4.3,3.6-6.3,5.3
		c-0.5,0.4-0.9,0.9-1.1,1.5c-2.9,7.1-5.7,14.2-8.6,21.3C79.7,111.1,79.6,111.4,79.5,111.9z"/>
</g>
</svg>
