<?xml version="1.0" encoding="utf-8"?>
<!-- Generator: Adobe Illustrator 20.1.0, SVG Export Plug-In . SVG Version: 6.00 Build 0)  -->
<svg version="1.1" id="图层_1" xmlns="http://www.w3.org/2000/svg" xmlns:xlink="http://www.w3.org/1999/xlink" x="0px" y="0px"
	 viewBox="0 0 360 360" style="enable-background:new 0 0 360 360;" xml:space="preserve">
<style type="text/css">
	.st0{fill:#FFFFFF;}
</style>
<g>
	<path class="st0" d="M0.2,360.5c0-120.1,0-240.2,0-360.2c120.1,0,240.2,0,360.2,0c0,120.1,0,240.2,0,360.2
		C240.4,360.5,120.3,360.5,0.2,360.5z M158.3,181.5c-7.6-4.4-15-8.7-22.4-13c-0.1,0.5-0.2,0.8-0.3,1.1c-1.3,6.5-3.1,12.9-5.4,19.1
		c-7.8,21-18.1,40.7-29.9,59.7c-1,1.7-2.2,3.3-3.3,5c1,0.6,1.9,1.2,2.7,1.8c0.7,0.6,1.1,0.4,1.7-0.1c2.3-2.4,4.7-4.7,6.9-7.1
		c8.9-9.8,16.8-20.4,24.5-31.2c0.5-0.7,1-1,1.9-1c18,0,36,0,54,0c0.4,0,0.8,0,1.2,0c0,11.5,0,22.8,0,34.2c-22.3,0-44.6,0-67.1,0
		c3.5,3.5,6.9,6.9,10.2,10.2c0.2,0.2,0.8,0.2,1.2,0.1c9-2.4,18.2-3.3,27.4-3.3c8.9,0,17.8,0,26.8,0c0.5,0,0.9,0,1.5,0
		c0,14.2,0,28.2,0,42.4c-34.1,0-68.2,0-102.4,0c3.5,3.5,6.9,6.9,10.3,10.2c0.2,0.2,0.9,0.2,1.3,0.1c8.8-2.3,17.8-3.3,26.9-3.3
		c61.2,0,122.4,0,183.6,0c0.5,0,1,0,1.9,0c-7.2-7.6-14.2-15-21.3-22.5c-0.7,0.6-1.2,1-1.7,1.5c-5,4.4-10.1,8.8-15.2,13.1
		c-0.5,0.4-1.3,0.7-1.9,0.7c-21.6,0-43.1,0-64.7,0c-0.4,0-0.8,0-1.3,0c0-14.2,0-28.2,0-42.4c23.5,0,46.9,0,70.6,0
		c-6.4-6.8-12.6-13.4-18.9-20c-0.4,0.3-0.6,0.6-0.9,0.9c-3.8,3.8-7.5,7.5-11.3,11.3c-0.6,0.6-1.1,0.8-2,0.8c-12.1,0-24.2,0-36.4,0
		c-0.4,0-0.8,0-1.2,0c0-11.5,0-22.7,0-34.1c27,0,54,0,81.3,0c-6.5-6.9-12.7-13.5-18.9-20.1c-4.1,4.1-8.1,8.1-12.1,12.2
		c-0.6,0.6-1.1,0.8-2,0.8c-15.6,0-31.3,0-46.9,0c-0.4,0-0.8,0-1.3,0c0-0.6,0-1,0-1.5c0-6.3,0.1-12.6-0.1-19
		c-0.1-2.2,0.4-3.8,2.3-5.1c1.3-0.9,2.4-2.1,3.6-3.1c1.2-1,2.3-2.1,3.6-3.2c-8.7-4-17.3-7.9-25.8-11.7c0.4,14.6,0.8,29,1.2,43.4
		c-17.8,0-35.4,0-53,0C143.5,198.8,150.2,189.7,158.3,181.5z"/>
	<path d="M158.3,181.5c-8.1,8.2-14.9,17.3-21.1,27c17.7,0,35.2,0,53,0c-0.4-14.4-0.8-28.8-1.2-43.4c8.5,3.9,17.1,7.8,25.8,11.7
		c-1.3,1.1-2.4,2.2-3.6,3.2c-1.2,1.1-2.3,2.3-3.6,3.1c-1.9,1.3-2.3,2.9-2.3,5.1c0.1,6.3,0.1,12.6,0.1,19c0,0.4,0,0.9,0,1.5
		c0.5,0,0.9,0,1.3,0c15.6,0,31.3,0,46.9,0c0.8,0,1.4-0.3,2-0.8c4-4,8-8,12.1-12.2c6.3,6.7,12.5,13.3,18.9,20.1
		c-27.3,0-54.2,0-81.3,0c0,11.4,0,22.7,0,34.1c0.4,0,0.8,0,1.2,0c12.1,0,24.2,0,36.4,0c0.8,0,1.4-0.3,2-0.8
		c3.7-3.8,7.5-7.5,11.3-11.3c0.3-0.3,0.6-0.5,0.9-0.9c6.2,6.6,12.4,13.2,18.9,20c-23.7,0-47.1,0-70.6,0c0,14.2,0,28.2,0,42.4
		c0.4,0,0.8,0,1.3,0c21.6,0,43.1,0,64.7,0c0.6,0,1.4-0.3,1.9-0.7c5.1-4.3,10.1-8.7,15.2-13.1c0.5-0.5,1.1-0.9,1.7-1.5
		c7,7.4,14.1,14.8,21.3,22.5c-0.8,0-1.3,0-1.9,0c-61.2,0-122.4,0-183.6,0c-9.1,0-18.1,1-26.9,3.3c-0.4,0.1-1,0.1-1.3-0.1
		c-3.4-3.3-6.7-6.7-10.3-10.2c34.3,0,68.3,0,102.4,0c0-14.2,0-28.2,0-42.4c-0.5,0-1,0-1.5,0c-8.9,0-17.8,0-26.8,0
		c-9.3,0-18.4,1-27.4,3.3c-0.4,0.1-1,0.1-1.2-0.1c-3.4-3.3-6.7-6.7-10.2-10.2c22.5,0,44.7,0,67.1,0c0-11.4,0-22.7,0-34.2
		c-0.4,0-0.8,0-1.2,0c-18,0-36,0-54,0c-0.9,0-1.4,0.3-1.9,1c-7.7,10.8-15.6,21.4-24.5,31.2c-2.2,2.5-4.6,4.7-6.9,7.1
		c-0.6,0.6-1,0.7-1.7,0.1c-0.8-0.6-1.7-1.2-2.7-1.8c1.1-1.7,2.2-3.3,3.3-5c11.8-19,22.1-38.7,29.9-59.7c2.3-6.2,4.2-12.6,5.4-19.1
		c0.1-0.3,0.2-0.6,0.3-1.1C143.4,172.8,150.8,177.1,158.3,181.5z"/>
</g>
</svg>
