<?xml version="1.0" encoding="utf-8"?>
<!-- Generator: Adobe Illustrator 20.1.0, SVG Export Plug-In . SVG Version: 6.00 Build 0)  -->
<svg version="1.1" id="图层_1" xmlns="http://www.w3.org/2000/svg" xmlns:xlink="http://www.w3.org/1999/xlink" x="0px" y="0px"
	 viewBox="0 0 360 360" style="enable-background:new 0 0 360 360;" xml:space="preserve">
<style type="text/css">
	.st0{fill:#FFFFFF;}
</style>
<g>
	<path class="st0" d="M0.2,360.5c0-120.1,0-240.1,0-360.2c120.1,0,240.1,0,360.2,0c0,120.1,0,240.1,0,360.2
		C240.4,360.5,120.3,360.5,0.2,360.5z M120.4,315.9c5.5-2,10.8-3.9,16-5.8c0.3-0.1,0.6-0.8,0.6-1.2c0-4.4,0-8.7,0-13.1
		c0-0.7,0-1.5,0-2.3c38.1,0,76.1,0,114.3,0c0,5.9,0,11.6,0,17.6c5.6-2,11-3.9,16.5-5.9c0-0.5,0-0.9,0-1.3
		c-0.3-7.5-0.7-15.1-0.8-22.6c-0.2-10.1-0.2-20.2-0.3-30.3c0-1.6-0.4-3.3,0.2-4.6c0.6-1.2,2.2-2,3.4-2.9c2.3-1.8,4.6-3.6,7-5.5
		c-6-5.2-11.8-10.3-17.7-15.4c-3,3.7-5.9,7.3-8.7,10.9c-0.5,0.7-1,0.9-1.9,0.9c-36.4,0-72.8,0-109.2,0c-0.4,0-0.8,0-1.3-0.1
		c0.4-0.5,0.7-0.8,1-1.1c10.3-10.3,20.5-20.5,30.8-30.8c0.7-0.7,1.3-0.9,2.3-0.9c45.8,0,91.5,0,137.3,0c0.5,0,0.9,0,1.2,0
		c-7.4-7.4-14.8-14.8-22.3-22.3c-0.2,0.2-0.6,0.4-0.9,0.7c-5.5,4.5-11.1,9-16.6,13.5c-0.8,0.7-1.6,0.9-2.7,0.9
		c-61.1,0-122.2,0-183.3,0c-9.8,0-19.5,0-29.3,0c-0.4,0-0.8,0-1.2,0c3.1,3.5,6.3,6.7,9.5,9.9c0.6,0.6,1.2,0.7,2,0.5
		c8-2.1,16.1-3.2,24.3-3.2c18.9-0.1,37.8,0,56.8,0c0.4,0,0.8,0,1.3,0.1c-27.4,37.4-62.9,64.7-103.6,85.9c0.4,1.3,0.8,2.4,1.2,3.6
		c26.9-10.5,52.5-23.1,75.3-41.1C121.3,272.1,120.8,293.9,120.4,315.9z"/>
	<path d="M120.4,315.9c0.4-22,0.8-43.8,1.2-65.9c-22.8,18-48.4,30.7-75.3,41.1c-0.4-1.2-0.8-2.3-1.2-3.6
		c40.7-21.1,76.2-48.5,103.6-85.9c-0.6,0-1-0.1-1.3-0.1c-18.9,0-37.8-0.1-56.8,0c-8.2,0-16.3,1.1-24.3,3.2c-0.8,0.2-1.4,0.1-2-0.5
		c-3.2-3.2-6.4-6.4-9.5-9.9c0.4,0,0.8,0,1.2,0c9.8,0,19.5,0,29.3,0c61.1,0,122.2,0,183.3,0c1.1,0,1.9-0.3,2.7-0.9
		c5.5-4.5,11-9,16.6-13.5c0.3-0.3,0.7-0.5,0.9-0.7c7.5,7.5,14.9,14.9,22.3,22.3c-0.3,0-0.7,0-1.2,0c-45.8,0-91.5,0-137.3,0
		c-1,0-1.6,0.3-2.3,0.9c-10.2,10.3-20.5,20.5-30.8,30.8c-0.3,0.3-0.6,0.6-1,1.1c0.6,0,0.9,0.1,1.3,0.1c36.4,0,72.8,0,109.2,0
		c0.8,0,1.4-0.3,1.9-0.9c2.8-3.6,5.7-7.2,8.7-10.9c5.9,5.1,11.8,10.2,17.7,15.4c-2.4,1.9-4.7,3.7-7,5.5c-1.2,0.9-2.9,1.7-3.4,2.9
		c-0.6,1.3-0.2,3-0.2,4.6c0.1,10.1,0.1,20.2,0.3,30.3c0.1,7.5,0.6,15.1,0.8,22.6c0,0.4,0,0.8,0,1.3c-5.4,1.9-10.9,3.9-16.5,5.9
		c0-5.9,0-11.7,0-17.6c-38.1,0-76.1,0-114.3,0c0,0.8,0,1.6,0,2.3c0,4.4,0,8.7,0,13.1c0,0.4-0.3,1.1-0.6,1.2
		C131.2,312.1,126,313.9,120.4,315.9z M137.2,241.7c0,14.9,0,29.7,0,44.6c38.1,0,76,0,114.1,0c0-14.9,0-29.7,0-44.6
		C213.2,241.7,175.2,241.7,137.2,241.7z"/>
	<path class="st0" d="M137.2,241.7c38.1,0,76,0,114.1,0c0,14.9,0,29.7,0,44.6c-38,0-76,0-114.1,0
		C137.2,271.4,137.2,256.6,137.2,241.7z"/>
</g>
</svg>
