<?xml version="1.0" encoding="utf-8"?>
<!-- Generator: Adobe Illustrator 20.1.0, SVG Export Plug-In . SVG Version: 6.00 Build 0)  -->
<svg version="1.1" id="图层_1" xmlns="http://www.w3.org/2000/svg" xmlns:xlink="http://www.w3.org/1999/xlink" x="0px" y="0px"
	 viewBox="0 0 360 360" style="enable-background:new 0 0 360 360;" xml:space="preserve">
<style type="text/css">
	.st0{fill:#FFFFFF;}
</style>
<g>
	<g>
		<path class="st0" d="M0.2,360.5c0-120.1,0-240.2,0-360.2c120.1,0,240.2,0,360.2,0c0,120.1,0,240.2,0,360.2
			C240.4,360.5,120.3,360.5,0.2,360.5z M94.5,87.4c0,0.3,0,0.6-0.1,0.8c-1.7,7.6-3.1,15.4-5.1,22.9c-3.4,12.4-7.1,24.7-10.9,37
			c-5.2,16.4-11.5,32.4-19.1,47.9c-4.8,9.7-10.1,19.1-16,28.3c-0.2,0.3-0.4,1-0.2,1.2c0.6,1.1,1.3,2.1,2.1,3.2
			c14.6-15.4,26.7-32.3,36.2-51.1c0.2,0,0.3,0.1,0.5,0.1c-0.4,40.5-0.7,81-1.1,121.6c5.1-2.9,10.1-5.8,15.3-8.7c0.8-0.4,1-0.9,1-1.8
			c0-7.8,0-15.5,0-23.3c0-0.5,0-0.9,0.1-1.4c12.6,0,25,0,37.5,0c0,6.2,0,12.4,0,18.7c0.3-0.1,0.5-0.2,0.7-0.3
			c5.1-2.9,10.2-5.8,15.3-8.8c0.3-0.2,0.6-0.8,0.5-1.1c-0.1-5-0.3-9.9-0.4-14.9c-0.2-11.5-0.3-22.9-0.5-34.4
			c-0.1-6.7-0.1-13.4-0.2-20c0-11.7-0.1-23.4-0.1-35c0-0.5,0.3-1.1,0.7-1.4c2.2-1.9,4.4-3.8,6.6-5.7c0.3-0.3,0.6-0.6,1-0.9
			c-5.6-4.8-11-9.5-16.5-14.2c-2.6,3.3-5.1,6.5-7.6,9.8c-0.5,0.6-1,0.9-1.8,0.9c-10,0-19.9,0-29.9,0c-1.8,0-3.9,0.5-5.4-0.2
			c-1.6-0.7-2.7-2.5-4.1-3.8c-0.5-0.5-0.6-0.9-0.4-1.5c7.5-20.6,14.1-41.6,20.5-62.6c0.3-1,0.7-1.3,1.7-1.3c17.9,0,35.8,0,53.6,0
			c0.5,0,0.9,0,1.7,0c-6.4-7.6-12.6-15-18.9-22.5c-0.4,0.4-0.7,0.7-1,1c-4.5,4.5-8.9,8.9-13.4,13.4c-0.6,0.6-1.3,0.9-2.2,0.9
			c-29.7,0-59.4,0-89,0c-0.5,0-0.9,0-1.5,0c0.1,0.2,0.2,0.4,0.2,0.4c3.2,3.3,6.5,6.5,9.8,9.7c0.3,0.3,1,0.4,1.4,0.3
			c12.7-3.5,25.7-3.4,38.7-3.3C94.3,87.3,94.4,87.4,94.5,87.4z"/>
		<path d="M94.5,87.4c-0.2,0-0.3-0.1-0.4-0.1c-13-0.2-26-0.2-38.7,3.3c-0.4,0.1-1.1,0-1.4-0.3c-3.3-3.2-6.5-6.5-9.8-9.7
			c-0.1-0.1-0.1-0.2-0.2-0.4c0.6,0,1,0,1.5,0c29.7,0,59.4,0,89,0c0.9,0,1.5-0.3,2.2-0.9c4.4-4.5,8.9-9,13.4-13.4
			c0.3-0.3,0.6-0.6,1-1c6.3,7.4,12.5,14.8,18.9,22.5c-0.8,0-1.2,0-1.7,0c-17.9,0-35.8,0-53.6,0c-1,0-1.4,0.3-1.7,1.3
			c-6.4,21-13,41.9-20.5,62.6c-0.2,0.7-0.1,1.1,0.4,1.5c1.4,1.3,2.5,3.1,4.1,3.8c1.6,0.7,3.6,0.2,5.4,0.2c10,0,19.9,0,29.9,0
			c0.8,0,1.3-0.2,1.8-0.9c2.5-3.2,5-6.4,7.6-9.8c5.5,4.7,10.9,9.4,16.5,14.2c-0.4,0.3-0.6,0.6-1,0.9c-2.2,1.9-4.4,3.8-6.6,5.7
			c-0.4,0.3-0.7,0.9-0.7,1.4c0,11.7,0,23.4,0.1,35c0,6.7,0.1,13.4,0.2,20c0.1,11.5,0.3,22.9,0.5,34.4c0.1,5,0.3,9.9,0.4,14.9
			c0,0.4-0.2,1-0.5,1.1c-5.1,2.9-10.2,5.8-15.3,8.8c-0.2,0.1-0.3,0.1-0.7,0.3c0-6.3,0-12.5,0-18.7c-12.5,0-25,0-37.5,0
			c0,0.5-0.1,0.9-0.1,1.4c0,7.8,0,15.5,0,23.3c0,0.9-0.3,1.4-1,1.8c-5.1,2.9-10.2,5.8-15.3,8.7c0.4-40.5,0.7-81.1,1.1-121.6
			c-0.2,0-0.3-0.1-0.5-0.1c-9.5,18.8-21.6,35.8-36.2,51.1c-0.7-1.1-1.5-2.1-2.1-3.2c-0.2-0.3,0-0.9,0.2-1.2
			c5.9-9.1,11.2-18.5,16-28.3c7.6-15.5,14-31.4,19.1-47.9c3.9-12.3,7.5-24.6,10.9-37c2.1-7.5,3.4-15.3,5.1-22.9
			C94.5,88,94.5,87.7,94.5,87.4z M97.2,163.9c0,31,0,61.9,0,92.8c12.5,0,25,0,37.4,0c0-31,0-61.9,0-92.8
			C122.1,163.9,109.7,163.9,97.2,163.9z"/>
		<path class="st0" d="M97.2,163.9c12.5,0,24.9,0,37.4,0c0,30.9,0,61.8,0,92.8c-12.4,0-24.9,0-37.4,0
			C97.2,225.8,97.2,195,97.2,163.9z"/>
	</g>
</g>
</svg>
