<?xml version="1.0" encoding="utf-8"?>
<!-- Generator: Adobe Illustrator 20.1.0, SVG Export Plug-In . SVG Version: 6.00 Build 0)  -->
<svg version="1.1" id="图层_1" xmlns="http://www.w3.org/2000/svg" xmlns:xlink="http://www.w3.org/1999/xlink" x="0px" y="0px"
	 viewBox="0 0 360 360" style="enable-background:new 0 0 360 360;" xml:space="preserve">
<style type="text/css">
	.st0{fill:#FFFFFF;}
</style>
<g>
	<path class="st0" d="M0.2,360.5c0-120.1,0-240.2,0-360.2c120.1,0,240.2,0,360.2,0c0,120.1,0,240.2,0,360.2
		C240.4,360.5,120.3,360.5,0.2,360.5z M119.5,186.3c-4.2,52.3-28.2,93.4-69.6,124.9c0.8,1.1,1.5,2.3,2.3,3.5
		c40.2-20.8,66.2-53.2,78.8-96.6c0.5,0.3,0.7,0.5,0.9,0.7c6.4,6.2,12.7,12.5,18.4,19.4c11,13.2,19.4,27.9,26.2,43.6
		c0.7,1.6,1.6,3.2,2.7,4.6c1.6,2,3.5,2,5.4,0.3c0.3-0.3,0.6-0.6,0.9-1c3.4-4.7,5.4-9.9,5.7-15.6c0.4-7.2-2.2-13.4-6.9-18.7
		c-4.5-5.1-9.8-9.4-15.2-13.6c-11.4-8.8-23.3-16.9-35.4-24.7c-1-0.7-1.4-1.2-1.2-2.6c0.7-5.1,1.3-10.3,1.8-15.5
		c0.3-2.9,0.3-5.8,0.4-8.9c21.9,0,43.8,0,65.9,0c-6.8-8-13.4-15.7-20-23.5c-0.4,0.4-0.7,0.7-1,1c-4.9,4.9-9.8,9.8-14.7,14.7
		c-0.6,0.6-1.2,0.9-2.1,0.9c-8.5,0-17,0-25.6,0c-1.2,0-1.5-0.3-1.5-1.5c0-21,0-42,0-63c0-0.4,0-0.9,0-1.5c18.1,0,36,0,54.3,0
		c-6.8-7.6-13.5-15-20.1-22.5c-0.3,0.3-0.6,0.5-0.8,0.7c-4.8,4.5-9.7,9-14.5,13.5c-0.9,0.8-1.8,1.1-3,1.1c-17.3,0-34.6,0-52,0
		c-0.5,0-0.9,0-1.5,0c0.1-0.4,0.2-0.7,0.3-1c5.2-13.9,10.5-27.7,15.7-41.5c0.2-0.6,0.7-1.1,1.3-1.4c2.5-1.3,5.1-2.6,7.6-3.8
		c0.3-0.1,0.5-0.3,0.8-0.5c-8.3-4.3-16.4-8.6-24.4-12.8c-7.4,41.6-20,81.2-41.5,117.8c1.1,0.8,2.3,1.5,3.6,2.4
		c2.7-3.3,5.5-6.4,8.1-9.7c10-12.7,18.1-26.7,25.4-41.1c0.4-0.8,0.8-1.1,1.7-1.1c7,0,14.1,0,21.1,0c0.4,0,0.8,0,1.1,0
		c0,22.1,0,43.9,0,66c-23.1,0-46.1,0-69.4,0c3.5,3.5,6.9,6.9,10.2,10.2c0.2,0.2,0.9,0.3,1.3,0.2c7.8-2.1,15.7-3.1,23.7-3.2
		c11.2-0.2,22.4-0.1,33.6-0.1C118.8,186.2,119,186.3,119.5,186.3z"/>
	<path d="M119.5,186.3c-0.5,0-0.7-0.1-0.8-0.1c-11.2,0-22.4-0.1-33.6,0.1c-8,0.1-15.9,1.2-23.7,3.2c-0.4,0.1-1,0.1-1.3-0.2
		c-3.4-3.3-6.7-6.6-10.2-10.2c23.3,0,46.3,0,69.4,0c0-22,0-43.9,0-66c-0.4,0-0.8,0-1.1,0c-7,0-14.1,0-21.1,0c-0.9,0-1.3,0.3-1.7,1.1
		c-7.3,14.4-15.4,28.4-25.4,41.1c-2.6,3.3-5.4,6.4-8.1,9.7c-1.3-0.9-2.5-1.6-3.6-2.4C79.7,126.2,92.3,86.6,99.7,45
		c8,4.2,16.1,8.4,24.4,12.8c-0.3,0.2-0.6,0.4-0.8,0.5c-2.5,1.3-5.1,2.5-7.6,3.8c-0.5,0.3-1,0.9-1.3,1.4
		c-5.3,13.8-10.5,27.7-15.7,41.5c-0.1,0.3-0.2,0.6-0.3,1c0.6,0,1.1,0,1.5,0c17.3,0,34.6,0,52,0c1.2,0,2.1-0.3,3-1.1
		c4.8-4.5,9.6-9,14.5-13.5c0.2-0.2,0.5-0.4,0.8-0.7c6.6,7.4,13.3,14.8,20.1,22.5c-18.3,0-36.2,0-54.3,0c0,0.6,0,1,0,1.5
		c0,21,0,42,0,63c0,1.2,0.3,1.5,1.5,1.5c8.5-0.1,17,0,25.6,0c0.9,0,1.5-0.3,2.1-0.9c4.9-4.9,9.8-9.8,14.7-14.7c0.3-0.3,0.6-0.6,1-1
		c6.6,7.8,13.2,15.6,20,23.5c-22.1,0-43.9,0-65.9,0c-0.1,3.1-0.2,6-0.4,8.9c-0.5,5.2-1.1,10.3-1.8,15.5c-0.2,1.3,0.2,1.9,1.2,2.6
		c12.1,7.8,24,15.9,35.4,24.7c5.4,4.2,10.6,8.5,15.2,13.6c4.7,5.3,7.3,11.5,6.9,18.7c-0.3,5.8-2.4,11-5.7,15.6
		c-0.3,0.4-0.6,0.7-0.9,1c-1.9,1.8-3.8,1.7-5.4-0.3c-1.1-1.4-2-3-2.7-4.6c-6.8-15.7-15.2-30.4-26.2-43.6c-5.7-6.8-12-13.2-18.4-19.4
		c-0.2-0.2-0.5-0.4-0.9-0.7c-12.6,43.4-38.6,75.7-78.8,96.6c-0.8-1.2-1.6-2.4-2.3-3.5C91.3,279.7,115.3,238.6,119.5,186.3z"/>
</g>
</svg>
