<?xml version="1.0" encoding="utf-8"?>
<!-- Generator: Adobe Illustrator 20.1.0, SVG Export Plug-In . SVG Version: 6.00 Build 0)  -->
<svg version="1.1" id="图层_1" xmlns="http://www.w3.org/2000/svg" xmlns:xlink="http://www.w3.org/1999/xlink" x="0px" y="0px"
	 viewBox="0 0 360 360" style="enable-background:new 0 0 360 360;" xml:space="preserve">
<style type="text/css">
	.st0{fill:#FFFFFF;}
</style>
<g>
	<path class="st0" d="M0.2,360.5c0-120.1,0-240.2,0-360.2c120.1,0,240.2,0,360.2,0c0,120.1,0,240.2,0,360.2
		C240.4,360.5,120.3,360.5,0.2,360.5z M55.8,318.2c0.9-0.2,1.7-0.3,2.4-0.4c24.4-4.3,47.3-12.5,68.8-24.8c18.6-10.6,33.3-25,44-43.5
		c4.7-8.2,8.6-16.7,11.6-25.6c0.3-0.9,0.7-1.2,1.7-1.2c2.3,0.1,4.6,0.1,7,0c0.9,0,1.2,0.3,1.5,1.1c2,4.9,3.9,9.9,6.3,14.6
		c10,20.3,24.5,36.6,43,49.6c14.5,10.2,30.4,17.7,47.1,23.5c1.9,0.7,3.8,1.3,5.8,2c3.5-11.1,11.5-16.2,22.3-17.7c0-1.6,0-3.1,0-4.7
		c-0.4-0.1-0.7-0.1-1.1-0.2c-4.4-0.6-8.9-1-13.3-1.7c-16.5-2.6-32.3-7.3-47.5-14.1c-24.1-10.9-42.9-27.6-56.1-50.6
		c-0.3-0.5-0.5-1-0.9-1.7c37,0,73.7,0,110.7,0c-7.6-8-15-15.7-22.4-23.5c-0.5,0.4-0.9,0.8-1.3,1.1c-5.6,4.9-11.2,9.8-16.8,14.7
		c-0.5,0.4-1.3,0.7-1.9,0.7c-27,0-54.1,0-81.1,0c-0.4,0-0.8,0-1.1-0.1c2.4-15.3,4.7-30.5,7.1-45.9c25.2,0,50.6,0,76.3,0
		c-7.2-7.6-14.2-15-21.2-22.4c-0.3,0.3-0.6,0.4-0.8,0.6c-5.7,4.6-11.4,9.3-17.1,13.9c-0.5,0.4-1.3,0.8-1.9,0.8
		c-34.6,0-69.2,0-103.8,0c-0.3,0-0.7,0-1.1-0.1c4.6-7.6,10.3-13.8,17.6-18.8c-7.9-4-15.7-7.9-23.6-11.8
		c-7.1,27.8-19.6,52.9-35.3,76.6c0.3,0.2,0.4,0.4,0.6,0.5c1,0.6,1.9,1.3,2.9,1.9c1.1-1,2.1-2,3.1-2.9c11.7-11.5,22.2-24,31.6-37.4
		c0.5-0.7,1-1,1.9-1c17.2,0,34.4,0,51.6,0c0.4,0,0.8,0,1.4,0c-0.4,4.7-0.6,9.2-1.2,13.6c-1.4,10.2-2.9,20.4-4.5,30.6
		c-0.3,2.2-0.1,1.7-2,1.7c-37.3,0-74.6,0-112,0c-0.5,0-1,0-1.8,0c0.4,0.5,0.7,0.7,0.9,1c3,3,6,5.9,8.9,8.9c0.6,0.6,1.1,0.7,1.9,0.5
		c8.4-2.3,17-3.3,25.6-3.3c25.2-0.1,50.3,0,75.5,0c0.4,0,0.8,0,1.5,0c-0.8,1.9-1.4,3.6-2.1,5.3c-6.5,15.7-15.4,29.9-27.4,42
		c-6.9,7-14.8,12.9-23,18.1c-17.1,10.9-35.4,19-54.7,25c-1.5,0.5-3,0.9-4.6,1.4C55,315.9,55.4,317,55.8,318.2z"/>
	<path d="M55.8,318.2c-0.4-1.2-0.8-2.3-1.2-3.6c1.6-0.5,3.1-1,4.6-1.4c19.3-6,37.7-14.1,54.7-25c8.3-5.3,16.1-11.2,23-18.1
		c12-12.1,20.9-26.3,27.4-42c0.7-1.7,1.3-3.4,2.1-5.3c-0.6,0-1.1,0-1.5,0c-25.2,0-50.3,0-75.5,0c-8.7,0-17.2,1-25.6,3.3
		c-0.8,0.2-1.3,0.1-1.9-0.5c-2.9-3-5.9-6-8.9-8.9c-0.2-0.2-0.5-0.5-0.9-1c0.7,0,1.2,0,1.8,0c37.3,0,74.6,0,112,0
		c1.9,0,1.7,0.4,2-1.7c1.5-10.2,3.1-20.4,4.5-30.6c0.6-4.4,0.8-8.9,1.2-13.6c-0.6,0-1,0-1.4,0c-17.2,0-34.4,0-51.6,0
		c-0.9,0-1.4,0.3-1.9,1c-9.4,13.4-19.9,26-31.6,37.4c-1,1-2,1.9-3.1,2.9c-1-0.7-2-1.3-2.9-1.9c-0.2-0.1-0.4-0.3-0.6-0.5
		c15.7-23.7,28.3-48.8,35.3-76.6c7.9,4,15.7,7.8,23.6,11.8c-7.3,4.9-13.1,11.2-17.6,18.8c0.5,0,0.8,0.1,1.1,0.1
		c34.6,0,69.2,0,103.8,0c0.6,0,1.4-0.4,1.9-0.8c5.7-4.6,11.4-9.3,17.1-13.9c0.2-0.2,0.5-0.4,0.8-0.6c7,7.4,14,14.8,21.2,22.4
		c-25.7,0-51.1,0-76.3,0c-2.4,15.4-4.7,30.5-7.1,45.9c0.3,0,0.7,0.1,1.1,0.1c27,0,54.1,0,81.1,0c0.6,0,1.4-0.3,1.9-0.7
		c5.6-4.9,11.2-9.8,16.8-14.7c0.4-0.3,0.8-0.7,1.3-1.1c7.4,7.8,14.8,15.6,22.4,23.5c-37,0-73.7,0-110.7,0c0.4,0.7,0.6,1.2,0.9,1.7
		c13.2,23,31.9,39.7,56.1,50.6c15.2,6.9,31,11.6,47.5,14.1c4.4,0.7,8.9,1.1,13.3,1.7c0.4,0,0.7,0.1,1.1,0.2c0,1.6,0,3.1,0,4.7
		c-10.8,1.5-18.8,6.6-22.3,17.7c-2-0.7-3.9-1.3-5.8-2c-16.7-5.9-32.6-13.4-47.1-23.5c-18.5-12.9-33-29.3-43-49.6
		c-2.3-4.8-4.2-9.7-6.3-14.6c-0.3-0.8-0.7-1.1-1.5-1.1c-2.3,0.1-4.6,0.1-7,0c-1,0-1.4,0.3-1.7,1.2c-3.1,8.9-6.9,17.4-11.6,25.6
		c-10.7,18.5-25.4,32.9-44,43.5c-21.5,12.3-44.5,20.5-68.8,24.8C57.4,317.9,56.7,318.1,55.8,318.2z"/>
</g>
</svg>
