<?xml version="1.0" encoding="utf-8"?>
<!-- Generator: Adobe Illustrator 20.1.0, SVG Export Plug-In . SVG Version: 6.00 Build 0)  -->
<svg version="1.1" id="图层_1" xmlns="http://www.w3.org/2000/svg" xmlns:xlink="http://www.w3.org/1999/xlink" x="0px" y="0px"
	 viewBox="0 0 360 360" style="enable-background:new 0 0 360 360;" xml:space="preserve">
<style type="text/css">
	.st0{fill:#FFFFFF;}
</style>
<g>
	<path class="st0" d="M0.2,360.5c0-120.1,0-240.2,0-360.2c120.1,0,240.2,0,360.2,0c0,120.1,0,240.2,0,360.2
		C240.4,360.5,120.3,360.5,0.2,360.5z M130.6,292.3c0.4,0.1,0.7,0.2,1.1,0.3c6.4,2,12.6,4.4,18.3,7.9c6.4,3.9,11.7,8.9,15,15.7
		c0.3,0.6,0.6,1.3,0.9,2c5.8-2.1,11.3-4.4,16.3-7.8c3.9-2.7,6.5-6.3,7.9-10.8c1.1-3.6,1.6-7.3,1.6-11.1c0-20.6,0-41.2,0-61.8
		c0-0.5,0-1,0-1.6c42.5,0,84.7,0,127.2,0c-7.2-7.6-14.2-15-21.2-22.4c-0.4,0.4-0.7,0.6-1,0.9c-4.4,4.4-8.8,8.7-13.1,13.2
		c-0.9,0.9-1.7,1.2-2.9,1.2c-79,0-158,0-237,0c-0.5,0-1,0-1.7,0c0.2,0.3,0.3,0.5,0.4,0.6c3.2,3.2,6.4,6.4,9.6,9.6
		c0.3,0.3,1.1,0.4,1.6,0.3c8.6-2.2,17.4-3.2,26.3-3.2c31.2,0,62.5,0,93.7,0c0.4,0,0.8,0,1.3,0c0,0.5,0,0.8,0,1.1
		c0,20.1,0,40.2,0,60.2c0,3.5-2.1,5.6-5.6,5.6c-10.1-0.2-20.1-1.9-30.1-3.2c-3-0.4-5.9-0.9-8.9-1.3
		C130.6,289.1,130.6,290.6,130.6,292.3z M88.1,186.2c3.6,3.6,6.9,6.9,10.2,10.2c0.3,0.3,0.9,0.3,1.4,0.2c9-2.3,18.1-3.3,27.3-3.3
		c50.1,0,100.2,0,150.2,0c0.5,0,1,0,1.9,0c-6.9-7.3-13.5-14.2-20.2-21.4c-0.4,0.4-0.6,0.8-0.9,1.1c-4,4-8,8-12,12.1
		c-0.8,0.8-1.5,1.1-2.6,1.1c-51.1,0-102.2,0-153.4,0C89.4,186.2,88.9,186.2,88.1,186.2z M129.4,233.3c-0.2,0.3-0.4,0.5-0.5,0.7
		c-14.2,20.5-31.4,38-51,53.3c-5.5,4.3-11.3,8.3-17,12.5c-0.4,0.3-0.9,0.9-0.8,1.2c0.2,1.4,0.6,2.8,1,4.2c0.3-0.1,0.6-0.2,0.8-0.3
		c4.1-2,8.2-4,12.2-6.2c22.8-12.3,43.7-27.2,63.9-43.3c0.6-0.5,1.4-0.8,2.2-1c2-0.5,4-0.8,6-1.2c1.5-0.3,2.9-0.6,4.6-1
		C143.4,245.8,136.5,239.6,129.4,233.3z M220.1,239.2c-0.3,1.3-0.6,2.4-0.9,3.6c-0.3,0.9-0.1,1.4,0.7,1.9
		c11.8,8.3,22.9,17.4,32.9,27.8c7.7,8,14.9,16.5,21.1,25.8c1,1.6,2.3,3.1,3.7,4.3c2.5,2.2,5,1.9,6.9-0.7c3.2-4.3,4.6-9.1,3.7-14.4
		c-0.9-5.3-3.8-9.6-7.3-13.5c-3.9-4.3-8.6-7.4-13.5-10.5c-12.5-7.9-25.8-14.3-39.2-20.6C225.5,241.6,222.8,240.5,220.1,239.2z"/>
	<path d="M130.6,292.3c0-1.6,0-3.2,0-4.7c3,0.4,6,0.9,8.9,1.3c10,1.4,20,3,30.1,3.2c3.5,0.1,5.6-2.1,5.6-5.6c0-20.1,0-40.2,0-60.2
		c0-0.3,0-0.6,0-1.1c-0.5,0-0.9,0-1.3,0c-31.2,0-62.5,0-93.7,0c-8.9,0-17.7,1-26.3,3.2c-0.5,0.1-1.2,0-1.6-0.3
		c-3.2-3.1-6.4-6.4-9.6-9.6c-0.1-0.1-0.2-0.2-0.4-0.6c0.7,0,1.2,0,1.7,0c79,0,158,0,237,0c1.2,0,2.1-0.4,2.9-1.2
		c4.3-4.4,8.7-8.8,13.1-13.2c0.3-0.3,0.6-0.5,1-0.9c7,7.4,14,14.8,21.2,22.4c-42.5,0-84.8,0-127.2,0c0,0.6,0,1.1,0,1.6
		c0,20.6,0,41.2,0,61.8c0,3.8-0.5,7.5-1.6,11.1c-1.4,4.5-4,8.1-7.9,10.8c-5,3.4-10.6,5.7-16.3,7.8c-0.3-0.7-0.6-1.3-0.9-2
		c-3.3-6.8-8.7-11.8-15-15.7c-5.7-3.5-11.9-5.9-18.3-7.9C131.3,292.5,131,292.4,130.6,292.3z"/>
	<path d="M88.1,186.2c0.9,0,1.4,0,1.9,0c51.1,0,102.2,0,153.4,0c1.1,0,1.8-0.3,2.6-1.1c4-4.1,8-8,12-12.1c0.3-0.3,0.6-0.7,0.9-1.1
		c6.7,7.1,13.3,14.1,20.2,21.4c-0.8,0-1.3,0-1.9,0c-50.1,0-100.2,0-150.2,0c-9.2,0-18.3,1-27.3,3.3c-0.4,0.1-1.1,0-1.4-0.2
		C95,193.1,91.7,189.8,88.1,186.2z"/>
	<path d="M129.4,233.3c7.1,6.3,14.1,12.5,21.2,18.9c-1.7,0.3-3.1,0.7-4.6,1c-2,0.4-4,0.7-6,1.2c-0.8,0.2-1.6,0.5-2.2,1
		c-20.2,16.1-41.1,31.1-63.9,43.3c-4,2.2-8.1,4.1-12.2,6.2c-0.2,0.1-0.4,0.2-0.8,0.3c-0.4-1.4-0.8-2.8-1-4.2
		c-0.1-0.4,0.4-0.9,0.8-1.2c5.7-4.2,11.5-8.2,17-12.5c19.6-15.3,36.8-32.9,51-53.3C129,233.8,129.1,233.6,129.4,233.3z"/>
	<path d="M220.1,239.2c2.7,1.3,5.4,2.4,8,3.7c13.4,6.3,26.7,12.7,39.2,20.6c4.8,3,9.6,6.2,13.5,10.5c3.5,3.9,6.4,8.2,7.3,13.5
		c0.9,5.3-0.4,10.2-3.7,14.4c-2,2.6-4.5,2.9-6.9,0.7c-1.4-1.3-2.7-2.8-3.7-4.3c-6.2-9.3-13.4-17.7-21.1-25.8
		c-10-10.4-21.1-19.5-32.9-27.8c-0.8-0.6-1-1-0.7-1.9C219.5,241.6,219.7,240.5,220.1,239.2z"/>
</g>
</svg>
