<?xml version="1.0" encoding="utf-8"?>
<!-- Generator: Adobe Illustrator 20.1.0, SVG Export Plug-In . SVG Version: 6.00 Build 0)  -->
<svg version="1.1" id="图层_1" xmlns="http://www.w3.org/2000/svg" xmlns:xlink="http://www.w3.org/1999/xlink" x="0px" y="0px"
	 viewBox="0 0 360 360" style="enable-background:new 0 0 360 360;" xml:space="preserve">
<style type="text/css">
	.st0{fill:#FFFFFF;}
</style>
<g>
	<path class="st0" d="M0.2,360.5c0-120.1,0-240.2,0-360.2c120.1,0,240.2,0,360.2,0c0,120.1,0,240.2,0,360.2
		C240.4,360.5,120.3,360.5,0.2,360.5z M230.4,313.4c5.5-2.2,11.1-4.6,16.1-8.2c3.5-2.5,5.7-5.8,7-9.9c1.2-4,1.5-8,1.5-12.1
		c0-49.4,0-98.8,0-148.2c0-0.5,0-1.1,0-1.8c21.6,0,43.1,0,64.8,0c-7.2-7.6-14.2-15-21.3-22.5c-4.8,4.8-9.5,9.5-14.2,14.2
		c-0.8,0.8-1.7,1.2-2.8,1.2c-34.6,0-69.2,0-103.8,0c-0.5,0-1,0-1.8,0c3.5,3.5,6.7,6.6,9.8,9.9c0.6,0.6,1.2,0.7,2,0.5
		c8.2-2.2,16.5-3.1,24.9-3.2c8.5-0.1,17,0,25.6,0c0.4,0,0.8,0,1.4,0c0,0.6,0,1.1,0,1.6c0,47.8,0,95.5,0,143.3c0,0.4,0,0.9,0,1.3
		c-0.3,4.5-3,7-7.5,7c-1.1,0-2.2,0-3.2-0.2c-9.3-1.5-18.6-3.1-27.9-4.7c-2-0.3-4-0.7-6.1-1.1c0,1.3,0.1,2.5,0,3.6
		c-0.1,0.9,0.3,1.2,1.1,1.5c4.7,1.9,9.5,3.7,14.1,6c6.7,3.4,12.6,8,16.6,14.4C228,308.3,229.1,310.9,230.4,313.4z M201.8,160.3
		c-6.3,39.5-18.2,77.2-35.4,113.2c1.3,0.8,2.4,1.6,3.6,2.4c0.2-0.4,0.5-0.7,0.7-1c9-14.4,16.9-29.3,23.9-44.8
		c4.6-10.3,8.9-20.7,13.5-30.9c4.4-9.9,8.9-19.7,16.1-28.2C216.8,167.3,209.4,163.8,201.8,160.3z M269,168.5
		c2.4,4.8,4.7,9.5,7.1,14.2c10.8,21.4,18.4,43.8,23,67.3c0.6,2.9,1.2,5.7,2.7,8.3c1.7,2.9,4,3.4,6.7,1.4c1.9-1.4,3.4-3.3,4.4-5.4
		c1.6-3.1,2.3-6.4,2.8-9.7c0.8-6,0.6-11.8-1.9-17.5c-2.6-6-5.7-11.7-9.2-17.2c-8.3-13.3-17.8-25.7-27.4-38c-1.5-1.9-3-3.8-4.6-5.8
		C271.4,167,270.2,167.7,269,168.5z M303.3,69.6c-6.4-6.8-12.7-13.5-18.9-20.1c-4,4-7.9,7.9-11.8,11.8c-0.8,0.8-1.6,1.2-2.8,1.2
		c-26.8,0-53.5,0-80.3,0c-0.5,0-1,0-1.8,0c0.5,0.5,0.7,0.8,1,1.1c2.9,2.9,5.8,5.8,8.7,8.8c0.6,0.6,1.2,0.8,2,0.5
		c8.3-2.2,16.7-3.2,25.2-3.2c25.6-0.1,51.3,0,76.9,0C302.1,69.6,302.5,69.6,303.3,69.6z"/>
	<path d="M230.4,313.4c-1.3-2.5-2.4-5.1-3.8-7.4c-4.1-6.5-9.9-11.1-16.6-14.4c-4.6-2.3-9.4-4-14.1-6c-0.8-0.3-1.1-0.7-1.1-1.5
		c0.1-1.1,0-2.3,0-3.6c2.2,0.4,4.1,0.8,6.1,1.1c9.3,1.6,18.6,3.1,27.9,4.7c1.1,0.2,2.2,0.2,3.2,0.2c4.5,0,7.1-2.5,7.5-7
		c0-0.4,0-0.9,0-1.3c0-47.8,0-95.5,0-143.3c0-0.5,0-0.9,0-1.6c-0.5,0-0.9,0-1.4,0c-8.5,0-17-0.1-25.6,0c-8.4,0.1-16.7,1.1-24.9,3.2
		c-0.8,0.2-1.4,0.1-2-0.5c-3.2-3.2-6.4-6.4-9.8-9.9c0.8,0,1.3,0,1.8,0c34.6,0,69.2,0,103.8,0c1.2,0,2-0.3,2.8-1.2
		c4.7-4.7,9.4-9.4,14.2-14.2c7.1,7.4,14.1,14.8,21.3,22.5c-21.8,0-43.2,0-64.8,0c0,0.7,0,1.2,0,1.8c0,49.4,0,98.8,0,148.2
		c0,4.1-0.3,8.1-1.5,12.1c-1.2,4.1-3.5,7.4-7,9.9C241.5,308.8,235.9,311.2,230.4,313.4z"/>
	<path d="M201.8,160.3c7.5,3.6,14.9,7.1,22.4,10.6c-7.1,8.5-11.6,18.3-16.1,28.2c-4.6,10.3-8.9,20.7-13.5,30.9
		c-7,15.4-14.9,30.4-23.9,44.8c-0.2,0.3-0.4,0.7-0.7,1c-1.2-0.8-2.3-1.5-3.6-2.4C183.7,237.4,195.5,199.8,201.8,160.3z"/>
	<path d="M269,168.5c1.2-0.8,2.3-1.5,3.6-2.4c1.6,2,3.1,3.8,4.6,5.8c9.7,12.3,19.1,24.7,27.4,38c3.5,5.5,6.6,11.2,9.2,17.2
		c2.5,5.7,2.7,11.5,1.9,17.5c-0.5,3.4-1.2,6.7-2.8,9.7c-1.1,2.1-2.5,4-4.4,5.4c-2.7,2-5,1.5-6.7-1.4c-1.5-2.6-2.2-5.4-2.7-8.3
		c-4.6-23.5-12.2-46-23-67.3C273.7,178,271.4,173.3,269,168.5z"/>
	<path d="M303.3,69.6c-0.8,0-1.2,0-1.7,0c-25.6,0-51.3,0-76.9,0c-8.5,0-17,1-25.2,3.2c-0.8,0.2-1.4,0.1-2-0.5
		c-2.9-3-5.8-5.8-8.7-8.8c-0.3-0.3-0.5-0.6-1-1.1c0.8,0,1.3,0,1.8,0c26.8,0,53.5,0,80.3,0c1.2,0,2-0.4,2.8-1.2
		c3.9-3.9,7.8-7.8,11.8-11.8C290.6,56.2,296.8,62.8,303.3,69.6z"/>
</g>
</svg>
