<?xml version="1.0" encoding="utf-8"?>
<!-- Generator: Adobe Illustrator 20.1.0, SVG Export Plug-In . SVG Version: 6.00 Build 0)  -->
<svg version="1.1" id="图层_1" xmlns="http://www.w3.org/2000/svg" xmlns:xlink="http://www.w3.org/1999/xlink" x="0px" y="0px"
	 viewBox="0 0 360 360" style="enable-background:new 0 0 360 360;" xml:space="preserve">
<style type="text/css">
	.st0{fill:#FFFFFF;}
</style>
<g>
	<path class="st0" d="M0.2,360.5c0-120.1,0-240.2,0-360.2c120.1,0,240.2,0,360.2,0c0,120.1,0,240.2,0,360.2
		C240.4,360.5,120.3,360.5,0.2,360.5z M281.9,47.1c-0.2,0.3-0.4,0.6-0.6,0.8c-2.7,3-5.4,6-8,9.1c-0.5,0.6-1,0.8-1.8,0.8
		c-59,0-117.9,0-176.9,0c-0.6,0-1.4-0.2-1.9-0.5c-5.2-2.7-10.4-5.5-15.5-8.3c-0.4-0.2-0.8-0.4-1.3-0.6c2,35.7,1,71.2,0,106.7
		c0,0.1,0,0.2,0.1,0.4c0.1,0,0.3,0,0.4,0c5.6-2.2,11.1-4.4,16.7-6.7c0.3-0.1,0.6-0.8,0.6-1.2c0-4.3,0-8.6,0-13c0-0.4,0-0.8,0.1-1.3
		c60.4,0,120.8,0,181.2,0c0,5.1,0,10.1,0,15.2c0.5-0.1,0.9-0.2,1.3-0.4c4.6-1.5,9.2-3.1,13.8-4.6c2.7-0.9,2.7-0.9,2.5-3.6
		c0,0,0-0.1,0-0.1c-0.3-9.9-0.8-19.8-0.9-29.7c-0.2-13.1,0-26.2-0.1-39.4c0-0.8,0.2-1.3,0.8-1.8c2.7-2.3,5.3-4.6,8-6.9
		c0.2-0.2,0.4-0.4,0.7-0.7C294.5,56.6,288.3,51.9,281.9,47.1z"/>
	<path d="M281.9,47.1c6.4,4.8,12.6,9.4,18.9,14.2c-0.3,0.3-0.4,0.5-0.7,0.7c-2.6,2.3-5.3,4.7-8,6.9c-0.6,0.5-0.8,1.1-0.8,1.8
		c0,13.1-0.1,26.2,0.1,39.4c0.1,9.9,0.6,19.8,0.9,29.7c0,0,0,0.1,0,0.1c0.2,2.7,0.2,2.7-2.5,3.6c-4.6,1.5-9.2,3.1-13.8,4.6
		c-0.4,0.1-0.8,0.2-1.3,0.4c0-5.1,0-10.1,0-15.2c-60.4,0-120.8,0-181.2,0c0,0.5-0.1,0.9-0.1,1.3c0,4.3,0,8.6,0,13
		c0,0.4-0.3,1.1-0.6,1.2c-5.5,2.3-11.1,4.5-16.7,6.7c-0.1,0-0.2,0-0.4,0c0-0.1-0.1-0.2-0.1-0.4c1-35.5,2-71,0-106.7
		c0.6,0.3,0.9,0.4,1.3,0.6c5.2,2.8,10.3,5.5,15.5,8.3c0.6,0.3,1.3,0.5,1.9,0.5c59,0,117.9,0,176.9,0c0.8,0,1.3-0.2,1.8-0.8
		c2.6-3,5.3-6,8-9.1C281.5,47.7,281.7,47.4,281.9,47.1z M158.5,65c0,20.4,0,40.7,0,61c17.2,0,34.4,0,51.5,0c0-20.4,0-40.7,0-61
		C192.8,65,175.7,65,158.5,65z M142.9,65c-16.5,0-32.8,0-49.2,0c0,20.4,0,40.7,0,61c16.4,0,32.8,0,49.2,0
		C142.9,105.7,142.9,85.4,142.9,65z M274.7,126.1c0-20.4,0-40.8,0-61.1c-16.4,0-32.8,0-49.1,0c0,20.4,0,40.7,0,61.1
		C242,126.1,258.3,126.1,274.7,126.1z"/>
	<path class="st0" d="M158.5,65c17.2,0,34.3,0,51.5,0c0,20.3,0,40.6,0,61c-17.1,0-34.3,0-51.5,0C158.5,105.7,158.5,85.4,158.5,65z"
		/>
	<path class="st0" d="M142.9,65c0,20.4,0,40.7,0,61c-16.4,0-32.8,0-49.2,0c0-20.3,0-40.6,0-61C110,65,126.4,65,142.9,65z"/>
	<path class="st0" d="M274.7,126.1c-16.4,0-32.7,0-49.1,0c0-20.4,0-40.7,0-61.1c16.4,0,32.7,0,49.1,0
		C274.7,85.3,274.7,105.6,274.7,126.1z"/>
</g>
</svg>
