<?xml version="1.0" encoding="utf-8"?>
<!-- Generator: Adobe Illustrator 20.1.0, SVG Export Plug-In . SVG Version: 6.00 Build 0)  -->
<svg version="1.1" id="图层_1" xmlns="http://www.w3.org/2000/svg" xmlns:xlink="http://www.w3.org/1999/xlink" x="0px" y="0px"
	 viewBox="0 0 360 360" style="enable-background:new 0 0 360 360;" xml:space="preserve">
<style type="text/css">
	.st0{fill:#FFFFFF;}
</style>
<g>
	<path class="st0" d="M0.2,360.5c0-120.1,0-240.2,0-360.2c120.1,0,240.2,0,360.2,0c0,120.1,0,240.2,0,360.2
		C240.4,360.5,120.3,360.5,0.2,360.5z M283,60.3c-5.1-5.1-10.2-10.2-15.3-15.3c-0.2,0.2-0.5,0.5-0.8,0.7c-3,3-6,6-9,9
		c-0.4,0.4-1.1,0.7-1.7,0.7c-47.6,0-95.3,0-142.9,0c-0.6,0-1.2-0.2-1.7-0.4c-3.2-1.7-6.4-3.4-9.6-5.1c-2.4-1.3-4.8-2.5-7.3-3.9
		c1.4,35.8,1.7,71.5,0,107.2c0.5-0.1,0.8-0.2,1.1-0.3c4.1-1.2,8.3-2.4,12.4-3.5c3-0.8,3-0.8,3-4c0-1.7,0-3.3,0-5
		c48.8,0,97.4,0,146.1,0c0,3.5,0,6.9,0,10.4c0.5-0.1,0.9-0.2,1.2-0.4c4.7-1.7,9.5-3.4,14.2-5c0.9-0.3,1.1-0.8,1-1.6
		c-0.3-9.4-0.6-18.8-0.8-28.2c-0.1-4.8-0.1-9.5-0.2-14.3c-0.1-11.1-0.1-22.2-0.1-33.2c0-0.4,0.3-1,0.7-1.3c1.3-1,2.7-1.8,4.1-2.8
		C279.3,62.8,281.3,61.5,283,60.3z"/>
	<path d="M283,60.3c-1.8,1.2-3.7,2.5-5.6,3.8c-1.4,0.9-2.8,1.8-4.1,2.8c-0.4,0.3-0.7,0.9-0.7,1.3c0,11.1,0.1,22.2,0.1,33.2
		c0,4.8,0.1,9.5,0.2,14.3c0.2,9.4,0.5,18.8,0.8,28.2c0,0.9-0.1,1.3-1,1.6c-4.8,1.6-9.5,3.4-14.2,5c-0.4,0.1-0.7,0.2-1.2,0.4
		c0-3.5,0-6.9,0-10.4c-48.7,0-97.3,0-146.1,0c0,1.6,0,3.3,0,5c0,3.1,0,3.1-3,4c-4.1,1.2-8.3,2.4-12.4,3.5c-0.3,0.1-0.6,0.1-1.1,0.3
		c1.7-35.8,1.4-71.4,0-107.2c2.5,1.3,4.9,2.6,7.3,3.9c3.2,1.7,6.4,3.4,9.6,5.1c0.5,0.3,1.1,0.4,1.7,0.4c47.6,0,95.3,0,142.9,0
		c0.6,0,1.3-0.3,1.7-0.7c3-3,6-6,9-9c0.3-0.3,0.6-0.5,0.8-0.7C272.8,50.1,277.9,55.2,283,60.3z M257.2,133.1c0-11,0-21.9,0-32.8
		c-22.4,0-44.7,0-67,0c0,11,0,21.8,0,32.8C212.5,133.1,234.8,133.1,257.2,133.1z M111.2,133.1c21.2,0,42.3,0,63.4,0
		c0-11,0-21.9,0-32.7c-21.2,0-42.3,0-63.4,0C111.2,111.3,111.2,122.2,111.2,133.1z M257.2,93.1c0-10.2,0-20.3,0-30.4
		c-22.4,0-44.7,0-67,0c0,10.2,0,20.2,0,30.4C212.5,93.1,234.8,93.1,257.2,93.1z M111.2,93c21.2,0,42.3,0,63.4,0
		c0-10.2,0-20.3,0-30.3c-21.2,0-42.3,0-63.4,0C111.2,72.9,111.2,82.9,111.2,93z"/>
	<path class="st0" d="M257.2,133.1c-22.4,0-44.6,0-67,0c0-10.9,0-21.8,0-32.8c22.3,0,44.6,0,67,0
		C257.2,111.3,257.2,122.2,257.2,133.1z"/>
	<path class="st0" d="M111.2,133.1c0-10.9,0-21.8,0-32.7c21.1,0,42.2,0,63.4,0c0,10.9,0,21.8,0,32.7
		C153.5,133.1,132.4,133.1,111.2,133.1z"/>
	<path class="st0" d="M257.2,93.1c-22.4,0-44.6,0-67,0c0-10.1,0-20.2,0-30.4c22.3,0,44.6,0,67,0C257.2,72.8,257.2,82.9,257.2,93.1z"
		/>
	<path class="st0" d="M111.2,93c0-10.1,0-20.2,0-30.3c21.1,0,42.2,0,63.4,0c0,10.1,0,20.1,0,30.3C153.5,93,132.4,93,111.2,93z"/>
</g>
</svg>
