<?xml version="1.0" encoding="utf-8"?>
<!-- Generator: Adobe Illustrator 20.1.0, SVG Export Plug-In . SVG Version: 6.00 Build 0)  -->
<svg version="1.1" id="图层_1" xmlns="http://www.w3.org/2000/svg" xmlns:xlink="http://www.w3.org/1999/xlink" x="0px" y="0px"
	 viewBox="0 0 360 360" style="enable-background:new 0 0 360 360;" xml:space="preserve">
<style type="text/css">
	.st0{fill:#FFFFFF;}
</style>
<g>
	<path class="st0" d="M0.2,360.5c0-120.1,0-240.2,0-360.2c120.1,0,240.2,0,360.2,0c0,120.1,0,240.2,0,360.2
		C240.4,360.5,120.3,360.5,0.2,360.5z M117.1,294.8c46,0,91.9,0,137.8,0c0,5.5,0,10.8,0,16.4c5.4-2.3,10.7-4.6,16-6.9
		c0.3-0.1,0.4-0.7,0.4-1c-0.3-7-0.9-14-1-20.9c-0.1-21.9-0.1-43.8-0.1-65.7c0-0.5,0.3-1,0.7-1.4c1.3-1.3,2.7-2.4,4.1-3.7
		c1.5-1.3,3-2.7,4.6-4.1c-6-4.8-11.8-9.5-17.7-14.2c-2.6,3.7-5.1,7.2-7.5,10.8c-0.5,0.7-1,1-1.9,1c-44.8,0-89.7,0-134.5,0
		c-0.7,0-1.4-0.2-2-0.6c-4.8-2.7-9.5-5.4-14.3-8.1c-0.4-0.2-0.7-0.4-1.3-0.7c1.6,39.8,1.6,79.4,0,119c0.6-0.2,1-0.4,1.4-0.5
		c4.7-2,9.3-4,14-6c1-0.4,1.3-0.9,1.2-1.9C117,302.4,117.1,298.6,117.1,294.8z"/>
	<path d="M117.1,294.8c0,3.9,0,7.7,0,11.4c0,1-0.3,1.5-1.2,1.9c-4.7,1.9-9.3,4-14,6c-0.4,0.2-0.8,0.3-1.4,0.5
		c1.6-39.7,1.6-79.2,0-119c0.6,0.3,1,0.5,1.3,0.7c4.8,2.7,9.5,5.4,14.3,8.1c0.6,0.3,1.3,0.6,2,0.6c44.8,0,89.7,0,134.5,0
		c0.9,0,1.4-0.3,1.9-1c2.5-3.6,5-7.1,7.5-10.8c5.9,4.7,11.8,9.4,17.7,14.2c-1.6,1.4-3.1,2.7-4.6,4.1c-1.4,1.2-2.8,2.4-4.1,3.7
		c-0.4,0.3-0.7,0.9-0.7,1.4c0,21.9-0.1,43.8,0.1,65.7c0,7,0.7,14,1,20.9c0,0.3-0.2,0.9-0.4,1c-5.3,2.3-10.5,4.6-16,6.9
		c0-5.5,0-10.9,0-16.4C209,294.8,163.1,294.8,117.1,294.8z M254.8,212.2c-20.8,0-41.6,0-62.3,0c0,11.4,0,22.7,0,33.9
		c20.8,0,41.5,0,62.3,0C254.8,234.8,254.8,223.6,254.8,212.2z M254.8,253.5c-20.8,0-41.6,0-62.3,0c0,11.4,0,22.7,0,33.9
		c20.8,0,41.5,0,62.3,0C254.8,276.1,254.8,264.8,254.8,253.5z M117.1,246.2c20.1,0,40,0,59.9,0c0-11.4,0-22.7,0-33.9
		c-20,0-40,0-59.9,0C117.1,223.6,117.1,234.9,117.1,246.2z M117.1,287.4c20.1,0,40,0,59.9,0c0-11.4,0-22.7,0-34c-20,0-39.9,0-59.9,0
		C117.1,264.8,117.1,276.1,117.1,287.4z"/>
	<path class="st0" d="M254.8,212.2c0,11.3,0,22.6,0,33.9c-20.7,0-41.5,0-62.3,0c0-11.3,0-22.6,0-33.9
		C213.3,212.2,234,212.2,254.8,212.2z"/>
	<path class="st0" d="M254.8,253.5c0,11.3,0,22.6,0,33.9c-20.7,0-41.5,0-62.3,0c0-11.3,0-22.6,0-33.9
		C213.3,253.5,234,253.5,254.8,253.5z"/>
	<path class="st0" d="M117.1,246.2c0-11.3,0-22.6,0-33.9c20,0,39.9,0,59.9,0c0,11.3,0,22.6,0,33.9
		C157.1,246.2,137.2,246.2,117.1,246.2z"/>
	<path class="st0" d="M117.1,287.4c0-11.3,0-22.6,0-34c20,0,39.9,0,59.9,0c0,11.3,0,22.6,0,34C157.1,287.4,137.2,287.4,117.1,287.4z
		"/>
</g>
</svg>
