<?xml version="1.0" encoding="utf-8"?>
<!-- Generator: Adobe Illustrator 20.1.0, SVG Export Plug-In . SVG Version: 6.00 Build 0)  -->
<svg version="1.1" id="图层_1" xmlns="http://www.w3.org/2000/svg" xmlns:xlink="http://www.w3.org/1999/xlink" x="0px" y="0px"
	 viewBox="0 0 360 360" style="enable-background:new 0 0 360 360;" xml:space="preserve">
<style type="text/css">
	.st0{fill:#FFFFFF;}
</style>
<g>
	<path class="st0" d="M0.2,360.5c0-120.1,0-240.2,0-360.2c120.1,0,240.2,0,360.2,0c0,120.1,0,240.2,0,360.2
		C240.4,360.5,120.3,360.5,0.2,360.5z M115.9,259.4c35.4,0,70.6,0,106,0c0,5.1,0,10.1,0,15.2c5.1-2.6,10.1-5.1,15.1-7.5
		c1.1-0.5,1.4-1.2,1.4-2.4c-0.3-10.4-0.5-20.9-0.7-31.3c-0.1-7.6-0.2-15.1-0.2-22.7c-0.1-20.4-0.1-40.9-0.1-61.3
		c0-0.5,0.4-1.2,0.8-1.6c2.4-2,5-3.9,7.5-5.8c0.8-0.6,1.5-1.2,2.1-1.7c-5.1-5.1-10.2-10.2-15.4-15.4c-3.1,3.1-6.3,6.3-9.5,9.6
		c-0.6,0.6-1.2,0.9-2.1,0.9c-33.8,0-67.5,0-101.3,0c-0.7,0-1.4-0.2-2-0.5c-5.6-2.8-11.2-5.6-16.7-8.3c-0.4-0.2-0.8-0.3-1.3-0.6
		c1.5,54.3,1.7,108.4,0,162.6c5.5-2.3,10.8-4.6,16-6.9c0.3-0.1,0.5-0.7,0.5-1.1c0-3.5,0-7,0-10.6
		C115.9,266.6,115.9,263.1,115.9,259.4z"/>
	<path d="M115.9,259.4c0,3.6,0,7.2,0,10.8c0,3.5,0,7,0,10.6c0,0.4-0.2,1-0.5,1.1c-5.3,2.3-10.5,4.6-16,6.9
		c1.7-54.2,1.5-108.3,0-162.6c0.5,0.2,0.9,0.4,1.3,0.6c5.6,2.8,11.1,5.6,16.7,8.3c0.6,0.3,1.4,0.5,2,0.5c33.8,0,67.5,0,101.3,0
		c0.9,0,1.5-0.3,2.1-0.9c3.2-3.3,6.4-6.5,9.5-9.6c5.1,5.1,10.2,10.2,15.4,15.4c-0.6,0.4-1.3,1.1-2.1,1.7c-2.5,1.9-5,3.9-7.5,5.8
		c-0.4,0.3-0.8,1-0.8,1.6c0,20.4,0.1,40.9,0.1,61.3c0,7.6,0.1,15.1,0.2,22.7c0.2,10.4,0.4,20.9,0.7,31.3c0,1.2-0.3,1.8-1.4,2.4
		c-5,2.4-9.9,4.9-15.1,7.5c0-5.1,0-10.1,0-15.2C186.6,259.4,151.3,259.4,115.9,259.4z M221.8,252.1c0-17.3,0-34.5,0-51.6
		c-15.3,0-30.5,0-45.7,0c0,17.3,0,34.4,0,51.6C191.3,252.1,206.5,252.1,221.8,252.1z M160.6,200.5c-14.9,0-29.8,0-44.6,0
		c0,17.3,0,34.4,0,51.6c14.9,0,29.7,0,44.6,0C160.6,234.9,160.6,217.7,160.6,200.5z M176,142.8c0,16.8,0,33.6,0,50.4
		c15.3,0,30.5,0,45.7,0c0-16.9,0-33.6,0-50.4C206.5,142.8,191.3,142.8,176,142.8z M160.5,142.8c-14.9,0-29.7,0-44.6,0
		c0,16.8,0,33.6,0,50.4c14.9,0,29.7,0,44.6,0C160.5,176.4,160.5,159.6,160.5,142.8z"/>
	<path class="st0" d="M221.8,252.1c-15.3,0-30.4,0-45.7,0c0-17.2,0-34.4,0-51.6c15.2,0,30.4,0,45.7,0
		C221.8,217.7,221.8,234.9,221.8,252.1z"/>
	<path class="st0" d="M160.6,200.5c0,17.2,0,34.4,0,51.6c-14.8,0-29.7,0-44.6,0c0-17.2,0-34.3,0-51.6
		C130.8,200.5,145.6,200.5,160.6,200.5z"/>
	<path class="st0" d="M176,142.8c15.2,0,30.4,0,45.7,0c0,16.8,0,33.5,0,50.4c-15.2,0-30.4,0-45.7,0C176,176.4,176,159.6,176,142.8z"
		/>
	<path class="st0" d="M160.5,142.8c0,16.8,0,33.6,0,50.4c-14.9,0-29.7,0-44.6,0c0-16.8,0-33.5,0-50.4
		C130.8,142.8,145.6,142.8,160.5,142.8z"/>
</g>
</svg>
