<?xml version="1.0" encoding="utf-8"?>
<!-- Generator: Adobe Illustrator 20.1.0, SVG Export Plug-In . SVG Version: 6.00 Build 0)  -->
<svg version="1.1" id="图层_1" xmlns="http://www.w3.org/2000/svg" xmlns:xlink="http://www.w3.org/1999/xlink" x="0px" y="0px"
	 viewBox="0 0 360 360" style="enable-background:new 0 0 360 360;" xml:space="preserve">
<style type="text/css">
	.st0{fill:#FFFFFF;}
</style>
<g>
	<path class="st0" d="M0.2,360.5c0-120.1,0-240.2,0-360.2c120.1,0,240.2,0,360.2,0c0,120.1,0,240.2,0,360.2
		C240.4,360.5,120.3,360.5,0.2,360.5z M55.8,73.1c1.7,67.6,1.3,135.1,0,202.6c0.4-0.1,0.8-0.3,1.2-0.4c4.7-1.7,9.5-3.4,14.2-5.1
		c0.8-0.3,1.1-0.6,1.1-1.5c0-5.8,0-11.7,0-17.5c0-0.4,0-0.9,0-1.3c22,0,43.9,0,65.9,0c0,6.2,0,12.4,0,18.8c5.6-2,11.1-4,16.5-5.9
		c0-0.5,0-0.8,0-1.2c-0.2-9-0.5-18.1-0.6-27.1c-0.2-12.2-0.2-24.4-0.3-36.6c-0.1-11.4-0.2-22.7-0.2-34.1c0-22.1,0-44.2,0-66.2
		c0-0.5,0.3-1.2,0.7-1.5c1.9-1.8,3.9-3.5,5.9-5.3c1.3-1.2,2.7-2.4,4-3.6c-6.7-5.2-13.4-10.2-20-15.3c-0.2,0.3-0.5,0.6-0.6,0.8
		c-2.3,3.3-4.7,6.6-6.9,9.9c-0.5,0.8-1.1,1.1-2,1.1c-18.4,0-36.7,0-55.1,0c-2.4,0-4.9,0.5-7.2-0.2c-2.2-0.6-4-2.4-6-3.7
		C62.9,77.7,59.4,75.4,55.8,73.1z"/>
	<path d="M55.8,73.1c3.6,2.3,7,4.5,10.5,6.7c2,1.3,3.8,3,6,3.7c2.2,0.6,4.8,0.2,7.2,0.2c18.4,0,36.7,0,55.1,0c0.9,0,1.5-0.3,2-1.1
		c2.3-3.3,4.6-6.6,6.9-9.9c0.2-0.3,0.4-0.5,0.6-0.8c6.7,5.1,13.3,10.2,20,15.3c-1.4,1.2-2.7,2.4-4,3.6c-2,1.8-4,3.5-5.9,5.3
		c-0.4,0.4-0.7,1-0.7,1.5c0,22.1,0,44.2,0,66.2c0,11.4,0.1,22.7,0.2,34.1c0.1,12.2,0.1,24.4,0.3,36.6c0.1,9,0.4,18.1,0.6,27.1
		c0,0.4,0,0.7,0,1.2c-5.5,1.9-10.9,3.9-16.5,5.9c0-6.4,0-12.6,0-18.8c-22,0-43.9,0-65.9,0c0,0.5,0,0.9,0,1.3c0,5.8,0,11.7,0,17.5
		c0,0.9-0.3,1.2-1.1,1.5c-4.8,1.6-9.5,3.4-14.2,5.1c-0.4,0.1-0.7,0.2-1.2,0.4C57.1,208.2,57.5,140.8,55.8,73.1z M98.1,169.8
		c-8.6,0-17.2,0-25.7,0c0,24.3,0,48.6,0,72.9c8.6,0,17.2,0,25.7,0C98.1,218.4,98.1,194.1,98.1,169.8z M138.2,169.8
		c-8.6,0-17.2,0-25.7,0c0,24.3,0,48.6,0,72.9c8.6,0,17.2,0,25.7,0C138.2,218.4,138.2,194.1,138.2,169.8z M98.1,162.6
		c0-23.9,0-47.8,0-71.6c-8.6,0-17.2,0-25.7,0c0,23.9,0,47.8,0,71.6C81,162.6,89.5,162.6,98.1,162.6z M112.4,162.6
		c8.7,0,17.2,0,25.7,0c0-24,0-47.8,0-71.6c-8.6,0-17.2,0-25.7,0C112.4,114.9,112.4,138.7,112.4,162.6z"/>
	<path class="st0" d="M98.1,169.8c0,24.3,0,48.6,0,72.9c-8.6,0-17.1,0-25.7,0c0-24.3,0-48.5,0-72.9
		C80.9,169.8,89.5,169.8,98.1,169.8z"/>
	<path class="st0" d="M138.2,169.8c0,24.3,0,48.6,0,72.9c-8.6,0-17.1,0-25.7,0c0-24.3,0-48.5,0-72.9
		C121,169.8,129.6,169.8,138.2,169.8z"/>
	<path class="st0" d="M98.1,162.6c-8.6,0-17.1,0-25.7,0c0-23.9,0-47.7,0-71.6c8.5,0,17.1,0,25.7,0C98.1,114.8,98.1,138.7,98.1,162.6
		z"/>
	<path class="st0" d="M112.4,162.6c0-23.9,0-47.7,0-71.6c8.6,0,17.1,0,25.7,0c0,23.8,0,47.7,0,71.6
		C129.6,162.6,121.1,162.6,112.4,162.6z"/>
</g>
</svg>
