<?xml version="1.0" encoding="utf-8"?>
<!-- Generator: Adobe Illustrator 20.1.0, SVG Export Plug-In . SVG Version: 6.00 Build 0)  -->
<svg version="1.1" id="图层_1" xmlns="http://www.w3.org/2000/svg" xmlns:xlink="http://www.w3.org/1999/xlink" x="0px" y="0px"
	 viewBox="0 0 360 360" style="enable-background:new 0 0 360 360;" xml:space="preserve">
<style type="text/css">
	.st0{fill:#FFFFFF;}
</style>
<g>
	<path class="st0" d="M0.2,360.5c0-120.1,0-240.2,0-360.2c120.1,0,240.2,0,360.2,0c0,120.1,0,240.2,0,360.2
		C240.4,360.5,120.3,360.5,0.2,360.5z M79.7,93.3c0.3,26.7,0.8,53.4,0.8,80c0,26.6-0.6,53.3-0.9,79.9c0.1,0,0.2,0,0.4-0.1
		c5.5-2.5,10.9-5.1,16.4-7.6c0.7-0.3,0.7-0.8,0.7-1.4c0-4.6,0-9.3,0-13.9c0-0.5,0-0.9,0.1-1.4c53.4,0,106.7,0,160.1,0
		c0,4.7,0,9.2,0,13.8c0.2,0,0.4,0,0.5,0c5.5-2.6,11.1-5.2,16.6-7.8c0.3-0.1,0.6-0.7,0.6-1.1c-0.2-10.4-0.6-20.9-0.7-31.3
		c-0.2-8.4-0.2-16.8-0.2-25.2c-0.1-19.8-0.1-39.7-0.1-59.5c0-0.8,0.3-1.2,0.9-1.7c2.9-2.2,5.8-4.5,8.7-6.8c0.3-0.3,0.6-0.5,0.8-0.7
		c-5.5-5.5-11-11-16.6-16.6c-0.2,0.3-0.4,0.7-0.7,1c-3.2,3.3-6.5,6.5-9.7,9.8c-0.7,0.8-1.5,1-2.5,1c-51,0-102,0-153,0
		c-2.3,0-4.4-0.3-6.3-1.6c-1.5-1-3.1-1.8-4.7-2.7C86.9,97.4,83.3,95.3,79.7,93.3z"/>
	<path d="M79.7,93.3c3.6,2,7.3,4.1,11,6.2c1.6,0.9,3.2,1.6,4.7,2.7c1.9,1.3,4,1.6,6.3,1.6c51,0,102,0,153,0c1,0,1.8-0.3,2.5-1
		c3.2-3.3,6.5-6.5,9.7-9.8c0.3-0.3,0.5-0.7,0.7-1c5.7,5.7,11.1,11.1,16.6,16.6c-0.2,0.1-0.5,0.4-0.8,0.7c-2.9,2.3-5.8,4.5-8.7,6.8
		c-0.6,0.4-0.9,0.9-0.9,1.7c0.1,19.8,0.1,39.7,0.1,59.5c0,8.4,0.1,16.8,0.2,25.2c0.2,10.4,0.5,20.9,0.7,31.3c0,0.4-0.3,1-0.6,1.1
		c-5.5,2.6-11.1,5.2-16.6,7.8c-0.1,0-0.2,0-0.5,0c0-4.6,0-9.2,0-13.8c-53.4,0-106.7,0-160.1,0c0,0.5-0.1,0.9-0.1,1.4
		c0,4.6,0,9.3,0,13.9c0,0.6,0,1.1-0.7,1.4c-5.5,2.5-10.9,5.1-16.4,7.6c-0.1,0.1-0.3,0.1-0.4,0.1c0.3-26.7,0.8-53.3,0.9-79.9
		C80.5,146.7,80,120,79.7,93.3z M184.3,168.7c0,17.6,0,35.2,0,52.8c24.3,0,48.6,0,72.9,0c0-17.6,0-35.2,0-52.8
		C232.9,168.7,208.7,168.7,184.3,168.7z M167.2,168.7c-23.4,0-46.7,0-70,0c0,17.6,0,35.2,0,52.7c23.4,0,46.7,0,70,0
		C167.2,203.8,167.2,186.3,167.2,168.7z M184.3,110.9c0,16.9,0,33.6,0,50.5c24.3,0,48.6,0,72.9,0c0-16.9,0-33.6,0-50.5
		C232.9,110.9,208.6,110.9,184.3,110.9z M97.2,161.4c23.4,0,46.7,0,70,0c0-16.9,0-33.6,0-50.5c-23.4,0-46.7,0-70,0
		C97.2,127.8,97.2,144.6,97.2,161.4z"/>
	<path class="st0" d="M184.3,168.7c24.4,0,48.6,0,72.9,0c0,17.6,0,35.1,0,52.8c-24.3,0-48.5,0-72.9,0
		C184.3,203.9,184.3,186.3,184.3,168.7z"/>
	<path class="st0" d="M167.2,168.7c0,17.6,0,35.1,0,52.7c-23.3,0-46.6,0-70,0c0-17.5,0-35.1,0-52.7
		C120.5,168.7,143.8,168.7,167.2,168.7z"/>
	<path class="st0" d="M184.3,110.9c24.3,0,48.6,0,72.9,0c0,16.8,0,33.6,0,50.5c-24.3,0-48.5,0-72.9,0
		C184.3,144.6,184.3,127.8,184.3,110.9z"/>
	<path class="st0" d="M97.2,161.4c0-16.8,0-33.6,0-50.5c23.3,0,46.6,0,70,0c0,16.8,0,33.6,0,50.5
		C143.8,161.4,120.5,161.4,97.2,161.4z"/>
</g>
</svg>
