<?xml version="1.0" encoding="utf-8"?>
<!-- Generator: Adobe Illustrator 20.1.0, SVG Export Plug-In . SVG Version: 6.00 Build 0)  -->
<svg version="1.1" id="图层_1" xmlns="http://www.w3.org/2000/svg" xmlns:xlink="http://www.w3.org/1999/xlink" x="0px" y="0px"
	 viewBox="0 0 360 360" style="enable-background:new 0 0 360 360;" xml:space="preserve">
<style type="text/css">
	.st0{fill:#FFFFFF;}
</style>
<g>
	<path class="st0" d="M0.2,360.5c0-120.1,0-240.2,0-360.2c120.1,0,240.2,0,360.2,0c0,120.1,0,240.2,0,360.2
		C240.4,360.5,120.3,360.5,0.2,360.5z M150,278.1c0.8,1.9,1.5,3.7,2.2,5.6c1.7,4.9,3.4,9.9,5,14.9c1.2,3.6,3.3,4.3,5.9,1.6
		c1.8-1.9,3.5-4,4.9-6.2c4.2-6.7,4.3-13.6,0.4-20.4c-1.7-3-3.9-5.9-6.1-8.6c-6.4-7.6-13.9-14.1-21.4-20.6c-2-1.7-4-3.4-5.9-5
		c-1.3,1.3-2.4,2.4-3.5,3.5c2.8,4.7,5.8,9.5,8.5,14.3c2.7,4.9,5.2,9.9,7.9,15c-23.3,3.2-46.2,6.3-69.5,9.4c3.5-3.7,6.8-7.2,10-10.7
		c16.2-17.7,31.1-36.5,44.1-56.8c6.2-9.7,12.2-19.4,19.2-28.5c5-6.4,10-12.8,17.3-17.1c-7.5-5.5-14.9-11-22.4-16.5
		c-0.5,1.8-0.9,3.5-1.3,5.1c-3.9,14.7-9.9,28.5-18.3,41.2c-0.3,0.4-0.8,0.8-1.3,0.8c-5.4,0.3-10.8,0.5-16.2,0.7
		c-10.1,0.5-20.2,1-30.3,1.4c-1.4,0.1-2.8,0-4.3,0c0.2-0.3,0.3-0.5,0.4-0.7c13.3-20.6,26.6-41.2,39.9-61.9c3-4.7,7.1-8,12.1-10.2
		c0.9-0.4,1.8-0.8,2.8-1.2c-8.3-4.8-16.5-9.4-24.5-14c-1.3,4.9-2.4,9.8-4,14.5c-5.5,16.7-13.1,32.6-21.5,48
		c-3.5,6.4-7.4,12.6-12.4,18c-3.2,3.4-6.6,6.5-11.8,6.6c3.9,7.5,7.8,14.9,11.7,22.3c1.2-0.9,2.3-1.8,3.4-2.6
		c5-3.3,10.6-5.4,16.3-7.2c9.6-3,19.5-5,29.4-6.8c2-0.3,4-0.7,6.1-1c-0.2,0.4-0.3,0.7-0.4,0.9c-10.4,18-21.7,35.4-35.3,51.1
		c-6,6.9-12.2,13.5-19.4,19.2c-3.9,3.2-8.1,5.9-13,7.6c4.3,7.5,8.6,14.9,12.9,22.3c1.6-1.4,3.1-2.8,4.7-3.9
		c5.7-4.2,12.2-6.9,18.8-9.3c11.9-4.4,24.2-7.5,36.6-10.3C135,281.1,142.5,279.6,150,278.1z M162.8,88.6c-0.2,0.2-0.5,0.4-0.8,0.6
		c-4,3.3-8,6.6-12,10c-0.9,0.7-1.7,1-2.8,1c-32.7,0-65.3,0-98,0c-0.5,0-1,0-1.8,0c3.6,3.6,6.9,6.9,10.3,10.2
		c0.2,0.2,0.9,0.3,1.3,0.2c8.9-2.3,18-3.3,27.2-3.3c31.3,0,62.6,0,93.9,0c0.5,0,1,0,1.5,0C175.3,101,169.1,94.8,162.8,88.6z
		 M91,51.8c0.5,0.6,0.9,1,1.2,1.4c7.4,8.3,13.5,17.5,17.5,28c1.1,2.9,2.1,5.8,3.3,8.6c0.7,1.5,1.7,3,2.9,4.2
		c1.4,1.5,3.2,1.6,4.9,0.3c0.9-0.7,1.7-1.5,2.4-2.5c2-2.7,3.6-5.8,4.5-9.1c1-3.5,1.1-6.9-0.2-10.3c-1.1-2.9-3.1-5.2-5.4-7.2
		c-8-7.2-17.4-11.9-27-16.6c-0.2-0.1-0.7-0.1-0.9,0.1C93.2,49.7,92.1,50.8,91,51.8z"/>
	<path d="M150,278.1c-7.5,1.6-15,3-22.4,4.7c-12.4,2.8-24.7,5.9-36.6,10.3c-6.6,2.4-13.1,5.1-18.8,9.3c-1.6,1.2-3.1,2.6-4.7,3.9
		c-4.3-7.3-8.5-14.8-12.9-22.3c4.9-1.7,9.1-4.5,13-7.6c7.2-5.7,13.4-12.3,19.4-19.2c13.6-15.8,24.9-33.1,35.3-51.1
		c0.1-0.2,0.2-0.5,0.4-0.9c-2.2,0.4-4.2,0.7-6.1,1c-9.9,1.7-19.8,3.7-29.4,6.8c-5.7,1.8-11.3,3.8-16.3,7.2c-1.2,0.8-2.2,1.7-3.4,2.6
		c-3.9-7.4-7.8-14.8-11.7-22.3c5.2-0.1,8.7-3.2,11.8-6.6c5-5.4,8.9-11.6,12.4-18c8.4-15.4,16-31.3,21.5-48c1.6-4.7,2.6-9.6,4-14.5
		c8,4.6,16.1,9.2,24.5,14c-1.1,0.5-2,0.8-2.8,1.2c-5,2.2-9.1,5.5-12.1,10.2c-13.2,20.7-26.6,41.3-39.9,61.9
		c-0.1,0.2-0.2,0.4-0.4,0.7c1.5,0,2.9,0.1,4.3,0c10.1-0.5,20.2-1,30.3-1.4c5.4-0.2,10.8-0.4,16.2-0.7c0.5,0,1-0.4,1.3-0.8
		c8.4-12.7,14.4-26.5,18.3-41.2c0.4-1.7,0.8-3.3,1.3-5.1c7.5,5.5,14.9,11,22.4,16.5c-7.2,4.4-12.3,10.7-17.3,17.1
		c-7,9.1-13.1,18.8-19.2,28.5c-12.9,20.3-27.8,39-44.1,56.8c-3.2,3.5-6.5,7-10,10.7c23.2-3.2,46.2-6.3,69.5-9.4
		c-2.7-5.2-5.2-10.2-7.9-15c-2.7-4.9-5.7-9.6-8.5-14.3c1.1-1.1,2.3-2.3,3.5-3.5c1.9,1.6,3.9,3.3,5.9,5c7.5,6.4,15,13,21.4,20.6
		c2.3,2.7,4.4,5.5,6.1,8.6c3.9,6.8,3.8,13.8-0.4,20.4c-1.4,2.2-3,4.3-4.9,6.2c-2.7,2.7-4.7,2.1-5.9-1.6c-1.6-5-3.3-9.9-5-14.9
		C151.5,281.8,150.7,280,150,278.1z"/>
	<path d="M162.8,88.6c6.3,6.3,12.5,12.5,18.8,18.7c-0.5,0-1,0-1.5,0c-31.3,0-62.6,0-93.9,0c-9.2,0-18.3,1-27.2,3.3
		c-0.4,0.1-1,0.1-1.3-0.2c-3.4-3.3-6.7-6.6-10.3-10.2c0.8,0,1.3,0,1.8,0c32.7,0,65.3,0,98,0c1.1,0,2-0.3,2.8-1c4-3.4,8-6.7,12-10
		C162.3,89,162.6,88.7,162.8,88.6z"/>
	<path d="M91,51.8c1.1-1.1,2.2-2.1,3.3-3.1c0.2-0.2,0.7-0.2,0.9-0.1c9.5,4.6,19,9.4,27,16.6c2.3,2,4.3,4.3,5.4,7.2
		c1.3,3.4,1.2,6.9,0.2,10.3c-1,3.3-2.5,6.3-4.5,9.1c-0.7,0.9-1.5,1.8-2.4,2.5c-1.7,1.3-3.4,1.2-4.9-0.3c-1.1-1.2-2.2-2.7-2.9-4.2
		c-1.3-2.8-2.2-5.7-3.3-8.6c-4-10.4-10.1-19.7-17.5-28C91.9,52.8,91.5,52.4,91,51.8z"/>
</g>
</svg>
