<?xml version="1.0" encoding="utf-8"?>
<!-- Generator: Adobe Illustrator 20.1.0, SVG Export Plug-In . SVG Version: 6.00 Build 0)  -->
<svg version="1.1" id="图层_1" xmlns="http://www.w3.org/2000/svg" xmlns:xlink="http://www.w3.org/1999/xlink" x="0px" y="0px"
	 viewBox="0 0 360 360" style="enable-background:new 0 0 360 360;" xml:space="preserve">
<style type="text/css">
	.st0{fill:#FFFFFF;}
</style>
<g>
	<path class="st0" d="M0.2,360.5c0-120.1,0-240.2,0-360.2c120.1,0,240.2,0,360.2,0c0,120.1,0,240.2,0,360.2
		C240.4,360.5,120.3,360.5,0.2,360.5z M94.7,70.8c-1.6,0-3.1,0.1-4.5,0c-1.1-0.1-1.6,0.2-1.7,1.4c0,0.8-0.3,1.6-0.4,2.4
		c-2.5,13.6-8.2,25.6-16.9,36.3c-1.1,1.4-2.1,2.8-3.1,4.3c-0.4,0.6-0.7,1.3-0.9,1.9c-1.5,3.6-0.1,6.3,3.7,7.1c4.6,1,9.1,0.6,13.5-1
		c5.9-2.2,9.8-6.3,10.7-12.7c0.5-3.4,0.8-6.9,1-10.4c0.2-3,0-6,0-9c61.5,0,123,0,184.7,0c-5.1,10.3-10.2,20.4-15.3,30.5
		c1.2,0.8,2.4,1.6,3.6,2.4c0.9-1.1,1.8-2.1,2.7-3.1c6.4-7.3,13.1-14.2,21-19.8c5-3.5,10.3-6.4,16.4-7.5c0.7-0.1,1.4-0.2,2.3-0.4
		c-6.8-7.6-13.4-14.9-20-22.4c-0.4,0.4-0.6,0.6-0.9,0.9c-3.4,3.8-6.8,7.5-10.3,11.2c-0.4,0.4-1.1,0.8-1.6,0.8c-27.2,0-54.4,0-81.6,0
		c-0.2,0-0.5-0.1-0.7-0.1c-0.1-0.1-0.1-0.2-0.2-0.3c0.3-0.2,0.6-0.4,0.9-0.6c2.3-2.4,4.3-5,5.7-7.9c2.8-5.8,2.2-11-2.2-15.7
		c-1.8-1.9-3.9-3.6-6-5.1c-6.4-4.5-13.4-7.8-20.6-11c-1.3-0.6-2.6-1.1-3.9-1.7c-0.4,0.6-0.8,1.2-1.1,1.7c-1.2,1.9-1.2,1.9,0.2,3.6
		c7.2,8.6,12.9,18,15.8,28.9c0.7,2.6,1.2,5.4,1.7,8.1c-0.6,0-1,0.1-1.3,0.1c-29.4,0-58.9,0-88.3,0c-0.9,0-1.2-0.3-1.3-1.2
		C95.4,78.7,95.1,74.8,94.7,70.8z M203,110.8c0.6,0.3,1.1,0.5,1.6,0.7c12.4,5.6,24.3,11.9,35.8,19.2c11.4,7.2,22.3,15,32.2,24.2
		c2.1,2,4.6,3.7,7.2,5.1c2.9,1.6,4.7,0.7,6-2.3c1.5-3.7,1.4-7.6,1.2-11.5c-0.2-3.2-1.1-6.2-3-8.8c-2.1-2.9-4.8-5.1-7.8-7.1
		c-5.5-3.6-11.5-6-17.7-8.2C244.2,117,229.6,113,215,109c-3.6-1-7.2-1.9-10.8-2.9C203.8,107.7,203.4,109.2,203,110.8z M69.9,161.6
		c6.3-1.9,12.5-3.7,18.6-5.7c16.2-5.2,31.8-11.7,46.7-20.1c10.5-6,21.2-11.9,33.6-13.5c-5.9-7-11.7-14-17.6-21.1
		c-22.7,25.7-51,43.1-82.5,55.4C69.1,158.4,69.5,159.9,69.9,161.6z"/>
	<path d="M94.7,70.8c0.4,4.1,0.7,7.9,1,11.8c0.1,0.9,0.3,1.2,1.3,1.2c29.4,0,58.9,0,88.3,0c0.4,0,0.7,0,1.3-0.1
		c-0.6-2.8-1-5.5-1.7-8.1c-2.9-10.9-8.6-20.3-15.8-28.9c-1.5-1.8-1.5-1.7-0.2-3.6c0.4-0.5,0.7-1.1,1.1-1.7c1.3,0.6,2.6,1.1,3.9,1.7
		c7.1,3.1,14.2,6.4,20.6,11c2.1,1.5,4.2,3.2,6,5.1c4.4,4.7,5,9.9,2.2,15.7c-1.4,3-3.5,5.6-5.7,7.9c-0.2,0.3-0.6,0.4-0.9,0.6
		c0.1,0.1,0.1,0.2,0.2,0.3c0.2,0,0.5,0.1,0.7,0.1c27.2,0,54.4,0,81.6,0c0.5,0,1.2-0.4,1.6-0.8c3.5-3.7,6.9-7.5,10.3-11.2
		c0.3-0.3,0.5-0.6,0.9-0.9c6.7,7.4,13.3,14.8,20,22.4c-0.9,0.1-1.6,0.2-2.3,0.4c-6.1,1.1-11.4,4-16.4,7.5
		c-7.9,5.6-14.6,12.5-21,19.8c-0.9,1-1.8,2-2.7,3.1c-1.2-0.8-2.3-1.6-3.6-2.4c5.1-10.1,10.1-20.3,15.3-30.5c-61.7,0-123.2,0-184.7,0
		c0,3.1,0.1,6.1,0,9c-0.2,3.5-0.5,6.9-1,10.4c-0.9,6.4-4.8,10.5-10.7,12.7c-4.4,1.6-8.9,2-13.5,1c-3.9-0.8-5.2-3.4-3.7-7.1
		c0.3-0.7,0.5-1.3,0.9-1.9c1-1.5,2-2.9,3.1-4.3c8.7-10.7,14.5-22.7,16.9-36.3c0.1-0.8,0.4-1.6,0.4-2.4c0-1.2,0.6-1.4,1.7-1.4
		C91.6,70.8,93.1,70.8,94.7,70.8z"/>
	<path d="M203,110.8c0.4-1.6,0.8-3.1,1.2-4.8c3.7,1,7.3,1.9,10.8,2.9c14.6,4,29.2,8.1,43.4,13.2c6.1,2.2,12.2,4.6,17.7,8.2
		c3,1.9,5.7,4.2,7.8,7.1c1.9,2.6,2.8,5.6,3,8.8c0.2,3.9,0.3,7.8-1.2,11.5c-1.3,3-3.1,3.9-6,2.3c-2.6-1.4-5.1-3.1-7.2-5.1
		c-9.9-9.2-20.8-17-32.2-24.2c-11.5-7.3-23.4-13.6-35.8-19.2C204.1,111.3,203.6,111.1,203,110.8z"/>
	<path d="M69.9,161.6c-0.4-1.7-0.8-3.2-1.2-4.8c31.6-12.4,59.8-29.7,82.5-55.4c5.9,7,11.7,14,17.6,21.1
		c-12.5,1.6-23.1,7.5-33.6,13.5c-14.8,8.4-30.5,14.8-46.7,20.1C82.4,158,76.2,159.7,69.9,161.6z"/>
</g>
</svg>
