<?xml version="1.0" encoding="utf-8"?>
<!-- Generator: Adobe Illustrator 20.1.0, SVG Export Plug-In . SVG Version: 6.00 Build 0)  -->
<svg version="1.1" id="图层_1" xmlns="http://www.w3.org/2000/svg" xmlns:xlink="http://www.w3.org/1999/xlink" x="0px" y="0px"
	 viewBox="0 0 360 360" style="enable-background:new 0 0 360 360;" xml:space="preserve">
<style type="text/css">
	.st0{fill:#FFFFFF;}
</style>
<g>
	<path class="st0" d="M0.2,360.5c0-120.1,0-240.2,0-360.2c120.1,0,240.2,0,360.2,0c0,120.1,0,240.2,0,360.2
		C240.4,360.5,120.3,360.5,0.2,360.5z M145.3,161.4c-0.4,0.4-0.7,0.8-1,1.1c-3.8,3.8-7.5,7.5-11.3,11.3c-0.4,0.4-1.1,0.7-1.6,0.7
		c-3.7,0.1-7.4,0-11,0c-0.6,0-1.3,0-2,0c0-0.6,0-1,0-1.4c0-10.5,0-21,0-31.6c0-0.9,0.3-1.5,1-2c2.4-2,4.8-4.1,7.3-6.2
		c-3.6-1.6-7-3.1-10.5-4.7c0.2-0.3,0.2-0.5,0.4-0.6c7.4-9.9,15-19.5,23.9-28.1c4.9-4.7,10-9.2,16.8-11.4c-5.9-5.5-11.8-11-17.7-16.5
		c-2.5,3.2-5,6.3-7.4,9.5c-0.6,0.9-1.3,1.2-2.4,1.2c-24.5,0-49,0-73.6,0c-0.4,0-0.9,0-1.6,0c3.6,3.6,6.9,6.9,10.2,10.2
		c0.3,0.3,0.9,0.3,1.4,0.2c8.8-2.3,17.8-3.2,26.8-3.3c12.6,0,25.3,0,37.9,0c0.4,0,0.8,0,1.4,0.1c-7.1,12.2-14.1,24.3-21.1,36.4
		c-2.4-1.6-4.6-3.1-7.1-4.7c0,0.7,0,1.2,0,1.7c0,13.1,0,26.2,0,39.4c0,30.6,0,61.3,0,91.9c0,1-0.2,1.5-1.3,1.6
		c-5.3,0.9-10.6,2-15.9,3c-2.4,0.5-4.9,0.9-7.5,1.4c0-0.6,0-1,0-1.3c0-31,0-61.9,0-92.9c0-0.8,0.3-1.4,0.9-1.9
		c2.8-2.4,5.6-4.9,8.6-7.5c-7.9-4-15.7-7.9-23.7-11.8c0,0.7,0,1.1,0,1.5c0,8.2,0,16.5,0,24.7c0,30.4,0,60.9,0,91.3
		c0,1.2-0.3,1.6-1.4,1.8c-4.4,1-8.8,2-13.2,3.1c-1.8,0.4-3.5,0.8-5.4,1.3c4,6.8,7.9,13.4,11.8,20c2-3,4.9-4.8,7.9-6.5
		c7.6-4.4,15.7-7.7,23.9-10.8c20.1-7.8,40.7-14.3,61.2-20.7c3.5-1.1,7.1-2.2,10.8-3.3c-0.4-1.6-0.8-3.1-1.2-4.8
		c-13.8,3.1-27.4,6.3-41.1,9.4c0-23.6,0-47,0-70.6c14.5,0,28.9,0,43.5,0C156.3,174.7,150.9,168.1,145.3,161.4z"/>
	<path d="M145.3,161.4c5.6,6.8,11,13.4,16.6,20.2c-14.7,0-29.1,0-43.5,0c0,23.6,0,47,0,70.6c13.7-3.1,27.4-6.2,41.1-9.4
		c0.4,1.6,0.8,3.2,1.2,4.8c-3.7,1.1-7.2,2.2-10.8,3.3c-20.6,6.4-41.1,12.9-61.2,20.7c-8.2,3.2-16.3,6.4-23.9,10.8
		c-2.9,1.7-5.8,3.5-7.9,6.5c-3.9-6.7-7.8-13.3-11.8-20c1.9-0.5,3.7-0.9,5.4-1.3c4.4-1,8.8-2.1,13.2-3.1c1.1-0.2,1.4-0.6,1.4-1.8
		c0-30.4,0-60.9,0-91.3c0-8.2,0-16.5,0-24.7c0-0.4,0-0.9,0-1.5c8,4,15.8,7.9,23.7,11.8c-2.9,2.6-5.7,5-8.6,7.5
		c-0.6,0.5-0.9,1.1-0.9,1.9c0,31,0,61.9,0,92.9c0,0.4,0,0.8,0,1.3c2.6-0.5,5-0.9,7.5-1.4c5.3-1,10.6-2.1,15.9-3
		c1.1-0.2,1.3-0.7,1.3-1.6c0-30.6,0-61.3,0-91.9c0-13.1,0-26.2,0-39.4c0-0.5,0-0.9,0-1.7c2.5,1.6,4.7,3.1,7.1,4.7
		c7-12.1,14-24.1,21.1-36.4c-0.6,0-1-0.1-1.4-0.1c-12.6,0-25.3,0-37.9,0c-9.1,0-18,1-26.8,3.3c-0.4,0.1-1.1,0-1.4-0.2
		c-3.3-3.3-6.6-6.6-10.2-10.2c0.7,0,1.2,0,1.6,0c24.5,0,49,0,73.6,0c1.1,0,1.7-0.3,2.4-1.2c2.4-3.2,4.8-6.3,7.4-9.5
		c5.9,5.5,11.8,11,17.7,16.5c-6.8,2.2-11.9,6.7-16.8,11.4c-8.9,8.6-16.5,18.3-23.9,28.1c-0.1,0.2-0.2,0.3-0.4,0.6
		c3.5,1.6,6.9,3.1,10.5,4.7c-2.5,2.2-4.9,4.2-7.3,6.2c-0.7,0.6-1,1.1-1,2c0,10.5,0,21,0,31.6c0,0.4,0,0.9,0,1.4c0.8,0,1.4,0,2,0
		c3.7,0,7.4,0,11,0c0.6,0,1.2-0.3,1.6-0.7c3.8-3.7,7.5-7.5,11.3-11.3C144.6,162.1,144.9,161.8,145.3,161.4z"/>
</g>
</svg>
