<?xml version="1.0" encoding="utf-8"?>
<!-- Generator: Adobe Illustrator 20.1.0, SVG Export Plug-In . SVG Version: 6.00 Build 0)  -->
<svg version="1.1" id="图层_1" xmlns="http://www.w3.org/2000/svg" xmlns:xlink="http://www.w3.org/1999/xlink" x="0px" y="0px"
	 viewBox="0 0 360 360" style="enable-background:new 0 0 360 360;" xml:space="preserve">
<style type="text/css">
	.st0{fill:#FFFFFF;}
</style>
<g>
	<path class="st0" d="M0.2,360.5c0-120.1,0-240.2,0-360.2c120.1,0,240.2,0,360.2,0c0,120.1,0,240.2,0,360.2
		C240.4,360.5,120.3,360.5,0.2,360.5z M285.4,41.4c-3.4,3.4-6.9,6.9-10.3,10.4c-0.9,0.9-1.8,1.3-3.1,1.3c-67.9,0-135.8,0-203.8,0
		c-0.5,0-1,0-1.6,0c0.1,0.3,0.1,0.4,0.2,0.5c2.9,2.9,5.7,5.7,8.6,8.6c0.3,0.3,0.9,0.3,1.4,0.2c4.5-1.3,9-2.2,13.7-2.2
		c3.3,0,6.6,0.2,9.9,0.2c26.2,0,52.5,0,78.7,0c0.5,0,1,0,1.5,0c0,26.8,0,53.3,0,79.9c-0.2,0-0.2,0-0.3,0c-0.6-0.2-1.2-0.3-1.7-0.5
		c-17.7-5.8-33.1-15.5-46.7-28.2c-0.5-0.4-0.5-0.8-0.4-1.5c1.8-6.1,3.6-12.2,5.4-18.3c0.2-0.5,0.6-1.1,1-1.4
		c2.8-2.2,5.6-4.4,8.4-6.6c0.5-0.4,0.9-0.7,1.5-1.2c-8.3-5.2-16.5-10.2-24.7-15.3c-1.4,8.3-2.9,16.4-4.2,24.6
		c-2,11.9-5.3,23.3-11.1,34c-4.1,7.7-8.5,15.1-14.5,21.5c-7.2,7.6-15.4,14.1-24.2,19.8c-4.8,3.2-9.9,6.1-14.8,9.1
		c-0.3,0.2-0.8,0.7-0.7,1c0.2,1,0.6,2,1,3.1c0.4-0.1,0.6-0.2,0.8-0.2c12.8-4.5,24.9-10.3,36.1-18.1c15.9-11,28.2-24.9,36.2-42.6
		c0.4-0.8,0.7-1.6,1.2-2.5c0.3,0.3,0.6,0.5,0.8,0.7c4,3.8,7.8,7.7,11.9,11.3c10.3,9.1,21.6,16.9,34.5,22.1
		c14.1,5.7,28.7,9.5,43.6,12.4c15.4,3,31,4.4,46.6,6.2c8.5,1,16.9,1.9,25.4,2.8c2.7,0.3,5.4,0.6,7.7,0.8c1.4-2.5,2.5-4.9,4.1-6.9
		c3-3.9,7.2-6.2,11.8-7.7c2.3-0.8,4.7-1.3,7-2c0-1.1,0-2.2,0-3.4c-0.4,0-0.7-0.1-1,0c-2.6,0.1-5.3,0.3-7.9,0.3
		c-13.2-0.1-26.3-0.1-39.5-0.4c-14.6-0.3-29.1-1.3-43.6-3.1c-11-1.4-22-3.3-32.8-5.9c-1-0.2-1.2-0.6-1.2-1.6c0-11.3,0-22.6,0-33.8
		c0-0.4,0-0.8,0.1-1.4c25.9,0,51.6,0,77.7,0c-6.4-6.8-12.6-13.4-18.9-20.1c-4.1,4.1-8.1,8.1-12.1,12.1c-0.6,0.6-1.2,0.9-2.1,0.9
		c-14.4,0-28.9,0-43.3,0c-0.4,0-0.8,0-1.3-0.1c0-13.4,0-26.6,0-39.8c26.2,0,52.4,0,78.6,0c-0.6,1.1-1.2,2.1-1.7,3
		c-3.5,6.1-7.1,12.2-10.6,18.4c-0.2,0.4-0.3,1-0.1,1.3c0.5,0.8,1.2,1.4,1.7,2c4.4-3.8,8.6-7.5,12.8-11.1c6-5.1,12.4-9.4,20-11.7
		c2.4-0.7,4.9-1.4,7.2-2.1C297.9,53.9,291.7,47.7,285.4,41.4z"/>
	<path d="M285.4,41.4c6.3,6.3,12.5,12.5,18.8,18.8c-2.4,0.7-4.8,1.3-7.2,2.1c-7.6,2.3-14.1,6.6-20,11.7c-4.2,3.6-8.4,7.3-12.8,11.1
		c-0.5-0.6-1.2-1.3-1.7-2c-0.2-0.3-0.1-1,0.1-1.3c3.5-6.1,7.1-12.2,10.6-18.4c0.6-1,1.1-1.9,1.7-3c-26.3,0-52.4,0-78.6,0
		c0,13.2,0,26.5,0,39.8c0.4,0,0.8,0.1,1.3,0.1c14.4,0,28.9,0,43.3,0c0.9,0,1.5-0.3,2.1-0.9c4-4,8-8,12.1-12.1
		c6.3,6.7,12.5,13.3,18.9,20.1c-26,0-51.8,0-77.7,0c0,0.6-0.1,1-0.1,1.4c0,11.3,0,22.6,0,33.8c0,1,0.3,1.4,1.2,1.6
		c10.8,2.6,21.7,4.5,32.8,5.9c14.5,1.8,29,2.8,43.6,3.1c13.1,0.3,26.3,0.3,39.5,0.4c2.6,0,5.3-0.2,7.9-0.3c0.3,0,0.6,0,1,0
		c0,1.2,0,2.3,0,3.4c-2.3,0.7-4.7,1.2-7,2c-4.6,1.5-8.8,3.8-11.8,7.7c-1.5,2-2.6,4.4-4.1,6.9c-2.3-0.2-5-0.5-7.7-0.8
		c-8.5-0.9-16.9-1.8-25.4-2.8c-15.6-1.8-31.2-3.2-46.6-6.2c-14.9-2.9-29.5-6.7-43.6-12.4c-12.8-5.2-24.1-13-34.5-22.1
		c-4.1-3.6-7.9-7.5-11.9-11.3c-0.2-0.2-0.5-0.4-0.8-0.7c-0.4,0.9-0.8,1.7-1.2,2.5c-8,17.6-20.3,31.6-36.2,42.6
		c-11.2,7.7-23.3,13.6-36.1,18.1c-0.2,0.1-0.5,0.1-0.8,0.2c-0.4-1-0.8-2-1-3.1c-0.1-0.3,0.4-0.8,0.7-1c4.9-3.1,9.9-6,14.8-9.1
		c8.8-5.7,16.9-12.2,24.2-19.8c6-6.4,10.4-13.8,14.5-21.5c5.7-10.7,9.1-22.1,11.1-34c1.3-8.2,2.8-16.3,4.2-24.6
		c8.2,5,16.3,10.1,24.7,15.3c-0.5,0.4-1,0.8-1.5,1.2c-2.8,2.2-5.6,4.4-8.4,6.6c-0.4,0.3-0.8,0.9-1,1.4c-1.8,6.1-3.6,12.2-5.4,18.3
		c-0.2,0.6-0.1,1,0.4,1.5c13.6,12.7,29,22.4,46.7,28.2c0.6,0.2,1.1,0.3,1.7,0.5c0.1,0,0.2,0,0.3,0c0-26.6,0-53.1,0-79.9
		c-0.5,0-1,0-1.5,0c-26.2,0-52.5,0-78.7,0c-3.3,0-6.6-0.2-9.9-0.2c-4.7,0.1-9.2,0.9-13.7,2.2c-0.4,0.1-1.1,0.1-1.4-0.2
		c-2.9-2.8-5.7-5.7-8.6-8.6c-0.1-0.1-0.1-0.2-0.2-0.5c0.6,0,1.1,0,1.6,0c67.9,0,135.8,0,203.8,0c1.3,0,2.2-0.4,3.1-1.3
		C278.5,48.3,282,44.8,285.4,41.4z"/>
</g>
</svg>
