<?xml version="1.0" encoding="utf-8"?>
<!-- Generator: Adobe Illustrator 20.1.0, SVG Export Plug-In . SVG Version: 6.00 Build 0)  -->
<svg version="1.1" id="图层_1" xmlns="http://www.w3.org/2000/svg" xmlns:xlink="http://www.w3.org/1999/xlink" x="0px" y="0px"
	 viewBox="0 0 360 360" style="enable-background:new 0 0 360 360;" xml:space="preserve">
<style type="text/css">
	.st0{fill:#FFFFFF;}
</style>
<g>
	<path class="st0" d="M0.2,360.5c0-120.1,0-240.2,0-360.2c120.1,0,240.2,0,360.2,0c0,120.1,0,240.2,0,360.2
		C240.4,360.5,120.3,360.5,0.2,360.5z M146.4,38.9c2,28,0.9,55.8,1.2,83.7c-33.8,0-67.4,0-101.2,0c0.3,0.3,0.4,0.5,0.5,0.6
		c3.2,3.2,6.3,6.4,9.5,9.5c0.3,0.3,0.9,0.4,1.3,0.3c8.7-2.2,17.6-3.3,26.6-3.3c77.4,0,154.9,0,232.3,0c0.5,0,1,0,1.3,0
		c-8.2-8.2-16.3-16.3-24.6-24.6c-0.2,0.2-0.4,0.6-0.7,0.9c-5.3,5.3-10.6,10.6-15.9,15.9c-0.4,0.4-1.2,0.7-1.7,0.7
		c-13,0-25.9,0-38.9,0c-0.3,0-0.7,0-1.2-0.1c2-2.2,3.9-4.3,5.8-6.4c10.4-11.2,20.8-22.3,32.4-32.3c4.6-3.9,9.3-7.8,14.7-10.5
		c1.1-0.5,2.2-1,3.4-1.5c-7.1-5.9-14.1-11.7-21.1-17.6c-0.3,0.8-0.5,1.3-0.7,1.9c-2.8,8-7,15.4-11.4,22.7
		c-9.1,15-19.4,29.1-29.9,43.1c-0.3,0.4-0.9,0.7-1.4,0.7c-4.1,0.1-8.2,0-12.2,0c-0.3,0-0.6-0.1-0.9-0.1c0-0.3-0.1-0.5-0.1-0.7
		c0-21.4,0-42.9,0-64.3c0-0.5,0.3-1,0.7-1.4c1.8-1.6,3.7-3.2,5.5-4.8c0.7-0.6,1.3-1.1,2-1.8c-8.3-3.6-16.5-7.1-24.8-10.6
		c1.9,28,0.9,55.8,1.2,83.6c-11.9,0-23.5,0-35.3,0c0-0.4-0.1-0.7-0.1-1c0-20.9,0-41.8,0-62.8c0-0.5,0.3-1.1,0.7-1.5
		c1.8-1.7,3.7-3.2,5.6-4.9c0.6-0.5,1.2-1.1,1.9-1.7C163,46.8,154.8,42.9,146.4,38.9z M78.1,60.2c0.3,0.4,0.5,0.7,0.8,1
		C83,66.6,87.2,71.9,91,77.5c5.4,7.7,10,15.9,13,24.9c0.8,2.4,2.1,4.7,3.5,6.8c2.2,3.1,5.1,3.3,8,0.8c3-2.6,5.2-5.7,6.3-9.5
		c1.7-6,1.3-11.7-3.4-16.5c-1.2-1.2-2.3-2.5-3.5-3.6c-9.9-8.8-21.3-15.5-32.7-22.2c-0.3-0.2-0.8-0.1-1,0
		C80.2,58.7,79.2,59.4,78.1,60.2z"/>
	<path d="M146.4,38.9c8.4,4,16.5,7.9,24.8,11.8c-0.7,0.6-1.3,1.2-1.9,1.7c-1.9,1.6-3.8,3.2-5.6,4.9c-0.4,0.3-0.7,1-0.7,1.5
		c0,20.9,0,41.8,0,62.8c0,0.3,0,0.6,0.1,1c11.7,0,23.4,0,35.3,0c-0.3-27.8,0.7-55.6-1.2-83.6c8.4,3.6,16.5,7.1,24.8,10.6
		c-0.7,0.7-1.4,1.2-2,1.8c-1.9,1.6-3.7,3.1-5.5,4.8c-0.4,0.3-0.7,0.9-0.7,1.4c0,21.4,0,42.9,0,64.3c0,0.2,0,0.4,0.1,0.7
		c0.3,0,0.6,0.1,0.9,0.1c4.1,0,8.2,0,12.2,0c0.5,0,1.1-0.3,1.4-0.7c10.6-14,20.8-28.1,29.9-43.1c4.4-7.2,8.6-14.6,11.4-22.7
		c0.2-0.6,0.4-1.1,0.7-1.9c7.1,5.9,14.1,11.7,21.1,17.6c-1.2,0.5-2.3,0.9-3.4,1.5c-5.4,2.7-10.1,6.5-14.7,10.5
		c-11.6,10-22.1,21.1-32.4,32.3c-1.9,2.1-3.8,4.1-5.8,6.4c0.5,0,0.9,0.1,1.2,0.1c13,0,25.9,0,38.9,0c0.6,0,1.3-0.3,1.7-0.7
		c5.3-5.3,10.6-10.6,15.9-15.9c0.3-0.3,0.6-0.7,0.7-0.9c8.3,8.3,16.5,16.5,24.6,24.6c-0.3,0-0.8,0-1.3,0c-77.4,0-154.9,0-232.3,0
		c-9,0-17.9,1-26.6,3.3c-0.4,0.1-1.1,0-1.3-0.3c-3.2-3.1-6.4-6.3-9.5-9.5c-0.1-0.1-0.2-0.3-0.5-0.6c33.8,0,67.4,0,101.2,0
		C147.3,94.7,148.4,66.9,146.4,38.9z"/>
	<path d="M78.1,60.2c1.1-0.7,2-1.4,3.1-2c0.3-0.2,0.8-0.2,1,0c11.4,6.7,22.7,13.4,32.7,22.2c1.3,1.1,2.4,2.4,3.5,3.6
		c4.7,4.8,5.1,10.5,3.4,16.5c-1,3.8-3.3,6.9-6.3,9.5c-2.9,2.5-5.8,2.4-8-0.8c-1.5-2.1-2.7-4.4-3.5-6.8c-3-9-7.6-17.1-13-24.9
		c-3.9-5.6-8.1-10.9-12.1-16.4C78.7,60.8,78.4,60.5,78.1,60.2z"/>
</g>
</svg>
