<?xml version="1.0" encoding="utf-8"?>
<!-- Generator: Adobe Illustrator 20.1.0, SVG Export Plug-In . SVG Version: 6.00 Build 0)  -->
<svg version="1.1" id="图层_1" xmlns="http://www.w3.org/2000/svg" xmlns:xlink="http://www.w3.org/1999/xlink" x="0px" y="0px"
	 viewBox="0 0 360 360" style="enable-background:new 0 0 360 360;" xml:space="preserve">
<style type="text/css">
	.st0{fill:#FFFFFF;}
</style>
<g>
	<path class="st0" d="M0.2,360.5c0-120.1,0-240.2,0-360.2c120.1,0,240.2,0,360.2,0c0,120.1,0,240.2,0,360.2
		C240.4,360.5,120.3,360.5,0.2,360.5z M176.9,107.4c-6.3-6.3-12.5-12.5-18.8-18.8c-3.3,3.4-6.8,6.8-10.2,10.3
		c-0.9,1-1.9,1.4-3.2,1.4c-29,0-58.1,0-87.1,0c-0.5,0-1,0-1.7,0c0.5,0.5,0.8,0.8,1,1.1c2.9,2.9,5.9,5.8,8.7,8.8
		c0.7,0.7,1.2,0.8,2.1,0.5c8.2-2.2,16.5-3.2,24.9-3.2c17.2-0.1,34.3,0,51.5,0c0.4,0,0.8,0,1.3,0.1c-0.7,1.4-1.2,2.7-1.9,3.9
		c-5.5,11.2-12.2,21.7-19.4,31.9c-12.2,17.2-25.3,33.8-40.5,48.6c-11.9,11.5-24.6,22-38.3,31.3c-0.4,0.3-0.8,0.5-1.2,0.8
		c0.8,1.3,1.6,2.4,2.4,3.6c23.8-13.7,46.3-28.8,66-48.3c-0.1,46.1,0,91.9-1.2,137.7c0.4-0.2,0.8-0.3,1.2-0.5
		c4.9-2.1,9.7-4.3,14.6-6.4c1-0.4,2.3-0.6,2.7-1.3c0.5-0.8,0.1-2,0.1-3.1c-0.2-11.3-0.5-22.7-0.7-34c-0.2-10.4-0.2-20.7-0.2-31.1
		c0-16,0-32,0-48c0-0.4,0-0.8,0-1.5c0.8,0.6,1.3,1,1.9,1.4c10,7.5,18.7,16.1,25.4,26.7c2.2,3.5,4.1,7.2,6.2,10.8
		c1.4,2.3,2.9,4.6,5.2,6.2c2.5,1.9,5.1,1.7,6.9-0.9c1.5-2.1,2.7-4.5,3.6-7c2.3-6.3,1.5-12.2-3.2-17.2c-1.5-1.7-3.3-3.2-5.1-4.5
		c-6.4-4.9-13.4-8.6-20.6-12.2c-3.2-1.6-6.4-3.1-9.7-4.7c0.4-0.3,0.7-0.6,1.1-0.8c9.3-6.8,18.7-13.5,27.9-20.3
		c3.4-2.5,7-4.4,11.1-5.3c1.5-0.3,3-0.9,4.5-1.3c0.4-0.1,0.7-0.3,1.2-0.4c-6.7-5.9-13.3-11.8-20-17.7c-0.2,0.3-0.3,0.5-0.4,0.6
		c-3.1,5.1-6,10.3-9.3,15.2c-6.4,9.6-13.9,18.4-21.5,27c-0.5,0.6-1,0.6-1.6,0.3c-0.9-0.5-1.9-1-2.9-1.4c-0.7-0.3-0.8-0.7-0.8-1.4
		c0-7.2,0-14.5,0-21.7c0-0.5,0.2-1.1,0.5-1.5c11.3-15.9,22.7-31.8,34-47.6c0.6-0.8,1.2-1.3,2.1-1.6
		C169.3,110.2,173.1,108.8,176.9,107.4z M94.7,44.8c2.3,3.4,4.6,6.6,6.7,9.9c6.3,9.8,11.6,20,14.3,31.4c0.5,2.2,1.6,4.4,2.8,6.3
		c1.4,2.2,3.4,2.4,5.6,0.9c0.5-0.3,1-0.7,1.4-1.1c2.8-2.8,5-6.2,6.3-9.9c1.7-5,1.2-9.7-1.8-14c-0.9-1.2-1.8-2.4-2.9-3.5
		c-8.4-8.8-18.4-15.4-28.5-21.9c-0.2-0.1-0.7-0.1-0.9,0C96.7,43.4,95.7,44.1,94.7,44.8z"/>
	<path d="M176.9,107.4c-3.8,1.4-7.6,2.8-11.4,4.1c-0.9,0.3-1.5,0.9-2.1,1.6c-11.3,15.9-22.7,31.8-34,47.6c-0.3,0.4-0.5,1-0.5,1.5
		c0,7.2,0,14.5,0,21.7c0,0.7,0.1,1.1,0.8,1.4c1,0.4,2,0.9,2.9,1.4c0.7,0.4,1.1,0.3,1.6-0.3c7.7-8.6,15.1-17.4,21.5-27
		c3.3-4.9,6.2-10.2,9.3-15.2c0.1-0.2,0.2-0.3,0.4-0.6c6.7,5.9,13.3,11.7,20,17.7c-0.5,0.2-0.8,0.3-1.2,0.4c-1.5,0.5-3,1-4.5,1.3
		c-4.1,0.9-7.7,2.8-11.1,5.3c-9.2,6.9-18.6,13.6-27.9,20.3c-0.3,0.3-0.7,0.5-1.1,0.8c3.3,1.6,6.5,3.1,9.7,4.7
		c7.2,3.6,14.2,7.3,20.6,12.2c1.8,1.4,3.6,2.9,5.1,4.5c4.6,5,5.4,10.9,3.2,17.2c-0.9,2.4-2.2,4.8-3.6,7c-1.8,2.6-4.4,2.7-6.9,0.9
		c-2.2-1.6-3.8-3.9-5.2-6.2c-2.1-3.6-4-7.3-6.2-10.8c-6.7-10.6-15.4-19.2-25.4-26.7c-0.6-0.4-1.1-0.8-1.9-1.4c0,0.7,0,1.1,0,1.5
		c0,16,0,32,0,48c0,10.4,0.1,20.7,0.2,31.1c0.2,11.3,0.5,22.7,0.7,34c0,1.1,0.4,2.3-0.1,3.1c-0.5,0.7-1.8,0.9-2.7,1.3
		c-4.9,2.1-9.7,4.3-14.6,6.4c-0.4,0.2-0.8,0.3-1.2,0.5c1.2-45.9,1-91.6,1.2-137.7c-19.7,19.4-42.2,34.6-66,48.3
		c-0.8-1.2-1.6-2.3-2.4-3.6c0.4-0.3,0.8-0.6,1.2-0.8c13.7-9.4,26.4-19.8,38.3-31.3c15.2-14.8,28.3-31.3,40.5-48.6
		c7.2-10.2,13.9-20.7,19.4-31.9c0.6-1.2,1.2-2.5,1.9-3.9c-0.5,0-0.9-0.1-1.3-0.1c-17.2,0-34.3-0.1-51.5,0c-8.4,0-16.7,1-24.9,3.2
		c-0.8,0.2-1.4,0.2-2.1-0.5c-2.9-3-5.8-5.8-8.7-8.8c-0.3-0.3-0.5-0.6-1-1.1c0.8,0,1.2,0,1.7,0c29,0,58.1,0,87.1,0
		c1.4,0,2.3-0.4,3.2-1.4c3.4-3.5,6.9-6.9,10.2-10.3C164.4,94.9,170.6,101.1,176.9,107.4z"/>
	<path d="M94.7,44.8c1-0.7,2-1.4,3-2c0.2-0.1,0.7-0.2,0.9,0c10.1,6.5,20.1,13.2,28.5,21.9c1,1.1,2,2.3,2.9,3.5c3,4.4,3.6,9.1,1.8,14
		c-1.3,3.8-3.5,7.1-6.3,9.9c-0.4,0.4-0.9,0.8-1.4,1.1c-2.2,1.5-4.2,1.3-5.6-0.9c-1.2-1.9-2.3-4.1-2.8-6.3
		c-2.7-11.4-8-21.7-14.3-31.4C99.3,51.4,97,48.2,94.7,44.8z"/>
</g>
</svg>
