<?xml version="1.0" encoding="utf-8"?>
<!-- Generator: Adobe Illustrator 20.1.0, SVG Export Plug-In . SVG Version: 6.00 Build 0)  -->
<svg version="1.1" id="图层_1" xmlns="http://www.w3.org/2000/svg" xmlns:xlink="http://www.w3.org/1999/xlink" x="0px" y="0px"
	 viewBox="0 0 360 360" style="enable-background:new 0 0 360 360;" xml:space="preserve">
<style type="text/css">
	.st0{fill:#FFFFFF;}
</style>
<g>
	<path class="st0" d="M0.2,360.5c0-120.1,0-240.2,0-360.2c120.1,0,240.2,0,360.2,0c0,120.1,0,240.2,0,360.2
		C240.4,360.5,120.3,360.5,0.2,360.5z M219.6,292.3c14.6,4.1,28.1,9.9,36.5,23.6c6.3-2.8,12.1-6.1,17.4-10.4c2-1.6,3.7-3.5,4.9-5.8
		c1.9-3.4,2.4-7.1,2.4-10.9c0-38.1,0-76.2,0-114.3c0-1.6-0.4-3.4,0.2-4.6c0.7-1.2,2.5-1.8,3.8-2.6c1.8-1.1,3.6-2.2,5.2-3.2
		c-5.5-5.5-11-11-16.5-16.5c-3.1,3.1-6.2,6.2-9.4,9.4c-0.7,0.7-1.4,1-2.4,1c-49.4,0-98.8,0-148.2,0c-0.8,0-1.6-0.2-2.3-0.5
		c-3.3-1.3-6.5-2.7-9.8-4c-3-1.2-6-2.5-9.1-3.7c0,0.3-0.1,0.5-0.1,0.7c0.1,3.3,0.2,6.5,0.3,9.8c0.2,10.2,0.4,20.4,0.5,30.6
		c0,11.4-0.1,22.7-0.3,34.1c-0.2,10.6-1.2,21.1-3.5,31.5c-1.7,7.6-3.9,15.1-8,21.8c-4.9,7.9-11.1,14.7-17.9,20.9
		c-5.2,4.7-10.8,9.2-16.2,13.7c-0.3,0.3-0.7,0.8-0.7,1.1c0.2,1.1,0.7,2.1,1,3.2c11.3-5.1,21.8-11.4,31.3-19.2
		c6.3-5.2,12.2-10.7,16.9-17.4c7.4-10.6,11.2-22.6,13-35.3c0.1-1.1,0.6-1.1,1.5-1.1c21.9,0,43.8,0,65.6,0c0.4,0,0.8,0,1.3,0.1
		c0,23.6,0,47,0,70.6c0.5-0.2,0.9-0.3,1.2-0.4c4.3-1.6,8.6-3.3,12.9-4.9c1-0.4,1.3-0.8,1.3-1.9c0-20.6,0-41.3,0-61.9
		c0-0.5,0-1,0-1.5c24.4,0,48.6,0,72.9,0c0,0.4,0,0.7,0,1c0,12,0,24,0,36c0,1-0.1,1.9-0.3,2.8c-0.8,3.7-2.8,5.8-5.8,6.2
		c-0.9,0.1-1.8,0.2-2.7,0.2c-9.2,0.2-18.4-0.8-27.5-1.8c-3.1-0.3-6.3-0.7-9.5-1.1C219.6,289.1,219.6,290.7,219.6,292.3z"/>
	<path d="M219.6,292.3c0-1.6,0-3.1,0-4.7c3.2,0.4,6.3,0.7,9.5,1.1c9.1,0.9,18.3,2,27.5,1.8c0.9,0,1.8-0.1,2.7-0.2
		c2.9-0.4,4.9-2.5,5.8-6.2c0.2-0.9,0.3-1.9,0.3-2.8c0-12,0-24,0-36c0-0.3,0-0.6,0-1c-24.3,0-48.5,0-72.9,0c0,0.5,0,1,0,1.5
		c0,20.6,0,41.3,0,61.9c0,1.1-0.3,1.5-1.3,1.9c-4.3,1.6-8.6,3.3-12.9,4.9c-0.4,0.1-0.7,0.3-1.2,0.4c0-23.6,0-47,0-70.6
		c-0.5,0-0.9-0.1-1.3-0.1c-21.9,0-43.8,0-65.6,0c-0.8,0-1.3,0.1-1.5,1.1c-1.7,12.7-5.6,24.7-13,35.3c-4.7,6.7-10.6,12.3-16.9,17.4
		c-9.5,7.8-19.9,14.1-31.3,19.2c-0.4-1.1-0.8-2.1-1-3.2c-0.1-0.3,0.3-0.8,0.7-1.1c5.4-4.6,10.9-9,16.2-13.7c6.8-6.2,13-13,17.9-20.9
		c4.1-6.7,6.4-14.2,8-21.8c2.3-10.4,3.3-20.9,3.5-31.5c0.2-11.4,0.3-22.7,0.3-34.1c0-10.2-0.3-20.4-0.5-30.6
		c-0.1-3.3-0.2-6.5-0.3-9.8c0-0.2,0-0.4,0.1-0.7c3.1,1.3,6.1,2.5,9.1,3.7c3.2,1.3,6.5,2.7,9.8,4c0.7,0.3,1.5,0.5,2.3,0.5
		c49.4,0,98.8,0,148.2,0c1,0,1.7-0.3,2.4-1c3.1-3.2,6.3-6.4,9.4-9.4c5.5,5.5,11,11,16.5,16.5c-1.6,1-3.4,2.1-5.2,3.2
		c-1.3,0.8-3.1,1.4-3.8,2.6c-0.7,1.2-0.2,3-0.2,4.6c0,38.1,0,76.2,0,114.3c0,3.8-0.5,7.5-2.4,10.9c-1.3,2.3-2.9,4.2-4.9,5.8
		c-5.3,4.3-11.1,7.6-17.4,10.4C247.7,302.1,234.2,296.4,219.6,292.3z M265.4,165.2c-24.4,0-48.6,0-72.8,0c0,11,0,21.9,0,32.7
		c24.3,0,48.6,0,72.8,0C265.4,187,265.4,176.1,265.4,165.2z M265.4,205.2c-24.3,0-48.6,0-72.8,0c0,10.6,0,21.1,0,31.6
		c24.3,0,48.5,0,72.8,0C265.4,226.3,265.4,215.8,265.4,205.2z M177.1,165.2c-22.4,0-44.7,0-67,0c0,11,0,21.8,0,32.7
		c22.4,0,44.6,0,67,0C177.1,187,177.1,176.1,177.1,165.2z M110.1,236.8c22.4,0,44.7,0,67,0c0-10.6,0-21.1,0-31.6
		c-22.3,0-44.6,0-67,0C110.1,215.8,110.1,226.2,110.1,236.8z"/>
	<path class="st0" d="M265.4,165.2c0,10.9,0,21.8,0,32.7c-24.3,0-48.5,0-72.8,0c0-10.9,0-21.8,0-32.7
		C216.8,165.2,241,165.2,265.4,165.2z"/>
	<path class="st0" d="M265.4,205.2c0,10.6,0,21.1,0,31.6c-24.3,0-48.5,0-72.8,0c0-10.5,0-21,0-31.6
		C216.8,205.2,241,205.2,265.4,205.2z"/>
	<path class="st0" d="M177.1,165.2c0,10.9,0,21.8,0,32.7c-22.3,0-44.6,0-67,0c0-10.9,0-21.8,0-32.7
		C132.4,165.2,154.7,165.2,177.1,165.2z"/>
	<path class="st0" d="M110.1,236.8c0-10.6,0-21,0-31.6c22.3,0,44.6,0,67,0c0,10.5,0,21,0,31.6C154.8,236.8,132.5,236.8,110.1,236.8z
		"/>
</g>
</svg>
