<?xml version="1.0" encoding="utf-8"?>
<!-- Generator: Adobe Illustrator 20.1.0, SVG Export Plug-In . SVG Version: 6.00 Build 0)  -->
<svg version="1.1" id="图层_1" xmlns="http://www.w3.org/2000/svg" xmlns:xlink="http://www.w3.org/1999/xlink" x="0px" y="0px"
	 viewBox="0 0 360 360" style="enable-background:new 0 0 360 360;" xml:space="preserve">
<style type="text/css">
	.st0{fill:#FFFFFF;}
</style>
<g>
	<path class="st0" d="M0.2,360.5c0-120.1,0-240.2,0-360.2c120.1,0,240.2,0,360.2,0c0,120.1,0,240.2,0,360.2
		C240.4,360.5,120.3,360.5,0.2,360.5z M46.4,307.6c0.1,0.1,0.2,0.2,0.3,0.3c0.8,0.6,1.7,1.1,2.5,1.7c0.6,0.4,0.9,0.2,1.3-0.2
		c8.5-8.6,16.2-17.9,23-27.9c8.8-13.2,15.4-27.4,20.2-42.5c5.1-15.9,8.5-32.1,9.1-48.9c0.1-1.7,0-3.3,0-4.9c22.2,0,44,0,66,0
		c0,18.8,0,37.5,0,56.3c0.5-0.2,0.9-0.3,1.3-0.4c4.7-1.7,9.3-3.3,14-5c1-0.3,1.3-0.8,1.3-1.9c0-15.8,0-31.7,0-47.5c0-0.5,0-1,0-1.6
		c24.4,0,48.6,0,73,0c0,0.5,0,1,0,1.5c0,12.4,0,24.8,0,37.2c0,1.6-0.1,3.1-0.4,4.7c-0.8,5.2-2.6,6.9-7.9,6.7
		c-9.1-0.3-18.1-0.8-27.2-1.3c-2.7-0.1-5.3-0.4-8-0.5c0,1.6,0,3.2,0,4.7c2.3,0.5,4.5,0.9,6.7,1.5c6,1.5,11.9,3.5,17,7.2
		c4,2.9,6.9,6.6,7.8,11.7c0.2,1.4,0.3,2.9,0.4,4.4c6.1-1.4,11.8-3.4,17-7c6.4-4.5,10.3-10.5,11.1-18.4c0.3-3,0.1-6.1,0.1-9.1
		c0-47.9,0-95.8,0-143.6c0-4.3,0-8.6,0-12.8c0-0.6,0.3-1.3,0.8-1.7c2.6-2.4,5.3-4.7,7.9-7c0.2-0.2,0.4-0.4,0.7-0.7
		c-6.7-4.7-13.3-9.4-20-14.1c-0.3,0.4-0.5,0.6-0.7,0.9c-2.3,3.2-4.6,6.5-6.8,9.7c-0.6,0.8-1.2,1.1-2.1,1.1c-50.2,0-100.4,0-150.6,0
		c-0.7,0-1.6-0.2-2.2-0.6c-5.2-3-10.3-6.1-15.4-9.2c-0.4-0.2-0.7-0.4-1.2-0.7c0,0.4,0,0.7,0,0.9c0.1,5.8,0.3,11.6,0.4,17.4
		c0.2,9.1,0.4,18.2,0.5,27.3c0.1,10.5,0.3,21,0.3,31.4c-0.1,17.5-0.4,34.9-0.7,52.4c-0.1,7.4-0.5,14.8-1.1,22.1
		c-0.9,11.1-2.9,22.1-5.4,33c-5,21.9-13.1,42.5-25,61.5C51.7,299.7,49,303.6,46.4,307.6z"/>
	<path d="M46.4,307.6c2.6-4,5.3-7.9,7.8-12c11.9-19,20-39.6,25-61.5c2.5-10.9,4.5-21.8,5.4-33c0.6-7.4,0.9-14.8,1.1-22.1
		c0.3-17.5,0.6-34.9,0.7-52.4c0.1-10.5-0.1-21-0.3-31.4C86,86.1,85.8,77,85.6,67.9c-0.1-5.8-0.3-11.6-0.4-17.4c0-0.2,0-0.5,0-0.9
		c0.5,0.3,0.9,0.5,1.2,0.7c5.1,3.1,10.3,6.2,15.4,9.2c0.6,0.4,1.5,0.6,2.2,0.6c50.2,0,100.4,0,150.6,0c1,0,1.6-0.3,2.1-1.1
		c2.2-3.3,4.5-6.5,6.8-9.7c0.2-0.3,0.4-0.6,0.7-0.9c6.7,4.7,13.3,9.4,20,14.1c-0.3,0.3-0.4,0.5-0.7,0.7c-2.6,2.3-5.3,4.6-7.9,7
		c-0.4,0.4-0.8,1.1-0.8,1.7c-0.1,4.3,0,8.6,0,12.8c0,47.9,0,95.8,0,143.6c0,3,0.2,6.1-0.1,9.1c-0.8,7.8-4.6,13.9-11.1,18.4
		c-5.1,3.6-10.9,5.6-17,7c-0.1-1.5-0.2-3-0.4-4.4c-0.9-5-3.8-8.7-7.8-11.7c-5.1-3.7-11-5.7-17-7.2c-2.2-0.6-4.4-1-6.7-1.5
		c0-1.5,0-3.1,0-4.7c2.7,0.2,5.4,0.4,8,0.5c9.1,0.5,18.1,1,27.2,1.3c5.3,0.2,7.1-1.4,7.9-6.7c0.2-1.5,0.4-3.1,0.4-4.7
		c0-12.4,0-24.8,0-37.2c0-0.5,0-0.9,0-1.5c-24.4,0-48.6,0-73,0c0,0.6,0,1.1,0,1.6c0,15.8,0,31.7,0,47.5c0,1.1-0.3,1.5-1.3,1.9
		c-4.7,1.6-9.3,3.3-14,5c-0.4,0.1-0.7,0.2-1.3,0.4c0-18.8,0-37.5,0-56.3c-22,0-43.8,0-66,0c0,1.6,0,3.3,0,4.9
		c-0.6,16.7-4,32.9-9.1,48.9c-4.8,15.1-11.4,29.3-20.2,42.5c-6.7,10.1-14.5,19.3-23,27.9c-0.4,0.4-0.7,0.6-1.3,0.2
		c-0.8-0.6-1.7-1.1-2.5-1.7C46.6,307.8,46.5,307.7,46.4,307.6z M185.5,125.1c0,17.7,0,35.2,0,52.8c24.3,0,48.5,0,72.8,0
		c0-17.6,0-35.2,0-52.8C234,125.1,209.8,125.1,185.5,125.1z M185.5,117.8c24.3,0,48.6,0,72.8,0c0-16.9,0-33.7,0-50.4
		c-24.3,0-48.5,0-72.8,0C185.5,84.2,185.5,100.9,185.5,117.8z M103,177.8c22,0,43.9,0,65.7,0c0-17.7,0-35.2,0-52.8
		c-21.9,0-43.8,0-65.7,0C103,142.7,103,160.2,103,177.8z M103,67.3c0,16.9,0,33.7,0,50.5c22,0,43.8,0,65.7,0c0-16.9,0-33.6,0-50.5
		C146.8,67.3,124.9,67.3,103,67.3z"/>
	<path class="st0" d="M185.5,125.1c24.3,0,48.5,0,72.8,0c0,17.6,0,35.1,0,52.8c-24.2,0-48.5,0-72.8,0
		C185.5,160.3,185.5,142.7,185.5,125.1z"/>
	<path class="st0" d="M185.5,117.8c0-16.9,0-33.6,0-50.4c24.3,0,48.5,0,72.8,0c0,16.8,0,33.6,0,50.4
		C234,117.8,209.8,117.8,185.5,117.8z"/>
	<path class="st0" d="M103,177.8c0-17.6,0-35.2,0-52.8c21.9,0,43.8,0,65.7,0c0,17.6,0,35.1,0,52.8C146.9,177.8,125,177.8,103,177.8z
		"/>
	<path class="st0" d="M103,67.3c21.9,0,43.8,0,65.7,0c0,16.8,0,33.6,0,50.5c-21.9,0-43.8,0-65.7,0C103,101,103,84.2,103,67.3z"/>
</g>
</svg>
