<?xml version="1.0" encoding="utf-8"?>
<!-- Generator: Adobe Illustrator 20.1.0, SVG Export Plug-In . SVG Version: 6.00 Build 0)  -->
<svg version="1.1" id="图层_1" xmlns="http://www.w3.org/2000/svg" xmlns:xlink="http://www.w3.org/1999/xlink" x="0px" y="0px"
	 viewBox="0 0 360 360" style="enable-background:new 0 0 360 360;" xml:space="preserve">
<style type="text/css">
	.st0{fill:#FFFFFF;}
</style>
<g>
	<path class="st0" d="M0.2,360.5c0-120.1,0-240.2,0-360.2c120.1,0,240.2,0,360.2,0c0,120.1,0,240.2,0,360.2
		C240.4,360.5,120.3,360.5,0.2,360.5z M251.3,318.1c0.2,0,0.3,0,0.4-0.1c6.4-2.3,12.5-5.2,18.1-9.2c3.4-2.5,5.7-5.8,7-9.8
		c1.2-3.8,1.7-7.6,1.7-11.6c0-30.9,0-61.8,0-92.6c0-15.8,0-31.6,0-47.4c0-1,0.3-1.5,1.1-2c3.2-1.9,6.5-3.8,9.7-5.8
		c0.3-0.2,0.6-0.4,0.8-0.5c-5.5-5.5-11-11-16.5-16.5c-3.5,3.5-7.1,7.1-10.7,10.8c-0.6,0.6-1.1,0.8-2,0.8c-51.5,0-103,0-154.4,0
		c-0.7,0-1.4-0.2-2-0.5c-4.8-2.7-9.6-5.5-14.4-8.2c-0.4-0.2-0.7-0.4-1.2-0.6c1.7,64.5,1.4,128.8,0,193.2c0.6-0.3,0.9-0.4,1.3-0.6
		c4.7-2.3,9.3-4.7,14-7c0.9-0.4,1.2-0.9,1.2-2c0-23,0-45.9,0-68.9c0-0.5,0-1,0-1.6c23.6,0,47,0,70.8,0c-0.4,26.7-0.8,53.3-1.2,80
		c0.2,0,0.4-0.1,0.5-0.1c5.5-2.2,11-4.4,16.5-6.6c0.7-0.3,0.7-0.6,0.6-1.2c-0.1-2.4-0.3-4.8-0.4-7.2c-0.2-12.4-0.5-24.9-0.6-37.3
		c-0.1-5.7-0.1-11.4-0.1-17c0-3.5,0-7,0-10.6c24,0,47.8,0,71.7,0c0,0.3,0.1,0.5,0.1,0.7c0,14.1,0,28.2,0,42.2c0,2.4-0.6,4.6-1.8,6.6
		c-1.1,1.9-2.6,3.1-4.9,3.2c-1.1,0-2.2,0.2-3.2,0.2c-8.9,0.1-17.8-1.3-26.6-2.6c-2.3-0.3-4.6-0.7-7-1c0,1.6,0,3.2,0,4.8
		c6.9,1.8,13.4,4.5,19.1,8.9C244.4,305.7,248.5,311.4,251.3,318.1z"/>
	<path d="M251.3,318.1c-2.8-6.7-6.9-12.4-12.6-16.9c-5.7-4.4-12.1-7.2-19.1-8.9c0-1.6,0-3.1,0-4.8c2.4,0.4,4.7,0.7,7,1
		c8.8,1.3,17.6,2.6,26.6,2.6c1.1,0,2.2-0.2,3.2-0.2c2.3-0.1,3.8-1.3,4.9-3.2c1.2-2.1,1.8-4.3,1.8-6.6c0-14.1,0-28.2,0-42.2
		c0-0.2,0-0.5-0.1-0.7c-23.9,0-47.8,0-71.7,0c0,3.6,0,7.1,0,10.6c0,5.7,0,11.4,0.1,17c0.2,12.4,0.4,24.9,0.6,37.3
		c0,2.4,0.2,4.8,0.4,7.2c0,0.6,0,0.9-0.6,1.2c-5.5,2.2-11,4.4-16.5,6.6c-0.1,0.1-0.3,0.1-0.5,0.1c0.4-26.7,0.8-53.3,1.2-80
		c-23.7,0-47.2,0-70.8,0c0,0.6,0,1.1,0,1.6c0,23,0,45.9,0,68.9c0,1-0.3,1.5-1.2,2c-4.7,2.3-9.4,4.7-14,7c-0.4,0.2-0.7,0.3-1.3,0.6
		c1.4-64.4,1.7-128.7,0-193.2c0.5,0.3,0.8,0.4,1.2,0.6c4.8,2.7,9.6,5.5,14.4,8.2c0.6,0.3,1.3,0.5,2,0.5c51.5,0,103,0,154.4,0
		c0.8,0,1.4-0.3,2-0.8c3.6-3.6,7.2-7.2,10.7-10.8c5.5,5.5,11,11,16.5,16.5c-0.1,0.1-0.4,0.3-0.8,0.5c-3.2,1.9-6.4,3.9-9.7,5.8
		c-0.8,0.5-1.1,1-1.1,2c0,15.8,0,31.6,0,47.4c0,30.9,0,61.8,0,92.6c0,3.9-0.5,7.8-1.7,11.6c-1.3,4-3.5,7.3-7,9.8
		c-5.6,4-11.7,6.8-18.1,9.2C251.6,318.1,251.5,318.1,251.3,318.1z M191.3,230.8c24,0,47.8,0,71.7,0c0-14.1,0-28.1,0-42.1
		c-23.9,0-47.8,0-71.7,0C191.3,202.8,191.3,216.8,191.3,230.8z M105.4,230.8c23.6,0,47,0,70.5,0c0-14.1,0-28.1,0-42.1
		c-23.5,0-47,0-70.5,0C105.4,202.8,105.4,216.8,105.4,230.8z M263,141.6c-24,0-47.8,0-71.7,0c0,13.3,0,26.6,0,39.8
		c23.9,0,47.8,0,71.7,0C263,168.1,263,154.9,263,141.6z M105.4,181.4c23.6,0,47,0,70.5,0c0-13.3,0-26.5,0-39.8c-23.5,0-47,0-70.5,0
		C105.4,154.9,105.4,168.1,105.4,181.4z"/>
	<path class="st0" d="M191.3,230.8c0-14.1,0-28.1,0-42.1c23.9,0,47.7,0,71.7,0c0,14,0,28,0,42.1
		C239.1,230.8,215.3,230.8,191.3,230.8z"/>
	<path class="st0" d="M105.4,230.8c0-14.1,0-28,0-42.1c23.5,0,46.9,0,70.5,0c0,14,0,28,0,42.1C152.4,230.8,129,230.8,105.4,230.8z"
		/>
	<path class="st0" d="M263,141.6c0,13.3,0,26.5,0,39.8c-23.9,0-47.8,0-71.7,0c0-13.3,0-26.5,0-39.8
		C215.2,141.6,239.1,141.6,263,141.6z"/>
	<path class="st0" d="M105.4,181.4c0-13.3,0-26.5,0-39.8c23.5,0,47,0,70.5,0c0,13.3,0,26.5,0,39.8
		C152.4,181.4,128.9,181.4,105.4,181.4z"/>
</g>
</svg>
