<?xml version="1.0" encoding="utf-8"?>
<!-- Generator: Adobe Illustrator 20.1.0, SVG Export Plug-In . SVG Version: 6.00 Build 0)  -->
<svg version="1.1" id="图层_1" xmlns="http://www.w3.org/2000/svg" xmlns:xlink="http://www.w3.org/1999/xlink" x="0px" y="0px"
	 viewBox="0 0 360 360" style="enable-background:new 0 0 360 360;" xml:space="preserve">
<style type="text/css">
	.st0{fill:#FFFFFF;}
</style>
<g>
	<path class="st0" d="M0.2,360.5c0-120.1,0-240.2,0-360.2c120.1,0,240.2,0,360.2,0c0,120.1,0,240.2,0,360.2
		C240.4,360.5,120.3,360.5,0.2,360.5z M299.7,203.9c-7.2-7.6-14.2-15-21.5-22.7c-0.3,0.4-0.4,0.9-0.7,1.2
		c-4.4,4.4-8.8,8.8-13.2,13.3c-0.8,0.8-1.6,1.1-2.7,1.1c-63,0-125.9,0-188.9,0c-0.5,0-0.9,0-1.6,0c0.2,0.3,0.4,0.5,0.5,0.6
		c3.2,3.2,6.3,6.4,9.5,9.5c0.3,0.3,1.1,0.4,1.6,0.3c8.3-2.1,16.6-3.2,25.2-3.2c21.8,0,43.7,0,65.5,0c0.4,0,0.8,0,1.3,0
		c0,12.6,0,25.1,0,37.6c-29.4,0-58.7,0-88.2,0c0.4,0.5,0.7,0.7,0.9,1c2.9,2.9,5.7,5.7,8.5,8.6c0.8,0.8,1.4,1,2.5,0.7
		c8.2-2.2,16.6-3.2,25.1-3.2c16.6-0.1,33.2,0,49.8,0c0.4,0,0.9,0,1.3,0c0,16.6,0,33,0,49.5c-40,0-79.9,0-120,0
		c3.5,3.5,6.9,6.9,10.2,10.2c0.2,0.2,0.8,0.3,1.2,0.2c9.6-2.5,19.3-3.3,29.2-3.3c71.5,0,143,0,214.4,0c0.5,0,1,0,1.8,0
		c-7.2-8-14.2-15.8-21.3-23.6c-0.4,0.4-0.7,0.6-1,1c-4.9,4.9-9.9,9.8-14.8,14.8c-0.5,0.6-1.1,0.8-1.9,0.8c-26.7,0-53.4,0-80,0
		c-0.4,0-0.8,0-1.2,0c0-16.6,0-33,0-49.5c30.2,0,60.3,0,90.6,0c-7.2-7.6-14.2-15-21.2-22.4c-0.4,0.4-0.7,0.6-1,0.9
		c-4.9,4.5-9.8,9.1-14.7,13.6c-0.5,0.5-1.3,0.8-2,0.8c-16.8,0-33.7,0-50.5,0c-0.4,0-0.8,0-1.3-0.1c0-12.6,0-25,0-37.5
		C227.4,203.9,263.4,203.9,299.7,203.9z M216,258c4,3,8,5.9,11.8,8.9c7.9,6.3,15,13.4,20.4,22.1c0.9,1.5,2.2,2.9,3.5,4.1
		c2.8,2.6,5.5,2.3,7.4-1.1c1.2-2.2,2.1-4.7,2.7-7.1c1.9-7.5-0.7-13.2-7.4-17.1c-1.6-0.9-3.3-1.8-5-2.6c-8.2-3.8-16.8-6.4-25.5-8.9
		c-2.2-0.6-4.4-1.2-6.6-1.8C216.7,255.8,216.4,256.9,216,258z"/>
	<path d="M299.7,203.9c-36.3,0-72.3,0-108.4,0c0,12.6,0,25,0,37.5c0.4,0,0.8,0.1,1.3,0.1c16.8,0,33.7,0,50.5,0c0.7,0,1.5-0.3,2-0.8
		c4.9-4.5,9.8-9.1,14.7-13.6c0.3-0.3,0.6-0.5,1-0.9c7,7.4,14,14.8,21.2,22.4c-30.3,0-60.5,0-90.6,0c0,16.5,0,32.9,0,49.5
		c0.4,0,0.8,0,1.2,0c26.7,0,53.4,0,80,0c0.8,0,1.3-0.2,1.9-0.8c4.9-4.9,9.8-9.9,14.8-14.8c0.3-0.3,0.6-0.6,1-1
		c7.1,7.8,14,15.6,21.3,23.6c-0.8,0-1.3,0-1.8,0c-71.5,0-143,0-214.4,0c-9.9,0-19.6,0.8-29.2,3.3c-0.4,0.1-0.9,0-1.2-0.2
		c-3.4-3.3-6.7-6.6-10.2-10.2c40.2,0,80,0,120,0c0-16.5,0-32.9,0-49.5c-0.4,0-0.9,0-1.3,0c-16.6,0-33.2-0.1-49.8,0
		c-8.5,0-16.9,1-25.1,3.2c-1.1,0.3-1.7,0.1-2.5-0.7c-2.8-2.9-5.7-5.7-8.5-8.6c-0.3-0.3-0.5-0.6-0.9-1c29.5,0,58.8,0,88.2,0
		c0-12.6,0-25,0-37.6c-0.4,0-0.8,0-1.3,0c-21.8,0-43.7,0-65.5,0c-8.5,0-16.9,1.1-25.2,3.2c-0.5,0.1-1.2,0-1.6-0.3
		c-3.2-3.1-6.4-6.3-9.5-9.5c-0.1-0.1-0.2-0.3-0.5-0.6c0.7,0,1.1,0,1.6,0c63,0,125.9,0,188.9,0c1.1,0,1.9-0.3,2.7-1.1
		c4.4-4.4,8.8-8.8,13.2-13.3c0.3-0.3,0.5-0.8,0.7-1.2C285.5,188.9,292.5,196.3,299.7,203.9z"/>
	<path d="M216,258c0.4-1.1,0.7-2.2,1.2-3.4c2.3,0.6,4.5,1.2,6.6,1.8c8.7,2.5,17.3,5.1,25.5,8.9c1.7,0.8,3.4,1.6,5,2.6
		c6.7,3.9,9.2,9.6,7.4,17.1c-0.6,2.5-1.5,4.9-2.7,7.1c-1.8,3.4-4.5,3.7-7.4,1.1c-1.3-1.2-2.5-2.6-3.5-4.1
		c-5.4-8.7-12.5-15.8-20.4-22.1C224,263.9,220,261,216,258z"/>
</g>
</svg>
