<?xml version="1.0" encoding="utf-8"?>
<!-- Generator: Adobe Illustrator 20.1.0, SVG Export Plug-In . SVG Version: 6.00 Build 0)  -->
<svg version="1.1" id="图层_1" xmlns="http://www.w3.org/2000/svg" xmlns:xlink="http://www.w3.org/1999/xlink" x="0px" y="0px"
	 viewBox="0 0 360 360" style="enable-background:new 0 0 360 360;" xml:space="preserve">
<style type="text/css">
	.st0{fill:#FFFFFF;}
</style>
<g>
	<path class="st0" d="M0.2,360.5c0-120.1,0-240.2,0-360.2c120.1,0,240.2,0,360.2,0c0,120.1,0,240.2,0,360.2
		C240.4,360.5,120.3,360.5,0.2,360.5z M53.7,88.4c0,0.1-0.1,0.2-0.1,0.3c3.2,3.2,6.4,6.4,9.6,9.6c0.6,0.6,1.2,0.7,2,0.5
		c4.7-0.9,9.5-2.1,14.3-2.5c7.1-0.6,14.2-0.6,21.3-0.8c0.3,0,0.6,0.1,0.9,0.1c0,11,0,21.8,0,32.9c-13.7,0-27.3,0-41.2,0
		c3.6,3.6,6.9,7,10.3,10.3c0.2,0.2,0.7,0.3,1.1,0.2c7.1-1.8,14.3-2.9,21.5-3.2c2.7-0.1,5.5,0,8.3,0c0,10.9,0,21.8,0,32.8
		c-18.8,0-37.5,0-56.5,0c0.4,0.4,0.6,0.7,0.9,1c3,3,6,5.9,8.9,8.9c0.6,0.6,1.1,0.7,1.9,0.5c6.5-1.7,13.1-2.8,19.9-3
		c7.4-0.2,14.7-0.2,22.1-0.2c0.1,0,0.3,0.1,0.5,0.1c-2.2,7.8-4.9,15.4-7.9,22.9c-11.8,29.5-28.6,56-48.6,80.6
		c0.8,1.2,1.6,2.3,2.4,3.6c11.6-9.9,21.9-20.8,31.2-32.7c9.3-11.8,17.6-24.4,25-37.4c0.2,0,0.3,0.1,0.5,0.1
		c-0.4,34.3-0.8,68.5-1.2,102.8c0,0,0,0,0.1,0c5.6-3,11.3-6,16.9-9c0.3-0.1,0.5-0.6,0.5-0.9c-0.2-10.4-0.6-20.9-0.8-31.3
		c-0.2-7.8-0.2-15.7-0.2-23.5c-0.1-17.7-0.1-35.4-0.1-53c0-0.2,0.1-0.5,0.2-1.1c1.7,1.7,3.1,3.3,4.6,4.8
		c9.2,9.4,16.8,19.9,21.2,32.4c1.1,3.1,2.5,6.1,4.7,8.5c2.2,2.5,4.7,2.6,6.9,0.2c2.1-2.2,3.7-4.8,4.6-7.8c1.7-5.6,0.4-10.7-2.5-15.5
		c-3.1-5.2-7.6-9.1-12.6-12.5c-8.2-5.7-17.1-10.2-26.1-14.5c-0.9-0.4-1.2-0.9-1.2-1.9c0.1-4.6,0-9.2,0-13.8c0-0.4,0-0.8,0-1.4
		c18.5,0,36.8,0,55.4,0c-6.4-6.8-12.6-13.4-18.9-20.1c-4.1,4.1-8.2,8.1-12.1,12.2c-0.6,0.6-1.1,0.8-2,0.8c-7,0-14,0-21,0
		c-0.4,0-0.8,0-1.3,0c0-11.1,0-22,0-32.9c14.9,0,29.6,0,44.7,0c-6-6.4-11.8-12.6-17.9-19.1c-0.3,0.4-0.5,0.8-0.8,1.1
		c-3.4,3.4-6.7,6.8-10.1,10.1c-0.4,0.4-1.1,0.7-1.6,0.7c-4.4,0.1-8.8,0-13.2,0c-0.3,0-0.7,0-1-0.1c0-11,0-21.9,0-32.9
		c16.1,0,32,0,48.2,0c-6-6.4-11.8-12.6-17.6-18.8c-0.4,0.3-0.7,0.6-0.9,0.9c-3.4,3.4-6.7,6.7-10.1,10.1c-0.6,0.6-1.2,0.8-2,0.8
		c-5.4,0-10.8,0-16.2,0c-0.4,0-0.9,0-1.3,0c0-0.4-0.1-0.7-0.1-0.9c0-8,0-16.1,0-24.1c0-0.5,0.4-1.1,0.8-1.5c2.8-2.5,5.7-5,8.7-7.6
		c-8.7-4.3-17.3-8.6-25.7-12.8c0.3,15.6,0.7,31.2,1,47C85.6,88.4,69.7,88.4,53.7,88.4z"/>
	<path d="M53.7,88.4c15.9,0,31.9,0,48.2,0c-0.3-15.7-0.7-31.3-1-47c8.4,4.2,17,8.5,25.7,12.8c-3,2.6-5.9,5.1-8.7,7.6
		c-0.4,0.3-0.8,1-0.8,1.5c0,8,0,16.1,0,24.1c0,0.3,0,0.5,0.1,0.9c0.5,0,0.9,0,1.3,0c5.4,0,10.8,0,16.2,0c0.8,0,1.4-0.2,2-0.8
		c3.3-3.4,6.7-6.7,10.1-10.1c0.3-0.3,0.6-0.5,0.9-0.9c5.9,6.2,11.7,12.4,17.6,18.8c-16.2,0-32.1,0-48.2,0c0,11,0,21.9,0,32.9
		c0.3,0,0.7,0.1,1,0.1c4.4,0,8.8,0,13.2,0c0.6,0,1.2-0.3,1.6-0.7c3.4-3.3,6.8-6.7,10.1-10.1c0.3-0.3,0.5-0.7,0.8-1.1
		c6,6.4,11.9,12.7,17.9,19.1c-15,0-29.8,0-44.7,0c0,11,0,21.9,0,32.9c0.4,0,0.8,0,1.3,0c7,0,14,0,21,0c0.8,0,1.4-0.3,2-0.8
		c4-4,8-8,12.1-12.2c6.3,6.7,12.5,13.3,18.9,20.1c-18.6,0-36.9,0-55.4,0c0,0.5,0,1,0,1.4c0,4.6,0,9.2,0,13.8c0,1,0.3,1.5,1.2,1.9
		c9,4.3,17.8,8.8,26.1,14.5c4.9,3.4,9.5,7.3,12.6,12.5c2.9,4.8,4.2,9.9,2.5,15.5c-0.9,3-2.5,5.5-4.6,7.8c-2.2,2.3-4.7,2.2-6.9-0.2
		c-2.2-2.5-3.7-5.5-4.7-8.5c-4.4-12.6-12-23-21.2-32.4c-1.5-1.5-2.9-3.1-4.6-4.8c-0.1,0.6-0.2,0.8-0.2,1.1c0,17.7,0,35.4,0.1,53
		c0,7.8,0.1,15.7,0.2,23.5c0.2,10.4,0.5,20.9,0.8,31.3c0,0.3-0.2,0.8-0.5,0.9c-5.6,3-11.3,6-16.9,9c0,0-0.1,0-0.1,0
		c0.4-34.3,0.8-68.5,1.2-102.8c-0.2,0-0.3-0.1-0.5-0.1c-7.5,13.1-15.7,25.6-25,37.4C67.1,262,56.8,273,45.2,282.9
		c-0.8-1.3-1.6-2.4-2.4-3.6c20-24.6,36.8-51.1,48.6-80.6c3-7.5,5.6-15.1,7.9-22.9c-0.2,0-0.4-0.1-0.5-0.1c-7.4,0.1-14.7,0-22.1,0.2
		c-6.7,0.2-13.4,1.3-19.9,3c-0.8,0.2-1.3,0.1-1.9-0.5c-2.9-3-5.9-6-8.9-8.9c-0.2-0.2-0.5-0.5-0.9-1c19,0,37.7,0,56.5,0
		c0-11,0-21.9,0-32.8c-2.8,0-5.6-0.1-8.3,0c-7.3,0.3-14.5,1.3-21.5,3.2c-0.3,0.1-0.9,0-1.1-0.2c-3.4-3.3-6.7-6.7-10.3-10.3
		c13.9,0,27.5,0,41.2,0c0-11,0-21.9,0-32.9c-0.3,0-0.6-0.1-0.9-0.1c-7.1,0.2-14.2,0.2-21.3,0.8c-4.8,0.4-9.5,1.6-14.3,2.5
		c-0.8,0.2-1.4,0.1-2-0.5c-3.2-3.2-6.4-6.4-9.6-9.6C53.7,88.6,53.7,88.5,53.7,88.4z"/>
</g>
</svg>
