<?xml version="1.0" encoding="utf-8"?>
<!-- Generator: Adobe Illustrator 20.1.0, SVG Export Plug-In . SVG Version: 6.00 Build 0)  -->
<svg version="1.1" id="图层_1" xmlns="http://www.w3.org/2000/svg" xmlns:xlink="http://www.w3.org/1999/xlink" x="0px" y="0px"
	 viewBox="0 0 360 360" style="enable-background:new 0 0 360 360;" xml:space="preserve">
<style type="text/css">
	.st0{fill:#FFFFFF;}
</style>
<g>
	<path class="st0" d="M-0.1,360.1c0-120.1,0-240.2,0-360.2c120.1,0,240.2,0,360.2,0c0,120.1,0,240.2,0,360.2
		C240,360.1,120,360.1-0.1,360.1z M138,53.9c-8.3-4.4-16.5-8.6-24.8-13c-0.1,24.5,0.1,48.8-1.1,73c-9.9,0-19.6,0-29.4,0
		c0-0.4-0.1-0.6-0.1-0.9c0-11.5,0-23,0-34.6c0-0.5,0.4-1.2,0.8-1.5c2.5-2,5.2-3.9,7.7-5.9c0.2-0.2,0.4-0.4,0.7-0.7
		c-7.9-3.6-15.7-7-23.6-10.6c0,0.7,0,1.2,0,1.6c0,15.8,0,31.7,0,47.5c0,1.2-0.4,1.9-1.4,2.4c-2.4,1.4-4.8,2.9-7.1,4.4
		c-0.3,0.2-0.6,0.4-0.9,0.6c5.9,4.4,11.8,8.6,17.7,13c2.2-2.6,4.3-5,6.4-7.5c0.5-0.6,1-0.8,1.8-0.8c8.2,0,16.4,0,24.6,0
		c0.4,0,0.8,0,1.3,0c-0.2,0.6-0.4,1.1-0.6,1.6c-3.9,10.3-10.3,18.9-18.3,26.4c-9,8.5-19.3,15.1-30.3,20.7c-2,1.1-4.1,2.1-6.3,3.1
		c0.6,1,1.3,1.8,1.8,2.7c0.4,0.8,0.9,0.8,1.6,0.5c4.5-2,9.1-3.8,13.6-5.9c11.7-5.4,22.9-11.6,32.8-19.9c6.8-5.7,12.8-12.2,16.6-20.4
		c1.3-2.8,2.3-5.8,3.4-8.8c9.9,0,20,0,30.3,0c0,3.9,0,7.8,0,11.7c0.3-0.1,0.4-0.1,0.5-0.2c3.9-2.1,7.8-4.4,11.9-6.3
		c2.4-1.1,3-2.4,2.9-5.1c-0.5-14.2-0.7-28.4-1.1-42.7c0-0.8,0.2-1.3,0.9-1.7c2.4-1.4,4.7-2.9,7-4.4c0.5-0.3,0.9-0.6,1.5-1
		c-8-3.6-15.7-7.1-23.7-10.7c0,17.9,0,35.4,0,53c-9.8,0-19.5,0-29.2,0c0-0.2-0.1-0.3-0.1-0.3c0.3-9.5,0.8-18.9,1-28.4
		c0.2-7.7,0.1-15.4,0.1-23c0-0.8,0.3-1.3,0.9-1.7C131.4,58.3,134.6,56.2,138,53.9z M189.7,117.5c5.6,4.4,11,8.7,16.5,13
		c0.3-0.3,0.6-0.6,0.8-0.9c2.2-2.6,4.5-5.1,6.7-7.7c0.5-0.6,1.1-0.9,1.9-0.9c9.3,0,18.6,0,28,0c0.4,0,0.9,0,1.4,0
		c0,13.4,0,26.6,0,40c0.5-0.2,0.9-0.4,1.2-0.5c4-2,7.9-4,11.9-5.9c0.8-0.4,1.1-0.9,1.1-1.8c0-10.1,0-20.2,0-30.2c0-0.5,0-0.9,0-1.5
		c11,0,21.9,0,32.9,0c0,2.7,0,5.4,0,8.1c0.3-0.1,0.4-0.1,0.6-0.2c4.7-2.5,9.4-5,14.1-7.6c0.3-0.2,0.6-0.8,0.6-1.2
		c-0.2-5.2-0.6-10.5-0.7-15.7c-0.2-8.8-0.3-17.5-0.4-26.3c0-0.4,0.3-0.9,0.6-1.1c1.6-1.1,3.2-2.1,4.9-3.1c1.3-0.8,2.5-1.6,4-2.5
		c-8-3.6-15.8-7.1-23.7-10.7c0,17.8,0,35.4,0,53c-11,0-21.9,0-32.9,0c0-0.6,0-1,0-1.5c0-15.6,0.1-31.3-0.1-46.9
		c0-2.4,0.6-3.9,2.7-5.1c2.7-1.5,5.2-3.4,8-5.2c-8.3-4.4-16.5-8.6-24.9-13c0,24.1,0,48,0,71.9c-11.4,0-22.7,0-34,0
		c0-0.6,0-1.1,0-1.6c0-11.2,0-22.4,0-33.6c0-1.7,0.5-2.9,1.8-3.9c2.2-1.7,4.2-3.6,6.5-5.5c-7.6-3.6-15-7.1-22.5-10.7
		c0,0.7,0,1.2,0,1.7c0,16.7,0,33.4,0,50.2c0,0.9-0.3,1.5-1,2.1C193.7,114.1,191.7,115.8,189.7,117.5z"/>
	<path d="M138,53.9c-3.4,2.2-6.5,4.4-9.7,6.5c-0.7,0.4-0.9,0.9-0.9,1.7c0,7.7,0.1,15.4-0.1,23c-0.2,9.5-0.7,18.9-1,28.4
		c0,0.1,0,0.2,0.1,0.3c9.7,0,19.4,0,29.2,0c0-17.5,0-35.1,0-53c8,3.6,15.8,7.1,23.7,10.7c-0.6,0.4-1,0.7-1.5,1c-2.3,1.5-4.7,3-7,4.4
		c-0.7,0.4-0.9,0.9-0.9,1.7c0.3,14.2,0.6,28.4,1.1,42.7c0.1,2.6-0.6,3.9-2.9,5.1c-4,1.9-7.9,4.2-11.9,6.3c-0.1,0.1-0.2,0.1-0.5,0.2
		c0-3.9,0-7.8,0-11.7c-10.3,0-20.4,0-30.3,0c-1.1,3-2.1,6-3.4,8.8c-3.8,8.2-9.8,14.6-16.6,20.4c-9.9,8.3-21.1,14.5-32.8,19.9
		c-4.5,2.1-9.1,3.9-13.6,5.9c-0.8,0.3-1.2,0.3-1.6-0.5c-0.5-0.9-1.1-1.7-1.8-2.7c2.1-1.1,4.2-2.1,6.3-3.1
		c10.9-5.7,21.3-12.2,30.3-20.7c7.9-7.5,14.4-16.1,18.3-26.4c0.2-0.5,0.3-1,0.6-1.6c-0.5,0-0.9,0-1.3,0c-8.2,0-16.4,0-24.6,0
		c-0.8,0-1.3,0.2-1.8,0.8c-2.1,2.5-4.2,4.9-6.4,7.5c-5.9-4.3-11.8-8.6-17.7-13c0.3-0.2,0.6-0.4,0.9-0.6c2.4-1.5,4.7-3,7.1-4.4
		c1-0.6,1.4-1.2,1.4-2.4c0-15.8,0-31.7,0-47.5c0-0.5,0-0.9,0-1.6c7.9,3.6,15.7,7.1,23.6,10.6c-0.3,0.3-0.5,0.5-0.7,0.7
		c-2.6,1.9-5.2,3.9-7.7,5.9c-0.4,0.3-0.8,1-0.8,1.5c0,11.5,0,23,0,34.6c0,0.3,0,0.5,0.1,0.9c9.7,0,19.4,0,29.4,0
		c1.2-24.2,1-48.5,1.1-73C121.5,45.3,129.7,49.6,138,53.9z"/>
	<path d="M189.7,117.5c2.1-1.7,4-3.4,6.1-5c0.7-0.6,1-1.2,1-2.1c0-16.7,0-33.4,0-50.2c0-0.5,0-1,0-1.7c7.5,3.6,14.9,7.1,22.5,10.7
		c-2.3,1.9-4.3,3.8-6.5,5.5c-1.4,1.1-1.8,2.2-1.8,3.9c0.1,11.2,0,22.4,0,33.6c0,0.5,0,1,0,1.6c11.4,0,22.6,0,34,0
		c0-23.9,0-47.7,0-71.9c8.4,4.4,16.6,8.7,24.9,13c-2.8,1.8-5.2,3.7-8,5.2c-2.2,1.2-2.8,2.7-2.7,5.1c0.1,15.6,0.1,31.3,0.1,46.9
		c0,0.5,0,0.9,0,1.5c11,0,21.9,0,32.9,0c0-17.6,0-35.2,0-53c7.9,3.6,15.7,7.1,23.7,10.7c-1.4,0.9-2.7,1.7-4,2.5
		c-1.6,1-3.3,2-4.9,3.1c-0.3,0.2-0.6,0.7-0.6,1.1c0.1,8.8,0.2,17.5,0.4,26.3c0.1,5.2,0.5,10.5,0.7,15.7c0,0.4-0.3,1-0.6,1.2
		c-4.7,2.6-9.4,5.1-14.1,7.6c-0.1,0.1-0.3,0.1-0.6,0.2c0-2.8,0-5.4,0-8.1c-11,0-21.9,0-32.9,0c0,0.5,0,1,0,1.5c0,10.1,0,20.2,0,30.2
		c0,0.9-0.3,1.4-1.1,1.8c-4,1.9-7.9,3.9-11.9,5.9c-0.3,0.2-0.7,0.3-1.2,0.5c0-13.4,0-26.7,0-40c-0.6,0-1,0-1.4,0c-9.3,0-18.6,0-28,0
		c-0.8,0-1.4,0.2-1.9,0.9c-2.2,2.6-4.5,5.1-6.7,7.7c-0.3,0.3-0.5,0.6-0.8,0.9C200.7,126.2,195.2,121.9,189.7,117.5z"/>
</g>
</svg>
