<?xml version="1.0" encoding="utf-8"?>
<!-- Generator: Adobe Illustrator 20.1.0, SVG Export Plug-In . SVG Version: 6.00 Build 0)  -->
<svg version="1.1" id="图层_1" xmlns="http://www.w3.org/2000/svg" xmlns:xlink="http://www.w3.org/1999/xlink" x="0px" y="0px"
	 viewBox="0 0 360 360" style="enable-background:new 0 0 360 360;" xml:space="preserve">
<style type="text/css">
	.st0{fill:#FFFFFF;}
</style>
<g>
	<path class="st0" d="M0.2,360.5c0-120.1,0-240.2,0-360.2c120.1,0,240.2,0,360.2,0c0,120.1,0,240.2,0,360.2
		C240.4,360.5,120.3,360.5,0.2,360.5z M72.3,299.4c0.3-0.4,0.6-0.8,0.9-1.1c2.6-3.6,5.2-7.1,7.7-10.7c0.6-0.9,1.2-1.2,2.3-1.2
		c29.2,0,58.4,0,87.6,0c0.5,0,0.9,0,1.7,0c-6.8-7.2-13.4-14.2-20.2-21.3c-0.4,0.4-0.6,0.8-1,1.2c-3.7,4.1-7.5,8.2-11.3,12.3
		c-0.3,0.3-0.8,0.7-1.1,0.7c-3.3,0.1-6.6,0-10,0c0-22.8,0-45.5,0-68.1c9.4,0,18.7,0,28.1,0c0,3.9,0,7.7,0,11.7
		c5.5-3.1,10.7-6.1,16-9.2c0.3-0.2,0.4-0.8,0.4-1.2c-0.3-7.5-0.9-14.9-1-22.4c-0.2-14.3-0.1-28.6,0-43c0-0.5,0.4-1.1,0.8-1.4
		c2.4-1.9,4.9-3.7,7.4-5.6c0.4-0.3,0.8-0.6,1-0.8c-5.9-5.9-11.8-11.8-17.7-17.7c-3.2,3.9-6.4,7.8-9.7,11.8c-0.5,0.6-1,0.9-1.8,0.9
		c-7.4,0-14.9,0-22.3,0c-0.4,0-0.8,0-1.2-0.1c0-21.6,0-43.1,0-64.7c20.8,0,41.4,0,62.4,0c-6.8-7.2-13.4-14.2-20.1-21.2
		c-0.4,0.3-0.7,0.6-1,0.8c-4.6,4.2-9.1,8.4-13.7,12.6c-0.4,0.4-1.2,0.7-1.8,0.7c-24.8,0-49.6,0-74.4,0c-0.6,0-1.3-0.2-1.9-0.6
		c-4.8-3.1-9.6-6.2-14.4-9.2c-0.4-0.2-0.7-0.4-1.2-0.7c0,1.2,0,2.4,0,3.5c0.4,11.4,1,22.8,1.1,34.1c0.1,61.6,0,123.3,0.1,184.9
		c0,1-0.3,1.4-1.1,1.8c-3.6,1.7-7.1,3.5-10.7,5.3C58.9,287.6,65.6,293.5,72.3,299.4z"/>
	<path d="M72.3,299.4c-6.7-5.9-13.3-11.8-20.1-17.7c3.7-1.8,7.2-3.6,10.7-5.3c0.8-0.4,1.1-0.8,1.1-1.8c0-61.6,0-123.3-0.1-184.9
		c0-11.4-0.7-22.8-1.1-34.1c0-1.1,0-2.2,0-3.5c0.5,0.3,0.8,0.5,1.2,0.7c4.8,3.1,9.6,6.2,14.4,9.2c0.5,0.3,1.3,0.6,1.9,0.6
		c24.8,0,49.6,0,74.4,0c0.6,0,1.3-0.3,1.8-0.7c4.6-4.2,9.1-8.4,13.7-12.6c0.3-0.3,0.6-0.5,1-0.8c6.6,7,13.3,14,20.1,21.2
		c-20.9,0-41.6,0-62.4,0c0,21.7,0,43.1,0,64.7c0.4,0,0.8,0.1,1.2,0.1c7.4,0,14.9,0,22.3,0c0.8,0,1.3-0.3,1.8-0.9
		c3.2-4,6.5-8,9.7-11.8c5.9,5.9,11.7,11.7,17.7,17.7c-0.2,0.1-0.6,0.5-1,0.8c-2.5,1.8-4.9,3.7-7.4,5.6c-0.4,0.3-0.8,0.9-0.8,1.4
		c0,14.3-0.2,28.6,0,43c0.1,7.5,0.7,14.9,1,22.4c0,0.4-0.1,1-0.4,1.2c-5.2,3.1-10.5,6.1-16,9.2c0-4,0-7.8,0-11.7
		c-9.5,0-18.8,0-28.1,0c0,22.7,0,45.3,0,68.1c3.4,0,6.7,0,10,0c0.4,0,0.8-0.4,1.1-0.7c3.8-4.1,7.5-8.2,11.3-12.3
		c0.3-0.3,0.6-0.7,1-1.2c6.8,7.2,13.3,14.1,20.2,21.3c-0.7,0-1.2,0-1.7,0c-29.2,0-58.4,0-87.6,0c-1.1,0-1.7,0.4-2.3,1.2
		c-2.5,3.6-5.1,7.1-7.7,10.7C72.9,298.6,72.6,298.9,72.3,299.4z M157,141.6c-25.9,0-51.7,0-77.5,0c0,20.8,0,41.5,0,62.2
		c25.9,0,51.7,0,77.5,0C157,183,157,162.4,157,141.6z M79.5,279.2c11.4,0,22.6,0,34,0c0-22.7,0-45.4,0-68.1c-11.4,0-22.6,0-34,0
		C79.5,233.8,79.5,256.4,79.5,279.2z M113.4,134.3c0-21.6,0-43.1,0-64.6c-11.3,0-22.6,0-33.9,0c0,21.6,0,43,0,64.6
		C90.8,134.3,102.1,134.3,113.4,134.3z"/>
	<path class="st0" d="M157,141.6c0,20.8,0,41.5,0,62.2c-25.9,0-51.7,0-77.5,0c0-20.7,0-41.4,0-62.2
		C105.3,141.6,131.1,141.6,157,141.6z"/>
	<path class="st0" d="M79.5,279.2c0-22.7,0-45.3,0-68.1c11.3,0,22.6,0,34,0c0,22.7,0,45.3,0,68.1C102.1,279.2,90.8,279.2,79.5,279.2
		z"/>
	<path class="st0" d="M113.4,134.3c-11.3,0-22.6,0-33.9,0c0-21.6,0-43,0-64.6c11.3,0,22.6,0,33.9,0
		C113.4,91.2,113.4,112.7,113.4,134.3z"/>
</g>
</svg>
