<?xml version="1.0" encoding="utf-8"?>
<!-- Generator: Adobe Illustrator 20.1.0, SVG Export Plug-In . SVG Version: 6.00 Build 0)  -->
<svg version="1.1" id="图层_1" xmlns="http://www.w3.org/2000/svg" xmlns:xlink="http://www.w3.org/1999/xlink" x="0px" y="0px"
	 viewBox="0 0 360 360" style="enable-background:new 0 0 360 360;" xml:space="preserve">
<style type="text/css">
	.st0{fill:#FFFFFF;}
</style>
<g>
	<path class="st0" d="M0.2,360.5c0-120.1,0-240.2,0-360.2c120.1,0,240.2,0,360.2,0c0,120.1,0,240.2,0,360.2
		C240.4,360.5,120.3,360.5,0.2,360.5z M44,272.3c4.4,7.5,8.6,14.9,12.9,22.3c1.7-1.3,3.2-2.5,4.8-3.6c6.8-4.5,14.2-7.9,21.6-11.1
		c18.6-7.9,37.8-14.1,57.1-19.7c2.4-0.7,4.7-1.3,7.1-2c0.1,0.2,0.2,0.3,0.2,0.4c1.9,7.4,3.7,14.7,5.6,22.1c0.5,2.1,0.8,4.3,1.5,6.4
		c0.8,2.5,2.7,3.2,5,2c1.4-0.7,2.6-1.7,3.8-2.7c6.7-6,8.8-13.3,5.8-21.9c-1.3-3.8-3.4-7.3-5.7-10.6c-4.6-6.7-10-12.6-15.7-18.4
		c-4.3-4.3-8.8-8.5-13.2-12.8c-1.3,0.9-2.5,1.7-3.7,2.5c5.3,9.2,10.1,18.5,14.1,28.3c-10.2,2-20.3,3.9-30.4,5.9
		c0-17.7,0-35.3,0-52.8c8.6,0,17.2,0,25.8,0c0,3.1,0,6.1,0,9.1c0.2,0,0.3,0,0.4,0c5.2-2.6,10.4-5.2,15.5-7.8
		c0.3-0.1,0.5-0.7,0.5-1.1c-0.1-4.7-0.4-9.3-0.5-14c-0.2-11-0.4-22.1-0.5-33.1c-0.1-13-0.1-26.1-0.1-39.1c0-0.9,0.3-1.5,1-2.1
		c2.8-2,5.6-4.2,8.4-6.3c-5.9-5.1-11.8-10.2-17.7-15.3c-0.3,0.3-0.6,0.6-0.8,0.9c-2.3,2.9-4.6,5.9-6.8,8.8c-0.5,0.6-1,0.9-1.8,0.9
		c-7.4,0-14.9,0-22.3,0c-0.4,0-0.8,0-1.2-0.1c0-0.6,0-1,0-1.5c0-13.6,0.1-27.2-0.1-40.8c0-2.6,0.7-4.4,2.7-6c2.8-2.2,5.3-4.6,8-7.1
		c-9.1-4-18.1-7.9-26.8-11.7c0.3,22.4,0.7,44.6,1,67c-0.5,0-0.7,0.1-0.9,0.1c-8.6,0-17.1,0-25.7,0c-0.5,0-1.1-0.2-1.5-0.5
		c-4.8-2.7-9.7-5.5-14.5-8.3c-0.4-0.2-0.7-0.4-1.2-0.6c1.5,41.7,1.6,83.2,0,124.9c5.4-2.3,10.6-4.5,15.9-6.8
		c0.3-0.1,0.6-0.7,0.6-1.1c0.1-2.4,0-4.8,0-7.2c0-0.4,0-0.8,0.1-1.3c9.1,0,18,0,27,0c0,18.8,0,37.6,0,56.4
		C81,266.4,62.8,270.3,44,272.3z"/>
	<path d="M44,272.3c18.8-2,37-5.8,55.3-9.5c0-18.8,0-37.6,0-56.4c-9,0-17.9,0-27,0c0,0.4-0.1,0.8-0.1,1.3c0,2.4,0,4.8,0,7.2
		c0,0.4-0.3,1-0.6,1.1c-5.2,2.3-10.5,4.5-15.9,6.8c1.6-41.7,1.5-83.2,0-124.9c0.4,0.2,0.8,0.4,1.2,0.6c4.8,2.8,9.6,5.5,14.5,8.3
		c0.5,0.3,1,0.5,1.5,0.5c8.6,0,17.1,0,25.7,0c0.2,0,0.4,0,0.9-0.1c-0.3-22.3-0.7-44.6-1-67c8.8,3.8,17.7,7.7,26.8,11.7
		c-2.7,2.4-5.2,4.9-8,7.1c-2,1.6-2.7,3.3-2.7,6c0.1,13.6,0.1,27.2,0.1,40.8c0,0.5,0,0.9,0,1.5c0.5,0,0.9,0.1,1.2,0.1
		c7.4,0,14.9,0,22.3,0c0.8,0,1.3-0.2,1.8-0.9c2.2-3,4.5-5.9,6.8-8.8c0.2-0.3,0.5-0.6,0.8-0.9c5.9,5.1,11.8,10.2,17.7,15.3
		c-2.9,2.1-5.6,4.3-8.4,6.3c-0.8,0.6-1.1,1.1-1,2.1c0.1,13,0,26.1,0.1,39.1c0.1,11,0.3,22.1,0.5,33.1c0.1,4.7,0.4,9.3,0.5,14
		c0,0.4-0.2,1-0.5,1.1c-5.2,2.6-10.3,5.2-15.5,7.8c-0.1,0-0.2,0-0.4,0c0-3,0-6,0-9.1c-8.7,0-17.2,0-25.8,0c0,17.5,0,35.1,0,52.8
		c10.1-1.9,20.2-3.9,30.4-5.9c-4-9.8-8.8-19-14.1-28.3c1.2-0.8,2.4-1.6,3.7-2.5c4.4,4.3,8.9,8.5,13.2,12.8
		c5.7,5.7,11.1,11.7,15.7,18.4c2.3,3.3,4.4,6.8,5.7,10.6c3,8.6,0.9,15.9-5.8,21.9c-1.2,1-2.4,2-3.8,2.7c-2.3,1.2-4.2,0.5-5-2
		c-0.7-2.1-1-4.3-1.5-6.4c-1.8-7.4-3.7-14.7-5.6-22.1c0-0.1-0.1-0.2-0.2-0.4c-2.3,0.7-4.7,1.3-7.1,2c-19.4,5.6-38.6,11.8-57.1,19.7
		c-7.5,3.2-14.9,6.5-21.6,11.1c-1.6,1.1-3.1,2.3-4.8,3.6C52.6,287.2,48.3,279.8,44,272.3z M99.3,114.5c-9,0-17.9,0-26.9,0
		c0,28.2,0,56.4,0,84.6c9,0,18,0,26.9,0C99.3,170.8,99.3,142.7,99.3,114.5z M140.5,114.5c-8.6,0-17.2,0-25.7,0c0,28.2,0,56.4,0,84.5
		c8.6,0,17.1,0,25.7,0C140.5,170.9,140.5,142.7,140.5,114.5z"/>
	<path class="st0" d="M99.3,114.5c0,28.2,0,56.3,0,84.6c-9,0-17.9,0-26.9,0c0-28.2,0-56.3,0-84.6C81.4,114.5,90.3,114.5,99.3,114.5z
		"/>
	<path class="st0" d="M140.5,114.5c0,28.2,0,56.3,0,84.5c-8.6,0-17.1,0-25.7,0c0-28.2,0-56.3,0-84.5
		C123.3,114.5,131.9,114.5,140.5,114.5z"/>
</g>
</svg>
