<?xml version="1.0" encoding="utf-8"?>
<!-- Generator: Adobe Illustrator 20.1.0, SVG Export Plug-In . SVG Version: 6.00 Build 0)  -->
<svg version="1.1" id="图层_1" xmlns="http://www.w3.org/2000/svg" xmlns:xlink="http://www.w3.org/1999/xlink" x="0px" y="0px"
	 viewBox="0 0 360 360" style="enable-background:new 0 0 360 360;" xml:space="preserve">
<style type="text/css">
	.st0{fill:#FFFFFF;}
</style>
<g>
	<path class="st0" d="M0.2,360.5c0-120.1,0-240.2,0-360.2c120.1,0,240.2,0,360.2,0c0,120.1,0,240.2,0,360.2
		C240.4,360.5,120.3,360.5,0.2,360.5z M283.2,48.4c-0.4,0.3-0.7,0.6-1,0.8c-5.2,4.8-10.4,9.6-15.5,14.5c-0.8,0.8-1.7,1.1-2.8,1.1
		c-70,0-139.9,0-209.9,0c-0.5,0-1,0-1.8,0c0.5,0.5,0.7,0.8,1,1.1c2.9,2.9,5.9,5.9,8.8,8.8c0.6,0.6,1.2,0.7,2,0.5
		c8.2-2.1,16.5-3.2,24.9-3.2c22.6-0.1,45.3,0,67.9,0c0.4,0,0.8,0,1.4,0c-0.1,0.3-0.2,0.5-0.2,0.7c-3.3,8.8-6.5,17.5-9.8,26.3
		c-0.4,1-0.9,1.3-1.9,1.3c-16.4,0-32.8,0-49.2,0c-0.8,0-1.6-0.2-2.3-0.6c-4.7-2.3-9.4-4.7-14.2-7c-0.4-0.2-0.7-0.3-1.1-0.5
		c1.4,33,1.3,65.9-0.1,98.8c0.5-0.2,0.8-0.3,1.2-0.5c4.6-2,9.2-4,13.9-5.9c1.1-0.4,1.4-1,1.4-2.1c0-24.4,0-48.9,0-73.3
		c0-0.5,0-1.1,0-1.7c15.4,0,30.6,0,46,0c0,22,0,43.8,0,65.9c4.8-2.2,9.4-4.4,14.1-6.5c0.9-0.4,1.3-0.9,1.3-1.9c0-18.6,0-37.3,0-55.9
		c0-0.5,0-1,0-1.6c15,0,29.8,0,44.7,0c0,20.8,0,41.5,0,62.3c0.5-0.2,0.8-0.3,1.2-0.5c4.7-2,9.5-4.1,14.2-6.1
		c0.9-0.4,1.2-0.8,1.2-1.7c0-17.6,0-35.1,0-52.7c0-0.5,0-0.9,0-1.4c14.6,0,29,0,43.4,0c0,0.3,0.1,0.6,0.1,0.8c0,17.2,0,34.4,0,51.6
		c0,5-2.7,7.6-7.6,7.5c-8.5-0.3-17-0.7-25.5-1c-0.3,0-0.6,0-1,0c0,1,0,1.8,0,2.7c0,2,0,2,2,2.5c5.8,1.4,11.5,3.2,16.5,6.5
		c4.1,2.7,7.2,6.1,8.3,11c0.2,1,0.3,2,0.5,3.3c2.2-1,4.4-1.8,6.5-2.9c10.4-5.4,16-13.6,15.9-25.6c-0.2-17.7-0.1-35.4,0-53.2
		c0-0.5,0.4-1.1,0.8-1.4c2.5-1.9,5-3.8,7.6-5.7c0.3-0.3,0.6-0.5,1-0.9c-6.4-4.8-12.6-9.4-18.9-14.2c-2.9,3.7-5.8,7.2-8.6,10.7
		c-0.6,0.8-1.2,1.1-2.2,1.1c-33.2,0-66.3,0-99.5,0c-0.4,0-0.8,0-1.5,0c0.3-0.4,0.4-0.7,0.6-0.9c5.2-5.8,10.3-11.8,15.7-17.5
		c3.3-3.5,7.1-6.6,11.3-9c1-0.6,2.1-0.9,3.3-0.9c39,0,78.1,0,117.1,0c0.4,0,0.9,0,1.6,0C298,64,290.6,56.2,283.2,48.4z"/>
	<path d="M283.2,48.4C290.6,56.2,298,64,305.6,72c-0.7,0-1.1,0-1.6,0c-39,0-78.1,0-117.1,0c-1.2,0-2.2,0.3-3.3,0.9
		c-4.3,2.4-8,5.5-11.3,9c-5.4,5.7-10.5,11.7-15.7,17.5c-0.2,0.2-0.3,0.4-0.6,0.9c0.6,0,1,0,1.5,0c33.2,0,66.3,0,99.5,0
		c1,0,1.6-0.3,2.2-1.1c2.8-3.6,5.6-7.1,8.6-10.7c6.3,4.7,12.5,9.4,18.9,14.2c-0.4,0.3-0.7,0.6-1,0.9c-2.5,1.9-5.1,3.8-7.6,5.7
		c-0.4,0.3-0.8,1-0.8,1.4c0,17.7-0.2,35.4,0,53.2c0.1,12-5.5,20.3-15.9,25.6c-2.1,1.1-4.3,1.9-6.5,2.9c-0.2-1.3-0.3-2.3-0.5-3.3
		c-1-5-4.2-8.3-8.3-11c-5.1-3.3-10.7-5.1-16.5-6.5c-2-0.5-2-0.5-2-2.5c0-0.8,0-1.7,0-2.7c0.4,0,0.7,0,1,0c8.5,0.4,17,0.8,25.5,1
		c5,0.1,7.6-2.5,7.6-7.5c0-17.2,0-34.4,0-51.6c0-0.2,0-0.5-0.1-0.8c-14.4,0-28.8,0-43.4,0c0,0.5,0,0.9,0,1.4c0,17.6,0,35.1,0,52.7
		c0,1-0.3,1.4-1.2,1.7c-4.8,2-9.5,4-14.2,6.1c-0.4,0.2-0.7,0.3-1.2,0.5c0-20.9,0-41.6,0-62.3c-14.9,0-29.7,0-44.7,0c0,0.5,0,1,0,1.6
		c0,18.6,0,37.3,0,55.9c0,1-0.3,1.5-1.3,1.9c-4.7,2.1-9.3,4.3-14.1,6.5c0-22,0-43.9,0-65.9c-15.4,0-30.6,0-46,0c0,0.6,0,1.1,0,1.7
		c0,24.4,0,48.9,0,73.3c0,1.1-0.3,1.7-1.4,2.1c-4.6,1.9-9.3,3.9-13.9,5.9c-0.4,0.2-0.7,0.3-1.2,0.5c1.4-33,1.5-65.8,0.1-98.8
		c0.4,0.2,0.7,0.3,1.1,0.5c4.7,2.4,9.4,4.7,14.2,7c0.7,0.3,1.5,0.6,2.3,0.6c16.4,0,32.8,0,49.2,0c1,0,1.6-0.2,1.9-1.3
		c3.2-8.8,6.5-17.5,9.8-26.3c0.1-0.2,0.1-0.4,0.2-0.7c-0.5,0-0.9,0-1.4,0c-22.6,0-45.3,0-67.9,0c-8.4,0-16.7,1.1-24.9,3.2
		c-0.8,0.2-1.4,0.1-2-0.5c-2.9-3-5.9-5.9-8.8-8.8c-0.3-0.3-0.5-0.6-1-1.1c0.8,0,1.3,0,1.8,0c70,0,139.9,0,209.9,0
		c1.2,0,2-0.3,2.8-1.1c5.1-4.9,10.3-9.7,15.5-14.5C282.5,48.9,282.8,48.7,283.2,48.4z"/>
</g>
</svg>
