<?xml version="1.0" encoding="utf-8"?>
<!-- Generator: Adobe Illustrator 20.1.0, SVG Export Plug-In . SVG Version: 6.00 Build 0)  -->
<svg version="1.1" id="图层_1" xmlns="http://www.w3.org/2000/svg" xmlns:xlink="http://www.w3.org/1999/xlink" x="0px" y="0px"
	 viewBox="0 0 360 360" style="enable-background:new 0 0 360 360;" xml:space="preserve">
<style type="text/css">
	.st0{fill:#FFFFFF;}
</style>
<g>
	<path class="st0" d="M0.2,360.5c0-120.1,0-240.2,0-360.2c120.1,0,240.2,0,360.2,0c0,120.1,0,240.2,0,360.2
		C240.4,360.5,120.3,360.5,0.2,360.5z M110,129.6c0.5-1.5,0.9-2.8,1.4-4.1c4-11.5,8.2-22.9,13.8-33.8c2.4-4.6,4.9-9.1,8.5-12.9
		c0.7-0.8,1.4-1.1,2.5-1.1c24.1,0,48.2,0,72.2,0c0.5,0,1,0,1.8,0c-6.8-7.6-13.5-15-20.1-22.5c-4.9,4.9-9.6,9.6-14.3,14.4
		c-0.7,0.7-1.4,1-2.4,1c-41.4,0-82.8,0-124.2,0c-0.5,0-0.9,0-1.6,0c0.2,0.3,0.3,0.4,0.4,0.5c3.2,3.2,6.4,6.4,9.6,9.6
		c0.3,0.3,0.9,0.4,1.3,0.3c8.4-2.2,17-3.2,25.6-3.3c8.4-0.1,16.8,0,25.2,0c0.4,0,0.8,0,1.4,0c-1.6,17.5-4.4,34.7-8.2,51.7
		c-0.3,0-0.4,0.1-0.6,0.1c-8.2,0-16.5,0-24.7,0c-0.5,0-1-0.2-1.4-0.5c-4.8-2.7-9.7-5.5-14.5-8.2c-0.4-0.2-0.7-0.4-1-0.5
		c1.5,62.8,1.2,125.5-0.1,188.3c0.4-0.2,0.8-0.3,1.2-0.5c4.6-2.3,9.3-4.7,13.9-6.9c1-0.5,1.3-1,1.3-2.2c0-53.6,0-107.1,0-160.7
		c0-0.5,0-1,0-1.5c7.9,0,15.6,0,23.5,0c0,48.2,0,96.4,0,144.8c0.5-0.3,0.9-0.6,1.3-0.8c3.9-2.6,7.8-5.2,11.7-7.8
		c0.9-0.6,1.2-1.2,1.2-2.3c0-44.2,0-88.3,0-132.5c0-0.5,0-1,0-1.5c7.5,0,14.9,0,22.4,0c0,45.9,0,91.7,0,137.8
		c4.4-3,8.7-5.8,12.9-8.6c0.9-0.6,1.2-1.2,1.2-2.3c0-41.8,0-83.5,0-125.3c0-0.5,0-1,0-1.6c7.9,0,15.7,0,23.5,0c0,0.5,0,1,0,1.4
		c0,8.5,0,17,0,25.6c0,37.7,0,75.4,0,113.2c0,4.8-2.1,7-7,6.9c-5.5-0.1-11-0.4-16.5-0.6c-3.1-0.1-6.2-0.3-9.4-0.5c0,1,0,1.9,0,2.9
		c0,1.9,0,1.9,1.8,2.3c5.9,1.4,11.7,3.3,16.8,6.8c4.3,3,7.4,6.8,8.3,12.1c0.2,1,0.2,1.9,0.3,3.1c2-1,3.8-1.9,5.6-2.9
		c4.4-2.5,8.2-5.5,11.1-9.7c3.5-5.1,4.5-10.7,4.5-16.8c-0.1-46.4,0-92.8-0.1-139.2c0-0.8,0.2-1.4,0.8-2c2.5-2.4,4.9-4.9,7.5-7.4
		c-6-4.8-11.8-9.5-17.8-14.2c-2.6,3.7-5,7.2-7.5,10.7c-0.6,0.8-1.1,1.1-2.1,1.1c-19.8,0-39.7,0-59.5,0
		C111.1,129.6,110.7,129.6,110,129.6z"/>
	<path d="M110,129.6c0.6,0,1.1,0,1.5,0c19.8,0,39.7,0,59.5,0c1,0,1.6-0.3,2.1-1.1c2.4-3.5,4.9-7,7.5-10.7
		c5.9,4.7,11.8,9.4,17.8,14.2c-2.6,2.6-5,5-7.5,7.4c-0.6,0.6-0.8,1.2-0.8,2c0,46.4,0,92.8,0.1,139.2c0,6.1-1,11.8-4.5,16.8
		c-2.9,4.2-6.7,7.2-11.1,9.7c-1.8,1-3.6,1.8-5.6,2.9c-0.1-1.2-0.2-2.1-0.3-3.1c-0.9-5.3-4-9.2-8.3-12.1c-5.1-3.5-10.8-5.4-16.8-6.8
		c-1.8-0.4-1.8-0.4-1.8-2.3c0-0.9,0-1.8,0-2.9c3.2,0.2,6.3,0.4,9.4,0.5c5.5,0.2,11,0.5,16.5,0.6c4.8,0.1,7-2.1,7-6.9
		c0-37.7,0-75.4,0-113.2c0-8.5,0-17,0-25.6c0-0.4,0-0.9,0-1.4c-7.8,0-15.6,0-23.5,0c0,0.5,0,1,0,1.6c0,41.8,0,83.5,0,125.3
		c0,1.1-0.3,1.7-1.2,2.3c-4.3,2.8-8.5,5.6-12.9,8.6c0-46,0-91.9,0-137.8c-7.5,0-14.8,0-22.4,0c0,0.5,0,1,0,1.5
		c0,44.2,0,88.3,0,132.5c0,1.1-0.3,1.7-1.2,2.3c-3.9,2.5-7.8,5.2-11.7,7.8c-0.4,0.2-0.7,0.5-1.3,0.8c0-48.3,0-96.5,0-144.8
		c-7.9,0-15.6,0-23.5,0c0,0.5,0,1,0,1.5c0,53.6,0,107.1,0,160.7c0,1.1-0.3,1.7-1.3,2.2c-4.7,2.3-9.3,4.6-13.9,6.9
		c-0.4,0.2-0.8,0.3-1.2,0.5c1.3-62.8,1.6-125.5,0.1-188.3c0.3,0.1,0.6,0.3,1,0.5c4.8,2.8,9.6,5.5,14.5,8.2c0.4,0.2,1,0.5,1.4,0.5
		c8.2,0,16.5,0,24.7,0c0.2,0,0.3,0,0.6-0.1c3.9-17,6.6-34.1,8.2-51.7c-0.5,0-0.9,0-1.4,0c-8.4,0-16.8-0.1-25.2,0
		C75.9,78,67.4,79,58.9,81.2c-0.4,0.1-1.1,0-1.3-0.3c-3.2-3.2-6.4-6.4-9.6-9.6c-0.1-0.1-0.2-0.2-0.4-0.5c0.6,0,1.1,0,1.6,0
		c41.4,0,82.8,0,124.2,0c1,0,1.7-0.3,2.4-1c4.7-4.8,9.5-9.5,14.3-14.4c6.7,7.4,13.3,14.8,20.1,22.5c-0.8,0-1.3,0-1.8,0
		c-24.1,0-48.2,0-72.2,0c-1.1,0-1.8,0.3-2.5,1.1c-3.6,3.8-6.1,8.3-8.5,12.9c-5.6,10.9-9.8,22.3-13.8,33.8
		C111,126.9,110.5,128.1,110,129.6z"/>
</g>
</svg>
