<?xml version="1.0" encoding="utf-8"?>
<!-- Generator: Adobe Illustrator 20.1.0, SVG Export Plug-In . SVG Version: 6.00 Build 0)  -->
<svg version="1.1" id="图层_1" xmlns="http://www.w3.org/2000/svg" xmlns:xlink="http://www.w3.org/1999/xlink" x="0px" y="0px"
	 viewBox="0 0 360 360" style="enable-background:new 0 0 360 360;" xml:space="preserve">
<style type="text/css">
	.st0{fill:#FFFFFF;}
</style>
<g>
	<path class="st0" d="M0.2,360.5c0-120.1,0-240.2,0-360.2c120.1,0,240.2,0,360.2,0c0,120.1,0,240.2,0,360.2
		C240.4,360.5,120.3,360.5,0.2,360.5z M256.1,318.2c6.4-1.6,12.5-3.6,18.1-7c4.1-2.5,6.8-6,7.8-10.6c0.7-3.1,1.2-6.3,1.2-9.5
		c0.1-27.1,0.1-54.2,0-81.2c0-0.9,0.2-1.4,1-1.9c2.8-1.7,5.6-3.4,8.3-5.1c-6.3-6.3-12.6-12.6-18.9-18.9c-3.6,3.9-7.2,7.9-10.8,11.9
		c-0.6,0.6-1.1,1-2,1c-33.7,0-67.4,0-101,0c-0.4,0-0.8,0-1.4,0c0.6-0.9,1.1-1.6,1.6-2.2c8.9-10.3,17.9-20.6,26.8-30.9
		c0.7-0.8,1.4-1,2.4-1c42.2,0,84.4,0,126.6,0c0.5,0,0.9,0,1.7,0c-8.4-9.2-16.6-18.2-24.9-27.3c-0.4,0.5-0.6,0.8-0.9,1.1
		c-5.9,5.9-11.9,11.9-17.8,17.8c-0.9,0.9-1.7,1.2-2.9,1.2c-73.5,0-147,0-220.4,0c-0.5,0-1,0-1.7,0c0.4,0.5,0.6,0.7,0.8,0.9
		c3,3,6,6,9,9c0.6,0.6,1.1,0.7,1.9,0.5c8.1-2.1,16.3-3.2,24.7-3.2c25.9-0.1,51.8,0,77.6,0c0.4,0,0.8,0,1.4,0
		c-4,11.5-7.9,22.8-11.8,34.1c-0.3,0-0.5,0-0.7,0c-16.4,0-32.7,0-49.1,0c-0.6,0-1.2-0.2-1.7-0.5c-6.3-3.5-12.6-7-19-10.5
		c-0.4-0.2-0.8-0.4-1.4-0.7c1.8,44,1.1,87.9,0,131.9c0.4-0.2,0.7-0.3,0.9-0.4c5.1-2.4,10.2-4.8,15.3-7.1c1.1-0.5,1.5-1,1.5-2.3
		c0-33.9,0-67.8,0-101.6c0-0.5,0-1,0-1.5c16.2,0,32.2,0,48.3,0c0,31,0,61.9,0,92.9c0.5-0.2,0.9-0.4,1.2-0.5c4.2-2,8.5-3.9,12.7-5.8
		c1-0.4,1.4-1,1.4-2.1c0-27.6,0-55.3,0-82.9c0-0.5,0-1,0-1.5c13.8,0,27.5,0,41.3,0c0,29,0,57.9,0,87c0.6-0.3,1-0.5,1.4-0.8
		c4.2-2.6,8.4-5.2,12.7-7.8c1-0.6,1.3-1.2,1.3-2.3c0-24.9,0-49.8,0-74.6c0-0.5,0-1,0-1.5c16.1,0,32.1,0,48.2,0
		c0,0.4,0.1,0.8,0.1,1.2c0,25.9,0,51.8,0,77.6c0,1.1-0.1,2.2-0.3,3.2c-0.7,4.2-3,6.4-7.2,6.1c-8.3-0.6-16.6-1.5-24.9-2.4
		c-2.9-0.3-5.8-0.7-8.7-1.1c-0.1,0.2-0.1,0.3-0.1,0.4c0,1.1,0,2.2,0,3.4c0,0.7,0.2,1.1,0.9,1.3c1.1,0.3,2.3,0.8,3.4,1.2
		c6.5,2.4,12.9,5.1,18.4,9.3C252.7,307.8,256.3,311.9,256.1,318.2z"/>
	<path d="M256.1,318.2c0.2-6.3-3.4-10.4-8-13.9c-5.6-4.2-11.9-6.9-18.4-9.3c-1.1-0.4-2.2-0.8-3.4-1.2c-0.7-0.2-0.9-0.6-0.9-1.3
		c0.1-1.1,0-2.2,0-3.4c0-0.1,0.1-0.2,0.1-0.4c2.9,0.4,5.8,0.8,8.7,1.1c8.3,0.8,16.6,1.7,24.9,2.4c4.2,0.3,6.5-1.9,7.2-6.1
		c0.2-1.1,0.3-2.1,0.3-3.2c0-25.9,0-51.8,0-77.6c0-0.4,0-0.8-0.1-1.2c-16.1,0-32,0-48.2,0c0,0.5,0,1,0,1.5c0,24.9,0,49.8,0,74.6
		c0,1.2-0.4,1.8-1.3,2.3c-4.3,2.5-8.5,5.2-12.7,7.8c-0.4,0.2-0.8,0.5-1.4,0.8c0-29.1,0-58,0-87c-13.8,0-27.4,0-41.3,0
		c0,0.5,0,1,0,1.5c0,27.6,0,55.3,0,82.9c0,1.1-0.4,1.7-1.4,2.1c-4.3,1.9-8.5,3.9-12.7,5.8c-0.4,0.2-0.7,0.3-1.2,0.5
		c0-31,0-61.9,0-92.9c-16.1,0-32.1,0-48.3,0c0,0.5,0,1,0,1.5c0,33.9,0,67.8,0,101.6c0,1.3-0.4,1.8-1.5,2.3
		c-5.1,2.3-10.2,4.7-15.3,7.1c-0.2,0.1-0.4,0.2-0.9,0.4c1.2-44,1.8-87.9,0-131.9c0.5,0.3,1,0.5,1.4,0.7c6.3,3.5,12.6,7,19,10.5
		c0.5,0.3,1.1,0.5,1.7,0.5c16.4,0,32.7,0,49.1,0c0.2,0,0.4,0,0.7,0c3.9-11.3,7.8-22.6,11.8-34.1c-0.6,0-1,0-1.4,0
		c-25.9,0-51.8,0-77.6,0c-8.3,0-16.6,1.1-24.7,3.2c-0.8,0.2-1.3,0.1-1.9-0.5c-3-3-6-6-9-9c-0.2-0.2-0.4-0.5-0.8-0.9
		c0.7,0,1.2,0,1.7,0c73.5,0,147,0,220.4,0c1.2,0,2.1-0.4,2.9-1.2c5.9-6,11.9-11.9,17.8-17.8c0.3-0.3,0.6-0.7,0.9-1.1
		c8.3,9.1,16.5,18.1,24.9,27.3c-0.7,0-1.2,0-1.7,0c-42.2,0-84.4,0-126.6,0c-1,0-1.7,0.2-2.4,1c-8.9,10.3-17.9,20.6-26.8,30.9
		c-0.5,0.6-1,1.3-1.6,2.2c0.6,0,1,0,1.4,0c33.7,0,67.4,0,101,0c0.9,0,1.5-0.3,2-1c3.6-4,7.2-8,10.8-11.9
		c6.3,6.3,12.6,12.6,18.9,18.9c-2.7,1.7-5.5,3.5-8.3,5.1c-0.8,0.5-1,1-1,1.9c0,27.1,0.1,54.2,0,81.2c0,3.2-0.5,6.4-1.2,9.5
		c-1,4.6-3.7,8.1-7.8,10.6C268.6,314.6,262.5,316.6,256.1,318.2z"/>
</g>
</svg>
