<?xml version="1.0" encoding="utf-8"?>
<!-- Generator: Adobe Illustrator 20.1.0, SVG Export Plug-In . SVG Version: 6.00 Build 0)  -->
<svg version="1.1" id="图层_1" xmlns="http://www.w3.org/2000/svg" xmlns:xlink="http://www.w3.org/1999/xlink" x="0px" y="0px"
	 viewBox="0 0 360 360" style="enable-background:new 0 0 360 360;" xml:space="preserve">
<style type="text/css">
	.st0{fill:#FFFFFF;}
</style>
<g>
	<path class="st0" d="M-0.1,360.1c0-120.1,0-240.2,0-360.2c120.1,0,240.2,0,360.2,0c0,120.1,0,240.2,0,360.2
		C240,360.1,120,360.1-0.1,360.1z M279.1,42.2c-5.1,4.7-10.2,9.4-15.3,14.2c-0.8,0.7-1.6,1-2.6,1c-66.8,0-133.7,0-200.5,0
		c-0.5,0-1,0-1.7,0c0.5,0.5,0.8,0.9,1.1,1.2c2.8,2.8,5.6,5.5,8.3,8.3c0.9,1,1.7,1.1,2.9,0.7c7.7-2.1,15.5-3.3,23.4-3.1
		c6.8,0.1,13.6,0,20.4,0c0.5,0,0.9,0,1.5,0c0,0.7,0,1.3,0,1.8c0,21,0,42.1,0,63.1c0,10.9,0,21.8,0,32.6c0,0.9,0,1.4-1.2,1.4
		c-7,0.2-14,0.5-21,0.7c-13.8,0.5-27.6,0.9-41.3,1.4c-1.9,0.1-3.9,0-6.1,0c0.3,0.5,0.4,0.6,0.5,0.6c3.6,3.3,7.2,6.5,10.9,9.8
		c0.3,0.2,0.9,0.3,1.2,0.2c2.1-0.8,4.1-1.6,6.1-2.4c2.9-1.2,5.8-2.1,9-2.2c15.5-0.5,30.9-1.1,46.4-1.7c13.7-0.5,27.3-1,41-1.5
		c12.2-0.5,24.4-0.9,36.7-1.4c7.7-0.3,15.3-0.6,23-0.8c1.9-0.1,3.7,0,5.8,0c-0.4,9.7-0.8,19.4-1.2,29.1c0,0,0,0,0,0
		c6-2.6,12.1-5.2,18.1-7.9c0.2-0.1,0.5-0.5,0.5-0.8c-0.3-4.5-0.7-9.1-1-13.6c-0.1-2.7,0-5.4,0-8.2c23.1-1.2,46.1-2.3,69.2-3.5
		c-7.5-7.5-14.9-14.9-22.3-22.3c-0.1,0.1-0.3,0.2-0.4,0.4c-4.4,4.8-8.9,9.5-13.3,14.3c-1,1.2-2.1,1.7-3.7,1.8
		c-7.3,0.5-14.7,1.1-22,1.6c-2.5,0.2-5,0.3-7.5,0.5c0-31,0-62,0-93c19.2,0,38.3,0,57.4,0C293.9,57,286.6,49.7,279.1,42.2z"/>
	<path d="M279.1,42.2c7.5,7.5,14.8,14.8,22.3,22.3c-19.1,0-38.2,0-57.4,0c0,31.1,0,62,0,93c2.5-0.2,5-0.3,7.5-0.5
		c7.3-0.5,14.7-1.1,22-1.6c1.6-0.1,2.6-0.6,3.7-1.8c4.4-4.8,8.8-9.6,13.3-14.3c0.2-0.2,0.3-0.3,0.4-0.4c7.4,7.4,14.8,14.8,22.3,22.3
		c-23,1.2-46.1,2.3-69.2,3.5c0,2.8-0.1,5.5,0,8.2c0.2,4.5,0.7,9.1,1,13.6c0,0.3-0.2,0.7-0.5,0.8c-6,2.7-12.1,5.3-18.1,7.9
		c0,0-0.1,0,0,0c0.4-9.7,0.8-19.4,1.2-29.1c-2.1,0-4-0.1-5.8,0c-7.7,0.3-15.3,0.6-23,0.8c-12.2,0.5-24.4,0.9-36.7,1.4
		c-13.7,0.5-27.3,1-41,1.5c-15.5,0.6-30.9,1.2-46.4,1.7c-3.2,0.1-6.1,1-9,2.2c-2,0.9-4.1,1.7-6.1,2.4c-0.4,0.1-1,0.1-1.2-0.2
		c-3.7-3.2-7.3-6.5-10.9-9.8c-0.1-0.1-0.1-0.2-0.5-0.6c2.2,0,4.1,0.1,6.1,0c13.8-0.4,27.6-0.9,41.3-1.4c7-0.2,14-0.5,21-0.7
		c1.1,0,1.2-0.6,1.2-1.4c0-10.9,0-21.8,0-32.6c0-21,0-42.1,0-63.1c0-0.5,0-1.1,0-1.8c-0.6,0-1.1,0-1.5,0c-6.8,0-13.6,0.1-20.4,0
		c-8-0.1-15.8,1.1-23.4,3.1c-1.2,0.3-2,0.2-2.9-0.7c-2.7-2.8-5.5-5.6-8.3-8.3c-0.3-0.3-0.6-0.6-1.1-1.2c0.8,0,1.2,0,1.7,0
		c66.8,0,133.7,0,200.5,0c1.1,0,1.9-0.3,2.6-1C268.9,51.7,274,46.9,279.1,42.2z M133.3,98.8c0,9.4,0,18.7,0,28.1
		c31.4,0,62.7,0,94.1,0c0-9.4,0-18.7,0-28.1C196,98.8,164.7,98.8,133.3,98.8z M133.3,91.5c31.4,0,62.8,0,94.1,0c0-9,0-17.9,0-26.8
		c-31.4,0-62.7,0-94.1,0C133.3,73.6,133.3,82.5,133.3,91.5z M133.3,162.3c31.4-1.2,62.7-2.4,94.1-3.5c0-8.3,0-16.4,0-24.6
		c-31.4,0-62.7,0-94.1,0C133.3,143.5,133.3,152.8,133.3,162.3z"/>
	<path class="st0" d="M133.3,98.8c31.4,0,62.7,0,94.1,0c0,9.4,0,18.7,0,28.1c-31.3,0-62.7,0-94.1,0
		C133.3,117.5,133.3,108.2,133.3,98.8z"/>
	<path class="st0" d="M133.3,91.5c0-9,0-17.9,0-26.8c31.4,0,62.7,0,94.1,0c0,8.9,0,17.8,0,26.8C196,91.5,164.7,91.5,133.3,91.5z"/>
	<path class="st0" d="M133.3,162.3c0-9.5,0-18.8,0-28.2c31.3,0,62.7,0,94.1,0c0,8.2,0,16.4,0,24.6
		C196,159.9,164.7,161.1,133.3,162.3z"/>
</g>
</svg>
