<?xml version="1.0" encoding="utf-8"?>
<!-- Generator: Adobe Illustrator 20.1.0, SVG Export Plug-In . SVG Version: 6.00 Build 0)  -->
<svg version="1.1" id="图层_1" xmlns="http://www.w3.org/2000/svg" xmlns:xlink="http://www.w3.org/1999/xlink" x="0px" y="0px"
	 viewBox="0 0 360 360" style="enable-background:new 0 0 360 360;" xml:space="preserve">
<style type="text/css">
	.st0{fill:#FFFFFF;}
</style>
<g>
	<path class="st0" d="M0.2,360.5c0-120.1,0-240.2,0-360.2c120.1,0,240.2,0,360.2,0c0,120.1,0,240.2,0,360.2
		C240.4,360.5,120.3,360.5,0.2,360.5z M218.6,274.6c-0.4,14.2-0.7,28.2-1.1,42.2c0,0,0.1,0,0.3-0.1c5.9-2.6,11.8-5.1,17.7-7.8
		c0.3-0.1,0.6-0.7,0.5-1.1c-0.3-3.8-0.8-7.6-0.9-11.5c-0.2-7.8-0.1-15.5-0.1-23.3c0-0.3,0.1-0.6,0.1-1c25.1-1.6,50-3.1,75.3-4.7
		c-8-7.2-15.8-14.2-23.7-21.3c-0.2,0.3-0.4,0.5-0.5,0.7c-4.7,5-9.4,10.1-14,15.1c-0.5,0.6-1.1,0.8-1.9,0.9
		c-9.3,0.6-18.5,1.2-27.8,1.8c-2.5,0.2-5,0.3-7.5,0.4c0-37.3,0-74.5,0-111.8c12.1,0,24.1,0,36.2,0c-7.1-7.1-14.1-14.1-21.1-21.1
		c-0.1,0.1-0.4,0.3-0.6,0.5c-4.6,4.2-9.1,8.4-13.7,12.6c-0.7,0.7-1.4,1-2.4,1c-46.9,0-93.8,0-140.8,0c-0.5,0-0.9,0-1.7,0
		c3,3,5.8,5.8,8.6,8.6c0.7,0.7,1.2,0.9,2.2,0.5c4.9-1.8,9.9-2.6,15.1-2.2c1.1,0.1,1.4,0.4,1.4,1.5c0,38.8,0,77.5,0,116.3
		c0,0.4,0,0.8-0.1,1.3c-21.6,0.8-43,1.6-64.8,2.4c4.4,3.6,8.5,7,12.6,10.3c0.3,0.2,0.9,0.1,1.3,0c2.8-1.2,5.6-2.5,8.4-3.7
		c0.9-0.4,1.8-0.6,2.8-0.6c8.9-0.4,17.9-0.8,26.8-1.1c17.3-0.7,34.6-1.4,51.9-2.2c17.3-0.7,34.5-1.4,51.8-2.2
		C212,274.9,215.1,274.8,218.6,274.6z"/>
	<path d="M218.6,274.6c-3.4,0.1-6.5,0.3-9.6,0.4c-17.3,0.7-34.5,1.4-51.8,2.2c-17.3,0.7-34.6,1.4-51.9,2.2
		c-8.9,0.4-17.9,0.7-26.8,1.1c-0.9,0-1.9,0.3-2.8,0.6c-2.8,1.2-5.6,2.5-8.4,3.7c-0.4,0.2-1,0.2-1.3,0c-4.1-3.3-8.2-6.7-12.6-10.3
		c21.8-0.8,43.2-1.6,64.8-2.4c0-0.5,0.1-0.9,0.1-1.3c0-38.8,0-77.5,0-116.3c0-1.1-0.4-1.4-1.4-1.5c-5.2-0.4-10.2,0.4-15.1,2.2
		c-1,0.3-1.5,0.1-2.2-0.5c-2.7-2.8-5.5-5.5-8.6-8.6c0.8,0,1.2,0,1.7,0c46.9,0,93.8,0,140.8,0c1,0,1.7-0.3,2.4-1
		c4.5-4.2,9.1-8.4,13.7-12.6c0.2-0.2,0.4-0.4,0.6-0.5c7,7,14,14,21.1,21.1c-12.1,0-24.1,0-36.2,0c0,37.3,0,74.5,0,111.8
		c2.5-0.1,5-0.3,7.5-0.4c9.3-0.6,18.5-1.2,27.8-1.8c0.8,0,1.3-0.3,1.9-0.9c4.7-5.1,9.3-10.1,14-15.1c0.2-0.2,0.3-0.4,0.5-0.7
		c7.9,7.1,15.7,14.1,23.7,21.3c-25.3,1.6-50.3,3.1-75.3,4.7c0,0.4-0.1,0.7-0.1,1c0,7.8-0.1,15.5,0.1,23.3c0.1,3.8,0.6,7.6,0.9,11.5
		c0,0.4-0.2,1-0.5,1.1c-5.9,2.6-11.8,5.2-17.7,7.8c-0.1,0.1-0.3,0.1-0.3,0.1C217.8,302.8,218.2,288.8,218.6,274.6z M134.8,271
		c27.9-1.2,55.7-2.4,83.5-3.5c0-11.8,0-23.5,0-35.2c-27.9,0-55.6,0-83.5,0C134.8,245.2,134.8,258,134.8,271z M134.8,191.1
		c0,11.4,0,22.6,0,34c27.9,0,55.6,0,83.4,0c0-11.4,0-22.6,0-34C190.4,191.1,162.7,191.1,134.8,191.1z M134.8,183.8
		c27.9,0,55.6,0,83.5,0c0-10.2,0-20.2,0-30.4c-27.8,0-55.6,0-83.5,0C134.8,163.5,134.8,173.6,134.8,183.8z"/>
	<path class="st0" d="M134.8,271c0-13,0-25.8,0-38.7c27.8,0,55.6,0,83.5,0c0,11.7,0,23.4,0,35.2C190.5,268.7,162.7,269.8,134.8,271z
		"/>
	<path class="st0" d="M134.8,191.1c27.8,0,55.6,0,83.4,0c0,11.3,0,22.6,0,34c-27.8,0-55.6,0-83.4,0
		C134.8,213.7,134.8,202.4,134.8,191.1z"/>
	<path class="st0" d="M134.8,183.8c0-10.2,0-20.2,0-30.4c27.8,0,55.6,0,83.5,0c0,10.1,0,20.2,0,30.4
		C190.5,183.8,162.7,183.8,134.8,183.8z"/>
</g>
</svg>
