<?xml version="1.0" encoding="utf-8"?>
<!-- Generator: Adobe Illustrator 20.1.0, SVG Export Plug-In . SVG Version: 6.00 Build 0)  -->
<svg version="1.1" id="图层_1" xmlns="http://www.w3.org/2000/svg" xmlns:xlink="http://www.w3.org/1999/xlink" x="0px" y="0px"
	 viewBox="0 0 360 360" style="enable-background:new 0 0 360 360;" xml:space="preserve">
<style type="text/css">
	.st0{fill:#FFFFFF;}
</style>
<g>
	<path class="st0" d="M0.2,360.5c0-120.1,0-240.2,0-360.2c120.1,0,240.2,0,360.2,0c0,120.1,0,240.2,0,360.2
		C240.4,360.5,120.3,360.5,0.2,360.5z M137.3,246.3c-0.4,24.1-0.8,47.9-1.1,71.8c0.2-0.1,0.6-0.2,1-0.3c5-1.7,10-3.4,15-5
		c1.3-0.4,1.5-1,1.4-2.2c-0.4-7.7-1-15.4-1.1-23.1c-0.2-14.9,0-29.8-0.1-44.8c0-0.9,0.3-1.3,1.2-1.6c4.9-1.8,9.9-3.7,14.8-5.5
		c2.9-1.1,5.9-2.3,8.8-3.5c-0.4-1.6-0.8-3.2-1.2-4.7c-4,1.3-7.8,2.7-11.7,3.8c-3.9,1.2-7.8,2.2-11.8,3.3c0-53.1,0-106,0-159.1
		c12.5,0,24.9,0,37.7,0c-7.7-7.2-15.1-14.3-22.5-21.3c-5.2,4.5-10.4,8.9-15.5,13.3c-0.7,0.6-1.4,0.9-2.4,0.9c-34,0-67.9,0-101.9,0
		c-0.5,0-0.9,0-1.5,0c0.1,0.2,0.1,0.3,0.2,0.4c3.2,3.3,6.5,6.5,9.8,9.7c0.3,0.3,0.9,0.3,1.4,0.2c4.5-0.9,9-1.9,13.5-2.8
		c1.8-0.3,3.7-0.4,5.6-0.5c0,59.1,0,117.8,0,176.8c-10.6,2-21.1,3.9-31.8,5.9c4,7.1,7.9,14.1,11.7,21.1c1.4-0.9,2.7-1.9,4.1-2.6
		c5.1-2.5,10.1-5.1,15.3-7.4c17.3-7.5,35.1-13.8,52.9-20.2C131.8,248.2,134.3,247.3,137.3,246.3z"/>
	<path d="M137.3,246.3c-3,1-5.5,1.9-8.1,2.8c-17.8,6.3-35.6,12.7-52.9,20.2c-5.2,2.2-10.2,4.8-15.3,7.4c-1.4,0.7-2.6,1.7-4.1,2.6
		c-3.9-7-7.8-14-11.7-21.1c10.7-2,21.2-3.9,31.8-5.9c0-58.9,0-117.7,0-176.8c-1.9,0.2-3.8,0.2-5.6,0.5c-4.5,0.9-9,1.9-13.5,2.8
		c-0.4,0.1-1.1,0-1.4-0.2c-3.3-3.2-6.5-6.5-9.8-9.7c-0.1-0.1-0.1-0.2-0.2-0.4c0.6,0,1,0,1.5,0c34,0,67.9,0,101.9,0
		c0.9,0,1.6-0.3,2.4-0.9c5.1-4.4,10.2-8.8,15.5-13.3c7.4,7,14.8,14,22.5,21.3c-12.8,0-25.2,0-37.7,0c0,53,0,105.9,0,159.1
		c4-1.1,7.9-2.1,11.8-3.3c3.9-1.2,7.7-2.5,11.7-3.8c0.4,1.5,0.8,3.1,1.2,4.7c-3,1.2-5.9,2.3-8.8,3.5c-4.9,1.9-9.9,3.7-14.8,5.5
		c-0.8,0.3-1.2,0.7-1.2,1.6c0,14.9-0.1,29.8,0.1,44.8c0.1,7.7,0.7,15.4,1.1,23.1c0.1,1.2-0.1,1.8-1.4,2.2c-5,1.6-10,3.3-15,5
		c-0.4,0.1-0.8,0.2-1,0.3C136.5,294.2,136.9,270.4,137.3,246.3z M137,189.9c-14.9,0-29.7,0-44.6,0c0,19.6,0,39.1,0,58.8
		c14.9-3.5,29.8-7,44.6-10.5C137,221.9,137,206,137,189.9z M92.4,126c14.9,0,29.7,0,44.6,0c0-16.8,0-33.6,0-50.4
		c-14.9,0-29.7,0-44.6,0C92.4,92.4,92.4,109.2,92.4,126z M92.4,182.6c14.9,0,29.8,0,44.6,0c0-16.5,0-32.8,0-49.2
		c-14.9,0-29.7,0-44.6,0C92.4,149.8,92.4,166.1,92.4,182.6z"/>
	<path class="st0" d="M137,189.9c0,16.1,0,32.1,0,48.3c-14.8,3.5-29.6,7-44.6,10.5c0-19.7,0-39.2,0-58.8
		C107.3,189.9,122.1,189.9,137,189.9z"/>
	<path class="st0" d="M92.4,126c0-16.8,0-33.6,0-50.4c14.9,0,29.7,0,44.6,0c0,16.8,0,33.5,0,50.4C122.2,126,107.3,126,92.4,126z"/>
	<path class="st0" d="M92.4,182.6c0-16.4,0-32.8,0-49.2c14.8,0,29.7,0,44.6,0c0,16.4,0,32.8,0,49.2
		C122.2,182.6,107.4,182.6,92.4,182.6z"/>
</g>
</svg>
