<?xml version="1.0" encoding="utf-8"?>
<!-- Generator: Adobe Illustrator 20.1.0, SVG Export Plug-In . SVG Version: 6.00 Build 0)  -->
<svg version="1.1" id="图层_1" xmlns="http://www.w3.org/2000/svg" xmlns:xlink="http://www.w3.org/1999/xlink" x="0px" y="0px"
	 viewBox="0 0 360 360" style="enable-background:new 0 0 360 360;" xml:space="preserve">
<style type="text/css">
	.st0{fill:#FFFFFF;}
</style>
<g>
	<path class="st0" d="M0.2,360.5c0-120.1,0-240.2,0-360.2c120.1,0,240.2,0,360.2,0c0,120.1,0,240.2,0,360.2
		C240.4,360.5,120.3,360.5,0.2,360.5z M147.8,176.8c-7.6-5.2-15-10.2-22.4-15.3c-8.1,24.3-20.1,46.4-36.6,66
		c0.9,0.6,1.8,1.1,2.6,1.8c0.7,0.6,1.2,0.5,2,0c10.5-7.6,19.7-16.6,27.7-26.7c0.5-0.7,1-0.9,1.9-0.9c18.4,0,36.8,0,55.2,0
		c0.4,0,0.8,0,1.3,0c0,10.7,0,21.2,0,31.8c-43.1,0-86.2,0-129.4,0c0.4,0.5,0.7,0.8,1,1c2.9,2.9,5.8,5.8,8.7,8.8
		c0.6,0.6,1.1,0.8,2,0.6c8-2.1,16.1-3.2,24.3-3.2c30.7-0.1,61.4,0,92.2,0c0.4,0,0.9,0,1.3,0c0,16.1,0,32.1,0,48.2
		c-21.2,0-42.3,0-63.5,0c0-0.5,0-0.9,0-1.2c0-6.6,0-13.2,0-19.8c0-1,0.3-1.5,1.1-2c3.6-2.4,7.1-4.9,10.7-7.5
		c-9.5-4-18.9-7.9-28.4-11.8c0,0.5,0.1,0.7,0.1,0.9c0.4,5.3,0.9,10.5,1,15.8c0.2,7.8,0,15.5,0.1,23.3c0,1-0.3,1.5-1.1,2
		c-2.4,1.6-4.7,3.4-7.2,5.1c5.2,4.8,10.2,9.4,15.4,14.2c0.4-0.4,0.7-0.8,1-1.2c2.6-3.2,5.2-6.4,7.7-9.7c0.5-0.7,1.1-1,2-1
		c46.6,0,93.2,0,139.8,0c0.5,0,0.9,0,1.5,0c0,6,0,11.8,0,17.6c0.2,0,0.4-0.1,0.5-0.1c5.1-2.2,10.2-4.4,15.3-6.5
		c0.6-0.3,0.7-0.6,0.7-1.2c-0.1-1-0.2-2-0.2-3c-0.3-10.6-0.5-21.2-0.9-31.8c-0.1-2.5,0.6-3.9,2.8-5.1c2.7-1.5,5.2-3.4,8-5.2
		c-8.7-4-17.3-7.9-26-11.8c0,13.5,0,26.7,0,40c-21.6,0-43.1,0-64.6,0c0-16.1,0-32.1,0-48.2c40,0,79.9,0,120.1,0
		c-6.8-7.6-13.4-15-20.1-22.4c-0.4,0.3-0.7,0.5-1,0.8c-5.3,4.6-10.6,9.2-15.8,13.8c-0.6,0.6-1.3,0.8-2.1,0.8c-26.6,0-53.2,0-79.8,0
		c-0.4,0-0.9,0-1.3,0c0-10.6,0-21.1,0-31.8c26.6,0,53.2,0,80.1,0c-7.2-7.6-14.2-15-21.2-22.4c-0.3,0.3-0.7,0.5-0.9,0.8
		c-5,4.6-9.9,9.2-14.9,13.7c-0.4,0.4-1.2,0.7-1.8,0.7c-36.5,0-73,0-109.4,0c-0.4,0-0.7,0-1.2,0c3.4-4.4,6.7-8.6,9.8-12.9
		c1.3-1.8,2.7-2.7,4.8-3.1C142.6,178.1,145,177.4,147.8,176.8z"/>
	<path d="M147.8,176.8c-2.7,0.6-5.2,1.3-7.7,1.7c-2.1,0.3-3.5,1.3-4.8,3.1c-3.1,4.3-6.4,8.5-9.8,12.9c0.4,0,0.8,0,1.2,0
		c36.5,0,73,0,109.4,0c0.6,0,1.3-0.3,1.8-0.7c5-4.6,9.9-9.2,14.9-13.7c0.3-0.3,0.6-0.5,0.9-0.8c7.1,7.5,14.1,14.8,21.2,22.4
		c-26.9,0-53.4,0-80.1,0c0,10.6,0,21.1,0,31.8c0.4,0,0.9,0,1.3,0c26.6,0,53.2,0,79.8,0c0.9,0,1.5-0.2,2.1-0.8
		c5.3-4.6,10.6-9.2,15.8-13.8c0.3-0.2,0.6-0.5,1-0.8c6.6,7.4,13.3,14.8,20.1,22.4c-40.1,0-80.1,0-120.1,0c0,16.1,0,32.1,0,48.2
		c21.5,0,43,0,64.6,0c0-13.3,0-26.5,0-40c8.8,4,17.3,7.9,26,11.8c-2.8,1.8-5.3,3.7-8,5.2c-2.1,1.2-2.9,2.7-2.8,5.1
		c0.4,10.6,0.6,21.2,0.9,31.8c0,1,0.1,2,0.2,3c0.1,0.6-0.1,0.9-0.7,1.2c-5.1,2.2-10.2,4.4-15.3,6.5c-0.1,0-0.2,0-0.5,0.1
		c0-5.8,0-11.6,0-17.6c-0.6,0-1,0-1.5,0c-46.6,0-93.2,0-139.8,0c-0.9,0-1.5,0.3-2,1c-2.5,3.2-5.1,6.4-7.7,9.7
		c-0.3,0.4-0.6,0.7-1,1.2c-5.1-4.7-10.2-9.4-15.4-14.2c2.5-1.8,4.8-3.5,7.2-5.1c0.8-0.5,1.1-1.1,1.1-2c0-7.8,0.1-15.5-0.1-23.3
		c-0.1-5.3-0.7-10.5-1-15.8c0-0.2,0-0.5-0.1-0.9c9.5,4,18.9,7.9,28.4,11.8c-3.7,2.6-7.2,5.1-10.7,7.5c-0.8,0.5-1.1,1.1-1.1,2
		c0,6.6,0,13.2,0,19.8c0,0.4,0,0.8,0,1.2c21.2,0,42.3,0,63.5,0c0-16,0-32,0-48.2c-0.5,0-0.9,0-1.3,0c-30.7,0-61.4,0-92.2,0
		c-8.2,0-16.3,1.1-24.3,3.2c-0.9,0.2-1.4,0-2-0.6c-2.9-2.9-5.8-5.8-8.7-8.8c-0.3-0.3-0.5-0.6-1-1c43.3,0,86.3,0,129.4,0
		c0-10.6,0-21.1,0-31.8c-0.4,0-0.8,0-1.3,0c-18.4,0-36.8,0-55.2,0c-0.8,0-1.4,0.2-1.9,0.9c-8.1,10.1-17.3,19.1-27.7,26.7
		c-0.7,0.5-1.3,0.6-2,0c-0.8-0.6-1.6-1.1-2.6-1.8c16.5-19.6,28.5-41.7,36.6-66C132.8,166.6,140.2,171.6,147.8,176.8z"/>
</g>
</svg>
