<?xml version="1.0" encoding="utf-8"?>
<!-- Generator: Adobe Illustrator 20.1.0, SVG Export Plug-In . SVG Version: 6.00 Build 0)  -->
<svg version="1.1" id="图层_1" xmlns="http://www.w3.org/2000/svg" xmlns:xlink="http://www.w3.org/1999/xlink" x="0px" y="0px"
	 viewBox="0 0 360 360" style="enable-background:new 0 0 360 360;" xml:space="preserve">
<style type="text/css">
	.st0{fill:#FFFFFF;}
</style>
<g>
	<path class="st0" d="M0.2,360.5c0-120.1,0-240.2,0-360.2c120.1,0,240.2,0,360.2,0c0,120.1,0,240.2,0,360.2
		C240.4,360.5,120.3,360.5,0.2,360.5z M67.4,285c3-1.5,5.9-3.1,8.8-4.4c11.2-4.9,22.8-8.5,34.5-11.8c26.8-7.5,54-13.7,81.1-19.9
		c3.7-0.9,7.4-1.7,11.2-2.5c-0.3-1.2-0.6-2.2-0.8-3.3c-0.2-1.3-0.8-1.4-1.9-1.2c-7,1.1-14,2.2-21.1,3.3c-9.6,1.5-19.3,3-28.9,4.4
		c-3.2,0.5-6.4,1-9.6,1.5c0-14.2,0-28.2,0-42.4c19.2,0,38.3,0,57.3,0c-6.6-6.6-13.2-13.2-19.8-19.8c-0.2,0.2-0.6,0.5-0.9,0.8
		c-3.8,3.8-7.5,7.5-11.3,11.3c-0.6,0.6-1.1,0.8-1.9,0.8c-7.4,0-14.8,0-22.2,0c-0.4,0-0.8,0-1.3,0c0-14.6,0-29,0-43.6
		c21.1,0,42.2,0,63.1,0c-7.4-7.4-14.8-14.8-22.2-22.2c-4.7,4.7-9.5,9.4-14.2,14.2c-0.6,0.6-1.2,0.9-2.1,0.9c-7.8,0-15.5,0-23.3,0
		c-0.4,0-0.9,0-1.3,0c0-18.1,0-36.1,0-54.1c18,0,35.9,0,53.8,0c-7.4-7.4-14.8-14.8-22.4-22.4c-0.1,0.2-0.3,0.6-0.6,0.9
		c-4.5,4.5-9,9-13.5,13.5c-0.6,0.6-1.2,0.9-2.1,0.9c-20.3,0-40.6,0-60.8,0c-0.4,0-0.8,0-1.4,0c0.3-0.5,0.4-0.8,0.6-1.1
		c4.4-8.1,8.9-16.1,13-24.3c1.8-3.7,4.2-6.4,8.1-7.8c1.4-0.5,2.7-1.3,4.2-2.1c-8.4-4.4-16.6-8.7-24.7-13
		c-8,34.4-21.5,66.2-41.3,95.5c1.2,0.8,2.4,1.6,3.6,2.4c2.4-2.4,4.7-4.6,6.9-6.9c9.9-10.7,18.5-22.4,26.6-34.5c0.5-0.7,0.9-1,1.8-1
		c10.6,0,21.2,0,31.8,0c0.4,0,0.8,0,1.1,0c0,18.1,0,36.1,0,54.1c-25.1,0-50.1,0-75.4,0c0.4,0.5,0.7,0.8,1,1c2.9,2.9,5.8,5.8,8.7,8.8
		c0.6,0.6,1.2,0.8,2.1,0.6c8.4-2.3,17-3.2,25.7-3.3c12.2-0.1,24.4,0,36.6,0c0.4,0,0.8,0,1.2,0c0,31.9,0,63.7,0,95.4
		c-9.8,1.2-19.5,2.3-29.2,3.5c0-0.4-0.1-0.6-0.1-0.8c0-20.2,0-40.5,0-60.7c0-0.5,0.4-1.1,0.8-1.4c2.5-2,5.1-3.9,7.7-5.8
		c0.3-0.2,0.5-0.4,0.9-0.8c-8.7-4.3-17.2-8.6-25.9-12.9c0,0.4,0,0.5,0,0.7c0.4,11.7,0.9,23.5,1.1,35.2c0.2,11.3,0,22.6,0,34
		c0,4.2,0,8.4,0,12.6c0,0.7-0.1,1.2-1,1.3c-5.9,0.8-11.9,1.6-17.8,2.4c-2.7,0.4-5.5,0.6-8.3,1C58.1,269.6,62.8,277.4,67.4,285z"/>
	<path d="M67.4,285c-4.6-7.7-9.3-15.5-14-23.4c2.9-0.3,5.6-0.6,8.3-1c5.9-0.8,11.9-1.6,17.8-2.4c0.9-0.1,1-0.6,1-1.3
		c0-4.2,0-8.4,0-12.6c0-11.3,0.1-22.6,0-34c-0.2-11.7-0.7-23.5-1.1-35.2c0-0.2,0-0.4,0-0.7c8.7,4.3,17.2,8.6,25.9,12.9
		c-0.4,0.3-0.6,0.6-0.9,0.8c-2.6,1.9-5.1,3.8-7.7,5.8c-0.4,0.3-0.8,0.9-0.8,1.4c0,20.2,0,40.5,0,60.7c0,0.2,0,0.4,0.1,0.8
		c9.7-1.2,19.4-2.3,29.2-3.5c0-31.7,0-63.5,0-95.4c-0.4,0-0.8,0-1.2,0c-12.2,0-24.4-0.1-36.6,0c-8.7,0.1-17.3,1-25.7,3.3
		c-0.9,0.2-1.4,0.1-2.1-0.6c-2.9-2.9-5.8-5.8-8.7-8.8c-0.3-0.3-0.5-0.6-1-1c25.3,0,50.3,0,75.4,0c0-18.1,0-36,0-54.1
		c-0.4,0-0.7,0-1.1,0c-10.6,0-21.2,0-31.8,0c-0.9,0-1.3,0.3-1.8,1c-8.1,12.1-16.7,23.9-26.6,34.5c-2.2,2.3-4.5,4.5-6.9,6.9
		c-1.2-0.8-2.4-1.6-3.6-2.4c19.8-29.3,33.4-61.1,41.3-95.5c8.2,4.3,16.3,8.6,24.7,13c-1.5,0.8-2.8,1.6-4.2,2.1
		c-3.9,1.4-6.3,4.1-8.1,7.8c-4.1,8.2-8.6,16.2-13,24.3c-0.2,0.3-0.3,0.6-0.6,1.1c0.6,0,1,0,1.4,0c20.3,0,40.6,0,60.8,0
		c0.9,0,1.5-0.2,2.1-0.9c4.5-4.5,9-9,13.5-13.5c0.3-0.3,0.5-0.7,0.6-0.9c7.6,7.6,15,15,22.4,22.4c-17.8,0-35.8,0-53.8,0
		c0,18.1,0,36,0,54.1c0.5,0,0.9,0,1.3,0c7.8,0,15.5,0,23.3,0c0.9,0,1.5-0.3,2.1-0.9c4.8-4.8,9.5-9.6,14.2-14.2
		c7.4,7.4,14.8,14.8,22.2,22.2c-20.9,0-42,0-63.1,0c0,14.6,0,29,0,43.6c0.4,0,0.8,0,1.3,0c7.4,0,14.8,0,22.2,0
		c0.8,0,1.3-0.2,1.9-0.8c3.7-3.8,7.5-7.5,11.3-11.3c0.3-0.3,0.6-0.6,0.9-0.8c6.6,6.6,13.2,13.2,19.8,19.8c-19,0-38.1,0-57.3,0
		c0,14.2,0,28.3,0,42.4c3.2-0.5,6.4-1,9.6-1.5c9.6-1.5,19.3-3,28.9-4.4c7-1.1,14.1-2.1,21.1-3.3c1.2-0.2,1.8-0.1,1.9,1.2
		c0.1,1.1,0.5,2.2,0.8,3.3c-3.8,0.9-7.5,1.7-11.2,2.5c-27.1,6.3-54.3,12.5-81.1,19.9c-11.7,3.3-23.4,6.9-34.5,11.8
		C73.3,281.9,70.4,283.5,67.4,285z"/>
</g>
</svg>
