<?xml version="1.0" encoding="utf-8"?>
<!-- Generator: Adobe Illustrator 20.1.0, SVG Export Plug-In . SVG Version: 6.00 Build 0)  -->
<svg version="1.1" id="图层_1" xmlns="http://www.w3.org/2000/svg" xmlns:xlink="http://www.w3.org/1999/xlink" x="0px" y="0px"
	 viewBox="0 0 360 360" style="enable-background:new 0 0 360 360;" xml:space="preserve">
<style type="text/css">
	.st0{fill:#FFFFFF;}
</style>
<g>
	<path class="st0" d="M0.2,360.5c0-120.1,0-240.2,0-360.2c120.1,0,240.2,0,360.2,0c0,120.1,0,240.2,0,360.2
		C240.4,360.5,120.3,360.5,0.2,360.5z M179.4,314.6c0.1-0.1,0.3-0.2,0.3-0.3c3.9-6.3,9-11.5,14.3-16.5
		c11.2-10.3,23.4-19.3,35.9-28.1c0.5-0.3,1-0.7,1.5-1c-0.8-1.6-1.6-3.2-2.4-4.8c-15,7.9-29.7,15.7-44.7,23.5c0-37.8,0-75.3,0-112.9
		c7.8,0,15.6,0,23.4,0c0,0.3,0.1,0.6,0.1,0.9c0.9,5.8,1.7,11.7,2.8,17.5c3.4,17.3,9,33.9,16.7,49.8c6.5,13.4,14.7,25.5,25.2,36.1
		c10.5,10.7,22.3,19.6,35,27.3c2.1,1.3,4.2,2.5,6.4,3.8c5.1-9.3,13.3-13.4,23.6-14.2c0-0.6,0-1.1,0-1.7c0-3.1,0-3.1-3.1-3.7
		c-15.6-3.3-30.3-9-43.8-17.4c-11.6-7.3-20.8-17.1-28.6-28.3c-2-2.9-3.8-5.9-5.8-8.8c0.5-0.3,0.9-0.5,1.2-0.6
		c16.3-8,32.6-15.8,48.8-23.9c3.7-1.8,7.3-3.1,11.4-2.7c1.8,0.2,3.6,0,5.7,0c-5.6-7.6-11-15-16.5-22.4c-15.3,17.8-33.2,32.3-53,44.8
		c-9-18-15-36.8-18.8-56.4c16.1,0,32.1,0,48.2,0c0,4.7,0,9.3,0,14c0.5-0.3,0.9-0.4,1.2-0.6c5.2-2.8,10.4-5.5,15.6-8.3
		c0.8-0.4,0.9-0.8,0.9-1.7c-0.4-7.9-1-15.8-1.1-23.7c-0.1-26.6,0-53.3-0.1-79.9c0-0.9,0.3-1.5,1.1-2.1c2.8-2,5.6-4.2,8.3-6.2
		c-5.1-5.1-10.2-10.2-15.4-15.4c-0.2,0.2-0.4,0.6-0.7,0.8c-3.4,3.4-6.7,6.8-10.1,10.1c-0.5,0.4-1.2,0.8-1.8,0.8c-24,0-48.1,0-72.1,0
		c-0.6,0-1.3-0.2-1.8-0.5c-5.7-3-11.4-6-17.2-9.1c-0.6-0.3-1.3-0.6-2-1c0,0.5,0,0.9,0,1.2c0.3,7.4,1,14.8,1,22.1
		c0.1,68,0.1,135.9,0,203.9c0,5.5-0.9,10.8-3.2,15.9c-0.2,0.4-0.1,1,0.2,1.3c1.3,1.9,2.7,3.7,4.1,5.5
		C173.1,306.1,176.2,310.4,179.4,314.6z"/>
	<path d="M179.4,314.6c-3.2-4.2-6.3-8.4-9.5-12.7c-1.4-1.8-2.8-3.6-4.1-5.5c-0.2-0.3-0.3-1-0.2-1.3c2.3-5,3.2-10.4,3.2-15.9
		c0-68,0-135.9,0-203.9c0-7.4-0.6-14.8-1-22.1c0-0.4,0-0.7,0-1.2c0.7,0.4,1.3,0.7,2,1c5.7,3,11.4,6.1,17.2,9.1
		c0.5,0.3,1.2,0.5,1.8,0.5c24,0,48.1,0,72.1,0c0.6,0,1.4-0.4,1.8-0.8c3.4-3.3,6.8-6.7,10.1-10.1c0.3-0.3,0.5-0.6,0.7-0.8
		c5.2,5.2,10.3,10.3,15.4,15.4c-2.7,2-5.4,4.1-8.3,6.2c-0.8,0.5-1.1,1.1-1.1,2.1c0,26.6-0.1,53.3,0.1,79.9c0,7.9,0.7,15.8,1.1,23.7
		c0,0.8-0.1,1.3-0.9,1.7c-5.2,2.7-10.4,5.5-15.6,8.3c-0.3,0.2-0.7,0.3-1.2,0.6c0-4.8,0-9.4,0-14c-16.1,0-32.1,0-48.2,0
		c3.8,19.6,9.8,38.4,18.8,56.4c19.8-12.5,37.7-27,53-44.8c5.5,7.4,10.9,14.8,16.5,22.4c-2.1,0-3.9,0.1-5.7,0
		c-4.1-0.4-7.7,0.8-11.4,2.7c-16.2,8.1-32.5,16-48.8,23.9c-0.4,0.2-0.7,0.4-1.2,0.6c1.9,3,3.8,6,5.8,8.8c7.8,11.2,17,21,28.6,28.3
		c13.5,8.5,28.2,14.1,43.8,17.4c3.1,0.6,3.1,0.6,3.1,3.7c0,0.5,0,1,0,1.7c-10.2,0.8-18.4,4.9-23.6,14.2c-2.2-1.3-4.3-2.5-6.4-3.8
		c-12.7-7.8-24.5-16.7-35-27.3c-10.4-10.6-18.7-22.7-25.2-36.1c-7.7-15.9-13.3-32.5-16.7-49.8c-1.1-5.8-1.9-11.7-2.8-17.5
		c0-0.3-0.1-0.5-0.1-0.9c-7.8,0-15.6,0-23.4,0c0,37.6,0,75.1,0,112.9c14.9-7.9,29.7-15.6,44.7-23.5c0.8,1.6,1.6,3.1,2.4,4.8
		c-0.5,0.4-1,0.7-1.5,1c-12.4,8.7-24.7,17.7-35.9,28.1c-5.4,5-10.5,10.2-14.3,16.5C179.7,314.4,179.5,314.5,179.4,314.6z
		 M184.3,115.4c26.3,0,52.5,0,78.8,0c0-15.3,0-30.4,0-45.7c-26.3,0-52.5,0-78.8,0C184.3,85,184.3,100.1,184.3,115.4z M263,122.7
		c-26.3,0-52.6,0-78.8,0c0,14.9,0,29.7,0,44.5c26.3,0,52.5,0,78.8,0C263,152.4,263,137.6,263,122.7z"/>
	<path class="st0" d="M184.3,115.4c0-15.3,0-30.4,0-45.7c26.3,0,52.5,0,78.8,0c0,15.2,0,30.4,0,45.7
		C236.8,115.4,210.6,115.4,184.3,115.4z"/>
	<path class="st0" d="M263,122.7c0,14.8,0,29.6,0,44.5c-26.3,0-52.5,0-78.8,0c0-14.8,0-29.6,0-44.5
		C210.5,122.7,236.7,122.7,263,122.7z"/>
</g>
</svg>
