<?xml version="1.0" encoding="utf-8"?>
<!-- Generator: Adobe Illustrator 20.1.0, SVG Export Plug-In . SVG Version: 6.00 Build 0)  -->
<svg version="1.1" id="图层_1" xmlns="http://www.w3.org/2000/svg" xmlns:xlink="http://www.w3.org/1999/xlink" x="0px" y="0px"
	 viewBox="0 0 360 360" style="enable-background:new 0 0 360 360;" xml:space="preserve">
<style type="text/css">
	.st0{fill:#FFFFFF;}
</style>
<g>
	<path class="st0" d="M0.2,360.5c0-120.1,0-240.2,0-360.2c120.1,0,240.2,0,360.2,0c0,120.1,0,240.2,0,360.2
		C240.4,360.5,120.3,360.5,0.2,360.5z M78.2,94.3c0,0.6,0,1,0,1.4c0.5,14.9,1.1,29.9,1.4,44.8c0.2,12.6,0.1,25.3-0.1,37.9
		c-0.1,9.3-0.5,18.5-1,27.8c-0.8,15.3-2.6,30.6-5.8,45.6c-4.2,19.7-11.6,38.1-22.6,55c-2,3-4,5.9-6.1,9c1.3,0.6,2.6,1.2,3.8,1.9
		c0.7,0.4,1,0.2,1.5-0.3c2.3-2.7,4.7-5.3,7-8.1c9.1-10.9,17-22.5,23-35.4c8.2-17.8,12.3-36.7,14.9-56c1.2-9.4,1.6-18.8,1.9-28.2
		c0.3-13.1,0.6-26.3,0.7-39.4c0.1-11.1,0.1-22.2,0.1-33.2c0-1.7,0-3.3,0-5c60.9,0,121.6,0,182.5,0c-4.7,9.1-9.4,18-14.1,27
		c0.8,0.6,1.7,1,2.3,1.6c0.9,0.8,1.5,0.6,2.4-0.2c8.1-7.4,16.1-14.8,24.2-22.2c3.8-3.5,8.4-5.5,13.5-6.1c1.1-0.1,2.2-0.2,3.5-0.3
		c-7.6-7.2-14.9-14.2-22.4-21.2c-3.4,4.5-6.6,8.8-9.9,13.2c-0.5,0.7-1,1-2,1c-30.1,0-60.2,0-90.4,0c-0.5,0-0.9,0-1.4,0
		c0-7.9,0-15.7,0-23.5c32.5,0,65,0,97.7,0c-6.8-7.2-13.4-14.2-20.2-21.4c-0.3,0.4-0.5,0.8-0.8,1.1c-4.1,4.1-8.2,8.2-12.3,12.3
		c-0.6,0.6-1.2,0.9-2.1,0.9c-20.3,0-40.6,0-61,0c-0.4,0-0.9,0-1.3-0.1c0-0.5-0.1-0.8-0.1-1.2c0-3.9,0-7.8,0-11.8
		c0-0.8,0.3-1.3,1-1.7c3.6-1.9,7.2-3.9,10.8-5.9c0.3-0.2,0.6-0.4,1.1-0.7c-10.7-4.7-21.1-9.4-31.5-14c0.3,21.9,0.7,43.8,1,65.8
		c-0.7,0-1,0-1.3,0c-22.9,0-45.8,0-68.6,0c-0.6,0-1.2-0.2-1.7-0.5c-3-1.7-6-3.4-9-5C84.3,97.7,81.4,96.1,78.2,94.3z M166.6,113.2
		c0,0.9,0,1.7,0,2.4c0.4,11.3,0.7,22.7,1.1,34c0,1-0.2,1.3-1.2,1.4c-7.7,0.7-15.4,1.5-23.1,2.2c-8.6,0.8-17.2,1.7-25.8,2.5
		c-3.2,0.3-6.5,0.6-9.8,1c0.1,0.2,0.1,0.3,0.1,0.3c4,2.9,8.1,5.9,12.1,8.8c0.3,0.2,0.9,0.2,1.3,0c3.1-1.2,6.2-2.5,9.4-3.7
		c1.2-0.5,2.5-0.8,3.8-0.9c8.6-0.9,17.2-1.7,25.8-2.6c2.4-0.2,4.8-0.5,7.4-0.7c0,0.5,0,1,0,1.4c0,5.2,0,10.3,0,15.5
		c0,7,3.4,11.8,10,14.3c3.9,1.4,8,1.8,12.1,1.8c26.2,0,52.4,0,78.6,0c2.8,0,5.6-0.2,8.3-0.7c8.4-1.4,14.8-5.7,18.8-13.4
		c0.2-0.4,0.4-0.8,0.6-1.3c-0.7-0.2-1.2-0.3-1.7-0.5c-5.7-1.7-9.3-5.4-10-11.4c-0.6-4.7-0.8-9.4-1.1-14.1c-0.1-2.3,0-4.6,0-6.9
		c-1.8,0-3.3,0-4.9,0c0,0.2-0.1,0.4-0.1,0.6c-1,6.2-1.9,12.4-3.2,18.5c-0.9,4.3-2.4,8.5-5.1,12.2c-1.9,2.5-4.2,4-7.5,4
		c-21.5,0-43,0-64.6,0c-3,0-6-0.3-8.8-1.5c-3.1-1.4-4.9-3.7-5-7.2c-0.1-3.9-0.1-7.8-0.1-11.8c0-0.2,0.1-0.4,0.1-0.7
		c25.5-2.4,50.8-4.7,76.5-7.1c-7.7-6.4-15-12.7-22.5-18.9c-0.3,0.4-0.5,0.6-0.7,0.9c-3,4.1-6.1,8.1-9.1,12.2
		c-0.5,0.7-1.2,1.1-2.1,1.2c-3.2,0.3-6.4,0.7-9.5,1c-8.7,0.9-17.3,1.9-26,2.8c-2.2,0.2-4.4,0.5-6.7,0.7c0-0.4-0.1-0.5-0.1-0.7
		c0-5.4,0-10.7,0-16.1c0-0.4,0.4-1,0.8-1.3c2.9-2,5.8-3.9,8.7-5.8c0.3-0.2,0.7-0.5,1.1-0.8C185.3,121,176,117.1,166.6,113.2z"/>
	<path d="M78.2,94.3c3.1,1.8,6.1,3.4,9,5.1c3,1.7,6,3.4,9,5c0.5,0.3,1.1,0.5,1.7,0.5c22.9,0,45.8,0,68.6,0c0.3,0,0.6,0,1.3,0
		c-0.3-22-0.7-43.9-1-65.8c10.3,4.6,20.8,9.2,31.5,14c-0.5,0.3-0.8,0.5-1.1,0.7c-3.6,2-7.2,4-10.8,5.9c-0.7,0.4-1,0.8-1,1.7
		c0,3.9,0,7.8,0,11.8c0,0.4,0,0.7,0.1,1.2c0.5,0,0.9,0.1,1.3,0.1c20.3,0,40.6,0,61,0c0.9,0,1.5-0.3,2.1-0.9
		c4.1-4.1,8.2-8.2,12.3-12.3c0.3-0.3,0.5-0.7,0.8-1.1c6.8,7.2,13.4,14.2,20.2,21.4c-32.7,0-65.2,0-97.7,0c0,7.9,0,15.6,0,23.5
		c0.4,0,0.9,0,1.4,0c30.1,0,60.2,0,90.4,0c0.9,0,1.4-0.3,2-1c3.2-4.4,6.5-8.7,9.9-13.2c7.4,7,14.8,14,22.4,21.2
		c-1.3,0.1-2.4,0.2-3.5,0.3c-5.2,0.5-9.7,2.6-13.5,6.1c-8.1,7.4-16.2,14.8-24.2,22.2c-0.8,0.8-1.4,1-2.4,0.2c-0.7-0.6-1.5-1-2.3-1.6
		c4.7-9,9.3-17.9,14.1-27c-60.9,0-121.6,0-182.5,0c0,1.7,0,3.3,0,5c0,11.1,0,22.2-0.1,33.2c-0.2,13.2-0.4,26.3-0.7,39.4
		c-0.2,9.4-0.6,18.9-1.9,28.2c-2.6,19.3-6.7,38.2-14.9,56c-6,12.9-13.9,24.5-23,35.4c-2.3,2.7-4.7,5.4-7,8.1
		c-0.5,0.5-0.9,0.7-1.5,0.3c-1.2-0.7-2.5-1.3-3.8-1.9c2.1-3,4.2-6,6.1-9c11-16.9,18.4-35.3,22.6-55c3.2-15,5-30.3,5.8-45.6
		c0.5-9.3,0.8-18.5,1-27.8c0.2-12.6,0.3-25.3,0.1-37.9c-0.2-14.9-0.9-29.9-1.4-44.8C78.2,95.4,78.2,95,78.2,94.3z"/>
	<path d="M166.6,113.2c9.4,3.9,18.7,7.8,28.2,11.7c-0.4,0.3-0.8,0.6-1.1,0.8c-2.9,1.9-5.8,3.8-8.7,5.8c-0.4,0.3-0.8,0.8-0.8,1.3
		c-0.1,5.4,0,10.7,0,16.1c0,0.2,0,0.4,0.1,0.7c2.3-0.2,4.5-0.4,6.7-0.7c8.7-0.9,17.3-1.9,26-2.8c3.2-0.3,6.4-0.7,9.5-1
		c0.9-0.1,1.5-0.4,2.1-1.2c3-4.1,6.1-8.1,9.1-12.2c0.2-0.3,0.4-0.6,0.7-0.9c7.4,6.3,14.8,12.5,22.5,18.9
		c-25.7,2.4-51.1,4.7-76.5,7.1c-0.1,0.3-0.1,0.5-0.1,0.7c0,3.9,0,7.8,0.1,11.8c0.1,3.4,1.9,5.8,5,7.2c2.8,1.3,5.8,1.5,8.8,1.5
		c21.5,0,43,0,64.6,0c3.3,0,5.6-1.5,7.5-4c2.7-3.6,4.2-7.8,5.1-12.2c1.3-6.1,2.1-12.3,3.2-18.5c0-0.2,0.1-0.3,0.1-0.6
		c1.5,0,3.1,0,4.9,0c0,2.3-0.1,4.6,0,6.9c0.3,4.7,0.6,9.4,1.1,14.1c0.7,6,4.3,9.7,10,11.4c0.5,0.2,1,0.3,1.7,0.5
		c-0.2,0.5-0.4,0.9-0.6,1.3c-4,7.7-10.4,12-18.8,13.4c-2.7,0.5-5.6,0.7-8.3,0.7c-26.2,0.1-52.4,0-78.6,0c-4.1,0-8.2-0.4-12.1-1.8
		c-6.6-2.4-9.9-7.2-10-14.3c0-5.2,0-10.3,0-15.5c0-0.4,0-0.9,0-1.4c-2.6,0.2-5,0.5-7.4,0.7c-8.6,0.9-17.2,1.7-25.8,2.6
		c-1.3,0.1-2.6,0.4-3.8,0.9c-3.1,1.2-6.2,2.5-9.4,3.7c-0.4,0.1-1,0.2-1.3,0c-4.1-2.9-8.1-5.9-12.1-8.8c-0.1,0-0.1-0.1-0.1-0.3
		c3.3-0.3,6.5-0.7,9.8-1c8.6-0.8,17.2-1.7,25.8-2.5c7.7-0.8,15.4-1.5,23.1-2.2c1-0.1,1.3-0.4,1.2-1.4c-0.4-11.3-0.8-22.7-1.1-34
		C166.6,114.9,166.6,114.1,166.6,113.2z"/>
</g>
</svg>
