<?xml version="1.0" encoding="utf-8"?>
<!-- Generator: Adobe Illustrator 20.1.0, SVG Export Plug-In . SVG Version: 6.00 Build 0)  -->
<svg version="1.1" id="图层_1" xmlns="http://www.w3.org/2000/svg" xmlns:xlink="http://www.w3.org/1999/xlink" x="0px" y="0px"
	 viewBox="0 0 360 360" style="enable-background:new 0 0 360 360;" xml:space="preserve">
<style type="text/css">
	.st0{fill:#FFFFFF;}
</style>
<g>
	<path class="st0" d="M0.2,360.5c0-120.1,0-240.2,0-360.2c120.1,0,240.2,0,360.2,0c0,120.1,0,240.2,0,360.2
		C240.4,360.5,120.3,360.5,0.2,360.5z M194.8,64.8c0.4,0.5,0.7,0.8,0.9,1c2.9,2.9,5.9,5.9,8.8,8.8c0.6,0.6,1.1,0.7,2,0.5
		c7.6-2,15.3-3.1,23.1-3.2c10-0.1,20.1-0.1,30.1-0.1c0.3,0,0.6,0,0.9,0.1c0,13.7,0,27.3,0,41.1c-21.9,0-43.8,0-65.9,0
		c0.4,0.5,0.7,0.7,0.9,1c3,3,6,5.9,8.9,8.9c0.6,0.6,1.1,0.7,1.9,0.5c8.2-2.2,16.6-3.2,25-3.3c9.3-0.1,18.6,0,27.8,0
		c0.4,0,0.9,0,1.3,0c0,14.2,0,28.3,0,42.3c-51.8,0-103.5,0-155.3,0c0-12.9,0-25.8,0-38.8c22.7,0,45.4,0,68.3,0
		c-6.8-7.2-13.4-14.2-20.1-21.2c-0.3,0.2-0.5,0.4-0.7,0.6c-4.6,4.3-9.2,8.5-13.9,12.7c-0.5,0.4-1.2,0.7-1.9,0.8
		c-10.2,0-20.4,0-30.6,0c-0.4,0-0.8,0-1.2-0.1c0-0.5,0-1,0-1.4c0-12.4,0-24.7,0-37.1c0-1.1,0.3-1.5,1.4-1.8
		c12.2-3.1,24.4-6.3,36.6-9.5c9-2.4,18-4.7,27.2-6c1.7-0.2,3.5-0.4,5.4-0.7c-6.4-6.8-12.6-13.4-18.9-20.1
		c-4.2,4.4-8.8,8.2-13.7,11.6c-11.5,7.8-24.2,13.2-37.4,17.6c-0.5,0.2-1.1,0.1-1.6-0.1c-5.6-2.4-11.3-4.9-16.9-7.4
		c-0.3-0.1-0.7-0.3-1.1-0.4c1.2,21.5,1.3,42.9,1.1,64.2c-0.2,21.4-0.6,42.7-0.9,64.1c0,0,0.1,0,0.2,0c5.9-2.2,11.9-4.4,17.8-6.7
		c0.3-0.1,0.7-0.7,0.7-1.1c0.1-2.8,0-5.7,0-8.5c0-1.1,0-2.3,0-3.4c51.9,0,103.6,0,155.5,0c0,5.1,0,10.1,0,15.3
		c6.4-2.4,12.6-4.7,18.8-7c0-0.4,0-0.7,0-1c-0.4-8.6-1-17.2-1.1-25.9c-0.1-24.8,0-49.5-0.1-74.3c0-1.9,0.5-3.1,2-4.2
		c2.6-2.1,5-4.3,7.6-6.6c-6.4-4.8-12.6-9.5-18.9-14.2c-2.8,3.9-5.6,7.7-8.3,11.5c-0.8,1.1-1.6,1.5-2.9,1.5c-20.4,0-40.9,0-61.3,0
		C196,64.8,195.5,64.8,194.8,64.8z"/>
	<path d="M194.8,64.8c0.7,0,1.2,0,1.7,0c20.4,0,40.9,0,61.3,0c1.4,0,2.1-0.4,2.9-1.5c2.7-3.8,5.5-7.6,8.3-11.5
		c6.3,4.7,12.6,9.4,18.9,14.2c-2.6,2.3-5,4.5-7.6,6.6c-1.4,1.2-2,2.4-2,4.2c0.1,24.8,0,49.5,0.1,74.3c0.1,8.6,0.7,17.2,1.1,25.9
		c0,0.3,0,0.6,0,1c-6.2,2.3-12.4,4.6-18.8,7c0-5.1,0-10.2,0-15.3c-51.9,0-103.6,0-155.5,0c0,1.2,0,2.3,0,3.4c0,2.8,0,5.7,0,8.5
		c0,0.4-0.3,1-0.7,1.1c-5.9,2.3-11.9,4.5-17.8,6.7c-0.1,0-0.2,0-0.2,0c0.3-21.4,0.7-42.7,0.9-64.1c0.2-21.3,0.1-42.7-1.1-64.2
		c0.4,0.2,0.8,0.3,1.1,0.4c5.6,2.5,11.3,4.9,16.9,7.4c0.5,0.2,1.1,0.3,1.6,0.1c13.1-4.5,25.8-9.8,37.4-17.6
		c4.9-3.3,9.5-7.1,13.7-11.6c6.3,6.7,12.5,13.3,18.9,20.1c-1.9,0.2-3.7,0.4-5.4,0.7c-9.2,1.3-18.3,3.6-27.2,6
		c-12.2,3.3-24.4,6.4-36.6,9.5c-1.1,0.3-1.4,0.7-1.4,1.8c0,12.4,0,24.7,0,37.1c0,0.4,0,0.9,0,1.4c0.5,0,0.9,0.1,1.2,0.1
		c10.2,0,20.4,0,30.6,0c0.6,0,1.4-0.3,1.9-0.8c4.6-4.2,9.2-8.5,13.9-12.7c0.2-0.2,0.4-0.3,0.7-0.6c6.6,7,13.3,14,20.1,21.2
		c-22.9,0-45.6,0-68.3,0c0,13,0,25.9,0,38.8c51.8,0,103.5,0,155.3,0c0-14.1,0-28.1,0-42.3c-0.5,0-0.9,0-1.3,0
		c-9.3,0-18.6-0.1-27.8,0c-8.5,0.1-16.8,1.1-25,3.3c-0.8,0.2-1.3,0.1-1.9-0.5c-2.9-3-5.9-6-8.9-8.9c-0.2-0.2-0.5-0.5-0.9-1
		c22.1,0,43.9,0,65.9,0c0-13.8,0-27.4,0-41.1c-0.3,0-0.6-0.1-0.9-0.1c-10,0-20.1-0.1-30.1,0.1c-7.8,0.1-15.5,1.2-23.1,3.2
		c-0.9,0.2-1.4,0.1-2-0.5c-2.9-3-5.9-5.9-8.8-8.8C195.5,65.6,195.2,65.3,194.8,64.8z"/>
</g>
</svg>
