<?xml version="1.0" encoding="utf-8"?>
<!-- Generator: Adobe Illustrator 20.1.0, SVG Export Plug-In . SVG Version: 6.00 Build 0)  -->
<svg version="1.1" id="图层_1" xmlns="http://www.w3.org/2000/svg" xmlns:xlink="http://www.w3.org/1999/xlink" x="0px" y="0px"
	 viewBox="0 0 360 360" style="enable-background:new 0 0 360 360;" xml:space="preserve">
<style type="text/css">
	.st0{fill:#FFFFFF;}
</style>
<g>
	<path class="st0" d="M0.2,360.5c0-120.1,0-240.2,0-360.2c120.1,0,240.2,0,360.2,0c0,120.1,0,240.2,0,360.2
		C240.4,360.5,120.3,360.5,0.2,360.5z M176.9,152.1c-7.1-7.1-14.1-14.1-21.1-21.1c0,0-0.1,0.1-0.3,0.2c-4.7,3.5-9.1,7.3-14,10.5
		c-14.2,9.4-29.8,15.7-46.1,20.7c-0.5,0.1-1.2,0-1.7-0.2c-5.6-3.1-11.2-6.2-16.7-9.4c-0.4-0.2-0.7-0.4-1-0.5
		c1.2,54.8,1.4,109.5-0.2,164.2c0,0.2,0,0.3,0,0.5c0.2,0,0.4,0,0.5-0.1c5.9-2.6,11.8-5.1,17.7-7.8c0.3-0.1,0.6-0.8,0.6-1.2
		c0.1-3.2,0-6.3,0-9.5c0-0.4,0-0.8,0.1-1.3c58.5,0,116.9,0,175.5,0c0,6.2,0,12.4,0,18.7c0.6-0.3,1-0.5,1.4-0.7
		c4.7-2.6,9.4-5.3,14.1-7.9c1.1-0.6,2.6-1,3.1-1.9c0.5-1,0-2.5,0-3.7c0-0.1,0-0.2,0-0.2c-0.3-10.4-0.8-20.9-0.8-31.3
		c-0.1-32.4,0-64.9-0.1-97.3c0-1.2,0.4-2.1,1.3-2.8c2-1.6,4-3.4,5.9-5c0.3-0.3,0.7-0.6,1-1c-6.4-5.6-12.6-11-19-16.6
		c-0.3,0.4-0.6,0.8-0.9,1.1c-3.3,3.3-6.6,6.5-9.8,9.9c-0.7,0.7-1.4,1-2.4,1c-24.5,0-49,0-73.6,0c-0.5,0-0.9,0-1.7,0
		c3.6,3.6,6.9,6.9,10.3,10.2c0.3,0.3,1,0.3,1.4,0.2c8-2,16.2-3.1,24.4-3.2c14.6-0.1,29.3,0,43.9,0c0.4,0,0.8,0,1.3,0.1
		c0,18.1,0,36,0,54.1c-24.3,0-48.5,0-73,0c0.4,0.5,0.7,0.8,1,1c2.9,2.9,5.8,5.8,8.7,8.8c0.7,0.7,1.2,0.8,2.1,0.5
		c7.4-1.9,14.9-3,22.5-3.1c12.6-0.2,25.2-0.1,37.8-0.1c0.3,0,0.6,0.1,0.9,0.1c0,20.8,0,41.5,0,62.2c-58.5,0-116.9,0-175.3,0
		c0-20.8,0-41.5,0-62.3c27.8,0,55.6,0,83.6,0c-6.4-6.8-12.6-13.4-18.9-20.1c-0.3,0.3-0.7,0.6-1,0.9c-3.7,3.7-7.5,7.5-11.2,11.2
		c-0.6,0.6-1.1,0.9-2,0.8c-16.4,0-32.9,0-49.3,0c-0.4,0-0.8,0-1.3,0c0-0.5-0.1-0.7-0.1-1c0-16.6,0-33.1,0-49.7
		c0-0.9,0.3-1.1,1.1-1.3c10-2.1,20.1-4.1,30.1-6.4c9-2,18-4.4,27-6.4C160.8,153.8,168.8,152.7,176.9,152.1z"/>
	<path d="M176.9,152.1c-8.1,0.6-16.1,1.7-24,3.5c-9,2-18,4.4-27,6.4c-10,2.2-20.1,4.3-30.1,6.4c-0.8,0.2-1.1,0.4-1.1,1.3
		c0,16.6,0,33.1,0,49.7c0,0.3,0,0.6,0.1,1c0.4,0,0.9,0,1.3,0c16.4,0,32.9,0,49.3,0c0.8,0,1.4-0.3,2-0.8c3.7-3.8,7.5-7.5,11.2-11.2
		c0.3-0.3,0.6-0.6,1-0.9c6.3,6.7,12.5,13.3,18.9,20.1c-28,0-55.8,0-83.6,0c0,20.9,0,41.6,0,62.3c58.5,0,116.8,0,175.3,0
		c0-20.7,0-41.4,0-62.2c-0.3,0-0.6-0.1-0.9-0.1c-12.6,0-25.2-0.1-37.8,0.1c-7.6,0.1-15.1,1.2-22.5,3.1c-0.9,0.2-1.4,0.1-2.1-0.5
		c-2.9-3-5.8-5.8-8.7-8.8c-0.3-0.3-0.5-0.6-1-1c24.5,0,48.7,0,73,0c0-18.1,0-36,0-54.1c-0.4,0-0.9-0.1-1.3-0.1
		c-14.6,0-29.3-0.1-43.9,0c-8.3,0-16.4,1.2-24.4,3.2c-0.4,0.1-1.1,0.1-1.4-0.2c-3.4-3.3-6.7-6.6-10.3-10.2c0.7,0,1.2,0,1.7,0
		c24.5,0,49,0,73.6,0c1,0,1.7-0.3,2.4-1c3.2-3.3,6.5-6.6,9.8-9.9c0.3-0.3,0.6-0.7,0.9-1.1c6.4,5.6,12.6,11.1,19,16.6
		c-0.4,0.3-0.7,0.7-1,1c-2,1.7-3.9,3.4-5.9,5c-1,0.8-1.3,1.6-1.3,2.8c0,32.4,0,64.9,0.1,97.3c0,10.4,0.5,20.9,0.8,31.3
		c0,0.1,0,0.2,0,0.2c0.1,1.3,0.5,2.8,0,3.7c-0.5,0.9-2,1.3-3.1,1.9c-4.7,2.6-9.4,5.3-14.1,7.9c-0.4,0.2-0.8,0.4-1.4,0.7
		c0-6.3,0-12.4,0-18.7c-58.5,0-116.9,0-175.5,0c0,0.4-0.1,0.8-0.1,1.3c0,3.2,0,6.3,0,9.5c0,0.4-0.3,1-0.6,1.2
		c-5.9,2.6-11.8,5.2-17.7,7.8c-0.1,0.1-0.3,0.1-0.5,0.1c0-0.2,0-0.4,0-0.5c1.7-54.7,1.4-109.4,0.2-164.2c0.3,0.1,0.6,0.3,1,0.5
		c5.6,3.1,11.1,6.3,16.7,9.4c0.5,0.3,1.2,0.4,1.7,0.2c16.2-5,31.9-11.3,46.1-20.7c4.9-3.2,9.3-7,14-10.5c0.1-0.1,0.2-0.2,0.3-0.2
		C162.8,138,169.8,145,176.9,152.1z"/>
</g>
</svg>
