<?xml version="1.0" encoding="utf-8"?>
<!-- Generator: Adobe Illustrator 20.1.0, SVG Export Plug-In . SVG Version: 6.00 Build 0)  -->
<svg version="1.1" id="图层_1" xmlns="http://www.w3.org/2000/svg" xmlns:xlink="http://www.w3.org/1999/xlink" x="0px" y="0px"
	 viewBox="0 0 360 360" style="enable-background:new 0 0 360 360;" xml:space="preserve">
<style type="text/css">
	.st0{fill:#FFFFFF;}
</style>
<g>
	<path class="st0" d="M0.2,360.5c0-120.1,0-240.2,0-360.2c120.1,0,240.2,0,360.2,0c0,120.1,0,240.2,0,360.2
		C240.4,360.5,120.3,360.5,0.2,360.5z M98.2,145c0-0.4,0-0.7,0-0.9c0-13.8,0-27.7,0-41.5c0-0.9,0.3-1.1,1.1-1.3
		c11.6-2.2,23.2-4.3,34.8-6.7c8.7-1.8,17.4-3.3,26.3-3.6c1.6,0,3.1,0,4.7,0c0-0.1,0-0.2,0.1-0.4c-5.8-7-11.6-14-17.4-20.9
		c-2.5,2.1-4.8,4.3-7.3,6.2c-2.5,1.9-5.1,3.7-7.9,5.3c-10.6,6.3-22,10.5-33.8,14c-0.5,0.1-1.2-0.1-1.6-0.3
		c-5.2-3.1-10.4-6.2-15.5-9.3c-0.4-0.2-0.7-0.4-1.1-0.6c1.6,46.3,1,92.5-0.1,138.8c0.1,0,0.2,0.1,0.3,0c5.6-2.2,11.1-4.4,16.7-6.7
		c0.3-0.1,0.6-0.8,0.6-1.2c0.1-2.6,0-5.2,0-7.8c0-0.6,0-1.2,0-1.8c55.8,0,111.5,0,167.2,0c0,4.7,0,9.3,0,14.1c6-2,11.9-4,17.7-5.9
		c-0.2-4-0.5-7.9-0.6-11.7c-0.2-11-0.5-22-0.5-33c-0.1-22.4,0-44.9,0-67.3c0-0.8,0.2-1.3,0.9-1.8c3.2-2.5,6.4-5,9.8-7.6
		c-6.7-5.1-13.4-10.2-20.1-15.4c-0.3,0.4-0.6,0.7-0.8,1c-2.6,3.6-5.2,7.2-7.8,10.8c-0.6,0.8-1.2,1.2-2.2,1.2c-20.6,0-41.2,0-61.8,0
		c-0.5,0-0.9,0-1.6,0c0.5,0.5,0.8,0.8,1,1.1c2.9,2.9,5.8,5.8,8.7,8.8c0.6,0.6,1.1,0.8,2,0.6c7.6-2,15.4-3.1,23.2-3.2
		c10.5-0.1,21-0.1,31.4-0.1c0.2,0,0.4,0.1,0.6,0.1c0,15.7,0,31.3,0,47c-20.8,0-41.4,0-62.3,0c0.4,0.4,0.6,0.7,0.8,0.9
		c3,3,6,5.9,8.9,8.9c0.6,0.6,1.1,0.8,2,0.5c7.1-1.9,14.4-3,21.8-3.1c9.4-0.2,18.7-0.1,28.1-0.1c0.3,0,0.5,0.1,0.7,0.1
		c0,15.7,0,31.2,0,46.8c-55.7,0-111.4,0-167.1,0c0-15.7,0-31.2,0-47c21.9,0,43.8,0,66,0c-6.8-7.3-13.5-14.3-20.1-21.3
		c-0.3,0.3-0.5,0.5-0.7,0.7c-4.6,4.3-9.3,8.6-14,12.8c-0.4,0.4-1.1,0.6-1.7,0.6c-6.6,0-13.2,0-19.8,0C104.8,145,101.6,145,98.2,145z
		"/>
	<path d="M98.2,145c3.4,0,6.6,0,9.7,0c6.6,0,13.2,0,19.8,0c0.6,0,1.3-0.3,1.7-0.6c4.7-4.2,9.3-8.5,14-12.8c0.2-0.2,0.4-0.4,0.7-0.7
		c6.6,7,13.3,14,20.1,21.3c-22.2,0-44.1,0-66,0c0,15.7,0,31.3,0,47c55.7,0,111.4,0,167.1,0c0-15.6,0-31.2,0-46.8
		c-0.2,0-0.5-0.1-0.7-0.1c-9.4,0-18.7-0.1-28.1,0.1c-7.4,0.1-14.6,1.2-21.8,3.1c-0.9,0.2-1.4,0.1-2-0.5c-2.9-3-5.9-6-8.9-8.9
		c-0.2-0.2-0.5-0.5-0.8-0.9c20.9,0,41.5,0,62.3,0c0-15.7,0-31.3,0-47c-0.2,0-0.4-0.1-0.6-0.1c-10.5,0-21-0.1-31.4,0.1
		c-7.9,0.1-15.6,1.2-23.2,3.2c-0.9,0.2-1.4,0.1-2-0.6c-2.9-2.9-5.8-5.8-8.7-8.8c-0.3-0.3-0.5-0.6-1-1.1c0.7,0,1.2,0,1.6,0
		c20.6,0,41.2,0,61.8,0c1,0,1.7-0.3,2.2-1.2c2.6-3.6,5.2-7.2,7.8-10.8c0.2-0.3,0.5-0.6,0.8-1c6.7,5.1,13.3,10.2,20.1,15.4
		c-3.3,2.6-6.5,5.1-9.8,7.6c-0.6,0.5-0.9,1-0.9,1.8c0,22.4,0,44.9,0,67.3c0,11,0.3,22,0.5,33c0.1,3.9,0.4,7.7,0.6,11.7
		c-5.8,1.9-11.7,3.9-17.7,5.9c0-4.8,0-9.4,0-14.1c-55.8,0-111.4,0-167.2,0c0,0.6,0,1.2,0,1.8c0,2.6,0,5.2,0,7.8c0,0.4-0.3,1-0.6,1.2
		c-5.5,2.3-11.1,4.5-16.7,6.7c-0.1,0-0.1,0-0.3,0c1.2-46.2,1.7-92.4,0.1-138.8c0.3,0.2,0.7,0.4,1.1,0.6c5.2,3.1,10.3,6.2,15.5,9.3
		c0.5,0.3,1.2,0.5,1.6,0.3c11.7-3.6,23.2-7.8,33.8-14c2.7-1.6,5.4-3.4,7.9-5.3c2.5-1.9,4.8-4.1,7.3-6.2c5.7,6.9,11.6,13.9,17.4,20.9
		c0,0.1,0,0.2-0.1,0.4c-1.6,0-3.1,0-4.7,0c-8.9,0.3-17.6,1.8-26.3,3.6c-11.6,2.4-23.2,4.5-34.8,6.7c-0.8,0.2-1.1,0.4-1.1,1.3
		c0,13.8,0,27.7,0,41.5C98.2,144.3,98.2,144.6,98.2,145z"/>
</g>
</svg>
