<?xml version="1.0" encoding="utf-8"?>
<!-- Generator: Adobe Illustrator 20.1.0, SVG Export Plug-In . SVG Version: 6.00 Build 0)  -->
<svg version="1.1" id="图层_1" xmlns="http://www.w3.org/2000/svg" xmlns:xlink="http://www.w3.org/1999/xlink" x="0px" y="0px"
	 viewBox="0 0 360 360" style="enable-background:new 0 0 360 360;" xml:space="preserve">
<style type="text/css">
	.st0{fill:#FFFFFF;}
</style>
<g>
	<path class="st0" d="M0.2,360.5c0-120.1,0-240.2,0-360.2c120.1,0,240.2,0,360.2,0c0,120.1,0,240.2,0,360.2
		C240.4,360.5,120.3,360.5,0.2,360.5z M45.2,272.3c23.4-24.9,44-51.6,59.8-81.8c0.2,0,0.3,0.1,0.5,0.1c-0.3,42.5-0.7,85-1,127.5
		c0.2-0.1,0.6-0.2,0.9-0.3c5.1-1.7,10.1-3.4,15.2-5c0.9-0.3,1.2-0.7,1.1-1.7c-0.4-12.8-1-25.6-1.1-38.5c-0.2-31.7-0.1-63.4,0-95.2
		c0-0.4,0-0.8,0.1-1.5c0.4,0.4,0.5,0.6,0.7,0.8c3.9,5.8,8,11.6,11.8,17.5c4.8,7.5,9,15.3,11.8,23.8c0.7,2,1.7,4,2.9,5.7
		c2,2.9,4.3,2.9,6.7,0.3c2.9-3.2,4.7-6.9,6-11c2-6.5,0.6-12.1-3.9-17c-2.3-2.5-4.8-4.8-7.5-6.9c-8.7-6.7-18.1-12.2-27.6-17.7
		c-0.8-0.4-1.1-0.9-1.1-1.8c0-6.2,0-12.5,0-18.7c0-0.4,0-0.8,0.1-1.3c20,0,39.9,0,60,0c-6.4-7.2-12.6-14.2-18.9-21.2
		c-0.4,0.3-0.7,0.5-0.9,0.8c-4.6,4.2-9.1,8.4-13.7,12.6c-0.5,0.4-1.2,0.7-1.9,0.7c-7.8,0-15.6,0-23.4,0c-0.4,0-0.9,0-1.4,0
		c0-0.7,0-1.2,0-1.7c0-16,0-32,0-48c0-10.5,0-21,0-31.4c0-0.9,0.3-1.4,1.1-1.9c1.9-1.1,3.7-2.3,5.6-3.5c0.9-0.6,1.8-1.1,2.8-1.8
		c-8.7-4.4-17.2-8.6-25.9-12.9c0,0.9,0,1.6,0,2.4c0.3,7.4,0.9,14.8,1,22.1c0.1,25.1,0,50.2,0,75.4c0,0.4,0,0.8-0.1,1.4
		c-19.6,0-39.1,0-58.7,0c0.2,0.3,0.3,0.4,0.4,0.5c3.2,3.2,6.4,6.4,9.6,9.6c0.3,0.3,1.1,0.4,1.6,0.3c7.6-1.9,15.3-3,23.1-3.2
		c7.3-0.1,14.6-0.1,22-0.1c0.3,0,0.5,0,0.9,0.1c-0.2,0.6-0.3,1.1-0.4,1.5c-3,8.4-5.7,16.9-8.9,25.2c-10.2,25.9-23.5,50.2-38.8,73.3
		c-4,6.1-8.3,12-12.4,18c-0.2,0.3-0.4,1-0.3,1.3C43.7,270.2,44.4,271.2,45.2,272.3z M54.6,74.3c0.2,0.4,0.4,0.8,0.6,1.1
		c1.8,3.4,3.6,6.9,5.3,10.4c4.6,9.7,8.4,19.7,10.5,30.2c0.6,3.3,1.3,6.5,2.9,9.5c1.9,3.6,4.6,4.1,7.7,1.5c3.2-2.7,5.6-6.1,7.2-10
		c2-4.9,1.9-9.9-0.7-14.6c-1.3-2.4-2.9-4.7-4.6-6.8c-6.1-7.5-13.4-13.8-20.8-20c-1.5-1.3-3-2.5-4.5-3.7
		C56.9,72.7,55.8,73.5,54.6,74.3z M131.2,135.6c0.9-1.2,1.8-2.3,2.6-3.4c10.7-15.4,21.4-30.8,32.1-46.3c0.4-0.6,1-1.1,1.6-1.5
		c2.3-1.4,4.7-2.7,7.3-4.2c-7.2-4.4-14.2-8.6-21.3-13c-6,23.2-15.5,44.8-25.9,66C128.9,134.1,130,134.8,131.2,135.6z"/>
	<path d="M45.2,272.3c-0.8-1.1-1.5-2.1-2-3.1c-0.2-0.3,0-1,0.3-1.3c4.1-6,8.4-11.9,12.4-18c15.3-23.2,28.7-47.4,38.8-73.3
		c3.3-8.3,6-16.8,8.9-25.2c0.2-0.5,0.3-1,0.4-1.5c-0.4,0-0.7-0.1-0.9-0.1c-7.3,0-14.6-0.1-22,0.1C73.3,150,65.6,151,58,153
		c-0.5,0.1-1.3,0-1.6-0.3c-3.2-3.1-6.4-6.4-9.6-9.6c-0.1-0.1-0.2-0.2-0.4-0.5c19.6,0,39.1,0,58.7,0c0-0.5,0.1-1,0.1-1.4
		c0-25.1,0.1-50.2,0-75.4c0-7.4-0.6-14.8-1-22.1c0-0.7,0-1.5,0-2.4c8.6,4.3,17.1,8.6,25.9,12.9c-1.1,0.7-1.9,1.3-2.8,1.8
		c-1.9,1.2-3.7,2.4-5.6,3.5c-0.8,0.5-1.1,1-1.1,1.9c0,10.5,0,21,0,31.4c0,16,0,32,0,48c0,0.5,0,1,0,1.7c0.5,0,0.9,0,1.4,0
		c7.8,0,15.6,0,23.4,0c0.6,0,1.4-0.3,1.9-0.7c4.6-4.2,9.1-8.4,13.7-12.6c0.3-0.2,0.5-0.5,0.9-0.8c6.3,7,12.5,14,18.9,21.2
		c-20.1,0-40,0-60,0c0,0.5-0.1,0.9-0.1,1.3c0,6.2,0,12.5,0,18.7c0,0.9,0.3,1.3,1.1,1.8c9.5,5.5,18.9,11,27.6,17.7
		c2.7,2.1,5.2,4.4,7.5,6.9c4.5,4.9,5.9,10.5,3.9,17c-1.3,4.1-3.1,7.9-6,11c-2.4,2.6-4.7,2.6-6.7-0.3c-1.2-1.8-2.2-3.7-2.9-5.7
		c-2.8-8.5-7-16.3-11.8-23.8c-3.8-5.9-7.9-11.7-11.8-17.5c-0.1-0.2-0.3-0.4-0.7-0.8c0,0.7-0.1,1.1-0.1,1.5c0,31.7-0.1,63.4,0,95.2
		c0.1,12.8,0.7,25.6,1.1,38.5c0,1-0.2,1.4-1.1,1.7c-5.1,1.6-10.2,3.4-15.2,5c-0.4,0.1-0.7,0.2-0.9,0.3c0.3-42.5,0.7-85,1-127.5
		c-0.2,0-0.3-0.1-0.5-0.1C89.2,220.7,68.6,247.4,45.2,272.3z"/>
	<path d="M54.6,74.3c1.2-0.8,2.3-1.5,3.6-2.4c1.5,1.2,3,2.5,4.5,3.7c7.4,6.2,14.7,12.5,20.8,20c1.7,2.1,3.3,4.4,4.6,6.8
		c2.6,4.7,2.7,9.6,0.7,14.6c-1.6,3.9-4,7.3-7.2,10c-3.1,2.6-5.8,2.1-7.7-1.5c-1.6-3-2.2-6.2-2.9-9.5c-2.1-10.6-5.9-20.5-10.5-30.2
		c-1.7-3.5-3.5-6.9-5.3-10.4C55,75.1,54.8,74.7,54.6,74.3z"/>
	<path d="M131.2,135.6c-1.2-0.8-2.3-1.6-3.6-2.4c10.5-21.3,20-42.9,25.9-66c7.1,4.4,14.1,8.6,21.3,13c-2.6,1.5-4.9,2.8-7.3,4.2
		c-0.6,0.4-1.2,0.9-1.6,1.5c-10.7,15.4-21.4,30.8-32.1,46.3C133,133.3,132.1,134.4,131.2,135.6z"/>
</g>
</svg>
