<?xml version="1.0" encoding="utf-8"?>
<!-- Generator: Adobe Illustrator 20.1.0, SVG Export Plug-In . SVG Version: 6.00 Build 0)  -->
<svg version="1.1" id="图层_1" xmlns="http://www.w3.org/2000/svg" xmlns:xlink="http://www.w3.org/1999/xlink" x="0px" y="0px"
	 viewBox="0 0 360 360" style="enable-background:new 0 0 360 360;" xml:space="preserve">
<style type="text/css">
	.st0{fill:#FFFFFF;}
</style>
<g>
	<path class="st0" d="M0.2,360.5c0-120.1,0-240.2,0-360.2c120.1,0,240.2,0,360.2,0c0,120.1,0,240.2,0,360.2
		C240.4,360.5,120.3,360.5,0.2,360.5z M263.2,178c-7.6-5.6-15-11-22.4-16.5c-0.1,0.3-0.2,0.4-0.3,0.6c-1.8,3.7-3.4,7.5-5.3,11.1
		c-6.9,13.3-15.1,25.8-23.5,38.2c-0.3,0.4-1,0.7-1.5,0.7c-6,0-11.9,0-17.9,0c-0.3,0-0.7,0-1-0.1c0-0.3,0-0.5,0-0.7
		c0-15.6,0-31.1,0-46.7c0-0.5,0.3-1,0.7-1.4c2.9-2.6,5.7-5.1,8.8-7.7c-9.1-4-18.1-7.9-26.9-11.7c0.3,6.4,0.8,12.7,0.8,19
		c0.1,16,0,31.9,0,47.9c0,0.4,0,0.8-0.1,1.4c-40,0-79.9,0-119.9,0c0.1,0.2,0.2,0.3,0.3,0.4c3.2,3.2,6.4,6.5,9.7,9.7
		c0.3,0.3,0.9,0.4,1.3,0.3c8.5-2.2,17.2-3.2,26-3.3c20.8-0.1,41.6,0,62.4,0c0.4,0,0.8,0,1.5,0.1c-1.9,3-3.6,5.9-5.4,8.7
		c-10.1,15.2-22.6,28.3-36.2,40.3c-16.7,14.7-35.2,26.8-55,36.9c-2.3,1.2-4.7,2.4-7.1,3.6c0.8,1.2,1.6,2.4,2.3,3.5
		c0.3-0.1,0.4-0.1,0.6-0.2c18.7-7.1,37-15.3,54.3-25.4c13.9-8.1,26.8-17.4,38.2-28.7c9.9-9.9,18.6-20.8,26.2-32.6
		c0.2-0.3,0.5-0.6,0.9-1.2c0,31.1,0.1,61.9-1.1,92.8c6.3-3.1,12.5-6.3,18.8-9.4c-2-29.4-0.8-58.8-1.2-88.4c1.3,0,2.3,0.1,3.4,0
		c1-0.1,1.5,0.3,2,1.2c10.7,21.1,24.5,39.8,42.5,55.2c13.8,11.9,28.9,21.8,45.7,29c1.4,0.6,2.8,1.1,4.2,1.7c0.2-0.4,0.3-0.7,0.4-1
		c1.1-3.2,3.1-5.7,5.9-7.6c3.6-2.5,7.7-3.8,11.9-4.5c2.9-0.5,5.9-0.8,8.9-1.2c0-1.9,0-3.8,0-5.7c-0.5-0.1-1-0.2-1.4-0.3
		c-4.1-0.7-8.1-1.2-12.2-2c-18.9-3.7-36.8-10.2-53.4-20.1c-18.4-11-34-25.2-46-43.1c-0.3-0.5-0.7-1-1.1-1.7c37.4,0,74.5,0,111.9,0
		c-8.4-8.8-16.5-17.3-24.9-26.1c-0.3,0.5-0.6,0.9-0.9,1.2c-5.7,5.7-11.4,11.4-17.1,17c-0.4,0.4-1.1,0.8-1.7,0.8c-16.5,0-33,0-49.6,0
		c-0.3,0-0.6-0.1-1-0.1c0.3-0.3,0.5-0.5,0.7-0.7c2.6-2.4,5.1-4.9,7.8-7.3c8.6-7.7,17.3-15.4,25.9-23c0.4-0.4,1-0.6,1.6-0.8
		C257.4,179.5,260.2,178.8,263.2,178z M105.3,161.4c-0.3,0.9-0.5,1.7-0.9,2.5c-0.3,0.8-0.2,1.3,0.4,2c3.6,3.8,7.3,7.6,10.7,11.6
		c5.6,6.4,10.5,13.3,14.1,21.1c1.1,2.3,2.5,4.5,4.2,6.4c2.9,3.2,5.7,3.2,9,0.4c0.3-0.3,0.7-0.6,0.9-0.9c4.1-5.7,5.2-11.9,3-18.6
		c-1.5-4.5-4.9-7.5-8.7-10.1c-6.6-4.4-13.8-7.4-21.1-10.2C113.1,164.1,109.2,162.8,105.3,161.4z"/>
	<path d="M263.2,178c-3.1,0.8-5.8,1.5-8.6,2.2c-0.6,0.1-1.1,0.4-1.6,0.8c-8.7,7.7-17.3,15.3-25.9,23c-2.7,2.4-5.2,4.9-7.8,7.3
		c-0.2,0.2-0.4,0.4-0.7,0.7c0.4,0,0.7,0.1,1,0.1c16.5,0,33,0,49.6,0c0.6,0,1.3-0.4,1.7-0.8c5.7-5.7,11.4-11.3,17.1-17
		c0.3-0.3,0.5-0.7,0.9-1.2c8.4,8.8,16.6,17.4,24.9,26.1c-37.4,0-74.5,0-111.9,0c0.5,0.7,0.8,1.2,1.1,1.7c12.1,17.9,27.6,32,46,43.1
		c16.6,9.9,34.5,16.4,53.4,20.1c4,0.8,8.1,1.3,12.2,2c0.5,0.1,0.9,0.2,1.4,0.3c0,2,0,3.9,0,5.7c-3,0.4-6,0.7-8.9,1.2
		c-4.2,0.7-8.3,2-11.9,4.5c-2.8,1.9-4.8,4.4-5.9,7.6c-0.1,0.3-0.2,0.6-0.4,1c-1.4-0.6-2.8-1.1-4.2-1.7c-16.8-7.2-31.8-17.1-45.7-29
		c-18-15.4-31.8-34.1-42.5-55.2c-0.5-0.9-1-1.3-2-1.2c-1.1,0.1-2.1,0-3.4,0c0.5,29.5-0.8,59,1.2,88.4c-6.3,3.1-12.5,6.2-18.8,9.4
		c1.1-30.9,1-61.7,1.1-92.8c-0.4,0.6-0.7,0.9-0.9,1.2c-7.6,11.8-16.2,22.7-26.2,32.6c-11.4,11.4-24.4,20.7-38.2,28.7
		c-17.3,10.1-35.6,18.3-54.3,25.4c-0.1,0.1-0.3,0.1-0.6,0.2c-0.8-1.1-1.5-2.3-2.3-3.5c2.4-1.2,4.8-2.4,7.1-3.6
		c19.8-10.2,38.3-22.3,55-36.9c13.7-12,26.2-25,36.2-40.3c1.8-2.8,3.5-5.6,5.4-8.7c-0.7,0-1.1-0.1-1.5-0.1c-20.8,0-41.6,0-62.4,0
		c-8.8,0-17.5,1.1-26,3.3c-0.4,0.1-1.1,0-1.3-0.3c-3.3-3.2-6.5-6.4-9.7-9.7c-0.1-0.1-0.1-0.2-0.3-0.4c40,0,79.9,0,119.9,0
		c0-0.5,0.1-0.9,0.1-1.4c0-16,0.1-31.9,0-47.9c0-6.3-0.5-12.6-0.8-19c8.8,3.8,17.8,7.7,26.9,11.7c-3,2.6-5.9,5.2-8.8,7.7
		c-0.4,0.3-0.7,0.9-0.7,1.4c0,15.6,0,31.1,0,46.7c0,0.2,0,0.4,0,0.7c0.4,0,0.7,0.1,1,0.1c6,0,11.9,0,17.9,0c0.5,0,1.2-0.3,1.5-0.7
		c8.4-12.4,16.6-24.9,23.5-38.2c1.9-3.6,3.5-7.4,5.3-11.1c0.1-0.2,0.2-0.3,0.3-0.6C248.2,167,255.6,172.4,263.2,178z"/>
	<path d="M105.3,161.4c3.9,1.4,7.8,2.8,11.6,4.2c7.3,2.8,14.5,5.8,21.1,10.2c3.8,2.5,7.2,5.6,8.7,10.1c2.3,6.7,1.1,12.9-3,18.6
		c-0.3,0.4-0.6,0.7-0.9,0.9c-3.3,2.8-6.1,2.8-9-0.4c-1.7-1.9-3.1-4.1-4.2-6.4c-3.6-7.8-8.5-14.7-14.1-21.1c-3.5-4-7.1-7.8-10.7-11.6
		c-0.6-0.7-0.8-1.2-0.4-2C104.7,163.1,105,162.3,105.3,161.4z"/>
</g>
</svg>
