<?xml version="1.0" encoding="utf-8"?>
<!-- Generator: Adobe Illustrator 20.1.0, SVG Export Plug-In . SVG Version: 6.00 Build 0)  -->
<svg version="1.1" id="图层_1" xmlns="http://www.w3.org/2000/svg" xmlns:xlink="http://www.w3.org/1999/xlink" x="0px" y="0px"
	 viewBox="0 0 360 360" style="enable-background:new 0 0 360 360;" xml:space="preserve">
<style type="text/css">
	.st0{fill:#FFFFFF;}
</style>
<g>
	<path class="st0" d="M0.2,360.5c0-120.1,0-240.2,0-360.2c120.1,0,240.2,0,360.2,0c0,120.1,0,240.2,0,360.2
		C240.4,360.5,120.3,360.5,0.2,360.5z M193.8,110.8c0-0.3-0.1-0.5-0.1-0.7c0-15.6,0-31.3,0-46.9c0-0.4,0.3-0.9,0.6-1.1
		c2.2-1.6,4.4-3.2,6.6-4.8c1.9-1.4,3.7-2.7,5.7-4.2c-10.3-4-20.5-7.9-30.7-11.8c0,0.4,0,0.6,0,0.8c0.4,5.9,1,11.7,1.1,17.6
		c0.1,16.6,0.1,33.2,0.1,49.8c0,0.4,0,0.8,0,1.4c-41.7,0-83.1,0-124.9,0c3.4,3.4,6.6,6.5,9.7,9.7c0.7,0.7,1.3,0.8,2.2,0.6
		c7.9-2.1,16-3.2,24.2-3.2c22.8-0.1,45.6,0,68.4,0c0.4,0,0.8,0,1.4,0.1c-0.4,0.5-0.6,0.8-0.8,1.1c-14.9,19.6-32.7,36.1-53.3,49.6
		c-15.7,10.2-32.5,18.5-49.7,26.1c-1.4,0.6-2.9,1.3-4.4,1.9c0.4,1.3,0.8,2.4,1.3,3.8c9.2-3.1,18.4-5.9,27.4-9.2
		c14.6-5.3,28.8-11.6,41.9-20c19.8-12.7,37-28.5,52.1-46.6c1.5-1.8,3-3.6,4.4-5.4c0.1,0,0.3,0,0.4,0.1c-0.3,20.6-0.7,41.2-1,61.9
		c6-2.3,12.2-4.6,18.4-6.9c-1.1-14.9-1-29.8-1.1-44.8c5,2.2,9.8,4.3,14.6,6.4c15.8,7.1,31.4,14.5,46.2,23.6
		c8.1,4.9,15.8,10.4,22.4,17.3c2.9,3.1,6.3,5.8,9.7,8.4c1.5,1.2,3.4,2,5.2,2.6c2.2,0.8,3.7-0.1,4.7-2.2c1.3-2.7,2-5.6,2.1-8.6
		c0.2-5.3-0.7-10.3-4.3-14.4c-3.8-4.4-8.4-7.9-13.7-10.4c-6.2-2.8-12.5-5.3-18.9-7.5c-18.7-6.5-37.8-11.7-56.9-17
		c-3.6-1-7.3-2-10.9-3c0-2.4,0-4.6,0-7c41.6,0,83.1,0,124.8,0c-7.2-7.6-14.2-15-21.3-22.5c-5.3,4.9-10.4,9.7-15.6,14.5
		c-0.7,0.6-1.4,0.9-2.3,0.9c-18.2,0-36.5,0-54.7,0c-0.4,0-0.8,0-1.5,0c0.5-0.5,0.7-0.8,1-1.1c2.4-2.3,4.8-4.6,7.2-6.8
		c9.3-8.4,18.7-16.8,27.9-25.2c4.2-3.9,8.9-6.8,14.7-7.7c1.8-0.3,3.6-1,5.6-1.5c-8-6.8-15.8-13.4-23.6-20.1c-1,1.9-1.9,3.7-2.9,5.5
		c-10.7,19.8-23.4,38.3-36.8,56.4c-0.3,0.4-0.9,0.6-1.4,0.6c-6.8,0-13.5,0-20.3,0C194.4,110.8,194.1,110.8,193.8,110.8z M97,55.5
		c0.5,0.5,1,0.9,1.5,1.3C110.8,68.1,122,80.2,129,95.7c1,2.3,2.7,4.3,4.5,6.1c2.2,2.3,4.5,1.9,6.4-0.7c2.4-3.3,4.2-7,5.3-10.9
		c1.9-6.2,0.3-11.5-4.3-15.9c-2.9-2.8-6.1-5.1-9.5-7.1c-9.1-5.5-18.8-9.8-28.6-13.9c-1.1-0.5-2.6-1.4-3.5-1.1
		C98.3,52.7,97.8,54.3,97,55.5z"/>
	<path d="M193.8,110.8c0.4,0,0.7,0,1,0c6.8,0,13.5,0,20.3,0c0.5,0,1.1-0.3,1.4-0.6c13.4-18.1,26.1-36.5,36.8-56.4
		c0.9-1.8,1.8-3.5,2.9-5.5c7.9,6.7,15.7,13.3,23.6,20.1c-2,0.6-3.8,1.2-5.6,1.5c-5.8,0.9-10.4,3.9-14.7,7.7
		c-9.3,8.5-18.6,16.8-27.9,25.2c-2.5,2.2-4.8,4.6-7.2,6.8c-0.3,0.3-0.5,0.6-1,1.1c0.7,0,1.1,0,1.5,0c18.2,0,36.5,0,54.7,0
		c1,0,1.6-0.3,2.3-0.9c5.1-4.8,10.3-9.6,15.6-14.5c7,7.4,14.1,14.8,21.3,22.5c-41.8,0-83.3,0-124.8,0c0,2.4,0,4.7,0,7
		c3.6,1,7.3,2,10.9,3c19.1,5.3,38.2,10.6,56.9,17c6.4,2.2,12.7,4.7,18.9,7.5c5.3,2.4,9.8,5.9,13.7,10.4c3.6,4.2,4.5,9.1,4.3,14.4
		c-0.1,3-0.8,5.8-2.1,8.6c-1,2.1-2.5,3-4.7,2.2c-1.8-0.6-3.7-1.4-5.2-2.6c-3.4-2.6-6.7-5.3-9.7-8.4c-6.6-6.9-14.3-12.4-22.4-17.3
		c-14.8-9-30.4-16.5-46.2-23.6c-4.8-2.1-9.6-4.2-14.6-6.4c0,15-0.1,29.9,1.1,44.8c-6.2,2.3-12.4,4.7-18.4,6.9
		c0.3-20.6,0.7-41.3,1-61.9c-0.1,0-0.3,0-0.4-0.1c-1.5,1.8-2.9,3.6-4.4,5.4c-15.1,18.1-32.2,33.9-52.1,46.6
		c-13.1,8.4-27.3,14.7-41.9,20c-9,3.2-18.1,6.1-27.4,9.2c-0.5-1.4-0.9-2.6-1.3-3.8c1.5-0.7,3-1.3,4.4-1.9
		c17.1-7.6,33.9-15.9,49.7-26.1c20.6-13.4,38.4-29.9,53.3-49.6c0.2-0.3,0.5-0.6,0.8-1.1c-0.6,0-1-0.1-1.4-0.1
		c-22.8,0-45.6-0.1-68.4,0c-8.2,0-16.3,1.1-24.2,3.2c-0.9,0.2-1.5,0.1-2.2-0.6c-3.1-3.2-6.3-6.3-9.7-9.7c41.7,0,83.2,0,124.9,0
		c0-0.6,0-1,0-1.4c0-16.6,0.1-33.2-0.1-49.8c-0.1-5.9-0.7-11.7-1.1-17.6c0-0.2,0-0.5,0-0.8c10.2,3.9,20.4,7.8,30.7,11.8
		c-2,1.5-3.9,2.8-5.7,4.2c-2.2,1.6-4.4,3.2-6.6,4.8c-0.3,0.2-0.6,0.8-0.6,1.1c0,15.6,0,31.3,0,46.9
		C193.7,110.3,193.7,110.5,193.8,110.8z"/>
	<path d="M97,55.5c0.8-1.2,1.3-2.8,2.3-3.2c0.9-0.4,2.3,0.6,3.5,1.1c9.8,4.1,19.5,8.4,28.6,13.9c3.4,2,6.6,4.4,9.5,7.1
		c4.6,4.5,6.2,9.7,4.3,15.9c-1.2,3.9-2.9,7.6-5.3,10.9c-1.9,2.6-4.2,2.9-6.4,0.7c-1.8-1.8-3.4-3.9-4.5-6.1
		c-7-15.5-18.2-27.6-30.5-38.9C98,56.4,97.5,56,97,55.5z"/>
</g>
</svg>
