<?xml version="1.0" encoding="utf-8"?>
<!-- Generator: Adobe Illustrator 20.1.0, SVG Export Plug-In . SVG Version: 6.00 Build 0)  -->
<svg version="1.1" id="图层_1" xmlns="http://www.w3.org/2000/svg" xmlns:xlink="http://www.w3.org/1999/xlink" x="0px" y="0px"
	 viewBox="0 0 360 360" style="enable-background:new 0 0 360 360;" xml:space="preserve">
<style type="text/css">
	.st0{fill:#FFFFFF;}
</style>
<g>
	<path class="st0" d="M0.2,360.5c0-120.1,0-240.2,0-360.2c120.1,0,240.2,0,360.2,0c0,120.1,0,240.2,0,360.2
		C240.4,360.5,120.3,360.5,0.2,360.5z M177.1,73.1c-38.9,0-77.6,0-116.7,0c3.3,3.3,6.5,6.4,9.5,9.6c0.8,0.8,1.4,1,2.6,0.7
		c6.6-1.8,13.3-2.8,20.1-3c8.6-0.2,17.2-0.2,25.8-0.2c0.5,0,1.2,0.3,1.5,0.6c13.7,13.6,28.8,25.3,45.4,35.2c0.3,0.2,0.6,0.4,1,0.7
		c-18.7,7.5-37.8,13.2-57.3,17.5c-19.5,4.4-39.2,7.4-59.2,9.5c0.4,1.6,0.8,3.2,1.2,4.7c0.5,0,0.8,0,1.2,0c6.4-0.5,12.8-0.9,19.2-1.5
		c15.5-1.4,30.9-3.3,46.2-6.1c20.5-3.8,40.6-8.9,59.9-16.7c0.4-0.2,1-0.2,1.4,0c6.8,3.3,13.9,5.9,21.1,8.1
		c11.3,3.4,22.9,6.1,34.5,7.9c11,1.7,22.1,3.2,33.1,4.6c7.3,0.9,14.6,1.4,21.8,2.1c2.5,0.2,5.1,0.4,7.7,0.6c0.1-0.3,0.2-0.5,0.2-0.7
		c1-4.2,3.4-7.5,6.8-10.1c3.2-2.5,6.9-4.1,10.8-5.3c0.4-0.1,1-0.4,1-0.7c0.1-1,0-2,0-3.1c-0.4,0-0.7,0-0.9,0
		c-12.1,0.5-24.2,1.2-36.3,1.4c-11.9,0.2-23.7-0.4-35.6-1.6c-12.7-1.2-25.3-3.2-37.7-6.3c-4.7-1.2-9.4-2.6-14.2-4
		c0.3-0.5,0.7-0.6,1-0.8c4.3-2.1,8.6-4.1,12.8-6.3c15.8-8.3,30.5-18.2,44.8-28.9c0.8-0.6,1.6-0.8,2.6-0.8c17,0,34,0,51,0
		c0.5,0,0.9,0,1.7,0c-7.2-7.6-14.2-15-21.4-22.6c-0.3,0.4-0.6,0.8-0.9,1.1c-4.5,4.5-9,9.1-13.6,13.6c-0.4,0.4-1.2,0.7-1.8,0.7
		c-25.8,0-51.7,0-77.5,0c-0.4,0-0.7-0.1-1-0.1c1.3-1.9,2.8-3.6,3.8-5.5c2.5-4.3,1.8-8.4-1.7-11.9c-1.1-1-2.2-2-3.4-2.8
		c-5.6-3.8-11.9-6.3-18.2-8.7c-2.7-1-5.4-1.9-8.1-2.9c-0.9,1.3-1.6,2.4-2.3,3.5c0.1,0.2,0.2,0.3,0.2,0.3c0.4,0.4,0.8,0.7,1.2,1.1
		c5.2,4.7,10,9.7,13.2,16C175.9,65.6,177,69.1,177.1,73.1z M292.7,161.5c-8.8-4-17.3-7.9-26-11.8c0.8,55.9,0.7,111.6,0,167.3
		c0.3-0.1,0.4-0.1,0.6-0.2c5.1-1.8,10.1-3.6,15.2-5.4c0.7-0.2,0.7-0.7,0.7-1.3c-0.2-8.3-0.4-16.5-0.6-24.8c-0.1-8.5-0.3-17-0.3-25.5
		c-0.1-13.7-0.2-27.4-0.2-41.1c0-16.1,0-32.2-0.1-48.2c0-1.4,0.4-2.1,1.5-2.9C286.5,165.7,289.5,163.6,292.7,161.5z M52.2,317
		c0.3-0.2,0.4-0.3,0.6-0.4c8.5-7.1,16.4-14.8,23.2-23.5c8.3-10.6,14.7-22.2,18.3-35.3c4.3-15.9,6.4-32.1,7.3-48.5
		c0.7-12.5,0.9-25,1.3-37.5c0-0.5,0.3-1.2,0.6-1.5c2.5-2.6,5.1-5.1,7.6-7.6c0.4-0.4,0.9-0.5,1.3-0.8c-0.1-0.2-0.3-0.3-0.4-0.5
		c-8.6-3.9-17.1-7.8-25.8-11.7c0,0.6,0,1,0,1.4c0.2,11,0.4,22.1,0.5,33.1c0.1,13.7-0.5,27.4-1.7,41.1c-0.8,8.8-1.9,17.5-3.7,26.1
		c-4.2,20-12.7,38-25.1,54.2c-2.1,2.7-4.3,5.4-6.5,8.1C50.7,314.7,51.4,315.8,52.2,317z"/>
	<path d="M177.1,73.1c-0.1-4.1-1.2-7.6-2.9-10.9c-3.3-6.3-8.1-11.3-13.2-16c-0.4-0.4-0.8-0.7-1.2-1.1c-0.1-0.1-0.1-0.1-0.2-0.3
		c0.7-1.1,1.5-2.2,2.3-3.5c2.7,1,5.4,1.9,8.1,2.9c6.3,2.4,12.6,4.9,18.2,8.7c1.2,0.8,2.4,1.8,3.4,2.8c3.6,3.5,4.2,7.6,1.7,11.9
		c-1.1,1.9-2.5,3.6-3.8,5.5c0.3,0,0.7,0.1,1,0.1c25.8,0,51.7,0,77.5,0c0.6,0,1.3-0.3,1.8-0.7c4.6-4.5,9.1-9,13.6-13.6
		c0.3-0.3,0.5-0.7,0.9-1.1c7.2,7.6,14.2,14.9,21.4,22.6c-0.8,0-1.2,0-1.7,0c-17,0-34,0-51,0c-1,0-1.8,0.2-2.6,0.8
		c-14.3,10.6-29,20.6-44.8,28.9c-4.2,2.2-8.5,4.2-12.8,6.3c-0.3,0.2-0.7,0.3-1,0.8c4.7,1.3,9.4,2.8,14.2,4c12.4,3.1,25,5.1,37.7,6.3
		c11.8,1.1,23.7,1.8,35.6,1.6c12.1-0.2,24.2-0.9,36.3-1.4c0.2,0,0.5,0,0.9,0c0,1,0.1,2.1,0,3.1c0,0.3-0.6,0.6-1,0.7
		c-3.9,1.2-7.6,2.8-10.8,5.3c-3.4,2.6-5.8,5.9-6.8,10.1c-0.1,0.2-0.1,0.4-0.2,0.7c-2.6-0.2-5.1-0.3-7.7-0.6
		c-7.3-0.7-14.6-1.2-21.8-2.1c-11.1-1.4-22.1-2.9-33.1-4.6c-11.7-1.8-23.2-4.5-34.5-7.9c-7.2-2.2-14.3-4.8-21.1-8.1
		c-0.4-0.2-1-0.2-1.4,0c-19.3,7.9-39.4,13-59.9,16.7c-15.3,2.8-30.7,4.7-46.2,6.1c-6.4,0.6-12.8,1-19.2,1.5c-0.4,0-0.7,0-1.2,0
		c-0.4-1.5-0.8-3.1-1.2-4.7c20-2.1,39.7-5.1,59.2-9.5c19.5-4.4,38.6-10,57.3-17.5c-0.4-0.3-0.7-0.5-1-0.7
		c-16.5-9.9-31.7-21.6-45.4-35.2c-0.4-0.4-1-0.6-1.5-0.6c-8.6,0-17.2,0-25.8,0.2c-6.8,0.2-13.5,1.2-20.1,3c-1.1,0.3-1.8,0.1-2.6-0.7
		c-3.1-3.2-6.2-6.2-9.5-9.6C99.5,73.1,138.2,73.1,177.1,73.1z M129.3,80.3c0,0.1-0.1,0.2-0.1,0.2c1.4,1.1,2.8,2.2,4.3,3.3
		c13.7,10.3,28.4,19.1,43.8,26.6c0.7,0.3,1.3,0.4,2,0c2.2-1.1,4.5-2.1,6.7-3.3c14.1-7.3,27.1-16.5,39.7-26.2
		c0.2-0.1,0.3-0.4,0.6-0.6C193.8,80.3,161.6,80.3,129.3,80.3z"/>
	<path d="M292.7,161.5c-3.2,2.1-6.1,4.2-9.2,6.1c-1.2,0.7-1.5,1.5-1.5,2.9c0.1,16.1,0,32.2,0.1,48.2c0,13.7,0.1,27.4,0.2,41.1
		c0.1,8.5,0.2,17,0.3,25.5c0.1,8.3,0.4,16.5,0.6,24.8c0,0.6,0,1-0.7,1.3c-5.1,1.8-10.2,3.6-15.2,5.4c-0.1,0.1-0.3,0.1-0.6,0.2
		c0.7-55.8,0.8-111.4,0-167.3C275.3,153.6,283.9,157.5,292.7,161.5z"/>
	<path d="M52.2,317c-0.8-1.2-1.6-2.3-2.3-3.5c2.2-2.7,4.4-5.3,6.5-8.1c12.4-16.2,20.9-34.2,25.1-54.2c1.8-8.6,2.9-17.3,3.7-26.1
		c1.2-13.7,1.8-27.4,1.7-41.1c-0.1-11-0.3-22.1-0.5-33.1c0-0.4,0-0.8,0-1.4c8.7,3.9,17.2,7.8,25.8,11.7c0.1,0.2,0.3,0.3,0.4,0.5
		c-0.5,0.3-1,0.4-1.3,0.8c-2.6,2.5-5.1,5.1-7.6,7.6c-0.4,0.4-0.6,1-0.6,1.5c-0.4,12.5-0.6,25-1.3,37.5c-1,16.4-3,32.6-7.3,48.5
		c-3.6,13.1-10,24.7-18.3,35.3c-6.8,8.7-14.7,16.4-23.2,23.5C52.7,316.7,52.5,316.8,52.2,317z"/>
	<path class="st0" d="M129.3,80.3c32.2,0,64.5,0,96.9,0c-0.3,0.3-0.4,0.5-0.6,0.6c-12.6,9.7-25.5,18.8-39.7,26.2
		c-2.2,1.1-4.5,2.2-6.7,3.3c-0.7,0.4-1.3,0.3-2,0c-15.4-7.5-30.1-16.2-43.8-26.6c-1.4-1.1-2.8-2.2-4.3-3.3
		C129.3,80.4,129.3,80.3,129.3,80.3z"/>
</g>
</svg>
