<?xml version="1.0" encoding="utf-8"?>
<!-- Generator: Adobe Illustrator 20.1.0, SVG Export Plug-In . SVG Version: 6.00 Build 0)  -->
<svg version="1.1" id="图层_1" xmlns="http://www.w3.org/2000/svg" xmlns:xlink="http://www.w3.org/1999/xlink" x="0px" y="0px"
	 viewBox="0 0 360 360" style="enable-background:new 0 0 360 360;" xml:space="preserve">
<style type="text/css">
	.st0{fill:#FFFFFF;}
</style>
<g>
	<path class="st0" d="M0.2,360.5c0-120.1,0-240.2,0-360.2c120.1,0,240.2,0,360.2,0c0,120.1,0,240.2,0,360.2
		C240.4,360.5,120.3,360.5,0.2,360.5z M193.6,195.5c-0.3,0-0.6,0.1-0.9,0.1c-17.9,0-35.8,0-53.8,0c-0.5,0-1-0.1-1.5-0.4
		c-3-1.4-6.1-2.8-9.1-4.2c-2.6-1.2-5.1-2.4-7.7-3.6c1.7,42.5,1.2,84.8,0,127.2c0.5-0.3,0.8-0.4,1.2-0.6c4.7-2.7,9.4-5.4,14.2-8.1
		c0.9-0.5,1.2-1,1.2-2.1c0-33.2,0-66.3,0-99.5c0-0.5,0-1,0-1.6c18.5,0,36.8,0,55.2,0c-0.9,2.7-2.3,4.9-3.9,7.1
		c-7.3,9.5-16.3,17.1-26.5,23.3c-3.5,2.1-7.1,4-10.7,6.1c0.4,1.1,0.8,2.2,1.2,3.4c0.4-0.1,0.7-0.2,1-0.3c6.7-2,13.3-4.4,19.7-7.4
		c9.9-4.7,18.9-10.8,26.4-19c1.7-1.9,3.2-4,4.9-6.1c0.1,0.1,0.3,0.1,0.4,0.2c12.2,7.9,24.1,16.1,33.5,27.5c1.9,2.4,4.3,4.4,7.1,5.8
		c3.2,1.5,6.2,0.4,7.1-3c1.4-5,1-9.9-2.4-14.2c-2.4-3.1-5.6-5-9.1-6.6c-9.9-4.5-20.3-7.7-30.7-10.8c-1.6-0.5-3.2-0.9-4.9-1.4
		c0.6-1.3,1.1-2.4,1.6-3.5c0.4-0.8,1-1.1,1.9-1.1c20,0,40,0,60,0c0.4,0,0.8,0,1.3,0.1c0,0.5,0,0.8,0,1.1c0,28.2,0,56.3,0,84.5
		c0,3.5-1.1,6.5-6.1,6.1c-9.3-0.8-18.5-1.7-27.8-2.5c-2.4-0.2-4.8-0.6-7.3-0.9c0,1.7,0,3.2,0,4.7c0.2,0,0.4,0.1,0.5,0.1
		c6.6,1.3,13.2,3,19.4,5.8c4.9,2.2,9.5,5,12.8,9.4c1.6,2.1,2.7,4.6,4.1,6.9c4.3-2.2,8.7-4.7,12.5-8.2c2.7-2.5,4.4-5.4,5.4-8.9
		c1.2-4.2,1.8-8.4,1.8-12.8c0-26.3,0-52.6,0-79c0-1.3,0.4-2,1.6-2.5c3.1-1.4,6.2-3,9.2-4.6c0.3-0.2,0.6-0.3,1-0.6
		c-6.3-5.9-12.6-11.8-18.9-17.7c-0.3,0.4-0.5,0.7-0.7,1c-2.3,3.3-4.6,6.5-6.9,9.8c-0.5,0.7-1,1-1.9,1c-19.6,0-39.1,0-58.7,0
		c-0.4,0-0.8,0-1.2,0c0.6-3.5,1.3-6.9,1.8-10.3c0.2-1.8,0.8-3.1,2.3-4.2c1.8-1.3,3.4-2.8,5.2-4.3c-7.5-3.6-14.9-7.1-22.5-10.6
		C195.9,176.2,195.2,185.9,193.6,195.5z M199.6,227.4c-10,25.2-26.9,43.6-51.9,54.3c0.4,1.6,0.8,3.1,1.2,4.8
		c4.8-1.8,9.4-3.5,14.1-5.2c15.5-5.8,29.1-14.5,40.4-26.8c0.7-0.8,1.4-1.5,2.1-2.2c0.2,0.1,0.3,0.1,0.4,0.2c1.2,0.8,2.4,1.6,3.6,2.4
		c8.4,5.9,16.4,12.3,22.8,20.4c2.2,2.8,4.2,5.8,6.6,8.6c1.5,1.7,3.3,3.3,5.2,4.6c1.9,1.3,3.6,0.9,4.9-0.9c0.8-1,1.5-2,1.8-3.2
		c1.7-5.7,1.2-11.2-2.8-15.9c-2.7-3.3-6.2-5.4-9.8-7.3c-9.3-4.7-19.1-8.5-29-12c-0.4-0.2-0.8-0.3-1.3-0.5c0.5-0.7,0.9-1.1,1.2-1.7
		c1.3-2.2,3.1-3.6,5.6-4.4c1.6-0.5,3.2-1.4,4.9-2.1C212.8,236,206.2,231.8,199.6,227.4z"/>
	<path d="M193.6,195.5c1.7-9.7,2.3-19.4,2.4-29.4c7.6,3.6,14.9,7.1,22.5,10.6c-1.8,1.5-3.4,3-5.2,4.3c-1.5,1.1-2.1,2.4-2.3,4.2
		c-0.5,3.4-1.2,6.8-1.8,10.3c0.4,0,0.8,0,1.2,0c19.6,0,39.1,0,58.7,0c0.9,0,1.4-0.2,1.9-1c2.3-3.3,4.6-6.6,6.9-9.8
		c0.2-0.3,0.5-0.6,0.7-1c6.3,5.9,12.5,11.8,18.9,17.7c-0.4,0.2-0.7,0.4-1,0.6c-3.1,1.5-6.1,3.1-9.2,4.6c-1.2,0.5-1.6,1.2-1.6,2.5
		c0,26.3,0,52.6,0,79c0,4.3-0.6,8.6-1.8,12.8c-1,3.5-2.7,6.4-5.4,8.9c-3.8,3.5-8.2,6-12.5,8.2c-1.4-2.4-2.5-4.8-4.1-6.9
		c-3.3-4.4-7.9-7.2-12.8-9.4c-6.2-2.8-12.7-4.5-19.4-5.8c-0.2,0-0.3-0.1-0.5-0.1c0-1.5,0-3.1,0-4.7c2.5,0.3,4.9,0.7,7.3,0.9
		c9.3,0.9,18.5,1.7,27.8,2.5c5,0.4,6-2.6,6.1-6.1c0-28.2,0-56.3,0-84.5c0-0.3,0-0.6,0-1.1c-0.5,0-0.9-0.1-1.3-0.1c-20,0-40,0-60,0
		c-0.9,0-1.5,0.3-1.9,1.1c-0.5,1.1-1,2.2-1.6,3.5c1.7,0.5,3.3,1,4.9,1.4c10.4,3.1,20.8,6.3,30.7,10.8c3.5,1.6,6.7,3.6,9.1,6.6
		c3.4,4.3,3.8,9.2,2.4,14.2c-0.9,3.4-3.9,4.5-7.1,3c-2.8-1.3-5.2-3.4-7.1-5.8c-9.3-11.4-21.2-19.7-33.5-27.5
		c-0.1-0.1-0.3-0.1-0.4-0.2c-1.6,2.1-3.1,4.2-4.9,6.1c-7.5,8.2-16.5,14.3-26.4,19c-6.4,3-13,5.4-19.7,7.4c-0.3,0.1-0.6,0.2-1,0.3
		c-0.4-1.2-0.8-2.3-1.2-3.4c3.6-2.1,7.2-4,10.7-6.1c10.2-6.2,19.2-13.8,26.5-23.3c1.6-2.1,3-4.4,3.9-7.1c-18.5,0-36.8,0-55.2,0
		c0,0.6,0,1.1,0,1.6c0,33.2,0,66.3,0,99.5c0,1-0.3,1.6-1.2,2.1c-4.7,2.7-9.4,5.4-14.2,8.1c-0.3,0.2-0.7,0.4-1.2,0.6
		c1.3-42.4,1.8-84.8,0-127.2c2.6,1.2,5.2,2.4,7.7,3.6c3,1.4,6.1,2.8,9.1,4.2c0.5,0.2,1,0.3,1.5,0.4c17.9,0,35.8,0,53.8,0
		C193,195.6,193.3,195.6,193.6,195.5z"/>
	<path d="M199.6,227.4c6.7,4.3,13.3,8.6,20,13c-1.7,0.8-3.3,1.6-4.9,2.1c-2.4,0.8-4.3,2.2-5.6,4.4c-0.3,0.5-0.8,1-1.2,1.7
		c0.5,0.2,0.9,0.4,1.3,0.5c9.8,3.5,19.6,7.3,29,12c3.7,1.9,7.2,4.1,9.8,7.3c3.9,4.8,4.5,10.2,2.8,15.9c-0.3,1.1-1.1,2.2-1.8,3.2
		c-1.4,1.8-3,2.2-4.9,0.9c-1.9-1.3-3.7-2.8-5.2-4.6c-2.3-2.7-4.3-5.7-6.6-8.6c-6.5-8.1-14.4-14.5-22.8-20.4
		c-1.2-0.8-2.4-1.6-3.6-2.4c-0.1-0.1-0.2-0.1-0.4-0.2c-0.7,0.7-1.4,1.4-2.1,2.2c-11.2,12.3-24.8,21-40.4,26.8
		c-4.6,1.7-9.3,3.4-14.1,5.2c-0.4-1.7-0.8-3.2-1.2-4.8C172.7,271.1,189.6,252.7,199.6,227.4z"/>
</g>
</svg>
