<?xml version="1.0" encoding="utf-8"?>
<!-- Generator: Adobe Illustrator 20.1.0, SVG Export Plug-In . SVG Version: 6.00 Build 0)  -->
<svg version="1.1" id="图层_1" xmlns="http://www.w3.org/2000/svg" xmlns:xlink="http://www.w3.org/1999/xlink" x="0px" y="0px"
	 viewBox="0 0 360 360" style="enable-background:new 0 0 360 360;" xml:space="preserve">
<style type="text/css">
	.st0{fill:#FFFFFF;}
</style>
<g>
	<path class="st0" d="M0.2,360.5c0-120.1,0-240.2,0-360.2c120.1,0,240.2,0,360.2,0c0,120.1,0,240.2,0,360.2
		C240.4,360.5,120.3,360.5,0.2,360.5z M253.7,315.9c5.8-2.7,11.2-5.9,15.8-10.2c4.5-4.2,7.4-9.2,8.8-15.2c0.9-3.9,1.3-7.9,1.3-11.9
		c0-35.8,0-71.5-0.1-107.3c0-2.1,0.5-3.2,2.4-4.1c2.8-1.3,5.5-3,8.3-4.6c-7.2-6.4-14.2-12.6-21.3-18.9c-3.7,4.1-7.3,8-10.9,12.1
		c-0.6,0.6-1.2,0.9-2,0.9c-22.3,0-44.6,0-66.8,0c-0.4,0-0.9,0-1.3,0c0-0.3,0-0.5,0-0.7c0.7-7.4,1.4-14.8,2.1-22.2
		c0.1-1.3,0.6-2.1,1.7-2.9c2.3-1.5,4.4-3.1,6.8-4.8c-8.7-4-17.3-7.9-26-11.8c0.9,14.3,0,28.3-1.2,42.3c-0.4,0-0.7,0.1-1.1,0.1
		c-21,0-41.9,0-62.9,0c-0.6,0-1.2-0.2-1.7-0.4c-5.6-2.8-11.2-5.6-16.7-8.3c-0.4-0.2-0.8-0.4-1.2-0.6c1.9,55,1.1,109.9,0,165
		c0.6-0.4,1-0.7,1.4-0.9c5-3.3,10-6.7,15-10c1-0.6,1.4-1.3,1.4-2.5c0-44.4,0-88.9,0-133.3c0-0.5,0-1.1,0-1.7c21.6,0,43.1,0,64.6,0
		c-0.1,0.3-0.1,0.6-0.2,0.8c-3.5,14.2-10.7,26.3-20.9,36.8c-9.1,9.4-19.5,17-30.7,23.7c-1.9,1.2-3.9,2.3-5.9,3.4
		c0.3,0.3,0.4,0.5,0.6,0.7c0.8,0.8,1.6,1.7,2.5,2.4c0.2,0.2,0.8,0.2,1.1,0.1c12.3-5.6,24.2-11.7,35.4-19.3
		c11-7.5,20.4-16.6,27.3-28.1c0.1-0.2,0.3-0.3,0.4-0.5c2.3,1.1,4.6,2.1,6.9,3.2c10,4.9,19.6,10.4,27.8,17.9
		c3.6,3.3,6.7,7.1,10.1,10.6c2,2.2,4.1,4.3,6.9,5.5c2.7,1.2,4.9,0.5,6.5-2.1c0.4-0.7,0.8-1.5,1.1-2.3c0.6-2.2,1.3-4.3,1.6-6.5
		c0.7-5.4-0.8-10.1-5.2-13.7c-4.3-3.5-9.1-6.1-14.4-7.7c-8.2-2.5-16.4-4.7-24.7-7c-4.7-1.3-9.4-2.6-14-3.9c1.5-4.7,3.1-9.4,4.6-14.1
		c25.4,0,50.8,0,76.3,0c0,0.6,0,1.1,0,1.5c0,36.5,0,73,0,109.6c0,0.8,0,1.7-0.1,2.5c-0.2,3-0.5,5.9-1.9,8.6c-1,2-2.4,3.4-4.7,3.7
		c-1,0.2-2.1,0.2-3.1,0.2c-10.5-0.2-20.8-1.7-31.1-2.9c-2-0.3-4.1-0.5-6.2-0.8c0,1.7,0,3.2,0,4.7c0.3,0.1,0.6,0.2,0.9,0.3
		c4,1.1,8,2,11.9,3.2c6.1,1.9,12,4.3,17.2,8.2C250.4,306,253.5,310,253.7,315.9z M115.9,284c0.4-0.2,0.8-0.3,1.1-0.5
		c6.3-3,12.7-5.9,19-9c17.1-8.4,31.9-19.8,44-34.5c0.5-0.6,0.9-0.7,1.6-0.4c4.5,2.2,9,4.1,13.4,6.4c9.6,5.1,18.6,11.2,26,19.2
		c2.2,2.4,4.5,4.9,6.8,7.2c1.7,1.7,3.7,3.2,6.2,3.8c1.9,0.5,3.7,0.1,4.8-1.6c0.9-1.4,1.6-2.9,2.1-4.4c1.9-6.1,0.8-11.6-4-16.1
		c-4.8-4.6-10.1-8.3-16.4-10.3c-9.3-3-18.8-5.7-28.2-8.4c-2.6-0.8-5.2-1.4-7.9-2.1c4.7-6.7,9.9-12.8,16.5-17.7
		c-8.3-4-16.5-7.9-24.7-11.8c-0.1,0.4-0.3,0.7-0.3,1c-2.1,9-5.2,17.5-9.4,25.7c-4.8,9.3-10.9,17.7-18.5,24.9
		c-9.3,8.8-19.7,16.3-30.4,23.3c-2.8,1.8-2.8,1.8-1.6,4.9C115.8,283.7,115.8,283.8,115.9,284z"/>
	<path d="M253.7,315.9c-0.2-5.9-3.3-9.9-7.6-13.1c-5.2-3.9-11.1-6.3-17.2-8.2c-3.9-1.2-7.9-2.1-11.9-3.2c-0.3-0.1-0.6-0.2-0.9-0.3
		c0-1.5,0-3.1,0-4.7c2.1,0.3,4.1,0.6,6.2,0.8c10.3,1.3,20.7,2.7,31.1,2.9c1,0,2.1-0.1,3.1-0.2c2.2-0.3,3.7-1.7,4.7-3.7
		c1.4-2.7,1.7-5.6,1.9-8.6c0.1-0.8,0.1-1.7,0.1-2.5c0-36.5,0-73,0-109.6c0-0.5,0-1,0-1.5c-25.5,0-51,0-76.3,0
		c-1.5,4.7-3,9.3-4.6,14.1c4.6,1.3,9.3,2.6,14,3.9c8.2,2.3,16.5,4.5,24.7,7c5.3,1.6,10.1,4.2,14.4,7.7c4.4,3.6,5.9,8.3,5.2,13.7
		c-0.3,2.2-1,4.4-1.6,6.5c-0.2,0.8-0.6,1.6-1.1,2.3c-1.5,2.5-3.7,3.3-6.5,2.1c-2.8-1.2-4.9-3.3-6.9-5.5c-3.3-3.5-6.5-7.3-10.1-10.6
		c-8.2-7.5-17.9-13-27.8-17.9c-2.3-1.1-4.5-2.1-6.9-3.2c-0.2,0.2-0.3,0.3-0.4,0.5c-6.9,11.5-16.3,20.6-27.3,28.1
		c-11.1,7.6-23.1,13.7-35.4,19.3c-0.3,0.1-0.9,0.1-1.1-0.1c-0.9-0.8-1.7-1.6-2.5-2.4c-0.2-0.2-0.4-0.4-0.6-0.7c2-1.2,4-2.3,5.9-3.4
		c11.2-6.6,21.6-14.3,30.7-23.7c10.1-10.4,17.4-22.5,20.9-36.8c0.1-0.2,0.1-0.5,0.2-0.8c-21.5,0-43,0-64.6,0c0,0.6,0,1.1,0,1.7
		c0,44.4,0,88.9,0,133.3c0,1.2-0.4,1.9-1.4,2.5c-5,3.3-10,6.6-15,10c-0.4,0.3-0.8,0.5-1.4,0.9c1.2-55.1,1.9-109.9,0-165
		c0.4,0.2,0.8,0.4,1.2,0.6c5.6,2.8,11.1,5.6,16.7,8.3c0.5,0.3,1.1,0.4,1.7,0.4c21,0,41.9,0,62.9,0c0.3,0,0.6,0,1.1-0.1
		c1.2-14,2.1-28.1,1.2-42.3c8.7,4,17.3,7.8,26,11.8c-2.3,1.7-4.5,3.3-6.8,4.8c-1.1,0.7-1.6,1.5-1.7,2.9c-0.6,7.4-1.4,14.8-2.1,22.2
		c0,0.2,0,0.4,0,0.7c0.5,0,0.9,0,1.3,0c22.3,0,44.6,0,66.8,0c0.9,0,1.5-0.3,2-0.9c3.6-4,7.2-8,10.9-12.1
		c7.1,6.3,14.1,12.6,21.3,18.9c-2.9,1.6-5.5,3.2-8.3,4.6c-1.9,0.9-2.4,2.1-2.4,4.1c0.1,35.8,0.1,71.5,0.1,107.3c0,4-0.4,8-1.3,11.9
		c-1.4,6-4.3,11-8.8,15.2C264.9,310,259.6,313.2,253.7,315.9z"/>
	<path d="M115.9,284c-0.1-0.2-0.2-0.3-0.2-0.3c-1.2-3.1-1.2-3.1,1.6-4.9c10.8-6.9,21.1-14.4,30.4-23.3c7.6-7.2,13.7-15.6,18.5-24.9
		c4.2-8.2,7.4-16.7,9.4-25.7c0.1-0.3,0.2-0.6,0.3-1c8.2,3.9,16.4,7.8,24.7,11.8c-6.6,4.9-11.7,11-16.5,17.7c2.7,0.7,5.4,1.4,7.9,2.1
		c9.4,2.8,18.9,5.4,28.2,8.4c6.3,2,11.7,5.7,16.4,10.3c4.7,4.6,5.8,10,4,16.1c-0.5,1.5-1.2,3.1-2.1,4.4c-1.1,1.7-2.8,2.1-4.8,1.6
		c-2.4-0.6-4.4-2.1-6.2-3.8c-2.4-2.3-4.6-4.8-6.8-7.2c-7.4-8.1-16.3-14.2-26-19.2c-4.4-2.3-8.9-4.2-13.4-6.4
		c-0.7-0.3-1.1-0.2-1.6,0.4c-12.1,14.7-26.9,26.1-44,34.5c-6.3,3.1-12.6,6-19,9C116.7,283.7,116.4,283.8,115.9,284z"/>
</g>
</svg>
