<?xml version="1.0" encoding="utf-8"?>
<!-- Generator: Adobe Illustrator 20.1.0, SVG Export Plug-In . SVG Version: 6.00 Build 0)  -->
<svg version="1.1" id="图层_1" xmlns="http://www.w3.org/2000/svg" xmlns:xlink="http://www.w3.org/1999/xlink" x="0px" y="0px"
	 viewBox="0 0 360 360" style="enable-background:new 0 0 360 360;" xml:space="preserve">
<style type="text/css">
	.st0{fill:#FFFFFF;}
</style>
<g>
	<path class="st0" d="M0.2,360.5c0-120.1,0-240.2,0-360.2c120.1,0,240.2,0,360.2,0c0,120.1,0,240.2,0,360.2
		C240.4,360.5,120.3,360.5,0.2,360.5z M174.7,132.6c0,0.5,0,0.9,0,1.4c0,48.6,0,97.1,0,145.7c0,2.3,0.2,4.6,0.5,6.9
		c0.8,5.7,3.1,10.6,8,14.1c4.6,3.3,9.9,4.5,15.4,4.5c32.2,0.1,64.5,0,96.7,0c0.4,0,0.8,0,1.2,0c7.7-1.1,14-4.5,18.6-10.9
		c1.3-1.8,2.3-3.6,3.4-5.3c-2.1-1.3-4.1-2.3-5.8-3.6c-4.1-3.3-6-7.8-6.9-12.8c-1.7-9-2.3-18.1-2.5-27.2c0-2.4,0-4.9,0-7.3
		c-2.1,0-4,0-6,0c-0.1,0.6-0.1,1.2-0.1,1.8c-0.4,11.3-1,22.7-2.5,33.9c-0.5,3.8-0.9,7.6-2.6,11c-2.3,4.8-6.1,7.3-11.5,7.3
		c-24.2,0-48.5,0-72.7,0c-0.9,0-1.8,0-2.8-0.1c-3.8-0.5-7.4-1.6-10.3-4.3c-3.5-3.4-4.6-7.8-4.6-12.5c-0.1-21,0-41.9,0-62.9
		c0-0.4,0-0.9,0-1.3c30.7,0,61.2,0,91.9,0c0,4.3,0,8.5,0,12.9c5.6-2.4,11.1-4.7,16.3-7c-0.3-7.9-0.8-15.6-0.9-23.3
		c-0.2-14.5,0-29-0.1-43.4c0-2.1,0.5-3.5,2.2-4.7c2.1-1.6,4.1-3.4,6.1-5.2c-5.6-4.8-11-9.4-16.5-14.2c-0.3,0.4-0.5,0.7-0.8,1
		c-2.3,3.3-4.6,6.5-6.9,9.8c-0.5,0.7-1,0.9-1.8,0.9c-11.3,0-22.6,0-34,0c-0.4,0-0.7-0.1-1.2-0.1c0.2-0.3,0.2-0.5,0.4-0.7
		c6-9.4,12.2-18.7,19.2-27.4c5.1-6.4,11.1-11.9,18.4-15.6c2.5-1.3,5-2.3,7.7-3.5c-7.4-6.6-14.8-13.3-22.3-19.9
		c-0.4,0.4-0.7,0.8-0.9,1.2c-3,4-6,8-9,12c-0.5,0.7-1.1,1-2,1c-16.4,0-32.7,0-49.1,0c-0.4,0-0.8,0-1.4,0c0.3-0.5,0.5-0.9,0.7-1.2
		c3.5-5.1,7-10.2,10.6-15.3c2.6-3.7,5.8-6.8,9.5-9.4c1.2-0.8,2.5-1.6,3.8-2.5c-8.3-5.1-16.5-10.2-24.5-15.2
		c-14.2,43.3-33.9,83.7-61.5,120.1c1.2,0.8,2.3,1.5,3.5,2.3C157.5,154.1,166.3,143.6,174.7,132.6z"/>
	<path d="M174.7,132.6c-8.4,11-17.2,21.5-27,31.3c-1.2-0.8-2.3-1.6-3.5-2.3c27.6-36.4,47.3-76.8,61.5-120.1c8,5,16.2,10,24.5,15.2
		c-1.4,0.9-2.6,1.7-3.8,2.5c-3.7,2.6-7,5.6-9.5,9.4c-3.5,5.1-7,10.2-10.6,15.3c-0.2,0.3-0.4,0.7-0.7,1.2c0.6,0,1,0,1.4,0
		c16.4,0,32.7,0,49.1,0c0.9,0,1.4-0.3,2-1c3-4,6-8,9-12c0.3-0.4,0.6-0.7,0.9-1.2c7.5,6.7,14.9,13.3,22.3,19.9
		c-2.6,1.2-5.2,2.2-7.7,3.5c-7.4,3.7-13.3,9.2-18.4,15.6c-7,8.7-13.3,17.9-19.2,27.4c-0.1,0.2-0.2,0.3-0.4,0.7
		c0.5,0,0.9,0.1,1.2,0.1c11.3,0,22.6,0,34,0c0.8,0,1.3-0.3,1.8-0.9c2.3-3.3,4.6-6.6,6.9-9.8c0.2-0.3,0.5-0.6,0.8-1
		c5.5,4.7,11,9.4,16.5,14.2c-2.1,1.8-4,3.6-6.1,5.2c-1.7,1.2-2.2,2.6-2.2,4.7c0.1,14.5,0,29,0.1,43.4c0.1,7.7,0.6,15.4,0.9,23.3
		c-5.3,2.3-10.7,4.6-16.3,7c0-4.4,0-8.6,0-12.9c-30.7,0-61.2,0-91.9,0c0,0.4,0,0.9,0,1.3c0,21,0,41.9,0,62.9c0,4.7,1.1,9.1,4.6,12.5
		c2.9,2.8,6.5,3.9,10.3,4.3c0.9,0.1,1.8,0.1,2.8,0.1c24.2,0,48.5,0,72.7,0c5.4,0,9.2-2.6,11.5-7.3c1.7-3.5,2.2-7.3,2.6-11
		c1.5-11.3,2-22.6,2.5-33.9c0-0.6,0.1-1.2,0.1-1.8c2,0,3.9,0,6,0c0,2.5,0,4.9,0,7.3c0.2,9.1,0.8,18.2,2.5,27.2
		c0.9,5,2.8,9.5,6.9,12.8c1.7,1.4,3.7,2.3,5.8,3.6c-1,1.6-2.1,3.5-3.4,5.3c-4.6,6.4-10.9,9.7-18.6,10.9c-0.4,0.1-0.8,0-1.2,0
		c-32.2,0-64.5,0-96.7,0c-5.5,0-10.8-1.2-15.4-4.5c-4.8-3.4-7.1-8.4-8-14.1c-0.3-2.3-0.5-4.6-0.5-6.9c0-48.6,0-97.1,0-145.7
		C174.7,133.5,174.7,133,174.7,132.6z M178.3,126.1c3.7,3.7,7.3,7.3,10.9,11c0.6,0.6,1.2,0.8,2,0.8c15.3,0,30.6,0,45.8,0
		c1,0,1.5-0.4,1.8-1.2c5.4-12.5,10.8-24.9,16.2-37.3c1-2.4,2.1-4.7,3.2-7.3c-0.6,0-1,0-1.4,0c-18,0-36,0-54,0
		c-0.8,0-1.3,0.3-1.8,0.9c-2.9,4.2-6,8.4-8.9,12.6C187.6,112.4,183,119.2,178.3,126.1z M243.2,145.1c0,19.6,0,39.2,0,58.7
		c13,0,25.8,0,38.7,0c0-19.6,0-39.1,0-58.7C269,145.1,256.1,145.1,243.2,145.1z M190.2,203.8c12.5,0,25,0,37.5,0
		c0-19.6,0-39.2,0-58.7c-12.5,0-25,0-37.5,0C190.2,164.7,190.2,184.2,190.2,203.8z"/>
	<path class="st0" d="M178.3,126.1c4.7-6.9,9.3-13.7,14-20.5c2.9-4.2,5.9-8.4,8.9-12.6c0.5-0.7,1-0.9,1.8-0.9c18,0,36,0,54,0
		c0.4,0,0.8,0,1.4,0c-1.1,2.6-2.1,4.9-3.2,7.3c-5.4,12.4-10.9,24.9-16.2,37.3c-0.4,0.9-0.8,1.2-1.8,1.2c-15.3,0-30.6,0-45.8,0
		c-0.8,0-1.4-0.2-2-0.8C185.7,133.4,182.1,129.8,178.3,126.1z"/>
	<path class="st0" d="M243.2,145.1c12.9,0,25.7,0,38.7,0c0,19.6,0,39.1,0,58.7c-12.9,0-25.7,0-38.7,0
		C243.2,184.2,243.2,164.7,243.2,145.1z"/>
	<path class="st0" d="M190.2,203.8c0-19.6,0-39.1,0-58.7c12.5,0,24.9,0,37.5,0c0,19.5,0,39,0,58.7
		C215.2,203.8,202.7,203.8,190.2,203.8z"/>
</g>
</svg>
