<?xml version="1.0" encoding="utf-8"?>
<!-- Generator: Adobe Illustrator 20.1.0, SVG Export Plug-In . SVG Version: 6.00 Build 0)  -->
<svg version="1.1" id="图层_1" xmlns="http://www.w3.org/2000/svg" xmlns:xlink="http://www.w3.org/1999/xlink" x="0px" y="0px"
	 viewBox="0 0 360 360" style="enable-background:new 0 0 360 360;" xml:space="preserve">
<style type="text/css">
	.st0{fill:#FFFFFF;}
</style>
<g>
	<path class="st0" d="M0.2,360.5c0-120.1,0-240.2,0-360.2c120.1,0,240.2,0,360.2,0c0,120.1,0,240.2,0,360.2
		C240.4,360.5,120.3,360.5,0.2,360.5z M285.4,163.7c-0.4,0.4-0.6,0.8-0.9,1.1c-4.9,4.9-9.7,9.7-14.6,14.6c-0.6,0.6-1.2,0.9-2.1,0.9
		c-25.1,0-50.2,0-75.2,0c-0.4,0-0.8,0-1.2,0c0-12.2,0-24.3,0-36.5c19.2,0,38.3,0,57.6,0c-6.8-7.6-13.4-14.9-20.1-22.5
		c-0.4,0.5-0.7,0.8-1,1.1c-4.4,4.4-8.9,8.9-13.3,13.3c-0.7,0.7-1.5,1-2.5,1c-30,0-59.9,0-89.9,0c-0.5,0-0.9,0-1.4,0
		c0,0.2,0,0.3,0.1,0.3c3.3,3.3,6.5,6.6,9.8,9.8c0.2,0.2,0.8,0.3,1.1,0.2c14-3.8,28.3-3.4,42.5-3.3c0.1,0,0.1,0.1,0.2,0.1
		c0,12.1,0,24.2,0,36.4c-35.3,0-70.4,0-105.8,0c0.2,0.3,0.3,0.5,0.5,0.6c3.2,3.2,6.3,6.4,9.5,9.5c0.3,0.3,1.1,0.4,1.6,0.3
		c8.3-2.1,16.8-3.2,25.4-3.2c22.5-0.1,45,0,67.6,0c0.4,0,0.9,0,1.3,0c0,13,0,25.8,0,38.8c-0.4,0-0.8,0.1-1.1,0.1
		c-16.2,0-32.3,0-48.5,0c-0.6,0-1.3-0.2-1.8-0.5c-5.3-3.3-10.5-6.5-15.8-9.8c-0.7-0.4-1.4-0.9-2.3-1.4c1.5,33.5,1.6,66.7,0,100.1
		c0.2-0.1,0.4-0.1,0.5-0.1c5.5-2.6,11-5.1,16.5-7.7c0.3-0.2,0.6-0.8,0.7-1.2c0.1-3.1,0-6.2,0-9.2c0-0.9,0-1.8,0-2.7
		c40.1,0,80.1,0,120.2,0c0,6.6,0,13.2,0,19.9c6-2.8,11.8-5.5,17.7-8.2c0-0.3,0-0.5,0-0.8c-0.3-8.1-0.9-16.1-1-24.2
		c-0.2-12.7,0-25.4-0.2-38c-0.1-3.2,0.8-5.2,3.4-6.9c2.5-1.6,4.8-3.7,7.3-5.6c-6.7-5.2-13.4-10.2-20.1-15.4c-3,3.7-5.9,7.3-8.7,10.9
		c-0.6,0.7-1.1,1-2,1c-15.6,0-31.2,0-46.8,0c-0.4,0-0.9,0-1.3,0c0-13,0-25.9,0-38.8c38.4,0,76.8,0,115.5,0
		C299.6,179.5,292.6,171.7,285.4,163.7z"/>
	<path d="M285.4,163.7c7.2,8,14.2,15.8,21.4,23.8c-38.7,0-77,0-115.5,0c0,13,0,25.8,0,38.8c0.5,0,0.9,0,1.3,0c15.6,0,31.2,0,46.8,0
		c0.9,0,1.5-0.3,2-1c2.8-3.6,5.7-7.2,8.7-10.9c6.7,5.1,13.4,10.2,20.1,15.4c-2.5,1.9-4.7,4-7.3,5.6c-2.6,1.7-3.5,3.7-3.4,6.9
		c0.2,12.7,0,25.4,0.2,38c0.1,8.1,0.6,16.1,1,24.2c0,0.2,0,0.5,0,0.8c-5.8,2.7-11.7,5.4-17.7,8.2c0-6.7,0-13.3,0-19.9
		c-40.1,0-80,0-120.2,0c0,0.9,0,1.8,0,2.7c0,3.1,0,6.2,0,9.2c0,0.4-0.3,1-0.7,1.2c-5.5,2.6-11,5.2-16.5,7.7c-0.1,0-0.2,0.1-0.5,0.1
		c1.6-33.3,1.4-66.6,0-100.1c0.9,0.5,1.6,1,2.3,1.4c5.3,3.3,10.5,6.6,15.8,9.8c0.5,0.3,1.2,0.5,1.8,0.5c16.2,0,32.3,0,48.5,0
		c0.4,0,0.7,0,1.1-0.1c0-12.9,0-25.8,0-38.8c-0.5,0-0.9,0-1.3,0c-22.5,0-45,0-67.6,0c-8.6,0-17.1,1.1-25.4,3.2
		c-0.5,0.1-1.2,0-1.6-0.3c-3.2-3.1-6.4-6.3-9.5-9.5c-0.1-0.1-0.2-0.3-0.5-0.6c35.3,0,70.5,0,105.8,0c0-12.2,0-24.3,0-36.4
		c-0.1,0-0.1-0.1-0.2-0.1c-14.3-0.1-28.6-0.5-42.5,3.3c-0.3,0.1-0.9,0-1.1-0.2c-3.3-3.3-6.6-6.5-9.8-9.8c0,0,0-0.1-0.1-0.3
		c0.5,0,1,0,1.4,0c30,0,59.9,0,89.9,0c1,0,1.8-0.3,2.5-1c4.4-4.5,8.9-8.9,13.3-13.3c0.3-0.3,0.6-0.7,1-1.1
		c6.7,7.5,13.3,14.9,20.1,22.5c-19.3,0-38.4,0-57.6,0c0,12.2,0,24.3,0,36.5c0.4,0,0.8,0,1.2,0c25.1,0,50.2,0,75.2,0
		c0.9,0,1.5-0.3,2.1-0.9c4.8-4.9,9.7-9.7,14.6-14.6C284.8,164.5,285.1,164.1,285.4,163.7z M243,233.5c-40,0-80,0-120,0
		c0,17.6,0,35.2,0,52.8c40,0,80,0,120,0C243,268.6,243,251.1,243,233.5z"/>
	<path class="st0" d="M243,233.5c0,17.6,0,35.2,0,52.8c-40,0-80,0-120,0c0-17.6,0-35.1,0-52.8C163,233.5,203,233.5,243,233.5z"/>
</g>
</svg>
