<?xml version="1.0" encoding="utf-8"?>
<!-- Generator: Adobe Illustrator 20.1.0, SVG Export Plug-In . SVG Version: 6.00 Build 0)  -->
<svg version="1.1" id="图层_1" xmlns="http://www.w3.org/2000/svg" xmlns:xlink="http://www.w3.org/1999/xlink" x="0px" y="0px"
	 viewBox="0 0 360 360" style="enable-background:new 0 0 360 360;" xml:space="preserve">
<style type="text/css">
	.st0{fill:#FFFFFF;}
</style>
<g>
	<path class="st0" d="M0.2,360.5c0-120.1,0-240.2,0-360.2c120.1,0,240.2,0,360.2,0c0,120.1,0,240.2,0,360.2
		C240.4,360.5,120.3,360.5,0.2,360.5z M142.9,305.2c0.4-0.1,0.5-0.2,0.6-0.2c5.1-2.9,10.2-5.8,15.3-8.7c0.6-0.4,0.6-0.8,0.6-1.4
		c-0.4-11.9-0.9-23.9-1-35.8c-0.2-16.1,0-32.2-0.1-48.4c0-1.5,0.5-2.5,1.7-3.3c2.6-1.8,5.1-3.8,7.8-5.8
		c-5.9-5.2-11.8-10.2-17.7-15.3c-0.3,0.4-0.5,0.7-0.8,1c-2.3,3.3-4.7,6.7-7,10c-0.4,0.6-0.9,0.8-1.6,0.8c-6.7,0-13.4,0-20.2,0
		c-0.3,0-0.7,0-1-0.1c0-17.7,0-35.3,0-53c20.7,0,41.4,0,62.3,0c-6.8-7.2-13.4-14.2-20.1-21.2c-4.9,4.6-9.7,9-14.5,13.4
		c-0.5,0.4-1.3,0.7-1.9,0.7c-8.2,0-16.4,0-24.6,0c-0.4,0-0.8,0-1.2-0.1c0-18.9,0-37.6,0-56.5c17.6-2.4,34.8-7.3,53-6.9
		c-6.5-6.9-12.7-13.5-18.8-20c-2.5,1.7-4.9,3.4-7.3,4.8c-6.6,3.8-13.7,6.4-21,8.7c-11.7,3.7-23.6,6.4-35.6,8.8
		c-9,1.8-18.1,3.3-27.2,4.9c-2.6,0.5-5.3,0.6-7.9,0.9c0,1.6,0,3.1,0,4.8c16.5-1.2,32.8-2.4,49.2-3.5c0,18,0,35.9,0,54
		c-20.3,0-40.6,0-61.1,0c0.4,0.5,0.7,0.8,1,1c2.9,2.9,5.8,5.7,8.6,8.7c0.7,0.8,1.4,0.9,2.4,0.6c6.5-1.7,13-3.2,19.7-3.2
		c9.4-0.1,18.7,0,28.1,0c0.4,0,0.9,0,1.4,0c0,17.7,0,35.3,0,52.9c-0.3,0-0.5,0.1-0.7,0.1c-7.3,0-14.6,0-22,0c-0.5,0-1.1-0.3-1.5-0.5
		c-4.2-2.7-8.3-5.3-12.5-8c-1-0.6-2-1.3-3-1.9c1.3,40.8,1.3,81.5,0,122.3c0.3-0.1,0.7-0.3,1-0.5c4.8-2.4,9.5-4.8,14.3-7.1
		c0.8-0.4,1.1-0.8,1.1-1.7c0-7.8,0-15.5,0-23.3c0-0.5,0-0.9,0.1-1.4c20.8,0,41.5,0,62.2,0C142.9,285.6,142.9,295.3,142.9,305.2z"/>
	<path d="M142.9,305.2c0-9.9,0-19.5,0-29.3c-20.8,0-41.4,0-62.2,0c0,0.4-0.1,0.9-0.1,1.4c0,7.8,0,15.5,0,23.3c0,0.9-0.3,1.3-1.1,1.7
		c-4.8,2.3-9.5,4.7-14.3,7.1c-0.3,0.2-0.7,0.3-1,0.5c1.3-40.8,1.3-81.5,0-122.3c1,0.6,2,1.3,3,1.9c4.2,2.7,8.3,5.4,12.5,8
		c0.4,0.3,1,0.5,1.5,0.5c7.3,0,14.6,0,22,0c0.2,0,0.5,0,0.7-0.1c0-17.6,0-35.2,0-52.9c-0.5,0-0.9,0-1.4,0c-9.4,0-18.7-0.1-28.1,0
		c-6.7,0.1-13.2,1.5-19.7,3.2c-1,0.3-1.6,0.2-2.4-0.6c-2.8-2.9-5.7-5.8-8.6-8.7c-0.3-0.3-0.5-0.6-1-1c20.5,0,40.8,0,61.1,0
		c0-18.1,0-36,0-54c-16.4,1.2-32.7,2.3-49.2,3.5c0-1.7,0-3.2,0-4.8c2.6-0.3,5.3-0.5,7.9-0.9c9.1-1.6,18.2-3.1,27.2-4.9
		c12-2.4,23.9-5.1,35.6-8.8c7.2-2.3,14.4-4.9,21-8.7c2.5-1.4,4.8-3.2,7.3-4.8c6.1,6.5,12.3,13.1,18.8,20c-18.2-0.3-35.4,4.5-53,6.9
		c0,18.8,0,37.6,0,56.5c0.4,0,0.8,0.1,1.2,0.1c8.2,0,16.4,0,24.6,0c0.6,0,1.4-0.3,1.9-0.7c4.8-4.4,9.6-8.8,14.5-13.4
		c6.6,7,13.2,14,20.1,21.2c-20.9,0-41.6,0-62.3,0c0,17.7,0,35.3,0,53c0.3,0,0.7,0.1,1,0.1c6.7,0,13.4,0,20.2,0
		c0.7,0,1.2-0.2,1.6-0.8c2.3-3.4,4.7-6.7,7-10c0.2-0.3,0.5-0.6,0.8-1c5.9,5.1,11.8,10.2,17.7,15.3c-2.6,2-5.1,4-7.8,5.8
		c-1.2,0.9-1.7,1.8-1.7,3.3c0.1,16.1-0.1,32.2,0.1,48.4c0.1,11.9,0.7,23.9,1,35.8c0,0.6,0,1-0.6,1.4c-5.1,2.9-10.2,5.8-15.3,8.7
		C143.4,305,143.2,305,142.9,305.2z M80.7,268.6c20.8,0,41.5,0,62.1,0c0-21.2,0-42.3,0-63.4c-20.8,0-41.4,0-62.1,0
		C80.7,226.3,80.7,247.4,80.7,268.6z"/>
	<path class="st0" d="M80.7,268.6c0-21.2,0-42.2,0-63.4c20.7,0,41.4,0,62.1,0c0,21.1,0,42.2,0,63.4
		C122.2,268.6,101.5,268.6,80.7,268.6z"/>
</g>
</svg>
