<?xml version="1.0" encoding="utf-8"?>
<!-- Generator: Adobe Illustrator 20.1.0, SVG Export Plug-In . SVG Version: 6.00 Build 0)  -->
<svg version="1.1" id="图层_1" xmlns="http://www.w3.org/2000/svg" xmlns:xlink="http://www.w3.org/1999/xlink" x="0px" y="0px"
	 viewBox="0 0 360 360" style="enable-background:new 0 0 360 360;" xml:space="preserve">
<style type="text/css">
	.st0{fill:#FFFFFF;}
</style>
<g>
	<path class="st0" d="M0.2,360.5c0-120.1,0-240.2,0-360.2c120.1,0,240.2,0,360.2,0c0,120.1,0,240.2,0,360.2
		C240.4,360.5,120.3,360.5,0.2,360.5z M287.9,46c-0.2,0.2-0.4,0.3-0.5,0.4c-5.7,5.4-11.5,10.8-17.2,16.2c-0.8,0.8-1.6,1-2.6,1
		c-47.6,0-95.1,0-142.7,0c-22.1,0-44.2,0-66.4,0c-0.4,0-0.9,0-1.6,0c3.5,3.5,6.7,6.6,9.8,9.9c0.7,0.7,1.2,0.8,2.1,0.5
		c7.5-2,15.1-3.2,22.8-3.2c16.6,0,33.3,0,49.9,0c0.4,0,0.9,0,1.3,0c0,11.8,0,23.5,0,35.2c-0.3,0-0.6,0-0.8,0c-12.4,0-24.8,0-37.2,0
		c-0.5,0-1.1-0.2-1.6-0.4c-5.6-2.8-11.2-5.6-16.8-8.4c-0.4-0.2-0.8-0.3-0.9-0.4c0.3,13.9,0.8,27.8,0.8,41.7
		c0,13.9-0.6,27.8-0.9,41.7c0.3-0.1,0.7-0.2,1-0.4c4.7-2,9.5-4.1,14.2-6.1c0.8-0.3,1.1-0.8,1.1-1.7c-0.1-2.7,0-5.4,0-8.2
		c53.4,0,106.7,0,160.1,0c0,4.3,0,8.5,0,12.9c0.5-0.2,0.9-0.4,1.2-0.6c4.8-2.4,9.5-4.8,14.3-7.1c0.8-0.4,1.1-0.8,1-1.7
		c-0.3-8-0.7-16-0.9-24c-0.2-8.4-0.1-16.8-0.2-25.2c0-2.1,0.6-3.4,2.2-4.6c2.5-2,4.8-4.2,7.3-6.4c-6.4-4.8-12.6-9.5-18.9-14.2
		c-2.6,4.1-5.1,8.1-7.6,12c-0.4,0.7-0.9,1-1.7,1c-12.2,0-24.3,0-36.5,0c-0.4,0-0.8,0-1.1,0c0-11.8,0-23.5,0-35.3
		c30.2,0,60.3,0,90.6,0C303.5,62.4,295.7,54.2,287.9,46z"/>
	<path d="M287.9,46c7.8,8.2,15.6,16.4,23.6,24.7c-30.3,0-60.4,0-90.6,0c0,11.8,0,23.5,0,35.3c0.4,0,0.8,0,1.1,0
		c12.2,0,24.3,0,36.5,0c0.8,0,1.3-0.3,1.7-1c2.5-4,5-8,7.6-12c6.3,4.7,12.6,9.4,18.9,14.2c-2.5,2.2-4.8,4.4-7.3,6.4
		c-1.6,1.3-2.2,2.6-2.2,4.6c0.2,8.4,0.1,16.8,0.2,25.2c0.2,8,0.6,16,0.9,24c0,0.9-0.2,1.3-1,1.7c-4.8,2.3-9.5,4.7-14.3,7.1
		c-0.3,0.2-0.7,0.3-1.2,0.6c0-4.4,0-8.6,0-12.9c-53.4,0-106.7,0-160.1,0c0,2.7,0,5.5,0,8.2c0,0.9-0.3,1.3-1.1,1.7
		c-4.7,2-9.5,4-14.2,6.1c-0.4,0.2-0.7,0.3-1,0.4c0.3-13.9,0.9-27.8,0.9-41.7c0-13.9-0.5-27.8-0.8-41.7c0.2,0.1,0.5,0.2,0.9,0.4
		c5.6,2.8,11.2,5.6,16.8,8.4c0.5,0.2,1,0.4,1.6,0.4c12.4,0,24.8,0,37.2,0c0.2,0,0.5,0,0.8,0c0-11.7,0-23.4,0-35.2
		c-0.5,0-0.9,0-1.3,0c-16.6,0-33.3,0-49.9,0c-7.8,0-15.4,1.3-22.8,3.2c-0.9,0.2-1.4,0.1-2.1-0.5c-3.2-3.2-6.4-6.4-9.8-9.9
		c0.8,0,1.2,0,1.6,0c22.1,0,44.2,0,66.4,0c47.6,0,95.1,0,142.7,0c1.1,0,1.8-0.3,2.6-1c5.7-5.4,11.5-10.8,17.2-16.2
		C287.5,46.3,287.7,46.2,287.9,46z M158.5,113.3c0,14.5,0,28.9,0,43.4c15.7,0,31.2,0,46.9,0c0-14.5,0-28.9,0-43.4
		C189.7,113.3,174.1,113.3,158.5,113.3z M142.8,156.7c0-14.5,0-28.9,0-43.4c-13.7,0-27.3,0-41,0c0,14.5,0,28.9,0,43.4
		C115.5,156.7,129.1,156.7,142.8,156.7z M220.9,113.3c0,14.5,0,29,0,43.4c13.7,0,27.3,0,40.9,0c0-14.5,0-28.9,0-43.4
		C248.1,113.3,234.5,113.3,220.9,113.3z M205.4,70.9c-15.7,0-31.3,0-46.9,0c0,11.8,0,23.4,0,35.1c15.7,0,31.3,0,46.9,0
		C205.4,94.3,205.4,82.6,205.4,70.9z"/>
	<path class="st0" d="M158.5,113.3c15.6,0,31.2,0,46.9,0c0,14.5,0,28.9,0,43.4c-15.6,0-31.2,0-46.9,0
		C158.5,142.2,158.5,127.8,158.5,113.3z"/>
	<path class="st0" d="M142.8,156.7c-13.7,0-27.3,0-41,0c0-14.4,0-28.9,0-43.4c13.7,0,27.3,0,41,0
		C142.8,127.8,142.8,142.2,142.8,156.7z"/>
	<path class="st0" d="M220.9,113.3c13.7,0,27.2,0,40.9,0c0,14.4,0,28.9,0,43.4c-13.6,0-27.2,0-40.9,0
		C220.9,142.2,220.9,127.8,220.9,113.3z"/>
	<path class="st0" d="M205.4,70.9c0,11.8,0,23.4,0,35.1c-15.6,0-31.2,0-46.9,0c0-11.7,0-23.3,0-35.1
		C174.1,70.9,189.7,70.9,205.4,70.9z"/>
</g>
</svg>
