<?xml version="1.0" encoding="utf-8"?>
<!-- Generator: Adobe Illustrator 20.1.0, SVG Export Plug-In . SVG Version: 6.00 Build 0)  -->
<svg version="1.1" id="图层_1" xmlns="http://www.w3.org/2000/svg" xmlns:xlink="http://www.w3.org/1999/xlink" x="0px" y="0px"
	 viewBox="0 0 360 360" style="enable-background:new 0 0 360 360;" xml:space="preserve">
<style type="text/css">
	.st0{fill:#FFFFFF;}
</style>
<g>
	<path class="st0" d="M0.2,360.5c0-120.1,0-240.2,0-360.2c120.1,0,240.2,0,360.2,0c0,120.1,0,240.2,0,360.2
		C240.4,360.5,120.3,360.5,0.2,360.5z M278.4,119.2c0,42.4,0,84.7,0,127.2c0.6-0.3,1-0.4,1.4-0.6c4.6-2.3,9.1-4.6,13.7-6.8
		c1.1-0.5,1.4-1.1,1.4-2.3c-0.4-15.5-1-31-1.1-46.5c-0.2-21.7,0-43.4-0.1-65.2c0-1.6,0.4-2.6,1.8-3.4c3-1.8,5.9-3.9,8.6-5.7
		c-5.5-5.5-11-11-16.7-16.7c-0.2,0.2-0.4,0.6-0.7,1c-3.6,3.7-7.3,7.3-10.9,11c-0.7,0.7-1.4,1-2.4,1c-16.6,0-33.3,0-49.9,0
		c-0.5,0-0.9,0-1.5,0c0.1-0.4,0.2-0.7,0.3-0.9c4.1-10.3,8.3-20.6,13.5-30.4c2.4-4.6,5-9.1,8.4-13.1c0.8-0.9,1.6-1.4,2.9-1.4
		c23.3,0,46.6,0,69.8,0c0.5,0,0.9,0,1.7,0c-7.3-7.7-14.3-15.1-21.3-22.5c-4.9,4.9-9.6,9.6-14.3,14.4c-0.7,0.7-1.5,1-2.5,1
		c-40.9,0-81.8,0-122.8,0c-0.5,0-1,0-1.7,0c0.5,0.5,0.7,0.8,1,1.1c2.8,2.8,5.6,5.6,8.4,8.4c0.8,0.9,1.6,1.1,2.8,0.8
		c7.9-2.1,15.9-3,24.1-3.1c9.4-0.1,18.9,0,28.3,0c0.4,0,0.8,0,1.3,0.1c0,0.5,0,0.9-0.1,1.3c-1.8,14.6-4.5,29.1-7.8,43.4
		c-0.2,0.9-0.6,1.1-1.5,1.1c-7.9,0-15.8,0-23.6,0c-0.7,0-1.4-0.2-2-0.5c-5.3-2.8-10.5-5.6-15.8-8.4c-0.3-0.1-0.5-0.2-0.9-0.4
		c1.4,49.1,1.6,98.1,0,147.2c5.2-3.3,10.2-6.6,15.2-9.8c1-0.6,1.3-1.2,1.3-2.4c0-38.9,0-77.8,0-116.8c0-0.6,0-1.2,0-1.8
		C217.2,119.2,247.7,119.2,278.4,119.2z M137.1,318.3c5-1.6,9.8-3.2,14.7-4.9c13.8-4.8,27.3-10.3,40-17.7
		c13.4-7.8,24.4-17.9,32.5-31.2c7-11.6,10.9-24.3,12.8-37.6c1.3-9.2,2.5-18.4,3.2-27.6c0.9-11.5,1.2-23.1,1.7-34.6
		c0.1-1.4,0.4-2.4,1.5-3.3c2.7-2.2,5.3-4.6,8-7c-9.1-5.1-18.1-10.2-26.9-15.2c0,4.5,0,9,0,13.4c-0.1,9.3,0.1,18.6-0.3,27.8
		c-0.4,11.8-1.1,23.5-2,35.3c-0.8,10.5-2.9,20.7-6.5,30.6c-4.1,11.6-10,22.2-18.8,31c-5.8,5.8-12.4,10.6-19.3,15
		c-12.9,8.2-26.5,14.7-40.5,20.6c-0.4,0.2-0.8,0.4-1.2,0.6C136.3,315.1,136.6,316.6,137.1,318.3z M241.9,252.2
		c0.3,0.3,0.6,0.5,0.8,0.7c5.7,4.7,11.6,9.2,17.2,14c13.4,11.4,24.9,24.4,34.6,39.1c1.2,1.9,2.7,3.6,4.3,5.1c2.4,2.2,4.7,1.8,6.5-1
		c0.2-0.3,0.3-0.5,0.5-0.8c4.3-9.2,3.8-19.5-3.8-27.7c-3.3-3.6-7.3-6.3-11.4-8.9c-12.7-8-26.1-14.5-39.6-20.9
		c-2.2-1.1-4.5-2.1-6.7-3.1C243.4,249.9,242.7,251,241.9,252.2z"/>
	<path d="M278.4,119.2c-30.7,0-61.2,0-91.8,0c0,0.7,0,1.3,0,1.8c0,38.9,0,77.8,0,116.8c0,1.2-0.4,1.8-1.3,2.4
		c-5,3.2-10,6.4-15.2,9.8c1.6-49.1,1.4-98.1,0-147.2c0.4,0.2,0.7,0.2,0.9,0.4c5.3,2.8,10.5,5.6,15.8,8.4c0.6,0.3,1.4,0.5,2,0.5
		c7.9,0,15.8,0,23.6,0c0.8,0,1.3-0.2,1.5-1.1c3.4-14.3,6.1-28.8,7.8-43.4c0-0.4,0-0.8,0.1-1.3c-0.5,0-0.9-0.1-1.3-0.1
		c-9.4,0-18.9-0.1-28.3,0c-8.1,0.1-16.2,1-24.1,3.1c-1.2,0.3-1.9,0.1-2.8-0.8c-2.7-2.9-5.6-5.6-8.4-8.4c-0.3-0.3-0.5-0.6-1-1.1
		c0.7,0,1.2,0,1.7,0c40.9,0,81.8,0,122.8,0c1,0,1.8-0.3,2.5-1c4.7-4.8,9.5-9.5,14.3-14.4c7.1,7.4,14.1,14.9,21.3,22.5
		c-0.8,0-1.2,0-1.7,0c-23.3,0-46.6,0-69.8,0c-1.3,0-2.1,0.5-2.9,1.4c-3.3,4-6,8.5-8.4,13.1c-5.2,9.8-9.4,20.1-13.5,30.4
		c-0.1,0.2-0.1,0.5-0.3,0.9c0.6,0,1,0,1.5,0c16.6,0,33.3,0,49.9,0c1,0,1.7-0.3,2.4-1c3.6-3.7,7.3-7.3,10.9-11c0.3-0.3,0.5-0.7,0.7-1
		c5.7,5.7,11.1,11.1,16.7,16.7c-2.8,1.8-5.6,3.9-8.6,5.7c-1.4,0.9-1.8,1.8-1.8,3.4c0.1,21.7-0.1,43.4,0.1,65.2
		c0.1,15.5,0.7,31,1.1,46.5c0,1.2-0.3,1.8-1.4,2.3c-4.6,2.2-9.2,4.5-13.7,6.8c-0.4,0.2-0.8,0.4-1.4,0.6
		C278.4,203.9,278.4,161.6,278.4,119.2z"/>
	<path d="M137.1,318.3c-0.4-1.7-0.8-3.2-1.2-4.8c0.4-0.2,0.8-0.4,1.2-0.6c14-6,27.7-12.5,40.5-20.6c6.9-4.4,13.5-9.2,19.3-15
		c8.8-8.8,14.7-19.4,18.8-31c3.5-9.9,5.7-20.2,6.5-30.6c0.9-11.8,1.6-23.5,2-35.3c0.3-9.3,0.2-18.5,0.3-27.8c0-4.4,0-8.9,0-13.4
		c8.8,5,17.8,10.1,26.9,15.2c-2.7,2.4-5.3,4.8-8,7c-1.1,0.9-1.4,1.8-1.5,3.3c-0.5,11.5-0.8,23.1-1.7,34.6
		c-0.7,9.2-1.8,18.5-3.2,27.6c-1.9,13.3-5.7,26-12.8,37.6c-8.1,13.3-19.1,23.5-32.5,31.2c-12.7,7.4-26.2,12.9-40,17.7
		C146.9,315.1,142,316.6,137.1,318.3z"/>
	<path d="M241.9,252.2c0.8-1.2,1.6-2.3,2.4-3.6c2.2,1.1,4.5,2.1,6.7,3.1c13.5,6.4,26.9,12.9,39.6,20.9c4.1,2.6,8.1,5.3,11.4,8.9
		c7.7,8.3,8.1,18.5,3.8,27.7c-0.1,0.3-0.3,0.6-0.5,0.8c-1.8,2.8-4.1,3.2-6.5,1c-1.6-1.5-3.1-3.2-4.3-5.1
		c-9.7-14.7-21.2-27.7-34.6-39.1c-5.6-4.8-11.4-9.4-17.2-14C242.5,252.7,242.2,252.5,241.9,252.2z"/>
</g>
</svg>
