<?xml version="1.0" encoding="utf-8"?>
<!-- Generator: Adobe Illustrator 20.1.0, SVG Export Plug-In . SVG Version: 6.00 Build 0)  -->
<svg version="1.1" id="图层_1" xmlns="http://www.w3.org/2000/svg" xmlns:xlink="http://www.w3.org/1999/xlink" x="0px" y="0px"
	 viewBox="0 0 360 360" style="enable-background:new 0 0 360 360;" xml:space="preserve">
<style type="text/css">
	.st0{fill:#FFFFFF;}
</style>
<g>
	<path class="st0" d="M0.2,360.5c0-120.1,0-240.2,0-360.2c120.1,0,240.2,0,360.2,0c0,120.1,0,240.2,0,360.2
		C240.4,360.5,120.3,360.5,0.2,360.5z M193.6,213.4c0,0.7,0,1.2,0,1.7c-0.1,24.8-0.1,49.6-0.2,74.4c0,3.7,0.7,7.2,2.7,10.3
		c2.9,4.7,7.4,7,12.6,8.1c4.2,0.9,8.6,0.9,12.9,0.9c19.4-0.1,38.8,0,58.2,0c0.4,0,0.8,0,1.2,0c9.8,0.5,18.4-2.3,25.2-9.6
		c2-2.1,3.7-4.4,5.2-7c-0.5-0.2-0.9-0.3-1.2-0.4c-7-2.5-11.4-7.1-12.9-14.4c-1.8-8.9-2.1-17.8-2.3-26.8c0-1.8,0-3.6,0-5.4
		c-2.1,0-4,0-5.9,0c0,0.4-0.1,0.8-0.1,1.1c-0.1,2.8-0.2,5.5-0.4,8.3c-0.5,8.8-1,17.6-2.5,26.2c-0.4,2.1-0.9,4.3-1.7,6.3
		c-2,5.1-5.6,7.5-11.1,7.5c-14.6,0-29.1,0-43.7,0c-0.5,0-1,0-1.4,0c-2.7-0.2-5.5-0.2-8.1-0.7c-4.8-0.9-8.3-3.6-9.4-8.6
		c-0.5-2-0.5-4.2-0.5-6.3c0-21.3,0-42.6,0-64c0-0.5,0-1.1,0-1.7c33.4,0,66.7,0,99.9,0c-8.2-8.2-16.4-16.4-24.8-24.8
		c-0.2,0.2-0.4,0.6-0.7,1c-5.3,5.3-10.6,10.6-15.8,15.9c-0.6,0.6-1.2,0.8-2,0.8c-25.8,0-51.7,0-77.5,0c-0.5,0-0.9,0-1.4,0
		c0-16.2,0-32.2,0-48.3c27.8,0,55.6,0,83.2,0c-7.8-7.8-15.6-15.6-23.4-23.4c-5.1,5.1-10.3,10.3-15.5,15.5c-0.4,0.4-1.2,0.8-1.8,0.8
		c-13.8,0-27.5,0-41.3,0.1c-1,0-1.3-0.3-1.3-1.3c0-7.5,0.2-15-0.1-22.6c-0.1-3.3,0.8-5.5,3.4-7.3c2.2-1.5,4-3.5,6.2-5.4
		c-8.7-4-17.2-7.8-26-11.8c0.7,16.2,1.2,32.2,1.1,48.2c-15.7,0-31.2,0-46.9,0c0.3-0.5,0.4-0.9,0.6-1.3c2.7-5.4,5.4-10.8,8.1-16.2
		c1-2,1.6-4.3,3.1-5.8c1.5-1.5,3.7-2.3,5.6-3.3c1.6-0.9,3.1-1.7,4.8-2.7c-8.4-4.8-16.5-9.4-24.8-14.2c-7.3,32.8-19.8,63-42.4,88.4
		c1,0.7,1.9,1.2,2.7,1.8c0.7,0.5,1.1,0.5,1.8-0.1c4.7-4.1,9.6-8,14.1-12.3c8.5-8,16-17,23.2-26.2c0.5-0.7,1.1-1,2-1
		c15.6,0,31.2,0,46.8,0c0.4,0,0.9,0,1.3,0c0,16.2,0,32.2,0,48.3c-40,0-79.9,0-120,0c3.2,3.2,6.2,6.2,9.2,9.2
		c0.2,0.2,0.6,0.2,0.9,0.2c2.4-0.3,4.8-0.6,7.2-1c3.6-0.4,7.1-1.2,10.7-1.3c18.9-0.1,37.8-0.1,56.6-0.1c0.4,0,0.9,0,1.4,0
		c-0.3,3.6-0.6,7-1,10.4c-1.1,10-3.2,19.9-6.7,29.3c-3.5,9.3-8.3,17.7-15.6,24.6c-6.2,5.9-13.3,10.6-20.7,14.9
		c-13.4,7.7-27.5,13.7-41.9,19.2c-0.4,0.2-0.9,0.4-1.3,0.5c0.4,1.2,0.8,2.4,1.2,3.5c0.3,0,0.5,0,0.7-0.1c8.2-2,16.4-3.9,24.5-6.2
		c13.4-3.8,26.3-9,38.5-16c12.7-7.3,22.3-17.2,28.3-30.6c6.2-13.7,9.2-28.2,11-43c0.3-2.2,0.5-4.3,0.7-6.5
		C168.6,213.4,181,213.4,193.6,213.4z"/>
	<path d="M193.6,213.4c-12.6,0-25.1,0-37.7,0c-0.2,2.2-0.4,4.4-0.7,6.5c-1.8,14.8-4.8,29.3-11,43c-6.1,13.4-15.7,23.3-28.3,30.6
		c-12.2,7-25.1,12.1-38.5,16c-8.1,2.3-16.3,4.1-24.5,6.2c-0.2,0-0.4,0.1-0.7,0.1c-0.4-1.1-0.8-2.3-1.2-3.5c0.5-0.2,0.9-0.4,1.3-0.5
		c14.4-5.5,28.5-11.5,41.9-19.2c7.4-4.3,14.5-9,20.7-14.9c7.3-6.9,12.1-15.3,15.6-24.6c3.6-9.5,5.6-19.3,6.7-29.3
		c0.4-3.4,0.7-6.8,1-10.4c-0.6,0-1,0-1.4,0c-18.9,0-37.8-0.1-56.6,0.1c-3.6,0-7.1,0.8-10.7,1.3c-2.4,0.3-4.8,0.7-7.2,1
		c-0.3,0-0.7,0-0.9-0.2c-3-3-6-6-9.2-9.2c40.1,0,80,0,120,0c0-16.1,0-32.1,0-48.3c-0.4,0-0.9,0-1.3,0c-15.6,0-31.2,0-46.8,0
		c-0.9,0-1.4,0.3-2,1c-7.2,9.2-14.7,18.1-23.2,26.2c-4.5,4.3-9.4,8.2-14.1,12.3c-0.6,0.5-1.1,0.6-1.8,0.1c-0.8-0.6-1.7-1.2-2.7-1.8
		c22.6-25.4,35.2-55.6,42.4-88.4c8.3,4.7,16.4,9.4,24.8,14.2c-1.7,1-3.3,1.8-4.8,2.7c-1.9,1.1-4.2,1.8-5.6,3.3
		c-1.5,1.5-2.1,3.8-3.1,5.8c-2.7,5.4-5.4,10.8-8.1,16.2c-0.2,0.4-0.4,0.8-0.6,1.3c15.7,0,31.2,0,46.9,0c0.1-16-0.4-31.9-1.1-48.2
		c8.7,4,17.3,7.9,26,11.8c-2.1,1.9-4,3.8-6.2,5.4c-2.6,1.9-3.5,4.1-3.4,7.3c0.3,7.5,0.1,15,0.1,22.6c0,1,0.3,1.3,1.3,1.3
		c13.8,0,27.5,0,41.3-0.1c0.6,0,1.4-0.3,1.8-0.8c5.2-5.2,10.4-10.4,15.5-15.5c7.8,7.8,15.6,15.6,23.4,23.4c-27.6,0-55.4,0-83.2,0
		c0,16.1,0,32.1,0,48.3c0.4,0,0.9,0,1.4,0c25.8,0,51.7,0,77.5,0c0.8,0,1.4-0.2,2-0.8c5.3-5.3,10.6-10.6,15.8-15.9
		c0.3-0.3,0.5-0.7,0.7-1c8.4,8.4,16.6,16.6,24.8,24.8c-33.2,0-66.4,0-99.9,0c0,0.7,0,1.2,0,1.7c0,21.3,0,42.6,0,64
		c0,2.1,0,4.3,0.5,6.3c1.1,5,4.6,7.7,9.4,8.6c2.6,0.5,5.4,0.5,8.1,0.7c0.5,0,1,0,1.4,0c14.6,0,29.1,0,43.7,0c5.5,0,9.1-2.3,11.1-7.5
		c0.8-2,1.3-4.2,1.7-6.3c1.6-8.7,2-17.5,2.5-26.2c0.2-2.8,0.2-5.5,0.4-8.3c0-0.4,0.1-0.7,0.1-1.1c1.9,0,3.8,0,5.9,0
		c0,1.8,0,3.6,0,5.4c0.2,9,0.5,18,2.3,26.8c1.5,7.3,6,12,12.9,14.4c0.4,0.1,0.7,0.3,1.2,0.4c-1.5,2.6-3.2,4.9-5.2,7
		c-6.9,7.3-15.4,10.1-25.2,9.6c-0.4,0-0.8,0-1.2,0c-19.4,0-38.8,0-58.2,0c-4.3,0-8.6,0.1-12.9-0.9c-5.2-1.1-9.7-3.4-12.6-8.1
		c-1.9-3.2-2.7-6.7-2.7-10.3c0.1-24.8,0.1-49.6,0.2-74.4C193.6,214.6,193.6,214.1,193.6,213.4z"/>
</g>
</svg>
