<?xml version="1.0" encoding="utf-8"?>
<!-- Generator: Adobe Illustrator 20.1.0, SVG Export Plug-In . SVG Version: 6.00 Build 0)  -->
<svg version="1.1" id="图层_1" xmlns="http://www.w3.org/2000/svg" xmlns:xlink="http://www.w3.org/1999/xlink" x="0px" y="0px"
	 viewBox="0 0 360 360" style="enable-background:new 0 0 360 360;" xml:space="preserve">
<style type="text/css">
	.st0{fill:#FFFFFF;}
</style>
<g>
	<path class="st0" d="M0.2,360.5c0-120.1,0-240.2,0-360.2c120.1,0,240.2,0,360.2,0c0,120.1,0,240.2,0,360.2
		C240.4,360.5,120.3,360.5,0.2,360.5z M105.3,106c-7.1,0-14.1,0-21.1,0c0.1-0.3,0.1-0.5,0.2-0.8c2.1-6,4.2-12.1,6.4-18.1
		c0.2-0.7,0.8-1.3,1.3-1.8c2-1.8,4.1-3.4,6.2-5.2c-7.2-3.6-14.1-7.1-21.3-10.6c-3.6,31.6-13.7,61.1-27.1,89.6
		c0.2,0.2,0.4,0.3,0.6,0.5c1,0.6,1.9,1.3,2.9,1.9c0.2-0.2,0.3-0.4,0.5-0.6c10.4-14.7,19.8-30,27.2-46.4c0.4-0.9,0.9-1.3,1.9-1.3
		c6.9,0.1,13.8,0,20.8,0c0.4,0,0.9,0,1.3,0c0,19.7,0,39.2,0,58.9c-18.8,0-37.5,0-56.5,0c3.6,3.5,6.9,6.9,10.3,10.2
		c0.2,0.2,0.7,0.3,1,0.2c6.3-2,12.9-2.8,19.5-3.1c2.3-0.1,4.6,0,7.1,0c-0.4,5.9-0.6,11.8-1.1,17.6c-0.9,11.3-2.4,22.6-4.5,33.7
		c-2,10.3-4.2,20.6-7.8,30.5c-6,16.4-14.5,31.3-24.7,45.5c-1.1,1.5-2.1,3-3.3,4.5c1.3,0.8,2.4,1.6,3.8,2.6c4.9-5,10-9.9,14.6-15.1
		c9.7-10.7,17.6-22.6,22.9-36c5.3-13.4,8.1-27.5,10.4-41.8c1.7-10.7,2.7-21.6,3.3-32.4c0.2-3,0.3-6,0.4-9.1c7,0,14,0,21.1,0
		c0,0.6,0,1.1,0,1.6c0,26.4,0,52.9,0,79.3c0,5.3-1.4,10.2-4.2,14.6c-0.4,0.7-0.4,1.1,0.1,1.8c2.7,3.4,5.4,6.8,8.1,10.3
		c1.4,1.8,2.8,3.5,4.2,5.4c0.2-0.2,0.3-0.3,0.4-0.5c3.5-3.8,6.8-7.7,10.6-11.3c10.7-10.2,22.2-19.6,33.7-28.9
		c3.2-2.6,6.4-5.1,9.6-7.7c-0.8-1.2-1.6-2.4-2.4-3.6c-14.9,9-29.8,18-44.7,27.1c0-29.5,0-58.8,0-88.2c10.5,0,21,0,31.9,0
		c-6.5-6.9-12.7-13.5-19.1-20.3c-0.3,0.3-0.5,0.6-0.7,0.9c-3.4,3.8-6.9,7.6-10.3,11.4c-0.5,0.6-1,0.8-1.8,0.8c-5.1,0-10.2,0-15.2,0
		c-0.4,0-0.8,0-1.2,0c0-19.7,0-39.2,0-58.9c14.9,0,29.7,0,44.7,0c-6.4-6.8-12.6-13.4-18.9-20.1c-0.3,0.4-0.6,0.7-0.8,1
		c-3.4,3.8-6.8,7.5-10.3,11.2c-0.4,0.4-1.1,0.7-1.7,0.8c-3.8,0.1-7.7,0-11.5,0c-0.5,0-0.9,0-1.5,0c0-0.6,0-1.2,0-1.7
		c0-10.5,0-21,0-31.4c0-1.9-0.5-4,0.2-5.6c0.7-1.6,2.5-2.8,3.9-4.2c1.4-1.4,2.8-2.7,4.3-4.2c-8-4-15.8-7.9-23.7-11.8
		C105.3,66.9,105.3,86.4,105.3,106z"/>
	<path d="M105.3,106c0-19.6,0-39.1,0-58.8c7.9,4,15.7,7.8,23.7,11.8c-1.5,1.5-2.9,2.8-4.3,4.2c-1.4,1.4-3.2,2.5-3.9,4.2
		c-0.7,1.6-0.2,3.7-0.2,5.6c0,10.5,0,21,0,31.4c0,0.5,0,1,0,1.7c0.6,0,1.1,0,1.5,0c3.8,0,7.7,0,11.5,0c0.6,0,1.3-0.3,1.7-0.8
		c3.5-3.7,6.9-7.5,10.3-11.2c0.3-0.3,0.5-0.6,0.8-1c6.3,6.7,12.5,13.3,18.9,20.1c-15.1,0-29.8,0-44.7,0c0,19.7,0,39.2,0,58.9
		c0.4,0,0.8,0,1.2,0c5.1,0,10.2,0,15.2,0c0.8,0,1.3-0.3,1.8-0.8c3.4-3.8,6.9-7.6,10.3-11.4c0.2-0.3,0.4-0.6,0.7-0.9
		c6.4,6.8,12.6,13.4,19.1,20.3c-10.8,0-21.3,0-31.9,0c0,29.4,0,58.7,0,88.2c14.9-9,29.8-18,44.7-27.1c0.8,1.2,1.6,2.4,2.4,3.6
		c-3.3,2.6-6.5,5.1-9.6,7.7c-11.5,9.3-23,18.6-33.7,28.9c-3.7,3.6-7.1,7.5-10.6,11.3c-0.1,0.1-0.2,0.2-0.4,0.5
		c-1.4-1.8-2.8-3.6-4.2-5.4c-2.7-3.4-5.4-6.9-8.1-10.3c-0.5-0.6-0.5-1.1-0.1-1.8c2.8-4.5,4.2-9.3,4.2-14.6c-0.1-26.4,0-52.9,0-79.3
		c0-0.5,0-1,0-1.6c-7.1,0-14.1,0-21.1,0c-0.1,3.1-0.3,6.1-0.4,9.1c-0.6,10.9-1.6,21.7-3.3,32.4c-2.3,14.2-5,28.3-10.4,41.8
		c-5.3,13.4-13.3,25.3-22.9,36c-4.7,5.2-9.7,10-14.6,15.1c-1.4-1-2.6-1.7-3.8-2.6c1.1-1.5,2.2-3,3.3-4.5
		c10.1-14.1,18.7-29.1,24.7-45.5c3.6-9.9,5.9-20.2,7.8-30.5c2.1-11.2,3.6-22.4,4.5-33.7c0.5-5.8,0.7-11.7,1.1-17.6
		c-2.5,0-4.8-0.1-7.1,0c-6.6,0.4-13.1,1.2-19.5,3.1c-0.3,0.1-0.8,0-1-0.2c-3.4-3.3-6.7-6.6-10.3-10.2c19,0,37.7,0,56.5,0
		c0-19.7,0-39.2,0-58.9c-0.5,0-0.9,0-1.3,0c-6.9,0-13.8,0-20.8,0c-1.1,0-1.5,0.3-1.9,1.3c-7.5,16.4-16.8,31.8-27.2,46.4
		c-0.1,0.2-0.3,0.4-0.5,0.6c-1-0.7-2-1.3-2.9-1.9c-0.2-0.1-0.4-0.3-0.6-0.5c13.4-28.5,23.5-58,27.1-89.6c7.2,3.6,14.1,7.1,21.3,10.6
		C96.1,82,94,83.7,92,85.4c-0.5,0.5-1.1,1.1-1.3,1.8c-2.2,6-4.3,12-6.4,18.1c-0.1,0.2-0.1,0.5-0.2,0.8C91.2,106,98.2,106,105.3,106z
		"/>
</g>
</svg>
