<?xml version="1.0" encoding="utf-8"?>
<!-- Generator: Adobe Illustrator 20.1.0, SVG Export Plug-In . SVG Version: 6.00 Build 0)  -->
<svg version="1.1" id="图层_1" xmlns="http://www.w3.org/2000/svg" xmlns:xlink="http://www.w3.org/1999/xlink" x="0px" y="0px"
	 viewBox="0 0 360 360" style="enable-background:new 0 0 360 360;" xml:space="preserve">
<style type="text/css">
	.st0{fill:#FFFFFF;}
</style>
<g>
	<path class="st0" d="M0.2,360.5c0-120.1,0-240.2,0-360.2c120.1,0,240.2,0,360.2,0c0,120.1,0,240.2,0,360.2
		C240.4,360.5,120.3,360.5,0.2,360.5z M263.1,142.8c0,0.4,0,0.7,0,1.1c0,44.2,0,88.4,0,132.6c0,2.6-0.3,5.1-1.3,7.5
		c-1.3,3.2-3.6,5.2-7.1,5.3c-3.1,0-6.2-0.2-9.3-0.5c-10.3-0.7-20.6-1.5-31-2.2c-0.6,0-1.2-0.1-1.9-0.1c0,1.7,0,3.2,0,4.7
		c0.5,0.1,0.9,0.2,1.3,0.3c7.2,1.4,14.3,3,21,6.1c3.2,1.5,6.4,3.3,9.3,5.3c4.8,3.4,7.9,8.1,8.4,14.2c0.2,0,0.2,0,0.3,0
		c0.5-0.1,1.1-0.3,1.6-0.4c10.2-2.8,17.5-9,21.2-19.1c2-5.5,2.8-11.2,2.8-16.9c0-45.4,0-90.7,0-136.1c0-0.5,0-1.1,0-1.8
		c14.6,0,29,0,43.7,0c-6.4-7.2-12.7-14.2-18.9-21.3c-5.2,4.5-10.4,8.9-15.5,13.3c-0.8,0.7-1.5,0.9-2.5,0.9c-24.5,0-49,0-73.6,0
		c-0.4,0-0.9,0-1.6,0c3.6,3.6,6.9,6.9,10.3,10.2c0.2,0.2,0.8,0.2,1.2,0.2c4.3-0.8,8.6-1.8,12.9-2.4c9.3-1.3,18.6-0.8,27.9-0.9
		C262.5,142.7,262.7,142.7,263.1,142.8z M85.3,316.9c0.4-0.2,0.7-0.4,1.1-0.6c4.7-3,9.5-6.1,14.2-9.1c0.9-0.6,1.2-1.1,1.2-2.2
		c0-42.2,0-84.5-0.1-126.7c0-1.1,0.4-1.8,1.3-2.4c2.7-2,5.4-4,8.2-6.2c-4.8-4-9.4-7.8-14.1-11.8c0.2-0.3,0.4-0.6,0.6-0.9
		c5.7-7.6,11.3-15.2,17-22.8c2.4-3.1,4.8-6.3,7.5-9.2c3.3-3.6,7.3-6.3,12.5-7.3c-7.2-5.2-14.2-10.2-21.2-15.3
		c-0.1,0.3-0.2,0.4-0.3,0.6c-1.8,4.1-3.4,8.3-5.4,12.3c-6.4,12.6-13.7,24.7-21.2,36.7c-11,17.6-23.3,34.3-38.3,48.9
		c-1.4,1.4-2.9,2.7-4.4,4.1c0.8,1.2,1.6,2.4,2.4,3.6c14.5-10.4,28.1-21.7,40.1-35.3C86.3,221.4,86.5,269.1,85.3,316.9z M110,41.3
		c-0.2,0.4-0.4,0.7-0.5,1c-3.6,8.5-8.1,16.5-13.4,24.1c-12.8,18.5-27.6,35.4-43.9,50.9c-1.9,1.8-3.9,3.6-5.9,5.4
		c0.8,1.2,1.6,2.4,2.3,3.5c0.3-0.1,0.4-0.1,0.5-0.2c1.3-0.8,2.5-1.5,3.8-2.3c15.9-10.2,30.1-22.4,43.5-35.7
		c8-7.9,15.5-16.2,23.3-24.3c0.6-0.6,1.4-1.1,2.1-1.4c2.7-1,5.4-1.8,8.1-2.7c0.4-0.1,0.8-0.3,1.3-0.5C124,53,117.1,47.2,110,41.3z
		 M217.1,70.8c3.6,3.6,6.9,7,10.3,10.3c0.2,0.2,0.7,0.2,1.1,0.1c9.3-2.4,18.9-3.3,28.5-3.3c18,0,36,0,54,0c0.4,0,0.9,0,1.3,0
		c-6.7-6.7-13.3-13.3-19.9-19.9c-4.3,3.9-8.6,7.9-13,11.9c-0.7,0.7-1.5,0.9-2.4,0.9c-19.4,0-38.7,0-58.1,0
		C218.4,70.8,218,70.8,217.1,70.8z"/>
	<path d="M263.1,142.8c-0.3,0-0.5-0.1-0.7-0.1c-9.3,0.1-18.6-0.4-27.9,0.9c-4.3,0.6-8.6,1.6-12.9,2.4c-0.4,0.1-0.9,0-1.2-0.2
		c-3.4-3.3-6.7-6.6-10.3-10.2c0.7,0,1.2,0,1.6,0c24.5,0,49,0,73.6,0c1,0,1.7-0.3,2.5-0.9c5.1-4.4,10.2-8.8,15.5-13.3
		c6.3,7,12.5,14,18.9,21.3c-14.7,0-29.1,0-43.7,0c0,0.7,0,1.3,0,1.8c0,45.4,0,90.7,0,136.1c0,5.8-0.8,11.5-2.8,16.9
		c-3.7,10.1-11,16.2-21.2,19.1c-0.5,0.1-1.1,0.3-1.6,0.4c-0.1,0-0.2,0-0.3,0c-0.5-6.1-3.5-10.7-8.4-14.2c-2.9-2.1-6.1-3.8-9.3-5.3
		c-6.7-3.1-13.8-4.7-21-6.1c-0.4-0.1-0.9-0.2-1.3-0.3c0-1.5,0-3.1,0-4.7c0.6,0,1.3,0.1,1.9,0.1c10.3,0.8,20.6,1.5,31,2.2
		c3.1,0.2,6.2,0.5,9.3,0.5c3.6,0,5.9-2.1,7.1-5.3c1-2.4,1.3-4.9,1.3-7.5c0-44.2,0-88.4,0-132.6C263.1,143.5,263.1,143.2,263.1,142.8
		z"/>
	<path d="M85.3,316.9c1.2-47.8,1-95.5,1.1-143.6c-12,13.6-25.5,24.9-40.1,35.3c-0.8-1.2-1.6-2.4-2.4-3.6c1.5-1.4,2.9-2.8,4.4-4.1
		c15-14.5,27.2-31.2,38.3-48.9c7.5-12,14.8-24.1,21.2-36.7c2-4,3.6-8.2,5.4-12.3c0.1-0.1,0.1-0.3,0.3-0.6c7,5.1,14,10.1,21.2,15.3
		c-5.3,1-9.2,3.7-12.5,7.3c-2.7,2.9-5.1,6-7.5,9.2c-5.7,7.5-11.4,15.2-17,22.8c-0.2,0.3-0.4,0.5-0.6,0.9c4.7,3.9,9.3,7.8,14.1,11.8
		c-2.8,2.1-5.5,4.2-8.2,6.2c-0.9,0.6-1.3,1.3-1.3,2.4c0,42.2,0,84.5,0.1,126.7c0,1.1-0.3,1.6-1.2,2.2c-4.8,3-9.5,6.1-14.2,9.1
		C86,316.5,85.7,316.7,85.3,316.9z"/>
	<path d="M110,41.3c7,5.9,14,11.7,21.2,17.7c-0.5,0.2-0.9,0.4-1.3,0.5c-2.7,0.9-5.4,1.7-8.1,2.7c-0.8,0.3-1.6,0.8-2.1,1.4
		c-7.8,8.1-15.3,16.4-23.3,24.3c-13.4,13.3-27.6,25.5-43.5,35.7c-1.2,0.8-2.5,1.6-3.8,2.3c-0.1,0.1-0.2,0.1-0.5,0.2
		c-0.8-1.1-1.5-2.3-2.3-3.5c2-1.8,4-3.6,5.9-5.4c16.3-15.5,31.1-32.3,43.9-50.9c5.2-7.6,9.8-15.6,13.4-24.1
		C109.6,42,109.8,41.7,110,41.3z"/>
	<path d="M217.1,70.8c0.8,0,1.3,0,1.8,0c19.4,0,38.7,0,58.1,0c1,0,1.7-0.3,2.4-0.9c4.3-4,8.7-8,13-11.9c6.6,6.6,13.2,13.2,19.9,19.9
		c-0.4,0-0.8,0-1.3,0c-18,0-36,0-54,0c-9.6,0-19.1,0.9-28.5,3.3c-0.3,0.1-0.9,0.1-1.1-0.1C224.1,77.7,220.7,74.4,217.1,70.8z"/>
</g>
</svg>
