<?xml version="1.0" encoding="utf-8"?>
<!-- Generator: Adobe Illustrator 20.1.0, SVG Export Plug-In . SVG Version: 6.00 Build 0)  -->
<svg version="1.1" id="图层_1" xmlns="http://www.w3.org/2000/svg" xmlns:xlink="http://www.w3.org/1999/xlink" x="0px" y="0px"
	 viewBox="0 0 360 360" style="enable-background:new 0 0 360 360;" xml:space="preserve">
<style type="text/css">
	.st0{fill:#FFFFFF;}
</style>
<g>
	<path class="st0" d="M0.2,360.5c0-120.1,0-240.2,0-360.2c120.1,0,240.2,0,360.2,0c0,120.1,0,240.2,0,360.2
		C240.4,360.5,120.3,360.5,0.2,360.5z M46.4,294.6c0.4,0.5,0.7,0.8,1,1c2.9,2.9,5.8,5.7,8.6,8.7c0.7,0.7,1.2,0.9,2.2,0.6
		c8.1-2.2,16.4-3.3,24.9-3.3c78.3,0.1,156.6,0,234.9,0c0.5,0,1,0,1.8,0c-6.8-7.6-13.4-15-20.1-22.4c-0.3,0.2-0.4,0.4-0.6,0.5
		c-4.4,4.1-8.9,8-13.1,12.3c-2,2-4.1,2.9-6.9,2.6c-1.7-0.2-3.5,0-5.3,0c0-0.5,0-0.8,0-1.1c0-24,0-48.1,0-72.1c0-0.7,0.2-1.2,0.8-1.6
		c2.7-2,5.3-4.1,8-6.2c0.6-0.5,1.2-0.9,1.8-1.5c-6.4-5.6-12.6-11-19-16.6c-0.3,0.4-0.6,0.8-0.9,1.1c-3.3,3.3-6.6,6.6-9.9,9.9
		c-0.6,0.7-1.3,0.9-2.2,0.9c-31.6,0-63.2,0-94.8,0c-0.4,0-0.8,0-1.5,0c0.4-0.4,0.5-0.6,0.7-0.8c6.5-6.5,13-13,19.4-19.4
		c1.9-1.9,4-3.6,6.6-4.5c2.7-1,5.4-1.7,8.2-2.6c-7.6-5-15.4-10-23.2-15.1c-0.1,0.3-0.2,0.5-0.2,0.7c-0.9,3.5-1.6,7-2.9,10.4
		c-4,11.1-10.1,21-16.7,30.7c-0.3,0.4-1,0.6-1.5,0.6c-11.8,0-23.7,0-35.5,0c-0.7,0-1.4-0.2-2-0.5c-5.5-3-10.9-6.1-16.4-9.2
		c-0.4-0.2-0.9-0.5-1.5-0.8c1.2,32.7,1,65.2,1.1,97.8C76.9,294.6,61.8,294.6,46.4,294.6z"/>
	<path d="M46.4,294.6c15.4,0,30.5,0,45.9,0c-0.1-32.6,0-65.1-1.1-97.8c0.6,0.3,1,0.6,1.5,0.8c5.5,3.1,10.9,6.2,16.4,9.2
		c0.6,0.3,1.3,0.5,2,0.5c11.8,0,23.7,0,35.5,0c0.5,0,1.2-0.3,1.5-0.6c6.6-9.7,12.7-19.6,16.7-30.7c1.2-3.4,1.9-6.9,2.9-10.4
		c0-0.2,0.1-0.4,0.2-0.7c7.8,5.1,15.6,10.1,23.2,15.1c-2.8,0.8-5.5,1.6-8.2,2.6c-2.5,0.9-4.7,2.6-6.6,4.5c-6.5,6.5-13,13-19.4,19.4
		c-0.2,0.2-0.4,0.4-0.7,0.8c0.7,0,1.1,0,1.5,0c31.6,0,63.2,0,94.8,0c0.9,0,1.6-0.2,2.2-0.9c3.3-3.3,6.6-6.6,9.9-9.9
		c0.3-0.3,0.6-0.7,0.9-1.1c6.4,5.6,12.7,11.1,19,16.6c-0.7,0.5-1.3,1-1.8,1.5c-2.7,2.1-5.3,4.1-8,6.2c-0.6,0.4-0.8,0.9-0.8,1.6
		c0,24,0,48.1,0,72.1c0,0.3,0,0.6,0,1.1c1.8,0,3.6-0.1,5.3,0c2.8,0.3,4.8-0.6,6.9-2.6c4.2-4.3,8.7-8.2,13.1-12.3
		c0.1-0.1,0.3-0.3,0.6-0.5c6.6,7.4,13.3,14.8,20.1,22.4c-0.8,0-1.3,0-1.8,0c-78.3,0-156.6,0-234.9,0c-8.5,0-16.7,1.1-24.9,3.3
		c-0.9,0.3-1.5,0.1-2.2-0.6c-2.8-2.9-5.8-5.8-8.6-8.7C47.1,295.4,46.8,295.1,46.4,294.6z M163.1,294.5c13.3,0,26.6,0,39.9,0
		c0-26.6,0-53.3,0-79.9c-13.3,0-26.6,0-39.9,0C163.1,241.3,163.1,267.9,163.1,294.5z M107.8,214.6c0,26.7,0,53.3,0,79.9
		c13.3,0,26.6,0,39.8,0c0-26.7,0-53.2,0-79.9C134.3,214.6,121.1,214.6,107.8,214.6z M258.3,294.6c0-26.7,0-53.3,0-79.9
		c-13.3,0-26.5,0-39.8,0c0,26.7,0,53.3,0,79.9C231.8,294.6,244.9,294.6,258.3,294.6z"/>
	<path class="st0" d="M163.1,294.5c0-26.7,0-53.2,0-79.9c13.3,0,26.6,0,39.9,0c0,26.6,0,53.2,0,79.9
		C189.6,294.5,176.4,294.5,163.1,294.5z"/>
	<path class="st0" d="M107.8,214.6c13.3,0,26.5,0,39.8,0c0,26.6,0,53.2,0,79.9c-13.3,0-26.5,0-39.8,0
		C107.8,267.9,107.8,241.3,107.8,214.6z"/>
	<path class="st0" d="M258.3,294.6c-13.3,0-26.5,0-39.8,0c0-26.6,0-53.3,0-79.9c13.2,0,26.5,0,39.8,0
		C258.3,241.2,258.3,267.8,258.3,294.6z"/>
</g>
</svg>
