<?xml version="1.0" encoding="utf-8"?>
<!-- Generator: Adobe Illustrator 20.1.0, SVG Export Plug-In . SVG Version: 6.00 Build 0)  -->
<svg version="1.1" id="图层_1" xmlns="http://www.w3.org/2000/svg" xmlns:xlink="http://www.w3.org/1999/xlink" x="0px" y="0px"
	 viewBox="0 0 360 360" style="enable-background:new 0 0 360 360;" xml:space="preserve">
<style type="text/css">
	.st0{fill:#FFFFFF;}
</style>
<g>
	<path class="st0" d="M0.2,360.5c0-120.1,0-240.2,0-360.2c120.1,0,240.2,0,360.2,0c0,120.1,0,240.2,0,360.2
		C240.4,360.5,120.3,360.5,0.2,360.5z M132.4,66.1c-8-5.6-15.7-11-23.4-16.3c-0.8,5.3-1.4,10.4-2.5,15.5c-2.7,13.8-7.5,27-12.8,40
		c-0.3,0.7-0.6,0.9-1.3,0.9c-3.7,0-7.4,0-11.2,0c-0.6,0-1.2-0.2-1.7-0.5c-4.3-2.3-8.5-4.6-12.8-6.9c-0.5-0.3-1-0.5-1.6-0.8
		c1.2,55,1,109.9,1.1,164.9c-6.4,0.8-12.6,1.6-18.9,2.4c4.4,8,8.7,15.7,13,23.6c2.4-3.3,5.6-5.4,8.9-7.2c6.5-3.5,13.4-5.9,20.4-8
		c31-9.3,62-18.5,93.1-27.8c2-0.6,4-1.2,6.1-1.8c-0.4-1.6-0.8-3.1-1.2-4.8c-9,2-18,3.9-27.1,5.9c0-0.7,0-1.3,0-1.8
		c0-38.2,0-76.5,0-114.7c0-3.2,0-6.3,0-9.5c0-0.9,0.3-1.4,1-1.8c2.7-1.7,5.3-3.5,7.9-5.2c0.6-0.4,1.1-0.8,1.7-1.2
		c-6-5.6-11.8-11-17.7-16.5c-3,3.7-5.9,7.4-8.8,11c-0.4,0.5-0.8,0.8-1.6,0.8c-13.8,0-27.7,0-41.5,0c-0.3,0-0.6-0.1-0.9-0.1
		c0.1-0.3,0.2-0.4,0.3-0.5c4.9-8.4,9.8-16.8,14.6-25.3C119.5,73.4,124.4,68.1,132.4,66.1z"/>
	<path d="M132.4,66.1c-8.1,2-13,7.4-16.8,14.1c-4.8,8.5-9.7,16.9-14.6,25.3c-0.1,0.1-0.2,0.3-0.3,0.5c0.4,0,0.6,0.1,0.9,0.1
		c13.8,0,27.7,0,41.5,0c0.7,0,1.1-0.3,1.6-0.8c2.9-3.6,5.8-7.2,8.8-11c5.9,5.5,11.7,11,17.7,16.5c-0.6,0.4-1.2,0.8-1.7,1.2
		c-2.6,1.8-5.2,3.5-7.9,5.2c-0.7,0.5-1,1-1,1.8c0.1,3.2,0,6.3,0,9.5c0,38.2,0,76.5,0,114.7c0,0.6,0,1.1,0,1.8
		c9.1-2,18.1-3.9,27.1-5.9c0.4,1.6,0.8,3.1,1.2,4.8c-2.1,0.6-4.1,1.2-6.1,1.8c-31,9.3-62,18.5-93.1,27.8c-7,2.1-13.9,4.5-20.4,8
		c-3.4,1.8-6.5,3.9-8.9,7.2c-4.3-7.9-8.6-15.7-13-23.6c6.3-0.8,12.5-1.6,18.9-2.4c-0.2-55,0.1-109.8-1.1-164.9
		c0.6,0.3,1.1,0.5,1.6,0.8c4.3,2.3,8.5,4.6,12.8,6.9c0.5,0.3,1.1,0.5,1.7,0.5c3.7,0,7.4,0,11.2,0c0.7,0,1.1-0.2,1.3-0.9
		c5.3-13,10-26.2,12.8-40c1-5.1,1.6-10.2,2.5-15.5C116.7,55,124.4,60.5,132.4,66.1z M79.4,260.4c4.3-0.7,8.5-1.5,12.8-2.1
		c1-0.2,1.3-0.5,1.3-1.5c0-47.4,0-94.8,0-142.2c0-0.4,0-0.8-0.1-1.3c-4.7,0-9.3,0-14,0C79.4,162.4,79.4,211.3,79.4,260.4z
		 M120.4,253.4c0-46.7,0-93.4,0-140.1c-4.7,0-9.2,0-13.8,0c0,47.5,0,94.9,0,142.4C111.3,254.9,115.8,254.1,120.4,253.4z
		 M133.6,250.9c0.4-0.1,0.8-0.1,1.1-0.2c3.9-1,7.7-2,11.6-2.9c1.1-0.2,1.3-0.7,1.3-1.7c0-43.8,0-87.6,0-131.4c0-0.5,0-0.9,0-1.4
		c-4.8,0-9.4,0-14,0C133.6,159.2,133.6,205,133.6,250.9z"/>
	<path class="st0" d="M79.4,260.4c0-49.1,0-98,0-147.1c4.6,0,9.2,0,14,0c0,0.4,0.1,0.8,0.1,1.3c0,47.4,0,94.8,0,142.2
		c0,1-0.3,1.4-1.3,1.5C88,258.9,83.8,259.7,79.4,260.4z"/>
	<path class="st0" d="M120.4,253.4c-4.6,0.8-9.2,1.5-13.8,2.3c0-47.5,0-94.9,0-142.4c4.6,0,9.2,0,13.8,0
		C120.4,160,120.4,206.6,120.4,253.4z"/>
	<path class="st0" d="M133.6,250.9c0-45.9,0-91.7,0-137.5c4.6,0,9.2,0,14,0c0,0.5,0,0.9,0,1.4c0,43.8,0,87.6,0,131.4
		c0,1-0.2,1.4-1.3,1.7c-3.9,0.9-7.8,1.9-11.6,2.9C134.4,250.8,134.1,250.8,133.6,250.9z"/>
</g>
</svg>
