<?xml version="1.0" encoding="utf-8"?>
<!-- Generator: Adobe Illustrator 20.1.0, SVG Export Plug-In . SVG Version: 6.00 Build 0)  -->
<svg version="1.1" id="图层_1" xmlns="http://www.w3.org/2000/svg" xmlns:xlink="http://www.w3.org/1999/xlink" x="0px" y="0px"
	 viewBox="0 0 360 360" style="enable-background:new 0 0 360 360;" xml:space="preserve">
<style type="text/css">
	.st0{fill:#FFFFFF;}
</style>
<g>
	<path class="st0" d="M0.2,360.5c0-120.1,0-240.2,0-360.2c120.1,0,240.2,0,360.2,0c0,120.1,0,240.2,0,360.2
		C240.4,360.5,120.3,360.5,0.2,360.5z M235.2,318c0.3-0.1,0.6-0.2,1-0.4c5.5-2.4,10.9-4.8,16.4-7.1c1-0.4,1.2-0.9,1.2-2
		c-0.4-8.6-1-17.2-1.1-25.7c-0.2-17.2-0.1-34.4-0.1-51.6c0-0.4,0-0.8,0-1.4c22.8,0,45.5,0,68.4,0c-6.8-7.2-13.4-14.2-20.3-21.5
		c-0.3,0.5-0.6,0.8-0.9,1.2c-4.1,4.1-8.3,8.3-12.4,12.4c-0.5,0.6-1.1,0.8-1.9,0.8c-10.6,0-21.2,0-31.8,0c-0.4,0-0.8,0-1.1-0.1
		c0-16.5,0-32.9,0-49.5c18.8,0,37.5,0,56.5,0c-6.4-6.8-12.6-13.4-19-20.2c-0.4,0.5-0.6,0.9-0.9,1.2c-3.7,3.7-7.4,7.4-11.1,11.1
		c-0.6,0.6-1.2,0.9-2.1,0.9c-7.3,0-14.6,0-22,0c-0.5,0-0.9,0-1.4-0.1c0-15.7,0-31.3,0-47.1c21.6,0,43,0,64.7,0
		c-6.4-7.2-12.6-14.2-19-21.4c-0.3,0.5-0.6,0.8-0.9,1.2c-4.1,4.1-8.2,8.2-12.3,12.3c-0.6,0.6-1.2,0.8-2,0.8c-8.2,0-16.3,0-24.5,0
		c-0.4,0-0.7,0-1.2-0.1c0.1-0.3,0.2-0.4,0.3-0.5c9.7-15.3,18.6-31.1,27.4-46.8c0.3-0.5,0.8-0.9,1.3-1.2c2.9-1.7,5.9-3.3,8.8-4.9
		c0.3-0.2,0.6-0.4,0.9-0.6c-8.3-5.1-16.5-10.2-24.7-15.3c-0.9,4.4-1.7,8.6-2.6,12.7c-4.2,19-9.9,37.5-17.9,55.3
		c-0.5,1.2-1.2,1.5-2.4,1.5c-19.3,0-38.6,0-58,0c-0.5,0-0.9,0-1.6,0c0.5,0.5,0.7,0.8,1,1.1c2.9,2.9,5.9,5.9,8.8,8.8
		c0.6,0.6,1,0.8,1.9,0.5c11.4-3.1,23.1-3.5,34.8-3.3c0.2,0,0.3,0.1,0.5,0.1c0,15.7,0,31.3,0,47c-14.8,0-29.6,0-44.5,0
		c0.2,0.3,0.2,0.4,0.3,0.5c3.2,3.2,6.4,6.5,9.7,9.7c0.3,0.3,0.9,0.4,1.4,0.3c8.6-2.3,17.4-3.2,26.2-3.3c2.3,0,4.6,0,6.9,0
		c0,16.5,0,33,0,49.5c-20,0-39.8,0-59.9,0c3.5,3.5,6.8,6.8,10.2,10.1c0.3,0.3,1,0.3,1.5,0.2c7.2-1.8,14.4-2.9,21.8-3.1
		c8.6-0.2,17.2-0.1,25.8-0.1c0.3,0,0.5,0.1,1,0.2C235.8,259.4,235.5,288.7,235.2,318z M196,49.6c1.4,2.4,2.8,4.8,4.1,7.2
		c6.1,11.1,11.4,22.5,13.9,35c0.6,3.1,1.5,6.1,3.2,8.8c1.8,2.7,3.9,3,6.3,0.9c2.5-2.2,4.6-4.9,6.2-7.9c3.5-6.5,3.3-12.8-1-18.8
		c-1.3-1.9-2.7-3.8-4.3-5.6c-6.6-7.3-14-13.9-21.9-19.9c-3.1-2.3-3.1-2.3-6.2,0C196.2,49.4,196.2,49.5,196,49.6z"/>
	<path d="M235.2,318c0.3-29.4,0.7-58.7,1-88c-0.5-0.1-0.8-0.2-1-0.2c-8.6,0-17.2-0.1-25.8,0.1c-7.4,0.2-14.6,1.3-21.8,3.1
		c-0.5,0.1-1.2,0.1-1.5-0.2c-3.4-3.3-6.7-6.6-10.2-10.1c20.1,0,40,0,59.9,0c0-16.6,0-33,0-49.5c-2.3,0-4.6,0-6.9,0
		c-8.9,0.1-17.6,1.1-26.2,3.3c-0.4,0.1-1.1,0-1.4-0.3c-3.3-3.2-6.5-6.4-9.7-9.7c-0.1-0.1-0.1-0.2-0.3-0.5c14.9,0,29.7,0,44.5,0
		c0-15.8,0-31.4,0-47c-0.2,0-0.4-0.1-0.5-0.1c-11.7-0.2-23.4,0.2-34.8,3.3c-0.8,0.2-1.3,0-1.9-0.5c-2.9-3-5.9-5.9-8.8-8.8
		c-0.3-0.3-0.5-0.6-1-1.1c0.7,0,1.2,0,1.6,0c19.3,0,38.6,0,58,0c1.2,0,1.9-0.3,2.4-1.5c8-17.8,13.8-36.3,17.9-55.3
		c0.9-4.2,1.7-8.4,2.6-12.7c8.2,5.1,16.4,10.1,24.7,15.3c-0.4,0.2-0.6,0.4-0.9,0.6c-2.9,1.6-5.9,3.2-8.8,4.9c-0.5,0.3-1,0.7-1.3,1.2
		c-8.8,15.8-17.7,31.6-27.4,46.8c-0.1,0.1-0.1,0.3-0.3,0.5c0.5,0,0.9,0.1,1.2,0.1c8.2,0,16.3,0,24.5,0c0.8,0,1.4-0.3,2-0.8
		c4.1-4.1,8.2-8.2,12.3-12.3c0.3-0.3,0.5-0.7,0.9-1.2c6.4,7.2,12.6,14.2,19,21.4c-21.7,0-43.2,0-64.7,0c0,15.8,0,31.4,0,47.1
		c0.5,0,1,0.1,1.4,0.1c7.3,0,14.6,0,22,0c0.9,0,1.5-0.2,2.1-0.9c3.7-3.7,7.4-7.4,11.1-11.1c0.3-0.3,0.5-0.7,0.9-1.2
		c6.4,6.8,12.7,13.4,19,20.2c-18.9,0-37.6,0-56.5,0c0,16.5,0,32.9,0,49.5c0.4,0,0.8,0.1,1.1,0.1c10.6,0,21.2,0,31.8,0
		c0.8,0,1.3-0.2,1.9-0.8c4.1-4.2,8.2-8.3,12.4-12.4c0.3-0.3,0.5-0.7,0.9-1.2c6.8,7.2,13.4,14.2,20.3,21.5c-22.9,0-45.6,0-68.4,0
		c0,0.5,0,1,0,1.4c0,17.2-0.1,34.4,0.1,51.6c0.1,8.6,0.7,17.2,1.1,25.7c0.1,1-0.2,1.5-1.2,2c-5.5,2.3-10.9,4.7-16.4,7.1
		C235.8,317.8,235.4,317.9,235.2,318z"/>
	<path d="M196,49.6c0.1-0.2,0.2-0.2,0.3-0.3c3.1-2.3,3.1-2.3,6.2,0c7.9,6,15.3,12.5,21.9,19.9c1.6,1.7,3,3.7,4.3,5.6
		c4.2,6.1,4.5,12.4,1,18.8c-1.6,3-3.6,5.6-6.2,7.9c-2.4,2.1-4.5,1.8-6.3-0.9c-1.7-2.7-2.6-5.7-3.2-8.8c-2.5-12.5-7.8-23.9-13.9-35
		C198.8,54.4,197.4,52.1,196,49.6z"/>
</g>
</svg>
