<?xml version="1.0" encoding="utf-8"?>
<!-- Generator: Adobe Illustrator 20.1.0, SVG Export Plug-In . SVG Version: 6.00 Build 0)  -->
<svg version="1.1" id="图层_1" xmlns="http://www.w3.org/2000/svg" xmlns:xlink="http://www.w3.org/1999/xlink" x="0px" y="0px"
	 viewBox="0 0 360 360" style="enable-background:new 0 0 360 360;" xml:space="preserve">
<style type="text/css">
	.st0{fill:#FFFFFF;}
</style>
<g>
	<path class="st0" d="M0.2,360.5c0-120.1,0-240.2,0-360.2c120.1,0,240.2,0,360.2,0c0,120.1,0,240.2,0,360.2
		C240.4,360.5,120.3,360.5,0.2,360.5z M105.1,219.3c0,0.6,0,1.2,0,1.7c-0.9,8.8-2.1,17.5-4.1,26.2c-2.9,12.6-7.1,24.6-14.6,35.3
		c-7.3,10.5-15.5,20.4-24.9,29.1c-1.5,1.4-3,2.8-4.6,4.2c0.8,1.2,1.6,2.4,2.4,3.5c0.3-0.2,0.5-0.3,0.7-0.4
		c11.1-6.7,21.4-14.5,30.3-23.9c7.2-7.5,13.3-15.9,17.9-25.3c7.6-15.4,11-31.9,12.3-49c0.1-1.6,0.1-1.6,1.7-1.6c18.5,0,37,0,55.6,0
		c0.5,0,1,0,1.8,0c-6.4-7.6-12.6-15-19.1-22.7c-0.3,0.5-0.5,0.9-0.8,1.2c-4.5,4.5-9,9.1-13.6,13.6c-0.4,0.4-1.2,0.8-1.8,0.8
		c-7.4,0.1-14.9,0-22.3,0c-0.4,0-0.8,0-1.2,0c0-15.3,0-30.5,0-45.8c14.9,0,29.7,0,44.8,0c-6.4-7.2-12.7-14.3-19.1-21.5
		c-0.3,0.4-0.5,0.8-0.8,1.1c-4.1,4.2-8.3,8.3-12.5,12.5c-0.4,0.4-1.1,0.7-1.7,0.7c-3.2,0.1-6.3,0-9.5,0c-0.4,0-0.8,0-1.1,0
		c0-14.6,0-29,0-43.6c19.2,0,38.3,0,57.7,0c-6.8-7.2-13.4-14.2-20.1-21.3c-4.5,4.5-8.9,8.9-13.3,13.3c-0.6,0.6-1.2,0.8-2,0.8
		c-6.6,0-13.2,0-19.8,0c-0.4,0-0.8,0-1.3,0c0.2-0.4,0.3-0.7,0.4-0.9c2.2-4.2,4.4-8.4,6.6-12.5c5.5-10.1,11.3-20.1,17.9-29.7
		c1.4-2,3-3.4,5.2-4.3c2.5-0.9,4.9-2.1,7.5-3.3c-8.4-5.2-16.6-10.3-24.8-15.4c-0.4,1.6-0.7,3.1-1,4.5c-4.7,20.3-10.3,40.3-17.2,59.9
		c-0.4,1.2-1,1.6-2.3,1.6c-19.7,0-39.4,0-59.2,0c-0.5,0-0.9,0-1.5,0c0.2,0.3,0.2,0.4,0.3,0.5c3.2,3.2,6.4,6.5,9.7,9.6
		c0.3,0.3,1,0.4,1.5,0.3c6.1-1.5,12.2-2.6,18.4-2.9c6.9-0.3,13.8-0.3,20.7-0.4c0.3,0,0.7,0.1,1,0.1c0,14.5,0,29,0,43.5
		c-14.5,0-28.9,0-43.5,0c3.4,3.4,6.7,6.6,9.9,9.9c0.5,0.6,1,0.7,1.8,0.5c10.2-2.7,20.7-3.5,31.3-3.2c0.2,0,0.4,0.1,0.6,0.1
		c0,15.3,0,30.4,0,45.7c-18.8,0-37.5,0-56.3,0c0.1,0.2,0.2,0.4,0.3,0.4c3.2,3.2,6.4,6.5,9.7,9.7c0.3,0.3,0.9,0.4,1.3,0.3
		c7-1.8,14.2-2.9,21.4-3.1c7.6-0.2,15.1-0.1,22.7-0.2C104.5,219.2,104.8,219.3,105.1,219.3z M65.2,49.5c2,3.3,4,6.5,5.9,9.8
		C76.9,69.4,81.9,79.8,84,91.5c0.5,2.7,1.3,5.3,2.8,7.6c1.5,2.2,3.4,2.6,5.5,1.1c5.2-3.9,8.5-9,9.2-15.5c0.7-6.7-1.8-12.4-6.4-17.1
		c-7.7-7.8-16.8-13.8-25.8-19.9c-0.2-0.2-0.8-0.2-1,0C67.2,48.1,66.3,48.8,65.2,49.5z"/>
	<path d="M105.1,219.3c-0.3,0-0.6-0.1-0.8-0.1c-7.6,0-15.1,0-22.7,0.2c-7.2,0.2-14.4,1.3-21.4,3.1c-0.4,0.1-1.1,0-1.3-0.3
		c-3.3-3.2-6.5-6.4-9.7-9.7c-0.1-0.1-0.1-0.2-0.3-0.4c18.8,0,37.5,0,56.3,0c0-15.3,0-30.5,0-45.7c-0.2,0-0.4-0.1-0.6-0.1
		c-10.6-0.2-21,0.5-31.3,3.2c-0.8,0.2-1.2,0.1-1.8-0.5c-3.2-3.2-6.4-6.5-9.9-9.9c14.6,0,29,0,43.5,0c0-14.6,0-29,0-43.5
		c-0.3,0-0.7-0.1-1-0.1c-6.9,0.1-13.8,0.1-20.7,0.4c-6.2,0.2-12.4,1.4-18.4,2.9c-0.4,0.1-1.2,0-1.5-0.3c-3.3-3.2-6.5-6.4-9.7-9.6
		c-0.1-0.1-0.1-0.2-0.3-0.5c0.6,0,1,0,1.5,0c19.7,0,39.4,0,59.2,0c1.3,0,1.8-0.3,2.3-1.6c6.9-19.6,12.5-39.7,17.2-59.9
		c0.3-1.4,0.7-2.9,1-4.5c8.3,5.1,16.4,10.2,24.8,15.4c-2.6,1.2-5,2.4-7.5,3.3c-2.3,0.8-3.9,2.3-5.2,4.3
		c-6.6,9.5-12.3,19.5-17.9,29.7c-2.3,4.1-4.4,8.3-6.6,12.5c-0.1,0.2-0.2,0.5-0.4,0.9c0.5,0,0.9,0,1.3,0c6.6,0,13.2,0,19.8,0
		c0.8,0,1.4-0.2,2-0.8c4.4-4.4,8.8-8.8,13.3-13.3c6.6,7,13.2,14,20.1,21.3c-19.4,0-38.5,0-57.7,0c0,14.6,0,29,0,43.6
		c0.4,0,0.8,0,1.1,0c3.2,0,6.3,0,9.5,0c0.6,0,1.3-0.3,1.7-0.7c4.2-4.1,8.3-8.3,12.5-12.5c0.3-0.3,0.5-0.7,0.8-1.1
		c6.5,7.3,12.7,14.3,19.1,21.5c-15.1,0-29.9,0-44.8,0c0,15.3,0,30.5,0,45.8c0.4,0,0.8,0,1.2,0c7.4,0,14.9,0,22.3,0
		c0.6,0,1.4-0.3,1.8-0.8c4.6-4.5,9.1-9,13.6-13.6c0.3-0.3,0.5-0.7,0.8-1.2c6.5,7.7,12.7,15.1,19.1,22.7c-0.8,0-1.3,0-1.8,0
		c-18.5,0-37,0-55.6,0c-1.6,0-1.6,0-1.7,1.6c-1.3,17-4.7,33.5-12.3,49c-4.6,9.4-10.7,17.7-17.9,25.3c-9,9.4-19.2,17.2-30.3,23.9
		c-0.2,0.1-0.3,0.2-0.7,0.4c-0.8-1.1-1.5-2.3-2.4-3.5c1.5-1.4,3.1-2.8,4.6-4.2c9.4-8.8,17.5-18.6,24.9-29.1
		c7.5-10.7,11.7-22.7,14.6-35.3c2-8.6,3.2-17.4,4.1-26.2C105.1,220.5,105.1,219.9,105.1,219.3z"/>
	<path d="M65.2,49.5c1-0.7,2-1.4,3-2c0.3-0.1,0.8-0.1,1,0c9,6.1,18.1,12.1,25.8,19.9c4.7,4.7,7.2,10.4,6.4,17.1
		c-0.7,6.5-4,11.6-9.2,15.5c-2.1,1.6-4,1.2-5.5-1.1c-1.6-2.3-2.4-4.9-2.8-7.6c-2-11.6-7-22.1-12.8-32.2C69.2,56,67.2,52.9,65.2,49.5
		z"/>
</g>
</svg>
