<?xml version="1.0" encoding="utf-8"?>
<!-- Generator: Adobe Illustrator 20.1.0, SVG Export Plug-In . SVG Version: 6.00 Build 0)  -->
<svg version="1.1" id="图层_1" xmlns="http://www.w3.org/2000/svg" xmlns:xlink="http://www.w3.org/1999/xlink" x="0px" y="0px"
	 viewBox="0 0 360 360" style="enable-background:new 0 0 360 360;" xml:space="preserve">
<style type="text/css">
	.st0{fill:#FFFFFF;}
</style>
<g>
	<path class="st0" d="M0.2,360.5c0-120.1,0-240.2,0-360.2c120.1,0,240.2,0,360.2,0c0,120.1,0,240.2,0,360.2
		C240.4,360.5,120.3,360.5,0.2,360.5z M52.2,317c0.5,0,0.8,0,1.2,0c15.5-1,30.9-2.8,46-6.2c14.1-3.1,27.8-7.2,41-13.2
		c16.7-7.6,31.2-18.1,42.2-33c0.2-0.3,0.8-0.6,1.3-0.6c1.7-0.1,3.4,0,5,0c0.8,0,1.3,0.3,1.8,0.9c4.1,4.5,8.1,9.1,12.4,13.3
		c12.4,12,27,20.5,43.1,26.4c14.1,5.1,28.6,8.6,43.4,10.6c2.1,0.3,4.2,0.5,6.3,0.8c0.1-0.4,0.1-0.7,0.2-1.1c0.8-5.7,3.9-9.8,9-12.4
		c2.4-1.2,5.1-1.9,7.6-2.9c0.4-0.1,0.9-0.4,0.9-0.7c0.1-1,0-2,0-3.2c-6.2,0-12.3,0.1-18.3,0c-16.2-0.5-32.1-2.7-47.8-6.6
		c-17.5-4.3-33.7-11.6-48.2-22.5c-1.1-0.8-2.1-1.6-3.2-2.4c0-0.1,0.1-0.2,0.1-0.3c37.9,0,75.7,0,113.8,0c-6-6.8-11.8-13.4-17.7-20.1
		c-4.6,4.2-9,8.2-13.4,12.2c-0.4,0.4-1.1,0.7-1.7,0.7c-29.9,0-59.8,0-89.6,0c-0.3,0-0.7-0.1-1.3-0.1c1.5-1.8,2.7-3.5,4.2-4.8
		c1.5-1.3,3.4-2.1,5.3-3.3c-6.6-3.5-13.1-6.9-19.5-10.3c0-0.1,0-0.2,0.1-0.2c37.8,0,75.6,0,113.7,0c-6-6.8-11.8-13.4-17.7-20.1
		c-0.3,0.2-0.6,0.4-0.8,0.6c-4.2,3.8-8.3,7.6-12.4,11.4c-0.6,0.6-1.3,0.8-2.1,0.8c-22.3,0-44.6,0-67,0c-0.4,0-0.8,0-1.3-0.1
		c0-5.5,0-10.9,0-16.3c24.3,0,48.5,0,73,0c-5.6-6-11.1-11.9-16.6-17.8c-3.4,3.4-6.6,6.6-9.9,9.9c-0.4,0.4-1.2,0.8-1.8,0.8
		c-14.5,0-29,0-43.4,0c-0.4,0-0.8,0-1.3-0.1c0-5.5,0-10.9,0-16.4c29.8,0,59.5,0,89.5,0c-6-6.4-11.9-12.6-17.7-18.9
		c-3.8,3.8-7.5,7.5-11.2,11.1c-0.4,0.4-1,0.6-1.5,0.6c-12.2,0-24.4,0-36.6,0c-0.3,0-0.6-0.1-0.8-0.1c5.5-4.4,11.1-8.5,16.3-13.1
		c4.5-4,9.5-7.1,15.3-8.8c0.3-0.1,0.5-0.2,0.9-0.4c-6.3-5.1-12.6-10.2-18.7-15.2c-1.2,3.1-2.2,6.1-3.5,8.9
		c-4.5,10.2-10.7,19.3-17.4,28c-0.3,0.4-1.1,0.6-1.6,0.6c-17.2,0-34.3,0-51.5,0c-0.4,0-0.8,0-1.3,0c0.4-0.6,0.8-1,1-1.4
		c1.4-2.5,3.1-4.8,4.1-7.4c1.8-4.6,0.6-8.4-3.3-11.5c-1-0.8-2-1.6-3.1-2.2c-6.4-4.1-13.4-6.8-20.4-9.3c-2.2-0.8-4.4-1.5-6.7-2.3
		c-0.3,0.9-0.5,1.6-0.8,2.3c-0.5,1-0.2,1.5,0.6,2.2c8.3,6.6,14.8,14.7,19.7,24c1,1.8,1.8,3.7,2.8,5.7c-20.9,0-41.6,0-62.3,0
		c0.1,0.2,0.2,0.3,0.2,0.4c3.2,3.3,6.5,6.5,9.8,9.7c0.3,0.3,1,0.3,1.5,0.2c8.3-2.1,16.6-3.2,25.2-3.2c18.3,0,36.6,0,55,0
		c0.4,0,0.8,0,1.2,0c0,5.6,0,11,0,16.5c-23.1,0-46.1,0-69.3,0c0.4,0.5,0.7,0.7,1,1c2.9,2.9,5.8,5.8,8.7,8.8c0.7,0.7,1.2,0.8,2.1,0.5
		c7.4-1.9,15-3,22.6-3.1c11.4-0.2,22.8-0.1,34.2-0.1c0.3,0,0.5,0.1,0.7,0.1c0,5.5,0,10.8,0,16.3c-34.9,0-69.7,0-104.6,0
		c0.1,0.2,0.2,0.3,0.2,0.4c3.2,3.3,6.5,6.5,9.8,9.7c0.3,0.3,1,0.4,1.5,0.2c8.6-2.3,17.4-3.3,26.3-3.3c22.6,0,45.3,0,67.9,0
		c0.4,0,0.8,0,1.3,0c-0.1,0.6-0.2,0.9-0.3,1.3c-1.6,5.7-4.1,11.1-7.1,16.2c-0.6,1-1.2,1.3-2.3,1.3c-36.7,0-73.4,0-110,0
		c-0.5,0-0.9,0-1.5,0c0.2,0.3,0.3,0.5,0.4,0.6c3.2,3.2,6.4,6.4,9.6,9.6c0.3,0.3,1.1,0.4,1.6,0.3c8.6-2.2,17.3-3.2,26.1-3.2
		c23.4-0.1,46.9,0,70.3,0c0.4,0,0.8,0,1.2,0c-0.1,0.3-0.2,0.4-0.2,0.4c-1,1.1-2,2.2-3.1,3.3c-10.7,10.9-23.2,19-37.2,25
		c-20.6,8.8-42.2,14.3-64.1,18.3c-2.3,0.4-4.7,0.8-7,1.2C52.2,313.9,52.2,315.4,52.2,317z"/>
	<path d="M52.2,317c0-1.6,0-3.1,0-4.7c2.3-0.4,4.7-0.8,7-1.2c22-4,43.5-9.5,64.1-18.3c14-6,26.5-14.1,37.2-25
		c1.1-1.1,2.1-2.2,3.1-3.3c0.1-0.1,0.1-0.2,0.2-0.4c-0.5,0-0.9,0-1.2,0c-23.4,0-46.9,0-70.3,0c-8.8,0-17.5,1-26.1,3.2
		c-0.5,0.1-1.2,0-1.6-0.3c-3.2-3.1-6.4-6.4-9.6-9.6c-0.1-0.1-0.2-0.2-0.4-0.6c0.6,0,1.1,0,1.5,0c36.7,0,73.4,0,110,0
		c1.1,0,1.7-0.3,2.3-1.3c3-5.1,5.5-10.5,7.1-16.2c0.1-0.4,0.2-0.8,0.3-1.3c-0.5,0-0.9,0-1.3,0c-22.6,0-45.3,0-67.9,0
		c-8.9,0-17.7,1-26.3,3.3c-0.4,0.1-1.2,0-1.5-0.2c-3.3-3.2-6.5-6.5-9.8-9.7c-0.1-0.1-0.1-0.2-0.2-0.4c34.9,0,69.7,0,104.6,0
		c0-5.5,0-10.9,0-16.3c-0.2,0-0.5-0.1-0.7-0.1c-11.4,0-22.8-0.1-34.2,0.1c-7.7,0.1-15.2,1.2-22.6,3.1c-0.9,0.2-1.4,0.1-2.1-0.5
		c-2.9-3-5.8-5.8-8.7-8.8c-0.3-0.3-0.5-0.6-1-1c23.2,0,46.2,0,69.3,0c0-5.5,0-10.9,0-16.5c-0.4,0-0.8,0-1.2,0c-18.3,0-36.6,0-55,0
		c-8.5,0-16.9,1.1-25.2,3.2c-0.5,0.1-1.2,0.1-1.5-0.2c-3.3-3.2-6.5-6.5-9.8-9.7c-0.1-0.1-0.1-0.2-0.2-0.4c20.7,0,41.4,0,62.3,0
		c-1-2-1.9-3.9-2.8-5.7c-4.9-9.3-11.4-17.4-19.7-24c-0.8-0.7-1.1-1.2-0.6-2.2c0.3-0.7,0.5-1.4,0.8-2.3c2.3,0.8,4.5,1.5,6.7,2.3
		c7.1,2.5,14.1,5.2,20.4,9.3c1.1,0.7,2.1,1.4,3.1,2.2c3.8,3.1,5.1,6.9,3.3,11.5c-1,2.6-2.7,5-4.1,7.4c-0.2,0.4-0.6,0.8-1,1.4
		c0.6,0,1,0,1.3,0c17.2,0,34.3,0,51.5,0c0.6,0,1.3-0.2,1.6-0.6c6.8-8.7,13-17.9,17.4-28c1.3-2.9,2.3-5.9,3.5-8.9
		c6.2,5,12.4,10.1,18.7,15.2c-0.4,0.2-0.6,0.4-0.9,0.4c-5.8,1.7-10.8,4.7-15.3,8.8c-5.2,4.6-10.8,8.8-16.3,13.1
		c0.2,0,0.5,0.1,0.8,0.1c12.2,0,24.4,0,36.6,0c0.5,0,1.2-0.3,1.5-0.6c3.7-3.6,7.4-7.3,11.2-11.1c5.9,6.3,11.7,12.5,17.7,18.9
		c-30,0-59.7,0-89.5,0c0,5.5,0,10.9,0,16.4c0.4,0,0.9,0.1,1.3,0.1c14.5,0,29,0,43.4,0c0.6,0,1.4-0.3,1.8-0.8
		c3.3-3.2,6.5-6.5,9.9-9.9c5.5,5.9,11,11.7,16.6,17.8c-24.5,0-48.7,0-73,0c0,5.5,0,10.8,0,16.3c0.4,0,0.8,0.1,1.3,0.1
		c22.3,0,44.6,0,67,0c0.9,0,1.5-0.2,2.1-0.8c4.1-3.8,8.3-7.6,12.4-11.4c0.2-0.2,0.5-0.4,0.8-0.6c5.9,6.6,11.7,13.2,17.7,20.1
		c-38.1,0-75.9,0-113.7,0c0,0.1,0,0.2-0.1,0.2c6.4,3.4,12.9,6.8,19.5,10.3c-1.9,1.1-3.8,2-5.3,3.3c-1.5,1.3-2.7,3-4.2,4.8
		c0.6,0.1,1,0.1,1.3,0.1c29.9,0,59.8,0,89.6,0c0.6,0,1.2-0.3,1.7-0.7c4.5-4,8.9-8.1,13.4-12.2c5.9,6.7,11.7,13.3,17.7,20.1
		c-38.1,0-76,0-113.8,0c0,0.1-0.1,0.2-0.1,0.3c1.1,0.8,2.1,1.6,3.2,2.4c14.5,10.8,30.7,18.2,48.2,22.5c15.7,3.8,31.6,6.1,47.8,6.6
		c6,0.2,12.1,0,18.3,0c0,1.1,0.1,2.1,0,3.2c0,0.3-0.6,0.5-0.9,0.7c-2.5,1-5.2,1.7-7.6,2.9c-5.1,2.5-8.1,6.7-9,12.4
		c0,0.3-0.1,0.6-0.2,1.1c-2.1-0.3-4.2-0.5-6.3-0.8c-14.9-2-29.4-5.4-43.4-10.6c-16.2-5.9-30.7-14.4-43.1-26.4
		c-4.4-4.2-8.3-8.8-12.4-13.3c-0.5-0.6-1-0.9-1.8-0.9c-1.7,0.1-3.4,0-5,0c-0.4,0-1,0.3-1.3,0.6c-11,15-25.5,25.4-42.2,33
		c-13.1,6-26.9,10-41,13.2c-15.2,3.4-30.6,5.2-46,6.2C53.1,317,52.7,317,52.2,317z"/>
</g>
</svg>
