<?xml version="1.0" encoding="utf-8"?>
<!-- Generator: Adobe Illustrator 20.1.0, SVG Export Plug-In . SVG Version: 6.00 Build 0)  -->
<svg version="1.1" id="图层_1" xmlns="http://www.w3.org/2000/svg" xmlns:xlink="http://www.w3.org/1999/xlink" x="0px" y="0px"
	 viewBox="0 0 360 360" style="enable-background:new 0 0 360 360;" xml:space="preserve">
<style type="text/css">
	.st0{fill:#FFFFFF;}
</style>
<g>
	<path class="st0" d="M0.2,360.5c0-120.1,0-240.2,0-360.2c120.1,0,240.2,0,360.2,0c0,120.1,0,240.2,0,360.2
		C240.4,360.5,120.3,360.5,0.2,360.5z M229,247.4c29.5,0,58.8,0,88.3,0c-6.8-7.6-13.4-15-20-22.4c-4.5,4.9-9,9.7-13.4,14.5
		c-0.6,0.6-1.2,0.9-2.1,0.9c-17.2,0-34.3,0-51.5,0c-0.4,0-0.9,0-1.3,0c0-11.8,0-23.5,0-35.4c21.9,0,43.7,0,65.9,0
		c-6.4-6.8-12.6-13.4-18.8-20c-0.3,0.3-0.6,0.5-0.9,0.8c-4.2,3.8-8.3,7.6-12.5,11.4c-0.5,0.4-1.2,0.7-1.9,0.7c-10.2,0-20.3,0-30.5,0
		c-0.4,0-0.8,0-1.3,0c0-11.5,0-22.8,0-34c13,0,25.8,0,38.7,0c0,3.5,0,6.9,0,10.4c0.2,0,0.2,0,0.3,0c5.2-1.8,10.4-3.7,15.6-5.5
		c0.6-0.2,0.6-0.6,0.5-1.1c-0.4-2.7-1-5.4-1-8.1c-0.1-11.6,0-23.1,0-34.7c0-0.3,0-0.7,0.1-1.2c12.5,0,25,0,37.7,0
		c-6.4-7.2-12.6-14.2-19-21.4c-0.3,0.4-0.6,0.8-0.9,1.1c-3.8,4.1-7.6,8.3-11.3,12.4c-0.3,0.3-0.7,0.7-1,0.7c-1.8,0.1-3.6,0-5.4,0
		c0-0.3,0-0.5,0-0.7c0-10.5,0-21,0-31.4c0-0.5,0.3-1,0.7-1.4c2-1.8,4.2-3.5,6.3-5.3c-6-4.4-11.8-8.7-17.7-13c-2.2,3-4.3,5.8-6.5,8.6
		c-0.3,0.4-1,0.8-1.6,0.8c-11.4,0-22.9,0-34.3,0.1c-0.9,0-1.2-0.2-1.2-1.1c0-4.8,0.1-9.5,0-14.3c0-1.6,0.4-2.7,1.7-3.6
		c2.3-1.7,4.4-3.7,6.7-5.7c-8.3-3.6-16.5-7.1-24.5-10.5c0.3,11.7,0.7,23.4,1,35.3c-16.7,0-33.1,0-49.7,0c3.4,3.4,6.6,6.6,9.8,9.8
		c0.6,0.6,1.1,0.7,2,0.6c4.8-0.9,9.6-1.9,14.5-2.6c7.4-1,14.8-0.7,22.3-0.7c0.3,0,0.6,0.1,0.9,0.1c0,11.8,0,23.4,0,35.2
		c-20,0-39.8,0-60,0c3.4,3.4,6.6,6.6,9.8,9.8c0.6,0.6,1.1,0.8,2,0.6c7.6-2,15.3-3.1,23.1-3.2c8.1-0.1,16.2-0.1,24.4-0.1
		c0.3,0,0.5,0.1,0.8,0.1c0,10.9,0,21.8,0,32.8c-17.2,0-34.4,0-51.8,0c0.4,0.4,0.6,0.7,0.9,0.9c3,3,6,6,9,9c0.6,0.6,1.1,0.7,1.9,0.5
		c6.4-1.7,12.9-2.8,19.5-3c6.6-0.2,13.2-0.2,19.8-0.3c0.3,0,0.5,0.1,0.7,0.1c0,11.4,0,22.7,0,34.1c-17.6,0-35.1,0-52.8,0
		c0.2,0.2,0.3,0.4,0.4,0.5c3.2,3.2,6.4,6.4,9.6,9.6c0.3,0.3,1,0.4,1.5,0.3c6.3-1.6,12.6-2.7,19-2.9c7.2-0.2,14.4-0.2,21.6-0.3
		c0.2,0,0.5,0,0.7,0.1c0,11.8,0,23.5,0,35.3c-22.3,0-44.5,0-67.1,0c3.6,3.6,6.9,6.9,10.3,10.2c0.2,0.2,0.9,0.2,1.3,0.1
		c8.8-2.3,17.8-3.2,26.8-3.3c9.1-0.1,18.2,0,27.4,0c0.4,0,0.9,0,1.6,0c-0.4,24-0.7,47.9-1.1,71.8c6.2-2.3,12.4-4.6,18.4-6.9
		c-0.5-4-1.2-7.7-1.5-11.5c-0.4-3.9-0.6-7.7-0.6-11.6c-0.1-13.4,0-26.9,0-40.3C229,248.5,229,248.1,229,247.4z"/>
	<path d="M229,247.4c0,0.6,0,1.1,0,1.5c0,13.4,0,26.9,0,40.3c0,3.9,0.3,7.8,0.6,11.6c0.3,3.8,1,7.6,1.5,11.5
		c-6.1,2.3-12.3,4.6-18.4,6.9c0.4-24,0.7-47.8,1.1-71.8c-0.8,0-1.2,0-1.6,0c-9.1,0-18.2-0.1-27.4,0c-9.1,0.1-18,1-26.8,3.3
		c-0.4,0.1-1,0.1-1.3-0.1c-3.4-3.3-6.7-6.6-10.3-10.2c22.5,0,44.8,0,67.1,0c0-11.9,0-23.6,0-35.3c-0.3,0-0.5-0.1-0.7-0.1
		c-7.2,0.1-14.4,0.1-21.6,0.3c-6.4,0.2-12.8,1.4-19,2.9c-0.4,0.1-1.2,0-1.5-0.3c-3.2-3.2-6.4-6.4-9.6-9.6c-0.1-0.1-0.2-0.2-0.4-0.5
		c17.7,0,35.2,0,52.8,0c0-11.4,0-22.7,0-34.1c-0.2,0-0.5-0.1-0.7-0.1c-6.6,0.1-13.2,0-19.8,0.3c-6.6,0.2-13.1,1.3-19.5,3
		c-0.8,0.2-1.3,0.1-1.9-0.5c-3-3-6-6-9-9c-0.2-0.2-0.5-0.5-0.9-0.9c17.4,0,34.6,0,51.8,0c0-11,0-21.9,0-32.8c-0.3,0-0.5-0.1-0.8-0.1
		c-8.1,0-16.2-0.1-24.4,0.1c-7.8,0.1-15.5,1.2-23.1,3.2c-0.9,0.2-1.4,0-2-0.6c-3.2-3.2-6.4-6.4-9.8-9.8c20.2,0,40,0,60,0
		c0-11.8,0-23.5,0-35.2c-0.3,0-0.6-0.1-0.9-0.1c-7.4,0-14.9-0.3-22.3,0.7c-4.9,0.7-9.7,1.7-14.5,2.6c-0.8,0.2-1.4,0.1-2-0.6
		c-3.2-3.2-6.4-6.4-9.8-9.8c16.6,0,33,0,49.7,0c-0.3-11.9-0.7-23.5-1-35.3c8,3.4,16.2,6.9,24.5,10.5c-2.3,2-4.4,3.9-6.7,5.7
		c-1.3,1-1.7,2.1-1.7,3.6c0.1,4.8,0.1,9.5,0,14.3c0,0.9,0.3,1.1,1.2,1.1c11.4,0,22.9,0,34.3-0.1c0.5,0,1.2-0.4,1.6-0.8
		c2.2-2.8,4.3-5.7,6.5-8.6c5.9,4.3,11.8,8.6,17.7,13c-2.2,1.8-4.3,3.6-6.3,5.3c-0.4,0.3-0.7,0.9-0.7,1.4c0,10.5,0,21,0,31.4
		c0,0.2,0,0.4,0,0.7c1.8,0,3.6,0,5.4,0c0.4,0,0.7-0.4,1-0.7c3.8-4.1,7.6-8.2,11.3-12.4c0.3-0.3,0.6-0.7,0.9-1.1
		c6.4,7.2,12.6,14.2,19,21.4c-12.7,0-25.1,0-37.7,0c0,0.5-0.1,0.8-0.1,1.2c0,11.6-0.1,23.1,0,34.7c0,2.7,0.6,5.4,1,8.1
		c0.1,0.5,0.1,0.9-0.5,1.1c-5.2,1.8-10.4,3.7-15.6,5.5c-0.1,0-0.2,0-0.3,0c0-3.4,0-6.9,0-10.4c-12.9,0-25.8,0-38.7,0
		c0,11.3,0,22.6,0,34c0.4,0,0.8,0,1.3,0c10.2,0,20.3,0,30.5,0c0.6,0,1.4-0.3,1.9-0.7c4.2-3.8,8.3-7.6,12.5-11.4
		c0.3-0.3,0.6-0.5,0.9-0.8c6.2,6.6,12.4,13.2,18.8,20c-22.1,0-43.9,0-65.9,0c0,11.9,0,23.6,0,35.4c0.5,0,0.9,0,1.3,0
		c17.2,0,34.3,0,51.5,0c0.9,0,1.5-0.3,2.1-0.9c4.4-4.8,8.8-9.6,13.4-14.5c6.6,7.4,13.3,14.8,20,22.4
		C287.8,247.4,258.5,247.4,229,247.4z M267.7,116.6c0-11.8,0-23.5,0-35.1c-13,0-25.8,0-38.6,0c0,11.8,0,23.4,0,35.1
		C242,116.6,254.8,116.6,267.7,116.6z M229.1,156.6c12.9,0,25.8,0,38.7,0c0-11,0-21.9,0-32.7c-12.9,0-25.8,0-38.7,0
		C229.1,134.9,229.1,145.7,229.1,156.6z"/>
	<path class="st0" d="M267.7,116.6c-12.9,0-25.7,0-38.6,0c0-11.7,0-23.4,0-35.1c12.8,0,25.7,0,38.6,0
		C267.7,93.1,267.7,104.8,267.7,116.6z"/>
	<path class="st0" d="M229.1,156.6c0-10.9,0-21.8,0-32.7c12.9,0,25.7,0,38.7,0c0,10.9,0,21.7,0,32.7
		C254.9,156.6,242,156.6,229.1,156.6z"/>
</g>
</svg>
