<?xml version="1.0" encoding="utf-8"?>
<!-- Generator: Adobe Illustrator 20.1.0, SVG Export Plug-In . SVG Version: 6.00 Build 0)  -->
<svg version="1.1" id="图层_1" xmlns="http://www.w3.org/2000/svg" xmlns:xlink="http://www.w3.org/1999/xlink" x="0px" y="0px"
	 viewBox="0 0 360 360" style="enable-background:new 0 0 360 360;" xml:space="preserve">
<style type="text/css">
	.st0{fill:#FFFFFF;}
</style>
<g>
	<path class="st0" d="M-0.1,360.1c0-120.1,0-240.2,0-360.2c120.1,0,240.2,0,360.2,0c0,120.1,0,240.2,0,360.2
		C240,360.1,120,360.1-0.1,360.1z M177.9,275.4c-39.2,0-78.4,0-117.8,0c3.5,3.5,6.8,6.8,10.2,10.1c0.3,0.3,0.9,0.4,1.3,0.3
		c8.9-2.3,18-3.3,27.2-3.3c25.9,0,51.8,0,77.8,0c0.5,0,0.9,0.1,1.6,0.1c-0.4,12.2-0.8,24.2-1.2,36.3c0.2,0,0.3,0,0.4,0
		c5.6-2.2,11.1-4.4,16.7-6.7c0.3-0.1,0.5-0.7,0.5-1.1c-0.9-9.7-1.1-19.4-1-29.1c0-0.2,0.1-0.4,0.2-0.7c39.2,0,78.3,0,117.6,0
		c-6.8-7.6-13.4-15-20.1-22.4c-0.3,0.2-0.4,0.3-0.6,0.5c-5,4.6-10,9.3-15,14c-0.6,0.6-1.3,0.9-2.2,0.9c-26.2,0-52.4,0-78.6,0
		c-0.4,0-0.9,0-1.3,0c0-6.7,0-13.3,0-20c29.8,0,59.5,0,89.4,0c-6-6.8-11.8-13.4-17.7-20c-0.3,0.3-0.7,0.5-0.9,0.8
		c-4.1,3.8-8.3,7.6-12.4,11.4c-0.6,0.6-1.2,0.8-2,0.8c-18.4,0-36.8,0-55.2,0c-0.4,0-0.8,0-1.3,0c0-6.7,0-13.3,0-19.9
		c19.2,0,38.3,0,57.6,0c0,2.7,0,5.4,0,8.2c5.6-2,11-3.9,16.3-5.8c-0.4-9.1-0.8-18.1-1.2-27.2c15.5,0,30.7,0,46.2,0
		c-6-7.2-11.8-14.2-17.7-21.2c-0.4,0.3-0.6,0.5-0.9,0.8c-3.5,3.2-7,6.5-10.5,9.7c-1.3,1.2-2.4,2.8-3.9,3.4c-1.6,0.6-3.5,0.2-5.3,0.2
		c-2.5,0-5,0-7.7,0c0-0.5,0-1,0-1.4c0-4.9,0-9.8,0-14.8c0-1,0.3-1.7,1.1-2.3c2.8-2,5.5-4.1,8.4-6.3c-6.4-4.8-12.6-9.5-18.9-14.2
		c-2.6,3.7-5.1,7.2-7.5,10.8c-0.5,0.7-1,1-1.9,1c-17.6,0-35.1,0-52.7,0c-0.4,0-0.9,0-1.4,0c0-1.4-0.1-2.6,0-3.8
		c0-0.5,0.3-1.1,0.7-1.4c2.4-2.2,4.9-4.3,7.6-6.5c-8.3-3.2-16.5-6.3-24.8-9.5c0.8,7.1,1.2,14.1,1.2,21.3c-24.8,0-49.4,0-74.2,0
		c3.4,3.4,6.6,6.6,9.8,9.8c0.6,0.6,1.1,0.8,2,0.5c7.5-2,15.1-3.1,22.9-3.2c12.9-0.1,25.8-0.1,38.6-0.1c0.3,0,0.6,0.1,0.9,0.1
		c0,6.6,0,13.2,0,19.8c-36.1,0-72.1,0-108.3,0c0.2,0.3,0.3,0.4,0.4,0.5c3.2,3.2,6.4,6.4,9.6,9.6c0.3,0.3,1,0.4,1.5,0.3
		c8.6-2.2,17.4-3.3,26.3-3.3c23,0,46.1,0,69.1,0c0.4,0,0.9,0,1.3,0c0,5.9,0,11.7,0,17.6c-25.5,0-50.8,0-76.5,0
		c3.5,3.5,6.7,6.7,9.9,9.9c0.6,0.6,1,0.7,1.8,0.5c7.5-2,15.1-3.1,22.9-3.2c13.8-0.1,27.5-0.1,41.3-0.1c0.2,0,0.5,0,0.7,0.1
		c0,6.7,0,13.2,0,19.9c-27.1,0-54,0-81.2,0c3.5,3.5,6.8,6.9,10.2,10.2c0.3,0.3,1,0.3,1.4,0.2c8.5-2.2,17.1-3.2,25.9-3.2
		c14.2,0,28.3,0,42.5,0c0.4,0,0.8,0,1.3,0.1C177.9,261.4,177.9,268.3,177.9,275.4z"/>
	<path d="M177.9,275.4c0-7.1,0-14.1,0-21.1c-0.4,0-0.9-0.1-1.3-0.1c-14.2,0-28.3,0-42.5,0c-8.7,0-17.4,1.1-25.9,3.2
		c-0.4,0.1-1.1,0.1-1.4-0.2c-3.4-3.3-6.7-6.6-10.2-10.2c27.2,0,54.1,0,81.2,0c0-6.7,0-13.3,0-19.9c-0.2,0-0.5-0.1-0.7-0.1
		c-13.8,0-27.5-0.1-41.3,0.1c-7.7,0.1-15.4,1.2-22.9,3.2c-0.7,0.2-1.2,0.1-1.8-0.5c-3.2-3.2-6.4-6.5-9.9-9.9c25.7,0,51.1,0,76.5,0
		c0-5.9,0-11.7,0-17.6c-0.5,0-0.9,0-1.3,0c-23,0-46.1,0-69.1,0c-8.9,0-17.7,1-26.3,3.3c-0.4,0.1-1.1,0-1.5-0.3
		c-3.2-3.2-6.4-6.4-9.6-9.6c-0.1-0.1-0.2-0.2-0.4-0.5c36.2,0,72.2,0,108.3,0c0-6.7,0-13.2,0-19.8c-0.3,0-0.6-0.1-0.9-0.1
		c-12.9,0-25.8-0.1-38.6,0.1c-7.7,0.1-15.4,1.2-22.9,3.2c-0.9,0.2-1.4,0.1-2-0.5c-3.2-3.2-6.4-6.4-9.8-9.8c24.9,0,49.5,0,74.2,0
		c0-7.2-0.3-14.2-1.2-21.3c8.3,3.2,16.5,6.3,24.8,9.5c-2.6,2.3-5.1,4.4-7.6,6.5c-0.4,0.3-0.6,0.9-0.7,1.4c-0.1,1.2,0,2.5,0,3.8
		c0.5,0,1,0,1.4,0c17.6,0,35.1,0,52.7,0c0.9,0,1.4-0.3,1.9-1c2.5-3.6,5-7.1,7.5-10.8c6.3,4.7,12.6,9.4,18.9,14.2
		c-2.9,2.2-5.6,4.2-8.4,6.3c-0.8,0.6-1.1,1.2-1.1,2.3c0.1,4.9,0,9.8,0,14.8c0,0.4,0,0.9,0,1.4c2.6,0,5.2,0,7.7,0
		c1.8,0,3.8,0.4,5.3-0.2c1.5-0.6,2.6-2.2,3.9-3.4c3.5-3.2,7-6.5,10.5-9.7c0.3-0.2,0.5-0.5,0.9-0.8c5.9,7,11.7,14,17.7,21.2
		c-15.5,0-30.7,0-46.2,0c0.4,9.1,0.8,18.1,1.2,27.2c-5.3,1.9-10.7,3.8-16.3,5.8c0-2.8,0-5.5,0-8.2c-19.3,0-38.4,0-57.6,0
		c0,6.6,0,13.1,0,19.9c0.4,0,0.8,0,1.3,0c18.4,0,36.8,0,55.2,0c0.8,0,1.4-0.2,2-0.8c4.1-3.8,8.2-7.6,12.4-11.4
		c0.3-0.3,0.6-0.5,0.9-0.8c5.9,6.6,11.7,13.2,17.7,20c-30,0-59.7,0-89.4,0c0,6.7,0,13.3,0,20c0.5,0,0.9,0,1.3,0
		c26.2,0,52.4,0,78.6,0c0.9,0,1.5-0.3,2.2-0.9c5-4.7,10-9.3,15-14c0.1-0.1,0.3-0.3,0.6-0.5c6.6,7.4,13.3,14.8,20.1,22.4
		c-39.4,0-78.5,0-117.6,0c-0.1,0.3-0.2,0.5-0.2,0.7c0,9.7,0.1,19.4,1,29.1c0,0.4-0.2,1-0.5,1.1c-5.5,2.3-11.1,4.5-16.7,6.7
		c-0.1,0-0.2,0-0.4,0c0.4-12.1,0.8-24.1,1.2-36.3c-0.7,0-1.1-0.1-1.6-0.1c-25.9,0-51.8,0-77.8,0c-9.2,0-18.3,1-27.2,3.3
		c-0.4,0.1-1,0-1.3-0.3c-3.3-3.3-6.6-6.6-10.2-10.1C99.5,275.4,138.7,275.4,177.9,275.4z M250.9,195.2c0-6.7,0-13.2,0-19.8
		c-19.2,0-38.4,0-57.5,0c0,6.6,0,13.2,0,19.8C212.6,195.2,231.7,195.2,250.9,195.2z M250.9,202.5c-19.3,0-38.4,0-57.5,0
		c0,5.9,0,11.7,0,17.4c19.2,0,38.4,0,57.5,0C250.9,214.1,250.9,208.3,250.9,202.5z"/>
	<path class="st0" d="M250.9,195.2c-19.2,0-38.3,0-57.5,0c0-6.6,0-13.1,0-19.8c19.1,0,38.3,0,57.5,0
		C250.9,182,250.9,188.5,250.9,195.2z"/>
	<path class="st0" d="M250.9,202.5c0,5.8,0,11.6,0,17.4c-19.2,0-38.3,0-57.5,0c0-5.8,0-11.5,0-17.4
		C212.5,202.5,231.7,202.5,250.9,202.5z"/>
</g>
</svg>
