<?xml version="1.0" encoding="utf-8"?>
<!-- Generator: Adobe Illustrator 20.1.0, SVG Export Plug-In . SVG Version: 6.00 Build 0)  -->
<svg version="1.1" id="图层_1" xmlns="http://www.w3.org/2000/svg" xmlns:xlink="http://www.w3.org/1999/xlink" x="0px" y="0px"
	 viewBox="0 0 360 360" style="enable-background:new 0 0 360 360;" xml:space="preserve">
<style type="text/css">
	.st0{fill:#FFFFFF;}
</style>
<g>
	<path class="st0" d="M0.2,360.5c0-120.1,0-240.2,0-360.2c120.1,0,240.2,0,360.2,0c0,120.1,0,240.2,0,360.2
		C240.4,360.5,120.3,360.5,0.2,360.5z M173.6,160.3c-0.2,52.7,0.2,105.2-1,157.8c0.4-0.1,0.7-0.2,1.1-0.4c5.5-2.1,11.1-4.2,16.6-6.2
		c0.9-0.3,1-0.7,1-1.6c-0.4-7.4-1.1-14.8-1.1-22.3c-0.1-42,0-83.9,0-125.9c0-0.5,0-0.9,0-1.4c22.4,0,44.7,0,67.2,0c0,3.5,0,7,0,10.5
		c5.8-1.9,11.4-3.8,17.1-5.7c0.3-0.1,0.5-0.6,0.5-1c0-1.4-0.2-2.8-0.2-4.2c-0.3-12-0.5-24.1-0.8-36.1c0-0.4,0-0.8,0-1.4
		c16.1,0,32.1,0,48.3,0c-6.4-6.8-12.6-13.4-19.1-20.3c-0.3,0.5-0.5,0.9-0.8,1.2c-3.7,3.8-7.5,7.5-11.3,11.3
		c-0.4,0.4-1.1,0.7-1.6,0.7c-4.8,0.1-9.5,0-14.3,0c-0.3,0-0.7,0-1.1,0c0-0.2-0.1-0.4-0.1-0.5c0-7.8,0-15.6,0-23.4
		c0-0.4,0.4-0.9,0.7-1.2c2-1.6,4.1-3.1,6.2-4.7c0.8-0.6,1.6-1.2,2.4-1.9c-6.8-4.8-13.4-9.4-20-14.2c-0.3,0.3-0.5,0.6-0.7,0.9
		c-2.3,2.9-4.6,5.9-6.8,8.8c-0.5,0.7-1,0.9-1.9,0.9c-20.8,0-41.5,0-62.3,0c-0.4,0-0.8,0-1.3-0.1c0-6.9,0-13.7,0-20.4
		c0-0.4,0.4-0.9,0.7-1.2c2-1.6,4.1-3.1,6.1-4.6c0.8-0.6,1.6-1.2,2.5-1.9c-9.1-4-18.1-7.8-27-11.7c0.3,6.8,0.6,13.4,0.8,20.1
		c0.1,6.6,0,13.2,0,19.9c-30.1,0-60.2,0-90.5,0c0.2,0.3,0.3,0.4,0.5,0.6c3.2,3.2,6.3,6.4,9.5,9.5c0.3,0.3,1.1,0.4,1.6,0.3
		c8.4-2.1,17-3.2,25.6-3.2c17.4,0,34.7,0,52.1,0c0.4,0,0.9,0,1.3,0c0,9.4,0,18.7,0,28.2c-42.7,0-85.4,0-128.3,0
		c0.5,0.5,0.7,0.8,1,1.1c2.9,2.9,5.8,5.8,8.7,8.8c0.6,0.7,1.2,0.8,2.1,0.6c8.4-2.2,17-3.2,25.6-3.2c29.9,0,59.8,0,89.6,0
		c0.4,0,0.9,0,1.3,0c0,10.3,0,20.4,0,30.6c-30.9,0-61.8,0-93,0c3.6,3.6,6.9,6.9,10.3,10.2c0.2,0.2,0.9,0.2,1.3,0.1
		c8.9-2.3,17.9-3.3,27.1-3.3c17.6,0,35.3,0,52.9,0C172.5,160.3,172.9,160.3,173.6,160.3z"/>
	<path d="M173.6,160.3c-0.7,0-1.1,0-1.5,0c-17.6,0-35.3,0-52.9,0c-9.1,0-18.2,1-27.1,3.3c-0.4,0.1-1,0.1-1.3-0.1
		c-3.4-3.3-6.7-6.6-10.3-10.2c31.2,0,62,0,93,0c0-10.3,0-20.4,0-30.6c-0.4,0-0.9,0-1.3,0c-29.9,0-59.8,0-89.6,0
		c-8.7,0-17.2,1-25.6,3.2c-0.9,0.2-1.4,0.1-2.1-0.6c-2.9-2.9-5.8-5.8-8.7-8.8c-0.3-0.3-0.5-0.6-1-1.1c42.9,0,85.6,0,128.3,0
		c0-9.5,0-18.7,0-28.2c-0.5,0-0.9,0-1.3,0c-17.4,0-34.7,0-52.1,0c-8.7,0-17.2,1.1-25.6,3.2c-0.5,0.1-1.2,0-1.6-0.3
		c-3.2-3.1-6.4-6.3-9.5-9.5c-0.1-0.1-0.2-0.3-0.5-0.6c30.3,0,60.4,0,90.5,0c0-6.7,0.1-13.3,0-19.9c-0.1-6.6-0.5-13.2-0.8-20.1
		c8.9,3.9,17.8,7.8,27,11.7c-0.9,0.7-1.7,1.3-2.5,1.9c-2,1.5-4.1,3.1-6.1,4.6c-0.4,0.3-0.7,0.8-0.7,1.2c0,6.8,0,13.5,0,20.4
		c0.5,0,0.9,0.1,1.3,0.1c20.8,0,41.5,0,62.3,0c0.9,0,1.4-0.3,1.9-0.9c2.2-3,4.5-5.9,6.8-8.8c0.2-0.3,0.5-0.5,0.7-0.9
		c6.7,4.7,13.3,9.4,20,14.2c-0.9,0.7-1.6,1.3-2.4,1.9c-2.1,1.6-4.2,3.1-6.2,4.7c-0.4,0.3-0.7,0.8-0.7,1.2c0,7.8,0,15.6,0,23.4
		c0,0.2,0,0.3,0.1,0.5c0.4,0,0.7,0,1.1,0c4.8,0,9.5,0,14.3,0c0.6,0,1.2-0.3,1.6-0.7c3.8-3.7,7.5-7.5,11.3-11.3
		c0.3-0.3,0.5-0.7,0.8-1.2c6.5,6.9,12.7,13.5,19.1,20.3c-16.2,0-32.1,0-48.3,0c0,0.6,0,1,0,1.4c0.3,12,0.5,24.1,0.8,36.1
		c0,1.4,0.2,2.8,0.2,4.2c0,0.3-0.2,0.9-0.5,1c-5.6,1.9-11.3,3.8-17.1,5.7c0-3.6,0-7,0-10.5c-22.4,0-44.7,0-67.2,0c0,0.5,0,1,0,1.4
		c0,42-0.1,83.9,0,125.9c0,7.4,0.7,14.8,1.1,22.3c0,0.8-0.1,1.2-1,1.6c-5.5,2-11.1,4.1-16.6,6.2c-0.4,0.1-0.7,0.2-1.1,0.4
		C173.8,265.5,173.4,213,173.6,160.3z M257.2,122.7c-22.3,0-44.6,0-67,0c0,10.2,0,20.3,0,30.4c22.4,0,44.6,0,67,0
		C257.2,143,257.2,132.9,257.2,122.7z M190.2,115.4c22.3,0,44.6,0,67,0c0-9.4,0-18.7,0-28c-22.3,0-44.6,0-67,0
		C190.2,96.8,190.2,106,190.2,115.4z"/>
	<path class="st0" d="M257.2,122.7c0,10.2,0,20.3,0,30.4c-22.4,0-44.6,0-67,0c0-10.2,0-20.3,0-30.4
		C212.5,122.7,234.8,122.7,257.2,122.7z"/>
	<path class="st0" d="M190.2,115.4c0-9.4,0-18.7,0-28c22.4,0,44.6,0,67,0c0,9.4,0,18.7,0,28C234.8,115.4,212.5,115.4,190.2,115.4z"
		/>
</g>
</svg>
