<?xml version="1.0" encoding="utf-8"?>
<!-- Generator: Adobe Illustrator 20.1.0, SVG Export Plug-In . SVG Version: 6.00 Build 0)  -->
<svg version="1.1" id="图层_1" xmlns="http://www.w3.org/2000/svg" xmlns:xlink="http://www.w3.org/1999/xlink" x="0px" y="0px"
	 viewBox="0 0 360 360" style="enable-background:new 0 0 360 360;" xml:space="preserve">
<style type="text/css">
	.st0{fill:#FFFFFF;}
</style>
<g>
	<path class="st0" d="M0.3,360.4c0-120,0-240.1,0-360.2c120.1,0,240.2,0,360.2,0c0,120.1,0,240.1,0,360.2
		C240.4,360.4,120.3,360.4,0.3,360.4z M253.7,176.8c-0.4,0.4-0.7,0.7-1,1c-4.4,4.4-8.7,8.7-13,13.1c-0.8,0.9-1.7,1.2-2.9,1.2
		c-51.5,0-103,0-154.6,0c-0.5,0-1,0-1.8,0c3.3,3.2,6.2,6.2,9.2,9.1c0.2,0.2,0.9,0.2,1.3,0.1c3.8-0.7,7.5-1.7,11.3-2c4-0.3,8,0,12,0
		c12.6,0,25.2,0,37.8,0c0.4,0,0.8,0,1.6,0c-9.6,7.3-19.1,14-29.3,19.6c-9,4.9-18.4,8.6-28.6,10.3c-1.8,0.3-3.7,0.5-5.6,0.8
		c4,7.5,7.9,14.9,11.8,22.4c3.5-2.4,7.3-3.7,11.2-4.8c9.1-2.5,18.4-3.4,27.7-4.3c9.2-0.9,18.5-1.6,27.7-2.4c1.7-0.1,3.5-0.2,5.2-0.3
		c0,8.7,0,17.2,0,25.8c-30.2,0-60.3,0-90.5,0c0.2,0.3,0.3,0.4,0.4,0.5c3.2,3.2,6.4,6.5,9.7,9.6c0.3,0.3,0.9,0.3,1.3,0.2
		c8.7-2.3,17.6-3.3,26.6-3.3c17.1-0.1,34.2,0,51.2,0c0.4,0,0.8,0,1.3,0c0,9.1,0,18,0,27.1c-40,0-79.9,0-120.1,0
		c3.5,3.5,6.9,6.9,10.3,10.2c0.3,0.3,1,0.3,1.4,0.2c8.5-2.1,17.2-3.2,26-3.2c72.5,0,145,0,217.6,0c0.5,0,1,0,1.8,0
		c-8-8.4-15.8-16.6-23.8-25c-0.3,0.4-0.5,0.8-0.9,1.1c-5.3,5.3-10.6,10.6-15.9,16c-0.6,0.6-1.1,0.8-1.9,0.8c-25.5,0-51,0-76.4,0
		c-0.4,0-0.8,0-1.2,0c0-9.1,0-18.1,0-27.1c30.2,0,60.3,0,90.6,0c-7.2-7.6-14.2-15-21.2-22.4c-0.3,0.2-0.5,0.4-0.6,0.5
		c-5,4.6-10,9.2-14.9,13.9c-0.7,0.6-1.3,0.9-2.2,0.9c-16.7,0-33.4,0-50.2,0c-0.5,0-0.9,0-1.5,0c0-9.1,0-18,0-27
		c1.6-0.1,3.1-0.2,4.6-0.3c10-0.6,20-1.3,30-1.8c9.7-0.5,19.3-0.9,29-1.4c0.7,0,1.2,0.1,1.6,0.7c1.9,2.2,3.8,4.4,5.6,6.7
		c2.2,2.8,4.3,5.6,6.5,8.5c2.2,2.9,4.8,3.2,7.6,0.8c1.8-1.5,3.3-3.4,4.1-5.7c2.1-6.2,0.8-11.9-3-17.1c-2.4-3.3-5.8-5.6-9.6-7.2
		c-7.4-3.2-14.7-6.4-22.1-9.5c-8.1-3.4-16.2-6.7-24.3-10c-0.4-0.1-1-0.2-1.3,0.1c-0.8,0.5-1.4,1.2-2.1,1.8c5.6,4,11,7.8,16.4,11.8
		c5.3,4,10.5,8.2,15.4,13.2c-43.5,0.4-86.7,0.8-129.8,1.2c0-0.1,0-0.2,0-0.3c0.3-0.2,0.7-0.4,1-0.5c3.2-1.6,6.4-3.3,9.6-4.9
		c17-8.5,34.1-17,51.2-25.5c0.7-0.4,1.6-0.5,2.4-0.5c30,0,60.1,0,90.1,0c0.5,0,0.9,0,1.6,0C267.8,191.6,260.8,184.3,253.7,176.8z"/>
	<path d="M253.7,176.8c7.1,7.5,14.1,14.8,21.2,22.4c-0.7,0-1.2,0-1.6,0c-30,0-60.1,0-90.1,0c-0.8,0-1.7,0.2-2.4,0.5
		c-17.1,8.5-34.1,17-51.2,25.5c-3.2,1.6-6.4,3.3-9.6,4.9c-0.3,0.2-0.7,0.4-1,0.5c0,0.1,0,0.2,0,0.3c43.2-0.4,86.3-0.8,129.8-1.2
		c-5-5-10.1-9.2-15.4-13.2c-5.3-3.9-10.8-7.8-16.4-11.8c0.7-0.6,1.3-1.3,2.1-1.8c0.3-0.2,0.9-0.2,1.3-0.1c8.1,3.3,16.2,6.6,24.3,10
		c7.4,3.1,14.8,6.3,22.1,9.5c3.7,1.6,7.1,3.8,9.6,7.2c3.8,5.2,5.1,10.9,3,17.1c-0.8,2.3-2.3,4.1-4.1,5.7c-2.8,2.3-5.4,2.1-7.6-0.8
		c-2.2-2.8-4.3-5.7-6.5-8.5c-1.8-2.3-3.8-4.5-5.6-6.7c-0.4-0.5-0.9-0.7-1.6-0.7c-9.7,0.5-19.3,0.9-29,1.4c-10,0.5-20,1.2-30,1.8
		c-1.5,0.1-3,0.2-4.6,0.3c0,9,0,17.9,0,27c0.5,0,1,0,1.5,0c16.7,0,33.4,0,50.2,0c0.9,0,1.6-0.3,2.2-0.9c5-4.6,9.9-9.3,14.9-13.9
		c0.2-0.2,0.4-0.3,0.6-0.5c7,7.4,14,14.8,21.2,22.4c-30.3,0-60.4,0-90.6,0c0,9.1,0,18,0,27.1c0.4,0,0.8,0,1.2,0c25.5,0,51,0,76.4,0
		c0.8,0,1.3-0.2,1.9-0.8c5.3-5.3,10.6-10.6,15.9-16c0.3-0.3,0.5-0.7,0.9-1.1c8,8.4,15.8,16.6,23.8,25c-0.8,0-1.3,0-1.8,0
		c-72.5,0-145,0-217.6,0c-8.8,0-17.5,1.1-26,3.2c-0.4,0.1-1.1,0.1-1.4-0.2c-3.4-3.3-6.7-6.6-10.3-10.2c40.2,0,80.1,0,120.1,0
		c0-9.1,0-18,0-27.1c-0.4,0-0.9,0-1.3,0c-17.1,0-34.2-0.1-51.2,0c-9,0-17.9,1-26.6,3.3c-0.4,0.1-1.1,0-1.3-0.2
		c-3.3-3.2-6.5-6.4-9.7-9.6c-0.1-0.1-0.2-0.2-0.4-0.5c30.3,0,60.3,0,90.5,0c0-8.6,0-17.1,0-25.8c-1.7,0.1-3.5,0.2-5.2,0.3
		c-9.2,0.8-18.5,1.5-27.7,2.4c-9.3,0.9-18.6,1.7-27.7,4.3c-3.9,1.1-7.7,2.5-11.2,4.8c-3.9-7.5-7.8-14.9-11.8-22.4
		c2-0.3,3.8-0.5,5.6-0.8c10.2-1.7,19.6-5.4,28.6-10.3c10.2-5.6,19.7-12.3,29.3-19.6c-0.7,0-1.2,0-1.6,0c-12.6,0-25.2,0-37.8,0
		c-4,0-8-0.3-12,0c-3.8,0.3-7.5,1.4-11.3,2c-0.4,0.1-1,0.1-1.3-0.1c-3-2.9-6-5.9-9.2-9.1c0.9,0,1.3,0,1.8,0c51.5,0,103,0,154.6,0
		c1.2,0,2.1-0.4,2.9-1.2c4.3-4.4,8.7-8.7,13-13.1C253,177.4,253.3,177.2,253.7,176.8z"/>
</g>
</svg>
