<?xml version="1.0" encoding="utf-8"?>
<!-- Generator: Adobe Illustrator 20.1.0, SVG Export Plug-In . SVG Version: 6.00 Build 0)  -->
<svg version="1.1" id="图层_1" xmlns="http://www.w3.org/2000/svg" xmlns:xlink="http://www.w3.org/1999/xlink" x="0px" y="0px"
	 viewBox="0 0 360 360" style="enable-background:new 0 0 360 360;" xml:space="preserve">
<style type="text/css">
	.st0{fill:#FFFFFF;}
</style>
<g>
	<path class="st0" d="M0.2,360.5c0-120.1,0-240.2,0-360.2c120.1,0,240.2,0,360.2,0c0,120.1,0,240.2,0,360.2
		C240.4,360.5,120.3,360.5,0.2,360.5z M57,306.4c4.2-4.1,8.9-7,14.2-8.8c11.8-4.1,23.6-8.4,35.6-12c23.7-6.9,47.5-13.4,71.3-20
		c2-0.6,4.1-1.1,6.2-1.7c-0.2-0.9-0.4-1.7-0.6-2.4c-0.2-0.8-0.4-1.5-0.6-2.3c-20,4.2-39.9,8.4-60,11.8c0-18.5,0-36.9,0-55.3
		c20,0,39.9,0,60.1,0c-6.8-7.6-13.4-15-20.2-22.6c-0.4,0.5-0.6,0.9-0.9,1.2c-4.5,4.5-8.9,8.9-13.4,13.4c-0.6,0.6-1.2,0.8-2.1,0.8
		c-7.4,0-14.8,0-22.2,0c-0.4,0-0.8,0-1.3,0c0-0.3-0.1-0.5-0.1-0.6c0-10.9,0-21.8,0-32.6c0-0.4,0.3-1,0.7-1.2c1.4-1,2.9-2,4.4-2.9
		c1.8-1.2,3.6-2.4,5.6-3.7c-7.4-3.9-14.7-7.8-22-11.6c0-0.1,0-0.2,0.1-0.3c15.1-2.3,30.3-4.7,45.5-7c1.9,6.3,3.9,12.4,5.7,18.6
		c0.8,2.5,1.9,3,4.3,1.8c0.3-0.1,0.6-0.3,0.8-0.5c7-4.6,10.6-13.2,8.8-21.4c-1.1-5-3.5-9.3-6.8-13c-9.1-10.4-20.2-18.4-31.3-26.4
		c-0.2-0.1-0.6-0.2-0.7-0.1c-1.1,0.7-2.2,1.4-3.3,2.2c7.9,10.7,15.1,21.7,20,34.2c-27.8,2.8-55.4,5-82.6,5.8c1.4-1.6,2.9-3.4,4.5-5
		c9.8-9.7,18.8-20,27.4-30.8c5.3-6.8,11.1-13.1,18-18.3c2.9-2.1,6-4,9-6c-5.9-3.7-12-7.5-18-11.3c0-0.1,0.1-0.2,0.1-0.3
		c26.4,0,52.8,0,79.4,0c-6.8-7.6-13.4-15-20.2-22.5c-0.3,0.4-0.5,0.8-0.9,1.1c-4.4,4.4-8.9,8.9-13.3,13.3c-0.7,0.7-1.4,1-2.5,1
		c-35.5,0-71,0-106.6,0c-0.5,0-0.9,0-1.7,0c3.6,3.6,6.9,6.9,10.3,10.2c0.2,0.2,0.9,0.3,1.3,0.2c8.4-2.1,16.9-3.2,25.5-3.3
		c7.2-0.1,14.5,0,21.7,0c0.4,0,0.8,0,1.3,0c-0.2,0.6-0.3,1-0.5,1.4c-5.6,13.1-12.5,25.5-20.2,37.5c-5,7.7-10.2,15.3-16.9,21.7
		c-4.3,4.1-8.9,7.5-14.8,8.9c-0.1,0-0.2,0.1-0.3,0.2c4.3,7.4,8.6,14.8,12.9,22.2c12.3-7.7,26.3-9.6,39.9-13c0,17.4,0,34.6,0,51.9
		c-19.2,0-38.3,0-57.6,0c3.4,3.4,6.7,6.6,9.8,9.9c0.6,0.6,1.1,0.7,1.9,0.5c7.3-1.9,14.8-3,22.4-3.2c7.6-0.2,15.2-0.1,22.8-0.1
		c0.2,0,0.5,0,0.8,0.1c0,0.4,0,0.7,0,1c0,18.5,0,37,0,55.6c0,0.9-0.3,1.1-1.1,1.3c-6.9,1.3-13.8,2.8-20.7,3.9
		c-10.9,1.8-21.8,3.5-32.7,5.2c-3,0.5-6,0.8-9.1,1.3C48.3,291.5,52.6,298.9,57,306.4z"/>
	<path d="M57,306.4c-4.4-7.5-8.6-14.9-13-22.4c3.2-0.4,6.1-0.8,9.1-1.3c10.9-1.7,21.8-3.3,32.7-5.2c6.9-1.2,13.8-2.6,20.7-3.9
		c0.8-0.2,1.1-0.4,1.1-1.3c0-18.5,0-37,0-55.6c0-0.3,0-0.6,0-1c-0.3,0-0.5-0.1-0.8-0.1c-7.6,0-15.2-0.1-22.8,0.1
		c-7.6,0.2-15,1.2-22.4,3.2c-0.8,0.2-1.3,0.1-1.9-0.5c-3.2-3.3-6.4-6.5-9.8-9.9c19.3,0,38.4,0,57.6,0c0-17.3,0-34.5,0-51.9
		c-13.7,3.3-27.7,5.3-39.9,13c-4.3-7.4-8.6-14.8-12.9-22.2c0.1-0.1,0.2-0.2,0.3-0.2c5.9-1.4,10.6-4.8,14.8-8.9
		c6.7-6.4,11.9-14,16.9-21.7c7.8-11.9,14.6-24.4,20.2-37.5c0.2-0.4,0.3-0.8,0.5-1.4c-0.5,0-0.9,0-1.3,0c-7.2,0-14.5-0.1-21.7,0
		C75.9,78,67.3,79,59,81.2c-0.4,0.1-1,0.1-1.3-0.2c-3.4-3.3-6.7-6.6-10.3-10.2c0.8,0,1.2,0,1.7,0c35.5,0,71,0,106.6,0
		c1,0,1.8-0.3,2.5-1c4.4-4.5,8.9-8.9,13.3-13.3c0.3-0.3,0.5-0.7,0.9-1.1c6.8,7.6,13.4,15,20.2,22.5c-26.6,0-53,0-79.4,0
		c0,0.1-0.1,0.2-0.1,0.3c6.1,3.8,12.1,7.6,18,11.3c-3,2-6.1,3.8-9,6c-6.9,5.2-12.7,11.6-18,18.3c-8.5,10.8-17.6,21.1-27.4,30.8
		c-1.6,1.6-3.1,3.4-4.5,5c27.3-0.9,54.9-3.1,82.6-5.8c-4.9-12.5-12.1-23.4-20-34.2c1.1-0.7,2.2-1.5,3.3-2.2c0.2-0.1,0.5,0,0.7,0.1
		c11.1,8,22.2,16,31.3,26.4c3.3,3.8,5.8,8,6.8,13c1.8,8.2-1.8,16.8-8.8,21.4c-0.3,0.2-0.5,0.3-0.8,0.5c-2.4,1.2-3.5,0.7-4.3-1.8
		c-1.9-6.1-3.8-12.3-5.7-18.6c-15.3,2.4-30.4,4.7-45.5,7c0,0.1,0,0.2-0.1,0.3c7.3,3.8,14.6,7.7,22,11.6c-2,1.3-3.8,2.5-5.6,3.7
		c-1.5,1-3,1.9-4.4,2.9c-0.4,0.3-0.7,0.8-0.7,1.2c0,10.9,0,21.8,0,32.6c0,0.2,0,0.3,0.1,0.6c0.4,0,0.9,0,1.3,0c7.4,0,14.8,0,22.2,0
		c0.9,0,1.5-0.2,2.1-0.8c4.4-4.5,8.9-9,13.4-13.4c0.3-0.3,0.5-0.7,0.9-1.2c6.8,7.6,13.4,15,20.2,22.6c-20.2,0-40.1,0-60.1,0
		c0,18.5,0,36.8,0,55.3c20.1-3.4,40-7.6,60-11.8c0.2,0.8,0.4,1.6,0.6,2.3c0.2,0.8,0.4,1.5,0.6,2.4c-2.1,0.6-4.1,1.1-6.2,1.7
		c-23.8,6.6-47.6,13.1-71.3,20c-12,3.5-23.8,7.8-35.6,12C65.9,299.5,61.1,302.4,57,306.4z"/>
</g>
</svg>
