<?xml version="1.0" encoding="utf-8"?>
<!-- Generator: Adobe Illustrator 20.1.0, SVG Export Plug-In . SVG Version: 6.00 Build 0)  -->
<svg version="1.1" id="图层_1" xmlns="http://www.w3.org/2000/svg" xmlns:xlink="http://www.w3.org/1999/xlink" x="0px" y="0px"
	 viewBox="0 0 360 360" style="enable-background:new 0 0 360 360;" xml:space="preserve">
<style type="text/css">
	.st0{fill:#FFFFFF;}
</style>
<g>
	<path class="st0" d="M0.2,360.5c0-120.1,0-240.2,0-360.2c120.1,0,240.2,0,360.2,0c0,120.1,0,240.2,0,360.2
		C240.4,360.5,120.3,360.5,0.2,360.5z M135.9,307.6c5.2-2.4,10-5,14.3-8.5c4-3.2,6.9-7.2,8-12.2c0.7-3.1,1.2-6.4,1.2-9.6
		c0.1-61.1,0.1-122.2,0-183.4c0-1.4,0.3-2.3,1.6-3c2.6-1.5,5.2-3.2,7.6-4.7c-5.1-5.1-10.2-10.2-15.3-15.3c-0.2,0.2-0.5,0.5-0.8,0.7
		c-3.4,3.4-6.7,6.8-10.1,10.1c-0.4,0.4-1.2,0.8-1.9,0.8c-11.7,0-23.4,0-35,0c-0.4,0-0.8,0-1.4,0c0.4-0.6,0.6-0.9,0.8-1.3
		c3.4-4.8,6.9-9.6,10.2-14.5c4.5-6.7,10.8-10.9,18.4-13.3c0.3-0.1,0.6-0.2,1.1-0.4c-8-4.8-15.7-9.4-23.6-14.1
		c-0.4,2-0.8,3.8-1.2,5.6c-2.9,12.8-7,25.1-12.5,37c-0.3,0.7-0.7,1-1.4,0.9c-2.1-0.1-4.2,0-6.2,0c-0.6,0-1.3-0.2-1.8-0.5
		c-4.9-3.1-9.8-6.2-14.6-9.4c-0.3-0.2-0.7-0.4-1-0.6c2,33,0.7,65.9,1.2,98.9c-9.9,0-19.6,0-29.6,0c3.5,3.5,6.9,6.9,10.2,10.2
		c0.3,0.3,0.9,0.3,1.4,0.2c3.9-0.8,7.7-1.8,11.6-2.6c2-0.4,4.1-0.5,6.5-0.8c0,2.4,0,4.6,0,6.7c0.1,13.2-0.6,26.4-2.1,39.6
		c-1.2,10.4-2.5,20.9-4.8,31.1c-3.6,15.7-9.1,30.8-16.5,45.1c-1.6,3.2-3.3,6.3-5.1,9.6c1.2,0.8,2.3,1.5,3.4,2.3
		c0.2-0.1,0.3-0.1,0.3-0.2c0.9-1,1.7-2,2.6-3c11.9-14.4,21-30.4,26.6-48.3c3.2-10.1,5-20.5,6.7-30.9c2.5-15.3,3.7-30.7,4-46.2
		c0-1.9,0-3.7,0-5.6c18.5,0,36.9,0,55.3,0c0,0.4,0.1,0.8,0.1,1.1c0,32.3,0,64.6,0,96.8c0,1.8-0.5,3.7-1,5.5
		c-0.5,1.7-1.9,2.5-3.7,2.4c-1,0-2,0-3-0.2c-7.6-0.9-15.2-1.8-22.7-2.7c-1.6-0.2-3.1-0.4-4.8-0.6c0,0.7,0,1.1,0,1.6
		c0,3.1,0,3.1,2.9,4.2c6.1,2.5,11.8,5.5,16.7,10C131.7,299.4,134.3,303.1,135.9,307.6z M104.1,195.6c-0.7,1-1.2,2-1.9,2.8
		c-0.5,0.6-0.4,1.1,0,1.7c1.8,2.9,3.7,5.8,5.4,8.8c3.8,6.6,6.9,13.5,8.5,21c0.6,2.6,1.4,5.2,2.6,7.5c1.9,3.8,5.6,4.2,8.6,1.2
		c2.8-2.9,4.3-6.4,4.5-10.4c0.2-5.6-1.8-10.4-5.4-14.5c-4.1-4.7-9-8.6-14.1-12.2C109.6,199.4,106.9,197.5,104.1,195.6z"/>
	<path d="M135.9,307.6c-1.6-4.5-4.2-8.2-7.6-11.3c-4.9-4.5-10.6-7.5-16.7-10c-2.9-1.2-2.9-1.2-2.9-4.2c0-0.5,0-0.9,0-1.6
		c1.7,0.2,3.3,0.4,4.8,0.6c7.6,0.9,15.2,1.8,22.7,2.7c1,0.1,2,0.1,3,0.2c1.8,0.1,3.2-0.7,3.7-2.4c0.6-1.8,1-3.6,1-5.5
		c0.1-32.3,0-64.6,0-96.8c0-0.3,0-0.7-0.1-1.1c-18.4,0-36.7,0-55.3,0c0,1.9,0,3.7,0,5.6c-0.3,15.5-1.5,30.9-4,46.2
		c-1.7,10.4-3.6,20.8-6.7,30.9c-5.6,17.9-14.6,33.9-26.6,48.3c-0.8,1-1.7,2-2.6,3c0,0.1-0.1,0.1-0.3,0.2c-1.1-0.7-2.3-1.5-3.4-2.3
		c1.7-3.2,3.4-6.4,5.1-9.6c7.3-14.4,12.9-29.4,16.5-45.1c2.3-10.3,3.7-20.7,4.8-31.1c1.5-13.2,2.2-26.4,2.1-39.6c0-2.1,0-4.2,0-6.7
		c-2.4,0.3-4.5,0.4-6.5,0.8c-3.9,0.8-7.7,1.7-11.6,2.6c-0.4,0.1-1.1,0.1-1.4-0.2c-3.4-3.3-6.7-6.6-10.2-10.2c10,0,19.7,0,29.6,0
		c-0.5-33,0.8-65.9-1.2-98.9c0.4,0.2,0.7,0.4,1,0.6c4.9,3.1,9.7,6.3,14.6,9.4c0.5,0.3,1.2,0.5,1.8,0.5c2.1,0.1,4.2,0,6.2,0
		c0.8,0,1.1-0.3,1.4-0.9c5.5-11.9,9.6-24.3,12.5-37c0.4-1.8,0.8-3.7,1.2-5.6c7.9,4.7,15.6,9.4,23.6,14.1c-0.5,0.2-0.8,0.3-1.1,0.4
		c-7.6,2.4-13.9,6.6-18.4,13.3c-3.3,4.9-6.8,9.7-10.2,14.5c-0.2,0.3-0.4,0.7-0.8,1.3c0.6,0,1,0,1.4,0c11.7,0,23.4,0,35,0
		c0.6,0,1.4-0.3,1.9-0.8c3.4-3.3,6.8-6.7,10.1-10.1c0.3-0.3,0.6-0.5,0.8-0.7c5.1,5.1,10.2,10.2,15.3,15.3c-2.5,1.6-5,3.2-7.6,4.7
		c-1.3,0.7-1.6,1.6-1.6,3c0,61.1,0,122.2,0,183.4c0,3.2-0.5,6.5-1.2,9.6c-1.1,5-4,9-8,12.2C145.9,302.6,141.1,305.2,135.9,307.6z
		 M144.1,89.7c-18.5,0-36.8,0-55.2,0c0,27.1,0,54.1,0,81.1c18.4,0,36.8,0,55.2,0C144.1,143.8,144.1,116.8,144.1,89.7z"/>
	<path d="M104.1,195.6c2.8,1.9,5.5,3.8,8.2,5.8c5,3.7,10,7.5,14.1,12.2c3.6,4.2,5.7,8.9,5.4,14.5c-0.2,4-1.6,7.6-4.5,10.4
		c-3,3-6.7,2.6-8.6-1.2c-1.2-2.4-2.1-4.9-2.6-7.5c-1.6-7.5-4.7-14.4-8.5-21c-1.7-3-3.6-5.9-5.4-8.8c-0.4-0.6-0.5-1.1,0-1.7
		C102.9,197.5,103.4,196.6,104.1,195.6z"/>
	<path class="st0" d="M144.1,89.7c0,27.1,0,54,0,81.1c-18.4,0-36.8,0-55.2,0c0-27,0-54,0-81.1C107.2,89.7,125.6,89.7,144.1,89.7z
		 M101.7,110.8c0.2,0.4,0.3,0.7,0.5,1c1.6,3,3.2,6,4.7,9c3.3,6.6,6.1,13.4,7.7,20.6c0.5,2.3,1.2,4.7,2.1,6.8c1.8,4,4.8,4.6,8.3,1.8
		c0.2-0.2,0.4-0.3,0.5-0.5c3.3-3.5,4.5-7.8,4.1-12.5c-0.3-3.4-1.7-6.4-3.9-8.9c-3-3.5-6.2-6.9-9.5-10.1c-3.5-3.4-7.3-6.5-10.9-9.7
		C104.1,109.2,102.9,110,101.7,110.8z"/>
	<path d="M101.7,110.8c1.2-0.8,2.4-1.6,3.7-2.4c3.7,3.2,7.4,6.4,10.9,9.7c3.3,3.2,6.5,6.6,9.5,10.1c2.2,2.5,3.6,5.5,3.9,8.9
		c0.4,4.7-0.8,8.9-4.1,12.5c-0.2,0.2-0.3,0.3-0.5,0.5c-3.4,2.8-6.5,2.2-8.3-1.8c-1-2.2-1.6-4.5-2.1-6.8c-1.6-7.2-4.5-14-7.7-20.6
		c-1.5-3-3.1-6-4.7-9C102.1,111.5,101.9,111.2,101.7,110.8z"/>
</g>
</svg>
