<?xml version="1.0" encoding="utf-8"?>
<!-- Generator: Adobe Illustrator 20.1.0, SVG Export Plug-In . SVG Version: 6.00 Build 0)  -->
<svg version="1.1" id="图层_1" xmlns="http://www.w3.org/2000/svg" xmlns:xlink="http://www.w3.org/1999/xlink" x="0px" y="0px"
	 viewBox="0 0 360 360" style="enable-background:new 0 0 360 360;" xml:space="preserve">
<style type="text/css">
	.st0{fill:#FFFFFF;}
</style>
<g>
	<path class="st0" d="M0.2,360.5c0-120.1,0-240.2,0-360.2c120.1,0,240.2,0,360.2,0c0,120.1,0,240.2,0,360.2
		C240.4,360.5,120.3,360.5,0.2,360.5z M190.4,202.7c1.2-1.7,2.3-3.2,3.3-4.8c3.7-6.3,2.8-12.1-2.7-16.8c-1-0.8-2-1.6-3.1-2.3
		c-8.6-5.6-18.2-9-27.8-12.3c-0.3-0.1-0.7,0-1,0.1c-0.8,0.6-1.5,1.2-1.9,1.5c3.2,3.3,6.1,6.4,9,9.5c4.4,4.7,8.3,9.7,11,15.6
		c1.3,3,2.2,6,2.3,9.5c-43.2,0-86.3,0-129.6,0c0.3,0.4,0.4,0.5,0.5,0.6c3.2,3.2,6.3,6.4,9.5,9.5c0.3,0.3,1,0.4,1.4,0.3
		c8.4-2.2,17-3.2,25.6-3.3c24.1-0.1,48.2,0,72.2,0c0.3,0,0.7,0,1.2,0.1C126.3,242.2,86.8,265.8,44,284c0.4,1.3,0.8,2.4,1.2,3.6
		c30.7-8.8,59.9-20.7,87.2-37.7c0,0.8,0,1.2,0,1.7c0,10.4,0,20.9,0,31.3c0,0.5,0,1,0.1,1.6c0.3,2.9-0.3,5.7-2,8.1
		c-1.1,1.6-2.5,3-3.8,4.6c4.6,6.5,9.3,13.1,13.8,19.5c2-2.3,3.8-4.6,5.9-6.7c5-4.8,10.7-8.6,16.6-12.1c13.6-8.2,27.8-15,42.2-21.6
		c2.1-0.9,4.1-1.9,6.3-2.9c-0.6-0.9-1.2-1.7-1.7-2.6c-0.4-0.8-0.9-1-1.8-0.7c-19.4,6-38.9,12-58.4,18c-0.5,0.2-1,0.3-1.8,0.5
		c0-0.6,0-1,0-1.5c0-15.6,0-31.1,0-46.7c0-0.9,0.3-1.4,1-2c8.3-7,16.6-14,24.9-21.1c2.8-2.4,5.4-4.9,8.3-7.5c0.4,0.7,0.7,1.2,1,1.8
		c6.8,12.5,14.2,24.6,22.6,36c7.9,10.7,16.7,20.8,27,29.3c15.8,13.1,33.2,23.8,51.8,32.3c3.1,1.4,6.3,2.8,9.4,4.2
		c5-11.3,14.8-15.6,26-17.8c0-0.5,0-0.9,0-1.4c0-1.1,0-2.2,0-3.2c-0.2-0.1-0.3-0.1-0.4-0.2c-1.8-0.2-3.7-0.4-5.5-0.6
		c-17.8-2-35-6.4-51.5-13.6c-10.2-4.4-19.9-9.7-28.6-16.7c-0.4-0.3-0.7-0.6-1.1-0.9c0.2-0.2,0.3-0.3,0.4-0.3
		c9.8-6.1,19.6-12.2,29.5-18.2c6.4-3.9,13.2-7.1,20.5-8.8c1.6-0.4,3.1-0.6,4.5-0.9c-6.6-6.6-13.2-13.2-19.8-19.8
		c-4.9,8.6-11.3,16.3-18.1,23.6c-6.8,7.3-14.1,14.2-21.7,20.8c-8.5-6.7-36.7-40.1-38.7-45.8c41.8,0,83.7,0,125.4,0
		c-8.2-8.2-16.4-16.4-24.6-24.6c-0.1,0.1-0.3,0.2-0.5,0.4c-6.1,5.4-12.3,10.9-18.5,16.2c-0.5,0.4-1.3,0.8-2,0.8
		c-25.8,0-51.5,0-77.3,0C191.4,202.7,191,202.7,190.4,202.7z"/>
	<path d="M190.4,202.7c0.6,0,1,0,1.4,0c25.8,0,51.5,0,77.3,0c0.7,0,1.5-0.3,2-0.8c6.2-5.4,12.3-10.8,18.5-16.2
		c0.2-0.2,0.4-0.3,0.5-0.4c8.2,8.2,16.4,16.4,24.6,24.6c-41.7,0-83.5,0-125.4,0c2,5.7,30.2,39.1,38.7,45.8
		c7.5-6.6,14.8-13.5,21.7-20.8c6.8-7.3,13.2-15,18.1-23.6c6.6,6.6,13.2,13.2,19.8,19.8c-1.4,0.3-3,0.6-4.5,0.9
		c-7.3,1.8-14.1,5-20.5,8.8c-9.9,6-19.6,12.1-29.5,18.2c-0.1,0.1-0.2,0.2-0.4,0.3c0.4,0.3,0.7,0.6,1.1,0.9
		c8.7,7,18.4,12.2,28.6,16.7c16.5,7.2,33.7,11.6,51.5,13.6c1.8,0.2,3.7,0.4,5.5,0.6c0.1,0,0.2,0.1,0.4,0.2c0,1.1,0,2.1,0,3.2
		c0,0.4,0,0.9,0,1.4c-11.2,2.2-20.9,6.4-26,17.8c-3.2-1.4-6.3-2.8-9.4-4.2c-18.7-8.6-36-19.2-51.8-32.3c-10.3-8.6-19-18.6-27-29.3
		c-8.4-11.4-15.8-23.5-22.6-36c-0.3-0.6-0.7-1.2-1-1.8c-2.8,2.5-5.5,5.1-8.3,7.5c-8.3,7.1-16.6,14.1-24.9,21.1c-0.7,0.6-1,1.1-1,2
		c0,15.6,0,31.1,0,46.7c0,0.4,0,0.9,0,1.5c0.7-0.2,1.2-0.3,1.8-0.5c19.5-6,38.9-12,58.4-18c0.9-0.3,1.4-0.1,1.8,0.7
		c0.5,0.9,1.1,1.7,1.7,2.6c-2.2,1-4.3,1.9-6.3,2.9c-14.4,6.6-28.6,13.4-42.2,21.6c-5.9,3.6-11.7,7.3-16.6,12.1
		c-2.1,2-3.9,4.4-5.9,6.7c-4.5-6.4-9.2-13-13.8-19.5c1.3-1.6,2.7-3,3.8-4.6c1.7-2.4,2.3-5.1,2-8.1c-0.1-0.5-0.1-1-0.1-1.6
		c0-10.4,0-20.9,0-31.3c0-0.5,0-1,0-1.7c-27.3,16.9-56.5,28.9-87.2,37.7c-0.4-1.2-0.8-2.3-1.2-3.6c42.9-18.2,82.3-41.8,116.5-74.1
		c-0.6,0-0.9-0.1-1.2-0.1c-24.1,0-48.2-0.1-72.2,0c-8.7,0-17.2,1.1-25.6,3.3c-0.4,0.1-1.1,0-1.4-0.3c-3.2-3.1-6.4-6.3-9.5-9.5
		c-0.1-0.1-0.2-0.3-0.5-0.6c43.3,0,86.4,0,129.6,0c-0.1-3.5-0.9-6.5-2.3-9.5c-2.7-5.9-6.6-10.9-11-15.6c-2.9-3.1-5.8-6.2-9-9.5
		c0.4-0.3,1.1-1,1.9-1.5c0.2-0.2,0.7-0.2,1-0.1c9.6,3.3,19.2,6.7,27.8,12.3c1.1,0.7,2.1,1.5,3.1,2.3c5.5,4.8,6.4,10.6,2.7,16.8
		C192.7,199.5,191.6,200.9,190.4,202.7z"/>
</g>
</svg>
