<?xml version="1.0" encoding="utf-8"?>
<!-- Generator: Adobe Illustrator 20.1.0, SVG Export Plug-In . SVG Version: 6.00 Build 0)  -->
<svg version="1.1" id="图层_1" xmlns="http://www.w3.org/2000/svg" xmlns:xlink="http://www.w3.org/1999/xlink" x="0px" y="0px"
	 viewBox="0 0 360 360" style="enable-background:new 0 0 360 360;" xml:space="preserve">
<style type="text/css">
	.st0{fill:#FFFFFF;}
</style>
<g>
	<g>
		<path class="st0" d="M0.2,360.5c0-120.1,0-240.2,0-360.2c120.1,0,240.2,0,360.2,0c0,120.1,0,240.2,0,360.2
			C240.4,360.5,120.3,360.5,0.2,360.5z M177.1,69.5c-4.9,4.9-9.7,9.7-14.4,14.5c-0.6,0.6-1.3,0.9-2.2,0.9c-17.1,0-34.2,0-51.4,0
			c-0.4,0-0.8,0-1.4,0c0.3-0.5,0.5-0.9,0.7-1.2c3.6-5.3,7-10.6,10.7-15.8c1.4-2,3-3.8,4.7-5.6c2-2.1,4.3-3.7,7.4-4.6
			c-8-4.8-15.7-9.4-23.6-14.1c-0.9,2.8-1.8,5.5-2.7,8.1C98,71.7,89,90.7,77.2,108.2c-8,11.8-16.4,23.2-25.1,34.3
			c-0.3,0.4-0.7,0.9-1,1.3c1.3,0.8,2.4,1.6,3.5,2.3c0.1,0,0.2-0.1,0.3-0.1c1-0.8,1.9-1.6,2.9-2.3c9.5-7.9,18.6-16.3,26.5-25.8
			c6.8-8.2,13.5-16.6,20.3-24.9c0.4-0.5,1.1-0.9,1.6-0.9c4.5-0.1,9-0.1,13.6,0c0.4,0,1.1,0.4,1.3,0.7c2.4,4.5,4.9,9,6.9,13.7
			c3.3,7.8,5,16,6.8,24.2c0.5,2.2,1.2,4.5,2.3,6.5c1.2,2.3,3.4,2.8,5.6,1.4c1.4-0.9,2.8-2,4-3.2c4.2-4.7,6.4-10.1,5.4-16.5
			c-0.6-3.9-2.6-7.2-5.2-10.1c-5.1-6-11.1-11-17.4-15.6c-0.4-0.3-0.8-0.6-1.2-0.9c0-0.1,0.1-0.2,0.1-0.3c22.9,0,45.8,0,68.9,0
			C190.4,84.4,183.8,77,177.1,69.5z M173.7,138c0.8,0.6,1.8,1.2,2.7,1.8c0.6,0.4,0.9,0.3,1.5-0.1c7.2-6.1,14.2-12.4,20.4-19.6
			c7.3-8.6,14.5-17.3,21.7-26c0.6-0.8,1.2-1.1,2.2-1c6.6,0,13.3,0,19.9,0.1c0.5,0,1.3,0.3,1.6,0.7c1.9,2.4,3.8,4.8,5.5,7.4
			c5.6,8.6,8.9,18.2,11.6,28c0.4,1.5,0.9,3.1,1.7,4.5c1.3,2.4,3.2,2.8,5.5,1.4c0.5-0.3,1-0.7,1.5-1c3.1-2.5,5.2-5.7,6.6-9.4
			c2.2-6,1.1-11.2-3.3-15.8c-0.7-0.7-1.4-1.3-2.1-2c-5.8-5-12.2-9.1-18.8-13c-0.3-0.2-0.7-0.4-1-0.7c0-0.1,0.1-0.2,0.1-0.3
			c21.7,0,43.4,0,65.3,0c-7.2-8-14.1-15.7-21.2-23.5c-0.4,0.4-0.7,0.7-1,1c-4.9,4.9-9.8,9.9-14.8,14.7c-0.4,0.4-1.2,0.7-1.7,0.7
			c-17.3,0-34.6,0-51.8,0c-0.3,0-0.7-0.1-1.1-0.1c0.1-0.3,0.2-0.4,0.3-0.6c6.5-9.5,12.4-19.3,21.7-26.5c-7.3-4.6-14.7-9.3-21.9-13.9
			C213.5,79.2,196.5,110.1,173.7,138z"/>
		<path d="M177.1,69.5c6.7,7.5,13.3,14.9,20.1,22.5c-23.1,0-46,0-68.9,0c0,0.1-0.1,0.2-0.1,0.3c0.4,0.3,0.8,0.6,1.2,0.9
			c6.3,4.6,12.3,9.6,17.4,15.6c2.5,3,4.6,6.2,5.2,10.1c1,6.4-1.1,11.8-5.4,16.5c-1.1,1.3-2.5,2.3-4,3.2c-2.2,1.4-4.4,0.9-5.6-1.4
			c-1-2-1.8-4.3-2.3-6.5c-1.8-8.2-3.5-16.4-6.8-24.2c-2-4.7-4.5-9.1-6.9-13.7c-0.2-0.4-0.8-0.7-1.3-0.7c-4.5-0.1-9-0.1-13.6,0
			c-0.6,0-1.2,0.5-1.6,0.9c-6.8,8.3-13.5,16.6-20.3,24.9c-7.9,9.5-17,17.9-26.5,25.8c-1,0.8-1.9,1.6-2.9,2.3c-0.1,0-0.1,0.1-0.3,0.1
			c-1.1-0.7-2.2-1.5-3.5-2.3c0.4-0.5,0.7-0.9,1-1.3c8.7-11.2,17.2-22.6,25.1-34.3C89,90.7,98,71.7,104.9,51.8
			c0.9-2.7,1.8-5.4,2.7-8.1c7.8,4.7,15.6,9.4,23.6,14.1c-3,0.9-5.4,2.5-7.4,4.6c-1.7,1.8-3.3,3.6-4.7,5.6
			c-3.6,5.2-7.1,10.5-10.7,15.8c-0.2,0.3-0.4,0.7-0.7,1.2c0.6,0,1,0,1.4,0c17.1,0,34.2,0,51.4,0c0.9,0,1.6-0.3,2.2-0.9
			C167.4,79.2,172.2,74.4,177.1,69.5z"/>
		<path d="M173.7,138c22.8-27.9,39.8-58.8,50.8-93.1c7.2,4.6,14.6,9.2,21.9,13.9c-9.3,7.2-15.2,17.1-21.7,26.5
			c-0.1,0.1-0.1,0.3-0.3,0.6c0.4,0,0.8,0.1,1.1,0.1c17.3,0,34.6,0,51.8,0c0.6,0,1.3-0.3,1.7-0.7c5-4.9,9.9-9.8,14.8-14.7
			c0.3-0.3,0.6-0.6,1-1c7,7.8,14,15.6,21.2,23.5c-21.9,0-43.6,0-65.3,0c0,0.1-0.1,0.2-0.1,0.3c0.3,0.2,0.7,0.5,1,0.7
			c6.6,3.9,13,8,18.8,13c0.7,0.6,1.4,1.3,2.1,2c4.4,4.6,5.6,9.8,3.3,15.8c-1.4,3.7-3.5,6.9-6.6,9.4c-0.5,0.4-0.9,0.7-1.5,1
			c-2.4,1.4-4.2,1-5.5-1.4c-0.7-1.4-1.3-2.9-1.7-4.5c-2.7-9.8-6-19.4-11.6-28c-1.7-2.6-3.6-5-5.5-7.4c-0.3-0.4-1-0.7-1.6-0.7
			c-6.6,0-13.3,0-19.9-0.1c-1,0-1.6,0.3-2.2,1c-7.2,8.7-14.3,17.4-21.7,26c-6.2,7.2-13.2,13.5-20.4,19.6c-0.5,0.4-0.9,0.5-1.5,0.1
			C175.5,139.2,174.6,138.6,173.7,138z"/>
	</g>
</g>
</svg>
