<?xml version="1.0" encoding="utf-8"?>
<!-- Generator: Adobe Illustrator 20.1.0, SVG Export Plug-In . SVG Version: 6.00 Build 0)  -->
<svg version="1.1" id="图层_1" xmlns="http://www.w3.org/2000/svg" xmlns:xlink="http://www.w3.org/1999/xlink" x="0px" y="0px"
	 viewBox="0 0 360 360" style="enable-background:new 0 0 360 360;" xml:space="preserve">
<style type="text/css">
	.st0{fill:#FFFFFF;}
</style>
<g>
	<path class="st0" d="M0.2,360.5c0-120.1,0-240.2,0-360.2c120.1,0,240.2,0,360.2,0c0,120.1,0,240.2,0,360.2
		C240.4,360.5,120.3,360.5,0.2,360.5z M158.3,38.9c-0.2,1.1-0.3,2-0.5,2.9c-2,11.6-5.6,22.8-9.7,33.8c-0.3,0.8-0.7,1-1.5,1
		c-7.6,0-15.2,0-22.8,0c-0.6,0-1.2-0.1-1.7-0.4c-3.9-1.7-7.7-3.3-11.5-5c-2.1-0.9-4.2-1.8-6.5-2.8c1.4,45.6,1.7,91.1,0,136.6
		c0.3,0,0.4,0,0.5,0c5.5-1.8,11-3.6,16.5-5.5c0.3-0.1,0.7-0.7,0.7-1c0.1-2,0-4.1,0-6.1c0-1.2,0-2.4,0-3.5c40.9,0,81.7,0,122.5,0
		c0,3.1,0,6.1,0,9.2c0.2,0,0.3,0,0.4-0.1c5.5-2.2,11-4.4,16.6-6.6c0.6-0.3,0.6-0.6,0.6-1.2c-0.4-6.9-1-13.7-1-20.6
		c-0.1-27.2,0-54.4-0.1-81.6c0-1.3,0.3-2.3,1.2-3.2c2-2.2,3.9-4.5,5.9-6.8c-6-4.4-11.8-8.7-17.7-13c-2.6,3.7-5.1,7.2-7.5,10.8
		c-0.5,0.8-1.1,1-2,1c-28.5,0-57,0-85.4,0c-0.4,0-0.8,0-1.5,0c2.2-2.5,4.1-4.8,6.2-7c6.1-6.7,11.6-14,19.7-18.8
		C172.4,46.8,165.4,42.9,158.3,38.9z"/>
	<path d="M158.3,38.9c7.2,4,14.2,7.9,21.3,11.8c-8.1,4.8-13.6,12.1-19.7,18.8c-2,2.2-4,4.5-6.2,7c0.7,0,1.1,0,1.5,0
		c28.5,0,57,0,85.4,0c0.9,0,1.4-0.2,2-1c2.4-3.6,5-7.1,7.5-10.8c5.9,4.3,11.8,8.6,17.7,13c-2,2.3-3.9,4.6-5.9,6.8
		c-0.9,1-1.2,1.9-1.2,3.2c0,27.2,0,54.4,0.1,81.6c0,6.9,0.6,13.7,1,20.6c0,0.6,0,1-0.6,1.2c-5.5,2.2-11.1,4.4-16.6,6.6
		c-0.1,0-0.2,0-0.4,0.1c0-3.1,0-6.1,0-9.2c-40.8,0-81.6,0-122.5,0c0,1.2,0,2.4,0,3.5c0,2,0,4.1,0,6.1c0,0.4-0.4,0.9-0.7,1
		c-5.5,1.9-11,3.7-16.5,5.5c-0.1,0-0.2,0-0.5,0c1.7-45.5,1.4-90.9,0-136.6c2.2,1,4.4,1.9,6.5,2.8c3.8,1.7,7.7,3.4,11.5,5
		c0.5,0.2,1.1,0.4,1.7,0.4c7.6,0,15.2,0,22.8,0c0.8,0,1.2-0.2,1.5-1c4.2-11,7.7-22.2,9.7-33.8C158,41,158.1,40,158.3,38.9z
		 M121.9,152.2c0,9.8,0,19.5,0,29.2c40.8,0,81.6,0,122.3,0c0-9.8,0-19.5,0-29.2C203.4,152.2,162.7,152.2,121.9,152.2z M121.9,110.8
		c40.8,0,81.5,0,122.3,0c0-9,0-17.9,0-26.9c-40.8,0-81.5,0-122.3,0C121.9,92.8,121.9,101.8,121.9,110.8z M244.2,144.9
		c0-9,0-17.9,0-26.8c-40.8,0-81.6,0-122.3,0c0,9,0,17.9,0,26.8C162.7,144.9,203.4,144.9,244.2,144.9z"/>
	<path class="st0" d="M121.9,152.2c40.8,0,81.5,0,122.3,0c0,9.7,0,19.4,0,29.2c-40.7,0-81.5,0-122.3,0
		C121.9,171.7,121.9,162,121.9,152.2z"/>
	<path class="st0" d="M121.9,110.8c0-9,0-17.9,0-26.9c40.8,0,81.5,0,122.3,0c0,9,0,17.9,0,26.9C203.4,110.8,162.7,110.8,121.9,110.8
		z"/>
	<path class="st0" d="M244.2,144.9c-40.8,0-81.5,0-122.3,0c0-8.9,0-17.8,0-26.8c40.8,0,81.5,0,122.3,0
		C244.2,127,244.2,135.9,244.2,144.9z"/>
</g>
</svg>
