<?xml version="1.0" encoding="utf-8"?>
<!-- Generator: Adobe Illustrator 20.1.0, SVG Export Plug-In . SVG Version: 6.00 Build 0)  -->
<svg version="1.1" id="图层_1" xmlns="http://www.w3.org/2000/svg" xmlns:xlink="http://www.w3.org/1999/xlink" x="0px" y="0px"
	 viewBox="0 0 360 360" style="enable-background:new 0 0 360 360;" xml:space="preserve">
<style type="text/css">
	.st0{fill:#FFFFFF;}
</style>
<g>
	<path class="st0" d="M0.2,360.5c0-120.1,0-240.2,0-360.2c120.1,0,240.2,0,360.2,0c0,120.1,0,240.2,0,360.2
		C240.4,360.5,120.3,360.5,0.2,360.5z M157.1,317c0.6-0.3,0.9-0.5,1.3-0.7c5.1-2.7,10.2-5.5,15.3-8.1c0.8-0.4,1.1-0.9,1-1.8
		c-1.3-17.1-1.1-34.2-1.1-51.3c0-51.2,0-102.4,0-153.6c0-0.4,0-0.7,0-1.1c-0.1-1,0.2-1.5,1.1-2c2.9-1.5,5.7-3.1,8.5-4.7
		c0.3-0.2,0.6-0.4,1-0.6c-6.7-6.3-13.4-12.6-20-18.9c-3.4,3.7-6.6,7.3-9.8,10.9c-0.6,0.6-1.1,0.9-2,0.9c-16.4,0-32.7,0-49.1,0
		c-0.4,0-0.8,0-1.5,0c0.4-0.6,0.6-1.1,0.9-1.4c4.3-6.1,8.5-12.3,12.9-18.3c4.3-5.7,9.5-10.5,15.8-13.9c0.3-0.1,0.5-0.3,0.9-0.5
		c-7.9-4-15.7-7.8-23.5-11.8c-0.4,2-0.8,3.9-1.2,5.7c-3,13.3-7.3,26.3-11.5,39.3c-0.3,0.8-0.7,0.9-1.4,0.9c-5.2,0-10.5,0-15.7,0
		c-0.6,0-1.3-0.2-1.8-0.5c-5.9-3.1-11.8-6.2-17.7-9.3c-0.4-0.2-0.8-0.4-1.3-0.6c-0.1,0.2-0.1,0.3-0.1,0.4c0.3,8.9,0.6,17.9,0.8,26.8
		c0.2,8.2,0.2,16.4,0.3,24.6c0.1,7.9,0.1,15.8,0.1,23.8c0,30.7-0.1,61.4-0.2,92.1c-0.1,14.9-0.2,29.7-0.4,44.6
		c-0.1,7.7-0.3,15.3-0.4,23c0,2.3,0,4.7,0,7.1c0.2-0.1,0.3-0.1,0.5-0.2c5.5-2.9,10.9-5.8,16.4-8.7c0.6-0.3,0.7-0.8,0.7-1.4
		c0-5.1,0-10.2,0-15.4c0-0.4,0-0.8,0-1.2c27.2,0,54.1,0,81.2,0C157.1,299.8,157.1,308.3,157.1,317z"/>
	<path d="M157.1,317c0-8.8,0-17.3,0-25.9c-27.1,0-54.1,0-81.2,0c0,0.4,0,0.8,0,1.2c0,5.1,0,10.2,0,15.4c0,0.6,0,1-0.7,1.4
		c-5.5,2.9-10.9,5.8-16.4,8.7c-0.2,0.1-0.4,0.1-0.5,0.2c0-2.4,0-4.8,0-7.1c0.1-7.7,0.3-15.3,0.4-23c0.2-14.9,0.3-29.7,0.4-44.6
		c0.1-30.7,0.2-61.4,0.2-92.1c0-7.9-0.1-15.8-0.1-23.8c-0.1-8.2-0.1-16.4-0.3-24.6c-0.2-8.9-0.5-17.9-0.8-26.8
		c0-0.1,0.1-0.2,0.1-0.4c0.5,0.2,0.9,0.4,1.3,0.6c5.9,3.1,11.8,6.2,17.7,9.3c0.5,0.3,1.2,0.5,1.8,0.5c5.2,0,10.5,0,15.7,0
		c0.7,0,1.1-0.1,1.4-0.9c4.2-13,8.4-26,11.5-39.3c0.4-1.9,0.8-3.7,1.2-5.7c7.9,3.9,15.6,7.8,23.5,11.8c-0.4,0.2-0.6,0.4-0.9,0.5
		c-6.4,3.4-11.6,8.1-15.8,13.9c-4.4,6-8.6,12.2-12.9,18.3c-0.3,0.4-0.5,0.8-0.9,1.4c0.6,0,1,0,1.5,0c16.4,0,32.7,0,49.1,0
		c0.8,0,1.4-0.2,2-0.9c3.2-3.6,6.5-7.2,9.8-10.9c6.7,6.3,13.3,12.5,20,18.9c-0.4,0.3-0.7,0.5-1,0.6c-2.8,1.6-5.6,3.2-8.5,4.7
		c-0.9,0.5-1.2,1-1.1,2c0,0.4,0,0.7,0,1.1c0,51.2,0,102.4,0,153.6c0,17.1-0.2,34.2,1.1,51.3c0.1,0.9-0.2,1.4-1,1.8
		c-5.1,2.7-10.2,5.4-15.3,8.1C158,316.5,157.7,316.7,157.1,317z M157,219.3c-27.1,0-54.1,0-81.1,0c0,21.6,0,43,0,64.5
		c27.1,0,54.1,0,81.1,0C157,262.3,157,240.9,157,219.3z M157,155.7c-27.1,0-54.1,0-81.1,0c0,18.8,0,37.6,0,56.3c27.1,0,54,0,81.1,0
		C157,193.3,157,174.6,157,155.7z M75.9,93.2c0,18.5,0,36.8,0,55.2c27.1,0,54,0,81.1,0c0-18.4,0-36.8,0-55.2
		C129.9,93.2,103,93.2,75.9,93.2z"/>
	<path class="st0" d="M157,219.3c0,21.6,0,43,0,64.5c-27.1,0-54.1,0-81.1,0c0-21.5,0-43,0-64.5C102.9,219.3,129.9,219.3,157,219.3z"
		/>
	<path class="st0" d="M157,155.7c0,18.8,0,37.5,0,56.3c-27.1,0-54,0-81.1,0c0-18.8,0-37.5,0-56.3C102.9,155.7,129.9,155.7,157,155.7
		z"/>
	<path class="st0" d="M75.9,93.2c27.1,0,54,0,81.1,0c0,18.4,0,36.8,0,55.2c-27,0-54,0-81.1,0C75.9,130,75.9,111.7,75.9,93.2z"/>
</g>
</svg>
