<?xml version="1.0" encoding="utf-8"?>
<!-- Generator: Adobe Illustrator 20.1.0, SVG Export Plug-In . SVG Version: 6.00 Build 0)  -->
<svg version="1.1" id="图层_1" xmlns="http://www.w3.org/2000/svg" xmlns:xlink="http://www.w3.org/1999/xlink" x="0px" y="0px"
	 viewBox="0 0 360 360" style="enable-background:new 0 0 360 360;" xml:space="preserve">
<style type="text/css">
	.st0{fill:#FFFFFF;}
</style>
<g>
	<path class="st0" d="M0.2,360.5c0-120.1,0-240.2,0-360.2c120.1,0,240.2,0,360.2,0c0,120.1,0,240.2,0,360.2
		C240.4,360.5,120.3,360.5,0.2,360.5z M171.2,281.6c0,1.4,0,2.6,0,3.8c0,0.7,0.2,1,0.9,1.1c2.4,0.6,4.8,1.2,7.2,1.9
		c5.9,1.8,11.6,4,16.6,7.9c3.9,3,6.6,6.8,7.1,11.9c0.1,0.5,0.1,1.1,0.2,1.8c2.4-0.9,4.7-1.7,6.8-2.7c9-4.1,14.7-10.9,16.2-20.8
		c0.5-3.5,0.4-7.1,0.4-10.6c0-28.9,0-57.8,0-86.6c0-35.9,0-71.8,0-107.8c0-0.9,0.2-1.5,1-2.1c2.8-2.1,5.6-4.3,8.3-6.5
		c0.4-0.3,0.8-0.7,1.3-1.1c-6.4-4.8-12.6-9.4-18.9-14.2c-0.3,0.4-0.5,0.6-0.7,0.9c-2.3,3.2-4.6,6.5-6.8,9.7
		c-0.6,0.8-1.1,1.2-2.2,1.2c-16.3,0-32.6,0-48.8,0c-0.4,0-0.9,0-1.6,0c3.6,3.6,6.8,6.9,10.2,10.1c0.3,0.3,0.9,0.3,1.4,0.2
		c5-0.9,10-2.2,15.1-2.6c8.4-0.6,16.9-0.5,25.4-0.7c0.3,0,0.5,0,0.9,0.1c0,0.6,0,1.1,0,1.6c0,33.5,0,67,0,100.4
		c0,1.1-0.3,1.9-1.1,2.7c-4.3,3.9-8.4,7.9-12.8,11.8c-13.8,12-28.2,23.2-43.9,32.7c-1.5,0.9-3,1.8-4.4,2.6
		c5.9,5.9,11.7,11.7,17.6,17.5c0.6-1.3,1.1-2.7,1.8-4c2.8-5.9,6.5-11.2,10.8-16.1c10.4-11.9,21-23.6,31.5-35.4
		c0.1-0.1,0.3-0.3,0.6-0.5c0,0.5,0,0.9,0,1.2c0,27.4,0,54.9,0,82.3c0,0.6,0,1.2-0.1,1.8c-0.7,6.4-3.5,8.2-8.6,8c-0.1,0-0.2,0-0.2,0
		c-8.5-0.5-17-0.9-25.5-1.4C175,282,173.1,281.8,171.2,281.6z M315,72c-6.4-5.2-12.6-10.3-18.9-15.4c-2.9,4-5.8,7.9-8.5,11.8
		c-0.6,0.9-1.3,1.3-2.4,1.3c-14.7,0-29.4,0-44.2,0c-0.4,0-0.8,0-1.5,0c3.6,3.6,6.9,6.9,10.3,10.2c0.3,0.2,0.9,0.3,1.3,0.2
		c12.3-3.3,24.9-3.5,37.5-3.3c0.1,0,0.3,0.1,0.5,0.2c0,0.4,0,0.7,0,1.1c0,33.8,0,67.6,0,101.4c0,0.6-0.3,1.3-0.7,1.7
		c-3.9,3.8-7.9,7.5-11.9,11.2c-13.7,12.5-28.3,24-44.3,33.5c-0.3,0.2-0.5,0.4-0.7,0.6c5.5,5.9,11,11.7,16.5,17.7
		c1.9-4.6,4.3-8.7,7.1-12.5c9.1-12.8,19.5-24.5,30-36.1c1.2-1.4,2.7-2.5,4.1-3.8c0,0.3,0,0.7,0,1.1c0,28.1,0,56.2,0,84.2
		c0,0.6,0,1.2,0,1.8c-0.5,5.9-3.1,7.4-7.6,7.2c-9.7-0.6-19.4-1.2-29.1-1.8c-0.3,0-0.6,0-1,0c0,0.3,0,0.5,0,0.7c0,1.1-0.1,2.2,0,3.4
		c0,0.3,0.4,0.7,0.7,0.8c0.9,0.3,1.9,0.5,2.9,0.8c6.5,1.8,12.9,4.1,18.4,8.2c4.2,3.1,7.2,7,8.3,12.2c0.1,0.7,0.2,1.4,0.4,2.2
		c1.3-0.4,2.4-0.8,3.6-1.3c6.2-2.4,11.5-6.1,14.9-12c3.1-5.3,4-11.1,3.9-17.2c-0.1-7-0.1-14-0.1-21c0-59.8,0-119.5,0-179.3
		c0-1,0.3-1.6,1.1-2.2C308.6,77,311.7,74.5,315,72z M239.6,114.3c2.1,4.2,4.3,8.3,6.3,12.5c4.3,9,7.8,18.2,9.7,28
		c0.6,3.1,1.2,6.2,2.9,9c1.6,2.6,3.8,3.1,6.1,1c1.6-1.4,2.9-2.9,4.3-4.5c1.9-2.4,3.4-5,4.3-8c1.7-5.2,0.7-10-2.3-14.5
		c-2.4-3.8-5.5-7-8.8-9.9c-6-5.2-12.1-10.3-18.2-15.4c-0.3-0.2-0.8-0.3-1.1-0.2C241.6,112.9,240.6,113.6,239.6,114.3z M165.3,112
		c0.2,0.5,0.5,0.9,0.6,1.4c2.8,6.3,5.8,12.6,8.4,19c2.9,7,4.9,14.2,5.8,21.8c0.3,2.9,0.8,5.7,2.3,8.3c1.3,2.3,3.3,2.9,5.5,1.4
		c6.3-4.2,9.9-10.1,10.2-17.7c0.2-5.3-2-9.9-5.5-13.6c-5-5.3-10.2-10.4-15.4-15.5c-2.7-2.6-5.6-5-8.4-7.6
		C167.7,110.4,166.5,111.2,165.3,112z"/>
	<path d="M171.2,281.6c2,0.2,3.8,0.3,5.7,0.4c8.5,0.5,17,0.9,25.5,1.4c0.1,0,0.2,0,0.2,0c5.1,0.2,7.9-1.7,8.6-8
		c0.1-0.6,0.1-1.2,0.1-1.8c0-27.4,0-54.9,0-82.3c0-0.4,0-0.7,0-1.2c-0.3,0.2-0.5,0.3-0.6,0.5c-10.5,11.8-21.1,23.5-31.5,35.4
		c-4.3,4.9-7.9,10.2-10.8,16.1c-0.7,1.4-1.2,2.8-1.8,4c-5.8-5.8-11.7-11.7-17.6-17.5c1.4-0.8,2.9-1.7,4.4-2.6
		c15.7-9.5,30.1-20.7,43.9-32.7c4.4-3.8,8.5-7.9,12.8-11.8c0.8-0.8,1.1-1.6,1.1-2.7c0-33.5,0-67,0-100.4c0-0.5,0-1,0-1.6
		c-0.4,0-0.7-0.1-0.9-0.1c-8.5,0.2-17,0.1-25.4,0.7c-5.1,0.3-10.1,1.7-15.1,2.6c-0.4,0.1-1.1,0-1.4-0.2c-3.3-3.3-6.6-6.6-10.2-10.1
		c0.7,0,1.2,0,1.6,0c16.3,0,32.6,0,48.8,0c1.1,0,1.6-0.4,2.2-1.2c2.2-3.3,4.5-6.5,6.8-9.7c0.2-0.3,0.4-0.6,0.7-0.9
		c6.3,4.7,12.5,9.4,18.9,14.2c-0.5,0.4-0.9,0.7-1.3,1.1c-2.8,2.2-5.5,4.4-8.3,6.5c-0.8,0.6-1,1.2-1,2.1c0,35.9,0,71.8,0,107.8
		c0,28.9,0,57.8,0,86.6c0,3.5,0.1,7.1-0.4,10.6c-1.5,9.9-7.2,16.7-16.2,20.8c-2.2,1-4.4,1.8-6.8,2.7c-0.1-0.8-0.1-1.3-0.2-1.8
		c-0.6-5.1-3.3-8.8-7.1-11.9c-4.9-3.9-10.6-6.1-16.6-7.9c-2.4-0.7-4.8-1.3-7.2-1.9c-0.7-0.2-0.9-0.4-0.9-1.1
		C171.2,284.3,171.2,283,171.2,281.6z"/>
	<path d="M315,72c-3.3,2.6-6.4,5.1-9.6,7.5c-0.8,0.6-1.1,1.2-1.1,2.2c0,59.8,0,119.5,0,179.3c0,7,0,14,0.1,21c0,6-0.8,11.9-3.9,17.2
		c-3.4,5.9-8.7,9.6-14.9,12c-1.1,0.4-2.3,0.8-3.6,1.3c-0.1-0.8-0.2-1.5-0.4-2.2c-1.1-5.2-4.1-9.1-8.3-12.2
		c-5.5-4.1-11.9-6.4-18.4-8.2c-1-0.3-1.9-0.5-2.9-0.8c-0.3-0.1-0.7-0.5-0.7-0.8c-0.1-1.1,0-2.2,0-3.4c0-0.2,0-0.4,0-0.7
		c0.3,0,0.7,0,1,0c9.7,0.6,19.4,1.2,29.1,1.8c4.4,0.3,7-1.3,7.6-7.2c0.1-0.6,0-1.2,0-1.8c0-28.1,0-56.2,0-84.2c0-0.4,0-0.8,0-1.1
		c-1.4,1.3-2.8,2.4-4.1,3.8c-10.5,11.6-20.9,23.3-30,36.1c-2.7,3.9-5.2,7.9-7.1,12.5c-5.5-5.9-11-11.7-16.5-17.7
		c0.3-0.2,0.5-0.4,0.7-0.6c16-9.5,30.6-21,44.3-33.5c4-3.7,7.9-7.4,11.9-11.2c0.4-0.4,0.7-1.1,0.7-1.7c0-33.8,0-67.6,0-101.4
		c0-0.4,0-0.7,0-1.1c-0.2-0.1-0.4-0.1-0.5-0.2c-12.6-0.2-25.2,0-37.5,3.3c-0.4,0.1-1,0.1-1.3-0.2c-3.4-3.3-6.7-6.6-10.3-10.2
		c0.7,0,1.1,0,1.5,0c14.7,0,29.4,0,44.2,0c1.1,0,1.8-0.4,2.4-1.3c2.8-3.9,5.6-7.8,8.5-11.8C302.4,61.7,308.7,66.8,315,72z"/>
	<path d="M239.6,114.3c1-0.6,2-1.4,3-2c0.3-0.1,0.8,0,1.1,0.2c6.1,5.1,12.2,10.2,18.2,15.4c3.3,2.9,6.4,6.1,8.8,9.9
		c2.9,4.5,4,9.3,2.3,14.5c-1,2.9-2.4,5.6-4.3,8c-1.3,1.6-2.7,3.2-4.3,4.5c-2.3,2-4.5,1.6-6.1-1c-1.7-2.7-2.3-5.9-2.9-9
		c-1.8-9.8-5.4-19-9.7-28C243.9,122.6,241.7,118.5,239.6,114.3z"/>
	<path d="M165.3,112c1.2-0.8,2.3-1.6,3.6-2.4c2.8,2.5,5.7,4.9,8.4,7.6c5.2,5.1,10.4,10.2,15.4,15.5c3.5,3.8,5.7,8.3,5.5,13.6
		c-0.3,7.6-3.9,13.5-10.2,17.7c-2.2,1.5-4.2,0.9-5.5-1.4c-1.4-2.6-1.9-5.4-2.3-8.3c-0.9-7.6-3-14.8-5.8-21.8
		c-2.6-6.4-5.6-12.7-8.4-19C165.8,112.9,165.6,112.5,165.3,112z"/>
</g>
</svg>
