<?xml version="1.0" encoding="utf-8"?>
<!-- Generator: Adobe Illustrator 20.1.0, SVG Export Plug-In . SVG Version: 6.00 Build 0)  -->
<svg version="1.1" id="图层_1" xmlns="http://www.w3.org/2000/svg" xmlns:xlink="http://www.w3.org/1999/xlink" x="0px" y="0px"
	 viewBox="0 0 360 360" style="enable-background:new 0 0 360 360;" xml:space="preserve">
<style type="text/css">
	.st0{fill:#FFFFFF;}
</style>
<g>
	<path class="st0" d="M0.2,360.5c0-120.1,0-240.2,0-360.2c120.1,0,240.2,0,360.2,0c0,120.1,0,240.2,0,360.2
		C240.4,360.5,120.3,360.5,0.2,360.5z M199.6,271c3.6-1.6,7.1-3.5,10.3-5.7c7.4-5.1,10.9-12,10.8-21c-0.1-54.1,0-108.1,0-162.2
		c0-0.3-0.1-0.7,0-1c0.2-0.5,0.4-1.1,0.7-1.3c1.4-1,2.8-1.9,4.3-2.9c1.9-1.2,3.7-2.5,5.4-3.6c-5.5-5.5-11-11-16.5-16.5
		c-3.2,3.2-6.6,6.5-9.9,9.9c-1.2,1.2-2.4,1.8-4.1,1.7c-17.9-0.1-35.8,0-53.8,0c-0.4,0-0.9,0-1.7,0c3.6,3.6,6.9,6.9,10.3,10.2
		c0.3,0.3,1,0.3,1.4,0.2c7.1-1.8,14.3-2.9,21.7-3.1c8.7-0.2,17.4-0.1,26.2-0.1c0.2,0,0.4,0.1,0.7,0.1c0,0.6,0,1.1,0,1.6
		c0,23.5,0,47,0,70.6c0,1.3-0.3,2.4-1.3,3.3c-1.2,1.1-2.2,2.3-3.3,3.5c-8.7,8.7-18,16.6-27.6,24.3c-8,6.5-16.2,12.8-25,18.1
		c-0.5,0.3-1.1,0.6-1.7,1c6,5.2,11.8,10.2,17.5,15.1c2.6-3.9,5-7.8,7.6-11.5c10.4-14.4,21.8-28.1,33.2-41.8c0.1-0.2,0.3-0.3,0.6-0.5
		c0,0.7,0,1.1,0,1.6c0,21.9,0,43.8,0,65.8c0,3,0,6.1,0,9.1c-0.1,6.8-3.4,10.2-9.9,9.7c-7.5-0.5-14.9-1.3-22.3-2c-3-0.3-5.9-0.6-9-1
		c0,1.2,0.1,2.3,0,3.3c-0.1,1.1,0.3,1.5,1.4,1.8c7.5,2.1,14.8,4.7,21.5,8.8c4.2,2.6,8,5.8,10.5,10.1
		C198.4,268.2,198.9,269.6,199.6,271z M281,276c4-3,8-5.9,11.8-8.8c3.7-2.8,5.7-6.6,6.4-11.2c0.3-2.2,0.5-4.5,0.5-6.7
		c0-56,0-111.9,0-167.9c0-0.9,0.2-1.5,1-2.1c2.8-2,5.6-4.2,8.1-6.1c-5.1-5.1-10.2-10.2-15.4-15.4c-3.1,3.1-6.3,6.3-9.5,9.6
		c-0.6,0.6-1.2,0.9-2.1,0.9c-16.4,0-32.8,0-49.2,0c-0.4,0-0.8,0-1.5,0c3.5,3.5,6.7,6.7,9.9,9.9c0.6,0.6,1.1,0.7,1.9,0.5
		c6.2-1.6,12.6-2.7,19-3c7.2-0.2,14.4-0.2,21.6-0.3c0.2,0,0.4,0.1,0.6,0.1c0,0.4,0.1,0.7,0.1,1c0,22.1,0,44.2,0,66.2
		c0,0.6-0.3,1.2-0.7,1.7c-1.5,1.7-3,3.4-4.7,5c-7.2,6.8-14.4,13.6-21.8,20.2c-8.1,7.2-16.5,14.2-25.5,20.3c-2.3,1.6-4.8,3-6.9,4.3
		c5.4,5.4,10.9,10.9,16.2,16.2c12.6-20.5,28.1-39.1,43.1-58c0.1,0,0.2,0.1,0.3,0.1c0,0.5,0,1,0,1.5c0,22.5,0,45,0,67.5
		c0,7.2,0,14.3,0,21.5c0,2.4-0.4,4.7-2,6.6c-1.9,2.2-4.5,2.6-7.1,2.4c-6.6-0.4-13.1-1-19.7-1.5c-2.5-0.2-5-0.5-7.6-0.8
		c0,0.9,0,1.6,0,2.4c0,0.8,0,1.6,0,2.4C261.2,258.1,273,263.7,281,276z M237.1,97.6c-0.5,0.6-0.8,1.1-1.2,1.4c-1,0.7-1,1.4-0.4,2.5
		c4.7,8.4,8.4,17.3,10.5,26.8c0.9,4,1.6,8.1,2.6,12c0.6,2.2,1.5,4.3,2.7,6.2c1.3,2.1,3.1,2.4,5.2,1.1c5.2-3,7.7-7.8,8.3-13.5
		c0.6-5-1.4-9.4-4.5-13.2c-3.8-4.5-7.8-8.8-11.9-12.9C244.9,104.5,241.1,101.2,237.1,97.6z M161.8,101.5c0.1,0.3,0.2,0.5,0.3,0.7
		c3.1,6.5,5.5,13.2,7.1,20.2c1.3,5.7,1.7,11.5,2.3,17.3c0.3,2.9,0.8,5.7,2.3,8.2c1.3,2.1,3,2.6,5.1,1.5c3.7-2,6.6-4.8,7.9-8.9
		c2.3-7.5,1.1-14.5-3.4-20.9c-4.3-6.2-9.7-11.3-15.1-16.5c-1.4-1.4-2.8-2.7-4.2-4C163.4,99.9,162.6,100.7,161.8,101.5z"/>
	<path d="M199.6,271c-0.7-1.4-1.3-2.8-2-4.1c-2.5-4.4-6.3-7.5-10.5-10.1c-6.7-4.1-14-6.7-21.5-8.8c-1.1-0.3-1.5-0.7-1.4-1.8
		c0.1-1.1,0-2.1,0-3.3c3.1,0.3,6.1,0.7,9,1c7.4,0.7,14.9,1.5,22.3,2c6.5,0.4,9.8-2.9,9.9-9.7c0-3,0-6.1,0-9.1c0-21.9,0-43.8,0-65.8
		c0-0.5,0-1,0-1.6c-0.3,0.2-0.5,0.3-0.6,0.5c-11.4,13.7-22.8,27.3-33.2,41.8c-2.7,3.7-5,7.6-7.6,11.5c-5.7-4.9-11.5-10-17.5-15.1
		c0.6-0.4,1.2-0.7,1.7-1c8.9-5.3,17-11.7,25-18.1c9.6-7.7,18.9-15.6,27.6-24.3c1.1-1.1,2.2-2.4,3.3-3.5c1-0.9,1.3-1.9,1.3-3.3
		c0-23.5,0-47,0-70.6c0-0.5,0-1,0-1.6c-0.3,0-0.5-0.1-0.7-0.1c-8.7,0-17.4-0.1-26.2,0.1c-7.3,0.2-14.6,1.3-21.7,3.1
		c-0.4,0.1-1.1,0.1-1.4-0.2c-3.4-3.3-6.7-6.6-10.3-10.2c0.8,0,1.2,0,1.7,0c17.9,0,35.8,0,53.8,0c1.8,0,3-0.5,4.1-1.7
		c3.3-3.4,6.6-6.7,9.9-9.9c5.5,5.5,11,11,16.5,16.5c-1.7,1.1-3.5,2.4-5.4,3.6c-1.4,1-2.9,1.9-4.3,2.9c-0.4,0.3-0.5,0.9-0.7,1.3
		c-0.1,0.3,0,0.6,0,1c0,54.1,0,108.1,0,162.2c0,9-3.4,16-10.8,21C206.7,267.5,203.2,269.5,199.6,271z"/>
	<path d="M281,276c-7.9-12.3-19.8-17.9-33.2-21.5c0-0.8,0-1.6,0-2.4c0-0.8,0-1.5,0-2.4c2.6,0.3,5.1,0.6,7.6,0.8
		c6.6,0.5,13.1,1.1,19.7,1.5c2.6,0.2,5.2-0.2,7.1-2.4c1.6-1.9,2-4.2,2-6.6c0-7.2,0-14.3,0-21.5c0-22.5,0-45,0-67.5c0-0.5,0-1,0-1.5
		c-0.1,0-0.2-0.1-0.3-0.1c-15,19-30.5,37.6-43.1,58c-5.3-5.3-10.8-10.8-16.2-16.2c2.1-1.3,4.6-2.8,6.9-4.3
		c9-6.1,17.4-13.1,25.5-20.3c7.4-6.6,14.6-13.4,21.8-20.2c1.7-1.6,3.2-3.3,4.7-5c0.4-0.4,0.7-1.1,0.7-1.7c0-22.1,0-44.2,0-66.2
		c0-0.3,0-0.6-0.1-1c-0.2,0-0.4-0.1-0.6-0.1c-7.2,0.1-14.4,0-21.6,0.3c-6.4,0.2-12.8,1.3-19,3c-0.8,0.2-1.3,0.1-1.9-0.5
		c-3.2-3.3-6.4-6.5-9.9-9.9c0.7,0,1.1,0,1.5,0c16.4,0,32.8,0,49.2,0c0.9,0,1.5-0.2,2.1-0.9c3.2-3.3,6.4-6.5,9.5-9.6
		c5.1,5.1,10.2,10.2,15.4,15.4c-2.6,1.9-5.3,4.1-8.1,6.1c-0.8,0.6-1,1.2-1,2.1c0,56,0,111.9,0,167.9c0,2.2-0.2,4.5-0.5,6.7
		c-0.6,4.5-2.7,8.3-6.4,11.2C288.9,270.1,285,273,281,276z"/>
	<path d="M237.1,97.6c4,3.6,7.8,6.9,11.4,10.4c4.1,4.2,8.2,8.4,11.9,12.9c3.1,3.7,5.1,8.1,4.5,13.2c-0.6,5.8-3.1,10.5-8.3,13.5
		c-2.1,1.2-3.9,1-5.2-1.1c-1.2-1.9-2.1-4-2.7-6.2c-1.1-4-1.7-8-2.6-12c-2.2-9.4-5.8-18.3-10.5-26.8c-0.6-1.1-0.6-1.8,0.4-2.5
		C236.3,98.7,236.6,98.2,237.1,97.6z"/>
	<path d="M161.8,101.5c0.8-0.8,1.6-1.6,2.4-2.4c1.4,1.3,2.8,2.7,4.2,4c5.3,5.2,10.8,10.4,15.1,16.5c4.5,6.4,5.7,13.4,3.4,20.9
		c-1.3,4.1-4.2,6.9-7.9,8.9c-2.1,1.1-3.8,0.6-5.1-1.5c-1.5-2.5-2-5.4-2.3-8.2c-0.6-5.8-1-11.6-2.3-17.3c-1.6-7-4-13.7-7.1-20.2
		C162,102,161.9,101.7,161.8,101.5z"/>
</g>
</svg>
