<?xml version="1.0" encoding="utf-8"?>
<!-- Generator: Adobe Illustrator 20.1.0, SVG Export Plug-In . SVG Version: 6.00 Build 0)  -->
<svg version="1.1" id="图层_1" xmlns="http://www.w3.org/2000/svg" xmlns:xlink="http://www.w3.org/1999/xlink" x="0px" y="0px"
	 viewBox="0 0 360 360" style="enable-background:new 0 0 360 360;" xml:space="preserve">
<style type="text/css">
	.st0{fill:#FFFFFF;}
</style>
<g>
	<path class="st0" d="M0.2,360.5c0-120.1,0-240.2,0-360.2c120.1,0,240.2,0,360.2,0c0,120.1,0,240.2,0,360.2
		C240.4,360.5,120.3,360.5,0.2,360.5z M274.8,242.9c0,0.7,0,1.1,0,1.6c0,10.4,0,20.9,0,31.3c0,2.4,0.1,4.7-0.1,7.1
		c-0.4,4.3-2.7,7.3-6.2,8c-1.6,0.3-3.3,0.3-5,0.2c-9.4-0.6-18.8-1.3-28.2-1.9c-1.3-0.1-2.6-0.2-3.9-0.3c0,1.7,0,3.2,0,4.7
		c0.4,0.1,0.8,0.2,1.2,0.3c6.5,1.9,13,4,18.8,7.7c5.8,3.6,10.4,8.1,10.6,15.8c3.3-1.3,6.6-2.4,9.7-3.8c12.4-5.9,18.7-15.5,18.7-29.5
		c-0.1-32.9,0-65.8-0.1-98.8c0-0.9,0.2-1.5,0.9-2.2c2.6-2.2,5.2-4.5,7.8-6.8c0.2-0.2,0.4-0.4,0.6-0.7c-5.9-4.7-11.7-9.4-17.6-14.1
		c-0.3,0.4-0.5,0.7-0.8,1c-2.2,3.1-4.5,6.3-6.6,9.4c-0.7,1-1.4,1.3-2.6,1.3c-28.4,0-56.7,0-85.1,0c-0.5,0-0.9,0-1.5,0
		c0.2,0.3,0.2,0.4,0.3,0.5c3.2,3.2,6.4,6.5,9.7,9.7c0.3,0.3,0.9,0.4,1.3,0.3c8.6-2.2,17.4-3.2,26.3-3.3c16.7-0.1,33.4,0,50.2,0
		c0.5,0,0.9,0,1.5,0c0,0.5,0.1,0.8,0.1,1.2c0,17.7,0,35.4,0,53c0,0.9-0.3,1.2-1,1.6c-8.9,4.4-17.7,8.8-26.6,13.2
		c-8.2,4-16.3,8.4-24.7,11.8c-14.2,5.8-28.6,11-42.9,16.4c-0.4,0.1-0.8,0.3-1.3,0.5c5.2,7.1,10.2,14.1,15.3,21.2
		c0.2-0.3,0.4-0.5,0.5-0.7c1.8-2.2,3.4-4.6,5.5-6.4c5.2-4.5,10.4-9,15.9-13.1c16.5-12.2,34.2-22.5,52.1-32.4
		C270,245.5,272.3,244.2,274.8,242.9z M58.5,173.2c0,0.1-0.1,0.2-0.1,0.3c3.4,3.4,6.7,6.7,10.1,10c0.2,0.2,0.8,0.2,1.2,0.1
		c8.6-2.2,17.4-3.2,26.2-3.3c17.2-0.1,34.4,0,51.6,0c0.4,0,0.8,0,1.4,0.1c0,0.5,0,0.8,0,1.2c0,17.7,0,35.4,0,53c0,0.9-0.3,1.3-1,1.6
		c-13.1,6.8-26.1,13.6-39.3,20.3c-15.7,7.9-32,14.7-48.7,20.2c-2.5,0.8-5,1.7-7.6,2.5c5.6,7.1,11,14.2,16.4,21.1c2-2.5,3.9-5,6-7.3
		c6.8-7.3,14.7-13.1,23-18.6c16.4-10.8,33.1-21,50.1-30.9c0.4-0.2,0.7-0.4,1.2-0.6c0,13.1,0.1,26,0,38.9c0,4.2-2.4,6.9-6.3,7.8
		c-1,0.2-2.1,0.4-3.2,0.3c-9.1-0.5-18.3-1.1-27.4-1.7c-2.2-0.1-4.3-0.4-6.6-0.6c0,1.7,0,3.2,0,4.7c1.8,0.4,3.6,0.8,5.4,1.3
		c6.6,1.7,13.1,3.7,18.8,7.5c3.9,2.6,7.2,5.7,8.3,10.5c0.3,1.4,0.4,2.8,0.5,4.3c4.5-1,8.9-2.4,13-4.7c8.5-4.8,12.8-12,12.8-21.8
		c0-29,0-58,0-87c0-5.4,0-10.8,0-16.2c0-0.8,0.2-1.2,0.8-1.7c1.5-1.1,3-2.3,4.5-3.4c1.8-1.4,3.5-2.7,5.4-4.2
		c-6.4-5.2-12.6-10.2-18.9-15.4c-2.6,3.7-5.1,7.2-7.5,10.7c-0.6,0.8-1.2,1.1-2.2,1.1c-28.8,0-57.5,0-86.3,0
		C59.5,173.2,59,173.2,58.5,173.2z M77,196.8c2.1,2.9,4.2,5.7,6.2,8.5c6.4,9.2,12.1,18.7,15.1,29.6c0.5,2,1.6,3.8,2.8,5.5
		c1.3,1.9,3.2,2,5.1,0.8c0.7-0.4,1.3-1,1.8-1.5c2.5-2.8,4.6-5.9,6.1-9.4c2.3-5.5,1.8-10.7-1.8-15.4c-1.7-2.3-3.8-4.5-6-6.3
		c-7.6-6-16.4-9.9-25.1-13.9c-0.3-0.1-0.7-0.1-1,0C79.1,195.4,78.1,196.1,77,196.8z M200.7,194.5c0.3,0.4,0.6,0.8,0.9,1.2
		c8.6,11.5,16.1,23.5,20.4,37.3c0.8,2.7,1.9,5.3,4,7.3c1.5,1.5,3.3,1.6,4.9,0.3c0.6-0.5,1.1-1,1.6-1.6c2.3-3.1,4.3-6.5,5.5-10.2
		c1.3-4,1.6-8-0.3-11.9c-1.4-2.7-3.3-5-5.6-6.9c-8.5-6.8-17.9-12.1-27.3-17.6c-0.2-0.1-0.7-0.2-1,0
		C202.7,193,201.7,193.7,200.7,194.5z"/>
	<path d="M274.8,242.9c-2.5,1.4-4.8,2.6-7.2,3.9c-17.9,9.9-35.6,20.2-52.1,32.4c-5.5,4.1-10.8,8.5-15.9,13.1
		c-2.1,1.8-3.7,4.3-5.5,6.4c-0.2,0.2-0.3,0.4-0.5,0.7c-5.1-7.1-10.2-14.1-15.3-21.2c0.5-0.2,0.9-0.3,1.3-0.5
		c14.3-5.4,28.8-10.6,42.9-16.4c8.4-3.4,16.5-7.8,24.7-11.8c8.9-4.4,17.7-8.8,26.6-13.2c0.7-0.4,1-0.8,1-1.6c0-17.7,0-35.4,0-53
		c0-0.4,0-0.7-0.1-1.2c-0.5,0-1,0-1.5,0c-16.7,0-33.4,0-50.2,0c-8.9,0-17.7,1.1-26.3,3.3c-0.4,0.1-1.1,0-1.3-0.3
		c-3.3-3.2-6.5-6.4-9.7-9.7c-0.1-0.1-0.1-0.2-0.3-0.5c0.6,0,1,0,1.5,0c28.4,0,56.7,0,85.1,0c1.2,0,1.9-0.3,2.6-1.3
		c2.1-3.2,4.4-6.3,6.6-9.4c0.2-0.3,0.5-0.6,0.8-1c5.9,4.7,11.7,9.4,17.6,14.1c-0.2,0.3-0.4,0.5-0.6,0.7c-2.6,2.3-5.1,4.6-7.8,6.8
		c-0.7,0.6-0.9,1.2-0.9,2.2c0,32.9-0.1,65.8,0.1,98.8c0.1,13.9-6.3,23.6-18.7,29.5c-3.1,1.5-6.3,2.5-9.7,3.8
		c-0.3-7.7-4.9-12.2-10.6-15.8c-5.8-3.6-12.2-5.8-18.8-7.7c-0.4-0.1-0.8-0.2-1.2-0.3c0-1.5,0-3.1,0-4.7c1.3,0.1,2.6,0.2,3.9,0.3
		c9.4,0.7,18.8,1.3,28.2,1.9c1.7,0.1,3.4,0.1,5-0.2c3.6-0.7,5.9-3.6,6.2-8c0.2-2.3,0.1-4.7,0.1-7.1c0-10.4,0-20.9,0-31.3
		C274.8,244,274.8,243.6,274.8,242.9z"/>
	<path d="M58.5,173.2c0.5,0,1,0,1.5,0c28.8,0,57.5,0,86.3,0c1,0,1.6-0.3,2.2-1.1c2.4-3.6,4.9-7.1,7.5-10.7
		c6.3,5.1,12.6,10.2,18.9,15.4c-1.8,1.4-3.6,2.8-5.4,4.2c-1.5,1.2-2.9,2.3-4.5,3.4c-0.6,0.5-0.8,0.9-0.8,1.7c0,5.4,0,10.8,0,16.2
		c0,29,0,58,0,87c0,9.9-4.3,17.1-12.8,21.8c-4.1,2.3-8.5,3.7-13,4.7c-0.2-1.5-0.2-2.9-0.5-4.3c-1.1-4.8-4.4-8-8.3-10.5
		c-5.8-3.7-12.2-5.8-18.8-7.5c-1.8-0.5-3.6-0.8-5.4-1.3c0-1.6,0-3.1,0-4.7c2.2,0.2,4.4,0.4,6.6,0.6c9.1,0.6,18.3,1.2,27.4,1.7
		c1.1,0.1,2.2-0.1,3.2-0.3c3.9-0.9,6.3-3.5,6.3-7.8c0.1-12.9,0-25.8,0-38.9c-0.5,0.3-0.8,0.4-1.2,0.6c-16.9,9.9-33.7,20.1-50.1,30.9
		c-8.3,5.5-16.2,11.3-23,18.6c-2.1,2.3-4,4.8-6,7.3c-5.4-6.9-10.8-13.9-16.4-21.1c2.6-0.9,5.1-1.7,7.6-2.5
		c16.7-5.6,33-12.3,48.7-20.2c13.2-6.6,26.2-13.5,39.3-20.3c0.7-0.4,1-0.8,1-1.6c0-17.7,0-35.4,0-53c0-0.4,0-0.7,0-1.2
		c-0.5,0-0.9-0.1-1.4-0.1c-17.2,0-34.4,0-51.6,0c-8.9,0-17.6,1.1-26.2,3.3c-0.4,0.1-1,0.1-1.2-0.1c-3.4-3.3-6.7-6.7-10.1-10
		C58.4,173.4,58.4,173.3,58.5,173.2z"/>
	<path d="M77,196.8c1.1-0.7,2.1-1.4,3.1-2.1c0.2-0.2,0.7-0.2,1,0c8.7,3.9,17.5,7.8,25.1,13.9c2.3,1.8,4.3,4,6,6.3
		c3.5,4.7,4,10,1.8,15.4c-1.5,3.5-3.6,6.6-6.1,9.4c-0.5,0.6-1.2,1.1-1.8,1.5c-1.9,1.2-3.8,1-5.1-0.8c-1.1-1.7-2.2-3.6-2.8-5.5
		c-3-10.9-8.7-20.5-15.1-29.6C81.2,202.5,79.1,199.7,77,196.8z"/>
	<path d="M200.7,194.5c1.1-0.7,2.1-1.4,3.1-2.1c0.2-0.1,0.7-0.1,1,0c9.3,5.5,18.8,10.8,27.3,17.6c2.4,1.9,4.3,4.2,5.6,6.9
		c1.9,3.9,1.6,7.9,0.3,11.9c-1.2,3.7-3.2,7.1-5.5,10.2c-0.4,0.6-1,1.2-1.6,1.6c-1.7,1.4-3.4,1.3-4.9-0.3c-2-2-3.1-4.6-4-7.3
		c-4.3-13.8-11.9-25.9-20.4-37.3C201.3,195.3,201,194.9,200.7,194.5z"/>
</g>
</svg>
