<?xml version="1.0" encoding="utf-8"?>
<!-- Generator: Adobe Illustrator 20.1.0, SVG Export Plug-In . SVG Version: 6.00 Build 0)  -->
<svg version="1.1" id="图层_1" xmlns="http://www.w3.org/2000/svg" xmlns:xlink="http://www.w3.org/1999/xlink" x="0px" y="0px"
	 viewBox="0 0 360 360" style="enable-background:new 0 0 360 360;" xml:space="preserve">
<style type="text/css">
	.st0{fill:#FFFFFF;}
</style>
<g>
	<path class="st0" d="M0.2,360.5c0-120.1,0-240.2,0-360.2c120.1,0,240.2,0,360.2,0c0,120.1,0,240.2,0,360.2
		C240.4,360.5,120.3,360.5,0.2,360.5z M160.6,47.2c-2.9,4-5.7,7.8-8.5,11.7c-0.7,0.9-1.4,1.3-2.5,1.3c-29.6,0-59.2,0-88.8,0
		c-0.4,0-0.9,0-1.7,0c3.7,3.6,7,7,10.4,10.3c0.2,0.2,0.8,0.2,1.2,0.1c8.7-2.3,17.6-3.3,26.6-3.3c17.9-0.1,35.8,0,53.6,0
		c0.4,0,0.9,0,1.3,0c0,0.5,0.1,0.8,0.1,1.2c0,18.1,0,36.2,0,54.2c0,0.9-0.3,1.2-1.1,1.5c-14.3,5.2-28.4,10.6-42.8,15.6
		c-14.7,5.1-29.5,9.6-44.7,13c-2.6,0.6-5.3,1.1-8.1,1.7c5.2,7.5,10.2,14.9,15,21.9c1.5-1.3,3-2.5,4.5-3.9c7-6.5,15-11.6,23.5-15.8
		c17.5-8.6,35.2-16.9,52.8-25.4c0.2-0.1,0.5-0.2,1-0.3c-0.4,16.1-0.8,32.1-1.2,48.1c6.3-2.3,12.5-4.7,18.7-7c0-0.3,0-0.6-0.1-0.8
		c-0.3-6.1-0.8-12.1-1-18.2c-0.2-7.7-0.1-15.4-0.1-23.2c0-19.7,0-39.4,0-59c0-1,0.3-1.6,1.1-2.1c1.6-0.9,3.1-2,4.6-3
		c1.6-1.1,3.2-2.1,4.9-3.3C173.2,57.4,167,52.3,160.6,47.2z M273.7,66.1c0,0.6,0.1,1,0.1,1.4c0,16.7,0,33.4,0,50.2
		c0,1-0.3,1.5-1.2,1.8c-13.4,4.4-26.8,9-40.2,13.3c-14.9,4.8-30,9.3-45.2,13c-2.1,0.5-4.2,1-6.4,1.5c5.6,6.4,11,12.6,16.6,18.9
		c1-1,1.8-1.9,2.6-2.7c5.9-5.4,12.7-9.5,19.8-13.2c15-7.9,30.4-14.7,46.1-21.1c2.6-1.1,5.3-2.1,8.3-3.2c-0.4,17-0.8,33.8-1.1,50.6
		c0.1,0,0.2,0,0.4-0.1c5.9-2.2,11.7-4.4,17.6-6.6c0.8-0.3,0.6-0.8,0.6-1.3c-0.4-7-1-14-1-20.9c-0.1-25.8-0.1-51.5,0-77.3
		c0-0.5,0.3-1.1,0.7-1.5c2.9-2.3,5.8-4.6,8.8-6.9c0.3-0.3,0.6-0.5,1-0.9c-6.8-5.2-13.4-10.2-20.1-15.3c-0.3,0.4-0.6,0.7-0.8,1
		c-2.6,3.6-5.3,7.2-7.9,10.9c-0.6,0.8-1.2,1.1-2.2,1.1c-26.1,0-52.2,0-78.3,0c-0.4,0-0.9,0-1.6,0c3.5,3.5,6.7,6.7,9.9,9.9
		c0.6,0.6,1,0.7,1.8,0.5c8.1-2.1,16.4-3.2,24.8-3.2c15.2-0.1,30.5,0,45.7,0C272.6,66.1,273.1,66.1,273.7,66.1z M81.7,80.1
		c3.4,4,6.7,7.8,9.9,11.7c5.7,7,10.5,14.6,13.7,23.1c0.9,2.3,2.1,4.5,3.5,6.5c2.1,2.9,4.4,2.8,6.9,0.2c3.7-4,5.7-8.7,6.7-14
		c0.8-4.4-0.2-8.4-3.1-11.7c-1.8-2-3.9-3.7-6.1-5.2c-6.8-4.6-14.3-7.8-21.8-11c-2.4-1.1-4.9-2-7.4-3.1C83.2,77.9,82.4,79,81.7,80.1z
		 M200.6,77.8c1,1,1.8,2,2.7,3c8.7,9.7,16.7,19.9,20.9,32.5c0.7,2,2,3.9,3.3,5.5c1.6,2,3.6,2,5.5,0.2c3.4-3,5.5-6.7,6.7-11
		c1.7-5.6,0.6-10.7-3.3-14.9c-1.9-2-4.1-3.8-6.5-5.3c-7.4-4.8-15.5-8.5-23.5-12.1c-1.2-0.5-2.6-1.5-3.6-1.2
		C202,75,201.4,76.6,200.6,77.8z"/>
	<path d="M160.6,47.2c6.3,5.2,12.6,10.2,18.9,15.4c-1.7,1.1-3.3,2.2-4.9,3.3c-1.5,1-3,2.1-4.6,3c-0.9,0.5-1.2,1.1-1.1,2.1
		c0,19.7,0,39.4,0,59c0,7.7-0.1,15.4,0.1,23.2c0.1,6.1,0.6,12.1,1,18.2c0,0.2,0,0.5,0.1,0.8c-6.2,2.3-12.5,4.7-18.7,7
		c0.4-16.1,0.8-32,1.2-48.1c-0.5,0.2-0.8,0.2-1,0.3c-17.6,8.4-35.3,16.7-52.8,25.4c-8.5,4.2-16.5,9.3-23.5,15.8
		c-1.4,1.3-3,2.6-4.5,3.9c-4.8-6.9-9.8-14.3-15-21.9c2.8-0.6,5.4-1.1,8.1-1.7c15.2-3.4,30-7.9,44.7-13c14.3-5,28.5-10.4,42.8-15.6
		c0.8-0.3,1.1-0.6,1.1-1.5c0-18.1,0-36.2,0-54.2c0-0.4,0-0.7-0.1-1.2c-0.5,0-0.9,0-1.3,0c-17.9,0-35.8,0-53.6,0
		c-9,0-17.9,1-26.6,3.3c-0.4,0.1-0.9,0.1-1.2-0.1c-3.4-3.3-6.8-6.7-10.4-10.3c0.8,0,1.2,0,1.7,0c29.6,0,59.2,0,88.8,0
		c1.2,0,1.9-0.4,2.5-1.3C154.9,55,157.7,51.1,160.6,47.2z"/>
	<path d="M273.7,66.1c-0.5,0-1,0-1.5,0c-15.2,0-30.5-0.1-45.7,0c-8.4,0-16.7,1.1-24.8,3.2c-0.8,0.2-1.2,0.1-1.8-0.5
		c-3.2-3.2-6.4-6.5-9.9-9.9c0.8,0,1.2,0,1.6,0c26.1,0,52.2,0,78.3,0c1,0,1.6-0.3,2.2-1.1c2.6-3.6,5.2-7.3,7.9-10.9
		c0.2-0.3,0.5-0.6,0.8-1c6.7,5.1,13.3,10.2,20.1,15.3c-0.4,0.3-0.7,0.6-1,0.9c-2.9,2.3-5.9,4.5-8.8,6.9c-0.4,0.3-0.7,1-0.7,1.5
		c0,25.8-0.1,51.5,0,77.3c0,7,0.7,14,1,20.9c0,0.6,0.2,1-0.6,1.3c-5.9,2.2-11.7,4.4-17.6,6.6c-0.1,0.1-0.3,0-0.4,0.1
		c0.4-16.8,0.8-33.5,1.1-50.6c-3,1.2-5.6,2.2-8.3,3.2c-15.6,6.4-31.1,13.2-46.1,21.1c-7,3.7-13.9,7.8-19.8,13.2
		c-0.9,0.8-1.7,1.7-2.6,2.7c-5.5-6.3-11-12.5-16.6-18.9c2.3-0.5,4.3-1,6.4-1.5c15.2-3.7,30.3-8.2,45.2-13
		c13.4-4.3,26.8-8.9,40.2-13.3c1-0.3,1.2-0.8,1.2-1.8c0-16.7,0-33.4,0-50.2C273.7,67.1,273.7,66.7,273.7,66.1z"/>
	<path d="M81.7,80.1c0.7-1,1.5-2.2,2.3-3.5c2.5,1,5,2,7.4,3.1c7.5,3.2,15,6.5,21.8,11c2.2,1.5,4.3,3.2,6.1,5.2c3,3.3,4,7.3,3.1,11.7
		c-1,5.2-3,10-6.7,14c-2.4,2.6-4.8,2.7-6.9-0.2c-1.4-2-2.7-4.2-3.5-6.5c-3.2-8.5-8-16-13.7-23.1C88.5,87.8,85.1,84,81.7,80.1z"/>
	<path d="M200.6,77.8c0.8-1.2,1.4-2.8,2.3-3.2c0.9-0.3,2.4,0.7,3.6,1.2c8.1,3.6,16.1,7.2,23.5,12.1c2.3,1.5,4.6,3.3,6.5,5.3
		c3.9,4.3,5,9.3,3.3,14.9c-1.3,4.3-3.4,8-6.7,11c-1.9,1.7-3.9,1.8-5.5-0.2c-1.3-1.7-2.6-3.5-3.3-5.5c-4.3-12.6-12.2-22.8-20.9-32.5
		C202.5,79.8,201.6,78.9,200.6,77.8z"/>
</g>
</svg>
