<?xml version="1.0" encoding="utf-8"?>
<!-- Generator: Adobe Illustrator 20.1.0, SVG Export Plug-In . SVG Version: 6.00 Build 0)  -->
<svg version="1.1" id="图层_1" xmlns="http://www.w3.org/2000/svg" xmlns:xlink="http://www.w3.org/1999/xlink" x="0px" y="0px"
	 viewBox="0 0 360 360" style="enable-background:new 0 0 360 360;" xml:space="preserve">
<style type="text/css">
	.st0{fill:#FFFFFF;}
</style>
<g>
	<path class="st0" d="M0.2,360.5c0-120.1,0-240.2,0-360.2c120.1,0,240.2,0,360.2,0c0,120.1,0,240.2,0,360.2
		C240.4,360.5,120.3,360.5,0.2,360.5z M237.2,81.4c-0.2,0.3-0.3,0.4-0.3,0.5c-5.8,11.6-12.9,22.3-21.2,32.3
		c-5.3,6.5-10.9,12.7-17.6,17.8c-4.4,3.3-9.1,6-14.6,6.9c-0.9,0.1-1.8,0.2-2.9,0.3c4.8,7.5,9.4,14.9,14.1,22.3
		c0.2-0.1,0.3-0.2,0.4-0.2c5.9-4.9,12.7-7.8,20.2-9.1c7-1.2,14.1-2.1,21.1-3c5.6-0.7,11.2-1.2,17.1-1.8c-0.5,0.5-0.8,0.8-1.1,1.1
		c-4,3.8-7.9,7.7-11.9,11.5c-11,10.2-22.3,19.9-34.9,28.1c-7.3,4.8-14.7,9.2-23.8,10c4.3,7.1,8.6,14.1,12.9,21c0.2,0,0.3,0,0.4,0
		c0.6-0.3,1.2-0.5,1.7-0.8c5.3-2.5,10.7-5,16.6-6c5.9-1,11.8-1.8,17.8-2.7c2-0.3,3.9-0.6,6-0.9c0,0.6,0,1,0,1.4c0,24,0,48,0,72
		c0,1.5-0.1,3-0.5,4.5c-0.9,4.4-3.1,6.1-7.6,5.6c-7.5-0.9-15-2-22.6-3c-3.1-0.4-6.2-1-9.4-1.6c0,1.2,0.1,2.3,0,3.4
		c-0.1,1,0.3,1.4,1.3,1.7c6.8,2,13.4,4.4,19.4,8.3c4.2,2.7,7.8,5.9,9.8,10.6c0.6,1.4,1,2.8,1.5,4.4c1.2-0.4,2.5-0.8,3.7-1.2
		c4.4-1.5,8.8-3.2,12.7-5.8c2.5-1.6,4.2-3.8,5.1-6.7c1.5-4.8,1.8-9.8,1.9-14.8c0-26,0-52.1,0-78.1c0-0.3,0-0.6,0-1
		c0-0.6,0.2-0.9,0.8-0.9c2-0.1,4-0.3,6-0.5c8.9-0.8,17.8-1.6,26.6-2.3c2.2-0.2,4.4-0.4,6.6-0.6c0.1,0.4,0.2,0.7,0.3,1
		c1,3,1.7,6.2,2.9,9.1c1,2.3,2.3,4.6,3.7,6.7c1.2,1.8,3.1,2.5,5.2,1.9c1.3-0.4,2.7-0.9,3.8-1.7c5.9-4.7,7.6-13.8,3.8-20.4
		c-2.6-4.5-5.8-8.5-9.7-11.8c-6.7-5.7-13.7-11.1-20.6-16.5c-2.6-2.1-5.4-4-8.1-6c-1,0.7-2,1.3-3,2c-0.2,0.1-0.4,0.3-0.6,0.5
		c7.5,9.4,15,18.8,21.2,29.4c-29,0.8-57.8,1.6-86.9,2.3c0.5-0.4,0.8-0.6,1.2-0.9c20.3-14.3,40-29.3,59.2-45
		c8.2-6.8,16.7-13.3,25.9-18.7c3.2-1.9,6.6-3.4,9.9-5.1c-6.5-5-13.1-10-19.7-15.1c-0.2,0.2-0.3,0.3-0.3,0.4
		c-5.5,8.9-12.6,16.5-20.2,23.6c-0.4,0.4-1,0.7-1.5,0.7c-8.9,0.2-17.9,0.4-26.9,0.6c-9.8,0.2-19.6,0.4-29.4,0.6c-0.4,0-0.9,0-1.6,0
		c4.4-3.6,8.6-7,12.7-10.4c7-5.8,13.8-11.8,20.1-18.4c5.6-5.9,11.9-10.9,19.3-14.4c2.1-1,4.2-1.8,6.5-2.8
		C252.1,90.7,244.7,86.1,237.2,81.4z M264.3,233.2c-0.3,1-0.5,1.8-0.8,2.5c-0.4,0.8-0.2,1.4,0.4,2.1c2.9,3.5,5.8,7,8.6,10.6
		c9,11.7,16.9,24.2,22,38.1c1.3,3.6,3,7,5.6,9.9c2.9,3.2,6,3.1,8.8-0.1c5.8-6.5,6.8-14.8,2.7-22.6c-2.5-4.7-6.1-8.6-10-12.2
		c-7.3-6.9-15.3-13-23.5-18.8C273.6,239.6,269,236.5,264.3,233.2z M168.9,298.2c0.4-0.4,0.9-0.7,1.2-1c6.2-5.7,12.6-11.2,18.7-17
		c9.5-9.2,18.2-19.2,26.3-29.7c2.3-2.9,4.8-5.3,8.2-6.6c1.5-0.6,3-1.5,4.6-2.3c-6.8-4.8-13.4-9.5-20.1-14.2
		c-9.5,25.7-24.3,48-42.4,68.4C166.5,296.6,167.7,297.4,168.9,298.2z"/>
	<path d="M237.2,81.4c7.4,4.7,14.8,9.4,22.3,14.1c-2.3,1-4.4,1.8-6.5,2.8c-7.4,3.5-13.7,8.5-19.3,14.4c-6.3,6.6-13.1,12.5-20.1,18.4
		c-4.1,3.4-8.3,6.8-12.7,10.4c0.7,0,1.2,0,1.6,0c9.8-0.2,19.6-0.4,29.4-0.6c9-0.2,17.9-0.4,26.9-0.6c0.5,0,1.1-0.3,1.5-0.7
		c7.6-7.1,14.7-14.7,20.2-23.6c0.1-0.1,0.2-0.2,0.3-0.4c6.6,5.1,13.2,10.1,19.7,15.1c-3.3,1.7-6.7,3.2-9.9,5.1
		c-9.2,5.4-17.7,12-25.9,18.7c-19.2,15.8-38.9,30.7-59.2,45c-0.3,0.2-0.6,0.5-1.2,0.9c29.1-0.8,57.9-1.6,86.9-2.3
		c-6.2-10.6-13.7-20-21.2-29.4c0.2-0.2,0.4-0.3,0.6-0.5c1-0.6,1.9-1.3,3-2c2.7,2,5.5,4,8.1,6c6.9,5.5,13.8,10.9,20.6,16.5
		c3.9,3.3,7.2,7.3,9.7,11.8c3.8,6.7,2.2,15.8-3.8,20.4c-1.1,0.8-2.4,1.4-3.8,1.7c-2.1,0.6-4-0.1-5.2-1.9c-1.4-2.1-2.7-4.3-3.7-6.7
		c-1.2-2.9-2-6.1-2.9-9.1c-0.1-0.3-0.2-0.6-0.3-1c-2.2,0.2-4.4,0.4-6.6,0.6c-8.9,0.8-17.8,1.6-26.6,2.3c-2,0.2-4,0.4-6,0.5
		c-0.6,0-0.8,0.3-0.8,0.9c0,0.3,0,0.6,0,1c0,26,0,52.1,0,78.1c0,5-0.4,10-1.9,14.8c-0.9,2.9-2.6,5.1-5.1,6.7
		c-4,2.6-8.3,4.2-12.7,5.8c-1.2,0.4-2.5,0.8-3.7,1.2c-0.5-1.5-0.9-3-1.5-4.4c-2.1-4.6-5.7-7.9-9.8-10.6c-6-3.9-12.6-6.3-19.4-8.3
		c-1-0.3-1.4-0.7-1.3-1.7c0.1-1.1,0-2.2,0-3.4c3.2,0.5,6.3,1.1,9.4,1.6c7.5,1.1,15,2.1,22.6,3c4.5,0.5,6.6-1.2,7.6-5.6
		c0.3-1.5,0.5-3,0.5-4.5c0-24,0-48,0-72c0-0.4,0-0.8,0-1.4c-2.1,0.3-4,0.6-6,0.9c-5.9,0.9-11.9,1.7-17.8,2.7c-5.9,1-11.3,3.5-16.6,6
		c-0.6,0.3-1.2,0.5-1.7,0.8c-0.1,0-0.2,0-0.4,0c-4.3-7-8.5-14-12.9-21c9.1-0.8,16.6-5.2,23.8-10c12.5-8.3,23.9-18,34.9-28.1
		c4-3.8,8-7.6,11.9-11.5c0.3-0.3,0.6-0.6,1.1-1.1c-5.9,0.6-11.5,1.1-17.1,1.8c-7.1,0.9-14.1,1.8-21.1,3c-7.5,1.3-14.3,4.2-20.2,9.1
		c-0.1,0.1-0.2,0.1-0.4,0.2c-4.7-7.4-9.3-14.8-14.1-22.3c1.1-0.1,2-0.2,2.9-0.3c5.5-0.9,10.2-3.6,14.6-6.9
		c6.7-5.1,12.3-11.3,17.6-17.8c8.2-10,15.3-20.8,21.2-32.3C237,81.7,237.1,81.6,237.2,81.4z"/>
	<path d="M264.3,233.2c4.7,3.3,9.3,6.4,13.8,9.6c8.2,5.8,16.2,11.9,23.5,18.8c3.8,3.6,7.5,7.5,10,12.2c4.1,7.8,3.1,16-2.7,22.6
		c-2.8,3.2-5.9,3.2-8.8,0.1c-2.6-2.9-4.2-6.3-5.6-9.9c-5.2-14-13-26.4-22-38.1c-2.8-3.6-5.7-7.1-8.6-10.6c-0.6-0.7-0.8-1.3-0.4-2.1
		C263.8,235,264,234.2,264.3,233.2z"/>
	<path d="M168.9,298.2c-1.2-0.8-2.4-1.6-3.6-2.4c18.1-20.4,32.9-42.6,42.4-68.4c6.7,4.7,13.3,9.4,20.1,14.2c-1.6,0.8-3,1.6-4.6,2.3
		c-3.4,1.4-6,3.7-8.2,6.6c-8.1,10.5-16.8,20.4-26.3,29.7c-6,5.9-12.4,11.4-18.7,17C169.7,297.5,169.3,297.8,168.9,298.2z"/>
</g>
</svg>
