<?xml version="1.0" encoding="utf-8"?>
<!-- Generator: Adobe Illustrator 20.1.0, SVG Export Plug-In . SVG Version: 6.00 Build 0)  -->
<svg version="1.1" id="图层_1" xmlns="http://www.w3.org/2000/svg" xmlns:xlink="http://www.w3.org/1999/xlink" x="0px" y="0px"
	 viewBox="0 0 360 360" style="enable-background:new 0 0 360 360;" xml:space="preserve">
<style type="text/css">
	.st0{fill:#FFFFFF;}
</style>
<g>
	<path class="st0" d="M0.2,360.5c0-120.1,0-240.2,0-360.2c120.1,0,240.2,0,360.2,0c0,120.1,0,240.2,0,360.2
		C240.4,360.5,120.3,360.5,0.2,360.5z M239.6,167.4c-0.2,0.2-0.3,0.3-0.5,0.4c-3.6,3.1-7.1,6.5-10.9,9.4
		c-11,8.4-23.1,15.1-35.3,21.7c-0.5,0.3-1.1,0.3-1.6,0.3c-14.2,0.2-28.5,0.5-42.7,0.7c-6.5,0.1-13,0.2-19.5,0.3c-2.6,0-5.2,0-7.9,0
		c0.3-0.2,0.5-0.3,0.7-0.4c7.8-3.8,15.7-7.6,23.4-11.5c6.9-3.5,14-6.4,21.8-7.4c2.1-0.3,4.2-0.4,6.4-0.6c-3.9-8-7.8-16-11.8-24
		c-0.4,0.5-0.7,0.8-0.9,1.1c-3.5,4.1-6.8,8.4-10.6,12.2c-6.4,6.6-13.6,12.1-21.3,17.1c-7.3,4.8-15,8.5-23.6,10.3
		c-2.4,0.5-4.8,0.8-7.2,1.2c2.7,6.3,5.5,12.5,8.2,18.6c2.1-0.7,4.2-1.4,6.3-1.9c11.9-3,24.1-4.2,36.2-5.5c9.7-1,19.4-1.7,29.1-2.6
		c1.8-0.2,3.6-0.3,5.4-0.4c-2,1.3-4,2.4-6,3.4c-15.4,7.9-30.8,15.8-46.8,22.7c-13.3,5.7-27,9.7-41.5,10.2c-0.5,0-0.9,0.1-1.5,0.2
		c4,7.1,7.8,14.1,11.7,21.1c2.8-2.3,6-3.4,9.2-4.3c11.7-3.4,23.8-5,35.8-6.5c8-1,16-1.7,24-2.6c2.9-0.3,5.8-0.5,8.7-0.8
		c0,0.4,0.1,0.7,0.1,1c0,11,0,22.1,0,33.1c0,1.1-0.1,2.2-0.3,3.3c-0.7,4.7-3.4,6.8-8.1,6.6c-1.2-0.1-2.4-0.2-3.6-0.3
		c-8.7-1.1-17.4-2.2-26.2-3.2c-1.4-0.2-2.8-0.3-4.2-0.5c0,1.7,0,3.2,0,4.7c2.4,0.8,4.8,1.6,7.2,2.5c7.1,2.6,14.2,5.4,20.6,9.6
		c4.2,2.8,8.2,5.8,8.8,11.5c5.7-1.7,10.9-4.1,15.4-7.9c4.3-3.5,7.1-7.9,7.8-13.4c0.4-3.4,0.3-6.8,0.3-10.3c0-12.2,0-24.4,0-36.6
		c0-0.4,0-0.9,0-1.3c0.4,0,0.6-0.1,0.8-0.1c10-0.8,20-1.6,30-2.5c11.5-1,23-2,34.5-3.2c2.2-0.2,3.6,0.3,5.1,1.9
		c5.7,6.1,11.1,12.3,15.3,19.6c0.5,0.9,1.2,1.8,1.9,2.6c2.2,2.4,4.6,2.5,7,0.3c2.1-1.9,3.6-4.2,4.3-7c1.7-7.4-0.3-13.7-5.7-18.9
		c-3.8-3.7-8.4-6.4-13-9.1c-12.9-7.5-26.5-13.7-40.1-19.7c-2.4-1-4.7-2.1-7.1-3.1c-0.8,1.2-1.6,2.4-2.4,3.6
		c10.8,7.2,21.5,14.1,31.8,22.4c-41.9,2.4-83.5,4.7-125,7c0.3-0.4,0.7-0.6,1.1-0.8c6.6-2.9,13.3-5.8,19.9-8.8
		c24.8-10.9,49.4-22.5,73.8-34.5c8.2-4.1,16.6-7.8,25.3-10.6c2.3-0.8,4.7-1.3,7.2-1.9C252.9,179.8,246.3,173.6,239.6,167.4z
		 M217.1,260.4c0.6,0.4,1.2,0.7,1.7,0.9c10.8,5.9,21.5,12.2,31.7,19.1c8.7,5.9,17,12.3,24.4,19.9c2.1,2.2,4.3,4.3,6.6,6.3
		c1.8,1.6,3.8,2.9,6.2,3.5c2.3,0.5,4.1-0.2,5.3-2.2c0.3-0.6,0.6-1.2,0.8-1.9c1.4-4.4,1.4-8.7-0.4-13c-2-4.6-5.5-8-9.5-10.9
		c-5.1-3.6-10.7-6.2-16.4-8.7c-14.4-6.2-29.3-11-44.3-15.6c-1.2-0.4-2.7-1.2-3.7-0.8C218.5,257.6,218,259.2,217.1,260.4z M123,258.1
		c-20.4,22.8-45.7,38.2-73.1,50.7c0.8,1.7,1.6,3.2,2.4,4.8c3-1.1,5.9-2.1,8.7-3.2c15.8-5.9,31.3-12.4,46.2-20.5
		c9.2-5,18.9-9.1,29.1-11.8c1.4-0.4,2.8-0.7,4.4-1.1C134.7,270.6,128.9,264.4,123,258.1z"/>
	<path d="M239.6,167.4c6.6,6.2,13.2,12.5,19.9,18.7c-2.5,0.7-4.9,1.2-7.2,1.9c-8.7,2.8-17.1,6.5-25.3,10.6
		c-24.3,12-48.9,23.6-73.8,34.5c-6.6,2.9-13.3,5.9-19.9,8.8c-0.4,0.2-0.8,0.4-1.1,0.8c41.5-2.3,83.1-4.7,125-7
		c-10.2-8.3-21-15.2-31.8-22.4c0.8-1.2,1.6-2.3,2.4-3.6c2.4,1,4.8,2.1,7.1,3.1c13.6,6,27.2,12.2,40.1,19.7c4.6,2.7,9.2,5.4,13,9.1
		c5.4,5.2,7.4,11.5,5.7,18.9c-0.6,2.7-2.2,5-4.3,7c-2.4,2.2-4.8,2.1-7-0.3c-0.7-0.8-1.4-1.7-1.9-2.6c-4.1-7.3-9.6-13.5-15.3-19.6
		c-1.5-1.6-2.9-2.1-5.1-1.9c-11.5,1.2-23,2.2-34.5,3.2c-10,0.9-20,1.6-30,2.5c-0.2,0-0.5,0.1-0.8,0.1c0,0.5,0,0.9,0,1.3
		c0,12.2,0,24.4,0,36.6c0,3.4,0.1,6.9-0.3,10.3c-0.7,5.5-3.5,9.8-7.8,13.4c-4.6,3.7-9.7,6.2-15.4,7.9c-0.7-5.6-4.6-8.7-8.8-11.5
		c-6.4-4.2-13.4-7-20.6-9.6c-2.4-0.9-4.7-1.7-7.2-2.5c0-1.5,0-3,0-4.7c1.4,0.2,2.8,0.4,4.2,0.5c8.7,1.1,17.4,2.2,26.2,3.2
		c1.2,0.1,2.4,0.3,3.6,0.3c4.7,0.2,7.4-1.9,8.1-6.6c0.2-1.1,0.3-2.2,0.3-3.3c0-11,0-22.1,0-33.1c0-0.3,0-0.6-0.1-1
		c-3,0.3-5.8,0.5-8.7,0.8c-8,0.8-16,1.6-24,2.6c-12.1,1.5-24.1,3.1-35.8,6.5c-3.2,0.9-6.4,2-9.2,4.3c-3.9-7-7.8-14-11.7-21.1
		c0.6-0.1,1-0.1,1.5-0.2c14.5-0.5,28.3-4.5,41.5-10.2c15.9-6.9,31.4-14.8,46.8-22.7c2-1,4-2.1,6-3.4c-1.8,0.1-3.6,0.2-5.4,0.4
		c-9.7,0.8-19.4,1.6-29.1,2.6c-12.2,1.2-24.3,2.5-36.2,5.5c-2.1,0.5-4.1,1.3-6.3,1.9c-2.7-6.2-5.4-12.4-8.2-18.6
		c2.5-0.4,4.9-0.7,7.2-1.2c8.6-1.8,16.3-5.5,23.6-10.3c7.6-5,14.9-10.5,21.3-17.1c3.8-3.9,7.1-8.1,10.6-12.2
		c0.3-0.3,0.6-0.7,0.9-1.1c3.9,8.1,7.8,16,11.8,24c-2.2,0.2-4.3,0.3-6.4,0.6c-7.7,1.1-14.8,3.9-21.8,7.4
		c-7.8,3.9-15.6,7.7-23.4,11.5c-0.2,0.1-0.5,0.3-0.7,0.4c2.7,0,5.3,0,7.9,0c6.5-0.1,13-0.2,19.5-0.3c14.2-0.2,28.5-0.5,42.7-0.7
		c0.5,0,1.1-0.1,1.6-0.3c12.2-6.6,24.3-13.3,35.3-21.7c3.8-2.9,7.3-6.3,10.9-9.4C239.3,167.6,239.4,167.5,239.6,167.4z"/>
	<path d="M217.1,260.4c0.8-1.2,1.4-2.8,2.4-3.2c1-0.4,2.5,0.4,3.7,0.8c15,4.6,29.9,9.4,44.3,15.6c5.7,2.5,11.3,5.1,16.4,8.7
		c4,2.8,7.5,6.2,9.5,10.9c1.8,4.3,1.8,8.6,0.4,13c-0.2,0.6-0.5,1.3-0.8,1.9c-1.2,2-3,2.8-5.3,2.2c-2.4-0.6-4.4-1.9-6.2-3.5
		c-2.3-2-4.5-4.1-6.6-6.3c-7.3-7.6-15.7-14-24.4-19.9c-10.2-7-20.9-13.2-31.7-19.1C218.3,261.1,217.8,260.8,217.1,260.4z"/>
	<path d="M123,258.1c5.9,6.3,11.7,12.5,17.7,18.9c-1.6,0.4-3,0.7-4.4,1.1c-10.2,2.7-19.9,6.8-29.1,11.8
		c-14.8,8.1-30.4,14.6-46.2,20.5c-2.9,1.1-5.8,2.1-8.7,3.2c-0.8-1.6-1.6-3.1-2.4-4.8C77.3,296.2,102.6,280.8,123,258.1z"/>
</g>
</svg>
