<?xml version="1.0" encoding="utf-8"?>
<!-- Generator: Adobe Illustrator 20.1.0, SVG Export Plug-In . SVG Version: 6.00 Build 0)  -->
<svg version="1.1" id="图层_1" xmlns="http://www.w3.org/2000/svg" xmlns:xlink="http://www.w3.org/1999/xlink" x="0px" y="0px"
	 viewBox="0 0 360 360" style="enable-background:new 0 0 360 360;" xml:space="preserve">
<style type="text/css">
	.st0{fill:#FFFFFF;}
</style>
<g>
	<path class="st0" d="M0.2,360.5c0-120.1,0-240.2,0-360.2c120.1,0,240.2,0,360.2,0c0,120.1,0,240.2,0,360.2
		C240.4,360.5,120.3,360.5,0.2,360.5z M248.9,266.3c0.3,0,0.4,0,0.5-0.1c5.5-1.8,11.1-3.7,16.6-5.5c0.3-0.1,0.6-0.7,0.6-1
		c-0.1-4.2-0.3-8.3-0.4-12.5c-0.2-11.9-0.4-23.8-0.5-35.7c-0.1-7.9-0.1-15.8-0.2-23.8c0-13.1-0.1-26.2-0.1-39.4
		c0-0.7,0.2-1.1,0.8-1.4c3-2,6-4,9-6c0.3-0.2,0.5-0.4,0.9-0.7c-6.3-5.5-12.6-11-18.9-16.5c-3.3,3.7-6.5,7.2-9.7,10.8
		c-0.7,0.8-1.4,1-2.4,1c-42.2,0-84.5,0-126.7,0c-0.8,0-1.8-0.2-2.5-0.6c-5.9-2.7-11.8-5.5-17.7-8.3c-0.4-0.2-0.8-0.3-1.1-0.5
		c1.4,47.9,1.4,95.7,0,143.6c0.4-0.1,0.7-0.2,1.1-0.4c5-2,9.9-4,14.9-5.9c1.2-0.4,1.7-1,1.6-2.3c-0.1-1.8,0-3.6,0-5.3
		c44.8,0,89.5,0,134.2,0C248.9,259.4,248.9,262.8,248.9,266.3z M207.7,268.7c0.5,0.2,0.9,0.4,1.3,0.6c16.7,7.2,32.8,15.5,47.8,25.9
		c7.9,5.5,15.6,11.3,22.2,18.4c1.1,1.1,2.3,2.1,3.6,2.9c2.9,1.8,5.4,1.2,7-1.7c2.9-5.2,3.5-10.7,0.8-16.2
		c-2.3-4.8-6.2-8.1-10.6-10.8c-5.3-3.3-11.1-5.5-16.9-7.6c-15-5.5-30.3-9.8-45.7-13.9c-2.8-0.7-5.5-1.5-8.4-2.2
		C208.5,265.6,208.1,267.1,207.7,268.7z M67.5,318.2c0.4-0.1,0.7-0.2,1-0.3c5.7-2.1,11.5-4,17.2-6.3c14.6-5.7,28.4-13,42.2-20.2
		c10.6-5.5,21.4-10.9,33.8-12.3c-5.9-6.7-11.7-13.3-17.5-19.9c-0.1,0.1-0.2,0.1-0.3,0.2c-4.7,5.9-10.3,10.8-16.2,15.5
		c-16.8,13.4-34.9,24.7-53.8,35c-2.9,1.6-5.8,3.1-8.8,4.7C66,315.9,66.7,317,67.5,318.2z"/>
	<path d="M248.9,266.3c0-3.5,0-6.9,0-10.4c-44.7,0-89.4,0-134.2,0c0,1.7-0.1,3.5,0,5.3c0.1,1.3-0.4,1.8-1.6,2.3
		c-5,1.9-9.9,3.9-14.9,5.9c-0.4,0.1-0.7,0.3-1.1,0.4c1.4-47.9,1.4-95.7,0-143.6c0.4,0.2,0.7,0.3,1.1,0.5c5.9,2.8,11.8,5.6,17.7,8.3
		c0.8,0.4,1.7,0.5,2.5,0.6c42.2,0,84.5,0,126.7,0c1,0,1.7-0.3,2.4-1c3.2-3.6,6.4-7.1,9.7-10.8c6.3,5.5,12.5,11,18.9,16.5
		c-0.3,0.3-0.6,0.5-0.9,0.7c-3,2-6,4-9,6c-0.6,0.4-0.8,0.8-0.8,1.4c0,13.1,0.1,26.2,0.1,39.4c0,7.9,0.1,15.8,0.2,23.8
		c0.1,11.9,0.3,23.8,0.5,35.7c0.1,4.2,0.3,8.3,0.4,12.5c0,0.4-0.3,0.9-0.6,1c-5.5,1.9-11,3.7-16.6,5.5
		C249.4,266.2,249.2,266.2,248.9,266.3z M248.9,217c-44.8,0-89.4,0-134.1,0c0,10.6,0,21.1,0,31.5c44.7,0,89.4,0,134.1,0
		C248.9,238,248.9,227.5,248.9,217z M114.8,179.3c0,10.2,0,20.3,0,30.4c44.7,0,89.4,0,134,0c0-10.2,0-20.3,0-30.4
		C204.1,179.3,159.5,179.3,114.8,179.3z M248.9,142.8c-44.8,0-89.4,0-134.1,0c0,9.8,0,19.5,0,29.2c44.7,0,89.4,0,134.1,0
		C248.9,162.3,248.9,152.6,248.9,142.8z"/>
	<path d="M207.7,268.7c0.4-1.6,0.8-3.1,1.2-4.8c2.8,0.8,5.6,1.5,8.4,2.2c15.4,4.1,30.7,8.5,45.7,13.9c5.8,2.1,11.6,4.4,16.9,7.6
		c4.4,2.7,8.3,6,10.6,10.8c2.7,5.5,2.1,11-0.8,16.2c-1.6,2.9-4.1,3.5-7,1.7c-1.3-0.8-2.6-1.8-3.6-2.9c-6.7-7-14.3-12.9-22.2-18.4
		c-15-10.3-31.1-18.6-47.8-25.9C208.6,269.1,208.3,268.9,207.7,268.7z"/>
	<path d="M67.5,318.2c-0.8-1.2-1.6-2.3-2.4-3.5c3-1.6,5.9-3.2,8.8-4.7c18.9-10.2,37-21.5,53.8-35c5.8-4.7,11.5-9.5,16.2-15.5
		c0-0.1,0.1-0.1,0.3-0.2c5.8,6.6,11.6,13.2,17.5,19.9c-12.4,1.3-23.2,6.7-33.8,12.3c-13.8,7.2-27.6,14.5-42.2,20.2
		c-5.7,2.2-11.5,4.2-17.2,6.3C68.2,318,67.9,318.1,67.5,318.2z"/>
	<path class="st0" d="M248.9,217c0,10.5,0,21,0,31.5c-44.7,0-89.3,0-134.1,0c0-10.5,0-21,0-31.5C159.4,217,204.1,217,248.9,217z"/>
	<path class="st0" d="M114.8,179.3c44.7,0,89.3,0,134,0c0,10.1,0,20.2,0,30.4c-44.6,0-89.3,0-134,0
		C114.8,199.6,114.8,189.5,114.8,179.3z"/>
	<path class="st0" d="M248.9,142.8c0,9.8,0,19.5,0,29.2c-44.7,0-89.4,0-134.1,0c0-9.7,0-19.4,0-29.2
		C159.4,142.8,204.1,142.8,248.9,142.8z"/>
</g>
</svg>
