<?xml version="1.0" encoding="utf-8"?>
<!-- Generator: Adobe Illustrator 20.1.0, SVG Export Plug-In . SVG Version: 6.00 Build 0)  -->
<svg version="1.1" id="图层_1" xmlns="http://www.w3.org/2000/svg" xmlns:xlink="http://www.w3.org/1999/xlink" x="0px" y="0px"
	 viewBox="0 0 360 360" style="enable-background:new 0 0 360 360;" xml:space="preserve">
<style type="text/css">
	.st0{fill:#FFFFFF;}
</style>
<g>
	<path class="st0" d="M0.2,360.5c0-120.1,0-240.2,0-360.2c120.1,0,240.2,0,360.2,0c0,120.1,0,240.2,0,360.2
		C240.4,360.5,120.3,360.5,0.2,360.5z M139.4,227.6c0,5.8,0,11.6,0,17.5c0.6-0.3,0.9-0.4,1.3-0.6c4.3-2.3,8.6-4.6,12.9-6.9
		c0.9-0.5,1.2-1,1.2-2c0-20,0-40.1,0-60.1c0-33.3,0-66.6,0-99.8c0-0.9,0.2-1.5,1.1-2c2.5-1.5,5-3.1,7.4-4.6c0.3-0.2,0.5-0.4,0.9-0.6
		c-5.5-5.1-11-10.2-16.5-15.3c-0.3,0.3-0.6,0.6-0.8,0.9c-2.6,2.9-5.2,5.8-7.8,8.8c-0.6,0.7-1.2,0.9-2.1,0.9c-19.2,0-38.5,0-57.7,0
		c-0.7,0-1.6-0.3-2.2-0.6c-5.2-3-10.3-6.1-15.4-9.2c-0.3-0.2-0.7-0.4-1.1-0.6c1.5,64.8,1.4,129.5,0,194.3c5.5-2.4,11-4.7,16.5-7.1
		c0-4.3,0-8.6,0-12.8C97.9,227.6,118.6,227.6,139.4,227.6z M44.1,312.2c0.1-0.1,0.2-0.2,0.4-0.3c10.4-8.3,20.5-17,30-26.4
		c5.6-5.5,10.9-11.3,16.6-16.7c4.7-4.4,9.4-8.9,16.4-9.9c-7-5.1-13.9-10.1-20.9-15.1c-0.1,0.2-0.2,0.3-0.3,0.4
		c-2.1,6.4-5.5,12-9.1,17.6c-8.4,13.5-18.4,25.7-28.8,37.7c-2.6,3-5.3,6-7.8,8.9C41.7,309.8,42.9,311,44.1,312.2z M120.6,249.9
		c2,2.3,4,4.6,5.9,6.9c9.6,11.5,18.4,23.5,22.4,38.4c0.7,2.8,2,5.4,4.1,7.5c1.7,1.6,3.6,1.9,5.4,0.5c1.5-1.2,3.1-2.6,4.2-4.2
		c2.9-4.3,2.6-9.1,1.1-13.8c-2.1-6.4-6-11.8-10.7-16.5c-6.6-6.7-14.2-12.2-21.9-17.5c-2.3-1.6-4.7-3.2-6.9-4.7
		C123,247.5,121.9,248.7,120.6,249.9z"/>
	<path d="M139.4,227.6c-20.8,0-41.5,0-62.3,0c0,4.3,0,8.6,0,12.8c-5.5,2.4-11,4.7-16.5,7.1c1.4-64.8,1.5-129.5,0-194.3
		c0.4,0.2,0.7,0.4,1.1,0.6c5.1,3.1,10.3,6.2,15.4,9.2c0.6,0.4,1.5,0.6,2.2,0.6c19.2,0,38.5,0,57.7,0c0.9,0,1.5-0.2,2.1-0.9
		c2.6-3,5.2-5.9,7.8-8.8c0.3-0.3,0.5-0.6,0.8-0.9c5.5,5.1,10.9,10.2,16.5,15.3c-0.3,0.2-0.6,0.5-0.9,0.6c-2.5,1.6-4.9,3.1-7.4,4.6
		c-0.8,0.5-1.1,1.1-1.1,2c0,33.3,0,66.6,0,99.8c0,20,0,40.1,0,60.1c0,1-0.3,1.5-1.2,2c-4.3,2.3-8.6,4.6-12.9,6.9
		c-0.4,0.2-0.8,0.4-1.3,0.6C139.4,239.2,139.4,233.4,139.4,227.6z M77.1,173.3c0,15.7,0,31.3,0,47c20.8,0,41.5,0,62.2,0
		c0-15.7,0-31.3,0-47C118.6,173.3,97.9,173.3,77.1,173.3z M77.1,115.4c20.8,0,41.5,0,62.2,0c0-14.9,0-29.7,0-44.5
		c-20.8,0-41.5,0-62.2,0C77.1,85.7,77.1,100.5,77.1,115.4z M139.3,166.1c0-14.5,0-29,0-43.4c-20.8,0-41.5,0-62.2,0
		c0,14.5,0,28.9,0,43.4C97.9,166.1,118.6,166.1,139.3,166.1z"/>
	<path d="M44.1,312.2c-1.2-1.2-2.4-2.4-3.6-3.6c2.6-2.9,5.2-5.9,7.8-8.9c10.4-12,20.4-24.2,28.8-37.7c3.5-5.6,7-11.3,9.1-17.6
		c0-0.1,0.1-0.2,0.3-0.4c6.9,5,13.8,10,20.9,15.1c-7,0.9-11.7,5.5-16.4,9.9c-5.7,5.4-11,11.2-16.6,16.7c-9.5,9.4-19.5,18.1-30,26.4
		C44.4,312.1,44.2,312.1,44.1,312.2z"/>
	<path d="M120.6,249.9c1.2-1.2,2.4-2.3,3.6-3.6c2.3,1.5,4.6,3.1,6.9,4.7c7.7,5.3,15.3,10.8,21.9,17.5c4.7,4.8,8.6,10.1,10.7,16.5
		c1.5,4.7,1.8,9.5-1.1,13.8c-1.1,1.6-2.6,3-4.2,4.2c-1.8,1.4-3.8,1.1-5.4-0.5c-2.1-2.1-3.4-4.7-4.1-7.5c-4-14.8-12.8-26.8-22.4-38.4
		C124.6,254.4,122.6,252.2,120.6,249.9z"/>
	<path class="st0" d="M77.1,173.3c20.8,0,41.4,0,62.2,0c0,15.7,0,31.3,0,47c-20.7,0-41.4,0-62.2,0C77.1,204.7,77.1,189,77.1,173.3z"
		/>
	<path class="st0" d="M77.1,115.4c0-14.9,0-29.7,0-44.5c20.7,0,41.4,0,62.2,0c0,14.8,0,29.6,0,44.5
		C118.6,115.4,97.9,115.4,77.1,115.4z"/>
	<path class="st0" d="M139.3,166.1c-20.7,0-41.4,0-62.2,0c0-14.5,0-28.9,0-43.4c20.7,0,41.4,0,62.2,0
		C139.3,137.1,139.3,151.6,139.3,166.1z"/>
</g>
</svg>
