<?xml version="1.0" encoding="utf-8"?>
<!-- Generator: Adobe Illustrator 20.1.0, SVG Export Plug-In . SVG Version: 6.00 Build 0)  -->
<svg version="1.1" id="图层_1" xmlns="http://www.w3.org/2000/svg" xmlns:xlink="http://www.w3.org/1999/xlink" x="0px" y="0px"
	 viewBox="0 0 360 360" style="enable-background:new 0 0 360 360;" xml:space="preserve">
<style type="text/css">
	.st0{fill:#FFFFFF;}
</style>
<g>
	<path class="st0" d="M0.2,360.5c0-120.1,0-240.2,0-360.2c120.1,0,240.2,0,360.2,0c0,120.1,0,240.2,0,360.2
		C240.4,360.5,120.3,360.5,0.2,360.5z M163,101.4c-6.8-5.2-13.4-10.2-20.1-15.3c-6.3,16.4-14.7,31.4-23.3,46.5
		c-0.1-0.3-0.2-0.6-0.2-0.9c0-18.3,0-36.6,0-55c0-0.9,0.3-1.2,1.2-1.4c4-0.8,8-1.8,12.1-2.6c7.2-1.4,14.4-2.7,21.7-3
		c2.4-0.1,4.8,0,7.5,0c-5.6-6.8-11-13.4-16.4-20c-0.2,0.1-0.3,0.1-0.4,0.2c-7.2,5.5-15.3,9.3-23.7,12.4c-20.2,7.5-41.1,12-62.3,15.6
		c-2.6,0.4-5.3,0.8-7.9,1.3c0,1.6,0,3.1,0,4.9c17.7-2,35.2-3.9,52.8-5.9c0,23.9,0,47.7,0,71.7c-19.2,0-38.2,0-57.7,0
		c3.6,3.6,7,7,10.3,10.3c0.2,0.2,0.7,0.2,1,0.1c13.6-3.7,27.5-3.5,41.3-3.4c0.1,0,0.2,0,0.3,0.1c-0.1,0.4-0.2,0.8-0.3,1.1
		c-2.4,8.5-5.4,16.9-8.9,25c-8.8,20.6-20,39.7-32.6,58.1c-4.5,6.6-9.4,13.1-14,19.6c-0.2,0.3-0.5,1-0.3,1.3c0.6,1.1,1.3,2.1,2,3.2
		c23.3-22.5,42.8-47.8,58.6-76c0.2,0,0.3,0.1,0.5,0.1c-0.4,42.9-0.7,85.7-1.1,128.7c0.4-0.2,0.8-0.3,1.2-0.5
		c4.7-2.2,9.5-4.5,14.2-6.6c1.5-0.7,2.1-1.4,2.1-3.2c-0.4-13.3-0.6-26.5-0.8-39.8c-0.1-8.8-0.2-17.5-0.2-26.3
		c-0.1-18.8-0.1-37.7-0.1-56.5c0-0.3,0.1-0.6,0.1-0.9c0.2,0.1,0.3,0.2,0.4,0.3c8.6,8.1,15.7,17.2,20.7,27.9c1,2.1,2.2,4.2,3.7,6
		c2.2,2.8,4.7,2.7,6.5-0.4c1.4-2.5,2.6-5.2,3.3-8c1.5-5.5,0.7-10.7-3.4-15c-1.8-1.9-3.9-3.4-6.1-4.8c-7.6-5-15.8-8.6-24.3-11.8
		c-0.7-0.3-1-0.6-1-1.4c0-6.3,0-12.6,0-19c0-0.4,0-0.8,0.1-1.2c19.2,0,38.2,0,57.6,0c-6.4-7.2-12.6-14.2-18.9-21.2
		c-4.2,4.5-8.2,8.9-12.2,13.4c-0.6,0.6-1.1,0.9-2,0.9c-7.8,0-15.5,0-23.3,0c-0.4,0-0.8,0-1.3,0c0-2.4,0.1-4.5,0-6.7
		c0-1.1,0.3-1.9,1.1-2.8c5.7-6.1,11.4-12.3,17.1-18.5c3.9-4.3,7.7-8.6,11.8-12.7C153.2,105.4,157.5,102.5,163,101.4z M60.5,96.7
		c1.3,2.6,2.6,5.1,3.8,7.7c3.8,8.1,7,16.3,8.8,25.1c0.5,2.6,1,5.3,2,7.7c1.3,3.3,3.7,3.9,6.6,1.8c3.5-2.7,6.1-6.1,7.6-10.2
		c1.3-3.5,1-7-0.7-10.3c-0.9-1.7-1.9-3.2-3.1-4.7c-3.7-4.8-8.3-8.7-13-12.4c-3.1-2.5-6.4-4.8-9.6-7.2C62,95.1,61.3,95.9,60.5,96.7z"
		/>
	<path d="M163,101.4c-5.6,1.1-9.9,4-13.6,7.7c-4.1,4.1-7.9,8.5-11.8,12.7c-5.7,6.2-11.4,12.4-17.1,18.5c-0.8,0.8-1.1,1.6-1.1,2.8
		c0.1,2.2,0,4.3,0,6.7c0.5,0,0.9,0,1.3,0c7.8,0,15.5,0,23.3,0c0.8,0,1.4-0.2,2-0.9c4-4.4,8.1-8.8,12.2-13.4c6.3,7,12.5,14,18.9,21.2
		c-19.3,0-38.4,0-57.6,0c0,0.5-0.1,0.9-0.1,1.2c0,6.3,0,12.6,0,19c0,0.8,0.3,1.2,1,1.4c8.4,3.2,16.7,6.8,24.3,11.8
		c2.2,1.4,4.3,3,6.1,4.8c4.1,4.2,4.9,9.5,3.4,15c-0.8,2.8-1.9,5.5-3.3,8c-1.8,3-4.3,3.1-6.5,0.4c-1.4-1.8-2.7-3.9-3.7-6
		c-5-10.8-12.1-19.9-20.7-27.9c-0.1-0.1-0.2-0.1-0.4-0.3c0,0.4-0.1,0.7-0.1,0.9c0,18.8,0,37.7,0.1,56.5c0,8.8,0.1,17.5,0.2,26.3
		c0.2,13.3,0.4,26.5,0.8,39.8c0.1,1.8-0.5,2.6-2.1,3.2c-4.8,2.1-9.5,4.4-14.2,6.6c-0.4,0.2-0.8,0.3-1.2,0.5
		c0.4-42.9,0.7-85.8,1.1-128.7c-0.2,0-0.3-0.1-0.5-0.1c-15.8,28.2-35.3,53.5-58.6,76c-0.7-1.1-1.5-2.1-2-3.2c-0.2-0.3,0.1-1,0.3-1.3
		c4.7-6.5,9.5-13,14-19.6c12.6-18.4,23.9-37.6,32.6-58.1c3.5-8.2,6.5-16.5,8.9-25c0.1-0.4,0.2-0.8,0.3-1.1c-0.2-0.1-0.2-0.1-0.3-0.1
		c-13.9-0.1-27.8-0.3-41.3,3.4c-0.3,0.1-0.8,0-1-0.1c-3.4-3.3-6.7-6.7-10.3-10.3c19.4,0,38.5,0,57.7,0c0-24,0-47.8,0-71.7
		c-17.6,2-35.2,3.9-52.8,5.9c0-1.8,0-3.3,0-4.9c2.6-0.4,5.2-0.8,7.9-1.3c21.2-3.5,42.1-8.1,62.3-15.6c8.4-3.1,16.5-6.9,23.7-12.4
		c0.1-0.1,0.2-0.1,0.4-0.2c5.4,6.6,10.8,13.2,16.4,20c-2.6,0-5.1-0.1-7.5,0c-7.3,0.3-14.5,1.6-21.7,3c-4,0.8-8,1.8-12.1,2.6
		c-0.9,0.2-1.2,0.5-1.2,1.4c0,18.3,0,36.6,0,55c0,0.3,0,0.6,0.2,0.9c8.6-15,17.1-30.1,23.3-46.5C149.7,91.2,156.3,96.2,163,101.4z"
		/>
	<path d="M60.5,96.7c0.8-0.8,1.5-1.5,2.4-2.4c3.2,2.4,6.4,4.7,9.6,7.2c4.7,3.7,9.3,7.6,13,12.4c1.1,1.5,2.2,3.1,3.1,4.7
		c1.7,3.3,1.9,6.8,0.7,10.3c-1.5,4.2-4.1,7.6-7.6,10.2c-2.8,2.2-5.3,1.5-6.6-1.8c-0.9-2.5-1.4-5.1-2-7.7c-1.8-8.8-5-17.1-8.8-25.1
		C63.1,101.8,61.8,99.2,60.5,96.7z"/>
</g>
</svg>
