<?xml version="1.0" encoding="utf-8"?>
<!-- Generator: Adobe Illustrator 20.1.0, SVG Export Plug-In . SVG Version: 6.00 Build 0)  -->
<svg version="1.1" id="图层_1" xmlns="http://www.w3.org/2000/svg" xmlns:xlink="http://www.w3.org/1999/xlink" x="0px" y="0px"
	 viewBox="0 0 360 360" style="enable-background:new 0 0 360 360;" xml:space="preserve">
<style type="text/css">
	.st0{fill:#FFFFFF;}
</style>
<g>
	<path class="st0" d="M0.2,360.5c0-120.1,0-240.2,0-360.2c120.1,0,240.2,0,360.2,0c0,120.1,0,240.2,0,360.2
		C240.4,360.5,120.3,360.5,0.2,360.5z M60.5,282.9c3.4-2.3,7.1-3.7,10.9-4.9c11.1-3.5,22.5-5.5,33.9-7.2c8.8-1.3,17.7-2.4,26.6-3.5
		c2.5-0.3,5-0.5,7.5-0.8c1.2,3.7,2.4,7.2,3.7,10.8c0.8,2.4,1.6,4.8,2.6,7.1c0.8,2,2.3,2.3,4.1,1c0.4-0.3,0.7-0.6,1-0.9
		c2.4-2.4,4.2-5.2,5.5-8.3c1.7-3.9,2.1-7.9,1.2-12.1c-1-4.9-3.7-9-6.8-12.8c-6.4-7.8-13.8-14.6-21.4-21.3c-0.9-0.8-2-2.2-3-2.2
		c-1.1,0-2.2,1.3-3.3,2c0,0,0,0.1-0.1,0.1c5.5,9.3,10.7,18.8,14.1,29.4c-22.7,1.5-45.3,2.3-68.1,2.4c0.4-0.4,0.6-0.7,0.8-0.9
		c4.6-4.6,9.2-9.2,13.8-13.9c5.9-6,11.9-12,17.6-18.2c5.5-6,12-10.3,19.8-12.7c0.2-0.1,0.5-0.2,0.8-0.3c-5.4-4.7-10.8-9.2-16.4-14
		c22.1,0,43.9,0,65.9,0c-5.3-6.1-10.3-11.9-15.4-17.8c-4.9,3.4-9.7,6.7-14.5,10c-0.5,0.4-1.3,0.6-2,0.6c-14.5,0-29,0-43.4,0
		c-0.4,0-0.8,0-1.3,0c0-12.2,0-24.3,0-36.5c20,0,39.9,0,60,0c-5.2-6.4-10.3-12.6-15.4-18.9c-4.1,3.7-8.1,7.4-12.1,11
		c-0.5,0.4-1.3,0.8-2,0.8c-9.8,0-19.5,0-29.3,0c-0.4,0-0.8,0-1.3-0.1c0-11,0-21.8,0-32.8c20,0,39.9,0,60.1,0
		c-5.2-6.1-10.3-11.9-15.4-17.8c-3.8,3.4-7.4,6.7-11.1,9.9c-0.5,0.4-1.2,0.7-1.8,0.7c-10.2,0-20.4,0-30.6,0c-0.4,0-0.8,0-1.2,0
		c0-11.8,0-23.5,0-35.3c23.5,0,47,0,70.7,0c-5.6-6.4-11.1-12.7-16.6-18.9c-0.3,0.3-0.6,0.4-0.8,0.7c-3.8,3.4-7.6,6.9-11.3,10.3
		c-0.6,0.5-1.2,0.8-2,0.8c-13,0-26,0-39,0c-0.7,0-1.4-0.2-2-0.6c-4.8-2.7-9.6-5.5-14.4-8.2c-0.4-0.2-0.7-0.4-1.2-0.7
		c1,45.3,1.1,90.3,1.2,135.5c-11.8,0-23.4,0-35.4,0c3.4,3.4,6.7,6.6,9.8,9.8c0.6,0.6,1.2,0.7,2,0.5c6.4-1.7,12.8-2.8,19.4-3
		c7.8-0.2,15.6-0.2,23.4-0.3c0.2,0,0.4,0,0.6,0c0,0.2,0,0.3,0,0.4c-0.4,1.1-0.9,2.2-1.4,3.3c-4.7,10.8-10.9,20.7-17.5,30.4
		c-4.3,6.4-8.9,12.6-14.6,17.9c-3.5,3.3-7.3,6.1-11.9,7.6c-0.5,0.1-1,0.3-1.5,0.5C55,268.8,57.7,275.8,60.5,282.9z"/>
	<path d="M60.5,282.9c-2.8-7.1-5.5-14.1-8.2-21.2c0.5-0.2,1-0.3,1.5-0.5c4.7-1.4,8.4-4.3,11.9-7.6c5.7-5.3,10.3-11.5,14.6-17.9
		c6.6-9.7,12.7-19.6,17.5-30.4c0.5-1.1,0.9-2.2,1.4-3.3c0-0.1,0-0.2,0-0.4c-0.2,0-0.4,0-0.6,0c-7.8,0.1-15.6,0-23.4,0.3
		c-6.6,0.2-13,1.3-19.4,3c-0.8,0.2-1.4,0.1-2-0.5c-3.2-3.2-6.4-6.4-9.8-9.8c11.9,0,23.6,0,35.4,0c0-45.2-0.2-90.3-1.2-135.5
		c0.5,0.3,0.9,0.5,1.2,0.7c4.8,2.7,9.6,5.5,14.4,8.2c0.6,0.3,1.3,0.6,2,0.6c13,0,26,0,39,0c0.8,0,1.4-0.3,2-0.8
		c3.8-3.5,7.6-6.9,11.3-10.3c0.2-0.2,0.5-0.4,0.8-0.7c5.5,6.3,10.9,12.5,16.6,18.9c-23.7,0-47.2,0-70.7,0c0,11.8,0,23.5,0,35.3
		c0.4,0,0.8,0,1.2,0c10.2,0,20.4,0,30.6,0c0.6,0,1.3-0.3,1.8-0.7c3.7-3.2,7.3-6.5,11.1-9.9c5.1,5.9,10.2,11.7,15.4,17.8
		c-20.2,0-40.1,0-60.1,0c0,11,0,21.8,0,32.8c0.4,0,0.8,0.1,1.3,0.1c9.8,0,19.5,0,29.3,0c0.7,0,1.5-0.3,2-0.8c4-3.6,8-7.2,12.1-11
		c5.1,6.3,10.1,12.5,15.4,18.9c-20.2,0-40,0-60,0c0,12.2,0,24.3,0,36.5c0.4,0,0.8,0,1.3,0c14.5,0,29,0,43.4,0c0.7,0,1.4-0.2,2-0.6
		c4.8-3.3,9.6-6.6,14.5-10c5.1,5.9,10.1,11.7,15.4,17.8c-22.1,0-43.8,0-65.9,0c5.6,4.8,10.9,9.4,16.4,14c-0.3,0.1-0.6,0.3-0.8,0.3
		c-7.8,2.4-14.3,6.8-19.8,12.7c-5.7,6.2-11.7,12.1-17.6,18.2c-4.6,4.7-9.2,9.2-13.8,13.9c-0.2,0.2-0.4,0.5-0.8,0.9
		c22.8,0,45.4-0.8,68.1-2.4c-3.3-10.6-8.6-20-14.1-29.4c0.1-0.1,0.1-0.1,0.1-0.1c1.1-0.7,2.2-2,3.3-2c1,0,2,1.3,3,2.2
		c7.6,6.7,15,13.4,21.4,21.3c3.1,3.8,5.8,7.9,6.8,12.8c0.9,4.2,0.4,8.2-1.2,12.1c-1.3,3.1-3.2,5.9-5.5,8.3c-0.3,0.3-0.6,0.6-1,0.9
		c-1.7,1.3-3.2,1-4.1-1c-1-2.3-1.8-4.7-2.6-7.1c-1.2-3.5-2.4-7.1-3.7-10.8c-2.5,0.3-5,0.5-7.5,0.8c-8.9,1.2-17.8,2.2-26.6,3.5
		c-11.5,1.7-22.9,3.7-33.9,7.2C67.6,279.1,63.9,280.6,60.5,282.9z"/>
</g>
</svg>
