<?xml version="1.0" encoding="utf-8"?>
<!-- Generator: Adobe Illustrator 20.1.0, SVG Export Plug-In . SVG Version: 6.00 Build 0)  -->
<svg version="1.1" id="图层_1" xmlns="http://www.w3.org/2000/svg" xmlns:xlink="http://www.w3.org/1999/xlink" x="0px" y="0px"
	 viewBox="0 0 360 360" style="enable-background:new 0 0 360 360;" xml:space="preserve">
<style type="text/css">
	.st0{fill:#FFFFFF;}
</style>
<g>
	<path class="st0" d="M-0.1,360.1c0-120.1,0-240.2,0-360.2c120.1,0,240.2,0,360.2,0c0,120.1,0,240.2,0,360.2
		C240,360.1,120,360.1-0.1,360.1z M109.8,253c-0.4,21.3-0.8,42.4-1.1,63.6c5-1.4,10.1-2.9,15.1-4.3c1-0.3,1.2-0.7,1.1-1.7
		c-0.3-7.6-0.7-15.2-0.9-22.9c-0.2-11.1-0.2-22.2-0.3-33.2c0-0.5,0-0.9,0-1.5c19.6,0,39.1,0,59,0c-6.4-6.8-12.7-13.4-18.9-20.1
		c-0.4,0.3-0.6,0.5-0.8,0.7c-4.2,3.9-8.4,7.7-12.7,11.6c-0.4,0.4-1.2,0.7-1.8,0.7c-7.9,0-15.8,0-23.6,0c-0.4,0-0.8,0-1.1-0.1
		c0-10.6,0-21.1,0-31.6c9.8,0,19.5,0,29.4,0c0,3.9,0,7.7,0,11.7c5.1-2,10-3.8,14.9-5.8c0.2-0.1,0.4-0.6,0.4-0.9
		c-0.2-4.6-0.5-9.3-0.6-13.9c-0.2-11.5-0.4-23-0.5-34.5c-0.1-12.3,0-24.6-0.1-37c0-0.3,0-0.6,0-1c3.9-1.6,7.8-3.1,11.8-4.7
		c-6.4-6-12.6-11.8-18.9-17.7c-3.7,3.7-7.4,7.4-11,11c-0.5,0.4-1.2,0.8-1.8,0.8c-7.4,0.1-14.9,0-22.3,0c-0.4,0-0.8,0-1.2-0.1
		c0-11,0-21.9,0-32.9c21.5,0,43,0,64.8,0c-6.4-6.8-12.6-13.4-18.9-20.1c-0.4,0.3-0.7,0.6-1,0.9c-3.8,3.8-7.5,7.5-11.3,11.3
		c-0.4,0.4-1.2,0.7-1.7,0.7c-10.2,0-20.4,0-30.6,0c-0.4,0-0.8,0-1.2-0.1c-0.1-0.2-0.1-0.3-0.1-0.4c0-7.8,0-15.7,0-23.5
		c0-0.4,0.4-0.9,0.8-1.1c2.3-1.3,4.6-2.5,6.8-3.7c1.7-1,3.5-1.9,5.4-3c-9.5-4-18.9-7.9-28.4-11.8c0.7,14.6,1.2,29.1,1.1,43.7
		c-20.4,0-40.7,0-61.2,0c3.3,3.3,6.5,6.5,9.6,9.6c0.7,0.8,1.4,0.9,2.4,0.7c6.9-1.9,13.9-3.2,21-3.2c9,0,17.9,0,26.9,0
		c0.4,0,0.8,0,1.3,0.1c0,11,0,21.9,0,32.8c-0.3,0-0.5,0-0.8,0c-9.6,0-19.3,0-28.9,0c-0.5,0-1.1-0.2-1.5-0.5
		c-4.6-3.1-9.1-6.3-13.6-9.4c-0.3-0.2-0.6-0.3-0.9-0.5c1.4,39.6,1.4,79.2,0,118.8c0.4-0.1,0.7-0.2,1-0.3c3.7-1.1,7.4-2.3,11.1-3.4
		c1-0.3,2.4-0.4,2.9-1.1c0.5-0.7,0.2-2.1,0.2-3.1c0-2.8,0-5.6,0-8.4c10.2,0,20.3,0,30.5,0c0,10.6,0,21,0,31.7c-21.9,0-43.8,0-65.9,0
		c0.4,0.5,0.7,0.8,1,1c2.5,2.5,5.1,4.9,7.4,7.5c1.5,1.8,3,2,5.2,1.4c5.6-1.6,11.4-2.7,17.2-2.8c11.3-0.1,22.6,0,33.8-0.1
		C108.7,253,109.1,253,109.8,253z"/>
	<path d="M109.8,253c-0.7,0-1.1,0-1.5,0c-11.3,0-22.6,0-33.8,0.1c-5.9,0-11.6,1.2-17.2,2.8c-2.2,0.6-3.6,0.4-5.2-1.4
		c-2.3-2.6-4.9-5-7.4-7.5c-0.3-0.3-0.5-0.6-1-1c22.1,0,44,0,65.9,0c0-10.6,0-21.1,0-31.7c-10.2,0-20.3,0-30.5,0c0,2.8,0,5.6,0,8.4
		c0,1.1,0.3,2.4-0.2,3.1c-0.5,0.7-1.9,0.8-2.9,1.1c-3.7,1.1-7.4,2.3-11.1,3.4c-0.3,0.1-0.6,0.2-1,0.3c1.4-39.6,1.4-79.2,0-118.8
		c0.3,0.2,0.6,0.3,0.9,0.5c4.5,3.1,9.1,6.3,13.6,9.4c0.4,0.3,1,0.5,1.5,0.5c9.6,0,19.3,0,28.9,0c0.2,0,0.5,0,0.8,0
		c0-11,0-21.8,0-32.8c-0.4,0-0.9-0.1-1.3-0.1c-9,0-17.9,0-26.9,0c-7.2,0-14.1,1.4-21,3.2c-1,0.3-1.7,0.1-2.4-0.7
		c-3.1-3.2-6.3-6.3-9.6-9.6c20.5,0,40.8,0,61.2,0c0.1-14.6-0.4-29-1.1-43.7c9.5,4,18.8,7.8,28.4,11.8c-1.9,1-3.6,2-5.4,3
		c-2.3,1.2-4.6,2.5-6.8,3.7c-0.4,0.2-0.8,0.7-0.8,1.1c0,7.8,0,15.7,0,23.5c0,0.1,0,0.2,0.1,0.4c0.4,0,0.8,0.1,1.2,0.1
		c10.2,0,20.4,0,30.6,0c0.6,0,1.3-0.3,1.7-0.7c3.8-3.7,7.5-7.5,11.3-11.3c0.3-0.3,0.6-0.6,1-0.9c6.2,6.6,12.5,13.2,18.9,20.1
		c-21.8,0-43.2,0-64.8,0c0,11,0,21.9,0,32.9c0.4,0,0.8,0.1,1.2,0.1c7.4,0,14.9,0,22.3,0c0.6,0,1.4-0.3,1.8-0.8
		c3.7-3.6,7.3-7.3,11-11c6.3,5.9,12.6,11.8,18.9,17.7c-4,1.6-7.9,3.2-11.8,4.7c0,0.4,0,0.7,0,1c0,12.3,0,24.6,0.1,37
		c0.1,11.5,0.3,23,0.5,34.5c0.1,4.6,0.4,9.3,0.6,13.9c0,0.3-0.2,0.8-0.4,0.9c-4.9,1.9-9.8,3.8-14.9,5.8c0-4,0-7.8,0-11.7
		c-9.8,0-19.6,0-29.4,0c0,10.5,0,21,0,31.6c0.4,0,0.8,0.1,1.1,0.1c7.9,0,15.8,0,23.6,0c0.6,0,1.3-0.3,1.8-0.7
		c4.2-3.8,8.4-7.7,12.7-11.6c0.2-0.2,0.4-0.4,0.8-0.7c6.2,6.6,12.5,13.2,18.9,20.1c-19.8,0-39.3,0-59,0c0,0.6,0,1.1,0,1.5
		c0.1,11.1,0.1,22.2,0.3,33.2c0.1,7.6,0.5,15.3,0.9,22.9c0,0.9-0.1,1.4-1.1,1.7c-5.1,1.4-10.1,2.9-15.1,4.3
		C109,295.5,109.4,274.3,109.8,253z M79.1,129.4c0,12.2,0,24.3,0,36.3c10.2,0,20.3,0,30.4,0c0-12.2,0-24.2,0-36.3
		C99.4,129.4,89.3,129.4,79.1,129.4z M123.8,165.8c9.8,0,19.5,0,29.3,0c0-12.1,0-24.2,0-36.3c-9.8,0-19.5,0-29.3,0
		C123.8,141.6,123.8,153.6,123.8,165.8z M79.1,207c10.2,0,20.3,0,30.4,0c0-11.4,0-22.7,0-34c-10.2,0-20.3,0-30.4,0
		C79.1,184.3,79.1,195.6,79.1,207z M153.1,207c0-11.4,0-22.7,0-34c-9.8,0-19.5,0-29.3,0c0,11.4,0,22.6,0,34
		C133.6,207,143.3,207,153.1,207z"/>
	<path class="st0" d="M79.1,129.4c10.2,0,20.2,0,30.4,0c0,12.1,0,24.2,0,36.3c-10.1,0-20.2,0-30.4,0
		C79.1,153.7,79.1,141.6,79.1,129.4z"/>
	<path class="st0" d="M123.8,165.8c0-12.1,0-24.2,0-36.3c9.8,0,19.5,0,29.3,0c0,12.1,0,24.2,0,36.3
		C143.3,165.8,133.6,165.8,123.8,165.8z"/>
	<path class="st0" d="M79.1,207c0-11.3,0-22.6,0-34c10.1,0,20.2,0,30.4,0c0,11.3,0,22.6,0,34C99.4,207,89.3,207,79.1,207z"/>
	<path class="st0" d="M153.1,207c-9.8,0-19.5,0-29.3,0c0-11.4,0-22.6,0-34c9.8,0,19.5,0,29.3,0C153.1,184.3,153.1,195.6,153.1,207z"
		/>
</g>
</svg>
