<?xml version="1.0" encoding="utf-8"?>
<!-- Generator: Adobe Illustrator 20.1.0, SVG Export Plug-In . SVG Version: 6.00 Build 0)  -->
<svg version="1.1" id="图层_1" xmlns="http://www.w3.org/2000/svg" xmlns:xlink="http://www.w3.org/1999/xlink" x="0px" y="0px"
	 viewBox="0 0 360 360" style="enable-background:new 0 0 360 360;" xml:space="preserve">
<style type="text/css">
	.st0{fill:#FFFFFF;}
</style>
<g>
	<path class="st0" d="M-0.1,360.1c0-120.1,0-240.2,0-360.2c120.1,0,240.2,0,360.2,0c0,120.1,0,240.2,0,360.2
		C240,360.1,120,360.1-0.1,360.1z M172.2,316.6c5.4-1.8,10.9-3.7,16.3-5.4c1-0.3,1.2-0.7,1.1-1.7c-0.3-6.3-0.6-12.5-0.8-18.8
		c-0.2-5.1-0.2-10.2-0.3-15.3c0-1.9,0-3.8,0-5.9c41.6,0,83.1,0,124.9,0c-7.6-8.4-15-16.5-22.4-24.8c-0.4,0.4-0.7,0.7-1,1
		c-5.3,5.3-10.6,10.6-15.9,16c-0.6,0.6-1.1,0.8-1.9,0.8c-27.4,0-54.9,0-82.3,0c-0.4,0-0.8,0-1.3,0c0-11.8,0-23.5,0-35.2
		c22,0,43.9,0,65.9,0c0,4.3,0,8.5,0,12.7c0.2,0,0.3,0,0.4-0.1c5.2-2.9,10.3-5.9,15.5-8.9c0.3-0.2,0.6-0.8,0.5-1.3
		c-0.2-4.9-0.5-9.8-0.6-14.7c-0.2-10.3-0.4-20.5-0.5-30.8c-0.1-9.3,0-18.6-0.1-28c0-0.8,0.3-1.1,0.9-1.5c2.9-1.5,5.7-3.1,8.5-4.6
		c1.1-0.6,2.3-1.3,3.6-2c-6.4-6-12.6-11.8-18.9-17.7c-4.1,4.1-8.1,8.2-12.2,12.2c-0.4,0.4-1.2,0.7-1.7,0.7c-20,0-40.1,0-60.1,0
		c-0.4,0-0.8,0-1.2-0.1c0-9.4,0-18.7,0-28.2c31.8,0,63.4,0,95.4,0c-7.2-7.6-14.2-15-21.4-22.6c-0.3,0.4-0.5,0.8-0.9,1.1
		c-4.5,4.5-9,9-13.5,13.5c-0.6,0.6-1.1,0.8-2,0.8c-18.8,0-37.6,0-56.4,0c-0.4,0-0.8,0-1.2,0c-0.1-0.3-0.1-0.4-0.1-0.5
		c0-5.1,0-10.2,0-15.2c0-0.4,0.4-0.9,0.8-1.2c3.3-2.2,6.7-4.3,10-6.4c0.7-0.4,1.3-0.8,2.2-1.4c-10-3.6-19.7-7.1-29.5-10.6
		c0.7,11.9,1.2,23.6,1.1,35.4c-33.4,0-66.6,0-100.1,0c3.3,3.3,6.4,6.3,9.4,9.5c0.8,0.9,1.6,1.1,2.8,0.8c6.8-1.8,13.6-3.2,20.7-3.2
		c22,0,43.9,0,65.9,0c0.4,0,0.8,0,1.3,0.1c0,9.4,0,18.7,0,28.1c-0.4,0-0.8,0.1-1.1,0.1c-21.7,0-43.4,0-65,0c-0.6,0-1.3-0.2-1.8-0.5
		c-4.8-2.3-9.5-4.7-14.3-7.1c-0.4-0.2-0.8-0.4-1.2-0.5c1.2,36.3,1.6,72.5-0.1,108.7c0,0.2,0,0.4,0,0.7c0.4-0.1,0.8-0.2,1.2-0.3
		c4.6-1.6,9.1-3.3,13.8-4.9c1.2-0.4,1.6-1,1.6-2.3c-0.1-3.3,0-6.6,0-10c22.4,0,44.7,0,67,0c0,11.8,0,23.4,0,35.2
		c-41.2,0-82.3,0-123.6,0c3.5,3.5,6.8,6.8,10.2,10.1c0.3,0.3,1,0.3,1.5,0.2c7.1-1.8,14.3-3.3,21.8-3.3c29.6,0,59.2,0,88.8,0
		c0.5,0,0.9,0,1.7,0C173,285.3,172.6,300.9,172.2,316.6z"/>
	<path d="M172.2,316.6c0.4-15.7,0.8-31.3,1.2-47.1c-0.8,0-1.2,0-1.7,0c-29.6,0-59.2,0-88.8,0c-7.4,0-14.6,1.4-21.8,3.3
		c-0.5,0.1-1.2,0.1-1.5-0.2c-3.4-3.3-6.7-6.6-10.2-10.1c41.4,0,82.5,0,123.6,0c0-11.8,0-23.5,0-35.2c-22.3,0-44.6,0-67,0
		c0,3.3-0.1,6.7,0,10c0,1.3-0.3,1.8-1.6,2.3c-4.6,1.6-9.2,3.3-13.8,4.9c-0.4,0.1-0.7,0.2-1.2,0.3c0-0.3,0-0.5,0-0.7
		c1.7-36.2,1.3-72.5,0.1-108.7c0.4,0.2,0.8,0.3,1.2,0.5c4.8,2.4,9.5,4.8,14.3,7.1c0.5,0.3,1.2,0.4,1.8,0.5c21.7,0,43.4,0,65,0
		c0.4,0,0.7,0,1.1-0.1c0-9.4,0-18.7,0-28.1c-0.5,0-0.9-0.1-1.3-0.1c-22,0-43.9,0-65.9,0c-7,0-13.9,1.3-20.7,3.2
		c-1.2,0.3-1.9,0.1-2.8-0.8c-3-3.1-6.1-6.2-9.4-9.5c33.5,0,66.7,0,100.1,0c0.1-11.8-0.4-23.5-1.1-35.4c9.9,3.5,19.6,7,29.5,10.6
		c-0.9,0.6-1.5,1-2.2,1.4c-3.3,2.1-6.7,4.2-10,6.4c-0.4,0.2-0.8,0.8-0.8,1.2c0,5.1,0,10.2,0,15.2c0,0.1,0,0.2,0.1,0.5
		c0.4,0,0.8,0,1.2,0c18.8,0,37.6,0,56.4,0c0.8,0,1.4-0.3,2-0.8c4.5-4.5,9-9,13.5-13.5c0.3-0.3,0.5-0.7,0.9-1.1
		c7.2,7.6,14.2,15,21.4,22.6c-31.9,0-63.6,0-95.4,0c0,9.4,0,18.7,0,28.2c0.4,0,0.8,0.1,1.2,0.1c20,0,40.1,0,60.1,0
		c0.6,0,1.3-0.3,1.7-0.7c4.1-4,8.1-8.1,12.2-12.2c6.3,5.9,12.6,11.8,18.9,17.7c-1.3,0.7-2.4,1.3-3.6,2c-2.8,1.5-5.7,3.1-8.5,4.6
		c-0.6,0.3-0.9,0.7-0.9,1.5c0,9.3,0,18.6,0.1,28c0.1,10.3,0.3,20.5,0.5,30.8c0.1,4.9,0.4,9.8,0.6,14.7c0,0.4-0.2,1.1-0.5,1.3
		c-5.1,3-10.3,5.9-15.5,8.9c-0.1,0.1-0.2,0-0.4,0.1c0-4.2,0-8.4,0-12.7c-22,0-43.9,0-65.9,0c0,11.7,0,23.4,0,35.2c0.5,0,0.9,0,1.3,0
		c27.4,0,54.9,0,82.3,0c0.8,0,1.3-0.2,1.9-0.8c5.3-5.3,10.6-10.6,15.9-16c0.3-0.3,0.6-0.6,1-1c7.4,8.2,14.8,16.4,22.4,24.8
		c-41.8,0-83.3,0-124.9,0c0,2.1,0,4,0,5.9c0.1,5.1,0.2,10.2,0.3,15.3c0.2,6.3,0.5,12.5,0.8,18.8c0,1-0.2,1.4-1.1,1.7
		C183.1,313,177.7,314.8,172.2,316.6z M173.2,150.6c-22.4,0-44.6,0-66.9,0c0,11,0,21.9,0,32.8c22.3,0,44.6,0,66.9,0
		C173.2,172.5,173.2,161.6,173.2,150.6z M188.6,183.4c22,0,43.9,0,65.8,0c0-11,0-21.9,0-32.7c-22,0-43.9,0-65.8,0
		C188.6,161.6,188.6,172.5,188.6,183.4z M106.2,219.9c22.4,0,44.6,0,66.9,0c0-9.8,0-19.5,0-29.2c-22.4,0-44.6,0-66.9,0
		C106.2,200.5,106.2,210.2,106.2,219.9z M188.6,219.9c22,0,43.9,0,65.8,0c0-9.8,0-19.5,0-29.2c-22,0-43.9,0-65.8,0
		C188.6,200.5,188.6,210.2,188.6,219.9z"/>
	<path class="st0" d="M173.2,150.6c0,10.9,0,21.8,0,32.8c-22.3,0-44.6,0-66.9,0c0-10.9,0-21.8,0-32.8
		C128.5,150.6,150.8,150.6,173.2,150.6z"/>
	<path class="st0" d="M188.6,183.4c0-10.9,0-21.8,0-32.7c21.9,0,43.8,0,65.8,0c0,10.9,0,21.8,0,32.7
		C232.6,183.4,210.7,183.4,188.6,183.4z"/>
	<path class="st0" d="M106.2,219.9c0-9.7,0-19.4,0-29.2c22.3,0,44.6,0,66.9,0c0,9.7,0,19.4,0,29.2
		C150.9,219.9,128.6,219.9,106.2,219.9z"/>
	<path class="st0" d="M188.6,219.9c0-9.8,0-19.4,0-29.2c22,0,43.9,0,65.8,0c0,9.7,0,19.4,0,29.2
		C232.5,219.9,210.6,219.9,188.6,219.9z"/>
</g>
</svg>
