<?xml version="1.0" encoding="utf-8"?>
<!-- Generator: Adobe Illustrator 20.1.0, SVG Export Plug-In . SVG Version: 6.00 Build 0)  -->
<svg version="1.1" id="图层_1" xmlns="http://www.w3.org/2000/svg" xmlns:xlink="http://www.w3.org/1999/xlink" x="0px" y="0px"
	 viewBox="0 0 360 360" style="enable-background:new 0 0 360 360;" xml:space="preserve">
<style type="text/css">
	.st0{fill:#FFFFFF;}
</style>
<g>
	<path class="st0" d="M-0.1,360.1c0-120.1,0-240.2,0-360.2c120.1,0,240.2,0,360.2,0c0,120.1,0,240.2,0,360.2
		C240,360.1,120,360.1-0.1,360.1z M103.8,174.1c65.6,0,131,0,196.7,0c-8-7.2-15.8-14.2-23.6-21.2c-0.3,0.3-0.5,0.4-0.7,0.6
		c-4.6,4.3-9.2,8.5-13.9,12.7c-0.4,0.4-1.2,0.7-1.8,0.7c-51.6,0-103.2,0-154.8,0c-0.6,0-1.3-0.2-1.8-0.4c-3.2-1.5-6.4-3-9.7-4.5
		c-2.3-1.1-4.6-2.1-7-3.3c0,0.7,0,1.2,0,1.7c0.3,10.6,0.6,21.2,0.9,31.8c0.1,5,0,9.9,0.2,14.9c0.4,11.1-0.4,22-2.5,32.9
		c-5.4,27.8-18.8,51.1-39.1,70.5c-1.8,1.7-3.6,3.3-5.3,4.9c1.2,1.2,2.4,2.4,3.5,3.5c0.1,0,0.2-0.1,0.4-0.2c12.9-8.3,24.6-18,34.2-30
		c13.2-16.3,21.2-34.9,24-55.7c0.1-0.9,0.4-1.3,1.4-1.2c9.4,0,18.7,0,28.1,0c0.4,0,0.8,0,1.2,0.1c0,0.3,0,0.6,0,0.8
		c0,17.9,0,35.8,0,53.8c0,6.2-2.4,11.3-7.8,14.6c-0.1,0.1-0.3,0.1-0.4,0.2c4,5.6,7.9,11.1,11.8,16.6c4.3-3.9,9.1-6.9,13.9-9.8
		c12.8-7.5,26.4-13.5,40-19.2c3.2-1.4,6.4-2.7,9.7-4c-0.7-1.3-1.3-2.5-1.9-3.8c-0.3-0.8-0.8-0.9-1.6-0.7
		c-14.6,3.9-29.3,7.7-43.9,11.5c-1.5,0.4-2.9,0.7-4.5,1.1c0-0.6,0-1,0-1.4c0-19.5,0-39,0-58.4c0-1.1,0.3-1.4,1.4-1.4
		c8.1,0,16.2,0,24.2,0c1,0,1.6,0.3,2.2,1.2c9.7,15,21.1,28.6,34.5,40.5c19.7,17.4,42.3,29.9,67.2,38.3c5.4,1.8,10.9,3.4,16.5,5.1
		c0.5-4.4,2.7-7.5,6-9.8c1.7-1.2,3.5-2.3,5.4-3.1c3.7-1.4,7.5-2.4,11.3-3.6c0.3-0.1,0.8-0.4,0.9-0.7c0.1-1,0-2,0-3
		c-30.7,0.6-58.8-8.7-85.9-22.3c0.6-0.3,0.9-0.5,1.3-0.7c10.9-5.8,21.3-12.3,31.3-19.5c1.1-0.8,2.2-1.1,3.5-1.2
		c3.2-0.3,6.3-0.6,9.8-1c-6.8-6-13.4-11.8-20.1-17.7c-1.4,3.5-3.4,6.5-5.6,9.3c-5.1,6.7-11,12.6-17.1,18.5c-3,2.9-6.1,5.8-9.1,8.7
		c-16.6-10.6-31.2-23.2-43.6-38.8c42.1,0,83.9,0,126.1,0c-8-7.2-15.8-14.2-23.6-21.2c-0.3,0.2-0.5,0.4-0.8,0.7
		c-4.6,4.2-9.2,8.5-13.9,12.7c-0.5,0.4-1.2,0.7-1.9,0.7c-54.9,0-109.8,0-164.8,0c-0.4,0-0.8,0-1.3,0
		C103.8,207.8,103.8,191,103.8,174.1z M112,196.4c0.2,0.3,0.3,0.4,0.4,0.5c3.2,3.2,6.4,6.4,9.6,9.6c0.3,0.3,1,0.4,1.5,0.3
		c7.1-1.8,14.2-3.2,21.6-3.2c41.1,0,82.1,0,123.2,0c0.4,0,0.9,0,1.7,0c-6.9-6.5-13.5-12.7-20.3-19.1c-0.3,0.4-0.5,0.8-0.8,1.1
		c-3.2,3.2-6.4,6.4-9.6,9.6c-0.9,0.9-1.8,1.3-3.1,1.3c-40.8,0-81.7,0-122.5,0C113.2,196.4,112.7,196.4,112,196.4z"/>
	<path d="M103.8,174.1c0,17,0,33.7,0,50.7c0.5,0,0.9,0,1.3,0c54.9,0,109.8,0,164.8,0c0.6,0,1.4-0.3,1.9-0.7
		c4.7-4.2,9.2-8.5,13.9-12.7c0.2-0.2,0.5-0.4,0.8-0.7c7.8,7,15.6,14,23.6,21.2c-42.1,0-83.9,0-126.1,0c12.4,15.6,27,28.3,43.6,38.8
		c3.1-2.9,6.1-5.8,9.1-8.7c6-5.9,11.9-11.8,17.1-18.5c2.2-2.9,4.2-5.8,5.6-9.3c6.7,5.9,13.3,11.7,20.1,17.7c-3.4,0.3-6.6,0.7-9.8,1
		c-1.3,0.1-2.4,0.5-3.5,1.2c-10,7.1-20.5,13.6-31.3,19.5c-0.3,0.2-0.7,0.4-1.3,0.7c27.1,13.7,55.1,23,85.9,22.3c0,1.1,0.1,2.1,0,3
		c0,0.3-0.5,0.6-0.9,0.7c-3.8,1.2-7.6,2.3-11.3,3.6c-1.9,0.7-3.7,1.9-5.4,3.1c-3.3,2.3-5.5,5.4-6,9.8c-5.6-1.7-11.1-3.3-16.5-5.1
		c-24.9-8.4-47.5-20.8-67.2-38.3c-13.4-11.9-24.8-25.4-34.5-40.5c-0.6-0.9-1.2-1.2-2.2-1.2c-8.1,0-16.2,0-24.2,0
		c-1.1,0-1.4,0.3-1.4,1.4c0,19.5,0,39,0,58.4c0,0.4,0,0.8,0,1.4c1.6-0.4,3-0.8,4.5-1.1c14.6-3.8,29.3-7.7,43.9-11.5
		c0.8-0.2,1.2-0.2,1.6,0.7c0.5,1.3,1.2,2.5,1.9,3.8c-3.3,1.4-6.5,2.7-9.7,4c-13.6,5.8-27.2,11.8-40,19.2c-4.9,2.8-9.6,5.9-13.9,9.8
		c-3.9-5.5-7.8-11-11.8-16.6c0.1-0.1,0.3-0.1,0.4-0.2c5.5-3.3,7.8-8.4,7.8-14.6c0-17.9,0-35.8,0-53.8c0-0.2,0-0.5,0-0.8
		c-0.4,0-0.8-0.1-1.2-0.1c-9.4,0-18.7,0-28.1,0c-1,0-1.3,0.3-1.4,1.2c-2.9,20.8-10.8,39.4-24,55.7c-9.7,12-21.3,21.7-34.2,30
		c-0.1,0.1-0.3,0.1-0.4,0.2c-1.2-1.2-2.3-2.3-3.5-3.5c1.7-1.6,3.5-3.2,5.3-4.9c20.4-19.4,33.7-42.7,39.1-70.5
		c2.1-10.9,2.9-21.8,2.5-32.9c-0.2-5-0.1-9.9-0.2-14.9c-0.3-10.6-0.6-21.2-0.9-31.8c0-0.5,0-1,0-1.7c2.4,1.1,4.7,2.2,7,3.3
		c3.2,1.5,6.4,3,9.7,4.5c0.6,0.3,1.2,0.4,1.8,0.4c51.6,0,103.2,0,154.8,0c0.6,0,1.3-0.3,1.8-0.7c4.6-4.2,9.3-8.5,13.9-12.7
		c0.2-0.2,0.4-0.4,0.7-0.6c7.8,7,15.6,14,23.6,21.2C234.8,174.1,169.4,174.1,103.8,174.1z"/>
	<path d="M112,196.4c0.7,0,1.2,0,1.7,0c40.8,0,81.7,0,122.5,0c1.3,0,2.2-0.3,3.1-1.3c3.1-3.2,6.4-6.4,9.6-9.6
		c0.3-0.3,0.5-0.7,0.8-1.1c6.8,6.4,13.4,12.7,20.3,19.1c-0.8,0-1.2,0-1.7,0c-41.1,0-82.1,0-123.2,0c-7.4,0-14.5,1.5-21.6,3.2
		c-0.4,0.1-1.1,0-1.5-0.3c-3.2-3.2-6.4-6.4-9.6-9.6C112.3,196.9,112.2,196.7,112,196.4z"/>
</g>
</svg>
