<?xml version="1.0" encoding="utf-8"?>
<!-- Generator: Adobe Illustrator 20.1.0, SVG Export Plug-In . SVG Version: 6.00 Build 0)  -->
<svg version="1.1" id="图层_1" xmlns="http://www.w3.org/2000/svg" xmlns:xlink="http://www.w3.org/1999/xlink" x="0px" y="0px"
	 viewBox="0 0 360 360" style="enable-background:new 0 0 360 360;" xml:space="preserve">
<style type="text/css">
	.st0{fill:#FFFFFF;}
</style>
<g>
	<path class="st0" d="M-0.1,360.1c0-120.1,0-240.2,0-360.2c120.1,0,240.2,0,360.2,0c0,120.1,0,240.2,0,360.2
		C240,360.1,120,360.1-0.1,360.1z M266.3,265.9c-11.4,6.3-22.7,12.5-34.1,18.8c0-37.7,0-75.3,0-112.9c2.7,0,5.4,0,8,0
		c0,0.3,0.1,0.5,0.1,0.7c1,8,1.8,16.1,3.1,24.1c2.3,14.4,6.1,28.5,11.7,42c8.2,19.8,19.9,37.2,36.5,51c2.4,2,5,3.9,7.5,5.9
		c1.5-2.8,3.5-4.9,6.1-6.4c3.4-2,7.1-3.1,11-3.7c1.8-0.3,3.6-0.5,5.4-0.7c0.2-2.3,0.2-2.3-1.8-2.9c-12.9-4.6-24.2-11.8-33.8-21.4
		c-8.1-8.2-14.6-17.5-19.9-27.7c-1.1-2.2-2.2-4.4-3.3-6.6c0.3-0.2,0.5-0.4,0.7-0.5c11.3-6.4,22.6-12.8,33.9-19.2
		c0.5-0.3,1.2-0.4,1.8-0.4c3.8,0,7.7,0,11.5,0c0.4,0,0.8,0,1.6,0c-6.4-6.8-12.6-13.4-18.9-20.1c-10.5,11.9-20.6,24.2-34.2,32.9
		c-5.2-15.5-9.6-31-12.9-47c23.6,0,47,0,70.7,0c-6.8-7.2-13.4-14.2-20.1-21.3c-4.5,4.5-8.9,8.9-13.3,13.4c-0.6,0.6-1.2,0.8-2,0.8
		c-25.8,0-51.7,0-77.5,0c-0.4,0-0.8,0-1.3-0.1c0-33.8,0-67.4,0-101.2c35.7,0,71.2,0,107.1,0c-6.8-7.2-13.4-14.2-20.2-21.4
		c-0.3,0.4-0.5,0.8-0.8,1.1c-4.1,4.2-8.3,8.3-12.5,12.5c-0.4,0.4-1.2,0.7-1.7,0.7c-23.2,0-46.5,0-69.7,0c-0.6,0-1.3-0.2-1.9-0.6
		c-4.9-3.1-9.7-6.2-14.5-9.3c-0.4-0.2-0.7-0.4-1.2-0.7c0.1,6.1,0.3,12,0.4,17.9c0.2,11.4,0.4,22.8,0.5,34.2
		c0.1,11,0.2,21.9,0.2,32.9c0,12.8,0.2,25.5,0,38.3c-0.1,9-0.5,18.1-1.2,27.1c-0.9,13-3.1,25.8-6.2,38.4
		c-5.6,22.7-14.6,44-27.8,63.4c-2.8,4.1-5.9,8.1-8.8,12.1c-0.3,0.4-0.5,1-0.4,1.3c0.6,1.1,1.3,2.1,2,3.1c0.3-0.2,0.5-0.3,0.8-0.5
		c5.5-4.3,10.6-9,15.3-14.2c12.9-14.3,21.8-31,28-49.1c4.1-12,7-24.4,9-37c1.8-11.3,2.8-22.7,3.3-34.1c0.1-2.5,0.2-5,0.3-7.6
		c5.1,0,10.1,0,15.2,0c0,0.6,0,1.1,0,1.6c0,33.4,0,66.8,0,100.2c0,2.5-0.1,5-0.5,7.4c-0.4,3.4-1,6.9-2.6,10c-0.3,0.7-0.3,1.1,0,1.7
		c2.8,4.6,5.5,9.2,8.3,13.8c0.6,1,1.2,2,1.8,2.9c12.2-16,28.2-27.7,43.7-40C267.9,268.3,267.1,267.2,266.3,265.9z M300.1,117.6
		c-6.6-6.6-13.2-13.2-19.9-19.9c-3.9,3.9-7.9,7.9-11.9,11.9c-0.6,0.6-1.2,0.9-2.1,0.9c-17.9,0-35.7,0-53.6,0c-0.5,0-0.9,0-1.6,0
		c0.5,0.5,0.7,0.8,1,1.1c2.8,2.8,5.7,5.6,8.5,8.5c0.8,0.8,1.5,1,2.6,0.7c7.8-2.1,15.8-3.3,23.9-3.2c17.3,0.1,34.6,0,51.9,0
		C299.3,117.6,299.8,117.6,300.1,117.6z"/>
	<path d="M266.3,265.9c0.8,1.2,1.6,2.3,2.4,3.5c-15.5,12.3-31.5,24.1-43.7,40c-0.6-1-1.2-2-1.8-2.9c-2.8-4.6-5.5-9.2-8.3-13.8
		c-0.4-0.6-0.4-1.1,0-1.7c1.6-3.1,2.2-6.6,2.6-10c0.3-2.4,0.5-4.9,0.5-7.4c0-33.4,0-66.8,0-100.2c0-0.5,0-1,0-1.6
		c-5.1,0-10.2,0-15.2,0c-0.1,2.6-0.2,5.1-0.3,7.6c-0.5,11.4-1.5,22.8-3.3,34.1c-2,12.6-4.8,24.9-9,37c-6.2,18.1-15.1,34.8-28,49.1
		c-4.7,5.2-9.8,9.9-15.3,14.2c-0.2,0.2-0.5,0.3-0.8,0.5c-0.7-1.1-1.4-2-2-3.1c-0.2-0.3,0.1-0.9,0.4-1.3c2.9-4,6-8,8.8-12.1
		c13.2-19.4,22.2-40.7,27.8-63.4c3.1-12.6,5.3-25.4,6.2-38.4c0.6-9,1-18,1.2-27.1c0.2-12.8,0-25.5,0-38.3c0-11-0.1-21.9-0.2-32.9
		c-0.1-11.4-0.3-22.8-0.5-34.2c-0.1-5.9-0.3-11.8-0.4-17.9c0.5,0.3,0.8,0.5,1.2,0.7c4.8,3.1,9.7,6.2,14.5,9.3
		c0.5,0.3,1.2,0.6,1.9,0.6c23.2,0,46.5,0,69.7,0c0.6,0,1.3-0.3,1.7-0.7c4.2-4.1,8.3-8.3,12.5-12.5c0.3-0.3,0.5-0.7,0.8-1.1
		c6.8,7.2,13.4,14.2,20.2,21.4c-35.9,0-71.5,0-107.1,0c0,33.8,0,67.4,0,101.2c0.4,0,0.9,0.1,1.3,0.1c25.8,0,51.7,0,77.5,0
		c0.8,0,1.4-0.2,2-0.8c4.4-4.4,8.8-8.8,13.3-13.4c6.7,7.1,13.3,14.1,20.1,21.3c-23.7,0-47.1,0-70.7,0c3.4,16,7.8,31.5,12.9,47
		c13.6-8.7,23.7-20.9,34.2-32.9c6.2,6.6,12.5,13.2,18.9,20.1c-0.7,0-1.2,0-1.6,0c-3.8,0-7.7,0-11.5,0c-0.6,0-1.3,0.1-1.8,0.4
		c-11.3,6.4-22.6,12.8-33.9,19.2c-0.2,0.1-0.4,0.3-0.7,0.5c1.1,2.2,2.2,4.5,3.3,6.6c5.3,10.2,11.8,19.6,19.9,27.7
		c9.7,9.7,20.9,16.8,33.8,21.4c1.9,0.7,1.9,0.7,1.8,2.9c-1.8,0.2-3.6,0.4-5.4,0.7c-3.9,0.6-7.6,1.6-11,3.7c-2.6,1.5-4.6,3.6-6.1,6.4
		c-2.6-2-5.1-3.9-7.5-5.9c-16.6-13.8-28.3-31.1-36.5-51c-5.6-13.5-9.4-27.6-11.7-42c-1.3-8-2.1-16.1-3.1-24.1c0-0.2-0.1-0.5-0.1-0.7
		c-2.7,0-5.3,0-8,0c0,37.6,0,75.1,0,112.9C243.6,278.4,254.9,272.2,266.3,265.9z"/>
	<path d="M300.1,117.6c-0.3,0-0.8,0-1.2,0c-17.3,0-34.6,0.1-51.9,0c-8.1-0.1-16.1,1.1-23.9,3.2c-1.1,0.3-1.8,0.1-2.6-0.7
		c-2.8-2.9-5.6-5.7-8.5-8.5c-0.3-0.3-0.5-0.6-1-1.1c0.7,0,1.2,0,1.6,0c17.9,0,35.7,0,53.6,0c0.9,0,1.5-0.2,2.1-0.9
		c4-4,8-8.1,11.9-11.9C286.8,104.4,293.5,111,300.1,117.6z"/>
</g>
</svg>
