<?xml version="1.0" encoding="utf-8"?>
<!-- Generator: Adobe Illustrator 20.1.0, SVG Export Plug-In . SVG Version: 6.00 Build 0)  -->
<svg version="1.1" id="图层_1" xmlns="http://www.w3.org/2000/svg" xmlns:xlink="http://www.w3.org/1999/xlink" x="0px" y="0px"
	 viewBox="0 0 360 360" style="enable-background:new 0 0 360 360;" xml:space="preserve">
<style type="text/css">
	.st0{fill:#FFFFFF;}
</style>
<g>
	<path class="st0" d="M-0.1,360.1c0-120.1,0-240.2,0-360.2c120.1,0,240.2,0,360.2,0c0,120.1,0,240.2,0,360.2
		C240,360.1,120,360.1-0.1,360.1z M294.6,68.1c-6.8-7.6-13.4-15-20.1-22.4c-0.3,0.2-0.4,0.4-0.6,0.5c-5,4.7-10.1,9.4-15.1,14
		c-0.5,0.4-1.2,0.7-1.9,0.7c-51.1,0-102.2,0-153.4,0c-0.6,0-1.3-0.2-1.9-0.6c-4.3-2.7-8.5-5.4-12.7-8.1c-0.9-0.6-1.9-1.2-2.9-1.8
		c0,0.7,0,1.2,0,1.7c0.3,14.1,0.7,28.1,0.9,42.2c0.2,10.8,0.3,21.7,0,32.5c-0.3,13.9-3,27.5-7.4,40.8c-6.1,18.3-15.3,34.9-26.8,50.3
		c-1.1,1.5-2.3,3-3.4,4.5c1.2,0.8,2.4,1.6,3.7,2.5c3.6-3.5,7.1-6.9,10.6-10.4c11.3-11.6,20.9-24.4,27.9-39c5.6-11.7,9.3-24,10.5-37
		c0.2-1.8,0.3-3.6,0.5-5.5c10.6,0,21.1,0,31.6,0c0,0.2,0.1,0.4,0.1,0.6c0.1,15.7,0.2,31.4,0.2,47c0,3.8-0.7,7.4-3.1,10.5
		c-0.5,0.7-1.1,1.3-1.7,2c4.3,5.9,8.6,11.7,12.8,17.4c2-2.2,3.9-4.6,6.1-6.6c2.2-2.1,4.6-3.9,7.1-5.7c8-5.6,16.7-10,25.6-14
		c4.8-2.2,9.7-4.1,14.5-6.2c0.4-0.2,0.9-0.6,0.8-0.9c-0.3-1.4-0.7-2.8-1-4.3c-15.4,3.9-30.6,7.8-45.9,11.8c0-17.3,0-34.5,0-51.7
		c0.3,0,0.5-0.1,0.8-0.1c7.3,0,14.6,0,21.8,0c0.7,0,1,0.3,1.3,0.9c5.8,11.7,13.9,21.7,23.9,30.2c12.2,10.4,26.1,17.9,41,23.7
		c14.5,5.7,29.5,9.5,44.7,12.4c2.2,0.4,4.4,0.8,6.6,1.2c0.2-0.6,0.3-1,0.4-1.4c1.4-4.6,4.1-8.4,8.1-11.2c3.5-2.5,7.6-3.9,11.7-4.9
		c0.4-0.1,1-0.4,1-0.6c0.1-1.4,0-2.8,0-4.4c-14.9,1.2-29.6,0.8-44.2-1.3c-14.6-2-28.8-5.6-42.8-10.5c0.4-0.3,0.6-0.4,0.8-0.6
		c7.5-4.4,15.3-8.4,23.3-11.7c6.4-2.7,13-5,20.4-4.3c-6.3-5.9-12.4-11.6-18.8-17.6c17.4,0,34.5,0,51.8,0
		c-6.8-7.2-13.4-14.2-20.1-21.3c-0.5,0.4-0.9,0.8-1.3,1.1c-4.7,4.1-9.5,8.1-14.2,12.2c-0.7,0.6-1.4,0.9-2.4,0.9
		c-53.2,0-106.4,0-159.6,0c-0.5,0-1,0-1.5,0c0-19.3,0-38.5,0-57.7C166.6,68.1,230.5,68.1,294.6,68.1z M271.1,99.9
		c-6.8-7.2-13.5-14.2-20.1-21.3c-0.3,0.3-0.5,0.4-0.7,0.6c-4.6,4.2-9.1,8.4-13.7,12.6c-0.7,0.7-1.5,0.9-2.4,0.9
		c-39.8,0-79.7,0-119.5,0c-0.5,0-0.9,0-1.6,0c0.4,0.5,0.7,0.7,0.9,1c3,3,6,5.9,8.9,8.9c0.6,0.6,1.2,0.7,2,0.5
		c8.1-2.2,16.3-3.3,24.7-3.3c39.9,0.1,79.8,0,119.7,0C269.9,99.9,270.3,99.9,271.1,99.9z"/>
	<path d="M294.6,68.1c-64.2,0-128,0-192,0c0,19.2,0,38.4,0,57.7c0.5,0,1,0,1.5,0c53.2,0,106.4,0,159.6,0c0.9,0,1.6-0.3,2.4-0.9
		c4.7-4.1,9.5-8.1,14.2-12.2c0.4-0.3,0.8-0.7,1.3-1.1c6.6,7,13.3,14,20.1,21.3c-17.3,0-34.4,0-51.8,0c6.4,6,12.5,11.7,18.8,17.6
		c-7.5-0.7-14,1.6-20.4,4.3c-8.1,3.3-15.8,7.4-23.3,11.7c-0.2,0.1-0.4,0.3-0.8,0.6c14.1,4.9,28.3,8.5,42.8,10.5
		c14.6,2,29.3,2.4,44.2,1.3c0,1.5,0,2.9,0,4.4c0,0.2-0.6,0.5-1,0.6c-4.2,1-8.2,2.4-11.7,4.9c-4,2.8-6.6,6.5-8.1,11.2
		c-0.1,0.4-0.3,0.8-0.4,1.4c-2.2-0.4-4.4-0.8-6.6-1.2c-15.3-2.9-30.2-6.8-44.7-12.4c-14.9-5.8-28.8-13.3-41-23.7
		c-9.9-8.5-18-18.4-23.9-30.2c-0.3-0.6-0.6-0.9-1.3-0.9c-7.3,0-14.6,0-21.8,0c-0.2,0-0.5,0-0.8,0.1c0,17.2,0,34.3,0,51.7
		c15.3-3.9,30.5-7.8,45.9-11.8c0.4,1.4,0.8,2.8,1,4.3c0,0.2-0.5,0.7-0.8,0.9c-4.8,2.1-9.7,4-14.5,6.2c-8.9,4-17.6,8.3-25.6,14
		c-2.5,1.7-4.9,3.6-7.1,5.7c-2.2,2-4.1,4.4-6.1,6.6c-4.2-5.7-8.4-11.5-12.8-17.4c0.6-0.7,1.2-1.3,1.7-2c2.4-3.1,3.1-6.8,3.1-10.5
		c0-15.7-0.1-31.4-0.2-47c0-0.2,0-0.3-0.1-0.6c-10.5,0-21,0-31.6,0c-0.2,1.8-0.3,3.6-0.5,5.5c-1.3,13-4.9,25.3-10.5,37
		c-7,14.6-16.6,27.4-27.9,39c-3.4,3.5-7,6.9-10.6,10.4c-1.3-0.9-2.4-1.6-3.7-2.5c1.2-1.5,2.3-3,3.4-4.5c11.5-15.4,20.7-32,26.8-50.3
		c4.4-13.2,7-26.8,7.4-40.8c0.3-10.8,0.1-21.7,0-32.5c-0.2-14.1-0.6-28.1-0.9-42.2c0-0.5,0-1,0-1.7c1.1,0.7,2,1.2,2.9,1.8
		c4.2,2.7,8.5,5.5,12.7,8.1c0.5,0.3,1.3,0.6,1.9,0.6c51.1,0,102.2,0,153.4,0c0.6,0,1.4-0.3,1.9-0.7c5.1-4.6,10.1-9.3,15.1-14
		c0.2-0.2,0.4-0.3,0.6-0.5C281.2,53.1,287.8,60.4,294.6,68.1z M180.7,132.9c-0.1,0.1-0.1,0.2-0.2,0.3c2.4,2.6,4.8,5.4,7.3,7.9
		c8.7,8.7,18.7,15.6,29.3,21.8c0.7,0.4,1.2,0.4,1.8-0.1c6.9-5.8,13.9-11.5,20.8-17.4c3.7-3.2,7-6.7,9.4-11c0.3-0.5,0.5-1,0.7-1.5
		C226.6,132.9,203.6,132.9,180.7,132.9z"/>
	<path d="M271.1,99.9c-0.8,0-1.3,0-1.7,0c-39.9,0-79.8,0.1-119.7,0c-8.4,0-16.6,1.1-24.7,3.3c-0.8,0.2-1.4,0.1-2-0.5
		c-2.9-3-5.9-6-8.9-8.9c-0.2-0.2-0.5-0.5-0.9-1c0.7,0,1.1,0,1.6,0c39.8,0,79.7,0,119.5,0c1,0,1.7-0.2,2.4-0.9
		c4.5-4.2,9.1-8.4,13.7-12.6c0.2-0.2,0.4-0.4,0.7-0.6C257.7,85.7,264.3,92.7,271.1,99.9z"/>
	<path class="st0" d="M180.7,132.9c22.9,0,45.9,0,69,0c-0.3,0.5-0.4,1-0.7,1.5c-2.4,4.3-5.7,7.8-9.4,11
		c-6.9,5.9-13.9,11.6-20.8,17.4c-0.6,0.5-1.1,0.5-1.8,0.1c-10.6-6.2-20.6-13.1-29.3-21.8c-2.5-2.5-4.9-5.3-7.3-7.9
		C180.6,133.2,180.6,133.1,180.7,132.9z"/>
</g>
</svg>
