<?xml version="1.0" encoding="utf-8"?>
<!-- Generator: Adobe Illustrator 20.1.0, SVG Export Plug-In . SVG Version: 6.00 Build 0)  -->
<svg version="1.1" id="图层_1" xmlns="http://www.w3.org/2000/svg" xmlns:xlink="http://www.w3.org/1999/xlink" x="0px" y="0px"
	 viewBox="0 0 360 360" style="enable-background:new 0 0 360 360;" xml:space="preserve">
<style type="text/css">
	.st0{fill:#FFFFFF;}
</style>
<g>
	<path class="st0" d="M-0.1,360.1c0-120.1,0-240.2,0-360.2c120.1,0,240.2,0,360.2,0c0,120.1,0,240.2,0,360.2
		C240,360.1,120,360.1-0.1,360.1z M135.5,155.3c0,0.6,0,1.1,0,1.6c0,41.9,0,83.8,0,125.6c0,0.4,0,0.8,0,1.2c-0.2,3.6-2,6-5.2,6.7
		c-1,0.2-2.2,0.4-3.2,0.3c-6.2-0.5-12.3-1-18.5-1.5c-2.4-0.2-4.7-0.5-7.2-0.8c0,1.4,0.1,2.6,0,3.8c0,0.8,0.3,1,1,1.2
		c1.7,0.4,3.3,0.9,4.9,1.5c5.6,1.9,11.1,4.1,15.8,7.9c3.1,2.6,5.5,5.7,6.4,9.7c0.1,0.6,0.2,1.1,0.3,1.8c1.4-0.6,2.6-1,3.9-1.6
		c10.8-5,16.2-13.2,16.2-25.3c-0.1-43.5,0-87,0-130.4c0-0.5,0-1.1,0-1.8c16.1,0,32.1,0,48.4,0c-6.4-6.8-12.7-13.5-18.9-20.1
		c-4.1,4.1-8.2,8.2-12.2,12.2c-0.4,0.4-1.2,0.8-1.8,0.8c-10.2,0-20.3,0-30.5,0c-0.4,0-0.8,0-1.2,0c0-16.1,0-32.1,0-48.3
		c18.4,0,36.7,0,55.1,0c-6.7-6.7-13.3-13.3-20-20c-0.2,0.2-0.5,0.4-0.8,0.7c-4.5,3.8-9,7.7-13.6,11.4c-0.5,0.4-1.2,0.7-1.8,0.7
		c-6,0.1-11.9,0-17.9,0c-0.3,0-0.7,0-1.1-0.1c0-0.6,0-1.1,0-1.6c0-8.7,0.1-17.4-0.1-26.2c0-2,0.6-3.3,2.2-4.4c2.9-2,5.6-4.3,8.5-6.6
		c-9.1-4-18.1-7.9-26.9-11.7c0.4,16.9,0.7,33.7,1.1,50.6c-19.5,0-38.6,0-58,0c3.4,3.4,6.6,6.6,9.8,9.8c0.6,0.7,1.2,0.8,2.1,0.6
		c5.7-1.5,11.4-3.1,17.3-3.2c9.3-0.2,18.6-0.1,27.8-0.1c0.2,0,0.5,0.1,0.7,0.1c0,16,0,32,0,48.1c-21.5,0-43,0-64.5,0
		c0.1,0.3,0.2,0.4,0.2,0.4c3.2,3.3,6.5,6.5,9.8,9.7c0.3,0.2,0.9,0.3,1.3,0.2c6-1.5,12.1-2.9,18.3-3.1c5.5-0.2,11-0.1,16.6-0.1
		c0.3,0,0.5,0.1,0.8,0.1c0,0.3,0,0.5,0,0.8c-0.1,6.3,0,12.6-0.2,18.8c-0.5,16.7-2.7,33.2-6.5,49.5c-6.6,28.1-18.2,53.9-35.2,77.2
		c-3.1,4.3-6.5,8.4-10,12.9c0.4,0.3,0.9,0.5,1.2,0.9c0.4,0.4,0.6,0.9,1,1.4c0.6-0.5,0.8-0.6,1.1-0.8c19.4-15.8,34.4-35.1,45-57.7
		c9.4-20.1,14.7-41.4,17.3-63.4c1.4-11.9,1.9-23.8,1.8-35.8c0-1.2,0-2.5,0-3.7C122.2,155.3,128.8,155.3,135.5,155.3z M90.8,189.4
		c-7.2-4-14.2-7.9-21.3-11.8c-3.4,27-11.8,52.3-23.6,76.6c1.2,0.8,2.4,1.6,3.6,2.4c0.3-0.3,0.5-0.6,0.7-0.9
		c3.1-4.4,6.3-8.7,9.1-13.2c9.2-14.6,16.3-30.2,22.8-46.1c0.3-0.7,0.8-1.3,1.3-1.7C85.9,192.9,88.3,191.2,90.8,189.4z M160.1,185.7
		c-0.5,0.6-0.9,1.2-1.4,1.7c-0.7,0.6-0.8,1.1-0.4,2c1,2,1.8,4,2.7,6c5.7,13.4,10.8,27,12.7,41.5c0.4,2.9,1.3,5.8,2.5,8.6
		c1.3,3.2,3.2,3.5,5.9,1.5c4.3-3.1,6.8-7.5,8.2-12.5c1.3-4.5,0.2-8.9-1.5-13.2c-2.5-6.1-6.3-11.3-10.4-16.3
		C173,198.1,166.7,191.9,160.1,185.7z"/>
	<path d="M135.5,155.3c-6.7,0-13.2,0-19.9,0c0,1.3,0,2.5,0,3.7c0.1,12-0.4,23.9-1.8,35.8c-2.5,22-7.8,43.3-17.3,63.4
		c-10.6,22.7-25.6,41.9-45,57.7c-0.2,0.2-0.5,0.4-1.1,0.8c-0.3-0.5-0.6-1-1-1.4c-0.4-0.4-0.9-0.7-1.2-0.9c3.5-4.5,6.8-8.6,10-12.9
		c17.1-23.3,28.6-49.1,35.2-77.2c3.8-16.3,6-32.8,6.5-49.5c0.2-6.3,0.2-12.6,0.2-18.8c0-0.2,0-0.5,0-0.8c-0.3-0.1-0.6-0.1-0.8-0.1
		c-5.5,0-11-0.1-16.6,0.1c-6.2,0.2-12.3,1.6-18.3,3.1c-0.4,0.1-1,0-1.3-0.2c-3.3-3.2-6.5-6.5-9.8-9.7c-0.1-0.1-0.1-0.2-0.2-0.4
		c21.6,0,43,0,64.5,0c0-16.1,0-32.1,0-48.1c-0.3,0-0.5-0.1-0.7-0.1c-9.3,0-18.6-0.1-27.8,0.1c-5.9,0.1-11.6,1.7-17.3,3.2
		c-0.9,0.2-1.4,0.1-2.1-0.6c-3.2-3.2-6.4-6.4-9.8-9.8c19.4,0,38.5,0,58,0c-0.4-16.9-0.8-33.7-1.1-50.6c8.9,3.9,17.8,7.8,26.9,11.7
		c-2.9,2.3-5.6,4.6-8.5,6.6c-1.6,1.2-2.2,2.4-2.2,4.4c0.1,8.7,0.1,17.4,0.1,26.2c0,0.5,0,1,0,1.6c0.4,0,0.8,0.1,1.1,0.1
		c6,0,11.9,0,17.9,0c0.6,0,1.3-0.3,1.8-0.7c4.5-3.8,9.1-7.6,13.6-11.4c0.3-0.3,0.6-0.5,0.8-0.7c6.7,6.7,13.3,13.3,20,20
		c-18.3,0-36.7,0-55.1,0c0,16.1,0,32.2,0,48.3c0.5,0,0.9,0,1.2,0c10.2,0,20.3,0,30.5,0c0.6,0,1.4-0.3,1.8-0.8
		c4.1-4,8.1-8.1,12.2-12.2c6.3,6.7,12.5,13.3,18.9,20.1c-16.3,0-32.2,0-48.4,0c0,0.7,0,1.2,0,1.8c0,43.5-0.1,87,0,130.4
		c0,12.1-5.4,20.3-16.2,25.3c-1.2,0.6-2.5,1-3.9,1.6c-0.1-0.7-0.2-1.3-0.3-1.8c-0.9-4.1-3.2-7.2-6.4-9.7c-4.7-3.8-10.1-6.1-15.8-7.9
		c-1.6-0.5-3.3-1-4.9-1.5c-0.7-0.2-1-0.4-1-1.2c0.1-1.2,0-2.5,0-3.8c2.5,0.3,4.8,0.6,7.2,0.8c6.2,0.5,12.3,1.1,18.5,1.5
		c1.1,0.1,2.2-0.1,3.2-0.3c3.1-0.7,4.9-3,5.2-6.7c0-0.4,0-0.8,0-1.2c0-41.9,0-83.8,0-125.6C135.5,156.4,135.5,156,135.5,155.3z"/>
	<path d="M90.8,189.4c-2.5,1.8-5,3.5-7.3,5.3c-0.6,0.4-1.1,1.1-1.3,1.7c-6.4,15.9-13.5,31.6-22.8,46.1c-2.9,4.5-6.1,8.8-9.1,13.2
		c-0.2,0.3-0.5,0.5-0.7,0.9c-1.2-0.8-2.3-1.6-3.6-2.4c11.7-24.3,20.1-49.6,23.6-76.6C76.7,181.5,83.7,185.4,90.8,189.4z"/>
	<path d="M160.1,185.7c6.6,6.2,12.8,12.4,18.4,19.3c4.1,5,7.9,10.3,10.4,16.3c1.7,4.2,2.9,8.6,1.5,13.2c-1.4,5-4,9.3-8.2,12.5
		c-2.7,2-4.6,1.7-5.9-1.5c-1.1-2.7-2.1-5.7-2.5-8.6c-1.9-14.6-7-28.1-12.7-41.5c-0.9-2-1.7-4-2.7-6c-0.4-0.8-0.3-1.4,0.4-2
		C159.3,186.9,159.7,186.3,160.1,185.7z"/>
</g>
</svg>
