<?xml version="1.0" encoding="utf-8"?>
<!-- Generator: Adobe Illustrator 20.1.0, SVG Export Plug-In . SVG Version: 6.00 Build 0)  -->
<svg version="1.1" id="图层_1" xmlns="http://www.w3.org/2000/svg" xmlns:xlink="http://www.w3.org/1999/xlink" x="0px" y="0px"
	 viewBox="0 0 360 360" style="enable-background:new 0 0 360 360;" xml:space="preserve">
<style type="text/css">
	.st0{fill:#FFFFFF;}
</style>
<g>
	<path class="st0" d="M0.2,360.5c0-120.1,0-240.2,0-360.2c120.1,0,240.2,0,360.2,0c0,120.1,0,240.2,0,360.2
		C240.4,360.5,120.3,360.5,0.2,360.5z M320.8,294.6c0-1.6,0-3.1,0-4.7c-5.8,0.4-11.6,1-17.3,1.2c-12.4,0.6-24.8,1.3-37.2,1.5
		c-10.5,0.2-21,0.1-31.4-0.4c-11.7-0.5-23.4-1.5-35-2.3c-1.3-0.1-1.4-0.6-1.4-1.7c0-20.6,0-41.1,0-61.7c0-0.5,0-0.9,0-1.6
		c34.2,0,68.3,0,102.6,0c-6.8-7.2-13.4-14.2-20.2-21.4c-0.4,0.5-0.6,0.8-0.9,1.2c-4.1,4.1-8.2,8.2-12.3,12.3c-0.6,0.6-1.2,0.8-2,0.8
		c-21.9,0-43.8,0-65.8,0c-0.4,0-0.9,0-1.4,0c0-0.6,0-1.1,0-1.6c0-15.5,0-31,0-46.6c0-2.1-0.2-1.6,1.7-2c9.9-2.3,19.8-4.4,29.6-6.9
		c18.5-4.8,36.7-10.7,54.9-16.7c0.5-0.2,1.1-0.3,1.6-0.3c1.8,0.1,3.7,0.4,5.5,0.6c1.8,0.2,3.7,0.4,5.8,0.5
		c-4.8-7.6-9.5-15-14.2-22.4c-0.4,0.2-0.6,0.3-0.8,0.4c-10.9,6.1-22.2,11.3-33.7,16c-22.9,9.3-46.4,16.6-70.3,22.6
		c-15.2,3.8-30.5,6.6-46.1,8.4c-9.1,1.1-18.3,2.2-27.4,3.2c-8.8,1-17.6,1.9-26.5,2.9c-2.5,0.3-4.9,0.5-7.4,0.8
		c0.4,1.5,0.7,2.8,1,4.1c0.1,0.3,0.5,0.6,0.8,0.6c1.6,0.1,3.2,0.2,4.8,0.2c9.9-0.1,19.8,0,29.7-0.5c10.4-0.5,20.8-1.2,31.1-2.5
		c12.7-1.7,25.2-4.1,37.8-6.2c2.2-0.4,4.4-0.8,6.6-1.2c0,38.8,0,77.5,0,116.3c-2.1-0.7-4.1-1.4-6-2.1c-23.1-8.6-42.6-22.3-57.9-41.7
		c-0.5-0.7-0.6-1.2-0.3-2c3.7-9.9,7.3-19.8,11-29.6c0.2-0.6,0.7-1.3,1.2-1.7c2.8-2.2,5.7-4.3,8.6-6.5c-8.3-4.7-16.5-9.4-24.8-14.2
		c-0.1,0.4-0.2,0.7-0.2,0.9c-0.6,3.5-1.1,7.1-1.8,10.6c-2.8,13.6-7.1,26.7-12.3,39.5c-3.7,9-7.9,17.7-13.4,25.8
		c-9.5,13.6-21.1,25.1-34,35.4c-2.9,2.3-5.9,4.6-8.9,6.9c0.8,1.2,1.6,2.3,2.4,3.5c29.7-14.1,52.9-35.1,69.4-63.4
		c0.1,0.1,0.2,0.1,0.2,0.2c0.3,0.5,0.6,0.9,0.9,1.4c5.6,9,12.1,17.3,19.6,24.7c11,10.9,23.9,18.7,38.6,23.6
		c13.6,4.5,27.5,7,41.7,8.6c15,1.6,30,2.4,45.1,2.6c9.8,0.2,19.7,0.1,29.5,0.1c2.3,0,4.7,0,7,0c0.2-1,0.4-1.7,0.6-2.4
		c1.2-4.3,4.4-6.9,8.2-8.9C311.4,296.6,316,295.5,320.8,294.6z M81.6,137.9c2.3-0.1,4.4-0.2,6.5-0.3c13.9-1.1,27.8-2.1,41.7-3.5
		c15.6-1.6,31.1-4.1,46.6-6.8c25.5-4.5,50.7-10.3,75.7-17c5.9-1.6,11.8-3.6,18-3.6c2.3,0,4.7-0.4,7.2-0.6c-4.4-6.8-8.7-13.4-13-20.1
		c-0.4,0.2-0.8,0.3-1.1,0.5c-36.1,16.8-73.9,28.2-113.3,34.5c-12.1,1.9-24.2,4.2-36.3,6.1c-9.5,1.5-19,2.8-28.4,4.2
		c-1.6,0.2-3.1,0.4-4.8,0.7C80.9,134,81.2,135.9,81.6,137.9z M79.3,90.7c0.6,0,1,0,1.4,0c6.6-0.2,13.3-0.1,19.9-0.6
		c11-0.7,22-1.6,33-2.8c11.3-1.3,22.6-3,33.9-5c12.1-2.1,24.2-4.6,36.2-7c16.7-3.4,33.3-7.1,49.7-11.8c2.8-0.8,5.4-0.9,8.2-0.3
		c2.8,0.7,5.6,1,8.7,1.6c-4.8-7.6-9.5-15-14.2-22.5c-0.5,0.2-0.8,0.3-1.1,0.5C220.9,59,185.1,69.8,147.9,75.8c-12,1.9-24,3.9-36,5.4
		c-9.1,1.1-18.3,1.6-27.5,2.3c-1.7,0.1-3.4,0-5.1,0C79.3,86.1,79.3,88.3,79.3,90.7z"/>
	<path d="M320.8,294.6c-4.8,0.9-9.4,1.9-13.7,4.2c-3.8,2-6.9,4.6-8.2,8.9c-0.2,0.7-0.3,1.4-0.6,2.4c-2.3,0-4.6,0-7,0
		c-9.8,0-19.7,0.1-29.5-0.1c-15.1-0.3-30.1-1-45.1-2.6c-14.2-1.6-28.1-4-41.7-8.6c-14.7-4.9-27.6-12.8-38.6-23.6
		c-7.6-7.4-14-15.7-19.6-24.7c-0.3-0.5-0.6-0.9-0.9-1.4c0-0.1-0.1-0.1-0.2-0.2c-16.6,28.3-39.7,49.3-69.4,63.4
		c-0.8-1.2-1.6-2.4-2.4-3.5c3-2.3,6-4.6,8.9-6.9c12.9-10.3,24.6-21.8,34-35.4c5.6-8,9.8-16.7,13.4-25.8c5.2-12.8,9.6-25.9,12.3-39.5
		c0.7-3.5,1.2-7.1,1.8-10.6c0-0.2,0.1-0.5,0.2-0.9c8.3,4.7,16.5,9.4,24.8,14.2c-2.9,2.2-5.8,4.3-8.6,6.5c-0.5,0.4-1,1-1.2,1.7
		c-3.7,9.9-7.3,19.8-11,29.6c-0.3,0.8-0.2,1.3,0.3,2c15.4,19.4,34.8,33.1,57.9,41.7c1.9,0.7,3.9,1.4,6,2.1c0-38.8,0-77.4,0-116.3
		c-2.2,0.4-4.4,0.8-6.6,1.2c-12.6,2.1-25.2,4.6-37.8,6.2c-10.3,1.4-20.7,2-31.1,2.5c-9.9,0.5-19.8,0.4-29.7,0.5
		c-1.6,0-3.2-0.1-4.8-0.2c-0.3,0-0.8-0.3-0.8-0.6c-0.4-1.3-0.7-2.7-1-4.1c2.5-0.3,5-0.5,7.4-0.8c8.8-0.9,17.6-1.9,26.5-2.9
		c9.1-1,18.3-2.1,27.4-3.2c15.5-1.8,30.9-4.6,46.1-8.4c23.9-5.9,47.4-13.2,70.3-22.6c11.5-4.7,22.8-10,33.7-16
		c0.2-0.1,0.4-0.2,0.8-0.4c4.7,7.4,9.4,14.8,14.2,22.4c-2.1-0.2-3.9-0.4-5.8-0.5c-1.8-0.2-3.7-0.4-5.5-0.6c-0.5,0-1.1,0.1-1.6,0.3
		c-18.2,6-36.3,11.9-54.9,16.7c-9.8,2.5-19.7,4.6-29.6,6.9c-1.8,0.4-1.7-0.1-1.7,2c0,15.5,0,31,0,46.6c0,0.5,0,0.9,0,1.6
		c0.5,0,1,0,1.4,0c21.9,0,43.8,0,65.8,0c0.8,0,1.4-0.2,2-0.8c4.1-4.1,8.2-8.2,12.3-12.3c0.3-0.3,0.6-0.7,0.9-1.2
		c6.8,7.2,13.4,14.2,20.2,21.4c-34.3,0-68.4,0-102.6,0c0,0.6,0,1.1,0,1.6c0,20.6,0,41.1,0,61.7c0,1.1,0.2,1.6,1.4,1.7
		c11.7,0.7,23.4,1.8,35,2.3c10.5,0.5,20.9,0.6,31.4,0.4c12.4-0.2,24.8-0.9,37.2-1.5c5.7-0.3,11.5-0.8,17.3-1.2
		C320.8,291.5,320.8,293.1,320.8,294.6z"/>
	<path d="M81.6,137.9c-0.4-2-0.8-3.9-1.2-5.9c1.7-0.2,3.2-0.4,4.8-0.7c9.5-1.4,19-2.7,28.4-4.2c12.1-1.9,24.2-4.2,36.3-6.1
		c39.4-6.3,77.1-17.7,113.3-34.5c0.3-0.1,0.7-0.3,1.1-0.5c4.3,6.6,8.6,13.3,13,20.1c-2.5,0.2-4.8,0.6-7.2,0.6
		c-6.2,0.1-12.1,2-18,3.6c-25,6.7-50.2,12.4-75.7,17c-15.5,2.8-31,5.2-46.6,6.8c-13.9,1.4-27.8,2.4-41.7,3.5
		C86.1,137.7,83.9,137.8,81.6,137.9z"/>
	<path d="M79.3,90.7c0-2.4,0-4.6,0-7.2c1.7,0,3.4,0.1,5.1,0c9.2-0.7,18.3-1.2,27.5-2.3c12-1.5,24-3.4,36-5.4
		c37.2-6,73-16.8,107.1-32.9c0.3-0.2,0.6-0.3,1.1-0.5c4.7,7.4,9.4,14.9,14.2,22.5c-3-0.5-5.9-0.9-8.7-1.6c-2.8-0.7-5.4-0.5-8.2,0.3
		c-16.4,4.7-33,8.4-49.7,11.8c-12,2.5-24.1,4.9-36.2,7c-11.3,1.9-22.6,3.7-33.9,5c-10.9,1.3-22,2.1-33,2.8
		c-6.6,0.5-13.3,0.4-19.9,0.6C80.3,90.7,79.8,90.7,79.3,90.7z"/>
</g>
</svg>
