<?xml version="1.0" encoding="utf-8"?>
<!-- Generator: Adobe Illustrator 20.1.0, SVG Export Plug-In . SVG Version: 6.00 Build 0)  -->
<svg version="1.1" id="图层_1" xmlns="http://www.w3.org/2000/svg" xmlns:xlink="http://www.w3.org/1999/xlink" x="0px" y="0px"
	 viewBox="0 0 360 360" style="enable-background:new 0 0 360 360;" xml:space="preserve">
<style type="text/css">
	.st0{fill:#FFFFFF;}
</style>
<g>
	<path class="st0" d="M-0.1,360.1c0-120.1,0-240.2,0-360.2c120.1,0,240.2,0,360.2,0c0,120.1,0,240.2,0,360.2
		C240,360.1,120,360.1-0.1,360.1z M245.1,236.6c0,4.3,0,8.5,0,12.8c0.3-0.1,0.4-0.1,0.5-0.2c5.5-2.9,11.1-5.9,16.6-8.9
		c0.3-0.2,0.6-0.7,0.6-1.1c-0.1-4.3-0.4-8.6-0.5-12.9c-0.2-11.5-0.4-23-0.6-34.5c0-0.9,0.3-1.4,1.1-1.9c2.9-1.9,5.8-3.8,8.7-5.8
		c0.3-0.2,0.5-0.4,0.9-0.7c-6.3-5.5-12.5-11-18.8-16.4c-0.4,0.4-0.7,0.7-1,1c-3.3,3.3-6.6,6.6-9.9,9.9c-0.6,0.7-1.3,0.9-2.2,0.9
		c-39.6,0-79.1,0-118.7,0c-0.8,0-1.7-0.2-2.4-0.6c-5.6-2.7-11.1-5.5-16.6-8.3c-0.3-0.2-0.7-0.3-1.3-0.6c1.6,28,1.6,55.7,0,83.7
		c0.6-0.2,1-0.3,1.3-0.5c5-2,10.1-4.1,15.1-6c1.1-0.4,1.4-1,1.4-2.1c-0.1-2.6,0-5.2,0-7.8C161.1,236.6,203,236.6,245.1,236.6z
		 M293.2,276.3c-0.3,0.5-0.5,0.9-0.8,1.2c-5.7,5.7-11.4,11.4-17,17.1c-0.5,0.5-1.1,0.8-1.9,0.8c-20,0-40,0-60,0
		c-0.3,0-0.7,0-1.1-0.1c0.3-0.4,0.5-0.7,0.7-1c5.8-7.6,11.7-15.1,17.5-22.7c3-3.9,6.3-7.6,10.2-10.8c3.4-2.8,7.2-5,11.5-6.6
		c-8.3-4.8-16.5-9.4-24.7-14.1c-0.1,0.3-0.2,0.5-0.3,0.6c-1,3.3-1.9,6.7-3.1,9.9c-5.4,14.8-12,29.1-18.5,43.4
		c-0.5,1.1-1,1.3-2.1,1.3c-51.2,0-102.4,0-153.6,0c-0.5,0-0.9,0-1.6,0c0.4,0.5,0.7,0.7,0.9,1c3,3,6,5.9,8.9,8.9
		c0.6,0.6,1.1,0.7,2,0.5c8.2-2.2,16.5-3.3,25-3.3c77.1,0.1,154.2,0,231.3,0c0.5,0,1,0,1.8,0C309.8,293.7,301.7,285.2,293.2,276.3z
		 M279.3,131.6c-5.6,5.2-11.1,10.3-16.5,15.4c-0.9,0.8-1.7,1.1-2.8,1.1c-65.2,0-130.5,0-195.7,0c-0.5,0-1,0-1.8,0
		c3.4,3.4,6.6,6.5,9.6,9.7c0.7,0.8,1.4,0.9,2.4,0.6c8-2.2,16.1-3.2,24.4-3.2c67,0.1,134,0,201,0c0.5,0,1.1,0,1.9,0
		C294.1,147.3,286.7,139.5,279.3,131.6z M125,243.5c3,3.9,6,7.6,8.9,11.5c6.1,8.3,11.6,17,14.3,27.2c0.5,2.1,1.7,4,3,5.8
		c1.3,1.9,3.4,2.2,5.3,1c4.4-2.7,7-6.5,7.3-11.7c0.4-6.5-2.1-11.8-6.6-16.2c-8.2-7.9-17.7-14.2-27-20.7c-0.2-0.2-0.8-0.1-1,0
		C127.7,241.4,126.4,242.5,125,243.5z"/>
	<path d="M245.1,236.6c-42.1,0-84,0-126,0c0,2.7-0.1,5.2,0,7.8c0,1.1-0.3,1.7-1.4,2.1c-5.1,2-10.1,4-15.1,6
		c-0.4,0.1-0.7,0.3-1.3,0.5c1.6-27.9,1.6-55.7,0-83.7c0.6,0.3,0.9,0.4,1.3,0.6c5.5,2.8,11.1,5.5,16.6,8.3c0.7,0.4,1.6,0.6,2.4,0.6
		c39.6,0,79.1,0,118.7,0c0.9,0,1.6-0.3,2.2-0.9c3.3-3.3,6.6-6.6,9.9-9.9c0.3-0.3,0.6-0.6,1-1c6.3,5.5,12.5,10.9,18.8,16.4
		c-0.3,0.3-0.6,0.5-0.9,0.7c-2.9,1.9-5.8,3.9-8.7,5.8c-0.8,0.5-1.1,1-1.1,1.9c0.2,11.5,0.4,23,0.6,34.5c0.1,4.3,0.4,8.6,0.5,12.9
		c0,0.4-0.3,0.9-0.6,1.1c-5.5,3-11.1,5.9-16.6,8.9c-0.1,0.1-0.2,0.1-0.5,0.2C245.1,245.2,245.1,241,245.1,236.6z M119.2,185.9
		c0,14.5,0,29,0,43.4c42,0,83.8,0,125.7,0c0-14.5,0-28.9,0-43.4C203,185.9,161.2,185.9,119.2,185.9z"/>
	<path d="M293.2,276.3c8.4,8.8,16.6,17.4,25,26.2c-0.8,0-1.3,0-1.8,0c-77.1,0-154.2,0-231.3,0c-8.5,0-16.8,1.1-25,3.3
		c-0.8,0.2-1.4,0.1-2-0.5c-2.9-3-5.9-6-8.9-8.9c-0.2-0.2-0.5-0.5-0.9-1c0.7,0,1.1,0,1.6,0c51.2,0,102.4,0,153.6,0
		c1.1,0,1.7-0.3,2.1-1.3c6.5-14.3,13-28.6,18.5-43.4c1.2-3.3,2.1-6.6,3.1-9.9c0.1-0.2,0.1-0.4,0.3-0.6c8.2,4.7,16.4,9.4,24.7,14.1
		c-4.4,1.5-8.1,3.8-11.5,6.6c-3.8,3.2-7.1,6.9-10.2,10.8c-5.8,7.6-11.7,15.1-17.5,22.7c-0.2,0.3-0.4,0.6-0.7,1
		c0.5,0,0.8,0.1,1.1,0.1c20,0,40,0,60,0c0.8,0,1.3-0.3,1.9-0.8c5.7-5.7,11.4-11.4,17-17.1C292.7,277.2,292.9,276.8,293.2,276.3z"/>
	<path d="M279.3,131.6c7.5,7.9,14.9,15.6,22.5,23.7c-0.8,0-1.4,0-1.9,0c-67,0-134,0-201,0c-8.3,0-16.4,1-24.4,3.2
		c-1,0.3-1.7,0.1-2.4-0.6c-3.1-3.2-6.2-6.3-9.6-9.7c0.8,0,1.3,0,1.8,0c65.2,0,130.5,0,195.7,0c1.2,0,2-0.3,2.8-1.1
		C268.2,141.9,273.7,136.8,279.3,131.6z"/>
	<path d="M125,243.5c1.4-1,2.7-2.1,4.1-3.1c0.2-0.2,0.8-0.2,1,0c9.3,6.5,18.8,12.7,27,20.7c4.5,4.4,7.1,9.8,6.6,16.2
		c-0.4,5.2-3,9-7.3,11.7c-1.9,1.2-4,0.9-5.3-1c-1.2-1.8-2.5-3.7-3-5.8c-2.6-10.2-8.1-18.9-14.3-27.2C131,251.1,128,247.4,125,243.5z
		"/>
	<path class="st0" d="M119.2,185.9c41.9,0,83.8,0,125.7,0c0,14.5,0,28.9,0,43.4c-41.9,0-83.8,0-125.7,0
		C119.2,214.9,119.2,200.5,119.2,185.9z"/>
</g>
</svg>
