<?xml version="1.0" encoding="utf-8"?>
<!-- Generator: Adobe Illustrator 20.1.0, SVG Export Plug-In . SVG Version: 6.00 Build 0)  -->
<svg version="1.1" id="图层_1" xmlns="http://www.w3.org/2000/svg" xmlns:xlink="http://www.w3.org/1999/xlink" x="0px" y="0px"
	 viewBox="0 0 360 360" style="enable-background:new 0 0 360 360;" xml:space="preserve">
<style type="text/css">
	.st0{fill:#FFFFFF;}
</style>
<g>
	<path class="st0" d="M-0.1,360.1c0-120.1,0-240.2,0-360.2c120.1,0,240.2,0,360.2,0c0,120.1,0,240.2,0,360.2
		C240,360.1,120,360.1-0.1,360.1z M176.8,121.1c-6-5.2-11.9-10.3-17.8-15.4c-3,3.7-5.9,7.3-8.7,11c-0.5,0.6-1,0.9-1.8,0.9
		c-20.5,0-40.9,0-61.4,0c-0.6,0-1.3-0.2-1.9-0.5c-4.8-2.7-9.6-5.5-14.5-8.2c-0.4-0.2-0.7-0.4-1.2-0.6c1.6,31.5,1.6,62.8,0,94.3
		c0.6-0.2,1-0.3,1.5-0.5c4.4-1.6,8.8-3.1,13.2-4.7c1.9-0.7,1.9-0.7,1.9-2.7c0-2.8,0-5.7,0-8.5c21.7,0,43.2,0,64.8,0
		c0,3.5,0,6.9,0,10.5c5.6-2.4,11-4.7,16.5-7.1c0-0.2,0-0.4,0-0.6c-0.3-10.9-0.8-21.9-1-32.8c-0.2-8.2,0-16.3-0.2-24.5
		c-0.1-2.5,0.6-4,2.8-5.2C171.6,124.8,174.1,122.9,176.8,121.1z M56.4,302.2c1.8-1.4,3.5-2.8,5.4-4c2.1-1.3,4.3-2.4,6.5-3.4
		c10.3-4.6,20.9-8,31.7-11.3c32-9.8,64.2-18.4,96.5-27.1c1.3-0.3,2.6-0.7,3.9-1.1c-0.4-1.7-0.8-3.2-1.2-4.8
		c-21.1,4.3-42.2,8.6-63.5,12.9c0.3-0.5,0.4-0.8,0.5-1.1c7.5-13.9,15-27.8,22.5-41.6c0.3-0.5,0.7-0.9,1.2-1.2
		c2.9-1.7,5.9-3.3,8.8-4.9c0.3-0.2,0.5-0.4,0.9-0.6c-8.3-4.8-16.5-9.4-24.7-14.1c-0.8,4.4-1.6,8.7-2.5,12.9
		c-3.6,17.1-8.5,33.8-13.7,50.5c-0.3,1.1-0.8,1.5-1.9,1.7c-16.2,3.1-32.3,6.4-48.5,9.4c-9.9,1.9-19.9,3.4-29.9,5
		c-1.6,0.3-3.2,0.4-5,0.6C48,287.7,52.3,295.1,56.4,302.2z M49.6,75.1c0.4,0.5,0.7,0.8,1,1c2.9,2.9,5.8,5.8,8.7,8.8
		c0.6,0.7,1.2,0.8,2.1,0.6c8.2-2.2,16.5-3.3,25-3.3c35.1,0.1,70.3,0,105.4,0c0.4,0,0.9,0,1.6,0c-7.2-7.6-14.2-15-21.2-22.4
		c-0.3,0.3-0.5,0.4-0.7,0.6c-5.3,4.6-10.6,9.1-15.8,13.8c-0.8,0.7-1.6,1-2.7,1c-33.9,0-67.7,0-101.6,0
		C50.7,75.1,50.3,75.1,49.6,75.1z M84.9,205.8c-1,0.7-1.9,1.3-2.9,1.9c-0.7,0.4-0.7,0.8-0.5,1.4c0.9,2.4,1.7,4.7,2.5,7.1
		c3.8,11.5,7.1,23.2,8.1,35.4c0.2,2.5,0.9,5,1.8,7.3c1.1,2.8,3.3,3.4,6,1.9c4.7-2.6,7.9-6.5,9.9-11.5c1.6-4,1.8-8,0.3-11.9
		c-0.9-2.4-2-4.8-3.5-6.8c-3.8-5-7.8-9.8-11.9-14.5C91.6,212.6,88.3,209.3,84.9,205.8z"/>
	<path d="M176.8,121.1c-2.7,1.8-5.2,3.7-7.9,5.2c-2.2,1.2-2.9,2.7-2.8,5.2c0.2,8.2,0,16.3,0.2,24.5c0.2,10.9,0.7,21.9,1,32.8
		c0,0.2,0,0.4,0,0.6c-5.5,2.3-10.9,4.7-16.5,7.1c0-3.6,0-7,0-10.5c-21.6,0-43.1,0-64.8,0c0,2.9,0,5.7,0,8.5c0,2,0,2-1.9,2.7
		c-4.4,1.6-8.8,3.1-13.2,4.7c-0.4,0.2-0.9,0.3-1.5,0.5c1.6-31.4,1.6-62.8,0-94.3c0.5,0.2,0.9,0.4,1.2,0.6c4.8,2.7,9.6,5.5,14.5,8.2
		c0.6,0.3,1.3,0.5,1.9,0.5c20.5,0,40.9,0,61.4,0c0.8,0,1.3-0.3,1.8-0.9c2.9-3.6,5.8-7.3,8.7-11C165,110.8,170.8,115.9,176.8,121.1z
		 M150.8,178.7c0-18.1,0-36,0-54c-21.6,0-43.1,0-64.6,0c0,18,0,36,0,54C107.7,178.7,129.2,178.7,150.8,178.7z"/>
	<path d="M56.4,302.2c-4.1-7.1-8.4-14.5-12.8-22.1c1.8-0.2,3.4-0.4,5-0.6c10-1.6,20-3.1,29.9-5c16.2-3,32.3-6.3,48.5-9.4
		c1.1-0.2,1.6-0.7,1.9-1.7c5.1-16.7,10-33.4,13.7-50.5c0.9-4.2,1.6-8.5,2.5-12.9c8.2,4.7,16.3,9.3,24.7,14.1
		c-0.4,0.3-0.6,0.5-0.9,0.6c-2.9,1.6-5.9,3.2-8.8,4.9c-0.5,0.3-1,0.7-1.2,1.2c-7.5,13.9-15,27.7-22.5,41.6c-0.1,0.3-0.3,0.6-0.5,1.1
		c21.3-4.3,42.3-8.6,63.5-12.9c0.4,1.6,0.8,3.1,1.2,4.8c-1.3,0.4-2.6,0.7-3.9,1.1c-32.3,8.7-64.5,17.4-96.5,27.1
		c-10.7,3.3-21.4,6.7-31.7,11.3c-2.2,1-4.4,2.1-6.5,3.4C59.9,299.4,58.2,300.8,56.4,302.2z"/>
	<path d="M49.6,75.1c0.7,0,1.2,0,1.7,0c33.9,0,67.7,0,101.6,0c1.1,0,1.9-0.3,2.7-1c5.3-4.6,10.6-9.2,15.8-13.8
		c0.2-0.2,0.4-0.4,0.7-0.6c7,7.4,14,14.8,21.2,22.4c-0.7,0-1.1,0-1.6,0c-35.1,0-70.3,0-105.4,0c-8.5,0-16.8,1.1-25,3.3
		c-0.9,0.2-1.4,0.1-2.1-0.6c-2.9-3-5.8-5.8-8.7-8.8C50.3,75.9,50,75.6,49.6,75.1z"/>
	<path d="M84.9,205.8c3.3,3.5,6.7,6.8,9.8,10.3c4.1,4.7,8.1,9.6,11.9,14.5c1.5,2,2.6,4.4,3.5,6.8c1.5,4,1.3,8-0.3,11.9
		c-2,4.9-5.2,8.9-9.9,11.5c-2.7,1.5-4.8,0.9-6-1.9c-0.9-2.3-1.7-4.8-1.8-7.3c-0.9-12.2-4.3-23.9-8.1-35.4c-0.8-2.4-1.6-4.8-2.5-7.1
		c-0.3-0.7-0.2-1.1,0.5-1.4C83,207.1,83.9,206.5,84.9,205.8z"/>
	<path class="st0" d="M150.8,178.7c-21.6,0-43,0-64.6,0c0-18,0-36,0-54c21.5,0,43,0,64.6,0C150.8,142.7,150.8,160.7,150.8,178.7z"/>
</g>
</svg>
