<?xml version="1.0" encoding="utf-8"?>
<!-- Generator: Adobe Illustrator 20.1.0, SVG Export Plug-In . SVG Version: 6.00 Build 0)  -->
<svg version="1.1" id="图层_1" xmlns="http://www.w3.org/2000/svg" xmlns:xlink="http://www.w3.org/1999/xlink" x="0px" y="0px"
	 viewBox="0 0 360 360" style="enable-background:new 0 0 360 360;" xml:space="preserve">
<style type="text/css">
	.st0{fill:#FFFFFF;}
</style>
<g>
	<path class="st0" d="M-0.1,360.1c0-120.1,0-240.2,0-360.2c120.1,0,240.2,0,360.2,0c0,120.1,0,240.2,0,360.2
		C240,360.1,120,360.1-0.1,360.1z M132,295.4c0.5-0.3,0.9-0.5,1.2-0.7c4.3-2.6,8.5-5.3,12.8-7.8c1-0.6,1.4-1.2,1.4-2.4
		c0-24.2,0-48.3-0.1-72.5c0-1,0.3-1.6,1.1-2.1c2-1.2,3.9-2.6,6-4c-5.2-5.5-10.3-11-15.4-16.6c-3,3-5.9,5.8-8.7,8.7
		c-0.6,0.6-1.1,0.8-1.9,0.8c-11.8,0-23.6,0-35.4,0c-0.7,0-1.5-0.2-2.1-0.5c-5.2-2.7-10.3-5.5-15.4-8.2c-0.4-0.2-0.8-0.4-1.2-0.6
		c1.4,37.4,1.7,74.5,0,111.8c0.2-0.1,0.4-0.1,0.5-0.2c5.1-2.6,10.2-5.1,15.3-7.6c0.7-0.3,0.7-0.8,0.7-1.4c0-5.1,0-10.2,0-15.2
		c0-0.4,0-0.9,0-1.3c13.8,0,27.4,0,41.2,0C132,282.2,132,288.7,132,295.4z M43.6,210.7c27.5-19.4,49.1-44,66-73
		c0.2,0.2,0.4,0.4,0.6,0.5c2.7,2.6,5.5,5.2,8.2,7.9c5.7,5.7,11.5,11.4,17,17.3c5.2,5.6,9.2,12.1,13.2,18.7c0.9,1.5,2.1,3,3.4,4.2
		c2,1.8,4.3,1.8,6.3,0.1c3.4-2.9,5.2-6.7,4.9-11.2c-0.3-5.6-2.5-10.4-6.5-14.4c-4.8-4.8-10.4-8.7-16.2-12.1
		c-9.1-5.2-18.3-10.1-27.5-15.1c-0.8-0.4-1-0.8-0.7-1.6c0.6-1.6,1-3.3,1.7-4.9c1.8-4.3,4.3-8,8.3-10.4c0.8-0.5,1.6-0.9,2.6-1.4
		c-7.9-4.3-15.6-8.6-23.5-12.9c-0.1,0.6-0.2,1-0.2,1.4c-0.5,2.8-0.8,5.7-1.4,8.5c-3,14.6-8.9,28-16.3,40.9
		c-9.8,16.8-21.9,32-35,46.3c-2.4,2.6-4.8,5.1-7.2,7.8C42.1,208.3,42.8,209.4,43.6,210.7z M87.3,57.4c-0.5,1.7-0.9,3.2-1.4,4.7
		c-0.5,1.6-1.1,3.1-1.7,4.6c-7.1,16-16.8,30.3-28,43.6c-3.2,3.7-6.7,7.2-10,10.8c1.1,1,2.2,2.2,3.5,3.4c1.2-0.8,2.6-1.7,4-2.7
		c11.5-7.9,22-16.9,30.7-27.8c3.5-4.4,7-8.8,10.7-13.1c2.6-3,5.7-5.6,9.4-7.3c1.2-0.5,2.4-0.8,3.7-1.2
		C101.3,67.5,94.3,62.5,87.3,57.4z M116.8,64.6c0.2,0.3,0.4,0.6,0.7,0.9c6,7.2,11.8,14.6,16.9,22.5c4.4,6.7,8.4,13.6,10.6,21.5
		c0.7,2.5,1.7,4.9,3.3,7c1.9,2.3,3.9,2.6,6.3,0.8c6.7-5,9.6-13.5,5.9-21.5c-2.4-5.3-6.2-9.5-10.6-13.3c-7.3-6.4-15.3-11.9-23.3-17.3
		c-2.1-1.4-4.2-2.8-6.2-4.1C119.1,62.3,118,63.5,116.8,64.6z"/>
	<path d="M132,295.4c0-6.7,0-13.2,0-19.9c-13.8,0-27.4,0-41.2,0c0,0.4,0,0.9,0,1.3c0,5.1,0,10.2,0,15.2c0,0.6,0,1-0.7,1.4
		c-5.1,2.5-10.2,5.1-15.3,7.6c-0.1,0.1-0.3,0.1-0.5,0.2c1.6-37.3,1.4-74.5,0-111.8c0.5,0.2,0.9,0.4,1.2,0.6
		c5.1,2.7,10.3,5.5,15.4,8.2c0.6,0.3,1.4,0.5,2.1,0.5c11.8,0,23.6,0,35.4,0c0.8,0,1.3-0.2,1.9-0.8c2.8-2.9,5.7-5.7,8.7-8.7
		c5.1,5.5,10.2,11,15.4,16.6c-2,1.4-4,2.7-6,4c-0.8,0.5-1.1,1.1-1.1,2.1c0,24.2,0,48.3,0.1,72.5c0,1.2-0.4,1.8-1.4,2.4
		c-4.3,2.6-8.5,5.2-12.8,7.8C132.9,294.9,132.5,295.1,132,295.4z M90.9,268.2c13.8,0,27.4,0,41,0c0-20.8,0-41.5,0-62.2
		c-13.7,0-27.3,0-41,0C90.9,226.7,90.9,247.4,90.9,268.2z"/>
	<path d="M43.6,210.7c-0.8-1.2-1.6-2.4-2.4-3.6c2.4-2.6,4.9-5.2,7.2-7.8c13.1-14.4,25.2-29.5,35-46.3c7.4-12.8,13.3-26.3,16.3-40.9
		c0.6-2.8,0.9-5.7,1.4-8.5c0.1-0.4,0.1-0.9,0.2-1.4c7.9,4.3,15.6,8.6,23.5,12.9c-0.9,0.5-1.8,0.9-2.6,1.4c-4.1,2.4-6.6,6.1-8.3,10.4
		c-0.7,1.6-1.1,3.2-1.7,4.9c-0.3,0.8-0.1,1.2,0.7,1.6c9.2,5,18.4,9.9,27.5,15.1c5.9,3.4,11.4,7.3,16.2,12.1c4,4,6.2,8.8,6.5,14.4
		c0.3,4.5-1.5,8.3-4.9,11.2c-2,1.7-4.3,1.8-6.3-0.1c-1.3-1.2-2.4-2.7-3.4-4.2c-4-6.5-8-13.1-13.2-18.7c-5.5-5.9-11.3-11.5-17-17.3
		c-2.7-2.7-5.5-5.3-8.2-7.9c-0.2-0.2-0.3-0.3-0.6-0.5C92.8,166.7,71.1,191.2,43.6,210.7z"/>
	<path d="M87.3,57.4c7.1,5.1,14,10.1,21,15.1c-1.3,0.4-2.6,0.7-3.7,1.2c-3.7,1.6-6.8,4.2-9.4,7.3c-3.7,4.2-7.2,8.7-10.7,13.1
		C75.6,105,65.1,114,53.6,121.9c-1.3,0.9-2.7,1.8-4,2.7c-1.3-1.2-2.4-2.4-3.5-3.4c3.3-3.6,6.9-7,10-10.8
		c11.2-13.3,20.9-27.7,28-43.6c0.7-1.5,1.2-3,1.7-4.6C86.4,60.7,86.8,59.1,87.3,57.4z"/>
	<path d="M116.8,64.6c1.2-1.2,2.4-2.3,3.6-3.6c2,1.3,4.1,2.7,6.2,4.1c8,5.4,16,10.9,23.3,17.3c4.3,3.8,8.1,8,10.6,13.3
		c3.7,8,0.8,16.5-5.9,21.5c-2.3,1.8-4.4,1.5-6.3-0.8c-1.7-2-2.7-4.5-3.3-7c-2.1-7.9-6.1-14.8-10.6-21.5c-5.2-7.9-11-15.2-16.9-22.5
		C117.2,65.2,117,64.9,116.8,64.6z"/>
	<path class="st0" d="M90.9,268.2c0-20.8,0-41.5,0-62.2c13.7,0,27.3,0,41,0c0,20.7,0,41.4,0,62.2
		C118.3,268.2,104.6,268.2,90.9,268.2z"/>
</g>
</svg>
