<?xml version="1.0" encoding="utf-8"?>
<!-- Generator: Adobe Illustrator 20.1.0, SVG Export Plug-In . SVG Version: 6.00 Build 0)  -->
<svg version="1.1" id="图层_1" xmlns="http://www.w3.org/2000/svg" xmlns:xlink="http://www.w3.org/1999/xlink" x="0px" y="0px"
	 viewBox="0 0 360 360" style="enable-background:new 0 0 360 360;" xml:space="preserve">
<style type="text/css">
	.st0{fill:#FFFFFF;}
</style>
<g>
	<path class="st0" d="M-0.1,360.1c0-120.1,0-240.2,0-360.2c120.1,0,240.2,0,360.2,0c0,120.1,0,240.2,0,360.2
		C240,360.1,120,360.1-0.1,360.1z M299.2,215.5c-5.1-5.1-10.2-10.2-15.4-15.4c-2.8,2.8-5.7,5.8-8.7,8.6c-0.4,0.4-1,0.6-1.5,0.6
		c-16.7,0-33.4,0-50,0c-0.5,0-1.1-0.2-1.6-0.4c-2.3-1.3-4.7-2.6-7-4c-2.9-1.6-5.7-3.3-8.8-5c1.6,38.3,1.5,76.4,0,114.5
		c0,0.3,0,0.5,0.1,0.9c0.2-0.1,0.4-0.1,0.5-0.1c5.1-2.5,10.2-5.1,15.2-7.6c0.4-0.2,0.7-0.9,0.7-1.3c0.1-3.9,0-7.8,0-11.6
		c0-0.5,0-0.9,0-1.4c17.7,0,35.3,0,53,0c0,5.9,0,11.6,0,17.4c0.2,0,0.3,0,0.4,0c5.2-2.2,10.4-4.4,15.5-6.7c0.3-0.1,0.6-0.6,0.6-1
		c0-1.9-0.1-3.8-0.2-5.6c-0.2-11.1-0.6-22.1-0.7-33.2c-0.2-13.5-0.2-27-0.3-40.5c0-0.8,0.2-1.4,0.9-1.9
		C294.4,219.6,296.8,217.5,299.2,215.5z M321.7,192.9c-5.4-1.5-10.5-3.5-15.3-6c-12.4-6.6-22.2-16.1-30.5-27.2
		c-8.5-11.4-15-24-20.4-37.1c-0.7-1.6-1.8-3.3-1.8-4.9c0-1.7,1-3.4,1.8-5c0.3-0.6,0.8-1.2,1.4-1.5c2.3-1.4,4.7-2.7,7.3-4.2
		c-8-4.4-15.8-8.7-23.4-12.9c-6.9,49.4-29.2,90.4-66.3,123.5c0.8,1.2,1.5,2.2,2.2,3.3c0.1,0.1,0.2,0.2,0.3,0.4
		c0.3-0.2,0.7-0.4,1-0.5c20.9-12.9,38.1-29.6,51.4-50.3c9.3-14.4,16.2-29.9,21.3-46.2c0.1-0.4,0.3-0.9,0.5-1.5
		c0.1,0.4,0.2,0.5,0.2,0.7c3,13.1,7.1,25.9,13,38c7.8,16.1,18.3,30.2,32.3,41.4c2.4,1.9,4.9,3.7,7.5,5.7c1.7-3.7,4-6.5,7.2-8.6
		c3.2-2,6.8-2.9,10.5-3.3C321.7,195.2,321.7,194.1,321.7,192.9z M186.2,132.9c0.4-0.3,0.7-0.5,1-0.8c7.3-5.7,13.8-12.3,19.8-19.3
		c10.9-12.6,20.1-26.3,28.7-40.6c0.8-1.3,1.7-2.2,3.1-2.8c2.5-1.1,4.9-2.4,7.5-3.7c-7.6-5.2-15-10.2-22.4-15.3
		c-8.4,29-21.1,55.6-40.2,78.9C184.6,130.5,185.4,131.7,186.2,132.9z M262.7,60.9c0.2,0.2,0.3,0.3,0.5,0.4c3,2.9,6.3,5.5,9,8.6
		c9.8,11.3,17.4,24,23.6,37.7c0.9,2.1,2.1,4.1,3.5,5.9c2.1,2.7,4.8,2.8,7.2,0.3c4.8-5.1,6-11,3.7-17.6c-1.9-5.5-5.8-9.7-10.1-13.5
		c-7.2-6.6-15.2-12.2-23.3-17.6c-3.8-2.6-7.7-5-11.6-7.6C264.3,58.6,263.5,59.8,262.7,60.9z"/>
	<path d="M299.2,215.5c-2.4,2-4.8,4.2-7.3,6.2c-0.6,0.5-0.9,1.1-0.9,1.9c0.1,13.5,0.1,27,0.3,40.5c0.1,11.1,0.5,22.1,0.7,33.2
		c0,1.9,0.2,3.8,0.2,5.6c0,0.3-0.3,0.8-0.6,1c-5.2,2.3-10.3,4.5-15.5,6.7c-0.1,0-0.2,0-0.4,0c0-5.8,0-11.5,0-17.4
		c-17.7,0-35.3,0-53,0c0,0.5,0,0.9,0,1.4c0,3.9,0,7.8,0,11.6c0,0.4-0.3,1.1-0.7,1.3c-5,2.6-10.1,5.1-15.2,7.6
		c-0.1,0.1-0.3,0.1-0.5,0.1c0-0.3-0.1-0.6-0.1-0.9c1.5-38.1,1.6-76.2,0-114.5c3.1,1.8,6,3.4,8.8,5c2.3,1.3,4.6,2.7,7,4
		c0.5,0.3,1,0.4,1.6,0.4c16.7,0,33.4,0,50,0c0.5,0,1.2-0.3,1.5-0.6c2.9-2.9,5.8-5.8,8.7-8.6C289,205.2,294.1,210.3,299.2,215.5z
		 M275.6,285.9c0-23.1,0-46.2,0-69.2c-17.7,0-35.2,0-52.8,0c0,23.1,0,46.2,0,69.2C240.4,285.9,257.9,285.9,275.6,285.9z"/>
	<path d="M321.7,192.9c0,1.2,0,2.3,0,3.6c-3.7,0.4-7.3,1.3-10.5,3.3c-3.2,2-5.5,4.9-7.2,8.6c-2.6-1.9-5.1-3.7-7.5-5.7
		c-14-11.3-24.5-25.3-32.3-41.4c-5.9-12.1-10-24.9-13-38c0-0.1-0.1-0.2-0.2-0.7c-0.2,0.7-0.4,1.1-0.5,1.5
		c-5.1,16.3-12,31.8-21.3,46.2c-13.3,20.7-30.5,37.4-51.4,50.3c-0.3,0.2-0.6,0.3-1,0.5c-0.1-0.2-0.3-0.3-0.3-0.4
		c-0.7-1-1.4-2.1-2.2-3.3c37.1-33.1,59.4-74.1,66.3-123.5c7.7,4.2,15.5,8.5,23.4,12.9c-2.6,1.5-5,2.8-7.3,4.2
		c-0.6,0.3-1.1,0.9-1.4,1.5c-0.7,1.6-1.8,3.3-1.8,5c0,1.6,1.1,3.3,1.8,4.9c5.4,13.1,11.9,25.6,20.4,37.1
		c8.3,11.2,18.1,20.6,30.5,27.2C311.2,189.4,316.3,191.4,321.7,192.9z"/>
	<path d="M186.2,132.9c-0.8-1.2-1.6-2.4-2.4-3.7c19.1-23.3,31.9-49.9,40.2-78.9c7.4,5.1,14.8,10.1,22.4,15.3c-2.6,1.3-5,2.6-7.5,3.7
		c-1.4,0.6-2.3,1.5-3.1,2.8c-8.5,14.2-17.8,28-28.7,40.6c-6,7-12.5,13.5-19.8,19.3C186.9,132.4,186.6,132.6,186.2,132.9z"/>
	<path d="M262.7,60.9c0.8-1.2,1.6-2.3,2.4-3.6c3.9,2.6,7.8,5,11.6,7.6c8.1,5.5,16.1,11.1,23.3,17.6c4.2,3.8,8.1,8,10.1,13.5
		c2.3,6.6,1.1,12.5-3.7,17.6c-2.4,2.5-5,2.5-7.2-0.3c-1.4-1.8-2.5-3.8-3.5-5.9C289.7,94,282,81.3,272.2,70c-2.7-3.1-6-5.8-9-8.6
		C263.1,61.3,262.9,61.1,262.7,60.9z"/>
	<path class="st0" d="M275.6,285.9c-17.6,0-35.2,0-52.8,0c0-23.1,0-46.1,0-69.2c17.6,0,35.2,0,52.8,0
		C275.6,239.7,275.6,262.8,275.6,285.9z"/>
</g>
</svg>
