<?xml version="1.0" encoding="utf-8"?>
<!-- Generator: Adobe Illustrator 20.1.0, SVG Export Plug-In . SVG Version: 6.00 Build 0)  -->
<svg version="1.1" id="图层_1" xmlns="http://www.w3.org/2000/svg" xmlns:xlink="http://www.w3.org/1999/xlink" x="0px" y="0px"
	 viewBox="0 0 360 360" style="enable-background:new 0 0 360 360;" xml:space="preserve">
<style type="text/css">
	.st0{fill:#FFFFFF;}
</style>
<g>
	<path class="st0" d="M-0.1,360.1c0-120.1,0-240.2,0-360.2c120.1,0,240.2,0,360.2,0c0,120.1,0,240.2,0,360.2
		C240,360.1,120,360.1-0.1,360.1z M46,313.1c0.7,1.1,1.3,2,1.9,2.9c0.3,0.6,0.7,0.7,1.4,0.6c6.9-1.3,13.9-2.5,20.8-4
		c13.4-2.8,26.7-6,39.7-10.5c11.3-3.9,21.9-9.1,31.3-16.5c8.9-7,15.1-15.7,18.2-26.6c2.4-8.5,3.7-17.2,4.3-26
		c0.1-1.9,0.2-3.8,0.3-5.7c11.4,0,22.7,0,34,0c0,0.6,0,1.1,0,1.6c0,20.6,0,41.2,0,61.8c0,7.3,3.5,12,10.5,14.1
		c3.3,1,6.7,1.4,10.2,1.4c25,0,49.9,0,74.9,0c7.1,0,13.1-2.3,18.2-7.2c2.5-2.4,4.6-5.1,6.4-8.2c-0.8-0.3-1.5-0.5-2.2-0.7
		c-4.7-1.7-7.8-5-8.9-9.9c-0.5-2.3-0.9-4.6-1-6.9c-0.4-9.1-0.6-18.1-1-27.2c0-0.4,0-0.8-0.1-1.3c-1.7,0-3.2,0.1-4.8,0
		c-0.9,0-1.1,0.3-1.2,1.1c-0.8,9.6-1.8,19.2-3.6,28.6c-0.7,3.8-1.5,7.7-3.3,11.2c-1.7,3.4-4.4,5.7-8.3,6.2c-1.8,0.2-3.7,0-5.5,0
		c-16.9,0-33.8,0-50.8,0c-1.1,0-2.2,0-3.4-0.1c-7.2-0.8-11.1-3.9-11.1-11.8c0.1-17.1,0-34.2,0-51.2c0-0.5,0-0.9,0-1.4
		c12.2,0,24.3,0,36.5,0c0,4.7,0,9.2,0,14c0.5-0.3,0.9-0.5,1.3-0.7c4.7-2.7,9.4-5.4,14.1-8c0.9-0.5,1.2-1,1.2-2
		c-0.3-13.2-0.7-26.4-0.9-39.6c-0.1-7.6-0.1-15.2-0.2-22.8c0-12.2,0-24.4-0.1-36.6c0-0.8,0.3-1.2,0.9-1.6c3.3-2,6.7-4,10-6
		c0.3-0.2,0.6-0.4,0.9-0.6c-6.7-5.5-13.4-11-20-16.5c-0.3,0.3-0.5,0.5-0.7,0.7c-3.1,3.4-6.2,6.8-9.2,10.3c-0.5,0.6-1.1,0.8-1.8,0.8
		c-42.5,0-85,0-127.4,0c-0.7,0-1.3-0.2-1.9-0.4c-5.6-2.4-11.1-4.8-16.7-7.3c-0.4-0.2-0.8-0.3-1.2-0.5c1.5,45.6,1.5,91,0,136.5
		c0.1,0,0.2,0,0.3,0c5.2-3,10.4-5.9,15.6-8.9c0.3-0.2,0.5-0.8,0.5-1.2c0.1-2.2,0-4.3,0-6.5c0-1.1,0-2.1,0-3.2c11,0,21.9,0,32.8,0
		c0,0.5,0,0.9,0,1.3c-0.6,8.3-2,16.5-4.5,24.5c-3,9.5-7.6,18-14.8,25.2c-8.2,8.2-17.8,14.2-28.4,18.6c-14.2,5.9-28.9,10.1-43.8,13.9
		C52.5,311.5,49.3,312.3,46,313.1z"/>
	<path d="M46,313.1c3.3-0.8,6.6-1.6,9.8-2.4c14.9-3.8,29.6-8,43.8-13.9c10.6-4.4,20.2-10.4,28.4-18.6c7.1-7.1,11.8-15.6,14.8-25.2
		c2.5-8,3.9-16.1,4.5-24.5c0-0.4,0-0.9,0-1.3c-10.9,0-21.8,0-32.8,0c0,1.1,0,2.1,0,3.2c0,2.2,0,4.3,0,6.5c0,0.4-0.2,1-0.5,1.2
		c-5.2,3-10.4,6-15.6,8.9c-0.1,0-0.1,0-0.3,0c1.5-45.5,1.5-90.9,0-136.5c0.4,0.2,0.8,0.3,1.2,0.5c5.6,2.4,11.1,4.9,16.7,7.3
		c0.6,0.3,1.3,0.4,1.9,0.4c42.5,0,85,0,127.4,0c0.8,0,1.3-0.2,1.8-0.8c3-3.4,6.1-6.8,9.2-10.3c0.2-0.2,0.4-0.5,0.7-0.7
		c6.7,5.5,13.3,11,20,16.5c-0.4,0.2-0.6,0.4-0.9,0.6c-3.3,2-6.6,4-10,6c-0.7,0.4-0.9,0.8-0.9,1.6c0.1,12.2,0.1,24.4,0.1,36.6
		c0,7.6,0,15.2,0.2,22.8c0.2,13.2,0.6,26.4,0.9,39.6c0,1-0.3,1.5-1.2,2c-4.7,2.6-9.4,5.3-14.1,8c-0.4,0.2-0.8,0.4-1.3,0.7
		c0-4.8,0-9.3,0-14c-12.2,0-24.3,0-36.5,0c0,0.5,0,1,0,1.4c0,17.1,0.1,34.2,0,51.2c-0.1,7.9,3.9,11,11.1,11.8
		c1.1,0.1,2.2,0.1,3.4,0.1c16.9,0,33.8,0,50.8,0c1.8,0,3.7,0.2,5.5,0c3.9-0.4,6.5-2.8,8.3-6.2c1.8-3.5,2.6-7.4,3.3-11.2
		c1.8-9.5,2.8-19.1,3.6-28.6c0.1-0.9,0.3-1.2,1.2-1.1c1.6,0.1,3.1,0,4.8,0c0,0.5,0.1,0.9,0.1,1.3c0.3,9.1,0.6,18.1,1,27.2
		c0.1,2.3,0.5,4.6,1,6.9c1.1,4.9,4.2,8.2,8.9,9.9c0.7,0.2,1.4,0.4,2.2,0.7c-1.8,3.1-3.9,5.8-6.4,8.2c-5.1,4.9-11.1,7.2-18.2,7.2
		c-25-0.1-49.9,0-74.9,0c-3.4,0-6.9-0.4-10.2-1.4c-7-2.1-10.5-6.8-10.5-14.1c0-20.6,0-41.2,0-61.8c0-0.5,0-1,0-1.6
		c-11.4,0-22.6,0-34,0c-0.1,1.9-0.2,3.8-0.3,5.7c-0.6,8.8-1.8,17.5-4.3,26c-3.1,10.9-9.4,19.6-18.2,26.6c-9.4,7.4-20,12.6-31.3,16.5
		c-13,4.5-26.3,7.8-39.7,10.5c-6.9,1.4-13.9,2.6-20.8,4c-0.7,0.1-1,0-1.4-0.6C47.3,315.1,46.7,314.2,46,313.1z M249.7,191.9
		c-45.2,0-90.2,0-135.3,0c0,9.4,0,18.7,0,28.1c45.1,0,90.2,0,135.3,0C249.7,210.6,249.7,201.3,249.7,191.9z M249.7,158.9
		c-45.2,0-90.2,0-135.3,0c0,8.6,0,17.2,0,25.7c45.1,0,90.2,0,135.3,0C249.7,176,249.7,167.5,249.7,158.9z M114.4,151.6
		c45.1,0,90.2,0,135.2,0c0-8.6,0-17.2,0-25.7c-45.1,0-90.2,0-135.2,0C114.4,134.5,114.4,143,114.4,151.6z"/>
	<path class="st0" d="M249.7,191.9c0,9.4,0,18.7,0,28.1c-45.1,0-90.2,0-135.3,0c0-9.4,0-18.7,0-28.1
		C159.5,191.9,204.5,191.9,249.7,191.9z"/>
	<path class="st0" d="M249.7,158.9c0,8.6,0,17.1,0,25.7c-45.1,0-90.1,0-135.3,0c0-8.5,0-17.1,0-25.7
		C159.5,158.9,204.5,158.9,249.7,158.9z"/>
	<path class="st0" d="M114.4,151.6c0-8.6,0-17.1,0-25.7c45.1,0,90.1,0,135.2,0c0,8.5,0,17.1,0,25.7
		C204.6,151.6,159.6,151.6,114.4,151.6z"/>
</g>
</svg>
