<?xml version="1.0" encoding="utf-8"?>
<!-- Generator: Adobe Illustrator 20.1.0, SVG Export Plug-In . SVG Version: 6.00 Build 0)  -->
<svg version="1.1" id="图层_1" xmlns="http://www.w3.org/2000/svg" xmlns:xlink="http://www.w3.org/1999/xlink" x="0px" y="0px"
	 viewBox="0 0 360 360" style="enable-background:new 0 0 360 360;" xml:space="preserve">
<style type="text/css">
	.st0{fill:#FFFFFF;}
</style>
<g>
	<path class="st0" d="M-0.1,360.1c0-120.1,0-240.2,0-360.2c120.1,0,240.2,0,360.2,0c0,120.1,0,240.2,0,360.2
		C240,360.1,120,360.1-0.1,360.1z M282.8,50.3c-0.4,0.4-0.7,0.8-1,1.1c-2.9,3.3-5.9,6.5-8.8,9.8c-0.6,0.7-1.2,0.9-2.1,0.9
		c-28.6,0-57.3,0-85.9,0c-0.7,0-1.4-0.2-2-0.5c-5.2-2.7-10.4-5.5-15.5-8.3c-0.4-0.2-0.7-0.4-1.1-0.6c1.5,56.2,1.4,112.2,0,168.3
		c0.1,0,0.3,0,0.4-0.1c5.2-2.6,10.4-5.2,15.5-7.8c0.3-0.2,0.6-0.7,0.6-1.1c0.1-2.5,0-5,0-7.4c0-0.7,0-1.5,0-2.2c7.1,0,14.1,0,21.2,0
		c-0.2,3.1-0.4,6.1-0.7,9.1c-0.9,11-2.6,21.8-5.8,32.4c-3.2,10.6-7.7,20.6-15.1,29c-5.5,6.3-11.8,11.6-18.5,16.5
		c-12.6,9.1-26.3,16.2-40.4,22.6c-0.7,0.3-1.3,0.6-2.1,1c0.9,1.3,1.6,2.4,2.4,3.6c9.7-3.1,19.1-6.6,28.3-10.6
		c12.7-5.6,25-12.1,35.7-21c9.8-8.1,17.7-17.7,22.6-29.5c6.1-14.6,8.9-30.1,9.8-45.8c0.1-2.4,0.2-4.8,0.3-7.3c7.1,0,14,0,21.1,0
		c0,0.5,0,1,0,1.4c0,5.5,0,11,0,16.4c0,23.3,0,46.6,0,69.8c0,6.4,3.1,10.9,9.1,13.1c3.1,1.2,6.4,1.6,9.8,1.6c10.9,0,21.8,0,32.8,0
		c3.1,0,6.2-0.1,9.3-0.5c3.2-0.3,6.5-0.7,9.3-2.3c4.6-2.6,7.2-6.8,9.7-11c-1.8-1.1-3.7-2-5.2-3.3c-3-2.6-4.2-6.3-4.4-10.2
		c-0.4-7.2-0.5-14.5-0.7-21.7c-0.1-2.5,0-5,0-7.6c-1.7,0-3.2,0-4.8,0c-0.5,6-0.9,12-1.5,18c-0.5,5.1-1,10.2-2,15.2
		c-1.2,6.6-5.3,10.5-12.6,10.3c-7-0.1-14.1,0-21.1,0c-1.5,0-3-0.1-4.4-0.4c-6.3-1.1-9.1-4.5-9.1-10.9c0-25.5,0-51,0-76.6
		c0-0.5,0-1,0-1.5c6.7,0,13.3,0,20,0c0,4.3,0,8.5,0,12.8c0.5-0.3,0.9-0.4,1.2-0.6c4.7-2.7,9.3-5.3,14-7.9c1-0.6,1.3-1.1,1.3-2.3
		c-0.4-13.5-1-27.1-1.1-40.6c-0.2-20,0-40.1,0-60.1c0-9.9,0-19.8,0-29.6c0-0.9,0.3-1.4,1.1-1.9c2.1-1.2,4.1-2.4,6.2-3.7
		c1.5-0.9,3-1.8,4.6-2.8C296.1,60.5,289.5,55.5,282.8,50.3z"/>
	<path d="M282.8,50.3c6.7,5.1,13.3,10.2,20.1,15.3c-1.6,1-3.1,1.9-4.6,2.8c-2.1,1.2-4.1,2.5-6.2,3.7c-0.8,0.4-1.1,0.9-1.1,1.9
		c0,9.9,0,19.8,0,29.6c0,20-0.1,40.1,0,60.1c0.1,13.5,0.7,27.1,1.1,40.6c0,1.2-0.3,1.8-1.3,2.3c-4.7,2.6-9.3,5.3-14,7.9
		c-0.3,0.2-0.7,0.4-1.2,0.6c0-4.3,0-8.5,0-12.8c-6.7,0-13.3,0-20,0c0,0.5,0,1,0,1.5c0,25.5,0,51,0,76.6c0,6.4,2.9,9.8,9.1,10.9
		c1.5,0.2,2.9,0.4,4.4,0.4c7,0,14.1-0.1,21.1,0c7.2,0.1,11.3-3.7,12.6-10.3c0.9-5,1.4-10.1,2-15.2c0.6-6,1-11.9,1.5-18
		c1.5,0,3,0,4.8,0c0,2.5-0.1,5.1,0,7.6c0.2,7.2,0.4,14.5,0.7,21.7c0.2,3.9,1.4,7.5,4.4,10.2c1.5,1.3,3.4,2.2,5.2,3.3
		c-2.4,4.1-5.1,8.4-9.7,11c-2.9,1.6-6.1,2-9.3,2.3c-3.1,0.3-6.2,0.5-9.3,0.5c-10.9,0.1-21.8,0-32.8,0c-3.3,0-6.6-0.4-9.8-1.6
		c-6-2.2-9.1-6.7-9.1-13.1c0-23.3,0-46.6,0-69.8c0-5.5,0-11,0-16.4c0-0.4,0-0.9,0-1.4c-7.1,0-14,0-21.1,0c-0.1,2.4-0.1,4.9-0.3,7.3
		c-1,15.8-3.7,31.2-9.8,45.8c-4.9,11.8-12.9,21.4-22.6,29.5c-10.8,9-23,15.4-35.7,21c-9.2,4-18.6,7.5-28.3,10.6
		c-0.8-1.1-1.5-2.3-2.4-3.6c0.7-0.3,1.4-0.7,2.1-1c14.1-6.4,27.8-13.6,40.4-22.6c6.7-4.8,13-10.2,18.5-16.5
		c7.4-8.5,11.9-18.4,15.1-29c3.2-10.6,4.9-21.4,5.8-32.4c0.3-3,0.5-6,0.7-9.1c-7.1,0-14,0-21.2,0c0,0.7,0,1.5,0,2.2c0,2.5,0,5,0,7.4
		c0,0.4-0.3,1-0.6,1.1c-5.2,2.6-10.3,5.2-15.5,7.8c-0.1,0-0.2,0-0.4,0.1c1.5-56.1,1.5-112.1,0-168.3c0.4,0.2,0.8,0.4,1.1,0.6
		c5.2,2.8,10.4,5.5,15.5,8.3c0.6,0.3,1.4,0.5,2,0.5c28.6,0,57.3,0,85.9,0c0.9,0,1.5-0.2,2.1-0.9c2.9-3.3,5.9-6.5,8.8-9.8
		C282.1,51.1,282.4,50.8,282.8,50.3z M182.8,195.2c31,0,61.9,0,92.8,0c0-12.9,0-25.8,0-38.7c-31,0-61.8,0-92.8,0
		C182.8,169.4,182.8,182.2,182.8,195.2z M275.6,111.8c-31,0-61.9,0-92.8,0c0,12.5,0,25,0,37.5c31,0,61.9,0,92.8,0
		C275.6,136.8,275.6,124.3,275.6,111.8z M275.6,69.4c-31,0-61.9,0-92.8,0c0,11.7,0,23.4,0,35.1c31,0,61.9,0,92.8,0
		C275.6,92.7,275.6,81.1,275.6,69.4z"/>
	<path class="st0" d="M182.8,195.2c0-12.9,0-25.8,0-38.7c31,0,61.9,0,92.8,0c0,12.9,0,25.8,0,38.7
		C244.7,195.2,213.8,195.2,182.8,195.2z"/>
	<path class="st0" d="M275.6,111.8c0,12.5,0,25,0,37.5c-31,0-61.9,0-92.8,0c0-12.5,0-25,0-37.5C213.7,111.8,244.6,111.8,275.6,111.8
		z"/>
	<path class="st0" d="M275.6,69.4c0,11.7,0,23.4,0,35.1c-30.9,0-61.9,0-92.8,0c0-11.7,0-23.3,0-35.1
		C213.7,69.4,244.6,69.4,275.6,69.4z"/>
</g>
</svg>
