<?xml version="1.0" encoding="utf-8"?>
<!-- Generator: Adobe Illustrator 20.1.0, SVG Export Plug-In . SVG Version: 6.00 Build 0)  -->
<svg version="1.1" id="图层_1" xmlns="http://www.w3.org/2000/svg" xmlns:xlink="http://www.w3.org/1999/xlink" x="0px" y="0px"
	 viewBox="0 0 360 360" style="enable-background:new 0 0 360 360;" xml:space="preserve">
<style type="text/css">
	.st0{fill:#FFFFFF;}
</style>
<g>
	<path class="st0" d="M-0.1,360.1c0-120.1,0-240.2,0-360.2c120.1,0,240.2,0,360.2,0c0,120.1,0,240.2,0,360.2
		C240,360.1,120,360.1-0.1,360.1z M262.7,256.6c0,0.6,0,1,0,1.5c0,9.2,0,18.5,0,27.7c0,0.6,0,1.3-0.1,1.9c-0.4,4.4-2.9,6.8-6.9,6.4
		c-7.8-0.8-15.6-1.7-23.3-2.6c-2-0.2-4.1-0.6-6.2-0.9c0,0.8,0,1.4,0,2c0,2.7,0,2.7,2.6,3.6c6.8,2.3,13.4,4.9,19.3,9.1
		c3.9,2.8,7.2,6,7.6,11.2c3.9-1,7.6-2.4,11.1-4.3c7.5-4.2,11.3-10.4,11.3-19.2c-0.1-31-0.1-61.9-0.1-92.9c0-1,0.3-1.6,1.2-2.1
		c2.8-1.7,5.5-3.4,8.4-5.2c-6-4.8-11.8-9.5-18-14.4c-0.3,0.4-0.5,0.9-0.8,1.2c-2.9,2.9-5.8,5.8-8.7,8.8c-0.6,0.6-1.2,0.9-2.1,0.9
		c-21,0-41.9,0-62.9,0c-0.4,0-0.8,0-1.5-0.1c0.4-0.3,0.6-0.4,0.7-0.5c8.4-5.1,16.7-10.2,25.1-15.2c5.2-3.1,10.9-5.3,17.1-5.5
		c1.6-0.1,3.1,0,4.9,0c-6.7-5.9-13.3-11.7-19.9-17.6c-3.3,3.3-6.6,6.5-9.7,9.8c-0.6,0.6-1.2,0.9-2.1,0.9c-19.5,0-39,0-58.4,0
		c-0.4,0-0.8,0-1.1,0c5.9-5.5,12.5-9.5,20.8-10.6c-7.6-4.8-15-9.5-22.1-14c-2.1,2.9-3.9,5.9-6.1,8.5c-5.3,6.6-11.6,12.2-17.8,17.9
		c-18.4,16.8-38.8,30.5-61.3,41.2c-1.2,0.6-2.3,1.1-3.5,1.7c0.8,1.2,1.6,2.4,2.4,3.6c14.7-5.4,29.2-11.3,43.6-17.6
		c0,0.7,0,1.1,0,1.6c-0.1,5.9-0.1,11.8-0.2,17.6c-0.2,11.4-0.7,22.8-2.1,34.2c-0.6,5.2-1.4,10.3-3,15.3c-4,12.2-11.2,22.4-20.5,31.1
		c-8.6,8.1-18.3,14.7-28.5,20.6c-1.2,0.7-2.3,1.3-3.5,2c0.8,1.3,1.6,2.4,2.5,3.7c5.2-2.5,10.4-4.9,15.5-7.5
		c11.1-5.6,21.7-12,31.3-19.9c10.5-8.7,17.9-19.5,21.2-32.9c0.3-1,0.7-1.1,1.6-1.1c19.9,0,39.8,0,59.6,0c0.4,0,0.9,0,1.4,0.1
		c0,18.1-0.6,36-2.3,54.2c6.3-3.1,12.3-6.1,18.3-9.2c0.3-0.1,0.5-0.7,0.5-1c0-1.8-0.2-3.5-0.2-5.3c-0.3-12.5-0.6-24.9-0.9-37.4
		c0-0.4,0-0.8,0.1-1.3C218.8,256.6,240.7,256.6,262.7,256.6z"/>
	<path d="M262.7,256.6c-22,0-43.9,0-65.8,0c0,0.5-0.1,0.9-0.1,1.3c0.3,12.5,0.6,24.9,0.9,37.4c0,1.8,0.2,3.5,0.2,5.3
		c0,0.3-0.2,0.9-0.5,1c-6,3.1-12,6.1-18.3,9.2c1.7-18.1,2.4-36.1,2.3-54.2c-0.6,0-1-0.1-1.4-0.1c-19.9,0-39.8,0-59.6,0
		c-0.8,0-1.3,0.1-1.6,1.1c-3.4,13.3-10.7,24.1-21.2,32.9c-9.6,8-20.2,14.3-31.3,19.9c-5.1,2.6-10.3,5-15.5,7.5
		c-0.9-1.3-1.6-2.4-2.5-3.7c1.2-0.7,2.4-1.4,3.5-2c10.2-5.9,19.9-12.6,28.5-20.6c9.3-8.7,16.4-18.9,20.5-31.1c1.6-5,2.4-10.1,3-15.3
		c1.3-11.4,1.8-22.8,2.1-34.2c0.1-5.9,0.2-11.8,0.2-17.6c0-0.4,0-0.9,0-1.6c-14.4,6.4-28.9,12.3-43.6,17.6c-0.8-1.2-1.5-2.3-2.4-3.6
		c1.2-0.6,2.4-1.2,3.5-1.7c22.4-10.7,42.9-24.4,61.3-41.2c6.2-5.7,12.5-11.4,17.8-17.9c2.2-2.7,4-5.6,6.1-8.5
		c7.1,4.5,14.5,9.2,22.1,14c-8.3,1.1-14.9,5.1-20.8,10.6c0.4,0,0.8,0,1.1,0c19.5,0,39,0,58.4,0c0.9,0,1.5-0.2,2.1-0.9
		c3.2-3.3,6.4-6.5,9.7-9.8c6.6,5.8,13.2,11.6,19.9,17.6c-1.8,0-3.4,0-4.9,0c-6.2,0.2-11.8,2.4-17.1,5.5c-8.4,5-16.7,10.2-25.1,15.2
		c-0.2,0.1-0.3,0.2-0.7,0.5c0.7,0,1.1,0.1,1.5,0.1c21,0,41.9,0,62.9,0c0.9,0,1.5-0.2,2.1-0.9c2.9-2.9,5.8-5.8,8.7-8.8
		c0.3-0.3,0.5-0.7,0.8-1.2c6.1,4.9,12,9.6,18,14.4c-2.9,1.8-5.6,3.5-8.4,5.2c-0.8,0.5-1.2,1.1-1.2,2.1c0,31-0.1,61.9,0.1,92.9
		c0,8.8-3.8,15-11.3,19.2c-3.5,2-7.2,3.3-11.1,4.3c-0.4-5.2-3.7-8.5-7.6-11.2c-5.9-4.2-12.6-6.7-19.3-9.1c-2.6-0.9-2.6-0.9-2.6-3.6
		c0-0.6,0-1.3,0-2c2.2,0.3,4.2,0.6,6.2,0.9c7.8,0.9,15.5,1.8,23.3,2.6c4,0.4,6.5-2.1,6.9-6.4c0.1-0.6,0.1-1.3,0.1-1.9
		c0-9.2,0-18.5,0-27.7C262.7,257.7,262.7,257.2,262.7,256.6z M196.9,219.9c22,0,43.9,0,65.8,0c0-7.8,0-15.6,0-23.3
		c-22,0-43.8,0-65.8,0C196.9,204.4,196.9,212.1,196.9,219.9z M196.8,249.4c22,0,43.9,0,65.8,0c0-7.4,0-14.8,0-22.1
		c-22,0-43.9,0-65.8,0C196.8,234.7,196.8,242,196.8,249.4z M208.1,168.6c0-0.1-0.1-0.2-0.1-0.3c-0.4,0-0.8,0-1.3,0
		c-21,0-41.9,0-62.9,0c-0.8,0-1.7,0.3-2.3,0.7c-7.7,5-15.4,10-23.1,15c-0.9,0.6-1.8,1.2-2.8,1.9c2.5,1.1,4.9,2.1,7.2,3.1
		c0.6,0.2,1.3,0.4,2,0.4c19.7,0,39.4,0,59,0c0.7,0,1.6-0.4,2.1-0.8c4-3.5,8-7.1,12-10.7C201.3,174.7,204.7,171.6,208.1,168.6z
		 M121.5,219.9c20,0,39.9,0,59.8,0c0-7.8,0-15.6,0-23.3c-20,0-39.9,0-59.8,0C121.5,204.4,121.5,212.1,121.5,219.9z M181.3,249.4
		c0-7.5,0-14.8,0-22.2c-20,0-39.9,0-59.9,0c-0.4,7.4-0.8,14.8-1.2,22.2C140.7,249.4,161,249.4,181.3,249.4z"/>
	<path class="st0" d="M196.9,219.9c0-7.8,0-15.5,0-23.3c21.9,0,43.8,0,65.8,0c0,7.8,0,15.5,0,23.3
		C240.7,219.9,218.8,219.9,196.9,219.9z"/>
	<path class="st0" d="M196.8,249.4c0-7.4,0-14.7,0-22.1c21.9,0,43.8,0,65.8,0c0,7.3,0,14.7,0,22.1
		C240.7,249.4,218.9,249.4,196.8,249.4z"/>
	<path class="st0" d="M208.1,168.6c-3.4,3.1-6.8,6.1-10.2,9.2c-4,3.6-7.9,7.2-12,10.7c-0.5,0.5-1.4,0.8-2.1,0.8c-19.7,0-39.4,0-59,0
		c-0.7,0-1.4-0.1-2-0.4c-2.4-1-4.7-2-7.2-3.1c1.1-0.7,1.9-1.3,2.8-1.9c7.7-5,15.4-10.1,23.1-15c0.7-0.4,1.5-0.7,2.3-0.7
		c21,0,41.9,0,62.9,0c0.4,0,0.8,0,1.3,0C208.1,168.3,208.1,168.4,208.1,168.6z"/>
	<path class="st0" d="M121.5,219.9c0-7.8,0-15.5,0-23.3c20,0,39.8,0,59.8,0c0,7.8,0,15.5,0,23.3
		C161.4,219.9,141.5,219.9,121.5,219.9z"/>
	<path class="st0" d="M181.3,249.4c-20.4,0-40.6,0-61.1,0c0.4-7.4,0.8-14.8,1.2-22.2c20,0,39.9,0,59.9,0
		C181.3,234.6,181.3,242,181.3,249.4z"/>
</g>
</svg>
