<?xml version="1.0" encoding="utf-8"?>
<!-- Generator: Adobe Illustrator 20.1.0, SVG Export Plug-In . SVG Version: 6.00 Build 0)  -->
<svg version="1.1" id="图层_1" xmlns="http://www.w3.org/2000/svg" xmlns:xlink="http://www.w3.org/1999/xlink" x="0px" y="0px"
	 viewBox="0 0 360 360" style="enable-background:new 0 0 360 360;" xml:space="preserve">
<style type="text/css">
	.st0{fill:#FFFFFF;}
</style>
<g>
	<path class="st0" d="M-0.1,360.1c0-120.1,0-240.2,0-360.2c120.1,0,240.2,0,360.2,0c0,120.1,0,240.2,0,360.2
		C240,360.1,120,360.1-0.1,360.1z M176.6,133c-5.1-5.1-10.2-10.2-15.6-15.6c-0.2,0.3-0.3,0.7-0.7,1c-2.9,3-5.9,5.9-8.8,8.8
		c-0.5,0.4-1.2,0.8-1.8,0.8c-7.8,0.1-15.5,0-23.3,0c-0.4,0-0.8,0-1.3-0.1c0.3-0.4,0.6-0.8,0.8-1c5.7-6.8,11.5-13.5,17.2-20.3
		c4.7-5.6,10.6-9.7,17.2-12.8c0.7-0.3,1.5-0.7,2.1-1c-5.9-5.9-11.7-11.7-17.7-17.7c-3.1,3.1-6.3,6.3-9.5,9.5
		c-0.6,0.6-1.3,0.9-2.2,0.9c-9.7,0-19.4,0-29,0c-0.4,0-0.8,0-1.4,0c0.1-0.4,0.2-0.7,0.3-0.9c3.1-7.6,6.8-14.9,11-21.9
		c0.3-0.4,0.8-0.8,1.2-1c2.9-1.3,5.8-2.6,8.7-3.9c0.3-0.1,0.6-0.3,1-0.5c-7.9-5.1-15.7-10.2-23.5-15.3
		C90.7,83,72.8,120.2,45.8,152.7c0.9,1.4,1.7,2.5,2.7,4c7.5-7.5,14.8-14.8,22.2-22.2c0,0.4,0,0.9,0,1.3c0,8.8,0,17.7,0,26.5
		c0,12.2-0.1,24.3-0.1,36.5c-0.1,9.4-0.1,18.8-0.3,28.2c-0.1,3.5-0.2,7-0.5,10.5c-0.7,7.9-2.3,15.6-3.9,23.3
		c-2.4,11.3-6,22.1-11.3,32.3c-3.4,6.6-7.3,12.9-11.5,19.1c-0.2,0.4-0.5,1-0.3,1.3c0.6,1.1,1.3,2.1,2,3.2
		c25.7-24.9,38.5-55.3,40.1-90.7c9.1,0,18,0,27.3,0c-0.4,24.3-0.7,48.6-1.1,72.8c0.2-0.1,0.5-0.3,0.9-0.4c4.8-2.7,9.5-5.4,14.3-8.1
		c0.8-0.5,1.1-1,1.1-2c-0.4-14-0.7-28-1.1-42.1c-0.1-4.9-0.1-9.8-0.1-14.6c0-1.9,0-3.7,0-5.5c9.1,0,18.1,0,27.1,0c0,0.4,0,0.8,0,1.2
		c0,21.1,0,42.2,0,63.4c0,0.4,0,0.9-0.1,1.3c-0.5,3.6-1.9,4.9-5.5,4.7c-3.9-0.3-7.9-0.8-11.8-1.3c-2-0.3-4.1-0.6-6.2-1
		c0,1.3,0.1,2.5,0,3.6c-0.1,0.9,0.3,1.2,1.1,1.6c3.9,2,7.8,3.9,11.5,6.2c4,2.5,7.2,5.8,7.6,11.3c3.2-1.8,6.3-3.4,9.2-5.3
		c5.8-3.7,8.5-9.1,8.5-16.1c0-51.4,0-102.8,0-154.2c0-1.1,0.3-1.7,1.2-2.3C171.3,137,174,135,176.6,133z"/>
	<path d="M176.6,133c-2.6,2-5.3,4-8.1,6c-0.9,0.6-1.2,1.3-1.2,2.3c0,51.4,0,102.8,0,154.2c0,6.9-2.6,12.3-8.5,16.1
		c-2.9,1.9-6,3.5-9.2,5.3c-0.4-5.4-3.7-8.8-7.6-11.3c-3.7-2.3-7.6-4.2-11.5-6.2c-0.7-0.4-1.1-0.7-1.1-1.6c0.1-1.1,0-2.3,0-3.6
		c2.2,0.3,4.2,0.7,6.2,1c3.9,0.5,7.8,1,11.8,1.3c3.6,0.3,5-1.1,5.5-4.7c0.1-0.4,0.1-0.9,0.1-1.3c0-21.1,0-42.2,0-63.4
		c0-0.4,0-0.7,0-1.2c-9,0-18,0-27.1,0c0,1.8,0,3.7,0,5.5c0,4.9,0,9.8,0.1,14.6c0.3,14,0.7,28,1.1,42.1c0,1-0.3,1.5-1.1,2
		c-4.8,2.7-9.5,5.4-14.3,8.1c-0.3,0.2-0.7,0.4-0.9,0.4c0.4-24.2,0.7-48.5,1.1-72.8c-9.2,0-18.2,0-27.3,0
		c-1.6,35.4-14.4,65.8-40.1,90.7c-0.7-1.1-1.5-2.1-2-3.2c-0.2-0.3,0-1,0.3-1.3c4.2-6.1,8.1-12.5,11.5-19.1
		c5.3-10.2,9-21.1,11.3-32.3c1.6-7.7,3.2-15.4,3.9-23.3c0.3-3.5,0.4-7,0.5-10.5c0.1-9.4,0.2-18.8,0.3-28.2
		c0.1-12.2,0.1-24.3,0.1-36.5c0-8.8,0-17.7,0-26.5c0-0.4,0-0.9,0-1.3c-7.4,7.4-14.7,14.7-22.2,22.2c-1-1.5-1.8-2.6-2.7-4
		c27-32.5,44.8-69.7,55.6-110.6c7.9,5.1,15.6,10.2,23.5,15.3c-0.4,0.2-0.7,0.4-1,0.5c-2.9,1.3-5.8,2.6-8.7,3.9c-0.5,0.2-1,0.6-1.2,1
		c-4.2,7-7.9,14.3-11,21.9c-0.1,0.2-0.1,0.4-0.3,0.9c0.5,0,0.9,0,1.4,0c9.7,0,19.4,0,29,0c0.9,0,1.6-0.3,2.2-0.9
		c3.2-3.2,6.4-6.4,9.5-9.5c5.9,5.9,11.8,11.8,17.7,17.7c-0.6,0.3-1.3,0.7-2.1,1c-6.6,3.1-12.5,7.1-17.2,12.8
		c-5.7,6.8-11.5,13.5-17.2,20.3c-0.2,0.3-0.5,0.6-0.8,1c0.6,0,0.9,0.1,1.3,0.1c7.8,0,15.5,0,23.3,0c0.6,0,1.4-0.3,1.8-0.8
		c3-2.9,5.9-5.9,8.8-8.8c0.3-0.3,0.5-0.7,0.7-1C166.4,122.8,171.5,127.9,176.6,133z M81.5,123.5c1.7,1.3,3.3,2.7,5,4
		c0.5,0.3,1.1,0.6,1.7,0.6c9.9,0,19.8,0,29.8,0c0.8,0,1.2-0.2,1.5-1c5.1-11.1,10.3-22.1,15.5-33.2c0.2-0.3,0.3-0.7,0.4-1.1
		c-0.3,0-0.5,0-0.7,0c-11.2,0-22.4,0-33.6,0c-0.7,0-1.1,0.3-1.4,0.9c-2.3,4-4.7,7.9-7.1,11.8C89,111.4,85.2,117.4,81.5,123.5z
		 M111.9,218.7c0-13,0-25.8,0-38.6c-9,0-18,0-26.9,0c0,12.9,0,25.7,0,38.6C93.9,218.7,102.9,218.7,111.9,218.7z M126.2,180.1
		c0,12.9,0,25.8,0,38.6c9,0,18,0,26.9,0c0-12.9,0-25.7,0-38.6C144.1,180.1,135.2,180.1,126.2,180.1z M85,135.3c0,12.6,0,25,0,37.5
		c9,0,17.9,0,26.9,0c0-12.5,0-25,0-37.5C102.9,135.3,94,135.3,85,135.3z M126.2,135.3c0,12.6,0,25,0,37.5c9,0,17.9,0,26.9,0
		c0-12.5,0-25,0-37.5C144.1,135.3,135.2,135.3,126.2,135.3z"/>
	<path class="st0" d="M81.5,123.5c3.8-6.1,7.5-12,11.2-18c2.4-3.9,4.7-7.9,7.1-11.8c0.3-0.6,0.7-0.9,1.4-0.9c11.2,0,22.4,0,33.6,0
		c0.2,0,0.3,0,0.7,0c-0.2,0.4-0.3,0.8-0.4,1.1c-5.2,11.1-10.3,22.1-15.5,33.2c-0.3,0.8-0.8,1-1.5,1c-9.9,0-19.8,0-29.8,0
		c-0.6,0-1.2-0.3-1.7-0.6C84.8,126.2,83.1,124.8,81.5,123.5z"/>
	<path class="st0" d="M111.9,218.7c-9,0-17.9,0-26.9,0c0-12.9,0-25.7,0-38.6c9,0,17.9,0,26.9,0C111.9,192.9,111.9,205.8,111.9,218.7
		z"/>
	<path class="st0" d="M126.2,180.1c9,0,17.9,0,26.9,0c0,12.9,0,25.7,0,38.6c-9,0-17.9,0-26.9,0C126.2,205.8,126.2,193,126.2,180.1z"
		/>
	<path class="st0" d="M85,135.3c9,0,17.9,0,26.9,0c0,12.5,0,25,0,37.5c-9,0-17.9,0-26.9,0C85,160.3,85,147.9,85,135.3z"/>
	<path class="st0" d="M126.2,135.3c9,0,17.9,0,26.9,0c0,12.5,0,25,0,37.5c-9,0-17.9,0-26.9,0C126.2,160.3,126.2,147.9,126.2,135.3z"
		/>
</g>
</svg>
