<?xml version="1.0" encoding="utf-8"?>
<!-- Generator: Adobe Illustrator 20.1.0, SVG Export Plug-In . SVG Version: 6.00 Build 0)  -->
<svg version="1.1" id="图层_1" xmlns="http://www.w3.org/2000/svg" xmlns:xlink="http://www.w3.org/1999/xlink" x="0px" y="0px"
	 viewBox="0 0 360 360" style="enable-background:new 0 0 360 360;" xml:space="preserve">
<style type="text/css">
	.st0{fill:#FFFFFF;}
</style>
<g>
	<path class="st0" d="M-0.1,360.1c0-120.1,0-240.2,0-360.2c120.1,0,240.2,0,360.2,0c0,120.1,0,240.2,0,360.2
		C240,360.1,120,360.1-0.1,360.1z M300.5,242.5c0,0.3-0.1,0.5-0.1,0.8c-0.6,7-1,14.1-1.7,21.1c-0.5,5.1-1.4,10.1-3.1,15
		c-2.6,7.4-8.1,11.4-16,11.4c-38.8,0-77.5,0-116.3,0c-1.6,0-3.3,0-4.9-0.2c-6.2-0.6-10.9-3.5-13.5-9.3c-1.8-4-2.3-8.3-2.3-12.6
		c0-21.2,0-42.4,0-63.6c0-0.4,0-0.8,0-1.2c4.4,0,8.6,0,12.9,0c0,3.5,0,6.9,0,10.3c0.3-0.1,0.4-0.1,0.6-0.2c4.7-2.5,9.4-5.1,14.1-7.6
		c0.3-0.2,0.6-0.9,0.6-1.3c-0.3-7.3-0.8-14.5-0.9-21.8c-0.2-12.6-0.1-25.3-0.1-37.9c0-1.2,0.3-2.1,1.2-2.9c2-1.9,3.9-3.9,5.9-5.9
		c-5.2-4.4-10.3-8.7-15.4-13c-2.2,3.3-4.4,6.5-6.5,9.7c-0.4,0.7-0.9,0.9-1.7,0.9c-9,0-18,0-27,0c-0.4,0-0.8,0-1.2-0.1
		c0-11.8,0-23.5,0-35.2c20.8,0,41.4,0,62.4,0c-6.4-6.8-12.6-13.4-18.9-20.1c-4.1,4.1-8.1,8.1-12.1,12.1c-0.6,0.6-1.2,0.9-2.1,0.9
		c-9.3,0-18.6,0-28,0c-0.4,0-0.9,0-1.4,0c0-0.6,0-1.1,0-1.6c0-7.9,0.1-15.8-0.1-23.6c0-2.2,0.5-3.7,2.3-5c2.1-1.5,3.9-3.3,6-5.1
		c-7.9-4.4-15.7-8.6-23.6-13c0.9,16.2,1.2,32.2,1.2,48.4c-20.8,0-41.5,0-62.4,0c3.4,3.4,6.7,6.6,9.8,9.9c0.6,0.6,1,0.7,1.8,0.5
		c7.5-2,15-3,22.7-3.2c9.1-0.2,18.2-0.1,27.2-0.1c0.3,0,0.5,0.1,0.8,0.1c0,11.7,0,23.4,0,35.2c-0.5,0-0.9,0-1.4,0
		c-9.7,0-19.4,0-29.2,0c-0.7,0-1.5-0.2-2.1-0.6c-4.8-2.7-9.5-5.4-14.3-8.1c-0.4-0.2-0.8-0.4-1.3-0.7c1.6,31.1,1.6,62,0,93.1
		c0.5-0.2,0.9-0.3,1.3-0.4c3.8-1.5,7.6-2.9,11.4-4.4c2.7-1.1,2.7-1.1,2.7-4c0-1.7,0-3.5,0-5.2c5.2,0,10.2,0,15.2,0
		c0,0.7,0,1.4-0.1,2c-1,7.6-1.8,15.2-3.1,22.7c-2.2,12.4-5.7,24.3-10.8,35.8c-6.4,14.4-15.1,27.3-24.6,39.7
		c-2.7,3.5-5.5,6.9-8.3,10.5c0.7,1,1.4,2.1,2,3.1c0.1,0.1,0.2,0.2,0.4,0.4c0.2-0.2,0.5-0.3,0.7-0.5c6.9-5.8,13.4-12,19.5-18.7
		c8.4-9.2,15.7-19.1,21.4-30.3c9.1-18,13.9-37.2,16.5-57.1c0.3-2.5,0.6-5,0.9-7.5c7.1,0,14.1,0,21.2,0c0,0.5,0,0.9,0,1.3
		c0,24.3,0,48.6,0,73c0,0.3,0,0.6,0,1c0.2,3.1,0.1,6.3,0.6,9.3c1,5.7,3.8,10.2,9.1,12.9c4,2.1,8.4,2.6,12.8,2.6
		c43.8,0,87.7,0,131.5,0c3.4,0,6.9,0,10.3-0.3c6.4-0.5,12.4-2.1,17.9-5.5c4-2.4,7.2-5.6,9.7-9.5c-0.1-0.1-0.1-0.2-0.2-0.3
		c-0.2-0.1-0.4-0.3-0.6-0.4c-5.6-3.8-9.1-9-10.7-15.5c-1.5-6.5-2.1-13.2-2.4-19.8c-0.1-3.3-0.2-6.6-0.3-10
		C304.3,242.5,302.4,242.5,300.5,242.5z"/>
	<path d="M300.5,242.5c2,0,3.9,0,5.8,0c0.1,3.4,0.2,6.7,0.3,10c0.3,6.7,0.8,13.3,2.4,19.8c1.5,6.5,5.1,11.7,10.7,15.5
		c0.2,0.1,0.4,0.3,0.6,0.4c0.1,0,0.1,0.1,0.2,0.3c-2.5,3.9-5.7,7.1-9.7,9.5c-5.5,3.4-11.6,5-17.9,5.5c-3.4,0.3-6.9,0.3-10.3,0.3
		c-43.8,0-87.7,0-131.5,0c-4.4,0-8.8-0.5-12.8-2.6c-5.3-2.7-8.2-7.2-9.1-12.9c-0.5-3-0.4-6.2-0.6-9.3c0-0.3,0-0.6,0-1
		c0-24.3,0-48.6,0-73c0-0.4,0-0.8,0-1.3c-7.1,0-14.1,0-21.2,0c-0.3,2.5-0.6,5-0.9,7.5c-2.6,19.9-7.4,39.1-16.5,57.1
		c-5.6,11.1-13,21.1-21.4,30.3c-6.1,6.7-12.6,12.8-19.5,18.7c-0.2,0.2-0.4,0.3-0.7,0.5c-0.1-0.2-0.3-0.3-0.4-0.4
		c-0.7-1-1.4-2.1-2-3.1c2.8-3.5,5.6-6.9,8.3-10.5c9.6-12.4,18.2-25.4,24.6-39.7c5.1-11.5,8.7-23.4,10.8-35.8
		c1.3-7.5,2.1-15.1,3.1-22.7c0.1-0.6,0.1-1.3,0.1-2c-5.1,0-10,0-15.2,0c0,1.7,0,3.5,0,5.2c0,2.9,0,2.9-2.7,4
		c-3.8,1.5-7.6,2.9-11.4,4.4c-0.4,0.1-0.7,0.2-1.3,0.4c1.6-31.1,1.6-62,0-93.1c0.6,0.3,0.9,0.5,1.3,0.7c4.8,2.7,9.5,5.4,14.3,8.1
		c0.6,0.3,1.4,0.6,2.1,0.6c9.7,0,19.4,0,29.2,0c0.4,0,0.9,0,1.4,0c0-11.8,0-23.4,0-35.2c-0.2,0-0.5-0.1-0.8-0.1
		c-9.1,0-18.2-0.1-27.2,0.1C75,99,67.4,100,60,102c-0.7,0.2-1.2,0.1-1.8-0.5c-3.2-3.3-6.4-6.5-9.8-9.9c20.9,0,41.6,0,62.4,0
		c0-16.2-0.3-32.2-1.2-48.4c7.9,4.4,15.7,8.6,23.6,13c-2.1,1.8-3.9,3.6-6,5.1c-1.8,1.3-2.4,2.8-2.3,5c0.1,7.9,0.1,15.8,0.1,23.6
		c0,0.5,0,0.9,0,1.6c0.6,0,1,0,1.4,0c9.3,0,18.6,0,28,0c0.9,0,1.5-0.3,2.1-0.9c4-4,8-8,12.1-12.1c6.3,6.7,12.5,13.3,18.9,20.1
		c-21,0-41.6,0-62.4,0c0,11.8,0,23.5,0,35.2c0.4,0,0.8,0.1,1.2,0.1c9,0,18,0,27,0c0.8,0,1.3-0.3,1.7-0.9c2.1-3.2,4.2-6.4,6.5-9.7
		c5.1,4.3,10.2,8.6,15.4,13c-2,2-3.9,4-5.9,5.9c-0.9,0.8-1.2,1.7-1.2,2.9c0.1,12.6,0,25.3,0.1,37.9c0.1,7.3,0.6,14.5,0.9,21.8
		c0,0.4-0.2,1.1-0.6,1.3c-4.7,2.6-9.4,5.1-14.1,7.6c-0.1,0.1-0.3,0.1-0.6,0.2c0-3.5,0-6.9,0-10.3c-4.3,0-8.5,0-12.9,0
		c0,0.4,0,0.8,0,1.2c0,21.2,0,42.4,0,63.6c0,4.3,0.5,8.6,2.3,12.6c2.6,5.8,7.3,8.7,13.5,9.3c1.6,0.2,3.3,0.2,4.9,0.2
		c38.8,0,77.5,0,116.3,0c7.8,0,13.4-3.9,16-11.4c1.7-4.9,2.6-9.9,3.1-15c0.7-7,1.2-14.1,1.7-21.1C300.4,243,300.4,242.8,300.5,242.5
		z M77.9,141.2c0,18.5,0,36.8,0,55.2c25.9,0,51.7,0,77.5,0c0-18.4,0-36.8,0-55.2C129.6,141.2,103.8,141.2,77.9,141.2z"/>
	<path class="st0" d="M77.9,141.2c25.9,0,51.6,0,77.5,0c0,18.4,0,36.8,0,55.2c-25.8,0-51.6,0-77.5,0C77.9,178,77.9,159.6,77.9,141.2
		z"/>
</g>
</svg>
