<?xml version="1.0" encoding="utf-8"?>
<!-- Generator: Adobe Illustrator 20.1.0, SVG Export Plug-In . SVG Version: 6.00 Build 0)  -->
<svg version="1.1" id="图层_1" xmlns="http://www.w3.org/2000/svg" xmlns:xlink="http://www.w3.org/1999/xlink" x="0px" y="0px"
	 viewBox="0 0 360 360" style="enable-background:new 0 0 360 360;" xml:space="preserve">
<style type="text/css">
	.st0{fill:#FFFFFF;}
</style>
<g>
	<path class="st0" d="M-0.1,360.1c0-120.1,0-240.2,0-360.2c120.1,0,240.2,0,360.2,0c0,120.1,0,240.2,0,360.2
		C240,360.1,120,360.1-0.1,360.1z M54.2,304.9c3.5-3.7,7.9-5.8,12.4-7.7c7.3-3.1,14.8-5.5,22.4-7.4c26.7-6.7,53.4-13.3,80.1-19.9
		c10-2.5,20.1-4.8,30.2-7.2c0.4-0.1,1-0.5,1-0.7c0.1-1.4,0-2.8,0-4.3c-24,3.9-47.8,7.8-71.7,11.8c0-14.1,0-28.2,0-42.4
		c22.3,0,44.6,0,67.1,0c-7.2-7.6-14.2-15-21.4-22.6c-0.4,0.5-0.6,0.9-0.9,1.2c-4.5,4.5-9,9-13.5,13.5c-0.6,0.6-1.2,0.8-2,0.8
		c-9.4,0-18.7,0-28.1,0c-0.4,0-0.8,0-1.2,0c0-15.3,0-30.5,0-45.8c12.1,0,24.2,0,36.4,0c0,4.7,0,9.3,0,14c0.5-0.2,0.8-0.3,1.2-0.5
		c4.3-2,8.5-4,12.8-5.9c1-0.5,1.4-1,1.4-2.1c0-36,0-71.9-0.1-107.9c0-1,0.3-1.8,1.1-2.5c2.4-2.3,4.8-4.7,7.2-7.2
		c-5.5-4.4-11-8.6-16.5-13c-0.3,0.4-0.6,0.7-0.9,1.1c-2.2,2.8-4.5,5.7-6.6,8.5c-0.6,0.8-1.2,1-2.1,1c-27.4,0-54.8,0-82.2,0
		c-0.8,0-1.7-0.3-2.4-0.7c-4.7-3-9.4-6-14.1-9.1c-0.4-0.2-0.7-0.4-1-0.6c1.5,47.1,1.2,94.1-0.1,141.2c0.4-0.2,0.8-0.3,1.1-0.4
		c4-1.7,7.9-3.6,12-5.1c2.7-0.9,3.8-2.3,3.4-5.1c-0.3-1.9,0-3.8,0-5.7c11.8,0,23.5,0,35.2,0c0,14.9,0,29.7,0,44.7
		c-20.8,0-41.4,0-62.3,0c0.4,0.4,0.7,0.7,0.9,1c2.9,2.9,5.9,5.9,8.8,8.8c0.7,0.7,1.2,0.8,2.1,0.5c6.2-1.7,12.5-3.1,19-3.2
		c10.4-0.1,20.7-0.1,31.1-0.1c0.1,0,0.3,0.1,0.5,0.1c0,15.3,0,30.5,0,46c-23.5,3.2-47,6.3-70.5,9.5C47.2,289.2,50.7,297,54.2,304.9z
		"/>
	<path d="M54.2,304.9c-3.5-7.9-7-15.6-10.5-23.3c23.6-3.2,47-6.3,70.5-9.5c0-15.5,0-30.7,0-46c-0.2,0-0.3-0.1-0.5-0.1
		c-10.4,0-20.7-0.1-31.1,0.1c-6.5,0.1-12.8,1.5-19,3.2c-0.9,0.2-1.4,0.2-2.1-0.5c-2.9-3-5.9-5.9-8.8-8.8c-0.3-0.3-0.5-0.5-0.9-1
		c20.9,0,41.6,0,62.3,0c0-15,0-29.8,0-44.7c-11.7,0-23.4,0-35.2,0c0,1.9-0.2,3.8,0,5.7c0.4,2.9-0.7,4.2-3.4,5.1
		c-4.1,1.4-8,3.4-12,5.1c-0.3,0.1-0.7,0.3-1.1,0.4c1.3-47.1,1.6-94.1,0.1-141.2c0.3,0.2,0.7,0.4,1,0.6c4.7,3,9.4,6.1,14.1,9.1
		c0.7,0.4,1.6,0.7,2.4,0.7c27.4,0,54.8,0,82.2,0c0.9,0,1.5-0.2,2.1-1c2.2-2.9,4.4-5.7,6.6-8.5c0.3-0.3,0.5-0.7,0.9-1.1
		c5.5,4.4,11,8.6,16.5,13c-2.5,2.4-4.8,4.8-7.2,7.2c-0.7,0.7-1.1,1.4-1.1,2.5c0,36,0,71.9,0.1,107.9c0,1.1-0.3,1.7-1.4,2.1
		c-4.3,1.9-8.6,3.9-12.8,5.9c-0.4,0.2-0.7,0.3-1.2,0.5c0-4.7,0-9.3,0-14c-12.2,0-24.3,0-36.4,0c0,15.2,0,30.4,0,45.8
		c0.5,0,0.8,0,1.2,0c9.4,0,18.7,0,28.1,0c0.8,0,1.4-0.2,2-0.8c4.5-4.5,9-9,13.5-13.5c0.3-0.3,0.5-0.7,0.9-1.2
		c7.2,7.6,14.3,15.1,21.4,22.6c-22.5,0-44.7,0-67.1,0c0,14.2,0,28.2,0,42.4c23.9-3.9,47.7-7.8,71.7-11.8c0,1.5,0.1,2.9,0,4.3
		c0,0.3-0.6,0.6-1,0.7c-10.1,2.4-20.1,4.7-30.2,7.2c-26.7,6.6-53.4,13.2-80.1,19.9c-7.6,1.9-15.1,4.3-22.4,7.4
		C62.2,299.1,57.7,301.1,54.2,304.9z M164.9,120c-12.2,0-24.3,0-36.3,0c0,15.7,0,31.3,0,46.9c12.1,0,24.2,0,36.3,0
		C164.9,151.2,164.9,135.7,164.9,120z M128.6,67c0,15.3,0,30.5,0,45.7c12.2,0,24.2,0,36.3,0c0-15.3,0-30.5,0-45.7
		C152.8,67,140.7,67,128.6,67z M114.2,166.9c0-15.7,0-31.3,0-46.9c-11.8,0-23.4,0-35.1,0c0,15.7,0,31.2,0,46.9
		C90.8,166.9,102.5,166.9,114.2,166.9z M114.2,67c-11.8,0-23.4,0-35.1,0c0,15.3,0,30.5,0,45.8c11.7,0,23.4,0,35.1,0
		C114.2,97.5,114.2,82.2,114.2,67z"/>
	<path class="st0" d="M164.9,120c0,15.6,0,31.2,0,46.9c-12.1,0-24.2,0-36.3,0c0-15.6,0-31.2,0-46.9C140.6,120,152.7,120,164.9,120z"
		/>
	<path class="st0" d="M128.6,67c12.1,0,24.1,0,36.3,0c0,15.3,0,30.4,0,45.7c-12.1,0-24.1,0-36.3,0C128.6,97.5,128.6,82.2,128.6,67z"
		/>
	<path class="st0" d="M114.2,166.9c-11.8,0-23.4,0-35.1,0c0-15.6,0-31.2,0-46.9c11.7,0,23.4,0,35.1,0
		C114.2,135.6,114.2,151.2,114.2,166.9z"/>
	<path class="st0" d="M114.2,67c0,15.3,0,30.5,0,45.8c-11.7,0-23.4,0-35.1,0c0-15.3,0-30.5,0-45.8C90.8,67,102.4,67,114.2,67z"/>
</g>
</svg>
