<?xml version="1.0" encoding="utf-8"?>
<!-- Generator: Adobe Illustrator 20.1.0, SVG Export Plug-In . SVG Version: 6.00 Build 0)  -->
<svg version="1.1" id="图层_1" xmlns="http://www.w3.org/2000/svg" xmlns:xlink="http://www.w3.org/1999/xlink" x="0px" y="0px"
	 viewBox="0 0 360 360" style="enable-background:new 0 0 360 360;" xml:space="preserve">
<style type="text/css">
	.st0{fill:#FFFFFF;}
</style>
<g>
	<path class="st0" d="M-0.1,360.1c0-120.1,0-240.2,0-360.2c120.1,0,240.2,0,360.2,0c0,120.1,0,240.2,0,360.2
		C240,360.1,120,360.1-0.1,360.1z M48.2,297.8c3.6,3.6,6.9,6.9,10.3,10.2c0.2,0.2,0.8,0.3,1.2,0.2c9.3-2.4,18.8-3.3,28.4-3.3
		c76.2,0,152.3,0,228.5,0c0.5,0,0.9,0,1.7,0c-6.8-8-13.4-15.8-20.1-23.6c-0.3,0.3-0.6,0.5-0.8,0.7c-5.3,4.9-10.5,9.8-15.8,14.7
		c-0.6,0.6-1.2,1.1-2.3,1.1c-29.4,0-58.8,0-88.2,0c-0.4,0-0.8,0-1.3-0.1c0-9.4,0-18.7,0-28.2c32.9,0,65.8,0,98.9,0
		c-6.4-7.2-12.6-14.2-18.9-21.3c-5.3,4.5-10.5,9-15.7,13.4c-0.5,0.4-1.3,0.7-2,0.7c-20.3,0-40.6,0-61,0c-0.4,0-0.9,0-1.3,0
		c0-8.7,0-17.3,0-25.8c20,0,39.9,0,59.9,0c0,3.1,0,6.1,0,9.3c0.5-0.2,0.9-0.3,1.2-0.5c4.7-2,9.5-4.1,14.2-6c0.9-0.4,1.1-0.9,1.1-1.8
		c-0.3-8.2-0.7-16.4-0.9-24.6c-0.2-11.2-0.2-22.3-0.3-33.5c0-1.4,0.4-2.4,1.5-3.2c2.3-1.8,4.5-3.8,6.9-5.8c-6-4.4-11.8-8.7-17.7-13
		c-2.2,2.9-4.3,5.7-6.4,8.6c-0.5,0.6-0.9,0.8-1.7,0.8c-44.9,0-89.8,0-134.6,0c-0.6,0-1.3-0.2-1.9-0.5c-4.8-2.7-9.6-5.5-14.4-8.2
		c-0.4-0.2-0.7-0.4-1.2-0.6c1.6,30.7,1.5,61.3,0,91.9c5.3-1.9,10.4-3.7,15.5-5.5c0.8-0.3,1.1-0.7,1-1.5c-0.1-1.9,0-3.9,0-5.8
		c20.9,0,41.6,0,62.3,0c0,8.6,0,17.2,0,25.8c-33.3,0-66.6,0-99.8,0c0.1,0.2,0.1,0.3,0.1,0.3c3.3,3.3,6.5,6.6,9.9,9.8
		c0.3,0.3,0.9,0.3,1.3,0.2c9-2.3,18.1-3.3,27.3-3.3c20,0,39.9,0,59.9,0c0.5,0,0.9,0,1.4,0c0,9.5,0,18.8,0,28.2
		C132.3,297.8,90.5,297.8,48.2,297.8z"/>
	<path d="M48.2,297.8c42.2,0,84.1,0,126,0c0-9.4,0-18.8,0-28.2c-0.5,0-1,0-1.4,0c-20,0-39.9,0-59.9,0c-9.2,0-18.3,1-27.3,3.3
		c-0.4,0.1-1,0-1.3-0.2c-3.3-3.2-6.6-6.5-9.9-9.8c0,0,0-0.1-0.1-0.3c33.3,0,66.5,0,99.8,0c0-8.7,0-17.2,0-25.8
		c-20.7,0-41.4,0-62.3,0c0,2,0,3.9,0,5.8c0,0.8-0.2,1.2-1,1.5c-5.1,1.8-10.2,3.6-15.5,5.5c1.5-30.7,1.6-61.2,0-91.9
		c0.5,0.2,0.9,0.4,1.2,0.6c4.8,2.7,9.6,5.5,14.4,8.2c0.6,0.3,1.3,0.5,1.9,0.5c44.9,0,89.8,0,134.6,0c0.7,0,1.2-0.2,1.7-0.8
		c2.1-2.9,4.2-5.7,6.4-8.6c5.9,4.3,11.8,8.6,17.7,13c-2.4,2-4.6,4-6.9,5.8c-1.1,0.9-1.5,1.8-1.5,3.2c0.1,11.2,0.1,22.3,0.3,33.5
		c0.1,8.2,0.5,16.4,0.9,24.6c0,0.9-0.1,1.4-1.1,1.8c-4.8,2-9.5,4-14.2,6c-0.4,0.2-0.7,0.3-1.2,0.5c0-3.2,0-6.2,0-9.3
		c-20,0-39.9,0-59.9,0c0,8.5,0,17.1,0,25.8c0.5,0,0.9,0,1.3,0c20.3,0,40.6,0,61,0c0.7,0,1.5-0.3,2-0.7c5.2-4.4,10.4-8.9,15.7-13.4
		c6.3,7,12.5,14,18.9,21.3c-33.1,0-66,0-98.9,0c0,9.5,0,18.8,0,28.2c0.4,0,0.8,0.1,1.3,0.1c29.4,0,58.8,0,88.2,0
		c1,0,1.6-0.5,2.3-1.1c5.2-4.9,10.5-9.8,15.8-14.7c0.2-0.2,0.5-0.4,0.8-0.7c6.6,7.8,13.2,15.6,20.1,23.6c-0.8,0-1.2,0-1.7,0
		c-76.2,0-152.3,0-228.5,0c-9.6,0-19.1,0.9-28.4,3.3c-0.4,0.1-0.9,0-1.2-0.2C55.2,304.7,51.8,301.4,48.2,297.8z M112.1,174.2
		c0,8.3,0,16.4,0,24.6c20.8,0,41.5,0,62.2,0c0-8.2,0-16.4,0-24.6C153.5,174.2,132.9,174.2,112.1,174.2z M189.8,198.7
		c20,0,39.9,0,59.9,0c0-8.2,0-16.4,0-24.5c-20,0-39.9,0-59.9,0C189.8,182.4,189.8,190.5,189.8,198.7z M174.3,206
		c-20.8,0-41.5,0-62.2,0c0,7.8,0,15.6,0,23.4c20.8,0,41.5,0,62.2,0C174.3,221.6,174.3,213.8,174.3,206z M189.8,229.3
		c20,0,39.9,0,59.9,0c0-7.8,0-15.6,0-23.3c-20,0-39.9,0-59.9,0C189.8,213.9,189.8,221.6,189.8,229.3z"/>
	<path class="st0" d="M112.1,174.2c20.8,0,41.4,0,62.2,0c0,8.2,0,16.4,0,24.6c-20.7,0-41.4,0-62.2,0
		C112.1,190.5,112.1,182.4,112.1,174.2z"/>
	<path class="st0" d="M189.8,198.7c0-8.2,0-16.3,0-24.5c19.9,0,39.9,0,59.9,0c0,8.1,0,16.3,0,24.5
		C229.8,198.7,209.9,198.7,189.8,198.7z"/>
	<path class="st0" d="M174.3,206c0,7.8,0,15.6,0,23.4c-20.8,0-41.5,0-62.2,0c0-7.8,0-15.5,0-23.4C132.8,206,153.5,206,174.3,206z"/>
	<path class="st0" d="M189.8,229.3c0-7.8,0-15.5,0-23.3c19.9,0,39.9,0,59.9,0c0,7.7,0,15.5,0,23.3
		C229.7,229.3,209.8,229.3,189.8,229.3z"/>
</g>
</svg>
