<?xml version="1.0" encoding="utf-8"?>
<!-- Generator: Adobe Illustrator 20.1.0, SVG Export Plug-In . SVG Version: 6.00 Build 0)  -->
<svg version="1.1" id="图层_1" xmlns="http://www.w3.org/2000/svg" xmlns:xlink="http://www.w3.org/1999/xlink" x="0px" y="0px"
	 viewBox="0 0 360 360" style="enable-background:new 0 0 360 360;" xml:space="preserve">
<style type="text/css">
	.st0{fill:#FFFFFF;}
</style>
<g>
	<path class="st0" d="M-0.1,360.1c0-120.1,0-240.2,0-360.2c120.1,0,240.2,0,360.2,0c0,120.1,0,240.2,0,360.2
		C240,360.1,120,360.1-0.1,360.1z M143.8,287c0.1,0.1,0.2,0.1,0.2,0.1c4.9-2.2,9.7-4.4,14.6-6.7c0.3-0.1,0.5-0.7,0.5-1
		c-0.2-9.6-0.5-19.3-0.7-28.9c-0.2-9.6-0.2-19.1-0.3-28.7c-0.1-10.4-0.1-20.8-0.1-31.2c0-14.9,0-29.8-0.1-44.6c0-1.9,0.5-3.1,2-4.2
		c2.6-2,4.9-4.3,7.5-6.5c-5.6-4.8-11-9.5-16.6-14.2c-2.6,3.7-5.1,7.3-7.6,10.9c-0.5,0.7-0.9,0.9-1.8,0.9c-9,0-18.1,0-27.1,0
		c-0.4,0-0.8,0-1.1,0c0-12.2,0-24.3,0-36.5c20,0,39.9,0,60.1,0c-6-7.2-11.8-14.2-17.7-21.3c-4.9,4.5-9.7,9-14.5,13.4
		c-0.5,0.4-1.2,0.7-1.9,0.7c-8.2,0-16.5,0-24.7,0c-0.4,0-0.8,0-1.2,0c0-0.3-0.1-0.4-0.1-0.5c0-7.8,0-15.5,0-23.3
		c0-0.4,0.4-1,0.8-1.3c3.6-2.4,7.3-4.7,11-7c0.3-0.2,0.7-0.5,1.2-0.8c-9.5-4-18.9-7.9-28.2-11.7c1.2,29.5,0.9,58.9,1.1,88.3
		c-8.6,0-16.9,0-25.3,0c-0.5,0-1-0.3-1.4-0.6c-4.4-3.1-8.9-6.1-13.3-9.2c-0.4-0.3-0.7-0.5-1.1-0.7c1.4,62.1,1.4,124,0,186
		c0.2,0,0.3-0.1,0.4-0.1c4.7-2.2,9.3-4.3,14-6.4c0.7-0.3,0.8-0.8,0.8-1.4c0-5.9,0-11.8,0-17.6c0-0.4,0-0.8,0-1.2
		c23.7,0,47.1,0,70.7,0C143.8,283.4,143.8,285.2,143.8,287z"/>
	<path d="M143.8,287c0-1.8,0-3.6,0-5.5c-23.6,0-47,0-70.7,0c0,0.4,0,0.8,0,1.2c0,5.9,0,11.8,0,17.6c0,0.6-0.1,1.1-0.8,1.4
		c-4.7,2.1-9.4,4.3-14,6.4c-0.1,0-0.2,0.1-0.4,0.1c1.4-62,1.4-123.9,0-186c0.4,0.2,0.8,0.5,1.1,0.7c4.4,3.1,8.9,6.2,13.3,9.2
		c0.4,0.3,0.9,0.6,1.4,0.6c8.4,0,16.7,0,25.3,0c-0.2-29.4,0.1-58.8-1.1-88.3c9.3,3.9,18.7,7.8,28.2,11.7c-0.5,0.3-0.8,0.6-1.2,0.8
		c-3.7,2.3-7.4,4.7-11,7c-0.4,0.2-0.8,0.8-0.8,1.3c0,7.8,0,15.5,0,23.3c0,0.1,0,0.2,0.1,0.5c0.4,0,0.8,0,1.2,0c8.2,0,16.5,0,24.7,0
		c0.6,0,1.4-0.3,1.9-0.7c4.8-4.4,9.6-8.8,14.5-13.4c5.9,7.1,11.7,14.1,17.7,21.3c-20.2,0-40.1,0-60.1,0c0,12.2,0,24.3,0,36.5
		c0.4,0,0.7,0,1.1,0c9,0,18.1,0,27.1,0c0.8,0,1.3-0.2,1.8-0.9c2.5-3.6,5-7.2,7.6-10.9c5.5,4.7,11,9.4,16.6,14.2
		c-2.5,2.2-4.9,4.5-7.5,6.5c-1.5,1.2-2,2.4-2,4.2c0.1,14.9,0,29.8,0.1,44.6c0,10.4,0,20.8,0.1,31.2c0.1,9.6,0.1,19.1,0.3,28.7
		c0.2,9.6,0.5,19.3,0.7,28.9c0,0.4-0.2,0.9-0.5,1c-4.8,2.3-9.7,4.5-14.6,6.7C144,287.1,143.9,287,143.8,287z M73.2,274.1
		c23.5,0,47,0,70.5,0c0-44.7,0-89.3,0-134c-23.5,0-47,0-70.5,0C73.2,184.8,73.2,229.4,73.2,274.1z"/>
	<path class="st0" d="M73.2,274.1c0-44.7,0-89.3,0-134c23.5,0,47,0,70.5,0c0,44.7,0,89.3,0,134C120.2,274.1,96.7,274.1,73.2,274.1z
		 M107.3,189.3c-8.6-12.2-18.2-23.4-28.1-33.9c-0.9,0.8-1.7,1.5-2.6,2.2c0.2,0.3,0.4,0.6,0.6,0.9c9.1,13,17.3,26.5,24.7,40.5
		c0.4,0.7,0.5,1.4,0.2,2.1c-5.6,15.8-12.5,30.9-21,45.4c-2.2,3.8-4.6,7.5-6.7,11.1c0.8,0.8,1.5,1.6,2.4,2.5
		c14.5-14,24.2-31.2,32.8-49.3c0.2,0.3,0.3,0.5,0.4,0.7c3.3,7.8,6.3,15.6,8.4,23.8c1.3,4.8,2.2,9.7,3.4,14.6c0.4,1.6,1.2,3.2,2,4.7
		c0.8,1.3,2,1.4,3.3,0.4c0.4-0.3,0.7-0.7,1-1c3.3-4.5,4.8-9.6,4.7-15.2c-0.1-5.7-2.1-10.9-4.6-16c-3.8-7.6-8.4-14.8-13.2-21.8
		c-0.5-0.7-0.5-1.2-0.2-1.9c4.8-11,9.6-22.1,14.4-33.2c0.3-0.7,0.9-1.3,1.5-1.7c2.3-1.4,4.7-2.7,7.2-4.2c-6.4-4-12.6-7.9-18.9-11.8
		C116.6,162.3,112.1,175.7,107.3,189.3z"/>
	<path d="M107.3,189.3c4.8-13.6,9.3-27,11.8-41.2c6.3,3.9,12.5,7.8,18.9,11.8c-2.5,1.5-4.9,2.7-7.2,4.2c-0.6,0.4-1.3,1-1.5,1.7
		c-4.8,11-9.6,22.1-14.4,33.2c-0.3,0.7-0.3,1.3,0.2,1.9c4.8,7,9.4,14.2,13.2,21.8c2.5,5,4.5,10.2,4.6,16c0.1,5.6-1.4,10.7-4.7,15.2
		c-0.3,0.4-0.6,0.7-1,1c-1.2,1-2.5,0.9-3.3-0.4c-0.8-1.5-1.6-3.1-2-4.7c-1.2-4.8-2.2-9.7-3.4-14.6c-2.1-8.2-5.1-16-8.4-23.8
		c-0.1-0.2-0.2-0.3-0.4-0.7c-8.6,18-18.3,35.3-32.8,49.3c-0.8-0.9-1.6-1.7-2.4-2.5c2.2-3.6,4.5-7.3,6.7-11.1
		c8.5-14.4,15.4-29.6,21-45.4c0.3-0.8,0.2-1.4-0.2-2.1c-7.4-14-15.7-27.5-24.7-40.5c-0.2-0.3-0.4-0.5-0.6-0.9
		c0.8-0.7,1.7-1.5,2.6-2.2C89.1,166,98.7,177.1,107.3,189.3z"/>
</g>
</svg>
