<?xml version="1.0" encoding="utf-8"?>
<!-- Generator: Adobe Illustrator 20.1.0, SVG Export Plug-In . SVG Version: 6.00 Build 0)  -->
<svg version="1.1" id="图层_1" xmlns="http://www.w3.org/2000/svg" xmlns:xlink="http://www.w3.org/1999/xlink" x="0px" y="0px"
	 viewBox="0 0 360 360" style="enable-background:new 0 0 360 360;" xml:space="preserve">
<style type="text/css">
	.st0{fill:#FFFFFF;}
</style>
<g>
	<path class="st0" d="M-0.1,360.1c0-120.1,0-240.2,0-360.2c120.1,0,240.2,0,360.2,0c0,120.1,0,240.2,0,360.2
		C240,360.1,120,360.1-0.1,360.1z M119.2,83.4c0-0.4-0.1-0.6-0.1-0.8c0-8.5,0-17,0-25.4c0-0.5,0.4-1.1,0.8-1.4
		c2.4-1.8,4.8-3.5,7.4-5.3c-7.9-3.2-15.7-6.3-23.4-9.4c0.4,14.1,0.7,28.1,1.1,42.3c-16.3,0-32.3,0-48.4,0c0.2,0.3,0.3,0.4,0.4,0.5
		c3.2,3.2,6.4,6.4,9.6,9.6c0.3,0.3,0.8,0.4,1.2,0.3c3.3-0.6,6.6-1.4,9.9-2c8.7-1.5,17.5-1.4,26.3-1.3c0.2,0,0.5,0.1,0.7,0.1
		c0,9.8,0,19.5,0,29.3c-14.1,0-28.1,0-42.3,0c3.6,3.6,6.9,6.9,10.3,10.3c0.2,0.2,0.8,0.2,1.2,0.1c7.9-2,15.9-3.1,24.1-3.2
		c2.3-0.1,4.5,0,6.8,0c0,9.5,0,18.8,0,28.2c-18.4,0-36.7,0-55.2,0c0.4,0.5,0.7,0.8,0.9,1c2.9,2.9,5.9,5.9,8.8,8.8
		c0.6,0.6,1.1,0.7,2,0.5c6.6-1.7,13.2-2.8,20-3c6.5-0.2,13-0.2,19.4-0.2c0.1,0,0.3,0,0.6,0.1c-11.7,28-28.4,52.3-50.6,72.9
		c0.8,1.2,1.6,2.4,2.5,3.7c3.7-2.7,7.5-5.3,11-8c11.1-8.7,21-18.6,30.5-29c0.5-0.6,1.1-0.9,1.9-0.9c16.1,0,32.2,0,48.2,0
		c0.4,0,0.8,0,1.2,0.1c-5.2,15.4-12.2,29.6-22.1,41.9c-13.4-8.3-26.7-16.5-40.1-24.7c-0.8,1.1-1.3,1.9-1.9,2.8
		c-0.2,0.3-0.4,0.7-0.7,1.1c12,9.6,23.7,19.3,34.1,30.6c-19.8,19.8-42.2,35.8-67.1,48.3c0.8,1.2,1.5,2.2,2.2,3.2
		c0.1,0.1,0.1,0.2,0.2,0.3c26.7-10.2,51-24.3,73-42.3c0.2,0.2,0.3,0.2,0.4,0.3c0.3,0.3,0.5,0.6,0.8,0.9c5.6,6.9,9.5,14.6,12.8,22.8
		c1,2.5,2.1,5,3.6,7.3c2.2,3.4,4.8,3.3,6.7-0.1c1.5-2.6,2.7-5.4,3.6-8.2c2.4-7.6,1.4-14.8-3.9-21.1c-2.3-2.8-4.9-5.3-7.5-7.9
		c-1.8-1.7-3.8-3.2-5.7-4.8c0.2-0.2,0.3-0.4,0.4-0.6c6.8-8.4,12.5-17.5,17.6-27c2.9-5.3,5.5-10.7,9.2-15.6c2.4-3.2,5-6.3,9.2-7.5
		c-5.5-5.9-11-11.8-16.5-17.7c-3,3.3-5.8,6.5-8.7,9.8c-0.5,0.6-1,0.9-1.8,0.9c-13.7,0-27.4,0-41.2,0c-0.3,0-0.7,0-1.3-0.1
		c2.5-2.9,4.7-5.6,7.1-8.1c3.7-3.9,7.4-7.7,12.9-9.5c-6.6-4.6-13-9.2-19.5-13.8c0-0.1,0.1-0.2,0.1-0.3c25.7,0,51.3,0,77.2,0
		c-5.6-6-11-11.8-16.7-17.9c-0.3,0.4-0.5,0.8-0.8,1.2c-2.9,3-5.9,5.9-8.8,8.8c-0.6,0.6-1.2,0.8-2,0.8c-10.1,0-20.2,0-30.4,0
		c-0.4,0-0.9,0-1.3,0c0-9.4,0-18.7,0-28.2c15.2,0,30.4,0,45.9,0c-5.7-6.1-11.1-11.9-16.8-18.1c-0.3,0.4-0.4,0.9-0.7,1.2
		c-3,3-6,6-9,9c-0.4,0.4-1.1,0.7-1.6,0.7c-5.6,0.1-11.1,0-16.7,0c-0.3,0-0.7,0-1-0.1c0-9.8,0-19.5,0-29.4c16.8,0,33.5,0,50.2,0
		c-5.5-5.5-10.9-10.9-16.4-16.4c-3.2,2.8-6.4,5.7-9.7,8.6c-0.5,0.4-1.3,0.7-1.9,0.7c-7,0-14,0-21,0
		C120.1,83.4,119.7,83.4,119.2,83.4z"/>
	<path d="M119.2,83.4c0.5,0,0.9,0,1.3,0c7,0,14,0,21,0c0.6,0,1.4-0.3,1.9-0.7c3.3-2.8,6.5-5.8,9.7-8.6c5.5,5.5,10.9,10.9,16.4,16.4
		c-16.7,0-33.4,0-50.2,0c0,9.9,0,19.6,0,29.4c0.3,0,0.7,0.1,1,0.1c5.6,0,11.1,0,16.7,0c0.6,0,1.2-0.3,1.6-0.7c3-3,6-6,9-9
		c0.3-0.3,0.5-0.8,0.7-1.2c5.8,6.2,11.2,12,16.8,18.1c-15.5,0-30.7,0-45.9,0c0,9.4,0,18.7,0,28.2c0.5,0,0.9,0,1.3,0
		c10.1,0,20.2,0,30.4,0c0.8,0,1.4-0.2,2-0.8c2.9-3,5.9-5.9,8.8-8.8c0.3-0.3,0.5-0.7,0.8-1.2c5.7,6.1,11.1,11.9,16.7,17.9
		c-25.9,0-51.6,0-77.2,0c0,0.1-0.1,0.2-0.1,0.3c6.5,4.6,13,9.2,19.5,13.8c-5.5,1.7-9.2,5.6-12.9,9.5c-2.4,2.6-4.6,5.3-7.1,8.1
		c0.7,0,1,0.1,1.3,0.1c13.7,0,27.4,0,41.2,0c0.8,0,1.3-0.3,1.8-0.9c2.8-3.2,5.7-6.5,8.7-9.8c5.5,5.9,11,11.7,16.5,17.7
		c-4.2,1.2-6.8,4.3-9.2,7.5c-3.7,4.8-6.3,10.3-9.2,15.6c-5.1,9.5-10.8,18.6-17.6,27c-0.1,0.2-0.3,0.4-0.4,0.6
		c1.9,1.6,3.9,3.1,5.7,4.8c2.6,2.5,5.2,5.1,7.5,7.9c5.3,6.2,6.3,13.4,3.9,21.1c-0.9,2.8-2.1,5.6-3.6,8.2c-2,3.4-4.6,3.5-6.7,0.1
		c-1.5-2.3-2.6-4.8-3.6-7.3c-3.3-8.1-7.2-15.9-12.8-22.8c-0.3-0.3-0.5-0.6-0.8-0.9c-0.1-0.1-0.2-0.2-0.4-0.3
		c-22,18-46.3,32.1-73,42.3c-0.1-0.1-0.2-0.2-0.2-0.3c-0.7-1-1.4-2.1-2.2-3.2c25-12.5,47.3-28.5,67.1-48.3
		c-10.4-11.3-22.2-21-34.1-30.6c0.3-0.4,0.4-0.8,0.7-1.1c0.5-0.8,1.1-1.6,1.9-2.8c13.4,8.2,26.7,16.4,40.1,24.7
		c9.9-12.4,16.9-26.6,22.1-41.9c-0.5,0-0.9-0.1-1.2-0.1c-16.1,0-32.2,0-48.2,0c-0.9,0-1.4,0.3-1.9,0.9c-9.5,10.4-19.4,20.3-30.5,29
		c-3.6,2.8-7.3,5.3-11,8c-0.9-1.4-1.7-2.5-2.5-3.7c22.2-20.6,38.9-44.9,50.6-72.9c-0.3,0-0.4-0.1-0.6-0.1c-6.5,0.1-13,0-19.4,0.2
		c-6.8,0.2-13.4,1.3-20,3c-0.8,0.2-1.4,0.1-2-0.5c-2.9-3-5.9-5.9-8.8-8.8c-0.3-0.3-0.5-0.6-0.9-1c18.6,0,36.8,0,55.2,0
		c0-9.4,0-18.7,0-28.2c-2.3,0-4.5,0-6.8,0c-8.1,0.2-16.2,1.2-24.1,3.2c-0.4,0.1-1,0.1-1.2-0.1c-3.4-3.3-6.7-6.7-10.3-10.3
		c14.3,0,28.3,0,42.3,0c0-9.8,0-19.5,0-29.3c-0.3,0-0.5-0.1-0.7-0.1c-8.8,0-17.6-0.2-26.3,1.3c-3.3,0.6-6.6,1.4-9.9,2
		c-0.4,0.1-1,0-1.2-0.3c-3.2-3.2-6.4-6.4-9.6-9.6c-0.1-0.1-0.2-0.2-0.4-0.5c16.1,0,32.1,0,48.4,0c-0.4-14.2-0.7-28.2-1.1-42.3
		c7.7,3.1,15.5,6.2,23.4,9.4c-2.6,1.8-5,3.5-7.4,5.3c-0.4,0.3-0.8,0.9-0.8,1.4c0,8.5,0,17,0,25.4C119.1,82.8,119.2,83,119.2,83.4z"
		/>
</g>
</svg>
