<?xml version="1.0" encoding="utf-8"?>
<!-- Generator: Adobe Illustrator 20.1.0, SVG Export Plug-In . SVG Version: 6.00 Build 0)  -->
<svg version="1.1" id="图层_1" xmlns="http://www.w3.org/2000/svg" xmlns:xlink="http://www.w3.org/1999/xlink" x="0px" y="0px"
	 viewBox="0 0 360 360" style="enable-background:new 0 0 360 360;" xml:space="preserve">
<style type="text/css">
	.st0{fill:#FFFFFF;}
</style>
<g>
	<path class="st0" d="M0.2,360.5c0-120.1,0-240.2,0-360.2c120.1,0,240.2,0,360.2,0c0,120.1,0,240.2,0,360.2
		C240.4,360.5,120.3,360.5,0.2,360.5z M152.4,314.7c4.7-2.4,9.2-5,13.3-8.2c6.2-4.8,9-11.2,9-19c-0.1-64.8,0-129.7,0-194.5
		c0-0.4-0.1-0.8,0-1.1c0.2-0.5,0.4-1.1,0.8-1.4c1.5-1,3-1.9,4.6-2.9c1.3-0.8,2.7-1.7,3.9-2.5c-5.1-5.1-10.2-10.2-15.3-15.3
		c-3.2,3.2-6.4,6.4-9.6,9.7c-0.6,0.6-1.1,0.8-1.9,0.8c-11.7,0-23.4,0-35.2,0c-0.4,0-0.8,0-1.2-0.1c0.1-0.3,0.2-0.4,0.3-0.5
		c5.2-7.5,10.4-14.9,15.7-22.4c0.3-0.4,0.8-0.7,1.2-0.9c2.8-1.4,5.6-2.8,8.7-4.3c-7.6-4.4-15-8.7-22.4-13
		c-2.6,14.1-6.8,27.6-10.7,41.2c-3.2,0-6.3,0.4-9.3-0.1c-2.1-0.4-4-2.1-6-3.2c-1-0.6-2.1-1.2-3.1-1.8c-2.5-1.4-4.9-2.8-7.4-4.3
		c1.2,44,0.9,87.9,1.1,131.9c-13,0-25.9,0-39,0c3.4,3.4,6.6,6.5,9.7,9.7c0.7,0.7,1.3,0.8,2.3,0.6c6.6-1.8,13.4-3.2,20.3-3.2
		c15.6-0.1,31.1,0,46.7,0c0.3,0,0.7,0.1,1.1,0.1c-0.2,0.5-0.4,0.8-0.6,1.2c-9.4,17.5-21.5,33-35.3,47.2
		c-12.4,12.7-26,24.1-40.4,34.6c-2.4,1.8-4.8,3.5-7.3,5.3c0.8,1.6,1.6,3.2,2.5,4.9c6.4-3.7,12.8-7.2,19-11
		c20.7-12.7,39.3-28.1,55.4-46.4c9.5-10.8,17.8-22.4,25.1-34.8c0.5-0.8,0.9-1.1,1.9-1.1c2.1,0.1,4.2,0,6.2,0c1,0,2,0,3,0
		c0,0.6,0,1.1,0,1.5c0,23,0,46,0,69c0,0.5,0,1,0,1.4c-0.3,2.7-1.6,4.7-4.2,5.6c-1.5,0.5-3.1,0.9-4.7,0.8c-8.5-0.7-17-1.5-25.4-2.4
		c-4.6-0.5-9.2-1.1-13.9-1.7c0,1.3,0,2.5,0,3.8c0,0.8,0.3,1,1,1.3c5.3,1.6,10.7,3,15.8,5.1C138.3,298.2,147.6,303.8,152.4,314.7z"/>
	<path d="M152.4,314.7c-4.9-10.9-14.2-16.4-24.5-20.6c-5.1-2.1-10.5-3.5-15.8-5.1c-0.7-0.2-1.1-0.5-1-1.3c0.1-1.2,0-2.5,0-3.8
		c4.7,0.6,9.3,1.2,13.9,1.7c8.5,0.9,16.9,1.7,25.4,2.4c1.5,0.1,3.2-0.3,4.7-0.8c2.6-0.9,3.9-2.9,4.2-5.6c0.1-0.5,0-1,0-1.4
		c0-23,0-46,0-69c0-0.4,0-0.9,0-1.5c-1.1,0-2,0-3,0c-2.1,0-4.2,0.1-6.2,0c-0.9,0-1.4,0.3-1.9,1.1c-7.2,12.4-15.6,24-25.1,34.8
		c-16.1,18.3-34.6,33.7-55.4,46.4c-6.2,3.8-12.6,7.3-19,11c-0.9-1.8-1.7-3.3-2.5-4.9c2.4-1.8,4.9-3.5,7.3-5.3
		C68,282.4,81.5,271,94,258.2c13.8-14.2,25.9-29.7,35.3-47.2c0.2-0.3,0.4-0.7,0.6-1.2c-0.4,0-0.8-0.1-1.1-0.1
		c-15.6,0-31.1-0.1-46.7,0c-6.9,0-13.7,1.4-20.3,3.2c-1,0.3-1.6,0.2-2.3-0.6c-3.1-3.2-6.3-6.3-9.7-9.7c13.2,0,26,0,39,0
		c-0.2-44,0.1-87.9-1.1-131.9c2.5,1.5,5,2.9,7.4,4.3c1,0.6,2.1,1.2,3.1,1.8c2,1.1,3.9,2.8,6,3.2c3,0.6,6.1,0.1,9.3,0.1
		c3.9-13.6,8.1-27.1,10.7-41.2c7.4,4.3,14.8,8.6,22.4,13c-3,1.5-5.8,2.9-8.7,4.3c-0.4,0.2-0.9,0.5-1.2,0.9
		c-5.2,7.4-10.5,14.9-15.7,22.4c-0.1,0.1-0.1,0.3-0.3,0.5c0.5,0,0.8,0.1,1.2,0.1c11.7,0,23.4,0,35.2,0c0.8,0,1.3-0.2,1.9-0.8
		c3.2-3.3,6.5-6.5,9.6-9.7c5.1,5.1,10.2,10.2,15.3,15.3c-1.2,0.8-2.6,1.6-3.9,2.5c-1.5,1-3.1,1.9-4.6,2.9c-0.4,0.3-0.6,0.9-0.8,1.4
		c-0.1,0.3,0,0.7,0,1.1c0,64.8,0,129.7,0,194.5c0,7.9-2.8,14.2-9,19C161.6,309.6,157.2,312.3,152.4,314.7z M104.2,87.4
		c0,11.4,0,22.6,0,34c18.4,0,36.7,0,55.1,0c0-11.4,0-22.6,0-34C140.9,87.4,122.6,87.4,104.2,87.4z M104.2,202.6
		c18.4,0,36.8,0,55.1,0c0-11.3,0-22.6,0-33.9c-18.4,0-36.7,0-55.1,0C104.2,180,104.2,191.2,104.2,202.6z M159.3,161.4
		c0-11,0-21.9,0-32.8c-18.4,0-36.7,0-55.1,0c0,11,0,21.9,0,32.8C122.6,161.4,140.9,161.4,159.3,161.4z"/>
	<path class="st0" d="M104.2,87.4c18.4,0,36.7,0,55.1,0c0,11.3,0,22.6,0,34c-18.4,0-36.7,0-55.1,0C104.2,110,104.2,98.8,104.2,87.4z
		"/>
	<path class="st0" d="M104.2,202.6c0-11.3,0-22.6,0-33.9c18.4,0,36.7,0,55.1,0c0,11.3,0,22.6,0,33.9
		C141,202.6,122.6,202.6,104.2,202.6z"/>
	<path class="st0" d="M159.3,161.4c-18.3,0-36.7,0-55.1,0c0-10.9,0-21.8,0-32.8c18.3,0,36.7,0,55.1,0
		C159.3,139.5,159.3,150.4,159.3,161.4z"/>
</g>
</svg>
