<?xml version="1.0" encoding="utf-8"?>
<!-- Generator: Adobe Illustrator 20.1.0, SVG Export Plug-In . SVG Version: 6.00 Build 0)  -->
<svg version="1.1" id="图层_1" xmlns="http://www.w3.org/2000/svg" xmlns:xlink="http://www.w3.org/1999/xlink" x="0px" y="0px"
	 viewBox="0 0 360 360" style="enable-background:new 0 0 360 360;" xml:space="preserve">
<style type="text/css">
	.st0{fill:#FFFFFF;}
</style>
<g>
	<path class="st0" d="M0.2,360.5c0-120.1,0-240.2,0-360.2c120.1,0,240.2,0,360.2,0c0,120.1,0,240.2,0,360.2
		C240.4,360.5,120.3,360.5,0.2,360.5z M55.7,306.4c54.9-10.1,102.9-33.5,143.7-71.8c0.1,0.5,0.2,0.9,0.2,1.2
		c1,9.4,1.3,18.8,0.7,28.3c-0.3,5.4-1.2,10.7-3.1,15.7c-2.1,5.6-6.1,10.7-15,10.8c-11.5,0.1-22.8-1.1-34.2-2.3
		c-2.4-0.2-4.9-0.5-7.4-0.8c0,1.6,0,3.1,0,4.6c1.2,0.4,2.3,0.7,3.5,1.1c0.1,0,0.2,0,0.2,0.1c7.2,2.1,14.1,4.6,20.4,8.8
		c4.2,2.9,7.8,6.3,9.7,11.1c0.7,1.6,1,3.3,1.6,4.9c3.2-0.6,10.5-3.4,15.3-5.8c8.3-4.3,15-10.3,19.3-18.8c7-14,9.1-28.8,7.6-44.3
		c-0.9-9.5-3.3-18.7-6.4-27.7c-0.9-2.7-1.9-5.4-2.9-8.3c5.5-2.3,10.9-4.6,16.3-7c0.2,0.5,0.2,0.6,0.3,0.8c3.2,10.2,7.1,20,12.2,29.4
		c6,11.1,12.8,21.5,21.7,30.5c9.2,9.4,19.8,17.1,31,23.9c2.2,1.3,4.5,2.6,6.7,3.9c0.1-0.2,0.2-0.2,0.2-0.3c2.7-6.9,8-10.9,14.8-13.1
		c2.8-0.9,5.7-1.4,8.6-2.2c0-0.7,0-1.6,0-2.4c0.1-0.7-0.2-1-0.9-1.2c-11.7-2.9-22.9-7-33.5-12.7c-11.5-6.1-22-13.5-31.2-22.7
		c-9.1-9.1-16.4-19.5-22.4-30.8c-0.9-1.7-1.8-3.5-2.7-5.2c0.3-0.2,0.5-0.3,0.8-0.4c9.5-3.8,19-7.7,28.6-11.3
		c6.7-2.5,13.5-4.6,20.6-5.7c1.3-0.2,2.6-0.3,4.1-0.5c-5.5-6.7-11-13.3-16.5-20c-3.9,4.4-8.3,7.9-12.9,11.3
		c-13.1,9.5-26.9,17.6-41.1,25.4c-2.8,1.5-5.6,3-8.4,4.5c-1.4-2.3-2.8-4.4-4.2-6.6c-7.4-11.1-15.7-21.4-24.5-31.4
		c-0.4-0.5-0.7-0.8-0.4-1.7c4.7-12.5,9.4-25,13.9-37.5c1.7-4.6,3.1-9.4,4.6-14.2c30.1,0.3,60.2,0.6,90.7,0.9
		c-6.4-6.9-12.7-13.6-18.9-20.4c-3,3.7-5.9,7.3-8.7,10.9c-0.5,0.7-1,0.9-1.9,0.9c-25.4-0.1-50.7-0.1-76.1-0.1
		c-9.5,0-19-0.1-28.6-0.1c-14.5-0.1-29-0.1-43.4-0.2c-12.6,0-25.2-0.1-37.8-0.1c-0.4,0-0.8,0-1.5,0c3,4.6,5.9,9.1,8.8,13.5
		c5.5-1.9,10.8-3.8,16.1-5.5c1.4-0.5,2.9-0.7,4.3-0.7c7.4,0,14.8,0.1,22.2,0.2c8.2,0.1,16.3,0.2,24.5,0.2c9.5,0.1,19,0.2,28.4,0.2
		c1.3,0,2.5,0,4,0c-0.2,0.6-0.3,1.1-0.5,1.5c-3.9,11.9-7.8,23.8-11.6,35.6c-1.2,3.6-2.2,7.2-4.8,10.2c-2.5,2.8-4.9,5.8-7.5,8.6
		c-8.8,9.1-19,16.5-29.5,23.4c-14.7,9.6-30.2,18-46,25.7c-1.2,0.6-2.4,1.2-3.7,1.8c0.4,1.2,0.8,2.4,1.2,3.6c1-0.4,2-0.7,2.9-1
		c19-6.5,37.6-14,55.1-23.8c11.2-6.2,21.8-13.3,31.2-22.1c2.1-2,4-4.1,6.1-6.2c0.4,0.5,0.7,0.8,0.9,1.1c3,3.7,5.5,7.7,7.6,12.1
		c1.2,2.6,1.4,1.7-0.7,3.9c-0.3,0.3-0.6,0.6-0.9,1c-11.7,11.9-24.6,22.5-38.5,31.8c-19.2,13-39.8,23.5-61.2,32.3
		c-3.2,1.3-6.4,2.6-9.6,3.9c0.2,0.6,0.4,1.2,0.6,1.8c0.2,0.6,0.4,1.2,0.6,1.8c44.9-9.6,83.9-30.5,117.8-61.2
		c0.4,0.7,0.8,1.2,1.1,1.7c2.8,4.6,4.7,9.7,6.7,14.7c0.3,0.9,0.2,1.4-0.4,2.1c-9.7,10.6-20.2,20.3-31.6,29
		c-23.4,18-49.2,31.6-76.7,42.1c-9.5,3.6-19.2,6.7-28.8,10c-0.4,0.1-1,0.6-1.1,1C55.6,303.6,55.7,304.9,55.7,306.4z"/>
	<path d="M55.7,306.4c0-1.5-0.1-2.8,0.1-4.1c0-0.4,0.6-0.8,1.1-1c9.6-3.3,19.3-6.4,28.8-10c27.5-10.5,53.3-24.2,76.7-42.1
		c11.4-8.7,21.9-18.4,31.6-29c0.6-0.7,0.8-1.2,0.4-2.1c-2-5-3.9-10.1-6.7-14.7c-0.3-0.5-0.7-1.1-1.1-1.7
		c-33.9,30.8-72.9,51.6-117.8,61.2c-0.2-0.6-0.4-1.2-0.6-1.8c-0.2-0.6-0.4-1.1-0.6-1.8c3.3-1.3,6.4-2.6,9.6-3.9
		c21.5-8.8,42-19.3,61.2-32.3c13.9-9.4,26.7-19.9,38.5-31.8c0.3-0.3,0.6-0.6,0.9-1c2-2.1,1.9-1.3,0.7-3.9c-2-4.3-4.6-8.3-7.6-12.1
		c-0.2-0.3-0.5-0.6-0.9-1.1c-2.1,2.1-4,4.2-6.1,6.2c-9.4,8.8-20,15.9-31.2,22.1c-17.6,9.8-36.1,17.3-55.1,23.8
		c-0.9,0.3-1.8,0.6-2.9,1c-0.4-1.2-0.8-2.3-1.2-3.6c1.3-0.6,2.5-1.2,3.7-1.8c15.8-7.8,31.3-16.1,46-25.7
		c10.6-6.9,20.7-14.4,29.5-23.4c2.6-2.7,5-5.7,7.5-8.6c2.6-2.9,3.7-6.6,4.8-10.2c3.8-11.9,7.7-23.8,11.6-35.6
		c0.1-0.4,0.3-0.9,0.5-1.5c-1.4,0-2.7,0-4,0c-9.5-0.1-19-0.2-28.4-0.2c-8.2-0.1-16.3-0.2-24.5-0.2c-7.4-0.1-14.8-0.2-22.2-0.2
		c-1.4,0-2.9,0.3-4.3,0.7c-5.3,1.8-10.6,3.6-16.1,5.5c-2.9-4.4-5.7-8.8-8.8-13.5c0.7,0,1.1,0,1.5,0c12.6,0,25.2,0,37.8,0.1
		c14.5,0.1,29,0.1,43.4,0.2c9.5,0,19,0.1,28.6,0.1c25.4,0,50.7,0.1,76.1,0.1c0.9,0,1.4-0.3,1.9-0.9c2.8-3.6,5.7-7.2,8.7-10.9
		c6.3,6.7,12.5,13.4,18.9,20.4c-30.5-0.3-60.6-0.6-90.7-0.9c-1.5,4.8-2.9,9.6-4.6,14.2c-4.6,12.5-9.2,25-13.9,37.5
		c-0.3,0.8,0,1.2,0.4,1.7c8.8,10,17.1,20.3,24.5,31.4c1.4,2.1,2.8,4.3,4.2,6.6c2.8-1.5,5.6-3,8.4-4.5c14.1-7.7,28-15.9,41.1-25.4
		c4.6-3.3,9-6.9,12.9-11.3c5.5,6.7,10.9,13.3,16.5,20c-1.5,0.2-2.8,0.3-4.1,0.5c-7.1,1.1-13.9,3.2-20.6,5.7
		c-9.6,3.6-19.1,7.5-28.6,11.3c-0.2,0.1-0.4,0.2-0.8,0.4c0.9,1.8,1.8,3.5,2.7,5.2c6,11.3,13.3,21.7,22.4,30.8
		c9.2,9.2,19.7,16.6,31.2,22.7c10.6,5.7,21.8,9.8,33.5,12.7c0.7,0.2,1,0.5,0.9,1.2c-0.1,0.8,0,1.7,0,2.4c-2.9,0.7-5.8,1.3-8.6,2.2
		c-6.9,2.1-12.1,6.2-14.8,13.1c0,0.1-0.1,0.1-0.2,0.3c-2.2-1.3-4.5-2.6-6.7-3.9c-11.2-6.8-21.7-14.5-31-23.9
		c-8.9-9-15.8-19.4-21.7-30.5c-5.1-9.4-9-19.2-12.2-29.4c-0.1-0.2-0.1-0.4-0.3-0.8c-5.5,2.3-10.9,4.6-16.3,7c1,2.9,2,5.6,2.9,8.3
		c3,9,5.4,18.2,6.4,27.7c1.5,15.4-0.6,30.3-7.6,44.3c-4.2,8.5-10.9,14.5-19.3,18.8c-4.8,2.5-12.1,5.3-15.3,5.8
		c-0.5-1.6-0.9-3.3-1.6-4.9c-2-4.8-5.5-8.2-9.7-11.1c-6.2-4.2-13.2-6.7-20.4-8.8c-0.1,0-0.2,0-0.2-0.1c-1.2-0.4-2.3-0.7-3.5-1.1
		c0-1.5,0-3,0-4.6c2.5,0.3,4.9,0.6,7.4,0.8c11.4,1.2,22.7,2.4,34.2,2.3c9-0.1,12.9-5.2,15-10.8c1.9-5.1,2.7-10.3,3.1-15.7
		c0.6-9.4,0.3-18.9-0.7-28.3c0-0.3-0.1-0.7-0.2-1.2C158.7,272.9,110.6,296.4,55.7,306.4z"/>
</g>
</svg>
