<?xml version="1.0" encoding="utf-8"?>
<!-- Generator: Adobe Illustrator 20.1.0, SVG Export Plug-In . SVG Version: 6.00 Build 0)  -->
<svg version="1.1" id="图层_1" xmlns="http://www.w3.org/2000/svg" xmlns:xlink="http://www.w3.org/1999/xlink" x="0px" y="0px"
	 viewBox="0 0 360 360" style="enable-background:new 0 0 360 360;" xml:space="preserve">
<style type="text/css">
	.st0{fill:#FFFFFF;}
</style>
<g>
	<path class="st0" d="M0.2,360.5c0-120.1,0-240.2,0-360.2c120.1,0,240.2,0,360.2,0c0,120.1,0,240.2,0,360.2
		C240.4,360.5,120.3,360.5,0.2,360.5z M109.9,74.4c-16.8,28.3-39.2,50.8-65.9,69.4c0.8,1.7,1.6,3.2,2.4,4.8
		c17.1-8.6,33.1-18.7,47.1-31.8c3.9,6.9,7.1,13.9,10.1,21.1c0.4,0.9,0.3,1.5-0.2,2.3c-11.3,18.4-25.5,34.2-41.9,48.1
		c-6.1,5.2-12.6,9.9-18.9,14.9c-0.3,0.3-0.8,0.8-0.7,1.1c0.2,1,0.6,2,1,3.1c12.9-6.3,25.1-13.4,36.5-22
		c11.4-8.6,21.7-18.3,30.6-29.8c0.2,0.5,0.3,0.8,0.4,1.1c2.8,8.1,4.8,16.3,6.3,24.7c0.3,1.7,0,3.1-0.9,4.6
		c-8.3,14.2-19,26.4-30.8,37.6c-11.3,10.7-23.5,20.4-36.2,29.4c-2.3,1.7-4.7,3.3-7.1,5c0.8,1.6,1.6,3.2,2.4,4.8
		c27.5-15.6,53.4-33.1,75.3-56.4c0.1,0.7,0.2,1.2,0.2,1.6c0.4,9.3,0.9,18.7,1.2,28c0.3,9.8,0,19.5-1.9,29.1
		c-1,5.4-2.5,10.6-5.3,15.4c-3.2,5.5-7.8,9-14.3,9.1c-3.9,0.1-7.8-0.3-11.7-0.8c-5.5-0.7-10.9-1.7-16.4-2.6c-0.4,1.5-0.8,3-1.1,4.6
		c0.4,0.1,0.7,0.2,0.9,0.3c6.1,2,12,4.4,17.3,8.1c4.9,3.4,8.7,7.6,10,13.7c0,0.1,0.1,0.2,0.2,0.3c6.6-1.5,12.5-4.4,17.7-8.7
		c9.1-7.5,14.5-17.3,17.4-28.6c2.2-8.7,2.5-17.5,2.6-26.4c0.2-12.7-0.5-25.4-1.6-38.1c-0.8-8.9-1.9-17.7-3.6-26.5
		c-0.5-2.5-1-5-1.5-7.5c2.1,2.2,4,4.5,5.9,6.8c5.2,6.6,10.3,13.4,13.4,21.2c2.9,7.1,5.3,14.5,8,21.7c0.7,2,1.4,4,2.4,5.9
		c1.8,3.3,4.4,3.7,7.4,1.5c2.6-2,4.5-4.5,5.6-7.5c2-5.3,1.4-10.5-0.4-15.7c-2.5-7-7-12.6-12.4-17.6c-8.4-7.9-17.8-14.8-27.6-20.9
		c-2.9-1.9-5.2-3.8-5.6-7.4c0-0.2-0.1-0.5-0.2-0.7c-0.4-0.8-0.1-1.3,0.5-1.8c10-8.2,20-16.5,30-24.7c3.7-3,7.4-5.9,11.8-8
		c2.8-1.3,5.7-2.2,8.8-2c-6.2-6.2-12.4-12.4-18.6-18.6c-1.7,4.5-4.3,8.7-7.1,12.7c-7.2,10.3-15.4,19.9-23.7,29.2
		c-1.4,1.6-2.9,3.2-4.4,4.8c-0.2-0.4-0.3-0.7-0.4-0.9c-1.6-3.9-3.1-7.8-4.9-11.6c-5.2-10.8-11.6-20.9-18.5-30.7
		c-0.8-1.1-0.8-1.7,0.1-2.8c10.2-11.4,20-23.1,28.9-35.5c0.5-0.7,1.1-0.8,1.8-0.8c14.4,0,28.8,0,43.2,0c0.4,0,0.8,0,1.6,0
		c-6.5-7.3-12.7-14.3-19-21.3c-4.5,4.5-8.9,8.9-13.2,13.3c-0.6,0.7-1.3,0.9-2.2,0.9c-29.3,0-58.6,0-87.8,0c-0.5,0-0.9,0-1.7,0
		c3.6,3.6,6.9,7,10.3,10.3c0.3,0.3,1,0.2,1.4,0.1c6.3-1.6,12.7-3.1,19.2-3.2c9-0.1,18-0.1,27-0.1C109.2,74.4,109.4,74.4,109.9,74.4z
		"/>
	<path d="M109.9,74.4c-0.5,0-0.7-0.1-0.9-0.1c-9,0-18-0.1-27,0.1C75.4,74.5,69,76,62.7,77.6c-0.4,0.1-1.1,0.1-1.4-0.1
		c-3.4-3.3-6.7-6.7-10.3-10.3c0.7,0,1.2,0,1.7,0c29.3,0,58.6,0,87.8,0c0.9,0,1.5-0.3,2.2-0.9c4.4-4.4,8.7-8.8,13.2-13.3
		c6.3,7.1,12.5,14.1,19,21.3c-0.8,0-1.2,0-1.6,0c-14.4,0-28.8,0-43.2,0c-0.8,0-1.3,0.1-1.8,0.8c-8.9,12.4-18.7,24.1-28.9,35.5
		c-0.9,1.1-0.9,1.7-0.1,2.8c6.8,9.8,13.2,19.9,18.5,30.7c1.8,3.8,3.3,7.7,4.9,11.6c0.1,0.3,0.2,0.5,0.4,0.9c1.5-1.7,3-3.2,4.4-4.8
		c8.4-9.4,16.6-18.9,23.7-29.2c2.8-4,5.4-8.2,7.1-12.7c6.2,6.2,12.3,12.3,18.6,18.6c-3.1-0.2-6,0.7-8.8,2c-4.3,2.1-8.1,5-11.8,8
		c-10,8.3-20,16.5-30,24.7c-0.6,0.5-1,1-0.5,1.8c0.1,0.2,0.2,0.4,0.2,0.7c0.4,3.6,2.7,5.5,5.6,7.4c9.8,6.2,19.1,13,27.6,20.9
		c5.3,5,9.9,10.6,12.4,17.6c1.8,5.2,2.4,10.4,0.4,15.7c-1.2,3-3.1,5.5-5.6,7.5c-2.9,2.3-5.6,1.8-7.4-1.5c-1-1.8-1.6-3.9-2.4-5.9
		c-2.7-7.2-5.1-14.5-8-21.7c-3.1-7.9-8.2-14.6-13.4-21.2c-1.8-2.4-3.8-4.6-5.9-6.8c0.5,2.5,1.1,5,1.5,7.5c1.7,8.8,2.9,17.6,3.6,26.5
		c1.1,12.7,1.8,25.4,1.6,38.1c-0.1,8.9-0.5,17.7-2.6,26.4c-2.9,11.3-8.3,21.1-17.4,28.6c-5.2,4.3-11.1,7.2-17.7,8.7
		c-0.1-0.1-0.2-0.2-0.2-0.3c-1.3-6.1-5.1-10.3-10-13.7c-5.3-3.7-11.2-6.1-17.3-8.1c-0.3-0.1-0.5-0.2-0.9-0.3
		c0.4-1.6,0.8-3.1,1.1-4.6c5.6,0.9,11,1.9,16.4,2.6c3.9,0.5,7.8,0.9,11.7,0.8c6.5-0.2,11.1-3.6,14.3-9.1c2.8-4.8,4.3-10,5.3-15.4
		c1.9-9.6,2.1-19.4,1.9-29.1c-0.2-9.3-0.8-18.7-1.2-28c0-0.5-0.1-0.9-0.2-1.6c-21.9,23.3-47.8,40.8-75.3,56.4
		c-0.8-1.6-1.6-3.2-2.4-4.8c2.4-1.7,4.8-3.3,7.1-5c12.7-9,24.9-18.6,36.2-29.4c11.8-11.3,22.5-23.5,30.8-37.6
		c0.9-1.5,1.2-2.9,0.9-4.6c-1.5-8.4-3.5-16.6-6.3-24.7c-0.1-0.3-0.2-0.6-0.4-1.1c-8.9,11.4-19.2,21.2-30.6,29.8
		c-11.4,8.5-23.6,15.7-36.5,22c-0.4-1.1-0.8-2.1-1-3.1c-0.1-0.3,0.4-0.9,0.7-1.1c6.3-5,12.8-9.7,18.9-14.9
		c16.4-13.9,30.6-29.7,41.9-48.1c0.5-0.8,0.6-1.4,0.2-2.3c-3-7.2-6.3-14.2-10.1-21.1c-14.1,13.1-30,23.2-47.1,31.8
		c-0.8-1.6-1.6-3.1-2.4-4.8C70.6,125.3,93.1,102.7,109.9,74.4z"/>
</g>
</svg>
