<?xml version="1.0" encoding="utf-8"?>
<!-- Generator: Adobe Illustrator 20.1.0, SVG Export Plug-In . SVG Version: 6.00 Build 0)  -->
<svg version="1.1" id="图层_1" xmlns="http://www.w3.org/2000/svg" xmlns:xlink="http://www.w3.org/1999/xlink" x="0px" y="0px"
	 viewBox="0 0 360 360" style="enable-background:new 0 0 360 360;" xml:space="preserve">
<style type="text/css">
	.st0{fill:#FFFFFF;}
</style>
<g>
	<path class="st0" d="M-0.1,360.1c0-120.1,0-240.2,0-360.2c120.1,0,240.2,0,360.2,0c0,120.1,0,240.2,0,360.2
		C240,360.1,120,360.1-0.1,360.1z M228.7,102.2c0.3-0.4,0.6-0.7,0.9-1c8.8-9.2,17.6-18.3,26.4-27.5c0.6-0.7,1.2-0.9,2.2-0.9
		c18.7,0,37.4,0,56,0c0.4,0,0.9,0,1.6,0c-6.1-6.9-11.9-13.5-17.8-20.1c-4.5,4.1-8.8,8.1-13.2,12.1c-0.7,0.6-1.4,0.9-2.3,0.9
		c-31.2,0-62.4,0-93.6,0c-0.5,0-0.9,0-1.5,0c0.1,0.2,0.1,0.4,0.2,0.4c3.2,3.3,6.5,6.5,9.8,9.7c0.3,0.3,1,0.4,1.4,0.2
		c12.3-3.8,24.9-3.4,37.5-3.3c0.1,0,0.1,0.1,0.3,0.2c-19.4,28.2-44.3,50.1-74.1,66.9c0.6,1,1.3,1.8,1.8,2.7c0.4,0.7,0.8,0.9,1.6,0.5
		c5.2-2.3,10.6-4.4,15.7-6.9c15.1-7.4,28.9-16.8,41.7-27.8c0.6-0.5,1.1-1,2-1.7c2.9,4.9,5.8,9.6,8.6,14.4c0.5,0.8,0.4,1.4-0.1,2.2
		c-7.4,12.2-16.4,22.9-26.8,32.6c-11.8,11-24.9,20.2-38.8,28.3c-3.8,2.2-7.6,4.3-11.5,6.4c0.4,0.8,0.8,1.6,1.1,2.3
		c0.4,0.8,0.8,1.5,1.2,2.4c32.3-12.3,60.7-30.1,82.5-57.7c0.4,0.7,0.7,1.2,0.9,1.7c2.8,5.6,4.5,11.7,5.8,17.8c0.2,1.1,0.1,2-0.5,3
		c-7.6,13.2-17.4,24.7-28.5,35c-13,12.1-27.3,22.4-42.4,31.6c-5.2,3.2-10.5,6.1-15.7,9.2c-0.3,0.2-0.8,0.6-0.7,0.9
		c0.3,1.5,0.7,2.9,1.1,4.4c36.4-13.4,67.9-33.6,93-63.5c0.1,0.6,0.2,0.9,0.3,1.3c0.7,7.3,1.5,14.6,1.9,22c0.4,8.8-0.2,17.7-2.3,26.3
		c-1.3,5.3-3,10.4-6.3,14.9c-2.3,3.1-5.1,5.5-9.1,5.8c-2.6,0.2-5.4,0-8-0.2c-8-0.7-15.8-2.3-23.6-4.1c-0.3-0.1-0.7-0.1-1.1-0.1
		c0,1.3,0,2.5,0,3.7c0,0.7,0.2,1,0.9,1.2c1.7,0.5,3.4,1,5,1.6c6.1,2.1,11.9,4.6,16.9,8.8c2.9,2.5,5.2,5.4,6.1,9.2
		c0.3,1.1,0.4,2.3,0.6,3.5c0.1,0,0.3,0,0.4,0c6.7-2.2,12.9-5.2,18.3-10c5.7-5,9.1-11.5,11.6-18.5c4.1-11.4,5.3-23.1,5.2-35.1
		c-0.1-11.9-1.7-23.6-3.7-35.2c-0.3-1.9-0.7-3.7-1.1-5.8c0.6,0.3,0.9,0.4,1.3,0.6c14.1,7.2,24.4,18.1,31.7,32c1.2,2.3,2,4.8,3.2,7.1
		c1.5,2.9,3.8,3.3,6.3,1.3c3.1-2.4,5.5-5.3,6.6-9.1c0.5-1.8,0.7-3.8,0.5-5.7c-0.5-4.4-3-7.9-6-11.1c-4.2-4.4-9.4-7.4-14.8-10.1
		c-9.7-4.9-19.9-8.6-30.2-12c-0.7-0.2-1.1-0.5-1.3-1.2c-0.4-1.3-0.9-2.6-1.4-4c-1-2.7-2-5.4-3-8.1c2.1-1.4,4.1-2.7,6.1-4.1
		c10-6.8,20.1-13.7,29.5-21.3c4.2-3.4,8.8-6,14.1-7c1.3-0.3,2.7-0.4,4.3-0.6c-6.7-6.3-13.3-12.5-20-18.8c-0.2,0.4-0.4,0.7-0.5,1
		c-3,6.4-6.5,12.6-11.2,18c-6.8,7.8-14,15.4-21,23c-1.2,1.3-2.5,2.5-3.9,3.8C249.6,126.5,240.1,113.7,228.7,102.2z"/>
	<path d="M228.7,102.2c11.4,11.5,20.9,24.2,28.2,38.7c1.3-1.3,2.7-2.5,3.9-3.8c7-7.7,14.2-15.2,21-23c4.6-5.4,8.2-11.5,11.2-18
		c0.1-0.3,0.3-0.6,0.5-1c6.7,6.3,13.3,12.5,20,18.8c-1.6,0.2-2.9,0.3-4.3,0.6c-5.4,1-10,3.7-14.1,7c-9.5,7.7-19.5,14.5-29.5,21.3
		c-2,1.4-4,2.7-6.1,4.1c1,2.7,2,5.4,3,8.1c0.5,1.3,1,2.6,1.4,4c0.2,0.7,0.6,1,1.3,1.2c10.3,3.4,20.5,7.1,30.2,12
		c5.4,2.7,10.6,5.7,14.8,10.1c3,3.1,5.5,6.6,6,11.1c0.2,1.9,0.1,3.9-0.5,5.7c-1.1,3.8-3.5,6.7-6.6,9.1c-2.6,2-4.8,1.5-6.3-1.3
		c-1.2-2.3-2-4.8-3.2-7.1c-7.3-13.9-17.6-24.8-31.7-32c-0.4-0.2-0.7-0.3-1.3-0.6c0.4,2,0.7,3.9,1.1,5.8c2.1,11.7,3.6,23.4,3.7,35.2
		c0.1,12-1.1,23.8-5.2,35.1c-2.5,7-6,13.4-11.6,18.5c-5.3,4.7-11.5,7.8-18.3,10c-0.1,0-0.2,0-0.4,0c-0.2-1.2-0.3-2.4-0.6-3.5
		c-0.9-3.8-3.2-6.8-6.1-9.2c-5-4.2-10.8-6.7-16.9-8.8c-1.7-0.6-3.3-1.1-5-1.6c-0.7-0.2-0.9-0.5-0.9-1.2c0-1.2,0-2.4,0-3.7
		c0.4,0,0.8,0.1,1.1,0.1c7.8,1.8,15.6,3.4,23.6,4.1c2.7,0.2,5.4,0.4,8,0.2c4-0.3,6.8-2.7,9.1-5.8c3.2-4.5,4.9-9.6,6.3-14.9
		c2.2-8.6,2.8-17.5,2.3-26.3c-0.4-7.3-1.2-14.6-1.9-22c0-0.4-0.1-0.7-0.3-1.3c-25.1,29.9-56.6,50.1-93,63.5
		c-0.4-1.5-0.8-2.9-1.1-4.4c0-0.2,0.4-0.7,0.7-0.9c5.2-3.1,10.6-6,15.7-9.2c15.1-9.2,29.5-19.5,42.4-31.6
		c11.1-10.4,20.9-21.8,28.5-35c0.6-1,0.7-1.9,0.5-3c-1.3-6.2-3-12.2-5.8-17.8c-0.2-0.5-0.5-1-0.9-1.7
		c-21.7,27.5-50.1,45.4-82.5,57.7c-0.4-0.8-0.8-1.6-1.2-2.4c-0.4-0.8-0.8-1.6-1.1-2.3c3.9-2.2,7.7-4.3,11.5-6.4
		c13.9-8.1,27-17.3,38.8-28.3c10.4-9.7,19.5-20.4,26.8-32.6c0.5-0.8,0.6-1.4,0.1-2.2c-2.9-4.7-5.7-9.4-8.6-14.4
		c-0.8,0.7-1.4,1.2-2,1.7c-12.8,11-26.5,20.4-41.7,27.8c-5.1,2.5-10.5,4.6-15.7,6.9c-0.8,0.3-1.2,0.2-1.6-0.5
		c-0.5-0.9-1.1-1.7-1.8-2.7c29.7-16.8,54.7-38.7,74.1-66.9c-0.2-0.1-0.3-0.2-0.3-0.2c-12.6-0.1-25.2-0.5-37.5,3.3
		c-0.4,0.1-1.1,0-1.4-0.2c-3.3-3.2-6.5-6.5-9.8-9.7c-0.1-0.1-0.1-0.2-0.2-0.4c0.6,0,1,0,1.5,0c31.2,0,62.4,0,93.6,0
		c0.9,0,1.6-0.3,2.3-0.9c4.3-4,8.7-8,13.2-12.1c5.9,6.6,11.7,13.2,17.8,20.1c-0.7,0-1.2,0-1.6,0c-18.7,0-37.4,0-56,0
		c-0.9,0-1.5,0.3-2.2,0.9c-8.8,9.2-17.6,18.3-26.4,27.5C229.3,101.6,229,101.9,228.7,102.2z"/>
</g>
</svg>
