<?xml version="1.0" encoding="utf-8"?>
<!-- Generator: Adobe Illustrator 20.1.0, SVG Export Plug-In . SVG Version: 6.00 Build 0)  -->
<svg version="1.1" id="图层_1" xmlns="http://www.w3.org/2000/svg" xmlns:xlink="http://www.w3.org/1999/xlink" x="0px" y="0px"
	 viewBox="0 0 360 360" style="enable-background:new 0 0 360 360;" xml:space="preserve">
<style type="text/css">
	.st0{fill:#FFFFFF;}
</style>
<g>
	<path class="st0" d="M0.2,360.5c0-120.1,0-240.2,0-360.2c120.1,0,240.2,0,360.2,0c0,120.1,0,240.2,0,360.2
		C240.4,360.5,120.3,360.5,0.2,360.5z M173.5,233.3c3.6,3.6,6.9,7,10.3,10.3c0.3,0.3,1,0.2,1.4,0.1c7.5-1.9,15.1-3,22.9-3.1
		c7.5-0.1,15-0.1,22.4-0.1c0.2,0,0.5,0.1,0.9,0.1c-0.4,25.8-0.8,51.6-1.2,77.5c0.2,0,0.4-0.1,0.6-0.1c5.4-2.2,10.8-4.3,16.2-6.5
		c0.6-0.2,0.7-0.5,0.7-1.1c-0.4-12.5-0.8-25.1-1-37.6c-0.2-10.2-0.1-20.5-0.1-30.7c0-0.5,0-0.9,0-1.5c22.4,0,44.7,0,67.2,0
		c-6.4-6.8-12.7-13.4-18.9-20.1c-0.4,0.3-0.7,0.6-0.9,0.9c-3.7,3.7-7.5,7.5-11.2,11.2c-0.6,0.6-1.2,0.9-2.1,0.9
		c-10.9,0-21.8,0-32.8,0c-0.4,0-0.8,0-1.2,0c0-16.2,0-32.2,0-48.3c24.7,0,49.3,0,74.1,0c-6.4-6.8-12.6-13.4-18.9-20
		c-0.4,0.4-0.7,0.7-1,1c-3.7,3.7-7.4,7.4-11.1,11.1c-0.6,0.6-1.2,0.9-2.1,0.9c-11.6,0-23.3,0-34.9,0c-0.4,0-0.8,0-1.4-0.1
		c0.2-0.4,0.4-0.6,0.5-0.8c10.1-16.5,20.3-33,30.4-49.6c0.6-1,1.3-1.6,2.3-2.1c3-1.3,6-2.6,9.1-4.1c-8-5.6-15.7-11-23.6-16.5
		c-0.1,0.3-0.2,0.4-0.2,0.5c-1.6,8-3.9,15.7-6.4,23.4c-5.4,16.2-11.9,31.9-18.7,47.6c-0.5,1.1-1.1,1.5-2.3,1.5
		c-24.8,0-49.7,0-74.5,0c-0.4,0-0.9,0-1.7,0c3.5,3.5,6.7,6.6,9.8,9.9c0.6,0.6,1.2,0.7,2,0.5c8.1-2.2,16.3-3.1,24.7-3.2
		c9-0.1,18,0,27,0c0.4,0,0.8,0,1.3,0c0,16.2,0,32.1,0,48.2C212.1,233.3,193,233.3,173.5,233.3z M292.4,78.8
		c-0.3,0.5-0.5,0.9-0.8,1.2c-3.6,3.7-7.3,7.3-10.9,11c-0.7,0.7-1.5,1-2.5,1c-34,0-67.9,0-101.9,0c-0.4,0-0.9,0-1.6,0
		c3.5,3.5,6.7,6.6,9.8,9.9c0.6,0.6,1.1,0.8,2,0.5c8.1-2.2,16.2-3.3,24.6-3.3c32.9,0.1,65.8,0,98.7,0c0.5,0,0.9,0,1.7,0
		C305.1,92.2,298.9,85.7,292.4,78.8z M193.6,113.2c0.3,0.5,0.6,1,0.9,1.5c4.1,6.6,8.2,13.3,11.2,20.5c3,7.3,4.8,15,6.5,22.8
		c0.7,3,1.3,6,2.9,8.7c1.8,3.1,4.3,3.7,7.1,1.5c5.8-4.6,10.4-12.5,7.2-21.9c-1.7-4.9-4.7-8.9-8.1-12.7c-6.6-7.4-14.1-13.8-21.8-20
		c-1.1-0.9-2.3-1.8-3.4-2.7C195.2,111.6,194.4,112.4,193.6,113.2z M216,43.6c0.1,0.2,0.2,0.3,0.3,0.4c7.2,8.4,12.2,17.9,15.4,28.4
		c0.9,3.1,1.6,6.2,2.6,9.2c1.3,3.8,3.7,4.4,6.9,2c0.1-0.1,0.2-0.1,0.3-0.2c2.4-2,4.4-4.4,5.9-7.2c2.9-5.4,2.7-12.9-2.4-18.1
		c-1.2-1.2-2.4-2.5-3.7-3.6c-5.1-4.4-10.9-7.9-16.7-11.2c-2-1.2-4.1-2.2-6.2-3.4C217.5,41.3,216.8,42.4,216,43.6z"/>
	<path d="M173.5,233.3c19.5,0,38.6,0,57.7,0c0-16.1,0-32.1,0-48.2c-0.5,0-0.9,0-1.3,0c-9,0-18-0.1-27,0c-8.3,0.1-16.6,1.1-24.7,3.2
		c-0.8,0.2-1.4,0.1-2-0.5c-3.2-3.2-6.4-6.4-9.8-9.9c0.8,0,1.2,0,1.7,0c24.8,0,49.7,0,74.5,0c1.2,0,1.8-0.3,2.3-1.5
		c6.8-15.7,13.3-31.4,18.7-47.6c2.6-7.7,4.9-15.5,6.4-23.4c0-0.1,0.1-0.2,0.2-0.5c7.8,5.5,15.6,10.9,23.6,16.5
		c-3.2,1.4-6.1,2.8-9.1,4.1c-1.1,0.4-1.7,1.1-2.3,2.1c-10.1,16.5-20.2,33-30.4,49.6c-0.1,0.2-0.2,0.4-0.5,0.8c0.6,0,1,0.1,1.4,0.1
		c11.6,0,23.3,0,34.9,0c0.9,0,1.5-0.3,2.1-0.9c3.7-3.7,7.4-7.4,11.1-11.1c0.3-0.3,0.6-0.6,1-1c6.3,6.6,12.5,13.2,18.9,20
		c-24.8,0-49.4,0-74.1,0c0,16.1,0,32.1,0,48.3c0.4,0,0.8,0,1.2,0c10.9,0,21.8,0,32.8,0c0.9,0,1.5-0.3,2.1-0.9
		c3.7-3.8,7.5-7.5,11.2-11.2c0.3-0.3,0.6-0.5,0.9-0.9c6.3,6.7,12.5,13.3,18.9,20.1c-22.5,0-44.8,0-67.2,0c0,0.6,0,1,0,1.5
		c0,10.2-0.1,20.5,0.1,30.7c0.2,12.5,0.7,25.1,1,37.6c0,0.6-0.1,0.9-0.7,1.1c-5.4,2.1-10.8,4.3-16.2,6.5c-0.2,0.1-0.4,0.1-0.6,0.1
		c0.4-25.8,0.8-51.6,1.2-77.5c-0.5-0.1-0.7-0.1-0.9-0.1c-7.5,0-15-0.1-22.4,0.1c-7.7,0.1-15.4,1.2-22.9,3.1
		c-0.4,0.1-1.1,0.1-1.4-0.1C180.5,240.3,177.1,236.9,173.5,233.3z"/>
	<path d="M292.4,78.8c6.5,6.9,12.7,13.5,19.1,20.3c-0.8,0-1.2,0-1.7,0c-32.9,0-65.8,0.1-98.7,0c-8.4,0-16.6,1.1-24.6,3.3
		c-0.9,0.2-1.4,0.1-2-0.5c-3.2-3.2-6.4-6.4-9.8-9.9c0.8,0,1.2,0,1.6,0c34,0,67.9,0,101.9,0c1,0,1.8-0.3,2.5-1
		c3.6-3.7,7.3-7.3,10.9-11C291.9,79.7,292.1,79.2,292.4,78.8z"/>
	<path d="M193.6,113.2c0.8-0.8,1.6-1.5,2.4-2.4c1.1,0.9,2.3,1.8,3.4,2.7c7.7,6.2,15.2,12.6,21.8,20c3.4,3.8,6.5,7.8,8.1,12.7
		c3.2,9.4-1.4,17.3-7.2,21.9c-2.8,2.2-5.3,1.6-7.1-1.5c-1.6-2.7-2.2-5.7-2.9-8.7c-1.7-7.7-3.5-15.4-6.5-22.8
		c-3-7.2-7.1-13.9-11.2-20.5C194.2,114.2,193.9,113.7,193.6,113.2z"/>
	<path d="M216,43.6c0.8-1.2,1.6-2.3,2.4-3.6c2.1,1.2,4.2,2.2,6.2,3.4c5.8,3.3,11.6,6.8,16.7,11.2c1.3,1.1,2.5,2.3,3.7,3.6
		c5.1,5.2,5.2,12.7,2.4,18.1c-1.5,2.8-3.5,5.2-5.9,7.2c-0.1,0.1-0.2,0.1-0.3,0.2c-3.2,2.4-5.6,1.8-6.9-2c-1-3-1.7-6.1-2.6-9.2
		c-3.2-10.5-8.2-20.1-15.4-28.4C216.2,44,216.1,43.8,216,43.6z"/>
</g>
</svg>
