<?xml version="1.0" encoding="utf-8"?>
<!-- Generator: Adobe Illustrator 20.1.0, SVG Export Plug-In . SVG Version: 6.00 Build 0)  -->
<svg version="1.1" id="图层_1" xmlns="http://www.w3.org/2000/svg" xmlns:xlink="http://www.w3.org/1999/xlink" x="0px" y="0px"
	 viewBox="0 0 360 360" style="enable-background:new 0 0 360 360;" xml:space="preserve">
<style type="text/css">
	.st0{fill:#FFFFFF;}
</style>
<g>
	<path class="st0" d="M0.2,360.5c0-120.1,0-240.2,0-360.2c120.1,0,240.2,0,360.2,0c0,120.1,0,240.2,0,360.2
		C240.4,360.5,120.3,360.5,0.2,360.5z M73.5,260.4c0.4,0.4,0.6,0.7,0.8,0.9c3,3,6,5.9,8.9,8.9c0.6,0.6,1.1,0.8,2,0.5
		c6.8-1.8,13.6-3.2,20.7-3.2c22.5,0,45,0,67.6,0c0.4,0,0.8,0,1.6,0c-0.4,16.9-0.7,33.7-1.1,50.5c0,0,0.2,0,0.3,0
		c5.5-1.8,11-3.7,16.5-5.5c0.7-0.2,0.7-0.7,0.6-1.2c-0.1-2-0.4-3.9-0.4-5.9c-0.3-12.2-0.5-24.4-0.7-36.6c0-0.4,0-0.8,0-1.4
		c33.8,0,67.4,0,101.3,0c-6.4-6.8-12.6-13.4-19-20.2c-0.3,0.4-0.5,0.8-0.8,1.1c-3.7,3.7-7.5,7.5-11.2,11.2c-0.5,0.6-1.1,0.8-1.9,0.8
		c-22.4,0-44.7,0-67.1,0c-0.4,0-0.8,0-1.2-0.1c0-10.2,0-20.3,0-30.5c43.1,0,86.2,0,129.6,0c-6.4-6.8-12.6-13.4-19-20.2
		c-0.3,0.4-0.5,0.8-0.9,1.1c-3.8,3.8-7.5,7.5-11.3,11.3c-0.4,0.4-1.2,0.7-1.7,0.7c-24.7,0-49.4,0-74.2,0c-0.3,0-0.7,0-1.1-0.1
		c0.4-0.4,0.6-0.7,0.9-0.9c6.4-5.8,12.9-11.6,19.3-17.4c1.3-1.2,2.8-1.9,4.5-2.2c2.2-0.5,4.5-1.1,6.9-1.7
		c-7.2-5.2-14.2-10.3-21.3-15.4c-0.4,1.1-0.7,2.1-1,3c-4.1,11.8-9.9,22.8-16,33.6c-0.5,0.9-1.1,1.1-2.1,1.1c-51.2,0-102.5,0-153.7,0
		c-0.5,0-0.9,0-1.5,0c0.2,0.3,0.2,0.4,0.3,0.4c3.2,3.2,6.4,6.5,9.7,9.7c0.3,0.3,1,0.4,1.5,0.3c6.7-1.7,13.5-3.2,20.4-3.2
		c31.3,0,62.6,0,94,0c0.4,0,0.8,0,1.2,0c0,10.3,0,20.4,0,30.6C140.9,260.4,107.3,260.4,73.5,260.4z M180.9,176.8c-37.2,0-74,0-111,0
		c0.4,0.5,0.7,0.8,1,1c2.9,2.9,5.7,5.7,8.5,8.6c0.8,0.8,1.4,1,2.5,0.7c8-2.2,16.1-3.3,24.4-3.3c62.3,0.1,124.6,0,186.9,0
		c0.5,0,1,0,1.8,0c-6.4-6.8-12.6-13.4-19.1-20.3c-0.3,0.4-0.5,0.8-0.8,1.1c-3.7,3.7-7.4,7.4-11.1,11.1c-0.6,0.6-1.2,0.9-2.1,0.9
		c-24.4,0-48.7,0-73.1,0c-0.4,0-0.8,0-1.2,0c0.2-0.4,0.5-0.6,0.7-0.7c5.6-2.8,7.5-7.7,6.3-13.8c-0.6-3.3-3.1-5.5-5.6-7.6
		c-3.8-3.1-8.2-5.2-12.7-7.2c-3.2-1.4-6.5-2.6-9.8-3.9c-0.9,1.3-1.6,2.5-2.4,3.6c0.2,0.2,0.4,0.4,0.5,0.6
		c6.5,6.7,11.5,14.3,14.7,23.1C180,172.8,180.4,174.7,180.9,176.8z M126.5,189.6c2.7,2.9,5.5,5.6,8,8.4c5,5.6,9.1,11.6,11.2,18.9
		c0.3,1,0.8,1.9,1.3,2.8c1.7,3.1,4.1,3.5,6.8,1.2c2.6-2.3,4.5-5.1,5.6-8.3c1.1-3.2,0.8-6.3-0.6-9.3c-1.7-3.7-4.8-6.1-8.2-8.2
		c-5.6-3.4-11.7-5.7-17.9-7.7c-1.3-0.4-2.8-1.3-3.8-1C127.8,186.8,127.3,188.5,126.5,189.6z"/>
	<path d="M73.5,260.4c33.8,0,67.4,0,101.2,0c0-10.2,0-20.3,0-30.6c-0.4,0-0.8,0-1.2,0c-31.3,0-62.6,0-94,0c-7,0-13.7,1.5-20.4,3.2
		c-0.4,0.1-1.2,0-1.5-0.3c-3.3-3.2-6.5-6.4-9.7-9.7c-0.1-0.1-0.1-0.2-0.3-0.4c0.6,0,1,0,1.5,0c51.2,0,102.5,0,153.7,0
		c1,0,1.6-0.3,2.1-1.1c6.1-10.8,11.9-21.8,16-33.6c0.3-0.9,0.6-1.9,1-3c7.1,5.1,14.1,10.2,21.3,15.4c-2.5,0.6-4.7,1.2-6.9,1.7
		c-1.7,0.4-3.2,1-4.5,2.2c-6.4,5.8-12.9,11.6-19.3,17.4c-0.3,0.2-0.5,0.5-0.9,0.9c0.5,0,0.8,0.1,1.1,0.1c24.7,0,49.4,0,74.2,0
		c0.6,0,1.3-0.3,1.7-0.7c3.8-3.7,7.5-7.5,11.3-11.3c0.3-0.3,0.5-0.7,0.9-1.1c6.4,6.8,12.6,13.4,19,20.2c-43.4,0-86.4,0-129.6,0
		c0,10.2,0,20.3,0,30.5c0.4,0,0.8,0.1,1.2,0.1c22.4,0,44.7,0,67.1,0c0.8,0,1.3-0.2,1.9-0.8c3.7-3.8,7.5-7.5,11.2-11.2
		c0.3-0.3,0.5-0.7,0.8-1.1c6.4,6.8,12.6,13.4,19,20.2c-33.9,0-67.5,0-101.3,0c0,0.6,0,1,0,1.4c0.2,12.2,0.4,24.4,0.7,36.6
		c0,2,0.3,3.9,0.4,5.9c0,0.5,0.1,1-0.6,1.2c-5.5,1.8-11,3.6-16.5,5.5c-0.1,0-0.3,0-0.3,0c0.4-16.8,0.7-33.5,1.1-50.5
		c-0.7,0-1.1,0-1.6,0c-22.5,0-45,0-67.6,0c-7,0-13.9,1.5-20.7,3.2c-0.9,0.2-1.4,0.1-2-0.5c-2.9-3-5.9-6-8.9-8.9
		C74,261.1,73.8,260.8,73.5,260.4z"/>
	<path d="M180.9,176.8c-0.5-2.1-0.9-4-1.5-5.8c-3.2-8.7-8.2-16.4-14.7-23.1c-0.2-0.2-0.3-0.3-0.5-0.6c0.8-1.2,1.5-2.3,2.4-3.6
		c3.3,1.3,6.6,2.5,9.8,3.9c4.5,1.9,8.8,4.1,12.7,7.2c2.5,2,4.9,4.2,5.6,7.6c1.2,6.1-0.7,11-6.3,13.8c-0.3,0.1-0.5,0.3-0.7,0.7
		c0.4,0,0.8,0,1.2,0c24.4,0,48.7,0,73.1,0c0.9,0,1.5-0.3,2.1-0.9c3.7-3.7,7.4-7.4,11.1-11.1c0.3-0.3,0.5-0.7,0.8-1.1
		c6.4,6.8,12.6,13.4,19.1,20.3c-0.8,0-1.3,0-1.8,0c-62.3,0-124.6,0-186.9,0c-8.3,0-16.4,1.1-24.4,3.3c-1.1,0.3-1.7,0.1-2.5-0.7
		c-2.8-2.9-5.7-5.7-8.5-8.6c-0.3-0.3-0.5-0.6-1-1C106.9,176.8,143.7,176.8,180.9,176.8z"/>
	<path d="M126.5,189.6c0.8-1.1,1.4-2.8,2.4-3.2c1-0.4,2.5,0.5,3.8,1c6.2,2,12.3,4.3,17.9,7.7c3.4,2.1,6.4,4.5,8.2,8.2
		c1.4,3,1.7,6.1,0.6,9.3c-1.1,3.3-3,6.1-5.6,8.3c-2.7,2.3-5,1.9-6.8-1.2c-0.5-0.9-1-1.9-1.3-2.8c-2.1-7.3-6.2-13.3-11.2-18.9
		C132,195.2,129.2,192.5,126.5,189.6z"/>
</g>
</svg>
