<?xml version="1.0" encoding="utf-8"?>
<!-- Generator: Adobe Illustrator 20.1.0, SVG Export Plug-In . SVG Version: 6.00 Build 0)  -->
<svg version="1.1" id="图层_1" xmlns="http://www.w3.org/2000/svg" xmlns:xlink="http://www.w3.org/1999/xlink" x="0px" y="0px"
	 viewBox="0 0 360 360" style="enable-background:new 0 0 360 360;" xml:space="preserve">
<style type="text/css">
	.st0{fill:#FFFFFF;}
</style>
<g>
	<path class="st0" d="M0.2,360.5c0-120.1,0-240.2,0-360.2c120.1,0,240.2,0,360.2,0c0,120.1,0,240.2,0,360.2
		C240.4,360.5,120.3,360.5,0.2,360.5z M257.3,234.5c-0.3,0.4-0.6,0.7-0.8,1c-2.6,3.3-5.3,6.6-7.9,9.9c-0.5,0.7-1.1,0.9-1.9,0.9
		c-43.2,0-86.4,0-129.6,0c-0.7,0-1.5-0.2-2.1-0.6c-5.6-3.1-11.1-6.2-16.6-9.3c-0.4-0.2-0.7-0.4-1.2-0.6c1.3,27.1,1.7,54.1,0.1,81.2
		c0.2,0,0.3,0,0.5-0.1c5.5-2.2,11-4.4,16.5-6.6c0.3-0.1,0.6-0.8,0.6-1.2c0.1-2.8,0-5.6,0-8.4c0-0.8,0-1.6,0-2.3
		c45.2,0,90.3,0,135.4,0c0,6.3,0,12.4,0,18.6c0.3-0.1,0.6-0.2,0.8-0.3c5.4-2.5,10.8-5.1,16.3-7.6c0.7-0.3,0.7-0.8,0.7-1.3
		c-0.2-3.5-0.4-6.9-0.5-10.4c-0.3-12.7-0.4-25.4-0.7-38.1c0-0.8,0.2-1.3,0.9-1.8c2-1.5,4.1-3.1,6.1-4.7c1.2-0.9,2.4-1.9,3.7-2.9
		C270.6,244.7,263.9,239.6,257.3,234.5z M189.2,150.8c0.4-0.5,0.7-0.8,0.9-1.1c1-1.3,2.1-2.5,2.9-3.9c3-4.9,2.9-9.8-0.4-14.5
		c-1.5-2-3.2-3.9-5.1-5.5c-7.7-6.3-16.9-9.5-26.2-12.5c-0.2-0.1-0.7,0-0.8,0.2c-0.7,1-1.4,2.1-2.1,3.1
		c16.5,13.8,17.8,26.5,17.5,34.2c-40.3,0-80.6,0-121.2,0c3.3,3.3,6.5,6.4,9.5,9.6c0.8,0.8,1.4,1,2.6,0.7c7.9-2.1,15.8-3.3,24-3.2
		c73,0.1,146,0,219,0c0.5,0,1,0,1.8,0c-8-8.4-15.8-16.6-23.7-24.9c-0.3,0.4-0.6,0.8-0.9,1.1c-5.3,5.3-10.5,10.5-15.8,15.8
		c-0.6,0.7-1.3,0.9-2.2,0.9c-26,0-52.1,0-78.1,0C190.3,150.8,189.9,150.8,189.2,150.8z M253.5,196.6c-0.3,0.5-0.6,0.9-0.9,1.2
		c-4.4,4.4-8.9,8.9-13.3,13.3c-0.7,0.7-1.5,1-2.5,1c-48.4,0-96.8,0-145.2,0c-0.5,0-1,0-1.6,0c0.2,0.3,0.2,0.4,0.3,0.5
		c3.2,3.2,6.4,6.5,9.7,9.7c0.3,0.3,0.9,0.4,1.3,0.3c7.3-1.9,14.6-3.3,22.1-3.3c49.9,0,99.8,0,149.8,0c0.5,0,1,0,1.8,0
		C267.8,211.6,260.8,204.2,253.5,196.6z M87.6,181.5c0.5,0.5,0.7,0.8,1,1.1c2.9,2.9,5.8,5.8,8.7,8.8c0.6,0.7,1.2,0.8,2.1,0.5
		c7.9-2.1,16-3.3,24.3-3.3c49.9,0.1,99.8,0,149.7,0c0.5,0,0.9,0,1.3,0c-7-7-14-14-21.1-21.1c-0.2,0.2-0.5,0.5-0.8,0.8
		c-4,4-8.1,8-12,12.1c-0.8,0.8-1.5,1.1-2.6,1.1c-49.6,0-99.2,0-148.8,0C88.8,181.5,88.4,181.5,87.6,181.5z"/>
	<path d="M257.3,234.5c6.7,5.1,13.3,10.2,20.1,15.3c-1.3,1-2.5,2-3.7,2.9c-2,1.6-4,3.2-6.1,4.7c-0.6,0.5-0.9,1-0.9,1.8
		c0.2,12.7,0.4,25.4,0.7,38.1c0.1,3.5,0.3,6.9,0.5,10.4c0,0.6,0,1-0.7,1.3c-5.4,2.5-10.9,5-16.3,7.6c-0.2,0.1-0.4,0.1-0.8,0.3
		c0-6.3,0-12.4,0-18.6c-45.1,0-90.2,0-135.4,0c0,0.8,0,1.5,0,2.3c0,2.8,0,5.6,0,8.4c0,0.4-0.3,1-0.6,1.2c-5.5,2.2-11,4.4-16.5,6.6
		c-0.1,0.1-0.3,0.1-0.5,0.1c1.6-27,1.3-54-0.1-81.2c0.4,0.2,0.8,0.4,1.2,0.6c5.5,3.1,11.1,6.2,16.6,9.3c0.6,0.3,1.4,0.6,2.1,0.6
		c43.2,0,86.4,0,129.6,0c0.8,0,1.4-0.2,1.9-0.9c2.6-3.3,5.3-6.6,7.9-9.9C256.7,235.2,256.9,234.9,257.3,234.5z M250,291
		c0-12.5,0-25,0-37.5c-45.1,0-90.2,0-135.2,0c0,12.6,0,25.1,0,37.5C159.9,291,205,291,250,291z"/>
	<path d="M189.2,150.8c0.7,0,1.2,0,1.6,0c26,0,52.1,0,78.1,0c0.9,0,1.6-0.2,2.2-0.9c5.2-5.3,10.5-10.5,15.8-15.8
		c0.3-0.3,0.5-0.7,0.9-1.1c7.9,8.3,15.7,16.5,23.7,24.9c-0.8,0-1.3,0-1.8,0c-73,0-146,0-219,0c-8.2,0-16.2,1.1-24,3.2
		c-1.1,0.3-1.8,0.1-2.6-0.7c-3.1-3.2-6.2-6.2-9.5-9.6c40.6,0,80.9,0,121.2,0c0.3-7.7-1-20.5-17.5-34.2c0.7-1,1.4-2.1,2.1-3.1
		c0.1-0.2,0.6-0.3,0.8-0.2c9.3,2.9,18.5,6.2,26.2,12.5c1.9,1.6,3.7,3.5,5.1,5.5c3.3,4.7,3.4,9.6,0.4,14.5c-0.8,1.4-1.9,2.6-2.9,3.9
		C189.9,150,189.6,150.3,189.2,150.8z"/>
	<path d="M253.5,196.6c7.3,7.7,14.2,15,21.5,22.7c-0.8,0-1.3,0-1.8,0c-49.9,0-99.8,0-149.8,0c-7.5,0-14.8,1.4-22.1,3.3
		c-0.4,0.1-1.1,0-1.3-0.3c-3.3-3.2-6.5-6.4-9.7-9.7c-0.1-0.1-0.1-0.2-0.3-0.5c0.6,0,1.1,0,1.6,0c48.4,0,96.8,0,145.2,0
		c1,0,1.8-0.3,2.5-1c4.4-4.5,8.9-8.9,13.3-13.3C253,197.5,253.2,197.1,253.5,196.6z"/>
	<path d="M87.6,181.5c0.8,0,1.3,0,1.7,0c49.6,0,99.2,0,148.8,0c1.1,0,1.8-0.3,2.6-1.1c4-4.1,8-8,12-12.1c0.3-0.3,0.6-0.6,0.8-0.8
		c7,7,14,14,21.1,21.1c-0.4,0-0.8,0-1.3,0c-49.9,0-99.8,0-149.7,0c-8.3,0-16.3,1.1-24.3,3.3c-0.9,0.2-1.4,0.1-2.1-0.5
		c-2.9-3-5.8-5.8-8.7-8.8C88.3,182.3,88,182,87.6,181.5z"/>
	<path class="st0" d="M250,291c-45.1,0-90.1,0-135.2,0c0-12.5,0-25,0-37.5c45,0,90.1,0,135.2,0C250,266,250,278.5,250,291z"/>
</g>
</svg>
