<?xml version="1.0" encoding="utf-8"?>
<!-- Generator: Adobe Illustrator 20.1.0, SVG Export Plug-In . SVG Version: 6.00 Build 0)  -->
<svg version="1.1" id="图层_1" xmlns="http://www.w3.org/2000/svg" xmlns:xlink="http://www.w3.org/1999/xlink" x="0px" y="0px"
	 viewBox="0 0 360 360" style="enable-background:new 0 0 360 360;" xml:space="preserve">
<style type="text/css">
	.st0{fill:#FFFFFF;}
</style>
<g>
	<path class="st0" d="M-0.1,360.1c0-120.1,0-240.2,0-360.2c120.1,0,240.2,0,360.2,0c0,120.1,0,240.2,0,360.2
		C240,360.1,120,360.1-0.1,360.1z M286.4,203.5c-6-5.2-11.8-10.3-17.8-15.4c-3.4,3.4-6.6,6.7-10,9.9c-0.4,0.4-1.1,0.7-1.6,0.7
		c-19.4,0-38.7,0-58.1,0c-0.6,0-1.3-0.2-1.8-0.5c-4.8-2.7-9.6-5.5-14.5-8.2c-0.4-0.2-0.7-0.4-1.1-0.5c-0.3,28.3-0.7,56.4-1,84.6
		c-0.1,0,0.1,0,0.2,0c5.1-1.8,10.2-3.6,15.2-5.5c0.3-0.1,0.7-0.7,0.7-1.1c0.1-2,0-3.9,0-5.9c0-1.6,0-3.3,0-4.9c21.6,0,43.1,0,64.7,0
		c0,4.3,0,8.5,0,12.9c0.5-0.2,0.9-0.3,1.3-0.5c4.7-2,9.4-4.1,14.1-6c0.9-0.4,1.2-0.9,1.2-1.8c-0.3-7.8-0.7-15.6-0.9-23.5
		c-0.2-8.5-0.1-17-0.2-25.4c0-1.2,0.3-2,1.3-2.7C281,207.7,283.6,205.6,286.4,203.5z M285.1,77.4c-4.4,4.4-8.8,8.7-13,13.1
		c-0.8,0.8-1.6,1.1-2.7,1.1c-37.4,0-74.8,0-112.2,0c-0.5,0-0.9,0-1.6,0c0.5,0.5,0.7,0.8,1,1.1c2.5,2.5,5.2,4.9,7.5,7.6
		c1.5,1.6,2.7,1.9,4.8,1.2c6.8-2.2,13.8-2.7,20.9-2.7c37.9,0,75.8,0,113.7,0c0.5,0,0.9,0,1.7,0C298.4,91.5,291.8,84.5,285.1,77.4z
		 M175.6,124.6c0.5,0.5,0.7,0.8,1,1.1c2.9,2.9,5.9,5.9,8.8,8.8c0.6,0.7,1.2,0.7,2,0.5c7.6-2.3,15.4-3.3,23.3-3.3
		c24.3,0,48.6,0,72.9,0c0.5,0,0.9,0,1.7,0c-6-6.8-11.9-13.4-17.8-20.1c-4,4-8,8-11.9,11.9c-0.8,0.8-1.5,1.1-2.6,1.1
		c-25.3,0-50.5,0-75.8,0C176.7,124.6,176.3,124.6,175.6,124.6z M268.5,150.6c-3.6,3.6-7.2,7.2-10.7,10.8c-0.7,0.7-1.3,0.9-2.3,0.9
		c-26.5,0-52.9,0-79.4,0c-0.5,0-0.9,0-1.4,0c0,0.2,0,0.3,0.1,0.4c3.3,3.3,6.5,6.6,9.8,9.8c0.2,0.2,0.7,0.3,1,0.2
		c8.3-2.6,16.8-3.4,25.4-3.4c24.9,0,49.9,0,74.8,0c0.5,0,0.9,0,1.4,0C281,163.1,274.8,156.9,268.5,150.6z M203.8,44.4
		c1.3,1.5,2.5,2.8,3.6,4.2c6.3,7.6,11.2,15.9,14,25.4c0.6,1.9,1.4,3.8,2.5,5.5c1.9,3,4.2,3.2,6.8,0.8c7-6.6,8.6-20.6-0.7-27.8
		c-6.7-5.2-14.2-8.5-22-11.4c-0.2-0.1-0.7,0.1-0.9,0.3C205.9,42.3,204.9,43.4,203.8,44.4z"/>
	<path d="M286.4,203.5c-2.8,2.1-5.4,4.1-8.1,6.1c-1,0.7-1.3,1.5-1.3,2.7c0.1,8.5,0,17,0.2,25.4c0.2,7.8,0.6,15.6,0.9,23.5
		c0,1-0.2,1.5-1.2,1.8c-4.7,2-9.4,4-14.1,6c-0.4,0.2-0.7,0.3-1.3,0.5c0-4.4,0-8.6,0-12.9c-21.6,0-43.1,0-64.7,0c0,1.7,0,3.3,0,4.9
		c0,2,0,3.9,0,5.9c0,0.4-0.4,1-0.7,1.1c-5.1,1.9-10.1,3.6-15.2,5.5c-0.1,0.1-0.3,0.1-0.2,0c0.3-28.2,0.7-56.3,1-84.6
		c0.3,0.2,0.7,0.3,1.1,0.5c4.8,2.8,9.6,5.5,14.5,8.2c0.5,0.3,1.2,0.5,1.8,0.5c19.4,0,38.7,0,58.1,0c0.6,0,1.2-0.3,1.6-0.7
		c3.3-3.2,6.6-6.5,10-9.9C274.6,193.3,280.4,198.4,286.4,203.5z M196.9,249.4c21.6,0,43.1,0,64.6,0c0-14.5,0-28.9,0-43.4
		c-21.6,0-43,0-64.6,0C196.9,220.5,196.9,234.9,196.9,249.4z"/>
	<path d="M285.1,77.4c6.7,7.1,13.3,14.1,20.1,21.3c-0.8,0-1.3,0-1.7,0c-37.9,0-75.8,0-113.7,0c-7.1,0-14.2,0.5-20.9,2.7
		c-2.1,0.7-3.3,0.4-4.8-1.2c-2.4-2.7-5-5.1-7.5-7.6c-0.3-0.3-0.5-0.6-1-1.1c0.7,0,1.2,0,1.6,0c37.4,0,74.8,0,112.2,0
		c1.1,0,1.9-0.3,2.7-1.1C276.4,86.1,280.7,81.8,285.1,77.4z"/>
	<path d="M175.6,124.6c0.7,0,1.2,0,1.6,0c25.3,0,50.5,0,75.8,0c1.1,0,1.8-0.3,2.6-1.1c3.9-4,7.8-7.9,11.9-11.9
		c5.9,6.7,11.7,13.3,17.8,20.1c-0.7,0-1.2,0-1.7,0c-24.3,0-48.6,0-72.9,0c-7.9,0-15.7,1-23.3,3.3c-0.8,0.2-1.3,0.2-2-0.5
		c-2.9-3-5.9-5.9-8.8-8.8C176.3,125.4,176,125.1,175.6,124.6z"/>
	<path d="M268.5,150.6c6.3,6.3,12.5,12.5,18.8,18.8c-0.5,0-0.9,0-1.4,0c-24.9,0-49.9,0-74.8,0c-8.6,0-17.2,0.7-25.4,3.4
		c-0.3,0.1-0.8,0-1-0.2c-3.3-3.3-6.6-6.6-9.8-9.8c0,0,0-0.1-0.1-0.4c0.5,0,0.9,0,1.4,0c26.5,0,52.9,0,79.4,0c1,0,1.6-0.3,2.3-0.9
		C261.3,157.8,264.9,154.2,268.5,150.6z"/>
	<path d="M203.8,44.4c1.1-1,2.1-2.1,3.2-3c0.2-0.2,0.7-0.3,0.9-0.3c7.8,2.9,15.4,6.2,22,11.4c9.3,7.2,7.7,21.2,0.7,27.8
		c-2.6,2.5-5,2.3-6.8-0.8c-1-1.7-1.9-3.6-2.5-5.5c-2.7-9.5-7.7-17.8-14-25.4C206.2,47.2,205.1,45.9,203.8,44.4z"/>
	<path class="st0" d="M196.9,249.4c0-14.5,0-28.9,0-43.4c21.5,0,43,0,64.6,0c0,14.5,0,28.9,0,43.4
		C239.9,249.4,218.4,249.4,196.9,249.4z"/>
</g>
</svg>
