<?xml version="1.0" encoding="utf-8"?>
<!-- Generator: Adobe Illustrator 20.1.0, SVG Export Plug-In . SVG Version: 6.00 Build 0)  -->
<svg version="1.1" id="图层_1" xmlns="http://www.w3.org/2000/svg" xmlns:xlink="http://www.w3.org/1999/xlink" x="0px" y="0px"
	 viewBox="0 0 360 360" style="enable-background:new 0 0 360 360;" xml:space="preserve">
<style type="text/css">
	.st0{fill:#FFFFFF;}
</style>
<path class="st0" d="M360.5,0.2c-120.1,0-240.2,0-360.2,0c0,120.1,0,240.2,0,360.2c120.1,0,240.2,0,360.2,0
	C360.5,240.4,360.5,120.3,360.5,0.2z M54.9,99.4c-3.1-3.2-6.4-6.4-9.6-9.6c0-0.1,0.1-0.2,0.1-0.3c20.3,0,40.6,0,61.1,0
	c-0.3-3.4-0.5-6.7-0.9-9.9c-1.5-12-7.5-21.6-15.8-30c-1-1-1.1-1.8-0.4-2.9c0.6-1,1.1-2,1.6-3.2c2.6,1.3,5.1,2.6,7.6,3.9
	c6.5,3.5,12.7,7.2,18.2,12.1c2.9,2.6,5.6,5.5,7.3,9.1c2.8,5.9,2.2,11.3-2.1,16.3c-1.4,1.6-3,3-4.6,4.5c0.3,0,0.6,0.1,0.9,0.1
	c9.4,0,18.8,0,28.2,0c0.6,0,1.2-0.3,1.6-0.7c4.2-4.1,8.3-8.2,12.4-12.4c0.3-0.3,0.5-0.7,0.7-0.9c7.2,7.2,14.2,14.2,21.2,21.2
	c-0.3,0-0.8,0-1.3,0c-33.2,0-66.4,0.1-99.6,0c-8.5,0-16.7,1.1-24.9,3.3C56.1,100.2,55.6,100.1,54.9,99.4z M58.5,132
	c24.6,0,49.2,0,73.8,0c1,0,1.6-0.3,2.3-1c3.6-3.7,7.3-7.4,11-11c0.3-0.3,0.5-0.7,0.8-1.2c6.4,6.8,12.7,13.5,19.1,20.3
	c-0.8,0-1.3,0-1.7,0c-24.8,0-49.6,0-74.4,0c-7.2,0-14.3,0.9-21.1,3.2c-0.3,0.1-0.9,0-1.1-0.2c-3.4-3.3-6.7-6.6-10.3-10.2
	C57.6,132,58,132,58.5,132z M158.9,224.7c-1.5,1.1-3,2.2-4.5,3.4c-0.4,0.3-0.8,1-0.8,1.5c0.1,14.2,0.1,28.4,0.3,42.6
	c0.1,10.6,0.5,21.2,0.8,31.9c-5.4,2.7-10.8,5.4-16.4,8.2c0-9.1,0-18,0-27c-20.1,0-40,0-60.1,0c0,0.5,0,1,0,1.5c0,6.6,0,13.1,0,19.7
	c0,0.8-0.3,1.3-1,1.6c-4.8,2-9.6,4.1-14.4,6.2c-0.3,0.1-0.7,0.2-1.1,0.4c1.6-35.8,1.6-71.4,0-107.2c0.6,0.3,0.9,0.4,1.3,0.6
	c5.5,2.8,11.1,5.5,16.6,8.3c0.6,0.3,1.4,0.5,2,0.5c17.3,0,34.6,0,52,0c0.6,0,1.4-0.3,1.9-0.8c3-2.9,6-5.9,8.9-8.9
	c0.3-0.3,0.5-0.7,0.8-1.1c6.1,5.3,12,10.4,17.9,15.5C161.6,222.7,160.3,223.7,158.9,224.7z M167.3,182.7c-25.6,0-51.3,0-76.9,0
	c-6.7,0-13.5,0.5-19.9,2.7c-2.3,0.8-3.7,0.5-5.3-1.3c-2.5-2.9-5.4-5.4-8.3-8.4c0.9,0,1.3,0,1.8,0c25.3,0,50.5,0,75.8,0
	c0.9,0,1.6-0.2,2.2-0.9c4.1-4.1,8.2-8.2,12.3-12.3c0.3-0.3,0.6-0.6,1-1c6.2,7,12.4,14,18.9,21.2
	C168.2,182.7,167.7,182.7,167.3,182.7z M247.9,191c0,11.3,0,22.6,0.1,34c0.1,11.4,0.1,22.7,0.2,34.1c0.1,11.2,0.3,22.5,0.5,33.7
	c0.1,3.7,0.2,7.4,0.3,11.1c0,0.9-0.2,1.5-1.1,2c-5.6,3.1-11.1,6.2-16.6,9.3c-0.3,0.2-0.7,0.4-0.9,0.5c0.4-55.7,0.7-111.3,1.1-167
	c-0.6-0.1-0.9-0.1-1.2-0.1c-9.4,0-18.9-0.1-28.3,0.1c-8.1,0.1-16,1.1-23.8,3.2c-0.8,0.2-1.3,0.1-1.9-0.5c-2.9-3-5.9-6-8.9-8.9
	c-0.3-0.3-0.5-0.5-0.9-1c21.7,0,43.2,0,65,0c-0.4-33-0.7-65.9-1.1-98.8c8.8,4.6,17.8,9.3,26.9,14c-3,3-5.8,5.8-8.6,8.6
	c-0.6,0.6-0.8,1.1-0.8,2c0,24.3,0,48.6,0,72.8c0,0.4,0,0.8,0,1.4c0.5,0,0.9,0,1.3,0c11.7,0,23.4,0,35.2,0c0.8,0,1.4-0.3,2-0.8
	c4.1-4.1,8.2-8.2,12.3-12.3c0.3-0.3,0.5-0.7,0.7-1c7.2,7.2,14.2,14.2,21.2,21.2c-24.1,0-48.3,0-72.7,0c0,0.5,0,1,0,1.4
	C247.9,163.6,247.9,177.3,247.9,191z"/>
<path d="M138.3,285.3c-20.1,0-40,0-60.1,0c0,0.5,0,1,0,1.5c0,6.6,0,13.1,0,19.7c0,0.8-0.3,1.3-1,1.6c-4.8,2-9.6,4.1-14.4,6.2
	c-0.3,0.1-0.7,0.2-1.1,0.4c1.6-35.8,1.6-71.4,0-107.2c0.6,0.3,0.9,0.4,1.3,0.6c5.5,2.8,11.1,5.5,16.6,8.3c0.6,0.3,1.4,0.5,2,0.5
	c17.3,0,34.6,0,52,0c0.6,0,1.4-0.3,1.9-0.8c3-2.9,6-5.9,8.9-8.9c0.3-0.3,0.5-0.7,0.8-1.1c6.1,5.3,12,10.4,17.9,15.5
	c-1.4,1.1-2.8,2.1-4.1,3.1c-1.5,1.1-3,2.2-4.5,3.4c-0.4,0.3-0.8,1-0.8,1.5c0.1,14.2,0.1,28.4,0.3,42.6c0.1,10.6,0.5,21.2,0.8,31.9
	c-5.4,2.7-10.8,5.4-16.4,8.2C138.3,303.2,138.3,294.3,138.3,285.3z M78.3,278c20.1,0,40,0,59.9,0c0-18,0-36,0-54
	c-20,0-39.9,0-59.9,0C78.3,242.1,78.3,260,78.3,278z"/>
<path d="M45.4,89.5c20.3,0,40.6,0,61.1,0c-0.3-3.4-0.5-6.7-0.9-9.9c-1.5-12-7.5-21.6-15.8-30c-1-1-1.1-1.8-0.4-2.9
	c0.6-1,1.1-2,1.6-3.2c2.6,1.3,5.1,2.6,7.6,3.9c6.5,3.5,12.7,7.2,18.2,12.1c2.9,2.6,5.6,5.5,7.3,9.1c2.8,5.9,2.2,11.3-2.1,16.3
	c-1.4,1.6-3,3-4.6,4.5c0.3,0,0.6,0.1,0.9,0.1c9.4,0,18.8,0,28.2,0c0.6,0,1.2-0.3,1.6-0.7c4.2-4.1,8.3-8.2,12.4-12.4
	c0.3-0.3,0.5-0.7,0.7-0.9c7.2,7.2,14.2,14.2,21.2,21.2c-0.3,0-0.8,0-1.3,0c-33.2,0-66.4,0.1-99.6,0c-8.5,0-16.7,1.1-24.9,3.3
	c-0.9,0.2-1.4,0.1-2.1-0.5c-3.1-3.2-6.4-6.4-9.6-9.6C45.4,89.7,45.4,89.6,45.4,89.5z"/>
<path d="M56.9,175.6c0.9,0,1.3,0,1.8,0c25.3,0,50.5,0,75.8,0c0.9,0,1.6-0.2,2.2-0.9c4.1-4.1,8.2-8.2,12.3-12.3c0.3-0.3,0.6-0.6,1-1
	c6.2,7,12.4,14,18.9,21.2c-0.7,0-1.2,0-1.7,0c-25.6,0-51.3,0-76.9,0c-6.7,0-13.5,0.5-19.9,2.7c-2.3,0.8-3.7,0.5-5.3-1.3
	C62.7,181.2,59.9,178.6,56.9,175.6z"/>
<path d="M146.3,118.9c6.4,6.8,12.7,13.5,19.1,20.3c-0.8,0-1.3,0-1.7,0c-24.8,0-49.6,0-74.4,0c-7.2,0-14.3,0.9-21.1,3.2
	c-0.3,0.1-0.9,0-1.1-0.2c-3.4-3.3-6.7-6.6-10.3-10.2c0.7,0,1.2,0,1.6,0c24.6,0,49.2,0,73.8,0c1,0,1.6-0.3,2.3-1
	c3.6-3.7,7.3-7.4,11-11C145.8,119.7,146,119.3,146.3,118.9z"/>
<path class="st0" d="M78.3,278c0-18,0-36,0-54c20,0,39.9,0,59.9,0c0,18,0,35.9,0,54C118.2,278,98.3,278,78.3,278z"/>
</svg>
