<?xml version="1.0" encoding="utf-8"?>
<!-- Generator: Adobe Illustrator 20.1.0, SVG Export Plug-In . SVG Version: 6.00 Build 0)  -->
<svg version="1.1" id="图层_1" xmlns="http://www.w3.org/2000/svg" xmlns:xlink="http://www.w3.org/1999/xlink" x="0px" y="0px"
	 viewBox="0 0 360 360" style="enable-background:new 0 0 360 360;" xml:space="preserve">
<style type="text/css">
	.st0{fill:#FFFFFF;}
</style>
<g>
	<path class="st0" d="M0.2,360.5c0-120.1,0-240.2,0-360.2c120.1,0,240.2,0,360.2,0c0,120.1,0,240.2,0,360.2
		C240.4,360.5,120.3,360.5,0.2,360.5z M236.1,234.5c-6.4-4.8-12.6-9.5-18.9-14.2c-0.3,0.3-0.5,0.6-0.7,0.8c-2.6,3.3-5.3,6.5-7.8,9.9
		c-0.6,0.8-1.3,1.1-2.3,1.1c-27.7,0-55.4-0.1-83.2,0c-3.4,0-6.6-0.4-9.5-2.1c-1.1-0.7-2.3-1.1-3.5-1.6c-3.2-1.5-6.3-3-9.4-4.4
		c0.3,13.1,0.8,26.2,0.8,39.3c0,13.1-0.5,26.3-0.8,39.4c-0.1,0,0.1,0,0.3-0.1c5.1-2.2,10.1-4.3,15.2-6.5c0.7-0.3,0.7-0.7,0.7-1.3
		c0-3.9,0-7.8,0-11.8c0-0.4,0-0.8,0-1.3c31.1,0,62,0,93,0c0,3.5,0,6.9,0,10.4c0.6-0.2,1-0.3,1.4-0.4c4.7-1.7,9.3-3.4,14-5
		c0.9-0.3,1.2-0.7,1.2-1.7c-0.4-13.9-0.7-27.9-1.1-41.8c0-1.3,0.3-2,1.4-2.7C230,238.7,232.9,236.6,236.1,234.5z M81.6,136.8
		c3.4,3.3,6.5,6.4,9.5,9.5c0.8,0.8,1.5,1.1,2.7,0.8c8.1-2.2,16.3-3.3,24.7-3.3c45.6,0.1,91.3,0,136.9,0c0.5,0,1,0,1.8,0
		c-6.8-7.6-13.4-15-20.2-22.5c-0.3,0.4-0.6,0.8-0.9,1.1c-4.4,4.4-8.9,8.9-13.3,13.3c-0.8,0.8-1.5,1.1-2.6,1.1
		c-45.6,0-91.2,0-136.8,0C83,136.8,82.5,136.8,81.6,136.8z M92.2,202.7c0.5,0.5,0.7,0.8,1,1.1c2.5,2.5,5.1,4.9,7.4,7.5
		c1.5,1.7,2.9,2.4,4.9,1.2c0.1,0,0.2,0,0.2-0.1c6.7-2,13.6-2.6,20.5-2.6c37.6,0,75.2,0,112.8,0c0.5,0,0.9,0,1.7,0
		c-6.8-7.2-13.4-14.2-20.1-21.3c-0.4,0.4-0.7,0.6-1,0.9c-3.9,3.9-7.9,7.8-11.8,11.8c-1,1-1.9,1.4-3.3,1.4c-36.9,0-73.8,0-110.6,0
		C93.5,202.7,93,202.7,92.2,202.7z M218.3,154.3c-0.3,0.4-0.4,0.6-0.6,0.8c-3.8,4.1-7.6,8.2-11.3,12.4c-0.7,0.8-1.4,1.1-2.5,1.1
		c-35.9,0-71.7,0-107.6,0c-0.5,0-0.9,0-1.5,0c0.1,0.3,0.2,0.4,0.2,0.5c3.2,3.3,6.5,6.5,9.8,9.7c0.2,0.2,0.9,0.3,1.3,0.2
		c6.5-2.2,13.2-3.2,20-3.2c36.9,0,73.8,0,110.7,0c0.5,0,0.9,0,1.7,0C231.7,168.5,225.1,161.5,218.3,154.3z M146.5,93.1
		c-0.7,1.1-1.4,2-2,3c-0.2,0.3-0.1,0.9,0.1,1.2c1.2,1.3,2.4,2.6,3.6,3.9c6.7,7.5,12,15.7,15,25.3c0.7,2.3,1.9,4.6,3.3,6.6
		c1.5,2.3,3.8,2.4,5.7,0.5c1.4-1.4,2.7-3.1,3.7-4.8c3.8-6.8,3.1-14.6-1.7-19.9c-1.2-1.3-2.6-2.5-4-3.6
		C163,99.9,154.8,96.5,146.5,93.1z"/>
	<path d="M236.1,234.5c-3.2,2.1-6.2,4.2-9.2,6.1c-1.1,0.7-1.5,1.4-1.4,2.7c0.4,13.9,0.7,27.9,1.1,41.8c0,1-0.3,1.4-1.2,1.7
		c-4.7,1.6-9.3,3.3-14,5c-0.4,0.1-0.8,0.3-1.4,0.4c0-3.5,0-7,0-10.4c-31,0-61.9,0-93,0c0,0.4,0,0.8,0,1.3c0,3.9,0,7.8,0,11.8
		c0,0.6,0,1-0.7,1.3c-5.1,2.1-10.1,4.3-15.2,6.5c-0.2,0.1-0.4,0.1-0.3,0.1c0.3-13.1,0.8-26.3,0.8-39.4c0-13.1-0.5-26.2-0.8-39.3
		c3,1.4,6.2,2.9,9.4,4.4c1.2,0.5,2.4,1,3.5,1.6c2.9,1.8,6.1,2.1,9.5,2.1c27.7-0.1,55.4-0.1,83.2,0c1,0,1.7-0.3,2.3-1.1
		c2.6-3.3,5.2-6.6,7.8-9.9c0.2-0.2,0.4-0.5,0.7-0.8C223.5,225.1,229.7,229.8,236.1,234.5z M117.1,274.5c31,0,61.9,0,92.8,0
		c0-11.8,0-23.5,0-35.1c-31,0-61.9,0-92.8,0C117.1,251.1,117.1,262.8,117.1,274.5z"/>
	<path d="M81.6,136.8c0.9,0,1.4,0,1.9,0c45.6,0,91.2,0,136.8,0c1.1,0,1.8-0.3,2.6-1.1c4.4-4.5,8.9-8.9,13.3-13.3
		c0.3-0.3,0.5-0.7,0.9-1.1c6.8,7.6,13.4,14.9,20.2,22.5c-0.8,0-1.3,0-1.8,0c-45.6,0-91.3,0-136.9,0c-8.4,0-16.7,1-24.7,3.3
		c-1.2,0.3-1.9,0.1-2.7-0.8C88.1,143.2,85,140.1,81.6,136.8z"/>
	<path d="M92.2,202.7c0.8,0,1.3,0,1.8,0c36.9,0,73.8,0,110.6,0c1.4,0,2.4-0.4,3.3-1.4c3.9-4,7.8-7.9,11.8-11.8
		c0.3-0.3,0.6-0.6,1-0.9c6.7,7.1,13.3,14,20.1,21.3c-0.7,0-1.2,0-1.7,0c-37.6,0-75.2,0-112.8,0c-6.9,0-13.8,0.6-20.5,2.6
		c-0.1,0-0.2,0-0.2,0.1c-2,1.2-3.4,0.5-4.9-1.2c-2.3-2.6-4.9-5-7.4-7.5C93,203.5,92.7,203.2,92.2,202.7z"/>
	<path d="M218.3,154.3c6.8,7.2,13.4,14.2,20.2,21.4c-0.7,0-1.2,0-1.7,0c-36.9,0-73.8,0-110.7,0c-6.8,0-13.5,1-20,3.2
		c-0.4,0.1-1,0.1-1.3-0.2c-3.3-3.2-6.5-6.5-9.8-9.7c-0.1-0.1-0.1-0.2-0.2-0.5c0.6,0,1,0,1.5,0c35.9,0,71.7,0,107.6,0
		c1,0,1.8-0.3,2.5-1.1c3.7-4.2,7.5-8.3,11.3-12.4C217.9,154.9,218,154.6,218.3,154.3z"/>
	<path d="M146.5,93.1c8.3,3.4,16.5,6.8,23.7,12.1c1.4,1.1,2.8,2.2,4,3.6c4.9,5.3,5.6,13.2,1.7,19.9c-1,1.7-2.2,3.4-3.7,4.8
		c-1.9,2-4.2,1.8-5.7-0.5c-1.4-2-2.6-4.3-3.3-6.6c-3.1-9.6-8.4-17.9-15-25.3c-1.2-1.3-2.4-2.5-3.6-3.9c-0.2-0.3-0.3-0.9-0.1-1.2
		C145.1,95.1,145.8,94.2,146.5,93.1z"/>
	<path class="st0" d="M117.1,274.5c0-11.7,0-23.4,0-35.1c30.9,0,61.8,0,92.8,0c0,11.7,0,23.4,0,35.1
		C179.1,274.5,148.2,274.5,117.1,274.5z"/>
</g>
</svg>
