<?xml version="1.0" encoding="utf-8"?>
<!-- Generator: Adobe Illustrator 20.1.0, SVG Export Plug-In . SVG Version: 6.00 Build 0)  -->
<svg version="1.1" id="图层_1" xmlns="http://www.w3.org/2000/svg" xmlns:xlink="http://www.w3.org/1999/xlink" x="0px" y="0px"
	 viewBox="0 0 360 360" style="enable-background:new 0 0 360 360;" xml:space="preserve">
<style type="text/css">
	.st0{fill:#FFFFFF;}
</style>
<g>
	<path class="st0" d="M-0.1,360.1c0-120.1,0-240.2,0-360.2c120.1,0,240.2,0,360.2,0c0,120.1,0,240.2,0,360.2
		C240,360.1,120,360.1-0.1,360.1z M82.6,213c-0.1,0.2-0.1,0.3-0.1,0.3c0.4,13.7,0.8,27.3,1.1,41c0.2,7.4,0,14.7,0.1,22.1
		c0,4,0,8.1,0.5,12.1c1.2,8.4,5.8,14.3,14.1,17c4.2,1.4,8.5,1.8,12.9,1.8c54.3,0,108.6,0,162.8,0c2.3,0,4.6,0,6.9-0.2
		c6.7-0.5,12.7-2.6,17.8-7.2c2.1-1.9,3.9-4.2,5.4-6.8c-0.6-0.2-1-0.3-1.5-0.4c-6.1-1.8-10.1-5.6-10.9-12.1
		c-0.7-5.4-1.1-10.9-1.5-16.3c-0.2-2.9,0-5.8,0-8.8c-2.2,0-4.1,0-6.2,0c0,3.1,0.1,6,0,9c-0.3,7.3-0.6,14.5-1,21.8
		c-0.4,5.8-3.4,9.2-9.1,10.1c-2.3,0.4-4.8,0.2-7.2,0.2c-49.2,0-98.4,0-147.6,0c-2.3,0-4.6-0.2-6.9-0.5c-9.5-1.4-14.2-7-14.2-16.5
		c0-6,0-12,0-18c0-0.5,0-0.9,0-1.3c50.4,0,100.5,0,150.8,0c0,2.7,0,5.4,0,8.2c0.5-0.2,0.8-0.3,1.1-0.5c4.3-2,8.5-4,12.8-5.9
		c1.1-0.5,1.3-1.1,1.3-2.2c-0.4-9-0.7-18-1-26.9c0-0.5,0.4-1.2,0.8-1.5c2.2-1.6,4.4-3.2,6.6-4.8c0.2-0.2,0.4-0.4,0.7-0.6
		c-6-4.4-11.8-8.6-17.7-12.9c-2.6,3-5.1,5.8-7.5,8.6c-0.5,0.6-1,0.8-1.8,0.8c-48,0-96,0-144,0c-0.6,0-1.3-0.2-1.8-0.5
		c-4.8-2.7-9.7-5.5-14.5-8.2C83.4,213.4,83,213.2,82.6,213z M110.8,204.8c41.3,0,82.4,0,123.7,0c0,2.7,0,5.4,0,8.1
		c0.5-0.2,0.9-0.3,1.2-0.5c3.8-1.8,7.6-3.5,11.4-5.3c2.6-1.2,2.5-1.2,2.3-4c-0.3-6.4-0.5-12.8-0.9-19.1c-0.1-1.3,0.4-1.9,1.5-2.4
		c2.3-1,4.6-2.3,6.9-3.4c0.3-0.2,0.7-0.4,1.1-0.6c-5.6-4.8-11-9.4-16.5-14.1c-0.4,0.3-0.7,0.6-0.9,0.9c-2.6,2.6-5.2,5.1-7.7,7.7
		c-0.6,0.6-1.1,0.8-2,0.8c-39.3,0-78.6,0-117.9,0c-0.6,0-1.4-0.2-1.9-0.5c-4.8-2.4-9.6-4.8-14.4-7.2c-0.4-0.2-0.8-0.3-1.4-0.6
		c1.8,16.6,1.4,33,0,49.4c0.2,0,0.3,0,0.4,0c4.8-1.8,9.6-3.7,14.4-5.6c0.3-0.1,0.5-0.6,0.6-1C110.9,206.6,110.8,205.8,110.8,204.8z"
		/>
	<path d="M82.6,213c0.4,0.2,0.8,0.4,1.1,0.6c4.8,2.8,9.6,5.5,14.5,8.2c0.5,0.3,1.2,0.5,1.8,0.5c48,0,96,0,144,0
		c0.8,0,1.3-0.2,1.8-0.8c2.4-2.9,4.9-5.7,7.5-8.6c5.9,4.3,11.7,8.6,17.7,12.9c-0.3,0.2-0.5,0.5-0.7,0.6c-2.2,1.6-4.4,3.1-6.6,4.8
		c-0.4,0.3-0.8,1-0.8,1.5c0.3,9,0.6,18,1,26.9c0.1,1.2-0.2,1.8-1.3,2.2c-4.3,1.9-8.6,3.9-12.8,5.9c-0.3,0.1-0.6,0.3-1.1,0.5
		c0-2.8,0-5.4,0-8.2c-50.3,0-100.4,0-150.8,0c0,0.4,0,0.9,0,1.3c0,6,0,12,0,18c0,9.5,4.7,15.1,14.2,16.5c2.3,0.3,4.6,0.5,6.9,0.5
		c49.2,0,98.4,0,147.6,0c2.4,0,4.8,0.2,7.2-0.2c5.7-0.9,8.7-4.3,9.1-10.1c0.5-7.3,0.7-14.5,1-21.8c0.1-2.9,0-5.9,0-9
		c2.1,0,4,0,6.2,0c0,2.9-0.2,5.9,0,8.8c0.4,5.5,0.8,10.9,1.5,16.3c0.8,6.5,4.8,10.3,10.9,12.1c0.5,0.1,0.9,0.3,1.5,0.4
		c-1.4,2.6-3.2,4.8-5.4,6.8c-5,4.6-11.1,6.7-17.8,7.2c-2.3,0.2-4.6,0.2-6.9,0.2c-54.3,0-108.6,0-162.8,0c-4.4,0-8.7-0.4-12.9-1.8
		c-8.2-2.7-12.9-8.5-14.1-17c-0.6-4-0.5-8-0.5-12.1c-0.1-7.4,0.1-14.7-0.1-22.1c-0.3-13.7-0.7-27.3-1.1-41
		C82.5,213.3,82.5,213.2,82.6,213z M97.9,252.9c22.8,0,45.4,0,68.2,0c0-7.8,0-15.5,0-23.3c-22.8,0-45.5,0-68.2,0
		C97.9,237.4,97.9,245.1,97.9,252.9z M248.5,229.6c-22.8,0-45.4,0-68.1,0c0,7.8,0,15.5,0,23.3c22.7,0,45.4,0,68.1,0
		C248.5,245.1,248.5,237.4,248.5,229.6z"/>
	<path d="M110.8,204.8c0,0.9,0.1,1.8,0,2.7c0,0.4-0.3,0.9-0.6,1c-4.8,1.9-9.6,3.7-14.4,5.6c-0.1,0-0.2,0-0.4,0
		c1.4-16.4,1.7-32.8,0-49.4c0.6,0.3,1,0.4,1.4,0.6c4.8,2.4,9.6,4.8,14.4,7.2c0.6,0.3,1.3,0.5,1.9,0.5c39.3,0,78.6,0,117.9,0
		c0.8,0,1.4-0.3,2-0.8c2.5-2.6,5.1-5.2,7.7-7.7c0.3-0.3,0.6-0.5,0.9-0.9c5.5,4.7,10.9,9.4,16.5,14.1c-0.4,0.2-0.7,0.4-1.1,0.6
		c-2.3,1.1-4.5,2.3-6.9,3.4c-1.1,0.5-1.6,1.2-1.5,2.4c0.3,6.4,0.5,12.8,0.9,19.1c0.1,2.8,0.2,2.8-2.3,4c-3.8,1.8-7.6,3.5-11.4,5.3
		c-0.4,0.2-0.7,0.3-1.2,0.5c0-2.7,0-5.4,0-8.1C193.2,204.8,152.1,204.8,110.8,204.8z M110.9,197.6c41.2,0,82.4,0,123.5,0
		c0-5.9,0-11.6,0-17.5c-41.2,0-82.3,0-123.5,0C110.9,186,110.9,191.7,110.9,197.6z"/>
	<path class="st0" d="M97.9,252.9c0-7.8,0-15.5,0-23.3c22.7,0,45.4,0,68.2,0c0,7.7,0,15.4,0,23.3
		C143.3,252.9,120.7,252.9,97.9,252.9z"/>
	<path class="st0" d="M248.5,229.6c0,7.8,0,15.5,0,23.3c-22.7,0-45.4,0-68.1,0c0-7.8,0-15.5,0-23.3
		C203.1,229.6,225.7,229.6,248.5,229.6z"/>
	<path class="st0" d="M110.9,197.6c0-5.8,0-11.6,0-17.5c41.2,0,82.3,0,123.5,0c0,5.8,0,11.6,0,17.5
		C193.2,197.6,152.1,197.6,110.9,197.6z"/>
</g>
</svg>
