<?xml version="1.0" encoding="utf-8"?>
<!-- Generator: Adobe Illustrator 20.1.0, SVG Export Plug-In . SVG Version: 6.00 Build 0)  -->
<svg version="1.1" id="图层_1" xmlns="http://www.w3.org/2000/svg" xmlns:xlink="http://www.w3.org/1999/xlink" x="0px" y="0px"
	 viewBox="0 0 360 360" style="enable-background:new 0 0 360 360;" xml:space="preserve">
<style type="text/css">
	.st0{fill:#FFFFFF;}
</style>
<g>
	<path class="st0" d="M-0.1,360.1c0-120.1,0-240.2,0-360.2c120.1,0,240.2,0,360.2,0c0,120.1,0,240.2,0,360.2
		C240,360.1,120,360.1-0.1,360.1z M280.5,219c0,5.1,0,10.1,0,15.2c5.5-2.7,10.7-5.4,16-8c0.3-0.1,0.5-0.7,0.5-1.1
		c-0.3-7.3-0.7-14.6-0.8-21.9c-0.2-12.5-0.2-25-0.3-37.5c0-0.7,0.2-1.1,0.8-1.4c3.3-1.6,6.5-3.2,9.8-4.9c0.4-0.2,0.7-0.4,1.2-0.7
		c-5.9-5.5-11.8-11-17.9-16.7c-0.3,0.4-0.4,0.9-0.7,1.2c-3,3-5.9,6-8.9,8.9c-0.5,0.4-1.2,0.8-1.9,0.8c-31.4,0-62.9,0-94.3,0
		c-0.7,0-1.4-0.2-2-0.6c-5.2-3.1-10.4-6.2-15.6-9.3c-0.3-0.2-0.7-0.4-1.1-0.6c0,0.6,0,1.1,0,1.6c0.4,13.1,1,26.1,1.1,39.2
		c0.2,29.3,0,58.6,0.1,87.8c0,2.8,0.3,5.6,0.8,8.3c1.8,9.4,7.1,15.8,16.3,18.8c4.6,1.6,9.4,2.1,14.3,2.1c33,0,65.9,0,98.9,0
		c2,0,4-0.2,6-0.5c8.7-1.6,14.7-6.5,18.2-14.7c-0.1-0.1-0.2-0.1-0.4-0.2c-7.1-1.8-10.9-6.5-12.4-13.4c-1.6-7.2-2.2-14.5-2.4-21.9
		c0-1.5,0-3.1,0-4.6c-2.1,0-4,0-5.9,0c0,0.4-0.1,0.8-0.1,1.1c-0.1,4.6,0,9.1-0.3,13.7c-0.3,5.6-0.7,11.2-1.3,16.8
		c-0.6,5.9-4,9.3-9.8,10.3c-1.7,0.3-3.4,0.5-5.1,0.5c-26.2,0-52.4,0-78.6,0c-2.1,0-4.2-0.2-6.2-0.5c-7.3-1.2-12.5-5.1-14.9-12.3
		c-1-3-1.5-6-1.5-9.2c0-15,0-29.9,0-44.9c0-0.4,0-0.9,0-1.4C214.5,219,247.4,219,280.5,219z M173.6,54.1c0.3,13.5,0.6,27,0.8,40.5
		c0.2,13.5-0.1,27-1.1,40.6c5.4-1.5,10.6-3.1,15.8-4.5c0.7-0.2,0.7-0.6,0.7-1.1c0-2.9,0-5.8,0-8.8c0-0.7,0-1.3,0-2
		c28.7,0,57.3,0,86,0c0,4.3,0,8.5,0,12.9c5.6-2,11-3.9,16.5-5.9c-0.2-2.4-0.4-4.7-0.5-7c-0.3-14.2-0.5-28.4-0.7-42.7
		c0-0.5,0.3-1.2,0.7-1.6c1.2-1.2,2.5-2.3,3.7-3.4c2-1.8,4-3.6,6.2-5.5c-6.8-4.8-13.4-9.5-20.1-14.2c-0.4,0.5-0.7,0.8-1.1,1.1
		c-2.9,3.3-5.9,6.5-8.8,9.8c-0.5,0.6-1.1,0.8-1.9,0.8c-25.6,0-51.2,0-76.8,0c-0.7,0-1.4-0.2-2-0.5c-5.6-2.7-11.1-5.5-16.6-8.3
		C174.1,54.3,173.7,54.2,173.6,54.1z"/>
	<path d="M280.5,219c-33.1,0-65.9,0-98.9,0c0,0.5,0,0.9,0,1.4c0,15,0,29.9,0,44.9c0,3.1,0.5,6.2,1.5,9.2c2.4,7.1,7.6,11,14.9,12.3
		c2,0.3,4.1,0.5,6.2,0.5c26.2,0,52.4,0,78.6,0c1.7,0,3.4-0.2,5.1-0.5c5.9-1,9.2-4.4,9.8-10.3c0.6-5.6,1-11.2,1.3-16.8
		c0.2-4.5,0.2-9.1,0.3-13.7c0-0.4,0-0.7,0.1-1.1c1.9,0,3.8,0,5.9,0c0,1.5,0,3.1,0,4.6c0.2,7.4,0.9,14.7,2.4,21.9
		c1.5,6.9,5.4,11.7,12.4,13.4c0.1,0,0.2,0.1,0.4,0.2c-3.4,8.2-9.5,13.1-18.2,14.7c-2,0.4-4,0.5-6,0.5c-33,0-65.9,0-98.9,0
		c-4.9,0-9.7-0.5-14.3-2.1c-9.1-3.1-14.5-9.5-16.3-18.8c-0.5-2.7-0.8-5.6-0.8-8.3c-0.1-29.3,0.1-58.6-0.1-87.8
		c-0.1-13.1-0.7-26.1-1.1-39.2c0-0.5,0-0.9,0-1.6c0.5,0.2,0.8,0.4,1.1,0.6c5.2,3.1,10.4,6.3,15.6,9.3c0.6,0.3,1.3,0.6,2,0.6
		c31.4,0,62.9,0,94.3,0c0.6,0,1.4-0.3,1.9-0.8c3-2.9,6-5.9,8.9-8.9c0.3-0.3,0.5-0.8,0.7-1.2c6.2,5.7,12,11.2,17.9,16.7
		c-0.4,0.2-0.8,0.5-1.2,0.7c-3.2,1.6-6.5,3.3-9.8,4.9c-0.6,0.3-0.9,0.7-0.8,1.4c0.1,12.5,0.1,25,0.3,37.5c0.1,7.3,0.5,14.6,0.8,21.9
		c0,0.4-0.2,0.9-0.5,1.1c-5.3,2.7-10.5,5.3-16,8C280.5,229,280.5,224,280.5,219z M223.7,211.7c0-17.3,0-34.5,0-51.7
		c-14.1,0-28.1,0-42.2,0c0,17.2,0,34.4,0,51.7C195.7,211.7,209.7,211.7,223.7,211.7z M239.3,160c0,17.3,0,34.5,0,51.7
		c13.7,0,27.4,0,41.1,0c0-17.3,0-34.5,0-51.7C266.6,160,253,160,239.3,160z"/>
	<path d="M173.6,54.1c0.2,0.1,0.6,0.2,0.9,0.4c5.5,2.8,11.1,5.5,16.6,8.3c0.6,0.3,1.4,0.5,2,0.5c25.6,0,51.2,0,76.8,0
		c0.8,0,1.3-0.2,1.9-0.8c2.9-3.3,5.9-6.5,8.8-9.8c0.3-0.4,0.6-0.7,1.1-1.1c6.7,4.7,13.3,9.4,20.1,14.2c-2.1,1.9-4.1,3.7-6.2,5.5
		c-1.3,1.1-2.5,2.2-3.7,3.4c-0.4,0.4-0.7,1.1-0.7,1.6c0.2,14.2,0.4,28.5,0.7,42.7c0,2.3,0.3,4.6,0.5,7c-5.5,2-10.9,3.9-16.5,5.9
		c0-4.4,0-8.6,0-12.9c-28.7,0-57.2,0-86,0c0,0.7,0,1.4,0,2c0,2.9,0,5.8,0,8.8c0,0.5,0,0.9-0.7,1.1c-5.2,1.5-10.4,3-15.8,4.5
		c1-13.6,1.3-27.1,1.1-40.6C174.2,81.1,173.8,67.6,173.6,54.1z M275.6,70.5c-28.7,0-57.2,0-85.8,0c0,13.7,0,27.3,0,41
		c28.6,0,57.2,0,85.8,0C275.6,97.8,275.6,84.2,275.6,70.5z"/>
	<path class="st0" d="M223.7,211.7c-14.1,0-28.1,0-42.2,0c0-17.2,0-34.4,0-51.7c14,0,28,0,42.2,0
		C223.7,177.2,223.7,194.4,223.7,211.7z"/>
	<path class="st0" d="M239.3,160c13.7,0,27.4,0,41.1,0c0,17.2,0,34.4,0,51.7c-13.7,0-27.3,0-41.1,0
		C239.3,194.5,239.3,177.3,239.3,160z"/>
	<path class="st0" d="M275.6,70.5c0,13.7,0,27.3,0,41c-28.6,0-57.1,0-85.8,0c0-13.7,0-27.3,0-41C218.4,70.5,247,70.5,275.6,70.5z"/>
</g>
</svg>
