<?xml version="1.0" encoding="utf-8"?>
<!-- Generator: Adobe Illustrator 20.1.0, SVG Export Plug-In . SVG Version: 6.00 Build 0)  -->
<svg version="1.1" id="图层_1" xmlns="http://www.w3.org/2000/svg" xmlns:xlink="http://www.w3.org/1999/xlink" x="0px" y="0px"
	 viewBox="0 0 360 360" style="enable-background:new 0 0 360 360;" xml:space="preserve">
<style type="text/css">
	.st0{fill:#FFFFFF;}
</style>
<g>
	<path class="st0" d="M0.2,360.5c0-120.1,0-240.2,0-360.2c120.1,0,240.2,0,360.2,0c0,120.1,0,240.2,0,360.2
		C240.4,360.5,120.3,360.5,0.2,360.5z M298.5,243.9c-0.1,0.3-0.2,0.7-0.2,1c-0.4,6.1-0.7,12.2-1.3,18.3c-0.5,5.6-1,11.2-1.9,16.7
		c-1.2,7-4.9,11.3-13.4,11.3c-57.4-0.1-114.9,0-172.3-0.1c-1.6,0-3.3-0.1-4.9-0.2c-6.7-0.5-11.4-4.3-12.7-10.6
		c-0.5-2.6-0.5-5.3-0.6-8c-0.1-6.6,0-13.3,0-19.9c0-0.4,0-0.8,0-1.3c55.8,0,111.5,0,167.3,0c0,3.5,0,7,0,10.5
		c5.4-2.3,10.6-4.5,15.8-6.8c0.3-0.1,0.6-0.7,0.6-1c0-1.4-0.2-2.9-0.2-4.3c-0.3-11.9-0.5-23.7-0.8-35.6c-0.1-2.2,0.5-3.6,2.3-4.9
		c2.5-1.9,4.8-4.1,7.2-6.2c-6-4.4-11.8-8.7-17.7-13c-0.4,0.5-0.8,1-1.1,1.4c-2.2,2.8-4.3,5.5-6.5,8.3c-0.5,0.7-1,0.9-1.9,0.9
		c-54.6,0-109.1,0-163.7,0c-0.7,0-1.5-0.2-2.1-0.6c-4.8-2.7-9.5-5.4-14.3-8.1c-0.4-0.2-0.8-0.4-1.3-0.7c0.2,4.3,0.4,8.4,0.5,12.5
		c0.2,12.4,0.4,24.7,0.6,37.1c0.1,3.8,0.1,7.6,0.1,11.4c0,5.9,0.1,11.8-0.1,17.6c-0.1,5.1-0.1,10.2,1.1,15.1
		c1.7,7.1,5.2,12.8,11.9,16.3c4.5,2.3,9.4,3.2,14.4,3.2c62.8,0,125.7,0,188.5,0c2.9,0,5.8-0.4,8.5-1c8.3-1.8,14.3-6.8,18.3-14.3
		c-0.2-0.1-0.4-0.2-0.6-0.3c-5.4-1.5-9-5-10.8-10.2c-1.2-3.4-1.9-7-2.5-10.6c-1.2-7.4-1.4-15-1.4-22.5c0-0.5-0.1-0.9-0.1-1.4
		C301.5,243.9,300.1,243.9,298.5,243.9z M82.9,190.9c0.4-0.1,0.6-0.1,0.9-0.2c5.3-1.8,10.7-3.6,16-5.3c0.7-0.2,0.8-0.6,0.8-1.2
		c0-1.6,0-3.2,0-4.8c50.7,0,101.3,0,151.9,0c0,2.7,0,5.4,0,8.1c0.4-0.1,0.8-0.2,1.1-0.3c4.7-1.7,9.5-3.4,14.2-5
		c1.1-0.4,1.2-0.9,1.2-1.9c-0.4-10.2-0.8-20.4-1.1-30.7c0-0.5,0.3-1.2,0.7-1.5c1.6-1.5,3.2-2.9,4.9-4.3c1.3-1.1,2.5-2.2,3.9-3.4
		c-6-4.8-11.8-9.5-17.7-14.2c-2.6,3.3-5.1,6.5-7.5,9.7c-0.5,0.7-1.1,1-2,1c-49.4,0-98.9,0-148.3,0c-0.7,0-1.5-0.2-2.1-0.5
		c-5.2-2.7-10.4-5.5-15.5-8.3c-0.4-0.2-0.7-0.4-1.3-0.6C84.5,148.6,84.4,169.7,82.9,190.9z"/>
	<path d="M298.5,243.9c1.5,0,3,0,4.6,0c0,0.5,0.1,0.9,0.1,1.4c0,7.5,0.2,15,1.4,22.5c0.6,3.6,1.3,7.2,2.5,10.6
		c1.8,5.2,5.4,8.7,10.8,10.2c0.2,0.1,0.4,0.2,0.6,0.3c-4,7.5-10,12.4-18.3,14.3c-2.8,0.6-5.7,1-8.5,1c-62.8,0.1-125.7,0-188.5,0
		c-5,0-9.9-0.9-14.4-3.2c-6.7-3.4-10.2-9.2-11.9-16.3c-1.2-5-1.2-10-1.1-15.1c0.2-5.9,0.1-11.8,0.1-17.6c0-3.8-0.1-7.6-0.1-11.4
		c-0.2-12.4-0.3-24.7-0.6-37.1c-0.1-4.1-0.3-8.1-0.5-12.5c0.6,0.3,1,0.5,1.3,0.7c4.8,2.7,9.5,5.4,14.3,8.1c0.6,0.4,1.4,0.6,2.1,0.6
		c54.6,0,109.1,0,163.7,0c0.9,0,1.4-0.3,1.9-0.9c2.1-2.8,4.3-5.6,6.5-8.3c0.3-0.4,0.7-0.9,1.1-1.4c5.9,4.3,11.8,8.6,17.7,13
		c-2.4,2.1-4.7,4.3-7.2,6.2c-1.7,1.3-2.3,2.8-2.3,4.9c0.4,11.9,0.6,23.7,0.8,35.6c0,1.4,0.2,2.9,0.2,4.3c0,0.4-0.3,0.9-0.6,1
		c-5.2,2.3-10.4,4.5-15.8,6.8c0-3.6,0-7,0-10.5c-55.8,0-111.5,0-167.3,0c0,0.4,0,0.9,0,1.3c0,6.6-0.1,13.3,0,19.9c0,2.7,0,5.4,0.6,8
		c1.3,6.3,6,10,12.7,10.6c1.6,0.1,3.3,0.2,4.9,0.2c57.4,0,114.9,0,172.3,0.1c8.6,0,12.2-4.3,13.4-11.3c0.9-5.5,1.4-11.1,1.9-16.7
		c0.5-6.1,0.9-12.2,1.3-18.3C298.4,244.6,298.5,244.3,298.5,243.9z M91.2,243.8c25.9,0,51.7,0,77.5,0c0-12.1,0-24.1,0-36.2
		c-25.9,0-51.7,0-77.5,0C91.2,219.7,91.2,231.7,91.2,243.8z M184.2,243.8c24.8,0,49.4,0,74,0c0-12.1,0-24.1,0-36.2
		c-24.7,0-49.4,0-74,0C184.2,219.7,184.2,231.7,184.2,243.8z"/>
	<path d="M82.9,190.9c1.5-21.2,1.6-42.2,0-63.5c0.5,0.2,0.9,0.4,1.3,0.6c5.2,2.8,10.3,5.5,15.5,8.3c0.6,0.3,1.4,0.5,2.1,0.5
		c49.4,0,98.9,0,148.3,0c0.9,0,1.4-0.3,2-1c2.4-3.2,4.9-6.4,7.5-9.7c5.9,4.7,11.8,9.4,17.7,14.2c-1.3,1.2-2.6,2.3-3.9,3.4
		c-1.6,1.4-3.3,2.8-4.9,4.3c-0.4,0.4-0.7,1-0.7,1.5c0.3,10.2,0.7,20.4,1.1,30.7c0,1-0.1,1.5-1.2,1.9c-4.8,1.6-9.5,3.4-14.2,5
		c-0.3,0.1-0.7,0.2-1.1,0.3c0-2.7,0-5.3,0-8.1c-50.6,0-101.2,0-151.9,0c0,1.6,0,3.2,0,4.8c0,0.6-0.1,1-0.8,1.2
		c-5.4,1.8-10.7,3.6-16,5.3C83.5,190.8,83.2,190.8,82.9,190.9z M252.4,143.9c-50.7,0-101.3,0-151.8,0c0,9.4,0,18.8,0,28.1
		c50.6,0,101.2,0,151.8,0C252.4,162.6,252.4,153.3,252.4,143.9z"/>
	<path class="st0" d="M91.2,243.8c0-12.1,0-24.1,0-36.2c25.9,0,51.7,0,77.5,0c0,12.1,0,24.1,0,36.2
		C143,243.8,117.1,243.8,91.2,243.8z"/>
	<path class="st0" d="M184.2,243.8c0-12.1,0-24.1,0-36.2c24.7,0,49.3,0,74,0c0,12.1,0,24.1,0,36.2
		C233.6,243.8,209,243.8,184.2,243.8z"/>
	<path class="st0" d="M252.4,143.9c0,9.4,0,18.7,0,28.1c-50.6,0-101.2,0-151.8,0c0-9.3,0-18.7,0-28.1
		C151.2,143.9,201.8,143.9,252.4,143.9z"/>
</g>
</svg>
