<?xml version="1.0" encoding="utf-8"?>
<!-- Generator: Adobe Illustrator 20.1.0, SVG Export Plug-In . SVG Version: 6.00 Build 0)  -->
<svg version="1.1" id="图层_1" xmlns="http://www.w3.org/2000/svg" xmlns:xlink="http://www.w3.org/1999/xlink" x="0px" y="0px"
	 viewBox="0 0 360 360" style="enable-background:new 0 0 360 360;" xml:space="preserve">
<style type="text/css">
	.st0{fill:#FFFFFF;}
</style>
<g>
	<path class="st0" d="M-0.1,360.1c0-120.1,0-240.2,0-360.2c120.1,0,240.2,0,360.2,0c0,120.1,0,240.2,0,360.2
		C240,360.1,120,360.1-0.1,360.1z M260.4,315.5c5.8-2.3,11.4-4.6,17-6.8c0.7-0.3,0.6-0.8,0.6-1.4c-0.2-11.3-0.5-22.6-0.7-33.9
		c-0.1-9.2-0.2-18.4-0.2-27.6c-0.1-15-0.1-29.9-0.2-44.9c0-14.7,0-29.4-0.1-44.2c0-2,0.6-3.4,2.2-4.6c2.5-2,4.8-4.2,7.3-6.4
		c-7.2-4.8-14.2-9.5-21.3-14.2c-2.2,3.7-4.4,7.2-6.5,10.8c-0.4,0.7-0.9,1-1.8,1c-14.1,0-28.2,0-42.2,0c-0.4,0-0.8,0-1.3,0
		c0-13.8,0-27.4,0-41.2c35.3,0,70.5,0,106,0c-8-8.4-15.8-16.6-23.6-24.8c-0.4,0.4-0.7,0.6-0.9,0.9c-5.2,5.2-10.4,10.4-15.6,15.6
		c-0.8,0.8-1.6,1.2-2.8,1.2c-76.2,0-152.5,0-228.7,0c-0.5,0-1,0-1.6,0c0.1,0.3,0.2,0.4,0.2,0.4c3.2,3.3,6.5,6.5,9.8,9.7
		c0.3,0.3,0.9,0.3,1.4,0.2c8.8-2.3,17.8-3.3,26.8-3.3c20.9,0,41.8,0,62.6,0c0.5,0,0.9,0,1.7,0c-0.4,13.8-0.8,27.4-1.2,41.2
		c-0.5,0-0.8,0-1.1,0c-14.7,0-29.4,0-44.2,0c-0.5,0-1.1-0.2-1.6-0.5c-5.2-3.1-10.3-6.1-15.4-9.2c-0.4-0.3-0.9-0.5-1.5-0.8
		c1.6,61,1.5,121.7,0,182.6c0.5-0.2,1-0.3,1.4-0.5c5.1-2,10.1-4.1,15.2-6.1c0.8-0.3,1.1-0.7,1.1-1.6c-0.1-4.3,0-8.6,0-12.8
		c0-0.4,0-0.8,0-1.2c53.1,0,106,0,159,0C260.4,300.6,260.4,308,260.4,315.5z"/>
	<path d="M260.4,315.5c0-7.5,0-14.9,0-22.3c-53,0-105.9,0-159,0c0,0.4,0,0.8,0,1.2c0,4.3,0,8.6,0,12.8c0,0.9-0.3,1.3-1.1,1.6
		c-5.1,2-10.2,4-15.2,6.1c-0.4,0.2-0.8,0.3-1.4,0.5c1.5-60.9,1.6-121.6,0-182.6c0.6,0.3,1,0.6,1.5,0.8c5.1,3.1,10.3,6.2,15.4,9.2
		c0.5,0.3,1,0.5,1.6,0.5c14.7,0,29.4,0,44.2,0c0.3,0,0.5,0,1.1,0c0.4-13.7,0.8-27.4,1.2-41.2c-0.8,0-1.2,0-1.7,0
		c-20.9,0-41.8,0-62.6,0c-9.1,0-18,1-26.8,3.3c-0.4,0.1-1.1,0-1.4-0.2c-3.3-3.2-6.5-6.5-9.8-9.7c-0.1-0.1-0.1-0.2-0.2-0.4
		c0.6,0,1.1,0,1.6,0c76.2,0,152.5,0,228.7,0c1.2,0,2-0.4,2.8-1.2c5.2-5.2,10.4-10.4,15.6-15.6c0.3-0.3,0.6-0.5,0.9-0.9
		c7.8,8.2,15.6,16.4,23.6,24.8c-35.5,0-70.7,0-106,0c0,13.8,0,27.4,0,41.2c0.5,0,0.9,0,1.3,0c14.1,0,28.2,0,42.2,0
		c0.9,0,1.3-0.3,1.8-1c2.1-3.6,4.3-7.1,6.5-10.8c7.1,4.7,14.1,9.4,21.3,14.2c-2.5,2.2-4.8,4.4-7.3,6.4c-1.6,1.3-2.2,2.6-2.2,4.6
		c0.1,14.7,0,29.4,0.1,44.2c0,15,0.1,29.9,0.2,44.9c0,9.2,0.1,18.4,0.2,27.6c0.2,11.3,0.5,22.6,0.7,33.9c0,0.5,0.1,1.1-0.6,1.4
		C271.8,310.9,266.2,313.2,260.4,315.5z M213.3,150.6c0,0.6,0,1.1,0,1.5c0,10.6,0,21.1,0,31.7c0,1.2-0.1,2.4,0,3.6
		c0.1,3.7,2.1,6.3,5.7,6.9c2.2,0.4,4.5,0.3,6.7,0.2c4.8-0.3,9.5-0.8,13.9-2.7c2.1-0.9,4.1-0.7,5.9,0.6c3.7,2.6,6.3,6.1,7.7,10.3
		c1.2,3.5-1.4,6.8-5.1,6.8c-11.5,0-23,0.1-34.4,0c-2.2,0-4.4-0.4-6.5-1.1c-6.1-2-8.7-6.9-9.2-12.9c-0.3-3,0-6,0-9
		c0-11.5,0-23,0-34.6c0-0.4,0-0.8,0-1.3c-11.9,0-23.5,0-35.3,0c-5,34.6-24.7,58-55.2,72.9c-0.9-0.9-1.6-1.6-2.5-2.4
		c10.9-8.8,20.3-19,27.5-31.1c7.2-12.2,11.6-25.3,13.6-39.3c-15,0-29.8,0-44.6,0c0,29,0,58,0,87c53,0,105.9,0,158.8,0
		c0-29,0-58,0-87C244.6,150.6,229,150.6,213.3,150.6z M260.4,244.9c-53,0-106,0-158.9,0c0,13.7,0,27.3,0,41c53,0,105.9,0,158.9,0
		C260.4,272.2,260.4,258.6,260.4,244.9z M197.8,143.3c0-13.7,0-27.4,0-41c-11,0-21.8,0-32.9,0c-0.4,13.7-0.8,27.3-1.2,41
		C175.2,143.3,186.5,143.3,197.8,143.3z"/>
	<path class="st0" d="M213.3,150.6c15.8,0,31.4,0,47,0c0,29,0,58,0,87c-53,0-105.9,0-158.8,0c0-29,0-57.9,0-87c14.8,0,29.6,0,44.6,0
		c-1.9,14-6.4,27.1-13.6,39.3c-7.2,12.1-16.6,22.4-27.5,31.1c0.8,0.8,1.6,1.6,2.5,2.4c30.5-14.9,50.2-38.3,55.2-72.9
		c11.7,0,23.4,0,35.3,0c0,0.4,0,0.8,0,1.3c0,11.5,0,23,0,34.6c0,3-0.3,6,0,9c0.6,6,3.1,10.9,9.2,12.9c2,0.7,4.3,1,6.5,1.1
		c11.5,0.1,23,0.1,34.4,0c3.8,0,6.3-3.2,5.1-6.8c-1.4-4.2-4-7.7-7.7-10.3c-1.8-1.3-3.8-1.4-5.9-0.6c-4.4,1.9-9.2,2.4-13.9,2.7
		c-2.2,0.1-4.5,0.2-6.7-0.2c-3.7-0.6-5.6-3.2-5.7-6.9c0-1.2,0-2.4,0-3.6c0-10.6,0-21.1,0-31.7C213.3,151.7,213.3,151.2,213.3,150.6z
		"/>
	<path class="st0" d="M260.4,244.9c0,13.7,0,27.3,0,41c-53,0-105.9,0-158.9,0c0-13.6,0-27.3,0-41
		C154.4,244.9,207.3,244.9,260.4,244.9z"/>
	<path class="st0" d="M197.8,143.3c-11.3,0-22.6,0-34.2,0c0.4-13.7,0.8-27.3,1.2-41c11.1,0,22,0,32.9,0
		C197.8,116,197.8,129.6,197.8,143.3z"/>
</g>
</svg>
