<?xml version="1.0" encoding="utf-8"?>
<!-- Generator: Adobe Illustrator 20.1.0, SVG Export Plug-In . SVG Version: 6.00 Build 0)  -->
<svg version="1.1" id="图层_1" xmlns="http://www.w3.org/2000/svg" xmlns:xlink="http://www.w3.org/1999/xlink" x="0px" y="0px"
	 viewBox="0 0 360 360" style="enable-background:new 0 0 360 360;" xml:space="preserve">
<style type="text/css">
	.st0{fill:#FFFFFF;}
</style>
<g>
	<path class="st0" d="M0.2,360.5c0-120.1,0-240.2,0-360.2c120.1,0,240.2,0,360.2,0c0,120.1,0,240.2,0,360.2
		C240.4,360.5,120.3,360.5,0.2,360.5z M163,311c0.2,0,0.3,0,0.4,0c5.2-2.6,10.4-5.2,15.5-7.8c0.3-0.2,0.6-0.7,0.6-1.1
		c0-1.7-0.1-3.4-0.2-5c-0.2-9.5-0.4-18.9-0.5-28.4c-0.1-9-0.2-18.1-0.2-27.1c-0.1-14.2-0.1-28.4-0.2-42.6c0-4.1-0.1-8.2-0.1-12.4
		c0-21,0-42,0-63c0-0.5,0.3-1.1,0.6-1.4c1.5-1.4,3-2.6,4.5-3.9c1-0.9,2-1.7,3.1-2.7c-5.6-4.8-11-9.4-16.5-14.2
		c-2.6,3.3-5.1,6.5-7.5,9.7c-0.5,0.7-1,1-1.9,1c-5.5,0-11,0-16.4,0c-0.4,0-0.8,0-1.1-0.1c0-12.6,0-25,0-37.6c17.6,0,35.2,0,52.9,0
		c-6.4-7.2-12.6-14.2-18.9-21.2c-4.5,4.5-8.8,8.8-13.1,13.2c-0.7,0.8-1.5,1-2.5,1c-38.7,0-77.4,0-116,0c-0.4,0-0.9,0-1.7,0
		c3.6,3.6,6.9,6.9,10.2,10.1c0.3,0.3,1,0.3,1.5,0.3c5.3-0.9,10.6-2.3,15.9-2.6c8.7-0.6,17.4-0.4,26.1-0.6c0.1,0,0.3,0,0.5,0.1
		c0,12.5,0,25,0,37.4c-0.2,0-0.4,0.1-0.5,0.1c-6.2,0-12.5,0-18.7,0c-0.5,0-1.1-0.2-1.6-0.5c-4.8-2.7-9.6-5.5-14.4-8.2
		c-0.4-0.2-0.7-0.4-1.2-0.6c1.5,69.9,1.5,139.7,0,209.6c0.2,0,0.3,0,0.5-0.1c5.1-1.8,10.1-3.6,15.2-5.4c0.8-0.3,0.8-0.8,0.7-1.4
		c0-7.4,0-14.7,0-22.1c0-0.5,0-0.9,0-1.5c28.3,0,56.5,0,84.8,0c0,4.9,0,9.7,0,14.6C163,301.2,163,306.1,163,311z"/>
	<path d="M163,311c0-4.9,0-9.8,0-14.6c0-4.8,0-9.7,0-14.6c-28.3,0-56.5,0-84.8,0c0,0.5,0,1,0,1.5c0,7.4,0,14.7,0,22.1
		c0,0.6,0,1.1-0.7,1.4c-5.1,1.8-10.2,3.6-15.2,5.4c-0.1,0.1-0.3,0.1-0.5,0.1c1.5-69.8,1.5-139.6,0-209.6c0.4,0.2,0.8,0.4,1.2,0.6
		c4.8,2.7,9.6,5.5,14.4,8.2c0.5,0.3,1,0.5,1.6,0.5c6.2,0,12.5,0,18.7,0c0.2,0,0.3,0,0.5-0.1c0-12.5,0-24.9,0-37.4
		c-0.2,0-0.3-0.1-0.5-0.1c-8.7,0.2-17.4,0-26.1,0.6c-5.3,0.3-10.6,1.7-15.9,2.6c-0.5,0.1-1.2,0-1.5-0.3c-3.4-3.3-6.7-6.6-10.2-10.1
		c0.8,0,1.2,0,1.7,0c38.7,0,77.4,0,116,0c1,0,1.8-0.3,2.5-1c4.3-4.4,8.6-8.7,13.1-13.2c6.3,7.1,12.5,14.1,18.9,21.2
		c-17.8,0-35.3,0-52.9,0c0,12.6,0,25,0,37.6c0.4,0,0.7,0.1,1.1,0.1c5.5,0,11,0,16.4,0c0.9,0,1.4-0.3,1.9-1c2.4-3.2,4.9-6.4,7.5-9.7
		c5.5,4.7,11,9.4,16.5,14.2c-1.1,0.9-2.1,1.8-3.1,2.7c-1.5,1.3-3.1,2.6-4.5,3.9c-0.4,0.3-0.6,0.9-0.6,1.4c0,21,0,42,0,63
		c0,4.1,0.1,8.2,0.1,12.4c0.1,14.2,0.1,28.4,0.2,42.6c0,9,0.1,18.1,0.2,27.1c0.1,9.5,0.3,18.9,0.5,28.4c0,1.7,0.2,3.4,0.2,5
		c0,0.4-0.3,1-0.6,1.1c-5.2,2.6-10.3,5.2-15.5,7.8C163.3,311,163.2,311,163,311z M162.9,196.8c-0.5,0-1,0-1.4,0
		c-5.2,0-10.3,0-15.5,0c-1.9,0-3.8-0.2-5.6-0.5c-6.6-1.2-10.4-5-11.4-11.5c-0.3-2.1-0.2-4.4-0.2-6.6c0-19.2,0-38.5,0-57.7
		c0-0.4,0-0.9,0-1.3c-5.6,0-11,0-16.4,0c0,0.3,0,0.6-0.1,0.8c-0.3,6.4-0.5,12.8-1,19.1c-0.8,9.3-2.6,18.5-5.5,27.4
		c-5.2,15.8-13.5,29.3-27,39.4c-0.3,0.2-0.5,0.8-0.6,1.2c0,5,0,10,0,15c0,0.2,0,0.4,0.1,0.6c28.3,0,56.4,0,84.6,0
		C162.9,214.1,162.9,205.5,162.9,196.8z M162.9,230c-28.3,0-56.5,0-84.6,0c0,14.9,0,29.7,0,44.5c28.3,0,56.4,0,84.6,0
		C162.9,259.6,162.9,244.8,162.9,230z M162.9,119.2c-6.7,0-13.3,0-19.9,0c0,0.4,0,0.8,0,1.1c0,17.6,0,35.3,0,52.9
		c0,1.2,0.1,2.5,0.3,3.7c0.7,4.6,3.5,6.9,8.1,6.9c3.4,0,6.8,0,10.2,0c0.4,0,0.8,0,1.3,0C162.9,162.2,162.9,140.7,162.9,119.2z
		 M78.3,199c3.1-3.8,5.6-7.6,7.6-11.7c6.4-12.7,9.3-26.3,10.8-40.3c0.7-6.2,1-12.3,1.3-18.5c0.2-3.1,0-6.2,0-9.4
		c-6.6,0-13.1,0-19.8,0C78.3,145.7,78.3,172.2,78.3,199z M112.4,74.4c0,12.5,0,25,0,37.5c5.5,0,10.9,0,16.3,0c0-12.5,0-25,0-37.5
		C123.3,74.4,117.9,74.4,112.4,74.4z"/>
	<path class="st0" d="M162.9,196.8c0,8.7,0,17.2,0,25.8c-28.2,0-56.4,0-84.6,0c0-0.2-0.1-0.4-0.1-0.6c0-5,0-10,0-15
		c0-0.4,0.2-1,0.6-1.2c13.5-10,21.9-23.6,27-39.4c2.9-8.9,4.7-18.1,5.5-27.4c0.5-6.4,0.7-12.8,1-19.1c0-0.2,0-0.5,0.1-0.8
		c5.4,0,10.9,0,16.4,0c0,0.5,0,0.9,0,1.3c0,19.2,0,38.5,0,57.7c0,2.2-0.2,4.4,0.2,6.6c1,6.5,4.9,10.3,11.4,11.5
		c1.8,0.3,3.7,0.5,5.6,0.5c5.2,0.1,10.3,0,15.5,0C162,196.8,162.4,196.8,162.9,196.8z"/>
	<path class="st0" d="M162.9,230c0,14.9,0,29.7,0,44.5c-28.2,0-56.4,0-84.6,0c0-14.8,0-29.6,0-44.5C106.5,230,134.6,230,162.9,230z"
		/>
	<path class="st0" d="M162.9,119.2c0,21.6,0,43,0,64.7c-0.4,0-0.9,0-1.3,0c-3.4,0-6.8,0-10.2,0c-4.6,0-7.4-2.3-8.1-6.9
		c-0.2-1.2-0.3-2.5-0.3-3.7c0-17.6,0-35.3,0-52.9c0-0.4,0-0.7,0-1.1C149.7,119.2,156.2,119.2,162.9,119.2z"/>
	<path class="st0" d="M78.3,199c0-26.8,0-53.3,0-79.9c6.6,0,13.2,0,19.8,0c0,3.2,0.1,6.3,0,9.4c-0.3,6.2-0.7,12.4-1.3,18.5
		c-1.5,14-4.4,27.6-10.8,40.3C83.9,191.4,81.4,195.3,78.3,199z"/>
	<path class="st0" d="M112.4,74.4c5.5,0,10.9,0,16.3,0c0,12.5,0,24.9,0,37.5c-5.5,0-10.9,0-16.3,0C112.4,99.4,112.4,87,112.4,74.4z"
		/>
</g>
</svg>
