<?xml version="1.0" encoding="utf-8"?>
<!-- Generator: Adobe Illustrator 20.1.0, SVG Export Plug-In . SVG Version: 6.00 Build 0)  -->
<svg version="1.1" id="图层_1" xmlns="http://www.w3.org/2000/svg" xmlns:xlink="http://www.w3.org/1999/xlink" x="0px" y="0px"
	 viewBox="0 0 360 360" style="enable-background:new 0 0 360 360;" xml:space="preserve">
<style type="text/css">
	.st0{fill:#FFFFFF;}
</style>
<g>
	<path class="st0" d="M-0.1,360.1c0-120.1,0-240.2,0-360.2c120.1,0,240.2,0,360.2,0c0,120.1,0,240.2,0,360.2
		C240,360.1,120,360.1-0.1,360.1z M279.3,279c0,10.2,0,20.3,0,30.6c0.6-0.3,1-0.4,1.4-0.6c4.6-2.3,9.2-4.6,13.8-6.9
		c1-0.5,1.3-1,1.3-2.1c-0.3-9.1-0.5-18.3-0.7-27.4c-0.1-8.4-0.2-16.8-0.2-25.2c-0.1-17.4-0.2-34.7-0.2-52.1c0-22.8,0-45.5-0.1-68.3
		c0-0.9,0.3-1.4,1-1.8c3.2-2.1,6.4-4.2,9.5-6.3c-5.5-5.5-11-11-16.5-16.5c-3.1,3.1-6.4,6.3-9.6,9.6c-0.6,0.6-1.2,0.9-2.1,0.9
		c-10.1,0-20.2,0-30.4,0c-0.4,0-0.9,0-1.3-0.1c0-13.7,0-27.4,0-41.2c24.7,0,49.3,0,74.1,0c-6.8-7.2-13.4-14.2-20-21.2
		c-0.3,0.3-0.6,0.6-0.9,0.9c-4,4-8.1,8.1-12.1,12.2c-0.8,0.8-1.6,1.1-2.7,1.1c-54.7,0-109.4,0-164,0c-0.5,0-1,0-1.7,0
		c0.4,0.5,0.7,0.8,0.9,1c3,3,6,5.9,8.9,8.9c0.6,0.6,1.1,0.7,1.9,0.5c7.6-2,15.4-3.1,23.3-3.2c12.8-0.1,25.5-0.1,38.3-0.1
		c0.3,0,0.6,0.1,0.9,0.1c0,13.7,0,27.3,0,41c-0.4,0-0.7,0.1-1,0.1c-11.1,0-22.2,0-33.4,0c-0.6,0-1.2-0.2-1.7-0.5
		c-4.8-2.7-9.6-5.5-14.4-8.2c-0.4-0.2-0.8-0.4-1.3-0.7c1.7,70,1.4,139.8,0,209.7c0.3-0.1,0.5-0.2,0.6-0.3c5.1-2.5,10.1-5.1,15.2-7.6
		c0.7-0.3,0.7-0.8,0.7-1.4c0-7.8,0-15.6,0-23.4c0-0.5,0-0.9,0-1.4C197.7,279,238.4,279,279.3,279z"/>
	<path d="M279.3,279c-40.9,0-81.6,0-122.5,0c0,0.5,0,1,0,1.4c0,7.8,0,15.6,0,23.4c0,0.6,0,1.1-0.7,1.4c-5.1,2.5-10.2,5.1-15.2,7.6
		c-0.1,0.1-0.3,0.1-0.6,0.3c1.4-69.9,1.7-139.7,0-209.7c0.6,0.3,0.9,0.5,1.3,0.7c4.8,2.7,9.6,5.5,14.4,8.2c0.5,0.3,1.1,0.5,1.7,0.5
		c11.1,0,22.2,0,33.4,0c0.3,0,0.6,0,1-0.1c0-13.7,0-27.3,0-41c-0.3,0-0.6-0.1-0.9-0.1c-12.8,0-25.5-0.1-38.3,0.1
		c-7.9,0.1-15.7,1.2-23.3,3.2c-0.8,0.2-1.3,0.1-1.9-0.5c-2.9-3-5.9-6-8.9-8.9c-0.2-0.2-0.5-0.5-0.9-1c0.7,0,1.2,0,1.7,0
		c54.7,0,109.4,0,164,0c1.1,0,1.9-0.3,2.7-1.1c4-4.1,8.1-8.1,12.1-12.2c0.3-0.3,0.6-0.5,0.9-0.9c6.7,7,13.3,14,20,21.2
		c-24.8,0-49.4,0-74.1,0c0,13.8,0,27.4,0,41.2c0.4,0,0.9,0.1,1.3,0.1c10.1,0,20.2,0,30.4,0c0.9,0,1.5-0.3,2.1-0.9
		c3.2-3.2,6.4-6.5,9.6-9.6c5.5,5.5,11,11,16.5,16.5c-3.1,2.1-6.3,4.2-9.5,6.3c-0.7,0.5-1,1-1,1.8c0,22.8,0,45.5,0.1,68.3
		c0,17.4,0.1,34.7,0.2,52.1c0,8.4,0.1,16.8,0.2,25.2c0.2,9.1,0.4,18.3,0.7,27.4c0,1.1-0.3,1.6-1.3,2.1c-4.6,2.3-9.2,4.6-13.8,6.9
		c-0.4,0.2-0.9,0.4-1.4,0.6C279.3,299.3,279.3,289.2,279.3,279z M206.3,120c0,0.4,0,0.8,0,1.1c-0.1,6,0,12.1-0.3,18.1
		c-0.5,9.6-2.5,19-5.7,28.1c-6.1,17.3-16.5,31.4-30.9,42.7c-2.9,2.3-6,4.4-9.1,6.6c-0.9-1.3-1.7-2.5-2.5-3.7
		c0.4-0.4,0.8-0.7,1.1-1.1c3.1-3.3,6.4-6.4,9.2-9.9c12.1-14.9,18.6-32.1,21.8-50.9c1.5-9,2.1-18,2.2-27.1c0-1.3,0-2.7,0-4.1
		c-11.9,0-23.5,0-35.2,0c0,35.3,0,70.6,0,105.8c40.8,0,81.6,0,122.2,0c0-9.4,0-18.8,0-28.1c-0.5,0-1,0-1.4,0c-7.6,0-15.3,0-22.9,0
		c-2.2,0-4.5-0.2-6.7-0.5c-7.4-1.3-12.8-5.2-15.4-12.4c-1.3-3.5-1.8-7.2-1.8-11c0-17.4,0-34.8,0-52.2c0-0.5,0-1,0-1.6
		C222.7,120,214.6,120,206.3,120z M279.2,233.1c-40.8,0-81.5,0-122.3,0c0,12.9,0,25.8,0,38.6c40.8,0,81.5,0,122.3,0
		C279.2,258.9,279.2,246.1,279.2,233.1z M245.2,120c0,0.4-0.1,0.7-0.1,1c0,16.9,0,33.8,0.1,50.6c0,5.3,1.9,9.7,6.9,12.3
		c2.7,1.4,5.7,1.9,8.7,1.9c5.8,0.1,11.5,0,17.3,0c0.4,0,0.8,0,1.1,0c0-22.1,0-43.9,0-65.9C267.9,120,256.6,120,245.2,120z
		 M230.9,112.7c0-13.7,0-27.4,0-41c-8.2,0-16.4,0-24.5,0c0,13.7,0,27.3,0,41C214.5,112.7,222.7,112.7,230.9,112.7z"/>
	<path class="st0" d="M206.3,120c8.3,0,16.4,0,24.7,0c0,0.6,0,1.1,0,1.6c0,17.4,0,34.8,0,52.2c0,3.7,0.5,7.4,1.8,11
		c2.6,7.2,8,11.2,15.4,12.4c2.2,0.4,4.5,0.5,6.7,0.5c7.6,0.1,15.3,0,22.9,0c0.4,0,0.9,0,1.4,0c0,9.4,0,18.7,0,28.1
		c-40.7,0-81.4,0-122.2,0c0-35.3,0-70.5,0-105.8c11.7,0,23.4,0,35.2,0c0,1.4,0,2.7,0,4.1c-0.1,9.1-0.7,18.1-2.2,27.1
		c-3.1,18.7-9.7,36-21.8,50.9c-2.8,3.5-6.1,6.6-9.2,9.9c-0.3,0.3-0.7,0.7-1.1,1.1c0.8,1.2,1.6,2.3,2.5,3.7c3.1-2.2,6.1-4.3,9.1-6.6
		c14.4-11.3,24.8-25.4,30.9-42.7c3.2-9.1,5.2-18.5,5.7-28.1c0.3-6,0.2-12.1,0.3-18.1C206.3,120.8,206.3,120.4,206.3,120z"/>
	<path class="st0" d="M279.2,233.1c0,12.9,0,25.8,0,38.6c-40.8,0-81.5,0-122.3,0c0-12.8,0-25.7,0-38.6
		C197.6,233.1,238.4,233.1,279.2,233.1z"/>
	<path class="st0" d="M245.2,120c11.4,0,22.7,0,34,0c0,21.9,0,43.8,0,65.9c-0.4,0-0.8,0-1.1,0c-5.8,0-11.5,0-17.3,0
		c-3,0-6-0.5-8.7-1.9c-5-2.6-6.8-7-6.9-12.3c-0.1-16.9-0.1-33.8-0.1-50.6C245.1,120.7,245.2,120.4,245.2,120z"/>
	<path class="st0" d="M230.9,112.7c-8.2,0-16.3,0-24.5,0c0-13.7,0-27.3,0-41c8.1,0,16.3,0,24.5,0C230.9,85.3,230.9,99,230.9,112.7z"
		/>
</g>
</svg>
