<?xml version="1.0" encoding="utf-8"?>
<!-- Generator: Adobe Illustrator 20.1.0, SVG Export Plug-In . SVG Version: 6.00 Build 0)  -->
<svg version="1.1" id="图层_1" xmlns="http://www.w3.org/2000/svg" xmlns:xlink="http://www.w3.org/1999/xlink" x="0px" y="0px"
	 viewBox="0 0 360 360" style="enable-background:new 0 0 360 360;" xml:space="preserve">
<style type="text/css">
	.st0{fill:#FFFFFF;}
</style>
<g>
	<path class="st0" d="M-0.1,360.1c0-120.1,0-240.2,0-360.2c120.1,0,240.2,0,360.2,0c0,120.1,0,240.2,0,360.2
		C240,360.1,120,360.1-0.1,360.1z M87.2,288.4c0,1.2,0.1,2.4,0,3.5c-0.1,0.9,0.2,1.3,1.1,1.6c7,2.1,13.7,4.7,19.6,9.1
		c4.5,3.3,8,7.4,9.4,12.9c0.2,0.8,0.4,1.5,0.6,2.3c0.3-0.1,0.4-0.1,0.6-0.1c1.5-0.6,2.9-1.1,4.4-1.7c9.6-4,18.1-9.5,24.7-17.7
		c5.4-6.7,8.8-14.5,11-22.7c4.1-14.9,5.1-30,3.7-45.4c-1-10.9-3.6-21.3-7.9-31.4c-6.6-15.4-15.6-29.4-25.9-42.5
		c-1.8-2.3-3.7-4.6-5.6-6.9c0.4-0.2,0.7-0.4,1-0.6c15.8-9.4,31.6-18.8,47.4-28.2c0.7-0.4,1.4-0.7,2.2-0.9c1.5-0.3,3-0.5,4.5-0.8
		c2.4-0.4,4.8-0.9,7.3-1.4c-5.2-6.4-10.3-12.6-15.4-18.9c-0.6,0.6-1.1,1.1-1.6,1.6c-9.8,10.1-20.8,18.8-32.4,26.8
		c-25.5,17.7-52.7,32.3-81,44.9c-2.5,1.1-5,2.2-7.6,3.3c0.6,1.1,1.1,2.2,1.6,3.2c1,2,0.6,1.6,2.4,1.1c20.1-6.3,39.5-14.3,58.5-23.2
		c2.3-1.1,4.7-2.2,7.1-3.4c2.2,3.1,4.3,6.2,6.4,9.2c0.6,0.8,1.1,1.7,1.7,2.5c-21.9,26.1-49,45.5-78.8,61.2c0.1,0.2,0.1,0.3,0.1,0.4
		c0.5,0.7,1,1.4,1.4,2.2c0.5,0.9,0.9,1,1.9,0.7c28.2-9.6,53.2-24.5,75.5-44c2.3-2,4.6-4.1,7-6.3c0.5,0.9,1,1.6,1.5,2.4
		c2.7,5.2,4.5,10.7,6.3,16.3c0.3,0.9,0.2,1.5-0.5,2.2c-11.9,13.8-24.9,26.5-39.1,38c-15.3,12.4-31.7,23-49.4,31.7
		c-2.4,1.2-4.8,2.3-7.3,3.5c0.8,1.6,1.6,3.2,2.4,4.7c38.5-12.1,71.2-33.1,98.8-62.3c0.1,0.3,0.2,0.4,0.2,0.6
		c1.1,8.6,1.9,17.3,1.8,26.1c-0.1,9.9-1.2,19.6-4.4,29c-2,5.8-4.2,11.4-7.9,16.3c-2.9,3.8-6.6,5.9-11.6,5.8
		c-8.3-0.2-16.5-1.5-24.7-2.9C94.5,289.8,90.9,289,87.2,288.4z M80.1,97.6c0.2,0.5,0.4,0.9,0.6,1.4c4.7,10.6,6.5,21.8,7.7,33.1
		c0.3,2.9,0.5,5.8,1,8.7c0.5,2.8,2.5,3.8,5.2,2.8c6.9-2.7,10.9-8.8,10.2-16.7c-0.3-3-1.7-5.7-3.2-8.3c-4.1-6.9-9.3-12.9-14.6-18.8
		c-1-1.1-2-2.2-3.2-3.5c11.8-5.1,23.5-10.2,35.3-15.3c1.5,2.4,2.9,4.6,4.3,6.9c4,6.7,7.5,13.7,9.4,21.3c0.5,2.1,0.9,4.2,1.7,6.2
		c1.3,3.2,3.5,3.8,6.2,1.6c2.9-2.4,5.2-5.3,6.4-8.9c1-3,0.9-6-0.6-8.7c-1-1.8-2.2-3.6-3.6-5.2c-4.3-4.9-9.6-8.7-15-12.2
		c-1.7-1.1-3.4-2.2-5.2-3.3c0.3-0.2,0.6-0.4,0.8-0.5c8.3-4.7,16.7-9.3,25-14c2.4-1.4,4.8-2.4,7.5-2.9c2.2-0.4,4.3-0.9,6.6-1.5
		c-6-5.6-11.9-11.1-17.6-16.4c-2.9,2.9-5.6,6-8.6,8.7c-11.1,10.3-23.3,19-36.3,26.6c-16.1,9.6-33.2,17.2-50.6,24.1
		c-0.5,0.2-0.9,0.4-1.4,0.6c0.2,0.9,0.4,1.7,0.6,2.5c0.2,0.8,0.4,1.5,0.6,2.3C60,105.2,70.3,102.2,80.1,97.6z"/>
	<path d="M87.2,288.4c3.7,0.7,7.3,1.4,10.9,2c8.2,1.4,16.4,2.7,24.7,2.9c5,0.1,8.7-2,11.6-5.8c3.7-4.9,6-10.5,7.9-16.3
		c3.2-9.4,4.3-19.1,4.4-29c0.1-8.7-0.6-17.4-1.8-26.1c0-0.1-0.1-0.2-0.2-0.6c-27.7,29.2-60.3,50.2-98.8,62.3
		c-0.8-1.5-1.6-3.1-2.4-4.7c2.5-1.2,4.9-2.3,7.3-3.5c17.7-8.7,34.1-19.4,49.4-31.7c14.2-11.5,27.1-24.2,39.1-38
		c0.6-0.7,0.8-1.3,0.5-2.2c-1.8-5.5-3.6-11.1-6.3-16.3c-0.4-0.8-0.9-1.6-1.5-2.4c-2.4,2.1-4.7,4.2-7,6.3
		c-22.4,19.5-47.4,34.4-75.5,44c-1,0.3-1.4,0.2-1.9-0.7c-0.4-0.8-1-1.5-1.4-2.2c0-0.1,0-0.1-0.1-0.4c29.8-15.7,56.9-35.1,78.8-61.2
		c-0.6-0.9-1.1-1.7-1.7-2.5c-2.1-3-4.3-6.1-6.4-9.2c-2.4,1.1-4.7,2.3-7.1,3.4c-19,8.9-38.4,16.9-58.5,23.2c-1.8,0.6-1.4,0.9-2.4-1.1
		c-0.5-1-1-2.1-1.6-3.2c2.6-1.1,5.1-2.2,7.6-3.3c28.3-12.5,55.5-27.2,81-44.9c11.5-8,22.5-16.7,32.4-26.8c0.5-0.5,1-1,1.6-1.6
		c5.1,6.3,10.2,12.5,15.4,18.9c-2.6,0.5-5,0.9-7.3,1.4c-1.5,0.3-3,0.5-4.5,0.8c-0.8,0.2-1.5,0.5-2.2,0.9
		c-15.8,9.4-31.6,18.8-47.4,28.2c-0.3,0.2-0.6,0.4-1,0.6c1.9,2.3,3.8,4.6,5.6,6.9c10.4,13.1,19.4,27.1,25.9,42.5
		c4.3,10,6.9,20.5,7.9,31.4c1.5,15.3,0.4,30.5-3.7,45.4c-2.3,8.2-5.6,16-11,22.7c-6.6,8.2-15.1,13.7-24.7,17.7
		c-1.4,0.6-2.9,1.1-4.4,1.7c-0.1,0.1-0.3,0.1-0.6,0.1c-0.2-0.8-0.4-1.6-0.6-2.3c-1.5-5.5-5-9.6-9.4-12.9c-5.9-4.4-12.6-7-19.6-9.1
		c-0.9-0.3-1.2-0.6-1.1-1.6C87.3,290.8,87.2,289.6,87.2,288.4z"/>
	<path d="M80.1,97.6c-9.8,4.6-20.1,7.5-30.6,10.5c-0.2-0.8-0.4-1.5-0.6-2.3c-0.2-0.8-0.4-1.5-0.6-2.5c0.5-0.2,0.9-0.4,1.4-0.6
		c17.4-6.9,34.4-14.5,50.6-24.1c13-7.7,25.2-16.4,36.3-26.6c3-2.7,5.7-5.7,8.6-8.7c5.7,5.4,11.6,10.8,17.6,16.4
		c-2.3,0.5-4.5,1.1-6.6,1.5c-2.7,0.5-5.1,1.5-7.5,2.9c-8.3,4.7-16.6,9.3-25,14c-0.2,0.1-0.5,0.3-0.8,0.5c1.8,1.1,3.5,2.2,5.2,3.3
		c5.4,3.6,10.7,7.3,15,12.2c1.4,1.6,2.6,3.4,3.6,5.2c1.5,2.8,1.6,5.8,0.6,8.7c-1.2,3.6-3.5,6.6-6.4,8.9c-2.7,2.2-4.9,1.6-6.2-1.6
		c-0.8-2-1.2-4.1-1.7-6.2c-1.9-7.6-5.4-14.6-9.4-21.3c-1.4-2.3-2.8-4.5-4.3-6.9c-11.8,5.1-23.4,10.2-35.3,15.3
		c1.1,1.2,2.2,2.3,3.2,3.5c5.3,5.9,10.6,11.9,14.6,18.8c1.5,2.6,2.9,5.3,3.2,8.3c0.8,7.9-3.3,14-10.2,16.7c-2.7,1.1-4.7,0.1-5.2-2.8
		c-0.5-2.9-0.7-5.8-1-8.7c-1.2-11.4-3-22.6-7.7-33.1C80.6,98.6,80.4,98.1,80.1,97.6z"/>
</g>
</svg>
