<?xml version="1.0" encoding="utf-8"?>
<!-- Generator: Adobe Illustrator 20.1.0, SVG Export Plug-In . SVG Version: 6.00 Build 0)  -->
<svg version="1.1" id="图层_1" xmlns="http://www.w3.org/2000/svg" xmlns:xlink="http://www.w3.org/1999/xlink" x="0px" y="0px"
	 viewBox="0 0 360 360" style="enable-background:new 0 0 360 360;" xml:space="preserve">
<style type="text/css">
	.st0{fill:#FFFFFF;}
</style>
<g>
	<path class="st0" d="M-0.1,360.1c0-120.1,0-240.2,0-360.2c120.1,0,240.2,0,360.2,0c0,120.1,0,240.2,0,360.2
		C240,360.1,120,360.1-0.1,360.1z M318.1,288.4c-0.5,0-1,0-1.4,0c-12.1,0.8-24.2,1.8-36.4,2.3c-15.4,0.7-30.8,1.2-46.3,1.5
		c-17,0.3-33.9-0.3-50.8-1.9c-10.1-1-20.2-2.2-30.1-4.6c-5.8-1.4-11.4-3.1-16.6-6.1c-0.8-0.5-1.2-1-1.2-2c0-18,0-35.9,0-53.9
		c0-0.4,0-0.8,0.1-1.4c19.2,0,38.3,0,57.7,0c-6.4-6.8-12.6-13.4-19.1-20.3c-0.3,0.4-0.5,0.8-0.8,1.2c-3.7,3.7-7.5,7.5-11.2,11.2
		c-0.6,0.6-1.2,0.8-2,0.8c-7.8,0-15.6,0-23.4,0c-0.4,0-0.8-0.1-1.3-0.1c0-0.6,0-1.1,0-1.6c0-11.1,0-22.2,0-33.2
		c0-1.1,0.3-1.8,1.2-2.6c3.2-2.7,6.3-5.6,9.5-8.5c-6.9-3.5-13.8-6.9-20.6-10.3c0-0.1,0-0.2,0.1-0.3c23.6,0,47.3,0,71.2,0
		c-6.4-6.8-12.6-13.4-18.9-20.1c-0.4,0.4-0.7,0.7-1,1c-3.7,3.7-7.5,7.5-11.2,11.2c-0.5,0.4-1.2,0.8-1.8,0.8c-11,0-21.9,0-32.9,0
		c-0.4,0-0.8,0-1.3-0.1c0-17.3,0-34.4,0-51.7c18,0,35.9,0,54.2,0c-6.5-6.9-12.7-13.5-19-20.1c-4.1,4.1-8.2,8.2-12.2,12.2
		c-0.4,0.4-1.2,0.7-1.7,0.7c-6.7,0.1-13.4,0-20.2,0c-0.3,0-0.7,0-1.2-0.1c0-0.5,0-1,0-1.5c0-9.2,0.1-18.3-0.1-27.5
		c-0.1-2.9,0.7-4.8,3.2-6.3c2.2-1.3,4.1-3,6.3-4.7c-8.7-4.4-17.3-8.6-25.8-12.9c0.4,17.7,0.8,35.2,1.2,52.9c-18.7,0-37,0-55.4,0
		c0.1,0.2,0.2,0.4,0.2,0.4c3.2,3.3,6.5,6.5,9.8,9.7c0.3,0.3,1,0.3,1.5,0.2c6.3-1.6,12.8-2.7,19.3-2.9c7.9-0.2,15.8-0.2,23.6-0.3
		c0.3,0,0.5,0.1,0.8,0.1c0,17.2,0,34.4,0,51.7c-20.8,0-41.4,0-62.4,0c3.4,3.4,6.6,6.6,9.8,9.8c0.6,0.6,1.2,0.7,2,0.5
		c8.2-2.2,16.5-3.2,24.9-3.2c10.1-0.1,20.2,0,30.2,0c0.4,0,0.9,0,1.3,0c0,37.3,0,74.4,0,111.7c-0.4-0.2-0.7-0.4-1-0.6
		c-11.3-7.6-22-16.1-32-25.4c-0.7-0.7-1-1.3-0.8-2.3c2.4-12.4,4.9-24.8,7.2-37.2c0.5-2.8,1.5-4.9,3.8-6.5c2-1.4,3.7-3.2,5.5-4.8
		c0.3-0.3,0.6-0.5,0.9-0.9c-8.7-3.9-17.2-7.8-25.9-11.8c-0.1,0.7-0.1,1.1-0.2,1.6c-0.8,8.5-1.4,17.1-2.3,25.6
		c-1.5,13.6-3.7,27.1-6.4,40.5c-4.5,22.6-13,43.6-25.7,62.9c-0.3,0.5-0.6,0.9-0.9,1.4c0.8,0.8,1.6,1.6,2.4,2.4
		c19.5-18.7,32.9-40.9,40-67.1c0.5,0.6,0.8,1,1.1,1.4c7.6,10.2,15.9,19.7,25.4,28.2c12.8,11.4,27.4,19.1,44.1,23
		c14,3.3,28.2,5.2,42.6,5.9c16.6,0.8,33.1,1.4,49.7,1.7c16,0.2,32-0.1,48-0.2c0.9,0,1.3-0.2,1.5-1.1c0.1-0.7,0.4-1.5,0.7-2.2
		c2-5.1,5.8-8.3,10.6-10.3c3.1-1.3,6.3-2.2,9.6-3.2C318.1,290.8,318.1,289.6,318.1,288.4z"/>
	<path d="M318.1,288.4c0,1.2,0,2.3,0,3.2c-3.3,1.1-6.5,2-9.6,3.2c-4.8,2-8.7,5.2-10.6,10.3c-0.3,0.7-0.5,1.4-0.7,2.2
		c-0.1,0.9-0.6,1.1-1.5,1.1c-16,0.1-32,0.4-48,0.2c-16.6-0.2-33.2-0.9-49.7-1.7c-14.3-0.7-28.6-2.6-42.6-5.9
		c-16.7-3.9-31.4-11.6-44.1-23c-9.5-8.5-17.8-18-25.4-28.2c-0.3-0.4-0.6-0.8-1.1-1.4c-7.2,26.1-20.6,48.4-40,67.1
		c-0.8-0.8-1.5-1.6-2.4-2.4c0.3-0.5,0.6-0.9,0.9-1.4C56,292.4,64.5,271.4,69,248.7c2.7-13.4,4.9-26.9,6.4-40.5
		c0.9-8.5,1.5-17,2.3-25.6c0-0.5,0.1-0.9,0.2-1.6c8.7,4,17.3,7.8,25.9,11.8c-0.4,0.3-0.6,0.6-0.9,0.9c-1.8,1.6-3.6,3.4-5.5,4.8
		c-2.3,1.7-3.3,3.8-3.8,6.5c-2.3,12.4-4.7,24.8-7.2,37.2c-0.2,1,0,1.6,0.8,2.3c10.1,9.2,20.7,17.7,32,25.4c0.3,0.2,0.6,0.4,1,0.6
		c0-37.3,0-74.4,0-111.7c-0.5,0-0.9,0-1.3,0c-10.1,0-20.2-0.1-30.2,0c-8.4,0.1-16.7,1.1-24.9,3.2c-0.8,0.2-1.4,0.1-2-0.5
		c-3.2-3.2-6.4-6.4-9.8-9.8c21,0,41.6,0,62.4,0c0-17.3,0-34.5,0-51.7c-0.2,0-0.5-0.1-0.8-0.1c-7.9,0.1-15.8,0-23.6,0.3
		c-6.5,0.2-12.9,1.4-19.3,2.9c-0.5,0.1-1.2,0.1-1.5-0.2c-3.3-3.2-6.5-6.5-9.8-9.7c-0.1-0.1-0.1-0.2-0.2-0.4c18.4,0,36.8,0,55.4,0
		c-0.4-17.7-0.8-35.2-1.2-52.9c8.5,4.3,17.1,8.5,25.8,12.9c-2.2,1.6-4.1,3.4-6.3,4.7c-2.5,1.5-3.3,3.4-3.2,6.3
		c0.2,9.2,0.1,18.3,0.1,27.5c0,0.5,0,0.9,0,1.5c0.5,0,0.8,0.1,1.2,0.1c6.7,0,13.4,0,20.2,0c0.6,0,1.3-0.3,1.7-0.7
		c4.1-4,8.1-8.1,12.2-12.2c6.3,6.7,12.5,13.3,19,20.1c-18.3,0-36.2,0-54.2,0c0,17.3,0,34.4,0,51.7c0.4,0,0.8,0.1,1.3,0.1
		c11,0,21.9,0,32.9,0c0.6,0,1.4-0.3,1.8-0.8c3.8-3.7,7.5-7.4,11.2-11.2c0.3-0.3,0.6-0.6,1-1c6.3,6.6,12.5,13.2,18.9,20.1
		c-23.9,0-47.5,0-71.2,0c0,0.1,0,0.2-0.1,0.3c6.8,3.4,13.6,6.8,20.6,10.3c-3.3,2.9-6.4,5.7-9.5,8.5c-0.8,0.7-1.2,1.4-1.2,2.6
		c0,11.1,0,22.2,0,33.2c0,0.5,0,0.9,0,1.6c0.5,0,0.9,0.1,1.3,0.1c7.8,0,15.6,0,23.4,0c0.8,0,1.4-0.2,2-0.8
		c3.7-3.8,7.5-7.5,11.2-11.2c0.3-0.3,0.5-0.7,0.8-1.2c6.5,6.9,12.7,13.5,19.1,20.3c-19.4,0-38.5,0-57.7,0c0,0.5-0.1,1-0.1,1.4
		c0,18,0,35.9,0,53.9c0,1,0.3,1.5,1.2,2c5.2,3,10.8,4.7,16.6,6.1c9.9,2.4,20,3.6,30.1,4.6c16.9,1.6,33.8,2.2,50.8,1.9
		c15.4-0.3,30.8-0.8,46.3-1.5c12.1-0.5,24.2-1.5,36.4-2.3C317.1,288.4,317.6,288.4,318.1,288.4z"/>
</g>
</svg>
