<?xml version="1.0" encoding="utf-8"?>
<!-- Generator: Adobe Illustrator 20.1.0, SVG Export Plug-In . SVG Version: 6.00 Build 0)  -->
<svg version="1.1" id="图层_1" xmlns="http://www.w3.org/2000/svg" xmlns:xlink="http://www.w3.org/1999/xlink" x="0px" y="0px"
	 viewBox="0 0 360 360" style="enable-background:new 0 0 360 360;" xml:space="preserve">
<style type="text/css">
	.st0{fill:#FFFFFF;}
</style>
<g>
	<path class="st0" d="M-0.1,360.1c0-120.1,0-240.2,0-360.2c120.1,0,240.2,0,360.2,0c0,120.1,0,240.2,0,360.2
		C240,360.1,120,360.1-0.1,360.1z M319.3,287.2c-40.7,4.7-81.5,5.5-122.4,2.4c0-14.5,0-29,0-43.5c32.2,0,64.2,0,96.6,0
		c-6.8-7.6-13.4-15-20.1-22.4c-0.3,0.3-0.5,0.5-0.7,0.6c-5,4.6-10,9.2-14.9,13.9c-0.6,0.6-1.3,0.8-2.1,0.8c-19.1,0-38.2,0-57.4,0
		c-0.4,0-0.9,0-1.4,0c0-11,0-21.9,0-32.9c15.7,0,31.3,0,47.1,0c0,2.7,0,5.4,0,8.2c5.4-1.9,10.7-3.8,15.9-5.7
		c0.3-0.1,0.5-0.7,0.5-1.1c-0.1-2.4-0.3-4.9-0.3-7.3c-0.3-10.5-0.5-21.1-0.8-31.6c0-0.9,0.2-1.5,1-2c1.2-0.7,2.3-1.5,3.5-2.3
		c2-1.3,4-2.6,6.1-4.1c-6-4.8-11.8-9.5-17.7-14.2c-0.4,0.4-0.7,0.7-1,1c-2.6,2.9-5.2,5.8-7.7,8.7c-0.5,0.6-1.1,0.9-1.9,0.9
		c-38.5,0-77,0-115.6,0c-0.7,0-1.4-0.2-2.1-0.4c-4.8-2-9.6-4.1-14.3-6.1c-0.4-0.2-0.7-0.3-1.2-0.5c1.7,24,1.3,47.9,0,71.8
		c0.2,0,0.4,0,0.5-0.1c5.1-1.8,10.1-3.6,15.2-5.4c0.6-0.2,0.8-0.6,0.7-1.1c0-1.8,0-3.7,0-5.5c0-1,0-2,0-2.9c18.9,0,37.7,0,56.4,0
		c0,27.1,0,54,0,81.1c-21.7-4.3-40.1-14.7-56.2-29.3c2.6-4.9,5.1-9.7,7.6-14.4c0.3-0.6,0.9-1.1,1.5-1.4c3.2-1.3,6.4-2.6,9.6-3.9
		c0.3-0.1,0.7-0.3,1.2-0.5c-8-5.6-15.8-11-23.6-16.5c-0.1,0.4-0.3,0.7-0.4,1c-4,12.5-8.7,24.8-14.7,36.5
		C95.9,279,81.1,295.4,62,307.9c-2.1,1.4-4.3,2.7-6.6,4.1c0.4,1.2,0.8,2.3,1.2,3.5c28-9.3,49.7-26.4,64.8-51.7
		c0.3,0.2,0.4,0.4,0.6,0.5c8.4,8.9,17.6,16.8,27.9,23.5c16,10.4,33.5,16.8,52.5,18.5c11.5,1,23,1.4,34.5,2c10.7,0.5,21.3,0.8,32,1
		c9.4,0.2,18.9,0.2,28.3,0.4c0.6,0,1,0,1.3-0.7c3-8.4,9-13.4,17.4-16c1.2-0.4,2.3-0.7,3.5-1C319.3,290.3,319.3,288.7,319.3,287.2z"
		/>
	<path d="M319.3,287.2c0,1.6,0,3.1,0,4.7c-1.1,0.3-2.3,0.6-3.5,1c-8.3,2.6-14.4,7.6-17.4,16c-0.2,0.7-0.7,0.7-1.3,0.7
		c-9.4-0.1-18.9-0.1-28.3-0.4c-10.7-0.2-21.3-0.6-32-1c-11.5-0.5-23-1-34.5-2c-19-1.7-36.5-8.2-52.5-18.5
		c-10.3-6.7-19.5-14.6-27.9-23.5c-0.2-0.2-0.3-0.3-0.6-0.5c-15.1,25.4-36.8,42.4-64.8,51.7c-0.4-1.2-0.8-2.4-1.2-3.5
		c2.3-1.4,4.5-2.7,6.6-4.1c19.1-12.5,33.9-28.9,44.4-49.2c6-11.7,10.7-24,14.7-36.5c0.1-0.3,0.2-0.6,0.4-1
		c7.8,5.5,15.6,10.9,23.6,16.5c-0.5,0.2-0.8,0.4-1.2,0.5c-3.2,1.3-6.4,2.5-9.6,3.9c-0.6,0.3-1.2,0.8-1.5,1.4
		c-2.6,4.7-5.1,9.5-7.6,14.4c16.1,14.6,34.5,25,56.2,29.3c0-27,0-54,0-81.1c-18.7,0-37.4,0-56.4,0c0,1,0,1.9,0,2.9
		c0,1.8,0,3.7,0,5.5c0,0.6-0.1,0.9-0.7,1.1c-5.1,1.8-10.2,3.6-15.2,5.4c-0.1,0.1-0.3,0.1-0.5,0.1c1.3-23.9,1.8-47.8,0-71.8
		c0.4,0.2,0.8,0.3,1.2,0.5c4.8,2,9.5,4.1,14.3,6.1c0.6,0.3,1.4,0.4,2.1,0.4c38.5,0,77,0,115.6,0c0.8,0,1.4-0.2,1.9-0.9
		c2.5-2.9,5.1-5.8,7.7-8.7c0.3-0.3,0.6-0.6,1-1c5.9,4.7,11.7,9.4,17.7,14.2c-2.1,1.4-4.1,2.7-6.1,4.1c-1.2,0.8-2.3,1.6-3.5,2.3
		c-0.9,0.5-1.1,1.1-1,2c0.3,10.5,0.5,21.1,0.8,31.6c0.1,2.4,0.3,4.9,0.3,7.3c0,0.4-0.2,1-0.5,1.1c-5.2,1.9-10.5,3.8-15.9,5.7
		c0-2.8,0-5.4,0-8.2c-15.8,0-31.4,0-47.1,0c0,10.9,0,21.8,0,32.9c0.5,0,0.9,0,1.4,0c19.1,0,38.2,0,57.4,0c0.9,0,1.5-0.2,2.1-0.8
		c5-4.6,10-9.3,14.9-13.9c0.2-0.2,0.4-0.4,0.7-0.6c6.6,7.4,13.3,14.8,20.1,22.4c-32.3,0-64.4,0-96.6,0c0,14.6,0,29,0,43.5
		C237.8,292.6,278.5,291.9,319.3,287.2z M125,198.7c39.7,0,79.2,0,118.8,0c0-11.7,0-23.4,0-35.1c-39.6,0-79.2,0-118.8,0
		C125,175.3,125,187,125,198.7z"/>
	<path class="st0" d="M125,198.7c0-11.7,0-23.4,0-35.1c39.6,0,79.2,0,118.8,0c0,11.7,0,23.4,0,35.1
		C204.3,198.7,164.7,198.7,125,198.7z"/>
</g>
</svg>
