<?xml version="1.0" encoding="utf-8"?>
<!-- Generator: Adobe Illustrator 20.1.0, SVG Export Plug-In . SVG Version: 6.00 Build 0)  -->
<svg version="1.1" id="图层_1" xmlns="http://www.w3.org/2000/svg" xmlns:xlink="http://www.w3.org/1999/xlink" x="0px" y="0px"
	 viewBox="0 0 360 360" style="enable-background:new 0 0 360 360;" xml:space="preserve">
<style type="text/css">
	.st0{fill:#FFFFFF;}
</style>
<g>
	<path class="st0" d="M-0.1,360.1c0-120.1,0-240.2,0-360.2c120.1,0,240.2,0,360.2,0c0,120.1,0,240.2,0,360.2
		C240,360.1,120,360.1-0.1,360.1z M62.5,304.9c0.4-0.3,0.6-0.5,0.9-0.7c2.6-2.3,5.2-4.5,7.8-6.8c0.6-0.5,1.2-0.9,1.9-1.1
		c28-10.5,56.1-21,84.1-31.4c3-1.1,6-2.3,9.1-3.5c-0.4-1.3-0.8-2.4-1.2-3.6c-15.7,3.9-31.3,7.8-47,11.7c0-22.4,0-44.6,0-67
		c15.2,0,30.4,0,45.9,0c-5.6-6.4-11.1-12.7-16.6-18.9c-0.3,0.3-0.7,0.6-1,0.9c-3.4,3.4-6.7,6.7-10.1,10.1c-0.4,0.4-1.1,0.7-1.7,0.7
		c-5.2,0.1-10.3,0-15.5,0c-0.3,0-0.7,0-1-0.1c0-16.1,0-32.1,0-48.1c5.8,0,11.6,0,17.5,0c0,2.7,0,5.4,0,8.2c0.5-0.2,0.9-0.4,1.2-0.6
		c4.3-2.3,8.6-4.7,13-7c1-0.5,1.2-1.1,1.2-2.1c-0.3-9.5-0.7-19.1-0.9-28.6c-0.2-11.5-0.2-23-0.3-34.4c0-1,0.3-1.8,1.1-2.4
		c2.8-2.4,5.5-4.8,8.4-7.3c-5.6-4.8-11-9.5-16.6-14.2c-3,3.3-5.8,6.5-8.7,9.8c-0.5,0.6-1.1,0.9-1.9,0.9c-16.1,0-32.2,0-48.4,0
		c-0.6,0-1.3-0.2-1.9-0.5c-4.4-2.7-8.9-5.4-13.3-8.1c-0.4-0.2-0.7-0.4-1.2-0.7c1.5,33.5,1.5,66.7,0,100.2c4.8-1.8,9.4-3.6,14-5.3
		c1-0.4,1.4-0.9,1.3-2c-0.1-1.9,0-3.7,0-5.6c7.1,0,14.1,0,21.1,0c0,0.6,0,1.1,0,1.6c0,15.2,0,30.4,0,45.6c0,25.8,0,51.5,0,77.3
		c0,1.2-0.3,1.6-1.5,1.8c-4.8,0.9-9.5,2-14.3,3c-2.1,0.4-4.3,0.9-6.6,1.4c0-0.7,0-1.3,0-1.8c0-24.6,0-49.1,0-73.7
		c0-1.5-0.4-3.2,0.2-4.4c0.6-1.2,2.2-1.9,3.4-2.8c1.9-1.5,3.9-2.9,5.9-4.5c-8.3-4.4-16.5-8.6-24.8-13c0.2,5.6,0.4,11,0.5,16.3
		c0.2,11.6,0.4,23.1,0.5,34.7c0.1,12.6,0.1,25.2,0.1,37.8c0,4.6,0,9.1,0.1,13.7c0,0.9-0.2,1.4-1.2,1.5c-1.5,0.2-2.9,0.6-4.4,0.8
		c-4,0.8-8,1.6-12.2,2.5C53.8,291.5,58.1,298.1,62.5,304.9z"/>
	<path d="M62.5,304.9c-4.4-6.7-8.6-13.3-13-20c4.2-0.8,8.2-1.6,12.2-2.5c1.4-0.3,2.9-0.7,4.4-0.8c1-0.1,1.2-0.6,1.2-1.5
		c-0.1-4.6-0.1-9.1-0.1-13.7c0-12.6,0-25.2-0.1-37.8c-0.1-11.6-0.3-23.1-0.5-34.7c-0.1-5.3-0.3-10.7-0.5-16.3
		c8.3,4.4,16.5,8.6,24.8,13c-2,1.5-4,3-5.9,4.5c-1.2,0.9-2.8,1.6-3.4,2.8c-0.6,1.2-0.2,2.9-0.2,4.4c0,24.6,0,49.1,0,73.7
		c0,0.5,0,1.1,0,1.8c2.3-0.5,4.4-0.9,6.6-1.4c4.8-1,9.5-2.1,14.3-3c1.1-0.2,1.5-0.6,1.5-1.8c0-25.8,0-51.5,0-77.3
		c0-15.2,0-30.4,0-45.6c0-0.5,0-1,0-1.6c-7,0-14,0-21.1,0c0,1.9-0.1,3.7,0,5.6c0.1,1.1-0.3,1.6-1.3,2c-4.6,1.7-9.2,3.5-14,5.3
		c1.5-33.4,1.5-66.7,0-100.2c0.5,0.3,0.9,0.5,1.2,0.7c4.4,2.7,8.8,5.5,13.3,8.1c0.5,0.3,1.3,0.5,1.9,0.5c16.1,0,32.2,0,48.4,0
		c0.8,0,1.4-0.3,1.9-0.9c2.8-3.2,5.7-6.5,8.7-9.8c5.5,4.7,11,9.4,16.6,14.2c-2.9,2.5-5.6,5-8.4,7.3c-0.8,0.7-1.1,1.4-1.1,2.4
		c0.1,11.5,0.1,23,0.3,34.4c0.2,9.5,0.6,19.1,0.9,28.6c0,1-0.2,1.6-1.2,2.1c-4.4,2.3-8.7,4.6-13,7c-0.3,0.2-0.7,0.3-1.2,0.6
		c0-2.8,0-5.5,0-8.2c-5.9,0-11.7,0-17.5,0c0,16,0,32,0,48.1c0.4,0,0.7,0.1,1,0.1c5.2,0,10.3,0,15.5,0c0.6,0,1.3-0.3,1.7-0.7
		c3.4-3.3,6.8-6.7,10.1-10.1c0.3-0.3,0.6-0.6,1-0.9c5.5,6.3,10.9,12.5,16.6,18.9c-15.5,0-30.7,0-45.9,0c0,22.4,0,44.6,0,67
		c15.7-3.9,31.3-7.8,47-11.7c0.4,1.2,0.8,2.3,1.2,3.6c-3.1,1.2-6,2.4-9.1,3.5c-28,10.5-56.1,21-84.1,31.4c-0.7,0.3-1.4,0.7-1.9,1.1
		c-2.6,2.2-5.2,4.5-7.8,6.8C63.1,304.4,62.8,304.6,62.5,304.9z M135.4,139.9c0-21.2,0-42.3,0-63.4c-17.6,0-35.2,0-52.7,0
		c0,21.2,0,42.3,0,63.4C100.3,139.9,117.8,139.9,135.4,139.9z"/>
	<path class="st0" d="M135.4,139.9c-17.6,0-35.1,0-52.7,0c0-21.2,0-42.2,0-63.4c17.5,0,35.1,0,52.7,0
		C135.4,97.5,135.4,118.6,135.4,139.9z"/>
</g>
</svg>
