<?xml version="1.0" encoding="utf-8"?>
<!-- Generator: Adobe Illustrator 20.1.0, SVG Export Plug-In . SVG Version: 6.00 Build 0)  -->
<svg version="1.1" id="图层_1" xmlns="http://www.w3.org/2000/svg" xmlns:xlink="http://www.w3.org/1999/xlink" x="0px" y="0px"
	 viewBox="0 0 360 360" style="enable-background:new 0 0 360 360;" xml:space="preserve">
<style type="text/css">
	.st0{fill:#FFFFFF;}
</style>
<g>
	<path class="st0" d="M-0.1,360.1c0-120.1,0-240.2,0-360.2c120.1,0,240.2,0,360.2,0c0,120.1,0,240.2,0,360.2
		C240,360.1,120,360.1-0.1,360.1z M266.4,319c4.8-1.8,9.4-3.8,13.6-6.8c3.9-2.8,6.3-6.6,7.4-11.2c0.9-4,1.3-8,1.3-12
		c0-30.6,0-61.1,0-91.7c0-1.5,0.4-2.3,1.7-3c2.6-1.5,5.2-3.2,7.6-4.7c-5.5-5.5-11-11-16.5-16.5c-3.2,3.2-6.4,6.4-9.6,9.7
		c-0.5,0.6-1.1,0.8-1.9,0.8c-23.6,0-47.3,0-70.9,0c-0.6,0-1.3-0.2-1.8-0.5c-5.2-3.1-10.3-6.2-15.4-9.2c-0.4-0.3-0.9-0.5-1.4-0.8
		c1.7,48.3,1.1,96.5-0.1,144.8c0.5-0.2,0.8-0.3,1.1-0.4c4.7-2,9.4-4,14.1-6c1-0.4,1.2-0.9,1.2-1.9c0-17.8,0-35.6,0-53.4
		c0-0.5,0-1.1,0-1.7c25.6,0,51,0,76.5,0c0,0.5,0.1,0.8,0.1,1.2c0,10.4,0,20.9,0,31.3c0,0.8,0,1.5-0.1,2.3c-0.4,3.5-2.4,5.6-5.5,5.7
		c-1.4,0.1-2.7,0.1-4.1-0.1c-8.2-1-16.5-2.1-24.7-3.2c-1.8-0.2-3.7-0.5-5.6-0.8c0,1.2,0.1,2.3,0,3.3c-0.1,1.1,0.2,1.6,1.4,1.9
		c7.1,2,14,4.6,20.2,8.6c4.6,3,8.5,6.6,10.6,11.8C265.7,317.1,266,318,266.4,319z M299.1,140.8c-0.3,0.4-0.5,0.8-0.8,1.1
		c-3.7,3.7-7.5,7.5-11.2,11.2c-0.5,0.5-1.1,0.8-1.9,0.8c-13.8,0-27.5,0-41.3,0c-0.4,0-0.8,0-1.1-0.1c0-10.2,0-20.3,0-30.5
		c19.2,0,38.3,0,57.7,0c-6-6.4-11.8-12.6-17.7-18.9c-0.4,0.3-0.7,0.6-0.9,0.9c-3.4,3.4-6.7,6.7-10.1,10.1c-0.5,0.6-1.1,0.8-1.9,0.8
		c-8.6,0-17.3,0-25.9,0c-0.4,0-0.8,0-1.2-0.1c0-9.8,0-19.5,0-29.3c22.3,0,44.6,0,67.1,0c-6.4-6.8-12.6-13.4-19.1-20.3
		c-0.3,0.5-0.5,0.9-0.8,1.2c-3.7,3.7-7.4,7.5-11.2,11.2c-0.4,0.4-1.2,0.8-1.8,0.8c-11,0-22,0-33,0c-0.4,0-0.8,0-1.1-0.1
		c0-0.2-0.1-0.3-0.1-0.4c0-6.6,0-13.3,0-19.9c0-0.4,0.3-1,0.6-1.3c2.6-2.7,5.2-5.3,7.9-7.9c0.3-0.3,0.6-0.6,0.9-1
		c-8.7-3.6-17.3-7.1-26-10.6c1.1,13.8,1.1,27.5,1.1,41.3c-20.1,0-40,0-60.1,0c3.5,3.5,6.9,6.9,10.3,10.2c0.2,0.2,0.9,0.2,1.3,0.1
		c7.4-1.9,14.9-3,22.5-3.2c8.5-0.2,17-0.1,25.4-0.1c0.2,0,0.4,0.1,0.5,0.1c0,9.8,0,19.5,0,29.3c-17.2,0-34.3,0-51.6,0
		c0.2,0.3,0.3,0.4,0.4,0.5c3.2,3.2,6.4,6.4,9.6,9.6c0.3,0.3,1.1,0.4,1.6,0.3c6.5-1.6,13-2.7,19.6-3c6.6-0.2,13.1-0.2,19.7-0.3
		c0.3,0,0.5,0.1,0.8,0.1c0,10.2,0,20.3,0,30.5c-22.7,0-45.4,0-68.1,0c0.1,0.2,0.2,0.3,0.2,0.4c3.2,3.3,6.5,6.5,9.8,9.7
		c0.3,0.3,0.9,0.4,1.4,0.2c8.8-2.3,17.7-3.3,26.8-3.3c39.7,0,79.4,0,119.1,0c0.5,0,0.9,0,1.7,0C311.8,154.3,305.6,147.7,299.1,140.8
		z"/>
	<path d="M266.4,319c-0.3-1-0.6-1.9-1-2.7c-2.1-5.2-6-8.8-10.6-11.8c-6.2-4-13.1-6.6-20.2-8.6c-1.1-0.3-1.5-0.8-1.4-1.9
		c0.1-1,0-2.1,0-3.3c2,0.3,3.8,0.6,5.6,0.8c8.2,1.1,16.5,2.2,24.7,3.2c1.3,0.2,2.7,0.1,4.1,0.1c3.1-0.1,5.1-2.2,5.5-5.7
		c0.1-0.8,0.1-1.5,0.1-2.3c0-10.4,0-20.9,0-31.3c0-0.4,0-0.8-0.1-1.2c-25.5,0-50.9,0-76.5,0c0,0.6,0,1.1,0,1.7c0,17.8,0,35.6,0,53.4
		c0,1-0.3,1.5-1.2,1.9c-4.7,2-9.4,4-14.1,6c-0.3,0.1-0.7,0.2-1.1,0.4c1.2-48.3,1.8-96.5,0.1-144.8c0.5,0.3,0.9,0.5,1.4,0.8
		c5.1,3.1,10.3,6.2,15.4,9.2c0.5,0.3,1.2,0.5,1.8,0.5c23.6,0,47.3,0,70.9,0c0.8,0,1.3-0.2,1.9-0.8c3.2-3.3,6.5-6.5,9.6-9.7
		c5.5,5.5,11,11,16.5,16.5c-2.4,1.5-4.9,3.2-7.6,4.7c-1.3,0.7-1.7,1.6-1.7,3c0,30.6,0,61.1,0,91.7c0,4-0.3,8.1-1.3,12
		c-1.1,4.7-3.5,8.4-7.4,11.2C275.8,315.2,271.2,317.2,266.4,319z M273.3,221.3c-25.5,0-50.9,0-76.4,0c0,8.6,0,17.2,0,25.7
		c25.5,0,50.9,0,76.4,0C273.3,238.4,273.3,229.9,273.3,221.3z M196.9,214.1c25.5,0,50.9,0,76.4,0c0-7.8,0-15.6,0-23.4
		c-25.5,0-50.9,0-76.4,0C196.9,198.5,196.9,206.3,196.9,214.1z"/>
	<path d="M299.1,140.8c6.5,6.9,12.7,13.5,19.1,20.3c-0.8,0-1.2,0-1.7,0c-39.7,0-79.4,0-119.1,0c-9.1,0-18,1-26.8,3.3
		c-0.4,0.1-1.1,0-1.4-0.2c-3.3-3.2-6.5-6.5-9.8-9.7c-0.1-0.1-0.1-0.2-0.2-0.4c22.7,0,45.4,0,68.1,0c0-10.2,0-20.3,0-30.5
		c-0.2,0-0.5-0.1-0.8-0.1c-6.6,0.1-13.1,0-19.7,0.3c-6.6,0.2-13.2,1.3-19.6,3c-0.5,0.1-1.3,0-1.6-0.3c-3.2-3.1-6.4-6.4-9.6-9.6
		c-0.1-0.1-0.2-0.2-0.4-0.5c17.3,0,34.4,0,51.6,0c0-9.8,0-19.5,0-29.3c-0.1,0-0.3-0.1-0.5-0.1c-8.5,0-17-0.1-25.4,0.1
		c-7.6,0.1-15.1,1.3-22.5,3.2c-0.4,0.1-1,0.1-1.3-0.1c-3.4-3.3-6.7-6.7-10.3-10.2c20.1,0,40,0,60.1,0c0-13.8-0.1-27.5-1.1-41.3
		c8.7,3.5,17.2,7,26,10.6c-0.4,0.4-0.6,0.7-0.9,1c-2.6,2.6-5.3,5.3-7.9,7.9c-0.3,0.3-0.6,0.9-0.6,1.3c0,6.6,0,13.3,0,19.9
		c0,0.1,0,0.2,0.1,0.4c0.4,0,0.8,0.1,1.1,0.1c11,0,22,0,33,0c0.6,0,1.4-0.3,1.8-0.8c3.8-3.7,7.5-7.4,11.2-11.2
		c0.3-0.3,0.5-0.7,0.8-1.2c6.5,6.9,12.7,13.5,19.1,20.3c-22.5,0-44.8,0-67.1,0c0,9.9,0,19.6,0,29.3c0.4,0,0.8,0.1,1.2,0.1
		c8.6,0,17.3,0,25.9,0c0.8,0,1.3-0.2,1.9-0.8c3.3-3.4,6.7-6.7,10.1-10.1c0.3-0.3,0.6-0.5,0.9-0.9c5.9,6.3,11.7,12.5,17.7,18.9
		c-19.4,0-38.5,0-57.7,0c0,10.2,0,20.3,0,30.5c0.3,0,0.7,0.1,1.1,0.1c13.8,0,27.5,0,41.3,0c0.8,0,1.3-0.3,1.9-0.8
		c3.7-3.8,7.5-7.5,11.2-11.2C298.6,141.7,298.8,141.3,299.1,140.8z"/>
	<path class="st0" d="M273.3,221.3c0,8.6,0,17.1,0,25.7c-25.4,0-50.9,0-76.4,0c0-8.6,0-17.1,0-25.7
		C222.4,221.3,247.8,221.3,273.3,221.3z"/>
	<path class="st0" d="M196.9,214.1c0-7.8,0-15.5,0-23.4c25.4,0,50.9,0,76.4,0c0,7.8,0,15.5,0,23.4
		C247.8,214.1,222.4,214.1,196.9,214.1z"/>
</g>
</svg>
