<?xml version="1.0" encoding="utf-8"?>
<!-- Generator: Adobe Illustrator 20.1.0, SVG Export Plug-In . SVG Version: 6.00 Build 0)  -->
<svg version="1.1" id="图层_1" xmlns="http://www.w3.org/2000/svg" xmlns:xlink="http://www.w3.org/1999/xlink" x="0px" y="0px"
	 viewBox="0 0 360 360" style="enable-background:new 0 0 360 360;" xml:space="preserve">
<style type="text/css">
	.st0{fill:#FFFFFF;}
</style>
<g>
	<path class="st0" d="M0.2,360.1c0-120.1,0-240.2,0-360.2c120.1,0,240.2,0,360.2,0c0,120.1,0,240.2,0,360.2
		C240.4,360.1,120.3,360.1,0.2,360.1z M71.1,167c1.7,49.3,1.4,98.2,0,147.3c0.5-0.2,0.9-0.4,1.3-0.6c4.7-2.4,9.5-4.8,14.3-7.1
		c0.8-0.4,1-0.8,1-1.7c0-19.1,0-38.2,0-57.4c0-0.5,0-0.9,0-1.5c20.8,0,41.6,0,62.4,0c0,0.4,0,0.6,0,0.9c0,9.6,0,19.3,0,28.9
		c0,0.9-0.1,1.8-0.3,2.7c-0.7,3.3-2.5,4.9-6,5.2c-7.2,0.5-14.5-0.2-21.7-0.6c-3.2-0.2-6.4-0.5-9.7-0.7c0,1.6,0,3.1,0,4.7
		c1.4,0.3,2.7,0.6,4.1,0.9c6,1.5,11.8,3.4,16.9,6.9c4.1,2.8,7.2,6.4,8.1,11.5c0.2,1,0.3,2,0.4,2.9c0.2,0,0.3,0.1,0.3,0.1
		c6.2-1.6,11.8-4.2,16.2-9c5-5.4,6.9-12.1,6.9-19.3c0.1-16.9,0-33.8,0-50.8c0-14.1,0-28.2,0-42.2c0-0.8,0.2-1.4,0.9-1.9
		c1.7-1.4,3.4-2.9,5.1-4.4c1.2-1,2.3-2,3.5-3.1c-6-4.8-11.8-9.5-17.7-14.2c-2.6,3.7-5.1,7.3-7.6,10.8c-0.5,0.7-1,1-1.9,1
		c-19.7,0-39.4,0-59,0c-0.7,0-1.4-0.2-2-0.6c-4.3-2.4-8.5-4.9-12.8-7.3C73,168,72.2,167.6,71.1,167z M172.2,132.6
		c-0.3,0.4-0.5,0.8-0.8,1.2c-4.1,4.1-8.3,8.3-12.4,12.4c-0.6,0.6-1.2,0.8-2,0.8c-10.1,0-20.2,0-30.4,0c-0.4,0-0.9,0-1.3,0
		c0-8.7,0-17.2,0-25.9c18,0,35.9,0,54.2,0c-6.8-7.2-13.4-14.2-20.3-21.5c-0.3,0.5-0.5,0.9-0.8,1.2c-4.1,4.1-8.2,8.3-12.4,12.4
		c-0.5,0.4-1.2,0.8-1.8,0.8c-5.9,0.1-11.8,0-17.6,0c-0.4,0-0.8,0-1.2-0.1c0-8.2,0-16.4,0-24.7c20,0,39.9,0,60,0
		c-6.8-7.2-13.4-14.2-20.2-21.4c-0.3,0.5-0.5,0.9-0.8,1.2c-4.1,4.1-8.2,8.2-12.3,12.3c-0.6,0.6-1.2,0.9-2.1,0.9
		c-7.8,0-15.5,0-23.3,0c-0.4,0-0.8,0-1.2,0c-0.1-0.3-0.1-0.4-0.1-0.5c0-6.6,0-13.3,0-19.9c0-0.4,0.4-0.9,0.8-1.2
		c1.8-1.2,3.6-2.4,5.4-3.6c1.4-1,2.9-1.9,4.5-3c-9.2-4-18.1-7.9-27.1-11.8c0.4,13.4,0.8,26.7,1.2,40.1c-20.2,0-40.1,0-60.2,0
		c3.6,3.6,6.9,6.9,10.3,10.2c0.2,0.2,0.9,0.2,1.3,0.1c7-1.8,14.2-2.9,21.4-3.1c8.7-0.2,17.4-0.1,26.2-0.2c0.3,0,0.5,0,0.8,0.1
		c0,8.2,0,16.4,0,24.7c-16,0-32,0-48,0c0.1,0.2,0.1,0.3,0.2,0.4c3.2,3.3,6.5,6.5,9.8,9.7c0.2,0.2,0.8,0.3,1.1,0.2
		c8.8-2.3,17.7-3.2,26.8-3.3c3.3,0,6.7,0,10.1,0c0,8.7,0,17.2,0,25.9c-21.5,0-43,0-64.7,0c3.5,3.5,6.9,6.9,10.2,10.2
		c0.2,0.2,0.9,0.3,1.3,0.2c8.8-2.3,17.7-3.3,26.7-3.3c35.4,0,70.8,0,106.2,0c0.5,0,1,0,1.8,0C184.9,146.8,178.7,139.8,172.2,132.6z"
		/>
	<path d="M71.1,167c1.1,0.6,1.9,1.1,2.7,1.6c4.3,2.4,8.5,4.9,12.8,7.3c0.6,0.3,1.3,0.6,2,0.6c19.7,0,39.4,0,59,0
		c0.9,0,1.4-0.3,1.9-1c2.5-3.6,5-7.1,7.6-10.8c5.9,4.7,11.8,9.4,17.7,14.2c-1.2,1.1-2.4,2.1-3.5,3.1c-1.7,1.5-3.3,3-5.1,4.4
		c-0.6,0.5-0.9,1.1-0.9,1.9c0,14.1,0,28.2,0,42.2c0,16.9,0.1,33.8,0,50.8c0,7.2-1.9,13.8-6.9,19.3c-4.4,4.8-10,7.4-16.2,9
		c-0.1,0-0.2,0-0.3-0.1c-0.1-1-0.2-1.9-0.4-2.9c-0.9-5.1-4-8.7-8.1-11.5c-5.1-3.5-10.9-5.4-16.9-6.9c-1.4-0.3-2.7-0.6-4.1-0.9
		c0-1.6,0-3.1,0-4.7c3.3,0.2,6.5,0.5,9.7,0.7c7.2,0.4,14.4,1.2,21.7,0.6c3.4-0.3,5.2-1.9,6-5.2c0.2-0.9,0.3-1.8,0.3-2.7
		c0-9.6,0-19.3,0-28.9c0-0.3,0-0.5,0-0.9c-20.8,0-41.6,0-62.4,0c0,0.5,0,1,0,1.5c0,19.1,0,38.2,0,57.4c0,0.9-0.2,1.3-1,1.7
		c-4.8,2.3-9.5,4.7-14.3,7.1c-0.3,0.2-0.7,0.3-1.3,0.6C72.5,265.2,72.8,216.2,71.1,167z M87.6,238.8c20.8,0,41.6,0,62.3,0
		c0-8.2,0-16.4,0-24.5c-20.8,0-41.5,0-62.3,0C87.6,222.5,87.6,230.6,87.6,238.8z M149.9,183.6c-20.8,0-41.6,0-62.3,0
		c0,7.8,0,15.6,0,23.4c20.8,0,41.5,0,62.3,0C149.9,199.2,149.9,191.4,149.9,183.6z"/>
	<path d="M172.2,132.6c6.4,7.3,12.7,14.2,19.1,21.5c-0.8,0-1.3,0-1.8,0c-35.4,0-70.8,0-106.2,0c-9,0-17.9,1-26.7,3.3
		c-0.4,0.1-1,0.1-1.3-0.2c-3.4-3.3-6.7-6.6-10.2-10.2c21.7,0,43.1,0,64.7,0c0-8.7,0-17.3,0-25.9c-3.4,0-6.7,0-10.1,0
		c-9.1,0.1-18,1.1-26.8,3.3c-0.3,0.1-0.9,0-1.1-0.2c-3.3-3.2-6.5-6.5-9.8-9.7c-0.1-0.1-0.1-0.2-0.2-0.4c16,0,32,0,48,0
		c0-8.3,0-16.4,0-24.7c-0.3,0-0.6-0.1-0.8-0.1c-8.7,0-17.4,0-26.2,0.2c-7.2,0.2-14.4,1.3-21.4,3.1c-0.4,0.1-1.1,0.1-1.3-0.1
		c-3.4-3.3-6.7-6.7-10.3-10.2c20.1,0,40,0,60.2,0c-0.4-13.4-0.8-26.7-1.2-40.1c9,3.9,18,7.8,27.1,11.8c-1.6,1.1-3,2-4.5,3
		c-1.8,1.2-3.6,2.4-5.4,3.6c-0.4,0.3-0.8,0.8-0.8,1.2c0,6.6,0,13.3,0,19.9c0,0.1,0,0.2,0.1,0.5c0.4,0,0.8,0,1.2,0
		c7.8,0,15.5,0,23.3,0c0.9,0,1.5-0.2,2.1-0.9c4.1-4.1,8.2-8.2,12.3-12.3c0.3-0.3,0.5-0.7,0.8-1.2c6.8,7.2,13.4,14.2,20.2,21.4
		c-20.2,0-40,0-60,0c0,8.3,0,16.4,0,24.7c0.4,0,0.8,0.1,1.2,0.1c5.9,0,11.8,0,17.6,0c0.6,0,1.4-0.4,1.8-0.8
		c4.2-4.1,8.3-8.2,12.4-12.4c0.3-0.3,0.5-0.7,0.8-1.2c6.9,7.3,13.5,14.3,20.3,21.5c-18.2,0-36.2,0-54.2,0c0,8.7,0,17.2,0,25.9
		c0.5,0,0.9,0,1.3,0c10.1,0,20.2,0,30.4,0c0.8,0,1.4-0.2,2-0.8c4.1-4.2,8.2-8.3,12.4-12.4C171.7,133.4,171.9,133,172.2,132.6z"/>
	<path class="st0" d="M87.6,238.8c0-8.2,0-16.3,0-24.5c20.8,0,41.5,0,62.3,0c0,8.1,0,16.3,0,24.5
		C129.2,238.8,108.5,238.8,87.6,238.8z"/>
	<path class="st0" d="M149.9,183.6c0,7.8,0,15.6,0,23.4c-20.8,0-41.5,0-62.3,0c0-7.8,0-15.5,0-23.4
		C108.4,183.6,129.1,183.6,149.9,183.6z"/>
</g>
</svg>
