<?xml version="1.0" encoding="utf-8"?>
<!-- Generator: Adobe Illustrator 20.1.0, SVG Export Plug-In . SVG Version: 6.00 Build 0)  -->
<svg version="1.1" id="图层_1" xmlns="http://www.w3.org/2000/svg" xmlns:xlink="http://www.w3.org/1999/xlink" x="0px" y="0px"
	 viewBox="0 0 360 360" style="enable-background:new 0 0 360 360;" xml:space="preserve">
<style type="text/css">
	.st0{fill:#FFFFFF;}
</style>
<g>
	<path class="st0" d="M-0.1,360.1c0-120.1,0-240.2,0-360.2c120.1,0,240.2,0,360.2,0c0,120.1,0,240.2,0,360.2
		C240,360.1,120,360.1-0.1,360.1z M260.5,43.3c-0.3,0.2-0.5,0.4-0.7,0.6c-4.9,4.6-9.9,9.1-14.8,13.7c-0.8,0.8-1.6,1.1-2.7,1.1
		c-53.1,0-106.2,0-159.2,0c-0.5,0-1,0-1.8,0c3.3,3.3,6.4,6.3,9.4,9.4c0.9,0.9,1.6,1.2,2.9,0.8c7.8-2.1,15.9-3.1,23.9-3.1
		c17.7-0.1,35.4,0,53.2,0c0.4,0,0.8,0,1.3,0.1c0,9.4,0,18.7,0,28.1c-30.6,0-61.1,0-91.7,0c0-3.9,0-7.8,0-11.7c-1.4,0-2.6,0-3.8,0
		c-0.7,0-1,0.2-1.2,1c-0.9,3.4-1.8,6.7-2.8,10c-3.1,9.9-7.5,19-15.1,26.3c-2.2,2.1-3.9,4.7-5.4,7.3c-2,3.5-0.7,6.3,3.3,7.3
		c2.3,0.6,4.7,0.7,7.1,0.7c7.1-0.1,12.1-3.4,15-10c2.7-6.2,3.4-12.8,3.2-19.5c0-1.3-0.1-2.7-0.2-4c30.7,0,61.2,0,91.9,0
		c-0.4,26.7-0.8,53.3-1.2,79.9c0.5-0.2,0.8-0.3,1.2-0.5c5-2,10.1-4.1,15.1-6c0.9-0.4,1.2-0.8,1.2-1.8c-0.3-9.8-0.8-19.6-0.9-29.5
		c-0.2-13.7-0.2-27.4-0.3-41.1c0-0.3,0.1-0.7,0.1-1c33.7,0,67.3,0,101.1,0c-5.1,8.7-10.1,17.2-15.2,25.8c1.3,0.8,2.4,1.6,3.6,2.4
		c0.4-0.4,0.7-0.8,1.1-1.1c5.2-5.6,10.7-10.9,17-15.3c4.9-3.4,10.1-6.2,16.1-7.1c1.9-0.3,3.8-0.2,5.8-0.3
		c-6.6-7.4-13.2-14.8-19.9-22.2c-0.4,0.3-0.6,0.6-0.9,0.9c-3,3-6,5.9-8.9,8.9c-0.6,0.6-1.1,0.8-2,0.8c-32.2,0-64.3,0-96.5,0
		c-0.4,0-0.8,0-1.3,0c0-9.5,0-18.8,0-28.2c31.4,0,62.7,0,94.3,0C274.5,58.1,267.5,50.7,260.5,43.3z M269.8,156.4
		c-20.9,0-41.6,0-62.4,0c0,2.4,0,4.7,0,7c20.8,0,41.6,0,62.4,0C269.8,161.1,269.8,158.8,269.8,156.4z M149.6,156.4
		c-20.9,0-41.6,0-62.3,0c0,2.4,0,4.7,0,7c20.8,0,41.5,0,62.3,0C149.6,161.1,149.6,158.8,149.6,156.4z M268.6,127.1
		c-20.5,0-40.8,0-61.2,0c0,2.4,0,4.6,0,6.9c20.5,0,40.8,0,61.2,0C268.6,131.6,268.6,129.4,268.6,127.1z M149.6,127
		c-20.5,0-40.8,0-61.1,0c0,2.4,0,4.7,0,6.9c20.4,0,40.7,0,61.1,0C149.6,131.7,149.6,129.4,149.6,127z"/>
	<path d="M260.5,43.3c7,7.4,14,14.8,21.3,22.4c-31.6,0-62.9,0-94.3,0c0,9.4,0,18.7,0,28.2c0.4,0,0.8,0,1.3,0c32.2,0,64.3,0,96.5,0
		c0.8,0,1.4-0.3,2-0.8c2.9-3,5.9-6,8.9-8.9c0.3-0.3,0.6-0.5,0.9-0.9c6.6,7.4,13.2,14.8,19.9,22.2c-2,0.1-3.9,0-5.8,0.3
		c-6,0.9-11.2,3.7-16.1,7.1c-6.3,4.4-11.8,9.7-17,15.3c-0.3,0.3-0.7,0.7-1.1,1.1c-1.2-0.8-2.3-1.5-3.6-2.4
		c5.1-8.6,10.1-17.1,15.2-25.8c-33.8,0-67.4,0-101.1,0c0,0.3-0.1,0.6-0.1,1c0.1,13.7,0.1,27.4,0.3,41.1c0.1,9.8,0.6,19.7,0.9,29.5
		c0,1-0.2,1.4-1.2,1.8c-5.1,2-10.1,4-15.1,6c-0.4,0.1-0.7,0.3-1.2,0.5c0.4-26.7,0.8-53.3,1.2-79.9c-30.8,0-61.3,0-91.9,0
		c0.1,1.3,0.2,2.7,0.2,4c0.1,6.7-0.5,13.2-3.2,19.5c-2.8,6.6-7.9,9.9-15,10c-2.4,0-4.8-0.1-7.1-0.7c-3.9-0.9-5.2-3.7-3.3-7.3
		c1.5-2.6,3.2-5.2,5.4-7.3c7.6-7.3,12-16.5,15.1-26.3c1.1-3.3,1.9-6.7,2.8-10c0.2-0.7,0.5-1,1.2-1c1.2,0.1,2.5,0,3.8,0
		c0,4,0,7.8,0,11.7c30.6,0,61.1,0,91.7,0c0-9.3,0-18.6,0-28.1c-0.4,0-0.8-0.1-1.3-0.1c-17.7,0-35.4-0.1-53.2,0
		c-8.1,0-16.1,1-23.9,3.1c-1.3,0.3-2,0.1-2.9-0.8c-3-3.1-6.1-6.1-9.4-9.4c0.8,0,1.3,0,1.8,0c53.1,0,106.2,0,159.2,0
		c1.1,0,1.9-0.3,2.7-1.1c4.9-4.6,9.8-9.2,14.8-13.7C260,43.7,260.2,43.5,260.5,43.3z"/>
	<path d="M269.8,156.4c0,2.3,0,4.6,0,7c-20.8,0-41.5,0-62.4,0c0-2.3,0-4.6,0-7C228.2,156.4,249,156.4,269.8,156.4z"/>
	<path d="M149.6,156.4c0,2.4,0,4.7,0,7c-20.8,0-41.5,0-62.3,0c0-2.4,0-4.6,0-7C108,156.4,128.8,156.4,149.6,156.4z"/>
	<path d="M268.6,127.1c0,2.3,0,4.5,0,6.9c-20.4,0-40.8,0-61.2,0c0-2.2,0-4.5,0-6.9C227.8,127.1,248.2,127.1,268.6,127.1z"/>
	<path d="M149.6,127c0,2.4,0,4.6,0,6.9c-20.4,0-40.7,0-61.1,0c0-2.3,0-4.6,0-6.9C108.8,127,129.2,127,149.6,127z"/>
</g>
</svg>
