<?xml version="1.0" encoding="utf-8"?>
<!-- Generator: Adobe Illustrator 20.1.0, SVG Export Plug-In . SVG Version: 6.00 Build 0)  -->
<svg version="1.1" id="图层_1" xmlns="http://www.w3.org/2000/svg" xmlns:xlink="http://www.w3.org/1999/xlink" x="0px" y="0px"
	 viewBox="0 0 360 360" style="enable-background:new 0 0 360 360;" xml:space="preserve">
<style type="text/css">
	.st0{fill:#FFFFFF;}
</style>
<g>
	<path class="st0" d="M-0.1,360.1c0-120.1,0-240.2,0-360.2c120.1,0,240.2,0,360.2,0c0,120.1,0,240.2,0,360.2
		C240,360.1,120,360.1-0.1,360.1z M76.7,278.9c0-0.7,0-1.2,0-1.7c0-27.2,0-54.5,0-81.7c0-1.6-0.4-3.5,0.2-4.8c0.6-1.3,2.4-2,3.6-3
		c2.2-1.7,4.4-3.5,6.8-5.3c-8.7-4-17.3-7.9-26-11.8c0,0.5,0,0.9,0,1.3c0.3,11.5,0.6,23,0.8,34.5c0.2,9.1,0.2,18.2,0.3,27.2
		c0.1,12,0.1,23.9,0.1,35.9c0,1,0.1,1.9,0.1,2.9c0.3,4.9-0.8,9.3-4.2,13c-0.6,0.6-0.6,1.1-0.2,1.7c3.2,5.6,6.4,11.3,9.5,16.9
		c0.2,0.3,0.4,0.6,0.6,1c2.6-3.4,6.1-5.6,9.7-7.6c7.2-3.8,14.8-6.5,22.6-8.9c15.1-4.7,30.4-8.3,45.9-11.5c2.2-0.5,4.3-0.9,6.7-1.4
		c0,9.5,0,18.8,0,28.2c0.5-0.3,0.9-0.4,1.2-0.6c4.1-2.2,8.2-4.5,12.4-6.6c1.4-0.7,2.1-1.4,1.7-3c-0.1-0.6-0.1-1.2-0.1-1.8
		c-0.2-11.9-0.5-23.9-0.7-35.8c-0.1-8.6-0.2-17.3-0.2-25.9c0-12.8,0-25.5-0.1-38.3c0-0.8,0.2-1.2,0.8-1.7c3.2-2.5,6.4-5,9.8-7.6
		c-8.7-3.6-17.3-7.1-25.7-10.5c0.3,32.5,0.7,65,1,97.6C127.7,272.6,102.3,275.7,76.7,278.9z M110.8,40.9c1.2,31.1,1,62,1.1,93
		c-9.1,0-18,0-27.1,0c0-0.5,0-1,0-1.5c0-15,0.1-29.9-0.1-44.9c0-2.2,0.6-3.6,2.5-4.7c2.8-1.6,5.4-3.5,8.3-5.4
		c-8.8-3.6-17.3-7.1-26-10.6c1.1,22.5,1.1,44.7,1.1,67.2c-9.4,0-18.7,0-28.1,0c0.1,0.2,0.2,0.4,0.2,0.4c3.2,3.3,6.5,6.5,9.8,9.7
		c0.3,0.3,0.9,0.4,1.3,0.3c9.1-2.4,18.3-3.3,27.6-3.3c35.1,0,70.2,0,105.3,0c0.5,0,1,0,1.8,0c-6.5-6.9-12.7-13.5-18.9-20.1
		c-4.5,4.1-8.9,8.2-13.4,12.2c-0.5,0.4-1.3,0.8-2,0.8c-9,0-17.9,0-26.9,0c-0.4,0-0.9,0-1.3,0c0-12.6,0-25.1,0-37.7
		c17.2,0,34.4,0,51.8,0c-6.4-6.8-12.6-13.4-19-20.2c-0.4,0.4-0.6,0.8-0.9,1.1c-3.7,3.7-7.4,7.5-11.2,11.2c-0.4,0.4-1.2,0.7-1.7,0.7
		c-6,0.1-11.9,0-17.9,0c-0.3,0-0.7,0-1-0.1c0-0.2-0.1-0.3-0.1-0.4c0-9,0-18,0-27c0-0.4,0.3-0.9,0.6-1.2c1.5-1.3,3-2.5,4.6-3.7
		c2.2-1.7,4.3-3.5,6.6-5.3C128.8,48,119.9,44.5,110.8,40.9z M119.1,196.5c2.1,4.9,4.2,9.6,6.1,14.2c3.4,8.2,6.1,16.5,7.7,25.3
		c0.5,2.8,1.1,5.6,2.1,8.2c1.1,3,3.4,3.4,5.6,1.2c5.8-5.9,8.4-12.8,6.4-21.1c-1.2-4.9-3.9-9-6.9-12.9c-5.5-7-12-13-18.9-18.7
		c-0.8-0.7-0.9-1.2-0.6-2.2c2-6.8,4.1-13.6,5.7-20.5c0.7-3,1.8-5,4.6-6.3c2-1,3.8-2.3,5.9-3.6c-8.4-4-16.5-7.9-24.8-11.8
		c-0.1,0.6-0.2,1-0.2,1.5c-0.4,3.4-0.8,6.7-1.2,10.1c-2,15.6-5,31-9.4,46.1c-4.5,15.5-10.5,30.4-18.9,44.3c-1.1,1.8-2.2,3.5-3.2,5.2
		c0.8,0.9,1.5,1.6,2.3,2.5C99.1,240.6,110.1,219.4,119.1,196.5z"/>
	<path d="M76.7,278.9c25.6-3.1,51-6.3,76.7-9.4c-0.3-32.6-0.7-65.1-1-97.6c8.4,3.4,16.9,6.9,25.7,10.5c-3.4,2.6-6.6,5.1-9.8,7.6
		c-0.6,0.5-0.8,0.9-0.8,1.7c0,12.8,0,25.5,0.1,38.3c0,8.6,0.1,17.3,0.2,25.9c0.2,11.9,0.5,23.9,0.7,35.8c0,0.6,0,1.2,0.1,1.8
		c0.4,1.6-0.3,2.3-1.7,3c-4.2,2.1-8.2,4.4-12.4,6.6c-0.3,0.2-0.7,0.3-1.2,0.6c0-9.4,0-18.7,0-28.2c-2.3,0.5-4.5,0.9-6.7,1.4
		c-15.4,3.3-30.8,6.8-45.9,11.5c-7.7,2.4-15.4,5.1-22.6,8.9c-3.7,1.9-7.1,4.1-9.7,7.6c-0.2-0.4-0.4-0.7-0.6-1
		c-3.2-5.6-6.3-11.3-9.5-16.9c-0.4-0.7-0.4-1.1,0.2-1.7c3.3-3.7,4.5-8.1,4.2-13c-0.1-1-0.1-1.9-0.1-2.9c0-12,0-23.9-0.1-35.9
		c0-9.1-0.1-18.2-0.3-27.2c-0.2-11.5-0.5-23-0.8-34.5c0-0.4,0-0.7,0-1.3c8.7,3.9,17.2,7.8,26,11.8c-2.3,1.8-4.6,3.6-6.8,5.3
		c-1.3,1-3,1.7-3.6,3c-0.6,1.3-0.2,3.2-0.2,4.8c0,27.2,0,54.5,0,81.7C76.7,277.7,76.7,278.2,76.7,278.9z"/>
	<path d="M110.8,40.9c9,3.5,18,7,27.1,10.6c-2.3,1.8-4.5,3.6-6.6,5.3c-1.5,1.2-3.1,2.4-4.6,3.7c-0.3,0.3-0.6,0.8-0.6,1.2
		c0,9,0,18,0,27c0,0.1,0,0.2,0.1,0.4c0.3,0,0.7,0.1,1,0.1c6,0,11.9,0,17.9,0c0.6,0,1.3-0.3,1.7-0.7c3.8-3.7,7.5-7.4,11.2-11.2
		c0.3-0.3,0.5-0.7,0.9-1.1c6.4,6.8,12.6,13.4,19,20.2c-17.4,0-34.6,0-51.8,0c0,12.6,0,25,0,37.7c0.5,0,0.9,0,1.3,0
		c9,0,17.9,0,26.9,0c0.7,0,1.5-0.3,2-0.8c4.5-4,8.9-8.1,13.4-12.2c6.2,6.6,12.5,13.2,18.9,20.1c-0.8,0-1.3,0-1.8,0
		c-35.1,0-70.2,0-105.3,0c-9.4,0-18.6,0.9-27.6,3.3c-0.4,0.1-1,0-1.3-0.3c-3.3-3.2-6.5-6.5-9.8-9.7c-0.1-0.1-0.1-0.2-0.2-0.4
		c9.4,0,18.7,0,28.1,0c-0.1-22.4,0-44.7-1.1-67.2c8.7,3.5,17.2,7,26,10.6c-2.9,1.9-5.5,3.8-8.3,5.4c-1.9,1.1-2.5,2.5-2.5,4.7
		c0.1,15,0.1,29.9,0.1,44.9c0,0.5,0,0.9,0,1.5c9.1,0,18,0,27.1,0C111.8,102.9,112,72,110.8,40.9z"/>
	<path d="M119.1,196.5c-9,22.9-20,44.1-37.7,61.3c-0.8-0.9-1.5-1.6-2.3-2.5c1-1.7,2.2-3.4,3.2-5.2c8.4-13.9,14.3-28.8,18.9-44.3
		c4.4-15.1,7.4-30.5,9.4-46.1c0.4-3.4,0.8-6.7,1.2-10.1c0.1-0.5,0.1-0.9,0.2-1.5c8.3,3.9,16.4,7.8,24.8,11.8
		c-2.1,1.3-3.9,2.7-5.9,3.6c-2.7,1.3-3.9,3.4-4.6,6.3c-1.6,6.9-3.7,13.7-5.7,20.5c-0.3,1-0.2,1.5,0.6,2.2
		c6.8,5.7,13.4,11.7,18.9,18.7c3,3.9,5.7,8,6.9,12.9c2,8.3-0.6,15.2-6.4,21.1c-2.2,2.3-4.5,1.8-5.6-1.2c-1-2.6-1.6-5.4-2.1-8.2
		c-1.6-8.7-4.4-17.1-7.7-25.3C123.3,206,121.3,201.4,119.1,196.5z"/>
</g>
</svg>
