<?xml version="1.0" encoding="utf-8"?>
<!-- Generator: Adobe Illustrator 20.1.0, SVG Export Plug-In . SVG Version: 6.00 Build 0)  -->
<svg version="1.1" id="图层_1" xmlns="http://www.w3.org/2000/svg" xmlns:xlink="http://www.w3.org/1999/xlink" x="0px" y="0px"
	 viewBox="0 0 360 360" style="enable-background:new 0 0 360 360;" xml:space="preserve">
<style type="text/css">
	.st0{fill:#FFFFFF;}
</style>
<g>
	<path class="st0" d="M-0.1,360.1c0-120.1,0-240.1,0-360.2c120.1,0,240.1,0,360.2,0c0,120,0,240.1,0,360.2
		C240.1,360.1,120,360.1-0.1,360.1z M198,315.5c5.9-2.8,11.8-5.5,17.6-8.2c-1-11-1.1-21.9-1.2-33c35,0,69.8,0,104.9,0
		c-6.8-7.2-13.4-14.2-20.2-21.4c-0.3,0.4-0.6,0.8-0.9,1.1c-4.1,4.1-8.2,8.2-12.3,12.3c-0.6,0.6-1.1,0.9-2,0.9c-22.7,0-45.4,0-68.2,0
		c-0.4,0-0.9,0-1.3-0.1c0-8.6,0-17.2,0-25.8c27.8,0,55.6,0,83.6,0c-6.4-6.8-12.6-13.4-18.9-20.1c-0.3,0.3-0.7,0.6-1,0.9
		c-3.7,3.7-7.5,7.5-11.2,11.2c-0.6,0.6-1.2,0.8-2,0.8c-16.4,0-32.9,0-49.3,0c-0.4,0-0.8,0-1.3,0c0-8.3,0-16.4,0-24.7
		c31.4,0,62.6,0,94.2,0c-6.8-7.2-13.4-14.2-20-21.2c-0.4,0.3-0.7,0.6-0.9,0.8c-4.5,4.2-9,8.4-13.6,12.5c-0.5,0.5-1.3,0.8-2,0.8
		c-18.8,0-37.6,0-56.4,0c-0.4,0-0.8-0.1-1.3-0.1c0-1.7,0.1-3.2,0-4.8c-0.2-1.6,0.4-2.5,1.8-3.4c2.2-1.4,4.3-3,6.6-4.7
		c-8.4-4-16.5-7.9-24.8-11.8C199.5,223.7,199.6,269.5,198,315.5z M67.5,234.1c0,0.1-0.1,0.2-0.1,0.3c3.2,3.2,6.5,6.4,9.7,9.6
		c0.6,0.6,1.1,0.7,1.9,0.5c7.3-1.9,14.7-3,22.1-3.1c13.6-0.2,27.1-0.1,40.7-0.1c0.3,0,0.5,0.1,0.8,0.1c0,9,0,17.9,0,26.9
		c-32.5,0-65,0-97.6,0c0.4,0.5,0.7,0.7,0.9,1c2.9,2.9,5.9,5.9,8.8,8.8c0.6,0.6,1.2,0.8,2,0.5c7.9-2.1,15.9-3.2,24.1-3.2
		c20.3-0.1,40.6,0,60.8-0.1c0.9,0,1.2,0.3,1.1,1.2c-0.1,3.5,0,7-0.1,10.4c-0.2,6.7-0.4,13.4-0.6,20.1c-0.1,2.3-0.3,4.7-0.4,7.2
		c5.9-2.7,11.6-5.4,17.2-8c0.2-0.1,0.4-0.6,0.4-1c-0.2-8.7-0.6-17.5-0.7-26.2c-0.2-10.8-0.3-21.7-0.3-32.5
		c-0.1-15.6,0-31.3-0.1-46.9c0-2.4,0.5-4.1,2.5-5.3c0.6-0.4,1.2-1,1.7-1.5c1.3-1.1,2.6-2.3,4.1-3.5c-8.3-3.6-16.5-7.1-24.7-10.6
		c0.4,8,0.8,15.7,1.2,23.5c-29.2,0-58.1,0-87.3,0c0.4,0.4,0.6,0.7,0.9,1c3,3,6,6,9,9c0.6,0.6,1,0.7,1.8,0.5c8.4-2.2,17-3.2,25.6-3.3
		c16.2-0.1,32.3,0,48.5,0c0.4,0,0.9,0,1.3,0c0,8.3,0,16.4,0,24.7C117.4,234.1,92.5,234.1,67.5,234.1z"/>
	<path d="M198,315.5c1.5-46,1.5-91.8,0-137.9c8.3,3.9,16.4,7.8,24.8,11.8c-2.3,1.6-4.4,3.2-6.6,4.7c-1.3,0.8-1.9,1.8-1.8,3.4
		c0.2,1.5,0,3.1,0,4.8c0.5,0,0.9,0.1,1.3,0.1c18.8,0,37.6,0,56.4,0c0.7,0,1.5-0.3,2-0.8c4.6-4.1,9.1-8.3,13.6-12.5
		c0.3-0.2,0.5-0.5,0.9-0.8c6.6,7,13.2,14,20,21.2c-31.5,0-62.8,0-94.2,0c0,8.3,0,16.4,0,24.7c0.4,0,0.8,0,1.3,0
		c16.4,0,32.9,0,49.3,0c0.8,0,1.4-0.2,2-0.8c3.7-3.8,7.5-7.5,11.2-11.2c0.3-0.3,0.6-0.6,1-0.9c6.3,6.7,12.5,13.3,18.9,20.1
		c-28,0-55.8,0-83.6,0c0,8.6,0,17.2,0,25.8c0.5,0,0.9,0.1,1.3,0.1c22.7,0,45.4,0,68.2,0c0.8,0,1.4-0.3,2-0.9
		c4.1-4.1,8.2-8.2,12.3-12.3c0.3-0.3,0.5-0.7,0.9-1.1c6.8,7.2,13.4,14.2,20.2,21.4c-35.1,0-69.9,0-104.9,0c0.1,11.1,0.1,22.1,1.2,33
		C209.8,310,203.9,312.7,198,315.5z"/>
	<path d="M67.5,234.1c25,0,50,0,75,0c0-8.2,0-16.4,0-24.7c-0.5,0-0.9,0-1.3,0c-16.2,0-32.3-0.1-48.5,0c-8.7,0-17.2,1-25.6,3.3
		c-0.7,0.2-1.2,0.1-1.8-0.5c-3-3-6-6-9-9c-0.2-0.2-0.5-0.5-0.9-1c29.1,0,58,0,87.3,0c-0.4-7.9-0.8-15.6-1.2-23.5
		c8.3,3.5,16.4,7,24.7,10.6c-1.4,1.2-2.7,2.4-4.1,3.5c-0.6,0.5-1.1,1.1-1.7,1.5c-2,1.2-2.5,2.9-2.5,5.3c0.1,15.6,0.1,31.3,0.1,46.9
		c0,10.8,0.1,21.7,0.3,32.5c0.1,8.7,0.5,17.5,0.7,26.2c0,0.3-0.2,0.8-0.4,1c-5.7,2.7-11.3,5.3-17.2,8c0.1-2.5,0.3-4.8,0.4-7.2
		c0.2-6.7,0.5-13.4,0.6-20.1c0.1-3.5,0-7,0.1-10.4c0-0.9-0.2-1.2-1.1-1.2c-20.3,0-40.6-0.1-60.8,0.1c-8.1,0-16.2,1.1-24.1,3.2
		c-0.8,0.2-1.4,0.1-2-0.5c-2.9-3-5.9-5.9-8.8-8.8c-0.2-0.2-0.5-0.5-0.9-1c32.7,0,65.1,0,97.6,0c0-9.1,0-18,0-26.9
		c-0.2,0-0.5-0.1-0.8-0.1c-13.6,0-27.1-0.1-40.7,0.1c-7.5,0.1-14.9,1.2-22.1,3.1c-0.8,0.2-1.3,0.1-1.9-0.5c-3.2-3.2-6.4-6.4-9.7-9.6
		C67.4,234.3,67.4,234.2,67.5,234.1z"/>
</g>
</svg>
