<?xml version="1.0" encoding="utf-8"?>
<!-- Generator: Adobe Illustrator 20.1.0, SVG Export Plug-In . SVG Version: 6.00 Build 0)  -->
<svg version="1.1" id="图层_1" xmlns="http://www.w3.org/2000/svg" xmlns:xlink="http://www.w3.org/1999/xlink" x="0px" y="0px"
	 viewBox="0 0 360 360" style="enable-background:new 0 0 360 360;" xml:space="preserve">
<style type="text/css">
	.st0{fill:#FFFFFF;}
</style>
<g>
	<path class="st0" d="M0.2,360.5c0-120.1,0-240.2,0-360.2c120.1,0,240.2,0,360.2,0c0,120.1,0,240.2,0,360.2
		C240.4,360.5,120.3,360.5,0.2,360.5z M216.1,81.3c27.8,0,55.6,0,83.6,0c-6-6.4-11.8-12.6-17.7-18.9c-0.5,0.5-0.9,0.9-1.2,1.3
		c-2.8,3.1-5.7,6.3-8.5,9.5c-0.6,0.7-1.3,1-2.2,1c-17.5,0-35,0-52.4,0c-0.5,0-0.9,0-1.4,0c-0.1-0.3-0.1-0.5-0.1-0.7
		c0-4.2,0-8.4,0-12.6c0-0.4,0.4-0.9,0.8-1.1c2.3-1.2,4.7-2.4,7.1-3.6c0.5-0.2,0.9-0.5,1.6-0.8c-8.8-4.4-17.3-8.6-26-13
		c1.6,43.7,1.5,87.2,0,130.8c0.5-0.2,0.8-0.3,1.2-0.4c4.7-2,9.5-4.1,14.2-6.1c0.9-0.4,1.2-0.8,1.2-1.7c-0.1-5.4,0-10.9,0-16.3
		c0-0.4,0-0.8,0-1.4c30.7,0,61.1,0,91.5,0c-6.2-6.2-12.4-12.4-18.7-18.7c-0.2,0.2-0.5,0.5-0.8,0.7c-3.3,3.3-6.6,6.6-9.9,9.9
		c-0.7,0.7-1.3,1-2.3,1c-19.4,0-38.9,0-58.3,0c-0.5,0-0.9,0-1.5,0c0-8.3,0-16.4,0-24.7c26.6,0,53.2,0,80.1,0
		c-5.7-6.1-11.1-11.9-16.6-17.7c-4.1,3.4-8,6.6-12,9.8c-0.6,0.5-1.4,0.8-2.1,0.8c-16,0-32,0-48,0c-0.4,0-0.9,0-1.4,0
		C216.1,99.4,216.1,90.5,216.1,81.3z M64,74.3c0.4,0.4,0.6,0.7,0.9,1c3,3,6,5.9,8.9,8.9c0.6,0.6,1.1,0.7,1.9,0.5
		c8.2-2.2,16.6-3.2,25.1-3.3c15.6-0.1,31.1,0,46.7,0c0.4,0,0.8,0,1.3,0c0,9.1,0,18,0,27c-26.2,0-52.4,0-78.7,0
		c0.1,0.3,0.2,0.4,0.2,0.4c3.2,3.3,6.5,6.5,9.8,9.7c0.3,0.3,0.9,0.3,1.3,0.3c8.8-2.3,17.8-3.3,26.8-3.3c13,0,26.1,0,39.1,0
		c0.5,0,0.9,0,1.5,0c0,8.3,0,16.5,0,24.8c-29.8,0-59.4,0-89.4,0c3.5,3.5,6.9,6.9,10.2,10.2c0.2,0.2,0.9,0.2,1.3,0.1
		c8.9-2.3,18-3.3,27.2-3.3c16.5,0,33,0,49.4,0c0.4,0,0.8,0,1.5,0c-0.4,9.1-0.8,18-1.2,27c0.1,0,0.3,0,0.4-0.1
		c5.5-2.9,11.1-5.9,16.6-8.9c0.3-0.2,0.6-0.8,0.6-1.2c-0.1-3.8-0.3-7.5-0.4-11.3c-0.2-9.1-0.4-18.1-0.5-27.2
		c-0.1-12.1-0.2-24.2-0.2-36.2c0-7.9,0.2-15.8-0.1-23.8c-0.1-3.2,0.7-5.3,3.6-6.8c1.7-0.9,3.1-2.2,4.8-3.4
		c-8.4-4.4-16.5-8.7-24.7-12.9c0.4,10.6,0.8,21.1,1.2,31.8C120.5,74.3,92.4,74.3,64,74.3z"/>
	<path d="M216.1,81.3c0,9.2,0,18.1,0,27.1c0.5,0,0.9,0,1.4,0c16,0,32,0,48,0c0.7,0,1.6-0.3,2.1-0.8c4-3.2,7.9-6.5,12-9.8
		c5.4,5.8,10.9,11.7,16.6,17.7c-26.9,0-53.4,0-80.1,0c0,8.3,0,16.4,0,24.7c0.5,0,1,0,1.5,0c19.4,0,38.9,0,58.3,0c1,0,1.6-0.3,2.3-1
		c3.3-3.3,6.6-6.6,9.9-9.9c0.3-0.3,0.6-0.5,0.8-0.7c6.2,6.2,12.5,12.4,18.7,18.7c-30.4,0-60.8,0-91.5,0c0,0.5,0,1,0,1.4
		c0,5.4,0,10.9,0,16.3c0,1-0.3,1.4-1.2,1.7c-4.8,2-9.5,4-14.2,6.1c-0.4,0.2-0.7,0.3-1.2,0.4c1.5-43.6,1.6-87.1,0-130.8
		c8.7,4.3,17.2,8.6,26,13c-0.7,0.3-1.1,0.6-1.6,0.8c-2.4,1.2-4.7,2.3-7.1,3.6c-0.4,0.2-0.8,0.7-0.8,1.1c-0.1,4.2,0,8.4,0,12.6
		c0,0.2,0.1,0.4,0.1,0.7c0.5,0,1,0,1.4,0c17.5,0,35,0,52.4,0c1,0,1.6-0.3,2.2-1c2.8-3.2,5.7-6.3,8.5-9.5c0.4-0.4,0.8-0.8,1.2-1.3
		c5.9,6.3,11.7,12.5,17.7,18.9C271.7,81.3,244,81.3,216.1,81.3z"/>
	<path d="M64,74.3c28.4,0,56.5,0,85,0c-0.4-10.6-0.8-21.1-1.2-31.8c8.1,4.3,16.3,8.5,24.7,12.9c-1.7,1.2-3.1,2.5-4.8,3.4
		c-2.9,1.5-3.7,3.6-3.6,6.8c0.3,7.9,0.1,15.8,0.1,23.8c0.1,12.1,0.1,24.2,0.2,36.2c0.1,9.1,0.3,18.1,0.5,27.2
		c0.1,3.8,0.3,7.5,0.4,11.3c0,0.4-0.2,1.1-0.6,1.2c-5.5,3-11,5.9-16.6,8.9c-0.1,0.1-0.3,0.1-0.4,0.1c0.4-9,0.8-17.9,1.2-27
		c-0.7,0-1.1,0-1.5,0c-16.5,0-33,0-49.4,0c-9.2,0-18.3,1-27.2,3.3c-0.4,0.1-1,0.1-1.3-0.1c-3.4-3.3-6.7-6.6-10.2-10.2
		c30,0,59.6,0,89.4,0c0-8.3,0-16.5,0-24.8c-0.5,0-1,0-1.5,0c-13,0-26.1,0-39.1,0c-9.1,0-18,1-26.8,3.3c-0.4,0.1-1,0-1.3-0.3
		c-3.3-3.2-6.5-6.5-9.8-9.7c-0.1-0.1-0.1-0.2-0.2-0.4c26.3,0,52.4,0,78.7,0c0-9,0-18,0-27c-0.4,0-0.8,0-1.3,0
		c-15.6,0-31.1-0.1-46.7,0c-8.5,0.1-16.9,1.1-25.1,3.3c-0.8,0.2-1.3,0.1-1.9-0.5c-2.9-3-5.9-6-8.9-8.9C64.7,75,64.4,74.7,64,74.3z"
		/>
</g>
</svg>
