<?xml version="1.0" encoding="utf-8"?>
<!-- Generator: Adobe Illustrator 20.1.0, SVG Export Plug-In . SVG Version: 6.00 Build 0)  -->
<svg version="1.1" id="图层_1" xmlns="http://www.w3.org/2000/svg" xmlns:xlink="http://www.w3.org/1999/xlink" x="0px" y="0px"
	 viewBox="0 0 360 360" style="enable-background:new 0 0 360 360;" xml:space="preserve">
<style type="text/css">
	.st0{fill:#FFFFFF;}
</style>
<g>
	<path class="st0" d="M0.2,360.5c0-120.1,0-240.2,0-360.2c120.1,0,240.2,0,360.2,0c0,120.1,0,240.2,0,360.2
		C240.4,360.5,120.3,360.5,0.2,360.5z M245.5,210.8c0.1,0,0.1,0,0.2,0c0.1,0.2,0.1,0.4,0.2,0.6c5.2,17.5,13.4,33.5,24.3,48.2
		c6.1,8.3,12.8,16,21.1,22.1c2.3,1.7,4.7,3.1,7.1,4.8c5.5-8.1,13.4-10.7,22.4-10.8c0-1.6,0-3.2,0-4.6c-3.8-1.2-7.6-2.3-11.3-3.5
		c-8.6-3-16.8-6.7-24.1-12.4c-9.1-7.1-16.6-15.7-23.2-25.1c-0.1-0.1,0-0.2-0.1-0.4c15.9-6.8,31.9-13.6,49.3-16.5
		c-5.5-6.3-11-12.5-16.3-18.6c-1.6,2.2-3.1,4.4-4.8,6.3c-1.7,2-3.7,3.8-5.6,5.5c-7.6,6.8-16,12.6-24.6,18.2
		c-0.2,0.1-0.3,0.2-0.5,0.2c-0.1-0.1-0.2-0.2-0.2-0.3c-5.1-9.1-9.3-18.6-12.4-28.6c-1.7-5.5-1.5-11-1.4-16.6c10.2,0,20.3,0,30.5,0
		c0,3.5,0,6.9,0,10.4c0.5-0.2,0.9-0.3,1.3-0.5c4.7-2,9.3-4,14-6c1-0.4,1.2-0.9,1.2-2c-0.3-6.3-0.7-12.6-0.8-18.9
		c-0.2-7.8-0.2-15.5-0.3-23.3c0-0.4,0-0.7,0.1-1.2c10.2,0,20.3,0,30.6,0c-5.6-6.4-11-12.6-16.5-18.9c-0.4,0.4-0.7,0.7-1,1.1
		c-3,3.3-6,6.7-9,10c-0.3,0.3-0.7,0.7-1,0.7c-1,0.1-2,0-3,0c0-0.3-0.1-0.5-0.1-0.7c0-10.1,0-20.2,0-30.2c0-0.4,0.4-1,0.8-1.2
		c2.5-1.3,5-2.5,7.5-3.8c0.3-0.2,0.7-0.4,1.1-0.6c-5.6-6-11-11.8-16.5-17.7c-3.4,3.7-6.6,7.3-9.8,10.9c-0.6,0.7-1.2,0.9-2.1,0.9
		c-8.5,0-17,0-25.6,0c-0.4,0-0.9,0-1.4,0c0-0.6,0-1.1,0-1.5c0-7.6,0.1-15.1-0.1-22.7c0-2.1,0.5-3.5,2.2-4.7c1.7-1.2,3.2-2.7,4.9-4.1
		c-7.9-4.4-15.7-8.6-23.7-13c0.1,1.3,0.2,2.4,0.3,3.4c0.3,13.7,0.6,27.4,1,41.1c0,1.2-0.3,1.5-1.5,1.5c-14.3,0-28.6,0-42.8,0
		c-0.5,0-0.9,0-1.7,0c3.6,3.6,6.9,6.9,10.3,10.2c0.2,0.2,0.7,0.3,1,0.2c8.9-2.3,17.9-3.3,27-3.4c2.5,0,5,0,7.6,0
		c0,11.8,0,23.5,0,35.3c-18.4,0-36.7,0-55.3,0c0.4,0.4,0.6,0.6,0.8,0.9c3,3,6,6,9,9c0.6,0.6,1.1,0.7,1.9,0.5
		c6.5-1.7,13.1-2.8,19.7-3c7.7-0.2,15.4-0.2,23.1-0.3c0.2,0,0.5,0.1,0.7,0.1c0,11.4,0,22.7,0,34.1c-15.3,0-30.4,0-45.6,0
		c0.1,0.2,0.1,0.3,0.1,0.3c3.3,3.3,6.5,6.6,9.9,9.8c0.3,0.3,0.9,0.3,1.3,0.2c2.3-0.5,4.7-1.1,7-1.5c8.8-1.7,17.8-1.8,26.8-1.7
		c0.2,0,0.4,0.1,0.7,0.1c0,0.3,0,0.6,0,0.9c0,34.8,0,69.5,0,104.3c0,2.7-0.6,5.2-2,7.6c-0.8,1.4-1.9,2.2-3.5,2.4
		c-1.4,0.1-2.9,0.5-4.3,0.4c-7.1-0.5-14.1-1.1-21.1-1.7c-2.2-0.2-4.4-0.6-6.7-0.9c0,1.7,0,3.2,0,4.6c3.3,1.2,6.5,2.2,9.6,3.4
		c5.2,2.1,10,4.9,13.7,9.2c1.9,2.2,3.5,4.8,5.3,7.4c5.8-2.1,11.9-4.2,17.1-8.2c2.3-1.7,3.9-3.9,4.9-6.7c1.7-4.6,2.3-9.3,2.3-14.1
		c0-25.2,0-50.5,0-75.7C245.5,211.8,245.5,211.3,245.5,210.8z M150.3,278.8c7,4.2,13.9,8.4,20.9,12.5c0.1-0.4,0.2-0.6,0.2-0.8
		c0.7-6.2,3.3-11.5,7.1-16.4c1.7-2.2,3.4-4.4,5.2-6.5c9.4-11,19.4-21.3,29.5-31.7c1.4-1.4,2.8-2.8,4.2-4.3c-0.6-0.5-1-0.9-1.5-1.3
		c-0.4-0.4-0.9-0.8-1.4-1.2c-0.4,0.3-0.7,0.6-1,0.8c-12.9,11.4-25.9,22.8-39.4,33.4c-6.6,5.2-13.4,10.2-21,13.8
		C152.2,277.7,151.4,278.2,150.3,278.8z M177.1,189.8c0.6,0.8,1.2,1.5,1.8,2.2c6.1,7.7,11.4,15.9,14.5,25.3c0.3,1.1,0.8,2.1,1.4,3
		c1.9,3.3,4.3,3.6,6.7,0.7c1.8-2.2,3.3-4.8,4.4-7.4c2.3-5.7,1.1-10.1-3.7-14.1c-0.5-0.4-1-0.8-1.5-1.2c-5.6-4.2-11.9-7.1-18.3-9.8
		C179.4,187.3,179.4,187.3,177.1,189.8z"/>
	<path d="M245.5,210.8c0,0.5,0,0.9,0,1.4c0,25.2,0,50.5,0,75.7c0,4.8-0.6,9.6-2.3,14.1c-1,2.7-2.6,4.9-4.9,6.7
		c-5.3,3.9-11.3,6.1-17.1,8.2c-1.8-2.6-3.4-5.2-5.3-7.4c-3.7-4.3-8.5-7.1-13.7-9.2c-3.1-1.3-6.3-2.3-9.6-3.4c0-1.4,0-2.9,0-4.6
		c2.3,0.3,4.5,0.7,6.7,0.9c7,0.6,14.1,1.2,21.1,1.7c1.4,0.1,2.9-0.2,4.3-0.4c1.6-0.2,2.7-1,3.5-2.4c1.4-2.3,2-4.9,2-7.6
		c0-34.8,0-69.5,0-104.3c0-0.3,0-0.5,0-0.9c-0.3-0.1-0.5-0.1-0.7-0.1c-9-0.1-17.9,0-26.8,1.7c-2.3,0.5-4.7,1-7,1.5
		c-0.4,0.1-1,0-1.3-0.2c-3.3-3.2-6.6-6.5-9.9-9.8c0,0,0-0.1-0.1-0.3c15.2,0,30.4,0,45.6,0c0-11.4,0-22.7,0-34.1
		c-0.2,0-0.5-0.1-0.7-0.1c-7.7,0.1-15.4,0-23.1,0.3c-6.7,0.2-13.3,1.3-19.7,3c-0.8,0.2-1.3,0.1-1.9-0.5c-3-3-6-6-9-9
		c-0.2-0.2-0.4-0.5-0.8-0.9c18.5,0,36.9,0,55.3,0c0-11.8,0-23.5,0-35.3c-2.5,0-5,0-7.6,0c-9.1,0.1-18.2,1-27,3.4
		c-0.3,0.1-0.8,0-1-0.2c-3.4-3.3-6.7-6.6-10.3-10.2c0.8,0,1.2,0,1.7,0c14.3,0,28.6,0,42.8,0c1.2,0,1.6-0.3,1.5-1.5
		c-0.4-13.7-0.6-27.4-1-41.1c0-1-0.1-2.1-0.3-3.4c7.9,4.4,15.7,8.6,23.7,13c-1.7,1.4-3.2,2.9-4.9,4.1c-1.7,1.2-2.3,2.6-2.2,4.7
		c0.1,7.6,0.1,15.1,0.1,22.7c0,0.5,0,0.9,0,1.5c0.6,0,1,0,1.4,0c8.5,0,17,0,25.6,0c0.9,0,1.5-0.3,2.1-0.9c3.2-3.6,6.5-7.2,9.8-10.9
		c5.5,5.9,11,11.7,16.5,17.7c-0.4,0.2-0.8,0.4-1.1,0.6c-2.5,1.3-5,2.5-7.5,3.8c-0.4,0.2-0.8,0.8-0.8,1.2c0,10.1,0,20.2,0,30.2
		c0,0.2,0,0.4,0.1,0.7c1,0,2,0.1,3,0c0.4,0,0.8-0.4,1-0.7c3-3.3,6-6.6,9-10c0.3-0.4,0.7-0.7,1-1.1c5.5,6.3,10.9,12.5,16.5,18.9
		c-10.4,0-20.5,0-30.6,0c0,0.5-0.1,0.9-0.1,1.2c0.1,7.8,0.1,15.5,0.3,23.3c0.2,6.3,0.5,12.6,0.8,18.9c0.1,1-0.2,1.5-1.2,2
		c-4.7,1.9-9.3,4-14,6c-0.4,0.2-0.8,0.3-1.3,0.5c0-3.5,0-6.9,0-10.4c-10.2,0-20.3,0-30.5,0c-0.1,5.6-0.3,11.1,1.4,16.6
		c3.1,10,7.3,19.5,12.4,28.6c0.1,0.1,0.1,0.2,0.2,0.3c0.2-0.1,0.4-0.1,0.5-0.2c8.5-5.6,16.9-11.4,24.6-18.2c2-1.7,3.9-3.6,5.6-5.5
		c1.7-2,3.2-4.1,4.8-6.3c5.3,6.1,10.8,12.3,16.3,18.6c-17.4,2.9-33.4,9.6-49.3,16.5c0,0.2,0,0.3,0.1,0.4c6.7,9.3,14.1,18,23.2,25.1
		c7.2,5.7,15.5,9.4,24.1,12.4c3.7,1.3,7.5,2.4,11.3,3.5c0,1.5,0,3,0,4.6c-9.1,0.1-17,2.7-22.4,10.8c-2.4-1.6-4.8-3.1-7.1-4.8
		c-8.3-6.2-15-13.9-21.1-22.1c-10.9-14.7-19.1-30.7-24.3-48.2c-0.1-0.2-0.1-0.4-0.2-0.6C245.6,210.9,245.6,210.8,245.5,210.8z
		 M276,95.6c-10.2,0-20.3,0-30.4,0c0,11.8,0,23.5,0,35.2c10.2,0,20.3,0,30.4,0C276,119,276,107.3,276,95.6z M245.6,138
		c0,11.4,0,22.7,0,34c10.2,0,20.3,0,30.4,0c0-11.4,0-22.7,0-34C265.8,138,255.7,138,245.6,138z"/>
	<path d="M150.3,278.8c1.1-0.6,1.9-1.1,2.8-1.5c7.6-3.6,14.4-8.6,21-13.8c13.5-10.7,26.5-22,39.4-33.4c0.3-0.3,0.6-0.5,1-0.8
		c0.5,0.4,0.9,0.8,1.4,1.2c0.4,0.4,0.9,0.8,1.5,1.3c-1.4,1.4-2.8,2.9-4.2,4.3c-10.1,10.3-20.1,20.7-29.5,31.7
		c-1.8,2.1-3.5,4.3-5.2,6.5c-3.8,4.8-6.4,10.2-7.1,16.4c0,0.2-0.1,0.4-0.2,0.8C164.2,287.1,157.3,283,150.3,278.8z"/>
	<path d="M177.1,189.8c2.3-2.5,2.3-2.5,5.2-1.3c6.4,2.7,12.7,5.6,18.3,9.8c0.5,0.4,1,0.8,1.5,1.2c4.8,4,6,8.3,3.7,14.1
		c-1.1,2.6-2.6,5.1-4.4,7.4c-2.4,3-4.8,2.6-6.7-0.7c-0.6-1-1-2-1.4-3c-3.1-9.4-8.4-17.6-14.5-25.3
		C178.3,191.2,177.7,190.5,177.1,189.8z"/>
	<path class="st0" d="M276,95.6c0,11.7,0,23.4,0,35.2c-10.1,0-20.2,0-30.4,0c0-11.7,0-23.4,0-35.2C255.7,95.6,265.8,95.6,276,95.6z"
		/>
	<path class="st0" d="M245.6,138c10.1,0,20.2,0,30.4,0c0,11.3,0,22.6,0,34c-10.1,0-20.2,0-30.4,0C245.6,160.7,245.6,149.4,245.6,138
		z"/>
</g>
</svg>
