<?xml version="1.0" encoding="utf-8"?>
<!-- Generator: Adobe Illustrator 20.1.0, SVG Export Plug-In . SVG Version: 6.00 Build 0)  -->
<svg version="1.1" id="图层_1" xmlns="http://www.w3.org/2000/svg" xmlns:xlink="http://www.w3.org/1999/xlink" x="0px" y="0px"
	 viewBox="0 0 360 360" style="enable-background:new 0 0 360 360;" xml:space="preserve">
<style type="text/css">
	.st0{fill:#FFFFFF;}
</style>
<g>
	<path class="st0" d="M0.2,360.5c0-120.1,0-240.2,0-360.2c120.1,0,240.2,0,360.2,0c0,120.1,0,240.2,0,360.2
		C240.4,360.5,120.3,360.5,0.2,360.5z M68.7,309.9c0.2-0.1,0.3-0.1,0.4-0.2c6.9-5.8,14.7-9.9,23.2-12.8
		c25.3-8.4,50.7-16.8,76.1-25.1c7.7-2.5,15.5-5,23.2-7.5c0.3-0.1,0.8-0.5,0.8-0.7c0.1-1.8,0-3.6,0-5.5c-19.7,4.7-39.2,9.4-58.9,14.1
		c0-24.4,0-48.6,0-73c20,0,39.9,0,60,0c-6.4-7.6-12.6-15-19-22.5c-0.3,0.4-0.5,0.7-0.7,1c-4.2,4.5-8.3,9-12.5,13.6
		c-0.6,0.6-1.1,0.9-2,0.9c-8.2,0-16.4,0-24.6,0c-0.4,0-0.8,0-1.3,0c0-14.6,0-29,0-43.5c15.7,0,31.3,0,47.1,0
		c-6.8-7.2-13.4-14.2-20.2-21.4c-0.3,0.4-0.4,0.7-0.7,1c-3.7,4.1-7.5,8.2-11.2,12.3c-0.6,0.7-1.3,1-2.3,1c-20.6,0-41.3,0-61.9,0
		c-0.5,0-0.9,0-1.5,0c0.2,0.3,0.2,0.4,0.3,0.5c3.2,3.3,6.5,6.5,9.8,9.7c0.3,0.3,0.9,0.3,1.4,0.2c5.1-1,10.2-2.1,15.3-2.9
		c2.8-0.4,5.6-0.4,8.4-0.5c0,14.7,0,29.1,0,43.6c-17.6,0-35.2,0-52.9,0c0.4,0.5,0.7,0.8,1,1c2.9,2.9,5.8,5.8,8.7,8.8
		c0.7,0.7,1.3,0.9,2.2,0.6c6.6-1.8,13.3-3.1,20.2-3.2c6.8-0.1,13.6,0,20.4,0c0.2,0,0.4,0.1,0.6,0.1c0,0.4,0,0.7,0,1
		c0,24.8,0,49.5,0,74.3c0,0.9-0.3,1.2-1.2,1.4c-7.9,1.7-15.7,3.7-23.6,5.3c-7.5,1.5-15.1,2.9-22.7,4.1c-4.1,0.6-8.3,0.8-12.5,1.2
		C61.7,294.3,65.2,302.1,68.7,309.9z M47.6,173.3c33-28,58.4-62.1,78.9-100.1c0.3,0.2,0.4,0.3,0.5,0.4c7.4,6.2,14.5,12.7,21.2,19.6
		c5.2,5.4,10.1,11.1,14.2,17.4c2,3.1,3.6,6.3,5.6,9.3c1.1,1.7,2.6,3.2,4.2,4.5c1.8,1.4,3.8,1.1,5.4-0.5c0.7-0.8,1.5-1.6,1.9-2.6
		c1-2.4,2.1-4.8,2.7-7.3c1.9-7.7-0.2-14.2-6.4-19.2c-2.2-1.8-4.6-3.5-7-5c-12.4-8-25.6-14.4-38.8-20.9c-0.4-0.2-0.8-0.4-1.2-0.6
		c2.1-3,4.5-5.5,7.3-7.5c2.8-2,5.9-3.7,8.8-5.6c-8.5-4.6-17-9.3-25.7-14c-0.2,0.6-0.4,1-0.6,1.5c-8.1,22-17.6,43.3-29.1,63.8
		C78,127.5,64.5,147.2,48.4,165c-1.4,1.6-2.9,3.2-4.3,4.7C45.3,170.9,46.4,172,47.6,173.3z M73.4,216.8c0.3,0.5,0.5,0.9,0.7,1.3
		c4.2,7.7,8,15.5,10.7,23.9c1.8,5.9,3.1,11.9,4.8,17.8c0.7,2.3,1.6,4.5,2.8,6.5c1.1,1.9,3.1,2.1,4.9,0.9c1.1-0.7,2.1-1.7,2.9-2.7
		c3.6-4.4,6-9.3,5.6-15.1c-0.3-4.5-2.2-8.3-4.7-11.9C97,231.7,92,226.8,86.8,222c-3.2-3-6.5-5.8-9.7-8.7c-0.2,0.1-0.3,0.2-0.4,0.3
		C75.6,214.6,74.5,215.7,73.4,216.8z M160.6,206.2c-0.1,0.6-0.2,1.1-0.3,1.5c-2.3,11.6-5,23.2-8.6,34.5c-1.9,5.8-4,11.5-6,17.3
		c-0.3,0.7-0.3,1.2,0.5,1.6c0.9,0.5,1.8,1.2,2.7,1.8c0.3-0.3,0.6-0.6,0.8-0.9c8.4-10.3,15.7-21.5,22.4-33c1.1-1.8,2.3-3.3,4-4.5
		c2.3-1.6,4.6-3.4,7-5.2C175.6,214.8,168.2,210.6,160.6,206.2z"/>
	<path d="M68.7,309.9c-3.5-7.8-7-15.6-10.5-23.3c4.3-0.4,8.4-0.5,12.5-1.2c7.6-1.2,15.2-2.6,22.7-4.1c7.9-1.6,15.7-3.5,23.6-5.3
		c0.8-0.2,1.2-0.5,1.2-1.4c0-24.8,0-49.5,0-74.3c0-0.3,0-0.6,0-1c-0.2,0-0.4-0.1-0.6-0.1c-6.8,0-13.6-0.1-20.4,0
		c-6.9,0.1-13.6,1.4-20.2,3.2c-0.9,0.2-1.5,0.1-2.2-0.6c-2.9-3-5.8-5.8-8.7-8.8c-0.3-0.3-0.5-0.6-1-1c17.8,0,35.3,0,52.9,0
		c0-14.5,0-28.9,0-43.6c-2.8,0.1-5.7,0.1-8.4,0.5c-5.1,0.8-10.2,1.9-15.3,2.9c-0.4,0.1-1.1,0-1.4-0.2c-3.3-3.2-6.5-6.5-9.8-9.7
		c-0.1-0.1-0.1-0.2-0.3-0.5c0.6,0,1,0,1.5,0c20.6,0,41.3,0,61.9,0c1,0,1.6-0.3,2.3-1c3.7-4.1,7.5-8.2,11.2-12.3
		c0.2-0.3,0.4-0.6,0.7-1c6.8,7.2,13.4,14.2,20.2,21.4c-15.9,0-31.5,0-47.1,0c0,14.5,0,28.9,0,43.5c0.4,0,0.9,0,1.3,0
		c8.2,0,16.4,0,24.6,0c0.8,0,1.4-0.3,2-0.9c4.1-4.5,8.3-9.1,12.5-13.6c0.2-0.3,0.4-0.6,0.7-1c6.4,7.6,12.6,15,19,22.5
		c-20.1,0-40.1,0-60,0c0,24.4,0,48.6,0,73c19.6-4.7,39.2-9.4,58.9-14.1c0,1.9,0,3.7,0,5.5c0,0.3-0.5,0.6-0.8,0.7
		c-7.7,2.5-15.5,5-23.2,7.5c-25.4,8.3-50.7,16.7-76.1,25.1c-8.5,2.8-16.3,7-23.2,12.8C69,309.7,68.9,309.8,68.7,309.9z"/>
	<path d="M47.6,173.3c-1.2-1.2-2.3-2.4-3.5-3.6c1.4-1.5,2.8-3.1,4.3-4.7c16.1-17.8,29.7-37.4,41.4-58.4
		c11.4-20.5,20.9-41.8,29.1-63.8c0.2-0.5,0.4-0.9,0.6-1.5c8.6,4.7,17.2,9.4,25.7,14c-3,1.9-6,3.6-8.8,5.6c-2.9,2-5.2,4.5-7.3,7.5
		c0.5,0.2,0.9,0.4,1.2,0.6c13.2,6.5,26.4,13,38.8,20.9c2.4,1.6,4.8,3.2,7,5c6.2,5,8.3,11.5,6.4,19.2c-0.6,2.5-1.7,4.9-2.7,7.3
		c-0.4,1-1.1,1.8-1.9,2.6c-1.6,1.7-3.6,2-5.4,0.5c-1.6-1.3-3.1-2.8-4.2-4.5c-2-3-3.7-6.3-5.6-9.3c-4.1-6.3-9-12-14.2-17.4
		c-6.7-7-13.8-13.4-21.2-19.6c-0.1-0.1-0.3-0.2-0.5-0.4C106,111.2,80.6,145.2,47.6,173.3z"/>
	<path d="M73.4,216.8c1.1-1.1,2.2-2.2,3.3-3.2c0.1-0.1,0.2-0.1,0.4-0.3c3.2,2.9,6.5,5.7,9.7,8.7c5.2,4.8,10.1,9.8,14.2,15.5
		c2.5,3.6,4.5,7.4,4.7,11.9c0.3,5.9-2,10.7-5.6,15.1c-0.8,1-1.8,1.9-2.9,2.7c-1.8,1.3-3.8,1-4.9-0.9c-1.2-2-2.2-4.3-2.8-6.5
		c-1.7-5.9-2.9-11.9-4.8-17.8c-2.6-8.4-6.5-16.2-10.7-23.9C73.9,217.7,73.7,217.3,73.4,216.8z"/>
	<path d="M160.6,206.2c7.5,4.4,14.9,8.6,22.4,13c-2.4,1.8-4.7,3.6-7,5.2c-1.7,1.2-3,2.7-4,4.5c-6.7,11.5-14,22.6-22.4,33
		c-0.2,0.3-0.5,0.6-0.8,0.9c-0.9-0.6-1.8-1.3-2.7-1.8c-0.7-0.4-0.7-0.8-0.5-1.6c2.1-5.8,4.2-11.5,6-17.3c3.6-11.3,6.3-22.9,8.6-34.5
		C160.4,207.3,160.5,206.8,160.6,206.2z"/>
</g>
</svg>
