<?xml version="1.0" encoding="utf-8"?>
<!-- Generator: Adobe Illustrator 20.1.0, SVG Export Plug-In . SVG Version: 6.00 Build 0)  -->
<svg version="1.1" id="图层_1" xmlns="http://www.w3.org/2000/svg" xmlns:xlink="http://www.w3.org/1999/xlink" x="0px" y="0px"
	 viewBox="0 0 360 360" style="enable-background:new 0 0 360 360;" xml:space="preserve">
<style type="text/css">
	.st0{fill:#FFFFFF;}
</style>
<g>
	<path class="st0" d="M-0.1,360.1c0-120.1,0-240.2,0-360.2c120.1,0,240.2,0,360.2,0c0,120.1,0,240.2,0,360.2
		C240,360.1,120,360.1-0.1,360.1z M162.7,295.5c2.6-1.2,5.1-2.4,7.6-3.7c3.6-1.8,7-4,9.9-6.7c5.2-5,7.2-11.3,7.2-18.3
		c0-63.5,0-127,0-190.5c0-1.7,0.5-2.7,2-3.6c2.5-1.4,4.9-3,7.5-4.7c-5.2-5.6-10.2-11-15.4-16.6c-3.3,3.7-6.6,7.3-9.8,11
		c-0.5,0.6-1.1,0.8-1.8,0.8c-6.4,0-12.7,0-19.1,0c-0.7,0-1.4-0.2-2-0.6c-5.2-3-10.3-6.1-15.4-9.2c-0.4-0.2-0.7-0.4-1.2-0.7
		c1.4,37,1.6,73.7,0,110.6c0.5-0.1,0.8-0.3,1.2-0.4c4.1-1.6,8.3-3.2,12.4-4.7c1.3-0.5,1.8-1,1.7-2.5c-0.2-2.1,0-4.2,0-6.4
		c8.7,0,17.2,0,25.8,0c0,0.5,0,0.8,0,1.2c0,35.5,0,71,0,106.5c0,3.9-0.2,7.7-1.3,11.5c-0.4,1.4-1.2,2.4-2.6,2.6
		c-1.9,0.3-3.9,0.6-5.8,0.6c-8.5,0.1-16.8-0.8-25.2-1.7c-2-0.2-4.1-0.5-6.3-0.7c0,1.3,0.1,2.4,0,3.5c-0.1,0.9,0.2,1.3,1.2,1.5
		c3.8,0.8,7.5,1.6,11.2,2.6c9.5,2.6,12.2,4.9,16.3,13.6c0.5,1.2,1,2.4,1.5,3.5C162.3,294.6,162.5,295,162.7,295.5z M120.1,65.8
		c-4.8-4.8-9.5-9.5-14.2-14.2c-3.2,3.5-6.5,7.2-9.7,10.8c-0.5,0.6-1,0.8-1.8,0.8c-6.8,0-13.5,0-20.3,0c-0.7,0-1.4-0.2-2-0.6
		c-4.8-3-9.6-6.1-14.3-9.2c-0.4-0.2-0.7-0.4-1-0.6c1.3,85.9,1.3,171.8-0.1,257.8c0.4-0.2,0.7-0.4,1.1-0.6c4.3-2.6,8.5-5.3,12.8-7.8
		c1-0.6,1.3-1.2,1.3-2.4c0-49.6,0-99.1,0-148.7c0-0.5,0-1.1,0-1.7c8.7,0,17.3,0,25.9,0c0,4.7,0,9.3,0,14c0.4-0.2,0.8-0.3,1.1-0.4
		c4.4-2,8.8-4.1,13.3-6.1c0.8-0.4,1-0.8,1-1.6c-0.3-6.1-0.5-12.2-0.7-18.3c-0.2-10.5-0.3-21-0.4-31.5c-0.1-10.5-0.1-21-0.1-31.6
		c0-0.8,0.3-1.3,0.9-1.8C115.3,70,117.7,67.9,120.1,65.8z"/>
	<path d="M162.7,295.5c-0.2-0.5-0.4-0.9-0.6-1.3c-0.5-1.2-1-2.4-1.5-3.5c-4-8.7-6.7-11-16.3-13.6c-3.7-1-7.4-1.8-11.2-2.6
		c-1-0.2-1.2-0.6-1.2-1.5c0.1-1.1,0-2.2,0-3.5c2.2,0.2,4.2,0.5,6.3,0.7c8.4,0.9,16.8,1.9,25.2,1.7c1.9,0,3.9-0.4,5.8-0.6
		c1.5-0.2,2.3-1.2,2.6-2.6c1-3.8,1.3-7.6,1.3-11.5c0-35.5,0-71,0-106.5c0-0.4,0-0.8,0-1.2c-8.6,0-17.2,0-25.8,0c0,2.2-0.1,4.3,0,6.4
		c0.1,1.4-0.5,2-1.7,2.5c-4.2,1.5-8.3,3.2-12.4,4.7c-0.4,0.1-0.7,0.2-1.2,0.4c1.6-36.9,1.4-73.7,0-110.6c0.5,0.3,0.9,0.5,1.2,0.7
		c5.1,3.1,10.3,6.2,15.4,9.2c0.6,0.3,1.3,0.6,2,0.6c6.4,0,12.7,0,19.1,0c0.8,0,1.3-0.2,1.8-0.8c3.2-3.6,6.5-7.3,9.8-11
		c5.1,5.5,10.2,11,15.4,16.6c-2.6,1.6-5,3.3-7.5,4.7c-1.5,0.8-2,1.8-2,3.6c0.1,63.5,0.1,127,0,190.5c0,7-1.9,13.3-7.2,18.3
		c-2.9,2.8-6.3,4.9-9.9,6.7C167.8,293.2,165.3,294.3,162.7,295.5z M147.4,142.2c8.6,0,17.2,0,25.7,0c0-11,0-21.9,0-32.7
		c-8.6,0-17.1,0-25.7,0C147.4,120.4,147.4,131.2,147.4,142.2z M147.4,102.1c8.6,0,17.2,0,25.7,0c0-10.6,0-21.1,0-31.5
		c-8.6,0-17.1,0-25.7,0C147.4,81.1,147.4,91.5,147.4,102.1z"/>
	<path d="M120.1,65.8c-2.4,2.1-4.8,4.2-7.3,6.2c-0.6,0.5-0.9,1-0.9,1.8c0.1,10.5,0,21,0.1,31.6c0.1,10.5,0.2,21,0.4,31.5
		c0.1,6.1,0.4,12.2,0.7,18.3c0,0.8-0.2,1.3-1,1.6c-4.4,2-8.8,4.1-13.3,6.1c-0.3,0.1-0.7,0.3-1.1,0.4c0-4.7,0-9.3,0-14
		c-8.6,0-17.2,0-25.9,0c0,0.6,0,1.1,0,1.7c0,49.6,0,99.1,0,148.7c0,1.1-0.3,1.8-1.3,2.4c-4.3,2.6-8.5,5.2-12.8,7.8
		c-0.4,0.2-0.7,0.4-1.1,0.6c1.3-85.9,1.4-171.8,0.1-257.8c0.3,0.2,0.6,0.4,1,0.6c4.8,3.1,9.5,6.2,14.3,9.2c0.6,0.4,1.3,0.6,2,0.6
		c6.8,0,13.5,0,20.3,0c0.8,0,1.3-0.2,1.8-0.8c3.2-3.6,6.5-7.3,9.7-10.8C110.7,56.4,115.4,61.1,120.1,65.8z M72,142.1
		c8.6,0,17.2,0,25.7,0c0-11,0-21.9,0-32.7c-8.6,0-17.2,0-25.7,0C72,120.4,72,131.2,72,142.1z M72,102.1c8.6,0,17.2,0,25.7,0
		c0-10.6,0-21.1,0-31.5c-8.6,0-17.2,0-25.7,0C72,81.1,72,91.5,72,102.1z"/>
	<path class="st0" d="M147.4,142.2c0-11,0-21.8,0-32.7c8.6,0,17.1,0,25.7,0c0,10.9,0,21.8,0,32.7C164.6,142.2,156,142.2,147.4,142.2
		z"/>
	<path class="st0" d="M147.4,102.1c0-10.6,0-21,0-31.5c8.6,0,17.1,0,25.7,0c0,10.5,0,21,0,31.5C164.6,102.1,156,102.1,147.4,102.1z"
		/>
	<path class="st0" d="M72,142.1c0-10.9,0-21.8,0-32.7c8.5,0,17.1,0,25.7,0c0,10.8,0,21.7,0,32.7C89.2,142.1,80.6,142.1,72,142.1z"/>
	<path class="st0" d="M72,102.1c0-10.5,0-21,0-31.5c8.6,0,17.1,0,25.7,0c0,10.5,0,20.9,0,31.5C89.2,102.1,80.6,102.1,72,102.1z"/>
</g>
</svg>
