<?xml version="1.0" encoding="utf-8"?>
<!-- Generator: Adobe Illustrator 20.1.0, SVG Export Plug-In . SVG Version: 6.00 Build 0)  -->
<svg version="1.1" id="图层_1" xmlns="http://www.w3.org/2000/svg" xmlns:xlink="http://www.w3.org/1999/xlink" x="0px" y="0px"
	 viewBox="0 0 360 360" style="enable-background:new 0 0 360 360;" xml:space="preserve">
<style type="text/css">
	.st0{fill:#FFFFFF;}
</style>
<g>
	<path class="st0" d="M0.2,360.5c0-120.1,0-240.2,0-360.2c120.1,0,240.2,0,360.2,0c0,120.1,0,240.2,0,360.2
		C240.4,360.5,120.3,360.5,0.2,360.5z M277.2,142.7c0,0.5,0,1,0,1.4c0,45.2,0,90.5,0,135.7c0,1.3-0.1,2.6-0.3,3.8
		c-0.6,3.6-3,5.8-6.5,6c-0.9,0.1-1.8,0-2.8,0c-8.2-0.6-16.2-2.1-24.2-3.6c-3.2-0.6-6.5-1.3-9.9-2c0,1.7,0.1,3.3,0,4.9
		c0,0.9,0.3,1.1,1.1,1.4c4.5,1.5,9.1,3,13.5,4.8c6.4,2.7,12.3,6.3,17.1,11.5c2.6,2.7,4.6,5.9,6,9.4c5-2.1,9.9-4.5,14.1-7.9
		c3-2.4,5.1-5.4,6.4-9c1.3-3.7,1.9-7.6,1.9-11.5c0-71.7,0-143.4-0.1-215.1c0-2.8,0.6-4.7,3.1-6.3c2.7-1.7,5.1-3.9,7.7-5.9
		c-6.3-5.6-12.6-11-18.9-16.6c-0.3,0.3-0.5,0.5-0.7,0.8c-3.8,4.2-7.7,8.4-11.5,12.6c-0.5,0.6-1.1,0.9-1.9,0.9c-16.1,0-32.2,0-48.4,0
		c-0.7,0-1.5-0.3-2.1-0.7c-5.2-3.4-10.4-6.9-15.6-10.3c-0.3-0.2-0.7-0.4-0.9-0.6c0.3,18.2,0.8,36.5,0.8,54.7
		c0,18.2-0.5,36.4-0.8,54.6c5.2-2.2,10.4-4.5,15.7-6.7c0.3-0.1,0.6-0.7,0.6-1.1c0.1-1.6,0-3.3,0-4.9
		C239.6,142.7,258.3,142.7,277.2,142.7z M153.4,44.9c-4,4-8.1,8.1-12.1,12.1c-0.4,0.4-1.2,0.7-1.7,0.7c-17,0-33.9,0-50.9,0
		c-0.6,0-1.3-0.2-1.8-0.6c-5.3-3.8-10.6-7.7-15.9-11.6c-0.3-0.2-0.6-0.4-0.9-0.6c1.4,89.9,1.4,179.7,0,269.6c0.3-0.2,0.7-0.3,1-0.5
		c5.1-2.7,10.1-5.4,15.2-8.1c0.9-0.5,1.3-1,1.3-2.1c0-53.2,0-106.3,0-159.5c0-0.5,0-1.1,0-1.6c19.3,0,38.4,0,57.7,0
		c0,3.5,0,6.9,0,10.3c0.3,0,0.4,0,0.5,0c5.1-2.2,10.2-4.4,15.3-6.5c0.7-0.3,0.7-0.8,0.7-1.3c-0.2-3.6-0.4-7.2-0.5-10.8
		c-0.2-7.8-0.4-15.6-0.5-23.4c-0.1-13.9-0.1-27.8-0.2-41.6c0-0.8,0.3-1.1,0.9-1.5c1.6-0.8,3.1-1.7,4.6-2.5c1.7-0.9,3.3-1.9,4.9-2.7
		C165.2,56.7,159.4,50.9,153.4,44.9z"/>
	<path d="M277.2,142.7c-18.9,0-37.6,0-56.5,0c0,1.7,0,3.3,0,4.9c0,0.4-0.3,1-0.6,1.1c-5.2,2.3-10.5,4.5-15.7,6.7
		c0.3-18.2,0.8-36.4,0.8-54.6c0-18.2-0.5-36.4-0.8-54.7c0.2,0.1,0.5,0.3,0.9,0.6c5.2,3.5,10.4,6.9,15.6,10.3
		c0.6,0.4,1.4,0.6,2.1,0.7c16.1,0,32.2,0,48.4,0c0.8,0,1.4-0.3,1.9-0.9c3.8-4.2,7.6-8.4,11.5-12.6c0.2-0.2,0.4-0.5,0.7-0.8
		c6.3,5.5,12.6,11,18.9,16.6c-2.6,2-5,4.2-7.7,5.9c-2.4,1.6-3.1,3.4-3.1,6.3c0.1,71.7,0.1,143.4,0.1,215.1c0,3.9-0.6,7.8-1.9,11.5
		c-1.3,3.6-3.4,6.6-6.4,9c-4.3,3.4-9.1,5.7-14.1,7.9c-1.5-3.5-3.5-6.6-6-9.4c-4.8-5.2-10.7-8.8-17.1-11.5c-4.4-1.8-9-3.2-13.5-4.8
		c-0.8-0.3-1.1-0.5-1.1-1.4c0.1-1.6,0-3.2,0-4.9c3.4,0.7,6.7,1.3,9.9,2c8,1.5,16,3.1,24.2,3.6c0.9,0.1,1.8,0.1,2.8,0
		c3.5-0.2,5.8-2.4,6.5-6c0.2-1.3,0.3-2.5,0.3-3.8c0-45.2,0-90.5,0-135.7C277.2,143.7,277.2,143.3,277.2,142.7z M277.2,65
		c-18.9,0-37.6,0-56.3,0c0,10.6,0,21.1,0,31.6c18.8,0,37.6,0,56.3,0C277.2,86,277.2,75.6,277.2,65z M220.8,135.5
		c18.9,0,37.6,0,56.3,0c0-10.6,0-21.1,0-31.6c-18.8,0-37.6,0-56.3,0C220.8,114.5,220.8,124.9,220.8,135.5z"/>
	<path d="M153.4,44.9c5.9,5.9,11.8,11.8,17.7,17.7c-1.6,0.9-3.3,1.8-4.9,2.7c-1.5,0.9-3.1,1.7-4.6,2.5c-0.6,0.3-0.9,0.7-0.9,1.5
		c0.1,13.9,0.1,27.8,0.2,41.6c0.1,7.8,0.3,15.6,0.5,23.4c0.1,3.6,0.3,7.2,0.5,10.8c0,0.6,0,1-0.7,1.3c-5.1,2.2-10.2,4.4-15.3,6.5
		c-0.1,0-0.2,0-0.5,0c0-3.4,0-6.9,0-10.3c-19.3,0-38.4,0-57.7,0c0,0.5,0,1.1,0,1.6c0,53.2,0,106.3,0,159.5c0,1.1-0.3,1.6-1.3,2.1
		c-5.1,2.7-10.2,5.4-15.2,8.1c-0.3,0.2-0.7,0.3-1,0.5c1.4-89.8,1.4-179.7,0-269.6c0.2,0.2,0.6,0.4,0.9,0.6
		c5.3,3.9,10.6,7.8,15.9,11.6c0.5,0.4,1.2,0.6,1.8,0.6c17,0,33.9,0,50.9,0c0.6,0,1.3-0.3,1.7-0.7C145.4,53,149.4,49,153.4,44.9z
		 M87.7,65c0,10.6,0,21.1,0,31.6c19.2,0,38.4,0,57.5,0c0-10.6,0-21.1,0-31.6C126,65,106.9,65,87.7,65z M87.7,135.5
		c19.3,0,38.4,0,57.6,0c0-10.6,0-21.1,0-31.6c-19.2,0-38.4,0-57.6,0C87.7,114.4,87.7,124.9,87.7,135.5z"/>
	<path class="st0" d="M277.2,65c0,10.6,0,21,0,31.6c-18.8,0-37.5,0-56.3,0c0-10.5,0-21,0-31.6C239.6,65,258.3,65,277.2,65z"/>
	<path class="st0" d="M220.8,135.5c0-10.6,0-21,0-31.6c18.8,0,37.5,0,56.3,0c0,10.5,0,21,0,31.6
		C258.4,135.5,239.7,135.5,220.8,135.5z"/>
	<path class="st0" d="M87.7,65c19.2,0,38.3,0,57.5,0c0,10.5,0,21,0,31.6c-19.2,0-38.3,0-57.5,0C87.7,86.1,87.7,75.6,87.7,65z"/>
	<path class="st0" d="M87.7,135.5c0-10.6,0-21.1,0-31.6c19.2,0,38.3,0,57.6,0c0,10.5,0,21,0,31.6
		C126.1,135.5,106.9,135.5,87.7,135.5z"/>
</g>
</svg>
