<?xml version="1.0" encoding="utf-8"?>
<!-- Generator: Adobe Illustrator 20.1.0, SVG Export Plug-In . SVG Version: 6.00 Build 0)  -->
<svg version="1.1" id="图层_1" xmlns="http://www.w3.org/2000/svg" xmlns:xlink="http://www.w3.org/1999/xlink" x="0px" y="0px"
	 viewBox="0 0 360 360" style="enable-background:new 0 0 360 360;" xml:space="preserve">
<style type="text/css">
	.st0{fill:#FFFFFF;}
</style>
<g>
	<path class="st0" d="M0.2,360.5c0-120.1,0-240.2,0-360.2c120.1,0,240.2,0,360.2,0c0,120.1,0,240.2,0,360.2
		C240.4,360.5,120.3,360.5,0.2,360.5z M241.9,263.9c-14.5,7.4-28.9,14.8-43.5,22.3c0-20.9,0-41.5,0-62.2c22,0,43.9,0,65.9,0
		c0,1.9,0,3.8,0,5.7c0.3-0.1,0.4-0.1,0.5-0.2c5.1-3.3,10.3-6.6,15.4-9.9c0.3-0.2,0.5-0.8,0.5-1.3c-0.3-6.9-0.7-13.7-0.8-20.6
		c-0.2-11.2-0.2-22.4-0.3-33.6c0-1.1,0.3-1.6,1.2-2.1c3.1-1.7,6.2-3.4,9.4-5.2c-6-5.2-11.8-10.2-17.7-15.4c-0.3,0.3-0.6,0.6-0.9,0.9
		c-3,3-6,6-9,9c-0.4,0.4-1.2,0.7-1.8,0.7c-20.1,0-40.2,0-60.4,0c-0.6,0-1.3-0.1-1.8-0.4c-4.7-2.1-9.3-4.3-14-6.5
		c-0.7-0.3-1.5-0.7-2.3-1.1c19.8-20.7,36-43.9,48.9-69.5c0.3,0.4,0.4,0.6,0.5,0.8c7.8,13.9,17,26.9,26.9,39.4
		c10.6,13.5,22.7,25.3,37,35c2.4,1.6,4.9,3.2,7.5,4.9c-0.2-5,2.8-7.3,6.6-8.9c1.5-0.7,3.1-1.2,4.8-1.6c2.5-0.6,5-1,7.5-1.5
		c0-1.5,0-3.1,0-4.6c-0.2-0.1-0.3-0.1-0.4-0.1c-7.7-1-14.8-3.8-21.7-7.3c-10.3-5.4-19.6-12.4-28.4-20
		c-14.4-12.4-26.9-26.3-37.2-42.2c-0.5-0.8-0.5-1.4-0.1-2.2c2.4-4.8,5.3-9.2,11.2-10.7c-8.4-4.4-16.5-8.6-24.7-12.9
		c-0.1,0.3-0.2,0.3-0.2,0.4c-1,8.2-3.2,16.1-6,23.9c-4.5,12.7-10.3,24.8-16.6,36.6c-10.5,19.7-22.8,38.1-37.9,54.6
		c-2.2,2.3-4.4,4.6-6.6,7c0.9,0.6,1.8,1.1,2.6,1.8c0.7,0.6,1.2,0.4,1.8-0.1c8-6.7,15.7-13.8,23-21.2c0.2-0.2,0.5-0.4,0.9-0.8
		c0.1,4.4,0.3,8.6,0.4,12.8c0.3,12.9,0.6,25.8,0.7,38.7c0.1,27.4,0.1,54.8,0,82.2c0,6.6-0.7,13-4.7,18.6c4.7,5.9,9.4,11.7,13.9,17.4
		c1.3-1.9,2.5-4,4.1-5.7c2.2-2.5,4.5-5,6.9-7.3c10.1-9.6,21-18.2,32-26.8c3-2.4,6.1-4.7,9.1-7.1
		C243.5,266.3,242.7,265.1,241.9,263.9z M285.6,218c-0.3,0.3-0.4,0.5-0.6,0.7c-2.5,2.9-5,6-7.7,8.7c-8.6,8.8-18,16.5-27.6,24.1
		c-0.4,0.3-1.1,0.4-1.6,0.2c-5.5-1.9-11-3.8-16.5-5.7c-7.6-2.6-15.2-5.2-22.8-7.7c-0.4-0.1-1.1-0.2-1.2,0.1c-0.8,1-1.4,2.1-2.1,3.2
		c4.3,2.2,8.5,4.2,12.6,6.3c15.1,7.7,29.8,15.9,43.8,25.5c10.9,7.4,21.6,15,31.7,23.5c1.6,1.4,3.3,2.7,5.1,3.8
		c3.3,1.9,5.6,0.9,6.5-2.8c1.5-6.1,0.7-11.9-3-17.1c-2.4-3.4-5.8-5.7-9.3-7.8c-8.9-5.3-18.4-9.7-27.8-14c-3.2-1.5-6.5-2.9-9.8-4.4
		c0.3-0.2,0.5-0.3,0.7-0.4c10.1-4.8,20.1-9.5,30.2-14.3c3.7-1.8,7.4-3.5,11.5-4c2.2-0.3,4.4-0.3,6.7-0.4
		C298,229.7,291.8,223.9,285.6,218z M212.5,114.4c2.1,2.5,4.1,4.9,6.1,7.4c5.6,7.1,11,14.4,14.5,22.9c0.4,0.9,0.9,1.8,1.5,2.6
		c2,2.7,4.3,2.9,6.6,0.4c2.1-2.3,3.5-4.9,4.4-7.9c1.2-4.3,0.3-8-2.9-11.1c-1-1-2-1.9-3.1-2.8c-6.3-4.8-13.3-8.6-20.3-12.2
		C215.8,111.8,215.8,111.9,212.5,114.4z"/>
	<path d="M241.9,263.9c0.8,1.2,1.6,2.4,2.4,3.6c-3.1,2.4-6.1,4.7-9.1,7.1c-11,8.6-21.9,17.2-32,26.8c-2.4,2.3-4.8,4.7-6.9,7.3
		c-1.5,1.8-2.7,3.8-4.1,5.7c-4.5-5.7-9.2-11.5-13.9-17.4c4-5.6,4.7-12.1,4.7-18.6c0-27.4,0.1-54.8,0-82.2
		c-0.1-12.9-0.4-25.8-0.7-38.7c-0.1-4.2-0.3-8.4-0.4-12.8c-0.4,0.3-0.6,0.5-0.9,0.8c-7.3,7.5-14.9,14.6-23,21.2
		c-0.7,0.5-1.1,0.7-1.8,0.1c-0.8-0.6-1.7-1.2-2.6-1.8c2.2-2.4,4.5-4.7,6.6-7c15.1-16.5,27.5-34.9,37.9-54.6
		c6.3-11.9,12.1-24,16.6-36.6c2.8-7.8,5-15.7,6-23.9c0-0.1,0.1-0.1,0.2-0.4c8.1,4.3,16.3,8.5,24.7,12.9c-5.9,1.5-8.8,5.9-11.2,10.7
		c-0.4,0.8-0.4,1.4,0.1,2.2c10.3,15.9,22.9,29.9,37.2,42.2c8.8,7.6,18,14.6,28.4,20c6.8,3.6,14,6.3,21.7,7.3c0.1,0,0.2,0.1,0.4,0.1
		c0,1.5,0,3.1,0,4.6c-2.5,0.5-5,0.9-7.5,1.5c-1.6,0.4-3.2,0.9-4.8,1.6c-3.8,1.6-6.8,4-6.6,8.9c-2.6-1.7-5.1-3.2-7.5-4.9
		c-14.2-9.7-26.3-21.5-37-35c-9.9-12.5-19-25.5-26.9-39.4c-0.1-0.2-0.2-0.4-0.5-0.8c-12.9,25.7-29.1,48.8-48.9,69.5
		c0.8,0.4,1.6,0.8,2.3,1.1c4.7,2.2,9.3,4.4,14,6.5c0.6,0.3,1.2,0.4,1.8,0.4c20.1,0,40.2,0,60.4,0c0.6,0,1.3-0.3,1.8-0.7c3-3,6-6,9-9
		c0.3-0.3,0.6-0.5,0.9-0.9c5.9,5.1,11.7,10.2,17.7,15.4c-3.2,1.8-6.3,3.6-9.4,5.2c-0.9,0.5-1.3,1.1-1.2,2.1
		c0.1,11.2,0.1,22.4,0.3,33.6c0.1,6.9,0.6,13.7,0.8,20.6c0,0.4-0.2,1.1-0.5,1.3c-5.1,3.3-10.3,6.6-15.4,9.9
		c-0.1,0.1-0.2,0.1-0.5,0.2c0-1.9,0-3.8,0-5.7c-22,0-43.9,0-65.9,0c0,20.7,0,41.3,0,62.2C213,278.8,227.4,271.4,241.9,263.9z
		 M264.2,191.1c-22,0-43.9,0-65.8,0c0,8.6,0,17.1,0,25.7c22,0,43.8,0,65.8,0C264.2,208.2,264.2,199.7,264.2,191.1z M198.5,159.2
		c0,8.2,0,16.4,0,24.5c22,0,43.9,0,65.7,0c0-8.2,0-16.4,0-24.5C242.2,159.2,220.4,159.2,198.5,159.2z"/>
	<path d="M285.6,218c6.2,5.8,12.4,11.6,18.6,17.4c-2.3,0.1-4.5,0.1-6.7,0.4c-4.1,0.5-7.8,2.3-11.5,4c-10.1,4.8-20.1,9.5-30.2,14.3
		c-0.2,0.1-0.4,0.2-0.7,0.4c3.3,1.5,6.6,2.9,9.8,4.4c9.5,4.3,18.9,8.6,27.8,14c3.5,2.1,6.9,4.4,9.3,7.8c3.7,5.2,4.5,11,3,17.1
		c-0.9,3.6-3.2,4.7-6.5,2.8c-1.8-1-3.5-2.4-5.1-3.8c-10.1-8.5-20.8-16-31.7-23.5c-14-9.6-28.7-17.8-43.8-25.5
		c-4.2-2.1-8.3-4.2-12.6-6.3c0.7-1.1,1.4-2.2,2.1-3.2c0.2-0.2,0.9-0.2,1.2-0.1c7.6,2.6,15.2,5.1,22.8,7.7c5.5,1.9,11,3.8,16.5,5.7
		c0.5,0.2,1.2,0.1,1.6-0.2c9.6-7.6,19.1-15.3,27.6-24.1c2.7-2.8,5.1-5.8,7.7-8.7C285.1,218.5,285.3,218.3,285.6,218z"/>
	<path d="M212.5,114.4c3.3-2.5,3.3-2.5,6.8-0.7c7,3.6,14,7.4,20.3,12.2c1.1,0.9,2.2,1.8,3.1,2.8c3.1,3.1,4.1,6.9,2.9,11.1
		c-0.8,3-2.3,5.6-4.4,7.9c-2.3,2.5-4.6,2.3-6.6-0.4c-0.6-0.8-1.1-1.7-1.5-2.6c-3.5-8.5-8.9-15.8-14.5-22.9
		C216.6,119.3,214.5,116.9,212.5,114.4z"/>
	<path class="st0" d="M264.2,191.1c0,8.6,0,17.1,0,25.7c-21.9,0-43.8,0-65.8,0c0-8.6,0-17.1,0-25.7
		C220.3,191.1,242.2,191.1,264.2,191.1z"/>
	<path class="st0" d="M198.5,159.2c21.9,0,43.8,0,65.7,0c0,8.2,0,16.3,0,24.5c-21.9,0-43.7,0-65.7,0
		C198.5,175.6,198.5,167.4,198.5,159.2z"/>
</g>
</svg>
