<?xml version="1.0" encoding="utf-8"?>
<!-- Generator: Adobe Illustrator 20.1.0, SVG Export Plug-In . SVG Version: 6.00 Build 0)  -->
<svg version="1.1" id="图层_1" xmlns="http://www.w3.org/2000/svg" xmlns:xlink="http://www.w3.org/1999/xlink" x="0px" y="0px"
	 viewBox="0 0 360 360" style="enable-background:new 0 0 360 360;" xml:space="preserve">
<style type="text/css">
	.st0{fill:#FFFFFF;}
</style>
<g>
	<path class="st0" d="M0.2,360.5c0-120.1,0-240.2,0-360.2c120.1,0,240.2,0,360.2,0c0,120.1,0,240.2,0,360.2
		C240.4,360.5,120.3,360.5,0.2,360.5z M141.7,264c0.3,0.5,0.5,0.9,0.6,1.3c2.1,5.6,4.2,11.2,6.4,16.8c0.6,1.5,1.2,3.1,2.1,4.4
		c1.1,1.6,2.7,1.8,4.3,0.7c0.7-0.4,1.3-1,1.8-1.6c2-2.3,3.7-4.9,4.7-7.9c0.8-2.3,1.3-4.6,1.1-7c-0.2-4.6-2.1-8.5-4.8-12.1
		c-3.8-5.1-8.1-9.6-12.8-13.8c-5.1-4.5-10.3-8.8-15.5-13.2c-0.3-0.3-1-0.6-1.3-0.4c-1.1,0.6-2.1,1.4-3.2,2.1
		c5.2,8.4,10.4,16.7,14.1,25.9c-16.9,6.3-33.7,12.5-50.5,18.8c0-17.4,0-34.5,0-51.6c20,0,39.9,0,60,0c0,2.7,0,5.4,0,8.2
		c4.3-3,8.3-5.9,12.5-8.6c2.1-1.3,2.8-2.6,2.7-5.2c-0.6-12.1-0.8-24.1-1-36.2c-0.1-6.9,0.1-13.8-0.1-20.8c-0.1-2.7,0.6-4.1,3.2-5
		c2.2-0.8,4.2-2,6-3c-5.5-5.5-11-11-16.5-16.5c-2.7,3.1-5.6,6.3-8.5,9.5c-0.5,0.6-1.1,0.9-2,0.9c-17.6,0-35.3,0-52.9,0
		c-0.7,0-1.5-0.2-2.1-0.6c-5.2-3.1-10.4-6.2-15.5-9.3c-0.4-0.2-0.7-0.4-1.2-0.7c0,0.6,0,1.1,0,1.6c0.4,12.9,1,25.9,1.1,38.8
		c0.2,30.8,0,61.7,0.1,92.5c0,5.1-1.6,9.6-5.6,12.9c-0.1,0.1-0.1,0.2-0.2,0.3c4.3,6.6,8.6,13.2,12.9,19.9c0.8-1,1.4-2.1,2.3-2.8
		c3.4-3,6.8-6.2,10.5-8.9c10.7-8,22.2-14.8,33.7-21.6C132.6,269.3,137.1,266.7,141.7,264z M118.3,79.2c0.2,0.1,0.3,0.2,0.4,0.2
		c9.5,6.6,18.8,13.4,27.6,21c6.4,5.6,12.5,11.5,17.3,18.5c1.2,1.8,2.9,3.5,4.6,4.8c2.4,2,4.9,1.4,6.2-1.4c0.9-1.9,1.6-3.9,2-5.9
		c1.2-6,0.2-11.6-4.1-16.3c-2.5-2.7-5.7-4.5-8.9-6.3c-11.1-6.1-22.7-11.1-34.4-16.1c-2.7-1.2-5.5-2.3-8.3-3.5
		c3.8-6.5,7.8-12.6,15.3-15.3c-7.9-4.7-15.7-9.4-23.6-14.1c-0.5,4.7-1.7,9-3.2,13.3c-3.8,10.5-9,20.4-14.5,30.1
		c-12.2,21.9-26.7,42.1-43.9,60.4c-2.2,2.4-4.5,4.7-6.8,7.1c0.9,0.6,1.7,1,2.4,1.6c0.8,0.7,1.4,0.6,2.2-0.1
		c10.6-8.4,20.7-17.4,30.1-27.1c12.4-12.8,23.6-26.7,33.5-41.6C114.3,85.4,116.2,82.3,118.3,79.2z M106.5,108.4
		c0.1,0.2,0,0.3,0.1,0.4c0.2,0.3,0.4,0.7,0.6,1c5.4,8.6,10.2,17.4,13.5,27c0.7,2,1.4,4,2.4,5.9c2,3.7,4.6,4,7.5,0.9
		c0.1-0.1,0.1-0.1,0.2-0.2c1.3-2.1,2.9-4.1,3.9-6.3c2.3-4.8,1.7-9.3-2.1-13.3c-0.8-0.8-1.5-1.7-2.4-2.5c-4.2-3.4-8.4-6.8-12.8-10.1
		c-2.4-1.8-5-3.5-7.4-5.2C108.8,106.9,107.7,107.6,106.5,108.4z"/>
	<path d="M141.7,264c-4.6,2.7-9.1,5.2-13.6,7.9c-11.5,6.8-23,13.6-33.7,21.6c-3.7,2.7-7,5.9-10.5,8.9c-0.9,0.8-1.5,1.8-2.3,2.8
		c-4.3-6.6-8.6-13.3-12.9-19.9c0.1-0.1,0.1-0.3,0.2-0.3c4-3.4,5.7-7.8,5.6-12.9c0-30.8,0.1-61.7-0.1-92.5
		c-0.1-12.9-0.7-25.9-1.1-38.8c0-0.5,0-0.9,0-1.6c0.5,0.3,0.9,0.5,1.2,0.7c5.2,3.1,10.3,6.2,15.5,9.3c0.6,0.4,1.4,0.6,2.1,0.6
		c17.6,0,35.3,0,52.9,0c0.8,0,1.4-0.2,2-0.9c2.8-3.2,5.7-6.5,8.5-9.5c5.5,5.5,11,11,16.5,16.5c-1.9,0.9-3.9,2.2-6,3
		c-2.5,0.9-3.2,2.4-3.2,5c0.2,6.9,0,13.8,0.1,20.8c0.2,12.1,0.5,24.1,1,36.2c0.1,2.6-0.6,3.9-2.7,5.2c-4.2,2.7-8.2,5.6-12.5,8.6
		c0-2.8,0-5.4,0-8.2c-20.1,0-40,0-60,0c0,17.1,0,34.3,0,51.6c16.8-6.3,33.6-12.5,50.5-18.8c-3.7-9.2-8.9-17.5-14.1-25.9
		c1.1-0.7,2.1-1.5,3.2-2.1c0.3-0.2,1,0.1,1.3,0.4c5.2,4.4,10.4,8.7,15.5,13.2c4.7,4.2,9.1,8.7,12.8,13.8c2.7,3.6,4.6,7.5,4.8,12.1
		c0.1,2.4-0.3,4.8-1.1,7c-1.1,2.9-2.7,5.5-4.7,7.9c-0.5,0.6-1.1,1.1-1.8,1.6c-1.6,1.1-3.2,0.9-4.3-0.7c-0.9-1.3-1.5-2.9-2.1-4.4
		c-2.2-5.6-4.3-11.2-6.4-16.8C142.2,264.9,142,264.6,141.7,264z M148.7,185c0-9.4,0-18.8,0-28.1c-20,0-39.9,0-59.9,0
		c0,9.4,0,18.8,0,28.1C108.8,185,128.7,185,148.7,185z M148.7,192.2c-20,0-39.9,0-59.9,0c0,9,0,17.9,0,26.9c20,0,39.9,0,59.9,0
		C148.7,210.1,148.7,201.2,148.7,192.2z"/>
	<path d="M118.3,79.2c-2,3.1-4,6.2-6,9.3c-9.9,14.9-21.1,28.8-33.5,41.6c-9.4,9.7-19.5,18.7-30.1,27.1c-0.8,0.7-1.4,0.8-2.2,0.1
		c-0.7-0.6-1.6-1.1-2.4-1.6c2.3-2.4,4.6-4.7,6.8-7.1c17.1-18.3,31.6-38.5,43.9-60.4c5.4-9.7,10.6-19.6,14.5-30.1
		c1.5-4.3,2.8-8.6,3.2-13.3c7.9,4.7,15.6,9.4,23.6,14.1c-7.5,2.8-11.5,8.8-15.3,15.3c2.9,1.2,5.6,2.3,8.3,3.5
		c11.6,5,23.3,10,34.4,16.1c3.2,1.7,6.3,3.6,8.9,6.3c4.3,4.7,5.3,10.2,4.1,16.3c-0.4,2-1.1,4-2,5.9c-1.3,2.8-3.8,3.4-6.2,1.4
		c-1.7-1.4-3.3-3-4.6-4.8c-4.8-7.1-10.9-13-17.3-18.5c-8.7-7.6-18.1-14.4-27.6-21C118.6,79.3,118.5,79.3,118.3,79.2z"/>
	<path d="M106.5,108.4c1.1-0.8,2.3-1.5,3.5-2.3c2.5,1.7,5,3.3,7.4,5.2c4.3,3.3,8.5,6.7,12.8,10.1c0.9,0.7,1.6,1.6,2.4,2.5
		c3.7,3.9,4.3,8.4,2.1,13.3c-1.1,2.2-2.6,4.2-3.9,6.3c0,0.1-0.1,0.1-0.2,0.2c-2.8,3.1-5.5,2.9-7.5-0.9c-1-1.9-1.7-3.9-2.4-5.9
		c-3.3-9.6-8.2-18.4-13.5-27c-0.2-0.3-0.4-0.7-0.6-1C106.6,108.7,106.6,108.6,106.5,108.4z"/>
	<path class="st0" d="M148.7,185c-20,0-39.9,0-59.9,0c0-9.4,0-18.7,0-28.1c20,0,39.9,0,59.9,0C148.7,166.2,148.7,175.6,148.7,185z"
		/>
	<path class="st0" d="M148.7,192.2c0,9,0,17.9,0,26.9c-20,0-39.9,0-59.9,0c0-9,0-17.9,0-26.9C108.8,192.2,128.7,192.2,148.7,192.2z"
		/>
</g>
</svg>
