<?xml version="1.0" encoding="utf-8"?>
<!-- Generator: Adobe Illustrator 20.1.0, SVG Export Plug-In . SVG Version: 6.00 Build 0)  -->
<svg version="1.1" id="图层_1" xmlns="http://www.w3.org/2000/svg" xmlns:xlink="http://www.w3.org/1999/xlink" x="0px" y="0px"
	 viewBox="0 0 360 360" style="enable-background:new 0 0 360 360;" xml:space="preserve">
<style type="text/css">
	.st0{fill:#FFFFFF;}
</style>
<g>
	<path class="st0" d="M0.2,360.5c0-120.1,0-240.1,0-360.2c120.1,0,240.1,0,360.2,0c0,120,0,240.1,0,360.2
		C240.4,360.5,120.3,360.5,0.2,360.5z M125.3,280.6c43.6,0,87.1,0,130.7,0c0,3.1,0,6.2,0,9.3c5.6-2,11-3.9,16.5-5.9
		c0-0.2,0.1-0.3,0.1-0.4c-0.4-10.9-0.8-21.9-1.1-32.8c-0.1-4.6,0.1-9.1-0.2-13.7c-0.2-2.8,0.7-4.6,3-6.1c2.7-1.7,5.1-3.9,7.7-5.9
		c-6.4-4.8-12.6-9.5-18.9-14.2c-2.6,3.7-5.1,7.3-7.6,10.9c-0.5,0.7-0.9,0.9-1.7,0.9c-17.2,0-34.4,0-51.6,0c-0.4,0-0.7,0-1.2-0.1
		c0.1-0.2,0.1-0.3,0.2-0.3c0.8-0.7,1.6-1.5,2.4-2.2c5.8-5.1,12-9.8,19.1-13.1c3.4-1.6,7-2.7,11-3.1c-6.5-4.8-12.7-9.5-18.9-14.2
		c-2.6,2.9-5,5.7-7.4,8.5c-0.6,0.7-1.1,1-2,1c-13.6,0-27.2,0-40.8,0c-0.4,0-0.8,0-1.2,0c2.4-3.4,7.5-6,13.7-7.1
		c-5.9-4.7-11.7-9.4-17.6-14.1c-0.3,0.4-0.6,0.8-0.9,1.1c-2.6,3.2-5.2,6.5-7.9,9.7c-9.3,10.8-19.8,20.4-30.9,29.2
		c-15.3,12.1-31.4,23.2-48.6,32.4c-2.7,1.5-5.5,2.8-8.4,4.3c0.5,0.8,1.1,1.5,1.5,2.3c0.5,1.1,1.2,1.2,2.4,0.8
		c14.5-5.2,28.5-11.4,42-18.8c0.4-0.2,0.7-0.4,1.4-0.7c-0.3,18.2-0.7,36.1-1,54c0,0,0.2,0,0.4-0.1c5-1.8,10-3.6,15-5.4
		c0.3-0.1,0.7-0.7,0.7-1.1C125.4,283.9,125.3,282.3,125.3,280.6z M56.8,307.5c3.6,3.6,7,7,10.4,10.3c0.2,0.2,0.9,0.2,1.3,0.1
		c8.7-2.3,17.6-3.3,26.6-3.3c75.9,0,151.7,0,227.6,0c0.5,0,1,0,1.8,0c-7.2-7.6-14.2-15-21.3-22.4c-0.4,0.4-0.7,0.7-1,1
		c-4.4,4.4-8.8,8.7-13.1,13.2c-0.8,0.8-1.6,1.1-2.7,1.1c-75.9,0-151.7,0-227.6,0C58.2,307.5,57.7,307.5,56.8,307.5z"/>
	<path d="M125.3,280.6c0,1.7,0,3.3,0,5c0,0.4-0.4,1-0.7,1.1c-5,1.8-10,3.6-15,5.4c-0.2,0.1-0.5,0.1-0.4,0.1c0.3-17.9,0.7-35.8,1-54
		c-0.7,0.3-1.1,0.5-1.4,0.7c-13.5,7.4-27.5,13.6-42,18.8c-1.2,0.4-1.8,0.3-2.4-0.8c-0.4-0.8-0.9-1.5-1.5-2.3
		c2.8-1.4,5.6-2.8,8.4-4.3c17.3-9.2,33.3-20.2,48.6-32.4c11.1-8.8,21.6-18.4,30.9-29.2c2.7-3.1,5.3-6.4,7.9-9.7
		c0.3-0.3,0.5-0.7,0.9-1.1c5.9,4.7,11.7,9.3,17.6,14.1c-6.2,1.1-11.4,3.8-13.7,7.1c0.5,0,0.9,0,1.2,0c13.6,0,27.2,0,40.8,0
		c0.9,0,1.5-0.3,2-1c2.4-2.8,4.9-5.6,7.4-8.5c6.2,4.7,12.4,9.3,18.9,14.2c-4.1,0.5-7.6,1.6-11,3.1c-7.1,3.3-13.3,8-19.1,13.1
		c-0.8,0.7-1.6,1.4-2.4,2.2c-0.1,0-0.1,0.1-0.2,0.3c0.4,0,0.8,0.1,1.2,0.1c17.2,0,34.4,0,51.6,0c0.8,0,1.3-0.3,1.7-0.9
		c2.5-3.6,5-7.2,7.6-10.9c6.3,4.7,12.6,9.4,18.9,14.2c-2.6,2.1-5,4.2-7.7,5.9c-2.3,1.5-3.2,3.3-3,6.1c0.3,4.5,0,9.1,0.2,13.7
		c0.3,10.9,0.7,21.9,1.1,32.8c0,0.1,0,0.2-0.1,0.4c-5.4,1.9-10.8,3.9-16.5,5.9c0-3.2,0-6.2,0-9.3
		C212.4,280.6,168.9,280.6,125.3,280.6z M256,230c-19.6,0-39.2,0-58.7,0c0,6.2,0,12.4,0,18.6c19.6,0,39.2,0,58.7,0
		C256,242.3,256,236.2,256,230z M125.4,248.5c18.8,0,37.6,0,56.3,0c0-6.2,0-12.4,0-18.6c-18.8,0-37.6,0-56.3,0
		C125.4,236.2,125.4,242.4,125.4,248.5z M256,255.9c-19.6,0-39.2,0-58.7,0c0,5.8,0,11.6,0,17.4c19.6,0,39.2,0,58.7,0
		C256,267.4,256,261.7,256,255.9z M181.7,255.9c-18.8,0-37.6,0-56.3,0c0,5.8,0,11.6,0,17.4c18.8,0,37.5,0,56.3,0
		C181.7,267.5,181.7,261.7,181.7,255.9z M131.5,222.7c0.5,0,0.6,0,0.8,0c20.2,0,40.3,0,60.5,0c0.5,0,1.1-0.3,1.4-0.7
		c2.6-3.2,5.1-6.5,7.7-9.7c1.5-1.9,3-3.8,4.6-5.9c-0.6,0-1-0.1-1.4-0.1c-16,0-32,0-48,0c-0.7,0-1.4,0.2-2,0.6c-7.5,5-15,10-22.6,15
		C132.3,222.1,132,222.3,131.5,222.7z"/>
	<path d="M56.8,307.5c0.9,0,1.4,0,1.9,0c75.9,0,151.7,0,227.6,0c1.1,0,1.9-0.3,2.7-1.1c4.3-4.4,8.7-8.8,13.1-13.2
		c0.3-0.3,0.6-0.6,1-1c7,7.4,14,14.8,21.3,22.4c-0.8,0-1.3,0-1.8,0c-75.9,0-151.7,0-227.6,0c-9,0-17.9,1-26.6,3.3
		c-0.4,0.1-1,0.1-1.3-0.1C63.8,314.5,60.5,311.1,56.8,307.5z"/>
	<path class="st0" d="M256,230c0,6.2,0,12.3,0,18.6c-19.6,0-39.1,0-58.7,0c0-6.2,0-12.3,0-18.6C216.8,230,236.3,230,256,230z"/>
	<path class="st0" d="M125.4,248.5c0-6.2,0-12.3,0-18.6c18.8,0,37.5,0,56.3,0c0,6.2,0,12.3,0,18.6
		C163,248.5,144.2,248.5,125.4,248.5z"/>
	<path class="st0" d="M256,255.9c0,5.8,0,11.5,0,17.4c-19.6,0-39.1,0-58.7,0c0-5.8,0-11.5,0-17.4C216.8,255.9,236.3,255.9,256,255.9
		z"/>
	<path class="st0" d="M181.7,255.9c0,5.9,0,11.6,0,17.4c-18.8,0-37.5,0-56.3,0c0-5.8,0-11.6,0-17.4
		C144.2,255.9,162.9,255.9,181.7,255.9z"/>
	<path class="st0" d="M131.5,222.7c0.5-0.4,0.8-0.6,1.1-0.8c7.5-5,15-10,22.6-15c0.6-0.4,1.3-0.6,2-0.6c16,0,32,0,48,0
		c0.4,0,0.8,0,1.4,0.1c-1.6,2.1-3.1,4-4.6,5.9c-2.5,3.2-5.1,6.5-7.7,9.7c-0.3,0.4-1,0.7-1.4,0.7c-20.2,0-40.3,0-60.5,0
		C132.1,222.7,131.9,222.7,131.5,222.7z"/>
</g>
</svg>
