<?xml version="1.0" encoding="utf-8"?>
<!-- Generator: Adobe Illustrator 20.1.0, SVG Export Plug-In . SVG Version: 6.00 Build 0)  -->
<svg version="1.1" id="图层_1" xmlns="http://www.w3.org/2000/svg" xmlns:xlink="http://www.w3.org/1999/xlink" x="0px" y="0px"
	 viewBox="0 0 360 360" style="enable-background:new 0 0 360 360;" xml:space="preserve">
<style type="text/css">
	.st0{fill:#FFFFFF;}
</style>
<g>
	<path class="st0" d="M0.2,360.5c0-120.1,0-240.2,0-360.2c120.1,0,240.2,0,360.2,0c0,120.1,0,240.2,0,360.2
		C240.4,360.5,120.3,360.5,0.2,360.5z M118.2,54.2c-8-4.4-15.7-8.7-23.5-12.9C89,62,80.6,81.6,71.5,100.9
		c-9.1,19.3-19.8,37.7-31.1,55.9c0.7,0.5,1.2,0.8,1.8,1.2c0.6,0.4,1.2,0.8,2,1.3c7.8-9.3,15.5-18.6,23.4-28.1
		c-0.2,40,0,79.8-1.2,119.7c0.3-0.1,0.4-0.1,0.5-0.2c4.7-2.5,9.4-5.1,14.1-7.6c0.3-0.2,0.7-0.8,0.7-1.2c0.1-2.5,0-5,0-7.6
		c0-0.7,0-1.4,0-2.1c20.9,0,41.6,0,62.5,0c0,4.3,0,8.5,0,12.9c5.1-3.1,9.9-6.1,14.8-9.1c0.3-0.2,0.5-0.7,0.5-1.1
		c-0.2-5.6-0.4-11.1-0.5-16.7c-0.2-11.1-0.4-22.1-0.5-33.2c-0.1-14.2-0.1-28.3-0.1-42.5c0-1.6-0.4-3.3,0.2-4.6
		c0.6-1.3,2.2-2.1,3.4-3.2c1.9-1.7,3.9-3.4,5.9-5.2c-6-4.8-11.8-9.4-17.7-14.2c-2.2,3.3-4.3,6.4-6.4,9.6c-0.5,0.8-1,1.1-1.9,1.1
		c-8.5,0-17,0-25.4,0c-0.4,0-0.8,0-1.4,0c0.2-0.4,0.2-0.6,0.3-0.7c5.5-8.8,11.1-17.7,17.5-25.9c3.8-4.8,7.9-9.3,13.4-12.2
		c1.9-1,4.1-1.7,5.9-2.5c-5.3-5.3-10.8-10.8-16.3-16.3c-3.2,3.2-6.4,6.4-9.7,9.7c-0.6,0.6-1.2,0.8-2,0.8c-8.2,0-16.3,0-24.5,0
		c-0.4,0-0.8,0-1.3,0c0.2-0.5,0.4-0.9,0.6-1.2c2.3-3.9,4.4-7.9,6.9-11.7C108.9,61.3,112.6,56.9,118.2,54.2z M62.6,299
		c2.7-1.7,5.2-3.7,8-5c6.7-3.1,13.4-6.1,20.2-8.7c22.8-8.5,46.1-15.2,69.5-21.9c3.6-1,7.1-2,10.8-3.1c-0.4-1.2-0.8-2.4-1.2-3.6
		c-0.5,0.1-1,0.2-1.4,0.3c-13.8,2.8-27.5,5.6-41.3,8.3c-14.7,2.8-29.3,5.6-44,8.2c-8.2,1.5-16.5,2.6-24.7,3.8
		c-2.4,0.4-4.9,0.5-7.5,0.8C55,285.3,58.9,292.2,62.6,299z"/>
	<path d="M118.2,54.2c-5.7,2.6-9.3,7-12.5,11.9c-2.5,3.8-4.6,7.8-6.9,11.7c-0.2,0.3-0.3,0.7-0.6,1.2c0.5,0,0.9,0,1.3,0
		c8.2,0,16.3,0,24.5,0c0.8,0,1.4-0.2,2-0.8c3.2-3.3,6.5-6.5,9.7-9.7c5.5,5.5,11,11,16.3,16.3c-1.9,0.8-4,1.5-5.9,2.5
		c-5.5,2.9-9.6,7.4-13.4,12.2c-6.4,8.2-12,17.1-17.5,25.9c-0.1,0.2-0.2,0.3-0.3,0.7c0.6,0,1,0,1.4,0c8.5,0,17,0,25.4,0
		c0.9,0,1.4-0.3,1.9-1.1c2.1-3.2,4.2-6.3,6.4-9.6c5.9,4.7,11.8,9.4,17.7,14.2c-2,1.8-3.9,3.5-5.9,5.2c-1.2,1-2.8,1.9-3.4,3.2
		c-0.6,1.3-0.2,3.1-0.2,4.6c0,14.2,0,28.3,0.1,42.5c0.1,11.1,0.3,22.1,0.5,33.2c0.1,5.6,0.4,11.1,0.5,16.7c0,0.4-0.2,0.9-0.5,1.1
		c-4.8,3-9.7,6-14.8,9.1c0-4.4,0-8.6,0-12.9c-20.9,0-41.6,0-62.5,0c0,0.7,0,1.4,0,2.1c0,2.5,0,5,0,7.6c0,0.4-0.3,1-0.7,1.2
		c-4.7,2.6-9.4,5.1-14.1,7.6c-0.1,0.1-0.2,0.1-0.5,0.2c1.2-39.9,1-79.7,1.2-119.7c-7.9,9.4-15.6,18.7-23.4,28.1
		c-0.8-0.5-1.4-0.9-2-1.3c-0.6-0.4-1.1-0.8-1.8-1.2c11.3-18.2,22-36.6,31.1-55.9C80.6,81.6,89,62,94.8,41.3
		C102.5,45.6,110.3,49.9,118.2,54.2z M75.8,119.1c2.2,2.2,4.2,4.3,6.3,6.3c0.5,0.4,1.2,0.8,1.9,0.8c7.8,0.1,15.7,0,23.5,0.1
		c0.9,0,1.4-0.3,1.8-1.1c5.5-12.6,11.1-25.1,16.6-37.7c0.2-0.3,0.3-0.7,0.4-1.1c-0.3,0-0.5-0.1-0.6-0.1c-9.7,0-19.4,0-29,0
		c-0.5,0-1.1,0.4-1.3,0.9c-3.2,5-6.5,10.1-9.6,15.2C82.3,107.7,79.1,113.4,75.8,119.1z M119.5,225c8.2,0,16.3,0,24.5,0
		c0-14.5,0-28.9,0-43.4c-8.2,0-16.3,0-24.5,0C119.5,196.1,119.5,210.5,119.5,225z M105.2,181.7c-7.8,0-15.6,0-23.4,0
		c0,14.5,0,28.9,0,43.3c7.8,0,15.5,0,23.4,0C105.2,210.6,105.2,196.2,105.2,181.7z M144,133.3c-8.2,0-16.3,0-24.5,0
		c0,13.7,0,27.4,0,41c8.2,0,16.3,0,24.5,0C144,160.7,144,147,144,133.3z M81.8,133.3c0,13.7,0,27.3,0,41.1c7.8,0,15.5,0,23.4,0
		c0-13.7,0-27.3,0-41.1C97.3,133.3,89.6,133.3,81.8,133.3z"/>
	<path d="M62.6,299c-3.8-6.8-7.6-13.8-11.6-20.8c2.6-0.3,5-0.4,7.5-0.8c8.3-1.2,16.5-2.4,24.7-3.8c14.7-2.6,29.4-5.4,44-8.2
		c13.8-2.7,27.6-5.5,41.3-8.3c0.4-0.1,0.9-0.2,1.4-0.3c0.4,1.2,0.8,2.3,1.2,3.6c-3.7,1-7.3,2-10.8,3.1
		c-23.4,6.7-46.7,13.4-69.5,21.9c-6.9,2.6-13.6,5.6-20.2,8.7C67.9,295.4,65.4,297.3,62.6,299z"/>
	<path class="st0" d="M75.8,119.1c3.3-5.7,6.6-11.3,9.9-16.8c3.1-5.1,6.4-10.2,9.6-15.2c0.3-0.4,0.9-0.9,1.3-0.9c9.7,0,19.4,0,29,0
		c0.2,0,0.3,0,0.6,0.1c-0.2,0.4-0.3,0.8-0.4,1.1c-5.5,12.6-11.1,25.1-16.6,37.7c-0.4,0.9-0.8,1.1-1.8,1.1c-7.8,0-15.7,0-23.5-0.1
		c-0.6,0-1.4-0.3-1.9-0.8C80,123.3,78,121.2,75.8,119.1z"/>
	<path class="st0" d="M119.5,225c0-14.5,0-28.9,0-43.4c8.2,0,16.3,0,24.5,0c0,14.4,0,28.9,0,43.4C135.8,225,127.7,225,119.5,225z"/>
	<path class="st0" d="M105.2,181.7c0,14.5,0,28.9,0,43.3c-7.8,0-15.5,0-23.4,0c0-14.5,0-28.8,0-43.3
		C89.6,181.7,97.3,181.7,105.2,181.7z"/>
	<path class="st0" d="M144,133.3c0,13.7,0,27.3,0,41c-8.2,0-16.3,0-24.5,0c0-13.7,0-27.3,0-41C127.7,133.3,135.8,133.3,144,133.3z"
		/>
	<path class="st0" d="M81.8,133.3c7.8,0,15.5,0,23.4,0c0,13.7,0,27.4,0,41.1c-7.8,0-15.5,0-23.4,0C81.8,160.7,81.8,147,81.8,133.3z"
		/>
</g>
</svg>
