<?xml version="1.0" encoding="utf-8"?>
<!-- Generator: Adobe Illustrator 20.1.0, SVG Export Plug-In . SVG Version: 6.00 Build 0)  -->
<svg version="1.1" id="图层_1" xmlns="http://www.w3.org/2000/svg" xmlns:xlink="http://www.w3.org/1999/xlink" x="0px" y="0px"
	 viewBox="0 0 360 360" style="enable-background:new 0 0 360 360;" xml:space="preserve">
<style type="text/css">
	.st0{fill:#FFFFFF;}
</style>
<g>
	<path class="st0" d="M0.2,360.5c0-120.1,0-240.2,0-360.2c120.1,0,240.2,0,360.2,0c0,120.1,0,240.2,0,360.2
		C240.4,360.5,120.3,360.5,0.2,360.5z M302,268.7c-0.4,0.4-0.7,0.7-1,1c-4.1,4.1-8.2,8.2-12.3,12.3c-0.6,0.6-1.2,0.8-2,0.8
		c-9.4,0-18.7,0-28.1,0c-0.4,0-0.8,0-1.3,0c0-19.7,0-39.2,0-58.8c18.4,0,36.7,0,55.3,0c-6.4-6.8-12.7-13.4-18.9-20.1
		c-4.1,4.1-8.1,8.1-12.1,12.2c-0.6,0.6-1.2,0.8-2,0.8c-7,0-14,0-21,0c-0.4,0-0.8,0-1.3-0.1c0-16.5,0-32.9,0-49.4
		c18.4,0,36.7,0,55.3,0c-6.4-6.8-12.6-13.4-18.9-20c-0.4,0.4-0.7,0.6-0.9,0.9c-3.8,3.8-7.5,7.5-11.3,11.3c-0.4,0.4-1.2,0.8-1.8,0.8
		c-7,0.1-14.1,0-21.1,0c-0.4,0-0.8,0-1.2-0.1c0-17.3,0-34.5,0-51.8c20.8,0,41.4,0,62.3,0c-6.8-7.2-13.4-14.2-20.2-21.4
		c-0.4,0.5-0.6,0.9-0.9,1.2c-4.1,4.1-8.2,8.2-12.3,12.3c-0.6,0.6-1.2,0.9-2.1,0.9c-28.5,0-57,0-85.6,0c-0.4,0-0.8,0-1.4,0
		c0.1-0.4,0.2-0.5,0.2-0.7c3.7-8.3,7.6-16.5,12.3-24.2c2.9-4.8,5.8-9.7,10.9-12.8c-7.8-5.5-15.6-10.9-23.5-16.4
		c-8.8,38.1-22.8,73.8-44.9,105.9c1.3,1.3,2.4,2.4,3.7,3.7c10.4-10.6,19.2-22.7,28-34.7c0.1,65,0.2,129.9-0.9,195
		c5.3-2.3,10.3-4.5,15.4-6.6c0.8-0.3,1.1-0.7,1.1-1.6c0-5.8,0-11.6,0-17.4c0-0.5,0-0.9,0-1.6c40.9,0,81.6,0,122.5,0
		C315.3,282.7,308.7,275.7,302,268.7z"/>
	<path d="M302,268.7c6.7,7.1,13.3,14.1,20,21.2c-40.9,0-81.7,0-122.5,0c0,0.6,0,1.1,0,1.6c0,5.8,0,11.6,0,17.4
		c0,0.9-0.3,1.2-1.1,1.6c-5.1,2.1-10.2,4.4-15.4,6.6c1.2-65.1,1-130,0.9-195c-8.8,12.1-17.6,24.1-28,34.7c-1.2-1.2-2.4-2.4-3.7-3.7
		c22.1-32.2,36-67.8,44.9-105.9c7.8,5.5,15.6,10.9,23.5,16.4c-5,3.2-7.9,8-10.9,12.8c-4.7,7.8-8.6,16-12.3,24.2
		c-0.1,0.2-0.1,0.4-0.2,0.7c0.5,0,1,0,1.4,0c28.5,0,57,0,85.6,0c0.9,0,1.5-0.2,2.1-0.9c4.1-4.1,8.2-8.2,12.3-12.3
		c0.3-0.3,0.5-0.7,0.9-1.2c6.8,7.2,13.4,14.2,20.2,21.4c-20.9,0-41.6,0-62.3,0c0,17.3,0,34.5,0,51.8c0.4,0,0.8,0.1,1.2,0.1
		c7,0,14.1,0,21.1,0c0.6,0,1.4-0.3,1.8-0.8c3.8-3.7,7.5-7.5,11.3-11.3c0.3-0.3,0.6-0.5,0.9-0.9c6.2,6.6,12.5,13.2,18.9,20
		c-18.6,0-36.9,0-55.3,0c0,16.5,0,32.9,0,49.4c0.4,0,0.9,0.1,1.3,0.1c7,0,14,0,21,0c0.8,0,1.4-0.2,2-0.8c4-4,8-8.1,12.1-12.2
		c6.3,6.7,12.5,13.3,18.9,20.1c-18.6,0-37,0-55.3,0c0,19.6,0,39.1,0,58.8c0.4,0,0.9,0,1.3,0c9.4,0,18.7,0,28.1,0
		c0.8,0,1.4-0.2,2-0.8c4.1-4.1,8.2-8.2,12.3-12.3C301.3,269.3,301.6,269,302,268.7z M241.9,224c-14.1,0-28.1,0-42.2,0
		c0,19.6,0,39.1,0,58.7c14.1,0,28.1,0,42.2,0C241.9,263.1,241.9,243.6,241.9,224z M241.9,108.6c-14.2,0-28.2,0-42.2,0
		c0,17.3,0,34.4,0,51.6c14.1,0,28.1,0,42.2,0C241.9,143,241.9,125.8,241.9,108.6z M199.7,167.5c0,16.5,0,32.9,0,49.3
		c14.1,0,28.1,0,42.2,0c0-16.5,0-32.9,0-49.3C227.8,167.5,213.8,167.5,199.7,167.5z"/>
	<path class="st0" d="M241.9,224c0,19.6,0,39.1,0,58.7c-14.1,0-28.1,0-42.2,0c0-19.6,0-39.1,0-58.7C213.7,224,227.8,224,241.9,224z"
		/>
	<path class="st0" d="M241.9,108.6c0,17.2,0,34.4,0,51.6c-14.1,0-28.1,0-42.2,0c0-17.2,0-34.3,0-51.6
		C213.7,108.6,227.7,108.6,241.9,108.6z"/>
	<path class="st0" d="M199.7,167.5c14.1,0,28.1,0,42.2,0c0,16.4,0,32.8,0,49.3c-14,0-28,0-42.2,0C199.7,200.4,199.7,184,199.7,167.5
		z"/>
</g>
</svg>
