<?xml version="1.0" encoding="utf-8"?>
<!-- Generator: Adobe Illustrator 20.1.0, SVG Export Plug-In . SVG Version: 6.00 Build 0)  -->
<svg version="1.1" id="图层_1" xmlns="http://www.w3.org/2000/svg" xmlns:xlink="http://www.w3.org/1999/xlink" x="0px" y="0px"
	 viewBox="0 0 360 360" style="enable-background:new 0 0 360 360;" xml:space="preserve">
<style type="text/css">
	.st0{fill:#FFFFFF;}
</style>
<g>
	<path class="st0" d="M0.2,360.5c0-120.1,0-240.2,0-360.2c120.1,0,240.2,0,360.2,0c0,120.1,0,240.2,0,360.2
		C240.4,360.5,120.3,360.5,0.2,360.5z M116.1,88.4c0.2-0.4,0.3-0.6,0.4-0.8c5.2-7,10.6-13.9,16.9-19.9c3.1-3,6.4-5.7,10.3-7.6
		c0.9-0.4,1.8-0.8,2.8-1.2c-7.1-5.5-14.1-11-21.1-16.4c-8.4,20.2-20.1,38.4-32.5,56.2c-12.5,17.9-27,34-43,48.7
		c0.8,1.3,1.6,2.4,2.4,3.6c9.9-6.5,19.1-13.5,27.8-21.3c8.6-7.8,16.5-16.2,23.8-25.4c0.2,0,0.3,0.1,0.5,0.1
		c-0.3,33.5-0.7,67-1,100.6c0.2-0.1,0.5-0.1,0.8-0.2c4.8-1.7,9.6-3.5,14.4-5.1c0.8-0.3,1.1-0.7,1.1-1.5c-0.1-2.7,0-5.4,0-8.2
		c62.4,0,124.7,0,187.3,0c-6.8-7.6-13.4-15-20.1-22.5c-0.4,0.3-0.7,0.6-1.1,0.9c-5.7,4.6-11.3,9.2-17,13.7c-0.5,0.4-1.3,0.7-1.9,0.7
		c-22,0-43.9,0-65.9,0c-0.4,0-0.8,0-1.2,0c0-8.3,0-16.4,0-24.7c28.2,0,56.3,0,84.8,0c-6.8-7.2-13.4-14.2-20.1-21.2
		c-0.3,0.2-0.5,0.4-0.7,0.6c-5.4,4.3-10.7,8.6-16.1,12.9c-0.5,0.4-1.3,0.7-1.9,0.7c-14.9,0-29.8,0-44.6,0c-0.4,0-0.8,0-1.3-0.1
		c0-7.9,0-15.6,0-23.4c28.2,0,56.4,0,84.8,0c-6.8-7.6-13.4-15-20-22.4c-0.3,0.2-0.5,0.4-0.7,0.6c-5,4.6-10,9.3-15,14
		c-0.6,0.6-1.2,0.8-2,0.8c-15.2,0-30.5,0-45.7,0c-0.4,0-0.8,0-1.3,0c0-8.3,0-16.5,0-24.8c33.7,0,67.3,0,101.2,0
		c-7.2-7.6-14.2-15-21.2-22.4c-0.3,0.3-0.5,0.4-0.7,0.6c-5,4.6-10,9.3-15.1,13.9c-0.5,0.5-1.3,0.8-2,0.8c-48.1,0-96.2,0-144.3,0
		C117.1,88.4,116.7,88.4,116.1,88.4z"/>
	<path d="M116.1,88.4c0.6,0,1,0,1.5,0c48.1,0,96.2,0,144.3,0c0.7,0,1.5-0.3,2-0.8c5.1-4.6,10-9.3,15.1-13.9c0.2-0.2,0.4-0.4,0.7-0.6
		c7,7.4,14,14.8,21.2,22.4c-33.9,0-67.5,0-101.2,0c0,8.3,0,16.4,0,24.8c0.4,0,0.9,0,1.3,0c15.2,0,30.5,0,45.7,0c0.8,0,1.4-0.2,2-0.8
		c5-4.7,10-9.3,15-14c0.2-0.2,0.4-0.3,0.7-0.6c6.6,7.4,13.2,14.8,20,22.4c-28.4,0-56.5,0-84.8,0c0,7.9,0,15.6,0,23.4
		c0.4,0,0.8,0.1,1.3,0.1c14.9,0,29.8,0,44.6,0c0.6,0,1.4-0.3,1.9-0.7c5.4-4.3,10.8-8.6,16.1-12.9c0.2-0.2,0.4-0.3,0.7-0.6
		c6.6,7,13.2,14,20.1,21.2c-28.4,0-56.6,0-84.8,0c0,8.3,0,16.4,0,24.7c0.5,0,0.8,0,1.2,0c22,0,43.9,0,65.9,0c0.6,0,1.4-0.3,1.9-0.7
		c5.7-4.5,11.3-9.1,17-13.7c0.3-0.3,0.7-0.5,1.1-0.9c6.7,7.4,13.3,14.8,20.1,22.5c-62.6,0-124.9,0-187.3,0c0,2.8,0,5.5,0,8.2
		c0,0.8-0.2,1.3-1.1,1.5c-4.8,1.7-9.6,3.4-14.4,5.1c-0.3,0.1-0.6,0.2-0.8,0.2c0.3-33.5,0.7-67.1,1-100.6c-0.2,0-0.3-0.1-0.5-0.1
		c-7.2,9.1-15.1,17.6-23.8,25.4c-8.7,7.8-17.9,14.9-27.8,21.3c-0.8-1.2-1.6-2.3-2.4-3.6c16.1-14.7,30.6-30.8,43-48.7
		c12.4-17.8,24.2-35.9,32.5-56.2c7,5.4,14,10.9,21.1,16.4c-1,0.4-1.9,0.8-2.8,1.2c-3.9,1.9-7.2,4.6-10.3,7.6
		c-6.3,6-11.7,12.9-16.9,19.9C116.4,87.8,116.3,88.1,116.1,88.4z M184.1,95.6c-21.6,0-43,0-64.5,0c0,8.2,0,16.4,0,24.6
		c21.5,0,43,0,64.5,0C184.1,111.9,184.1,103.8,184.1,95.6z M119.6,158c0,8.2,0,16.4,0,24.5c21.5,0,43,0,64.5,0c0-8.2,0-16.3,0-24.5
		C162.5,158,141.1,158,119.6,158z M184.1,127.5c-21.6,0-43,0-64.5,0c0,7.8,0,15.5,0,23.3c21.5,0,43,0,64.5,0
		C184.1,143,184.1,135.3,184.1,127.5z"/>
	<path class="st0" d="M184.1,95.6c0,8.2,0,16.4,0,24.6c-21.5,0-42.9,0-64.5,0c0-8.2,0-16.3,0-24.6C141,95.6,162.5,95.6,184.1,95.6z"
		/>
	<path class="st0" d="M119.6,158c21.5,0,43,0,64.5,0c0,8.2,0,16.3,0,24.5c-21.5,0-42.9,0-64.5,0C119.6,174.4,119.6,166.2,119.6,158z
		"/>
	<path class="st0" d="M184.1,127.5c0,7.8,0,15.5,0,23.3c-21.5,0-42.9,0-64.5,0c0-7.7,0-15.4,0-23.3
		C141,127.5,162.5,127.5,184.1,127.5z"/>
</g>
</svg>
