<?xml version="1.0" encoding="utf-8"?>
<!-- Generator: Adobe Illustrator 20.1.0, SVG Export Plug-In . SVG Version: 6.00 Build 0)  -->
<svg version="1.1" id="图层_1" xmlns="http://www.w3.org/2000/svg" xmlns:xlink="http://www.w3.org/1999/xlink" x="0px" y="0px"
	 viewBox="0 0 360 360" style="enable-background:new 0 0 360 360;" xml:space="preserve">
<style type="text/css">
	.st0{fill:#FFFFFF;}
</style>
<g>
	<path class="st0" d="M0.2,360.5c0-120.1,0-240.2,0-360.2c120.1,0,240.2,0,360.2,0c0,120.1,0,240.2,0,360.2
		C240.4,360.5,120.3,360.5,0.2,360.5z M92.4,132.1c-0.1,0.2-0.1,0.3-0.1,0.4c0.3,8.3,0.6,16.7,0.8,25c0.2,13,0.4,26,0.3,39
		c-0.1,10.1-0.5,20.2-1,30.3c-0.4,7.4-1.2,14.7-2.8,22c-3.1,13.3-8.3,25.7-16.7,36.5c-6,7.8-12.9,14.7-20.1,21.4
		c-2.5,2.3-5,4.5-7.5,6.8c0.7,1,1.3,2,2,3c0.1,0.2,0.2,0.3,0.4,0.5c0.2-0.1,0.3-0.2,0.4-0.2c10.5-6.7,20.6-13.9,29.8-22.3
		c6.8-6.2,13.1-12.9,17.9-20.8c7.6-12.5,11-26.3,12.5-40.7c0.7-6.9,0.7-13.9,0.6-20.8c-0.1-20.7,0-41.4,0-62c0-0.5,0-0.9,0-1.4
		c46.8,0,93.4,0,140.1,0c0,0.6,0,1.1,0,1.6c0,20.3,0,40.6,0.1,60.8c0.1,10.8,1.3,21.5,3.4,32.1c3.5,17.4,10.3,33.1,22.2,46.4
		c9.7,10.9,20.9,19.5,34.6,24.6c3,1.1,6,2,9,2.9c1.4-2.3,1.4-2.3,1.1-3.4c-2.2-7.6-3.2-15.4-3.4-23.3c-0.3-10.4,1.2-20.7,2.6-30.9
		c0.3-2.4,0.7-4.9,1.1-7.4c-1.6-0.4-3.2-0.8-4.8-1.2c-3.9,13.8-7.8,27.4-11.8,41.1c-0.3-0.1-0.4-0.1-0.6-0.2
		c-5.1-2.6-9.6-6-13.6-10.1c-9.8-10.2-16.3-22.3-20-35.9c-3.2-12-4.5-24.4-4.6-36.8c-0.1-18.6,0-37.3,0-55.9c0-0.8,0.2-1.2,0.9-1.7
		c1.9-1.2,3.8-2.5,5.7-3.8c1.3-0.9,2.6-1.8,4.1-2.7c-6.4-5.2-12.6-10.3-18.9-15.4c-3.4,3.7-6.6,7.3-9.8,10.9c-0.5,0.6-1.1,0.9-2,0.9
		c-44.4,0-88.9,0-133.3,0c-0.6,0-1.3-0.2-1.9-0.5c-4-2.1-8-4.2-12-6.3C95.6,133.7,94,132.9,92.4,132.1z M123,254.5
		c0.4-0.2,0.8-0.3,1.1-0.5c4-1.8,7.9-3.7,11.9-5.4c1.7-0.7,2.7-1.6,2.2-3.5c-0.1-0.3,0-0.7,0.1-1c9.8,0,19.6,0,29.3,0
		c0,0.3,0.1,0.4,0.1,0.6c0,10.4,0,20.9,0,31.3c0,0.8-0.3,1-1.1,1c-19,0.7-38.1,1.5-57.1,2.3c-0.2,0-0.4,0.1-0.7,0.2
		c3.5,6.7,7,13.3,10.6,20c1.2-1.9,2.7-3.1,4.6-3.8c2.9-1.1,5.8-2.2,8.8-2.7c12.9-2,25.8-3.8,38.8-5.6c9.1-1.3,18.3-2.4,27.5-3.5
		c8.5-1.1,17-2.1,25.6-3.2c0.7-0.1,1,0.2,1.2,0.8c0.8,2.2,1.7,4.4,2.5,6.6c1.3,4,2.6,8.1,3.8,12.1c1,3.2,3,4,5.9,2.2
		c0.2-0.1,0.3-0.2,0.5-0.3c6.6-4.6,8.8-13,5.2-20.2c-1.2-2.5-2.8-4.8-4.5-7.1c-5.5-7.4-12-13.9-18.5-20.3c-1.2-1.1-2.3-2.3-3.5-3.4
		c-1.2,0.8-2.4,1.6-3.4,2.3c3.5,7.1,7,14.1,10.6,21.3c-14.4,0.4-28.4,0.8-42.4,1.2c0-10.7,0-21.2,0-31.7c9.8,0,19.5,0,29.3,0
		c0,1.9,0,3.8,0,5.7c0.2,0,0.3,0,0.4-0.1c4.8-2.9,9.6-5.9,14.4-8.9c0.3-0.2,0.5-0.8,0.5-1.2c-1-7.2-1-14.4-1-21.7
		c0-0.8,0.3-1.3,1-1.7c2.5-1.5,4.9-3,7.3-4.6c0.4-0.2,0.7-0.5,1.1-0.8c-5.6-4.8-11-9.5-16.5-14.2c-2.6,2.9-5,5.7-7.5,8.6
		c-0.5,0.6-1,0.9-1.8,0.9c-8.6,0-17.3,0-25.9,0c-0.4,0-0.8,0-1.1-0.1c0-8.6,0-17.2,0-25.8c18.8-1.4,37.4-3.5,56.5-3.5
		c-5.7-6.1-11.1-11.9-16.5-17.7c-0.8,0.4-1.5,0.8-2.1,1.1c-5.1,2.5-10.5,4-16,5.4c-12,3-24.1,5.1-36.3,6.7c-14,1.9-28,3.4-42,5.1
		c-2,0.2-4,0.4-6.1,0.6c0,1.6,0,3.1,0,4.9c16.1-0.4,32.1-0.8,48.2-1.2c0,8.2,0,16.3,0,24.5c-0.3,0-0.6,0.1-0.8,0.1
		c-8.9,0-17.8,0-26.8,0c-0.5,0-1.1-0.2-1.6-0.4c-4.8-2.4-9.6-4.8-14.4-7.2c-0.4-0.2-0.7-0.3-1.2-0.5
		C124.3,216.9,124.6,235.6,123,254.5z"/>
	<path d="M92.4,132.1c1.6,0.8,3.1,1.7,4.7,2.5c4,2.1,8,4.3,12,6.3c0.6,0.3,1.3,0.5,1.9,0.5c44.4,0,88.9,0,133.3,0
		c0.8,0,1.4-0.2,2-0.9c3.2-3.6,6.5-7.2,9.8-10.9c6.3,5.1,12.5,10.2,18.9,15.4c-1.4,1-2.7,1.8-4.1,2.7c-1.9,1.3-3.8,2.6-5.7,3.8
		c-0.7,0.4-0.9,0.9-0.9,1.7c0,18.6-0.1,37.3,0,55.9c0.1,12.4,1.4,24.7,4.6,36.8c3.7,13.7,10.3,25.7,20,35.9
		c3.9,4.1,8.5,7.5,13.6,10.1c0.1,0.1,0.3,0.1,0.6,0.2c3.9-13.7,7.8-27.4,11.8-41.1c1.6,0.4,3.1,0.8,4.8,1.2
		c-0.4,2.5-0.8,4.9-1.1,7.4c-1.4,10.3-2.9,20.5-2.6,30.9c0.2,7.9,1.2,15.7,3.4,23.3c0.3,1.1,0.3,1.1-1.1,3.4c-3-0.9-6-1.8-9-2.9
		c-13.8-5.1-25-13.7-34.6-24.6c-11.9-13.4-18.7-29.1-22.2-46.4c-2.1-10.6-3.4-21.3-3.4-32.1c-0.2-20.3-0.1-40.6-0.1-60.8
		c0-0.5,0-1,0-1.6c-46.7,0-93.3,0-140.1,0c0,0.5,0,1,0,1.4c0,20.7-0.1,41.4,0,62c0,7,0.1,13.9-0.6,20.8
		c-1.4,14.4-4.9,28.2-12.5,40.7c-4.8,7.9-11.1,14.6-17.9,20.8c-9.2,8.4-19.3,15.6-29.8,22.3c-0.1,0.1-0.3,0.1-0.4,0.2
		c-0.2-0.2-0.3-0.3-0.4-0.5c-0.7-1-1.3-2-2-3c2.5-2.3,5.1-4.5,7.5-6.8c7.2-6.7,14.1-13.6,20.1-21.4c8.4-10.9,13.6-23.2,16.7-36.5
		c1.7-7.2,2.5-14.6,2.8-22c0.5-10.1,0.9-20.2,1-30.3c0.1-13-0.1-26-0.3-39c-0.1-8.3-0.5-16.7-0.8-25
		C92.3,132.4,92.4,132.3,92.4,132.1z"/>
	<path d="M123,254.5c1.6-18.9,1.3-37.6,0-56.5c0.4,0.2,0.8,0.3,1.2,0.5c4.8,2.4,9.6,4.8,14.4,7.2c0.5,0.2,1,0.4,1.6,0.4
		c8.9,0,17.8,0,26.8,0c0.2,0,0.5,0,0.8-0.1c0-8.2,0-16.3,0-24.5c-16.1,0.4-32.1,0.8-48.2,1.2c0-1.8,0-3.3,0-4.9
		c2-0.2,4.1-0.3,6.1-0.6c14-1.7,28-3.2,42-5.1c12.2-1.6,24.3-3.7,36.3-6.7c5.5-1.4,10.9-2.9,16-5.4c0.7-0.3,1.3-0.7,2.1-1.1
		c5.4,5.8,10.9,11.6,16.5,17.7c-19.1,0-37.7,2.1-56.5,3.5c0,8.6,0,17.2,0,25.8c0.4,0,0.8,0.1,1.1,0.1c8.6,0,17.3,0,25.9,0
		c0.8,0,1.3-0.3,1.8-0.9c2.4-2.9,4.9-5.7,7.5-8.6c5.5,4.7,10.9,9.4,16.5,14.2c-0.4,0.3-0.8,0.5-1.1,0.8c-2.4,1.5-4.9,3.1-7.3,4.6
		c-0.7,0.4-1,0.9-1,1.7c0.1,7.2,0.1,14.5,1,21.7c0,0.4-0.2,1-0.5,1.2c-4.8,3-9.6,5.9-14.4,8.9c-0.1,0-0.1,0-0.4,0.1
		c0-1.9,0-3.7,0-5.7c-9.8,0-19.5,0-29.3,0c0,10.5,0,21,0,31.7c14-0.4,28-0.8,42.4-1.2c-3.6-7.2-7.1-14.2-10.6-21.3
		c1.1-0.7,2.2-1.5,3.4-2.3c1.2,1.1,2.4,2.3,3.5,3.4c6.5,6.4,13,12.9,18.5,20.3c1.7,2.2,3.2,4.6,4.5,7.1c3.6,7.2,1.4,15.6-5.2,20.2
		c-0.2,0.1-0.3,0.2-0.5,0.3c-2.9,1.8-4.8,1-5.9-2.2c-1.3-4-2.5-8.1-3.8-12.1c-0.7-2.2-1.7-4.4-2.5-6.6c-0.2-0.6-0.5-0.9-1.2-0.8
		c-8.5,1.1-17,2.1-25.6,3.2c-9.2,1.2-18.3,2.3-27.5,3.5c-12.9,1.8-25.9,3.6-38.8,5.6c-3,0.5-5.9,1.7-8.8,2.7
		c-1.9,0.7-3.4,1.9-4.6,3.8c-3.5-6.7-7-13.3-10.6-20c0.3-0.1,0.5-0.2,0.7-0.2c19-0.8,38.1-1.5,57.1-2.3c0.7,0,1.1-0.2,1.1-1
		c0-10.4,0-20.9,0-31.3c0-0.2,0-0.3-0.1-0.6c-9.8,0-19.5,0-29.3,0c0,0.4-0.1,0.7-0.1,1c0.4,1.9-0.6,2.8-2.2,3.5
		c-4,1.7-7.9,3.6-11.9,5.4C123.8,254.2,123.5,254.3,123,254.5z M138.4,213.4c0,7.9,0,15.6,0,23.4c9.8,0,19.6,0,29.3,0
		c0-7.8,0-15.6,0-23.4C157.9,213.4,148.2,213.4,138.4,213.4z M181.9,236.8c9.8,0,19.5,0,29.2,0c0-7.8,0-15.6,0-23.4
		c-9.8,0-19.5,0-29.2,0C181.9,221.3,181.9,229,181.9,236.8z"/>
	<path class="st0" d="M138.4,213.4c9.8,0,19.5,0,29.3,0c0,7.8,0,15.5,0,23.4c-9.7,0-19.5,0-29.3,0
		C138.4,229.1,138.4,221.3,138.4,213.4z"/>
	<path class="st0" d="M181.9,236.8c0-7.8,0-15.6,0-23.4c9.7,0,19.4,0,29.2,0c0,7.8,0,15.5,0,23.4
		C201.5,236.8,191.8,236.8,181.9,236.8z"/>
</g>
</svg>
