<?xml version="1.0" encoding="utf-8"?>
<!-- Generator: Adobe Illustrator 20.1.0, SVG Export Plug-In . SVG Version: 6.00 Build 0)  -->
<svg version="1.1" id="图层_1" xmlns="http://www.w3.org/2000/svg" xmlns:xlink="http://www.w3.org/1999/xlink" x="0px" y="0px"
	 viewBox="0 0 360 360" style="enable-background:new 0 0 360 360;" xml:space="preserve">
<style type="text/css">
	.st0{fill:#FFFFFF;}
</style>
<g>
	<path class="st0" d="M0.2,360.5c0-120.1,0-240.2,0-360.2c120.1,0,240.2,0,360.2,0c0,120.1,0,240.2,0,360.2
		C240.4,360.5,120.3,360.5,0.2,360.5z M322,308.9c-1-1.5-2-2.8-2.8-4.3c-3.3-5.9-4.5-12.4-4.8-19c-0.5-10.5,0.4-21,1.8-31.4
		c0.3-2.6,0.7-5.1,1.1-7.9c-1.3,0-2.5,0.1-3.7,0c-0.8-0.1-1.2,0.3-1.4,1c-2.7,9.4-5.5,18.8-8.2,28.2c-1.8,6.3-3.7,12.6-5.6,19
		c-0.5,0-0.9,0-1.3,0c-6.2-0.6-12.5-1.1-18.7-1.9c-12.1-1.5-24-4.1-35.6-7.9c-12.9-4.2-24.8-10.1-34.9-19.4
		c-8.7-8-15.1-17.3-18.3-28.8c-2.6-9.5-4.2-19.2-4.7-29c-0.5-9-0.6-18.1-0.6-27.1c-0.1-34.2,0-68.4,0-102.6c0-0.4,0-0.7,0-1.1
		c-0.1-0.8,0.2-1.2,0.9-1.6c2.9-1.5,5.7-3.2,8.6-4.8c0.3-0.2,0.7-0.4,1.1-0.7c-5.9-5.5-11.8-11-17.7-16.5c-0.4,0.4-0.7,0.7-1,1.1
		c-3,3.3-6,6.6-8.9,9.9c-0.5,0.6-1.1,0.8-1.8,0.8c-26.8,0-53.5,0-80.3,0c-0.7,0-1.4-0.2-2-0.6c-5.2-3.1-10.4-6.2-15.5-9.3
		c-0.4-0.2-0.7-0.4-1.2-0.7c0.2,5.9,0.4,11.6,0.5,17.3c0.2,10.2,0.4,20.5,0.5,30.7c0.1,11.4,0.1,22.8,0.2,34.2
		c0,6.2,0,12.3-0.1,18.5c-0.1,6-0.1,12.1-0.3,18.1c-0.4,12.5-0.8,24.9-1.5,37.4c-0.7,13.1-1.9,26.1-4,39c-2.8,16.7-7.3,33-13.7,48.7
		c-1.3,3.2-2.7,6.3-4,9.5c1.2,0.8,2.3,1.6,3.5,2.3c0.2-0.3,0.3-0.4,0.4-0.6c6.2-9.9,11.7-20.2,16.4-30.9c5.7-13,9.4-26.5,12.3-40.4
		c1.9-8.9,3.4-17.9,3.8-27c0.5-10.5,0.7-21,0.9-31.5c0.2-11.6,0.2-23.2,0.3-34.8c0.1-16.2,0.1-32.4,0.1-48.6c0-7.6,0-15.1,0-22.7
		c0-0.5,0-0.9,0-1.4c29.5,0,58.9,0,88.3,0c0,0.7,0,1.2,0,1.8c0,41.4,0,82.9,0,124.3c0,4.8-0.1,9.5,0.1,14.3
		c0.4,12,2.4,23.8,6.5,35.2c3.9,10.9,9.6,20.8,18.1,28.9c7.3,7.1,15.7,12.5,24.9,16.9c18.1,8.6,37.4,13,57.1,15.6
		c7.6,1,15.2,1.7,22.8,2.3c6.5,0.5,12.9,0.6,19.4,0.9c0.4,0,1-0.2,1.2-0.5C320.8,310.8,321.4,309.8,322,308.9z M131.4,141.4
		c-0.1-0.2-0.1-0.2-0.1-0.3c0-12.6,0-25.2,0-37.8c0-0.3,0.5-0.8,0.8-0.9c5.4-1.2,10.7-2.5,16.1-3.5c3.2-0.6,6.5-0.8,9.5-1.2
		c-4.1-4.1-8.4-8.4-12.5-12.5c-3.5,1.9-7.1,4-10.8,5.7c-9.1,4.4-18.8,6.5-28.7,8.4c-4,0.8-8.1,1.4-12.2,2.1c0,1.5,0,3.1,0,4.8
		c8.6-0.8,17.2-1.5,25.7-2.3c0,12.5,0,24.9,0,37.4c-0.2,0-0.4,0.1-0.5,0.1c-4.3,0-8.6,0-13,0c-0.4,0-0.9-0.2-1.3-0.4
		c-3.5-1.9-7-3.8-10.4-5.7c-0.5-0.3-1.1-0.6-1.7-0.9c1.4,28.3,1.5,56.5,0.1,84.7c0.1-0.1,0.3-0.1,0.4-0.2c3.9-2.1,7.9-4.3,11.8-6.4
		c0.3-0.2,0.6-0.8,0.6-1.2c0.1-2,0-4.1,0-6.1c4.8,0,9.4,0,14,0c0,0.3,0.1,0.4,0.1,0.6c0,14.8,0,29.6,0,44.4c0,0.8-0.4,0.9-1,1
		c-9,1.4-18,2.8-27,4.2c-1.6,0.2-3.2,0.3-5,0.4c3.6,6,7.1,11.8,10.5,17.5c0.9-0.9,1.8-1.8,2.7-2.5c2.9-2.4,6.2-4.1,9.7-5.3
		c11.7-3.9,23.4-7.7,35.1-11.5c1.8-0.6,3.6-1.1,5.6-1.7c0.5,4.6,0.9,9.1,1.4,13.5c0.2,2.3,0.4,4.6,0.8,6.9c0.5,2.4,2.1,3.2,4.1,2
		c5.1-3,8.2-7.3,8.5-13.3c0.2-3.8-1.1-7.4-2.6-10.9c-2.8-6.3-6.6-12.2-10.4-17.9c-2.5-3.7-5-7.4-7.6-11.1c-1.3,0.4-2.4,0.8-3.5,1.2
		c2.8,7.9,5.5,15.7,8.3,23.6c-6.1,1.2-11.9,2.4-17.7,3.5c0-15,0-29.8,0-44.6c4.7,0,9.3,0,14,0c0,3.5,0,6.9,0,10.4
		c0.3-0.1,0.4-0.1,0.5-0.2c4-2.5,8-5,11.9-7.6c0.3-0.2,0.5-0.7,0.5-1.1c-0.3-10.1-0.8-20.2-1-30.3c-0.2-8.6-0.1-17.1-0.1-25.7
		c0-0.8,0.3-1.2,1-1.6c2.4-1.3,4.8-2.7,7.3-4.2c-5.2-4-10.2-7.9-15.4-11.8c-0.3,0.4-0.5,0.7-0.8,1c-1.6,2.2-3.1,4.4-4.7,6.5
		c-0.2,0.3-0.7,0.7-1,0.7C139.6,141.4,135.5,141.4,131.4,141.4z"/>
	<path d="M322,308.9c-0.6,0.9-1.2,2-2,2.9c-0.2,0.3-0.8,0.5-1.2,0.5c-6.5-0.3-12.9-0.4-19.4-0.9c-7.6-0.6-15.2-1.3-22.8-2.3
		c-19.7-2.6-39-7-57.1-15.6c-9.2-4.3-17.6-9.8-24.9-16.9c-8.4-8.1-14.1-18-18.1-28.9c-4.1-11.4-6.1-23.2-6.5-35.2
		c-0.2-4.7-0.1-9.5-0.1-14.3c0-41.4,0-82.9,0-124.3c0-0.6,0-1.2,0-1.8c-29.5,0-58.8,0-88.3,0c0,0.5,0,1,0,1.4c0,7.6,0,15.1,0,22.7
		c0,16.2-0.1,32.4-0.1,48.6c-0.1,11.6-0.1,23.2-0.3,34.8c-0.2,10.5-0.4,21-0.9,31.5c-0.4,9.1-2,18.1-3.8,27
		c-2.9,13.8-6.6,27.4-12.3,40.4c-4.7,10.7-10.2,21-16.4,30.9c-0.1,0.2-0.2,0.3-0.4,0.6c-1.2-0.8-2.3-1.5-3.5-2.3
		c1.4-3.2,2.7-6.3,4-9.5c6.4-15.7,10.9-31.9,13.7-48.7c2.1-12.9,3.4-25.9,4-39c0.6-12.4,1-24.9,1.5-37.4c0.2-6,0.2-12.1,0.3-18.1
		c0.1-6.2,0.1-12.3,0.1-18.5c0-11.4-0.1-22.8-0.2-34.2c-0.1-10.2-0.3-20.5-0.5-30.7c-0.1-5.7-0.3-11.4-0.5-17.3
		c0.5,0.3,0.9,0.5,1.2,0.7c5.2,3.1,10.3,6.2,15.5,9.3c0.6,0.3,1.3,0.6,2,0.6c26.8,0,53.5,0,80.3,0c0.8,0,1.3-0.2,1.8-0.8
		c2.9-3.3,5.9-6.6,8.9-9.9c0.3-0.3,0.6-0.6,1-1.1c5.9,5.5,11.7,11,17.7,16.5c-0.5,0.3-0.8,0.5-1.1,0.7c-2.9,1.6-5.7,3.2-8.6,4.8
		c-0.7,0.4-1,0.8-0.9,1.6c0,0.4,0,0.7,0,1.1c0,34.2,0,68.4,0,102.6c0,9,0.2,18.1,0.6,27.1c0.5,9.8,2,19.5,4.7,29
		c3.2,11.5,9.6,20.9,18.3,28.8c10.1,9.3,22,15.2,34.9,19.4c11.6,3.8,23.5,6.4,35.6,7.9c6.2,0.8,12.5,1.3,18.7,1.9c0.4,0,0.9,0,1.3,0
		c1.9-6.4,3.7-12.7,5.6-19c2.7-9.4,5.5-18.8,8.2-28.2c0.2-0.8,0.6-1.1,1.4-1c1.2,0.1,2.4,0,3.7,0c-0.4,2.7-0.7,5.3-1.1,7.9
		c-1.4,10.4-2.2,20.9-1.8,31.4c0.3,6.6,1.4,13.1,4.8,19C320,306,321,307.4,322,308.9z"/>
	<path d="M131.4,141.4c4.1,0,8.2,0,12.2,0c0.3,0,0.8-0.4,1-0.7c1.6-2.2,3.1-4.3,4.7-6.5c0.2-0.3,0.5-0.6,0.8-1
		c5.1,3.9,10.2,7.8,15.4,11.8c-2.5,1.5-4.9,2.8-7.3,4.2c-0.7,0.4-1,0.8-1,1.6c0.1,8.6,0,17.1,0.1,25.7c0.2,10.1,0.7,20.2,1,30.3
		c0,0.4-0.2,0.9-0.5,1.1c-4,2.6-7.9,5.1-11.9,7.6c-0.1,0.1-0.2,0.1-0.5,0.2c0-3.5,0-6.9,0-10.4c-4.7,0-9.3,0-14,0
		c0,14.8,0,29.6,0,44.6c5.8-1.2,11.6-2.3,17.7-3.5c-2.8-7.9-5.5-15.7-8.3-23.6c1.1-0.4,2.2-0.7,3.5-1.2c2.6,3.7,5.1,7.4,7.6,11.1
		c3.8,5.8,7.5,11.6,10.4,17.9c1.5,3.4,2.8,7,2.6,10.9c-0.3,6-3.4,10.3-8.5,13.3c-1.9,1.1-3.6,0.3-4.1-2c-0.4-2.3-0.6-4.6-0.8-6.9
		c-0.5-4.4-0.9-8.9-1.4-13.5c-2,0.6-3.8,1.1-5.6,1.7c-11.7,3.8-23.5,7.6-35.1,11.5c-3.5,1.2-6.8,3-9.7,5.3c-0.9,0.7-1.7,1.6-2.7,2.5
		c-3.5-5.8-6.9-11.6-10.5-17.5c1.8-0.1,3.4-0.2,5-0.4c9-1.4,18-2.8,27-4.2c0.6-0.1,1-0.3,1-1c0-14.8,0-29.6,0-44.4
		c0-0.2,0-0.3-0.1-0.6c-4.6,0-9.2,0-14,0c0,2,0,4.1,0,6.1c0,0.4-0.3,1-0.6,1.2c-3.9,2.2-7.8,4.3-11.8,6.4c-0.1,0.1-0.3,0.1-0.4,0.2
		c1.5-28.2,1.3-56.4-0.1-84.7c0.6,0.3,1.1,0.6,1.7,0.9c3.5,1.9,6.9,3.8,10.4,5.7c0.4,0.2,0.9,0.4,1.3,0.4c4.3,0,8.6,0,13,0
		c0.2,0,0.3,0,0.5-0.1c0-12.5,0-24.9,0-37.4c-8.6,0.8-17.1,1.5-25.7,2.3c0-1.7,0-3.3,0-4.8c4.1-0.7,8.2-1.3,12.2-2.1
		c9.8-1.9,19.6-4,28.7-8.4c3.7-1.8,7.3-3.9,10.8-5.7c4.2,4.2,8.4,8.4,12.5,12.5c-3,0.4-6.3,0.6-9.5,1.2c-5.4,1-10.8,2.3-16.1,3.5
		c-0.3,0.1-0.8,0.6-0.8,0.9c0,12.6,0,25.2,0,37.8C131.3,141.2,131.3,141.2,131.4,141.4z M119.3,197.9c0-16.5,0-32.9,0-49.3
		c-4.7,0-9.3,0-13.9,0c0,16.5,0,32.9,0,49.3C110,197.9,114.6,197.9,119.3,197.9z M145.3,197.9c0-16.5,0-32.9,0-49.3
		c-4.7,0-9.3,0-13.9,0c0,16.5,0,32.9,0,49.3C136,197.9,140.6,197.9,145.3,197.9z"/>
	<path class="st0" d="M119.3,197.9c-4.7,0-9.3,0-13.9,0c0-16.4,0-32.8,0-49.3c4.6,0,9.2,0,13.9,0C119.3,165,119.3,181.5,119.3,197.9
		z"/>
	<path class="st0" d="M145.3,197.9c-4.7,0-9.3,0-13.9,0c0-16.5,0-32.9,0-49.3c4.7,0,9.3,0,13.9,0
		C145.3,165.1,145.3,181.5,145.3,197.9z"/>
</g>
</svg>
