<?xml version="1.0" encoding="utf-8"?>
<!-- Generator: Adobe Illustrator 20.1.0, SVG Export Plug-In . SVG Version: 6.00 Build 0)  -->
<svg version="1.1" id="图层_1" xmlns="http://www.w3.org/2000/svg" xmlns:xlink="http://www.w3.org/1999/xlink" x="0px" y="0px"
	 viewBox="0 0 360 360" style="enable-background:new 0 0 360 360;" xml:space="preserve">
<style type="text/css">
	.st0{fill:#FFFFFF;}
</style>
<g>
	<path class="st0" d="M0.2,360.5c0-120.1,0-240.2,0-360.2c120.1,0,240.2,0,360.2,0c0,120.1,0,240.2,0,360.2
		C240.4,360.5,120.3,360.5,0.2,360.5z M174.9,284c-0.4,11-0.8,21.9-1.2,32.9c0.4-0.1,0.8-0.3,1.2-0.5c4.1-1.8,8.3-3.6,12.4-5.3
		c0.9-0.4,2.1-0.5,2.5-1.2c0.4-0.7,0-1.8,0-2.8c-0.3-5.1-0.6-10.3-0.8-15.4c-0.1-2.5,0-5,0-7.7c42.3,0,84.6,0,126.9,0
		c-7.9-7.9-15.6-15.6-23.6-23.6c-0.2,0.3-0.4,0.7-0.7,1c-4.9,4.9-9.8,9.9-14.8,14.7c-0.4,0.4-1.2,0.8-1.9,0.8c-28.2,0-56.5,0-84.7,0
		c-0.4,0-0.8,0-1.3-0.1c0-5.5,0-10.9,0-16.4c22,0,43.9,0,65.9,0c0,2.3,0,4.6,0,6.9c0.3-0.1,0.4-0.1,0.6-0.2
		c4.8-2.5,9.5-5.1,14.2-7.7c0.3-0.2,0.5-0.7,0.5-1c-0.3-6.6-0.7-13.2-1.1-19.9c-0.1-2.1,0.3-3.7,2.3-4.6c0.7-0.3,1.2-0.9,1.9-1.3
		c1.3-1,2.7-1.9,4.1-3c-5.6-4.8-11-9.5-16.6-14.2c-2.5,2.9-5,5.7-7.5,8.6c-0.5,0.6-1.1,0.9-1.9,0.9c-20.4,0-40.7,0-61.1,0
		c-0.4,0-0.8,0-1.3-0.1c0-3.9,0-7.8,0-11.6c10.2,0,20.4,0,30.6,0c0,1.2,0,2.2,0,3.4c5.2-1.6,10.2-3.2,15.3-4.7
		c-1.1-7.9-1.1-15.7-1.1-23.6c23.6,0,47,0,70.4,0c-7-7-14-14-21.1-21.1c-0.2,0.2-0.5,0.5-0.8,0.7c-4.1,4.1-8.3,8.2-12.4,12.4
		c-0.6,0.6-1.2,0.9-2.1,0.9c-10.9,0-21.8,0-32.6,0c-0.4,0-0.9,0-1.4,0c0-2.1-0.1-4.1,0-6.1c0-0.5,0.4-1.1,0.8-1.4
		c2-1.4,4.1-2.8,6.3-4.2c-7.5-4-14.9-7.8-22.2-11.7c0.4,7.9,0.7,15.6,1.1,23.4c-24.5,0-48.8,0-73.2,0c0-1.6,0-3.2,0-4.7
		c0-0.8,0.2-1.2,0.9-1.6c2-1.3,4-2.7,6.2-4.1c-7.2-3.2-14.1-6.3-21.3-9.5c0,6.8,0,13.4,0,20.1c-24,0-47.8,0-71.8,0
		c0.4,0.4,0.6,0.7,0.9,0.9c3,3,6,5.9,8.9,8.9c0.6,0.6,1.1,0.7,1.9,0.5c7.5-2,15.1-3.1,22.9-3.2c12.1-0.1,24.2-0.1,36.4-0.1
		c0.3,0,0.5,0,1.1,0.1c-0.4,9.8-0.8,19.5-1.2,29.2c0.3,0,0.6-0.1,0.9-0.1c4.3-1,8.6-2,12.8-3c0.9-0.2,1.6-0.3,1.5-1.4
		c9.4,0,18.7,0,28,0c0,3.9,0,7.7,0,11.6c-0.4,0-0.8,0-1.1,0c-21.3,0-42.6,0-63.8,0c-0.6,0-1.2-0.2-1.7-0.4c-4.8-2-9.6-4.1-14.4-6.2
		c-0.4-0.2-0.7-0.3-1-0.4c0.3,8.7,0.9,17.2,0.9,25.8c0,8.6-0.6,17.2-0.9,25.8c0.3-0.1,0.6-0.3,1-0.4c4-1.8,7.9-3.7,11.9-5.4
		c1.5-0.7,2.7-1.3,2.3-3.2c0-0.1,0.1-0.1,0.1-0.2c22.2,0,44.5,0,66.8,0c0,5.5,0,10.9,0,16.5c-41.2,0-82.2,0-123.4,0
		c0.2,0.2,0.2,0.4,0.3,0.4c3.2,3.2,6.4,6.5,9.7,9.7c0.3,0.3,0.9,0.4,1.3,0.3c8.7-2.2,17.5-3.3,26.5-3.3c28,0,55.9,0,83.9,0
		C173.4,284,174,284,174.9,284z"/>
	<path d="M174.9,284c-0.9,0-1.5,0-2.1,0c-28,0-55.9,0-83.9,0c-8.9,0-17.8,1.1-26.5,3.3c-0.4,0.1-1.1,0-1.3-0.3
		c-3.3-3.2-6.5-6.4-9.7-9.7c-0.1-0.1-0.1-0.2-0.3-0.4c41.2,0,82.3,0,123.4,0c0-5.5,0-11,0-16.5c-22.3,0-44.5,0-66.8,0
		c-0.1,0.1-0.2,0.2-0.1,0.2c0.3,1.9-0.8,2.6-2.3,3.2c-4,1.7-7.9,3.6-11.9,5.4c-0.3,0.1-0.6,0.3-1,0.4c0.3-8.6,0.9-17.2,0.9-25.8
		c0-8.6-0.6-17.2-0.9-25.8c0.3,0.1,0.7,0.3,1,0.4c4.8,2.1,9.6,4.1,14.4,6.2c0.5,0.2,1.1,0.4,1.7,0.4c21.3,0,42.6,0,63.8,0
		c0.4,0,0.7,0,1.1,0c0-3.9,0-7.8,0-11.6c-9.3,0-18.6,0-28,0c0.1,1.1-0.7,1.2-1.5,1.4c-4.3,1-8.6,2-12.8,3c-0.3,0.1-0.6,0.1-0.9,0.1
		c0.4-9.8,0.8-19.5,1.2-29.2c-0.6,0-0.8-0.1-1.1-0.1c-12.1,0-24.2-0.1-36.4,0.1c-7.7,0.1-15.4,1.2-22.9,3.2
		c-0.8,0.2-1.3,0.1-1.9-0.5c-2.9-3-5.9-6-8.9-8.9c-0.2-0.2-0.5-0.5-0.9-0.9c24,0,47.8,0,71.8,0c0-6.7,0-13.3,0-20.1
		c7.2,3.2,14.2,6.3,21.3,9.5c-2.2,1.5-4.2,2.8-6.2,4.1c-0.6,0.4-0.9,0.9-0.9,1.6c0.1,1.5,0,3.1,0,4.7c24.4,0,48.7,0,73.2,0
		c-0.4-7.8-0.7-15.5-1.1-23.4c7.3,3.8,14.7,7.7,22.2,11.7c-2.2,1.5-4.3,2.8-6.3,4.2c-0.4,0.3-0.8,0.9-0.8,1.4c-0.1,2,0,4,0,6.1
		c0.5,0,1,0,1.4,0c10.9,0,21.8,0,32.6,0c0.9,0,1.5-0.3,2.1-0.9c4.1-4.2,8.2-8.3,12.4-12.4c0.3-0.3,0.6-0.5,0.8-0.7
		c7.1,7.1,14.1,14.1,21.1,21.1c-23.3,0-46.8,0-70.4,0c0,7.9,0.1,15.7,1.1,23.6c-5,1.6-10.1,3.1-15.3,4.7c0-1.2,0-2.3,0-3.4
		c-10.2,0-20.4,0-30.6,0c0,3.8,0,7.6,0,11.6c0.4,0,0.8,0.1,1.3,0.1c20.4,0,40.7,0,61.1,0c0.8,0,1.4-0.3,1.9-0.9
		c2.4-2.8,4.9-5.7,7.5-8.6c5.5,4.7,11,9.4,16.6,14.2c-1.4,1-2.8,2-4.1,3c-0.6,0.4-1.2,1-1.9,1.3c-2.1,0.9-2.5,2.5-2.3,4.6
		c0.5,6.6,0.8,13.2,1.1,19.9c0,0.3-0.2,0.9-0.5,1c-4.7,2.6-9.5,5.1-14.2,7.7c-0.1,0.1-0.3,0.1-0.6,0.2c0-2.3,0-4.6,0-6.9
		c-22,0-43.9,0-65.9,0c0,5.5,0,10.8,0,16.4c0.4,0,0.9,0.1,1.3,0.1c28.2,0,56.5,0,84.7,0c0.6,0,1.4-0.3,1.9-0.8
		c5-4.9,9.9-9.8,14.8-14.7c0.3-0.3,0.5-0.7,0.7-1c8,8,15.8,15.8,23.6,23.6c-42.3,0-84.6,0-126.9,0c0,2.7-0.1,5.2,0,7.7
		c0.2,5.1,0.5,10.3,0.8,15.4c0.1,0.9,0.4,2.1,0,2.8c-0.4,0.7-1.7,0.8-2.5,1.2c-4.1,1.8-8.3,3.6-12.4,5.3c-0.4,0.2-0.8,0.3-1.2,0.5
		C174.1,306,174.5,295.1,174.9,284z M174.7,232.3c-22.4,0-44.7,0-66.9,0c0,7.1,0,14,0,20.9c22.4,0,44.6,0,66.9,0
		C174.7,246.2,174.7,239.3,174.7,232.3z M189,253.2c22,0,43.9,0,65.8,0c0-7,0-14,0-21c-22,0-43.8,0-65.8,0
		C189,239.3,189,246.2,189,253.2z M146.6,188.7c0,5.9,0,11.6,0,17.4c24.3,0,48.6,0,72.9,0c0-5.9,0-11.6,0-17.4
		C195.2,188.7,170.9,188.7,146.6,188.7z"/>
	<path class="st0" d="M174.7,232.3c0,7,0,13.9,0,20.9c-22.3,0-44.6,0-66.9,0c0-6.9,0-13.9,0-20.9C130,232.3,152.3,232.3,174.7,232.3
		z"/>
	<path class="st0" d="M189,253.2c0-7,0-14,0-21c22,0,43.9,0,65.8,0c0,7,0,13.9,0,21C232.9,253.2,211,253.2,189,253.2z"/>
	<path class="st0" d="M146.6,188.7c24.3,0,48.6,0,72.9,0c0,5.8,0,11.6,0,17.4c-24.3,0-48.5,0-72.9,0
		C146.6,200.3,146.6,194.6,146.6,188.7z"/>
</g>
</svg>
