<?xml version="1.0" encoding="utf-8"?>
<!-- Generator: Adobe Illustrator 20.1.0, SVG Export Plug-In . SVG Version: 6.00 Build 0)  -->
<svg version="1.1" id="图层_1" xmlns="http://www.w3.org/2000/svg" xmlns:xlink="http://www.w3.org/1999/xlink" x="0px" y="0px"
	 viewBox="0 0 360 360" style="enable-background:new 0 0 360 360;" xml:space="preserve">
<style type="text/css">
	.st0{fill:#FFFFFF;}
</style>
<g>
	<path class="st0" d="M0.2,360.5c0-120.1,0-240.2,0-360.2c120.1,0,240.2,0,360.2,0c0,120.1,0,240.2,0,360.2
		C240.4,360.5,120.3,360.5,0.2,360.5z M125.4,123.9c4.3,0,8.6,0,12.9,0c0,3.1,0,6.1,0,9.3c5.2-2,10.3-4,15.3-5.9
		c-0.7-13-1.2-25.9-1.2-38.9c11.4,0,22.7,0,34.2,0c-5.6-6.4-11.1-12.7-16.6-18.9c-3.8,3.8-7.5,7.5-11.1,11.1
		c-0.3,0.3-0.7,0.6-1.1,0.6c-1.8,0.1-3.6,0-5.5,0c0-0.6,0-1,0-1.4c0-6.2,0-12.3,0-18.5c0-0.9,0.3-1.6,0.9-2.2
		c2.5-2.4,4.9-4.8,7.4-7.4c-7.9-3.6-15.7-7.1-23.7-10.6c0.9,13.5,1.2,26.8,1.2,40c-13.8,0-27.4,0-41.2,0c0-0.6,0-1,0-1.5
		c0-5.8,0.1-11.5-0.1-17.3c-0.1-2.6,0.5-4.4,2.7-5.8c1.5-1,2.9-2.3,4.4-3.6c-7.6-3.6-15-7.1-22.3-10.5c0.4,12.9,0.8,25.8,1.1,38.8
		c-12.4,0-24.4,0-36.5,0c0.1,0.2,0.1,0.3,0.1,0.3c3.3,3.3,6.5,6.6,9.9,9.8c0.3,0.3,0.9,0.3,1.3,0.2c6.4-1.7,12.9-2.7,19.5-3.1
		c1.8-0.1,3.6,0,5.8,0c-0.4,15.7-0.8,31.3-1.1,46.8c-0.1,0,0,0,0.1,0c4.8-1.8,9.6-3.7,14.4-5.6c0.3-0.1,0.6-0.7,0.6-1.1
		c0.1-1.6,0-3.3,0-4.9c4.7,0,9.3,0,13.9,0c0,11.4,0,22.7,0,34c-0.3,0-0.6,0-0.8,0c-9.6,0-19.2,0-28.8,0c-0.6,0-1.3-0.2-1.8-0.5
		c-4.4-2.7-8.8-5.4-13.2-8.1c-0.4-0.2-0.7-0.4-1.2-0.7c1.2,24.5,1.8,48.7,0,73.1c5.2-2,10.2-3.9,15.4-5.9c0-2.7,0-5.4,0-8.1
		c10.2,0,20.3,0,30.4,0c0,11.8,0,23.4,0,35.3c-21.5,0-43,0-64.7,0c3.4,3.4,6.5,6.5,9.6,9.6c0.7,0.7,1.3,0.9,2.3,0.6
		c8-2.1,16.1-3.1,24.3-3.2c9.1-0.1,18.2,0,27.2,0c0.4,0,0.8,0,1.5,0c-0.4,22.4-0.8,44.7-1.2,67c0.3-0.1,0.7-0.2,1-0.4
		c4.8-2.4,9.6-4.8,14.5-7.2c0.8-0.4,1-0.8,0.9-1.7c-0.3-6.4-0.6-12.8-0.8-19.2c-0.1-4.6-0.1-9.2-0.2-13.8
		c-0.1-8.1-0.1-16.2-0.1-24.4c0-0.1,0.1-0.2,0.2-0.5c21.4,0,42.9,0,64.7,0c-6.8-7.2-13.4-14.2-20.2-21.4c-0.3,0.4-0.6,0.8-0.9,1.1
		c-4.1,4.1-8.2,8.2-12.3,12.3c-0.6,0.6-1.2,0.9-2.1,0.9c-9.3,0-18.6,0-28,0c-0.4,0-0.9,0-1.3,0c0-11.8,0-23.5,0-35.2
		c9.8,0,19.5,0,29.4,0c0,3.1,0,6.1,0,9.1c0.2,0,0.3,0,0.4,0c4.8-1.8,9.5-3.6,14.3-5.5c0.3-0.1,0.5-0.7,0.5-1.1
		c-0.3-12.5-0.6-25-1.2-37.5c-0.1-3,0.6-5,3.1-6.7c1.9-1.2,3.4-2.9,5.2-4.4c-5.6-4.4-11-8.7-16.6-13c-2.2,2.9-4.3,5.7-6.4,8.6
		c-0.5,0.6-0.9,0.9-1.8,0.9c-8.6,0-17.3,0-25.9,0c-0.4,0-0.8,0-1.2-0.1C125.4,146.5,125.4,135.3,125.4,123.9z"/>
	<path d="M125.4,123.9c0,11.3,0,22.6,0,33.9c0.4,0,0.8,0.1,1.2,0.1c8.6,0,17.3,0,25.9,0c0.8,0,1.3-0.3,1.8-0.9
		c2.1-2.8,4.2-5.6,6.4-8.6c5.5,4.3,11,8.6,16.6,13c-1.8,1.5-3.3,3.2-5.2,4.4c-2.5,1.7-3.2,3.7-3.1,6.7c0.5,12.5,0.8,25,1.2,37.5
		c0,0.4-0.3,1-0.5,1.1c-4.8,1.9-9.5,3.7-14.3,5.5c-0.1,0-0.2,0-0.4,0c0-3,0-6,0-9.1c-9.9,0-19.6,0-29.4,0c0,11.7,0,23.4,0,35.2
		c0.5,0,0.9,0,1.3,0c9.3,0,18.6,0,28,0c0.9,0,1.5-0.2,2.1-0.9c4.1-4.1,8.2-8.2,12.3-12.3c0.3-0.3,0.5-0.7,0.9-1.1
		c6.8,7.2,13.4,14.2,20.2,21.4c-21.7,0-43.2,0-64.7,0c-0.1,0.3-0.2,0.4-0.2,0.5c0,8.1,0.1,16.2,0.1,24.4c0,4.6,0,9.2,0.2,13.8
		c0.2,6.4,0.5,12.8,0.8,19.2c0,0.8-0.1,1.3-0.9,1.7c-4.8,2.4-9.7,4.8-14.5,7.2c-0.3,0.2-0.6,0.3-1,0.4c0.4-22.3,0.8-44.6,1.2-67
		c-0.7,0-1.1,0-1.5,0c-9.1,0-18.2-0.1-27.2,0c-8.2,0.1-16.3,1.1-24.3,3.2c-1,0.3-1.6,0.1-2.3-0.6c-3.1-3.2-6.3-6.3-9.6-9.6
		c21.7,0,43.1,0,64.7,0c0-11.8,0-23.5,0-35.3c-10.1,0-20.2,0-30.4,0c0,2.7,0,5.4,0,8.1c-5.2,2-10.2,3.9-15.4,5.9
		c1.8-24.4,1.2-48.6,0-73.1c0.5,0.3,0.9,0.5,1.2,0.7c4.4,2.7,8.8,5.4,13.2,8.1c0.5,0.3,1.2,0.5,1.8,0.5c9.6,0,19.2,0,28.8,0
		c0.2,0,0.5,0,0.8,0c0-11.3,0-22.6,0-34c-4.6,0-9.2,0-13.9,0c0,1.7,0,3.3,0,4.9c0,0.4-0.3,0.9-0.6,1.1c-4.8,1.9-9.6,3.7-14.4,5.6
		c-0.1,0-0.2,0-0.1,0c0.4-15.6,0.8-31.2,1.1-46.8c-2.1,0-4-0.1-5.8,0c-6.6,0.4-13.1,1.5-19.5,3.1c-0.4,0.1-1,0-1.3-0.2
		c-3.3-3.2-6.6-6.5-9.9-9.8c0,0,0-0.1-0.1-0.3c12.1,0,24.1,0,36.5,0c-0.4-13-0.8-25.9-1.1-38.8c7.3,3.5,14.7,6.9,22.3,10.5
		c-1.5,1.3-2.9,2.6-4.4,3.6c-2.2,1.4-2.8,3.2-2.7,5.8c0.2,5.8,0.1,11.5,0.1,17.3c0,0.5,0,1,0,1.5c13.7,0,27.3,0,41.2,0
		c0-13.3-0.3-26.5-1.2-40c7.9,3.6,15.7,7.1,23.7,10.6c-2.5,2.5-4.9,5-7.4,7.4c-0.7,0.6-0.9,1.3-0.9,2.2c0,6.2,0,12.3,0,18.5
		c0,0.4,0,0.9,0,1.4c1.9,0,3.7,0,5.5,0c0.4,0,0.8-0.4,1.1-0.6c3.7-3.7,7.4-7.4,11.1-11.1c5.5,6.3,10.9,12.5,16.6,18.9
		c-11.5,0-22.8,0-34.2,0c0,13,0.5,25.9,1.2,38.9c-5.1,1.9-10.1,3.9-15.3,5.9c0-3.2,0-6.2,0-9.3C134,123.9,129.7,123.9,125.4,123.9z
		 M97.2,88.6c0,9.4,0,18.7,0,28c13.7,0,27.3,0,41,0c0-9.4,0-18.7,0-28C124.5,88.6,110.9,88.6,97.2,88.6z M111,200.3
		c0-11.7,0-23.4,0-35.1c-10.2,0-20.3,0-30.3,0c0,11.8,0,23.4,0,35.1C90.9,200.3,100.9,200.3,111,200.3z M125.4,165.1
		c0,11.8,0,23.4,0,35.1c9.8,0,19.5,0,29.3,0c0-11.8,0-23.4,0-35.1C144.9,165.1,135.2,165.1,125.4,165.1z"/>
	<path class="st0" d="M97.2,88.6c13.7,0,27.3,0,41,0c0,9.4,0,18.7,0,28c-13.7,0-27.3,0-41,0C97.2,107.3,97.2,98,97.2,88.6z"/>
	<path class="st0" d="M111,200.3c-10.1,0-20.2,0-30.3,0c0-11.7,0-23.4,0-35.1c10.1,0,20.2,0,30.3,0C111,176.9,111,188.6,111,200.3z"
		/>
	<path class="st0" d="M125.4,165.1c9.8,0,19.5,0,29.3,0c0,11.7,0,23.4,0,35.1c-9.7,0-19.5,0-29.3,0
		C125.4,188.6,125.4,176.9,125.4,165.1z"/>
</g>
</svg>
