<?xml version="1.0" encoding="utf-8"?>
<!-- Generator: Adobe Illustrator 20.1.0, SVG Export Plug-In . SVG Version: 6.00 Build 0)  -->
<svg version="1.1" id="图层_1" xmlns="http://www.w3.org/2000/svg" xmlns:xlink="http://www.w3.org/1999/xlink" x="0px" y="0px"
	 viewBox="0 0 360 360" style="enable-background:new 0 0 360 360;" xml:space="preserve">
<style type="text/css">
	.st0{fill:#FFFFFF;}
</style>
<g>
	<path class="st0" d="M0.2,360.5c0-120.1,0-240.2,0-360.2c120.1,0,240.2,0,360.2,0c0,120.1,0,240.2,0,360.2
		C240.4,360.5,120.3,360.5,0.2,360.5z M73.6,158c1.4,50.6,1.4,101.2,0,151.8c0.3-0.2,0.7-0.3,1-0.5c4.3-2.3,8.6-4.7,13-7
		c0.9-0.5,1.2-1,1.2-2c0-17.9,0-35.8,0-53.8c0-0.5,0-0.9,0-1.3c17.4,0,34.5,0,51.7,0c0,0.2,0.1,0.3,0.1,0.4c0,11,0.1,22,0,33
		c0,4.3-1.9,6.7-5.4,7.5c-1.2,0.2-2.4,0.3-3.6,0.2c-5.5-0.3-11-0.8-16.5-1.1c-2.5-0.1-4.9,0-7.5,0c0,1.5,0,3,0,4.6
		c0.4,0.1,0.8,0.2,1.3,0.3c4.7,1,9.3,2.2,13.7,4.3c4.5,2.2,8.4,5,10.6,9.7c0.8,1.8,1.2,3.7,1.9,5.8c1.8-0.9,3.7-1.7,5.6-2.7
		c5.5-3.1,9.9-7.2,12.4-13.2c1.6-3.9,1.9-8,1.9-12.2c0-34.5,0-69,0-103.6c0-1,0.3-1.7,1.1-2.3c2.8-2,5.5-4.1,8.3-6.2
		c-5.6-4.8-11-9.5-16.6-14.2c-2.6,3.3-5.1,6.5-7.5,9.7c-0.5,0.7-1.1,1-2,1c-16.1,0-32.2,0-48.2,0c-0.7,0-1.4-0.2-2-0.5
		c-4.5-2.3-8.9-4.7-13.3-7.1C74.3,158.4,73.9,158.2,73.6,158z M75.8,48.4c1.1,28,1,55.7,1.2,83.5c-3.6,0-7.1,0-10.6,0
		c-0.4-3.9-0.8-7.8-1.2-11.7c-1.7,0-3.2,0-4.7,0c-0.7,3-1.3,6-2,9c-2.5,10.5-6.5,20.3-13,29c-0.6,0.8-1.1,1.7-1.4,2.6
		c-0.7,1.7-0.3,3.1,1.1,4c0.7,0.4,1.4,0.7,2.2,0.9c2.8,0.7,5.7,0.9,8.5,0.2c5.3-1.3,9.5-4.1,11-9.6c0.7-2.6,0.8-5.4,0.8-8.1
		c-0.1-3.1-0.6-6.1-1-9.2c33.1,0,66.4,0,99.8,0c-2.7,7.1-5.4,14-8.2,21.1c1.3,0.4,2.4,0.8,3.6,1.2c7.3-10.8,15.4-20.4,28.3-24.8
		c-5.9-5.1-11.8-10.2-17.7-15.3c-0.3,0.4-0.5,0.8-0.8,1.1c-1.9,2.8-3.8,5.6-5.6,8.5c-0.5,0.8-1,1-1.9,1c-2.5-0.1-5,0-7.4,0
		c-1,0-2,0-3,0c0-0.3,0-0.5,0-0.7c0-20.7,0-41.4,0-62c0-0.4,0.3-1,0.6-1.3c1.7-1.5,3.4-3,5.1-4.5c1.2-1.1,2.4-2.1,3.7-3.3
		c-5.6-4.4-11-8.7-16.6-13c-2.6,3.4-5.1,6.6-7.7,9.8c-0.3,0.4-1,0.8-1.6,0.8c-15,0-30.1,0-45.1,0c-0.6,0-1.3-0.2-1.8-0.5
		c-4.4-2.7-8.9-5.4-13.3-8.1C76.7,48.9,76.3,48.7,75.8,48.4z"/>
	<path d="M73.6,158c0.3,0.1,0.6,0.3,1,0.5c4.4,2.4,8.9,4.8,13.3,7.1c0.6,0.3,1.4,0.5,2,0.5c16.1,0,32.2,0,48.2,0c0.9,0,1.5-0.3,2-1
		c2.4-3.2,4.9-6.4,7.5-9.7c5.5,4.7,11,9.4,16.6,14.2c-2.8,2.1-5.6,4.2-8.3,6.2c-0.8,0.6-1.1,1.2-1.1,2.3c0,34.5,0,69,0,103.6
		c0,4.2-0.3,8.3-1.9,12.2c-2.4,6-6.8,10.1-12.4,13.2c-1.8,1-3.8,1.9-5.6,2.7c-0.6-2.1-1-4-1.9-5.8c-2.1-4.7-6.1-7.5-10.6-9.7
		c-4.3-2.1-9-3.3-13.7-4.3c-0.4-0.1-0.8-0.2-1.3-0.3c0-1.6,0-3.1,0-4.6c2.5,0,5-0.1,7.5,0c5.5,0.3,11,0.8,16.5,1.1
		c1.2,0.1,2.4,0,3.6-0.2c3.5-0.7,5.4-3.2,5.4-7.5c0.1-11,0-22,0-33c0-0.1,0-0.2-0.1-0.4c-17.2,0-34.3,0-51.7,0c0,0.4,0,0.9,0,1.3
		c0,17.9,0,35.8,0,53.8c0,1-0.3,1.5-1.2,2c-4.4,2.3-8.7,4.6-13,7c-0.3,0.2-0.7,0.3-1,0.5C75,259.2,75.1,208.7,73.6,158z M88.8,202.6
		c17.3,0,34.5,0,51.7,0c0-9.8,0-19.5,0-29.2c-17.3,0-34.5,0-51.7,0C88.8,183.1,88.8,192.8,88.8,202.6z M88.9,238
		c17.3,0,34.4,0,51.7,0c0-9.4,0-18.7,0-28.1c-17.3,0-34.4,0-51.7,0C88.9,219.3,88.9,228.6,88.9,238z"/>
	<path d="M75.8,48.4c0.5,0.3,0.9,0.5,1.3,0.7c4.4,2.7,8.8,5.5,13.3,8.1c0.5,0.3,1.2,0.5,1.8,0.5c15,0,30.1,0,45.1,0
		c0.5,0,1.2-0.4,1.6-0.8c2.6-3.2,5.1-6.5,7.7-9.8c5.5,4.3,11,8.6,16.6,13c-1.3,1.1-2.5,2.2-3.7,3.3c-1.7,1.5-3.5,3-5.1,4.5
		c-0.3,0.3-0.6,0.9-0.6,1.3c0,20.7,0,41.4,0,62c0,0.2,0,0.4,0,0.7c1,0,2,0,3,0c2.5,0,5,0,7.4,0c0.9,0,1.4-0.2,1.9-1
		c1.8-2.9,3.7-5.7,5.6-8.5c0.2-0.4,0.5-0.7,0.8-1.1c5.9,5.1,11.8,10.2,17.7,15.3c-12.9,4.4-21.1,14-28.3,24.8
		c-1.1-0.4-2.3-0.8-3.6-1.2c2.7-7.1,5.4-14,8.2-21.1c-33.4,0-66.6,0-99.8,0c0.4,3.1,0.9,6.1,1,9.2c0.1,2.7-0.1,5.5-0.8,8.1
		c-1.5,5.5-5.7,8.3-11,9.6c-2.8,0.7-5.7,0.5-8.5-0.2c-0.8-0.2-1.5-0.5-2.2-0.9c-1.4-0.9-1.8-2.3-1.1-4c0.4-0.9,0.8-1.8,1.4-2.6
		c6.5-8.7,10.5-18.5,13-29c0.7-3,1.3-6,2-9c1.5,0,3,0,4.7,0c0.4,3.9,0.8,7.8,1.2,11.7c3.5,0,6.9,0,10.6,0
		C76.8,104.2,77,76.4,75.8,48.4z M91.2,87.1c0.2,0,0.4,0.1,0.5,0.1c4.7,0,9.4,0,14,0c0.4,0,1-0.4,1.2-0.7c1.8-2.4,3.6-4.8,5.4-7.2
		c0.4-0.5,0.8-1,1.2-1.5c5.6,4,11,7.9,16.5,11.8c-2.2,2.2-4.3,4.2-6.3,6.4c-0.4,0.5-0.8,1.2-0.8,1.8c0,11,0,21.9,0,32.9
		c0,0.4,0,0.8,0.1,1.2c5.5,0,10.9,0,16.3,0c0-22.3,0-44.6,0-66.9c-16.1,0-32.1,0-48.1,0C91.2,72.4,91.2,79.7,91.2,87.1z M108.7,94.4
		c-5.9,0-11.7,0-17.5,0c0,12.5,0,25,0,37.5c5.9,0,11.7,0,17.5,0C108.7,119.4,108.7,107,108.7,94.4z"/>
	<path class="st0" d="M88.8,202.6c0-9.8,0-19.5,0-29.2c17.2,0,34.4,0,51.7,0c0,9.7,0,19.4,0,29.2
		C123.3,202.6,106.1,202.6,88.8,202.6z"/>
	<path class="st0" d="M88.9,238c0-9.4,0-18.7,0-28.1c17.2,0,34.4,0,51.7,0c0,9.4,0,18.7,0,28.1C123.3,238,106.1,238,88.9,238z"/>
	<path class="st0" d="M91.2,87.1c0-7.4,0-14.7,0-22.1c16,0,32,0,48.1,0c0,22.3,0,44.6,0,66.9c-5.4,0-10.8,0-16.3,0
		c0-0.4-0.1-0.8-0.1-1.2c0-11,0-21.9,0-32.9c0-0.6,0.3-1.4,0.8-1.8c2-2.1,4.2-4.2,6.3-6.4c-5.5-3.9-11-7.8-16.5-11.8
		c-0.4,0.5-0.8,1-1.2,1.5c-1.8,2.4-3.6,4.8-5.4,7.2c-0.3,0.4-0.8,0.7-1.2,0.7c-4.7,0-9.4,0-14,0C91.6,87.2,91.4,87.2,91.2,87.1z"/>
	<path class="st0" d="M108.7,94.4c0,12.5,0,24.9,0,37.5c-5.8,0-11.6,0-17.5,0c0-12.5,0-24.9,0-37.5C97,94.4,102.8,94.4,108.7,94.4z"
		/>
</g>
</svg>
