<?xml version="1.0" encoding="utf-8"?>
<!-- Generator: Adobe Illustrator 20.1.0, SVG Export Plug-In . SVG Version: 6.00 Build 0)  -->
<svg version="1.1" id="图层_1" xmlns="http://www.w3.org/2000/svg" xmlns:xlink="http://www.w3.org/1999/xlink" x="0px" y="0px"
	 viewBox="0 0 360 360" style="enable-background:new 0 0 360 360;" xml:space="preserve">
<style type="text/css">
	.st0{fill:#FFFFFF;}
</style>
<g>
	<path class="st0" d="M-0.1,360.1c0-120.1,0-240.2,0-360.2c120.1,0,240.2,0,360.2,0c0,120.1,0,240.2,0,360.2
		C240,360.1,120,360.1-0.1,360.1z M145,289.7c42.1,0,84,0,126,0c0,6.7,0,13.2,0,19.9c5.1-2.3,10-4.6,14.8-6.9c0.3-0.1,0.4-0.7,0.4-1
		c-0.2-6.7-0.4-13.3-0.5-20c-0.2-11.7-0.4-23.3-0.5-35c-0.1-11.4,0.1-22.8-0.2-34.2c-0.1-3.1,0.7-5.3,3.3-7c1.8-1.2,3.3-2.8,5-4.3
		c-6-4.4-11.8-8.7-17.7-13c-2.2,3.2-4.3,6.4-6.3,9.5c-0.5,0.8-1.1,1.2-2.1,1.2c-26.9,0-53.8,0-80.6,0c-0.4,0-0.8,0-1.5,0
		c0.3-0.4,0.4-0.7,0.6-0.9c3.2-3.9,6.3-7.9,9.7-11.8c3.6-4.1,7.4-8.1,12-11.2c0.7-0.5,1.6-0.7,2.4-0.7c17.9,0,35.8,0,53.8,0
		c0.5,0,0.9,0,1.6,0c-6.1-6.5-11.9-12.7-17.8-18.9c-4,3.6-7.9,7.2-11.8,10.8c-0.8,0.7-1.6,1-2.6,1c-27.6,0-55.3,0-82.9,0
		c-0.5,0-0.9,0-1.5,0c0.1,0.3,0.2,0.4,0.3,0.5c3.2,3.3,6.5,6.5,9.8,9.7c0.3,0.3,0.9,0.3,1.4,0.2c2.9-0.6,5.8-1.4,8.8-2
		c6.5-1.3,13-1.5,19.7-1.3c-0.2,0.5-0.3,0.9-0.4,1.3c-2.8,7.4-5.6,14.8-8.4,22.2c-0.3,0.9-0.7,1.2-1.7,1.2c-10.2,0-20.4,0-30.6,0
		c-0.7,0-1.4-0.2-2-0.5c-4.8-2.4-9.6-4.8-14.4-7.2c-0.3-0.2-0.7-0.3-1.3-0.6c1.9,40.5,1.2,80.9,0,121.4c0.5-0.2,0.8-0.4,1.1-0.5
		c4.4-2.4,8.8-4.8,13.3-7.1c0.8-0.4,1.1-0.9,1.1-1.9C145,298.2,145,293.9,145,289.7z"/>
	<path d="M145,289.7c0,4.3,0,8.5,0,12.8c0,0.9-0.2,1.4-1.1,1.9c-4.5,2.3-8.9,4.7-13.3,7.1c-0.3,0.2-0.6,0.3-1.1,0.5
		c1.2-40.5,1.9-80.8,0-121.4c0.6,0.3,1,0.4,1.3,0.6c4.8,2.4,9.6,4.8,14.4,7.2c0.6,0.3,1.4,0.5,2,0.5c10.2,0,20.4,0,30.6,0
		c1,0,1.4-0.3,1.7-1.2c2.8-7.4,5.6-14.8,8.4-22.2c0.2-0.4,0.3-0.8,0.4-1.3c-6.7-0.2-13.2-0.1-19.7,1.3c-2.9,0.6-5.8,1.3-8.8,2
		c-0.4,0.1-1.1,0-1.4-0.2c-3.3-3.2-6.5-6.5-9.8-9.7c-0.1-0.1-0.1-0.2-0.3-0.5c0.6,0,1,0,1.5,0c27.6,0,55.3,0,82.9,0
		c1.1,0,1.9-0.3,2.6-1c3.9-3.6,7.8-7.1,11.8-10.8c5.9,6.3,11.7,12.5,17.8,18.9c-0.7,0-1.2,0-1.6,0c-17.9,0-35.8,0-53.8,0
		c-0.8,0-1.7,0.3-2.4,0.7c-4.6,3.1-8.4,7.1-12,11.2c-3.3,3.8-6.5,7.8-9.7,11.8c-0.2,0.2-0.3,0.5-0.6,0.9c0.6,0,1,0,1.5,0
		c26.9,0,53.8,0,80.6,0c1,0,1.6-0.3,2.1-1.2c2-3.2,4.1-6.3,6.3-9.5c5.9,4.3,11.8,8.6,17.7,13c-1.7,1.5-3.2,3.1-5,4.3
		c-2.6,1.7-3.4,3.9-3.3,7c0.2,11.4,0.1,22.8,0.2,34.2c0.1,11.7,0.3,23.3,0.5,35c0.1,6.7,0.4,13.3,0.5,20c0,0.4-0.2,0.9-0.4,1
		c-4.9,2.3-9.8,4.5-14.8,6.9c0-6.7,0-13.3,0-19.9C229,289.7,187.1,289.7,145,289.7z M176.7,282.4c0-25.5,0-51,0-76.4
		c-10.6,0-21,0-31.5,0c0,25.5,0,50.9,0,76.4C155.7,282.4,166.1,282.4,176.7,282.4z M270.8,282.3c0-25.5,0-50.9,0-76.3
		c-10.2,0-20.2,0-30.4,0c0,25.5,0,50.9,0,76.3C250.6,282.3,260.7,282.3,270.8,282.3z M191,254.1c11.8,0,23.5,0,35.2,0
		c0-7.4,0-14.8,0-22.1c-11.8,0-23.4,0-35.2,0C191,239.3,191,246.7,191,254.1z M226.1,282.3c0-7.1,0-14,0-21c-11.7,0-23.4,0-35.1,0
		c0,7,0,14,0,21C202.7,282.3,214.4,282.3,226.1,282.3z M191,224.6c11.8,0,23.5,0,35.2,0c0-6.3,0-12.4,0-18.6c-11.8,0-23.4,0-35.2,0
		C191,212.2,191,218.4,191,224.6z"/>
	<path class="st0" d="M176.7,282.4c-10.5,0-21,0-31.5,0c0-25.5,0-50.9,0-76.4c10.5,0,21,0,31.5,0
		C176.7,231.4,176.7,256.8,176.7,282.4z"/>
	<path class="st0" d="M270.8,282.3c-10.1,0-20.2,0-30.4,0c0-25.4,0-50.9,0-76.3c10.1,0,20.2,0,30.4,0
		C270.8,231.4,270.8,256.8,270.8,282.3z"/>
	<path class="st0" d="M191,254.1c0-7.4,0-14.7,0-22.1c11.7,0,23.4,0,35.2,0c0,7.3,0,14.7,0,22.1C214.4,254.1,202.8,254.1,191,254.1z
		"/>
	<path class="st0" d="M226.1,282.3c-11.7,0-23.4,0-35.1,0c0-7,0-14,0-21c11.7,0,23.4,0,35.1,0C226.1,268.3,226.1,275.3,226.1,282.3z
		"/>
	<path class="st0" d="M191,224.6c0-6.2,0-12.4,0-18.6c11.7,0,23.4,0,35.2,0c0,6.2,0,12.4,0,18.6C214.4,224.6,202.8,224.6,191,224.6z
		"/>
</g>
</svg>
