<?xml version="1.0" encoding="utf-8"?>
<!-- Generator: Adobe Illustrator 20.1.0, SVG Export Plug-In . SVG Version: 6.00 Build 0)  -->
<svg version="1.1" id="图层_1" xmlns="http://www.w3.org/2000/svg" xmlns:xlink="http://www.w3.org/1999/xlink" x="0px" y="0px"
	 viewBox="0 0 360 360" style="enable-background:new 0 0 360 360;" xml:space="preserve">
<style type="text/css">
	.st0{fill:#FFFFFF;}
</style>
<g>
	<path class="st0" d="M0.2,360.5c0-120.1,0-240.2,0-360.2c120.1,0,240.2,0,360.2,0c0,120.1,0,240.2,0,360.2
		C240.4,360.5,120.3,360.5,0.2,360.5z M155.9,307.6c0.6-0.3,1-0.5,1.3-0.7c3.9-2.3,7.7-4.5,11.6-6.7c1-0.6,1.5-1.2,1.3-2.3
		c-0.2-0.9-0.1-1.8-0.1-2.8c-0.2-10.5-0.5-21-0.6-31.5c-0.2-9.7-0.4-19.3-0.4-29c0-32.2,0-64.4,0-96.6c0-0.8,0.2-1.3,1-1.6
		c2.8-1.3,5.6-2.8,8.5-4.2c-4.8-5.6-9.5-11-14.2-16.6c-3.3,3.3-6.6,6.6-9.8,9.8c-0.6,0.6-1.2,0.9-2.1,0.9c-16.7,0-33.4,0-50.2,0
		c-0.4,0-0.8,0-1.4,0c0.3-0.6,0.5-1,0.7-1.3c8.2-14.1,16.3-28.2,24.5-42.3c0.5-0.8,1-1.1,1.9-1.1c18.7,0,37.4,0,56,0
		c0.5,0,0.9,0,1.7,0c-6-6.8-11.9-13.4-17.7-20.1c-0.4,0.3-0.6,0.5-0.9,0.8c-4,3.7-8.1,7.4-12.1,11.1c-0.8,0.8-1.6,1.1-2.7,1.1
		c-35,0-70.1,0-105.1,0c-0.5,0-1,0-1.8,0c3.4,3.4,6.6,6.5,9.7,9.7c0.7,0.8,1.4,0.9,2.4,0.6c6.6-1.8,13.3-3.1,20.2-3.2
		c8.4-0.1,16.9,0,25.3,0c0.4,0,0.8,0,1.4,0c0,0.6,0,1,0,1.4c-0.3,2.8-0.5,5.6-1,8.3c-1.9,11.5-5,22.8-8.1,34
		c-0.2,0.8-0.6,1.1-1.4,1.1c-6,0-12,0-18,0c-0.6,0-1.3-0.3-1.7-0.6c-4.5-3.1-8.9-6.2-13.4-9.3c-0.3-0.2-0.6-0.4-1.1-0.7
		c1.7,64.8,1.3,129.5,0,194.3c0.3-0.1,0.4-0.2,0.5-0.3c4.3-2.9,8.7-5.7,12.9-8.7c0.4-0.2,0.6-0.9,0.6-1.4c0.1-3.2,0-6.3,0-9.5
		c0-0.4,0-0.8,0.1-1.3c27.5,0,54.8,0,82.3,0C155.9,295.1,155.9,301.2,155.9,307.6z"/>
	<path d="M155.9,307.6c0-6.4,0-12.5,0-18.8c-27.5,0-54.9,0-82.3,0c0,0.4-0.1,0.9-0.1,1.3c0,3.2,0,6.3,0,9.5c0,0.5-0.3,1.1-0.6,1.4
		c-4.3,2.9-8.6,5.8-12.9,8.7c-0.1,0.1-0.3,0.1-0.5,0.3c1.4-64.8,1.8-129.5,0-194.3c0.4,0.3,0.7,0.4,1.1,0.7
		c4.5,3.1,8.9,6.2,13.4,9.3c0.5,0.3,1.2,0.6,1.7,0.6c6,0,12,0,18,0c0.8,0,1.2-0.2,1.4-1.1c3.1-11.2,6.2-22.5,8.1-34
		c0.5-2.8,0.7-5.6,1-8.3c0-0.4,0-0.8,0-1.4c-0.5,0-1,0-1.4,0c-8.4,0-16.9-0.1-25.3,0c-6.9,0.1-13.6,1.4-20.2,3.2
		c-1,0.3-1.6,0.1-2.4-0.6c-3.1-3.2-6.3-6.3-9.7-9.7c0.8,0,1.3,0,1.8,0c35,0,70.1,0,105.1,0c1.1,0,1.9-0.3,2.7-1.1
		c4-3.7,8.1-7.4,12.1-11.1c0.3-0.2,0.5-0.5,0.9-0.8c5.9,6.6,11.7,13.2,17.7,20.1c-0.7,0-1.2,0-1.7,0c-18.7,0-37.4,0-56,0
		c-0.9,0-1.4,0.3-1.9,1.1c-8.1,14.1-16.3,28.2-24.5,42.3c-0.2,0.4-0.4,0.8-0.7,1.3c0.6,0,1,0,1.4,0c16.7,0,33.4,0,50.2,0
		c0.9,0,1.5-0.2,2.1-0.9c3.2-3.3,6.4-6.5,9.8-9.8c4.8,5.6,9.5,11,14.2,16.6c-2.9,1.5-5.7,2.9-8.5,4.2c-0.8,0.4-1,0.8-1,1.6
		c0,32.2,0,64.4,0,96.6c0,9.7,0.2,19.3,0.4,29c0.2,10.5,0.4,21,0.6,31.5c0,0.9-0.1,1.9,0.1,2.8c0.2,1.2-0.2,1.8-1.3,2.3
		c-3.9,2.2-7.7,4.5-11.6,6.7C156.8,307.1,156.5,307.3,155.9,307.6z M134.9,133.3c0,49.5,0,98.9,0,148.2c7,0,14,0,20.9,0
		c0-49.5,0-98.8,0-148.2C148.7,133.3,141.8,133.3,134.9,133.3z M73.6,133.3c0,49.4,0,98.8,0,148.2c6.6,0,13.2,0,19.9,0
		c0-49.4,0-98.8,0-148.2C86.8,133.3,80.2,133.3,73.6,133.3z M105.4,233.5c0,16.1,0,32.1,0,48.1c5.8,0,11.6,0,17.4,0
		c0-16.1,0-32,0-48.1C117,233.5,111.3,233.5,105.4,233.5z M105.4,182.7c0,14.5,0,29,0,43.5c5.8,0,11.6,0,17.4,0c0-14.5,0-29,0-43.5
		C117,182.7,111.2,182.7,105.4,182.7z M122.8,175.6c0-14.1,0-28.2,0-42.3c-5.8,0-11.6,0-17.4,0c0,14.1,0,28.2,0,42.3
		C111.3,175.6,117,175.6,122.8,175.6z"/>
	<path class="st0" d="M134.9,133.3c7,0,13.9,0,20.9,0c0,49.4,0,98.8,0,148.2c-6.9,0-13.8,0-20.9,0
		C134.9,232.2,134.9,182.8,134.9,133.3z"/>
	<path class="st0" d="M73.6,133.3c6.6,0,13.2,0,19.9,0c0,49.4,0,98.8,0,148.2c-6.6,0-13.2,0-19.9,0
		C73.6,232.1,73.6,182.7,73.6,133.3z"/>
	<path class="st0" d="M105.4,233.5c5.9,0,11.6,0,17.4,0c0,16,0,32,0,48.1c-5.8,0-11.6,0-17.4,0C105.4,265.5,105.4,249.5,105.4,233.5
		z"/>
	<path class="st0" d="M105.4,182.7c5.8,0,11.6,0,17.4,0c0,14.5,0,28.9,0,43.5c-5.8,0-11.5,0-17.4,0
		C105.4,211.7,105.4,197.3,105.4,182.7z"/>
	<path class="st0" d="M122.8,175.6c-5.8,0-11.6,0-17.4,0c0-14.1,0-28.1,0-42.3c5.8,0,11.6,0,17.4,0
		C122.8,147.4,122.8,161.5,122.8,175.6z"/>
</g>
</svg>
