<?xml version="1.0" encoding="utf-8"?>
<!-- Generator: Adobe Illustrator 20.1.0, SVG Export Plug-In . SVG Version: 6.00 Build 0)  -->
<svg version="1.1" id="图层_1" xmlns="http://www.w3.org/2000/svg" xmlns:xlink="http://www.w3.org/1999/xlink" x="0px" y="0px"
	 viewBox="0 0 360 360" style="enable-background:new 0 0 360 360;" xml:space="preserve">
<style type="text/css">
	.st0{fill:#FFFFFF;}
</style>
<g>
	<path class="st0" d="M-0.1,360.1c0-120.1,0-240.2,0-360.2c120.1,0,240.2,0,360.2,0c0,120.1,0,240.2,0,360.2
		C240,360.1,120,360.1-0.1,360.1z M62.6,138.8c1.5,57,1.5,113.8,0,170.7c0.4-0.2,0.7-0.3,1-0.5c4.8-2.8,9.6-5.5,14.5-8.3
		c0.8-0.4,1-0.9,1-1.8c0-4.2,0-8.5,0-12.7c0-0.4,0-0.8,0-1.3c16.6,0,32.9,0,49.4,0c0,6.2,0,12.4,0,18.6c0.2,0,0.4,0,0.5-0.1
		c5.2-2.9,10.3-5.9,15.5-8.9c0.3-0.2,0.5-0.8,0.5-1.2c-0.3-9.2-1-18.4-1-27.6c-0.1-36.2-0.1-72.3,0-108.5c0-0.6,0.3-1.2,0.7-1.6
		c2.2-2.3,4.5-4.5,6.8-6.8c0.2-0.2,0.4-0.5,0.7-0.8c-5.9-4.4-11.8-8.6-17.7-13c-0.2,0.4-0.5,0.7-0.7,1.1c-2,3.3-3.9,6.5-5.9,9.8
		c-0.4,0.7-0.8,1-1.7,1c-8.6,0-17.2,0-25.8,0c-0.4,0-0.7,0-1.3-0.1c0.2-0.6,0.3-1,0.5-1.4c4.4-11.6,9.5-22.9,15.3-33.9
		c0.4-0.8,0.9-1.1,1.8-1.1c16.4,0,32.7,0,49.1,0c0.4,0,0.8,0,1.2,0c-6.3-6.3-12.5-12.5-18.8-18.8c-0.2,0.2-0.6,0.5-0.9,0.7
		c-4.1,3.4-8.2,6.8-12.3,10.2c-0.5,0.4-1.2,0.6-1.8,0.6c-4.7,0.1-9.4,0-14.2,0c-0.3,0-0.7-0.1-1.1-0.1c0.2-0.4,0.4-0.7,0.6-1
		c6-10,12-19.9,18-29.9c3.5-5.9,7.9-11.1,13.9-14.7c0.1,0,0.1-0.2,0.2-0.3c-7.8-3.9-15.6-7.8-23.4-11.7c-0.3,1.6-0.5,3-0.7,4.4
		c-3.3,18.5-8.1,36.6-14.1,54.3c-0.4,1.1-0.8,1.4-1.9,1.4c-21,0-42,0-63,0c-0.4,0-0.9,0-1.6,0c3.6,3.6,6.9,6.9,10.2,10.1
		c0.3,0.3,1,0.3,1.5,0.2c6.5-1.6,13-3.1,19.7-3.2c6.2-0.1,12.5,0,18.7,0c0.2,0,0.4,0.1,0.6,0.2c-0.3,2.7-0.4,5.4-0.8,8
		c-1.2,8.3-2.5,16.7-3.8,25c-0.1,0.7-0.4,0.9-1.1,0.9c-1.8,0-3.5-0.2-5.3,0c-4.6,0.5-8.8-0.6-12.8-3
		C69.7,142.1,66.1,140.5,62.6,138.8z M67.1,51.3c-0.6,0.7-1.1,1.4-1.7,2c-0.5,0.4-0.5,0.8-0.2,1.3c0.9,1.6,1.8,3.2,2.7,4.8
		c4.8,8.8,8.8,17.9,11.1,27.7c0.7,3,1.3,6.1,2.3,9c1.7,4.7,4.7,5.2,8.1,1.6c2.6-2.7,4.8-5.7,6.4-9.1c2.1-4.4,2-8.8-0.5-13
		c-0.8-1.4-1.8-2.8-2.8-4c-4-4.8-8.9-8.6-13.9-12.3C74.9,56.6,71.1,54.1,67.1,51.3z"/>
	<path d="M62.6,138.8c3.6,1.8,7.1,3.3,10.4,5.2c4,2.4,8.1,3.5,12.8,3c1.7-0.2,3.5-0.1,5.3,0c0.7,0,1-0.2,1.1-0.9
		c1.2-8.3,2.6-16.7,3.8-25c0.4-2.6,0.5-5.3,0.8-8c-0.3-0.1-0.4-0.2-0.6-0.2c-6.2,0-12.5-0.1-18.7,0c-6.7,0.1-13.2,1.5-19.7,3.2
		c-0.5,0.1-1.2,0.1-1.5-0.2c-3.4-3.3-6.7-6.6-10.2-10.1c0.8,0,1.2,0,1.6,0c21,0,42,0,63,0c1.1,0,1.6-0.3,1.9-1.4
		c6-17.8,10.8-35.8,14.1-54.3c0.2-1.4,0.5-2.8,0.7-4.4c7.9,3.9,15.6,7.8,23.4,11.7c-0.1,0.2-0.1,0.3-0.2,0.3
		c-6,3.6-10.3,8.7-13.9,14.7c-6,10-12,19.9-18,29.9c-0.2,0.3-0.3,0.6-0.6,1c0.4,0,0.8,0.1,1.1,0.1c4.7,0,9.4,0,14.2,0
		c0.6,0,1.3-0.3,1.8-0.6c4.1-3.4,8.2-6.8,12.3-10.2c0.3-0.3,0.7-0.5,0.9-0.7c6.3,6.3,12.5,12.5,18.8,18.8c-0.4,0-0.8,0-1.2,0
		c-16.4,0-32.7,0-49.1,0c-0.9,0-1.4,0.2-1.8,1.1c-5.8,11-10.9,22.3-15.3,33.9c-0.2,0.4-0.3,0.8-0.5,1.4c0.5,0,0.9,0.1,1.3,0.1
		c8.6,0,17.2,0,25.8,0c0.8,0,1.3-0.3,1.7-1c1.9-3.3,3.9-6.5,5.9-9.8c0.2-0.3,0.4-0.7,0.7-1.1c5.9,4.3,11.7,8.6,17.7,13
		c-0.2,0.3-0.5,0.6-0.7,0.8c-2.3,2.3-4.5,4.5-6.8,6.8c-0.4,0.4-0.7,1.1-0.7,1.6c0,36.2-0.1,72.3,0,108.5c0,9.2,0.7,18.4,1,27.6
		c0,0.4-0.2,1-0.5,1.2c-5.1,3-10.3,5.9-15.5,8.9c-0.1,0.1-0.2,0-0.5,0.1c0-6.2,0-12.3,0-18.6c-16.5,0-32.9,0-49.4,0
		c0,0.4,0,0.8,0,1.3c0,4.2,0,8.5,0,12.7c0,0.9-0.2,1.4-1,1.8c-4.8,2.7-9.7,5.5-14.5,8.3c-0.3,0.2-0.6,0.3-1,0.5
		C64.1,252.6,64,195.8,62.6,138.8z M128.4,239c-16.5,0-32.9,0-49.3,0c0,12.9,0,25.8,0,38.7c16.5,0,32.8,0,49.3,0
		C128.4,264.8,128.4,251.9,128.4,239z M128.4,196.6c-16.5,0-32.9,0-49.3,0c0,11.8,0,23.5,0,35.1c16.5,0,32.9,0,49.3,0
		C128.4,219.9,128.4,208.3,128.4,196.6z M128.4,189.3c0-11.7,0-23.4,0-35.1c-16.5,0-32.9,0-49.3,0c0,11.8,0,23.4,0,35.1
		C95.6,189.3,112,189.3,128.4,189.3z"/>
	<path d="M67.1,51.3c4,2.8,7.8,5.3,11.5,8.1c5,3.7,9.8,7.5,13.9,12.3c1,1.2,2,2.6,2.8,4c2.5,4.2,2.7,8.6,0.5,13
		c-1.6,3.4-3.8,6.4-6.4,9.1c-3.4,3.6-6.4,3-8.1-1.6c-1.1-2.9-1.6-6-2.3-9c-2.3-9.8-6.3-18.9-11.1-27.7c-0.9-1.6-1.8-3.2-2.7-4.8
		c-0.3-0.5-0.3-0.9,0.2-1.3C66,52.7,66.5,52.1,67.1,51.3z"/>
	<path class="st0" d="M128.4,239c0,12.9,0,25.8,0,38.7c-16.4,0-32.8,0-49.3,0c0-12.9,0-25.8,0-38.7C95.5,239,111.9,239,128.4,239z"
		/>
	<path class="st0" d="M128.4,196.6c0,11.7,0,23.4,0,35.1c-16.4,0-32.8,0-49.3,0c0-11.7,0-23.3,0-35.1
		C95.5,196.6,111.9,196.6,128.4,196.6z"/>
	<path class="st0" d="M128.4,189.3c-16.4,0-32.8,0-49.3,0c0-11.7,0-23.3,0-35.1c16.4,0,32.8,0,49.3,0
		C128.4,165.9,128.4,177.5,128.4,189.3z"/>
</g>
</svg>
