<?xml version="1.0" encoding="utf-8"?>
<!-- Generator: Adobe Illustrator 20.1.0, SVG Export Plug-In . SVG Version: 6.00 Build 0)  -->
<svg version="1.1" id="图层_1" xmlns="http://www.w3.org/2000/svg" xmlns:xlink="http://www.w3.org/1999/xlink" x="0px" y="0px"
	 viewBox="0 0 360 360" style="enable-background:new 0 0 360 360;" xml:space="preserve">
<style type="text/css">
	.st0{fill:#FFFFFF;}
</style>
<g>
	<path class="st0" d="M-0.1,360.1c0-120.1,0-240.2,0-360.2c120.1,0,240.2,0,360.2,0c0,120.1,0,240.2,0,360.2
		C240,360.1,120,360.1-0.1,360.1z M263.9,271.9c0.6-0.3,1-0.4,1.4-0.6c4.6-2.3,9.2-4.6,13.8-6.9c1-0.5,1.3-1.1,1.2-2.2
		c-0.4-6.9-1.1-13.9-1.1-20.8c-0.1-31.9-0.1-63.8,0-95.6c0-0.6,0.3-1.2,0.6-1.7c1.5-1.8,3.1-3.6,4.6-5.3c1-1.1,2-2.3,3-3.5
		c-6-4-11.8-7.9-17.7-11.8c-2.2,3.6-4.3,7.2-6.4,10.7c-0.5,0.8-1,1.2-2,1.2c-13.2,0-26.5,0-39.7,0c-0.4,0-0.8,0-1.3,0
		c0.2-0.6,0.4-1,0.6-1.5c4.4-10,9.4-19.6,15-28.9c0.6-1,1.2-1.4,2.4-1.4c24.4,0,48.9,0,73.3,0c0.5,0,1,0,1.8,0
		c-6.8-7.7-13.4-15-20.1-22.4c-0.3,0.2-0.5,0.4-0.7,0.6c-5,4.7-10,9.3-15,13.9c-0.5,0.5-1.3,0.8-2,0.8c-9.3,0-18.6,0-28,0
		c-0.4,0-0.8,0-1.3-0.1c0.2-0.4,0.3-0.6,0.5-0.8c6.2-9.1,12.3-18.1,18.5-27.2c2.4-3.6,5.2-6.8,9-9c1.1-0.7,2.3-1.2,3.6-1.9
		c-7.5-4.3-14.8-8.6-22.3-12.9c-0.1,0.4-0.2,0.6-0.2,0.8c-3.2,17.2-8.6,33.6-15.6,49.6c-0.5,1.1-1.1,1.5-2.3,1.5
		c-28.4,0-56.8,0-85.2,0c-0.4,0-0.9,0-1.6,0c3.6,3.6,6.9,6.9,10.2,10.2c0.3,0.3,0.9,0.3,1.4,0.2c8.3-2.1,16.8-3.2,25.4-3.2
		c9.6-0.1,19.3,0,28.9,0c0.4,0,0.8,0,1.3,0.1c-0.8,10.7-1.9,21.2-3.5,31.7c-6,0-11.8,0-17.7,0c-0.7,0-1.4-0.2-2-0.5
		c-4.8-2.7-9.5-5.4-14.3-8.1c-0.4-0.2-0.8-0.4-1.3-0.7c1.6,50,1.5,99.7,0,149.5c0.2,0,0.3,0,0.4-0.1c5.2-2.6,10.4-5.2,15.5-7.8
		c0.3-0.2,0.6-0.7,0.6-1.1c0.1-2.4,0-4.8,0-7.2c0-0.8,0-1.6,0-2.4c22.8,0,45.5,0,68.3,0C263.9,261.7,263.9,266.7,263.9,271.9z
		 M180,46.8c2.1,4.1,4.3,8,6.3,12.1c3.6,7.4,6.5,15,8.2,23.1c0.6,2.9,1.4,5.8,2.5,8.4c1.4,3.2,3.8,3.5,6.5,1.2
		c0.2-0.2,0.4-0.3,0.5-0.5c2.6-2.7,4.8-5.6,6.6-9c2.5-4.8,2.4-9.6-0.6-14.1c-1.4-2.1-2.9-4-4.6-5.8c-5.3-5.4-11.3-9.9-17.5-14.1
		c-1.8-1.3-3.7-2.5-5.6-3.7C181.4,45.3,180.7,46,180,46.8z"/>
	<path d="M263.9,271.9c0-5.1,0-10.1,0-15.2c-22.8,0-45.4,0-68.3,0c0,0.8,0,1.6,0,2.4c0,2.4,0,4.8,0,7.2c0,0.4-0.3,1-0.6,1.1
		c-5.2,2.6-10.3,5.2-15.5,7.8c-0.1,0-0.2,0-0.4,0.1c1.5-49.8,1.6-99.5,0-149.5c0.5,0.3,0.9,0.5,1.3,0.7c4.8,2.7,9.5,5.4,14.3,8.1
		c0.6,0.3,1.3,0.5,2,0.5c5.8,0,11.7,0,17.7,0c1.7-10.5,2.8-21,3.5-31.7c-0.5,0-0.9-0.1-1.3-0.1c-9.6,0-19.3-0.1-28.9,0
		c-8.6,0.1-17.1,1.1-25.4,3.2c-0.4,0.1-1.1,0-1.4-0.2c-3.3-3.3-6.6-6.6-10.2-10.2c0.8,0,1.2,0,1.6,0c28.4,0,56.8,0,85.2,0
		c1.2,0,1.8-0.4,2.3-1.5c7.1-15.9,12.5-32.4,15.6-49.6c0-0.2,0.1-0.4,0.2-0.8c7.4,4.3,14.8,8.6,22.3,12.9c-1.3,0.7-2.5,1.2-3.6,1.9
		c-3.7,2.3-6.5,5.5-9,9c-6.2,9-12.3,18.1-18.5,27.2c-0.2,0.2-0.3,0.5-0.5,0.8c0.5,0,0.9,0.1,1.3,0.1c9.3,0,18.6,0,28,0
		c0.7,0,1.5-0.3,2-0.8c5-4.6,10-9.3,15-13.9c0.2-0.2,0.4-0.3,0.7-0.6c6.6,7.4,13.2,14.8,20.1,22.4c-0.8,0-1.3,0-1.8,0
		c-24.4,0-48.9,0-73.3,0c-1.2,0-1.8,0.4-2.4,1.4c-5.6,9.3-10.6,19-15,28.9c-0.2,0.4-0.3,0.9-0.6,1.5c0.5,0,0.9,0,1.3,0
		c13.2,0,26.5,0,39.7,0c1,0,1.5-0.3,2-1.2c2.1-3.5,4.2-7.1,6.4-10.7c5.9,3.9,11.7,7.8,17.7,11.8c-1,1.2-2,2.3-3,3.5
		c-1.6,1.8-3.1,3.5-4.6,5.3c-0.4,0.4-0.6,1.1-0.6,1.7c0,31.9-0.1,63.8,0,95.6c0,6.9,0.7,13.9,1.1,20.8c0.1,1.1-0.2,1.7-1.2,2.2
		c-4.6,2.2-9.2,4.6-13.8,6.9C264.9,271.4,264.5,271.6,263.9,271.9z M263.9,216.6c-22.8,0-45.4,0-68.1,0c0,11,0,21.9,0,32.8
		c22.7,0,45.4,0,68.1,0C263.9,238.5,263.9,227.6,263.9,216.6z M195.7,172.8c22.8,0,45.4,0,68.1,0c0-10.2,0-20.3,0-30.4
		c-22.7,0-45.4,0-68.1,0C195.7,152.6,195.7,162.6,195.7,172.8z M195.7,209.3c22.8,0,45.4,0,68.1,0c0-9.8,0-19.5,0-29.3
		c-22.7,0-45.4,0-68.1,0C195.7,189.8,195.7,199.5,195.7,209.3z"/>
	<path d="M180,46.8c0.7-0.7,1.5-1.5,2.3-2.4c1.9,1.2,3.8,2.4,5.6,3.7c6.2,4.3,12.3,8.7,17.5,14.1c1.7,1.8,3.2,3.8,4.6,5.8
		c3,4.5,3.1,9.3,0.6,14.1c-1.7,3.3-3.9,6.3-6.6,9c-0.2,0.2-0.4,0.3-0.5,0.5c-2.7,2.2-5.1,1.9-6.5-1.2c-1.2-2.7-1.9-5.6-2.5-8.4
		c-1.7-8.1-4.6-15.7-8.2-23.1C184.3,54.8,182.1,50.9,180,46.8z"/>
	<path class="st0" d="M263.9,216.6c0,10.9,0,21.8,0,32.8c-22.7,0-45.4,0-68.1,0c0-10.9,0-21.8,0-32.8
		C218.4,216.6,241.1,216.6,263.9,216.6z"/>
	<path class="st0" d="M195.7,172.8c0-10.2,0-20.2,0-30.4c22.7,0,45.4,0,68.1,0c0,10.1,0,20.2,0,30.4
		C241.2,172.8,218.5,172.8,195.7,172.8z"/>
	<path class="st0" d="M195.7,209.3c0-9.8,0-19.5,0-29.3c22.7,0,45.4,0,68.1,0c0,9.8,0,19.5,0,29.3
		C241.2,209.3,218.5,209.3,195.7,209.3z"/>
</g>
</svg>
