<?xml version="1.0" encoding="utf-8"?>
<!-- Generator: Adobe Illustrator 20.1.0, SVG Export Plug-In . SVG Version: 6.00 Build 0)  -->
<svg version="1.1" id="图层_1" xmlns="http://www.w3.org/2000/svg" xmlns:xlink="http://www.w3.org/1999/xlink" x="0px" y="0px"
	 viewBox="0 0 360 360" style="enable-background:new 0 0 360 360;" xml:space="preserve">
<style type="text/css">
	.st0{fill:#FFFFFF;}
</style>
<g>
	<path class="st0" d="M-0.1,360.1c0-120.1,0-240.2,0-360.2c120.1,0,240.2,0,360.2,0c0,120.1,0,240.2,0,360.2
		C240,360.1,120,360.1-0.1,360.1z M92,296.7c2.2-2.2,4.2-4.2,6.3-6.3c0.6-0.6,1.2-0.8,2-0.8c24.3,0,48.6,0,72.8,0c0.4,0,0.8,0,1.5,0
		c-0.4,9.5-0.8,18.8-1.2,28.2c0.3-0.1,0.5-0.1,0.6-0.2c5.4-2.2,10.8-4.3,16.2-6.5c0.8-0.3,0.7-0.8,0.7-1.4
		c-0.3-4.4-0.7-8.8-0.9-13.3c-0.1-2.3,0-4.5,0-6.9c33.2,0,66.5,0,100,0c-6.8-7.2-13.4-14.2-20-21.2c-0.4,0.4-0.7,0.7-1,1
		c-4.1,4.1-8.2,8.2-12.3,12.3c-0.6,0.6-1.2,0.8-2,0.8c-21.1,0-42.2,0-63.4,0c-0.5,0-0.9,0-1.3-0.1c0-6.7,0-13.2,0-19.9
		c30.2,0,60.3,0,90.6,0c-6.8-7.2-13.4-14.2-20.2-21.4c-0.3,0.4-0.6,0.8-0.9,1.1c-4.1,4.1-8.2,8.2-12.3,12.3
		c-0.6,0.6-1.2,0.9-2.1,0.9c-18,0-35.9,0-53.9,0c-0.4,0-0.8,0-1.3-0.1c0-7.1,0-14.1,0-21.1c11.8,0,23.4,0,35.2,0c0,2.3,0,4.6,0,6.9
		c0.2,0,0.4,0,0.5,0c4.8-1.8,9.5-3.6,14.3-5.5c0.3-0.1,0.5-0.7,0.5-1c-0.3-6.1-0.7-12.3-1.1-18.4c-0.1-1.4,0.2-2.4,1.6-2.9
		c0.6-0.2,1.2-0.7,1.8-1c1.6-0.9,3.2-1.8,5-2.8c-5.6-4.8-11.1-9.5-16.6-14.2c-2.5,2.9-5,5.7-7.4,8.5c-0.6,0.7-1.2,0.9-2,0.9
		c-28.7,0-57.4,0-86.2,0c-0.7,0-1.4-0.2-2-0.5c-4.8-2.3-9.5-4.7-14.3-7.1c-0.3-0.2-0.7-0.3-1.3-0.6c1.6,15.8,1.6,31.4,0,47.2
		c0.6-0.2,0.9-0.4,1.2-0.5c4.1-1.9,8.1-3.8,12.2-5.6c1.4-0.6,2.5-1.3,2.1-3c0-0.1,0.1-0.2,0.2-0.3c13.6,0,27.3,0,40.9,0
		c0,7.1,0,14,0,21.2c-33.7,0-67.3,0-101.1,0c0.4,0.5,0.7,0.8,1,1c2.9,2.9,5.8,5.7,8.6,8.7c0.7,0.7,1.3,0.8,2.2,0.6
		c6.5-1.8,13.2-3.2,19.9-3.2c22.7-0.1,45.4,0,68,0c0.4,0,0.9,0,1.3,0c0,6.7,0,13.3,0,19.9c-24.6,0-49.2,0-74.1,0
		c3.2-3.6,6.3-7.1,9.3-10.5c-5.9-2.3-11.7-4.7-17.5-7c-1.4,3.6-2.8,7-4,10.5c-1.7,4.7-4.9,7.8-9.2,10.2c-0.3,0.2-0.6,0.4-1,0.6
		C82.6,289.6,87.2,293.1,92,296.7z M228.6,146.9c-2.6,3-5.1,5.8-7.6,8.7c-0.3,0.4-1,0.7-1.5,0.7c-21,0-42,0-63,0
		c-0.3,0-0.6-0.1-0.9-0.1c0.7-3.2,1.4-6.2,2-9.2c0.2-0.9,0.6-1.4,1.4-1.8c2.4-1.3,4.7-2.7,7.2-4.1c-7.1-4-14.2-7.9-21.3-11.8
		c-1.6,9.1-3.2,18.1-4.7,27.1c-14.9,0-29.7,0-44.7,0c0.2,0.3,0.3,0.4,0.4,0.5c3.2,3.2,6.4,6.4,9.6,9.6c0.3,0.3,1.1,0.4,1.6,0.3
		c10.3-3,20.8-3.6,31.4-3.2c0.2,0,0.3,0.1,0.5,0.1c0,0.3-0.1,0.7-0.1,1c-1.4,6.2-2.8,12.5-4.1,18.7c-0.2,1.2-0.7,1.4-1.8,1.4
		c-24.5,0-49,0-73.6,0c-0.5,0-0.9,0-1.6,0c3.4,3.4,6.6,6.6,9.8,9.8c0.6,0.6,1.1,0.8,2,0.6c8.4-2.3,17-3.3,25.7-3.3
		c65.8,0.1,131.7,0,197.5,0c0.5,0,1.1,0,2,0c-6.8-7.2-13.4-14.2-20.1-21.3c-4.5,4.5-9,9-13.5,13.4c-0.4,0.4-1.2,0.7-1.7,0.7
		c-7.8,0-15.7,0-23.5,0c-0.4,0-0.8,0-1.2,0c0-0.3,0-0.5,0-0.7c0.7-5.4,1.4-10.9,2.2-16.3c0.1-0.4,0.5-0.8,0.8-1
		c2.2-1.2,4.4-2.2,6.6-3.3c0.7-0.3,1.3-0.7,2-1.1C240.3,157.1,234.5,152.1,228.6,146.9z"/>
	<path d="M92,296.7c-4.7-3.6-9.4-7-14.2-10.6c0.4-0.2,0.7-0.4,1-0.6c4.3-2.3,7.5-5.5,9.2-10.2c1.2-3.5,2.6-6.9,4-10.5
		c5.8,2.3,11.7,4.7,17.5,7c-3.1,3.5-6.1,6.9-9.3,10.5c24.9,0,49.5,0,74.1,0c0-6.6,0-13.1,0-19.9c-0.5,0-0.9,0-1.3,0
		c-22.7,0-45.4,0-68,0c-6.8,0-13.4,1.4-19.9,3.2c-0.9,0.2-1.5,0.1-2.2-0.6c-2.8-2.9-5.8-5.8-8.6-8.7c-0.3-0.3-0.5-0.6-1-1
		c33.8,0,67.4,0,101.1,0c0-7.1,0-14.1,0-21.2c-13.6,0-27.2,0-40.9,0c-0.1,0.1-0.2,0.2-0.2,0.3c0.4,1.7-0.7,2.4-2.1,3
		c-4.1,1.8-8.1,3.7-12.2,5.6c-0.3,0.1-0.6,0.2-1.2,0.5c1.6-15.8,1.6-31.4,0-47.2c0.6,0.3,0.9,0.4,1.3,0.6c4.8,2.4,9.5,4.8,14.3,7.1
		c0.6,0.3,1.4,0.5,2,0.5c28.7,0,57.4,0,86.2,0c0.9,0,1.5-0.3,2-0.9c2.4-2.8,4.9-5.6,7.4-8.5c5.5,4.7,11,9.4,16.6,14.2
		c-1.7,1-3.3,1.9-5,2.8c-0.6,0.3-1.1,0.8-1.8,1c-1.4,0.5-1.7,1.5-1.6,2.9c0.4,6.1,0.8,12.3,1.1,18.4c0,0.3-0.2,0.9-0.5,1
		c-4.8,1.9-9.5,3.7-14.3,5.5c-0.1,0-0.2,0-0.5,0c0-2.3,0-4.5,0-6.9c-11.8,0-23.4,0-35.2,0c0,7,0,14,0,21.1c0.4,0,0.9,0.1,1.3,0.1
		c18,0,35.9,0,53.9,0c0.9,0,1.5-0.3,2.1-0.9c4.1-4.1,8.2-8.2,12.3-12.3c0.3-0.3,0.5-0.7,0.9-1.1c6.8,7.2,13.4,14.2,20.2,21.4
		c-30.3,0-60.4,0-90.6,0c0,6.7,0,13.2,0,19.9c0.4,0,0.9,0.1,1.3,0.1c21.1,0,42.2,0,63.4,0c0.8,0,1.4-0.2,2-0.8
		c4.1-4.1,8.2-8.2,12.3-12.3c0.3-0.3,0.6-0.6,1-1c6.7,7,13.3,14,20,21.2c-33.5,0-66.7,0-100,0c0,2.4-0.1,4.7,0,6.9
		c0.2,4.4,0.6,8.9,0.9,13.3c0,0.6,0.1,1.1-0.7,1.4c-5.4,2.1-10.8,4.3-16.2,6.5c-0.2,0.1-0.4,0.1-0.6,0.2c0.4-9.4,0.8-18.7,1.2-28.2
		c-0.7,0-1.1,0-1.5,0c-24.3,0-48.6,0-72.8,0c-0.8,0-1.4,0.2-2,0.8C96.2,292.5,94.1,294.5,92,296.7z M225,211.9
		c-30.6,0-61.2,0-91.7,0c0,5.1,0,10.1,0,15.2c30.6,0,61.1,0,91.7,0C225,222,225,217,225,211.9z"/>
	<path d="M228.6,146.9c5.9,5.1,11.7,10.2,17.7,15.3c-0.7,0.4-1.4,0.7-2,1.1c-2.2,1.1-4.4,2.2-6.6,3.3c-0.4,0.2-0.8,0.6-0.8,1
		c-0.8,5.4-1.5,10.8-2.2,16.3c0,0.2,0,0.4,0,0.7c0.4,0,0.8,0,1.2,0c7.8,0,15.7,0,23.5,0c0.6,0,1.3-0.3,1.7-0.7
		c4.5-4.4,8.9-8.9,13.5-13.4c6.7,7,13.3,14,20.1,21.3c-0.9,0-1.4,0-2,0c-65.8,0-131.7,0-197.5,0c-8.7,0-17.3,1-25.7,3.3
		c-0.9,0.2-1.4,0.1-2-0.6c-3.2-3.2-6.4-6.4-9.8-9.8c0.7,0,1.2,0,1.6,0c24.5,0,49,0,73.6,0c1.1,0,1.6-0.2,1.8-1.4
		c1.3-6.3,2.7-12.5,4.1-18.7c0.1-0.3,0.1-0.6,0.1-1c-0.2,0-0.3-0.1-0.5-0.1c-10.6-0.4-21.1,0.3-31.4,3.2c-0.5,0.1-1.2,0-1.6-0.3
		c-3.2-3.1-6.4-6.4-9.6-9.6c-0.1-0.1-0.2-0.2-0.4-0.5c15,0,29.8,0,44.7,0c1.6-9,3.1-18,4.7-27.1c7.1,4,14.2,7.9,21.3,11.8
		c-2.5,1.4-4.8,2.8-7.2,4.1c-0.8,0.4-1.2,0.9-1.4,1.8c-0.6,3.1-1.3,6.1-2,9.2c0.3,0,0.6,0.1,0.9,0.1c21,0,42,0,63,0
		c0.5,0,1.1-0.3,1.5-0.7C223.5,152.8,226,149.9,228.6,146.9z M149.7,184.6c23.6,0,47.1,0,70.6,0c0.8-7,1.6-14,2.3-21
		c-22.8,0-45.5,0-68.3,0C152.9,170.6,151.3,177.5,149.7,184.6z"/>
	<path class="st0" d="M225,211.9c0,5.1,0,10.1,0,15.2c-30.6,0-61.1,0-91.7,0c0-5,0-10.1,0-15.2C163.8,211.9,194.3,211.9,225,211.9z"
		/>
	<path class="st0" d="M149.7,184.6c1.6-7.1,3.1-14,4.7-21c22.8,0,45.4,0,68.3,0c-0.8,7-1.6,14-2.3,21
		C196.8,184.6,173.4,184.6,149.7,184.6z"/>
</g>
</svg>
