<?xml version="1.0" encoding="utf-8"?>
<!-- Generator: Adobe Illustrator 20.1.0, SVG Export Plug-In . SVG Version: 6.00 Build 0)  -->
<svg version="1.1" id="图层_1" xmlns="http://www.w3.org/2000/svg" xmlns:xlink="http://www.w3.org/1999/xlink" x="0px" y="0px"
	 viewBox="0 0 360 360" style="enable-background:new 0 0 360 360;" xml:space="preserve">
<style type="text/css">
	.st0{fill:#FFFFFF;}
</style>
<g>
	<path class="st0" d="M-0.1,360.1c0-120.1,0-240.2,0-360.2c120.1,0,240.2,0,360.2,0c0,120.1,0,240.2,0,360.2
		C240,360.1,120,360.1-0.1,360.1z M113.2,260.1c-0.4,18.9-0.8,37.7-1.2,56.5c0.5-0.2,0.8-0.4,1.2-0.5c4.8-2.4,9.5-4.8,14.3-7.1
		c0.9-0.4,1.1-0.9,1-1.8c-0.2-4.5-0.5-9.1-0.6-13.6c-0.2-8.6-0.4-17.1-0.5-25.7c0-2.5,0-5.1,0-7.8c20.4,0,40.7,0,61.2,0
		c-6-6.4-11.8-12.6-17.7-18.9c-0.3,0.3-0.6,0.6-0.8,0.9c-3,3.3-6,6.6-9,10c-0.6,0.6-1.2,0.9-2.1,0.9c-10.1,0-20.2,0-30.4,0
		c-0.4,0-0.9,0-1.3,0c0-10.6,0-21.1,0-31.8c19.6,0,39,0,58.8,0c-6.4-6.8-12.6-13.4-18.9-20.1c-0.4,0.4-0.7,0.8-1,1.2
		c-3.4,3.7-6.7,7.4-10.1,11.1c-0.5,0.6-1.1,0.8-1.9,0.8c-8.6,0-17.2,0-25.8,0c-0.4,0-0.8,0-1.2-0.1c0-9,0-18,0-26.9
		c7.8,0,15.6,0,23.5,0c0,2.3,0,4.6,0,7c5.2-2.4,10.3-4.7,15.3-7.1c-0.2-1.6-0.4-3-0.4-4.4c-0.3-9.1-0.5-18.2-0.7-27.3
		c0-0.9,0.2-1.4,1.1-1.9c2.4-1.3,4.8-2.7,7.1-4c-5.1-5.1-10.2-10.2-15.3-15.3c-2.8,3.2-5.7,6.4-8.6,9.7c-0.5,0.6-1,0.8-1.7,0.8
		c-19.8,0-39.5,0-59.3,0c-0.6,0-1.2-0.2-1.7-0.4c-3.7-1.9-7.4-3.9-11.1-5.9c-1.9-1-3.8-2-5.8-3.1c1.5,20.5,1.7,40.9,0,61.3
		c0.5-0.2,0.8-0.3,1.1-0.5c3.9-1.8,7.8-3.6,11.6-5.4c2.3-1.1,2.4-1.1,2.7-3.5c9.3,0,18.7,0,28,0c0,9,0,17.9,0,27.1
		c-20.7,0-41.4,0-62.3,0c3.5,3.5,6.8,6.9,10.2,10.1c0.3,0.2,0.9,0.3,1.3,0.2c8.8-2.3,17.8-3.2,26.9-3.3c7.6-0.1,15.1,0,22.7,0
		c0.4,0,0.8,0,1.3,0.1c0,10.6,0,21.1,0,31.6c-12.5,0-24.9,0-37.4,0c0.2-0.5,0.3-0.9,0.4-1.3c1.1-3,2.3-5.9,3.2-8.9
		c0.6-1.9,1.5-3.1,3.4-3.8c1.6-0.6,3-1.5,4.7-2.3c-6.4-4-12.6-7.9-18.9-11.8c-1.2,4.4-2.3,8.7-3.5,13c-0.5,1.8-0.7,3.7-1.7,5.2
		c-1.7,2.7-3.7,5.3-5.8,7.7c-1.2,1.4-2.8,2.4-4.3,3.7c5.1,4.3,10.1,8.6,15.3,12.9c2.1-2.1,4.2-4.2,6.3-6.3c0.6-0.6,1.2-0.8,2-0.8
		c11.7,0,23.4,0,35,0C112.1,260.1,112.5,260.1,113.2,260.1z M87.2,116.4c-14.5,0-28.9,0-43.4,0c0.2,0.3,0.2,0.4,0.3,0.5
		c3.2,3.2,6.4,6.5,9.7,9.6c0.3,0.3,1,0.4,1.5,0.2c8.6-2.2,17.4-3.2,26.3-3.2c37.1,0,74.2,0,111.3,0c0.5,0,0.9,0,1.6,0
		c-5.6-6.8-11.1-13.5-16.6-20.1c-0.5,0.5-0.8,0.8-1.1,1.2c-3.4,3.7-6.7,7.4-10.1,11.1c-0.3,0.3-0.6,0.6-0.9,0.6
		c-2.2,0.1-4.4,0-6.6,0c0-0.6,0-1,0-1.3c0.7-8.7,1.4-17.4,2.2-26.2c0-0.4,0.4-0.9,0.7-1.1c2-1.3,4.1-2.6,6.2-3.9
		c0.8-0.5,1.7-1.1,2.3-1.5c-5.1-5.1-10.2-10.2-15.3-15.3c-2.7,3.1-5.6,6.3-8.4,9.5c-0.6,0.7-1.2,0.9-2,0.9c-12.1,0-24.2,0-36.2,0
		c-0.4,0-0.8,0-1.3,0c0-0.4,0-0.6,0.1-0.8c0.8-4,1.8-8,2.3-12.1c0.4-3.5,1.9-6,5-7.6c1.5-0.8,2.8-1.9,4.3-3c-7.6-4.4-15-8.7-22.4-13
		c0,0.3-0.1,0.5-0.1,0.7c-0.3,3.5-0.7,7.1-1,10.6C94.8,60.2,94,68.1,93.3,76c-0.1,1.1-0.3,1.5-1.5,1.5c-12,0-24,0-36,0
		c-0.4,0-0.8,0-1.4,0c0.2,0.3,0.3,0.4,0.4,0.5c3.2,3.2,6.4,6.5,9.7,9.7c0.3,0.3,0.9,0.4,1.3,0.3c5.7-1.5,11.5-2.5,17.3-2.9
		c2.9-0.2,5.9-0.3,9-0.5C90.3,95.2,88.8,105.7,87.2,116.4z"/>
	<path d="M113.2,260.1c-0.7,0-1.1,0-1.5,0c-11.7,0-23.4,0-35,0c-0.8,0-1.4,0.2-2,0.8c-2,2.1-4.1,4.2-6.3,6.3
		c-5.2-4.4-10.2-8.6-15.3-12.9c1.5-1.3,3.1-2.3,4.3-3.7c2.1-2.4,4.1-5,5.8-7.7c0.9-1.5,1.2-3.4,1.7-5.2c1.2-4.3,2.3-8.6,3.5-13
		c6.3,3.9,12.5,7.8,18.9,11.8c-1.7,0.8-3.1,1.7-4.7,2.3c-1.8,0.7-2.8,1.9-3.4,3.8c-0.9,3-2.1,5.9-3.2,8.9c-0.1,0.4-0.3,0.8-0.4,1.3
		c12.6,0,25,0,37.4,0c0-10.5,0-21,0-31.6c-0.4,0-0.9-0.1-1.3-0.1c-7.6,0-15.1-0.1-22.7,0c-9.1,0.1-18.1,1-26.9,3.3
		c-0.4,0.1-1,0-1.3-0.2c-3.3-3.3-6.6-6.6-10.2-10.1c20.9,0,41.6,0,62.3,0c0-9.1,0-18.1,0-27.1c-9.4,0-18.7,0-28,0
		c-0.4,2.4-0.4,2.4-2.7,3.5c-3.9,1.8-7.8,3.6-11.6,5.4c-0.3,0.1-0.6,0.3-1.1,0.5c1.7-20.5,1.4-40.8,0-61.3c2.1,1.1,3.9,2.1,5.8,3.1
		c3.7,2,7.4,4,11.1,5.9c0.5,0.3,1.1,0.4,1.7,0.4c19.8,0,39.5,0,59.3,0c0.8,0,1.2-0.2,1.7-0.8c2.9-3.3,5.8-6.5,8.6-9.7
		c5.1,5.1,10.2,10.2,15.3,15.3c-2.3,1.3-4.6,2.7-7.1,4c-0.8,0.4-1.1,1-1.1,1.9c0.3,9.1,0.5,18.2,0.7,27.3c0,1.4,0.3,2.9,0.4,4.4
		c-5,2.3-10.1,4.6-15.3,7.1c0-2.4,0-4.7,0-7c-7.9,0-15.7,0-23.5,0c0,9,0,17.9,0,26.9c0.4,0,0.8,0.1,1.2,0.1c8.6,0,17.2,0,25.8,0
		c0.8,0,1.3-0.2,1.9-0.8c3.3-3.7,6.7-7.4,10.1-11.1c0.3-0.4,0.6-0.7,1-1.2c6.3,6.7,12.5,13.3,18.9,20.1c-19.8,0-39.3,0-58.8,0
		c0,10.6,0,21.1,0,31.8c0.5,0,0.9,0,1.3,0c10.1,0,20.2,0,30.4,0c0.9,0,1.5-0.3,2.1-0.9c3-3.3,6-6.7,9-10c0.2-0.3,0.5-0.5,0.8-0.9
		c5.9,6.3,11.7,12.4,17.7,18.9c-20.5,0-40.8,0-61.2,0c0,2.7,0,5.2,0,7.8c0.2,8.6,0.3,17.1,0.5,25.7c0.1,4.6,0.4,9.1,0.6,13.6
		c0,0.9-0.1,1.4-1,1.8c-4.8,2.3-9.5,4.7-14.3,7.1c-0.3,0.2-0.7,0.3-1.2,0.5C112.4,297.7,112.8,279,113.2,260.1z M84.9,179.8
		c22,0,43.9,0,65.8,0c0-9.4,0-18.7,0-28c-22,0-43.9,0-65.8,0C84.9,161.2,84.9,170.5,84.9,179.8z"/>
	<path d="M87.2,116.4c1.6-10.7,3.1-21.1,4.7-31.9c-3.1,0.2-6,0.2-9,0.5c-5.9,0.4-11.6,1.5-17.3,2.9c-0.4,0.1-1,0-1.3-0.3
		c-3.3-3.2-6.5-6.4-9.7-9.7c-0.1-0.1-0.2-0.2-0.4-0.5c0.6,0,1,0,1.4,0c12,0,24,0,36,0c1.2,0,1.4-0.4,1.5-1.5
		c0.7-7.9,1.5-15.8,2.3-23.7c0.3-3.5,0.7-7.1,1-10.6c0-0.2,0.1-0.4,0.1-0.7c7.5,4.3,14.9,8.6,22.4,13c-1.5,1.1-2.8,2.2-4.3,3
		c-3.1,1.7-4.6,4.1-5,7.6c-0.5,4.1-1.5,8.1-2.3,12.1c0,0.2,0,0.4-0.1,0.8c0.5,0,0.9,0,1.3,0c12.1,0,24.2,0,36.2,0
		c0.9,0,1.5-0.3,2-0.9c2.8-3.2,5.7-6.4,8.4-9.5c5.1,5.1,10.2,10.2,15.3,15.3c-0.7,0.4-1.5,1-2.3,1.5c-2.1,1.3-4.1,2.6-6.2,3.9
		c-0.3,0.2-0.7,0.7-0.7,1.1c-0.8,8.7-1.5,17.4-2.2,26.2c0,0.4,0,0.8,0,1.3c2.2,0,4.4,0,6.6,0c0.3,0,0.7-0.4,0.9-0.6
		c3.4-3.7,6.7-7.4,10.1-11.1c0.3-0.4,0.7-0.7,1.1-1.2c5.5,6.7,10.9,13.3,16.6,20.1c-0.7,0-1.1,0-1.6,0c-37.1,0-74.2,0-111.3,0
		c-8.9,0-17.7,1-26.3,3.2c-0.5,0.1-1.2,0-1.5-0.2c-3.3-3.2-6.5-6.4-9.7-9.6c-0.1-0.1-0.1-0.2-0.3-0.5
		C58.3,116.4,72.7,116.4,87.2,116.4z M147.3,84.6c-13.8,0-27.4,0-41.2,0c-1.6,10.5-3.1,21-4.7,31.6c14.5,0,29,0,43.5,0
		C145.7,105.7,146.5,95.2,147.3,84.6z"/>
	<path class="st0" d="M84.9,179.8c0-9.3,0-18.6,0-28c22,0,43.8,0,65.8,0c0,9.3,0,18.6,0,28C128.9,179.8,106.9,179.8,84.9,179.8z"/>
	<path class="st0" d="M147.3,84.6c-0.8,10.6-1.6,21.1-2.3,31.6c-14.5,0-29,0-43.5,0c1.6-10.6,3.1-21.1,4.7-31.6
		C119.8,84.6,133.5,84.6,147.3,84.6z"/>
</g>
</svg>
