<?xml version="1.0" encoding="utf-8"?>
<!-- Generator: Adobe Illustrator 20.1.0, SVG Export Plug-In . SVG Version: 6.00 Build 0)  -->
<svg version="1.1" id="图层_1" xmlns="http://www.w3.org/2000/svg" xmlns:xlink="http://www.w3.org/1999/xlink" x="0px" y="0px"
	 viewBox="0 0 360 360" style="enable-background:new 0 0 360 360;" xml:space="preserve">
<style type="text/css">
	.st0{fill:#FFFFFF;}
</style>
<g>
	<path class="st0" d="M0.2,360.5c0-120.1,0-240.2,0-360.2c120.1,0,240.2,0,360.2,0c0,120.1,0,240.2,0,360.2
		C240.4,360.5,120.3,360.5,0.2,360.5z M263,186.2c-0.2-0.2-0.2-0.3-0.3-0.4c-6.4-5.6-12.7-11.2-19.1-16.8c-0.3-0.2-1-0.3-1.3-0.1
		c-10.4,4.4-21.3,7.4-32.4,9.4c-9.5,1.6-19.1,2.9-28.7,4.1c-8.2,1-16.4,1.7-24.6,2.4c-8.1,0.7-16.3,1.3-24.4,1.8
		c-9.4,0.6-18.8,1.1-28.1,1.6c-2.7,0.2-5.5,0.3-8.2,0.4c0,1.6,0,3.1,0,5c25.9-0.4,51.8-0.8,77.6-1.1c0,5,0,9.9,0,15.1
		c-33.7,0-67.3,0-101.2,0c3.4,3.4,6.6,6.6,9.8,9.8c0.6,0.6,1.1,0.8,2,0.5c7.4-2,15-3.1,22.6-3.2c13.3-0.2,26.6-0.1,39.8-0.1
		c0.3,0,0.5,0,1,0c-0.6,0.6-0.9,1-1.3,1.3c-8.8,8.2-18.6,15.3-28.8,21.7c-17.8,11.1-36.8,20.1-56.2,28c-4.5,1.8-9,3.6-13.6,5.4
		c0,0.1,0,0.2,0.1,0.2c0.5,0.8,1.1,1.6,1.6,2.4c0.4,0.7,0.9,0.9,1.7,0.7c23.6-6,46.4-14.1,68.3-24.5c0.7-0.4,1.5-0.7,2.4-1.1
		c-0.1,22.8,0.1,45.5-1.1,68.2c0.5-0.2,0.9-0.3,1.3-0.5c4.5-1.9,8.9-3.9,13.5-5.7c1.3-0.5,1.9-1.2,1.7-2.6c-0.1-1.3,0-2.7,0-4
		c31.5,0,62.8,0,94.3,0c0,4.3,0,8.5,0,12.9c5.5-2.7,10.8-5.4,16-8c0.2-0.1,0.4-0.6,0.4-0.8c-0.3-6.3-0.7-12.5-0.8-18.8
		c-0.2-10.1-0.2-20.2-0.3-30.3c0-0.4,0.2-1,0.4-1.3c0.9-1.1,2-2.1,3-3.1c15.6,7.1,31.5,12.9,48.3,16.5c0.5-3.3,2-6,4.5-7.8
		c2-1.4,4.3-2.7,6.6-3.6c3.2-1.2,6.6-2,10-3c0-1.4,0-2.9,0-4.5c-0.4,0-0.6,0-0.9,0c-8.9-0.1-17.8-0.7-26.7-1.8
		c-18.1-2.4-35.5-7.1-52.4-14.1c-11.8-4.9-23-10.9-33.1-18.9c-1.1-0.9-2.1-1.8-3.2-2.6c0-0.1,0.1-0.2,0.1-0.2c32.8,0,65.5,0,98.6,0
		c-6.8-7.2-13.4-14.2-20.1-21.3c-0.4,0.3-0.7,0.5-1,0.7c-5.3,4.2-10.5,8.5-15.9,12.6c-0.5,0.4-1.3,0.7-2,0.7c-23.9,0-47.8,0-71.6,0
		c-0.4,0-0.9,0-1.3,0c0-5.5,0-10.9,0-16.3c12.2-1,24.3-1.9,36.4-3C238.6,187,250.7,186.3,263,186.2z"/>
	<path d="M263,186.2c-12.3,0.1-24.4,0.8-36.5,1.9c-12.1,1.1-24.2,2-36.4,3c0,5.4,0,10.8,0,16.3c0.5,0,0.9,0,1.3,0
		c23.9,0,47.8,0,71.6,0c0.7,0,1.5-0.3,2-0.7c5.3-4.2,10.6-8.4,15.9-12.6c0.3-0.2,0.6-0.4,1-0.7c6.6,7,13.3,14,20.1,21.3
		c-33,0-65.8,0-98.6,0c0,0.1-0.1,0.2-0.1,0.2c1.1,0.9,2.1,1.8,3.2,2.6c10.1,8,21.2,14,33.1,18.9c16.8,7,34.3,11.7,52.4,14.1
		c8.9,1.2,17.7,1.7,26.7,1.8c0.3,0,0.6,0,0.9,0c0,1.6,0,3.1,0,4.5c-3.4,1-6.8,1.8-10,3c-2.3,0.9-4.5,2.2-6.6,3.6
		c-2.6,1.8-4.1,4.5-4.5,7.8c-16.8-3.5-32.7-9.4-48.3-16.5c-1,1-2,2-3,3.1c-0.3,0.3-0.4,0.8-0.4,1.3c0.1,10.1,0.1,20.2,0.3,30.3
		c0.1,6.3,0.5,12.5,0.8,18.8c0,0.3-0.2,0.7-0.4,0.8c-5.3,2.7-10.5,5.3-16,8c0-4.4,0-8.6,0-12.9c-31.5,0-62.8,0-94.3,0
		c0,1.3-0.1,2.7,0,4c0.1,1.4-0.4,2.1-1.7,2.6c-4.5,1.8-9,3.8-13.5,5.7c-0.4,0.2-0.8,0.3-1.3,0.5c1.2-22.7,1-45.4,1.1-68.2
		c-0.9,0.4-1.7,0.8-2.4,1.1c-22,10.4-44.8,18.5-68.3,24.5c-0.9,0.2-1.3,0.1-1.7-0.7c-0.5-0.8-1-1.6-1.6-2.4c0-0.1-0.1-0.1-0.1-0.2
		c4.5-1.8,9.1-3.5,13.6-5.4c19.4-8,38.4-16.9,56.2-28c10.2-6.4,19.9-13.5,28.8-21.7c0.4-0.4,0.8-0.8,1.3-1.3c-0.5,0-0.8,0-1,0
		c-13.3,0-26.6-0.1-39.8,0.1c-7.6,0.1-15.2,1.2-22.6,3.2c-0.9,0.2-1.4,0.1-2-0.5c-3.2-3.2-6.4-6.4-9.8-9.8c33.9,0,67.5,0,101.2,0
		c0-5.1,0-10.1,0-15.1c-25.8,0.4-51.7,0.8-77.6,1.1c0-1.8,0-3.3,0-5c2.7-0.1,5.5-0.3,8.2-0.4c9.4-0.5,18.8-1,28.1-1.6
		c8.1-0.5,16.3-1.1,24.4-1.8c8.2-0.7,16.4-1.4,24.6-2.4c9.6-1.2,19.2-2.5,28.7-4.1c11.1-1.9,22-4.9,32.4-9.4
		c0.4-0.2,1.1-0.1,1.3,0.1c6.4,5.6,12.7,11.2,19.1,16.8C262.8,185.9,262.8,186,263,186.2z M173.6,214.7c-0.2-0.1-0.3-0.1-0.3-0.1
		c-1.2,0-2.3-0.1-3.5,0c-0.5,0-1.1,0.2-1.5,0.6c-9.4,8.5-19.5,16.2-30,23.3c-2.7,1.8-5.4,3.6-8.2,5.5c1.6,0.9,3.1,1.6,4.5,2.6
		c2.4,1.7,5,2.1,7.9,2.1c28-0.1,56,0,84-0.1c0.5,0,1.2,0,1.6-0.3c1.5-1,2.8-2.1,4.3-3.2c-0.4-0.3-0.6-0.5-0.9-0.7
		c-12.5-8.9-24.5-18.2-35-29.4c-0.2-0.2-0.5-0.5-0.8-0.5c-1.8,0-3.6,0-5.6,0c0,0.6,0,1,0,1.5c0,7,0,14,0,21c0,0.8-0.2,1.2-0.9,1.6
		c-4.9,2.7-9.7,5.5-14.6,8.3c-0.3,0.2-0.6,0.3-1.1,0.6C173.6,236.4,173.6,225.6,173.6,214.7z M137.2,255.9c0,5.9,0,11.7,0,17.4
		c31.4,0,62.7,0,94.1,0c0-5.8,0-11.6,0-17.4C199.9,255.9,168.6,255.9,137.2,255.9z M137.1,296.8c31.4,0,62.7,0,94.1,0
		c0-5.4,0-10.8,0-16.3c-31.4,0-62.7,0-94.1,0C137.1,286,137.1,291.4,137.1,296.8z"/>
	<path class="st0" d="M173.6,214.7c0,10.9,0,21.7,0,32.8c0.5-0.2,0.8-0.4,1.1-0.6c4.9-2.8,9.7-5.6,14.6-8.3c0.7-0.4,0.9-0.8,0.9-1.6
		c0-7,0-14,0-21c0-0.4,0-0.9,0-1.5c1.9,0,3.7,0,5.6,0c0.3,0,0.6,0.3,0.8,0.5c10.5,11.2,22.6,20.5,35,29.4c0.3,0.2,0.6,0.4,0.9,0.7
		c-1.5,1.1-2.8,2.2-4.3,3.2c-0.4,0.3-1.1,0.3-1.6,0.3c-28,0-56,0-84,0.1c-2.9,0-5.5-0.4-7.9-2.1c-1.4-1-2.9-1.7-4.5-2.6
		c2.8-1.9,5.5-3.7,8.2-5.5c10.5-7.2,20.6-14.8,30-23.3c0.4-0.3,1-0.5,1.5-0.6c1.2-0.1,2.3,0,3.5,0
		C173.3,214.6,173.4,214.6,173.6,214.7z"/>
	<path class="st0" d="M137.2,255.9c31.4,0,62.7,0,94.1,0c0,5.8,0,11.6,0,17.4c-31.4,0-62.7,0-94.1,0
		C137.2,267.5,137.2,261.8,137.2,255.9z"/>
	<path class="st0" d="M137.1,296.8c0-5.4,0-10.8,0-16.3c31.4,0,62.7,0,94.1,0c0,5.4,0,10.8,0,16.3
		C199.9,296.8,168.5,296.8,137.1,296.8z"/>
</g>
</svg>
