<?xml version="1.0" encoding="utf-8"?>
<!-- Generator: Adobe Illustrator 20.1.0, SVG Export Plug-In . SVG Version: 6.00 Build 0)  -->
<svg version="1.1" id="图层_1" xmlns="http://www.w3.org/2000/svg" xmlns:xlink="http://www.w3.org/1999/xlink" x="0px" y="0px"
	 viewBox="0 0 360 360" style="enable-background:new 0 0 360 360;" xml:space="preserve">
<style type="text/css">
	.st0{fill:#FFFFFF;}
</style>
<g>
	<path class="st0" d="M0.2,360.5c0-120.1,0-240.2,0-360.2c120.1,0,240.2,0,360.2,0c0,120.1,0,240.2,0,360.2
		C240.4,360.5,120.3,360.5,0.2,360.5z M126.5,135.8c0.3,0.2,0.4,0.2,0.5,0.3c1.1,0.8,2.3,1.7,3.4,2.5c8.3,6.5,15.4,14,20.3,23.5
		c0.9,1.8,2.1,3.4,3.4,4.9c2.6,2.9,5.3,2.6,7.5-0.6c1.7-2.5,2.9-5.2,3.7-8.2c0.8-3.5,0.3-6.7-2.1-9.4c-1.4-1.6-2.9-3.1-4.6-4.4
		c-4.2-3.4-9.1-5.5-14.1-7.6c-5.6-2.3-11.3-4.5-16.9-6.8c-0.4-0.2-1-0.6-1-0.9c-0.1-2.5,0-5.1,0-7.7c20,0,39.9,0,60.1,0
		c-6.4-6.8-12.6-13.4-18.9-20.1c-4.1,4.1-8.2,8.2-12.2,12.2c-0.6,0.6-1.2,0.8-2,0.8c-8.6,0-17.2,0-25.8,0c-0.4,0-0.8,0-1.2-0.1
		c0-0.3-0.1-0.5-0.1-0.6c0-11.6,0-23.3,0-34.9c0-0.7,0.3-0.9,1-1c7.1-1.3,14.1-2.6,21.2-4c6.2-1.2,12.4-2.5,18.7-2.7
		c1.6-0.1,3.2,0,4.9,0c0-0.1,0.1-0.3,0.1-0.4c-6.6-6.2-13.2-12.4-19.5-18.4c-2.6,1.8-4.9,3.5-7.4,4.9c-4.8,2.8-10,4.8-15.4,6.2
		c-9.5,2.5-19,4.9-28.6,7.1c-11,2.5-22.2,4.2-33.5,5.5c-2.4,0.3-4.9,0.5-7.4,0.8c0,1.6,0,3.1,0,4.7c16.9,0,33.7-1,50.5-2.3
		c0,11.8,0,23.5,0,35.3c-21.5,0-43,0-64.6,0c0.4,0.5,0.7,0.8,1,1c2.9,2.9,5.8,5.8,8.7,8.8c0.6,0.6,1.2,0.8,2,0.5
		c6-1.6,12.1-3,18.4-3.1c7.5-0.2,15-0.1,22.5-0.1c0,0,0.1,0,0.2,0.1c-13.6,27.6-30.9,52.3-55.3,71.7c1,0.7,2,1.3,2.8,1.9
		c0.5,0.4,0.9,0.4,1.5,0c2.8-1.8,5.6-3.6,8.3-5.4c21.2-14.4,39.5-31.9,53.9-53.2c0.1-0.2,0.3-0.4,0.5-0.6c0.1,0,0.2,0.1,0.3,0.1
		c-0.3,19.4-0.7,38.8-1,58.2c0.2-0.1,0.6-0.3,1-0.5c5.1-2.7,10.1-5.4,15.2-8.1c0.9-0.5,1.2-1,1.1-2c-0.3-6.9-0.7-13.8-0.9-20.7
		c-0.2-7.4-0.2-14.9-0.3-22.3C126.5,139.1,126.5,137.5,126.5,135.8z M153.6,189.7c-3.3,3.3-6.6,6.6-9.8,9.8c-0.6,0.6-1.2,0.8-2,0.8
		c-15.3,0-30.6,0-45.8,0c-0.8,0-1.6-0.2-2.2-0.6c-4.9-2.7-9.8-5.5-14.6-8.2c-1-0.6-2.1-1.1-3.2-1.8c1.5,41.3,1.5,82.4,0,123.6
		c0.1,0,0.2,0,0.3,0c5.2-2.6,10.4-5.2,15.5-7.8c0.3-0.2,0.6-0.8,0.6-1.2c0-4.7,0-9.4,0-14.2c0-0.4,0-0.9,0-1.3c0.4,0,0.7-0.1,1-0.1
		c17,0,33.9,0,50.9,0c0.9,0,1.2,0.3,1.1,1.2c0,4.6,0,9.3,0,13.9c0,0.4,0,0.8,0.1,1.4c5.5-3.5,10.7-6.9,15.9-10.3
		c0.3-0.2,0.5-0.7,0.5-1.1c0-1.5-0.2-3-0.2-4.5c-0.3-10.5-0.5-21-0.7-31.5c-0.1-8.3-0.1-16.6-0.2-24.8c0-6.4,0-12.9,0-19.3
		c0-1.1,0.3-1.7,1.3-2.2c3.1-1.6,6.1-3.4,9.3-5.2C165.4,200.7,159.5,195.3,153.6,189.7z"/>
	<path d="M126.5,135.8c0,1.8,0,3.3,0,4.9c0.1,7.4,0.1,14.9,0.3,22.3c0.2,6.9,0.5,13.8,0.9,20.7c0.1,1-0.2,1.6-1.1,2
		c-5.1,2.7-10.2,5.4-15.2,8.1c-0.4,0.2-0.8,0.4-1,0.5c0.3-19.4,0.7-38.8,1-58.2c-0.1,0-0.2-0.1-0.3-0.1c-0.2,0.2-0.4,0.4-0.5,0.6
		c-14.4,21.3-32.7,38.7-53.9,53.2c-2.7,1.9-5.6,3.6-8.3,5.4c-0.6,0.4-1,0.4-1.5,0c-0.9-0.7-1.8-1.2-2.8-1.9
		c24.4-19.4,41.7-44.1,55.3-71.7c-0.2-0.1-0.2-0.1-0.2-0.1c-7.5,0-15-0.1-22.5,0.1c-6.3,0.2-12.4,1.5-18.4,3.1
		c-0.8,0.2-1.4,0.1-2-0.5c-2.9-3-5.8-5.8-8.7-8.8c-0.3-0.3-0.5-0.6-1-1c21.7,0,43.1,0,64.6,0c0-11.8,0-23.5,0-35.3
		c-16.8,1.3-33.6,2.3-50.5,2.3c0-1.6,0-3.1,0-4.7c2.5-0.3,4.9-0.5,7.4-0.8c11.2-1.3,22.4-3,33.5-5.5c9.6-2.1,19.1-4.6,28.6-7.1
		c5.4-1.4,10.6-3.4,15.4-6.2c2.5-1.4,4.8-3.2,7.4-4.9c6.3,6,12.9,12.2,19.5,18.4c0,0.1-0.1,0.3-0.1,0.4c-1.6,0-3.2-0.1-4.9,0
		c-6.3,0.2-12.5,1.5-18.7,2.7c-7.1,1.4-14.1,2.7-21.2,4c-0.7,0.1-1,0.3-1,1c0,11.6,0,23.3,0,34.9c0,0.2,0,0.4,0.1,0.6
		c0.4,0,0.8,0.1,1.2,0.1c8.6,0,17.2,0,25.8,0c0.8,0,1.4-0.2,2-0.8c4-4,8-8,12.2-12.2c6.3,6.7,12.5,13.3,18.9,20.1
		c-20.2,0-40.1,0-60.1,0c0,2.6,0,5.2,0,7.7c0,0.3,0.6,0.7,1,0.9c5.6,2.3,11.3,4.4,16.9,6.8c4.9,2.1,9.9,4.2,14.1,7.6
		c1.6,1.3,3.1,2.8,4.6,4.4c2.5,2.7,3,5.9,2.1,9.4c-0.7,2.9-2,5.7-3.7,8.2c-2.2,3.2-4.9,3.5-7.5,0.6c-1.3-1.5-2.5-3.1-3.4-4.9
		c-4.9-9.5-12-17-20.3-23.5c-1.1-0.9-2.2-1.7-3.4-2.5C126.9,136,126.8,135.9,126.5,135.8z"/>
	<path d="M153.6,189.7c6,5.6,11.8,11,17.7,16.5c-3.2,1.8-6.2,3.5-9.3,5.2c-1,0.5-1.3,1.1-1.3,2.2c0.1,6.4,0,12.9,0,19.3
		c0,8.3,0,16.6,0.2,24.8c0.2,10.5,0.5,21,0.7,31.5c0,1.5,0.2,3,0.2,4.5c0,0.4-0.2,0.9-0.5,1.1c-5.2,3.4-10.5,6.8-15.9,10.3
		c0-0.6-0.1-1-0.1-1.4c0-4.6,0-9.3,0-13.9c0-0.9-0.2-1.2-1.1-1.2c-17,0-33.9,0-50.9,0c-0.3,0-0.5,0-1,0.1c0,0.5,0,0.9,0,1.3
		c0,4.7,0,9.4,0,14.2c0,0.4-0.3,1-0.6,1.2c-5.2,2.6-10.3,5.2-15.5,7.8c-0.1,0-0.2,0-0.3,0c1.5-41.1,1.5-82.3,0-123.6
		c1.1,0.6,2.2,1.2,3.2,1.8c4.9,2.7,9.7,5.5,14.6,8.2c0.7,0.4,1.5,0.6,2.2,0.6c15.3,0,30.6,0,45.8,0c0.8,0,1.4-0.2,2-0.8
		C147,196.3,150.2,193.1,153.6,189.7z M145.2,281.6c0-11.4,0-22.7,0-34c-17.7,0-35.2,0-52.8,0c0,11.4,0,22.7,0,34
		C110.1,281.6,127.6,281.6,145.2,281.6z M145.2,240.4c0-11,0-21.9,0-32.8c-17.7,0-35.2,0-52.8,0c0,11,0,21.9,0,32.8
		C110.1,240.4,127.6,240.4,145.2,240.4z"/>
	<path class="st0" d="M145.2,281.6c-17.7,0-35.2,0-52.8,0c0-11.3,0-22.6,0-34c17.6,0,35.1,0,52.8,0
		C145.2,258.9,145.2,270.2,145.2,281.6z"/>
	<path class="st0" d="M145.2,240.4c-17.6,0-35.1,0-52.8,0c0-10.9,0-21.8,0-32.8c17.6,0,35.1,0,52.8,0
		C145.2,218.5,145.2,229.4,145.2,240.4z"/>
</g>
</svg>
