<?xml version="1.0" encoding="utf-8"?>
<!-- Generator: Adobe Illustrator 20.1.0, SVG Export Plug-In . SVG Version: 6.00 Build 0)  -->
<svg version="1.1" id="图层_1" xmlns="http://www.w3.org/2000/svg" xmlns:xlink="http://www.w3.org/1999/xlink" x="0px" y="0px"
	 viewBox="0 0 360 360" style="enable-background:new 0 0 360 360;" xml:space="preserve">
<style type="text/css">
	.st0{fill:#FFFFFF;}
</style>
<g>
	<path class="st0" d="M0.2,360.5c0-120.1,0-240.2,0-360.2c120.1,0,240.2,0,360.2,0c0,120.1,0,240.2,0,360.2
		C240.4,360.5,120.3,360.5,0.2,360.5z M283.1,249.8c0.6-0.4,1-0.6,1.3-0.8c4.4-2.8,8.7-5.7,13.1-8.4c1.5-0.9,2.1-1.9,2-3.7
		c-0.4-11.1-0.6-22.2-0.8-33.3c-0.1-8.5-0.1-17-0.2-25.6c0-4.6-0.1-9.1-0.1-13.7c0-16,0-32-0.1-48c0-0.7,0.3-1,0.8-1.3
		c2.9-1.6,5.8-3.2,8.7-4.8c0.3-0.2,0.7-0.4,1.1-0.7c-6.3-5.2-12.6-10.2-18.9-15.3c-3,3.7-5.8,7.3-8.7,10.9c-0.5,0.7-1,0.9-1.9,0.9
		c-19.2,0-38.4,0-57.6,0c-0.4,0-0.7,0-1.5-0.1c2.7-5.1,5.2-10,8-14.7c3.7-6.3,7.8-12.2,14.6-15.8c-5.7-2.7-11.4-5.3-17-8
		c0-0.1,0.1-0.2,0.1-0.3c30.7,0,61.4,0,92.3,0c-6.8-7.2-13.4-14.2-20-21.2c-0.4,0.3-0.7,0.6-1.1,0.9c-4.4,4-8.8,8.1-13.1,12.1
		c-0.8,0.8-1.6,1.1-2.7,1.1c-40.9,0-81.8,0-122.7,0c-0.5,0-1,0-1.8,0c0.5,0.5,0.7,0.8,1,1.1c2.9,2.9,5.9,5.9,8.8,8.8
		c0.6,0.6,1.2,0.7,2,0.5c8.6-2.3,17.4-3.2,26.3-3.3c7.7-0.1,15.4,0,23,0c0.4,0,0.8,0,1.4,0c-0.6,13.2-2.8,26-4.7,38.8
		c-7.4,0-14.6,0-21.9,0c-0.4,0-0.9-0.2-1.3-0.5c-4.8-2.7-9.7-5.5-14.5-8.3c-0.4-0.2-0.7-0.4-1.2-0.6c1.3,51.5,1.8,102.9,0,154.2
		c0.1,0,0.2,0,0.3,0c5.2-2.6,10.4-5.2,15.6-7.8c0.3-0.1,0.5-0.7,0.5-1c0.1-1.3,0-2.6,0-3.9c30.3,0,60.4,0,90.7,0
		C283.1,242,283.1,245.8,283.1,249.8z M152.5,312.5c7.5-4.2,14.9-8.2,22.2-12.5c10-5.8,19.7-12.2,28.5-19.8
		c4.1-3.5,8.1-7.1,12.3-10.5c3.3-2.7,7-5,11.1-6.2c1.1-0.3,2.2-0.5,3.4-0.8c-6.7-6.3-13.3-12.5-19.8-18.7c-1,2.1-1.8,4.2-2.9,6.2
		c-6.1,11.2-14.1,21-22.9,30.2c-9,9.3-19.1,17.4-29.7,25c-1.6,1.1-3.1,2.3-4.8,3.4C150.8,310,151.6,311.1,152.5,312.5z M253.6,252.2
		c0.3,0.4,0.6,0.6,0.8,0.9c8.1,8.5,16,17.1,23.3,26.3c5.9,7.4,11.2,15.1,15.2,23.8c1.1,2.3,2.7,4.5,4.4,6.5c2.1,2.4,4.7,2.2,6.9-0.1
		c2.1-2.1,3.5-4.8,4.6-7.5c2.6-6.7,1.7-12.8-3.2-18c-3.2-3.3-6.8-6.3-10.5-9.1c-11.1-8.4-22.9-15.8-34.7-23.1
		c-1.1-0.7-2.3-1.8-3.4-1.7C255.9,250.1,254.9,251.4,253.6,252.2z"/>
	<path d="M283.1,249.8c0-4,0-7.8,0-11.7c-30.2,0-60.4,0-90.7,0c0,1.3,0,2.6,0,3.9c0,0.4-0.3,0.9-0.5,1c-5.2,2.6-10.4,5.2-15.6,7.8
		c-0.1,0-0.1,0-0.3,0c1.8-51.3,1.3-102.7,0-154.2c0.5,0.2,0.8,0.4,1.2,0.6c4.8,2.8,9.6,5.5,14.5,8.3c0.4,0.2,0.9,0.5,1.3,0.5
		c7.2,0,14.5,0,21.9,0c1.9-12.9,4.2-25.7,4.7-38.8c-0.6,0-1,0-1.4,0c-7.7,0-15.4-0.1-23,0c-8.9,0.1-17.7,1-26.3,3.3
		c-0.8,0.2-1.4,0.1-2-0.5c-2.9-3-5.9-5.9-8.8-8.8c-0.3-0.3-0.5-0.6-1-1.1c0.8,0,1.3,0,1.8,0c40.9,0,81.8,0,122.7,0
		c1.1,0,1.9-0.3,2.7-1.1c4.3-4.1,8.7-8.1,13.1-12.1c0.3-0.3,0.7-0.6,1.1-0.9c6.6,7,13.2,14,20,21.2c-31,0-61.7,0-92.3,0
		c0,0.1-0.1,0.2-0.1,0.3c5.6,2.6,11.3,5.3,17,8c-6.7,3.6-10.9,9.5-14.6,15.8c-2.8,4.7-5.2,9.7-8,14.7c0.7,0,1.1,0.1,1.5,0.1
		c19.2,0,38.4,0,57.6,0c0.9,0,1.4-0.3,1.9-0.9c2.8-3.6,5.7-7.2,8.7-10.9c6.3,5.1,12.5,10.2,18.9,15.3c-0.4,0.3-0.7,0.5-1.1,0.7
		c-2.9,1.6-5.8,3.2-8.7,4.8c-0.5,0.3-0.8,0.6-0.8,1.3c0,16,0.1,32,0.1,48c0,4.6,0.1,9.1,0.1,13.7c0.1,8.5,0,17,0.2,25.6
		c0.2,11.1,0.4,22.2,0.8,33.3c0.1,1.9-0.5,2.8-2,3.7c-4.4,2.7-8.8,5.6-13.1,8.4C284.1,249.3,283.7,249.5,283.1,249.8z M283.1,230.9
		c0-11.8,0-23.5,0-35.2c-30.2,0-60.4,0-90.5,0c0,11.8,0,23.5,0,35.2C222.8,230.9,252.9,230.9,283.1,230.9z M192.5,113.3
		c0,11.4,0,22.7,0,34c30.2,0,60.3,0,90.5,0c0-11.4,0-22.6,0-34C252.9,113.3,222.7,113.3,192.5,113.3z M192.5,154.5
		c0,11.4,0,22.7,0,34c30.2,0,60.3,0,90.5,0c0-11.4,0-22.7,0-34C252.9,154.5,222.8,154.5,192.5,154.5z"/>
	<path d="M152.5,312.5c-0.9-1.4-1.7-2.5-2.5-3.7c1.6-1.1,3.2-2.3,4.8-3.4c10.5-7.6,20.6-15.7,29.7-25c8.8-9.1,16.8-19,22.9-30.2
		c1.1-2,1.9-4,2.9-6.2c6.6,6.2,13.2,12.4,19.8,18.7c-1.2,0.3-2.3,0.4-3.4,0.8c-4.2,1.3-7.8,3.6-11.1,6.2c-4.2,3.4-8.2,7-12.3,10.5
		c-8.8,7.6-18.5,14-28.5,19.8C167.4,304.3,160,308.3,152.5,312.5z"/>
	<path d="M253.6,252.2c1.2-0.8,2.3-2,3.4-2.1c1.1-0.1,2.3,1,3.4,1.7c11.8,7.3,23.6,14.7,34.7,23.1c3.7,2.8,7.3,5.8,10.5,9.1
		c4.9,5.2,5.8,11.4,3.2,18c-1.1,2.8-2.4,5.4-4.6,7.5c-2.2,2.2-4.8,2.4-6.9,0.1c-1.7-1.9-3.3-4.1-4.4-6.5c-4-8.6-9.4-16.4-15.2-23.8
		c-7.3-9.2-15.2-17.8-23.3-26.3C254.2,252.8,254,252.5,253.6,252.2z"/>
	<path class="st0" d="M283.1,230.9c-30.2,0-60.3,0-90.5,0c0-11.7,0-23.4,0-35.2c30.2,0,60.3,0,90.5,0
		C283.1,207.4,283.1,219.1,283.1,230.9z"/>
	<path class="st0" d="M192.5,113.3c30.2,0,60.3,0,90.5,0c0,11.3,0,22.6,0,34c-30.2,0-60.3,0-90.5,0
		C192.5,135.9,192.5,124.7,192.5,113.3z"/>
	<path class="st0" d="M192.5,154.5c30.2,0,60.3,0,90.5,0c0,11.4,0,22.7,0,34c-30.2,0-60.3,0-90.5,0
		C192.5,177.2,192.5,165.9,192.5,154.5z"/>
</g>
</svg>
