<?xml version="1.0" encoding="utf-8"?>
<!-- Generator: Adobe Illustrator 20.1.0, SVG Export Plug-In . SVG Version: 6.00 Build 0)  -->
<svg version="1.1" id="图层_1" xmlns="http://www.w3.org/2000/svg" xmlns:xlink="http://www.w3.org/1999/xlink" x="0px" y="0px"
	 viewBox="0 0 360 360" style="enable-background:new 0 0 360 360;" xml:space="preserve">
<style type="text/css">
	.st0{fill:#FFFFFF;}
</style>
<g>
	<path class="st0" d="M0.2,360.5c0-120.1,0-240.2,0-360.2c120.1,0,240.2,0,360.2,0c0,120.1,0,240.2,0,360.2
		C240.4,360.5,120.3,360.5,0.2,360.5z M250,241.7c-2.4,2.8-4.9,5.5-7.3,8.4c-0.6,0.7-1.1,1-2,1c-38.9,0-77.7,0-116.6-0.1
		c-0.7,0-1.5-0.3-2.1-0.7c-4.4-3-8.8-6.1-13.2-9.1c-0.3-0.2-0.7-0.5-1.2-0.7c1.5,26.4,1.6,52.6,0,78.9c0.5-0.2,0.8-0.3,1.2-0.4
		c3.8-1.5,7.7-3,11.5-4.4c1.5-0.6,3.4-0.8,2.5-3.3c40.2,0,80.1,0,120.2,0c0,2.7,0,5.3,0,8c0.3-0.1,0.4-0.1,0.6-0.1
		c4.7-2.2,9.4-4.3,14.1-6.6c0.3-0.2,0.6-0.8,0.6-1.2c-0.1-2-0.3-4.1-0.3-6.1c-0.3-13.8-0.5-27.6-0.8-41.4c0-0.8,0.2-1.3,1-1.6
		c2.8-1.3,5.6-2.8,8.3-4.1C261,252.7,255.6,247.3,250,241.7z M183.2,191c-34.4,0-68.4,0-102.7,0c3.4,3.4,6.7,6.6,9.8,9.8
		c0.6,0.6,1.2,0.7,2,0.5c8-2.2,16.2-3.2,24.5-3.2c33-0.1,66.1,0,99.1,0c0.3,0,0.7,0,1.2,0.1c-0.3,0.5-0.6,0.9-0.8,1.2
		c-6.8,9.7-13.7,19.4-20.5,29.1c-0.7,1-1.4,1.3-2.6,1.3c-46.4,0-92.7,0-139.1,0c-0.5,0-1,0-1.8,0c0.5,0.5,0.7,0.8,1,1.1
		c2.9,2.9,5.8,5.8,8.7,8.8c0.6,0.7,1.2,0.8,2.1,0.6c8.3-2.2,16.9-3.2,25.5-3.2c73,0,146,0,219,0c0.5,0,1,0,1.5,0
		c-7.1-7.1-14-14-21.1-21.1c-0.2,0.2-0.5,0.5-0.8,0.8c-4.1,4.1-8.2,8.1-12.2,12.2c-0.7,0.7-1.4,0.9-2.3,0.9c-22.9,0-45.8,0-68.8,0
		c-0.4,0-0.8,0-1.4,0c9.1-9.8,19.7-16.6,32.9-19.9c-5.3-4.1-10.2-7.8-15.1-11.6c0-0.1,0.1-0.2,0.1-0.3c20.9,0,41.9,0,63.1,0
		c-6.4-6.8-12.6-13.4-18.9-20c-0.4,0.4-0.7,0.7-1,1c-3.7,3.7-7.4,7.4-11.1,11.1c-0.6,0.6-1.2,0.9-2.1,0.9c-19.4,0-38.9,0-58.3,0
		c-0.4,0-0.8,0-1.4,0c0.9-1.2,1.8-2.2,2.4-3.2c2.7-4.1,2.3-8.2-1-11.8c-0.9-0.9-1.8-1.8-2.9-2.5c-5.6-3.9-11.9-6.1-18.3-8.2
		c-0.3-0.1-0.8,0.1-1,0.3c-0.7,0.5-1.3,1.1-2.1,1.8C176.1,173.6,181.8,180.8,183.2,191z M130,201.6c0.3,0.3,0.6,0.6,0.8,0.9
		c6.1,6.8,12.3,13.6,17,21.5c0.7,1.1,1.6,2.1,2.6,2.9c1.5,1.2,3.3,1.3,4.7,0c1.2-1,2.2-2.3,2.9-3.7c1.2-2.3,1.3-4.9,1.4-7.5
		c0.1-2.2-0.6-4.2-2.3-5.6c-1.9-1.6-4-3.2-6.2-4.4c-5-2.7-10.4-4.2-15.8-5.9C132.8,199.1,131.3,199.5,130,201.6z"/>
	<path d="M250,241.7c5.6,5.6,11,11,16.5,16.5c-2.7,1.4-5.5,2.8-8.3,4.1c-0.8,0.4-1,0.8-1,1.6c0.3,13.8,0.5,27.6,0.8,41.4
		c0,2,0.3,4.1,0.3,6.1c0,0.4-0.3,1-0.6,1.2c-4.7,2.2-9.4,4.4-14.1,6.6c-0.1,0.1-0.3,0.1-0.6,0.1c0-2.7,0-5.3,0-8
		c-40.1,0-80,0-120.2,0c0.8,2.5-1,2.7-2.5,3.3c-3.8,1.5-7.7,3-11.5,4.4c-0.3,0.1-0.7,0.2-1.2,0.4c1.6-26.3,1.5-52.5,0-78.9
		c0.5,0.3,0.8,0.5,1.2,0.7c4.4,3,8.8,6.1,13.2,9.1c0.6,0.4,1.4,0.7,2.1,0.7c38.9,0,77.7,0,116.6,0.1c0.9,0,1.5-0.3,2-1
		C245.2,247.2,247.6,244.5,250,241.7z M123,278c40.1,0,80,0,120,0c0-6.7,0-13.2,0-19.8c-40.1,0-80,0-120,0
		C123,264.9,123,271.4,123,278z M123,303.9c40.1,0,80.1,0,120,0c0-6.2,0-12.4,0-18.6c-40,0-80,0-120,0
		C123,291.6,123,297.7,123,303.9z"/>
	<path d="M183.2,191c-1.4-10.1-7-17.3-14.5-23.7c0.7-0.6,1.4-1.2,2.1-1.8c0.3-0.2,0.8-0.4,1-0.3c6.4,2.1,12.7,4.3,18.3,8.2
		c1,0.7,2,1.6,2.9,2.5c3.3,3.6,3.6,7.7,1,11.8c-0.7,1.1-1.5,2-2.4,3.2c0.6,0,1,0,1.4,0c19.4,0,38.9,0,58.3,0c0.9,0,1.5-0.2,2.1-0.9
		c3.7-3.7,7.4-7.4,11.1-11.1c0.3-0.3,0.6-0.6,1-1c6.2,6.6,12.5,13.2,18.9,20c-21.2,0-42.2,0-63.1,0c0,0.1-0.1,0.2-0.1,0.3
		c4.9,3.8,9.8,7.6,15.1,11.6c-13.2,3.2-23.8,10.1-32.9,19.9c0.6,0,1,0,1.4,0c22.9,0,45.8,0,68.8,0c1,0,1.6-0.2,2.3-0.9
		c4-4.1,8.1-8.2,12.2-12.2c0.3-0.3,0.6-0.6,0.8-0.8c7,7,14,14,21.1,21.1c-0.5,0-1,0-1.5,0c-73,0-146,0-219,0c-8.6,0-17.1,1-25.5,3.2
		c-0.9,0.2-1.4,0.1-2.1-0.6c-2.9-3-5.8-5.8-8.7-8.8c-0.3-0.3-0.5-0.6-1-1.1c0.8,0,1.3,0,1.8,0c46.4,0,92.7,0,139.1,0
		c1.2,0,1.9-0.3,2.6-1.3c6.8-9.7,13.6-19.4,20.5-29.1c0.2-0.4,0.5-0.7,0.8-1.2c-0.5,0-0.8-0.1-1.2-0.1c-33,0-66.1-0.1-99.1,0
		c-8.3,0-16.5,1.1-24.5,3.2c-0.8,0.2-1.4,0.1-2-0.5c-3.2-3.2-6.4-6.4-9.8-9.8C114.8,191,148.8,191,183.2,191z"/>
	<path d="M130,201.6c1.3-2,2.8-2.5,5.2-1.7c5.4,1.7,10.8,3.2,15.8,5.9c2.2,1.2,4.3,2.8,6.2,4.4c1.7,1.4,2.4,3.3,2.3,5.6
		c-0.1,2.6-0.2,5.2-1.4,7.5c-0.7,1.4-1.7,2.7-2.9,3.7c-1.5,1.3-3.2,1.2-4.7,0c-1-0.8-2-1.8-2.6-2.9c-4.8-7.9-10.9-14.7-17-21.5
		C130.6,202.2,130.3,201.9,130,201.6z"/>
	<path class="st0" d="M123,278c0-6.6,0-13.2,0-19.8c40,0,80,0,120,0c0,6.6,0,13.2,0,19.8C203,278,163.1,278,123,278z"/>
	<path class="st0" d="M123,303.9c0-6.2,0-12.4,0-18.6c40,0,80,0,120,0c0,6.2,0,12.4,0,18.6C203,303.9,163.1,303.9,123,303.9z"/>
</g>
</svg>
