<?xml version="1.0" encoding="utf-8"?>
<!-- Generator: Adobe Illustrator 20.1.0, SVG Export Plug-In . SVG Version: 6.00 Build 0)  -->
<svg version="1.1" id="图层_1" xmlns="http://www.w3.org/2000/svg" xmlns:xlink="http://www.w3.org/1999/xlink" x="0px" y="0px"
	 viewBox="0 0 360 360" style="enable-background:new 0 0 360 360;" xml:space="preserve">
<style type="text/css">
	.st0{fill:#FFFFFF;}
</style>
<g>
	<path class="st0" d="M0.2,360.5c0-120.1,0-240.2,0-360.2c120.1,0,240.2,0,360.2,0c0,120.1,0,240.2,0,360.2
		C240.4,360.5,120.3,360.5,0.2,360.5z M176,192.1c-6.3-5.1-12.6-10.2-18.9-15.4c-0.3,0.4-0.5,0.7-0.7,1.1c-2.3,3.6-4.6,7.2-6.9,10.8
		c-0.5,0.8-1,1.1-1.9,1.1c-18.9,0-37.8,0-56.6,0c-0.6,0-1.4-0.2-1.9-0.5c-4.6-2.4-9.2-4.9-13.9-7.4c-0.9-0.5-1.9-1-2.9-1.5
		c1.7,45.2,1.4,90.3,0,135.5c5.4-2.3,10.7-4.6,16-6.9c0.3-0.1,0.5-0.7,0.5-1.1c0-3.9,0-7.8,0-11.8c0-1.2,0-2.5,0-3.7
		c20.9,0,41.6,0,62.4,0c0,6.6,0,13.2,0,19.8c0.2,0,0.3,0,0.3-0.1c5.2-3,10.4-5.9,15.6-8.9c0.3-0.2,0.5-0.7,0.5-1
		c-0.3-9.8-0.6-19.6-0.8-29.5c-0.2-9.8-0.2-19.7-0.3-29.5c0-13.9,0-27.8-0.1-41.6c0-0.8,0.2-1.3,0.8-1.9
		C170.2,197.2,173.1,194.7,176,192.1z M193.7,162.7c-6.4-6.9-12.7-13.5-19.2-20.4c-0.3,0.5-0.5,0.9-0.8,1.2
		c-3.7,3.7-7.4,7.5-11.2,11.2c-0.4,0.4-1.2,0.8-1.8,0.8c-7.4,0.1-14.9,0-22.3,0c-0.3,0-0.7,0-1.2,0c0.1-0.3,0.2-0.6,0.3-0.8
		c4.7-8,9.2-16.1,14-24c2.8-4.7,6.1-9.2,10.2-13c2.4-2.3,5.1-4.2,8.3-5.7c-8.4-4.4-16.5-8.7-24.7-12.9c-0.7,4.2-1.3,8.2-2.1,12.2
		c-2.9,14.7-7.7,28.9-12.9,43c-0.4,1-0.9,1.3-2,1.3c-27.3,0-54.6,0-81.8,0c-0.4,0-0.9,0-1.7,0c3.6,3.6,6.9,7,10.3,10.2
		c0.3,0.3,1,0.3,1.4,0.2c8.4-2.2,17-3.2,25.6-3.2c36.6,0,73.1,0,109.7,0C192.5,162.7,193,162.7,193.7,162.7z M169.9,75.3
		c-0.3,0.4-0.5,0.8-0.9,1.2c-4,4-8,8-12,12.1c-0.8,0.8-1.5,1.1-2.6,1.1c-33.1,0-66.3,0-99.4,0c-0.5,0-0.9,0-1.5,0
		c0.2,0.3,0.2,0.4,0.3,0.5c3.2,3.3,6.5,6.5,9.8,9.7c0.3,0.3,1,0.3,1.4,0.2c9-2.4,18.1-3.3,27.4-3.3c32.1,0,64.1,0,96.2,0
		c0.4,0,0.9,0,1.6,0C183.3,89.5,176.7,82.5,169.9,75.3z M81.6,103.6c-0.5,0.6-1,1.2-1.5,1.7c-0.7,0.6-0.7,1-0.3,1.8
		c2.1,4.3,4.3,8.7,6.2,13.1c3.1,7.1,5.6,14.5,6.8,22.3c0.3,2.1,0.7,4.3,1.4,6.3c1.2,3.4,3.7,4.2,6.7,2.3c1.6-1,3.1-2.4,4.5-3.8
		c2.7-2.8,4.7-5.9,5.3-9.9c0.6-4.6-1-8.5-3.7-12C100.2,116.3,91.1,110,81.6,103.6z M98.2,44.9c1.4,2.1,2.9,4.2,4.2,6.3
		c5.5,8.5,9.8,17.6,11.7,27.6c0.4,2,1,4,1.8,5.8c1.5,3.3,4.1,4,7,1.8c3.8-2.7,6.6-6.3,8.2-10.7c0.5-1.3,0.7-2.7,0.7-4.1
		c0.1-4.4-2-7.9-4.9-10.9c-6.4-6.6-13.8-12-21.9-16.4C101.6,42.3,101.6,42.3,98.2,44.9z"/>
	<path d="M176,192.1c-2.9,2.6-5.8,5.1-8.7,7.6c-0.6,0.5-0.8,1.1-0.8,1.9c0,13.9,0,27.8,0.1,41.6c0,9.8,0.1,19.7,0.3,29.5
		c0.2,9.8,0.6,19.7,0.8,29.5c0,0.3-0.2,0.9-0.5,1c-5.2,3-10.4,6-15.6,8.9c-0.1,0-0.1,0-0.3,0.1c0-6.6,0-13.2,0-19.8
		c-20.8,0-41.6,0-62.4,0c0,1.3,0,2.5,0,3.7c0,3.9,0,7.8,0,11.8c0,0.4-0.2,1-0.5,1.1c-5.3,2.3-10.5,4.6-16,6.9
		c1.5-45.2,1.7-90.3,0-135.5c1,0.5,2,1,2.9,1.5c4.6,2.5,9.2,4.9,13.9,7.4c0.6,0.3,1.3,0.5,1.9,0.5c18.9,0,37.8,0,56.6,0
		c0.9,0,1.4-0.3,1.9-1.1c2.3-3.6,4.6-7.2,6.9-10.8c0.2-0.3,0.4-0.7,0.7-1.1C163.4,181.9,169.7,187,176,192.1z M151.1,285.1
		c0-14.1,0-28.2,0-42.2c-20.8,0-41.5,0-62.3,0c0,14.1,0,28.1,0,42.2C109.6,285.1,130.3,285.1,151.1,285.1z M88.9,196.9
		c0,12.9,0,25.8,0,38.7c20.8,0,41.5,0,62.2,0c0-13,0-25.8,0-38.7C130.3,196.9,109.6,196.9,88.9,196.9z"/>
	<path d="M193.7,162.7c-0.8,0-1.2,0-1.7,0c-36.6,0-73.1,0-109.7,0c-8.7,0-17.2,1.1-25.6,3.2c-0.4,0.1-1.1,0.1-1.4-0.2
		c-3.4-3.3-6.7-6.6-10.3-10.2c0.8,0,1.2,0,1.7,0c27.3,0,54.6,0,81.8,0c1.1,0,1.6-0.3,2-1.3c5.2-14.1,9.9-28.3,12.9-43
		c0.8-4,1.4-8,2.1-12.2c8.1,4.3,16.3,8.5,24.7,12.9c-3.2,1.5-5.9,3.4-8.3,5.7c-4.1,3.8-7.3,8.3-10.2,13c-4.8,7.9-9.4,16-14,24
		c-0.1,0.2-0.2,0.5-0.3,0.8c0.5,0,0.8,0,1.2,0c7.4,0,14.9,0,22.3,0c0.6,0,1.4-0.3,1.8-0.8c3.8-3.7,7.5-7.4,11.2-11.2
		c0.3-0.3,0.5-0.7,0.8-1.2C181.1,149.3,187.3,155.9,193.7,162.7z"/>
	<path d="M169.9,75.3c6.8,7.2,13.4,14.2,20.3,21.5c-0.7,0-1.2,0-1.6,0c-32.1,0-64.1,0-96.2,0c-9.3,0-18.4,0.9-27.4,3.3
		c-0.4,0.1-1.1,0-1.4-0.2c-3.3-3.2-6.5-6.5-9.8-9.7c-0.1-0.1-0.1-0.2-0.3-0.5c0.6,0,1,0,1.5,0c33.2,0,66.3,0,99.4,0
		c1.1,0,1.8-0.3,2.6-1.1c4-4,8-8,12-12.1C169.4,76.1,169.6,75.7,169.9,75.3z"/>
	<path d="M81.6,103.6c9.5,6.4,18.6,12.7,25.4,21.8c2.6,3.6,4.3,7.5,3.7,12c-0.5,3.9-2.6,7.1-5.3,9.9c-1.4,1.4-2.8,2.7-4.5,3.8
		c-3,2-5.5,1.1-6.7-2.3c-0.7-2-1.1-4.2-1.4-6.3c-1.2-7.8-3.6-15.1-6.8-22.3c-1.9-4.4-4.1-8.7-6.2-13.1c-0.4-0.8-0.4-1.3,0.3-1.8
		C80.6,104.8,81.1,104.2,81.6,103.6z"/>
	<path d="M98.2,44.9c3.4-2.6,3.4-2.6,6.9-0.6c8.1,4.4,15.4,9.8,21.9,16.4c3,3,5,6.5,4.9,10.9c0,1.4-0.3,2.8-0.7,4.1
		c-1.6,4.4-4.4,8-8.2,10.7c-3,2.1-5.5,1.5-7-1.8c-0.8-1.8-1.4-3.8-1.8-5.8c-1.9-10-6.2-19.1-11.7-27.6C101.1,49.1,99.7,47,98.2,44.9
		z"/>
	<path class="st0" d="M151.1,285.1c-20.8,0-41.5,0-62.3,0c0-14.1,0-28.1,0-42.2c20.7,0,41.5,0,62.3,0
		C151.1,256.9,151.1,271,151.1,285.1z"/>
	<path class="st0" d="M88.9,196.9c20.7,0,41.4,0,62.2,0c0,12.9,0,25.7,0,38.7c-20.7,0-41.4,0-62.2,0
		C88.9,222.7,88.9,209.9,88.9,196.9z"/>
</g>
</svg>
