<?xml version="1.0" encoding="utf-8"?>
<!-- Generator: Adobe Illustrator 20.1.0, SVG Export Plug-In . SVG Version: 6.00 Build 0)  -->
<svg version="1.1" id="图层_1" xmlns="http://www.w3.org/2000/svg" xmlns:xlink="http://www.w3.org/1999/xlink" x="0px" y="0px"
	 viewBox="0 0 360 360" style="enable-background:new 0 0 360 360;" xml:space="preserve">
<style type="text/css">
	.st0{fill:#FFFFFF;}
</style>
<g>
	<path class="st0" d="M0.2,360.5c0-120.1,0-240.2,0-360.2c120.1,0,240.2,0,360.2,0c0,120.1,0,240.2,0,360.2
		C240.4,360.5,120.3,360.5,0.2,360.5z M174.8,41.3c-0.3,0.3-0.6,0.5-0.9,0.8c-3.4,3-6.7,6.1-10.1,9c-0.5,0.4-1.2,0.7-1.8,0.7
		c-18.6,0-37.2,0-55.8,0c-0.6,0-1.3-0.2-1.8-0.4c-5.1-2.4-10.3-4.8-15.4-7.2c-0.4-0.2-0.8-0.4-1.1-0.5c0.4,26.6,0.7,53.2,1.1,80
		c-12.8,0-25.2,0-37.8,0c0.4,0.4,0.6,0.7,0.8,0.9c3,3,6,6,9,9c0.6,0.6,1.1,0.7,1.9,0.5c7.1-1.9,14.3-3,21.7-3.1
		c8.2-0.2,16.3-0.1,24.5-0.1c0.2,0,0.5,0.1,0.9,0.2c-0.4,0.5-0.6,1-0.9,1.4c-6.2,8.6-13.7,16.1-22.1,22.5c-4.7,3.6-9.8,6.4-15.8,7.3
		c-1.1,0.2-2.1,0.2-3.4,0.4c4.4,6.3,8.6,12.5,12.9,18.8c2.2-2.1,4.8-3.2,7.5-4.1c9.2-3.2,18.8-5,28.4-6.8
		c12.9-2.3,25.9-4.5,38.9-6.7c2.9-0.5,5.9-0.9,8.9-1.3c0.2,0.5,0.3,0.8,0.5,1.2c1.6,3.8,3.2,7.6,4.9,11.3c1.3,3,3.5,3.7,6.2,1.9
		c1.6-1.1,3.1-2.5,4.4-4c3.2-3.7,3.6-7.9,1.4-12.3c-1.3-2.7-3.2-5-5.5-7.1c-8.2-7.6-18.1-12.9-28-17.9c-0.2-0.1-0.7,0-0.9,0.1
		c-0.7,0.5-1.4,1.2-2.1,1.8c6.2,6.4,12.1,12.6,16.6,20.2c-24.2,1.2-48.1,2.3-72.1,3.5c0.1-0.4,0.3-0.5,0.5-0.6
		c8-4.4,15.7-9.3,23.1-14.6c5-3.5,10.2-6.6,16.7-7.1c-3.1-2.7-6-5.3-9-7.9c0-0.1,0.1-0.2,0.1-0.3c27.6,0,55.3,0,83.2,0
		c-6.1-6.5-11.9-12.7-17.8-18.9c-4.1,3.8-8.1,7.4-12.2,11c-0.5,0.4-1.3,0.8-2,0.8c-22.3,0-44.6,0-66.8,0c-0.4,0-0.9,0-1.3,0
		c0-5.6,0-11,0-16.5c26.6,0,53.2,0,80,0c-5.2-6-10.3-11.8-15.4-17.7c-2.9,3.3-5.8,6.5-8.7,9.8c-0.5,0.6-1.1,0.9-2,0.9
		c-17.6,0-35.2,0-52.8,0c-0.4,0-0.8,0-1.3-0.1c0-5.5,0-10.9,0-16.4c26.6,0,53.2,0,80.1,0c-5.2-5.6-10.3-11.1-15.4-16.6
		c-3.3,2.9-6.5,5.8-9.8,8.6c-0.5,0.4-1.3,0.7-2,0.7c-17.2,0-34.4,0-51.6,0c-0.4,0-0.9,0-1.3,0c0-5.9,0-11.7,0-17.6
		c29,0,57.9,0,87.2,0C185.7,53,180.3,47.2,174.8,41.3z M298.7,116.9c-2.3,2.1-4.4,4.3-6.8,6.1c-7.8,6.1-16.5,10.5-25.4,14.7
		c-18,8.5-36.8,15.2-55.8,21.2c-4.1,1.3-8.1,2.5-12.4,3.8c0.4,1.6,0.8,3.1,1.2,4.7c0.4,0,0.7,0,1.1-0.1c10.3-2.3,20.5-4.4,30.7-6.8
		c18.2-4.3,36-9.9,53.6-16.2c9.3-3.3,18.6-6.8,28.7-6.6C308.6,130.7,303.6,123.7,298.7,116.9z M192.4,100.3c1.7-0.6,3.3-1.1,4.9-1.6
		c13.7-4.8,27.2-10,40.1-16.7c11.1-5.8,22-11.8,33-17.7c3.3-1.8,6.7-3.3,10.4-3.8c2.2-0.3,4.5-0.3,6.9-0.5
		c-5.8-6.5-11.6-13.1-17.3-19.6c-1.2,1.6-2.1,3.3-3.4,4.6c-3.2,3.2-6.3,6.5-9.8,9.4C240.7,67.7,222.8,79.1,204,89
		c-4.2,2.2-8.5,4.3-12.8,6.5C191.6,97,192,98.5,192.4,100.3z M206.6,133.2c0.3-0.1,0.6-0.1,0.9-0.2c13.9-4.3,27.6-9,40.9-14.9
		c8.6-3.8,17.1-8,25.6-11.9c6-2.8,12.1-5.4,18.7-6.7c1.8-0.4,3.7-0.5,5.7-0.7c-5.1-5.8-10.1-11.6-15.1-17.4c-1,1.2-1.9,2.3-2.9,3.2
		c-3.2,2.8-6.4,5.7-9.9,8.2c-15.2,11.1-31.8,20-48.7,28.1c-5.1,2.4-10.2,4.7-15.3,7.1c-0.4,0.2-1.2,0.2-0.9,1.1
		C205.9,130.4,206.2,131.8,206.6,133.2z"/>
	<path d="M174.8,41.3c5.5,5.9,10.9,11.7,16.6,17.7c-29.2,0-58.2,0-87.2,0c0,5.9,0,11.7,0,17.6c0.5,0,0.9,0,1.3,0
		c17.2,0,34.4,0,51.6,0c0.7,0,1.5-0.3,2-0.7c3.3-2.8,6.5-5.7,9.8-8.6c5.1,5.5,10.1,10.9,15.4,16.6c-26.9,0-53.4,0-80.1,0
		c0,5.5,0,10.9,0,16.4c0.4,0,0.9,0.1,1.3,0.1c17.6,0,35.2,0,52.8,0c0.8,0,1.4-0.2,2-0.9c2.8-3.2,5.7-6.5,8.7-9.8
		c5.1,5.9,10.1,11.7,15.4,17.7c-26.8,0-53.4,0-80,0c0,5.5,0,11,0,16.5c0.5,0,0.9,0,1.3,0c22.3,0,44.6,0,66.8,0c0.7,0,1.5-0.3,2-0.8
		c4.1-3.6,8.1-7.3,12.2-11c5.9,6.3,11.7,12.5,17.8,18.9c-27.9,0-55.6,0-83.2,0c0,0.1-0.1,0.2-0.1,0.3c2.9,2.6,5.9,5.2,9,7.9
		c-6.5,0.5-11.8,3.6-16.7,7.1c-7.4,5.3-15.1,10.2-23.1,14.6c-0.2,0.1-0.4,0.2-0.5,0.6c23.9-1.2,47.9-2.3,72.1-3.5
		c-4.5-7.6-10.4-13.8-16.6-20.2c0.7-0.6,1.4-1.3,2.1-1.8c0.2-0.2,0.7-0.2,0.9-0.1c9.9,5.1,19.7,10.3,28,17.9c2.2,2,4.1,4.4,5.5,7.1
		c2.1,4.4,1.8,8.6-1.4,12.3c-1.3,1.5-2.8,2.9-4.4,4c-2.7,1.8-4.9,1.1-6.2-1.9c-1.7-3.7-3.3-7.5-4.9-11.3c-0.2-0.4-0.3-0.7-0.5-1.2
		c-3,0.4-5.9,0.8-8.9,1.3c-13,2.2-25.9,4.3-38.9,6.7c-9.6,1.7-19.2,3.5-28.4,6.8c-2.7,0.9-5.3,2-7.5,4.1
		c-4.3-6.3-8.6-12.5-12.9-18.8c1.2-0.1,2.3-0.2,3.4-0.4c6-0.9,11.1-3.7,15.8-7.3c8.4-6.5,15.9-13.9,22.1-22.5
		c0.3-0.4,0.6-0.8,0.9-1.4c-0.4-0.1-0.6-0.2-0.9-0.2c-8.2,0-16.3,0-24.5,0.1c-7.3,0.1-14.6,1.2-21.7,3.1c-0.8,0.2-1.3,0.1-1.9-0.5
		c-3-3-6-6-9-9c-0.2-0.2-0.4-0.4-0.8-0.9c12.7,0,25.1,0,37.8,0c-0.4-26.7-0.7-53.3-1.1-80c0.2,0.1,0.6,0.3,1.1,0.5
		c5.1,2.4,10.3,4.8,15.4,7.2c0.6,0.3,1.2,0.4,1.8,0.4c18.6,0,37.2,0,55.8,0c0.6,0,1.3-0.3,1.8-0.7c3.4-3,6.7-6,10.1-9
		C174.2,41.8,174.5,41.6,174.8,41.3z"/>
	<path d="M298.7,116.9c4.9,6.8,9.9,13.8,14.9,20.6c-10.1-0.2-19.4,3.3-28.7,6.6c-17.6,6.3-35.4,11.9-53.6,16.2
		c-10.2,2.4-20.5,4.6-30.7,6.8c-0.3,0.1-0.6,0.1-1.1,0.1c-0.4-1.6-0.8-3.1-1.2-4.7c4.2-1.3,8.3-2.5,12.4-3.8
		c19-6,37.8-12.6,55.8-21.2c8.9-4.2,17.6-8.6,25.4-14.7C294.2,121.2,296.4,119,298.7,116.9z"/>
	<path d="M192.4,100.3c-0.4-1.7-0.8-3.2-1.2-4.7c4.3-2.2,8.6-4.3,12.8-6.5c18.8-10,36.7-21.3,53.2-34.8c3.5-2.8,6.6-6.1,9.8-9.4
		c1.3-1.3,2.2-3,3.4-4.6c5.8,6.5,11.6,13.1,17.3,19.6c-2.3,0.1-4.6,0.1-6.9,0.5c-3.7,0.5-7.1,2-10.4,3.8c-11,5.9-22,12-33,17.7
		c-12.9,6.7-26.4,11.9-40.1,16.7C195.7,99.2,194.1,99.7,192.4,100.3z"/>
	<path d="M206.6,133.2c-0.4-1.4-0.7-2.8-1.1-4.1c-0.2-0.9,0.5-0.9,0.9-1.1c5.1-2.4,10.2-4.7,15.3-7.1c17-8.1,33.5-17,48.7-28.1
		c3.4-2.5,6.6-5.4,9.9-8.2c1-0.9,1.9-2.1,2.9-3.2c5,5.8,10,11.6,15.1,17.4c-2,0.2-3.8,0.3-5.7,0.7c-6.5,1.3-12.6,4-18.7,6.7
		c-8.6,3.9-17,8.1-25.6,11.9c-13.3,5.8-27.1,10.6-40.9,14.9C207.2,133.1,206.9,133.1,206.6,133.2z"/>
</g>
</svg>
