<?xml version="1.0" encoding="utf-8"?>
<!-- Generator: Adobe Illustrator 20.1.0, SVG Export Plug-In . SVG Version: 6.00 Build 0)  -->
<svg version="1.1" id="图层_1" xmlns="http://www.w3.org/2000/svg" xmlns:xlink="http://www.w3.org/1999/xlink" x="0px" y="0px"
	 viewBox="0 0 360 360" style="enable-background:new 0 0 360 360;" xml:space="preserve">
<style type="text/css">
	.st0{fill:#FFFFFF;}
</style>
<g>
	<path class="st0" d="M0.2,360.5c0-120.1,0-240.2,0-360.2c120.1,0,240.2,0,360.2,0c0,120.1,0,240.2,0,360.2
		C240.4,360.5,120.3,360.5,0.2,360.5z M174.7,249.8c0.4-0.2,0.8-0.3,1.1-0.5c4.4-2.4,8.8-4.8,13.2-7.1c1-0.5,1.2-1.1,1.1-2
		c-0.3-3.8-0.6-7.6-0.6-11.4c-0.2-11.3-0.3-22.6-0.6-33.9c0-2.1,0.4-3.3,2.4-4.2c2-0.9,3.9-2.2,6-3.4c-7.6-4-15-7.9-22.6-11.9
		c0,19,0,37.7,0,56.5c-26.3,0-52.5,0-78.7,0c0-0.3-0.1-0.5-0.1-0.7c0-14,0-27.9,0-41.9c0-0.5,0.3-1.1,0.7-1.4
		c1.7-1.4,3.4-2.7,5.2-4.2c-6.8-3.6-13.4-7.1-20.1-10.7c0.9,12.9,1.3,25.6,1.1,38.4c-0.2,12.7-0.6,25.5-0.8,38.2
		c1.3-0.5,2.8-1.1,4.4-1.7c0.1,0.7,0.2,1.4,0.2,2c0.3,13.2,0.7,26.4,0.9,39.6c0.1,4.8-1.4,9.1-5.6,11.9c-0.1,0-0.1,0.1-0.1,0.3
		c1.5,2.5,3.1,5,4.6,7.5c1.6,2.5,3.1,5.1,4.6,7.4c30.7-11.9,62.7-18.7,94.4-27c-0.4-1.6-0.8-3.1-1.2-4.7
		c-27.1,3.9-54.1,7.8-81.2,11.8c0-7.9,0-15.7,0-23.6c25.9,0,51.6,0,77.6,0c-4.8-6-9.4-11.8-14.1-17.6c-0.4,0.3-0.7,0.5-0.9,0.7
		c-3.7,3-7.3,6-10.9,9c-0.7,0.6-1.5,0.9-2.5,0.9c-15.9,0-31.8,0-47.6,0c-0.5,0-1,0-1.6,0c0-1.3,0.1-2.5,0-3.6
		c-0.1-0.8,0.2-1.2,0.9-1.6c2-1.3,4-2.7,6.2-4.1c-7.7-3.1-15.1-6.1-22.8-9.1c0.6-0.2,0.9-0.4,1.3-0.6c2.5-1,5-1.9,7.5-2.9
		c0.7-0.3,1-0.6,1-1.4c-0.1-1.2,0-2.4,0-3.6c25.9,0,51.7,0,77.6,0C174.7,242.9,174.7,246.3,174.7,249.8z M303.2,262.7
		c-5.9-6.3-11.8-12.6-17.5-18.7c-1.7,2.1-3.2,4.1-5,6c-6.3,6.8-13.8,12.4-21.5,17.6c-19.1,12.7-39.2,23.6-59.9,33.4
		c-3.8,1.8-7.7,3.6-11.6,5.4c0.2,0.6,0.4,1.2,0.6,1.7c0.2,0.6,0.4,1.2,0.6,1.8c0.3-0.1,0.5-0.1,0.7-0.1
		c20.1-5.7,39.8-12.7,58.5-22.1c8.1-4.1,15.8-8.6,23.8-13c7.2-3.9,14.5-7.8,22.3-10.6C297,263.2,299.9,262.2,303.2,262.7z
		 M155.9,165c-0.7,3.5-2.3,6.4-4.4,8.9c-3.5,4.2-7.2,8.2-10.9,12.3c-1.1,1.2-2.4,2.3-3.6,3.5c-10.2-7.4-20.9-13.8-31.8-20
		c-0.2,0.4-0.4,0.7-0.6,1c-0.7,1-0.5,1.6,0.5,2.4c5.9,5,11.8,10.1,17.6,15.2c2.8,2.4,5.5,4.9,8.3,7.4
		c-10.7,10.7-22.2,20.3-34.1,29.4c0.4,0.8,0.8,1.6,1.2,2.4c14.1-7.1,26.8-16,38.8-25.9c0.3,0.3,0.6,0.5,0.8,0.8
		c6.8,7,13.4,14.3,18.3,22.9c0.8,1.5,2.1,2.8,3.4,4c1.2,1.1,2.6,0.8,3.6-0.5c0.3-0.4,0.5-0.7,0.7-1.1c2.6-5.8,1.7-11.3-2-16.3
		c-3.1-4.2-7.1-7.6-11.2-10.8c-2.1-1.7-4.2-3.3-6.5-5.1c3.9-3.6,7.7-7.3,11.7-10.6c4.8-4.1,9.6-8.5,16.4-9.5
		C166.8,171.9,161.4,168.5,155.9,165z M272.5,202.9c0,0-0.1,0.1-0.2,0.1c-3.3,4.9-7.5,8.9-11.9,12.6c-14.4,12.3-30.1,22.5-46.7,31.5
		c-6,3.2-12.1,6.2-18.1,9.3c-0.3,0.2-0.7,0.6-0.7,0.9c0.3,1.4,0.7,2.8,1,4.3c0.4-0.1,0.7-0.2,0.9-0.3c7.7-2.9,15.5-5.6,23.1-8.7
		c14.6-5.9,28.6-12.8,41.8-21.4c5.4-3.6,11.2-6.7,16.9-9.7c3.1-1.6,6.4-2.9,9.9-2.5C283.3,213.7,277.9,208.3,272.5,202.9z
		 M196,220.4c0.3-0.1,0.5-0.2,0.8-0.3c14.5-5.8,28.5-12.6,41.7-21c6.5-4.1,12.8-8.6,19.3-12.7c5.6-3.5,11.3-7,17.9-7.5
		c-5.7-5.7-11.5-11.5-17.2-17.2c-0.9,2.6-2.6,4.8-4.3,6.9c-1,1.3-2.1,2.5-3.3,3.7c-11.9,12.5-25,23.4-39.1,33.3
		c-5.2,3.7-10.7,7.1-16,10.6c-0.3,0.2-0.8,0.8-0.7,1.1C195.2,218.4,195.6,219.4,196,220.4z M125.4,159.1c-1.4,2.2-1.4,2.2,0,4
		c2.9,3.7,5.2,7.7,6.5,12.3c0.2,0.8,0.6,1.5,1,2.2c0.8,1.3,2,1.7,3.5,1.2c1.9-0.7,3.5-2,4.7-3.6c1.3-1.8,1.4-3.8,0.2-5.6
		c-0.9-1.3-2-2.5-3.2-3.6C134.4,162.9,129.9,161,125.4,159.1z M102.9,186.2c-0.2,0.3-0.3,0.6-0.4,0.7c-0.9,1.1-0.6,2,0.3,3.1
		c2.9,3.6,5.3,7.6,6.2,12.3c0.1,0.6,0.4,1.3,0.8,1.9c0.5,0.9,1.3,1.2,2.4,1c2.7-0.4,5.7-3.8,5.7-6.6c0-2.5-1.3-4.4-3.2-5.9
		C111.2,189.7,107.2,187.9,102.9,186.2z M154.8,192.2c0.2,0.2,0.4,0.4,0.6,0.5c4,3.5,7.3,7.5,9.1,12.7c0.2,0.5,0.5,1,0.8,1.5
		c0.9,1.3,2.2,1.5,3.4,0.5c1-0.9,1.9-2,2.6-3.2c2.1-3.6,1.5-6.5-2.1-8.6c-3-1.8-6.1-3.3-9.3-4.7C157.1,189.5,157,189.6,154.8,192.2z
		 M126.5,213.4c3,4.5,5.2,9.2,6.1,14.5c0.1,0.5,0.3,1.1,0.6,1.6c0.7,1.4,1.8,1.7,3.2,1.1c4.9-2.1,6.2-7.2,2.9-11.3
		c-2.2-2.8-5.3-4.6-8.4-6.2C129.3,212.1,127.9,212.1,126.5,213.4z"/>
	<path d="M174.7,249.8c0-3.6,0-7,0-10.5c-25.9,0-51.7,0-77.6,0c0,1.2,0,2.4,0,3.6c0,0.8-0.3,1.1-1,1.4c-2.5,0.9-5,1.9-7.5,2.9
		c-0.4,0.2-0.8,0.3-1.3,0.6c7.6,3.1,15.1,6.1,22.8,9.1c-2.2,1.4-4.2,2.8-6.2,4.1c-0.6,0.4-0.9,0.8-0.9,1.6c0.1,1.1,0,2.3,0,3.6
		c0.6,0,1.1,0,1.6,0c15.9,0,31.8,0,47.6,0c1,0,1.7-0.3,2.5-0.9c3.6-3,7.3-6,10.9-9c0.3-0.2,0.6-0.4,0.9-0.7
		c4.7,5.8,9.3,11.6,14.1,17.6c-26,0-51.8,0-77.6,0c0,7.9,0,15.7,0,23.6c27-3.9,54-7.8,81.2-11.8c0.4,1.5,0.8,3.1,1.2,4.7
		c-31.7,8.3-63.7,15.1-94.4,27c-1.4-2.3-3-4.9-4.6-7.4c-1.5-2.5-3.1-5-4.6-7.5c0-0.1,0-0.2,0.1-0.3c4.2-2.9,5.7-7.2,5.6-11.9
		c-0.2-13.2-0.6-26.4-0.9-39.6c0-0.6-0.1-1.3-0.2-2c-1.6,0.6-3.1,1.2-4.4,1.7c0.3-12.7,0.7-25.5,0.8-38.2
		c0.2-12.7-0.2-25.4-1.1-38.4c6.8,3.6,13.4,7.1,20.1,10.7c-1.8,1.5-3.6,2.8-5.2,4.2c-0.4,0.3-0.7,0.9-0.7,1.4c0,14,0,27.9,0,41.9
		c0,0.2,0,0.4,0.1,0.7c26.2,0,52.4,0,78.7,0c0-18.7,0-37.5,0-56.5c7.6,4,15,7.9,22.6,11.9c-2.1,1.2-4,2.5-6,3.4
		c-1.9,0.9-2.4,2.1-2.4,4.2c0.3,11.3,0.3,22.6,0.6,33.9c0.1,3.8,0.4,7.6,0.6,11.4c0.1,1-0.1,1.6-1.1,2c-4.4,2.3-8.8,4.7-13.2,7.1
		C175.5,249.5,175.1,249.6,174.7,249.8z"/>
	<path d="M303.2,262.7c-3.3-0.5-6.2,0.4-9.1,1.4c-7.8,2.7-15,6.6-22.3,10.6c-7.9,4.3-15.7,8.9-23.8,13
		c-18.7,9.4-38.3,16.4-58.5,22.1c-0.2,0.1-0.4,0.1-0.7,0.1c-0.2-0.6-0.4-1.2-0.6-1.8c-0.2-0.6-0.4-1.1-0.6-1.7
		c3.9-1.8,7.8-3.6,11.6-5.4c20.7-9.8,40.8-20.7,59.9-33.4c7.7-5.1,15.1-10.7,21.5-17.6c1.7-1.9,3.3-3.9,5-6
		C291.4,250.2,297.2,256.4,303.2,262.7z"/>
	<path d="M155.9,165c5.5,3.5,10.8,7,16.2,10.4c-6.8,1-11.5,5.4-16.4,9.5c-4,3.4-7.7,7-11.7,10.6c2.3,1.8,4.4,3.4,6.5,5.1
		c4,3.3,8.1,6.6,11.2,10.8c3.7,5,4.6,10.4,2,16.3c-0.2,0.4-0.4,0.8-0.7,1.1c-1,1.3-2.4,1.7-3.6,0.5c-1.3-1.2-2.5-2.5-3.4-4
		c-4.9-8.6-11.4-15.9-18.3-22.9c-0.2-0.3-0.5-0.5-0.8-0.8c-12.1,9.9-24.8,18.8-38.8,25.9c-0.4-0.8-0.8-1.6-1.2-2.4
		c11.9-9.2,23.4-18.8,34.1-29.4c-2.8-2.5-5.5-5-8.3-7.4c-5.9-5.1-11.7-10.2-17.6-15.2c-1-0.8-1.2-1.4-0.5-2.4c0.2-0.3,0.4-0.6,0.6-1
		c10.9,6.1,21.5,12.6,31.8,20c1.2-1.2,2.5-2.2,3.6-3.5c3.7-4.1,7.4-8.1,10.9-12.3C153.6,171.4,155.2,168.5,155.9,165z"/>
	<path d="M272.5,202.9c5.4,5.4,10.8,10.8,16.1,16.1c-3.5-0.5-6.8,0.8-9.9,2.5c-5.7,3.1-11.5,6.2-16.9,9.7
		c-13.2,8.7-27.2,15.6-41.8,21.4c-7.6,3.1-15.4,5.8-23.1,8.7c-0.3,0.1-0.5,0.2-0.9,0.3c-0.4-1.5-0.8-2.9-1-4.3
		c0-0.2,0.4-0.7,0.7-0.9c6-3.1,12.1-6.1,18.1-9.3c16.6-9,32.4-19.2,46.7-31.5c4.4-3.8,8.6-7.8,11.9-12.6
		C272.4,203,272.5,202.9,272.5,202.9z"/>
	<path d="M196,220.4c-0.3-1-0.8-2-1-3c-0.1-0.3,0.4-0.9,0.7-1.1c5.3-3.6,10.7-7,16-10.6c14.1-9.9,27.2-20.8,39.1-33.3
		c1.1-1.2,2.2-2.4,3.3-3.7c1.8-2.2,3.5-4.4,4.3-6.9c5.8,5.8,11.6,11.6,17.2,17.2c-6.6,0.5-12.3,4-17.9,7.5
		c-6.5,4.1-12.8,8.6-19.3,12.7c-13.2,8.4-27.2,15.1-41.7,21C196.5,220.2,196.3,220.3,196,220.4z"/>
	<path d="M125.4,159.1c4.5,1.9,9,3.8,12.7,6.9c1.2,1,2.3,2.2,3.2,3.6c1.2,1.8,1.1,3.8-0.2,5.6c-1.2,1.7-2.7,2.9-4.7,3.6
		c-1.5,0.5-2.7,0.1-3.5-1.2c-0.4-0.7-0.8-1.4-1-2.2c-1.3-4.6-3.6-8.6-6.5-12.3C123.9,161.3,123.9,161.3,125.4,159.1z"/>
	<path d="M102.9,186.2c4.2,1.8,8.3,3.5,11.8,6.5c1.8,1.6,3.1,3.4,3.2,5.9c0,2.8-3,6.2-5.7,6.6c-1,0.1-1.8-0.2-2.4-1
		c-0.3-0.6-0.7-1.2-0.8-1.9c-0.9-4.7-3.2-8.7-6.2-12.3c-0.9-1.1-1.1-2-0.3-3.1C102.7,186.7,102.7,186.5,102.9,186.2z"/>
	<path d="M154.8,192.2c2.2-2.5,2.3-2.7,5.2-1.3c3.2,1.4,6.3,2.9,9.3,4.7c3.6,2.1,4.2,5,2.1,8.6c-0.7,1.2-1.6,2.3-2.6,3.2
		c-1.2,1.1-2.4,0.8-3.4-0.5c-0.3-0.4-0.6-0.9-0.8-1.5c-1.8-5.1-5.1-9.2-9.1-12.7C155.2,192.5,155,192.4,154.8,192.2z"/>
	<path d="M126.5,213.4c1.4-1.3,2.8-1.3,4.4-0.4c3.1,1.7,6.1,3.4,8.4,6.2c3.3,4.2,2,9.2-2.9,11.3c-1.4,0.6-2.5,0.3-3.2-1.1
		c-0.3-0.5-0.5-1-0.6-1.6C131.7,222.6,129.5,217.9,126.5,213.4z"/>
</g>
</svg>
