<?xml version="1.0" encoding="utf-8"?>
<!-- Generator: Adobe Illustrator 20.1.0, SVG Export Plug-In . SVG Version: 6.00 Build 0)  -->
<svg version="1.1" id="图层_1" xmlns="http://www.w3.org/2000/svg" xmlns:xlink="http://www.w3.org/1999/xlink" x="0px" y="0px"
	 viewBox="0 0 360 360" style="enable-background:new 0 0 360 360;" xml:space="preserve">
<style type="text/css">
	.st0{fill:#FFFFFF;}
</style>
<g>
	<path class="st0" d="M0.2,360.5c0-120.1,0-240.2,0-360.2c120.1,0,240.2,0,360.2,0c0,120.1,0,240.2,0,360.2
		C240.4,360.5,120.3,360.5,0.2,360.5z M305.6,54.3c-9.1-4.4-18.1-8.7-27.2-13c0,0.4,0,0.7,0,1c0.4,9.1,1,18.2,1.1,27.3
		c0.2,21,0.1,42.1,0,63.1c0,0.3,0,0.7-0.1,1.2c-4.4-5.4-8.6-10.7-12.8-16c-0.4,0.4-0.8,0.7-1.1,1c-2.9,2.9-5.8,5.8-8.7,8.8
		c-0.6,0.6-1.2,0.8-2,0.8c-3.5,0-7,0-10.4,0c-0.4,0-0.8,0-1.3,0c0-10.3,0-20.4,0-30.6c11,0,21.8,0,32.9,0
		c-5.2-6-10.3-11.8-15.3-17.7c-2.6,2.9-5.2,5.6-7.6,8.6c-1.3,1.6-2.7,2.2-4.7,2c-1.8-0.2-3.6,0-5.3,0c0-9.5,0-18.8,0-28.2
		c11.7,0,23.4,0,35.3,0c-4.8-6-9.5-11.8-14.2-17.7c-0.3,0.3-0.6,0.6-0.9,0.9c-2.6,2.9-5.1,5.7-7.6,8.6c-0.7,0.8-1.4,1.1-2.4,1.1
		c-19.4,0-38.8,0-58.2,0c-0.5,0-0.9,0-1.6,0c0.2,0.3,0.3,0.4,0.4,0.5c3.2,3.2,6.4,6.4,9.6,9.6c0.3,0.3,1,0.4,1.5,0.3
		c6.2-1.6,12.4-2.7,18.8-3.1c1.7-0.1,3.3,0,5,0c0,9.4,0,18.7,0,28.1c-10.2,0-20.2,0-30.5,0c0.2,0.3,0.3,0.4,0.4,0.5
		c3.2,3.2,6.3,6.3,9.5,9.5c0.5,0.5,1,0.4,1.6,0.3c4.1-0.9,8.2-1.9,12.3-2.7c2.2-0.4,4.4-0.5,6.6-0.7c0,10.4,0,20.5,0,30.7
		c-11.3,0-22.6,0-34.2,0c3.6,3.6,6.9,7,10.3,10.3c0.2,0.2,0.9,0.2,1.3,0.1c8.4-2.2,17-3.2,25.7-3.3c15.4-0.1,30.8,0,46.2,0
		c0.4,0,0.8,0,1.3,0c0,0.5,0,0.8,0,1.1c0,48,0,96.1,0,144.1c0,2-0.4,4.1-1,6c-0.8,2.7-2.7,4.3-5.5,4.7c-1.4,0.2-2.9,0.3-4.3,0.2
		c-8.1-0.5-16.2-1-24.3-1.6c-1.3-0.1-2.5-0.2-3.7-0.3c0,2.1,0,4,0,5.9c0.3,0,0.5,0.1,0.8,0.1c5.2,0.7,10.4,1.6,15.4,3.3
		c3.3,1.1,6.4,2.6,9.3,4.7c4,3,6.6,6.8,7.5,12c1.3-0.4,2.5-0.8,3.7-1.3c2-0.9,4-1.7,5.8-2.8c6.5-3.8,10.6-9.4,11.6-17
		c0.4-3,0.1-6.1,0.1-9.2c0-74.4,0-148.7,0-223.1c0-0.8,0.2-1.3,0.9-1.7C299.1,58.7,302.2,56.5,305.6,54.3z M174.9,135.6
		c-5.3-5.7-10.3-11.1-15.4-16.6c-3.3,3-6.5,5.8-9.8,8.7c-0.5,0.4-1.2,0.7-1.9,0.7c-3.9,0.1-7.8,0-11.8,0c-0.4,0-0.8,0-1.2,0
		c0-10.3,0-20.3,0-30.6c10.6,0,21,0,31.7,0c-5.2-6-10.2-11.8-15.4-17.7c-1.9,2.4-3.7,4.8-5.5,7.1c-0.9,1.2-1.6,2.7-2.8,3.3
		c-1.2,0.6-2.9,0.2-4.4,0.2c-1.2,0-2.4,0-3.7,0c0-9.5,0-18.7,0-28.2c12.1,0,24.2,0,36.5,0c-5.3-6.1-10.3-11.9-15.4-17.8
		c-3,3.4-5.9,6.6-8.8,9.9c-0.5,0.6-1,0.8-1.7,0.8c-17.4,0-34.7,0-52.1,0c-0.5,0-1.1-0.1-1.6-0.4c-4.7-2.4-9.4-4.9-14.1-7.4
		c-2.5-1.3-5.1-2.7-7.7-4c0.1,2.1,0.3,4.1,0.4,6C70.6,62,71,74.3,71,86.7c0,66.3-0.1,132.6-0.2,198.9c0,7.9-0.5,15.9-0.7,23.8
		c-0.1,2.5,0,4.9,0,7.4c0.3-0.1,0.6-0.3,1-0.5c4.7-2.7,9.3-5.3,14-7.9c1-0.6,1.4-1.2,1.4-2.4c0-80.2,0-160.4,0-240.6
		c0-0.4,0-0.8,0-1.2c0-0.3,0.1-0.6,0.3-0.7c2.2-1.9,4.4-3.8,6.7-5.7c2.6,2.6,5.1,5.1,7.6,7.6c0.5,0.5,1,0.6,1.7,0.4
		c3.8-0.9,7.7-1.9,11.6-2.6c2-0.4,4.1-0.5,6.2-0.8c0,9.6,0,18.9,0,28.3c-10.5,0-21,0-31.6,0c0.2,0.3,0.3,0.5,0.5,0.6
		c3.2,3.2,6.3,6.4,9.5,9.5c0.3,0.3,1.1,0.4,1.6,0.3c4.9-0.9,9.7-2,14.6-2.9c1.8-0.3,3.6-0.3,5.4-0.4c0,10.3,0,20.4,0,30.6
		c-10.9,0-21.8,0-32.8,0c0.4,0.4,0.6,0.7,0.9,1c3,3,6,5.9,8.9,8.9c0.6,0.6,1.1,0.7,1.9,0.5c8.6-2.3,17.3-3.2,26.2-3.3
		c15.9,0,31.8,0,47.8,0C173.7,135.6,174.1,135.6,174.9,135.6z"/>
	<path d="M305.6,54.3c-3.4,2.2-6.5,4.4-9.8,6.5c-0.7,0.4-0.9,0.9-0.9,1.7c0,74.4,0,148.7,0,223.1c0,3.1,0.2,6.2-0.1,9.2
		c-1,7.6-5.1,13.1-11.6,17c-1.8,1.1-3.8,1.9-5.8,2.8c-1.2,0.5-2.4,0.8-3.7,1.3c-0.8-5.1-3.4-9-7.5-12c-2.8-2.1-6-3.5-9.3-4.7
		c-5-1.7-10.2-2.7-15.4-3.3c-0.2,0-0.5-0.1-0.8-0.1c0-1.9,0-3.8,0-5.9c1.2,0.1,2.5,0.2,3.7,0.3c8.1,0.5,16.2,1.1,24.3,1.6
		c1.4,0.1,2.9,0,4.3-0.2c2.8-0.4,4.7-2.1,5.5-4.7c0.6-1.9,1-4,1-6c0.1-48,0-96.1,0-144.1c0-0.3,0-0.6,0-1.1c-0.5,0-0.9,0-1.3,0
		c-15.4,0-30.8-0.1-46.2,0c-8.7,0-17.3,1.1-25.7,3.3c-0.4,0.1-1,0.1-1.3-0.1c-3.4-3.3-6.7-6.7-10.3-10.3c11.5,0,22.8,0,34.2,0
		c0-10.2,0-20.3,0-30.7c-2.2,0.2-4.5,0.3-6.6,0.7c-4.1,0.8-8.2,1.8-12.3,2.7c-0.6,0.1-1.1,0.2-1.6-0.3c-3.1-3.2-6.3-6.3-9.5-9.5
		c-0.1-0.1-0.2-0.2-0.4-0.5c10.2,0,20.3,0,30.5,0c0-9.5,0-18.7,0-28.1c-1.7,0-3.3-0.1-5,0c-6.4,0.4-12.6,1.5-18.8,3.1
		c-0.4,0.1-1.1,0-1.5-0.3c-3.2-3.2-6.4-6.4-9.6-9.6c-0.1-0.1-0.2-0.2-0.4-0.5c0.7,0,1.1,0,1.6,0c19.4,0,38.8,0,58.2,0
		c1.1,0,1.8-0.3,2.4-1.1c2.5-2.9,5.1-5.8,7.6-8.6c0.3-0.3,0.5-0.6,0.9-0.9c4.7,5.9,9.4,11.7,14.2,17.7c-11.9,0-23.6,0-35.3,0
		c0,9.4,0,18.7,0,28.2c1.8,0,3.5-0.1,5.3,0c2,0.2,3.4-0.4,4.7-2c2.4-3,5-5.7,7.6-8.6c5.1,5.9,10.1,11.7,15.3,17.7
		c-11.1,0-22,0-32.9,0c0,10.2,0,20.3,0,30.6c0.4,0,0.8,0,1.3,0c3.5,0,7,0,10.4,0c0.8,0,1.4-0.2,2-0.8c2.9-2.9,5.8-5.8,8.7-8.8
		c0.3-0.3,0.6-0.6,1.1-1c4.3,5.3,8.5,10.6,12.8,16c0-0.5,0.1-0.9,0.1-1.2c0-21,0.1-42.1,0-63.1c-0.1-9.1-0.7-18.2-1.1-27.3
		c0-0.3,0-0.6,0-1C287.5,45.6,296.5,49.9,305.6,54.3z"/>
	<path d="M174.9,135.6c-0.8,0-1.2,0-1.6,0c-15.9,0-31.8,0-47.8,0c-8.9,0-17.6,1-26.2,3.3c-0.8,0.2-1.3,0.1-1.9-0.5
		c-2.9-3-5.9-6-8.9-8.9c-0.3-0.3-0.5-0.5-0.9-1c11,0,21.9,0,32.8,0c0-10.2,0-20.3,0-30.6c-1.8,0.1-3.7,0.1-5.4,0.4
		c-4.9,0.9-9.7,1.9-14.6,2.9c-0.5,0.1-1.2,0-1.6-0.3c-3.2-3.1-6.4-6.3-9.5-9.5c-0.1-0.1-0.2-0.3-0.5-0.6c10.6,0,21.1,0,31.6,0
		c0-9.4,0-18.7,0-28.3c-2.1,0.2-4.2,0.3-6.2,0.8c-3.9,0.8-7.7,1.7-11.6,2.6c-0.7,0.2-1.2,0.1-1.7-0.4c-2.5-2.5-5-5-7.6-7.6
		c-2.3,1.9-4.5,3.8-6.7,5.7c-0.2,0.2-0.3,0.5-0.3,0.7c0,0.4,0,0.8,0,1.2c0,80.2,0,160.4,0,240.6c0,1.2-0.4,1.8-1.4,2.4
		c-4.7,2.6-9.3,5.3-14,7.9c-0.3,0.2-0.7,0.4-1,0.5c0-2.5-0.1-5,0-7.4c0.2-7.9,0.7-15.9,0.7-23.8C70.9,219.3,71,153,71,86.7
		c0-12.3-0.5-24.7-0.8-37c0-1.9-0.2-3.9-0.4-6c2.6,1.4,5.2,2.7,7.7,4c4.7,2.5,9.4,4.9,14.1,7.4c0.5,0.2,1.1,0.4,1.6,0.4
		c17.4,0,34.7,0,52.1,0c0.7,0,1.2-0.2,1.7-0.8c2.9-3.3,5.8-6.5,8.8-9.9c5.1,5.9,10.2,11.7,15.4,17.8c-12.4,0-24.4,0-36.5,0
		c0,9.4,0,18.7,0,28.2c1.2,0,2.4,0,3.7,0c1.5,0,3.2,0.4,4.4-0.2c1.2-0.6,1.9-2.2,2.8-3.3c1.8-2.3,3.6-4.7,5.5-7.1
		c5.1,5.9,10.2,11.7,15.4,17.7c-10.7,0-21.1,0-31.7,0c0,10.2,0,20.3,0,30.6c0.4,0,0.8,0,1.2,0c3.9,0,7.8,0,11.8,0
		c0.6,0,1.4-0.3,1.9-0.7c3.3-2.8,6.5-5.7,9.8-8.7C164.6,124.5,169.6,129.9,174.9,135.6z"/>
</g>
</svg>
