<?xml version="1.0" encoding="utf-8"?>
<!-- Generator: Adobe Illustrator 20.1.0, SVG Export Plug-In . SVG Version: 6.00 Build 0)  -->
<svg version="1.1" id="图层_1" xmlns="http://www.w3.org/2000/svg" xmlns:xlink="http://www.w3.org/1999/xlink" x="0px" y="0px"
	 viewBox="0 0 360 360" style="enable-background:new 0 0 360 360;" xml:space="preserve">
<style type="text/css">
	.st0{fill:#FFFFFF;}
</style>
<g>
	<path class="st0" d="M0.2,360.5c0-120.1,0-240.2,0-360.2c120.1,0,240.2,0,360.2,0c0,120.1,0,240.2,0,360.2
		C240.4,360.5,120.3,360.5,0.2,360.5z M152.5,307.6c1.2-0.5,2.3-0.9,3.4-1.4c6.1-2.8,11-6.7,14-12.9c1.9-3.9,2.6-8.1,2.6-12.4
		c0-29.7,0-59.4-0.1-89c0-2.5,0.6-3.9,3-4.8c2.2-0.8,4.3-2.1,6.5-3.2c-5.6-6-11-11.8-16.5-17.7c-3.4,3-6.6,5.8-9.8,8.7
		c-0.6,0.5-1.2,0.8-2,0.8c-25.1,0-50.2,0-75.4,0c-0.7,0-1.4-0.2-2-0.5c-4.2-2.2-8.5-4.5-12.7-6.8c-1.3-0.7-2.7-1.4-4-2.1
		c1.4,46.8,1.5,93.4,0,140.1c0.4-0.3,0.8-0.5,1.1-0.7c4.7-3,9.3-6,14-9c1-0.6,1.3-1.2,1.3-2.4c0-36.7,0-73.4,0-110c0-0.5,0-1,0-1.6
		c27.1,0,54.1,0,81.2,0c0,0.5,0.1,0.8,0.1,1.2c0,29.2,0,58.4,0,87.6c0,2.8-0.5,5.6-1.1,8.3c-0.8,3.2-2.6,4.3-5.8,4.1
		c-5.7-0.4-11.3-0.9-17-1.4c-3-0.3-5.9-0.6-9-0.9c0,2,0,3.9,0,5.9c0.3,0.1,0.6,0.2,1,0.2c5.7,1.1,11.3,2.7,16.4,5.5
		c4.8,2.7,8.6,6.3,10.3,11.8C152,305.9,152.2,306.7,152.5,307.6z M81.7,165c0.5-0.2,0.9-0.3,1.2-0.5c4.7-2,9.3-4,14-6
		c1-0.4,1.4-0.9,1.3-2c-0.1-1.9,0-3.7,0-5.6c13,0,25.9,0,38.9,0c0,3.5,0,7,0,10.5c4.8-1.5,9.5-2.9,14.2-4.3c1-0.3,1.1-0.8,1.1-1.7
		c-0.4-11.7-0.8-23.5-1.2-35.2c0-0.9,0.2-1.4,1-1.8c2.4-1.3,4.8-2.7,7.3-4.1c-4.8-5.2-9.4-10.2-14.2-15.4c-0.4,0.4-0.7,0.7-1,1
		c-2.6,2.9-5.2,5.8-7.7,8.7c-0.6,0.7-1.2,0.9-2,0.9c-11.3,0-22.6,0-33.8,0c-0.9,0-1.8-0.2-2.6-0.6c-5.2-2.4-10.3-4.8-15.4-7.2
		c-0.3-0.1-0.6-0.2-1-0.4C83.2,122.7,83.2,143.8,81.7,165z M134.6,195.7c-2.8,2.8-5.6,5.6-8.5,8.5c-0.5,0.4-1.2,0.8-1.8,0.8
		c-6,0.1-12,0.1-18,0c-0.7,0-1.4-0.2-2-0.5c-4.7-2.3-9.4-4.7-14.2-7c-0.4-0.2-0.8-0.4-1.2-0.6c1.4,24,1.6,47.9,0,71.8
		c5-2.3,9.8-4.5,14.7-6.8c0.3-0.1,0.5-0.7,0.6-1.1c0.1-1.6,0-3.2,0-4.9c7.5,0,14.8,0,22.3,0c0,3.1,0,6.1,0,9.3
		c5.1-1.9,9.9-3.8,14.8-5.7c0.3-0.1,0.5-0.6,0.5-1c0-2-0.1-3.9-0.2-5.9c-0.3-12.3-0.6-24.5-1-36.8c0-1,0.3-1.5,1.1-2
		c2.4-1.3,4.7-2.7,7-4C144,205.2,139.3,200.5,134.6,195.7z M53.5,81.3c0.2,0.3,0.2,0.4,0.3,0.5c3.2,3.2,6.4,6.5,9.7,9.6
		c0.3,0.3,1,0.4,1.5,0.3c8.7-2.2,17.5-3.2,26.5-3.2c30,0,60,0,90,0c0.5,0,0.9,0,1.7,0c-6.5-6.9-12.7-13.5-19-20.2
		c-4.2,4.2-8.2,8.2-12.3,12.2c-0.4,0.4-1.2,0.7-1.7,0.7c-8.6,0-17.1,0-25.7,0c-0.3,0-0.7,0-1.2,0c1.1-1,2.1-1.7,3.1-2.6
		c2.5-2.4,4.2-5.2,4.3-8.8c0.1-4.6-2-8.3-5.1-11.4c-7-7.1-15.7-11.5-24.5-15.9c-0.2-0.1-0.6-0.1-0.7,0.1c-0.7,0.6-1.4,1.3-2.2,2.1
		c9.5,10.4,16.3,21.8,15.3,36.5C93.5,81.3,73.6,81.3,53.5,81.3z"/>
	<path d="M152.5,307.6c-0.3-0.9-0.4-1.8-0.7-2.5c-1.7-5.5-5.5-9.1-10.3-11.8c-5.1-2.9-10.7-4.4-16.4-5.5c-0.3-0.1-0.6-0.1-1-0.2
		c0-2,0-3.9,0-5.9c3,0.3,6,0.7,9,0.9c5.7,0.5,11.3,1,17,1.4c3.2,0.2,5-0.9,5.8-4.1c0.7-2.7,1.1-5.5,1.1-8.3c0.1-29.2,0-58.4,0-87.6
		c0-0.4,0-0.8-0.1-1.2c-27.1,0-54.1,0-81.2,0c0,0.5,0,1,0,1.6c0,36.7,0,73.4,0,110c0,1.2-0.4,1.8-1.3,2.4c-4.7,3-9.4,6-14,9
		c-0.3,0.2-0.7,0.4-1.1,0.7c1.5-46.7,1.4-93.3,0-140.1c1.4,0.7,2.7,1.4,4,2.1c4.2,2.3,8.4,4.5,12.7,6.8c0.6,0.3,1.4,0.5,2,0.5
		c25.1,0,50.2,0,75.4,0c0.8,0,1.4-0.2,2-0.8c3.2-2.9,6.4-5.7,9.8-8.7c5.5,5.9,11,11.7,16.5,17.7c-2.3,1.1-4.3,2.4-6.5,3.2
		c-2.4,0.9-3,2.3-3,4.8c0.1,29.7,0.1,59.4,0.1,89c0,4.3-0.8,8.5-2.6,12.4c-2.9,6.2-7.9,10.1-14,12.9
		C154.7,306.7,153.6,307.1,152.5,307.6z"/>
	<path d="M81.7,165c1.5-21.2,1.5-42.3,0-63.5c0.4,0.2,0.7,0.3,1,0.4c5.1,2.4,10.3,4.8,15.4,7.2c0.8,0.4,1.7,0.6,2.6,0.6
		c11.3,0,22.6,0,33.8,0c0.9,0,1.5-0.3,2-0.9c2.5-2.9,5.1-5.8,7.7-8.7c0.3-0.3,0.6-0.6,1-1c4.7,5.1,9.4,10.2,14.2,15.4
		c-2.5,1.4-4.9,2.8-7.3,4.1c-0.8,0.4-1,0.9-1,1.8c0.4,11.7,0.7,23.5,1.2,35.2c0,0.9-0.1,1.4-1.1,1.7c-4.7,1.4-9.4,2.8-14.2,4.3
		c0-3.5,0-7,0-10.5c-13,0-25.8,0-38.9,0c0,1.8-0.1,3.7,0,5.6c0.1,1.1-0.3,1.6-1.3,2c-4.7,1.9-9.3,4-14,6
		C82.6,164.7,82.2,164.8,81.7,165z M98.3,143.7c12.9,0,25.8,0,38.7,0c0-9,0-17.9,0-26.8c-12.9,0-25.8,0-38.7,0
		C98.3,125.8,98.3,134.7,98.3,143.7z"/>
	<path d="M134.6,195.7c4.8,4.8,9.4,9.4,14.2,14.2c-2.3,1.3-4.6,2.7-7,4c-0.8,0.5-1.2,1-1.1,2c0.3,12.3,0.6,24.5,1,36.8
		c0.1,2,0.2,3.9,0.2,5.9c0,0.3-0.2,0.9-0.5,1c-4.9,1.9-9.7,3.8-14.8,5.7c0-3.2,0-6.2,0-9.3c-7.5,0-14.8,0-22.3,0c0,1.6,0,3.3,0,4.9
		c0,0.4-0.3,1-0.6,1.1c-4.8,2.3-9.7,4.5-14.7,6.8c1.6-24,1.3-47.8,0-71.8c0.5,0.2,0.8,0.4,1.2,0.6c4.7,2.4,9.4,4.7,14.2,7
		c0.6,0.3,1.4,0.5,2,0.5c6,0,12,0,18,0c0.6,0,1.4-0.3,1.8-0.8C129,201.4,131.8,198.5,134.6,195.7z M104.2,212.2
		c0,12.2,0,24.3,0,36.4c7.4,0,14.8,0,22.2,0c0-12.1,0-24.2,0-36.4C119,212.2,111.6,212.2,104.2,212.2z"/>
	<path d="M53.5,81.3c20.1,0,39.9,0,59.8,0c1-14.7-5.7-26.1-15.3-36.5c0.8-0.8,1.5-1.4,2.2-2.1c0.2-0.1,0.5-0.2,0.7-0.1
		c8.8,4.3,17.5,8.8,24.5,15.9c3.1,3.1,5.1,6.8,5.1,11.4c-0.1,3.6-1.8,6.4-4.3,8.8c-0.9,0.9-1.9,1.6-3.1,2.6c0.5,0,0.9,0,1.2,0
		c8.6,0,17.1,0,25.7,0c0.6,0,1.3-0.3,1.7-0.7c4.1-4,8.1-8.1,12.3-12.2c6.3,6.7,12.5,13.3,19,20.2c-0.8,0-1.2,0-1.7,0
		c-30,0-60,0-90,0c-9,0-17.8,1-26.5,3.2c-0.4,0.1-1.2,0-1.5-0.3c-3.3-3.2-6.5-6.4-9.7-9.6C53.7,81.7,53.7,81.6,53.5,81.3z"/>
	<path class="st0" d="M98.3,143.7c0-8.9,0-17.8,0-26.8c12.9,0,25.8,0,38.7,0c0,8.9,0,17.8,0,26.8
		C124.1,143.7,111.2,143.7,98.3,143.7z"/>
	<path class="st0" d="M104.2,212.2c7.4,0,14.7,0,22.2,0c0,12.1,0,24.2,0,36.4c-7.4,0-14.7,0-22.2,0
		C104.2,236.5,104.2,224.4,104.2,212.2z"/>
</g>
</svg>
