<?xml version="1.0" encoding="utf-8"?>
<!-- Generator: Adobe Illustrator 20.1.0, SVG Export Plug-In . SVG Version: 6.00 Build 0)  -->
<svg version="1.1" id="图层_1" xmlns="http://www.w3.org/2000/svg" xmlns:xlink="http://www.w3.org/1999/xlink" x="0px" y="0px"
	 viewBox="0 0 360 360" style="enable-background:new 0 0 360 360;" xml:space="preserve">
<style type="text/css">
	.st0{fill:#FFFFFF;}
</style>
<g>
	<path class="st0" d="M0.2,360.5c0-120.1,0-240.2,0-360.2c120.1,0,240.2,0,360.2,0c0,120.1,0,240.2,0,360.2
		C240.4,360.5,120.3,360.5,0.2,360.5z M154.8,176.9c0,0.7,0,1.2,0,1.7c0,33,0,65.9,0,98.9c0,2.1,0.2,4.3,0,6.3
		c-0.5,4.9-2.6,5.7-5.8,5.6c-5.1-0.1-10.2-0.2-15.3-0.4c-1.9-0.1-3.9-0.2-5.9-0.3c0,1.7,0,3.2,0,4.6c3.1,1,6.1,1.7,9,2.9
		c2.7,1.1,5.3,2.6,7.7,4.3c3.2,2.2,5.1,5.4,5.6,9.5c4.1-1.5,7.9-3.3,11.1-6.2c4.4-3.9,6.6-8.7,6.6-14.6c0-35.8,0-71.6,0-107.4
		c0-1.1,0.3-1.8,1.2-2.5c2.8-2.3,5.5-4.8,8.3-7.2c-5.6-4.4-11-8.7-16.5-13c-0.3,0.3-0.5,0.6-0.8,1c-2.3,2.9-4.6,5.9-6.8,8.8
		c-0.5,0.6-0.9,0.8-1.7,0.8c-25.3,0-50.6,0-75.8,0c-0.6,0-1.2-0.1-1.7-0.4c-4.5-2-9-4.1-13.5-6.2c-0.3-0.1-0.6-0.2-1-0.4
		c1.6,48.3,1.5,96.5,0,144.8c0.4-0.2,0.7-0.4,1-0.6c4.4-2.7,8.8-5.4,13.2-8.1c0.9-0.5,1.1-1.1,1.1-2.1c0-39.5,0-79,0-118.4
		c0-0.5,0-1,0-1.5C101.4,176.9,128,176.9,154.8,176.9z M153.6,147.4c-0.2-2.5-0.4-4.9-0.4-7.4c-0.3-9.6-0.5-19.3-0.7-28.9
		c-0.1-3.8-0.1-3.8,3-5.9c1.7-1.2,3.5-2.5,5.3-3.8c-6-4.4-11.8-8.7-17.8-13c-2.6,3.7-5.1,7.3-7.6,10.9c-0.5,0.7-1,1-1.9,1
		c-13.4,0-26.7,0-40.1,0c-0.7,0-1.5-0.2-2.2-0.5c-4.8-2.3-9.5-4.7-14.3-7.1c-0.3-0.2-0.7-0.3-1.2-0.6c1.5,21.2,1.5,42.3,0,63.5
		c0.2-0.1,0.4-0.1,0.5-0.1c4.7-2.2,9.4-4.3,14.1-6.6c0.3-0.2,0.6-0.7,0.6-1.1c0.1-1.3,0-2.5,0-3.9c15.7,0,31.4,0,47.1,0
		c0,3.1,0,6.2,0,9.4C143.4,151.3,148.5,149.3,153.6,147.4z M128.9,183.9c-0.5,2.1-0.8,4.1-1.3,6.1c-2.8,11.2-7.5,21.7-12.5,32.1
		c-0.3,0.7-0.8,0.7-1.4,0.7c-11.7,0-23.4,0-35.2,0c-0.4,0-0.8,0-1.3,0c0.1,0.2,0.1,0.3,0.1,0.4c3.3,3.3,6.5,6.6,9.9,9.8
		c0.2,0.2,0.9,0.3,1.2,0.2c4-1.4,8.1-2.4,12.4-2.8c2.2-0.2,4.5-0.3,7.1-0.5c-0.3,19.8-0.7,39.3-1,58.8c4.5-2.1,9.1-4.2,13.8-6.3
		c0.9-0.4,1.2-0.9,1.1-1.9c-0.4-7.4-0.8-14.8-0.9-22.2c-0.2-9-0.1-17.9-0.2-26.9c0-0.5,0-0.9,0-1.6c11,0,21.9,0,33,0
		c-4.5-5.3-8.7-10.3-13.1-15.4c-2.6,2.6-5.1,5.1-7.6,7.6c-0.4,0.4-1.1,0.7-1.6,0.7c-2.8,0.1-5.7,0-8.5,0c-0.7,0-1.3,0-2.1,0
		c0.2-0.3,0.3-0.5,0.4-0.6c4.5-5.6,8.9-11.3,13.6-16.8c3.5-4.1,7.2-8.1,12.8-9.9C141.3,191.6,135.1,187.8,128.9,183.9z M159.5,57.8
		c-0.4,0.4-0.7,0.7-1,1c-2.9,3.2-5.8,6.5-8.7,9.7c-0.7,0.8-1.4,1.1-2.5,1.1c-30,0-60,0-90,0c-0.5,0-0.9,0-1.6,0
		c3.6,3.6,6.9,7,10.3,10.3c0.2,0.2,0.7,0.2,1.1,0.1c9.7-2.5,19.5-3.4,29.4-3.4c26.3,0,52.6,0,78.9,0c0.5,0,0.9,0,1.7,0
		C171.2,70.2,165.3,64,159.5,57.8z M82.9,188.6c0.8,1.2,1.7,2.3,2.5,3.4c5,6.7,8.8,13.9,10.3,22.2c0.2,1.1,0.5,2.2,0.9,3.2
		c0.7,1.7,2.2,2.5,3.9,2.1c3.4-0.7,6-2.6,6.9-6.1c1.3-4.9,0.4-9.3-3-13.2c-2.9-3.4-6.4-6.1-10.1-8.6c-2.9-1.9-5.9-3.7-8.9-5.5
		C84.4,187,83.7,187.7,82.9,188.6z"/>
	<path d="M154.8,176.9c-26.8,0-53.4,0-80.1,0c0,0.5,0,1,0,1.5c0,39.5,0,79,0,118.4c0,1-0.3,1.6-1.1,2.1c-4.4,2.6-8.8,5.4-13.2,8.1
		c-0.3,0.2-0.6,0.3-1,0.6c1.5-48.3,1.6-96.5,0-144.8c0.3,0.1,0.7,0.2,1,0.4c4.5,2.1,9,4.2,13.5,6.2c0.5,0.2,1.1,0.4,1.7,0.4
		c25.3,0,50.6,0,75.8,0c0.8,0,1.2-0.2,1.7-0.8c2.3-3,4.5-5.9,6.8-8.8c0.2-0.3,0.5-0.6,0.8-1c5.5,4.3,11,8.6,16.5,13
		c-2.8,2.5-5.5,4.9-8.3,7.2c-0.8,0.7-1.2,1.4-1.2,2.5c0,35.8,0,71.6,0,107.4c0,5.9-2.2,10.7-6.6,14.6c-3.2,2.8-7,4.7-11.1,6.2
		c-0.5-4-2.4-7.3-5.6-9.5c-2.4-1.7-5-3.1-7.7-4.3c-2.9-1.2-5.9-1.9-9-2.9c0-1.4,0-2.9,0-4.6c2,0.1,3.9,0.3,5.9,0.3
		c5.1,0.1,10.2,0.3,15.3,0.4c3.2,0,5.3-0.8,5.8-5.6c0.2-2.1,0-4.2,0-6.3c0-33,0-65.9,0-98.9C154.8,178.1,154.8,177.5,154.8,176.9z"
		/>
	<path d="M153.6,147.4c-5.1,2-10.1,3.9-15.3,5.9c0-3.2,0-6.3,0-9.4c-15.7,0-31.3,0-47.1,0c0,1.3,0,2.6,0,3.9c0,0.4-0.3,0.9-0.6,1.1
		c-4.7,2.2-9.4,4.4-14.1,6.6c-0.1,0.1-0.3,0.1-0.5,0.1c1.5-21.2,1.5-42.3,0-63.5c0.5,0.2,0.8,0.4,1.2,0.6c4.8,2.4,9.5,4.8,14.3,7.1
		c0.7,0.3,1.4,0.5,2.2,0.5c13.4,0,26.7,0,40.1,0c0.9,0,1.4-0.3,1.9-1c2.5-3.6,5-7.1,7.6-10.9c5.9,4.3,11.8,8.6,17.8,13
		c-1.8,1.3-3.6,2.6-5.3,3.8c-3.1,2.2-3.1,2.2-3,5.9c0.2,9.6,0.5,19.3,0.7,28.9C153.2,142.5,153.4,144.9,153.6,147.4z M91.2,136.7
		c15.7,0,31.3,0,47,0c0-9.8,0-19.5,0-29.3c-15.7,0-31.3,0-47,0C91.2,117.2,91.2,126.9,91.2,136.7z"/>
	<path d="M128.9,183.9c6.2,3.9,12.4,7.7,18.6,11.6c-5.5,1.8-9.2,5.8-12.8,9.9c-4.7,5.4-9.1,11.2-13.6,16.8c-0.1,0.1-0.2,0.3-0.4,0.6
		c0.8,0,1.4,0,2.1,0c2.8,0,5.7,0,8.5,0c0.6,0,1.2-0.3,1.6-0.7c2.5-2.4,5-5,7.6-7.6c4.3,5.1,8.6,10.2,13.1,15.4c-11.1,0-22,0-33,0
		c0,0.6,0,1.1,0,1.6c0.1,9,0,17.9,0.2,26.9c0.2,7.4,0.6,14.8,0.9,22.2c0,1-0.2,1.4-1.1,1.9c-4.7,2.1-9.3,4.2-13.8,6.3
		c0.3-19.5,0.7-39,1-58.8c-2.6,0.2-4.8,0.2-7.1,0.5c-4.2,0.5-8.3,1.4-12.4,2.8c-0.4,0.1-1,0.1-1.2-0.2c-3.3-3.2-6.6-6.5-9.9-9.8
		c0,0-0.1-0.1-0.1-0.4c0.5,0,0.9,0,1.3,0c11.7,0,23.4,0,35.2,0c0.6,0,1.1,0,1.4-0.7c5.1-10.3,9.7-20.8,12.5-32.1
		C128,188,128.4,186,128.9,183.9z"/>
	<path d="M159.5,57.8c5.9,6.2,11.7,12.4,17.7,18.9c-0.8,0-1.2,0-1.7,0c-26.3,0-52.6,0-78.9,0c-9.9,0-19.8,0.8-29.4,3.4
		c-0.3,0.1-0.9,0.1-1.1-0.1c-3.4-3.3-6.7-6.7-10.3-10.3c0.7,0,1.2,0,1.6,0c30,0,60,0,90,0c1.1,0,1.8-0.3,2.5-1.1
		c2.9-3.3,5.8-6.5,8.7-9.7C158.8,58.5,159.1,58.2,159.5,57.8z"/>
	<path d="M82.9,188.6c0.8-0.9,1.6-1.6,2.4-2.5c3,1.8,6,3.6,8.9,5.5c3.7,2.4,7.2,5.2,10.1,8.6c3.4,3.9,4.2,8.3,3,13.2
		c-0.9,3.5-3.5,5.3-6.9,6.1c-1.7,0.4-3.2-0.4-3.9-2.1c-0.4-1-0.7-2.1-0.9-3.2c-1.4-8.3-5.3-15.5-10.3-22.2
		C84.5,190.9,83.7,189.8,82.9,188.6z"/>
	<path class="st0" d="M91.2,136.7c0-9.8,0-19.5,0-29.3c15.7,0,31.3,0,47,0c0,9.8,0,19.5,0,29.3C122.6,136.7,107,136.7,91.2,136.7z"
		/>
</g>
</svg>
