<?xml version="1.0" encoding="utf-8"?>
<!-- Generator: Adobe Illustrator 20.1.0, SVG Export Plug-In . SVG Version: 6.00 Build 0)  -->
<svg version="1.1" id="图层_1" xmlns="http://www.w3.org/2000/svg" xmlns:xlink="http://www.w3.org/1999/xlink" x="0px" y="0px"
	 viewBox="0 0 360 360" style="enable-background:new 0 0 360 360;" xml:space="preserve">
<style type="text/css">
	.st0{fill:#FFFFFF;}
</style>
<g>
	<path class="st0" d="M0.2,360.5c0-120.1,0-240.2,0-360.2c120.1,0,240.2,0,360.2,0c0,120.1,0,240.2,0,360.2
		C240.4,360.5,120.3,360.5,0.2,360.5z M106.5,314.7c5.2-2.6,10.2-5.2,15.3-7.6c0.9-0.4,1.2-0.9,1.2-1.9c0-21.8,0-43.7,0-65.5
		c0-0.5,0-1,0-1.5c11.8,0,23.5,0,35.2,0c-0.2,0.4-0.3,0.7-0.5,1c-0.7,0.9-0.5,1.5,0.4,2.3c1.7,1.5,3.3,3.1,4.9,4.8
		c4.5,4.7,8.7,9.7,11.1,16c0.3,0.7,0.7,1.4,1.2,2.1c1.5,2,3.2,2.2,5.1,0.5c2-1.8,3.3-4,4.2-6.5c1.2-3.5,0.4-6.7-2.3-9.2
		c-1.3-1.1-2.7-2.2-4.2-3c-5.7-3.3-11.8-5.4-18-7.5c-0.3-0.1-0.6-0.2-1.1-0.4c19.9,0,39.5,0,59.2,0c-0.5,1.7-0.8,3.3-1.4,4.8
		c-2.7,8.1-6.7,15.6-10.7,23.1c-0.5,1-1.1,1.4-2.3,1.4c-22.9,0-45.8,0-68.6,0c-0.5,0-1,0-1.8,0c3.6,3.6,7,7,10.3,10.3
		c0.2,0.2,0.8,0.2,1.2,0.2c2.6-0.5,5.1-1.2,7.7-1.7c11.4-2.1,23-1.6,34.6-1.7c0.1,0,0.2,0.1,0.7,0.2c-0.4,12-0.8,24.1-1.1,36.3
		c5.8-1.5,11.6-3.1,17.4-4.6c-0.3-5.4-0.7-10.6-0.8-15.9c-0.1-5.3,0-10.6,0-16c20.6,0,41.3,0,62.2,0c-5.6-6-11-11.8-16.5-17.7
		c-3.7,3.4-7.3,6.6-11,9.9c-0.5,0.4-1.3,0.7-1.9,0.7c-7.4,0.1-14.7,0-22.1,0c-0.4,0-0.7-0.1-1.3-0.1c0.3-0.3,0.4-0.5,0.5-0.6
		c4.3-3.9,8.6-7.8,13-11.5c3-2.5,6.3-4.7,10.1-5.9c0.9-0.3,1.9-0.5,3.1-0.8c-6.2-3.5-12.3-6.9-18.7-10.4c17.1,0,33.8,0,50.6,0
		c0,0.5,0,0.9,0,1.3c0,16.3,0,32.6,0,48.8c0,1.4-0.2,2.9-0.6,4.2c-0.6,2.3-2,3.9-4.5,4.3c-0.9,0.2-1.8,0.1-2.8,0.1
		c-7.9-0.6-15.8-1.2-23.7-1.8c-1.6-0.1-3.2-0.3-5-0.4c0,1.4,0,2.6,0,3.9c0,0.7,0.2,1,0.9,1.1c1.5,0.3,2.9,0.7,4.4,1.1
		c6.1,1.7,12.1,3.6,17.6,6.9c3.7,2.2,6.9,4.8,7.8,9.4c4.8-1.4,9.4-3.1,13.4-5.9c5.2-3.7,7.8-8.7,7.8-15.2c-0.1-18.1,0-36.2,0-54.2
		c0-0.9,0.3-1.4,1-2c2.8-2,5.6-4.2,8.5-6.3c-6.7-4.8-13.4-9.4-20.1-14.2c-0.3,0.5-0.7,0.9-0.9,1.3c-2.2,3.2-4.5,6.3-6.7,9.5
		c-0.5,0.7-1,0.9-1.8,0.9c-47.2,0-94.4,0-141.6,0c-0.7,0-1.4-0.2-2-0.5c-3.1-1.6-6.1-3.3-9.2-4.9c-2.4-1.3-4.8-2.6-7.4-3.9
		C107.9,252.7,108,283.6,106.5,314.7z M247.8,172c-2.6,2.9-5.1,5.8-7.5,8.6c-0.5,0.6-1,0.9-1.8,0.9c-28,0-56,0-84,0
		c-0.6,0-1.2-0.1-1.7-0.4c-5.1-2.2-10.2-4.4-15.3-6.7c-0.9-0.4-1.8-0.8-2.9-1.2c1.6,17,1.6,33.8,0,50.8c4.8-1.7,9.4-3.4,14-5
		c2.4-0.9,2.4-0.9,2.7-3.2c30.2,0,60.3,0,90.6,0c0,2.3,0,4.6,0,7c5.2-2,10.2-3.9,15.3-5.9c0-0.3,0-0.4,0-0.6
		c-0.4-8.1-0.8-16.2-1.2-24.3c0-0.8,0.3-1.2,1-1.5c2.2-1,4.4-2.2,6.5-3.3c0.6-0.3,1.2-0.6,2-1C259.5,181.4,253.7,176.8,247.8,172z
		 M275.9,152.2c-0.2,0.1-0.5,0.4-0.8,0.6c-3.7,3-7.3,5.9-10.9,9c-0.8,0.7-1.6,0.9-2.6,0.9c-53.9,0-107.8,0-161.6,0c-0.5,0-1,0-1.5,0
		c0.1,0.2,0.1,0.3,0.1,0.4c3.3,3.3,6.5,6.6,9.8,9.8c0.2,0.2,0.8,0.3,1.2,0.2c9.3-2.4,18.7-3.3,28.3-3.3c51.4,0,102.8,0,154.2,0
		c0.5,0,1,0,1.4,0C287.6,163.9,281.8,158.1,275.9,152.2z"/>
	<path d="M106.5,314.7c1.6-31.1,1.4-62,0-93.1c2.6,1.4,5,2.7,7.4,3.9c3.1,1.6,6.1,3.3,9.2,4.9c0.6,0.3,1.4,0.5,2,0.5
		c47.2,0,94.4,0,141.6,0c0.8,0,1.3-0.2,1.8-0.9c2.2-3.2,4.4-6.4,6.7-9.5c0.3-0.4,0.6-0.8,0.9-1.3c6.7,4.7,13.4,9.4,20.1,14.2
		c-2.9,2.2-5.6,4.3-8.5,6.3c-0.7,0.5-1,1.1-1,2c0,18.1,0,36.2,0,54.2c0,6.5-2.6,11.5-7.8,15.2c-4.1,2.9-8.6,4.6-13.4,5.9
		c-0.9-4.6-4.2-7.2-7.8-9.4c-5.5-3.3-11.5-5.2-17.6-6.9c-1.5-0.4-2.9-0.8-4.4-1.1c-0.7-0.1-0.9-0.4-0.9-1.1c0-1.2,0-2.5,0-3.9
		c1.7,0.2,3.3,0.3,5,0.4c7.9,0.6,15.8,1.2,23.7,1.8c0.9,0.1,1.9,0.1,2.8-0.1c2.4-0.4,3.9-2,4.5-4.3c0.4-1.4,0.6-2.8,0.6-4.2
		c0-16.3,0-32.6,0-48.8c0-0.4,0-0.8,0-1.3c-16.8,0-33.5,0-50.6,0c6.3,3.5,12.4,6.9,18.7,10.4c-1.1,0.3-2.1,0.5-3.1,0.8
		c-3.8,1.3-7.1,3.4-10.1,5.9c-4.4,3.7-8.7,7.7-13,11.5c-0.1,0.1-0.3,0.3-0.5,0.6c0.5,0,0.9,0.1,1.3,0.1c7.4,0,14.7,0,22.1,0
		c0.6,0,1.4-0.3,1.9-0.7c3.7-3.2,7.3-6.5,11-9.9c5.5,5.9,10.9,11.7,16.5,17.7c-20.9,0-41.6,0-62.2,0c0,5.4-0.1,10.7,0,16
		c0.1,5.3,0.5,10.5,0.8,15.9c-5.8,1.5-11.6,3.1-17.4,4.6c0.4-12.2,0.8-24.3,1.1-36.3c-0.5-0.1-0.6-0.2-0.7-0.2
		c-11.5,0-23.1-0.5-34.6,1.7c-2.6,0.5-5.1,1.1-7.7,1.7c-0.4,0.1-0.9,0.1-1.2-0.2c-3.4-3.3-6.7-6.6-10.3-10.3c0.8,0,1.3,0,1.8,0
		c22.9,0,45.8,0,68.6,0c1.2,0,1.8-0.4,2.3-1.4c4-7.5,8-15,10.7-23.1c0.5-1.5,0.9-3.1,1.4-4.8c-19.8,0-39.4,0-59.2,0
		c0.5,0.2,0.8,0.3,1.1,0.4c6.2,2.1,12.3,4.2,18,7.5c1.5,0.9,2.9,1.9,4.2,3c2.8,2.5,3.6,5.6,2.3,9.2c-0.9,2.5-2.2,4.7-4.2,6.5
		c-1.9,1.7-3.6,1.5-5.1-0.5c-0.5-0.6-0.9-1.3-1.2-2.1c-2.4-6.2-6.6-11.2-11.1-16c-1.6-1.6-3.2-3.3-4.9-4.8c-0.9-0.8-1-1.4-0.4-2.3
		c0.2-0.2,0.3-0.6,0.5-1c-11.7,0-23.4,0-35.2,0c0,0.5,0,1,0,1.5c0,21.8,0,43.7,0,65.5c0,1-0.3,1.5-1.2,1.9
		C116.7,309.5,111.7,312.1,106.5,314.7z"/>
	<path d="M247.8,172c5.9,4.7,11.7,9.4,17.7,14.2c-0.7,0.4-1.3,0.7-2,1c-2.2,1.1-4.3,2.2-6.5,3.3c-0.7,0.3-1,0.7-1,1.5
		c0.4,8.1,0.8,16.2,1.2,24.3c0,0.2,0,0.3,0,0.6c-5,1.9-10.1,3.9-15.3,5.9c0-2.4,0-4.6,0-7c-30.3,0-60.4,0-90.6,0
		c-0.4,2.3-0.4,2.3-2.7,3.2c-4.6,1.6-9.2,3.3-14,5c1.6-17,1.6-33.8,0-50.8c1.1,0.5,2,0.8,2.9,1.2c5.1,2.2,10.2,4.5,15.3,6.7
		c0.5,0.2,1.1,0.4,1.7,0.4c28,0,56,0,84,0c0.8,0,1.3-0.3,1.8-0.9C242.7,177.8,245.2,175,247.8,172z M151.3,208.5
		c30.2,0,60.4,0,90.5,0c0-6.7,0-13.2,0-19.7c-30.2,0-60.4,0-90.5,0C151.3,195.4,151.3,201.9,151.3,208.5z"/>
	<path d="M275.9,152.2c5.9,5.9,11.7,11.7,17.5,17.5c-0.4,0-0.9,0-1.4,0c-51.4,0-102.8,0-154.2,0c-9.5,0-19,0.9-28.3,3.3
		c-0.4,0.1-0.9,0-1.2-0.2c-3.3-3.3-6.6-6.5-9.8-9.8c0,0-0.1-0.1-0.1-0.4c0.6,0,1,0,1.5,0c53.9,0,107.8,0,161.6,0
		c1,0,1.8-0.3,2.6-0.9c3.6-3,7.3-6,10.9-9C275.4,152.6,275.8,152.3,275.9,152.2z"/>
	<path class="st0" d="M151.3,208.5c0-6.6,0-13.1,0-19.7c30.2,0,60.3,0,90.5,0c0,6.5,0,13.1,0,19.7
		C211.7,208.5,181.5,208.5,151.3,208.5z"/>
</g>
</svg>
