<?xml version="1.0" encoding="utf-8"?>
<!-- Generator: Adobe Illustrator 20.1.0, SVG Export Plug-In . SVG Version: 6.00 Build 0)  -->
<svg version="1.1" id="图层_1" xmlns="http://www.w3.org/2000/svg" xmlns:xlink="http://www.w3.org/1999/xlink" x="0px" y="0px"
	 viewBox="0 0 360 360" style="enable-background:new 0 0 360 360;" xml:space="preserve">
<style type="text/css">
	.st0{fill:#FFFFFF;}
</style>
<g>
	<path class="st0" d="M-0.1,360.1c0-120.1,0-240.2,0-360.2c120.1,0,240.2,0,360.2,0c0,120.1,0,240.2,0,360.2
		C240,360.1,120,360.1-0.1,360.1z M291.1,105.8c-6.1-6.5-11.9-12.7-17.9-19.1c-0.3,0.5-0.5,0.9-0.8,1.2c-3.3,3.3-6.6,6.7-10,10
		c-0.5,0.4-1.2,0.8-1.9,0.8c-7,0.1-14,0-21,0c-0.4,0-0.8,0-1.3-0.1c0-11.8,0-23.4,0-35.2c21.5,0,43,0,64.7,0
		c-6.8-7.2-13.4-14.2-20.1-21.2c-4.5,4.5-9,9-13.4,13.4c-0.5,0.5-1.1,0.8-1.9,0.8c-31.5,0-63,0-94.4,0c-0.6,0-1.3-0.2-1.8-0.4
		c-5.6-2.4-11.2-4.9-16.8-7.3c-0.4-0.2-0.8-0.3-1.2-0.5c1.4,50.7,1.5,101.3,0,151.9c5.7-1.1,11.2-2.3,16.8-3.3
		c0.7-0.1,0.8-0.5,0.8-1.1c0-1.6,0-3.2,0-5c39.7-0.8,79.3-1.6,119-2.4c0,0.5,0,0.8,0,1c-0.1,11.8-0.1,23.7-0.5,35.5
		c-0.4,11.6-1,23.2-1.8,34.7c-0.4,6.1-1.3,12.2-3.1,18c-2.6,8.9-8.3,13.2-17.2,12.5c-8.8-0.7-17.6-1.8-26.3-2.8
		c-2.9-0.3-5.8-0.8-8.8-1.3c0,2,0,3.9,0,5.8c0.1,0.1,0.2,0.1,0.3,0.2c0.3,0.1,0.6,0.2,0.9,0.2c7.5,1.8,14.8,3.9,21.8,7.2
		c5.1,2.4,9.8,5.3,13.4,9.8c1.7,2.2,2.9,4.6,3.7,7.6c3.3-1.7,6.6-3.2,9.7-5.1c8.1-4.7,14.4-11.1,17.9-20c3-7.6,4.6-15.5,5.1-23.6
		c0.3-6.1,0.3-12.3,0.4-18.5c0.1-4.9,0.1-9.8,0.2-14.8c0.3-12.9,0.6-25.8,0.9-38.7c0-0.7,0.2-1.2,0.8-1.6c1.1-0.8,2.1-1.6,3.1-2.4
		c2.2-1.7,4.5-3.5,6.8-5.3c-6.4-5.6-12.6-11-18.9-16.5c-3.4,3.8-6.6,7.4-9.9,11c-0.4,0.4-1,0.8-1.5,0.8c-7.9,0.2-15.7,0.4-23.6,0.6
		c-6.4,0.2-12.8,0.3-19.2,0.5c-1.9,0-3.8,0-5.8,0c0-11.7,0-23.4,0-35.2c17.6,0,35.1,0,52.9,0c-6-6.4-11.8-12.6-17.7-18.9
		c-0.3,0.3-0.6,0.5-0.8,0.7c-3.8,3.4-7.6,6.9-11.4,10.3c-0.5,0.4-1.2,0.7-1.9,0.7c-6.6,0.1-13.3,0-19.9,0c-0.4,0-0.8,0-1.2,0
		c0-11.9,0-23.5,0-35.3C255.8,105.8,273.3,105.8,291.1,105.8z M158,216.5c-1.2,0-2.3,0.1-3.3,0c-1.1-0.1-1.6,0.2-1.9,1.4
		c-1.9,6.4-4.3,12.6-7.4,18.5c-3.5,6.7-7.8,12.6-14.1,17.1c-2.4,1.7-4.4,4-6.4,6.2c-1.2,1.3-1.8,2.9-1.9,4.7c-0.1,3.3,2.5,7,6.1,8.1
		c5.9,1.8,11.2,0.6,15.6-3.8c5-4.9,8-11,9.8-17.7C157.4,239.8,157.9,228.3,158,216.5z M239.2,209.3c2.6,4.2,5.2,8.1,7.7,12.1
		c4.8,8,9,16.2,11.2,25.4c0.5,2.1,1.6,4.2,2.8,6c1.3,2,3.4,2.6,5.7,1.9c5.4-1.7,9.5-5.8,9.2-12.6c-0.4-6.8-3.1-12.6-7.8-17.5
		c-7.2-7.5-16-12.9-24.7-18.5c-0.2-0.1-0.8-0.1-1,0.1C241.2,207.3,240.2,208.3,239.2,209.3z M175.6,217.6c0.9,4.1,1.9,8.1,2.7,12
		c0.8,4,1.5,8,2.2,12c0.9,6.2,1.4,12.4,1,18.6c-0.2,2.2,0,4.4,0.4,6.5c0.6,3.1,2.9,4.4,6,3.6c7.6-1.7,11.9-7.6,11.5-15.4
		c-0.3-6-2-11.5-4.6-16.7c-3.9-8-9.2-15.1-14.8-21.9c-0.3-0.4-0.7-0.8-1-1.2C177.9,216.1,176.7,216.9,175.6,217.6z M206.2,214.1
		c1.3,3.2,2.6,6.2,3.8,9.3c3.5,8.7,7,17.4,9.3,26.5c0.7,2.7,1,5.4,1.6,8.1c1,4,3.7,5.2,7.5,3.4c6.3-3,8.6-8.9,7.7-15.7
		c-0.7-5.4-3.2-10.1-6.7-14.3c-3.5-4.2-7.3-8.3-11.2-12.2c-2.7-2.7-5.6-5.1-8.5-7.6C208.6,212.5,207.4,213.3,206.2,214.1z"/>
	<path d="M291.1,105.8c-17.8,0-35.3,0-52.9,0c0,11.8,0,23.4,0,35.3c0.4,0,0.8,0,1.2,0c6.6,0,13.3,0,19.9,0c0.6,0,1.4-0.3,1.9-0.7
		c3.8-3.4,7.6-6.9,11.4-10.3c0.2-0.2,0.5-0.4,0.8-0.7c5.9,6.2,11.7,12.5,17.7,18.9c-17.8,0-35.3,0-52.9,0c0,11.8,0,23.5,0,35.2
		c2,0,3.9,0,5.8,0c6.4-0.1,12.8-0.3,19.2-0.5c7.9-0.2,15.7-0.4,23.6-0.6c0.5,0,1.1-0.4,1.5-0.8c3.3-3.6,6.5-7.2,9.9-11
		c6.3,5.5,12.6,11,18.9,16.5c-2.3,1.8-4.5,3.6-6.8,5.3c-1,0.8-2.1,1.7-3.1,2.4c-0.6,0.4-0.7,0.9-0.8,1.6
		c-0.3,12.9-0.6,25.8-0.9,38.7c-0.1,4.9-0.1,9.8-0.2,14.8c-0.1,6.2-0.1,12.3-0.4,18.5c-0.4,8.1-2.1,16-5.1,23.6
		c-3.5,8.9-9.8,15.2-17.9,20c-3.1,1.8-6.3,3.3-9.7,5.1c-0.7-3-1.9-5.4-3.7-7.6c-3.6-4.5-8.3-7.4-13.4-9.8c-7-3.3-14.3-5.4-21.8-7.2
		c-0.3-0.1-0.6-0.1-0.9-0.2c-0.1,0-0.2-0.1-0.3-0.2c0-1.9,0-3.8,0-5.8c3,0.4,5.9,0.9,8.8,1.3c8.8,1,17.5,2.2,26.3,2.8
		c8.9,0.7,14.6-3.7,17.2-12.5c1.7-5.9,2.7-11.9,3.1-18c0.8-11.6,1.4-23.1,1.8-34.7c0.4-11.8,0.3-23.7,0.5-35.5c0-0.3,0-0.6,0-1
		c-39.6,0.8-79.2,1.6-119,2.4c0,1.8,0,3.4,0,5c0,0.6-0.1,0.9-0.8,1.1c-5.6,1.1-11.1,2.2-16.8,3.3c1.5-50.6,1.4-101.2,0-151.9
		c0.4,0.2,0.8,0.3,1.2,0.5c5.6,2.4,11.2,4.9,16.8,7.3c0.6,0.2,1.2,0.4,1.8,0.4c31.5,0,63,0,94.4,0c0.8,0,1.3-0.3,1.9-0.8
		c4.4-4.5,8.9-8.9,13.4-13.4c6.7,7,13.3,14,20.1,21.2c-21.7,0-43.2,0-64.7,0c0,11.8,0,23.5,0,35.2c0.4,0,0.9,0.1,1.3,0.1
		c7,0,14,0,21,0c0.6,0,1.4-0.3,1.9-0.8c3.4-3.3,6.7-6.6,10-10c0.3-0.3,0.5-0.7,0.8-1.2C279.2,93.1,285.1,99.3,291.1,105.8z
		 M170.9,184.7c16.9-0.4,33.7-0.8,50.5-1.2c0-11.8,0-23.5,0-35.2c-16.9,0-33.6,0-50.5,0C170.9,160.4,170.9,172.5,170.9,184.7z
		 M221.4,141c0-11.8,0-23.4,0-35.2c-16.9,0-33.6,0-50.4,0c0,11.8,0,23.4,0,35.2C187.8,141,204.6,141,221.4,141z M221.4,98.6
		c0-11.8,0-23.5,0-35.1c-16.9,0-33.7,0-50.4,0c0,11.8,0,23.4,0,35.1C187.8,98.6,204.5,98.6,221.4,98.6z"/>
	<path d="M158,216.5c-0.1,11.8-0.5,23.3-3.6,34.5c-1.8,6.7-4.8,12.8-9.8,17.7c-4.4,4.3-9.7,5.6-15.6,3.8c-3.6-1.1-6.2-4.8-6.1-8.1
		c0.1-1.8,0.7-3.4,1.9-4.7c2-2.2,4-4.5,6.4-6.2c6.3-4.5,10.6-10.4,14.1-17.1c3.1-5.9,5.5-12.2,7.4-18.5c0.3-1.1,0.8-1.4,1.9-1.4
		C155.7,216.5,156.8,216.5,158,216.5z"/>
	<path d="M239.2,209.3c1-1,2-2,3.1-3c0.2-0.2,0.8-0.2,1-0.1c8.7,5.6,17.4,11,24.7,18.5c4.7,4.8,7.4,10.7,7.8,17.5
		c0.4,6.8-3.8,10.9-9.2,12.6c-2.3,0.7-4.4,0.1-5.7-1.9c-1.2-1.8-2.4-3.9-2.8-6c-2.1-9.2-6.4-17.4-11.2-25.4
		C244.4,217.4,241.8,213.5,239.2,209.3z"/>
	<path d="M175.6,217.6c1.1-0.8,2.3-1.5,3.5-2.3c0.4,0.4,0.7,0.8,1,1.2c5.6,6.9,10.9,13.9,14.8,21.9c2.6,5.3,4.3,10.8,4.6,16.7
		c0.4,7.8-3.9,13.6-11.5,15.4c-3.1,0.7-5.4-0.5-6-3.6c-0.4-2.1-0.6-4.4-0.4-6.5c0.5-6.3,0-12.5-1-18.6c-0.6-4-1.3-8-2.2-12
		C177.5,225.7,176.5,221.7,175.6,217.6z"/>
	<path d="M206.2,214.1c1.2-0.8,2.4-1.6,3.6-2.4c2.8,2.5,5.8,4.9,8.5,7.6c3.9,3.9,7.6,8,11.2,12.2c3.4,4.1,6,8.8,6.7,14.3
		c0.9,6.8-1.4,12.7-7.7,15.7c-3.8,1.8-6.4,0.7-7.5-3.4c-0.7-2.7-0.9-5.4-1.6-8.1c-2.3-9.1-5.8-17.8-9.3-26.5
		C208.8,220.3,207.5,217.3,206.2,214.1z"/>
	<path class="st0" d="M170.9,184.7c0-12.2,0-24.3,0-36.4c16.8,0,33.6,0,50.5,0c0,11.7,0,23.4,0,35.2
		C204.7,183.9,187.9,184.3,170.9,184.7z"/>
	<path class="st0" d="M221.4,141c-16.8,0-33.6,0-50.4,0c0-11.7,0-23.4,0-35.2c16.8,0,33.6,0,50.4,0
		C221.4,117.5,221.4,129.2,221.4,141z"/>
	<path class="st0" d="M221.4,98.6c-16.9,0-33.6,0-50.4,0c0-11.7,0-23.4,0-35.1c16.8,0,33.5,0,50.4,0
		C221.4,75.1,221.4,86.8,221.4,98.6z"/>
</g>
</svg>
