<?xml version="1.0" encoding="utf-8"?>
<!-- Generator: Adobe Illustrator 20.1.0, SVG Export Plug-In . SVG Version: 6.00 Build 0)  -->
<svg version="1.1" id="图层_1" xmlns="http://www.w3.org/2000/svg" xmlns:xlink="http://www.w3.org/1999/xlink" x="0px" y="0px"
	 viewBox="0 0 360 360" style="enable-background:new 0 0 360 360;" xml:space="preserve">
<style type="text/css">
	.st0{fill:#FFFFFF;}
</style>
<g>
	<path class="st0" d="M0.2,360.5c0-120.1,0-240.2,0-360.2c120.1,0,240.2,0,360.2,0c0,120.1,0,240.2,0,360.2
		C240.4,360.5,120.3,360.5,0.2,360.5z M274.9,40.1c-4.2,3.8-8.2,7.5-12.3,11.1c-0.4,0.4-1.1,0.6-1.7,0.6c-50.8,0-101.6,0-152.4,0
		c-0.6,0-1.3-0.1-1.8-0.4c-6.4-2.8-12.7-5.6-19.1-8.5c-0.4-0.2-0.8-0.3-1.3-0.5c1.7,34.6,1.5,69.1,0,103.7c5.6-1.2,11-2.4,16.6-3.6
		c0-2.8,0-5.5,0-8.2c60.5-0.8,120.8-1.6,181.3-2.4c0,0.5,0,1,0,1.4c-0.4,8-0.8,16-1.3,23.9c-0.4,6.2-1.2,12.4-2.6,18.5
		c-1.6,6.7-5.7,11.1-12.6,12.2c-3.4,0.5-7,0.5-10.5,0.4c-8.9-0.4-17.8-1-26.7-1.6c-2.5-0.2-4.9-0.4-7.4-0.6c0,1.6,0,3.2,0,4.7
		c0.4,0,0.6,0.1,0.9,0.1c6.1,1,12.3,1.7,18.3,2.9c5.4,1.1,10.6,3,15.2,6.2c3.1,2.2,5.4,4.9,6.4,8.7c0.2,1,0.3,2.1,0.5,3.4
		c3.1-1.1,6.3-2.1,9.3-3.4c10.7-4.7,18.1-12.4,21.5-23.8c2.3-7.8,3.6-15.8,4.3-23.9c0.6-7,0.9-14.1,1.3-21.2c0-0.8,0.3-1.1,1-1.4
		c2.9-1.3,5.8-2.5,8.7-3.8c0.3-0.1,0.6-0.3,0.6-0.3c-6.3-6.3-12.5-12.5-18.8-18.8c-3.5,3.1-7.1,6.4-10.8,9.6
		c-0.5,0.4-1.2,0.7-1.8,0.7c-6.6,0.2-13.2,0.3-19.8,0.3c-12.8,0.2-25.6,0.3-38.4,0.5c-4.9,0.1-9.8,0.2-14.7,0.2c-4.3,0-8.7,0-13.1,0
		c0-5.8,0-11.6,0-17.5c29.8,0,59.5,0,89.4,0c-6.4-6-12.6-11.8-18.9-17.7c-3.3,3.3-6.5,6.5-9.7,9.8c-0.6,0.6-1.1,0.8-2,0.8
		c-19.2,0-38.4,0-57.6,0c-0.4,0-0.8,0-1.2,0c0-6.4,0-12.5,0-18.8c29.4,0,58.7,0,88,0c-5.9-5.9-11.7-11.7-17.6-17.6
		c-3.2,3.2-6.4,6.4-9.6,9.6c-0.6,0.6-1.2,0.9-2.1,0.9c-19.2,0-38.3,0-57.5,0c-0.4,0-0.9,0-1.3,0c0-5.9,0-11.7,0-17.6
		c32.9,0,65.8,0,98.9,0C286.6,52.6,280.8,46.4,274.9,40.1z M100.6,153.2c-1.4-0.4-2.6-0.6-3.8-1c-0.7-0.2-1.1-0.1-1.4,0.6
		c-0.6,1.4-1.3,2.7-2.1,4c-5.8,10.3-13.7,18.3-24.8,22.9c-3.6,1.5-7.1,3.4-10,6.1c-1.9,1.7-3.5,3.7-3,6.5c0.7,3.6,2.8,6.1,6.5,7.1
		c3,0.8,6.1,0.6,9-0.4c8.1-2.8,14.4-8.1,19-15.2C96.1,174.6,98.5,164,100.6,153.2z M119.5,153.3c0,0,0,0.1,0,0.2
		c0.3,0.4,0.6,0.8,0.9,1.2c3.1,4.1,5.5,8.5,7.5,13.2c2,4.9,2.9,10.1,3.9,15.3c0.6,3.1,1.4,6.2,3.3,8.9c1.2,1.6,2.7,2.3,4.7,1.8
		c4.7-1.1,7.6-4.4,9-8.7c2.1-6.4,0.6-12.4-3.5-17.7c-2.8-3.5-6.1-6.4-9.7-9c-4.1-3-8.2-5.9-12.3-8.8
		C121.8,150.9,120.7,152.1,119.5,153.3z M173.6,142.6c-0.6,0.9-1.1,1.8-1.7,2.5c-0.6,0.8-0.6,1.3,0.1,2.1c4,4.8,7.4,9.9,10.1,15.5
		c1.9,3.9,2.8,8,3.9,12.2c0.6,2.2,1.6,4.2,2.7,6.2c1,1.6,2.7,2.1,4.6,1.6c5.2-1.3,9.4-6.4,9.1-11.8c-0.3-5.5-2.4-10.4-6.5-14.2
		C189.5,150.5,181.6,146.5,173.6,142.6z M218.4,140.3c0.2,0.2,0.3,0.3,0.4,0.5c7.3,7.5,12.8,16,15.5,26.2c0.6,2.3,1.8,4.5,3,6.4
		c1.6,2.5,3.8,2.8,6.4,1.3c4.9-2.8,7.6-8.7,6.5-14.3c-0.9-5-3.9-8.7-7.7-11.7c-5.5-4.4-11.8-7.4-18.2-10.4c-1.2-0.6-2.6-1.6-3.6-1.3
		c-1,0.3-1.5,2-2.3,3.1C218.4,140.1,218.4,140.2,218.4,140.3z"/>
	<path d="M274.9,40.1c5.9,6.3,11.7,12.5,17.7,18.9c-33.1,0-65.9,0-98.9,0c0,5.9,0,11.7,0,17.6c0.5,0,0.9,0,1.3,0
		c19.2,0,38.3,0,57.5,0c0.9,0,1.5-0.3,2.1-0.9c3.2-3.3,6.4-6.5,9.6-9.6c5.9,5.9,11.7,11.7,17.6,17.6c-29.3,0-58.6,0-88,0
		c0,6.3,0,12.5,0,18.8c0.4,0,0.8,0,1.2,0c19.2,0,38.4,0,57.6,0c0.8,0,1.4-0.3,2-0.8c3.2-3.2,6.4-6.5,9.7-9.8
		c6.3,5.9,12.5,11.7,18.9,17.7c-30,0-59.7,0-89.4,0c0,5.9,0,11.7,0,17.5c4.4,0,8.7,0,13.1,0c4.9,0,9.8-0.2,14.7-0.2
		c12.8-0.2,25.6-0.3,38.4-0.5c6.6-0.1,13.2-0.2,19.8-0.3c0.6,0,1.3-0.3,1.8-0.7c3.7-3.2,7.3-6.5,10.8-9.6
		c6.3,6.3,12.5,12.5,18.8,18.8c0,0-0.3,0.2-0.6,0.3c-2.9,1.3-5.8,2.6-8.7,3.8c-0.7,0.3-0.9,0.6-1,1.4c-0.4,7.1-0.7,14.1-1.3,21.2
		c-0.7,8.1-2,16.1-4.3,23.9c-3.4,11.4-10.8,19.1-21.5,23.8c-3,1.3-6.1,2.2-9.3,3.4c-0.2-1.3-0.3-2.4-0.5-3.4
		c-0.9-3.8-3.3-6.5-6.4-8.7c-4.6-3.2-9.8-5.1-15.2-6.2c-6.1-1.2-12.2-2-18.3-2.9c-0.3,0-0.6-0.1-0.9-0.1c0-1.6,0-3.1,0-4.7
		c2.5,0.2,5,0.4,7.4,0.6c8.9,0.6,17.8,1.2,26.7,1.6c3.5,0.2,7.1,0.2,10.5-0.4c6.9-1.1,11-5.4,12.6-12.2c1.5-6.1,2.2-12.3,2.6-18.5
		c0.5-8,0.9-16,1.3-23.9c0-0.4,0-0.9,0-1.4c-60.5,0.8-120.8,1.6-181.3,2.4c0,2.8,0,5.5,0,8.2c-5.6,1.2-11,2.4-16.6,3.6
		c1.5-34.6,1.7-69.1,0-103.7c0.5,0.2,0.9,0.3,1.3,0.5c6.4,2.8,12.7,5.7,19.1,8.5c0.6,0.2,1.2,0.4,1.8,0.4c50.8,0,101.6,0,152.4,0
		c0.6,0,1.3-0.3,1.7-0.6C266.7,47.6,270.8,43.9,274.9,40.1z M178.2,83.8c-25.1,0-50.2,0-75.2,0c0,6.3,0,12.4,0,18.6
		c25.1,0,50.1,0,75.2,0C178.2,96.2,178.2,90,178.2,83.8z M103,128.5c25.1-0.4,50.1-0.8,75.2-1.2c0-5.9,0-11.7,0-17.5
		c-25.1,0-50.1,0-75.2,0C103,116,103,122.1,103,128.5z M178.2,59.1c-25.1,0-50.2,0-75.2,0c0,5.9,0,11.6,0,17.4c25.1,0,50.1,0,75.2,0
		C178.2,70.7,178.2,64.9,178.2,59.1z"/>
	<path d="M100.6,153.2c-2.1,10.8-4.5,21.4-10.6,30.6c-4.6,7.1-10.9,12.4-19,15.2c-2.9,1-6,1.2-9,0.4c-3.7-1-5.8-3.5-6.5-7.1
		c-0.5-2.7,1.1-4.7,3-6.5c2.9-2.7,6.4-4.6,10-6.1c11.1-4.5,19-12.6,24.8-22.9c0.7-1.3,1.4-2.7,2.1-4c0.3-0.7,0.7-0.8,1.4-0.6
		C98,152.6,99.2,152.9,100.6,153.2z"/>
	<path d="M119.5,153.3c1.2-1.2,2.3-2.4,3.6-3.7c4.1,2.9,8.3,5.8,12.3,8.8c3.6,2.6,6.9,5.5,9.7,9c4.2,5.3,5.6,11.2,3.5,17.7
		c-1.4,4.3-4.3,7.6-9,8.7c-2,0.5-3.5-0.1-4.7-1.8c-1.9-2.7-2.7-5.8-3.3-8.9c-1-5.2-1.9-10.4-3.9-15.3c-1.9-4.7-4.4-9.1-7.5-13.2
		c-0.3-0.4-0.6-0.8-0.9-1.2C119.5,153.4,119.5,153.3,119.5,153.3z"/>
	<path d="M173.6,142.6c8,4,15.9,7.9,22.4,14.1c4.1,3.9,6.2,8.7,6.5,14.2c0.3,5.3-3.9,10.5-9.1,11.8c-1.9,0.5-3.6,0-4.6-1.6
		c-1.1-1.9-2.2-4-2.7-6.2c-1.1-4.1-2-8.3-3.9-12.2c-2.7-5.6-6.2-10.7-10.1-15.5c-0.7-0.8-0.7-1.4-0.1-2.1
		C172.5,144.3,173,143.5,173.6,142.6z"/>
	<path d="M218.4,140.3c0-0.2,0-0.2,0.1-0.2c0.7-1.1,1.3-2.8,2.3-3.1c1-0.3,2.4,0.7,3.6,1.3c6.3,3,12.6,6,18.2,10.4
		c3.9,3,6.8,6.7,7.7,11.7c1.1,5.6-1.6,11.6-6.5,14.3c-2.6,1.4-4.8,1.1-6.4-1.3c-1.3-2-2.5-4.2-3-6.4c-2.7-10.2-8.2-18.7-15.5-26.2
		C218.7,140.6,218.6,140.5,218.4,140.3z"/>
	<path class="st0" d="M178.2,83.8c0,6.2,0,12.3,0,18.6c-25,0-50.1,0-75.2,0c0-6.1,0-12.3,0-18.6C128.1,83.8,153.1,83.8,178.2,83.8z"
		/>
	<path class="st0" d="M103,128.5c0-6.3,0-12.5,0-18.7c25.1,0,50.1,0,75.2,0c0,5.8,0,11.6,0,17.5C153.1,127.7,128.1,128.1,103,128.5z
		"/>
	<path class="st0" d="M178.2,59.1c0,5.8,0,11.5,0,17.4c-25,0-50.1,0-75.2,0c0-5.7,0-11.5,0-17.4C128.1,59.1,153.1,59.1,178.2,59.1z"
		/>
</g>
</svg>
