<?xml version="1.0" encoding="utf-8"?>
<!-- Generator: Adobe Illustrator 20.1.0, SVG Export Plug-In . SVG Version: 6.00 Build 0)  -->
<svg version="1.1" id="图层_1" xmlns="http://www.w3.org/2000/svg" xmlns:xlink="http://www.w3.org/1999/xlink" x="0px" y="0px"
	 viewBox="0 0 360 360" style="enable-background:new 0 0 360 360;" xml:space="preserve">
<style type="text/css">
	.st0{fill:#FFFFFF;}
</style>
<g>
	<path class="st0" d="M0.2,360.5c0-120.1,0-240.2,0-360.2c120.1,0,240.2,0,360.2,0c0,120.1,0,240.2,0,360.2
		C240.4,360.5,120.3,360.5,0.2,360.5z M101.7,289.8c0.1,0.1,0.2,0.2,0.3,0.2c0.3,0.1,0.5,0.1,0.8,0.2c6.9,1.6,13.8,3.4,20.3,6.5
		c6.4,3.1,12.2,6.8,14.1,14.6c1.6-0.4,3.1-0.8,4.6-1.3c3.7-1.4,6.9-3.7,9.7-6.4c5.5-5.2,10.1-11,12.1-18.5c1-3.9,2.1-7.9,2.9-11.9
		c2.3-11.4,3.9-22.9,4.8-34.4c1.2-14.8,2.3-29.6,3.3-44.3c0.1-0.7,0.3-1.2,0.9-1.7c2.6-1.9,5.3-3.9,7.9-5.9c0.2-0.2,0.4-0.4,0.7-0.7
		c-5.9-5.1-11.8-10.2-17.7-15.3c-2.8,3.2-5.6,6.2-8.3,9.4c-0.8,0.9-1.6,1.3-2.8,1.4c-6.2,0.2-12.4,0.5-18.6,0.8
		c-2.6,0.1-5.2,0-7.9,0c0-11.5,0-23.2,0-35c15.3,0,30.4,0,45.8,0c-5.6-6-11-11.8-16.5-17.7c-3.3,3.3-6.6,6.6-9.8,9.9
		c-0.6,0.6-1.2,0.8-2,0.8c-5.4,0-10.9,0-16.3,0c-0.4,0-0.8,0-1.2-0.1c0-11.4,0-22.7,0-34.1c15.6,0,31.2,0,47.1,0
		c-5.6-6-11.1-11.9-16.5-17.7c-3.7,3.3-7.3,6.6-10.9,9.8c-0.5,0.4-1.3,0.8-2,0.8c-5.5,0.1-11,0-16.4,0c-0.4,0-0.8,0-1.2-0.1
		c0-11.4,0-22.6,0-34c18.4,0,36.7,0,55.3,0c-6-6.4-11.8-12.6-17.7-18.9c-0.4,0.3-0.7,0.6-0.9,0.9c-3.4,3.4-6.7,6.7-10.1,10.1
		c-0.6,0.6-1.1,0.8-2,0.8c-23.2,0-46.3,0-69.5,0c-0.7,0-1.5-0.2-2.2-0.5c-5.6-2.7-11.1-5.5-16.6-8.3c-0.4-0.2-0.8-0.3-1.4-0.6
		c1.8,51.2,1.3,102.1,0,153.1c0.5-0.1,0.8-0.1,1.1-0.2c4.8-1.4,9.6-2.8,14.4-4.1c0.9-0.3,1.2-0.7,1.1-1.6c-0.1-1.9,0-3.8,0-5.8
		c26.3-0.8,52.5-1.6,78.8-2.4c-0.2,2.6-0.4,5.1-0.5,7.5c-0.7,8.9-1.3,17.8-2,26.7c-0.8,9.2-1.6,18.5-2.6,27.7
		c-0.9,8.1-2.1,16.2-3.4,24.3c-0.4,2.8-1.1,5.6-2.8,7.9c-3.6,4.8-8.2,7.6-14.5,7.4c-8.1-0.4-16.1-1.5-24.2-2.7
		c-2.2-0.3-4.3-0.7-6.5-1C102.5,286.8,102.1,288.3,101.7,289.8z M59.7,222.8c-1.2,6.5-2.2,12.9-3.5,19.2c-1.5,6.7-4.1,12.9-8.6,18.2
		c-1.9,2.3-3.5,4.9-4.3,7.8c-1.5,5.2,3.3,8.9,7.3,8.6c4.5-0.4,7.7-2.7,10.2-6.3c3.5-5.1,4.7-10.8,5-16.9c0.3-7.4-0.1-14.8-0.8-22.1
		c-0.3-2.8-0.6-5.6-0.9-8.4C62.4,222.8,60.9,222.8,59.7,222.8z M74.6,221.5c0.2,0.5,0.3,1,0.4,1.4c2.4,8,4.3,16,4.8,24.4
		c0.2,3.8-0.1,7.7,0.2,11.5c0.1,2.1,0.7,4.2,1.4,6.2c0.7,1.9,2.5,2.8,4.3,2.4c1.3-0.3,2.8-0.7,3.8-1.5c2.7-2.1,4.1-5.1,4.7-8.4
		c0.7-3.4-0.4-6.6-1.5-9.7c-2.3-6.6-5.7-12.7-9.2-18.7c-1.8-3-3.6-5.9-5.4-8.9C77,220.8,75.9,221.1,74.6,221.5z M96,217.9
		c2.4,6.1,4.8,11.9,7.1,17.9c2.1,5.5,3.8,11.2,4.1,17.2c0.1,1.4,0.5,2.9,1,4.3c0.8,1.9,2.3,2.5,4.3,1.9c4.8-1.4,9-8.2,8.1-13.1
		c-0.6-3.3-2.3-6.1-4-8.9c-3.8-6.1-8.4-11.6-13.1-17c-1.3-1.5-2.7-3-4-4.6C98.1,216.5,97,217.2,96,217.9z M119.4,213.3
		c0.3,0.5,0.5,0.8,0.7,1.2c2.6,4.4,5.3,8.8,7.8,13.3c3,5.4,5.4,11,6.5,17.2c0.3,1.5,0.8,2.9,1.5,4.3c1.4,2.7,3.7,3.4,6.4,1.8
		c0.6-0.3,1.2-0.7,1.6-1.2c2.8-2.9,3.7-6.6,3.6-10.5c-0.1-2.7-1.6-5-3.1-7.2c-3.1-4.5-6.9-8.4-10.9-12.1c-3.5-3.2-7-6.2-10.6-9.4
		C121.8,211.7,120.6,212.5,119.4,213.3z"/>
	<path d="M101.7,289.8c0.4-1.5,0.7-3,1.1-4.6c2.2,0.3,4.4,0.7,6.5,1c8,1.2,16,2.4,24.2,2.7c6.3,0.3,10.9-2.5,14.5-7.4
		c1.8-2.4,2.4-5.1,2.8-7.9c1.2-8.1,2.5-16.2,3.4-24.3c1-9.2,1.8-18.5,2.6-27.7c0.7-8.9,1.4-17.8,2-26.7c0.2-2.5,0.4-4.9,0.5-7.5
		c-26.3,0.8-52.5,1.6-78.8,2.4c0,2,0,3.9,0,5.8c0,0.9-0.2,1.3-1.1,1.6c-4.8,1.3-9.6,2.7-14.4,4.1c-0.3,0.1-0.6,0.1-1.1,0.2
		c1.3-51,1.8-102,0-153.1c0.6,0.3,1,0.4,1.4,0.6c5.5,2.8,11.1,5.6,16.6,8.3c0.7,0.3,1.4,0.5,2.2,0.5c23.2,0,46.3,0,69.5,0
		c0.8,0,1.4-0.3,2-0.8c3.3-3.4,6.7-6.7,10.1-10.1c0.3-0.3,0.6-0.5,0.9-0.9c5.9,6.3,11.7,12.5,17.7,18.9c-18.6,0-36.9,0-55.3,0
		c0,11.4,0,22.7,0,34c0.4,0,0.8,0.1,1.2,0.1c5.5,0,11,0,16.4,0c0.7,0,1.5-0.3,2-0.8c3.6-3.2,7.2-6.4,10.9-9.8
		c5.5,5.9,10.9,11.7,16.5,17.7c-15.9,0-31.4,0-47.1,0c0,11.4,0,22.7,0,34.1c0.4,0,0.8,0.1,1.2,0.1c5.4,0,10.9,0,16.3,0
		c0.8,0,1.4-0.3,2-0.8c3.2-3.3,6.5-6.5,9.8-9.9c5.5,5.9,10.9,11.7,16.5,17.7c-15.4,0-30.6,0-45.8,0c0,11.8,0,23.5,0,35
		c2.6,0,5.3,0.1,7.9,0c6.2-0.2,12.4-0.5,18.6-0.8c1.2,0,2-0.4,2.8-1.4c2.7-3.1,5.4-6.2,8.3-9.4c5.9,5.1,11.7,10.2,17.7,15.3
		c-0.3,0.3-0.5,0.5-0.7,0.7c-2.6,2-5.2,4-7.9,5.9c-0.6,0.4-0.8,0.9-0.9,1.7c-1.1,14.8-2.1,29.6-3.3,44.3c-1,11.5-2.5,23-4.8,34.4
		c-0.8,4-1.9,7.9-2.9,11.9c-1.9,7.5-6.5,13.3-12.1,18.5c-2.9,2.7-6,5-9.7,6.4c-1.5,0.5-3,0.9-4.6,1.3c-1.9-7.8-7.7-11.5-14.1-14.6
		c-6.4-3.1-13.3-4.9-20.3-6.5c-0.3-0.1-0.5-0.1-0.8-0.2C101.9,289.9,101.9,289.9,101.7,289.8z M113.4,182.7c0-11.9,0-23.6,0-35.2
		c-11,0-21.8,0-32.7,0c0,12.2,0,24.2,0,36.4C91.6,183.4,102.5,183.1,113.4,182.7z M80.7,106.2c0,11.4,0,22.7,0,34.1
		c0.5,0,0.9,0,1.3,0c10,0,20.1,0,30.1,0c1.1,0,1.4-0.3,1.4-1.4c0-10.5,0-20.9,0-31.4c0-0.4,0-0.8,0-1.3
		C102.4,106.2,91.6,106.2,80.7,106.2z M80.7,65c0,11.4,0,22.7,0,33.9c11,0,21.8,0,32.7,0c0-11.4,0-22.6,0-33.9
		C102.5,65,91.6,65,80.7,65z"/>
	<path d="M59.7,222.8c1.3,0,2.8,0,4.4,0c0.3,2.8,0.6,5.6,0.9,8.4c0.7,7.4,1.1,14.7,0.8,22.1c-0.2,6-1.5,11.8-5,16.9
		c-2.5,3.6-5.7,5.9-10.2,6.3c-4.1,0.4-8.9-3.3-7.3-8.6c0.9-2.9,2.4-5.5,4.3-7.8c4.5-5.3,7.2-11.5,8.6-18.2
		C57.5,235.7,58.5,229.3,59.7,222.8z"/>
	<path d="M74.6,221.5c1.2-0.4,2.4-0.8,3.6-1.2c1.8,3,3.7,5.9,5.4,8.9c3.5,6,6.9,12.1,9.2,18.7c1.1,3.1,2.2,6.3,1.5,9.7
		c-0.7,3.3-2,6.3-4.7,8.4c-1.1,0.8-2.5,1.3-3.8,1.5c-1.9,0.4-3.7-0.6-4.3-2.4c-0.7-2-1.3-4.1-1.4-6.2c-0.2-3.8,0-7.7-0.2-11.5
		c-0.5-8.3-2.4-16.4-4.8-24.4C74.9,222.5,74.8,222.1,74.6,221.5z"/>
	<path d="M96,217.9c1-0.7,2.2-1.4,3.4-2.3c1.4,1.5,2.7,3,4,4.6c4.7,5.4,9.3,10.9,13.1,17c1.8,2.8,3.4,5.6,4,8.9
		c0.9,5-3.3,11.7-8.1,13.1c-2,0.6-3.5,0-4.3-1.9c-0.5-1.4-1-2.8-1-4.3c-0.3-6-2-11.6-4.1-17.2C100.8,229.8,98.4,224,96,217.9z"/>
	<path d="M119.4,213.3c1.3-0.8,2.4-1.6,3.7-2.4c3.5,3.1,7.1,6.2,10.6,9.4c4,3.7,7.8,7.6,10.9,12.1c1.5,2.2,3,4.5,3.1,7.2
		c0.1,3.9-0.9,7.5-3.6,10.5c-0.5,0.5-1,0.9-1.6,1.2c-2.7,1.5-5,0.9-6.4-1.8c-0.7-1.3-1.3-2.8-1.5-4.3c-1.1-6.2-3.5-11.8-6.5-17.2
		c-2.5-4.5-5.2-8.9-7.8-13.3C119.9,214.1,119.7,213.8,119.4,213.3z"/>
	<path class="st0" d="M113.4,182.7c-10.9,0.4-21.8,0.8-32.7,1.2c0-12.2,0-24.3,0-36.4c10.9,0,21.8,0,32.7,0
		C113.4,159.1,113.4,170.8,113.4,182.7z"/>
	<path class="st0" d="M80.7,106.2c10.9,0,21.7,0,32.8,0c0,0.5,0,0.9,0,1.3c0,10.5,0,20.9,0,31.4c0,1.1-0.3,1.4-1.4,1.4
		c-10,0-20.1,0-30.1,0c-0.4,0-0.8,0-1.3,0C80.7,128.9,80.7,117.6,80.7,106.2z"/>
	<path class="st0" d="M80.7,65c10.9,0,21.8,0,32.7,0c0,11.3,0,22.6,0,33.9c-10.9,0-21.7,0-32.7,0C80.7,87.6,80.7,76.4,80.7,65z"/>
</g>
</svg>
