<?xml version="1.0" encoding="utf-8"?>
<!-- Generator: Adobe Illustrator 20.1.0, SVG Export Plug-In . SVG Version: 6.00 Build 0)  -->
<svg version="1.1" id="图层_1" xmlns="http://www.w3.org/2000/svg" xmlns:xlink="http://www.w3.org/1999/xlink" x="0px" y="0px"
	 viewBox="0 0 360 360" style="enable-background:new 0 0 360 360;" xml:space="preserve">
<style type="text/css">
	.st0{fill:#FFFFFF;}
</style>
<g>
	<path class="st0" d="M0.2,360.5c0-120.1,0-240.2,0-360.2c120.1,0,240.2,0,360.2,0c0,120.1,0,240.2,0,360.2
		C240.4,360.5,120.3,360.5,0.2,360.5z M142.9,249.9c0,3.5,0,6.9,0,10.4c0.3,0,0.3,0,0.4,0c4.8-1.8,9.5-3.6,14.3-5.5
		c0.3-0.1,0.6-0.7,0.6-1.1c-0.1-3.7-0.4-7.3-0.5-11c-0.2-9.6-0.4-19.1-0.5-28.7c-0.1-13.6-0.1-27.3-0.1-40.9c0-0.9,0.3-1.3,1-1.7
		c2.4-1.3,4.8-2.7,7.3-4.1c-5.2-4.8-10.3-9.5-15.4-14.2c-3,3-5.8,5.9-8.7,8.7c-0.5,0.4-1.2,0.8-1.8,0.8c-7.4,0.1-14.9,0-22.3,0
		c-0.4,0-0.8,0-1.1,0c0-9.1,0-18.1,0-27.1c20.4,0,40.6,0,61.2,0c-6-6.4-11.8-12.6-17.7-18.9c-2.6,2.6-5.1,5.1-7.6,7.6
		c-1.4,1.4-2.6,3.3-4.2,4c-1.7,0.7-3.9,0.2-5.9,0.2c-1.9,0-3.8,0-5.7,0c0-11.8,0-23.5,0-35.3c12.5,0,24.9,0,37.6,0
		c-5.6-6-11-11.8-16.5-17.7c-3.4,3.4-6.6,6.7-9.9,9.9c-0.4,0.4-1.2,0.7-1.8,0.7c-1.9,0.1-3.8,0-5.8,0c-1.2,0-2.5,0-3.7,0
		c0-0.4-0.1-0.5-0.1-0.7c0-7.7,0-15.4,0-23.2c0-0.4,0.3-1,0.7-1.3c1.7-1.6,3.5-3.1,5.2-4.6c1.2-1,2.3-2,3.6-3.2
		c-8-3.2-15.8-6.3-23.4-9.3c0.4,14.1,0.7,28.1,1.1,42.2c-10,0-19.7,0-29.5,0c0-0.5,0-1,0-1.5c0-7.2,0-14.5,0-21.7c0-1,0.2-1.7,1-2.4
		c2.4-2.3,4.8-4.8,7.3-7.2c-7.5-3.6-14.9-7.1-22.5-10.6c1.2,14.6,1,29.1,1.2,43.6c-10.7,0-21.1,0-31.8,0c3.4,3.4,6.7,6.6,9.9,9.9
		c0.6,0.6,1.1,0.7,1.9,0.5c5-1,10.1-2.1,15.1-3c1.6-0.3,3.2-0.3,4.9-0.4c0,11.9,0,23.5,0,35.3c-12.1,0-24.2,0-36.5,0
		c0.4,0.4,0.6,0.7,0.9,1c3,3,6,5.9,8.9,8.9c0.6,0.6,1.1,0.8,2,0.5c7.8-2.1,15.8-3.1,23.8-3.2c7.4-0.1,14.9-0.1,22.3-0.1
		c0.3,0,0.7,0.1,1,0.1c0,9.1,0,18,0,26.9c-0.3,0-0.4,0.1-0.6,0.1c-8.2,0-16.3,0-24.5,0c-0.5,0-1.1-0.3-1.5-0.5
		c-4.4-2.7-8.9-5.4-13.3-8.2c-0.4-0.2-0.7-0.4-1-0.6c0,36.5,0,72.9,0,109.4c4.8-1.5,9.7-3,14.5-4.5c0.3-0.1,0.5-0.7,0.6-1.1
		c0-2.4,0-4.8,0-7.2C99,249.9,120.9,249.9,142.9,249.9z M46.4,317c0.3-0.2,0.6-0.4,0.9-0.6c8.7-6,16.7-12.8,24.6-19.8
		c7.7-6.9,15.7-13.5,24.5-19.1c2.9-1.8,5.8-3.6,8.9-5.4c-6.3-4.3-12.5-8.6-18.7-12.9c-0.2,0.2-0.3,0.3-0.3,0.4
		c-2.9,6.4-6.8,12.2-10.9,17.9c-8.4,11.6-17.8,22.3-27.4,32.8c-1.3,1.4-2.6,2.8-3.9,4.2C44.9,315.5,45.6,316.2,46.4,317z
		 M122.9,263.9c-0.4,1.1-0.7,2-1,2.9c-0.2,0.6-0.1,0.9,0.4,1.3c2.8,2.4,5.6,4.8,8.2,7.4c7.7,7.5,14.5,15.7,18.8,25.7
		c1.1,2.5,2.4,4.9,4.5,6.8c1.9,1.7,4,1.8,5.6-0.2c3.5-4.2,5.3-9,4.3-14.6c-0.7-4.4-3.5-7.7-6.8-10.4
		C146.7,274.5,134.9,269.3,122.9,263.9z"/>
	<path d="M142.9,249.9c-22,0-43.9,0-65.9,0c0,2.5,0,4.8,0,7.2c0,0.4-0.3,1-0.6,1.1c-4.9,1.6-9.7,3-14.5,4.5c0-36.5,0-72.9,0-109.4
		c0.3,0.2,0.6,0.3,1,0.6c4.4,2.7,8.8,5.5,13.3,8.2c0.5,0.3,1,0.5,1.5,0.5c8.2,0,16.3,0,24.5,0c0.2,0,0.3,0,0.6-0.1
		c0-8.9,0-17.9,0-26.9c-0.3,0-0.6-0.1-1-0.1c-7.4,0-14.9-0.1-22.3,0.1c-8.1,0.1-16,1.1-23.8,3.2c-0.8,0.2-1.4,0.1-2-0.5
		c-2.9-3-5.9-6-8.9-8.9c-0.2-0.2-0.5-0.5-0.9-1c12.3,0,24.3,0,36.5,0c0-11.8,0-23.4,0-35.3c-1.6,0.1-3.3,0.1-4.9,0.4
		c-5.1,0.9-10.1,1.9-15.1,3c-0.8,0.2-1.3,0.1-1.9-0.5c-3.2-3.3-6.4-6.5-9.9-9.9c10.7,0,21.2,0,31.8,0c-0.1-14.6,0-29-1.2-43.6
		c7.5,3.6,14.9,7.1,22.5,10.6c-2.5,2.5-4.9,4.9-7.3,7.2c-0.7,0.7-1,1.4-1,2.4c0,7.2,0,14.5,0,21.7c0,0.5,0,0.9,0,1.5
		c9.8,0,19.5,0,29.5,0c-0.4-14.1-0.7-28.1-1.1-42.2c7.6,3,15.4,6.2,23.4,9.3c-1.3,1.1-2.4,2.2-3.6,3.2c-1.7,1.5-3.5,3-5.2,4.6
		c-0.3,0.3-0.7,0.8-0.7,1.3c0,7.7,0,15.4,0,23.2c0,0.2,0,0.4,0.1,0.7c1.3,0,2.5,0,3.7,0c1.9,0,3.8,0.1,5.8,0c0.6,0,1.3-0.3,1.8-0.7
		c3.3-3.2,6.5-6.5,9.9-9.9c5.5,5.9,10.9,11.7,16.5,17.7c-12.7,0-25.1,0-37.6,0c0,11.8,0,23.5,0,35.3c1.9,0,3.8,0,5.7,0
		c2,0,4.2,0.5,5.9-0.2c1.7-0.7,2.9-2.6,4.2-4c2.5-2.5,5-5,7.6-7.6c5.9,6.3,11.7,12.5,17.7,18.9c-20.5,0-40.8,0-61.2,0
		c0,9.1,0,18,0,27.1c0.4,0,0.8,0,1.1,0c7.4,0,14.9,0,22.3,0c0.6,0,1.4-0.3,1.8-0.8c2.9-2.8,5.7-5.7,8.7-8.7
		c5.1,4.7,10.2,9.4,15.4,14.2c-2.5,1.4-4.9,2.8-7.3,4.1c-0.7,0.4-1,0.8-1,1.7c0.1,13.6,0,27.3,0.1,40.9c0.1,9.6,0.3,19.1,0.5,28.7
		c0.1,3.7,0.4,7.3,0.5,11c0,0.4-0.3,0.9-0.6,1.1c-4.8,1.9-9.5,3.7-14.3,5.5c-0.1,0-0.2,0-0.4,0C142.9,256.9,142.9,253.4,142.9,249.9
		z M93.6,128.4c9.8,0,19.5,0,29.2,0c0-11.7,0-23.4,0-35.1c-9.7,0-19.4,0-29.2,0C93.6,105,93.6,116.6,93.6,128.4z M142.8,207.6
		c-9,0-17.9,0-26.8,0c0,11.8,0,23.4,0,35.1c9,0,17.9,0,26.8,0C142.8,231,142.8,219.3,142.8,207.6z M77.1,242.7c8.6,0,17.1,0,25.7,0
		c0-11.7,0-23.4,0-35.1c-8.6,0-17.1,0-25.7,0C77.1,219.2,77.1,230.9,77.1,242.7z M142.8,200.3c0-10.2,0-20.3,0-30.5
		c-9,0-17.9,0-26.8,0c0,10.2,0,20.3,0,30.5C124.9,200.3,133.8,200.3,142.8,200.3z M102.9,169.8c-8.7,0-17.2,0-25.7,0
		c0,10.2,0,20.4,0,30.4c8.6,0,17.2,0,25.7,0C102.9,190.1,102.9,180,102.9,169.8z"/>
	<path d="M46.4,317c-0.8-0.8-1.5-1.6-2.4-2.4c1.3-1.4,2.6-2.8,3.9-4.2c9.6-10.5,19.1-21.3,27.4-32.8c4.1-5.7,8-11.5,10.9-17.9
		c0-0.1,0.1-0.2,0.3-0.4c6.2,4.3,12.5,8.6,18.7,12.9c-3,1.9-6,3.6-8.9,5.4c-8.7,5.6-16.7,12.2-24.5,19.1c-7.9,7-15.9,13.8-24.6,19.8
		C47,316.6,46.7,316.8,46.4,317z"/>
	<path d="M122.9,263.9c11.9,5.4,23.8,10.6,34,18.8c3.4,2.7,6.1,6,6.8,10.4c0.9,5.5-0.8,10.4-4.3,14.6c-1.6,1.9-3.7,1.9-5.6,0.2
		c-2.1-1.9-3.4-4.3-4.5-6.8c-4.3-10-11.1-18.2-18.8-25.7c-2.6-2.5-5.5-4.9-8.2-7.4c-0.5-0.4-0.6-0.7-0.4-1.3
		C122.3,265.9,122.6,265,122.9,263.9z"/>
	<path class="st0" d="M93.6,128.4c0-11.7,0-23.4,0-35.1c9.8,0,19.4,0,29.2,0c0,11.7,0,23.4,0,35.1
		C113.1,128.4,103.4,128.4,93.6,128.4z"/>
	<path class="st0" d="M142.8,207.6c0,11.8,0,23.4,0,35.1c-9,0-17.9,0-26.8,0c0-11.7,0-23.3,0-35.1
		C124.9,207.6,133.8,207.6,142.8,207.6z"/>
	<path class="st0" d="M77.1,242.7c0-11.8,0-23.4,0-35.1c8.6,0,17.1,0,25.7,0c0,11.7,0,23.4,0,35.1C94.3,242.7,85.7,242.7,77.1,242.7
		z"/>
	<path class="st0" d="M142.8,200.3c-9,0-17.9,0-26.8,0c0-10.2,0-20.3,0-30.5c9,0,17.9,0,26.8,0C142.8,180,142.8,190.1,142.8,200.3z"
		/>
	<path class="st0" d="M102.9,169.8c0,10.2,0,20.3,0,30.4c-8.6,0-17.1,0-25.7,0c0-10.1,0-20.2,0-30.4
		C85.6,169.8,94.2,169.8,102.9,169.8z"/>
</g>
</svg>
