<?xml version="1.0" encoding="utf-8"?>
<!-- Generator: Adobe Illustrator 20.1.0, SVG Export Plug-In . SVG Version: 6.00 Build 0)  -->
<svg version="1.1" id="图层_1" xmlns="http://www.w3.org/2000/svg" xmlns:xlink="http://www.w3.org/1999/xlink" x="0px" y="0px"
	 viewBox="0 0 360 360" style="enable-background:new 0 0 360 360;" xml:space="preserve">
<style type="text/css">
	.st0{fill:#FFFFFF;}
</style>
<g>
	<path class="st0" d="M0.2,360.5c0-120.1,0-240.2,0-360.2c120.1,0,240.2,0,360.2,0c0,120.1,0,240.2,0,360.2
		C240.4,360.5,120.3,360.5,0.2,360.5z M117.1,265.3c43.3,0,86.4,0,129.6,0c0,3.9,0,7.7,0,11.7c5.4-2.3,10.6-4.5,15.9-6.8
		c0.3-0.1,0.5-0.8,0.5-1.2c-0.3-9.5-0.7-19-0.9-28.5c-0.2-10.7,0-21.4-0.3-32.2c-0.1-3.1,0.7-5.4,3.3-7.1c1.8-1.2,3.3-2.8,5.1-4.3
		c-6-4.4-11.8-8.7-17.7-13c-2.5,3.6-5,7.2-7.5,10.7c-0.5,0.8-1,1.1-2,1.1c-17.2,0-34.3,0-51.5,0c-0.4,0-0.9,0-1.3,0
		c0-5.9,0-11.7,0-17.6c40.4,0,80.7,0,121.3,0c-7.2-7.6-14.2-15-21.3-22.4c-0.3,0.3-0.6,0.5-0.9,0.7c-5,4.6-9.9,9.2-14.9,13.8
		c-0.6,0.6-1.2,0.8-2,0.8c-16.4,0-32.8,0-49.2,0c-0.4,0-0.9,0-1.3,0c0-8.7,0-17.2,0-25.9c18,0,35.9,0,54.1,0
		c-6.4-6.8-12.6-13.4-18.9-20.1c-4.9,4.1-9.6,8.2-14.4,12.2c-0.6,0.5-1.4,0.8-2.1,0.8c-5.8,0.1-11.5,0-17.3,0c-0.5,0-0.9,0-1.4-0.1
		c0-4.2,0-8.3,0-12.4c0-0.4,0.4-0.8,0.7-1.1c2.4-2.1,4.9-4.2,7.5-6.4c-8.3-3.2-16.5-6.3-24.6-9.4c0.4,9.8,0.8,19.5,1.1,29.3
		c-16.7,0-33.1,0-49.5,0c0-0.5-0.1-0.9-0.1-1.2c0-3.5,0-7,0-10.4c0-0.8,0.3-1.4,0.9-1.9c2.4-2,4.8-4.1,7.4-6.3
		c-8.3-3.2-16.5-6.3-24.6-9.4c0.4,9.8,0.7,19.5,1.1,29.3c-18.6,0-37,0-55.6,0c0.5,0.5,0.7,0.8,1,1.1c2.9,2.9,5.9,5.9,8.8,8.8
		c0.6,0.6,1.1,0.8,2,0.5c6.9-1.8,13.9-2.9,20.9-3.1c7.3-0.2,14.6-0.2,21.8-0.2c0.3,0,0.5,0.1,0.8,0.1c0,8.6,0,17.1,0,25.8
		c-29.4,0-58.7,0-88.2,0c0.1,0.2,0.2,0.3,0.2,0.4c3.2,3.3,6.5,6.5,9.8,9.7c0.3,0.3,1,0.3,1.5,0.2c8.3-2.1,16.7-3.2,25.3-3.2
		c27.7,0,55.4,0,83,0c0.4,0,0.9,0,1.3,0c0,6.3,0,12.5,0,18.7c-0.3,0-0.5,0-0.8,0c-18.7,0-37.4,0-56,0c-0.5,0-1.1-0.2-1.6-0.5
		c-4.9-2.8-9.7-5.5-14.6-8.3c-0.3-0.2-0.7-0.4-1.2-0.6c0.8,30.3,0.7,60.5,0,90.8c5.4-1.5,10.7-3,15.9-4.6c0.3-0.1,0.6-0.7,0.6-1
		C117.1,270.1,117.1,267.7,117.1,265.3z M203,276.9c0.5,0.2,0.9,0.4,1.4,0.5c9.5,3.7,19.1,7.3,28.5,11.2
		c11.9,4.9,23.5,10.4,34.4,17.4c3.7,2.4,7.1,5.2,10.8,7.6c2.1,1.3,4.3,2.4,6.6,3.2c2.9,1,4.8-0.3,5.5-3.3c0.1-0.3,0.1-0.6,0.2-0.9
		c0.4-4.7-0.4-9.3-2.5-13.5c-3-6.1-8-9.8-14-12.5c-5.3-2.4-10.9-3.5-16.6-4.6c-12.9-2.5-25.8-5-38.7-7.4c-4.7-0.9-9.5-1.6-14.4-2.5
		C203.8,273.8,203.4,275.3,203,276.9z M150.2,268.8c-0.2,0-0.2,0-0.3,0c-0.7,0.6-1.4,1.1-2.1,1.7c-10.4,8.4-22,14.8-33.9,20.6
		c-16,7.7-32.5,14-49.3,19.7c-1.4,0.5-2.7,1-4.1,1.5c0.4,1.3,0.8,2.4,1.2,3.5c0.2,0,0.4,0,0.5,0c16.3-2.8,32.3-7,48-12.3
		c9.4-3.2,18.7-6.6,28-9.8c6.9-2.4,14-4.4,21.2-5.5c1.9-0.3,3.9-0.5,6-0.7C160.2,281.1,155.1,274.9,150.2,268.8z"/>
	<path d="M117.1,265.3c0,2.4,0,4.8,0,7.2c0,0.4-0.3,1-0.6,1c-5.2,1.6-10.5,3-15.9,4.6c0.7-30.3,0.8-60.4,0-90.8
		c0.5,0.3,0.8,0.4,1.2,0.6c4.9,2.8,9.7,5.6,14.6,8.3c0.5,0.3,1,0.5,1.6,0.5c18.7,0,37.4,0,56,0c0.2,0,0.5,0,0.8,0
		c0-6.2,0-12.4,0-18.7c-0.5,0-0.9,0-1.3,0c-27.7,0-55.4,0-83,0c-8.5,0-17,1.1-25.3,3.2c-0.5,0.1-1.2,0.1-1.5-0.2
		c-3.3-3.2-6.5-6.5-9.8-9.7c-0.1-0.1-0.1-0.2-0.2-0.4c29.4,0,58.8,0,88.2,0c0-8.6,0-17.2,0-25.8c-0.3,0-0.5-0.1-0.8-0.1
		c-7.3,0.1-14.6,0-21.8,0.2c-7.1,0.2-14.1,1.3-20.9,3.1c-0.8,0.2-1.4,0.1-2-0.5c-2.9-3-5.9-5.9-8.8-8.8c-0.3-0.3-0.5-0.6-1-1.1
		c18.6,0,36.9,0,55.6,0c-0.4-9.8-0.7-19.5-1.1-29.3c8.1,3.1,16.2,6.2,24.6,9.4c-2.5,2.2-4.9,4.3-7.4,6.3c-0.6,0.5-0.9,1.1-0.9,1.9
		c0,3.5,0,7,0,10.4c0,0.4,0,0.8,0.1,1.2c16.5,0,32.8,0,49.5,0c-0.4-9.8-0.8-19.5-1.1-29.3c8.1,3.1,16.3,6.2,24.6,9.4
		c-2.6,2.2-5,4.3-7.5,6.4c-0.3,0.3-0.7,0.7-0.7,1.1c-0.1,4.1,0,8.1,0,12.4c0.5,0,1,0.1,1.4,0.1c5.8,0,11.5,0,17.3,0
		c0.7,0,1.6-0.3,2.1-0.8c4.8-4,9.5-8,14.4-12.2c6.2,6.6,12.5,13.2,18.9,20.1c-18.2,0-36.1,0-54.1,0c0,8.7,0,17.2,0,25.9
		c0.5,0,0.9,0,1.3,0c16.4,0,32.8,0,49.2,0c0.8,0,1.4-0.2,2-0.8c4.9-4.6,9.9-9.2,14.9-13.8c0.3-0.2,0.5-0.5,0.9-0.7
		c7,7.4,14,14.8,21.3,22.4c-40.6,0-80.9,0-121.3,0c0,5.9,0,11.7,0,17.6c0.5,0,0.9,0,1.3,0c17.2,0,34.3,0,51.5,0c1,0,1.5-0.3,2-1.1
		c2.4-3.6,4.9-7.1,7.5-10.7c5.9,4.3,11.8,8.6,17.7,13c-1.7,1.5-3.3,3.1-5.1,4.3c-2.7,1.8-3.4,4-3.3,7.1c0.3,10.7,0.1,21.4,0.3,32.2
		c0.2,9.5,0.6,19,0.9,28.5c0,0.4-0.2,1.1-0.5,1.2c-5.2,2.3-10.5,4.5-15.9,6.8c0-3.9,0-7.8,0-11.7
		C203.4,265.3,160.3,265.3,117.1,265.3z M190.2,227.4c18.9,0,37.5,0,56.3,0c0-8.2,0-16.4,0-24.6c-18.8,0-37.5,0-56.3,0
		C190.2,211.1,190.2,219.2,190.2,227.4z M174.7,204c-19.2,0-38.4,0-57.5,0c0,7.8,0,15.6,0,23.4c19.2,0,38.3,0,57.5,0
		C174.7,219.6,174.7,211.9,174.7,204z M117.2,234.6c0,7.8,0,15.6,0,23.4c19.2,0,38.3,0,57.5,0c0-7.8,0-15.6,0-23.4
		C155.4,234.6,136.3,234.6,117.2,234.6z M246.5,234.6c-18.8,0-37.5,0-56.3,0c0,7.8,0,15.6,0,23.4c18.8,0,37.6,0,56.3,0
		C246.5,250.1,246.5,242.4,246.5,234.6z M157.3,145.1c0,8.7,0,17.2,0,25.7c16.5,0,32.9,0,49.3,0c0-8.6,0-17.1,0-25.7
		C190.1,145.1,173.7,145.1,157.3,145.1z"/>
	<path d="M203,276.9c0.4-1.6,0.8-3.1,1.2-4.7c4.9,0.8,9.6,1.6,14.4,2.5c12.9,2.4,25.8,4.9,38.7,7.4c5.6,1.1,11.3,2.2,16.6,4.6
		c6,2.7,11,6.4,14,12.5c2.1,4.3,2.8,8.8,2.5,13.5c0,0.3-0.1,0.6-0.2,0.9c-0.7,3-2.6,4.3-5.5,3.3c-2.3-0.8-4.6-1.9-6.6-3.2
		c-3.7-2.4-7.1-5.2-10.8-7.6c-10.8-7-22.5-12.5-34.4-17.4c-9.4-3.9-19-7.5-28.5-11.2C204,277.3,203.5,277.1,203,276.9z"/>
	<path d="M150.2,268.8c5,6.1,10,12.3,15.1,18.6c-2.1,0.2-4.1,0.4-6,0.7c-7.2,1.2-14.3,3.2-21.2,5.5c-9.4,3.2-18.7,6.6-28,9.8
		c-15.7,5.3-31.6,9.5-48,12.3c-0.1,0-0.2,0-0.5,0c-0.4-1.1-0.8-2.2-1.2-3.5c1.4-0.5,2.8-1,4.1-1.5c16.8-5.7,33.3-12,49.3-19.7
		c12-5.8,23.5-12.2,33.9-20.6c0.7-0.6,1.4-1.1,2.1-1.7C149.9,268.8,150,268.8,150.2,268.8z"/>
	<path class="st0" d="M190.2,227.4c0-8.2,0-16.3,0-24.6c18.8,0,37.5,0,56.3,0c0,8.2,0,16.3,0,24.6
		C227.7,227.4,209,227.4,190.2,227.4z"/>
	<path class="st0" d="M174.7,204c0,7.8,0,15.6,0,23.4c-19.2,0-38.3,0-57.5,0c0-7.8,0-15.5,0-23.4C136.3,204,155.4,204,174.7,204z"/>
	<path class="st0" d="M117.2,234.6c19.2,0,38.3,0,57.5,0c0,7.8,0,15.5,0,23.4c-19.1,0-38.3,0-57.5,0
		C117.2,250.2,117.2,242.4,117.2,234.6z"/>
	<path class="st0" d="M246.5,234.6c0,7.8,0,15.5,0,23.4c-18.7,0-37.5,0-56.3,0c0-7.8,0-15.5,0-23.4
		C209,234.6,227.7,234.6,246.5,234.6z"/>
	<path class="st0" d="M157.3,145.1c16.4,0,32.8,0,49.3,0c0,8.6,0,17.1,0,25.7c-16.4,0-32.8,0-49.3,0
		C157.3,162.3,157.3,153.7,157.3,145.1z"/>
</g>
</svg>
