<?xml version="1.0" encoding="utf-8"?>
<!-- Generator: Adobe Illustrator 20.1.0, SVG Export Plug-In . SVG Version: 6.00 Build 0)  -->
<svg version="1.1" id="图层_1" xmlns="http://www.w3.org/2000/svg" xmlns:xlink="http://www.w3.org/1999/xlink" x="0px" y="0px"
	 viewBox="0 0 360 360" style="enable-background:new 0 0 360 360;" xml:space="preserve">
<style type="text/css">
	.st0{fill:#FFFFFF;}
</style>
<g>
	<path class="st0" d="M0.2,360.5c0-120.1,0-240.2,0-360.2c120.1,0,240.2,0,360.2,0c0,120.1,0,240.2,0,360.2
		C240.4,360.5,120.3,360.5,0.2,360.5z M117.1,79c0-5,0.2-9.9-0.1-14.7c-0.2-3,0.6-5.1,3.1-6.9c2.3-1.6,4.2-3.6,6.4-5.6
		c-8.3-3.2-16.5-6.3-24.7-9.4c1.3,24.8,0.9,49.4,1.1,74.1c-0.5,0-0.7,0.1-1,0.1c-9.6,0-19.3,0-28.9,0c-0.5,0-1.1-0.2-1.6-0.4
		c-2.8-1.5-5.6-3-8.4-4.4c-2.8-1.5-5.5-2.9-8.3-4.4c1.4,67.9,1.2,135.8-0.1,203.7c5-2.7,9.8-5.3,14.6-7.9c0.3-0.2,0.6-0.8,0.6-1.3
		c0-4.3,0.1-8.6,0-13c0-1.1,0.3-1.4,1.4-1.4c27,0,53.9,0,80.9,0c0.4,0,0.8,0,1.4,0.1c0,5.9,0,11.7,0,17.4c0.2,0,0.3,0,0.4,0
		c4.8-2.2,9.6-4.4,14.4-6.6c0.3-0.1,0.6-0.7,0.6-1c-0.1-6-0.4-12.1-0.5-18.1c-0.2-8.6-0.3-17.2-0.3-25.8
		c-0.1-14.9-0.2-29.8-0.2-44.6c0-7.7,0-15.4,0-23.2c0-17.7,0-35.4,0-53c0-1.4-0.4-3,0.2-4.1c0.6-1.1,2.2-1.6,3.4-2.3
		c1.9-1.2,3.8-2.4,5.6-3.5c-5.1-5.1-10.2-10.2-15.3-15.3c-2.8,2.8-5.6,5.6-8.5,8.5c-0.5,0.4-1.2,0.8-1.9,0.8c-11,0-21.9,0-32.9,0
		c-0.4,0-0.8,0-1.2,0c0-10.3,0-20.4,0-30.6c18.8,0,37.5,0,56.5,0c-6-6.4-11.9-12.7-17.7-18.9c-3.7,3.7-7.3,7.3-10.9,11
		c-0.6,0.6-1.2,0.9-2.1,0.9c-8.2,0-16.3,0-24.5,0C118,79,117.6,79,117.1,79z"/>
	<path d="M117.1,79c0.6,0,1,0,1.3,0c8.2,0,16.3,0,24.5,0c0.9,0,1.5-0.3,2.1-0.9c3.6-3.6,7.2-7.3,10.9-11
		c5.9,6.3,11.7,12.5,17.7,18.9c-19,0-37.7,0-56.5,0c0,10.2,0,20.3,0,30.6c0.4,0,0.8,0,1.2,0c11,0,21.9,0,32.9,0
		c0.6,0,1.4-0.3,1.9-0.8c2.9-2.8,5.7-5.7,8.5-8.5c5.1,5.1,10.2,10.2,15.3,15.3c-1.8,1.1-3.7,2.3-5.6,3.5c-1.2,0.7-2.8,1.3-3.4,2.3
		c-0.6,1.1-0.2,2.7-0.2,4.1c0,17.7,0,35.4,0,53c0,7.7,0,15.4,0,23.2c0.1,14.9,0.1,29.8,0.2,44.6c0.1,8.6,0.2,17.2,0.3,25.8
		c0.1,6,0.4,12.1,0.5,18.1c0,0.3-0.3,0.9-0.6,1c-4.8,2.2-9.6,4.4-14.4,6.6c-0.1,0-0.2,0-0.4,0c0-5.8,0-11.5,0-17.4
		c-0.5,0-1-0.1-1.4-0.1c-27,0-53.9,0-80.9,0c-1.1,0-1.4,0.3-1.4,1.4c0.1,4.3,0,8.6,0,13c0,0.4-0.2,1.1-0.6,1.3
		c-4.8,2.7-9.7,5.3-14.6,7.9c1.3-67.9,1.5-135.8,0.1-203.7c2.7,1.5,5.5,2.9,8.3,4.4c2.8,1.5,5.6,3,8.4,4.4c0.5,0.2,1,0.4,1.6,0.4
		c9.6,0,19.3,0,28.9,0c0.3,0,0.5,0,1-0.1c-0.3-24.7,0.1-49.3-1.1-74.1c8.2,3.1,16.4,6.2,24.7,9.4c-2.2,1.9-4.2,4-6.4,5.6
		c-2.5,1.8-3.3,3.9-3.1,6.9C117.3,69.1,117.1,74,117.1,79z M153.5,280.4c0-52.2,0-104.3,0-156.4c-27.9,0-55.6,0-83.4,0
		c0,52.2,0,104.3,0,156.4C97.9,280.4,125.7,280.4,153.5,280.4z"/>
	<path class="st0" d="M153.5,280.4c-27.8,0-55.6,0-83.4,0c0-52.2,0-104.2,0-156.4c27.8,0,55.6,0,83.4,0
		C153.5,176,153.5,228.1,153.5,280.4z M111.3,210.9c2.9,4.8,5.7,9.3,8.3,13.9c4.5,7.7,8.1,15.9,11.5,24.1c1,2.4,2.4,4.6,4,6.6
		c1.9,2.4,4.2,2.2,5.9-0.3c2.4-3.5,3.5-7.4,3.4-11.6c-0.2-5.3-2.2-10-5.1-14.3c-6.6-9.8-13.9-19-21.5-28.1c-0.4-0.5-0.8-0.8-0.3-1.6
		c6.9-11.9,13.8-23.8,20.8-35.6c2.6-4.3,5.8-8.3,8.8-12.4c0.5-0.7,1.2-1.3,1.8-1.9c-6.3-4-12.6-7.8-18.9-11.8
		c-5.2,18.3-11.5,35.9-20,52.9c-11.4-14.1-22.7-28.2-34-42.2c-0.9,0.9-1.7,1.7-2.5,2.5c0.2,0.3,0.4,0.8,0.7,1.2
		c10.1,16.1,20.2,32.2,30.4,48.3c0.5,0.7,0.5,1.3,0.1,2c-1.6,2.5-3,5-4.5,7.5c-8.7,14.3-18.1,28.2-28.4,41.4
		c-0.2,0.3-0.6,0.8-0.5,1.1c0.2,1.1,0.7,2.1,1.1,3.3C86.7,242.1,99.8,227.5,111.3,210.9z M104.1,235.4c-0.6,0.7-1,1.3-1.5,1.7
		c-0.8,0.6-0.8,1.2-0.3,2.1c3.6,7.5,5.7,15.4,6.6,23.6c0.2,2.3,0.8,4.6,1.6,6.7c0.8,2.2,2.7,2.8,4.8,1.6c6.5-4,9.3-10.7,6.4-17.8
		c-1.6-3.8-4.4-6.9-7.4-9.6C110.9,241,107.6,238.3,104.1,235.4z M132.3,181.4c-0.5,0.6-0.9,1.1-1.4,1.5c-0.8,0.6-0.8,1.2-0.3,2.1
		c3.8,7.1,5.9,14.6,7,22.5c0.4,2.6,1,5.2,1.9,7.6c1,2.7,3.1,3.1,5.4,1.4c2.4-1.8,4.2-4,5.1-6.8c1.5-4.8,0.3-9.1-2.3-13.1
		C143.7,190.6,138.1,186,132.3,181.4z M94.7,135.6c0.2,0.4,0.3,0.7,0.5,0.9c3.9,7.4,7.1,15.1,9,23.3c0.4,1.9,1,3.7,1.8,5.4
		c1.2,2.5,3.3,2.9,5.2,0.9c1.6-1.6,3-3.3,4-5.3c2-4,2.2-8.3-0.8-11.9c-2.6-3.2-5.5-6.3-8.4-9.2c-2.4-2.4-5.1-4.4-7.6-6.6
		c-1.2,0.8-2.2,1.4-3.2,2.1C95,135.3,94.9,135.4,94.7,135.6z M73.5,181.6c2.9,9,4.9,18.1,5.4,27.6c0.1,1.9,0.5,3.9,1.1,5.7
		c0.7,2.2,2.5,2.8,4.3,1.4c1.4-1,2.7-2.2,3.7-3.5c3.2-4.2,4.8-11.3,0.6-17.9c-3.1-4.9-6.9-9.1-11.1-13c-1.8-1.7-1.8-1.8-4-0.5
		C73.6,181.4,73.5,181.5,73.5,181.6z"/>
	<path d="M111.3,210.9c-11.4,16.6-24.6,31.2-39,44.9c-0.4-1.2-0.8-2.2-1.1-3.3c-0.1-0.3,0.2-0.8,0.5-1.1
		c10.3-13.2,19.7-27,28.4-41.4c1.5-2.5,3-5,4.5-7.5c0.5-0.8,0.4-1.3-0.1-2c-10.1-16.1-20.2-32.2-30.4-48.3c-0.3-0.4-0.5-0.8-0.7-1.2
		c0.8-0.8,1.6-1.6,2.5-2.5c11.3,14,22.6,28,34,42.2c8.4-17,14.8-34.6,20-52.9c6.3,3.9,12.5,7.8,18.9,11.8c-0.6,0.7-1.3,1.2-1.8,1.9
		c-3,4.1-6.2,8.1-8.8,12.4c-7.1,11.8-13.9,23.7-20.8,35.6c-0.5,0.8-0.1,1.1,0.3,1.6c7.6,9,14.9,18.3,21.5,28.1
		c2.9,4.3,4.9,9,5.1,14.3c0.1,4.2-1,8.2-3.4,11.6c-1.8,2.5-4,2.7-5.9,0.3c-1.6-2-3-4.3-4-6.6c-3.5-8.2-7.1-16.4-11.5-24.1
		C116.9,220.2,114.1,215.7,111.3,210.9z"/>
	<path d="M104.1,235.4c3.5,2.9,6.8,5.6,10.1,8.4c3.1,2.7,5.9,5.7,7.4,9.6c2.9,7.1,0.1,13.8-6.4,17.8c-2.1,1.2-4,0.7-4.8-1.6
		c-0.8-2.1-1.4-4.4-1.6-6.7c-0.8-8.3-3-16.2-6.6-23.6c-0.4-0.9-0.5-1.5,0.3-2.1C103.1,236.7,103.5,236.1,104.1,235.4z"/>
	<path d="M132.3,181.4c5.8,4.6,11.4,9.2,15.5,15.3c2.7,4,3.9,8.3,2.3,13.1c-0.9,2.8-2.8,5-5.1,6.8c-2.3,1.7-4.4,1.3-5.4-1.4
		c-0.9-2.4-1.5-5-1.9-7.6c-1.2-7.9-3.3-15.5-7-22.5c-0.5-0.9-0.4-1.5,0.3-2.1C131.4,182.5,131.7,182,132.3,181.4z"/>
	<path d="M94.7,135.6c0.2-0.2,0.3-0.3,0.4-0.4c1-0.7,2-1.3,3.2-2.1c2.5,2.2,5.2,4.3,7.6,6.6c2.9,2.9,5.8,6,8.4,9.2
		c3,3.7,2.9,7.9,0.8,11.9c-1,2-2.5,3.7-4,5.3c-1.9,2-4,1.6-5.2-0.9c-0.8-1.7-1.4-3.6-1.8-5.4c-1.8-8.2-5-15.9-9-23.3
		C95,136.3,94.9,136,94.7,135.6z"/>
	<path d="M73.5,181.6c0.1-0.1,0.1-0.2,0.1-0.2c2.2-1.3,2.1-1.3,4,0.5c4.1,4,8,8.2,11.1,13c4.2,6.6,2.7,13.7-0.6,17.9
		c-1,1.3-2.3,2.5-3.7,3.5c-1.9,1.3-3.6,0.8-4.3-1.4c-0.6-1.8-1.1-3.8-1.1-5.7C78.4,199.7,76.4,190.6,73.5,181.6z"/>
</g>
</svg>
