<?xml version="1.0" encoding="utf-8"?>
<!-- Generator: Adobe Illustrator 20.1.0, SVG Export Plug-In . SVG Version: 6.00 Build 0)  -->
<svg version="1.1" id="图层_1" xmlns="http://www.w3.org/2000/svg" xmlns:xlink="http://www.w3.org/1999/xlink" x="0px" y="0px"
	 viewBox="0 0 360 360" style="enable-background:new 0 0 360 360;" xml:space="preserve">
<style type="text/css">
	.st0{fill:#FFFFFF;}
</style>
<g>
	<path class="st0" d="M0.2,360.5c0-120.1,0-240.2,0-360.2c120.1,0,240.2,0,360.2,0c0,120.1,0,240.2,0,360.2
		C240.4,360.5,120.3,360.5,0.2,360.5z M45.3,311c0.1-0.2,0.3-0.4,0.4-0.5c0.5-0.8,1.1-1.6,1.6-2.4c12-19.4,19.4-40.6,23.8-62.8
		c1.9-9.5,3.2-19.2,3.9-28.9c0.7-9.6,1.3-19.3,1.8-28.9c0.2-3.1,0.2-6.2,0.3-9.3c26,0,51.8,0,77.7,0c0,2.7,0,5.3,0,8.1
		c4.6-1.9,9.1-3.8,13.6-5.7c0.2-0.1,0.4-0.6,0.4-0.9c-0.1-1.4-0.3-2.8-0.3-4.2c-0.3-14.6-0.5-29.2-0.7-43.8c0-0.5,0.3-1.1,0.7-1.4
		c1.3-1.2,2.7-2.3,4-3.4c1.2-1,2.3-2,3.5-3.1c-5.2-4-10.2-7.9-15.3-11.8c-0.3,0.4-0.6,0.8-0.9,1.1c-1.9,2.5-3.8,5.1-5.7,7.6
		c-0.3,0.4-1,0.7-1.5,0.7c-2.6,0.1-5.2,0-7.8,0c-1.3,0-2.7,0-4.1,0c0-11.4,0-22.7,0-34.1c13.7,0,27.3,0,41.2,0
		c-6-6.8-11.9-13.5-17.7-20.1c-4.5,4.2-8.9,8.2-13.4,12.2c-0.4,0.4-1.2,0.7-1.8,0.7c-7.8,0-15.7,0-23.5,0c-0.3,0-0.7,0-0.7-0.1
		c1.7-2.5,3.6-4.9,5-7.5c2.4-4.5,1.8-8.9-1.5-12.8c-0.9-1.1-1.9-2.1-3-3.1c-6.5-5.6-14.1-9.3-21.8-12.8c-0.2-0.1-0.7-0.1-0.8,0
		c-0.8,0.6-1.4,1.3-2.2,2c8.4,10,14.4,20.9,15.4,34.1c-0.3,0-0.5,0-0.7,0c-12.4,0-24.9,0-37.3,0c-0.5,0-1.1-0.2-1.5-0.5
		c-4.1-2.7-8.2-5.4-12.3-8.2c-0.3-0.2-0.7-0.4-1.1-0.7c0,0.5,0,0.9,0,1.2c0.1,5.7,0.2,11.4,0.2,17c0.1,12.2,0.2,24.4,0.2,36.6
		c0,11.8-0.1,23.6-0.2,35.4c0,7-0.1,13.9-0.2,20.9c-0.2,9.2-0.4,18.4-0.6,27.6c-0.3,11.8-1.3,23.6-3,35.3c-3,21-8.2,41.4-15.5,61.3
		c-1,2.8-1,2.8,1.3,4.8C45.1,311,45.1,311,45.3,311z M138.3,221.5c0-0.5,0-0.9,0-1.3c0-6.2,0-12.5,0-18.7c0-0.9,0.3-1.3,1.1-1.7
		c3.2-1.7,6.3-3.5,9.6-5.3c-8.4-3.6-16.6-7.1-24.8-10.6c0.1,2,0.4,3.7,0.4,5.5c0.3,10.8,0.6,21.6,0.7,32.4c0.1,16,0,32.1,0,48.1
		c0,1.1,0.1,2.2,0.1,3.2c0.2,5.2,0,10.3-3.7,14.5c3.9,4.7,7.8,9.4,11.7,14.1c9.4-16.4,23.5-28.3,37.8-40.1c-0.8-1.2-1.6-2.4-2.4-3.5
		c-10.2,5.9-20.3,11.7-30.5,17.6c0-15.8,0-31.3,0-47c9,0,17.9,0,27.1,0c-4.8-5.7-9.5-11.1-14.2-16.6c-2.6,3-5.1,5.8-7.6,8.7
		c-0.3,0.3-0.7,0.7-1,0.7C141.2,221.6,139.8,221.5,138.3,221.5z M107.7,194.5c-8.4-3.6-16.5-7.1-24.8-10.6c0.2,3,0.5,5.9,0.5,8.7
		c0.2,11,0.5,22.1,0.6,33.1c0.1,16.4,0,32.8,0,49.2c0,0.4,0,0.9,0,1.3c0.7,5.1-0.4,9.8-3.1,14.2c-0.3,0.5-0.4,0.9,0.1,1.4
		c0.9,1,1.7,2.1,2.6,3.1c2.9,3.4,5.7,6.9,8.7,10.4c3-6.8,7.4-12.6,12.2-18.1c4.8-5.5,9.8-10.8,14.8-16.3c-0.7-1-1.5-2.2-2.3-3.4
		c-6.7,4.3-13.2,8.5-19.9,12.9c0-16.9,0-33.6,0-50.5c8.2,0,16.3,0,24.7,0c-4.9-5.3-9.5-10.3-14.3-15.4c-2.5,2.5-4.9,4.8-7.2,7.3
		c-1,1-2,1.1-3.2,0.9c0-0.1-0.1-0.2-0.1-0.3c0-6.7,0-13.4,0-20.2c0-0.4,0.4-0.9,0.7-1.1c1.7-1.2,3.4-2.3,5.2-3.5
		C104.5,196.6,106,195.6,107.7,194.5z"/>
	<path d="M45.3,311c-0.1,0-0.2,0-0.2-0.1c-2.3-2-2.3-2-1.3-4.8c7.3-19.9,12.4-40.3,15.5-61.3c1.7-11.7,2.7-23.5,3-35.3
		c0.2-9.2,0.5-18.4,0.6-27.6c0.1-7,0.2-13.9,0.2-20.9c0.1-11.8,0.2-23.6,0.2-35.4c0-12.2-0.1-24.4-0.2-36.6c0-5.7-0.2-11.4-0.2-17
		c0-0.4,0-0.7,0-1.2c0.5,0.3,0.8,0.5,1.1,0.7c4.1,2.7,8.2,5.5,12.3,8.2c0.4,0.3,1,0.5,1.5,0.5c12.4,0,24.9,0,37.3,0
		c0.2,0,0.4,0,0.7,0c-1-13.2-6.9-24.1-15.4-34.1c0.7-0.7,1.4-1.4,2.2-2c0.2-0.1,0.6-0.2,0.8,0c7.7,3.5,15.3,7.2,21.8,12.8
		c1.1,0.9,2.1,2,3,3.1c3.3,3.9,3.9,8.3,1.5,12.8c-1.4,2.6-3.3,5-5,7.5c0.1,0,0.4,0.1,0.7,0.1c7.8,0,15.7,0,23.5,0
		c0.6,0,1.3-0.3,1.8-0.7c4.4-4,8.9-8.1,13.4-12.2c5.9,6.6,11.7,13.3,17.7,20.1c-13.9,0-27.5,0-41.2,0c0,11.4,0,22.7,0,34.1
		c1.4,0,2.7,0,4.1,0c2.6,0,5.2,0,7.8,0c0.5,0,1.1-0.3,1.5-0.7c1.9-2.5,3.8-5,5.7-7.6c0.3-0.3,0.5-0.7,0.9-1.1
		c5.1,3.9,10.2,7.8,15.3,11.8c-1.2,1.1-2.4,2.1-3.5,3.1c-1.3,1.1-2.7,2.3-4,3.4c-0.4,0.3-0.7,0.9-0.7,1.4
		c0.2,14.6,0.5,29.2,0.7,43.8c0,1.4,0.2,2.8,0.3,4.2c0,0.3-0.2,0.8-0.4,0.9c-4.5,1.9-9,3.8-13.6,5.7c0-2.8,0-5.4,0-8.1
		c-25.9,0-51.8,0-77.7,0c-0.1,3.1-0.1,6.2-0.3,9.3c-0.6,9.7-1.1,19.3-1.8,28.9c-0.7,9.7-2,19.3-3.9,28.9
		c-4.4,22.3-11.8,43.4-23.8,62.8c-0.5,0.8-1.1,1.6-1.6,2.4C45.5,310.7,45.4,310.8,45.3,311z M95.7,170.8c0-14.1,0-28.2,0-42.3
		c-6.2,0-12.4,0-18.6,0c0,14.1,0,28.2,0,42.3C83.3,170.8,89.5,170.8,95.7,170.8z M127.6,170.8c0-14.1,0-28.1,0-42.2
		c-6.2,0-12.4,0-18.6,0c0,14.1,0,28.2,0,42.2C115.2,170.8,121.3,170.8,127.6,170.8z M77.1,87.4c0,11.4,0,22.6,0,34
		c6.2,0,12.4,0,18.6,0c0-11.4,0-22.6,0-34C89.5,87.4,83.3,87.4,77.1,87.4z M127.6,121.3c0-11.4,0-22.7,0-33.9c-6.3,0-12.4,0-18.6,0
		c0,11.3,0,22.6,0,33.9C115.2,121.3,121.3,121.3,127.6,121.3z M140.7,128.6c0,14.1,0,28.2,0,42.2c4.7,0,9.3,0,14,0
		c0-14.1,0-28.1,0-42.2C150,128.6,145.4,128.6,140.7,128.6z"/>
	<path d="M138.3,221.5c1.5,0,2.9,0,4.3,0c0.4,0,0.7-0.4,1-0.7c2.5-2.8,5-5.7,7.6-8.7c4.7,5.5,9.4,10.9,14.2,16.6
		c-9.2,0-18.1,0-27.1,0c0,15.7,0,31.2,0,47c10.2-5.9,20.3-11.7,30.5-17.6c0.8,1.2,1.5,2.3,2.4,3.5c-14.3,11.8-28.3,23.7-37.8,40.1
		c-3.9-4.7-7.8-9.4-11.7-14.1c3.7-4.3,3.9-9.4,3.7-14.5c0-1.1-0.1-2.2-0.1-3.2c0-16,0.1-32.1,0-48.1c-0.1-10.8-0.5-21.6-0.7-32.4
		c0-1.8-0.3-3.6-0.4-5.5c8.3,3.5,16.5,7.1,24.8,10.6c-3.3,1.9-6.5,3.6-9.6,5.3c-0.8,0.4-1.1,0.8-1.1,1.7c0,6.2,0,12.5,0,18.7
		C138.3,220.6,138.3,221,138.3,221.5z"/>
	<path d="M107.7,194.5c-1.7,1.1-3.2,2.1-4.7,3.1c-1.7,1.2-3.5,2.3-5.2,3.5c-0.3,0.2-0.7,0.7-0.7,1.1c0,6.7,0,13.4,0,20.2
		c0,0.1,0,0.1,0.1,0.3c1.2,0.2,2.2,0.1,3.2-0.9c2.3-2.5,4.8-4.8,7.2-7.3c4.7,5.1,9.4,10.2,14.3,15.4c-8.4,0-16.5,0-24.7,0
		c0,16.9,0,33.6,0,50.5c6.7-4.3,13.3-8.6,19.9-12.9c0.8,1.2,1.6,2.4,2.3,3.4c-5,5.5-10,10.8-14.8,16.3c-4.8,5.5-9.2,11.3-12.2,18.1
		c-3-3.5-5.8-7-8.7-10.4c-0.9-1-1.7-2.1-2.6-3.1c-0.4-0.5-0.4-0.8-0.1-1.4c2.7-4.4,3.8-9.1,3.1-14.2c-0.1-0.4,0-0.9,0-1.3
		c0-16.4,0.1-32.8,0-49.2c-0.1-11-0.3-22.1-0.6-33.1c-0.1-2.9-0.4-5.7-0.5-8.7C91.2,187.4,99.3,190.9,107.7,194.5z"/>
	<path class="st0" d="M95.7,170.8c-6.2,0-12.4,0-18.6,0c0-14.1,0-28.1,0-42.3c6.2,0,12.3,0,18.6,0C95.7,142.6,95.7,156.7,95.7,170.8
		z"/>
	<path class="st0" d="M127.6,170.8c-6.3,0-12.4,0-18.6,0c0-14.1,0-28.1,0-42.2c6.2,0,12.4,0,18.6,0
		C127.6,142.7,127.6,156.7,127.6,170.8z"/>
	<path class="st0" d="M77.1,87.4c6.2,0,12.4,0,18.6,0c0,11.3,0,22.6,0,34c-6.2,0-12.4,0-18.6,0C77.1,110,77.1,98.8,77.1,87.4z"/>
	<path class="st0" d="M127.6,121.3c-6.2,0-12.4,0-18.6,0c0-11.3,0-22.6,0-33.9c6.2,0,12.4,0,18.6,0
		C127.6,98.7,127.6,109.9,127.6,121.3z"/>
	<path class="st0" d="M140.7,128.6c4.7,0,9.3,0,14,0c0,14.1,0,28.1,0,42.2c-4.6,0-9.3,0-14,0C140.7,156.8,140.7,142.7,140.7,128.6z"
		/>
</g>
</svg>
