<?xml version="1.0" encoding="utf-8"?>
<!-- Generator: Adobe Illustrator 20.1.0, SVG Export Plug-In . SVG Version: 6.00 Build 0)  -->
<svg version="1.1" id="图层_1" xmlns="http://www.w3.org/2000/svg" xmlns:xlink="http://www.w3.org/1999/xlink" x="0px" y="0px"
	 viewBox="0 0 360 360" style="enable-background:new 0 0 360 360;" xml:space="preserve">
<style type="text/css">
	.st0{fill:#FFFFFF;}
</style>
<g>
	<path class="st0" d="M-0.1,360.1c0-120.1,0-240.2,0-360.2c120.1,0,240.2,0,360.2,0c0,120.1,0,240.2,0,360.2
		C240,360.1,120,360.1-0.1,360.1z M82.5,62.1c0,0.6,0,0.8,0,1.1c0.2,9.2,0.4,18.5,0.5,27.7c0.1,9.5,0.2,19,0.2,28.5
		c0,7.7,0,15.4-0.1,23c-0.1,8.4-0.1,16.7-0.2,25.1c-0.2,11.4-0.8,22.8-1.9,34.2c-1.2,12.3-2.9,24.5-5.6,36.6
		c-5.8,26.3-15.9,50.8-31.4,72.9c-0.1,0.2-0.2,0.5-0.4,0.7c1.2,0.8,2.3,1.5,3.5,2.4c1.1-1.2,2.2-2.3,3.3-3.5
		c16.5-17.4,28.4-37.6,36-60.3c4.9-14.5,7.7-29.3,9.5-44.4c2-16.1,2.8-32.3,2.9-48.6c0-1.9,0-3.7,0-5.7c9.1,0,18,0,27.1,0
		c0,0.5,0,0.9,0,1.4c0,17,0,33.9,0,50.9c0,1.7-0.3,3.3-0.6,5c-0.6,3.5-2.2,6.7-4.1,9.8c3.9,5.9,7.8,11.8,11.8,17.7
		c2.1-2.8,4.6-4.8,7.4-6.6c3-1.8,6-3.7,9.1-5.2c12.2-6.2,25-10.9,37.9-15.4c2.2-0.8,4.5-1.5,6.8-2.3c-0.4-1.7-0.8-3.2-1.2-4.7
		c-17.3,3.9-34.5,7.8-51.7,11.7c0-9.1,0-18,0-27c18.4,0,36.7,0,55.3,0c-6-6.4-11.8-12.6-17.7-18.9c-0.3,0.2-0.5,0.4-0.7,0.6
		c-3.8,3.4-7.6,6.9-11.3,10.3c-0.6,0.6-1.3,0.8-2.1,0.8c-7.4,0-14.7,0-22.1,0c-0.4,0-0.9,0-1.4,0c0-0.5,0-0.8,0-1.2
		c0-3.2,0-6.3,0-9.5c0-0.8,0.2-1.2,0.9-1.6c3.3-1.9,6.5-3.9,9.8-5.8c0.3-0.2,0.6-0.4,1.1-0.7c-8.1-3.1-15.9-6.1-23.8-9.1
		c0,0,0-0.1,0.1-0.1c26.3,0,52.7,0,79.1,0c0,0.5,0,0.8,0,1.2c0,16.6,0,33.3,0,49.9c0,1.9-0.1,3.8,0.1,5.7c0.7,6.1,3.5,10.8,9.2,13.5
		c4.1,2,8.6,2.6,13.1,2.6c18.4,0,36.9,0.1,55.3,0c3.7,0,7.3-0.5,11-1c8.7-1.1,13.4-7.2,17.3-14.3c-0.5-0.1-0.8-0.2-1.2-0.3
		c-5.7-1.1-9-4.2-10-9.9c-1-5.7-1.6-11.5-2.4-17.3c-0.3-2.2-0.4-4.4-0.6-6.6c-1.6,0-3.1,0-4.4,0c-0.7,7.3-1.3,14.4-2,21.6
		c-0.3,3.5-1,6.9-2.6,10c-1.7,3.2-4.3,4.8-8,4.8c-15.8,0-31.7,0-47.5,0c-1.1,0-2.2-0.1-3.3-0.2c-5.2-0.7-8.3-3.8-8.5-9
		c-0.2-3.7-0.1-7.4-0.1-11c0-0.7,0.3-0.9,1-1.1c5.4-1.1,10.8-2.2,16.2-3.2c14.5-2.7,29-5.6,43.8-6.9c1.6-0.1,3.2-0.2,5-0.3
		c-4.4-6-8.7-11.8-13-17.7c-4.5,4.3-9.8,7.2-15.2,9.7c-9.9,4.6-20.3,7.9-30.8,10.8c-2.3,0.6-4.5,1.2-6.8,1.8
		c-0.1-0.3-0.2-0.4-0.2-0.5c0-5.9,0-11.8,0-17.6c0-0.4,0.3-0.9,0.7-1.1c1.8-1.4,3.6-2.7,5.4-4c1.1-0.8,2.1-1.6,3.4-2.6
		c-6.5-2.3-12.8-4.5-19.1-6.8c0-0.1,0-0.1,0.1-0.2c19.6,0,39.3,0,59.1,0c0,1.9,0,3.8,0,5.8c5.6-1.6,11-3.1,16.5-4.7
		c-0.1-1.1-0.3-2.1-0.3-3.1c-0.3-10.4-0.6-20.8-0.9-31.2c0-0.9,0.3-1.4,1-1.9c2.6-1.9,5.1-3.8,7.6-5.7c0.3-0.2,0.5-0.4,0.9-0.7
		c-5.6-4.4-11-8.7-16.5-13c-3.3,3.3-6.5,6.5-9.7,9.8c-0.6,0.6-1.2,0.9-2.1,0.9c-14.8,0-29.6,0-44.4,0c-0.4,0-0.9,0-1.4,0
		c0-9.1,0-18,0-27.1c29,0,57.9,0,86.6,0c-7.4-7.4-14.8-14.8-22.2-22.2c-0.1,0.1-0.4,0.4-0.7,0.6c-4.9,4.6-9.8,9.2-14.8,13.7
		c-0.5,0.4-1.2,0.8-1.9,0.8c-23.1,0-46.2,0-69.2,0c-0.4,0-0.7,0-1.4-0.1c0.6-0.5,1-0.8,1.2-1.1c1.6-2,3.3-3.8,4.6-6
		c2.4-4.2,1.8-8.4-1.6-11.9c-1.3-1.3-2.8-2.6-4.3-3.6c-6.2-4.3-13-7.2-20-10.1c-1.2-0.5-2.7-1.5-3.6-1.2c-1,0.3-1.6,2-2.3,3.1
		c0,0.1,0,0.1-0.1,0.3c8.8,8.3,15.3,17.9,16.4,30.5c-0.6,0-1,0-1.5,0c-4.3,0-8.6,0-13,0c-25.4,0-50.7,0-76.1,0
		c-0.8,0-1.7-0.3-2.4-0.8c-1.5-0.9-2.9-2.1-4.4-3.1C90,67.4,86.4,64.9,82.5,62.1z"/>
	<path d="M82.5,62.1c3.9,2.8,7.5,5.3,11.1,7.9c1.5,1,2.9,2.2,4.4,3.1c0.7,0.4,1.6,0.8,2.4,0.8c25.4,0,50.7,0,76.1,0
		c4.3,0,8.6,0,13,0c0.4,0,0.9,0,1.5,0c-1.1-12.7-7.6-22.2-16.4-30.5c0-0.1,0-0.2,0.1-0.3c0.7-1.1,1.3-2.7,2.3-3.1
		c1-0.3,2.4,0.7,3.6,1.2c6.9,2.8,13.8,5.7,20,10.1c1.5,1.1,3,2.3,4.3,3.6c3.4,3.4,4,7.7,1.6,11.9c-1.2,2.2-3,4-4.6,6
		c-0.3,0.3-0.6,0.6-1.2,1.1c0.7,0,1.1,0.1,1.4,0.1c23.1,0,46.2,0,69.2,0c0.6,0,1.4-0.3,1.9-0.8c5-4.5,9.9-9.1,14.8-13.7
		c0.3-0.2,0.5-0.5,0.7-0.6c7.4,7.4,14.8,14.8,22.2,22.2c-28.7,0-57.6,0-86.6,0c0,9.1,0,18,0,27.1c0.5,0,0.9,0,1.4,0
		c14.8,0,29.6,0,44.4,0c0.9,0,1.5-0.3,2.1-0.9c3.2-3.3,6.4-6.5,9.7-9.8c5.5,4.3,11,8.6,16.5,13c-0.3,0.3-0.6,0.5-0.9,0.7
		c-2.5,1.9-5,3.8-7.6,5.7c-0.7,0.5-1,1-1,1.9c0.3,10.4,0.6,20.8,0.9,31.2c0,1,0.2,2,0.3,3.1c-5.5,1.6-10.9,3.1-16.5,4.7
		c0-2,0-3.9,0-5.8c-19.8,0-39.4,0-59.1,0c0,0.1,0,0.1-0.1,0.2c6.3,2.2,12.6,4.5,19.1,6.8c-1.2,0.9-2.3,1.8-3.4,2.6
		c-1.8,1.3-3.6,2.7-5.4,4c-0.3,0.3-0.7,0.8-0.7,1.1c0,5.9,0,11.8,0,17.6c0,0.1,0.1,0.2,0.2,0.5c2.3-0.6,4.5-1.2,6.8-1.8
		c10.5-2.9,20.9-6.2,30.8-10.8c5.5-2.5,10.7-5.4,15.2-9.7c4.3,5.9,8.6,11.7,13,17.7c-1.8,0.1-3.4,0.2-5,0.3
		c-14.7,1.4-29.3,4.2-43.8,6.9c-5.4,1-10.8,2.2-16.2,3.2c-0.7,0.1-1,0.3-1,1.1c0.1,3.7-0.1,7.4,0.1,11c0.3,5.2,3.3,8.3,8.5,9
		c1.1,0.1,2.2,0.2,3.3,0.2c15.8,0,31.7,0,47.5,0c3.7,0,6.3-1.6,8-4.8c1.7-3.1,2.3-6.5,2.6-10c0.7-7.2,1.3-14.3,2-21.6
		c1.3,0,2.8,0,4.4,0c0.2,2.2,0.3,4.4,0.6,6.6c0.7,5.8,1.4,11.6,2.4,17.3c1,5.7,4.3,8.8,10,9.9c0.4,0.1,0.7,0.2,1.2,0.3
		c-4,7.1-8.6,13.2-17.3,14.3c-3.6,0.5-7.3,0.9-11,1c-18.4,0.1-36.9,0.1-55.3,0c-4.5,0-8.9-0.6-13.1-2.6c-5.7-2.7-8.6-7.3-9.2-13.5
		c-0.2-1.9-0.1-3.8-0.1-5.7c0-16.6,0-33.3,0-49.9c0-0.4,0-0.7,0-1.2c-26.4,0-52.7,0-79.1,0c0,0,0,0.1-0.1,0.1c7.9,3,15.7,6,23.8,9.1
		c-0.5,0.3-0.8,0.5-1.1,0.7c-3.3,2-6.5,3.9-9.8,5.8c-0.7,0.4-0.9,0.8-0.9,1.6c0,3.2,0,6.3,0,9.5c0,0.4,0,0.7,0,1.2c0.5,0,1,0,1.4,0
		c7.4,0,14.7,0,22.1,0c0.9,0,1.5-0.2,2.1-0.8c3.8-3.5,7.6-6.9,11.3-10.3c0.2-0.2,0.4-0.3,0.7-0.6c5.9,6.2,11.7,12.5,17.7,18.9
		c-18.6,0-36.9,0-55.3,0c0,9,0,18,0,27c17.2-3.9,34.4-7.8,51.7-11.7c0.4,1.6,0.8,3.1,1.2,4.7c-2.3,0.8-4.6,1.6-6.8,2.3
		c-12.9,4.5-25.7,9.2-37.9,15.4c-3.1,1.6-6.1,3.4-9.1,5.2c-2.8,1.7-5.3,3.8-7.4,6.6c-4-5.9-7.9-11.8-11.8-17.7
		c1.9-3.1,3.5-6.3,4.1-9.8c0.3-1.6,0.6-3.3,0.6-5c0-17,0-33.9,0-50.9c0-0.4,0-0.9,0-1.4c-9,0-18,0-27.1,0c0,1.9,0,3.8,0,5.7
		c-0.1,16.2-1,32.4-2.9,48.6c-1.9,15.1-4.7,30-9.5,44.4c-7.6,22.7-19.5,42.9-36,60.3c-1.1,1.2-2.2,2.3-3.3,3.5
		c-1.2-0.8-2.3-1.6-3.5-2.4c0.1-0.3,0.2-0.5,0.4-0.7c15.5-22.1,25.6-46.6,31.4-72.9c2.6-12.1,4.4-24.3,5.6-36.6
		c1.1-11.4,1.8-22.8,1.9-34.2c0.1-8.4,0.2-16.7,0.2-25.1c0.1-7.7,0.1-15.4,0.1-23c0-9.5-0.1-19-0.2-28.5c-0.1-9.2-0.4-18.5-0.5-27.7
		C82.5,62.9,82.5,62.7,82.5,62.1z M99.1,144.5c16.5,0,32.9,0,49.3,0c0-9.8,0-19.5,0-29.2c-16.4,0-32.8,0-49.3,0
		C99.1,125.1,99.1,134.8,99.1,144.5z M273.3,115.3c-16.5,0-32.9,0-49.3,0c0,9.8,0,19.5,0,29.2c16.5,0,32.9,0,49.3,0
		C273.3,134.8,273.3,125.1,273.3,115.3z M99.1,108c16.5,0,32.9,0,49.2,0c0-9,0-18,0-26.9c-16.5,0-32.8,0-49.2,0
		C99.1,90.1,99.1,99,99.1,108z M208.5,144.6c0-9.8,0-19.5,0-29.3c-14.9,0-29.7,0-44.6,0c0,9.8,0,19.5,0,29.3
		C178.8,144.6,193.6,144.6,208.5,144.6z M163.9,108c14.9,0,29.7,0,44.6,0c0-9,0-17.9,0-26.9c-14.9,0-29.7,0-44.6,0
		C163.9,90.1,163.9,99,163.9,108z"/>
	<path class="st0" d="M99.1,144.5c0-9.7,0-19.4,0-29.2c16.4,0,32.8,0,49.3,0c0,9.7,0,19.4,0,29.2C132,144.5,115.6,144.5,99.1,144.5z
		"/>
	<path class="st0" d="M273.3,115.3c0,9.8,0,19.5,0,29.2c-16.4,0-32.8,0-49.3,0c0-9.7,0-19.4,0-29.2
		C240.4,115.3,256.8,115.3,273.3,115.3z"/>
	<path class="st0" d="M99.1,108c0-9,0-17.9,0-26.9c16.4,0,32.8,0,49.2,0c0,8.9,0,17.8,0,26.9C132,108,115.6,108,99.1,108z"/>
	<path class="st0" d="M208.5,144.6c-14.9,0-29.7,0-44.6,0c0-9.8,0-19.5,0-29.3c14.9,0,29.7,0,44.6,0
		C208.5,125.1,208.5,134.8,208.5,144.6z"/>
	<path class="st0" d="M163.9,108c0-9,0-17.9,0-26.9c14.8,0,29.6,0,44.6,0c0,8.9,0,17.9,0,26.9C193.6,108,178.8,108,163.9,108z"/>
</g>
</svg>
