<?xml version="1.0" encoding="utf-8"?>
<!-- Generator: Adobe Illustrator 20.1.0, SVG Export Plug-In . SVG Version: 6.00 Build 0)  -->
<svg version="1.1" id="图层_1" xmlns="http://www.w3.org/2000/svg" xmlns:xlink="http://www.w3.org/1999/xlink" x="0px" y="0px"
	 viewBox="0 0 360 360" style="enable-background:new 0 0 360 360;" xml:space="preserve">
<style type="text/css">
	.st0{fill:#FFFFFF;}
</style>
<g>
	<path class="st0" d="M0.2,360.5c0-120.1,0-240.2,0-360.2c120.1,0,240.2,0,360.2,0c0,120.1,0,240.2,0,360.2
		C240.4,360.5,120.3,360.5,0.2,360.5z M164.2,42.4c2.7,2.4,5.4,4.6,8,7c5.8,5.4,10.6,11.5,13.6,18.9c0.7,1.9,1.3,3.8,2,5.9
		c-0.7,0-1.1,0.1-1.5,0.1c-31.4,0-62.7,0-94.1,0c-0.7,0-1.4-0.2-2-0.5c-6-3.5-11.9-7-17.9-10.5c-0.4-0.2-0.7-0.4-1.1-0.6
		c0,2.9,0,5.7,0,8.5c0.1,9.6,0.2,19.3,0.2,28.9c0,11.5-0.1,23-0.2,34.6c0,5.8-0.1,11.5-0.2,17.3c-0.3,13.2-0.6,26.4-1,39.6
		c-0.3,13-1.2,25.9-2.9,38.7c-2.2,16.4-5.7,32.5-10.8,48.2c-3.6,11-8,21.6-13.2,32c-0.2,0.3-0.2,0.9,0,1.2c0.5,0.7,1.2,1.4,1.9,2.1
		c0.4-0.5,0.7-0.8,0.9-1.1c7.2-8.9,13.3-18.6,18.2-29c7.9-16.5,13.3-33.9,16.2-52c1.9-12.1,3.2-24.3,3.8-36.6
		c0.9-18.8,1.6-37.6,2.2-56.4c0.3-7.9,0.2-15.8,0.3-23.7c0-9.8-0.1-19.6-0.1-29.4c0-1.3,0-2.6,0-4.1c75,0,149.9,0,224.6,0
		c-7.4-7.4-14.8-14.8-22.3-22.3c-0.2,0.2-0.4,0.6-0.8,0.9c-4.5,4.5-8.9,8.9-13.4,13.4c-0.6,0.6-1.3,0.9-2.2,0.9c-25.3,0-50.6,0-76,0
		c-0.4,0-0.8,0-1.4-0.1c0.5-0.7,0.9-1.1,1.3-1.6c1.9-2.4,3.6-4.9,4.6-7.8c1.5-4.5,0.6-8.4-3-11.5c-2.1-1.8-4.5-3.4-6.9-4.7
		c-6.6-3.7-13.8-6.1-21-8.4c-1.2-0.4-2.6-1.2-3.6-0.9c-1,0.4-1.5,1.9-2.2,3C164.3,42.3,164.3,42.4,164.2,42.4z M246.7,115.5
		c0-5.4,0-10.7,0-15.9c0-0.4,0.3-0.8,0.6-1.1c1.6-1.7,3.3-3.4,5-5c0.9-0.8,1.8-1.6,2.9-2.6c-8.2-2.9-16-5.6-23.9-8.4
		c0.8,11.1,1.2,22,1.1,33c-12.6,0-25,0-37.7,0c3.6,3.6,6.9,7,10.3,10.3c0.2,0.2,0.8,0.2,1.2,0.1c5.7-1.5,11.4-2.5,17.2-3
		c2.5-0.2,5.1-0.3,7.9-0.4c-13.3,22.2-28.4,42.5-48.2,58.9c1.2,1.2,2.4,2.4,3.6,3.6c17-11.1,32.4-24.1,45.6-39.6
		c0.2,0,0.3,0.1,0.5,0.1c-0.4,13.1-0.7,26.2-1.1,39.3c0,0,0.1,0,0.2,0c5.1-2.2,10.3-4.4,15.4-6.6c0.3-0.1,0.6-0.7,0.6-1.1
		c-0.2-5.8-0.6-11.7-0.7-17.5c-0.2-11.8-0.2-23.6-0.3-35.4c0-0.3,0.1-0.6,0.1-1.3c10.1,23,23.9,42.9,42.3,59.7
		c6-6.8,13.7-9.8,22.4-10.7c0-0.7,0-1.3,0-1.8c0-0.6,0-1.1,0-1.6c-0.3-0.1-0.6-0.2-0.8-0.2c-10.4-2.4-19.7-7.2-28.3-13.4
		c-9.6-7-17.7-15.4-25.1-24.6c-2-2.4-3.8-5-6-7.7c18.2,0,36.1,0,54.3,0c-5.6-6-11-11.8-16.7-17.9c-0.3,0.4-0.5,0.9-0.8,1.2
		c-2.9,2.9-5.8,5.8-8.7,8.8c-0.6,0.6-1.2,0.9-2.1,0.9c-9.8,0-19.5,0-29.3,0C247.6,115.5,247.2,115.5,246.7,115.5z M93.7,115.5
		c0,0.1-0.1,0.2-0.1,0.3c3.4,3.4,6.7,6.7,10.1,10.1c0.2,0.2,0.8,0.2,1.2,0.1c8.2-2.2,16.6-3.1,25.1-3.3c3-0.1,6,0,9.3,0
		c-13.8,23.1-30,44-50.6,61.2c0.8,1.2,1.6,2.4,2.4,3.6c19.1-12.4,36.6-26.3,50.5-44.5c0.1,0.1,0.2,0.1,0.3,0.2
		c-0.4,13.1-0.8,26.3-1.2,39.5c5.4-1.9,10.9-3.9,16.3-5.8c-1.1-13.3-1.1-26.5-1.1-39.9c0.3,0.2,0.5,0.3,0.6,0.3
		c8.3,6.4,15.4,13.8,20.4,23.1c0.9,1.7,2.2,3.4,3.5,4.8c1.8,1.9,3.9,1.7,5.4-0.5c1.2-1.8,2.2-3.7,2.8-5.8c2-5.8,0.4-10.7-4.4-14.5
		c-3.6-2.9-7.7-5-12-6.7c-5.1-2-10.2-3.7-15.3-5.5c-0.4-0.1-0.9-0.5-1-0.8c-0.1-2.9,0-5.8,0-8.9c12.6,0,25,0,37.7,0
		c-5.2-5.6-10.3-11.1-15.4-16.5c-0.2,0.2-0.4,0.3-0.5,0.4c-3,2.7-6.1,5.4-9.1,8.1c-0.7,0.6-1.3,0.9-2.2,0.8c-2.5,0-5,0-7.4,0
		c-1,0-2,0-3,0c0-4.4,0.2-8.6-0.1-12.9c-0.1-2.6,0.6-4.4,2.6-6.1c2-1.7,3.8-3.7,5.8-5.7c-8-2.4-15.7-4.7-23.4-7
		c0.4,10.6,0.8,21.1,1.1,31.7C125.7,115.5,109.7,115.5,93.7,115.5z"/>
	<path d="M164.2,42.4c0-0.1,0-0.1,0.1-0.2c0.7-1.1,1.2-2.6,2.2-3c1-0.4,2.4,0.5,3.6,0.9c7.2,2.3,14.3,4.8,21,8.4
		c2.4,1.3,4.8,2.9,6.9,4.7c3.6,3.1,4.5,7,3,11.5c-1,2.9-2.7,5.4-4.6,7.8c-0.4,0.5-0.8,1-1.3,1.6c0.6,0,1,0.1,1.4,0.1
		c25.3,0,50.6,0,76,0c0.9,0,1.6-0.3,2.2-0.9c4.4-4.5,8.9-8.9,13.4-13.4c0.3-0.3,0.6-0.7,0.8-0.9c7.5,7.5,14.9,14.9,22.3,22.3
		c-74.7,0-149.6,0-224.6,0c0,1.5,0,2.8,0,4.1c0.1,9.8,0.2,19.6,0.1,29.4c0,7.9,0,15.8-0.3,23.7c-0.6,18.8-1.3,37.6-2.2,56.4
		c-0.6,12.3-1.9,24.5-3.8,36.6c-2.8,18.1-8.3,35.4-16.2,52c-5,10.4-11,20-18.2,29c-0.2,0.3-0.5,0.6-0.9,1.1
		c-0.7-0.7-1.4-1.4-1.9-2.1c-0.2-0.3-0.1-0.9,0-1.2c5.2-10.3,9.6-21,13.2-32c5.1-15.7,8.6-31.8,10.8-48.2
		c1.7-12.9,2.6-25.8,2.9-38.7c0.3-13.2,0.7-26.4,1-39.6c0.1-5.8,0.2-11.5,0.2-17.3c0.1-11.5,0.2-23,0.2-34.6
		c0-9.6-0.2-19.3-0.2-28.9c0-2.8,0-5.6,0-8.5c0.4,0.2,0.8,0.4,1.1,0.6c6,3.5,11.9,7,17.9,10.5c0.6,0.3,1.3,0.5,2,0.5
		c31.4,0,62.7,0,94.1,0c0.4,0,0.8,0,1.5-0.1c-0.7-2-1.2-4-2-5.9c-3-7.4-7.9-13.5-13.6-18.9C169.7,47,166.9,44.8,164.2,42.4z"/>
	<path d="M246.7,115.5c0.5,0,0.9,0,1.3,0c9.8,0,19.5,0,29.3,0c0.9,0,1.5-0.3,2.1-0.9c2.9-2.9,5.8-5.8,8.7-8.8
		c0.3-0.3,0.5-0.7,0.8-1.2c5.7,6.1,11.1,11.9,16.7,17.9c-18.1,0-36,0-54.3,0c2.1,2.8,4,5.3,6,7.7c7.4,9.2,15.6,17.6,25.1,24.6
		c8.6,6.3,17.9,11,28.3,13.4c0.2,0.1,0.5,0.1,0.8,0.2c0,0.5,0,1.1,0,1.6c0,0.6,0,1.1,0,1.8c-8.8,0.8-16.5,3.9-22.4,10.7
		c-18.4-16.8-32.2-36.7-42.3-59.7c-0.1,0.6-0.1,0.9-0.1,1.3c0.1,11.8,0.1,23.6,0.3,35.4c0.1,5.8,0.5,11.7,0.7,17.5
		c0,0.4-0.3,0.9-0.6,1.1c-5.1,2.2-10.3,4.4-15.4,6.6c-0.1,0-0.2,0-0.2,0c0.4-13.1,0.7-26.2,1.1-39.3c-0.2,0-0.3-0.1-0.5-0.1
		C219,161,203.6,174,186.6,185c-1.2-1.2-2.3-2.4-3.6-3.6c19.8-16.4,34.9-36.7,48.2-58.9c-2.8,0.1-5.4,0.2-7.9,0.4
		c-5.8,0.5-11.6,1.5-17.2,3c-0.4,0.1-1,0.1-1.2-0.1c-3.4-3.3-6.7-6.7-10.3-10.3c12.7,0,25.1,0,37.7,0c0.1-11.1-0.3-21.9-1.1-33
		c7.9,2.8,15.7,5.5,23.9,8.4c-1.1,1-2,1.7-2.9,2.6c-1.7,1.6-3.4,3.3-5,5c-0.3,0.3-0.6,0.7-0.6,1.1
		C246.7,104.8,246.7,110,246.7,115.5z"/>
	<path d="M93.7,115.5c16,0,31.9,0,48.2,0c-0.4-10.6-0.8-21.1-1.1-31.7c7.7,2.3,15.5,4.6,23.4,7c-2,2-3.8,4-5.8,5.7
		c-2,1.7-2.7,3.5-2.6,6.1c0.2,4.2,0.1,8.5,0.1,12.9c1.1,0,2.1,0,3,0c2.5,0,5,0,7.4,0c0.9,0,1.6-0.2,2.2-0.8c3-2.7,6.1-5.4,9.1-8.1
		c0.1-0.1,0.3-0.2,0.5-0.4c5.1,5.5,10.1,10.9,15.4,16.5c-12.7,0-25.2,0-37.7,0c0,3,0,6,0,8.9c0,0.3,0.6,0.6,1,0.8
		c5.1,1.8,10.3,3.5,15.3,5.5c4.3,1.7,8.4,3.8,12,6.7c4.8,3.8,6.3,8.7,4.4,14.5c-0.7,2-1.7,4-2.8,5.8c-1.5,2.2-3.6,2.4-5.4,0.5
		c-1.4-1.4-2.6-3.1-3.5-4.8c-4.9-9.4-12-16.8-20.4-23.1c-0.1-0.1-0.3-0.2-0.6-0.3c0,13.4,0,26.6,1.1,39.9
		c-5.4,1.9-10.9,3.9-16.3,5.8c0.4-13.2,0.8-26.4,1.2-39.5c-0.1-0.1-0.2-0.1-0.3-0.2c-13.9,18.1-31.4,32.1-50.5,44.5
		c-0.8-1.2-1.6-2.4-2.4-3.6c20.6-17.3,36.8-38.1,50.6-61.2c-3.3,0-6.3-0.1-9.3,0c-8.5,0.2-16.9,1.1-25.1,3.3c-0.4,0.1-1,0.1-1.2-0.1
		c-3.4-3.3-6.7-6.7-10.1-10.1C93.7,115.7,93.7,115.6,93.7,115.5z"/>
</g>
</svg>
