<?xml version="1.0" encoding="utf-8"?>
<!-- Generator: Adobe Illustrator 20.1.0, SVG Export Plug-In . SVG Version: 6.00 Build 0)  -->
<svg version="1.1" id="图层_1" xmlns="http://www.w3.org/2000/svg" xmlns:xlink="http://www.w3.org/1999/xlink" x="0px" y="0px"
	 viewBox="0 0 360 360" style="enable-background:new 0 0 360 360;" xml:space="preserve">
<style type="text/css">
	.st0{fill:#FFFFFF;}
</style>
<g>
	<path class="st0" d="M-0.1,360.1c0-120.1,0-240.2,0-360.2c120.1,0,240.2,0,360.2,0c0,120.1,0,240.2,0,360.2
		C240,360.1,120,360.1-0.1,360.1z M142,70.4c0-0.1-0.1-0.2-0.1-0.3c9.5-7.6,19.1-15.4,30.2-20.9c-6.7-4-13.3-7.8-19.9-11.7
		c-0.9,2.7-1.7,5.4-2.7,7.9C146,54.1,141,62,135.9,69.8c-0.2,0.4-0.9,0.6-1.4,0.6c-6.3,0-12.6,0-19,0c-0.7,0-1.5-0.2-2.2-0.5
		c-5.5-2.7-11-5.5-16.5-8.2c-0.4-0.2-0.8-0.4-1.4-0.7c1.6,36.2,1.6,72.2,0,108.4c5.5-1.6,10.7-3.1,15.9-4.6c0.3-0.1,0.6-0.6,0.6-0.9
		c0.1-1.3,0-2.5,0-3.9c56.6,0,113.1,0,169.5,0c0,0.2,0,0.4,0,0.5c-1.4,9.6-2.7,19.3-4.3,28.9c-1,5.7-2.4,11.3-3.8,16.9
		c-0.4,1.5-1.1,3.2-2.1,4.4c-3.5,4-8,5.9-13.3,4.9c-7.4-1.3-14.8-2.8-22.1-4.3c-4.4-0.9-8.8-2.1-13.2-3.2c-0.4,1.6-0.8,3.1-1.1,4.6
		c0.1,0.1,0.2,0.2,0.3,0.2c0.4,0.1,0.7,0.3,1.1,0.4c7,2.6,13.8,5.4,20.1,9.6c2.2,1.4,4.2,3.1,6.1,4.8c3.2,2.9,5.3,6.5,5.5,11
		c6.5-1.9,12.9-3.9,18.8-7.1c2.7-1.5,5.3-3.2,7.5-5.3c5-4.7,7.6-10.8,9.2-17.3c3.4-14.1,5.5-28.5,7.7-42.8c0.3-2,0.9-3.5,2.8-4.4
		c1.7-0.9,3.2-2.1,4.7-3.1c-5.6-5.6-11-11-16.7-16.7c-0.2,0.3-0.4,0.8-0.7,1.1c-2.9,3-5.9,5.9-8.8,8.8c-0.6,0.6-1.2,0.9-2.1,0.9
		c-54.5,0-109,0-163.4,0c-0.4,0-0.9,0-1.3-0.1c0-4.7,0-9.3,0-14c65.9,0,131.7,0,197.9,0c-6.4-6.8-12.6-13.4-19.1-20.3
		c-0.3,0.5-0.5,0.9-0.8,1.2c-3.7,3.7-7.4,7.4-11.1,11.1c-0.6,0.6-1.2,0.9-2.1,0.9c-54.5,0-109,0-163.4,0c-0.4,0-0.9,0-1.3,0
		c0-4.7,0-9.3,0-14c43.6,0,87,0,130.7,0c0,2.3,0,4.6,0,6.8c0.2,0,0.3,0,0.4,0c5.2-2.2,10.4-4.4,15.5-6.7c0.3-0.1,0.5-0.7,0.5-1.1
		c-0.2-4.7-0.6-9.4-0.7-14.1c-0.2-7-0.2-13.9-0.4-20.9c0-1.4,0.4-2.1,1.6-2.8c2.3-1.1,4.4-2.5,6.6-3.7c-5.1-5.1-10.2-10.2-15.5-15.5
		c-0.2,0.3-0.4,0.7-0.7,1.1c-2.9,2.9-5.8,5.8-8.6,8.7c-0.7,0.8-1.5,1-2.5,1c-31.9,0-63.8,0-95.6,0C142.8,70.4,142.4,70.4,142,70.4z
		 M89.7,175.3c-1,0-1.8,0-2.6,0c-0.8-0.1-1.2,0.2-1.4,1c-0.5,2-1.2,4.1-1.9,6.1c-2.3,6.7-5.2,13.2-9.9,18.6
		c-2.4,2.7-5.4,4.9-7.9,7.4c-1.5,1.5-2.9,3.1-4,4.9c-1.2,2.1-0.8,4.3,1.2,5.6c1.8,1.2,3.8,2.3,5.8,3c3.9,1.3,7.5,0.4,10.7-2.4
		c4.1-3.6,6.2-8.3,7.5-13.5c1.3-5.3,1.8-10.8,2-16.3C89.5,185,89.6,180.2,89.7,175.3z M212.1,167c-0.3,0.9-0.5,1.6-0.8,2.3
		c-0.5,1-0.2,1.5,0.7,2.1c9.7,6.4,17.7,14.2,22.7,24.9c1,2.2,2.6,4.1,4.3,5.8c1.8,1.8,4,1.8,6,0.3c3.3-2.5,6.7-7.8,5-13.8
		c-1.3-4.7-4.3-7.9-8.3-10.3C232.5,172.7,222.4,169.9,212.1,167z M160.3,174.1c0.3,0.4,0.5,0.7,0.8,1c3.4,4.5,6.9,9,10.2,13.6
		c3.8,5.4,7.2,11.1,8.9,17.6c0.3,1,0.7,1.9,1.2,2.8c1.7,3,4,3.5,6.7,1.3c3.5-2.9,5.2-6.7,5.7-11.1c0.4-3.7,0-7.1-2.8-9.9
		c-1.8-1.8-3.7-3.6-5.8-5.2c-6.2-4.6-13-8.1-19.9-11.4C162.5,171.6,162.4,171.6,160.3,174.1z M114.3,178.8c0.3,0.3,0.6,0.7,0.8,1
		c6.4,7.4,10.7,15.9,13.1,25.4c0.7,2.8,1.6,5.7,2.9,8.3c1.6,3.2,4.1,3.4,6.8,1.1c2.5-2.2,4.4-4.8,5.5-7.9c1.8-5.1,1.2-9.8-2.6-13.9
		c-1.1-1.2-2.2-2.3-3.5-3.3c-5.6-4.7-11.8-8.3-18.2-11.7c-2.6-1.4-2.6-1.4-4.6,0.8C114.5,178.6,114.4,178.7,114.3,178.8z"/>
	<path d="M142,70.4c0.4,0,0.9,0,1.3,0c31.9,0,63.8,0,95.6,0c1,0,1.8-0.3,2.5-1c2.8-2.9,5.8-5.8,8.6-8.7c0.3-0.3,0.5-0.7,0.7-1.1
		c5.3,5.3,10.4,10.4,15.5,15.5c-2.2,1.2-4.3,2.6-6.6,3.7c-1.2,0.6-1.7,1.4-1.6,2.8c0.2,7,0.2,13.9,0.4,20.9
		c0.1,4.7,0.5,9.4,0.7,14.1c0,0.4-0.2,1-0.5,1.1c-5.2,2.3-10.3,4.5-15.5,6.7c-0.1,0-0.2,0-0.4,0c0-2.2,0-4.5,0-6.8
		c-43.6,0-87.1,0-130.7,0c0,4.6,0,9.2,0,14c0.5,0,0.9,0,1.3,0c54.5,0,109,0,163.4,0c0.9,0,1.5-0.2,2.1-0.9
		c3.7-3.7,7.4-7.4,11.1-11.1c0.3-0.3,0.5-0.7,0.8-1.2c6.5,6.9,12.7,13.5,19.1,20.3c-66.1,0-132,0-197.9,0c0,4.7,0,9.3,0,14
		c0.4,0,0.9,0.1,1.3,0.1c54.5,0,109,0,163.4,0c0.9,0,1.5-0.3,2.1-0.9c2.9-3,5.9-5.9,8.8-8.8c0.3-0.3,0.5-0.7,0.7-1.1
		c5.7,5.7,11.2,11.2,16.7,16.7c-1.5,1-3,2.2-4.7,3.1c-1.9,1-2.5,2.4-2.8,4.4c-2.1,14.3-4.2,28.7-7.7,42.8
		c-1.6,6.5-4.2,12.6-9.2,17.3c-2.2,2.1-4.8,3.8-7.5,5.3c-5.9,3.3-12.2,5.2-18.8,7.1c-0.2-4.5-2.3-8.1-5.5-11
		c-1.9-1.8-3.9-3.4-6.1-4.8c-6.2-4.1-13.1-7-20.1-9.6c-0.4-0.1-0.7-0.3-1.1-0.4c-0.1,0-0.1-0.1-0.3-0.2c0.4-1.5,0.7-3,1.1-4.6
		c4.5,1.1,8.8,2.2,13.2,3.2c7.3,1.5,14.7,3,22.1,4.3c5.3,0.9,9.8-0.9,13.3-4.9c1-1.2,1.7-2.8,2.1-4.4c1.4-5.6,2.8-11.2,3.8-16.9
		c1.6-9.6,2.9-19.3,4.3-28.9c0-0.2,0-0.3,0-0.5c-56.5,0-112.9,0-169.5,0c0,1.3,0,2.6,0,3.9c0,0.3-0.3,0.9-0.6,0.9
		c-5.2,1.5-10.5,3-15.9,4.6C97,133.2,97,97.2,95.5,61c0.6,0.3,1,0.4,1.4,0.7c5.5,2.8,11,5.5,16.5,8.2c0.6,0.3,1.4,0.5,2.2,0.5
		c6.3,0,12.6,0,19,0c0.5,0,1.1-0.3,1.4-0.6C141,62,146,54.1,149.5,45.4c1-2.5,1.8-5.2,2.7-7.9c6.5,3.9,13.1,7.7,19.9,11.7
		c-11.2,5.6-20.7,13.3-30.2,20.9C141.9,70.2,141.9,70.3,142,70.4z M242.6,77.6c-43.6,0-87,0-130.6,0c0,4.7,0,9.3,0,13.9
		c43.6,0,87.1,0,130.6,0C242.6,86.8,242.6,82.2,242.6,77.6z M112.1,110.4c43.6,0,87.1,0,130.6,0c0-3.9,0-7.7,0-11.6
		c-43.6,0-87,0-130.6,0C112.1,102.7,112.1,106.5,112.1,110.4z"/>
	<path d="M89.7,175.3c-0.2,4.9-0.2,9.7-0.5,14.4c-0.3,5.5-0.7,10.9-2,16.3c-1.3,5.2-3.5,9.9-7.5,13.5c-3.1,2.8-6.7,3.7-10.7,2.4
		c-2-0.7-4-1.7-5.8-3c-2-1.4-2.5-3.6-1.2-5.6c1.1-1.8,2.5-3.4,4-4.9c2.6-2.5,5.6-4.7,7.9-7.4c4.7-5.4,7.6-11.9,9.9-18.6
		c0.7-2,1.3-4,1.9-6.1c0.2-0.8,0.6-1.1,1.4-1C87.9,175.3,88.7,175.3,89.7,175.3z"/>
	<path d="M212.1,167c10.3,3,20.4,5.8,29.6,11.3c4,2.4,7.1,5.6,8.3,10.3c1.6,6.1-1.8,11.3-5,13.8c-2,1.5-4.2,1.5-6-0.3
		c-1.7-1.7-3.3-3.7-4.3-5.8c-5-10.7-13-18.5-22.7-24.9c-0.9-0.6-1.1-1.1-0.7-2.1C211.6,168.6,211.8,167.8,212.1,167z"/>
	<path d="M160.3,174.1c2.2-2.5,2.2-2.5,5-1.2c6.9,3.3,13.8,6.8,19.9,11.4c2.1,1.5,4,3.4,5.8,5.2c2.8,2.7,3.2,6.2,2.8,9.9
		c-0.5,4.4-2.2,8.2-5.7,11.1c-2.7,2.2-5,1.8-6.7-1.3c-0.5-0.9-1-1.9-1.2-2.8c-1.7-6.5-5.1-12.2-8.9-17.6c-3.3-4.6-6.8-9.1-10.2-13.6
		C160.8,174.8,160.5,174.5,160.3,174.1z"/>
	<path d="M114.3,178.8c0.1-0.1,0.2-0.2,0.2-0.3c2-2.2,2-2.2,4.6-0.8c6.4,3.5,12.6,7.1,18.2,11.7c1.2,1,2.4,2.2,3.5,3.3
		c3.8,4.1,4.4,8.8,2.6,13.9c-1.1,3.1-3,5.7-5.5,7.9c-2.7,2.4-5.2,2.1-6.8-1.1c-1.3-2.6-2.2-5.5-2.9-8.3c-2.4-9.5-6.7-18-13.1-25.4
		C114.9,179.5,114.6,179.2,114.3,178.8z"/>
	<path class="st0" d="M242.6,77.6c0,4.6,0,9.2,0,13.9c-43.5,0-87,0-130.6,0c0-4.6,0-9.2,0-13.9C155.6,77.6,199.1,77.6,242.6,77.6z"
		/>
	<path class="st0" d="M112.1,110.4c0-3.9,0-7.7,0-11.6c43.5,0,87,0,130.6,0c0,3.9,0,7.7,0,11.6C199.1,110.4,155.7,110.4,112.1,110.4
		z"/>
</g>
</svg>
