<?xml version="1.0" encoding="utf-8"?>
<!-- Generator: Adobe Illustrator 20.1.0, SVG Export Plug-In . SVG Version: 6.00 Build 0)  -->
<svg version="1.1" id="图层_1" xmlns="http://www.w3.org/2000/svg" xmlns:xlink="http://www.w3.org/1999/xlink" x="0px" y="0px"
	 viewBox="0 0 360 360" style="enable-background:new 0 0 360 360;" xml:space="preserve">
<style type="text/css">
	.st0{fill:#FFFFFF;}
</style>
<g>
	<path class="st0" d="M-0.1,360.1c0-120.1,0-240.2,0-360.2c120.1,0,240.2,0,360.2,0c0,120.1,0,240.2,0,360.2
		C240,360.1,120,360.1-0.1,360.1z M295.7,207.2c-0.2,2.8-0.3,5.4-0.5,8.1c-0.8,10.2-1.5,20.3-2.3,30.5c-0.8,9.5-1.8,19-3.6,28.4
		c-1,5.4-2.8,10.6-5.8,15.2c-2.8,4.3-6.7,6.2-11.8,5.3c-7.3-1.3-14.5-2.7-21.8-4.1c-3.2-0.6-6.3-1.5-9.6-2.3
		c-0.4,1.6-0.8,3.2-1.2,4.7c1.3,0.5,2.5,1,3.7,1.6c7.1,3.1,14.1,6.4,20.3,11.2c2.9,2.3,5.6,4.8,7,8.3c0.5,1.1,0.7,2.3,1,3.6
		c6.3-2.2,12.5-4.7,17.9-8.7c3.1-2.3,5.6-5.2,7.5-8.6c2.3-4.4,3.9-9,5.2-13.7c2.3-8.4,3.7-17,4.6-25.7c1.1-10.2,2.1-20.4,3-30.7
		c0.6-6.6,1-13.2,1.6-19.8c0.1-0.7,0.5-1.4,1-1.9c2-1.8,4.1-3.6,6.2-5.3c0.4-0.3,0.7-0.7,1.1-1c-6-4.4-11.8-8.6-17.7-13
		c-0.3,0.4-0.5,0.8-0.8,1.1c-1.9,2.8-3.8,5.6-5.6,8.5c-0.5,0.8-1,1-1.9,1c-32.1,0-64.2,0-96.2,0c-0.4,0-0.9,0-1.3,0
		c0-7.9,0-15.7,0-23.6c37.6,0,75.2,0,113,0c-6-6.4-11.8-12.6-17.7-18.9c-3.7,3.7-7.3,7.3-10.9,11c-0.6,0.6-1.2,0.8-2,0.8
		c-27,0-54.1,0-81.1,0c-0.4,0-0.8,0-1.2,0c0-8.3,0-16.4,0-24.6c24.3,0,48.5,0,72.9,0c0,3.9,0,7.7,0,11.7c5.1-2.3,9.9-4.6,14.7-6.8
		c0.3-0.1,0.5-0.7,0.5-1c-0.3-7.7-0.7-15.5-0.8-23.2c-0.2-12.2-0.2-24.3-0.3-36.5c0-0.4,0.4-1,0.8-1.3c2.5-1.6,5.1-3.2,7.6-4.8
		c0.3-0.2,0.6-0.4,0.9-0.6C287,77.1,282,72,276.6,66.7c-0.2,0.3-0.4,0.8-0.7,1.1c-3,3-5.9,6-8.9,8.9c-0.5,0.4-1.2,0.8-1.9,0.8
		c-16.4,0-32.9,0-49.3,0c-0.4,0-0.7,0-1.3-0.1c1.7-2.6,3.2-5.1,4.7-7.6c3.8-5.8,7.9-11.5,12.9-16.3c2.4-2.3,5-4.2,8.2-5.5
		c-7.9-3.6-15.7-7.1-23.6-10.6c-0.1,1-0.2,1.9-0.3,2.7c-1.5,12.4-4.5,24.4-7.7,36.4c-0.2,0.7-0.5,0.9-1.2,0.9c-2.9,0-5.8,0-8.6,0
		c-0.6,0-1.3-0.2-1.9-0.5c-5.2-2.7-10.4-5.5-15.6-8.3c-0.3-0.2-0.7-0.3-1.1-0.5c1.4,51.1,1.4,102,0,153c0.4-0.1,0.7-0.2,0.9-0.3
		c4.4-1.7,8.7-3.4,13.1-5c0.9-0.3,1.3-0.8,1.3-1.8c-0.1-2.3,0-4.5,0-6.9C229,207.2,262.3,207.2,295.7,207.2z M254.5,223.5
		c1,1.5,1.9,3,2.8,4.4c5.5,9,9.9,18.6,12.1,29c0.5,2.5,1.4,5.1,2.5,7.4c1.2,2.5,3.4,2.9,5.5,1.1c3.8-3.3,6.2-7.4,6.4-12.5
		c0.1-4.4-1.7-8.2-4.3-11.7c-4.3-5.9-9.8-10.6-15.3-15.3c-2-1.6-4-3.2-6-4.8C256.8,222,255.7,222.7,254.5,223.5z M194.5,235.3
		c1,3.1,2.1,6.1,3,9.1c3.1,9.7,5.3,19.5,5.2,29.7c0,1.8,0.4,3.7,0.9,5.4c0.9,3.1,2.8,3.7,5.6,2.1c0.2-0.1,0.5-0.3,0.7-0.4
		c6.3-4.3,9.1-13.1,6.5-20.4c-0.6-1.7-1.4-3.4-2.3-5c-4.2-7.8-9.9-14.6-15.8-21.2c-0.2-0.2-0.6-0.3-0.9-0.3
		C196.5,234.6,195.5,235,194.5,235.3z M224,232.8c2.5,5.1,5.1,9.9,7.3,14.9c2.9,6.5,4.9,13.3,5.6,20.5c0.2,2.4,0.8,4.9,1.6,7.2
		c0.9,2.5,2.9,3,5.1,1.6c1.3-0.9,2.5-2,3.6-3.1c3.3-3.6,4.8-7.8,4.2-12.8c-0.5-3.9-2.4-7.1-4.6-10.1c-4.4-5.9-9.7-10.8-15.1-15.7
		c-1.8-1.6-3.6-3.1-5.4-4.7C225.4,231.4,224.7,232.2,224,232.8z M176.8,235.4c-0.1,0.4-0.2,0.7-0.3,1c-1,4-1.8,8.1-2.9,12.1
		c-2.5,8.9-6.2,17.1-13.8,23c-1.4,1.1-2.4,2.9-3.3,4.5c-0.9,1.7-0.5,3.3,0.9,4.7c3.3,3.4,9.2,4.1,13.2,1.6c2.9-1.8,4.9-4.3,6.4-7.3
		c1.9-4.1,2.4-8.5,2.6-13c0.3-7.8,0.5-15.7,0.7-23.5c0-1.1,0-2.1,0-3.2C179.1,235.4,178,235.4,176.8,235.4z"/>
	<path d="M295.7,207.2c-33.4,0-66.7,0-100,0c0,2.3-0.1,4.6,0,6.9c0,1-0.4,1.4-1.3,1.8c-4.4,1.6-8.7,3.3-13.1,5
		c-0.3,0.1-0.6,0.2-0.9,0.3c1.4-51,1.4-102,0-153c0.4,0.2,0.7,0.3,1.1,0.5c5.2,2.8,10.4,5.5,15.6,8.3c0.6,0.3,1.3,0.5,1.9,0.5
		c2.9,0.1,5.8,0,8.6,0c0.7,0,1-0.2,1.2-0.9c3.2-12,6.2-24.1,7.7-36.4c0.1-0.9,0.2-1.7,0.3-2.7c7.9,3.6,15.6,7,23.6,10.6
		c-3.2,1.3-5.8,3.2-8.2,5.5c-5.1,4.8-9.1,10.5-12.9,16.3c-1.6,2.4-3.1,4.9-4.7,7.6c0.6,0,0.9,0.1,1.3,0.1c16.4,0,32.9,0,49.3,0
		c0.6,0,1.4-0.3,1.9-0.8c3-2.9,6-5.9,8.9-8.9c0.3-0.3,0.5-0.7,0.7-1.1C282,72,287,77.1,292.2,82.2c-0.3,0.2-0.6,0.4-0.9,0.6
		c-2.5,1.6-5.1,3.2-7.6,4.8c-0.4,0.2-0.8,0.8-0.8,1.3c0,12.2,0.1,24.3,0.3,36.5c0.1,7.7,0.6,15.5,0.8,23.2c0,0.3-0.2,0.9-0.5,1
		c-4.8,2.3-9.7,4.5-14.7,6.8c0-4,0-7.8,0-11.7c-24.4,0-48.6,0-72.9,0c0,8.2,0,16.3,0,24.6c0.4,0,0.8,0,1.2,0c27,0,54.1,0,81.1,0
		c0.8,0,1.4-0.2,2-0.8c3.6-3.6,7.2-7.3,10.9-11c5.9,6.3,11.7,12.5,17.7,18.9c-37.8,0-75.3,0-113,0c0,7.9,0,15.6,0,23.6
		c0.4,0,0.9,0,1.3,0c32.1,0,64.2,0,96.2,0c0.9,0,1.4-0.3,1.9-1c1.8-2.9,3.7-5.7,5.6-8.5c0.2-0.4,0.5-0.7,0.8-1.1
		c5.9,4.3,11.7,8.6,17.7,13c-0.4,0.4-0.8,0.7-1.1,1c-2.1,1.8-4.2,3.5-6.2,5.3c-0.5,0.5-0.9,1.2-1,1.9c-0.6,6.6-1,13.2-1.6,19.8
		c-0.9,10.2-1.9,20.4-3,30.7c-0.9,8.7-2.3,17.3-4.6,25.7c-1.3,4.7-2.9,9.4-5.2,13.7c-1.8,3.4-4.3,6.3-7.5,8.6
		c-5.4,4-11.6,6.5-17.9,8.7c-0.3-1.3-0.5-2.5-1-3.6c-1.4-3.5-4.1-6.1-7-8.3c-6.2-4.8-13.2-8.1-20.3-11.2c-1.2-0.5-2.4-1-3.7-1.6
		c0.4-1.6,0.8-3.1,1.2-4.7c3.3,0.8,6.4,1.6,9.6,2.3c7.2,1.4,14.5,2.8,21.8,4.1c5.1,0.9,9-1,11.8-5.3c3-4.7,4.8-9.8,5.8-15.2
		c1.8-9.4,2.8-18.9,3.6-28.4c0.8-10.2,1.6-20.3,2.3-30.5C295.4,212.6,295.5,210,295.7,207.2z M195.7,108c24.4,0,48.6,0,72.8,0
		c0-7.8,0-15.6,0-23.3c-24.3,0-48.6,0-72.8,0C195.7,92.5,195.7,100.2,195.7,108z M195.8,115.3c0,7.5,0,14.8,0,22.2
		c24.3,0,48.5,0,72.8,0c0-7.4,0-14.8,0-22.2C244.3,115.3,220.1,115.3,195.8,115.3z"/>
	<path d="M254.5,223.5c1.2-0.8,2.3-1.6,3.6-2.4c2,1.6,4,3.2,6,4.8c5.6,4.6,11,9.4,15.3,15.3c2.6,3.5,4.4,7.3,4.3,11.7
		c-0.1,5.2-2.5,9.3-6.4,12.5c-2.1,1.8-4.3,1.5-5.5-1.1c-1.1-2.3-2-4.9-2.5-7.4c-2.1-10.5-6.6-20-12.1-29
		C256.4,226.5,255.5,225.1,254.5,223.5z"/>
	<path d="M194.5,235.3c1.1-0.4,2.1-0.7,3.1-1c0.3-0.1,0.7,0.1,0.9,0.3c5.8,6.6,11.6,13.4,15.8,21.2c0.9,1.6,1.6,3.3,2.3,5
		c2.6,7.3-0.2,16.1-6.5,20.4c-0.2,0.2-0.5,0.3-0.7,0.4c-2.8,1.6-4.7,0.9-5.6-2.1c-0.5-1.7-0.9-3.6-0.9-5.4c0.1-10.2-2.2-20-5.2-29.7
		C196.5,241.4,195.5,238.4,194.5,235.3z"/>
	<path d="M224,232.8c0.6-0.6,1.4-1.4,2.2-2.2c1.8,1.6,3.6,3.1,5.4,4.7c5.4,4.9,10.7,9.8,15.1,15.7c2.3,3,4.2,6.2,4.6,10.1
		c0.6,4.9-0.9,9.2-4.2,12.8c-1.1,1.2-2.3,2.3-3.6,3.1c-2.2,1.4-4.2,0.9-5.1-1.6c-0.8-2.3-1.4-4.8-1.6-7.2c-0.7-7.2-2.6-14-5.6-20.5
		C229.1,242.7,226.6,237.9,224,232.8z"/>
	<path d="M176.8,235.4c1.2,0,2.3,0,3.5,0c0,1.1,0,2.2,0,3.2c-0.2,7.8-0.4,15.7-0.7,23.5c-0.2,4.4-0.7,8.9-2.6,13
		c-1.4,3-3.5,5.6-6.4,7.3c-4,2.5-9.8,1.7-13.2-1.6c-1.4-1.4-1.8-3-0.9-4.7c0.9-1.6,1.9-3.4,3.3-4.5c7.6-5.9,11.3-14.1,13.8-23
		c1.1-4,1.9-8.1,2.9-12.1C176.6,236.1,176.7,235.8,176.8,235.4z"/>
	<path class="st0" d="M195.7,108c0-7.8,0-15.5,0-23.3c24.3,0,48.5,0,72.8,0c0,7.8,0,15.5,0,23.3C244.3,108,220.1,108,195.7,108z"/>
	<path class="st0" d="M195.8,115.3c24.3,0,48.5,0,72.8,0c0,7.4,0,14.7,0,22.2c-24.2,0-48.4,0-72.8,0
		C195.8,130.1,195.8,122.7,195.8,115.3z"/>
</g>
</svg>
