<?xml version="1.0" encoding="utf-8"?>
<!-- Generator: Adobe Illustrator 20.1.0, SVG Export Plug-In . SVG Version: 6.00 Build 0)  -->
<svg version="1.1" id="图层_1" xmlns="http://www.w3.org/2000/svg" xmlns:xlink="http://www.w3.org/1999/xlink" x="0px" y="0px"
	 viewBox="0 0 360 360" style="enable-background:new 0 0 360 360;" xml:space="preserve">
<style type="text/css">
	.st0{fill:#FFFFFF;}
</style>
<g>
	<path class="st0" d="M-0.1,360.1c0-120.1,0-240.2,0-360.2c120.1,0,240.2,0,360.2,0c0,120.1,0,240.2,0,360.2
		C240,360.1,120,360.1-0.1,360.1z M205,289.5c0,1.3,0.1,2.4,0,3.6c-0.1,0.9,0.3,1.2,1.1,1.6c4.9,1.8,9.9,3.5,14.6,5.8
		c6.2,2.9,11.6,7,15.5,12.7c1.2,1.8,2.1,3.8,3.2,5.8c5.5-1,15.8-5,20.4-8.2c1.5-1.1,3-2.3,4.3-3.6c4-4.2,7-9.1,8.9-14.5
		c3.8-10.5,7.3-21.1,10.8-31.7c1-3,2.2-5.3,5.1-6.6c1.7-0.8,3.2-1.9,4.8-2.9c0.3-0.2,0.6-0.4,0.8-0.6c-5.5-5.5-10.9-10.9-16.7-16.7
		c-0.2,0.3-0.4,0.8-0.7,1.1c-2.9,2.9-5.8,5.8-8.7,8.8c-0.6,0.6-1.2,0.9-2.1,0.9c-52.9,0-105.8,0-158.8,0c-0.4,0-0.9,0-1.3,0
		c0-4.4,0-8.6,0-12.9c66.3,0,132.5,0,199,0c-6.4-6.8-12.6-13.4-19-20.2c-0.3,0.4-0.5,0.8-0.8,1.1c-3.7,3.7-7.5,7.5-11.2,11.2
		c-0.6,0.6-1.2,0.8-2,0.8c-54.9,0-109.8,0-164.6,0c-0.4,0-0.8,0-1.3,0c0-4.4,0-8.6,0-12.8c41.6,0,83.1,0,124.8,0c0,1.6,0,3,0,4.5
		c0.2,0,0.4-0.1,0.5-0.1c5.5-2.6,11-5.1,16.5-7.7c0.7-0.3,0.6-0.8,0.6-1.4c-0.4-10.2-0.7-20.4-1.1-30.7c0-0.9,0.2-1.5,1.1-2
		c1.3-0.7,2.5-1.5,3.7-2.3c1.5-1,3.1-1.9,4.7-2.9c-6.8-5.2-13.4-10.2-20.1-15.4c-0.3,0.4-0.6,0.7-0.8,1c-2.6,3.3-5.3,6.5-7.9,9.8
		c-0.6,0.7-1.2,1-2.1,1c-24.1,0-48.2,0-72.2,0c-0.4,0-0.8,0-1.3-0.1c0-0.1-0.1-0.2-0.1-0.3c9.8-7.2,19.3-14.7,31.3-18.6
		c-6.7-4.3-13.3-8.6-19.9-12.9c-0.4,0.9-0.8,1.7-1.2,2.5c-5.1,10.2-11.6,19.6-18.5,28.7c-0.3,0.4-1,0.6-1.5,0.6
		c-10.6,0-21.3,0-31.9,0c-0.7,0-1.3-0.2-1.9-0.5c-4.6-2.1-9.3-4.3-13.9-6.5c-1.7-0.8-3.4-1.6-5.3-2.5c1.6,34.5,1.4,68.8,0,103
		c0,0.2,0,0.4,0.1,0.7c5.5-1.6,11-3.1,16.5-4.7c0-1.2,0-2.3,0-3.4c54.2,0,108.2,0,162.3,0c-0.1,0.4-0.1,0.7-0.1,1
		c-1.2,4.5-2.3,9-3.6,13.5c-1.9,6.8-3.9,13.7-7,20.1c-3.3,7.1-8.9,10.4-16.7,9.3c-8.7-1.2-17.4-2.8-26.1-4.3
		C211.7,291,208.5,290.2,205,289.5z M83.8,264.8c-1,0-1.7,0.1-2.5,0c-0.9-0.1-1.3,0.3-1.6,1.1c-2.5,5.5-4.8,11-7.6,16.3
		c-3.2,6.1-7.4,11.6-13.3,15.4c-1.4,0.9-2.6,2.2-3.6,3.6c-1.6,2.1-1.4,4.4,0.6,6.1c1.4,1.2,3,2.3,4.7,3.1c4.6,2.1,8.9,1.2,12.5-2.3
		c4-3.8,6.4-8.5,7.9-13.8c1.6-5.6,2.2-11.4,2.6-17.1C83.6,273.1,83.7,269,83.8,264.8z M107.3,267.2c1.2,1.9,2.5,3.7,3.7,5.7
		c5,7.9,8.8,16.2,10.5,25.5c0.4,2.3,1.2,4.6,2.2,6.8c1.1,2.3,3.1,2.6,5.4,1.4c5-2.6,8.2-9.1,7.5-14.7c-0.7-5-3.2-9-6.7-12.4
		c-5.3-5.3-11.5-9.4-17.8-13.3c-2.7-1.6-2.7-1.6-4.7,0.8C107.4,267.1,107.4,267.1,107.3,267.2z M150.8,261c3.2,4.2,6.3,8,9.2,12
		c4.3,5.9,7.8,12.2,9.6,19.4c0.2,0.9,0.6,1.7,1,2.6c1.6,3.1,3.9,3.6,6.6,1.3c2.6-2.2,4.6-4.9,5.7-8.1c1.3-3.7,1-7.3-1.3-10.5
		c-1.2-1.8-2.8-3.4-4.5-4.8c-7.1-5.8-15.2-9.7-23.4-13.7c-0.2-0.1-0.7,0-0.9,0.1C152.1,259.8,151.4,260.5,150.8,261z M203.9,256.6
		c0.1,0.1,0.2,0.2,0.3,0.3c8.1,7.4,14.9,15.8,19.6,25.8c0.8,1.7,2.2,3.3,3.5,4.6c1.6,1.5,3.5,1.5,5.1,0c3.7-3.6,6.2-9.8,2.3-15.7
		c-2-3-4.8-5.1-7.7-7c-5.6-3.7-11.7-6.5-17.8-9.2c-2.9-1.3-2.9-1.3-5,1C204,256.4,204,256.5,203.9,256.6z"/>
	<path d="M205,289.5c3.4,0.7,6.7,1.5,10,2.1c8.7,1.5,17.4,3.1,26.1,4.3c7.7,1.1,13.3-2.2,16.7-9.3c3-6.5,5-13.3,7-20.1
		c1.3-4.5,2.4-9,3.6-13.5c0.1-0.3,0.1-0.6,0.1-1c-54.1,0-108.1,0-162.3,0c0,1.1,0,2.2,0,3.4c-5.5,1.6-11,3.1-16.5,4.7
		c0-0.3-0.1-0.5-0.1-0.7c1.4-34.3,1.6-68.5,0-103c1.9,0.9,3.6,1.7,5.3,2.5c4.6,2.2,9.2,4.4,13.9,6.5c0.6,0.3,1.3,0.5,1.9,0.5
		c10.6,0,21.3,0,31.9,0c0.5,0,1.3-0.2,1.5-0.6c6.8-9.1,13.3-18.5,18.5-28.7c0.4-0.8,0.8-1.6,1.2-2.5c6.7,4.3,13.3,8.6,19.9,12.9
		c-11.9,3.8-21.5,11.4-31.3,18.6c0,0.1,0.1,0.2,0.1,0.3c0.4,0,0.8,0.1,1.3,0.1c24.1,0,48.2,0,72.2,0c0.9,0,1.5-0.3,2.1-1
		c2.6-3.3,5.2-6.6,7.9-9.8c0.2-0.3,0.5-0.6,0.8-1c6.7,5.1,13.3,10.2,20.1,15.4c-1.6,1-3.2,2-4.7,2.9c-1.2,0.8-2.4,1.6-3.7,2.3
		c-0.9,0.5-1.1,1.1-1.1,2c0.4,10.2,0.7,20.4,1.1,30.7c0,0.6,0.1,1-0.6,1.4c-5.5,2.5-11,5.1-16.5,7.7c-0.1,0-0.2,0.1-0.5,0.1
		c0-1.5,0-2.9,0-4.5c-41.6,0-83.2,0-124.8,0c0,4.2,0,8.4,0,12.8c0.4,0,0.9,0,1.3,0c54.9,0,109.8,0,164.6,0c0.8,0,1.4-0.2,2-0.8
		c3.7-3.8,7.5-7.5,11.2-11.2c0.3-0.3,0.5-0.7,0.8-1.1c6.4,6.8,12.6,13.4,19,20.2c-66.5,0-132.7,0-199,0c0,4.4,0,8.6,0,12.9
		c0.4,0,0.9,0,1.3,0c52.9,0,105.8,0,158.8,0c0.9,0,1.5-0.3,2.1-0.9c2.9-2.9,5.8-5.8,8.7-8.8c0.3-0.3,0.5-0.7,0.7-1.1
		c5.7,5.7,11.2,11.2,16.7,16.7c-0.2,0.2-0.5,0.4-0.8,0.6c-1.6,1-3.1,2.2-4.8,2.9c-2.9,1.3-4.2,3.7-5.1,6.6
		c-3.4,10.6-7,21.2-10.8,31.7c-1.9,5.4-4.9,10.3-8.9,14.5c-1.3,1.3-2.8,2.6-4.3,3.6c-4.6,3.2-14.8,7.2-20.4,8.2
		c-1.1-1.9-2-3.9-3.2-5.8c-3.9-5.8-9.3-9.8-15.5-12.7c-4.7-2.2-9.7-3.9-14.6-5.8c-0.9-0.3-1.2-0.7-1.1-1.6
		C205.1,291.9,205,290.8,205,289.5z M230.9,173c-41.6,0-83.1,0-124.6,0c0,4.3,0,8.5,0,12.8c41.6,0,83.1,0,124.6,0
		C230.9,181.5,230.9,177.3,230.9,173z M106.2,193c0,3.9,0,7.7,0,11.6c41.6,0,83.1,0,124.6,0c0-3.9,0-7.7,0-11.6
		C189.3,193,147.8,193,106.2,193z"/>
	<path d="M83.8,264.8c-0.2,4.2-0.2,8.3-0.5,12.4c-0.4,5.8-1,11.5-2.6,17.1c-1.5,5.2-3.9,9.9-7.9,13.8c-3.6,3.5-8,4.4-12.5,2.3
		c-1.7-0.8-3.3-1.9-4.7-3.1c-2-1.8-2.2-4-0.6-6.1c1-1.4,2.2-2.7,3.6-3.6c5.9-3.9,10.1-9.3,13.3-15.4c2.8-5.3,5.1-10.8,7.6-16.3
		c0.4-0.8,0.7-1.2,1.6-1.1C82.1,264.9,82.8,264.8,83.8,264.8z"/>
	<path d="M107.3,267.2c0-0.1,0-0.1,0.1-0.2c2.1-2.4,2.1-2.4,4.7-0.8c6.4,3.9,12.6,8,17.8,13.3c3.5,3.5,6,7.4,6.7,12.4
		c0.7,5.6-2.5,12-7.5,14.7c-2.3,1.2-4.3,0.9-5.4-1.4c-1-2.1-1.8-4.4-2.2-6.8c-1.7-9.3-5.5-17.6-10.5-25.5
		C109.8,270.9,108.5,269.1,107.3,267.2z"/>
	<path d="M150.8,261c0.6-0.5,1.3-1.2,2-1.7c0.2-0.2,0.7-0.3,0.9-0.1c8.1,4,16.3,8,23.4,13.7c1.7,1.4,3.3,3,4.5,4.8
		c2.3,3.2,2.6,6.8,1.3,10.5c-1.1,3.2-3.1,5.9-5.7,8.1c-2.7,2.3-5,1.8-6.6-1.3c-0.4-0.8-0.8-1.7-1-2.6c-1.7-7.2-5.3-13.5-9.6-19.4
		C157.1,269,154,265.2,150.8,261z"/>
	<path d="M203.9,256.6c0.1-0.1,0.1-0.1,0.1-0.2c2.1-2.3,2.1-2.3,5-1c6.1,2.7,12.2,5.5,17.8,9.2c3,1.9,5.8,4,7.7,7
		c3.9,5.9,1.4,12.1-2.3,15.7c-1.6,1.5-3.5,1.6-5.1,0c-1.4-1.4-2.7-2.9-3.5-4.6c-4.7-10-11.5-18.4-19.6-25.8
		C204.1,256.8,204,256.7,203.9,256.6z"/>
	<path class="st0" d="M230.9,173c0,4.3,0,8.5,0,12.8c-41.6,0-83.1,0-124.6,0c0-4.3,0-8.5,0-12.8C147.8,173,189.3,173,230.9,173z"/>
	<path class="st0" d="M106.2,193c41.6,0,83.1,0,124.6,0c0,3.9,0,7.7,0,11.6c-41.5,0-83,0-124.6,0C106.2,200.7,106.2,196.9,106.2,193
		z"/>
</g>
</svg>
