<?xml version="1.0" encoding="utf-8"?>
<!-- Generator: Adobe Illustrator 20.1.0, SVG Export Plug-In . SVG Version: 6.00 Build 0)  -->
<svg version="1.1" id="图层_1" xmlns="http://www.w3.org/2000/svg" xmlns:xlink="http://www.w3.org/1999/xlink" x="0px" y="0px"
	 viewBox="0 0 360 360" style="enable-background:new 0 0 360 360;" xml:space="preserve">
<style type="text/css">
	.st0{fill:#FFFFFF;}
</style>
<g>
	<path class="st0" d="M-0.1,360.1c0-120.1,0-240.2,0-360.2c120.1,0,240.2,0,360.2,0c0,120.1,0,240.2,0,360.2
		C240,360.1,120,360.1-0.1,360.1z M159,209.5c0,0.7,0,1.2,0,1.8c-0.6,8-1.1,15.9-1.8,23.9c-1.3,14.5-2.7,29-4.1,43.4
		c-0.3,3.2-0.9,6.3-2.3,9.2c-1.5,3.1-3.8,5.5-7.3,6.1c-2.4,0.4-4.9,0.5-7.3,0.2c-7.8-1.1-15.6-2.4-23.3-3.6
		c-1.8-0.3-3.6-0.7-5.6-1.1c0,1.3,0.1,2.5,0,3.6c-0.1,0.9,0.3,1.2,1.1,1.6c5.2,2.3,10.4,4.8,15.1,8c5.6,3.8,10.9,7.8,12.3,15.1
		c6.8-2.2,13.3-4.7,19.2-8.8c4.6-3.2,8.1-7.2,10.1-12.5c1.3-3.5,2.6-7.2,3.1-10.9c1.2-8.4,2.2-16.8,2.9-25.2
		c1.2-14.9,2.2-29.7,3.2-44.6c0.1-1.3-0.2-2.9,0.4-3.9c0.6-1,2.1-1.6,3.3-2.3c1.7-1.1,3.4-2.1,5.1-3.2c0.3-0.2,0.6-0.4,0.6-0.5
		c-5.1-5.1-10.2-10.2-15.3-15.3c-3.4,3.4-7,7-10.5,10.6c-0.7,0.7-1.3,1-2.3,1c-25,0-49.9,0-74.9,0c-0.5,0-0.9,0-1.5,0
		c0-8.3,0-16.4,0-24.7c37.2,0,74.4,0,111.9,0c-5.6-6-11.1-11.9-16.6-17.7c-0.4,0.4-0.7,0.6-0.9,0.9c-3,3-6,5.9-8.9,8.9
		c-0.6,0.6-1.2,0.8-2,0.8c-27.4,0-54.8,0-82.2,0c-0.4,0-0.9,0-1.3,0c0-8.3,0-16.4,0-24.6c23.5,0,47,0,70.5,0c0,3.5,0,6.9,0,10.5
		c0.4-0.2,0.7-0.2,1-0.4c4.5-2.1,8.9-4.1,13.4-6.2c0.8-0.4,1-0.8,1-1.6c-0.3-8.5-0.7-17.1-0.9-25.6c-0.2-11.2-0.2-22.3-0.3-33.5
		c0-0.8,0.3-1.2,0.9-1.6c2.6-1.6,5.2-3.2,7.7-4.8c0.2-0.2,0.5-0.4,0.7-0.5C168,77.1,163,72,157.8,66.9c-3.1,3.2-6.3,6.3-9.5,9.6
		c-0.7,0.7-1.4,1-2.4,1c-15.5,0-31,0-46.4,0c-0.4,0-0.8,0-1.5,0c0.4-0.5,0.7-0.9,1-1.2c2.7-3,5.3-6.1,8.1-9
		c6.3-6.6,12.7-13.1,21.4-16.9c-6.7-3.9-13.3-7.8-20-11.8c-0.4,1.4-0.8,2.6-1.2,3.8c-4,11.9-9.5,23.1-14.9,34.3
		c-0.3,0.6-0.7,0.7-1.3,0.7c-3.3,0-6.6,0-10,0c-0.6,0-1.3-0.2-1.8-0.5c-4.8-2.7-9.5-5.4-14.3-8.1c-0.4-0.2-0.8-0.4-1.3-0.7
		c1.5,50.7,1.6,101.3,0,152c5.2-1.6,10.3-3.2,15.4-4.7c0-2,0-3.9,0-5.8C105.8,209.5,132.3,209.5,159,209.5z M64.9,234.2
		c-0.1,0.4-0.1,0.6-0.2,0.9c-1.3,7.3-2.8,14.5-5.2,21.5c-2.1,6-4.8,11.5-9.4,16.1c-1.4,1.4-2.5,3.2-3.4,5c-1.1,2-1.1,4.2,0.6,6.1
		c2.8,3.2,7,4.6,11.1,1.6c2.5-1.8,4.3-4.1,5.7-6.8c2.4-4.5,3.3-9.3,3.5-14.3c0.4-9.6,0.6-19.2,0.9-28.7c0-0.4,0-0.8-0.1-1.3
		C67.1,234.2,66,234.2,64.9,234.2z M122.6,223.6c0.9,1.6,1.8,3.1,2.6,4.7c5.2,9.6,8.8,19.7,9.9,30.7c0.3,3,0.8,6,2.1,8.8
		c1.2,2.5,3,2.8,5.1,0.9c2.1-2,3.6-4.4,4.2-7.2c1.6-7,0.3-13.5-3.6-19.5c-4.5-6.9-10.3-12.7-16.4-18.2c-1.6-1.5-1.7-1.5-3.6-0.4
		C122.8,223.4,122.8,223.5,122.6,223.6z M101.4,229.5c0.1,0.3,0.2,0.6,0.4,1c2.7,6.6,5,13.3,6.2,20.3c0.9,5.3,1.3,10.8,2.1,16.1
		c0.4,2.3,1,4.7,1.8,6.9c0.8,2.1,2.5,2.4,4.2,0.9c1.3-1.2,2.4-2.6,3.3-4.1c2-3.6,2.5-7.6,2.6-11.7c0.1-4.2-1.5-7.9-3.4-11.5
		c-3.6-6.5-8.3-12.2-13.3-17.7C103.6,228.1,103.6,228.1,101.4,229.5z M82.9,234.1c-2.8,1-2.8,1-2.4,3c2,11.1,3.3,22.3,3.2,33.6
		c0,2.6,0.2,5.3,1.3,7.7c0.9,2,2.4,2.5,4.4,1.5c1.8-0.9,3.2-2.2,4.3-3.9c2.8-4.3,3.3-9.1,2.7-14c-0.6-4.7-2.4-9-4.7-13.1
		C88.9,243.9,85.8,239,82.9,234.1z"/>
	<path d="M159,209.5c-26.6,0-53.2,0-79.9,0c0,2,0,3.9,0,5.8c-5.1,1.6-10.1,3.1-15.4,4.7c1.6-50.7,1.4-101.3,0-152
		c0.5,0.3,0.9,0.5,1.3,0.7c4.8,2.7,9.5,5.4,14.3,8.1c0.5,0.3,1.2,0.5,1.8,0.5c3.3,0,6.6,0,10,0c0.6,0,1-0.1,1.3-0.7
		c5.5-11.2,11-22.5,14.9-34.3c0.4-1.2,0.8-2.4,1.2-3.8c6.7,3.9,13.3,7.8,20,11.8c-8.7,3.8-15,10.4-21.4,16.9c-2.8,2.9-5.4,6-8.1,9
		c-0.3,0.3-0.5,0.7-1,1.2c0.6,0,1.1,0,1.5,0c15.5,0,31,0,46.4,0c1,0,1.7-0.3,2.4-1c3.1-3.2,6.3-6.4,9.5-9.6
		C163,72,168,77.1,173.1,82.2c-0.2,0.1-0.4,0.4-0.7,0.5c-2.6,1.6-5.1,3.2-7.7,4.8c-0.6,0.4-0.9,0.8-0.9,1.6
		c0.1,11.2,0.1,22.3,0.3,33.5c0.2,8.5,0.5,17.1,0.9,25.6c0,0.8-0.2,1.3-1,1.6c-4.5,2-8.9,4.1-13.4,6.2c-0.3,0.1-0.6,0.2-1,0.4
		c0-3.5,0-7,0-10.5c-23.5,0-47,0-70.5,0c0,8.2,0,16.3,0,24.6c0.4,0,0.9,0,1.3,0c27.4,0,54.8,0,82.2,0c0.8,0,1.4-0.2,2-0.8
		c2.9-3,5.9-6,8.9-8.9c0.3-0.3,0.6-0.5,0.9-0.9c5.5,5.9,10.9,11.7,16.6,17.7c-37.5,0-74.6,0-111.9,0c0,8.3,0,16.4,0,24.7
		c0.5,0,1,0,1.5,0c25,0,49.9,0,74.9,0c1,0,1.6-0.3,2.3-1c3.5-3.6,7.1-7.1,10.5-10.6c5.1,5.1,10.2,10.2,15.3,15.3
		c-0.1,0.1-0.4,0.3-0.6,0.5c-1.7,1.1-3.4,2.1-5.1,3.2c-1.1,0.7-2.7,1.2-3.3,2.3c-0.6,1-0.3,2.6-0.4,3.9c-1.1,14.9-2,29.7-3.2,44.6
		c-0.7,8.4-1.7,16.9-2.9,25.2c-0.5,3.7-1.8,7.4-3.1,10.9c-2,5.2-5.5,9.3-10.1,12.5c-5.9,4-12.4,6.6-19.2,8.8
		c-1.4-7.2-6.7-11.3-12.3-15.1c-4.7-3.2-9.9-5.7-15.1-8c-0.8-0.3-1.1-0.7-1.1-1.6c0.1-1.1,0-2.3,0-3.6c1.9,0.4,3.7,0.8,5.6,1.1
		c7.8,1.2,15.5,2.5,23.3,3.6c2.4,0.3,4.9,0.2,7.3-0.2c3.5-0.6,5.7-3,7.3-6.1c1.4-2.9,2-6.1,2.3-9.2c1.4-14.5,2.8-29,4.1-43.4
		c0.7-8,1.2-15.9,1.8-23.9C159,210.8,159,210.2,159,209.5z M79.1,108c23.6,0,47,0,70.5,0c0-7.8,0-15.6,0-23.3c-23.5,0-47,0-70.5,0
		C79.1,92.5,79.1,100.2,79.1,108z M79.1,115.2c0,7.9,0,15.6,0,23.4c23.5,0,47,0,70.4,0c0-7.8,0-15.6,0-23.4
		C126,115.2,102.6,115.2,79.1,115.2z"/>
	<path d="M64.9,234.2c1.2,0,2.3,0,3.5,0c0,0.4,0.1,0.9,0.1,1.3c-0.3,9.6-0.5,19.2-0.9,28.7c-0.2,5-1.1,9.8-3.5,14.3
		c-1.4,2.7-3.3,5-5.7,6.8c-4.1,3-8.3,1.6-11.1-1.6c-1.6-1.8-1.6-4-0.6-6.1c0.9-1.8,2-3.6,3.4-5c4.6-4.6,7.3-10.1,9.4-16.1
		c2.4-7,4-14.2,5.2-21.5C64.7,234.8,64.8,234.5,64.9,234.2z"/>
	<path d="M122.6,223.6c0.1-0.1,0.2-0.2,0.3-0.3c1.9-1.1,2-1.1,3.6,0.4c6.1,5.5,11.9,11.3,16.4,18.2c3.9,6,5.2,12.5,3.6,19.5
		c-0.7,2.8-2.1,5.3-4.2,7.2c-2.1,1.9-3.8,1.6-5.1-0.9c-1.4-2.8-1.8-5.8-2.1-8.8c-1.1-11-4.7-21.1-9.9-30.7
		C124.4,226.7,123.5,225.2,122.6,223.6z"/>
	<path d="M101.4,229.5c2.2-1.4,2.2-1.5,3.9,0.4c5,5.5,9.7,11.1,13.3,17.7c1.9,3.6,3.5,7.3,3.4,11.5c-0.1,4.1-0.6,8.1-2.6,11.7
		c-0.8,1.5-2,2.9-3.3,4.1c-1.7,1.5-3.4,1.2-4.2-0.9c-0.9-2.2-1.5-4.6-1.8-6.9c-0.8-5.4-1.2-10.8-2.1-16.1c-1.2-7-3.5-13.8-6.2-20.3
		C101.6,230.2,101.5,229.8,101.4,229.5z"/>
	<path d="M82.9,234.1c2.9,4.9,6,9.8,8.8,14.8c2.3,4.1,4.2,8.4,4.7,13.1c0.6,4.9,0.2,9.7-2.7,14c-1.1,1.7-2.5,3-4.3,3.9
		c-2,1-3.5,0.5-4.4-1.5c-1.1-2.5-1.3-5.1-1.3-7.7c0-11.3-1.3-22.5-3.2-33.6C80.1,235.1,80.1,235.1,82.9,234.1z"/>
	<path class="st0" d="M79.1,108c0-7.8,0-15.5,0-23.3c23.5,0,46.9,0,70.5,0c0,7.7,0,15.5,0,23.3C126.1,108,102.7,108,79.1,108z"/>
	<path class="st0" d="M79.1,115.2c23.5,0,46.9,0,70.4,0c0,7.8,0,15.6,0,23.4c-23.4,0-46.9,0-70.4,0
		C79.1,130.9,79.1,123.1,79.1,115.2z"/>
</g>
</svg>
