<?xml version="1.0" encoding="utf-8"?>
<!-- Generator: Adobe Illustrator 20.1.0, SVG Export Plug-In . SVG Version: 6.00 Build 0)  -->
<svg version="1.1" id="图层_1" xmlns="http://www.w3.org/2000/svg" xmlns:xlink="http://www.w3.org/1999/xlink" x="0px" y="0px"
	 viewBox="0 0 360 360" style="enable-background:new 0 0 360 360;" xml:space="preserve">
<style type="text/css">
	.st0{fill:#FFFFFF;}
</style>
<g>
	<path class="st0" d="M-0.1,360.1c0-120.1,0-240.2,0-360.2c120.1,0,240.2,0,360.2,0c0,120.1,0,240.2,0,360.2
		C240,360.1,120,360.1-0.1,360.1z M225,121.1c-2.9,2.9-5.7,5.8-8.6,8.6c-0.4,0.4-1.2,0.7-1.8,0.7c-22.5,0-44.9,0-67.4,0
		c-0.6,0-1.3-0.2-1.9-0.5c-4.5-2-8.9-4.1-13.4-6.1c-0.3-0.1-0.6-0.2-0.9-0.4c0.2,16.4,0.4,32.6,0.4,48.9c0,16.2-0.3,32.5-0.4,48.8
		c4.9-1.9,9.8-3.7,14.6-5.6c0.3-0.1,0.6-0.7,0.6-1.1c0.1-1.6,0-3.3,0-4.9c23.2,0,46.3,0,69.5,0c0,3.5,0,6.9,0,10.4
		c0.2,0,0.4,0,0.5-0.1c5.1-1.8,10.1-3.6,15.2-5.4c0.6-0.2,0.8-0.5,0.7-1.1c-0.2-4.6-0.5-9.3-0.6-13.9c-0.2-10.5-0.4-20.9-0.5-31.4
		c-0.1-9.4,0-18.7-0.1-28.1c0-0.9,0.3-1.4,1-1.8c2-1.3,4-2.7,6-4C233.6,129.8,229.4,125.5,225,121.1z M144,264.8
		c-0.4,18.1-0.7,36-1.1,54c0,0,0.1,0,0.2,0c5.1-2.2,10.3-4.4,15.4-6.6c0.3-0.1,0.6-0.6,0.6-1c0-1.4-0.2-2.8-0.2-4.2
		c-0.2-9.6-0.6-19.3-0.7-28.9c-0.1-13.6-0.1-27.1-0.1-40.7c0-0.7,0.2-1.2,0.8-1.6c2.5-1.7,4.9-3.5,7.4-5.3
		c-5.1-4.4-10.2-8.6-15.4-13c-0.3,0.4-0.6,0.6-0.9,0.9c-2.2,2.6-4.5,5.1-6.7,7.7c-0.6,0.7-1.1,0.9-1.9,0.9c-16.4,0-32.8,0-49.2,0
		c-0.4,0-0.8,0-1.4,0c0-0.7,0-1.2,0-1.7c0-20.6,0.1-41.1-0.1-61.7c0-2.8,0.6-4.6,3.1-6c2.2-1.3,4.2-3.1,6.5-4.8
		c-8.4-2.8-16.5-5.5-24.8-8.3c0,0.7,0,1.2,0,1.6c0.2,6.3,0.5,12.5,0.6,18.8c0.2,11,0.3,22.1,0.4,33.1c0.1,8,0,16.1,0.1,24.1
		c0,0.9-0.2,1.5-0.9,2c-2.1,1.7-4.1,3.4-6.2,5.2c4.8,4,9.5,7.9,14.2,11.8c2.2-2.2,4.2-4.3,6.4-6.3c0.5-0.4,1.2-0.8,1.9-0.8
		c16.8,0,33.6,0,50.4,0c0.4,0,0.9,0,1.3,0c0,7.9,0,15.6,0,23.6c-32.9,0-65.8,0-99,0c3.6,3.6,6.9,6.9,10.3,10.2
		c0.2,0.2,0.8,0.3,1.2,0.2c7-1.8,14.1-2.9,21.3-3.1c3.6-0.1,7.2,0,10.9,0c-6.2,23.2-21.7,38.4-42.4,49.3c0.7,1,1.3,1.9,1.9,2.9
		c0.4,0.6,0.7,0.7,1.4,0.4c9.8-3.5,19.1-7.9,27.7-13.8c13.5-9.4,23.3-21.7,27.7-37.7c0.2-0.9,0.6-1.2,1.5-1.2c12.1,0,24.2,0,36.4,0
		C142.8,264.8,143.2,264.8,144,264.8z M201.5,220c0.8,32.7,0.7,65.2,0,97.7c0.2,0,0.3,0,0.4,0c5.2-2.2,10.4-4.4,15.6-6.7
		c0.3-0.1,0.5-0.7,0.5-1c-0.2-2.9-0.5-5.8-0.6-8.7c-0.2-9.7-0.4-19.4-0.5-29.1c0-2.4,0-4.8,0-7.2c22,0,44,0,66.1,0
		c-0.4,16.5-0.8,32.9-1.1,49.3c5.2-1.9,10.4-3.7,15.6-5.6c0.3-0.1,0.6-0.7,0.6-1c-0.3-13.1-0.7-26.1-1.1-39.2c0-0.9,0.3-1.4,1-2
		c2.4-1.7,4.8-3.4,7.3-5.2c-5.2-4-10.2-7.9-15.4-11.8c-2.5,2.5-5,4.9-7.4,7.4c-0.6,0.6-1.2,0.8-2,0.8c-20.8,0-41.6,0-62.4,0
		c-0.4,0-0.8,0-1.2-0.1c0-7.9,0-15.6,0-23.4c17.7,0,35.2,0,52.9,0c0,2.3,0,4.6,0,6.8c0.2,0,0.3,0,0.4,0c4.8-1.8,9.5-3.6,14.3-5.5
		c0.3-0.1,0.6-0.7,0.6-1.1c0-2-0.2-4-0.3-6c-0.3-11.6-0.6-23.3-0.7-34.9c-0.1-10-0.1-20.1-0.1-30.1c0-0.9,0.3-1.4,1-2
		c2.8-2,5.6-4.2,8.5-6.4c-8.4-2.8-16.5-5.5-24.8-8.3c1.2,26.8,0.9,53.5,1.2,80.1c-0.5,0-0.7,0.1-1,0.1c-17.1,0-34.2,0-51.2,0
		c-0.5,0-1.1-0.2-1.6-0.4c-3.6-1.6-7.1-3.3-10.7-4.9C204.2,221.2,202.9,220.6,201.5,220z"/>
	<path d="M225,121.1c4.4,4.4,8.6,8.6,13,13c-2,1.3-4,2.7-6,4c-0.7,0.5-1,1-1,1.8c0,9.4,0,18.7,0.1,28.1c0.1,10.5,0.3,20.9,0.5,31.4
		c0.1,4.6,0.4,9.3,0.6,13.9c0,0.6-0.1,0.9-0.7,1.1c-5.1,1.8-10.1,3.6-15.2,5.4c-0.1,0.1-0.3,0-0.5,0.1c0-3.5,0-6.9,0-10.4
		c-23.2,0-46.3,0-69.5,0c0,1.7,0,3.3,0,4.9c0,0.4-0.3,1-0.6,1.1c-4.8,1.9-9.7,3.7-14.6,5.6c0.2-16.3,0.4-32.6,0.4-48.8
		c0-16.3-0.3-32.5-0.4-48.9c0.3,0.1,0.6,0.2,0.9,0.4c4.5,2.1,8.9,4.1,13.4,6.1c0.6,0.3,1.3,0.5,1.9,0.5c22.5,0,44.9,0,67.4,0
		c0.6,0,1.3-0.3,1.8-0.7C219.3,126.9,222.1,124,225,121.1z M215.6,184.8c-23.2,0-46.2,0-69.3,0c0,5.8,0,11.6,0,17.4
		c23.1,0,46.2,0,69.3,0C215.6,196.4,215.6,190.6,215.6,184.8z M146.2,153.9c23.2,0,46.3,0,69.3,0c0-5.5,0-10.9,0-16.2
		c-23.1,0-46.2,0-69.3,0C146.2,143.1,146.2,148.4,146.2,153.9z M146.2,177.5c23.2,0,46.3,0,69.4,0c0-5.5,0-10.9,0-16.3
		c-23.2,0-46.2,0-69.4,0C146.2,166.7,146.2,172,146.2,177.5z"/>
	<path d="M144,264.8c-0.8,0-1.1,0-1.5,0c-12.1,0-24.2,0-36.4,0c-0.9,0-1.3,0.3-1.5,1.2c-4.5,16.1-14.2,28.3-27.7,37.7
		c-8.6,6-17.9,10.3-27.7,13.8c-0.6,0.2-1,0.2-1.4-0.4c-0.6-1-1.2-1.9-1.9-2.9c20.7-10.8,36.2-26.1,42.4-49.3c-3.7,0-7.3-0.1-10.9,0
		c-7.2,0.3-14.3,1.3-21.3,3.1c-0.4,0.1-0.9,0-1.2-0.2c-3.4-3.3-6.7-6.6-10.3-10.2c33.2,0,66,0,99,0c0-7.9,0-15.7,0-23.6
		c-0.5,0-0.9,0-1.3,0c-16.8,0-33.6,0-50.4,0c-0.6,0-1.4,0.3-1.9,0.8c-2.1,2-4.2,4.2-6.4,6.3c-4.7-3.9-9.4-7.8-14.2-11.8
		c2.1-1.8,4.1-3.5,6.2-5.2c0.7-0.6,0.9-1.1,0.9-2c-0.1-8,0-16.1-0.1-24.1c-0.1-11-0.2-22.1-0.4-33.1c-0.1-6.3-0.4-12.5-0.6-18.8
		c0-0.5,0-1,0-1.6c8.2,2.7,16.4,5.5,24.8,8.3c-2.3,1.7-4.3,3.5-6.5,4.8c-2.4,1.4-3.1,3.3-3.1,6c0.1,20.6,0.1,41.1,0.1,61.7
		c0,0.5,0,1,0,1.7c0.5,0,0.9,0,1.4,0c16.4,0,32.8,0,49.2,0c0.8,0,1.4-0.2,1.9-0.9c2.2-2.6,4.5-5.1,6.7-7.7c0.3-0.3,0.5-0.6,0.9-0.9
		c5.1,4.3,10.2,8.6,15.4,13c-2.5,1.8-5,3.6-7.4,5.3c-0.6,0.4-0.8,0.8-0.8,1.6c0,13.6,0,27.1,0.1,40.7c0.1,9.6,0.4,19.3,0.7,28.9
		c0,1.4,0.2,2.8,0.2,4.2c0,0.3-0.3,0.8-0.6,1c-5.1,2.2-10.3,4.4-15.4,6.6c-0.1,0-0.2,0-0.2,0C143.2,300.9,143.6,282.9,144,264.8z"/>
	<path d="M201.5,220c1.4,0.7,2.7,1.2,3.9,1.8c3.6,1.6,7.1,3.3,10.7,4.9c0.5,0.2,1.1,0.4,1.6,0.4c17.1,0,34.2,0,51.2,0
		c0.2,0,0.5,0,1-0.1c-0.2-26.6,0-53.3-1.2-80.1c8.3,2.8,16.4,5.5,24.8,8.3c-2.9,2.2-5.7,4.3-8.5,6.4c-0.7,0.5-1,1-1,2
		c0.1,10,0,20.1,0.1,30.1c0.1,11.6,0.4,23.3,0.7,34.9c0,2,0.2,4,0.3,6c0,0.4-0.3,0.9-0.6,1.1c-4.8,1.9-9.5,3.7-14.3,5.5
		c-0.1,0-0.2,0-0.4,0c0-2.3,0-4.5,0-6.8c-17.7,0-35.3,0-52.9,0c0,7.8,0,15.5,0,23.4c0.4,0,0.8,0.1,1.2,0.1c20.8,0,41.6,0,62.4,0
		c0.8,0,1.4-0.2,2-0.8c2.4-2.5,4.9-4.9,7.4-7.4c5.1,4,10.2,7.8,15.4,11.8c-2.5,1.8-4.9,3.5-7.3,5.2c-0.7,0.5-1,1-1,2
		c0.4,13.1,0.8,26.1,1.1,39.2c0,0.3-0.3,0.9-0.6,1c-5.2,1.9-10.4,3.8-15.6,5.6c0.4-16.4,0.8-32.8,1.1-49.3c-22.2,0-44.1,0-66.1,0
		c0,2.4,0,4.8,0,7.2c0.2,9.7,0.3,19.4,0.5,29.1c0.1,2.9,0.4,5.8,0.6,8.7c0,0.3-0.2,0.9-0.5,1c-5.2,2.3-10.4,4.5-15.6,6.7
		c-0.1,0-0.2,0-0.4,0C202.2,285.2,202.3,252.7,201.5,220z"/>
	<path class="st0" d="M215.6,184.8c0,5.9,0,11.6,0,17.4c-23.1,0-46.2,0-69.3,0c0-5.8,0-11.6,0-17.4
		C169.4,184.8,192.4,184.8,215.6,184.8z"/>
	<path class="st0" d="M146.2,153.9c0-5.5,0-10.8,0-16.2c23.1,0,46.2,0,69.3,0c0,5.4,0,10.8,0,16.2
		C192.5,153.9,169.4,153.9,146.2,153.9z"/>
	<path class="st0" d="M146.2,177.5c0-5.5,0-10.8,0-16.3c23.1,0,46.2,0,69.4,0c0,5.4,0,10.8,0,16.3
		C192.5,177.5,169.4,177.5,146.2,177.5z"/>
</g>
</svg>
