<?xml version="1.0" encoding="utf-8"?>
<!-- Generator: Adobe Illustrator 20.1.0, SVG Export Plug-In . SVG Version: 6.00 Build 0)  -->
<svg version="1.1" id="图层_1" xmlns="http://www.w3.org/2000/svg" xmlns:xlink="http://www.w3.org/1999/xlink" x="0px" y="0px"
	 viewBox="0 0 360 360" style="enable-background:new 0 0 360 360;" xml:space="preserve">
<style type="text/css">
	.st0{fill:#FFFFFF;}
</style>
<g>
	<path class="st0" d="M0.2,360.5c0-120.1,0-240.2,0-360.2c120.1,0,240.2,0,360.2,0c0,120.1,0,240.2,0,360.2
		C240.4,360.5,120.3,360.5,0.2,360.5z M282,161.5c-5.6-4.8-11.1-9.5-16.6-14.2c-2.6,3-5.1,5.9-7.7,8.7c-0.3,0.4-1,0.7-1.5,0.7
		c-47.7,0-95.4,0-143.2,0c-0.5,0-1.1-0.2-1.6-0.4c-4.4-2.3-8.8-4.7-13.2-7.1c-0.4-0.2-0.8-0.4-1.4-0.7c0.8,24.8,0.8,49.5,0,74.1
		c0.2,0,0.4,0,0.5,0c4.7-1.8,9.5-3.6,14.2-5.5c0.3-0.1,0.7-0.7,0.7-1.1c0.1-2,0-4,0-6.1c21.7,0,43.2,0,64.7,0c0,6.7,0,13.2,0,20
		c-30.6,0-61.1,0-91.8,0c0.4,0.5,0.7,0.8,1,1.1c2.9,2.9,5.7,5.7,8.6,8.6c0.7,0.7,1.3,0.9,2.4,0.7c8-2.1,16.2-3.1,24.4-3.2
		c18-0.1,36.1,0,54.1,0c0.4,0,0.9,0,1.3,0c0,6.7,0,13.3,0,20c-41.2,0-82.3,0-123.7,0c3.6,3.6,6.9,6.9,10.3,10.3
		c0.2,0.2,0.9,0.2,1.3,0.1c8.8-2.3,17.7-3.3,26.8-3.3c73.8,0,147.7,0,221.5,0c0.5,0,1,0,1.7,0c-6.8-7.2-13.4-14.2-20.1-21.2
		c-0.4,0.3-0.7,0.6-1,0.8c-4.5,4.1-9,8.3-13.5,12.5c-0.6,0.6-1.2,0.8-2,0.8c-28.6,0-57.3,0-85.9,0c-0.4,0-0.8,0-1.2,0
		c0-6.7,0-13.3,0-20c29.8,0,59.5,0,89.1,0c-6.3-6.3-12.5-12.5-18.7-18.7c-0.3,0.2-0.7,0.5-1,0.8c-4.4,3.4-8.8,6.8-13.2,10.1
		c-0.6,0.4-1.4,0.7-2,0.7c-17.6,0-35.2,0-52.8,0c-0.4,0-0.8,0-1.3-0.1c0-6.7,0-13.3,0-19.9c22.3,0,44.6,0,67,0c0,2,0,3.8,0,5.9
		c5-1.9,9.9-3.8,14.7-5.7c0.3-0.1,0.5-0.7,0.5-1.1c-0.1-2.4-0.4-4.9-0.5-7.3c-0.2-11-0.4-22-0.6-33c0-1,0.3-1.5,1.1-2
		C276.5,165,279.2,163.3,282,161.5z M97.1,268.7c-1.9,3.8-3.7,7.5-5.7,11.1c-3.5,6.5-7.5,12.6-13.1,17.6c-2.2,1.9-4.6,3.5-6.9,5.4
		c-1.8,1.5-3.5,3.1-4.5,5.2c-0.9,1.9-0.7,3.6,0.7,5.2c1.2,1.3,2.6,2.3,4.3,2.7c7.8,1.8,14.4,0,19.9-6c3.2-3.5,4.7-7.8,5.9-12.3
		c1.9-7.2,2.8-14.7,3.6-22.1c0.2-1.9,0.3-3.7,0.5-5.6C100.1,269.4,98.6,269.1,97.1,268.7z M258.4,272.1c2.9,3.6,5.7,7,8.4,10.5
		c6.3,8.3,11.6,17.1,14.5,27.2c0.6,1.9,1.6,3.7,2.7,5.4c1.3,1.9,3.2,2,5,0.6c0.8-0.6,1.5-1.4,2.1-2.2c2.2-2.9,3.9-6.2,4.9-9.7
		c1.7-5.6,1-10.7-3.2-15c-1.1-1.2-2.3-2.2-3.6-3.2c-6.7-5.4-14.2-9.6-21.8-13.6c-2.2-1.2-4.4-2.3-6.7-3.5
		C259.9,269.9,259.2,271,258.4,272.1z M137.1,272.2c1.4,2.7,2.8,5.3,4.1,7.9c4.1,8.3,7.2,17,8.8,26.1c0.4,2.3,0.9,4.6,1.7,6.8
		c1.3,3.4,3.7,4,6.6,1.7c1.5-1.2,2.8-2.6,4-4.1c2.4-3,4.2-6.3,4.6-10.1c0.5-4.7-1.4-8.5-4.4-12c-5.9-6.8-12.9-12.2-20.4-17.1
		C139.3,269.7,139.3,269.7,137.1,272.2z M197.1,272.3c0.4,0.6,0.8,1.3,1.2,1.9c6,9.4,11,19.3,13.8,30.2c0.7,2.8,1.5,5.6,2.7,8.3
		c1.4,3.1,3.9,3.5,6.5,1.2c2.4-2.1,4.1-4.7,5.6-7.4c1.4-2.7,2.3-5.6,2.1-8.7c-0.2-3.8-2.2-6.7-4.7-9.3c-7.2-7.5-16-12.9-24.7-18.4
		C198.7,270.7,198,271.5,197.1,272.3z"/>
	<path d="M282,161.5c-2.9,1.8-5.6,3.5-8.4,5.2c-0.8,0.5-1.1,1-1.1,2c0.2,11,0.4,22,0.6,33c0,2.4,0.3,4.9,0.5,7.3
		c0,0.4-0.2,1-0.5,1.1c-4.8,1.9-9.7,3.8-14.7,5.7c0-2,0-3.9,0-5.9c-22.4,0-44.7,0-67,0c0,6.6,0,13.2,0,19.9c0.4,0,0.9,0.1,1.3,0.1
		c17.6,0,35.2,0,52.8,0c0.7,0,1.5-0.3,2-0.7c4.4-3.3,8.8-6.8,13.2-10.1c0.4-0.3,0.8-0.6,1-0.8c6.3,6.3,12.5,12.5,18.7,18.7
		c-29.6,0-59.3,0-89.1,0c0,6.7,0,13.2,0,20c0.4,0,0.8,0,1.2,0c28.6,0,57.3,0,85.9,0c0.8,0,1.4-0.2,2-0.8c4.5-4.2,9-8.3,13.5-12.5
		c0.3-0.3,0.6-0.5,1-0.8c6.6,7,13.2,14,20.1,21.2c-0.8,0-1.3,0-1.7,0c-73.8,0-147.7,0-221.5,0c-9.1,0-18,1-26.8,3.3
		c-0.4,0.1-1.1,0.1-1.3-0.1c-3.4-3.3-6.7-6.7-10.3-10.3c41.4,0,82.5,0,123.7,0c0-6.7,0-13.3,0-20c-0.5,0-0.9,0-1.3,0
		c-18,0-36.1-0.1-54.1,0c-8.3,0-16.4,1.1-24.4,3.2c-1,0.3-1.6,0.1-2.4-0.7c-2.8-2.9-5.7-5.7-8.6-8.6c-0.3-0.3-0.5-0.6-1-1.1
		c30.7,0,61.2,0,91.8,0c0-6.7,0-13.3,0-20c-21.5,0-43,0-64.7,0c0,2.1,0,4.1,0,6.1c0,0.4-0.3,1-0.7,1.1c-4.7,1.9-9.5,3.7-14.2,5.5
		c-0.1,0-0.2,0-0.5,0c0.8-24.7,0.7-49.3,0-74.1c0.6,0.3,1,0.5,1.4,0.7c4.4,2.4,8.8,4.7,13.2,7.1c0.5,0.2,1,0.4,1.6,0.4
		c47.7,0,95.4,0,143.2,0c0.5,0,1.2-0.3,1.5-0.7c2.6-2.8,5.1-5.7,7.7-8.7C271,152,276.4,156.7,282,161.5z M177.1,164
		c-21.6,0-43.1,0-64.6,0c0,12.9,0,25.8,0,38.6c21.6,0,43.1,0,64.6,0C177.1,189.7,177.1,176.9,177.1,164z M238.4,173.2
		c-4.1,1.7-7.2,4.4-10.3,7.2c-7.1,6.6-13.4,14-19.6,21.4c-0.2,0.2-0.3,0.4-0.5,0.7c16.8,0,33.5,0,50.2,0c0-12.9,0-25.7,0-38.6
		c-11.6,0-23.1,0-34.9,0C228.5,167.1,233.3,170.1,238.4,173.2z M191.4,163.9c0,13,0,25.8,0,38.7c3.3,0,6.6,0,9.8,0
		c0.4,0,0.9-0.4,1.1-0.7c0.7-1.1,1.2-2.3,1.8-3.5c4.8-9.5,9.4-19.2,12.8-29.4c0.5-1.6,1-3.3,1.5-5.1
		C209.2,163.9,200.3,163.9,191.4,163.9z"/>
	<path d="M97.1,268.7c1.5,0.4,3,0.8,4.6,1.2c-0.2,1.9-0.3,3.7-0.5,5.6c-0.8,7.4-1.7,14.8-3.6,22.1c-1.2,4.5-2.7,8.8-5.9,12.3
		c-5.4,6-12.1,7.9-19.9,6c-1.7-0.4-3.2-1.3-4.3-2.7c-1.4-1.6-1.6-3.3-0.7-5.2c1-2.1,2.7-3.8,4.5-5.2c2.3-1.8,4.7-3.4,6.9-5.4
		c5.6-4.9,9.6-11.1,13.1-17.6C93.4,276.2,95.2,272.5,97.1,268.7z"/>
	<path d="M258.4,272.1c0.8-1.1,1.5-2.3,2.3-3.5c2.3,1.2,4.5,2.3,6.7,3.5c7.6,4,15.1,8.2,21.8,13.6c1.2,1,2.5,2.1,3.6,3.2
		c4.2,4.3,4.8,9.5,3.2,15c-1.1,3.5-2.7,6.7-4.9,9.7c-0.6,0.8-1.3,1.5-2.1,2.2c-1.8,1.4-3.7,1.3-5-0.6c-1.1-1.7-2.2-3.5-2.7-5.4
		c-2.9-10.1-8.2-18.9-14.5-27.2C264.2,279.1,261.3,275.7,258.4,272.1z"/>
	<path d="M137.1,272.2c2.2-2.5,2.2-2.5,4.9-0.8c7.5,4.9,14.5,10.3,20.4,17.1c3,3.5,4.9,7.3,4.4,12c-0.4,3.9-2.2,7.1-4.6,10.1
		c-1.2,1.5-2.5,2.9-4,4.1c-2.8,2.3-5.3,1.7-6.6-1.7c-0.8-2.2-1.3-4.5-1.7-6.8c-1.6-9.2-4.7-17.8-8.8-26.1
		C139.9,277.5,138.5,274.9,137.1,272.2z"/>
	<path d="M197.1,272.3c0.8-0.8,1.6-1.6,2.4-2.4c8.7,5.5,17.5,10.9,24.7,18.4c2.5,2.6,4.5,5.5,4.7,9.3c0.2,3.1-0.7,6-2.1,8.7
		c-1.5,2.8-3.2,5.4-5.6,7.4c-2.6,2.2-5.1,1.9-6.5-1.2c-1.2-2.6-2-5.5-2.7-8.3c-2.8-10.9-7.7-20.8-13.8-30.2
		C198,273.5,197.6,272.9,197.1,272.3z"/>
	<path class="st0" d="M177.1,164c0,12.9,0,25.8,0,38.6c-21.5,0-43,0-64.6,0c0-12.9,0-25.7,0-38.6C134,164,155.5,164,177.1,164z
		 M127.7,168.6c0.9,1.1,1.8,2.3,2.7,3.4c5.6,7.2,10.4,14.8,13,23.7c0.3,0.9,0.7,1.8,1.2,2.6c1.7,3.2,4,3.6,6.7,1.2
		c2.6-2.4,4.6-5.3,5.7-8.7c1.2-3.7,0.6-7.2-2.2-10c-1.5-1.5-3.2-2.9-4.9-4.2c-5.3-3.8-11.2-6.6-17.1-9.3c-2.8-1.3-2.8-1.3-4.9,1.1
		C127.7,168.4,127.7,168.5,127.7,168.6z"/>
	<path class="st0" d="M238.4,173.2c-5-3.1-9.9-6.1-15-9.3c11.8,0,23.3,0,34.9,0c0,12.9,0,25.7,0,38.6c-16.7,0-33.4,0-50.2,0
		c0.2-0.3,0.3-0.5,0.5-0.7c6.2-7.4,12.5-14.8,19.6-21.4C231.2,177.6,234.3,174.9,238.4,173.2z"/>
	<path class="st0" d="M191.4,163.9c8.9,0,17.8,0,27,0c-0.5,1.8-1,3.4-1.5,5.1c-3.3,10.2-7.9,19.8-12.8,29.4
		c-0.6,1.2-1.2,2.4-1.8,3.5c-0.2,0.3-0.7,0.7-1.1,0.7c-3.2,0.1-6.5,0-9.8,0C191.4,189.8,191.4,176.9,191.4,163.9z"/>
	<path d="M127.7,168.6c0.1-0.1,0.1-0.2,0.1-0.2c2.1-2.4,2.1-2.4,4.9-1.1c5.9,2.7,11.8,5.5,17.1,9.3c1.7,1.2,3.4,2.6,4.9,4.2
		c2.8,2.8,3.4,6.2,2.2,10c-1.1,3.4-3.1,6.3-5.7,8.7c-2.7,2.4-5,2-6.7-1.2c-0.5-0.8-0.9-1.7-1.2-2.6c-2.6-8.9-7.4-16.5-13-23.7
		C129.5,170.9,128.6,169.8,127.7,168.6z"/>
</g>
</svg>
