<?xml version="1.0" encoding="utf-8"?>
<!-- Generator: Adobe Illustrator 20.1.0, SVG Export Plug-In . SVG Version: 6.00 Build 0)  -->
<svg version="1.1" id="图层_1" xmlns="http://www.w3.org/2000/svg" xmlns:xlink="http://www.w3.org/1999/xlink" x="0px" y="0px"
	 viewBox="0 0 360 360" style="enable-background:new 0 0 360 360;" xml:space="preserve">
<style type="text/css">
	.st0{fill:#FFFFFF;}
</style>
<g>
	<path class="st0" d="M-0.1,360.1c0-120.1,0-240.2,0-360.2c120.1,0,240.2,0,360.2,0c0,120.1,0,240.2,0,360.2
		C240,360.1,120,360.1-0.1,360.1z M159,52.7c-2.8,2.8-5.6,5.7-8.5,8.6c-0.6,0.6-1.2,0.9-2.1,0.9c-23.9,0-47.8,0-71.8,0
		c-0.7,0-1.5-0.2-2.1-0.6c-4.8-2.7-9.6-5.4-14.4-8.2c-0.4-0.2-0.7-0.4-1.1-0.6c1.6,34.2,1.4,68.3,0,102.5c5.2-1.6,10.2-3.1,15.3-4.7
		c0-3.2,0-6.2,0-9.3c9.8,0,19.5,0,29.2,0c0,12.2,0,24.2,0,36.4c-16.4,0-32.8,0-49.3,0c0.4,0.5,0.7,0.8,1,1c2.9,2.9,5.9,5.8,8.7,8.8
		c0.7,0.7,1.2,0.8,2.1,0.5c5.7-1.5,11.4-2.6,17.2-2.8c6.5-0.3,13-0.3,19.5-0.4c0.3,0,0.5,0.1,0.8,0.1c0,0.2,0.1,0.4,0.1,0.5
		c0,12.4,0,24.9,0,37.3c0,0.8-0.4,0.9-1,1c-10.9,1.9-21.9,3.9-32.8,5.8c-7.5,1.3-15.1,2.4-22.7,3.5c3.5,7,7,14.1,10.6,21.2
		c3-2.6,5.8-5.1,8.6-7.5c0.5-0.5,1.2-0.8,1.8-1c34.4-10.7,69.1-20.7,103.9-30c0.4-0.1,0.7-0.2,1.1-0.4c-0.4-1.6-0.8-3.1-1.2-4.7
		c-18.1,3.5-36,7-54.1,10.6c0-12.2,0-24.3,0-36.5c18.8,0,37.5,0,56.4,0c-6-6.8-11.8-13.4-17.7-20.1c-0.4,0.4-0.6,0.7-0.9,1
		c-3.4,3.7-6.8,7.4-10.2,11.2c-0.5,0.6-1,0.9-1.8,0.9c-8.2,0-16.5,0-24.7,0c-0.4,0-0.8-0.1-1.1-0.1c0-12.2,0-24.2,0-36.3
		c11,0,21.9,0,32.9,0c0,3.9,0,7.7,0,11.7c5.2-2,10.3-3.9,15.3-5.9c0-0.6,0-1,0-1.4c-0.2-5-0.5-10.1-0.6-15.1
		c-0.2-8.3-0.3-16.6-0.4-24.9C165,95.4,165,85.1,165,74.9c0-0.5,0.4-1.1,0.8-1.4c2.5-1.7,5.1-3.2,7.7-4.9c0.3-0.2,0.5-0.4,0.8-0.6
		C169.2,63,164.1,57.9,159,52.7z M68.4,258.9c-0.8,3.4-1.5,6.7-2.3,10.1c-2.4,9.6-5.4,18.9-11.6,26.8c-1,1.3-1.7,2.9-2.2,4.5
		c-0.7,2.1,0.3,3.7,2.4,4.3c0.5,0.2,1.1,0.2,1.6,0.3c4.8,0.7,9.1-0.7,13.1-3.2c1.9-1.2,3.2-2.8,3.9-5c1.1-3.3,1.4-6.7,1.6-10.1
		c0.3-7.6-0.4-15.2-1.2-22.8c-0.2-1.6-0.4-3.2-0.6-4.8C71.5,258.9,69.9,258.9,68.4,258.9z M153.2,231.8c1.6,2.4,3.2,4.6,4.8,7
		c5.3,8.1,9.7,16.6,12,26.1c0.3,1.3,0.8,2.7,1.5,3.9c1.8,3.6,4.2,3.9,6.9,0.9c2.3-2.5,3.9-5.4,5.1-8.6c1.9-5.6,0.9-10.6-3-14.9
		c-1.2-1.4-2.5-2.7-4-3.8c-5.6-4.7-11.9-8.2-18.3-11.5C155.5,229.3,155.4,229.3,153.2,231.8z M122.6,246c0.7,1.2,1.3,2.2,1.9,3.2
		c5.4,9.5,9.8,19.3,12,30c0.4,1.9,1.3,3.9,2.3,5.6c1,1.7,2.8,1.9,4.5,0.9c0.6-0.4,1.3-0.8,1.7-1.3c1.7-2.1,3.5-4.2,4.8-6.6
		c2.4-4.6,2.1-9.3-1-13.6c-1.3-1.7-2.6-3.4-4.2-5c-5.7-5.8-12.2-10.6-18.8-15.2c-0.3-0.2-0.5-0.3-0.8-0.5
		C124.1,244.4,123.4,245.2,122.6,246z M93.3,252.8c-0.7,0.7-1.1,1.2-1.5,1.6c-0.8,0.7-0.9,1.3-0.4,2.3c4.9,10,8.2,20.5,9,31.7
		c0.2,2.2,0.7,4.5,1.5,6.6c1.1,3,3.2,3.6,5.8,1.7c1.6-1.2,3.1-2.7,4.3-4.3c4-5.2,4.6-10.8,1.7-16.7c-1.9-3.8-4.5-7.1-7.4-10.1
		C101.9,261.3,97.6,257.1,93.3,252.8z"/>
	<path d="M159,52.7c5.2,5.2,10.2,10.2,15.4,15.4c-0.2,0.2-0.5,0.4-0.8,0.6c-2.6,1.6-5.2,3.2-7.7,4.9c-0.4,0.3-0.8,0.9-0.8,1.4
		c0,10.2,0,20.5,0.1,30.7c0.1,8.3,0.2,16.6,0.4,24.9c0.1,5,0.4,10.1,0.6,15.1c0,0.4,0,0.9,0,1.4c-5,1.9-10.1,3.9-15.3,5.9
		c0-4,0-7.8,0-11.7c-11,0-21.9,0-32.9,0c0,12.1,0,24.1,0,36.3c0.4,0,0.8,0.1,1.1,0.1c8.2,0,16.5,0,24.7,0c0.8,0,1.3-0.3,1.8-0.9
		c3.4-3.7,6.8-7.5,10.2-11.2c0.3-0.3,0.5-0.6,0.9-1c5.9,6.7,11.7,13.3,17.7,20.1c-19,0-37.7,0-56.4,0c0,12.2,0,24.3,0,36.5
		c18-3.5,36-7,54.1-10.6c0.4,1.6,0.8,3.1,1.2,4.7c-0.4,0.1-0.8,0.3-1.1,0.4c-34.8,9.3-69.5,19.3-103.9,30c-0.7,0.2-1.3,0.6-1.8,1
		c-2.8,2.4-5.7,4.9-8.6,7.5c-3.6-7.1-7.1-14.2-10.6-21.2c7.6-1.2,15.2-2.3,22.7-3.5c10.9-1.9,21.9-3.9,32.8-5.8c0.6-0.1,1-0.2,1-1
		c0-12.4,0-24.9,0-37.3c0-0.2,0-0.3-0.1-0.5c-0.3,0-0.5-0.1-0.8-0.1c-6.5,0.1-13,0.1-19.5,0.4c-5.8,0.3-11.6,1.3-17.2,2.8
		c-0.9,0.2-1.4,0.1-2.1-0.5c-2.9-3-5.8-5.8-8.7-8.8c-0.3-0.3-0.5-0.6-1-1c16.5,0,32.9,0,49.3,0c0-12.2,0-24.2,0-36.4
		c-9.7,0-19.4,0-29.2,0c0,3.1,0,6.1,0,9.3c-5.1,1.6-10.2,3.1-15.3,4.7c1.4-34.2,1.6-68.3,0-102.5c0.4,0.2,0.8,0.4,1.1,0.6
		c4.8,2.7,9.6,5.5,14.4,8.2c0.6,0.4,1.4,0.6,2.1,0.6c23.9,0,47.8,0,71.8,0c0.9,0,1.5-0.3,2.1-0.9C153.3,58.4,156.2,55.5,159,52.7z
		 M150.8,133.9c0-21.6,0-43,0-64.6c-11,0-21.8,0-32.8,0c0,16.3,0,32.5,0,48.7c6.7-11.4,12.8-23,16.3-35.5c4.6,4.6,9.3,9.3,13.8,13.8
		c-1,0.5-2.2,1-3.2,1.7c-2.7,2.1-5.5,4.1-7.8,6.5c-5.6,5.9-10.9,12-16.5,17.9c-2.1,2.2-3.2,4.5-2.8,7.6c0.2,1.3,0,2.6,0,3.9
		C129,133.9,139.8,133.9,150.8,133.9z M74.3,69.3c0,21.5,0,43,0,64.6c9.8,0,19.5,0,29.2,0c0-21.6,0-43,0-64.6
		C93.8,69.3,84.1,69.3,74.3,69.3z"/>
	<path d="M68.4,258.9c1.5,0,3,0,4.7,0c0.2,1.6,0.5,3.2,0.6,4.8c0.8,7.6,1.5,15.2,1.2,22.8c-0.1,3.4-0.5,6.8-1.6,10.1
		c-0.7,2.1-2,3.8-3.9,5c-4,2.5-8.3,3.9-13.1,3.2c-0.6-0.1-1.1-0.2-1.6-0.3c-2.2-0.6-3.1-2.2-2.4-4.3c0.5-1.6,1.2-3.2,2.2-4.5
		c6.2-7.9,9.2-17.2,11.6-26.8C67,265.7,67.7,262.3,68.4,258.9z"/>
	<path d="M153.2,231.8c2.2-2.5,2.2-2.5,5-1.1c6.4,3.3,12.7,6.9,18.3,11.5c1.4,1.2,2.7,2.5,4,3.8c3.9,4.4,4.9,9.4,3,14.9
		c-1.1,3.2-2.8,6.1-5.1,8.6c-2.7,3-5.1,2.7-6.9-0.9c-0.6-1.2-1.1-2.6-1.5-3.9c-2.3-9.5-6.7-18-12-26.1
		C156.5,236.5,154.9,234.2,153.2,231.8z"/>
	<path d="M122.6,246c0.8-0.8,1.6-1.5,2.4-2.3c0.3,0.2,0.6,0.3,0.8,0.5c6.6,4.6,13.2,9.4,18.8,15.2c1.5,1.5,2.9,3.2,4.2,5
		c3.1,4.3,3.5,8.9,1,13.6c-1.2,2.4-3.1,4.4-4.8,6.6c-0.4,0.5-1.1,0.9-1.7,1.3c-1.7,1-3.5,0.8-4.5-0.9c-1-1.7-1.9-3.6-2.3-5.6
		c-2.3-10.7-6.7-20.5-12-30C123.8,248.2,123.2,247.1,122.6,246z"/>
	<path d="M93.3,252.8c4.4,4.3,8.7,8.5,12.8,12.8c2.9,3,5.6,6.3,7.4,10.1c3,5.9,2.3,11.5-1.7,16.7c-1.2,1.6-2.7,3.1-4.3,4.3
		c-2.5,1.9-4.7,1.3-5.8-1.7c-0.8-2.1-1.3-4.4-1.5-6.6c-0.8-11.2-4.1-21.7-9-31.7c-0.5-1-0.4-1.6,0.4-2.3
		C92.2,254,92.6,253.5,93.3,252.8z"/>
	<path class="st0" d="M150.8,133.9c-10.9,0-21.8,0-32.9,0c0-1.3,0.1-2.6,0-3.9c-0.4-3,0.7-5.4,2.8-7.6c5.6-5.9,10.9-12,16.5-17.9
		c2.3-2.4,5.1-4.4,7.8-6.5c1-0.8,2.2-1.2,3.2-1.7c-4.5-4.5-9.2-9.2-13.8-13.8c-3.5,12.6-9.6,24.2-16.3,35.5c0-16.2,0-32.4,0-48.7
		c10.9,0,21.8,0,32.8,0C150.8,90.9,150.8,112.4,150.8,133.9z"/>
	<path class="st0" d="M74.3,69.3c9.8,0,19.5,0,29.2,0c0,21.6,0,43,0,64.6c-9.8,0-19.5,0-29.2,0C74.3,112.4,74.3,90.9,74.3,69.3z
		 M79,86.9c0,0.3,0.1,0.5,0.1,0.7c3.6,10,6,20.3,6.5,30.9c0.1,1.6,0.6,3.2,1.3,4.7c0.6,1.3,1.8,1.7,3.1,1.2c0.7-0.2,1.3-0.6,1.9-1
		c2.8-2.2,5-4.8,6.5-8c1.6-3.3,1.6-6.6,0-9.9c-0.5-1.1-1.1-2.1-1.7-3.1c-3.8-5.9-8.7-11-13.7-16c-0.2-0.2-0.7-0.4-0.9-0.3
		C81.1,86.1,80.1,86.5,79,86.9z"/>
	<path d="M79,86.9c1-0.4,2-0.7,3.1-1c0.3-0.1,0.7,0.1,0.9,0.3c5,5,9.8,10.1,13.7,16c0.6,1,1.2,2.1,1.7,3.1c1.6,3.3,1.6,6.6,0,9.9
		c-1.5,3.2-3.8,5.8-6.5,8c-0.6,0.4-1.2,0.8-1.9,1c-1.4,0.5-2.6,0.2-3.1-1.2c-0.6-1.5-1.2-3.1-1.3-4.7c-0.5-10.7-2.9-20.9-6.5-30.9
		C79.1,87.4,79.1,87.2,79,86.9z"/>
</g>
</svg>
