<?xml version="1.0" encoding="utf-8"?>
<!-- Generator: Adobe Illustrator 20.1.0, SVG Export Plug-In . SVG Version: 6.00 Build 0)  -->
<svg version="1.1" id="图层_1" xmlns="http://www.w3.org/2000/svg" xmlns:xlink="http://www.w3.org/1999/xlink" x="0px" y="0px"
	 viewBox="0 0 360 360" style="enable-background:new 0 0 360 360;" xml:space="preserve">
<style type="text/css">
	.st0{fill:#FFFFFF;}
</style>
<g>
	<path class="st0" d="M0.2,360.5c0-120.1,0-240.2,0-360.2c120.1,0,240.2,0,360.2,0c0,120.1,0,240.2,0,360.2
		C240.4,360.5,120.3,360.5,0.2,360.5z M148.8,274.7c0,3.7,0,7.2,0,10.7c0,3.8-0.1,7.7,0.3,11.5c0.7,6.6,4.2,11,10.6,13.1
		c3.2,1,6.6,1.2,10,1.2c39.3,0,78.6,0,117.8,0c4.5,0,8.9-0.4,13.4-0.9c3.3-0.3,6.5-1,9.2-3c4.9-3.6,7.8-8.6,10.8-13.8
		c-1-0.5-1.9-0.9-2.8-1.4c-6.2-3.3-10.6-7.9-11-15.3c-0.3-5.6-0.4-11.3-0.6-16.9c-0.1-2.1,0-4.3,0-6.5c-1.4,0-2.9,0-4.4,0
		c-0.1,0.2-0.1,0.3-0.1,0.3c-0.9,9.5-1.8,18.9-2.7,28.4c-0.3,3.4-0.9,6.8-2.6,9.9c-2.2,4-5.5,6.1-10.1,6.1c-26.5,0-53,0-79.4,0
		c-0.5,0-1,0-1.5,0c0-7.9,0-15.7,0-23.5c23.1,0,46.1,0,69.3,0c0,2.7,0,5.4,0,8.2c0.6-0.1,1-0.2,1.4-0.4c4.2-1.3,8.5-2.6,12.7-3.9
		c1-0.3,1.3-0.7,1.2-1.7c-0.9-15.5-1-31.1-1.1-46.6c0-1.2,0.4-1.9,1.4-2.5c2.4-1.4,4.8-2.9,7.1-4.4c0.3-0.2,0.6-0.4,0.7-0.5
		c-5.5-5.5-10.9-10.9-16.5-16.5c-0.2,0.2-0.4,0.5-0.7,0.8c-2.6,2.9-5.2,5.8-7.7,8.7c-0.6,0.7-1.3,1-2.3,1c-21.4,0-42.8,0-64.2,0
		c-0.5,0-0.9,0-1.4,0c0-6.7,0-13.3,0-19.9c19.2,0,38.3,0,57.6,0c0,2.7,0,5.4,0,8.1c0.5-0.1,0.8-0.2,1.1-0.3
		c3.9-1.2,7.8-2.4,11.7-3.6c2.5-0.8,2.4-0.8,2.3-3.4c-0.3-7.8-0.6-15.6-0.9-23.4c0-0.9,0.2-1.4,1-1.8c2.8-1.7,5.6-3.5,8.5-5.3
		c-5.6-4.8-11-9.5-16.6-14.2c-3,3-5.8,5.8-8.6,8.7c-0.6,0.6-1.2,0.8-2,0.8c-56.2,0-112.3,0-168.5,0c-0.7,0-1.3-0.2-2-0.4
		c-4.8-2-9.6-4.1-14.4-6.2c-0.4-0.2-0.8-0.3-1.3-0.5c0.7,17.4,0.7,34.5,0,51.9c5.2-1.6,10.3-3.2,15.4-4.7c0-2,0-3.9,0-5.8
		c20,0,40,0,59.9,0c0,6.7,0,13.2,0,19.9c-0.4,0-0.6,0.1-0.9,0.1c-21,0-41.9,0-62.9,0c-0.5,0-1.1-0.1-1.6-0.4
		c-3.7-1.7-7.3-3.4-11-5.1c-1.9-0.9-3.9-1.8-6-2.8c0.8,26,0.7,51.9,0,77.7c0.3,0,0.4,0,0.5,0c4.7-1.4,9.3-2.9,14-4.3
		c0.7-0.2,0.9-0.6,0.9-1.3c0-2,0-4,0-6C104.1,274.7,126.4,274.7,148.8,274.7z"/>
	<path d="M148.8,274.7c-22.4,0-44.7,0-67.1,0c0,2.1,0,4,0,6c0,0.7-0.1,1.1-0.9,1.3c-4.7,1.4-9.3,2.8-14,4.3c-0.1,0-0.2,0-0.5,0
		c0.7-25.9,0.8-51.7,0-77.7c2.1,1,4.1,1.9,6,2.8c3.7,1.7,7.3,3.4,11,5.1c0.5,0.2,1.1,0.4,1.6,0.4c21,0,41.9,0,62.9,0
		c0.3,0,0.6,0,0.9-0.1c0-6.6,0-13.2,0-19.9c-19.9,0-39.8,0-59.9,0c0,1.9,0,3.8,0,5.8c-5.1,1.6-10.2,3.1-15.4,4.7
		c0.7-17.3,0.7-34.5,0-51.9c0.5,0.2,0.9,0.3,1.3,0.5c4.8,2.1,9.6,4.1,14.4,6.2c0.6,0.3,1.3,0.4,2,0.4c56.2,0,112.3,0,168.5,0
		c0.8,0,1.4-0.2,2-0.8c2.8-2.9,5.7-5.7,8.6-8.7c5.5,4.7,11,9.4,16.6,14.2c-2.9,1.8-5.7,3.6-8.5,5.3c-0.7,0.5-1,1-1,1.8
		c0.3,7.8,0.6,15.6,0.9,23.4c0.1,2.6,0.2,2.6-2.3,3.4c-3.9,1.2-7.8,2.4-11.7,3.6c-0.3,0.1-0.6,0.2-1.1,0.3c0-2.7,0-5.4,0-8.1
		c-19.3,0-38.4,0-57.6,0c0,6.6,0,13.2,0,19.9c0.5,0,1,0,1.4,0c21.4,0,42.8,0,64.2,0c1,0,1.6-0.3,2.3-1c2.5-2.9,5.1-5.8,7.7-8.7
		c0.3-0.3,0.5-0.6,0.7-0.8c5.6,5.6,11,11,16.5,16.5c-0.2,0.1-0.4,0.3-0.7,0.5c-2.4,1.5-4.7,3-7.1,4.4c-1,0.6-1.4,1.2-1.4,2.5
		c0.1,15.5,0.2,31.1,1.1,46.6c0.1,1-0.2,1.4-1.2,1.7c-4.2,1.2-8.5,2.6-12.7,3.9c-0.4,0.1-0.8,0.2-1.4,0.4c0-2.8,0-5.4,0-8.2
		c-23.2,0-46.2,0-69.3,0c0,7.8,0,15.6,0,23.5c0.5,0,1,0,1.5,0c26.5,0,53,0,79.4,0c4.6,0,7.9-2.1,10.1-6.1c1.7-3.1,2.3-6.5,2.6-9.9
		c0.9-9.5,1.8-18.9,2.7-28.4c0-0.1,0-0.2,0.1-0.3c1.5,0,3,0,4.4,0c0,2.2-0.1,4.3,0,6.5c0.2,5.6,0.3,11.3,0.6,16.9
		c0.4,7.4,4.8,12,11,15.3c0.9,0.5,1.8,0.9,2.8,1.4c-2.9,5.1-5.9,10.2-10.8,13.8c-2.7,2-6,2.7-9.2,3c-4.4,0.5-8.9,0.8-13.4,0.9
		c-39.3,0.1-78.6,0-117.8,0c-3.4,0-6.7-0.2-10-1.2c-6.4-2-10-6.5-10.6-13.1c-0.4-3.8-0.2-7.7-0.3-11.5
		C148.8,281.8,148.8,278.3,148.8,274.7z M191.2,298c0-42.8,0-85.5,0-128.2c-9.4,0-18.7,0-28.2,0c0,0.6,0,1.1,0,1.6
		c0,37,0,74.1,0,111.1c0,1.5,0.1,3,0.2,4.4c0.6,6.9,4.9,11,11.8,11.1c5.1,0.1,10.2,0,15.4,0.1C190.6,298.1,190.9,298.1,191.2,298z
		 M205.5,242.7c23.2,0,46.2,0,69.3,0c0-6.3,0-12.4,0-18.6c-23.1,0-46.2,0-69.3,0C205.5,230.3,205.5,236.4,205.5,242.7z M81.8,242.7
		c22.4,0,44.6,0,66.9,0c0-6.3,0-12.4,0-18.6c-22.3,0-44.6,0-66.9,0C81.8,230.2,81.8,236.4,81.8,242.7z M205.5,249.9
		c0,5.9,0,11.7,0,17.5c23.1,0,46.1,0,69.2,0c0-5.9,0-11.7,0-17.5C251.6,249.9,228.6,249.9,205.5,249.9z M148.8,169.8
		c-20.1,0-40,0-59.9,0c0,6.7,0,13.2,0,19.8c20,0,39.9,0,59.9,0C148.8,183,148.8,176.4,148.8,169.8z M81.8,267.4
		c22.4,0,44.7,0,66.9,0c0-5.9,0-11.6,0-17.4c-22.3,0-44.6,0-66.9,0C81.8,255.8,81.8,261.5,81.8,267.4z M205.5,189.6
		c19.2,0,38.4,0,57.5,0c0-6.7,0-13.2,0-19.8c-19.2,0-38.3,0-57.5,0C205.5,176.4,205.5,183,205.5,189.6z"/>
	<path class="st0" d="M191.2,298c-0.3,0-0.5,0.1-0.8,0.1c-5.1,0-10.2,0-15.4-0.1c-7-0.1-11.3-4.2-11.8-11.1c-0.1-1.5-0.2-3-0.2-4.4
		c0-37,0-74.1,0-111.1c0-0.5,0-1,0-1.6c9.4,0,18.8,0,28.2,0C191.2,212.5,191.2,255.2,191.2,298z"/>
	<path class="st0" d="M205.5,242.7c0-6.2,0-12.4,0-18.6c23.1,0,46.1,0,69.3,0c0,6.2,0,12.4,0,18.6
		C251.7,242.7,228.6,242.7,205.5,242.7z"/>
	<path class="st0" d="M81.8,242.7c0-6.3,0-12.4,0-18.6c22.3,0,44.6,0,66.9,0c0,6.2,0,12.4,0,18.6
		C126.4,242.7,104.2,242.7,81.8,242.7z"/>
	<path class="st0" d="M205.5,249.9c23.1,0,46.1,0,69.2,0c0,5.8,0,11.6,0,17.5c-23.1,0-46.1,0-69.2,0
		C205.5,261.6,205.5,255.8,205.5,249.9z"/>
	<path class="st0" d="M148.8,169.8c0,6.6,0,13.2,0,19.8c-20,0-39.9,0-59.9,0c0-6.6,0-13.1,0-19.8
		C108.8,169.8,128.7,169.8,148.8,169.8z"/>
	<path class="st0" d="M81.8,267.4c0-5.9,0-11.6,0-17.4c22.3,0,44.6,0,66.9,0c0,5.8,0,11.6,0,17.4
		C126.4,267.4,104.2,267.4,81.8,267.4z"/>
	<path class="st0" d="M205.5,189.6c0-6.6,0-13.2,0-19.8c19.2,0,38.3,0,57.5,0c0,6.6,0,13.2,0,19.8
		C243.8,189.6,224.7,189.6,205.5,189.6z"/>
</g>
</svg>
