<?xml version="1.0" encoding="utf-8"?>
<!-- Generator: Adobe Illustrator 20.1.0, SVG Export Plug-In . SVG Version: 6.00 Build 0)  -->
<svg version="1.1" id="图层_1" xmlns="http://www.w3.org/2000/svg" xmlns:xlink="http://www.w3.org/1999/xlink" x="0px" y="0px"
	 viewBox="0 0 360 360" style="enable-background:new 0 0 360 360;" xml:space="preserve">
<style type="text/css">
	.st0{fill:#FFFFFF;}
</style>
<g>
	<path class="st0" d="M0.2,360.5c0-120.1,0-240.2,0-360.2c120.1,0,240.2,0,360.2,0c0,120.1,0,240.2,0,360.2
		C240.4,360.5,120.3,360.5,0.2,360.5z M193.5,83.8c-4,4-8.1,8.1-12.1,12.1c-0.6,0.6-1.1,0.8-1.9,0.8c-10.9,0-21.8,0-32.8,0
		c-0.4,0-0.8,0-1.3,0c0-9.5,0-18.9,0-28.3c17.2-1.9,34.2-4.2,51.7-3.6c-6.6-6.6-13.1-13.1-19.5-19.5c-0.2-0.2-0.8-0.3-1.1-0.2
		c-7.2,3.6-14.8,5.9-22.5,8.1c-14.9,4.2-29.9,7.6-45.1,9.9c-11,1.6-22,2.9-33,4.3c-3.1,0.4-6.3,0.6-9.4,0.9c0,1.6,0,3.1,0,4.8
		c20.9-0.4,41.6-2.1,62.3-3.5c0,9.1,0,18,0,27.1c-25.1,0-50.1,0-75.4,0c3.5,3.5,6.9,6.9,10.2,10.2c0.2,0.2,0.9,0.3,1.3,0.2
		c7.3-1.8,14.7-3,22.3-3.1c7.6-0.2,15.2-0.1,22.8-0.1c0.3,0,0.6,0.1,1.1,0.1c-15.9,25.8-37.2,45.9-62.4,62.3
		c0.9,1.3,1.6,2.4,2.4,3.6c30.6-15.5,57.7-34.9,77.6-63.3c0.1,0,0.2,0.1,0.3,0.1c-0.4,14.7-0.8,29.4-1.2,44.2
		c0.2-0.1,0.4-0.1,0.5-0.2c5.5-2.5,10.9-5.1,16.4-7.7c0.4-0.2,0.7-0.8,0.7-1.3c0.1-4,0-8.1,0-12.1c0-1.8,0-3.7,0-5.5
		c0.2,0,0.3,0,0.4,0c0.5,0.2,0.9,0.3,1.3,0.5c17.1,6.8,33.3,15.2,46.1,28.9c1.8,2,4,3.6,6.6,4.5c2.6,1,4.6,0.2,5.6-2.4
		c0.5-1.4,0.9-2.9,1-4.4c0.6-5.6-0.4-10.7-4.3-15c-3.3-3.7-7.5-5.9-12.1-7.4c-12-3.9-24.2-6.8-36.5-9.4c-2.7-0.6-5.4-1.1-8.1-1.6
		c0-4.7,0-9.3,0-14.1c22.7,0,45.3,0,68,0C206.8,97,200.2,90.4,193.5,83.8z M57,279.4c4.3,6.3,8.6,12.5,12.8,18.7
		c1-1.3,1.9-2.6,3-3.8c3.8-4.3,8.3-7.7,13-11c12.4-8.7,25.6-16.2,38.8-23.6c0.2-0.1,0.4-0.1,0.7-0.2c0,0.5,0,1,0,1.4
		c0,8.3,0.1,16.6,0.1,25c0,3.8-1.6,6.3-4.9,7.1c-1.1,0.3-2.3,0.5-3.4,0.4c-6.6-0.4-13.1-0.9-19.7-1.4c-2.4-0.2-4.8-0.6-7.3-0.9
		c0,1.7,0,3.2,0,4.7c2.9,0.9,5.8,1.7,8.6,2.6c4.9,1.6,9.6,3.6,13.6,6.8c3.3,2.6,5.7,5.8,6,10.2c0,0.1,0.1,0.3,0.2,0.5
		c1.8-0.5,3.6-0.9,5.3-1.5c4.4-1.4,8.4-3.5,11.5-7c4.2-4.6,5.4-10.2,5.4-16.2c-0.1-10.3,0-20.6,0-30.8c0-0.3,0.1-0.6,0.1-1.1
		c3.3,2.3,6.6,4.3,9.7,6.6c10.1,7.2,19.2,15.4,25.7,26.2c1.3,2.1,3,4,4.9,5.7c2.7,2.4,5.3,1.9,6.7-1.4c1-2.2,1.8-4.6,2.2-7.1
		c0.8-5.8-0.5-11.2-4.9-15.4c-2.3-2.1-5-3.8-7.7-5.4c-8.5-4.8-17.7-8.3-26.9-11.7c-3.2-1.2-6.5-2.3-9.8-3.5c0-2.4,0-4.8,0-7.2
		c0-0.7,0.2-1.1,0.9-1.4c7.2-2.9,14.4-6,21.6-8.8c7.3-2.9,14.8-5.5,22.5-6.8c1.4-0.2,2.8-0.4,4.4-0.6c-5.2-5.6-10.2-11-15.2-16.4
		c-9.2,11.7-21.7,19.3-34.2,27.1c0-0.6,0-1,0-1.4c0-7.8,0-15.6,0-23.4c0-0.9,0.3-1.4,1-1.9c3-2.3,5.9-4.5,8.8-6.8
		c0.3-0.2,0.5-0.4,0.8-0.7c-9.1-3.6-18-7.1-27.1-10.6c0,0.5,0,0.8,0,1.1c0.3,7.4,0.7,14.8,0.8,22.2c0.2,11.1,0.2,22.2,0.3,33.3
		c0,0.8-0.2,1.3-1,1.6c-10.5,4.8-21,9.7-31.6,14.3c-9.5,4.2-19.1,8-29.1,10.8C61.5,278.4,59.3,278.8,57,279.4z M47.5,225.1
		c0.3-0.1,0.5-0.1,0.7-0.2c7.8-3.4,15.8-6.6,23.5-10.3c20.7-9.9,39.8-22.3,57.4-37c0.7-0.6,1.2-0.7,2-0.3c6.5,3.1,13.2,5.9,19.6,9.2
		c12.9,6.5,25.1,13.9,34.9,24.7c1.7,1.8,3.9,3.3,6.2,4.4c2.5,1.3,4.5,0.3,5.4-2.3c0.6-1.8,1-3.7,1.1-5.6c0.5-5.8-1.4-10.9-5.6-14.9
		c-3.6-3.5-8.1-5.6-12.8-7.1c-12.8-3.9-25.6-7.7-38.4-11.5c-2.5-0.7-5-1.4-7.4-2.1c0-0.1,0-0.2,0-0.3c4.5-1.9,9-3.8,13.7-5.7
		c-6.8-4.8-13.4-9.5-20.1-14.2c-0.2,0.2-0.3,0.4-0.4,0.5c-9.2,14.5-21,26.8-34.2,37.7c-13.5,11.2-28.1,20.7-43.3,29.3
		c-1.2,0.7-2.3,1.3-3.5,2C46.7,222.8,47.1,223.9,47.5,225.1z M79.4,218.1c1,0.9,1.9,1.8,2.9,2.8c7.8,7.7,15.1,15.7,19.6,25.8
		c0.5,1.1,1.3,2.1,2.1,3c1.4,1.5,3,1.5,4.6,0.1c0.5-0.4,0.9-0.8,1.2-1.3c2-2.8,3.4-5.9,4.2-9.3c0.5-2,0.6-4,0.1-5.9
		c-1-4-3.8-6.5-7.3-8.3c-6.9-3.6-14.1-6.7-21.5-9.2c-1.2-0.4-2.6-1.3-3.6-1c-1,0.3-1.5,1.9-2.2,3C79.5,217.8,79.4,217.9,79.4,218.1z
		"/>
	<path d="M193.5,83.8c6.7,6.7,13.3,13.3,20,20c-22.7,0-45.3,0-68,0c0,4.8,0,9.4,0,14.1c2.7,0.5,5.4,1.1,8.1,1.6
		c12.3,2.6,24.5,5.5,36.5,9.4c4.6,1.5,8.9,3.7,12.1,7.4c3.8,4.3,4.9,9.4,4.3,15c-0.2,1.5-0.5,3-1,4.4c-1,2.6-3,3.4-5.6,2.4
		c-2.6-1-4.7-2.6-6.6-4.5c-12.8-13.7-29-22.1-46.1-28.9c-0.4-0.2-0.9-0.3-1.3-0.5c-0.1,0-0.2,0-0.4,0c0,1.8,0,3.7,0,5.5
		c0,4,0,8.1,0,12.1c0,0.4-0.3,1.1-0.7,1.3c-5.4,2.6-10.9,5.1-16.4,7.7c-0.1,0.1-0.3,0.1-0.5,0.2c0.4-14.8,0.8-29.5,1.2-44.2
		c-0.1,0-0.2-0.1-0.3-0.1c-19.9,28.4-47,47.8-77.6,63.3c-0.8-1.2-1.6-2.3-2.4-3.6c25.2-16.3,46.4-36.5,62.4-62.3
		c-0.5-0.1-0.8-0.1-1.1-0.1c-7.6,0-15.2,0-22.8,0.1c-7.5,0.1-15,1.3-22.3,3.1c-0.4,0.1-1,0.1-1.3-0.2c-3.4-3.3-6.7-6.6-10.2-10.2
		c25.3,0,50.3,0,75.4,0c0-9.1,0-18,0-27.1c-20.7,1.4-41.4,3.1-62.3,3.5c0-1.6,0-3.2,0-4.8c3.1-0.3,6.3-0.6,9.4-0.9
		c11-1.4,22-2.7,33-4.3c15.3-2.2,30.3-5.7,45.1-9.9c7.7-2.2,15.3-4.5,22.5-8.1c0.3-0.1,0.9,0,1.1,0.2c6.5,6.4,12.9,12.9,19.5,19.5
		c-17.5-0.6-34.5,1.7-51.7,3.6c0,9.4,0,18.8,0,28.3c0.4,0,0.8,0,1.3,0c10.9,0,21.8,0,32.8,0c0.8,0,1.3-0.2,1.9-0.8
		C185.4,91.9,189.5,87.8,193.5,83.8z"/>
	<path d="M57,279.4c2.3-0.6,4.5-1,6.6-1.6c10-2.8,19.6-6.6,29.1-10.8c10.6-4.7,21.1-9.6,31.6-14.3c0.8-0.3,1-0.8,1-1.6
		c-0.1-11.1-0.1-22.2-0.3-33.3c-0.1-7.4-0.6-14.8-0.8-22.2c0-0.3,0-0.6,0-1.1c9,3.5,18,7,27.1,10.6c-0.3,0.3-0.6,0.5-0.8,0.7
		c-2.9,2.3-5.9,4.6-8.8,6.8c-0.7,0.5-1,1-1,1.9c0,7.8,0,15.6,0,23.4c0,0.4,0,0.7,0,1.4c12.6-7.8,25-15.3,34.2-27.1
		c5,5.4,10.1,10.8,15.2,16.4c-1.6,0.2-3,0.3-4.4,0.6c-7.8,1.4-15.2,4-22.5,6.8c-7.3,2.8-14.4,5.9-21.6,8.8c-0.7,0.3-0.9,0.7-0.9,1.4
		c0,2.4,0,4.7,0,7.2c3.3,1.2,6.5,2.3,9.8,3.5c9.2,3.4,18.3,6.9,26.9,11.7c2.7,1.5,5.5,3.3,7.7,5.4c4.4,4.1,5.7,9.6,4.9,15.4
		c-0.3,2.4-1.1,4.8-2.2,7.1c-1.5,3.3-4.1,3.8-6.7,1.4c-1.8-1.7-3.6-3.6-4.9-5.7c-6.5-10.8-15.6-19-25.7-26.2
		c-3.1-2.2-6.3-4.3-9.7-6.6c-0.1,0.5-0.1,0.8-0.1,1.1c0,10.3,0,20.6,0,30.8c0,6-1.2,11.6-5.4,16.2c-3.1,3.5-7.1,5.6-11.5,7
		c-1.7,0.6-3.5,1-5.3,1.5c-0.1-0.2-0.2-0.4-0.2-0.5c-0.3-4.4-2.7-7.6-6-10.2c-4.1-3.2-8.8-5.2-13.6-6.8c-2.8-0.9-5.6-1.7-8.6-2.6
		c0-1.5,0-3,0-4.7c2.5,0.3,4.9,0.7,7.3,0.9c6.6,0.5,13.1,1,19.7,1.4c1.1,0.1,2.3-0.1,3.4-0.4c3.3-0.8,5-3.3,4.9-7.1
		c-0.1-8.3-0.1-16.6-0.1-25c0-0.4,0-0.9,0-1.4c-0.3,0.1-0.5,0.1-0.7,0.2c-13.3,7.3-26.4,14.8-38.8,23.6c-4.6,3.3-9.2,6.7-13,11
		c-1.1,1.2-1.9,2.5-3,3.8C65.6,291.9,61.3,285.7,57,279.4z"/>
	<path d="M47.5,225.1c-0.4-1.2-0.8-2.3-1.2-3.5c1.2-0.7,2.4-1.3,3.5-2c15.2-8.6,29.8-18.1,43.3-29.3c13.2-10.9,24.9-23.2,34.2-37.7
		c0.1-0.1,0.2-0.2,0.4-0.5c6.7,4.7,13.3,9.4,20.1,14.2c-4.7,2-9.2,3.8-13.7,5.7c0,0.1,0,0.2,0,0.3c2.5,0.7,5,1.3,7.4,2.1
		c12.8,3.8,25.6,7.6,38.4,11.5c4.7,1.4,9.1,3.6,12.8,7.1c4.3,4.1,6.1,9.1,5.6,14.9c-0.1,1.9-0.5,3.8-1.1,5.6c-0.9,2.6-3,3.6-5.4,2.3
		c-2.2-1.2-4.5-2.6-6.2-4.4c-9.8-10.8-22-18.3-34.9-24.7c-6.4-3.3-13.1-6.1-19.6-9.2c-0.8-0.4-1.3-0.3-2,0.3
		c-17.6,14.7-36.7,27.1-57.4,37c-7.7,3.7-15.6,6.9-23.5,10.3C48.1,225,47.8,225,47.5,225.1z"/>
	<path d="M79.4,218.1c0.1-0.2,0.1-0.3,0.1-0.3c0.7-1,1.3-2.6,2.2-3c1-0.3,2.4,0.5,3.6,1c7.4,2.6,14.6,5.6,21.5,9.2
		c3.5,1.8,6.3,4.2,7.3,8.3c0.5,2,0.4,4-0.1,5.9c-0.8,3.4-2.2,6.5-4.2,9.3c-0.3,0.5-0.8,0.9-1.2,1.3c-1.6,1.3-3.2,1.3-4.6-0.1
		c-0.8-0.9-1.6-1.9-2.1-3c-4.5-10.1-11.8-18.1-19.6-25.8C81.3,219.9,80.4,219,79.4,218.1z"/>
</g>
</svg>
