<?xml version="1.0" encoding="utf-8"?>
<!-- Generator: Adobe Illustrator 20.1.0, SVG Export Plug-In . SVG Version: 6.00 Build 0)  -->
<svg version="1.1" id="图层_1" xmlns="http://www.w3.org/2000/svg" xmlns:xlink="http://www.w3.org/1999/xlink" x="0px" y="0px"
	 viewBox="0 0 360 360" style="enable-background:new 0 0 360 360;" xml:space="preserve">
<style type="text/css">
	.st0{fill:#FFFFFF;}
</style>
<g>
	<path class="st0" d="M-0.1,360.1c0-120.1,0-240.2,0-360.2c120.1,0,240.2,0,360.2,0c0,120.1,0,240.2,0,360.2
		C240,360.1,120,360.1-0.1,360.1z M109.6,184.8c0,43.2-0.1,86.3-1.1,129.5c0.3-0.1,0.4-0.1,0.6-0.2c4.7-2.2,9.3-4.3,14-6.5
		c0.6-0.3,0.7-0.6,0.7-1.2c-0.2-3.3-0.4-6.6-0.4-9.9c-0.2-11-0.4-22.1-0.5-33.1c-0.1-12.4-0.1-24.7-0.2-37.1c0-8,0-15.9,0-23.9
		c0-4.3-0.1-8.6-0.1-12.8c0-1.6,0-3.2,0-4.7c10.7,0,21.2,0,31.8,0c0,0.5,0,0.8,0,1.2c0,32,0,64.1,0,96.1c0,1.6-0.2,3.3-0.5,4.9
		c-0.6,3-2.1,4.2-5.2,3.9c-3.3-0.3-6.7-0.8-10-1.3c-2.2-0.3-4.4-0.9-6.8-1.3c0,1.3,0.1,2.4,0,3.6c-0.1,0.9,0.3,1.2,1.1,1.5
		c3,1.3,6.1,2.6,8.9,4.3c4.2,2.5,7.3,6,8.5,10.9c0.2,0.7,0.3,1.4,0.4,2.1c3.6-1.2,7-2.7,9.9-4.9c5.2-3.8,7.7-9,7.7-15.4
		c0-33.6,0-67.2,0-100.8c0-1,0.3-1.6,1.1-2.1c2.4-1.6,4.7-3.4,7.2-5.1c-5.2-4.8-10.2-9.5-15.4-14.2c-0.3,0.4-0.6,0.7-0.9,1
		c-2.2,2.5-4.5,5-6.6,7.6c-0.6,0.7-1.2,0.9-2.1,0.9c-9.3,0-18.6,0-28,0c-0.4,0-0.9,0-1.4-0.1c0-0.6,0-1,0-1.5
		c0-10.3,0.1-20.6-0.1-30.8c-0.1-3,0.7-4.9,3.4-6.2c2.1-1,4-2.4,6.2-3.8c-8-4-15.7-7.9-23.4-11.7c0.4,18.1,0.7,36,1.1,54
		c-0.6,0.1-0.9,0.1-1.2,0.1c-10.4,0-20.7,0-31.1,0c-0.6,0-1.2-0.2-1.7-0.4c-4-2-8-4-12-6c-0.4-0.2-0.8-0.4-1.3-0.6
		c0.8,48.4,0.8,96.6,0,144.9c0.5-0.2,0.8-0.3,1.2-0.5c3.9-1.6,7.9-3.3,11.8-4.9c1-0.4,1.2-0.9,1.2-1.9c0-16.3,0-32.6,0-48.8
		c0-0.5,0-0.9,0-1.5c0.9,0.4,1.6,0.7,2.3,1.1c0.1-0.3,0.3-0.5,0.3-0.7c2.9-7.2,6.5-14,10.5-20.6c4.8-7.9,9.8-15.6,18.6-20
		c-6.3-4.3-12.5-8.6-18.5-12.7c-2,8.4-3.8,16.7-5.9,25c-2.1,8.2-4.6,16.4-7,24.6c-0.1,0-0.1,0-0.2-0.1c0-23.2,0-46.4,0-69.6
		C87.7,184.8,98.5,184.8,109.6,184.8z M48.2,115.1c3.6,3.6,6.9,7,10.3,10.3c0.3,0.2,0.9,0.3,1.3,0.2c9.1-2.4,18.3-3.3,27.7-3.3
		c31.6,0,63.2,0,94.8,0c0.5,0,0.9,0,1.6,0c-5.3-6.1-10.3-11.9-15.4-17.8c-3.4,3.4-6.6,6.7-9.9,9.9c-0.4,0.4-1.2,0.7-1.7,0.7
		c-4.7,0.1-9.4,0-14.2,0c-0.4,0-0.8,0-1.2-0.1c0-4.6,0-9,0-13.5c0-0.4,0.3-0.8,0.6-1.1c4-4.2,7.9-8.4,12-12.4
		c5.1-5,10.3-9.9,16.3-13.9c2.3-1.5,4.9-2.7,7.3-4c-5.7-4.9-11.5-10-17.4-15.1c-5,14.2-11.8,27.4-18.7,40.6
		c-0.1-0.2-0.1-0.4-0.1-0.6c0-11.5,0-23,0-34.4c0-0.5,0.3-1.1,0.7-1.4c2.4-2.2,4.9-4.3,7.6-6.5c-7.9-3.2-15.7-6.3-23.3-9.3
		c0.4,23.9,0.7,47.7,1.1,71.6c-7.3,0-14.3,0-21.3,0c0-0.4,0-0.7,0-1c0-18.1,0-36.2,0-54.4c0-0.8,0.3-1.2,0.9-1.6
		c2.8-1.7,5.6-3.5,8.5-5.3c-8-3.2-15.7-6.3-23.4-9.4c0.4,23.9,0.7,47.8,1.1,71.7C78.2,115.1,63.4,115.1,48.2,115.1z M134.3,171.7
		c0.2-0.2,0.4-0.4,0.6-0.5c4.3-4.2,8.5-8.5,12.9-12.7c5.2-4.9,10.7-9.4,17-12.8c1.8-1,3.8-1.7,5.8-2.5c-5.8-4.6-11.6-9.3-17.5-14
		c-5.5,14.6-14,27.3-22.4,40c0.2,0.2,0.3,0.3,0.5,0.4C132.3,170.4,133.3,171.1,134.3,171.7z M123.8,216.5c0.3,0.5,0.6,0.9,0.9,1.3
		c4.6,6.5,8.2,13.5,10.1,21.2c1.1,4.2,1.6,8.5,2.6,12.8c0.4,1.7,1,3.5,1.8,5c0.9,1.8,2.4,2,4,0.7c0.9-0.7,1.6-1.5,2.3-2.4
		c5.4-7.6,6.5-15,0-23c-4.6-5.7-9.8-10.7-15.3-15.5c-1-0.8-2-2.2-3-2.2c-1.1,0-2.2,1.3-3.3,2C123.9,216.4,123.9,216.4,123.8,216.5z
		 M62.6,62.1c-0.3,0.3-0.5,0.4-0.7,0.6c-1.7,1.7-1.7,1.7-0.7,3.9c4,8.9,6.1,18.2,7.4,27.8c0.4,3,0.9,6,2.6,8.7
		c1.3,2.1,3,2.5,4.9,0.9c3.6-3.1,6-6.9,6.7-11.7c0.6-4.6-0.8-8.6-3.3-12.3c-2.9-4.4-6.5-8.2-10.3-11.8C67,66.1,64.8,64.1,62.6,62.1z
		 M69.6,135.1c0,0.1,0,0.2,0.1,0.2c0.4,0.6,0.9,1.2,1.3,1.8c5,7.1,8.2,14.9,10,23.4c0.6,2.5,1.6,4.9,2.8,7.2
		c1.3,2.4,3.4,2.6,5.6,1.1c1.8-1.2,3.2-2.7,4-4.7c2.3-5.8,2.3-11.3-1.9-16.3c-5.4-6.5-12.5-10.8-19.6-15.1
		C71.1,133.6,70.4,134.4,69.6,135.1z"/>
	<path d="M109.6,184.8c-11,0-21.9,0-32.8,0c0,23.2,0,46.4,0,69.6c0.1,0,0.1,0,0.2,0.1c2.3-8.2,4.8-16.3,7-24.6
		c2.1-8.3,3.9-16.6,5.9-25c6.1,4.2,12.3,8.4,18.5,12.7c-8.7,4.4-13.8,12.1-18.6,20c-4,6.6-7.6,13.4-10.5,20.6
		c-0.1,0.2-0.2,0.4-0.3,0.7c-0.7-0.3-1.4-0.7-2.3-1.1c0,0.6,0,1.1,0,1.5c0,16.3,0,32.6,0,48.8c0,1-0.2,1.5-1.2,1.9
		c-4,1.6-7.9,3.2-11.8,4.9c-0.3,0.1-0.7,0.3-1.2,0.5c0.8-48.3,0.8-96.5,0-144.9c0.5,0.2,0.9,0.4,1.3,0.6c4,2,8,4,12,6
		c0.5,0.3,1.1,0.4,1.7,0.4c10.4,0,20.7,0,31.1,0c0.3,0,0.6,0,1.2-0.1c-0.4-18-0.7-35.9-1.1-54c7.6,3.8,15.4,7.7,23.4,11.7
		c-2.2,1.4-4,2.8-6.2,3.8c-2.8,1.3-3.5,3.1-3.4,6.2c0.2,10.3,0.1,20.6,0.1,30.8c0,0.5,0,0.9,0,1.5c0.5,0,1,0.1,1.4,0.1
		c9.3,0,18.6,0,28,0c0.9,0,1.5-0.2,2.1-0.9c2.2-2.6,4.4-5.1,6.6-7.6c0.3-0.3,0.5-0.6,0.9-1c5.1,4.7,10.2,9.4,15.4,14.2
		c-2.4,1.8-4.8,3.5-7.2,5.1c-0.8,0.6-1.1,1.1-1.1,2.1c0,33.6,0,67.2,0,100.8c0,6.5-2.6,11.6-7.7,15.4c-3,2.2-6.3,3.7-9.9,4.9
		c-0.2-0.7-0.3-1.4-0.4-2.1c-1.2-4.9-4.3-8.4-8.5-10.9c-2.8-1.7-5.9-2.9-8.9-4.3c-0.8-0.3-1.1-0.7-1.1-1.5c0.1-1.2,0-2.3,0-3.6
		c2.3,0.5,4.5,1,6.8,1.3c3.3,0.5,6.6,1,10,1.3c3.1,0.3,4.5-0.9,5.2-3.9c0.3-1.6,0.5-3.3,0.5-4.9c0-32,0-64.1,0-96.1
		c0-0.4,0-0.7,0-1.2c-10.6,0-21.1,0-31.8,0c0,1.6,0,3.1,0,4.7c0,4.3,0.1,8.6,0.1,12.8c0,8,0,15.9,0,23.9c0,12.4,0.1,24.7,0.2,37.1
		c0.1,11,0.3,22.1,0.5,33.1c0.1,3.3,0.3,6.6,0.4,9.9c0,0.6-0.1,0.9-0.7,1.2c-4.7,2.1-9.4,4.3-14,6.5c-0.1,0.1-0.3,0.1-0.6,0.2
		C109.5,271.1,109.6,228,109.6,184.8z"/>
	<path d="M48.2,115.1c15.1,0,29.9,0,45.1,0c-0.4-24-0.7-47.8-1.1-71.7c7.6,3.1,15.4,6.2,23.4,9.4c-3,1.8-5.7,3.6-8.5,5.3
		c-0.6,0.4-0.9,0.8-0.9,1.6c0,18.1,0,36.2,0,54.4c0,0.3,0,0.6,0,1c7,0,14,0,21.3,0c-0.4-23.9-0.7-47.7-1.1-71.6
		c7.6,3,15.4,6.2,23.3,9.3c-2.6,2.2-5.1,4.4-7.6,6.5c-0.4,0.3-0.7,0.9-0.7,1.4c0,11.5,0,23,0,34.4c0,0.2,0,0.4,0.1,0.6
		c6.9-13.2,13.6-26.4,18.7-40.6c5.9,5.1,11.7,10.2,17.4,15.1c-2.4,1.3-5,2.5-7.3,4c-6,3.9-11.3,8.8-16.3,13.9
		c-4.1,4.1-8,8.3-12,12.4c-0.3,0.3-0.6,0.7-0.6,1.1c0,4.5,0,8.9,0,13.5c0.5,0,0.8,0.1,1.2,0.1c4.7,0,9.4,0,14.2,0
		c0.6,0,1.3-0.3,1.7-0.7c3.3-3.2,6.5-6.5,9.9-9.9c5.1,5.9,10.2,11.7,15.4,17.8c-0.7,0-1.2,0-1.6,0c-31.6,0-63.2,0-94.8,0
		c-9.4,0-18.6,0.9-27.7,3.3c-0.4,0.1-1,0-1.3-0.2C55.2,122.1,51.9,118.7,48.2,115.1z"/>
	<path d="M134.3,171.7c-1-0.7-2-1.3-3-2c-0.2-0.1-0.3-0.2-0.5-0.4c8.4-12.8,16.9-25.4,22.4-40c5.9,4.7,11.7,9.3,17.5,14
		c-2,0.9-4,1.6-5.8,2.5c-6.3,3.3-11.8,7.9-17,12.8c-4.4,4.1-8.6,8.4-12.9,12.7C134.7,171.4,134.6,171.6,134.3,171.7z"/>
	<path d="M123.8,216.5c0.1-0.1,0.1-0.2,0.2-0.2c1.1-0.7,2.2-2,3.3-2c1,0,2,1.4,3,2.2c5.5,4.8,10.7,9.8,15.3,15.5
		c6.5,8,5.5,15.4,0,23c-0.6,0.9-1.4,1.8-2.3,2.4c-1.6,1.3-3.1,1.1-4-0.7c-0.8-1.6-1.4-3.3-1.8-5c-1-4.2-1.5-8.6-2.6-12.8
		c-2-7.7-5.5-14.7-10.1-21.2C124.4,217.4,124.1,217,123.8,216.5z"/>
	<path d="M62.6,62.1c2.2,2,4.4,4,6.6,6c3.8,3.6,7.4,7.4,10.3,11.8c2.5,3.8,3.9,7.8,3.3,12.3c-0.7,4.8-3.1,8.6-6.7,11.7
		c-1.9,1.6-3.6,1.2-4.9-0.9c-1.6-2.7-2.1-5.7-2.6-8.7c-1.4-9.6-3.4-18.9-7.4-27.8c-1-2.2-1-2.2,0.7-3.9C62,62.6,62.3,62.4,62.6,62.1
		z"/>
	<path d="M69.6,135.1c0.7-0.7,1.5-1.5,2.3-2.3c7.1,4.3,14.2,8.6,19.6,15.1c4.2,5,4.2,10.6,1.9,16.3c-0.8,2-2.2,3.5-4,4.7
		c-2.3,1.5-4.3,1.3-5.6-1.1c-1.2-2.2-2.3-4.7-2.8-7.2c-1.9-8.4-5-16.3-10-23.4c-0.4-0.6-0.9-1.2-1.3-1.8
		C69.6,135.3,69.6,135.2,69.6,135.1z"/>
</g>
</svg>
