<?xml version="1.0" encoding="utf-8"?>
<!-- Generator: Adobe Illustrator 20.1.0, SVG Export Plug-In . SVG Version: 6.00 Build 0)  -->
<svg version="1.1" id="图层_1" xmlns="http://www.w3.org/2000/svg" xmlns:xlink="http://www.w3.org/1999/xlink" x="0px" y="0px"
	 viewBox="0 0 360 360" style="enable-background:new 0 0 360 360;" xml:space="preserve">
<style type="text/css">
	.st0{fill:#FFFFFF;}
</style>
<g>
	<path class="st0" d="M0.2,360.5c0-120.1,0-240.2,0-360.2c120.1,0,240.2,0,360.2,0c0,120.1,0,240.2,0,360.2
		C240.4,360.5,120.3,360.5,0.2,360.5z M227.7,271.1c-26.3,19.1-54.9,33-85.9,42.4c0.7,1.1,1.4,2.1,2.1,3.1c0.2,0.3,0.7,0.4,1.1,0.3
		c11.1-1.7,21.9-4.4,32.6-7.9c18.4-6,35.7-14.2,52.4-24c2.5-1.5,4.9-3,7.4-4.4c9.4,7.6,19.2,14.5,29.6,20.4
		c10.4,6,21.3,11,32.8,14.9c4.1-9.1,11.5-12.9,21.1-13c0-1.3,0-2.4,0-3.5c-27.8-1.4-51.5-13.3-74.2-28.4c0.4-0.3,0.7-0.4,0.9-0.7
		c12-10.7,22.8-22.6,32.3-35.5c3.2-4.4,6.8-7.9,11.7-10.1c1.2-0.5,2.3-1.3,3.4-1.9c-5.5-5.5-11-11-16.6-16.6
		c-0.2,0.2-0.3,0.5-0.6,0.8c-2.6,3-5.3,5.9-7.9,8.9c-0.6,0.7-1.2,0.9-2,0.9c-7,0-13.9,0-20.9,0c-0.4,0-0.9,0-1.3,0
		c0-10.3,0-20.4,0-30.7c23.5,0,46.9,0,70.6,0c-6.8-7.2-13.4-14.2-20-21.2c-4.1,4.5-8.2,8.9-12.2,13.3c-0.6,0.6-1.2,0.9-2.1,0.9
		c-11.7,0-23.4,0-35,0c-0.4,0-0.8,0-1.2-0.1c-0.1-0.2-0.1-0.3-0.1-0.3c0-5.6,0-11.1,0-16.7c0-0.4,0.3-0.8,0.6-1.1c2-1.7,4-3.4,6-5.2
		c0.5-0.4,1-0.9,1.6-1.5c-8-2.8-15.7-5.5-23.5-8.2c0.4,11.1,0.8,21.9,1.2,33c-18.2,0-36.1,0-54.4,0c3.4,3.4,6.6,6.6,9.7,9.7
		c0.6,0.7,1.2,0.8,2.1,0.6c6.6-1.7,13.3-2.8,20.1-3c7.2-0.2,14.3-0.2,21.5-0.2c0.3,0,0.5,0.1,0.7,0.1c0,10.2,0,20.3,0,30.5
		c-16,0-32,0-48,0c0.1,0.2,0.1,0.4,0.2,0.4c2.9,2.9,5.7,5.7,8.6,8.5c0.2,0.2,0.9,0.3,1.2,0.1c1.7-0.6,3.3-1.3,5-2
		C206.1,241,214.6,257.4,227.7,271.1z M52.1,198c3.6,3.6,7,7,10.3,10.3c0.2,0.2,0.7,0.3,1.1,0.2c10.1-2.7,20.4-3.4,30.8-3.4
		c25.8,0,51.7,0,77.5,0c0.5,0,1,0,1.8,0c-5.7-6.1-11.1-11.9-16.6-17.7c-3.4,3.4-6.6,6.6-9.9,9.9c-0.4,0.4-1.2,0.8-1.8,0.8
		c-9,0-18,0-27,0c-0.4,0-0.8,0-1.2-0.1c0-5.9,0-11.7,0-17.6c19.2,0,38.3,0,57.6,0c-5.6-6-11-11.8-16.7-17.9
		c-0.3,0.4-0.5,0.8-0.8,1.2c-2.9,3-5.9,5.9-8.8,8.8c-0.5,0.4-1.2,0.8-1.8,0.8c-9.4,0-18.9,0-28.3,0c-0.4,0-0.8,0-1.2,0
		c0-5,0-9.9,0-14.7c0-0.4,0.4-0.8,0.7-1.1c2.2-1.7,4.5-3.4,6.8-5.1c0.6-0.4,1.2-0.9,1.9-1.4c-8.3-3.2-16.5-6.3-24.8-9.4
		c0.9,10.7,1.1,21.2,1.2,31.9c-18.5,0-36.8,0-55.4,0c3.5,3.5,6.9,6.9,10.2,10.2c0.3,0.3,1,0.3,1.4,0.1c6.1-1.5,12.3-2.7,18.6-2.9
		c8-0.3,16.1-0.2,24.1-0.4c0.9,0,1.2,0.2,1.2,1.1c0,5.2,0,10.4,0,15.6c0,0.3,0,0.5-0.1,0.9C86,198,69.3,198,52.1,198z M160.5,221.7
		c-4.8-4.8-9.5-9.5-14.2-14.2c-2.8,2.8-5.7,5.7-8.6,8.5c-0.4,0.4-1.2,0.7-1.8,0.7c-19.3,0-38.6,0-57.9,0c-0.7,0-1.5-0.2-2.2-0.4
		c-4.7-1.7-9.5-3.4-14.2-5.1c-0.3-0.1-0.7-0.2-1.1-0.4c0.8,17.4,0.7,34.6,0,51.9c5-1.2,9.9-2.3,14.7-3.4c0.3-0.1,0.6-0.6,0.6-0.9
		c0.1-0.9,0-1.7,0-2.6c21.2,0,42.4,0,63.6,0c0,1.6,0,3,0,4.6c5.2-1.2,10.2-2.4,15.3-3.5c0-0.3,0-0.5,0-0.7
		c-0.4-9.2-0.8-18.4-1.2-27.7c0-0.8,0.2-1.3,0.8-1.8C156.5,225.1,158.5,223.4,160.5,221.7z M128.8,260.4c-0.1,0.4-0.2,0.5-0.2,0.7
		c-2.7,11.1-7.1,21.5-12.5,31.5c-0.2,0.4-0.7,0.7-1,0.8c-4.4,0.5-8.8,0.9-13.2,1.3c-8.5,0.8-16.9,1.6-25.4,2.3
		c-7.4,0.6-14.8,1.2-22.2,1.8c-3,0.2-5.9,0.4-9.1,0.6c4,6.3,7.8,12.6,11.7,18.8c1.1-0.6,2.2-1.2,3.2-1.8c5.6-2.8,11.5-4.8,17.5-6.6
		c13.5-4.1,27.3-7.4,41.1-10.1c16.9-3.4,33.9-6.6,50.8-9.8c2.1-0.4,4.2-0.8,6.4-1.2c-0.4-1.7-0.8-3.2-1.2-4.8
		c-17.6,2.7-35.1,5.4-52.5,8.2c7.9-8.5,15.6-17,25.4-23.5C141.4,265.9,135.2,263.2,128.8,260.4z M71.1,268.7
		c0.1,0.2,0.2,0.3,0.3,0.4c5.3,5.4,9,11.7,11,19c0.4,1.4,1,2.9,1.9,4.1c1.3,2,3,2.3,4.9,1c2.8-1.9,4.8-4.4,5.8-7.7
		c0.6-2,0.5-4.1-0.7-5.8c-1.2-1.8-2.5-3.5-4.1-4.9c-4-3.6-8.9-5.7-13.9-7.5C73.3,266.2,73.3,266.2,71.1,268.7z"/>
	<path d="M227.7,271.1c-13.1-13.6-21.6-30.1-29.4-47.1c-1.7,0.7-3.3,1.4-5,2c-0.4,0.1-1,0.1-1.2-0.1c-2.9-2.8-5.7-5.7-8.6-8.5
		c-0.1-0.1-0.1-0.2-0.2-0.4c16,0,32,0,48,0c0-10.2,0-20.3,0-30.5c-0.2,0-0.5-0.1-0.7-0.1c-7.2,0.1-14.3,0-21.5,0.2
		c-6.8,0.2-13.5,1.3-20.1,3c-0.9,0.2-1.4,0.1-2.1-0.6c-3.1-3.2-6.3-6.3-9.7-9.7c18.2,0,36.2,0,54.4,0c-0.4-11.1-0.8-22-1.2-33
		c7.8,2.7,15.5,5.4,23.5,8.2c-0.6,0.6-1.1,1-1.6,1.5c-2,1.7-4,3.4-6,5.2c-0.3,0.3-0.6,0.7-0.6,1.1c0,5.6,0,11.1,0,16.7
		c0,0.1,0.1,0.1,0.1,0.3c0.4,0,0.8,0.1,1.2,0.1c11.7,0,23.4,0,35,0c0.9,0,1.5-0.3,2.1-0.9c4-4.4,8-8.8,12.2-13.3
		c6.7,7,13.3,14,20,21.2c-23.6,0-47.1,0-70.6,0c0,10.3,0,20.4,0,30.7c0.5,0,0.9,0,1.3,0c7,0,13.9,0,20.9,0c0.9,0,1.5-0.3,2-0.9
		c2.6-3,5.2-5.9,7.9-8.9c0.2-0.3,0.4-0.6,0.6-0.8c5.6,5.6,11.1,11.1,16.6,16.6c-1.1,0.6-2.2,1.3-3.4,1.9c-5,2.2-8.5,5.7-11.7,10.1
		c-9.5,13-20.3,24.8-32.3,35.5c-0.2,0.2-0.5,0.4-0.9,0.7c22.8,15.1,46.5,26.9,74.2,28.4c0,1.1,0,2.3,0,3.5c-9.6,0.1-17,3.9-21.1,13
		c-11.5-3.8-22.4-8.9-32.8-14.9c-10.4-6-20.2-12.9-29.6-20.4c-2.5,1.5-4.9,3-7.4,4.4c-16.6,9.8-34,18-52.4,24
		c-10.6,3.5-21.5,6.2-32.6,7.9c-0.3,0.1-0.9-0.1-1.1-0.3c-0.7-0.9-1.3-2-2.1-3.1C172.8,304.1,201.4,290.1,227.7,271.1z M236.1,262.7
		c11.8-11.8,22.1-24.8,31.6-38.6c-21.2,0-42.2,0-63.2,0C209.4,234.4,227.4,256.4,236.1,262.7z"/>
	<path d="M52.1,198c17.1,0,33.9,0,50.7,0c0-0.3,0.1-0.6,0.1-0.9c0-5.2,0-10.4,0-15.6c0-0.9-0.3-1.2-1.2-1.1
		c-8,0.1-16.1,0.1-24.1,0.4c-6.3,0.2-12.5,1.4-18.6,2.9c-0.4,0.1-1.1,0.1-1.4-0.1c-3.4-3.3-6.7-6.6-10.2-10.2c18.6,0,36.9,0,55.4,0
		c-0.1-10.7-0.3-21.2-1.2-31.9c8.3,3.2,16.5,6.3,24.8,9.4c-0.7,0.5-1.3,1-1.9,1.4c-2.3,1.7-4.6,3.4-6.8,5.1
		c-0.3,0.3-0.7,0.7-0.7,1.1c0,4.8,0,9.7,0,14.7c0.5,0,0.8,0,1.2,0c9.4,0,18.9,0,28.3,0c0.6,0,1.4-0.4,1.8-0.8c3-2.9,5.9-5.9,8.8-8.8
		c0.3-0.3,0.5-0.7,0.8-1.2c5.6,6,11.1,11.8,16.7,17.9c-19.3,0-38.4,0-57.6,0c0,5.9,0,11.8,0,17.6c0.4,0,0.8,0.1,1.2,0.1
		c9,0,18,0,27,0c0.6,0,1.4-0.3,1.8-0.8c3.3-3.2,6.5-6.5,9.9-9.9c5.5,5.9,10.9,11.7,16.6,17.7c-0.8,0-1.3,0-1.8,0
		c-25.8,0-51.7,0-77.5,0c-10.4,0-20.7,0.7-30.8,3.4c-0.3,0.1-0.9,0-1.1-0.2C59.1,204.9,55.8,201.6,52.1,198z"/>
	<path d="M160.5,221.7c-1.9,1.6-4,3.4-6.1,5c-0.6,0.5-0.9,1-0.8,1.8c0.4,9.2,0.8,18.4,1.2,27.7c0,0.2,0,0.4,0,0.7
		c-5.1,1.2-10.1,2.3-15.3,3.5c0-1.6,0-3,0-4.6c-21.2,0-42.4,0-63.6,0c0,0.9,0.1,1.7,0,2.6c0,0.3-0.3,0.8-0.6,0.9
		c-4.8,1.2-9.7,2.3-14.7,3.4c0.7-17.3,0.8-34.5,0-51.9c0.4,0.1,0.8,0.2,1.1,0.4c4.7,1.7,9.5,3.4,14.2,5.1c0.7,0.2,1.5,0.4,2.2,0.4
		c19.3,0,38.6,0,57.9,0c0.6,0,1.3-0.3,1.8-0.7c2.9-2.8,5.8-5.7,8.6-8.5C151,212.3,155.7,217,160.5,221.7z M75.9,248.6
		c21.2,0,42.3,0,63.4,0c0-8.2,0-16.4,0-24.5c-21.2,0-42.3,0-63.4,0C75.9,232.3,75.9,240.4,75.9,248.6z"/>
	<path d="M128.8,260.4c6.3,2.8,12.5,5.5,18.8,8.2c-9.7,6.5-17.5,15-25.4,23.5c17.5-2.7,34.9-5.4,52.5-8.2c0.4,1.6,0.8,3.1,1.2,4.8
		c-2.2,0.4-4.3,0.8-6.4,1.2c-16.9,3.3-33.9,6.4-50.8,9.8c-13.9,2.8-27.6,6.1-41.1,10.1c-6,1.8-11.9,3.7-17.5,6.6
		c-1.1,0.5-2.1,1.1-3.2,1.8c-3.9-6.2-7.8-12.5-11.7-18.8c3.1-0.2,6.1-0.4,9.1-0.6c7.4-0.6,14.8-1.2,22.2-1.8
		c8.5-0.7,17-1.5,25.4-2.3c4.4-0.4,8.8-0.8,13.2-1.3c0.4,0,0.9-0.4,1-0.8c5.3-10,9.8-20.5,12.5-31.5
		C128.7,261,128.7,260.8,128.8,260.4z"/>
	<path d="M71.1,268.7c2.2-2.5,2.2-2.5,5.2-1.4c5,1.8,9.9,4,13.9,7.5c1.6,1.4,2.9,3.1,4.1,4.9c1.2,1.7,1.3,3.8,0.7,5.8
		c-0.9,3.3-3,5.8-5.8,7.7c-1.9,1.3-3.7,0.9-4.9-1c-0.8-1.3-1.5-2.7-1.9-4.1c-2-7.3-5.7-13.6-11-19C71.3,269,71.3,268.9,71.1,268.7z"
		/>
	<path class="st0" d="M236.1,262.7c-8.6-6.3-26.6-28.3-31.6-38.6c21,0,42,0,63.2,0C258.2,237.9,247.9,250.9,236.1,262.7z"/>
	<path class="st0" d="M75.9,248.6c0-8.2,0-16.3,0-24.5c21.1,0,42.2,0,63.4,0c0,8.1,0,16.3,0,24.5C118.2,248.6,97.1,248.6,75.9,248.6
		z"/>
</g>
</svg>
