<?xml version="1.0" encoding="utf-8"?>
<!-- Generator: Adobe Illustrator 20.1.0, SVG Export Plug-In . SVG Version: 6.00 Build 0)  -->
<svg version="1.1" id="图层_1" xmlns="http://www.w3.org/2000/svg" xmlns:xlink="http://www.w3.org/1999/xlink" x="0px" y="0px"
	 viewBox="0 0 360 360" style="enable-background:new 0 0 360 360;" xml:space="preserve">
<style type="text/css">
	.st0{fill:#FFFFFF;}
</style>
<g>
	<path class="st0" d="M0.2,360.5c0-120.1,0-240.2,0-360.2c120.1,0,240.2,0,360.2,0c0,120.1,0,240.2,0,360.2
		C240.4,360.5,120.3,360.5,0.2,360.5z M180.6,173.3c0.7,1,1.3,1.8,1.7,2.6c0.4,0.7,0.9,1,1.7,0.7c0.9-0.3,1.9-0.5,2.9-0.8
		c23.3-6.4,45.2-16.3,65.8-29c0.7-0.4,1.2-0.5,1.9,0c3.3,2.3,6.6,4.4,9.9,6.7c8.6,6,17,12.4,24.2,20.1c1.2,1.3,2.8,2.4,4.3,3.4
		c3,1.8,5.3,0.9,6.4-2.5c1.1-3.4,1.1-6.8,0.1-10.3c-1.7-5.4-5.1-9.4-9.7-12.6c-5.9-4.1-12.4-7.2-18.9-10c-2.9-1.3-5.9-2.5-8.9-3.7
		c0.3-0.2,0.4-0.4,0.6-0.5c7.2-5.8,14-12,20.4-18.8c3.2-3.4,6.6-6.5,10.9-8.6c1.4-0.7,2.9-1.1,4.1-1.6c-5.4-5.4-10.8-10.8-16.5-16.5
		c-0.1,0.2-0.3,0.6-0.6,0.9c-3,3-5.9,6-8.9,8.9c-0.4,0.4-1.1,0.7-1.7,0.7c-5.9,0.1-11.8,0-17.8,0c-0.4,0-0.8,0-1.1-0.1
		c0-7.1,0-14,0-21.1c21.5,0,43,0,64.7,0c-6.4-6.8-12.6-13.4-19-20.2c-0.3,0.5-0.6,0.8-0.9,1.2c-3.7,3.7-7.4,7.4-11.1,11.1
		c-0.6,0.6-1.1,0.9-2,0.9c-10.2,0-20.3,0-30.5,0c-0.4,0-0.8,0-1.3-0.1c0-5.4,0-10.6,0-15.9c0-0.4,0.3-0.9,0.7-1.2
		c2.2-2.3,4.5-4.5,6.7-6.7c0.3-0.3,0.5-0.5,0.8-0.9c-7.9-3.2-15.6-6.3-23.6-9.4c0.7,11.5,1.2,22.8,1.1,34.2c-17.3,0-34.4,0-51.7,0
		c0.4,0.5,0.7,0.7,0.9,1c2.9,2.9,5.7,5.7,8.5,8.6c0.8,0.8,1.4,0.9,2.5,0.7c4.7-0.9,9.4-1.9,14.1-2.5c8.2-1.1,16.5-0.7,24.8-0.7
		c0.2,0,0.5,0,0.8,0.1c0,7,0,14,0,21.1c-14.1,0-28.1,0-42.3,0c0.4,0.5,0.7,0.8,1,1c2.9,2.9,5.8,5.7,8.6,8.7c0.7,0.7,1.3,0.9,2.3,0.6
		c7.6-2,15.4-3.1,23.2-3.2c13.8-0.1,27.6-0.1,41.4-0.1c0.3,0,0.6,0,1.2,0.1c-1.4,1.6-2.6,3-3.8,4.4c-5.8,6.6-12,12.8-18.8,18.3
		c-0.4,0.3-1.1,0.5-1.5,0.4c-11.2-2.9-22.3-5.8-33.5-8.7c-2.3-0.6-4.6-1.1-7-1.6c-0.4,1.3-0.8,2.4-1.2,3.6
		c11.9,4.4,23.9,8.3,35.3,14.1C222.7,153.8,202.4,164.7,180.6,173.3z M135.7,145c0,0.2,0,0.3-0.1,0.4c-3,7.1-5.9,14.1-8.9,21.2
		c-0.2,0.4-0.8,0.7-1.3,0.8c-2.6,0.4-5.2,0.8-7.8,1.1c-5.1,0.7-10.3,1.5-15.6,2.2c0.3-0.4,0.5-0.6,0.7-0.9c1.1-1.6,2.5-3.2,3.4-4.9
		c2.1-4.2,1-8.1-2.9-10.8c-0.7-0.5-1.4-0.9-2.1-1.2c-4.5-2.3-9.3-3.4-14.1-4.4c-0.3-0.1-0.8,0.1-1,0.3c-0.7,0.5-1.3,1.2-2,1.8
		c6.2,6.3,11,13.2,14.2,21.3c-16.9,1.8-33.6,3.9-50.6,4.8c3.6,6.3,7.1,12.5,10.6,18.8c0.7-0.3,1.2-0.6,1.8-0.8
		c7.9-3.4,16.1-5.9,24.3-8.4c31.5-9.3,63.4-17,95.3-24.7c1.9-0.5,3.8-0.9,5.9-1.4c-0.4-1.3-0.8-2.4-1.2-3.6
		c-16.8,3.1-33.5,6.2-50.2,9.3c1.3-1.8,2.7-3.5,4.3-5c4.3-4.2,8.7-8.3,15.3-9.1c-3.1-2.3-6-4.5-9.2-6.9c3.3,0,6.2,0,9.2,0
		c0,1.2,0,2.3,0,3.5c5.2-1.2,10.2-2.4,15.3-3.5c-1-7.2-1.1-14.2-1.1-21.3c0-0.8,0.2-1.2,1-1.5c1.7-0.7,3.4-1.4,5.1-2.2
		c0.7-0.3,1.4-0.6,2-0.9c-5.1-5.1-10.2-10.2-15.3-15.3c-2.7,2.7-5.5,5.5-8.3,8.3c-0.7,0.7-1.4,1-2.4,1c-20.7,0-41.4,0-62,0
		c-0.8,0-1.7-0.2-2.4-0.5c-4.2-1.7-8.3-3.5-12.5-5.3c-0.9-0.4-1.9-0.8-3-1.2c0.7,15.4,0.8,30.6,0,46c5.2-1.2,10.2-2.4,15.4-3.6
		c0-1.2,0-2.4,0-3.5C102.2,145,118.9,145,135.7,145z M127.7,75.5c18.8,0,37.5,0,56.6,0c-6-6.4-11.9-12.7-17.8-18.9
		c-3.3,3.7-6.6,7.3-9.8,11c-0.6,0.6-1.1,0.9-1.9,0.9c-8.6,0-17.2,0-25.8,0c-0.4,0-0.8,0-1.3-0.1c0-3.6,0-7.1,0-10.6
		c0-0.7,0.2-1.2,0.8-1.7c2.6-2.2,5.1-4.5,7.7-6.7c0.3-0.3,0.8-0.4,1.1-0.6c-0.1-0.1-0.3-0.3-0.4-0.4c-8.1-2.7-16.3-5.4-24.4-8.1
		c0.4,9.5,0.8,18.8,1.2,28.3c-20.2,0-40.1,0-60.3,0c3.5,3.5,6.9,6.9,10.2,10.1c0.3,0.3,1,0.3,1.4,0.2c7.3-1.8,14.7-3,22.1-3.1
		c8.5-0.2,17-0.1,25.6-0.1c0.2,0,0.4,0.1,0.7,0.1c0,4.7,0,9.2,0,14c-16.8,0-33.6,0-50.6,0c3.6,3.6,6.9,6.9,10.3,10.3
		c0.2,0.2,0.9,0.2,1.3,0.1c8.8-2.3,17.8-3.3,26.9-3.3c24.8,0,49.5,0,74.3,0c0.4,0,0.9,0,1.6,0c-5.3-5.7-10.3-11.1-15.4-16.6
		c-3.3,2.9-6.5,5.8-9.8,8.7c-0.5,0.4-1.2,0.7-1.9,0.7c-7.1,0.1-14.2,0-21.2,0c-0.4,0-0.8,0-1.2-0.1
		C127.7,84.8,127.7,80.3,127.7,75.5z"/>
	<path d="M180.6,173.3c21.8-8.6,42.1-19.4,61.3-33c-11.4-5.8-23.4-9.7-35.3-14.1c0.4-1.2,0.8-2.3,1.2-3.6c2.4,0.5,4.7,1,7,1.6
		c11.2,2.9,22.3,5.8,33.5,8.7c0.5,0.1,1.2-0.1,1.5-0.4c6.8-5.5,13-11.7,18.8-18.3c1.2-1.4,2.5-2.8,3.8-4.4c-0.5,0-0.8-0.1-1.2-0.1
		c-13.8,0-27.6-0.1-41.4,0.1c-7.8,0.1-15.6,1.1-23.2,3.2c-1,0.3-1.6,0.1-2.3-0.6c-2.8-2.9-5.8-5.8-8.6-8.7c-0.3-0.3-0.5-0.6-1-1
		c14.2,0,28.2,0,42.3,0c0-7.1,0-14.1,0-21.1c-0.3,0-0.5-0.1-0.8-0.1c-8.3,0.1-16.6-0.4-24.8,0.7c-4.7,0.6-9.4,1.6-14.1,2.5
		c-1.1,0.2-1.7,0.1-2.5-0.7c-2.8-2.9-5.7-5.7-8.5-8.6c-0.3-0.3-0.5-0.6-0.9-1c17.3,0,34.4,0,51.7,0c0.1-11.4-0.5-22.7-1.1-34.2
		c8,3.2,15.7,6.3,23.6,9.4c-0.3,0.4-0.6,0.6-0.8,0.9c-2.2,2.2-4.5,4.5-6.7,6.7c-0.3,0.3-0.7,0.8-0.7,1.2c0,5.2,0,10.5,0,15.9
		c0.5,0,0.9,0.1,1.3,0.1c10.2,0,20.3,0,30.5,0c0.8,0,1.4-0.3,2-0.9c3.7-3.7,7.4-7.4,11.1-11.1c0.3-0.3,0.5-0.7,0.9-1.2
		c6.4,6.8,12.6,13.4,19,20.2c-21.7,0-43.1,0-64.7,0c0,7.1,0,14,0,21.1c0.3,0,0.7,0.1,1.1,0.1c5.9,0,11.8,0,17.8,0
		c0.6,0,1.3-0.3,1.7-0.7c3-2.9,6-5.9,8.9-8.9c0.3-0.3,0.5-0.7,0.6-0.9c5.6,5.6,11.1,11.1,16.5,16.5c-1.3,0.5-2.8,0.9-4.1,1.6
		c-4.2,2.1-7.7,5.2-10.9,8.6c-6.3,6.8-13.2,12.9-20.4,18.8c-0.2,0.1-0.4,0.3-0.6,0.5c3,1.3,6,2.4,8.9,3.7c6.6,2.9,13,5.9,18.9,10
		c4.6,3.2,8,7.2,9.7,12.6c1,3.4,1,6.9-0.1,10.3c-1,3.4-3.4,4.3-6.4,2.5c-1.6-0.9-3.1-2.1-4.3-3.4c-7.3-7.7-15.6-14.1-24.2-20.1
		c-3.3-2.3-6.6-4.5-9.9-6.7c-0.7-0.5-1.2-0.4-1.9,0c-20.6,12.7-42.4,22.5-65.8,29c-1,0.3-1.9,0.5-2.9,0.8c-0.8,0.3-1.3,0-1.7-0.7
		C181.9,175,181.3,174.2,180.6,173.3z"/>
	<path d="M135.7,145c-16.8,0-33.5,0-50.4,0c0,1.2,0,2.3,0,3.5c-5.2,1.2-10.2,2.4-15.4,3.6c0.8-15.4,0.7-30.6,0-46
		c1.1,0.4,2,0.8,3,1.2c4.1,1.8,8.3,3.6,12.5,5.3c0.7,0.3,1.6,0.5,2.4,0.5c20.7,0,41.4,0,62,0c1,0,1.7-0.3,2.4-1
		c2.8-2.8,5.6-5.6,8.3-8.3c5.1,5.1,10.2,10.2,15.3,15.3c-0.6,0.3-1.3,0.6-2,0.9c-1.7,0.7-3.4,1.5-5.1,2.2c-0.8,0.3-1,0.7-1,1.5
		c0,7.1,0.2,14.1,1.1,21.3c-5.1,1.2-10.1,2.3-15.3,3.5c0-1.2,0-2.3,0-3.5c-3.1,0-6,0-9.2,0c3.1,2.4,6.1,4.6,9.2,6.9
		c-6.6,0.8-11,4.8-15.3,9.1c-1.6,1.5-3,3.2-4.3,5c16.7-3.1,33.4-6.2,50.2-9.3c0.4,1.2,0.8,2.3,1.2,3.6c-2,0.5-3.9,1-5.9,1.4
		c-31.9,7.7-63.8,15.5-95.3,24.7c-8.2,2.4-16.4,4.9-24.3,8.4c-0.6,0.3-1.2,0.5-1.8,0.8c-3.5-6.3-7-12.5-10.6-18.8
		c17-0.8,33.7-3,50.6-4.8c-3.2-8.1-8.1-15.1-14.2-21.3c0.7-0.7,1.4-1.3,2-1.8c0.3-0.2,0.7-0.4,1-0.3c4.8,1,9.7,2.2,14.1,4.4
		c0.7,0.4,1.4,0.8,2.1,1.2c3.9,2.7,5,6.6,2.9,10.8c-0.9,1.8-2.2,3.3-3.4,4.9c-0.2,0.2-0.4,0.5-0.7,0.9c5.3-0.8,10.5-1.5,15.6-2.2
		c2.6-0.4,5.2-0.7,7.8-1.1c0.5-0.1,1.1-0.4,1.3-0.8c3-7,6-14.1,8.9-21.2C135.7,145.4,135.7,145.2,135.7,145z M153.5,120.4
		c-22.8,0-45.5,0-68.2,0c0,5.8,0,11.6,0,17.4c22.8,0,45.5,0,68.2,0C153.5,131.9,153.5,126.2,153.5,120.4z"/>
	<path d="M127.7,75.5c0,4.8,0,9.3,0,14c0.4,0,0.8,0.1,1.2,0.1c7.1,0,14.2,0,21.2,0c0.6,0,1.4-0.3,1.9-0.7c3.3-2.8,6.5-5.7,9.8-8.7
		c5.1,5.5,10.1,10.9,15.4,16.6c-0.7,0-1.2,0-1.6,0c-24.8,0-49.5,0-74.3,0c-9.1,0-18.1,1-26.9,3.3c-0.4,0.1-1,0.1-1.3-0.1
		c-3.4-3.3-6.8-6.7-10.3-10.3c17,0,33.8,0,50.6,0c0-4.7,0-9.3,0-14c-0.2,0-0.4-0.1-0.7-0.1c-8.5,0-17-0.1-25.6,0.1
		c-7.5,0.2-14.9,1.3-22.1,3.1c-0.4,0.1-1.1,0.1-1.4-0.2c-3.4-3.3-6.7-6.6-10.2-10.1c20.1,0,40,0,60.3,0c-0.4-9.5-0.8-18.8-1.2-28.3
		c8.1,2.7,16.3,5.4,24.4,8.1c0.1,0.1,0.3,0.3,0.4,0.4c-0.4,0.2-0.8,0.3-1.1,0.6c-2.6,2.2-5.1,4.5-7.7,6.7c-0.6,0.5-0.8,1-0.8,1.7
		c0,3.5,0,7,0,10.6c0.5,0,0.9,0.1,1.3,0.1c8.6,0,17.2,0,25.8,0c0.8,0,1.4-0.2,1.9-0.9c3.2-3.6,6.5-7.3,9.8-11
		c5.9,6.3,11.7,12.5,17.8,18.9C165.3,75.5,146.5,75.5,127.7,75.5z"/>
	<path class="st0" d="M153.5,120.4c0,5.8,0,11.6,0,17.4c-22.7,0-45.4,0-68.2,0c0-5.8,0-11.6,0-17.4
		C108,120.4,130.7,120.4,153.5,120.4z"/>
</g>
</svg>
