<?xml version="1.0" encoding="utf-8"?>
<!-- Generator: Adobe Illustrator 20.1.0, SVG Export Plug-In . SVG Version: 6.00 Build 0)  -->
<svg version="1.1" id="图层_1" xmlns="http://www.w3.org/2000/svg" xmlns:xlink="http://www.w3.org/1999/xlink" x="0px" y="0px"
	 viewBox="0 0 360 360" style="enable-background:new 0 0 360 360;" xml:space="preserve">
<style type="text/css">
	.st0{fill:#FFFFFF;}
</style>
<g>
	<path class="st0" d="M-0.1,360.1c0-120.1,0-240.2,0-360.2c120.1,0,240.2,0,360.2,0c0,120.1,0,240.2,0,360.2
		C240,360.1,120,360.1-0.1,360.1z M58.9,58.6c0.8,34.7,0.7,69.1,0,103.7c0.2,0,0.4-0.1,0.5-0.1c4.7-1.8,9.5-3.6,14.2-5.5
		c0.3-0.1,0.6-0.7,0.6-1c0.1-1.7,0-3.3,0-5c27.9,0,55.7,0,83.7,0c0,3.1,0,6.2,0,9.4c5.1-1.9,9.9-3.8,14.8-5.7
		c0.2-0.1,0.5-0.6,0.4-0.9c0-2.4-0.2-4.8-0.2-7.2c-0.2-11.7-0.6-23.4-0.7-35.1c-0.1-12-0.1-23.9-0.2-35.9c0-0.8,0.2-1.4,0.9-1.9
		c2.8-2.1,5.6-4.2,8.5-6.4c-5.6-4.4-11-8.7-16.5-13c-0.3,0.3-0.5,0.6-0.7,0.9c-2.3,2.9-4.6,5.8-6.8,8.8c-0.5,0.7-1,0.9-1.9,0.9
		c-12.1,0-24.2,0-36.2,0c-0.4,0-0.8,0-1.4,0c0.1,0.3,0.2,0.4,0.2,0.5c3.2,3.3,6.5,6.5,9.8,9.7c0.3,0.3,0.9,0.3,1.3,0.2
		c7-1.8,14.2-2.8,21.4-3.2c2.4-0.1,4.8,0,7.2,0c0,10.5,0,21,0,31.6c-12.5,0-24.9,0-37.4,0c0.1,0.2,0.1,0.4,0.2,0.4
		c3.2,3.3,6.5,6.5,9.8,9.7c0.3,0.3,0.9,0.4,1.3,0.3c5.8-1.5,11.6-2.5,17.6-3c2.9-0.2,5.7-0.3,8.6-0.4c0,11.1,0,22,0,32.9
		c-27.9,0-55.7,0-83.5,0c0-11,0-21.8,0-32.9c13.3,0,26.6,0,40,0c-5.6-6.4-11-12.6-16.5-18.9c-0.4,0.4-0.7,0.7-1,1
		c-3.4,3.4-6.7,6.7-10.1,10.1c-0.4,0.4-1.1,0.7-1.6,0.7c-3.2,0.1-6.5,0-9.7,0c-0.3,0-0.7-0.1-1.1-0.1c0-0.5,0-1,0-1.4
		c0-8.9,0-17.8,0-26.6c0-1.2-0.4-2.6,0.2-3.4c0.6-0.8,2-1.1,3.1-1.5c12.4-4.9,24.6-10.3,37.8-13c-5.4-5-10.8-10.1-16.2-15
		c-1.6,2.3-3.1,4.7-4.8,6.8C88.9,55.7,82,60.7,74.8,65.3c-0.3,0.2-0.9,0.2-1.3,0c-2.4-1.1-4.9-2.2-7.3-3.4
		C63.8,60.8,61.5,59.8,58.9,58.6z M153.2,162.3c0,0.5,0,0.9,0,1.2c0.2,11.6,0.3,23.2,0.5,34.8c0.3,15.7,1.1,31.3,2.7,46.9
		c0.9,8.8,2.6,17.4,5.5,25.7c3.8,10.7,10,19.8,18.8,27c1.2,0.9,2.5,1.7,3.9,2.2c1.3,0.5,2.3-0.1,2.6-1.4c0.2-1,0.3-2.1,0.2-3.2
		c-0.1-3.6-0.5-7.1-0.5-10.7c0-8,0.8-16,2.5-23.8c1.5-6.7,3.2-13.3,4.7-19.9c0.1-0.4,0.1-1.1-0.2-1.3c-0.9-0.8-2-1.4-3.1-2.1
		c-4.7,9.8-9.4,19.5-14.1,29.4c-0.4-0.6-0.7-1-1-1.4c-2.5-4.1-3.8-8.6-4.8-13.2c-2-8.8-2.7-17.8-3.2-26.9
		c-0.8-14.2-1.2-28.3-0.7-42.5c0.1-2.1,0.6-3.6,2.5-4.8c2.1-1.3,4.1-3,6.1-4.5c0.3-0.2,0.6-0.5,1-0.8
		C168.9,169.3,161.1,165.8,153.2,162.3z M67.1,303.7c8.5-15.1,20.3-27.5,31.9-40.1c-0.8-1.2-1.6-2.3-2.4-3.5
		c-9,6.3-17.9,12.5-27.1,18.8c0-0.8,0-1.3,0-1.8c0-28.6,0-57.2,0-85.8c0-1.4,0.4-2.2,1.5-2.9c2.7-1.9,5.2-3.9,8-6
		c-8-3.6-15.8-7.1-23.6-10.6c0.2,6,0.4,11.9,0.5,17.8c0.2,12,0.4,24,0.5,36c0.1,14.4,0.1,28.9,0.1,43.3c0,0.6,0.1,1.2,0.1,1.8
		c0.3,5.9,0.5,11.7-3.6,16.7C57.8,292.7,62.5,298.2,67.1,303.7z M128.5,183.5c-8-3.6-15.8-7.1-23.6-10.6c0.2,5.3,0.4,10.4,0.5,15.5
		c0.2,10.6,0.4,21.3,0.5,31.9c0.1,9.4,0,18.7,0.1,28.1c0,7.5,0.2,15,0.2,22.5c0,1.6,0,3.2-0.2,4.8c-0.3,3.4-1.5,6.4-3.6,9.2
		c4.3,5.5,8.6,11,13,16.5c8.4-15.6,20.6-27.9,33.1-40.1c-0.8-1.2-1.6-2.3-2.4-3.5c-9,6.3-17.9,12.5-27,18.7c0-0.5-0.1-0.8-0.1-1
		c0-28,0-55.9,0-83.9c0-0.7,0.2-1.2,0.8-1.6C122.8,187.9,125.5,185.8,128.5,183.5z M120.2,165.9c0.3,0.4,0.6,0.8,0.9,1.2
		c4.4,5.5,8,11.5,10.4,18.1c1.4,3.8,2.3,7.7,3.5,11.6c0.6,1.8,1.4,3.6,2.5,5.1c0.9,1.4,2.5,1.5,3.9,0.6c0.6-0.4,1.2-0.9,1.7-1.5
		c2.2-2.6,3.8-5.4,4.8-8.6c0.7-2.1,1-4.3,0.7-6.5c-0.5-3.8-2.8-6.5-5.5-9c-5.3-4.9-11.5-8.6-17.9-11.9
		C122.4,163.3,122.4,163.3,120.2,165.9z M74.3,165.9c0,0.1,0.1,0.2,0.1,0.2c0.2,0.4,0.5,0.7,0.8,1.1c5.5,7.8,9.6,16.2,12,25.4
		c0.5,1.8,1,3.7,1.9,5.4c1.6,3.5,4,3.7,6.6,0.9c0.1-0.1,0.1-0.1,0.2-0.2c2.2-2.7,4-5.6,5-8.9c1.4-4.4,1-8.5-2.6-11.9
		c-0.7-0.7-1.4-1.3-2.1-1.9c-5.2-4.4-11-7.8-16.9-11.2c-2.7-1.5-2.7-1.5-4.8,0.8C74.4,165.7,74.4,165.8,74.3,165.9z M121.3,222.2
		c0.4,0.5,0.6,0.9,0.9,1.2c6.3,8,11.5,16.6,14.8,26.2c0.5,1.6,1.3,3.1,2.2,4.5c1.7,2.7,3.7,2.7,5.8,0.3c0.3-0.4,0.6-0.8,0.9-1.2
		c1.7-2.6,3-5.5,3.6-8.5c1.1-5-0.2-9.2-4.2-12.5c-6.3-5.1-13.5-8.7-21-11.9c-0.3-0.1-0.7-0.1-0.9,0.1
		C122.7,220.9,122,221.6,121.3,222.2z M74.2,219.9c0.3,0.4,0.4,0.5,0.5,0.7c6.4,8.6,11.5,17.7,14.3,28.1c0.4,1.3,1,2.6,1.7,3.8
		c1.2,2,2.9,2.1,4.6,0.7c0.5-0.4,0.9-0.8,1.2-1.3c2.2-2.9,3.9-6.1,4.8-9.7c1.1-4.4,0.1-8.2-3.2-11.4c-6.1-5.7-13.5-9.4-20.9-12.9
		c-0.2-0.1-0.7,0-0.9,0.2C75.5,218.6,74.8,219.3,74.2,219.9z"/>
	<path d="M58.9,58.6c2.5,1.2,4.9,2.3,7.3,3.4c2.4,1.1,4.8,2.3,7.3,3.4c0.4,0.2,1,0.2,1.3,0C82,60.7,88.9,55.7,94.4,49
		c1.7-2.1,3.2-4.5,4.8-6.8c5.3,5,10.8,10,16.2,15c-13.2,2.7-25.4,8.2-37.8,13c-1.1,0.4-2.6,0.7-3.1,1.5c-0.5,0.8-0.2,2.2-0.2,3.4
		c0,8.9,0,17.8,0,26.6c0,0.4,0,0.9,0,1.4c0.4,0,0.7,0.1,1.1,0.1c3.2,0,6.5,0,9.7,0c0.6,0,1.2-0.3,1.6-0.7c3.4-3.3,6.8-6.7,10.1-10.1
		c0.3-0.3,0.6-0.6,1-1c5.5,6.3,10.9,12.5,16.5,18.9c-13.5,0-26.7,0-40,0c0,11,0,21.9,0,32.9c27.8,0,55.6,0,83.5,0
		c0-10.9,0-21.8,0-32.9c-2.9,0.1-5.7,0.2-8.6,0.4c-5.9,0.5-11.8,1.4-17.6,3c-0.4,0.1-1,0-1.3-0.3c-3.3-3.2-6.5-6.5-9.8-9.7
		c-0.1-0.1-0.1-0.2-0.2-0.4c12.5,0,24.9,0,37.4,0c0-10.6,0-21.1,0-31.6c-2.4,0-4.8-0.1-7.2,0c-7.2,0.3-14.4,1.3-21.4,3.2
		c-0.4,0.1-1,0-1.3-0.2c-3.3-3.2-6.5-6.5-9.8-9.7c-0.1-0.1-0.1-0.2-0.2-0.5c0.5,0,0.9,0,1.4,0c12.1,0,24.2,0,36.2,0
		c0.8,0,1.4-0.2,1.9-0.9c2.2-3,4.5-5.9,6.8-8.8c0.2-0.3,0.5-0.5,0.7-0.9c5.5,4.3,11,8.6,16.5,13c-2.9,2.2-5.7,4.3-8.5,6.4
		c-0.7,0.5-0.9,1-0.9,1.9c0.1,12,0,23.9,0.2,35.9c0.1,11.7,0.5,23.4,0.7,35.1c0.1,2.4,0.2,4.8,0.2,7.2c0,0.3-0.2,0.8-0.4,0.9
		c-4.9,1.9-9.7,3.8-14.8,5.7c0-3.2,0-6.2,0-9.4c-27.9,0-55.7,0-83.7,0c0,1.7,0,3.3,0,5c0,0.4-0.3,0.9-0.6,1
		c-4.7,1.9-9.5,3.7-14.2,5.5c-0.1,0.1-0.3,0.1-0.5,0.1C59.7,127.7,59.7,93.2,58.9,58.6z"/>
	<path d="M153.2,162.3c7.9,3.6,15.7,7.1,23.6,10.6c-0.4,0.4-0.7,0.6-1,0.8c-2,1.5-3.9,3.2-6.1,4.5c-1.9,1.2-2.4,2.7-2.5,4.8
		c-0.5,14.2-0.1,28.4,0.7,42.5c0.5,9,1.2,18,3.2,26.9c1,4.6,2.3,9.1,4.8,13.2c0.3,0.4,0.6,0.8,1,1.4c4.8-9.9,9.4-19.6,14.1-29.4
		c1.1,0.7,2.2,1.3,3.1,2.1c0.3,0.2,0.3,0.9,0.2,1.3c-1.6,6.6-3.3,13.3-4.7,19.9c-1.7,7.8-2.5,15.8-2.5,23.8c0,3.6,0.4,7.1,0.5,10.7
		c0,1.1,0,2.2-0.2,3.2c-0.3,1.4-1.3,2-2.6,1.4c-1.4-0.6-2.8-1.3-3.9-2.2c-8.9-7.2-15-16.2-18.8-27c-2.9-8.3-4.6-16.9-5.5-25.7
		c-1.5-15.6-2.3-31.2-2.7-46.9c-0.2-11.6-0.3-23.2-0.5-34.8C153.2,163.2,153.2,162.8,153.2,162.3z"/>
	<path d="M67.1,303.7c-4.7-5.5-9.4-10.9-14.1-16.4c4-5,3.8-10.8,3.6-16.7c0-0.6-0.1-1.2-0.1-1.8c0-14.4,0-28.9-0.1-43.3
		c-0.1-12-0.3-24-0.5-36c-0.1-5.9-0.4-11.7-0.5-17.8c7.9,3.5,15.7,7,23.6,10.6c-2.8,2.1-5.3,4.1-8,6c-1.1,0.8-1.5,1.6-1.5,2.9
		c0,28.6,0,57.2,0,85.8c0,0.5,0,1,0,1.8c9.1-6.3,18-12.5,27.1-18.8c0.8,1.2,1.6,2.4,2.4,3.5C87.4,276.2,75.6,288.5,67.1,303.7z"/>
	<path d="M128.5,183.5c-3,2.2-5.8,4.4-8.6,6.5c-0.6,0.4-0.8,0.9-0.8,1.6c0,28,0,55.9,0,83.9c0,0.3,0,0.5,0.1,1
		c9-6.3,17.9-12.5,27-18.7c0.8,1.2,1.6,2.3,2.4,3.5c-12.4,12.2-24.6,24.5-33.1,40.1c-4.3-5.5-8.6-11-13-16.5
		c2.1-2.7,3.2-5.8,3.6-9.2c0.2-1.6,0.2-3.2,0.2-4.8c-0.1-7.5-0.2-15-0.2-22.5c-0.1-9.4,0-18.7-0.1-28.1c-0.1-10.6-0.3-21.3-0.5-31.9
		c-0.1-5.1-0.3-10.2-0.5-15.5C112.8,176.4,120.6,179.9,128.5,183.5z"/>
	<path d="M120.2,165.9c2.2-2.5,2.2-2.5,5-1.1c6.4,3.4,12.6,7,17.9,11.9c2.7,2.5,4.9,5.2,5.5,9c0.3,2.2,0,4.4-0.7,6.5
		c-1,3.2-2.7,6.1-4.8,8.6c-0.5,0.6-1.1,1.1-1.7,1.5c-1.4,1-3,0.9-3.9-0.6c-1-1.6-1.9-3.3-2.5-5.1c-1.3-3.8-2.1-7.8-3.5-11.6
		c-2.4-6.6-6-12.6-10.4-18.1C120.8,166.7,120.5,166.3,120.2,165.9z"/>
	<path d="M74.3,165.9c0-0.1,0.1-0.1,0.1-0.2c2.1-2.3,2.1-2.3,4.8-0.8c5.9,3.3,11.7,6.8,16.9,11.2c0.7,0.6,1.4,1.3,2.1,1.9
		c3.5,3.4,4,7.5,2.6,11.9c-1.1,3.3-2.8,6.3-5,8.9c-0.1,0.1-0.1,0.1-0.2,0.2c-2.6,2.8-5,2.5-6.6-0.9c-0.8-1.7-1.4-3.6-1.9-5.4
		c-2.4-9.2-6.5-17.6-12-25.4c-0.3-0.4-0.5-0.7-0.8-1.1C74.4,166,74.4,165.9,74.3,165.9z"/>
	<path d="M121.3,222.2c0.7-0.6,1.4-1.3,2.2-1.9c0.2-0.2,0.7-0.2,0.9-0.1c7.4,3.2,14.6,6.7,21,11.9c4,3.3,5.3,7.5,4.2,12.5
		c-0.7,3.1-1.9,5.9-3.6,8.5c-0.3,0.4-0.6,0.9-0.9,1.2c-2.1,2.4-4.1,2.3-5.8-0.3c-0.9-1.4-1.6-2.9-2.2-4.5
		c-3.3-9.7-8.5-18.3-14.8-26.2C121.9,223.1,121.7,222.8,121.3,222.2z"/>
	<path d="M74.2,219.9c0.7-0.6,1.3-1.2,2.1-1.8c0.2-0.2,0.7-0.3,0.9-0.2c7.4,3.5,14.8,7.2,20.9,12.9c3.4,3.1,4.3,7,3.2,11.4
		c-0.9,3.6-2.6,6.8-4.8,9.7c-0.4,0.5-0.8,0.9-1.2,1.3c-1.8,1.5-3.4,1.3-4.6-0.7c-0.7-1.2-1.4-2.5-1.7-3.8
		c-2.8-10.4-7.9-19.6-14.3-28.1C74.5,220.4,74.4,220.2,74.2,219.9z"/>
</g>
</svg>
