<?xml version="1.0" encoding="utf-8"?>
<!-- Generator: Adobe Illustrator 20.1.0, SVG Export Plug-In . SVG Version: 6.00 Build 0)  -->
<svg version="1.1" id="图层_1" xmlns="http://www.w3.org/2000/svg" xmlns:xlink="http://www.w3.org/1999/xlink" x="0px" y="0px"
	 viewBox="0 0 360 360" style="enable-background:new 0 0 360 360;" xml:space="preserve">
<style type="text/css">
	.st0{fill:#FFFFFF;}
</style>
<g>
	<path class="st0" d="M-0.1,360.1c0-120.1,0-240.2,0-360.2c120.1,0,240.2,0,360.2,0c0,120.1,0,240.2,0,360.2
		C240,360.1,120,360.1-0.1,360.1z M129.6,51.5c-6.8-4-13.4-7.9-20-11.8c-0.3,0.8-0.5,1.5-0.7,2.2c-2.9,9.3-7.2,17.9-11.7,26.5
		c-1.3,2.5-2.7,3.5-5.5,3.2c-1.5-0.2-2.8-0.4-4-1.1c-3.6-2.2-7.4-4.3-11.1-6.5c-0.4-0.2-0.7-0.4-1.3-0.7c0.7,29.6,0.8,58.9,0,88.4
		c4.7-1.6,9.2-3.1,13.7-4.6c0.2-0.1,0.5-0.6,0.5-0.9c0.1-1.3,0-2.5,0-3.8c18.5,0,36.9,0,55.4,0c0,2.3,0,4.6,0,6.9
		c0.5-0.2,0.9-0.3,1.2-0.4c4.2-1.6,8.4-3.3,12.6-4.8c1.1-0.4,1.4-0.9,1.4-2c-0.4-10.5-0.7-21-1-31.5c-0.2-8.8,0-17.5-0.2-26.3
		c-0.1-2.4,0.5-3.9,2.6-5.1c2-1.1,3.8-2.6,5.7-4c-5.2-4.8-10.3-9.5-15.4-14.2c-2.6,3.3-5.1,6.5-7.6,9.8c-0.5,0.6-1,0.9-1.8,0.9
		c-12.9,0-25.8,0-38.8,0c-0.3,0-0.7,0-1.3-0.1C110.6,63.3,118.6,55.5,129.6,51.5z M76.7,220.2c26.3,0,52.5,0,78.9,0
		c0,2.7,0,5.3,0,7.9c0.2,0,0.3,0,0.4,0c4.8-2.2,9.6-4.4,14.3-6.6c0.3-0.1,0.5-0.7,0.5-1.1c-0.3-8.9-0.7-17.8-0.9-26.7
		c-0.2-8.1-0.1-16.2-0.1-24.2c0-0.9,0.2-1.4,1-2c2.4-1.7,4.8-3.4,7.3-5.2c-5.2-4.4-10.3-8.7-15.4-13c-2.6,3-5.1,5.8-7.6,8.7
		c-0.5,0.6-1,0.8-1.7,0.8c-24.8,0-49.7,0-74.5,0c-0.6,0-1.3-0.2-1.8-0.4c-3.6-1.6-7.3-3.3-10.9-5c-1.1-0.5-2.3-1-3.6-1.6
		c0.7,26.8,0.8,53.4,0,80c0.2,0,0.4,0,0.5-0.1c4.4-2.2,8.8-4.4,13.2-6.6c0.3-0.1,0.5-0.7,0.5-1C76.7,222.8,76.7,221.5,76.7,220.2z
		 M87.1,247c0,0.6,0,1,0,1.3c-0.4,3.5-0.6,6.9-1.1,10.4c-1.4,9.3-4.1,18.2-8.6,26.5c-6.8,12.7-16.7,22.2-29,29.5
		c-0.4,0.3-0.9,0.5-1.3,0.8c0.7,1,1.3,1.9,1.9,2.8c0.4,0.6,0.7,0.7,1.4,0.4c2.6-1.1,5.3-2.1,7.8-3.3c11.7-5.4,21.8-13,29.5-23.5
		c8.6-11.8,12.8-25.3,14.4-39.6c0.2-1.7,0.3-3.5,0.5-5.2c11.4,0,22.7,0,34.1,0c0,23.5,0,47-1.1,70.6c0.5-0.2,0.9-0.4,1.2-0.6
		c4.7-2.3,9.3-4.7,14.1-7c1-0.5,1.2-1,1.2-2.1c-0.3-8.2-0.7-16.4-0.9-24.7c-0.2-11.6-0.2-23.3-0.3-34.9c0-0.5,0-0.9,0-1.5
		c13.8,0,27.4,0,41.2,0c-6-6.4-11.8-12.6-17.7-18.9c-0.3,0.4-0.4,0.6-0.7,0.9c-3.1,3.4-6.1,6.8-9.2,10.3c-0.5,0.6-1.1,0.8-1.8,0.8
		c-10.2,0-20.5,0-30.7,0c-27.7,0-55.4,0-83,0c-0.5,0-1,0-1.7,0c3.6,3.6,6.9,6.9,10.2,10.2c0.2,0.2,0.7,0.3,1,0.2
		c5.5-1.4,11.1-2.4,16.8-2.8C79.1,247.4,83.1,247.2,87.1,247z"/>
	<path d="M129.6,51.5c-11.1,4-19,11.8-27,20c0.6,0,0.9,0.1,1.3,0.1c12.9,0,25.8,0,38.8,0c0.8,0,1.3-0.3,1.8-0.9
		c2.5-3.2,5-6.4,7.6-9.8c5.1,4.7,10.2,9.4,15.4,14.2c-1.9,1.4-3.7,2.9-5.7,4c-2.1,1.2-2.7,2.7-2.6,5.1c0.2,8.8,0.1,17.5,0.2,26.3
		c0.2,10.5,0.6,21,1,31.5c0,1.2-0.3,1.6-1.4,2c-4.2,1.5-8.4,3.2-12.6,4.8c-0.4,0.1-0.7,0.3-1.2,0.4c0-2.3,0-4.5,0-6.9
		c-18.5,0-36.9,0-55.4,0c0,1.3,0,2.5,0,3.8c0,0.3-0.2,0.8-0.5,0.9c-4.5,1.5-9,3-13.7,4.6c0.8-29.5,0.7-58.8,0-88.4
		c0.5,0.3,0.9,0.5,1.3,0.7c3.7,2.2,7.4,4.3,11.1,6.5c1.3,0.8,2.6,1,4,1.1c2.8,0.3,4.2-0.7,5.5-3.2c4.4-8.6,8.8-17.2,11.7-26.5
		c0.2-0.7,0.4-1.4,0.7-2.2C116.3,43.7,122.9,47.5,129.6,51.5z M89.7,113.9c18.4,0,36.8,0,55.2,0c0-5.1,0-10.1,0-15.1
		c-18.4,0-36.8,0-55.2,0C89.7,103.8,89.7,108.8,89.7,113.9z M144.9,121.2c-18.5,0-36.8,0-55.2,0c0,4.7,0,9.3,0,14
		c18.4,0,36.8,0,55.2,0C144.9,130.5,144.9,125.9,144.9,121.2z M144.9,78.8c-18.5,0-36.8,0-55.2,0c0,4.3,0,8.5,0,12.7
		c18.4,0,36.8,0,55.2,0C144.9,87.3,144.9,83.1,144.9,78.8z"/>
	<path d="M76.7,220.2c0,1.3,0,2.6,0,3.8c0,0.4-0.3,0.9-0.5,1c-4.4,2.2-8.8,4.4-13.2,6.6c-0.1,0-0.2,0-0.5,0.1
		c0.8-26.6,0.7-53.2,0-80c1.3,0.6,2.5,1.1,3.6,1.6c3.6,1.7,7.2,3.4,10.9,5c0.6,0.3,1.2,0.4,1.8,0.4c24.8,0,49.7,0,74.5,0
		c0.8,0,1.2-0.2,1.7-0.8c2.5-2.9,5-5.7,7.6-8.7c5.1,4.3,10.2,8.6,15.4,13c-2.5,1.8-4.8,3.5-7.3,5.2c-0.8,0.5-1,1.1-1,2
		c0.1,8.1,0,16.2,0.1,24.2c0.2,8.9,0.6,17.8,0.9,26.7c0,0.4-0.2,1-0.5,1.1c-4.8,2.2-9.6,4.4-14.3,6.6c-0.1,0-0.2,0-0.4,0
		c0-2.6,0-5.2,0-7.9C129.2,220.2,103,220.2,76.7,220.2z M76.7,212.9c11,0,21.9,0,32.8,0c0-7.1,0-14,0-21c-11,0-21.9,0-32.8,0
		C76.7,198.9,76.7,205.8,76.7,212.9z M122.6,191.8c0,7.1,0,14,0,21c11,0,21.9,0,32.8,0c0-7,0-14,0-21
		C144.5,191.8,133.6,191.8,122.6,191.8z M109.6,166c-11,0-21.9,0-32.8,0c0,6.3,0,12.4,0,18.6c11,0,21.9,0,32.8,0
		C109.6,178.4,109.6,172.2,109.6,166z M122.6,184.6c11,0,21.9,0,32.8,0c0-6.2,0-12.4,0-18.6c-11,0-21.9,0-32.8,0
		C122.6,172.3,122.6,178.4,122.6,184.6z"/>
	<path d="M87.1,247c-4.1,0.2-8,0.4-12,0.7c-5.7,0.4-11.3,1.4-16.8,2.8c-0.3,0.1-0.8,0-1-0.2c-3.3-3.3-6.6-6.6-10.2-10.2
		c0.8,0,1.3,0,1.7,0c27.7,0,55.4,0,83,0c10.2,0,20.5,0,30.7,0c0.8,0,1.3-0.2,1.8-0.8c3-3.4,6.1-6.8,9.2-10.3
		c0.2-0.2,0.4-0.5,0.7-0.9c5.9,6.3,11.7,12.5,17.7,18.9c-13.9,0-27.4,0-41.2,0c0,0.6,0,1,0,1.5c0.1,11.6,0.1,23.3,0.3,34.9
		c0.1,8.2,0.5,16.5,0.9,24.7c0,1.1-0.2,1.6-1.2,2.1c-4.7,2.3-9.4,4.6-14.1,7c-0.4,0.2-0.7,0.3-1.2,0.6c1.1-23.6,1.1-47.1,1.1-70.6
		c-11.4,0-22.6,0-34.1,0c-0.2,1.7-0.3,3.5-0.5,5.2c-1.6,14.4-5.8,27.8-14.4,39.6C80,302.5,70,310.1,58.2,315.5
		c-2.6,1.2-5.2,2.2-7.8,3.3c-0.6,0.3-1,0.2-1.4-0.4c-0.5-0.9-1.2-1.8-1.9-2.8c0.5-0.3,0.9-0.5,1.3-0.8c12.3-7.2,22.2-16.8,29-29.5
		c4.4-8.3,7.2-17.2,8.6-26.5c0.5-3.4,0.8-6.9,1.1-10.4C87.2,248,87.1,247.6,87.1,247z"/>
	<path class="st0" d="M89.7,113.9c0-5.1,0-10.1,0-15.1c18.4,0,36.7,0,55.2,0c0,5,0,10,0,15.1C126.5,113.9,108.2,113.9,89.7,113.9z"
		/>
	<path class="st0" d="M144.9,121.2c0,4.7,0,9.3,0,14c-18.4,0-36.7,0-55.2,0c0-4.6,0-9.2,0-14C108.1,121.2,126.4,121.2,144.9,121.2z"
		/>
	<path class="st0" d="M144.9,78.8c0,4.3,0,8.4,0,12.7c-18.4,0-36.8,0-55.2,0c0-4.2,0-8.4,0-12.7C108.1,78.8,126.4,78.8,144.9,78.8z"
		/>
	<path class="st0" d="M76.7,212.9c0-7,0-14,0-21c10.9,0,21.8,0,32.8,0c0,7,0,14,0,21C98.6,212.9,87.7,212.9,76.7,212.9z"/>
	<path class="st0" d="M122.6,191.8c10.9,0,21.8,0,32.8,0c0,7,0,14,0,21c-10.9,0-21.8,0-32.8,0C122.6,205.9,122.6,198.9,122.6,191.8z
		"/>
	<path class="st0" d="M109.6,166c0,6.2,0,12.4,0,18.6c-10.9,0-21.8,0-32.8,0c0-6.2,0-12.3,0-18.6C87.6,166,98.5,166,109.6,166z"/>
	<path class="st0" d="M122.6,184.6c0-6.2,0-12.3,0-18.6c10.9,0,21.8,0,32.8,0c0,6.2,0,12.3,0,18.6
		C144.5,184.6,133.6,184.6,122.6,184.6z"/>
</g>
</svg>
