<?xml version="1.0" encoding="utf-8"?>
<!-- Generator: Adobe Illustrator 20.1.0, SVG Export Plug-In . SVG Version: 6.00 Build 0)  -->
<svg version="1.1" id="图层_1" xmlns="http://www.w3.org/2000/svg" xmlns:xlink="http://www.w3.org/1999/xlink" x="0px" y="0px"
	 viewBox="0 0 360 360" style="enable-background:new 0 0 360 360;" xml:space="preserve">
<style type="text/css">
	.st0{fill:#FFFFFF;}
</style>
<g>
	<path class="st0" d="M0.2,360.5c0-120.1,0-240.2,0-360.2c120.1,0,240.2,0,360.2,0c0,120.1,0,240.2,0,360.2
		C240.4,360.5,120.3,360.5,0.2,360.5z M196,107.3c0.1,2.2,0.3,4.1,0.3,6.1c0.3,12.5,0.6,25.1,0.7,37.6c0.1,14.8,0.1,29.6,0.1,44.4
		c0,1.9,0,3.8,0.2,5.6c0.7,6.8,3.9,11.8,10.3,14.6c4.2,1.8,8.6,2.4,13.1,2.4c19.5,0,39,0,58.6,0c2.5,0,5-0.3,7.5-0.6
		c8.1-0.9,13.1-6.3,17.6-12.3c-0.2-0.1-0.2-0.2-0.3-0.2c-0.3-0.2-0.7-0.3-1-0.4c-4.8-2.3-8.2-5.8-9.3-11c-0.8-3.7-1.3-7.4-1.9-11.1
		c-0.2-1.4-0.3-2.9-0.4-4.3c-1.7,0-3.2,0-4.8,0c0,0.5,0,0.9-0.1,1.4c-0.7,7.2-1.4,14.3-2.1,21.5c-0.3,2.6-1.8,4.3-4.2,5.3
		c-2.5,1-5,1.2-7.6,1.2c-15.3,0-30.6,0-46,0c-2.2,0-4.4-0.3-6.5-0.8c-4-1-6.9-3.3-8.1-7.4c-1.1-3.8-0.5-7.8-0.7-11.8
		c22.4,0,44.7,0,67.2,0c-5.2-5.6-10.3-11.1-15.4-16.6c-2.9,2.9-5.8,5.7-8.6,8.6c-0.6,0.6-1.2,0.8-2,0.8c-13.3,0-26.6,0-39.8,0
		c-0.4,0-0.9,0-1.3,0c0-4.7,0-9.3,0-14c22,0,43.8,0,66,0c-5.3-5.7-10.3-11.1-15.4-16.6c-2.9,2.9-5.8,5.8-8.7,8.6
		c-0.5,0.4-1.2,0.8-1.8,0.8c-13,0-25.9,0-38.9,0c-0.4,0-0.8,0-1.2,0c0-4.4,0-8.6,0-12.9c21.9,0,43.8,0,65.9,0
		c-5.2-5.6-10.3-11.1-15.4-16.6c-2.9,2.9-5.7,5.7-8.5,8.6c-0.6,0.6-1.3,0.9-2.2,0.9c-12.8,0-25.6,0-38.4,0c-0.5,0-0.9,0-1.5,0
		c0-5.5,0-10.9,0-16.4c18,0,36,0,54.1,0c0,1.6,0,3.1,0,4.6c5.2-1.2,10.2-2.4,15.3-3.5c0-0.3,0-0.6,0-0.8c-0.4-7.6-0.7-15.2-1.1-22.9
		c0-0.8,0.2-1.2,0.8-1.7c1.6-1.1,3.2-2.3,4.8-3.4c0.9-0.6,1.7-1.2,2.7-1.9c-6-4.4-11.9-8.7-17.7-13c-2.6,3.3-5.1,6.5-7.5,9.7
		c-0.5,0.7-1,0.9-1.9,0.9c-15.6,0-31.3,0-46.9,0c-0.4,0-0.8,0-1.3,0c0-4.8,0-9.4,0-14.1c24.7,0,49.3,0,74.1,0
		c-5.6-6-11.1-11.8-16.5-17.7c-3.3,3.3-6.6,6.6-9.8,9.8c-0.6,0.6-1.1,0.8-2,0.8c-14.8,0-29.7,0-44.5,0c-0.4,0-0.8,0-1.4,0
		c0-3.7,0-7.2,0-10.7c0-0.8,0.3-1.3,0.9-1.8c2.4-2,4.9-4.1,7.4-6.3c-7.9-3.2-15.7-6.3-23.6-9.4c0,0.4,0,0.6,0,0.8
		c0.4,14.8,0.7,29.6,1.1,44.3c0,1.5-0.4,2.4-1.6,3.3c-1.7,1.2-3.2,2.6-4.8,4c-0.2,0.2-0.6,0.3-0.9,0.5c5.4,4.1,10.4,8,15.6,12
		c2.5-2.5,5-5,7.4-7.5c0.6-0.6,1.2-0.8,2-0.8c16,0,32.1,0,48.1,0c0.4,0,0.8,0,1.2,0c0,6,0,11.7,0,17.6c-0.6,0-1,0-1.5,0
		c-14.2,0-28.3,0-42.5,0c-3,0-6,0.5-8.8-0.2c-2.8-0.7-5.4-2.5-8.1-3.8C201.7,110.1,198.9,108.7,196,107.3z M152.3,183.9
		c0,5.7,0,11.2,0,16.7c0,0.9-0.2,1.8-0.4,2.6c-0.6,2.5-1.5,3.4-4.1,3.4c-4.5,0-9-0.1-13.5-0.2c-1.4,0-2.8-0.1-4.2-0.2
		c-0.1,0.2-0.1,0.3-0.1,0.3c0,0.8,0,1.7,0,2.5c0,1.9,0,1.9,1.8,2.3c4.9,1.3,9.7,2.7,14,5.5c1.9,1.2,3.6,2.7,4.7,4.7
		c0.4,0.7,0.6,1.5,0.9,2.3c0.5-0.2,0.9-0.3,1.3-0.5c1.5-0.7,3.1-1.3,4.5-2.2c6.4-3.6,9.6-8.7,9.5-16.4c-0.3-20.8-0.1-41.7-0.1-62.5
		c0-0.5,0.4-1.1,0.8-1.4c2.1-1.6,4.3-3.1,6.4-4.6c0.3-0.2,0.7-0.5,1-0.8c-5.2-4.4-10.2-8.7-15.4-13c-2.6,2.9-5,5.8-7.6,8.6
		c-0.4,0.4-1.1,0.8-1.7,0.8c-16.2,0-32.5,0-48.7,0c-0.6,0-1.2-0.2-1.7-0.4c-4.8-2.4-9.6-4.8-14.4-7.2c-0.4-0.2-0.8-0.4-1.3-0.6
		c1.5,33.9,1.6,67.5,0,101.3c0.6-0.2,1-0.4,1.4-0.6c4.3-2,8.5-4,12.8-5.9c0.8-0.4,1.1-0.8,1.1-1.7c0-10.5,0-21,0-31.6
		c0-0.5,0-0.9,0-1.4C117.1,183.9,134.7,183.9,152.3,183.9z M91.7,81c18.6-1.3,37.1-0.5,55.9-0.8c-0.4,0.9-0.6,1.5-1,2.1
		c-5.3,9.5-10.6,18.9-15.9,28.4c-0.6,1-1.2,1.3-2.3,1.3c-22.9,0-45.8,0-68.6,0c-0.5,0-1,0-1.8,0c3.7,3.6,7,7,10.4,10.3
		c0.2,0.2,0.8,0.2,1.2,0.1c8.9-2.3,18-3.3,27.2-3.3c29.8,0,59.6,0,89.4,0c0.4,0,0.9,0,1.6,0c-5.7-6.1-11.1-11.9-16.7-17.9
		c-0.3,0.5-0.5,0.9-0.9,1.2c-2.9,3-5.9,5.9-8.8,8.8c-0.4,0.4-1.2,0.7-1.7,0.8c-7.4,0.1-14.8,0-22.2,0c-0.4,0-0.7,0-0.8-0.1
		c1.7-1.8,3.3-3.8,5.1-5.5c7.5-7,15-13.9,24.7-18c-4.2-2.7-8.3-5.3-12.4-7.9c0-0.1,0.1-0.2,0.1-0.3c9.2,0,18.3,0,27.7,0
		c-5.6-6-11-11.8-16.5-17.6c-3.2,3.2-6.3,6.2-9.2,9.3c-0.9,1-1.9,1.3-3.2,1.3c-28.7,0-57.4,0-86,0c-0.5,0-1,0-1.8,0
		c3.6,3.6,7,7,10.3,10.3c0.2,0.2,0.8,0.3,1.1,0.2c1.7-0.3,3.3-0.8,5-1.1c2.1-0.4,4.3-0.8,6.8-1.2c-1,1.2-0.5,1.7,0.2,2.4
		c5.8,5.9,10.7,12.4,13.1,20.5c0.2,0.8,0.6,1.6,1,2.3c1.6,2.8,3.6,3.1,5.8,0.8c1.9-2,3.3-4.2,3.9-6.9c1.5-6.5,0.6-8.9-4.6-12.1
		c-2.5-1.6-5.3-2.9-8.1-4.1C97.1,82.9,94.4,82,91.7,81z M112.4,41.4c0.1,0.1,0.2,0.3,0.3,0.4c5.3,6.9,9,14.4,11.1,22.9
		c0.4,1.8,1.2,3.5,2.1,5c1.2,2,3,2.3,4.8,0.8c1.4-1.2,2.7-2.7,3.8-4.2c3.2-4.7,4.1-11.6-2.3-16.9c-4.6-3.8-9.7-6.6-14.9-9.2
		c-2.7-1.3-2.7-1.3-4.7,1C112.4,41.2,112.4,41.3,112.4,41.4z"/>
	<path d="M196,107.3c3,1.5,5.7,2.9,8.4,4.2c2.7,1.3,5.2,3.2,8.1,3.8c2.8,0.7,5.9,0.2,8.8,0.2c14.2,0,28.3,0,42.5,0c0.5,0,1,0,1.5,0
		c0-5.8,0-11.6,0-17.6c-0.4,0-0.8,0-1.2,0c-16,0-32.1,0-48.1,0c-0.8,0-1.4,0.2-2,0.8c-2.4,2.5-4.9,4.9-7.4,7.5
		c-5.1-3.9-10.2-7.8-15.6-12c0.4-0.2,0.7-0.3,0.9-0.5c1.6-1.3,3.1-2.7,4.8-4c1.2-0.9,1.6-1.8,1.6-3.3c-0.4-14.8-0.8-29.6-1.1-44.3
		c0-0.2,0-0.4,0-0.8c7.9,3.2,15.7,6.3,23.6,9.4c-2.5,2.2-5,4.3-7.4,6.3c-0.6,0.5-0.9,1-0.9,1.8c0,3.5,0,7,0,10.7c0.5,0,0.9,0,1.4,0
		c14.8,0,29.7,0,44.5,0c0.8,0,1.4-0.2,2-0.8c3.2-3.3,6.5-6.5,9.8-9.8c5.5,5.9,10.9,11.7,16.5,17.7c-24.9,0-49.5,0-74.1,0
		c0,4.8,0,9.3,0,14.1c0.4,0,0.8,0,1.3,0c15.6,0,31.3,0,46.9,0c0.9,0,1.4-0.3,1.9-0.9c2.4-3.2,4.9-6.4,7.5-9.7
		c5.9,4.3,11.7,8.6,17.7,13c-1,0.7-1.8,1.3-2.7,1.9c-1.6,1.1-3.2,2.3-4.8,3.4c-0.7,0.4-0.9,0.9-0.8,1.7c0.4,7.6,0.8,15.2,1.1,22.9
		c0,0.2,0,0.5,0,0.8c-5,1.2-10.1,2.3-15.3,3.5c0-1.6,0-3.1,0-4.6c-18.1,0-36.1,0-54.1,0c0,5.4,0,10.8,0,16.4c0.5,0,1,0,1.5,0
		c12.8,0,25.6,0,38.4,0c0.9,0,1.6-0.3,2.2-0.9c2.8-2.9,5.6-5.7,8.5-8.6c5.1,5.5,10.2,10.9,15.4,16.6c-22.1,0-44,0-65.9,0
		c0,4.3,0,8.6,0,12.9c0.4,0,0.8,0,1.2,0c13,0,25.9,0,38.9,0c0.6,0,1.4-0.3,1.8-0.8c2.9-2.8,5.7-5.7,8.7-8.6
		c5.1,5.5,10.1,10.9,15.4,16.6c-22.1,0-44,0-66,0c0,4.7,0,9.3,0,14c0.5,0,0.9,0,1.3,0c13.3,0,26.6,0,39.8,0c0.8,0,1.4-0.2,2-0.8
		c2.8-2.9,5.7-5.7,8.6-8.6c5.1,5.5,10.1,10.9,15.4,16.6c-22.6,0-44.8,0-67.2,0c0.2,4-0.5,7.9,0.7,11.8c1.2,4.1,4.1,6.4,8.1,7.4
		c2.1,0.5,4.3,0.8,6.5,0.8c15.3,0.1,30.6,0,46,0c2.6,0,5.2-0.2,7.6-1.2c2.4-1,4-2.7,4.2-5.3c0.7-7.2,1.4-14.3,2.1-21.5
		c0-0.4,0.1-0.9,0.1-1.4c1.6,0,3.1,0,4.8,0c0.1,1.4,0.2,2.9,0.4,4.3c0.6,3.7,1.1,7.4,1.9,11.1c1.2,5.3,4.6,8.8,9.3,11
		c0.3,0.2,0.7,0.3,1,0.4c0.1,0,0.1,0.1,0.3,0.2c-4.5,6-9.5,11.4-17.6,12.3c-2.5,0.3-5,0.6-7.5,0.6c-19.5,0-39,0-58.6,0
		c-4.5,0-8.9-0.6-13.1-2.4c-6.4-2.8-9.6-7.8-10.3-14.6c-0.2-1.9-0.2-3.8-0.2-5.6c0-14.8,0-29.6-0.1-44.4
		c-0.1-12.5-0.4-25.1-0.7-37.6C196.2,111.4,196.1,109.5,196,107.3z"/>
	<path d="M152.3,183.9c-17.7,0-35.2,0-52.9,0c0,0.5,0,0.9,0,1.4c0,10.5,0,21,0,31.6c0,0.9-0.3,1.3-1.1,1.7
		c-4.3,1.9-8.6,3.9-12.8,5.9c-0.4,0.2-0.9,0.4-1.4,0.6c1.6-33.8,1.5-67.5,0-101.3c0.5,0.2,0.9,0.4,1.3,0.6c4.8,2.4,9.6,4.8,14.4,7.2
		c0.5,0.3,1.1,0.4,1.7,0.4c16.2,0,32.5,0,48.7,0c0.6,0,1.3-0.4,1.7-0.8c2.5-2.8,5-5.7,7.6-8.6c5.1,4.3,10.2,8.6,15.4,13
		c-0.4,0.3-0.7,0.6-1,0.8c-2.1,1.5-4.3,3-6.4,4.6c-0.4,0.3-0.8,0.9-0.8,1.4c0,20.8-0.2,41.7,0.1,62.5c0.1,7.6-3.1,12.8-9.5,16.4
		c-1.5,0.8-3,1.5-4.5,2.2c-0.4,0.2-0.8,0.3-1.3,0.5c-0.3-0.8-0.5-1.6-0.9-2.3c-1.1-2.1-2.7-3.5-4.7-4.7c-4.3-2.7-9.1-4.2-14-5.5
		c-1.8-0.5-1.8-0.4-1.8-2.3c0-0.8,0-1.7,0-2.5c0-0.1,0-0.1,0.1-0.3c1.4,0.1,2.8,0.2,4.2,0.2c4.5,0.1,9,0.2,13.5,0.2
		c2.5,0,3.5-0.9,4.1-3.4c0.2-0.9,0.4-1.7,0.4-2.6C152.4,195.1,152.3,189.6,152.3,183.9z M152.3,160.4c-17.6,0-35.2,0-52.8,0
		c0,5.4,0,10.8,0,16.3c17.6,0,35.2,0,52.8,0C152.3,171.2,152.3,165.8,152.3,160.4z M152.3,139.2c-17.7,0-35.2,0-52.8,0
		c0,4.7,0,9.3,0,13.9c17.7,0,35.2,0,52.8,0C152.3,148.5,152.3,143.9,152.3,139.2z"/>
	<path d="M91.7,81c2.7,1,5.4,1.9,8,3c2.8,1.2,5.6,2.5,8.1,4.1c5.1,3.3,6.1,5.6,4.6,12.1c-0.6,2.7-2.1,4.9-3.9,6.9
		c-2.2,2.3-4.3,2-5.8-0.8c-0.4-0.7-0.8-1.5-1-2.3c-2.4-8.1-7.3-14.6-13.1-20.5c-0.6-0.6-1.2-1.2-0.2-2.4c-2.5,0.4-4.6,0.8-6.8,1.2
		c-1.7,0.3-3.3,0.8-5,1.1c-0.4,0.1-0.9,0-1.1-0.2C72,80,68.7,76.7,65,73.1c0.8,0,1.3,0,1.8,0c28.7,0,57.4,0,86,0
		c1.3,0,2.3-0.3,3.2-1.3c3-3.1,6.1-6.1,9.2-9.3c5.5,5.9,10.9,11.7,16.5,17.6c-9.4,0-18.5,0-27.7,0c0,0.1-0.1,0.2-0.1,0.3
		c4.1,2.6,8.3,5.3,12.4,7.9c-9.7,4.1-17.2,11.1-24.7,18c-1.8,1.7-3.4,3.7-5.1,5.5c0.1,0,0.4,0.1,0.8,0.1c7.4,0,14.8,0,22.2,0
		c0.6,0,1.3-0.3,1.7-0.8c3-2.9,5.9-5.9,8.8-8.8c0.3-0.3,0.5-0.7,0.9-1.2c5.6,6.1,11.1,11.9,16.7,17.9c-0.7,0-1.2,0-1.6,0
		c-29.8,0-59.6,0-89.4,0c-9.2,0-18.3,1-27.2,3.3c-0.4,0.1-0.9,0.1-1.2-0.1C65,119,61.7,115.6,58,112c0.8,0,1.3,0,1.8,0
		c22.9,0,45.8,0,68.6,0c1.1,0,1.7-0.3,2.3-1.3c5.3-9.5,10.6-19,15.9-28.4c0.3-0.6,0.6-1.3,1-2.1C128.9,80.5,110.3,79.7,91.7,81z"/>
	<path d="M112.4,41.4c0-0.1,0.1-0.2,0.1-0.2c2-2.3,2.1-2.4,4.7-1c5.3,2.6,10.4,5.5,14.9,9.2c6.4,5.3,5.5,12.2,2.3,16.9
		c-1.1,1.6-2.4,3-3.8,4.2c-1.7,1.5-3.6,1.1-4.8-0.8c-0.9-1.6-1.7-3.3-2.1-5c-2.1-8.4-5.9-16-11.1-22.9
		C112.5,41.7,112.5,41.5,112.4,41.4z"/>
	<path class="st0" d="M152.3,160.4c0,5.4,0,10.8,0,16.3c-17.6,0-35.2,0-52.8,0c0-5.5,0-10.8,0-16.3
		C117.1,160.4,134.7,160.4,152.3,160.4z"/>
	<path class="st0" d="M152.3,139.2c0,4.7,0,9.2,0,13.9c-17.6,0-35.2,0-52.8,0c0-4.6,0-9.2,0-13.9
		C117.1,139.2,134.7,139.2,152.3,139.2z"/>
</g>
</svg>
