<?xml version="1.0" encoding="utf-8"?>
<!-- Generator: Adobe Illustrator 20.1.0, SVG Export Plug-In . SVG Version: 6.00 Build 0)  -->
<svg version="1.1" id="图层_1" xmlns="http://www.w3.org/2000/svg" xmlns:xlink="http://www.w3.org/1999/xlink" x="0px" y="0px"
	 viewBox="0 0 360 360" style="enable-background:new 0 0 360 360;" xml:space="preserve">
<style type="text/css">
	.st0{fill:#FFFFFF;}
</style>
<g>
	<path class="st0" d="M-0.1,360.1c0-120.1,0-240.2,0-360.2c120.1,0,240.2,0,360.2,0c0,120.1,0,240.2,0,360.2
		C240,360.1,120,360.1-0.1,360.1z M199.2,211.8c0.2,4,0.5,7.9,0.5,11.8c0.2,10.7,0.4,21.3,0.5,32c0.1,11.2,0,22.3,0.1,33.5
		c0,1.8,0,3.6,0.2,5.4c0.8,7.3,4.5,12.5,11.7,14.9c3.5,1.2,7.2,1.5,10.9,1.5c22.9,0,45.8,0,68.6,0c8.3,0,15.6-2.4,21.5-8.3
		c1.8-1.8,3.3-3.8,4.9-5.6c-2.3-1.5-4.4-2.8-6.4-4.3c-3.5-2.6-5.9-5.8-6.2-10.3c-0.3-4.7-0.5-9.4-0.6-14.1c-0.1-2.3,0-4.5,0-6.8
		c-1.8,0-3.7,0-5.6,0c0,0.2-0.1,0.4-0.1,0.5c-0.4,5.4-0.7,10.8-1.3,16.3c-0.4,4.2-1,8.4-1.9,12.5c-1.1,5-5.4,8.3-10.2,8.3
		c-18.4,0-36.7,0-55.1,0c-3.6,0-7.1-0.4-10.4-1.9c-2.3-1-4.2-2.6-5.2-5.1c-1.1-3.1-0.5-6.2-0.7-9.5c23.6,0,47,0,70.7,0
		c-5.6-6-11.1-11.9-16.5-17.7c-3.4,3.4-6.6,6.6-9.8,9.9c-0.6,0.6-1.2,0.8-2,0.8c-13.6,0-27.3,0-40.9,0c-0.4,0-0.9,0-1.3,0
		c0-4,0-7.8,0-11.8c22.7,0,45.4,0,68.3,0c-5.2-5.6-10.3-11-15.4-16.5c-2.9,2.9-5.8,5.8-8.6,8.7c-0.5,0.6-1.1,0.8-1.9,0.8
		c-13.7,0-27.4,0-41.2,0c-0.4,0-0.8,0-1.2-0.1c0-3.5,0-6.9,0-10.4c21.9,0,43.8,0,66,0c-5.2-5.7-10.3-11.1-15.4-16.6
		c-2.9,2.9-5.8,5.8-8.6,8.7c-0.6,0.6-1.2,0.8-2,0.8c-12.9,0-25.8,0-38.6,0c-0.4,0-0.9,0-1.3,0c0-4.8,0-9.4,0-14
		c18.4,0,36.8,0,55.3,0c0,1.9,0,3.8,0,5.8c0.4-0.1,0.7-0.2,1-0.3c4.4-1.4,8.8-2.7,13.3-4.1c0.8-0.2,1-0.6,0.9-1.4
		c-0.4-6.4-0.7-12.8-1.1-19.1c0-0.7,0.2-1.2,0.8-1.5c2.1-1.3,4.1-2.7,6.1-4.1c-4.7-4.7-9.4-9.4-14.2-14.2c-0.2,0.2-0.5,0.4-0.7,0.7
		c-2.6,2.6-5.2,5.2-7.8,7.8c-0.6,0.6-1.1,0.8-1.9,0.8c-16.8,0-33.7,0-50.5,0c-0.4,0-0.8,0-1.2,0c0-4.8,0-9.3,0-14.1
		c26.7,0,53.2,0,80.1,0c-5.6-6-11.1-11.9-16.6-17.7c-3,3.3-5.8,6.5-8.6,9.7c-0.6,0.6-1.1,1-2,1c-17.2,0-34.3,0-51.5,0
		c-0.5,0-0.9,0-1.5,0c0-1.2,0.1-2.2,0-3.2c-0.3-2,0.4-3.3,2-4.4c1.8-1.2,3.3-2.7,5.1-4.2c-7.6-2.8-15-5.5-22.5-8.3
		c0.1,0.8,0.1,1.4,0.2,2c0.3,11.9,0.7,23.8,1,35.7c0,0.9-0.3,1.3-1.1,1.7c-2.4,0.9-4.7,2-7.2,3.1c5.2,4,10.3,7.9,15.4,11.8
		c2.5-1.8,4.9-3.5,7.4-5.2c0.6-0.4,1.4-0.7,2.1-0.7c17.2,0,34.4,0,51.6,0c0.4,0,0.9,0,1.3,0c0,5.1,0,10.1,0,15.2c-0.5,0-1,0-1.5,0
		c-15.5,0-31-0.1-46.6,0.1c-4.2,0-8.2-0.5-12.1-2.1C206.2,214.1,202.7,213,199.2,211.8z M153.1,279c0,3.7,0.1,7.3,0,10.9
		c-0.1,1.7-0.4,3.3-0.8,4.9c-0.6,2.2-1.6,2.9-3.9,2.8c-3.6-0.2-7.2-0.4-10.7-0.8c-3-0.3-6.1-0.9-9.2-1.4c0,1.3,0.1,2.5,0,3.7
		c-0.1,0.8,0.3,1.1,1,1.5c3.5,1.6,7.1,3.1,10.4,5.1c4.4,2.7,7.8,6.3,7.5,12.2c1.1-0.3,2-0.6,2.9-1c2.4-1,4.8-2,7.1-3.2
		c6.8-3.8,10.2-9.5,10.1-17.4c-0.2-17.5,0-35-0.1-52.4c0-1,0.3-1.6,1.2-2c2.3-1.3,4.6-2.6,7.1-4c-5.2-4.8-10.3-9.5-15.4-14.2
		c-2.5,2.5-5,5-7.4,7.4c-0.6,0.6-1.2,0.8-2,0.8c-17,0-33.9,0-50.9,0c-0.7,0-1.4-0.1-2-0.4c-5.2-2-10.4-4.1-15.6-6.2
		c-0.3-0.1-0.7-0.3-1.1-0.4c1.4,30.7,1.6,61.2,0,91.9c4.8-1.8,9.4-3.7,14.2-5.4c0.9-0.3,1.2-0.8,1.2-1.7c0-9.6,0-19.3,0-28.9
		c0-0.5,0-1,0-1.6C115.6,279,134.3,279,153.1,279z M144.8,187.3c0,0.2-0.1,0.4-0.2,0.6c-2.5,8.3-5,16.6-7.5,24.9
		c-0.3,1.1-0.8,1.4-1.9,1.4c-24.9,0-49.8,0-74.6,0c-0.5,0-0.9,0-1.6,0c0.4,0.5,0.7,0.7,0.9,1c3,3,6,5.9,8.9,8.9
		c0.6,0.6,1,0.7,1.8,0.5c9.1-2.4,18.3-3.3,27.7-3.3c30.3,0,60.6,0,91,0c0.5,0,1,0,1.4,0c-5.5-5.5-10.9-10.9-16.3-16.4
		c-0.2,0.2-0.5,0.5-0.8,0.7c-2.6,2.6-5.2,5.3-7.9,7.9c-0.4,0.4-1.1,0.7-1.6,0.7c-7.1,0-14.2,0-21.2,0c-0.3,0-0.7,0-1.1-0.1
		c0.8-1,1.4-1.9,2.1-2.7c5.4-6.7,10.6-13.6,18.9-17.3c-4.1-2.3-8.2-4.5-12.3-6.7c0-0.1,0.1-0.2,0.1-0.3c9.9,0,19.8,0,30,0
		c-5.6-6-11.1-11.8-16.5-17.7c-3.3,3.3-6.4,6.4-9.6,9.6c-0.7,0.7-1.4,1-2.4,1c-27.7,0-55.4,0-83,0c-0.5,0-0.9,0-1.7,0
		c0.5,0.5,0.7,0.8,1,1.1c2.5,2.5,5.1,4.8,7.3,7.4c1.6,1.9,3.1,2.1,5.5,1.5c3.6-1,7.2-1.4,10.8-2.1c0.4,0.8,0.7,1.4,1,2
		c2.6,4.9,4.8,10,5.9,15.5c0.4,1.9,0.7,3.9,1.4,5.7c0.7,2,2.3,2.4,4.2,1.6c6-2.6,9.2-12,3.7-17.2c-3-2.8-6.4-5-10-7
		c-0.4-0.2-0.8-0.4-1.1-0.7c0-0.1,0.1-0.2,0.1-0.4C112.9,187.3,128.8,187.3,144.8,187.3z M107.4,151.6c-1.5,2.3-1.5,2.3,0,4.1
		c0.3,0.4,0.7,0.8,1,1.2c4.6,5.6,9,11.3,11,18.5c0.1,0.5,0.4,0.9,0.6,1.3c1.2,2.3,3.1,2.9,5.1,1.2c1.6-1.3,3.1-2.9,4.2-4.7
		c2.4-3.8,1.8-7.8-1.3-11c-3-3-6.7-4.9-10.6-6.6C114.1,154.1,110.7,152.9,107.4,151.6z"/>
	<path d="M199.2,211.8c3.5,1.3,7,2.3,10.4,3.7c3.9,1.6,7.9,2.2,12.1,2.1c15.5-0.1,31-0.1,46.6-0.1c0.5,0,0.9,0,1.5,0
		c0-5.1,0-10.1,0-15.2c-0.5,0-0.9,0-1.3,0c-17.2,0-34.4,0-51.6,0c-0.7,0-1.5,0.3-2.1,0.7c-2.5,1.7-4.9,3.4-7.4,5.2
		c-5.1-3.9-10.2-7.8-15.4-11.8c2.5-1.1,4.8-2.1,7.2-3.1c0.8-0.3,1.1-0.7,1.1-1.7c-0.4-11.9-0.7-23.8-1-35.7c0-0.6-0.1-1.2-0.2-2
		c7.5,2.8,14.9,5.5,22.5,8.3c-1.8,1.5-3.4,3-5.1,4.2c-1.6,1.1-2.3,2.4-2,4.4c0.1,1,0,2,0,3.2c0.6,0,1,0,1.5,0c17.2,0,34.3,0,51.5,0
		c0.9,0,1.5-0.3,2-1c2.8-3.2,5.7-6.4,8.6-9.7c5.5,5.9,10.9,11.7,16.6,17.7c-26.9,0-53.4,0-80.1,0c0,4.7,0,9.3,0,14.1
		c0.4,0,0.8,0,1.2,0c16.8,0,33.7,0,50.5,0c0.8,0,1.3-0.2,1.9-0.8c2.6-2.6,5.2-5.2,7.8-7.8c0.3-0.3,0.6-0.5,0.7-0.7
		c4.7,4.7,9.4,9.4,14.2,14.2c-2,1.3-4,2.7-6.1,4.1c-0.6,0.4-0.8,0.8-0.8,1.5c0.4,6.4,0.7,12.8,1.1,19.1c0.1,0.8-0.1,1.2-0.9,1.4
		c-4.4,1.3-8.9,2.7-13.3,4.1c-0.3,0.1-0.6,0.2-1,0.3c0-2,0-3.8,0-5.8c-18.5,0-36.9,0-55.3,0c0,4.7,0,9.3,0,14c0.5,0,0.9,0,1.3,0
		c12.9,0,25.8,0,38.6,0c0.8,0,1.4-0.2,2-0.8c2.8-2.9,5.7-5.7,8.6-8.7c5.1,5.5,10.1,10.9,15.4,16.6c-22.2,0-44,0-66,0
		c0,3.5,0,6.9,0,10.4c0.4,0,0.8,0.1,1.2,0.1c13.7,0,27.4,0,41.2,0c0.8,0,1.3-0.2,1.9-0.8c2.8-2.9,5.7-5.7,8.6-8.7
		c5.1,5.5,10.1,10.9,15.4,16.5c-22.9,0-45.5,0-68.3,0c0,4,0,7.8,0,11.8c0.5,0,0.9,0,1.3,0c13.6,0,27.3,0,40.9,0c0.8,0,1.4-0.2,2-0.8
		c3.2-3.3,6.5-6.5,9.8-9.9c5.5,5.9,10.9,11.7,16.5,17.7c-23.7,0-47.1,0-70.7,0c0.2,3.3-0.5,6.4,0.7,9.5c0.9,2.5,2.8,4,5.2,5.1
		c3.3,1.5,6.9,1.9,10.4,1.9c18.4,0,36.7,0,55.1,0c4.8,0,9.1-3.3,10.2-8.3c0.9-4.1,1.5-8.3,1.9-12.5c0.6-5.4,0.9-10.8,1.3-16.3
		c0-0.2,0.1-0.3,0.1-0.5c1.9,0,3.8,0,5.6,0c0,2.3-0.1,4.6,0,6.8c0.2,4.7,0.4,9.4,0.6,14.1c0.2,4.5,2.7,7.8,6.2,10.3
		c2,1.5,4.1,2.7,6.4,4.3c-1.6,1.8-3.1,3.9-4.9,5.6c-5.9,5.9-13.3,8.3-21.5,8.3c-22.9,0-45.8,0-68.6,0c-3.7,0-7.3-0.3-10.9-1.5
		c-7.2-2.4-10.9-7.5-11.7-14.9c-0.2-1.8-0.2-3.6-0.2-5.4c0-11.2,0-22.3-0.1-33.5c-0.1-10.7-0.3-21.3-0.5-32
		C199.7,219.7,199.4,215.8,199.2,211.8z"/>
	<path d="M153.1,279c-18.8,0-37.5,0-56.4,0c0,0.6,0,1.1,0,1.6c0,9.6,0,19.3,0,28.9c0,0.9-0.2,1.4-1.2,1.7c-4.7,1.7-9.4,3.6-14.2,5.4
		c1.6-30.7,1.4-61.2,0-91.9c0.4,0.1,0.7,0.2,1.1,0.4c5.2,2.1,10.4,4.2,15.6,6.2c0.6,0.2,1.3,0.4,2,0.4c17,0,33.9,0,50.9,0
		c0.8,0,1.4-0.2,2-0.8c2.4-2.5,4.9-4.9,7.4-7.4c5.1,4.7,10.2,9.4,15.4,14.2c-2.4,1.4-4.7,2.8-7.1,4c-0.9,0.5-1.2,1-1.2,2
		c0,17.5-0.1,35,0.1,52.4c0.1,8-3.4,13.6-10.1,17.4c-2.2,1.3-4.7,2.2-7.1,3.2c-0.9,0.4-1.9,0.6-2.9,1c0.3-5.9-3-9.5-7.5-12.2
		c-3.3-2-6.9-3.5-10.4-5.1c-0.7-0.3-1.1-0.6-1-1.5c0.1-1.2,0-2.4,0-3.7c3.2,0.5,6.2,1.1,9.2,1.4c3.6,0.4,7.2,0.7,10.7,0.8
		c2.2,0.1,3.2-0.7,3.9-2.8c0.5-1.6,0.8-3.3,0.8-4.9C153.2,286.3,153.1,282.7,153.1,279z M153.1,239c-18.8,0-37.6,0-56.3,0
		c0,4.3,0,8.5,0,12.8c18.8,0,37.5,0,56.3,0C153.1,247.5,153.1,243.3,153.1,239z M153.1,259.1c-18.8,0-37.6,0-56.3,0
		c0,4.3,0,8.5,0,12.7c18.8,0,37.5,0,56.3,0C153.1,267.5,153.1,263.3,153.1,259.1z"/>
	<path d="M144.8,187.3c-16,0-31.9,0-47.8,0c0,0.1-0.1,0.2-0.1,0.4c0.4,0.2,0.8,0.4,1.1,0.7c3.6,2,7,4.2,10,7
		c5.4,5.2,2.2,14.6-3.7,17.2c-1.9,0.8-3.5,0.4-4.2-1.6c-0.7-1.8-1-3.8-1.4-5.7c-1.2-5.5-3.4-10.6-5.9-15.5c-0.3-0.6-0.6-1.1-1-2
		c-3.5,0.7-7.2,1.2-10.8,2.1c-2.3,0.6-3.8,0.4-5.5-1.5c-2.3-2.6-4.9-5-7.3-7.4c-0.3-0.3-0.5-0.6-1-1.1c0.7,0,1.2,0,1.7,0
		c27.7,0,55.4,0,83,0c1,0,1.7-0.3,2.4-1c3.1-3.2,6.3-6.3,9.6-9.6c5.5,5.9,10.9,11.7,16.5,17.7c-10.2,0-20.1,0-30,0
		c0,0.1-0.1,0.2-0.1,0.3c4.1,2.2,8.1,4.4,12.3,6.7c-8.3,3.7-13.5,10.6-18.9,17.3c-0.7,0.8-1.3,1.7-2.1,2.7c0.5,0,0.8,0.1,1.1,0.1
		c7.1,0,14.2,0,21.2,0c0.6,0,1.2-0.3,1.6-0.7c2.7-2.6,5.3-5.2,7.9-7.9c0.3-0.3,0.6-0.5,0.8-0.7c5.4,5.4,10.8,10.8,16.3,16.4
		c-0.5,0-0.9,0-1.4,0c-30.3,0-60.6,0-91,0c-9.3,0-18.6,0.9-27.7,3.3c-0.7,0.2-1.2,0.1-1.8-0.5c-2.9-3-5.9-6-8.9-8.9
		c-0.2-0.2-0.5-0.5-0.9-1c0.7,0,1.1,0,1.6,0c24.9,0,49.8,0,74.6,0c1.1,0,1.6-0.3,1.9-1.4c2.5-8.3,5-16.6,7.5-24.9
		C144.7,187.7,144.8,187.5,144.8,187.3z"/>
	<path d="M107.4,151.6c3.3,1.3,6.7,2.6,10,4c3.9,1.7,7.6,3.6,10.6,6.6c3.2,3.2,3.8,7.2,1.3,11c-1.1,1.7-2.6,3.3-4.2,4.7
		c-2,1.7-3.9,1.1-5.1-1.2c-0.2-0.4-0.5-0.9-0.6-1.3c-2-7.1-6.3-12.9-11-18.5c-0.3-0.4-0.7-0.8-1-1.2
		C105.9,153.9,105.9,153.9,107.4,151.6z"/>
	<path class="st0" d="M153.1,239c0,4.3,0,8.5,0,12.8c-18.8,0-37.5,0-56.3,0c0-4.2,0-8.4,0-12.8C115.6,239,134.3,239,153.1,239z"/>
	<path class="st0" d="M153.1,259.1c0,4.2,0,8.4,0,12.7c-18.8,0-37.5,0-56.3,0c0-4.2,0-8.4,0-12.7
		C115.6,259.1,134.3,259.1,153.1,259.1z"/>
</g>
</svg>
