<?xml version="1.0" encoding="utf-8"?>
<!-- Generator: Adobe Illustrator 20.1.0, SVG Export Plug-In . SVG Version: 6.00 Build 0)  -->
<svg version="1.1" id="图层_1" xmlns="http://www.w3.org/2000/svg" xmlns:xlink="http://www.w3.org/1999/xlink" x="0px" y="0px"
	 viewBox="0 0 360 360" style="enable-background:new 0 0 360 360;" xml:space="preserve">
<style type="text/css">
	.st0{fill:#FFFFFF;}
</style>
<g>
	<g>
		<path class="st0" d="M0.2,360.5c0-120.1,0-240.2,0-360.2c120.1,0,240.2,0,360.2,0c0,120.1,0,240.2,0,360.2
			C240.4,360.5,120.3,360.5,0.2,360.5z M280.4,61.4c-0.2,0.2-0.4,0.6-0.7,0.9c-5.2,5.2-10.4,10.4-15.6,15.6
			c-0.8,0.8-1.5,1.1-2.6,1.1c-66.8,0-133.7,0-200.5,0c-0.5,0-1,0-1.7,0c0.4,0.4,0.6,0.7,0.8,0.9c3,3,6,5.9,8.9,8.9
			c0.6,0.6,1.2,0.7,2,0.5c7.8-2,15.8-3.1,23.9-3.2c13.5-0.1,27-0.1,40.6-0.1c0.4,0,0.9,0,1.4,0c-0.3,0.9-0.5,1.7-0.8,2.4
			c-0.4,0.8-0.1,1.3,0.5,1.9c4.5,4,9.1,8,13.5,12.3c4.4,4.2,8.3,8.9,10.9,14.5c0.3,0.7,0.8,1.3,1.2,1.9c2,2.6,4.4,2.8,6.7,0.5
			c2.3-2.2,4-4.9,5-7.9c1.3-3.9,0.6-7.5-2.5-10.2c-2.4-2.1-5.2-3.9-8-5.4c-7.8-4.1-16.1-6.8-24.4-9.4c-0.3-0.1-0.7-0.2-1-0.3
			c0,0,0-0.1,0.1-0.1c26.8,0,53.5,0,80.5,0c-1.5,2-2.8,3.9-4.3,5.7c-8.7,11.2-18.7,21.3-29.1,31c-1.1,1-2.1,2.6-3.4,2.9
			c-1.3,0.2-2.9-0.8-4.4-1.3c-1.7-0.6-3.3-1.2-5.1-1.9c0.4,24,1.1,47.9,0,71.9c5.4-1.9,10.7-3.8,15.9-5.7c0.3-0.1,0.5-0.7,0.5-1
			c-0.1-2.3-0.4-4.5-0.4-6.8c-0.3-12.7-0.4-25.3-0.8-38c-0.1-2.9,0.6-4.7,3.4-5.8c1.7-0.7,3.2-1.8,5-2.8c-3.6-2-7-3.9-10.6-5.9
			c3.6-2.4,7-4.7,10.5-6.9c9.1-5.9,18.3-11.5,28.2-15.8c4.5-2,9.2-3.7,14.4-4.3c-5.9-5.1-11.5-10.1-17.4-15.3c28.4,0,56.3,0,84.2,0
			C297,77.9,288.8,69.8,280.4,61.4z M97.1,167.4c0.5,0.1,1.1,0.2,1.5,0.4c3.4,1.1,6.9,2,10.2,3.4c6.1,2.7,10.9,6.6,11.8,13.8
			c0.2,0,0.3,0.1,0.4,0c3.8-0.8,7.5-1.9,11-3.5c8.3-3.9,12.4-10.1,12.2-19.4c-0.2-11.1,0-22.2-0.1-33.4c0-1.9,0.5-3.1,2.1-4.1
			c2.1-1.3,4.1-2.9,6.2-4.4c-5.6-5.2-11-10.2-16.6-15.4c-2.5,3.3-5,6.4-7.4,9.6c-0.6,0.7-1.1,1-2.1,1c-23.4,0-46.8,0-70.2,0
			c-0.5,0-0.9,0-1.4,0c0.1,0.3,0.1,0.4,0.2,0.4c3.3,3.3,6.5,6.6,9.9,9.8c0.2,0.2,0.9,0.3,1.2,0.2c2.9-0.8,5.7-1.7,8.7-2.4
			c2.6-0.5,5.3-0.7,8.1-1.1c0,0.6,0.1,0.9,0.1,1.2c-0.1,6.8-1.1,13.4-3.3,19.8c-4.2,12.5-12.1,22.3-22.4,30.3
			c-3.1,2.4-6.3,4.5-9.6,6.8c0.4,1.1,0.7,2.2,1.2,3.4c9.2-3.1,17.9-7,25.7-12.7c14.3-10.5,22.2-24.6,23.6-42.3
			c0.2-2,0.2-4.1,0.3-6.1c10.2,0,20.3,0,30.5,0c0,0.5,0,1,0,1.5c0,10.5,0,21,0,31.6c0,1-0.1,2-0.2,3c-0.4,3.3-2.5,5.5-5.7,6.1
			c-0.9,0.2-1.9,0.3-2.9,0.3c-5.8-0.6-11.7-1.2-17.5-1.8c-1.8-0.2-3.6-0.4-5.5-0.6C97.1,164.3,97.1,165.8,97.1,167.4z M237.2,163.8
			c0-0.6,0-1.1,0-1.6c0-7.9,0.1-15.8-0.1-23.6c0-2.3,0.6-3.5,2.7-4.4c2.3-0.9,4.4-2.1,6.8-3.4c-3.6-1.6-7-3.1-10.6-4.8
			c5.8-2.3,11.4-4.5,17-6.8c5.1,11.5,11.7,21.8,19.8,31.2c8.1,9.3,17.5,17.3,27.9,24c3.7-8.1,10.6-11,18.8-11.8c0-0.8,0-1.6,0-2.3
			c0-0.8,0-1.6,0-2.4c-26.6-4.3-46.3-18.8-61.8-40.3c10.2-3.5,20.3-6.8,30.7-8c-5.4-5.4-10.9-10.9-16.2-16.2
			c-2.5,2.4-5.1,5.1-7.8,7.5c-9.1,8-19.3,14.6-29.5,21.1c-1.9,1.3-3.5,1.5-5.5,0.4c-2.4-1.3-5.1-2.3-7.7-3.5c0,0.4,0,0.6,0,0.9
			c0.8,11.8,1.1,23.6,1,35.4c0,5-1.2,9.7-4.2,13.9c-0.2,0.3-0.2,1,0,1.3c2,3.6,4.1,7.2,6.1,10.7c0.9,1.7,1.9,3.3,2.9,5
			c5-4.7,10.4-8.5,16.1-11.9c8.4-5,16.9-9.8,25.3-14.6c0.4-0.2,0.9-0.6,1-1c0.1-1.4,0-2.8,0-4.3
			C259.2,157.5,248.3,160.6,237.2,163.8z M148.9,38.9c-0.3,1.3-0.6,2.5-0.9,3.6c-0.3,0.8-0.1,1.3,0.6,1.9c4.1,3.2,8.3,6.4,12.2,9.9
			c6,5.3,11.3,11.2,14.7,18.5c0.6,1.2,1.4,2.3,2.3,3.4c2.2,2.5,4.6,2.5,6.9,0.2c2.4-2.4,4-5.4,4.9-8.7c1.1-4,0.3-7.7-2.6-10.6
			c-2-2-4.3-3.7-6.7-5.1C170.4,46.2,159.7,42.7,148.9,38.9z"/>
		<path d="M280.4,61.4c8.4,8.4,16.6,16.6,24.7,24.7c-27.9,0-55.8,0-84.2,0c5.9,5.2,11.6,10.2,17.4,15.3c-5.2,0.6-9.9,2.3-14.4,4.3
			c-9.9,4.4-19.1,10-28.2,15.8c-3.5,2.2-6.9,4.5-10.5,6.9c3.6,2,7,3.9,10.6,5.9c-1.8,1-3.3,2.2-5,2.8c-2.8,1.1-3.5,2.9-3.4,5.8
			c0.4,12.7,0.5,25.3,0.8,38c0,2.3,0.3,4.5,0.4,6.8c0,0.3-0.2,0.9-0.5,1c-5.2,1.9-10.5,3.8-15.9,5.7c1-24,0.3-47.9,0-71.9
			c1.7,0.6,3.4,1.3,5.1,1.9c1.5,0.5,3,1.6,4.4,1.3c1.3-0.2,2.3-1.8,3.4-2.9c10.4-9.7,20.4-19.7,29.1-31c1.4-1.8,2.8-3.7,4.3-5.7
			c-27,0-53.7,0-80.5,0c0,0,0,0.1-0.1,0.1c0.3,0.1,0.7,0.2,1,0.3c8.3,2.6,16.7,5.3,24.4,9.4c2.8,1.5,5.6,3.3,8,5.4
			c3.1,2.7,3.8,6.3,2.5,10.2c-1,3.1-2.7,5.7-5,7.9c-2.4,2.3-4.7,2.1-6.7-0.5c-0.5-0.6-0.9-1.2-1.2-1.9c-2.6-5.6-6.5-10.2-10.9-14.5
			c-4.4-4.2-8.9-8.2-13.5-12.3c-0.7-0.6-0.9-1.1-0.5-1.9c0.3-0.7,0.5-1.5,0.8-2.4c-0.6,0-1,0-1.4,0c-13.5,0-27,0-40.6,0.1
			c-8.1,0.1-16.1,1.1-23.9,3.2c-0.8,0.2-1.4,0.1-2-0.5c-2.9-3-5.9-6-8.9-8.9c-0.2-0.2-0.5-0.5-0.8-0.9c0.7,0,1.2,0,1.7,0
			c66.8,0,133.7,0,200.5,0c1.1,0,1.8-0.3,2.6-1.1c5.2-5.2,10.4-10.4,15.6-15.6C280.1,62,280.3,61.6,280.4,61.4z"/>
		<path d="M97.1,167.4c0-1.6,0-3.1,0-4.7c1.9,0.2,3.7,0.4,5.5,0.6c5.8,0.6,11.7,1.2,17.5,1.8c0.9,0.1,1.9-0.1,2.9-0.3
			c3.2-0.6,5.3-2.8,5.7-6.1c0.1-1,0.2-2,0.2-3c0-10.5,0-21,0-31.6c0-0.5,0-0.9,0-1.5c-10.3,0-20.4,0-30.5,0
			c-0.1,2.1-0.2,4.1-0.3,6.1c-1.4,17.7-9.2,31.8-23.6,42.3c-7.8,5.7-16.4,9.6-25.7,12.7c-0.4-1.2-0.8-2.4-1.2-3.4
			c3.2-2.3,6.5-4.4,9.6-6.8c10.3-8,18.2-17.8,22.4-30.3c2.2-6.4,3.2-13,3.3-19.8c0-0.3,0-0.6-0.1-1.2c-2.8,0.3-5.5,0.5-8.1,1.1
			c-2.9,0.6-5.8,1.6-8.7,2.4c-0.4,0.1-1,0.1-1.2-0.2c-3.3-3.2-6.6-6.5-9.9-9.8c-0.1-0.1-0.1-0.1-0.2-0.4c0.5,0,1,0,1.4,0
			c23.4,0,46.8,0,70.2,0c0.9,0,1.5-0.3,2.1-1c2.4-3.2,4.9-6.3,7.4-9.6c5.5,5.1,11,10.2,16.6,15.4c-2.1,1.5-4.1,3.1-6.2,4.4
			c-1.6,1-2.1,2.2-2.1,4.1c0.1,11.1-0.1,22.2,0.1,33.4c0.2,9.3-4,15.6-12.2,19.4c-3.5,1.7-7.2,2.7-11,3.5c-0.1,0-0.2,0-0.4,0
			c-0.9-7.1-5.7-11.1-11.8-13.8c-3.3-1.4-6.8-2.3-10.2-3.4C98.1,167.6,97.6,167.5,97.1,167.4z"/>
		<path d="M237.2,163.8c11.1-3.2,22-6.3,33-9.4c0,1.5,0.1,2.9,0,4.3c0,0.4-0.6,0.8-1,1c-8.4,4.9-16.9,9.6-25.3,14.6
			c-5.7,3.4-11.2,7.2-16.1,11.9c-1-1.7-1.9-3.4-2.9-5c-2-3.6-4.1-7.1-6.1-10.7c-0.2-0.3-0.2-1,0-1.3c3-4.2,4.2-8.8,4.2-13.9
			c0.1-11.8-0.3-23.6-1-35.4c0-0.2,0-0.5,0-0.9c2.6,1.2,5.3,2.1,7.7,3.5c2,1.1,3.6,0.9,5.5-0.4c10.2-6.6,20.4-13.1,29.5-21.1
			c2.8-2.4,5.3-5.1,7.8-7.5c5.3,5.3,10.7,10.7,16.2,16.2c-10.5,1.1-20.5,4.4-30.7,8c15.4,21.5,35.2,36,61.8,40.3c0,0.8,0,1.6,0,2.4
			c0,0.8,0,1.5,0,2.3c-8.2,0.8-15.1,3.7-18.8,11.8c-10.5-6.7-19.8-14.6-27.9-24c-8.1-9.3-14.7-19.7-19.8-31.2
			c-5.6,2.2-11.2,4.5-17,6.8c3.6,1.6,7,3.1,10.6,4.8c-2.4,1.2-4.5,2.5-6.8,3.4c-2.1,0.8-2.8,2.1-2.7,4.4c0.2,7.9,0.1,15.8,0.1,23.6
			C237.2,162.7,237.2,163.2,237.2,163.8z"/>
		<path d="M148.9,38.9c10.8,3.8,21.5,7.3,31.4,13c2.4,1.4,4.7,3.2,6.7,5.1c3,2.9,3.7,6.6,2.6,10.6c-0.9,3.3-2.5,6.2-4.9,8.7
			c-2.3,2.3-4.8,2.3-6.9-0.2c-0.9-1-1.7-2.1-2.3-3.4c-3.4-7.4-8.7-13.3-14.7-18.5c-3.9-3.5-8.1-6.6-12.2-9.9c-0.7-0.6-0.9-1-0.6-1.9
			C148.3,41.4,148.5,40.2,148.9,38.9z"/>
	</g>
</g>
</svg>
