<?xml version="1.0" encoding="utf-8"?>
<!-- Generator: Adobe Illustrator 20.1.0, SVG Export Plug-In . SVG Version: 6.00 Build 0)  -->
<svg version="1.1" id="图层_1" xmlns="http://www.w3.org/2000/svg" xmlns:xlink="http://www.w3.org/1999/xlink" x="0px" y="0px"
	 viewBox="0 0 360 360" style="enable-background:new 0 0 360 360;" xml:space="preserve">
<style type="text/css">
	.st0{fill:#FFFFFF;}
</style>
<g>
	<path class="st0" d="M0.2,360.5c0-120.1,0-240.2,0-360.2c120.1,0,240.2,0,360.2,0c0,120.1,0,240.2,0,360.2
		C240.4,360.5,120.3,360.5,0.2,360.5z M169.9,202.8c-2.4,2.4-4.9,4.9-7.4,7.4c-0.4,0.4-1.1,0.7-1.7,0.8c-27.2,0-54.4,0-81.6,0
		c-0.6,0-1.3-0.2-1.8-0.5c-4.5-2.4-8.9-4.8-13.4-7.2c-0.3-0.2-0.7-0.3-1-0.5c1.6,36.2,1.2,72.2-0.1,108.3c0.4-0.2,0.7-0.3,1-0.4
		c4-1.7,8-3.4,12.1-5c0.8-0.3,1.1-0.8,1.1-1.7c0-16,0-32,0-48c0-0.5,0-0.9,0-1.4c6.3,0,12.5,0,18.8,0c0,14.5,0,28.9,0,43.4
		c0.4-0.1,0.7-0.2,0.9-0.3c3.7-1.7,7.3-3.4,11-5c0.8-0.4,1.1-0.8,1.1-1.7c0-11.6,0-23.3,0-34.9c0-0.5,0-1,0-1.5c6.8,0,13.4,0,20.1,0
		c0,13.3,0,26.5,0,39.9c0.4-0.2,0.7-0.3,1-0.4c3.6-1.7,7.3-3.3,10.9-4.9c0.8-0.3,1-0.8,1-1.6c0-10.5,0-21,0-31.6c0-0.5,0-0.9,0-1.4
		c7.1,0,14.1,0,21.1,0c0,0.3,0,0.6,0,0.9c0,10.4,0,20.8,0,31.2c0,0.8-0.1,1.5-0.3,2.3c-0.5,2.2-1.8,3.3-4.1,3.2
		c-2.6-0.1-5.3-0.3-7.9-0.5c-2.1-0.2-4.3-0.4-6.6-0.6c0,1.4,0,2.6,0,3.8c0,0.7,0.3,1,0.9,1.3c2.1,0.8,4.2,1.5,6.2,2.5
		c4.7,2.4,8.5,5.6,9.4,11.3c3.2-1.2,6.2-2.7,8.9-4.8c4.3-3.5,6.5-7.9,6.5-13.5c-0.1-22.4,0-44.8-0.1-67.2c0-3,0.6-5,3.4-6.2
		c1.3-0.6,2.5-1.6,3.6-2.4C178.5,211.4,174.3,207.1,169.9,202.8z M46.4,139.2c31.8-16.7,56.4-40.8,74.2-71.8
		c0.2,0.1,0.4,0.2,0.5,0.3c12.8,9.4,25.3,19.1,36.4,30.6c4.8,4.9,9.1,10.2,12.4,16.2c1.5,2.7,3.3,5.4,5.2,7.9c1,1.4,2.3,2.6,3.7,3.6
		c2.3,1.7,4.4,1.2,6.1-1c5.1-6.5,5.5-17.2-0.1-24.1c-3.9-4.8-8.6-8.5-13.6-11.8c-12.6-8.2-26.1-14.9-39.6-21.4
		c-2.7-1.3-5.5-2.6-8.4-4c4.7-2.8,9.3-5.5,14.1-8.2c-8.4-4.4-16.5-8.7-24.7-12.9c-0.1,0.1-0.2,0.1-0.2,0.2c-0.1,0.3-0.3,0.7-0.4,1
		c-6.4,16.2-14.3,31.6-24.2,45.9c-7.6,11.1-16.2,21.4-26,30.5c-5.1,4.7-10.4,9.1-15.7,13.6c-0.3,0.3-0.8,0.8-0.7,1.1
		C45.6,136.2,46,137.6,46.4,139.2z M145.4,199.2c3.4-1.5,6.7-3,10-4.5c0.3-0.1,0.5-0.7,0.6-1c0.1-0.9,0-1.7,0-2.6c3.6,0,7,0,10.6,0
		c0,1.9,0,3.8,0,5.8c3.2-1.1,6.2-2.1,9.2-3c1-0.3,1.4-0.7,1.4-1.9c-0.1-13.7,0-27.3-0.1-41c0-0.8,0.2-1.4,0.9-1.9
		c1.7-1.3,3.3-2.6,5-4c-4-3.6-7.9-7.1-11.8-10.7c-1.8,2.1-3.5,4.1-5.2,6.2c-0.5,0.6-1,0.9-1.8,0.9c-1.9-0.1-3.8-0.1-5.6,0
		c-1.9,0.1-3.5-0.3-5.1-1.3c-2.6-1.6-5.3-3-8.1-4.6C145.4,156.8,145.4,177.9,145.4,199.2z M124.1,196.9c3.3-1.1,6.3-2.2,9.4-3.1
		c1-0.3,1.3-0.8,1.3-1.8c0-13.6,0-27.1-0.1-40.7c0-1.2,0.4-1.9,1.4-2.4c1.5-0.8,3-1.8,4.5-2.7c-3.2-3.6-6.3-7.1-9.5-10.7
		c-2.2,1.8-4.3,3.6-6.4,5.3c-0.4,0.3-1,0.5-1.5,0.5c-2.6,0.1-5.1,0-7.7,0c-0.6,0-1.3-0.2-1.8-0.4c-2.9-1.3-5.8-2.6-8.8-3.9
		c-0.3-0.1-0.6-0.2-0.9-0.3c0,20.8,0,41.5,0,62.4c3.1-1.4,6.1-2.8,9.1-4c1.1-0.5,1.7-1,1.5-2.3c-0.1-0.6,0-1.2,0-1.9
		c3.2,0,6.2,0,9.3,0C124.1,193,124.1,194.8,124.1,196.9z M62.9,136.7c0,20.9,0,41.6,0,62.5c3.4-1.1,6.7-2.2,10-3.4
		c0.3-0.1,0.5-0.6,0.6-1c0.1-1.3,0-2.5,0-3.8c3.2,0,6.2,0,9.4,0c0,1.9,0,3.8,0,5.8c0.5-0.1,0.9-0.2,1.3-0.4c2.7-0.9,5.4-1.9,8.2-2.7
		c1-0.3,1.3-0.8,1.3-1.8c0-13.6,0-27.3,0-40.9c0-1,0.3-1.6,1.1-2.2c1.6-1.2,3.2-2.5,4.8-3.8c-3.6-3.2-7.1-6.3-10.7-9.5
		c-1.8,1.8-3.4,3.5-5.2,5.2c-0.4,0.4-1.1,0.7-1.6,0.7c-2.5,0.1-5,0.1-7.4,0c-0.7,0-1.4-0.2-2.1-0.4
		C69.3,139.6,66.2,138.2,62.9,136.7z M163.1,123.8c-4.9-5.3-9.5-10.3-14.3-15.4c-2.4,2.4-4.8,4.7-7.1,7.1c-0.8,0.8-1.6,1.2-2.8,1.2
		c-17.8,0-35.6,0-53.4,0c-0.4,0-0.8,0-1.5,0c0.4,0.5,0.6,0.7,0.9,1c3,3,6,6,9,9c0.6,0.6,1.1,0.7,1.8,0.5c8.2-2.2,16.6-3.2,25.1-3.3
		c13.6-0.1,27.1,0,40.7,0C161.9,123.8,162.3,123.8,163.1,123.8z"/>
	<path d="M169.9,202.8c4.3,4.3,8.6,8.6,13,13c-1.1,0.8-2.3,1.8-3.6,2.4c-2.8,1.3-3.4,3.2-3.4,6.2c0.1,22.4,0,44.8,0.1,67.2
		c0,5.6-2.2,10.1-6.5,13.5c-2.6,2.1-5.6,3.6-8.9,4.8c-0.9-5.7-4.7-8.9-9.4-11.3c-2-1-4.1-1.7-6.2-2.5c-0.6-0.2-1-0.5-0.9-1.3
		c0.1-1.2,0-2.5,0-3.8c2.3,0.2,4.4,0.5,6.6,0.6c2.6,0.2,5.3,0.4,7.9,0.5c2.3,0.1,3.6-1,4.1-3.2c0.2-0.7,0.3-1.5,0.3-2.3
		c0-10.4,0-20.8,0-31.2c0-0.3,0-0.5,0-0.9c-7,0-14,0-21.1,0c0,0.5,0,0.9,0,1.4c0,10.5,0,21,0,31.6c0,0.8-0.2,1.3-1,1.6
		c-3.7,1.6-7.3,3.3-10.9,4.9c-0.3,0.1-0.6,0.2-1,0.4c0-13.3,0-26.5,0-39.9c-6.7,0-13.3,0-20.1,0c0,0.5,0,1,0,1.5
		c0,11.6,0,23.3,0,34.9c0,0.9-0.2,1.3-1.1,1.7c-3.7,1.6-7.3,3.3-11,5c-0.2,0.1-0.5,0.2-0.9,0.3c0-14.5,0-28.9,0-43.4
		c-6.3,0-12.5,0-18.8,0c0,0.4,0,0.9,0,1.4c0,16,0,32,0,48c0,0.9-0.2,1.3-1.1,1.7c-4,1.6-8,3.3-12.1,5c-0.3,0.1-0.6,0.2-1,0.4
		c1.3-36.1,1.7-72.2,0.1-108.3c0.3,0.2,0.7,0.3,1,0.5c4.5,2.4,8.9,4.8,13.4,7.2c0.5,0.3,1.2,0.5,1.8,0.5c27.2,0,54.4,0,81.6,0
		c0.6,0,1.3-0.3,1.7-0.8C165.1,207.7,167.5,205.2,169.9,202.8z M108.9,218.1c0,9.8,0,19.5,0,29.2c6.7,0,13.2,0,19.8,0
		c0-9.8,0-19.5,0-29.2C122.2,218.1,115.6,218.1,108.9,218.1z M143.1,218.1c0,9.8,0,19.5,0,29.2c6.7,0,13.2,0,19.8,0
		c0-9.8,0-19.5,0-29.2C156.3,218.1,149.8,218.1,143.1,218.1z M77.1,247.4c6.3,0,12.4,0,18.6,0c0-9.8,0-19.5,0-29.2
		c-6.3,0-12.4,0-18.6,0C77.1,227.9,77.1,237.6,77.1,247.4z"/>
	<path d="M46.4,139.2c-0.4-1.5-0.8-2.9-1.1-4.4c-0.1-0.3,0.4-0.8,0.7-1.1c5.2-4.5,10.6-8.9,15.7-13.6c9.8-9.2,18.4-19.5,26-30.5
		c9.9-14.3,17.8-29.7,24.2-45.9c0.1-0.3,0.3-0.7,0.4-1c0-0.1,0.1-0.1,0.2-0.2c8.1,4.3,16.3,8.5,24.7,12.9c-4.8,2.8-9.3,5.5-14.1,8.2
		c2.9,1.4,5.7,2.7,8.4,4c13.5,6.5,27,13.2,39.6,21.4c5.1,3.3,9.8,7,13.6,11.8c5.6,6.9,5.2,17.6,0.1,24.1c-1.8,2.3-3.8,2.7-6.1,1
		c-1.4-1-2.7-2.2-3.7-3.6c-1.9-2.5-3.6-5.2-5.2-7.9c-3.4-6-7.7-11.3-12.4-16.2c-11.1-11.5-23.6-21.2-36.4-30.6
		c-0.1-0.1-0.3-0.2-0.5-0.3C102.7,98.3,78.2,122.4,46.4,139.2z"/>
	<path d="M145.4,199.2c0-21.3,0-42.4,0-63.6c2.8,1.6,5.5,3,8.1,4.6c1.6,1,3.2,1.4,5.1,1.3c1.9-0.1,3.8-0.1,5.6,0
		c0.8,0,1.3-0.3,1.8-0.9c1.7-2.1,3.4-4.1,5.2-6.2c4,3.6,7.8,7.1,11.8,10.7c-1.7,1.4-3.4,2.7-5,4c-0.7,0.5-0.9,1.1-0.9,1.9
		c0,13.7,0,27.3,0.1,41c0,1.1-0.4,1.6-1.4,1.9c-3,0.9-6,2-9.2,3c0-2,0-3.8,0-5.8c-3.6,0-7,0-10.6,0c0,0.9,0.1,1.8,0,2.6
		c0,0.4-0.3,0.9-0.6,1C152.1,196.2,148.8,197.7,145.4,199.2z M156,148.6c0,11.8,0,23.4,0,35.1c3.5,0,7,0,10.4,0
		c0-11.8,0-23.4,0-35.1C163,148.6,159.6,148.6,156,148.6z"/>
	<path d="M124.1,196.9c0-2.1,0-3.9,0-5.8c-3.1,0-6.1,0-9.3,0c0,0.6-0.1,1.3,0,1.9c0.2,1.3-0.4,1.8-1.5,2.3c-3,1.3-6,2.6-9.1,4
		c0-20.8,0-41.5,0-62.4c0.3,0.1,0.6,0.2,0.9,0.3c2.9,1.3,5.8,2.6,8.8,3.9c0.6,0.2,1.2,0.4,1.8,0.4c2.6,0,5.1,0,7.7,0
		c0.5,0,1.1-0.2,1.5-0.5c2.2-1.7,4.3-3.5,6.4-5.3c3.1,3.5,6.2,7,9.5,10.7c-1.5,0.9-3,1.9-4.5,2.7c-1,0.5-1.4,1.2-1.4,2.4
		c0.1,13.6,0,27.1,0.1,40.7c0,1.1-0.3,1.5-1.3,1.8C130.4,194.7,127.3,195.8,124.1,196.9z M124,183.8c0-11.8,0-23.5,0-35.1
		c-3.1,0-6.2,0-9.2,0c0,11.8,0,23.4,0,35.1C117.9,183.8,120.9,183.8,124,183.8z"/>
	<path d="M62.9,136.7c3.2,1.4,6.4,2.8,9.5,4.2c0.6,0.3,1.4,0.4,2.1,0.4c2.5,0.1,5,0.1,7.4,0c0.6,0,1.2-0.3,1.6-0.7
		c1.7-1.7,3.4-3.4,5.2-5.2c3.6,3.2,7.1,6.3,10.7,9.5c-1.7,1.3-3.2,2.6-4.8,3.8c-0.8,0.6-1.1,1.2-1.1,2.2c0,13.6,0,27.3,0,40.9
		c0,1-0.3,1.5-1.3,1.8c-2.8,0.8-5.5,1.8-8.2,2.7c-0.4,0.1-0.7,0.2-1.3,0.4c0-2,0-3.8,0-5.8c-3.1,0-6.2,0-9.4,0c0,1.3,0,2.5,0,3.8
		c0,0.3-0.3,0.9-0.6,1c-3.3,1.1-6.6,2.2-10,3.4C62.9,178.4,62.9,157.7,62.9,136.7z M73.6,148.6c0,11.8,0,23.5,0,35.2
		c3.1,0,6.1,0,9.2,0c0-11.7,0-23.4,0-35.2C79.7,148.6,76.7,148.6,73.6,148.6z"/>
	<path d="M163.1,123.8c-0.7,0-1.2,0-1.6,0c-13.6,0-27.1-0.1-40.7,0c-8.5,0-16.9,1.1-25.1,3.3c-0.7,0.2-1.2,0.1-1.8-0.5c-3-3-6-6-9-9
		c-0.2-0.2-0.5-0.5-0.9-1c0.7,0,1.1,0,1.5,0c17.8,0,35.6,0,53.4,0c1.2,0,2-0.3,2.8-1.2c2.3-2.4,4.7-4.7,7.1-7.1
		C153.6,113.5,158.2,118.6,163.1,123.8z"/>
	<path class="st0" d="M108.9,218.1c6.7,0,13.2,0,19.8,0c0,9.8,0,19.5,0,29.2c-6.6,0-13.2,0-19.8,0
		C108.9,237.6,108.9,227.9,108.9,218.1z"/>
	<path class="st0" d="M143.1,218.1c6.7,0,13.2,0,19.8,0c0,9.8,0,19.5,0,29.2c-6.6,0-13.1,0-19.8,0
		C143.1,237.6,143.1,227.9,143.1,218.1z"/>
	<path class="st0" d="M77.1,247.4c0-9.8,0-19.5,0-29.2c6.2,0,12.4,0,18.6,0c0,9.7,0,19.5,0,29.2C89.5,247.4,83.4,247.4,77.1,247.4z"
		/>
	<path class="st0" d="M156,148.6c3.5,0,6.9,0,10.4,0c0,11.7,0,23.4,0,35.1c-3.4,0-6.9,0-10.4,0C156,172.1,156,160.4,156,148.6z"/>
	<path class="st0" d="M124,183.8c-3.1,0-6.1,0-9.2,0c0-11.7,0-23.4,0-35.1c3,0,6.1,0,9.2,0C124,160.3,124,172,124,183.8z"/>
	<path class="st0" d="M73.6,148.6c3.1,0,6.1,0,9.2,0c0,11.7,0,23.4,0,35.2c-3.1,0-6.1,0-9.2,0C73.6,172.1,73.6,160.4,73.6,148.6z"/>
</g>
</svg>
