<?xml version="1.0" encoding="utf-8"?>
<!-- Generator: Adobe Illustrator 20.1.0, SVG Export Plug-In . SVG Version: 6.00 Build 0)  -->
<svg version="1.1" id="图层_1" xmlns="http://www.w3.org/2000/svg" xmlns:xlink="http://www.w3.org/1999/xlink" x="0px" y="0px"
	 viewBox="0 0 360 360" style="enable-background:new 0 0 360 360;" xml:space="preserve">
<style type="text/css">
	.st0{fill:#FFFFFF;}
</style>
<path class="st0" d="M0.2,360.5c0-120.1,0-240.2,0-360.2c120.1,0,240.2,0,360.2,0c0,120.1,0,240.2,0,360.2
	C240.4,360.5,120.3,360.5,0.2,360.5z M135.8,123.7c-12.1,13.8-25.9,24.9-41.4,34c-15.5,9-32,15.5-49.3,20.2c0.4,1.7,0.8,3.2,1.2,4.9
	c5.1-1.3,10-2.6,15-4c17.5-4.9,34.4-11.3,50.2-20.2c15.7-8.8,29.5-19.8,40.5-34.2c0.3-0.4,1-0.6,1.5-0.6c19.3,0,38.6,0,57.8,0
	c0.8,0,1.3,0.2,1.8,0.8c6.8,7.7,14.3,14.7,22.6,20.9c16.1,12.1,33.9,20.7,53.2,26.4c3.2,0.9,6.4,1.8,9.5,2.6
	c0.5-1.2,0.9-2.2,1.4-3.2c2.6-5,7-8,12.2-9.9c2.5-0.9,5.1-1.6,7.7-2.4c-0.2-0.8-0.6-1.5-0.7-2.4c-0.2-0.9-0.7-1.1-1.5-1.1
	c-12.9-0.3-25.7-1.7-38.4-4.5c-21.1-4.7-40.6-13.2-58-26.1c-0.4-0.3-0.7-0.6-1.1-0.8c0-0.1,0.1-0.2,0.1-0.3c29.2,0,58.4,0,87.8,0
	c-6.4-6.8-12.6-13.4-19-20.2c-0.3,0.4-0.5,0.8-0.9,1.1c-3.7,3.7-7.5,7.5-11.2,11.2c-0.6,0.6-1.2,0.8-2,0.8c-39.2,0-78.4,0-117.6,0
	c-0.4,0-0.8,0-1.3,0c0.2-0.4,0.4-0.7,0.5-1c3.5-6.7,7.1-13.3,10.5-20c0.5-1,1-1.4,2.1-1.4c39,0,78,0,117,0c0.5,0,1,0,1.8,0
	c-6.5-6.9-12.7-13.4-18.9-20.1c-0.4,0.3-0.6,0.5-0.9,0.7c-4.2,3.8-8.4,7.7-12.6,11.5c-0.4,0.4-1.1,0.7-1.7,0.7
	c-15.7,0-31.4,0-47.2,0c-0.3,0-0.6-0.1-1.2-0.1c7.6-6.4,15.1-12.5,23.4-17.5c3.1-1.8,6.3-3.5,9.8-4.4c0.6-0.1,1.2-0.3,1.9-0.5
	c-5.6-5.2-11-10.2-16.5-15.3c-0.3,0.5-0.5,0.8-0.7,1.2c-6.6,12.3-14,24.2-22.2,35.6c-0.5,0.7-1.1,1-2,1c-9.3,0-18.6,0-28,0
	c-0.4,0-0.8,0-1.5,0c2.2-5.3,4-10.5,6.3-15.4c3.6-7.9,7-16.1,14.8-21.2c-8.6-3.5-17.1-7-25.7-10.5c-0.1,0.6-0.1,1-0.2,1.4
	c-0.5,3.6-0.9,7.2-1.6,10.8c-2.3,11.5-5.8,22.6-9.5,33.6c-0.4,1.1-0.8,1.4-1.9,1.4c-26.1,0-52.2,0-78.2,0c-0.5,0-0.9,0-1.6,0
	c0.3,0.4,0.5,0.6,0.6,0.7c3.1,3.1,6.1,6.1,9.1,9.2c0.6,0.6,1.1,0.7,1.9,0.5c7.4-1.9,14.9-3.1,22.5-3.2c14.6-0.2,29.1-0.1,43.7-0.1
	c0.3,0,0.6,0.1,1,0.1c-0.1,0.3-0.2,0.6-0.2,0.8c-2.7,7.3-6.2,14.1-10.7,20.4c-0.5,0.8-1.1,1-2.1,1c-29.3,0-58.6,0-87.8,0
	c-0.5,0-0.9,0-1.4,0c0.1,0.2,0.1,0.3,0.1,0.3c3.3,3.3,6.5,6.6,9.9,9.8c0.3,0.3,0.9,0.3,1.3,0.2c9.1-2.4,18.5-3.3,27.9-3.3
	c15.4,0,30.7,0,46.1,0C134.5,123.7,135,123.7,135.8,123.7z M267.7,247.4c-55.9,0-111.5,0-167.2,0c0-6.9,0-13.8,0-20.6
	c0-0.4,0.3-0.8,0.6-1.1c1.6-1.7,3.3-3.4,5-5c0.9-0.8,1.8-1.6,2.9-2.6c-8.2-2.9-16-5.6-23.9-8.3c0,0.7,0,1.3,0,1.9
	c0.2,7.6,0.5,15.3,0.7,22.9c0.2,11.5,0.3,23,0.4,34.5c0.1,8.9,0,17.8,0.1,26.6c0,0.9-0.3,1.5-1.1,2.1c-2.8,2-5.6,4.1-8.4,6.3
	c5.2,4.4,10.3,8.7,15.4,13c2.9-3.3,5.8-6.5,8.6-9.7c0.6-0.7,1.2-0.9,2-0.9c54.5,0,109,0,163.6,0c0.4,0,0.9,0,1.4,0c0,3.5,0,7,0,10.5
	c0.3,0,0.4,0,0.6-0.1c4.7-1.8,9.5-3.6,14.2-5.5c0.3-0.1,0.6-0.7,0.6-1.1c-0.3-8.9-0.6-17.8-0.8-26.7c-0.2-8.8-0.2-17.6-0.3-26.4
	c0-8.8,0.1-17.5-0.1-26.3c-0.1-2.5,0.6-4.2,2.7-5.7c2.4-1.8,4.5-3.9,6.9-6c-8.3-3.6-16.5-7.1-24.6-10.6
	C267.1,221.5,267.4,234.4,267.7,247.4z M148.2,198.3c0-0.1,0.1-0.2,0.1-0.3c50,0,100,0,150,0c-7.5-7.4-14.9-14.8-22.5-22.5
	c-0.2,0.3-0.3,0.7-0.6,1c-4.5,4.5-9,9.1-13.6,13.6c-0.5,0.6-1.1,0.8-1.9,0.8c-22.4,0-44.7,0-67.1,0c-0.4,0-0.8,0-1.2,0
	c0-7.5,0-14.9,0-22.4c17.6,0,35.2,0,53,0c-6-6.4-11.8-12.6-17.9-19c-0.2,0.4-0.4,0.7-0.6,0.9c-3,3.4-6.1,6.8-9.1,10.2
	c-0.6,0.6-1.1,0.9-1.9,0.9c-7.4,0-14.8,0-22.2,0c-0.4,0-0.8,0-1.3-0.1c0-5,0-9.9,0-14.7c0-0.3,0.4-0.8,0.7-1
	c2.5-2.3,5.1-4.5,7.7-6.7c0.3-0.3,0.7-0.6,1.1-1c-8.3-3.2-16.5-6.3-24.5-9.3c0.3,20.7,0.7,41.5,1,62.2c-12.4,0-24.5,0-36.7,0
	c0-0.5,0-0.9,0-1.3c0-6.6,0-13.2,0-19.8c0-0.9,0.3-1.4,1-1.9c2.4-1.7,4.8-3.4,7.4-5.2c-8-3.2-15.7-6.3-23.5-9.4
	c0.4,12.6,0.8,25.1,1.2,37.6c-20.2,0-40.1,0-60.3,0c0.4,0.5,0.7,0.8,0.9,1c2.9,2.9,5.9,5.9,8.8,8.8c0.6,0.6,1.2,0.7,2,0.5
	c8.2-2.2,16.6-3.2,25-3.2c14.4-0.1,28.7,0,43.1,0c0.4,0,0.8,0,1.4,0c-7.3,19.3-19.7,34.4-36.5,45.9c0.4,0.8,0.8,1.6,1.2,2.4
	c13.8-4.9,25.9-12.5,36.6-22.4c1.3,0.8,2.5,1.5,3.7,2.3c5.1,3.5,8.9,8.2,12,13.5c1.1,1.8,2.4,3.6,3.8,5.2c2.1,2.2,4.5,1.9,6-0.7
	c1-1.8,1.8-3.8,2.4-5.8c0.9-3.4,0-6.6-2.7-9c-1.4-1.3-3-2.4-4.7-3.3c-4.4-2.3-9.1-3.6-13.9-4.7c-1.4-0.3-2.8-0.6-4.3-1
	c4.4-4.4,8.8-8.4,14-11.8C159.5,205,153.9,201.6,148.2,198.3z M236.1,209.7c-6-3.6-11.8-7.1-17.8-10.6c-3.1,9.2-7.7,17.2-13.7,24.5
	c-5.9,7.3-12.9,13.5-20.4,19c0.9,2.6,0.9,2.6,3.3,1.8c0.4-0.1,0.8-0.3,1.2-0.4c10.5-3.6,20.1-8.6,28.3-16.2c1.7-1.6,3.5-3.1,5.5-5
	c4.5,2.6,9.4,5.4,14.2,8.4c3.5,2.1,6.9,4.4,9,8.1c0.2,0.3,0.5,0.5,0.7,0.8c1.7,1.7,3.5,1.7,5.3,0.1c2.7-2.5,3.4-7.4,1.3-10.6
	c-1.6-2.5-3.9-4.4-6.5-5.7c-4.7-2.4-9.8-3-15-3.4c-2.3-0.2-4.7-0.2-7.2-0.3C227.8,216.2,231.5,212.6,236.1,209.7z M99.3,50.6
	c-0.3,0.9-0.5,1.8-0.9,2.5c-0.4,0.8-0.1,1.3,0.6,1.9c8,6,14.2,13.3,18.4,22.5c0.8,1.7,1.9,3.4,3.1,4.8c2.1,2.5,4.6,2.5,6.7,0
	c2.2-2.4,3.6-5.3,4.2-8.5c0.6-3.2-0.1-6.1-2.2-8.5c-1.1-1.3-2.3-2.4-3.7-3.4C117.6,56.5,108.5,53.7,99.3,50.6z"/>
<path d="M267.7,247.4c-0.3-12.9-0.6-25.8-0.9-38.8c8.1,3.5,16.3,7,24.6,10.6c-2.4,2.1-4.5,4.2-6.9,6c-2,1.5-2.7,3.2-2.7,5.7
	c0.2,8.8,0.1,17.5,0.1,26.3c0,8.8,0.1,17.6,0.3,26.4c0.2,8.9,0.6,17.8,0.8,26.7c0,0.4-0.3,1-0.6,1.1c-4.7,1.9-9.5,3.7-14.2,5.5
	c-0.1,0.1-0.3,0.1-0.6,0.1c0-3.5,0-6.9,0-10.5c-0.5,0-1,0-1.4,0c-54.5,0-109,0-163.6,0c-0.9,0-1.5,0.3-2,0.9
	c-2.8,3.2-5.7,6.4-8.6,9.7c-5.1-4.3-10.2-8.6-15.4-13c2.9-2.2,5.6-4.3,8.4-6.3c0.8-0.5,1.1-1.1,1.1-2.1c-0.1-8.9,0-17.8-0.1-26.6
	c-0.1-11.5-0.2-23-0.4-34.5c-0.1-7.6-0.4-15.3-0.7-22.9c0-0.6,0-1.1,0-1.9c7.9,2.8,15.6,5.5,23.9,8.3c-1.1,1-2.1,1.7-2.9,2.6
	c-1.7,1.6-3.4,3.3-5,5c-0.3,0.3-0.6,0.7-0.6,1.1c0,6.8,0,13.7,0,20.6C156.2,247.4,211.8,247.4,267.7,247.4z M227.8,272.1
	c0.7,0.2,0.9,0.2,1.2,0.3c4,1,8,1.8,12,2.9c4.3,1.2,8.5,2.7,12.1,5.6c4.8,3.8,4.8,11.7,0,15.6c-1.8,1.4-3.7,1.5-5.4,0
	c-1.2-1.1-2.2-2.3-3-3.7c-4.7-7.8-11.8-13-19.1-18.1c-0.3,0.3-0.6,0.6-0.9,0.9c-2.2,2.1-4.3,4.3-6.6,6.3
	c-8.2,7.2-17.3,12.7-27.8,15.7c-2.5,0.7-2.6,0.7-3.6-1.8c7.3-5,13.9-11,19.4-18c5.6-7,10-14.7,13.4-23.1c-26,0-51.9,0-77.8,0
	c0,0.1,0,0.1,0,0.2c5.9,2.2,11.8,4.4,17.7,6.7c-3.9,3.5-7.7,7-11.7,10.6c0.8,0.1,1.1,0.2,1.5,0.3c5.9,1.1,11.7,2.4,17.1,5
	c4.3,2,7.7,4.9,9.1,9.6c1.1,3.4,0.4,6.5-2,9.1c-2.5,2.6-5.2,2.8-7.7,0.2c-1.5-1.6-2.8-3.6-4-5.5c-3.5-5.9-8-10.7-14.2-13.9
	c-2.1-1.1-2.1-1.1-3.9,0.4c-9.1,7.7-18.8,14.6-29.7,19.7c-2.9,1.3-2.9,1.3-5-1.1c0,0,0-0.1-0.1-0.2c14.4-10.6,25.2-24.1,31.7-41
	c-13.4,0-26.6,0-39.8,0c0,14.9,0,29.7,0,44.5c55.7,0,111.4,0,167,0c0-14.9,0-29.7,0-44.5c-15.9,0-31.6,0-47.3,0c0,0.1,0,0.1-0.1,0.2
	c5.6,3,11.2,6,16.9,9C234,266.6,231,269.2,227.8,272.1z"/>
<path d="M148.2,198.3c5.6,3.4,11.3,6.8,17.1,10.3c-5.2,3.4-9.6,7.3-14,11.8c1.6,0.4,2.9,0.7,4.3,1c4.8,1.1,9.5,2.4,13.9,4.7
	c1.7,0.9,3.3,2,4.7,3.3c2.6,2.4,3.5,5.5,2.7,9c-0.5,2-1.3,4-2.4,5.8c-1.5,2.7-3.9,3-6,0.7c-1.5-1.5-2.7-3.3-3.8-5.2
	c-3.2-5.3-6.9-10-12-13.5c-1.2-0.8-2.4-1.5-3.7-2.3c-10.7,9.9-22.8,17.6-36.6,22.4c-0.4-0.8-0.8-1.6-1.2-2.4
	c16.8-11.5,29.2-26.6,36.5-45.9c-0.6,0-1,0-1.4,0c-14.4,0-28.7-0.1-43.1,0c-8.5,0-16.8,1.1-25,3.2c-0.8,0.2-1.4,0.1-2-0.5
	c-2.9-3-5.9-5.9-8.8-8.8c-0.3-0.3-0.5-0.6-0.9-1c20.2,0,40.1,0,60.3,0c-0.4-12.6-0.8-25-1.2-37.6c7.7,3.1,15.5,6.2,23.5,9.4
	c-2.6,1.8-4.9,3.6-7.4,5.2c-0.7,0.5-1,1-1,1.9c0,6.6,0,13.2,0,19.8c0,0.4,0,0.8,0,1.3c12.2,0,24.3,0,36.7,0
	c-0.3-20.8-0.7-41.5-1-62.2c8,3,16.1,6.1,24.5,9.3c-0.4,0.4-0.7,0.7-1.1,1c-2.6,2.2-5.1,4.5-7.7,6.7c-0.3,0.3-0.7,0.7-0.7,1
	c0,4.9,0,9.7,0,14.7c0.5,0,0.9,0.1,1.3,0.1c7.4,0,14.8,0,22.2,0c0.8,0,1.4-0.2,1.9-0.9c3-3.4,6.1-6.8,9.1-10.2
	c0.2-0.2,0.3-0.5,0.6-0.9c6,6.4,11.9,12.6,17.9,19c-17.8,0-35.3,0-53,0c0,7.5,0,14.8,0,22.4c0.4,0,0.8,0,1.2,0c22.4,0,44.7,0,67.1,0
	c0.8,0,1.3-0.2,1.9-0.8c4.5-4.5,9-9.1,13.6-13.6c0.3-0.3,0.5-0.8,0.6-1c7.7,7.7,15.1,15.1,22.5,22.5c-50,0-100,0-150,0
	C148.3,198.1,148.2,198.2,148.2,198.3z"/>
<path d="M236.1,209.7c-4.6,2.9-8.3,6.4-11.7,10.5c2.5,0.1,4.9,0.2,7.2,0.3c5.2,0.4,10.3,1,15,3.4c2.6,1.4,4.9,3.2,6.5,5.7
	c2.1,3.1,1.4,8-1.3,10.6c-1.8,1.7-3.5,1.6-5.3-0.1c-0.3-0.3-0.5-0.5-0.7-0.8c-2.2-3.6-5.6-5.9-9-8.1c-4.8-3-9.7-5.8-14.2-8.4
	c-2,1.8-3.8,3.4-5.5,5c-8.2,7.6-17.8,12.6-28.3,16.2c-0.4,0.1-0.8,0.3-1.2,0.4c-2.4,0.8-2.4,0.8-3.3-1.8c7.5-5.5,14.5-11.7,20.4-19
	c6-7.3,10.6-15.4,13.7-24.5C224.2,202.6,230.1,206.1,236.1,209.7z"/>
<path class="st0" d="M227.8,272.1c3.3-2.9,6.3-5.5,9.4-8.2c-5.6-3-11.2-6-16.9-9c0-0.1,0-0.1,0.1-0.2c15.7,0,31.4,0,47.3,0
	c0,14.8,0,29.6,0,44.5c-55.6,0-111.3,0-167,0c0-14.9,0-29.7,0-44.5c13.3,0,26.5,0,39.8,0c-6.5,16.9-17.3,30.4-31.7,41
	c0,0.1,0,0.2,0.1,0.2c2.1,2.4,2.1,2.4,5,1.1c10.9-5.1,20.6-11.9,29.7-19.7c1.8-1.5,1.8-1.6,3.9-0.4c6.1,3.2,10.7,8,14.2,13.9
	c1.1,2,2.4,3.9,4,5.5c2.5,2.6,5.2,2.5,7.7-0.2c2.5-2.6,3.1-5.7,2-9.1c-1.5-4.7-4.8-7.6-9.1-9.6c-5.4-2.6-11.2-3.9-17.1-5
	c-0.4-0.1-0.8-0.2-1.5-0.3c4-3.6,7.8-7.1,11.7-10.6c-5.9-2.2-11.8-4.4-17.7-6.7c0-0.1,0-0.1,0-0.2c25.9,0,51.8,0,77.8,0
	c-3.4,8.4-7.9,16.1-13.4,23.1c-5.6,7-12.1,13-19.4,18c1.1,2.5,1.1,2.5,3.6,1.8c10.5-3,19.7-8.5,27.8-15.7c2.3-2,4.4-4.2,6.6-6.3
	c0.3-0.3,0.6-0.5,0.9-0.9c7.3,5.1,14.4,10.3,19.1,18.1c0.8,1.4,1.9,2.6,3,3.7c1.7,1.6,3.6,1.5,5.4,0c4.8-3.8,4.8-11.7,0-15.6
	c-3.6-2.8-7.8-4.4-12.1-5.6c-4-1.1-8-2-12-2.9C228.7,272.3,228.4,272.3,227.8,272.1z"/>
</svg>
